<?xml version="1.0" encoding="UTF-8" standalone="no"?>
<!DOCTYPE svg PUBLIC "-//W3C//DTD SVG 1.1//EN"
 "http://www.w3.org/Graphics/SVG/1.1/DTD/svg11.dtd">
<!-- Generated by graphviz version 12.2.1 (20241206.2353)
 -->
<!-- Title: lib/Util/APIntHelper.cpp Pages: 1 -->
<svg width="272pt" height="138pt"
 viewBox="0.00 0.00 272.12 137.75" xmlns="http://www.w3.org/2000/svg" xmlns:xlink="http://www.w3.org/1999/xlink">
<g id="graph0" class="graph" transform="scale(1 1) rotate(0) translate(4 133.75)">
<title>lib/Util/APIntHelper.cpp</title>
<!-- Node1 -->
<g id="Node000001" class="node">
<title>Node1</title>
<g id="a_Node000001"><a xlink:title=" ">
<polygon fill="#999999" stroke="#666666" points="205,-129.75 87,-129.75 87,-110.5 205,-110.5 205,-129.75"/>
<text text-anchor="middle" x="146" y="-116.25" font-family="Helvetica,sans-Serif" font-size="10.00">lib/Util/APIntHelper.cpp</text>
</a>
</g>
</g>
<!-- Node2 -->
<g id="Node000002" class="node">
<title>Node2</title>
<g id="a_Node000002"><a xlink:href="_a_p_int_helper_8h.html" target="_top" xlink:title="This file defines helpers for manipulating APInts/APSInts for large numbers and operations over those...">
<polygon fill="white" stroke="#666666" points="202.38,-74.5 89.62,-74.5 89.62,-55.25 202.38,-55.25 202.38,-74.5"/>
<text text-anchor="middle" x="146" y="-61" font-family="Helvetica,sans-Serif" font-size="10.00">llzk/Util/APIntHelper.h</text>
</a>
</g>
</g>
<!-- Node1&#45;&gt;Node2 -->
<g id="edge1_Node000001_Node000002" class="edge">
<title>Node1&#45;&gt;Node2</title>
<g id="a_edge1_Node000001_Node000002"><a xlink:title=" ">
<path fill="none" stroke="#63b8ff" d="M146,-110.33C146,-103.82 146,-94.67 146,-86.37"/>
<polygon fill="#63b8ff" stroke="#63b8ff" points="149.5,-86.37 146,-76.37 142.5,-86.37 149.5,-86.37"/>
</a>
</g>
</g>
<!-- Node3 -->
<g id="Node000003" class="node">
<title>Node3</title>
<g id="a_Node000003"><a xlink:title=" ">
<polygon fill="#e0e0e0" stroke="#999999" points="100,-19.25 0,-19.25 0,0 100,0 100,-19.25"/>
<text text-anchor="middle" x="50" y="-5.75" font-family="Helvetica,sans-Serif" font-size="10.00">llvm/ADT/APSInt.h</text>
</a>
</g>
</g>
<!-- Node2&#45;&gt;Node3 -->
<g id="edge2_Node000002_Node000003" class="edge">
<title>Node2&#45;&gt;Node3</title>
<g id="a_edge2_Node000002_Node000003"><a xlink:title=" ">
<path fill="none" stroke="#63b8ff" d="M129.71,-54.84C115.1,-46.73 93.37,-34.68 76.29,-25.21"/>
<polygon fill="#63b8ff" stroke="#63b8ff" points="78.13,-22.23 67.69,-20.44 74.74,-28.35 78.13,-22.23"/>
</a>
</g>
</g>
<!-- Node4 -->
<g id="Node000004" class="node">
<title>Node4</title>
<g id="a_Node000004"><a xlink:title=" ">
<polygon fill="#e0e0e0" stroke="#999999" points="173.88,-19.25 118.12,-19.25 118.12,0 173.88,0 173.88,-19.25"/>
<text text-anchor="middle" x="146" y="-5.75" font-family="Helvetica,sans-Serif" font-size="10.00">algorithm</text>
</a>
</g>
</g>
<!-- Node2&#45;&gt;Node4 -->
<g id="edge3_Node000002_Node000004" class="edge">
<title>Node2&#45;&gt;Node4</title>
<g id="a_edge3_Node000002_Node000004"><a xlink:title=" ">
<path fill="none" stroke="#63b8ff" d="M146,-55.08C146,-48.57 146,-39.42 146,-31.12"/>
<polygon fill="#63b8ff" stroke="#63b8ff" points="149.5,-31.12 146,-21.12 142.5,-31.12 149.5,-31.12"/>
</a>
</g>
</g>
<!-- Node5 -->
<g id="Node000005" class="node">
<title>Node5</title>
<g id="a_Node000005"><a xlink:title=" ">
<polygon fill="#e0e0e0" stroke="#999999" points="264.12,-19.25 191.88,-19.25 191.88,0 264.12,0 264.12,-19.25"/>
<text text-anchor="middle" x="228" y="-5.75" font-family="Helvetica,sans-Serif" font-size="10.00">initializer_list</text>
</a>
</g>
</g>
<!-- Node2&#45;&gt;Node5 -->
<g id="edge4_Node000002_Node000005" class="edge">
<title>Node2&#45;&gt;Node5</title>
<g id="a_edge4_Node000002_Node000005"><a xlink:title=" ">
<path fill="none" stroke="#63b8ff" d="M159.91,-54.84C172.16,-46.89 190.25,-35.14 204.71,-25.75"/>
<polygon fill="#63b8ff" stroke="#63b8ff" points="206.27,-28.91 212.75,-20.53 202.46,-23.04 206.27,-28.91"/>
</a>
</g>
</g>
</g>
</svg>
