<?xml version="1.0" encoding="UTF-8" standalone="no"?>
<!DOCTYPE svg PUBLIC "-//W3C//DTD SVG 1.1//EN"
 "http://www.w3.org/Graphics/SVG/1.1/DTD/svg11.dtd">
<!-- Generated by graphviz version 12.2.1 (20241206.2353)
 -->
<!-- Title: include/llzk/Analysis/AbstractLatticeValue.h Pages: 1 -->
<svg width="2058pt" height="172pt"
 viewBox="0.00 0.00 2057.88 171.50" xmlns="http://www.w3.org/2000/svg" xmlns:xlink="http://www.w3.org/1999/xlink">
<g id="graph0" class="graph" transform="scale(1 1) rotate(0) translate(4 167.5)">
<title>include/llzk/Analysis/AbstractLatticeValue.h</title>
<!-- Node1 -->
<g id="Node000001" class="node">
<title>Node1</title>
<g id="a_Node000001"><a xlink:title=" ">
<polygon fill="#999999" stroke="#666666" points="1772.88,-163.5 1655.62,-163.5 1655.62,-133 1772.88,-133 1772.88,-163.5"/>
<text text-anchor="start" x="1663.62" y="-150" font-family="Helvetica,sans-Serif" font-size="10.00">include/llzk/Analysis</text>
<text text-anchor="middle" x="1714.25" y="-138.75" font-family="Helvetica,sans-Serif" font-size="10.00">/AbstractLatticeValue.h</text>
</a>
</g>
</g>
<!-- Node2 -->
<g id="Node000002" class="node">
<title>Node2</title>
<g id="a_Node000002"><a xlink:href="_debug_8h.html" target="_top" xlink:title=" ">
<polygon fill="white" stroke="#666666" points="717.62,-91.38 628.88,-91.38 628.88,-72.12 717.62,-72.12 717.62,-91.38"/>
<text text-anchor="middle" x="673.25" y="-77.88" font-family="Helvetica,sans-Serif" font-size="10.00">llzk/Util/Debug.h</text>
</a>
</g>
</g>
<!-- Node1&#45;&gt;Node2 -->
<g id="edge1_Node000001_Node000002" class="edge">
<title>Node1&#45;&gt;Node2</title>
<g id="a_edge1_Node000001_Node000002"><a xlink:title=" ">
<path fill="none" stroke="#63b8ff" d="M1655.3,-143.6C1471.27,-132.2 909.03,-97.36 729.19,-86.22"/>
<polygon fill="#63b8ff" stroke="#63b8ff" points="729.62,-82.74 719.42,-85.61 729.18,-89.72 729.62,-82.74"/>
</a>
</g>
</g>
<!-- Node13 -->
<g id="Node000013" class="node">
<title>Node13</title>
<g id="a_Node000013"><a xlink:href="_error_helper_8h.html" target="_top" xlink:title=" ">
<polygon fill="white" stroke="#666666" points="1445.75,-91.38 1336.75,-91.38 1336.75,-72.12 1445.75,-72.12 1445.75,-91.38"/>
<text text-anchor="middle" x="1391.25" y="-77.88" font-family="Helvetica,sans-Serif" font-size="10.00">llzk/Util/ErrorHelper.h</text>
</a>
</g>
</g>
<!-- Node1&#45;&gt;Node13 -->
<g id="edge12_Node000001_Node000013" class="edge">
<title>Node1&#45;&gt;Node13</title>
<g id="a_edge12_Node000001_Node000013"><a xlink:title=" ">
<path fill="none" stroke="#63b8ff" d="M1655.28,-136.4C1602.52,-126.56 1523.09,-111.43 1454.25,-97 1450.17,-96.14 1445.94,-95.24 1441.7,-94.31"/>
<polygon fill="#63b8ff" stroke="#63b8ff" points="1442.53,-90.91 1432.01,-92.16 1441.01,-97.74 1442.53,-90.91"/>
</a>
</g>
</g>
<!-- Node17 -->
<g id="Node000017" class="node">
<title>Node17</title>
<g id="a_Node000017"><a xlink:title=" ">
<polygon fill="#e0e0e0" stroke="#999999" points="1580.88,-97 1463.62,-97 1463.62,-66.5 1580.88,-66.5 1580.88,-97"/>
<text text-anchor="start" x="1471.62" y="-83.5" font-family="Helvetica,sans-Serif" font-size="10.00">mlir/Analysis/DataFlow</text>
<text text-anchor="middle" x="1522.25" y="-72.25" font-family="Helvetica,sans-Serif" font-size="10.00">/DeadCodeAnalysis.h</text>
</a>
</g>
</g>
<!-- Node1&#45;&gt;Node17 -->
<g id="edge16_Node000001_Node000017" class="edge">
<title>Node1&#45;&gt;Node17</title>
<g id="a_edge16_Node000001_Node000017"><a xlink:title=" ">
<path fill="none" stroke="#63b8ff" d="M1670.68,-132.61C1642.8,-123.25 1606.39,-111.02 1576.62,-101.01"/>
<polygon fill="#63b8ff" stroke="#63b8ff" points="1578.01,-97.79 1567.41,-97.92 1575.78,-104.42 1578.01,-97.79"/>
</a>
</g>
</g>
<!-- Node18 -->
<g id="Node000018" class="node">
<title>Node18</title>
<g id="a_Node000018"><a xlink:title=" ">
<polygon fill="#e0e0e0" stroke="#999999" points="1703.5,-91.38 1599,-91.38 1599,-72.12 1703.5,-72.12 1703.5,-91.38"/>
<text text-anchor="middle" x="1651.25" y="-77.88" font-family="Helvetica,sans-Serif" font-size="10.00">mlir/Support/LLVM.h</text>
</a>
</g>
</g>
<!-- Node1&#45;&gt;Node18 -->
<g id="edge17_Node000001_Node000018" class="edge">
<title>Node1&#45;&gt;Node18</title>
<g id="a_edge17_Node000001_Node000018"><a xlink:title=" ">
<path fill="none" stroke="#63b8ff" d="M1699.95,-132.61C1690.41,-122.84 1677.82,-109.95 1667.83,-99.73"/>
<polygon fill="#63b8ff" stroke="#63b8ff" points="1670.42,-97.36 1660.93,-92.66 1665.41,-102.25 1670.42,-97.36"/>
</a>
</g>
</g>
<!-- Node19 -->
<g id="Node000019" class="node">
<title>Node19</title>
<g id="a_Node000019"><a xlink:title=" ">
<polygon fill="#e0e0e0" stroke="#999999" points="1832.5,-91.38 1722,-91.38 1722,-72.12 1832.5,-72.12 1832.5,-91.38"/>
<text text-anchor="middle" x="1777.25" y="-77.88" font-family="Helvetica,sans-Serif" font-size="10.00">llvm/Support/Debug.h</text>
</a>
</g>
</g>
<!-- Node1&#45;&gt;Node19 -->
<g id="edge18_Node000001_Node000019" class="edge">
<title>Node1&#45;&gt;Node19</title>
<g id="a_edge18_Node000001_Node000019"><a xlink:title=" ">
<path fill="none" stroke="#63b8ff" d="M1728.55,-132.61C1738.09,-122.84 1750.68,-109.95 1760.67,-99.73"/>
<polygon fill="#63b8ff" stroke="#63b8ff" points="1763.09,-102.25 1767.57,-92.66 1758.08,-97.36 1763.09,-102.25"/>
</a>
</g>
</g>
<!-- Node20 -->
<g id="Node000020" class="node">
<title>Node20</title>
<g id="a_Node000020"><a xlink:title=" ">
<polygon fill="#e0e0e0" stroke="#999999" points="1906.12,-91.38 1850.38,-91.38 1850.38,-72.12 1906.12,-72.12 1906.12,-91.38"/>
<text text-anchor="middle" x="1878.25" y="-77.88" font-family="Helvetica,sans-Serif" font-size="10.00">concepts</text>
</a>
</g>
</g>
<!-- Node1&#45;&gt;Node20 -->
<g id="edge19_Node000001_Node000020" class="edge">
<title>Node1&#45;&gt;Node20</title>
<g id="a_edge19_Node000001_Node000020"><a xlink:title=" ">
<path fill="none" stroke="#63b8ff" d="M1751.46,-132.61C1779.54,-121.57 1817.72,-106.56 1844.82,-95.9"/>
<polygon fill="#63b8ff" stroke="#63b8ff" points="1845.91,-99.23 1853.93,-92.31 1843.35,-92.72 1845.91,-99.23"/>
</a>
</g>
</g>
<!-- Node21 -->
<g id="Node000021" class="node">
<title>Node21</title>
<g id="a_Node000021"><a xlink:title=" ">
<polygon fill="#e0e0e0" stroke="#999999" points="1986.12,-91.38 1924.38,-91.38 1924.38,-72.12 1986.12,-72.12 1986.12,-91.38"/>
<text text-anchor="middle" x="1955.25" y="-77.88" font-family="Helvetica,sans-Serif" font-size="10.00">type_traits</text>
</a>
</g>
</g>
<!-- Node1&#45;&gt;Node21 -->
<g id="edge20_Node000001_Node000021" class="edge">
<title>Node1&#45;&gt;Node21</title>
<g id="a_edge20_Node000001_Node000021"><a xlink:title=" ">
<path fill="none" stroke="#63b8ff" d="M1773.15,-134.12C1813.44,-124.75 1867.91,-111.31 1915.25,-97 1916.84,-96.52 1918.46,-96.01 1920.09,-95.49"/>
<polygon fill="#63b8ff" stroke="#63b8ff" points="1921.04,-98.86 1929.4,-92.35 1918.81,-92.23 1921.04,-98.86"/>
</a>
</g>
</g>
<!-- Node22 -->
<g id="Node000022" class="node">
<title>Node22</title>
<g id="a_Node000022"><a xlink:title=" ">
<polygon fill="#e0e0e0" stroke="#999999" points="2049.88,-91.38 2004.62,-91.38 2004.62,-72.12 2049.88,-72.12 2049.88,-91.38"/>
<text text-anchor="middle" x="2027.25" y="-77.88" font-family="Helvetica,sans-Serif" font-size="10.00">variant</text>
</a>
</g>
</g>
<!-- Node1&#45;&gt;Node22 -->
<g id="edge21_Node000001_Node000022" class="edge">
<title>Node1&#45;&gt;Node22</title>
<g id="a_edge21_Node000001_Node000022"><a xlink:title=" ">
<path fill="none" stroke="#63b8ff" d="M1773.35,-140.9C1830.9,-133.74 1920.4,-119.99 1995.25,-97 1996.24,-96.7 1997.24,-96.37 1998.25,-96.02"/>
<polygon fill="#63b8ff" stroke="#63b8ff" points="1999.5,-99.29 2007.52,-92.37 1996.93,-92.78 1999.5,-99.29"/>
</a>
</g>
</g>
<!-- Node3 -->
<g id="Node000003" class="node">
<title>Node3</title>
<g id="a_Node000003"><a xlink:title=" ">
<polygon fill="#e0e0e0" stroke="#999999" points="98.5,-24.88 0,-24.88 0,-5.63 98.5,-5.63 98.5,-24.88"/>
<text text-anchor="middle" x="49.25" y="-11.38" font-family="Helvetica,sans-Serif" font-size="10.00">mlir/IR/Attributes.h</text>
</a>
</g>
</g>
<!-- Node2&#45;&gt;Node3 -->
<g id="edge2_Node000002_Node000003" class="edge">
<title>Node2&#45;&gt;Node3</title>
<g id="a_edge2_Node000002_Node000003"><a xlink:title=" ">
<path fill="none" stroke="#63b8ff" d="M628.56,-79.1C532.56,-75.04 299.69,-62.49 107.25,-30.5 102.83,-29.77 98.25,-28.87 93.69,-27.9"/>
<polygon fill="#63b8ff" stroke="#63b8ff" points="94.5,-24.49 83.98,-25.68 92.95,-31.32 94.5,-24.49"/>
</a>
</g>
</g>
<!-- Node4 -->
<g id="Node000004" class="node">
<title>Node4</title>
<g id="a_Node000004"><a xlink:title=" ">
<polygon fill="#e0e0e0" stroke="#999999" points="242,-24.88 116.5,-24.88 116.5,-5.63 242,-5.63 242,-24.88"/>
<text text-anchor="middle" x="179.25" y="-11.38" font-family="Helvetica,sans-Serif" font-size="10.00">mlir/IR/BuiltinAttributes.h</text>
</a>
</g>
</g>
<!-- Node2&#45;&gt;Node4 -->
<g id="edge3_Node000002_Node000004" class="edge">
<title>Node2&#45;&gt;Node4</title>
<g id="a_edge3_Node000002_Node000004"><a xlink:title=" ">
<path fill="none" stroke="#63b8ff" d="M628.43,-76.56C551.19,-69.07 388.07,-52.15 251.25,-30.5 245.35,-29.57 239.2,-28.5 233.08,-27.37"/>
<polygon fill="#63b8ff" stroke="#63b8ff" points="234.14,-24.01 223.66,-25.59 232.84,-30.89 234.14,-24.01"/>
</a>
</g>
</g>
<!-- Node5 -->
<g id="Node000005" class="node">
<title>Node5</title>
<g id="a_Node000005"><a xlink:title=" ">
<polygon fill="#e0e0e0" stroke="#999999" points="358.5,-24.88 260,-24.88 260,-5.63 358.5,-5.63 358.5,-24.88"/>
<text text-anchor="middle" x="309.25" y="-11.38" font-family="Helvetica,sans-Serif" font-size="10.00">mlir/IR/Operation.h</text>
</a>
</g>
</g>
<!-- Node2&#45;&gt;Node5 -->
<g id="edge4_Node000002_Node000005" class="edge">
<title>Node2&#45;&gt;Node5</title>
<g id="a_edge4_Node000002_Node000005"><a xlink:title=" ">
<path fill="none" stroke="#63b8ff" d="M628.61,-74.45C569.02,-65.8 460.29,-49.17 368.25,-30.5 364.24,-29.69 360.1,-28.79 355.95,-27.86"/>
<polygon fill="#63b8ff" stroke="#63b8ff" points="357.04,-24.52 346.51,-25.68 355.47,-31.34 357.04,-24.52"/>
</a>
</g>
</g>
<!-- Node6 -->
<g id="Node000006" class="node">
<title>Node6</title>
<g id="a_Node000006"><a xlink:title=" ">
<polygon fill="#e0e0e0" stroke="#999999" points="489.62,-24.88 376.88,-24.88 376.88,-5.63 489.62,-5.63 489.62,-24.88"/>
<text text-anchor="middle" x="433.25" y="-11.38" font-family="Helvetica,sans-Serif" font-size="10.00">mlir/IR/SymbolTable.h</text>
</a>
</g>
</g>
<!-- Node2&#45;&gt;Node6 -->
<g id="edge5_Node000002_Node000006" class="edge">
<title>Node2&#45;&gt;Node6</title>
<g id="a_edge5_Node000002_Node000006"><a xlink:title=" ">
<path fill="none" stroke="#63b8ff" d="M639.37,-71.65C597.12,-60.29 524.75,-40.84 477.97,-28.27"/>
<polygon fill="#63b8ff" stroke="#63b8ff" points="478.98,-24.92 468.42,-25.7 477.17,-31.68 478.98,-24.92"/>
</a>
</g>
</g>
<!-- Node7 -->
<g id="Node000007" class="node">
<title>Node7</title>
<g id="a_Node000007"><a xlink:title=" ">
<polygon fill="#e0e0e0" stroke="#999999" points="588.5,-24.88 508,-24.88 508,-5.63 588.5,-5.63 588.5,-24.88"/>
<text text-anchor="middle" x="548.25" y="-11.38" font-family="Helvetica,sans-Serif" font-size="10.00">mlir/IR/Value.h</text>
</a>
</g>
</g>
<!-- Node2&#45;&gt;Node7 -->
<g id="edge6_Node000002_Node000007" class="edge">
<title>Node2&#45;&gt;Node7</title>
<g id="a_edge6_Node000002_Node000007"><a xlink:title=" ">
<path fill="none" stroke="#63b8ff" d="M655.61,-71.65C634.85,-60.94 600.16,-43.03 575.84,-30.49"/>
<polygon fill="#63b8ff" stroke="#63b8ff" points="577.64,-27.48 567.15,-26 574.43,-33.7 577.64,-27.48"/>
</a>
</g>
</g>
<!-- Node8 -->
<g id="Node000008" class="node">
<title>Node8</title>
<g id="a_Node000008"><a xlink:title=" ">
<polygon fill="#e0e0e0" stroke="#999999" points="740.12,-30.5 606.38,-30.5 606.38,0 740.12,0 740.12,-30.5"/>
<text text-anchor="start" x="614.38" y="-17" font-family="Helvetica,sans-Serif" font-size="10.00">mlir/Interfaces/MemorySlot</text>
<text text-anchor="middle" x="673.25" y="-5.75" font-family="Helvetica,sans-Serif" font-size="10.00">Interfaces.h</text>
</a>
</g>
</g>
<!-- Node2&#45;&gt;Node8 -->
<g id="edge7_Node000002_Node000008" class="edge">
<title>Node2&#45;&gt;Node8</title>
<g id="a_edge7_Node000002_Node000008"><a xlink:title=" ">
<path fill="none" stroke="#63b8ff" d="M673.25,-71.78C673.25,-64.04 673.25,-52.45 673.25,-41.87"/>
<polygon fill="#63b8ff" stroke="#63b8ff" points="676.75,-42.11 673.25,-32.11 669.75,-42.11 676.75,-42.11"/>
</a>
</g>
</g>
<!-- Node9 -->
<g id="Node000009" class="node">
<title>Node9</title>
<g id="a_Node000009"><a xlink:title=" ">
<polygon fill="#e0e0e0" stroke="#999999" points="874.12,-24.88 758.38,-24.88 758.38,-5.63 874.12,-5.63 874.12,-24.88"/>
<text text-anchor="middle" x="816.25" y="-11.38" font-family="Helvetica,sans-Serif" font-size="10.00">llvm/ADT/DenseMap.h</text>
</a>
</g>
</g>
<!-- Node2&#45;&gt;Node9 -->
<g id="edge8_Node000002_Node000009" class="edge">
<title>Node2&#45;&gt;Node9</title>
<g id="a_edge8_Node000002_Node000009"><a xlink:title=" ">
<path fill="none" stroke="#63b8ff" d="M693.44,-71.65C717.5,-60.79 757.94,-42.55 785.8,-29.98"/>
<polygon fill="#63b8ff" stroke="#63b8ff" points="787.11,-33.23 794.79,-25.93 784.23,-26.85 787.11,-33.23"/>
</a>
</g>
</g>
<!-- Node10 -->
<g id="Node000010" class="node">
<title>Node10</title>
<g id="a_Node000010"><a xlink:title=" ">
<polygon fill="#e0e0e0" stroke="#999999" points="1006.75,-24.88 891.75,-24.88 891.75,-5.63 1006.75,-5.63 1006.75,-24.88"/>
<text text-anchor="middle" x="949.25" y="-11.38" font-family="Helvetica,sans-Serif" font-size="10.00">llvm/ADT/STLExtras.h</text>
</a>
</g>
</g>
<!-- Node2&#45;&gt;Node10 -->
<g id="edge9_Node000002_Node000010" class="edge">
<title>Node2&#45;&gt;Node10</title>
<g id="a_edge9_Node000002_Node000010"><a xlink:title=" ">
<path fill="none" stroke="#63b8ff" d="M712.21,-71.65C761.32,-60.17 845.79,-40.43 899.52,-27.87"/>
<polygon fill="#63b8ff" stroke="#63b8ff" points="900.07,-31.34 909.02,-25.65 898.48,-24.52 900.07,-31.34"/>
</a>
</g>
</g>
<!-- Node11 -->
<g id="Node000011" class="node">
<title>Node11</title>
<g id="a_Node000011"><a xlink:title=" ">
<polygon fill="#e0e0e0" stroke="#999999" points="1163.38,-24.88 1025.12,-24.88 1025.12,-5.63 1163.38,-5.63 1163.38,-24.88"/>
<text text-anchor="middle" x="1094.25" y="-11.38" font-family="Helvetica,sans-Serif" font-size="10.00">llvm/Support/raw_ostream.h</text>
</a>
</g>
</g>
<!-- Node2&#45;&gt;Node11 -->
<g id="edge10_Node000002_Node000011" class="edge">
<title>Node2&#45;&gt;Node11</title>
<g id="a_edge10_Node000002_Node000011"><a xlink:title=" ">
<path fill="none" stroke="#63b8ff" d="M717.86,-74.67C783.22,-65.65 908.79,-47.92 1015.25,-30.5 1021.51,-29.48 1028.03,-28.37 1034.54,-27.23"/>
<polygon fill="#63b8ff" stroke="#63b8ff" points="1034.68,-30.76 1043.92,-25.58 1033.46,-23.87 1034.68,-30.76"/>
</a>
</g>
</g>
<!-- Node12 -->
<g id="Node000012" class="node">
<title>Node12</title>
<g id="a_Node000012"><a xlink:title=" ">
<polygon fill="#e0e0e0" stroke="#999999" points="1221.25,-24.88 1181.25,-24.88 1181.25,-5.63 1221.25,-5.63 1221.25,-24.88"/>
<text text-anchor="middle" x="1201.25" y="-11.38" font-family="Helvetica,sans-Serif" font-size="10.00">string</text>
</a>
</g>
</g>
<!-- Node2&#45;&gt;Node12 -->
<g id="edge11_Node000002_Node000012" class="edge">
<title>Node2&#45;&gt;Node12</title>
<g id="a_edge11_Node000002_Node000012"><a xlink:title=" ">
<path fill="none" stroke="#63b8ff" d="M717.96,-81.51C806.5,-81.87 1009.64,-77 1172.25,-30.5 1173.22,-30.22 1174.19,-29.92 1175.17,-29.58"/>
<polygon fill="#63b8ff" stroke="#63b8ff" points="1176.13,-32.97 1184,-25.88 1173.43,-26.52 1176.13,-32.97"/>
</a>
</g>
</g>
<!-- Node14 -->
<g id="Node000014" class="node">
<title>Node14</title>
<g id="a_Node000014"><a xlink:title=" ">
<polygon fill="#e0e0e0" stroke="#999999" points="1399.25,-24.88 1239.25,-24.88 1239.25,-5.63 1399.25,-5.63 1399.25,-24.88"/>
<text text-anchor="middle" x="1319.25" y="-11.38" font-family="Helvetica,sans-Serif" font-size="10.00">llvm/ADT/STLFunctionalExtras.h</text>
</a>
</g>
</g>
<!-- Node13&#45;&gt;Node14 -->
<g id="edge13_Node000013_Node000014" class="edge">
<title>Node13&#45;&gt;Node14</title>
<g id="a_edge13_Node000013_Node000014"><a xlink:title=" ">
<path fill="none" stroke="#63b8ff" d="M1381.24,-71.78C1369.95,-61.67 1351.38,-45.03 1337.5,-32.6"/>
<polygon fill="#63b8ff" stroke="#63b8ff" points="1340.09,-30.22 1330.3,-26.15 1335.42,-35.43 1340.09,-30.22"/>
</a>
</g>
</g>
<!-- Node15 -->
<g id="Node000015" class="node">
<title>Node15</title>
<g id="a_Node000015"><a xlink:title=" ">
<polygon fill="#e0e0e0" stroke="#999999" points="1511.25,-24.88 1417.25,-24.88 1417.25,-5.63 1511.25,-5.63 1511.25,-24.88"/>
<text text-anchor="middle" x="1464.25" y="-11.38" font-family="Helvetica,sans-Serif" font-size="10.00">llvm/ADT/Twine.h</text>
</a>
</g>
</g>
<!-- Node13&#45;&gt;Node15 -->
<g id="edge14_Node000013_Node000015" class="edge">
<title>Node13&#45;&gt;Node15</title>
<g id="a_edge14_Node000013_Node000015"><a xlink:title=" ">
<path fill="none" stroke="#63b8ff" d="M1401.4,-71.78C1412.84,-61.67 1431.68,-45.03 1445.75,-32.6"/>
<polygon fill="#63b8ff" stroke="#63b8ff" points="1447.88,-35.39 1453.05,-26.14 1443.24,-30.14 1447.88,-35.39"/>
</a>
</g>
</g>
<!-- Node16 -->
<g id="Node000016" class="node">
<title>Node16</title>
<g id="a_Node000016"><a xlink:title=" ">
<polygon fill="#e0e0e0" stroke="#999999" points="1670.88,-24.88 1529.62,-24.88 1529.62,-5.63 1670.88,-5.63 1670.88,-24.88"/>
<text text-anchor="middle" x="1600.25" y="-11.38" font-family="Helvetica,sans-Serif" font-size="10.00">llvm/Support/ErrorHandling.h</text>
</a>
</g>
</g>
<!-- Node13&#45;&gt;Node16 -->
<g id="edge15_Node000013_Node000016" class="edge">
<title>Node13&#45;&gt;Node16</title>
<g id="a_edge15_Node000013_Node000016"><a xlink:title=" ">
<path fill="none" stroke="#63b8ff" d="M1420.75,-71.65C1457.16,-60.41 1519.24,-41.25 1560.01,-28.67"/>
<polygon fill="#63b8ff" stroke="#63b8ff" points="1560.93,-32.05 1569.45,-25.75 1558.87,-25.36 1560.93,-32.05"/>
</a>
</g>
</g>
</g>
</svg>
