<?xml version="1.0" encoding="UTF-8" standalone="no"?>
<!DOCTYPE svg PUBLIC "-//W3C//DTD SVG 1.1//EN"
 "http://www.w3.org/Graphics/SVG/1.1/DTD/svg11.dtd">
<!-- Generated by graphviz version 12.2.1 (20241206.2353)
 -->
<!-- Title: include/llzk/Util/AffineHelper.h Pages: 1 -->
<svg width="636pt" height="94pt"
 viewBox="0.00 0.00 636.38 93.75" xmlns="http://www.w3.org/2000/svg" xmlns:xlink="http://www.w3.org/1999/xlink">
<g id="graph0" class="graph" transform="scale(1 1) rotate(0) translate(4 89.75)">
<title>include/llzk/Util/AffineHelper.h</title>
<!-- Node1 -->
<g id="Node000001" class="node">
<title>Node1</title>
<g id="a_Node000001"><a xlink:title=" ">
<polygon fill="#999999" stroke="#666666" points="368.5,-85.75 257.25,-85.75 257.25,-55.25 368.5,-55.25 368.5,-85.75"/>
<text text-anchor="start" x="265.25" y="-72.25" font-family="Helvetica,sans-Serif" font-size="10.00">include/llzk/Util/Affine</text>
<text text-anchor="middle" x="312.88" y="-61" font-family="Helvetica,sans-Serif" font-size="10.00">Helper.h</text>
</a>
</g>
</g>
<!-- Node2 -->
<g id="Node000002" class="node">
<title>Node2</title>
<g id="a_Node000002"><a xlink:title=" ">
<polygon fill="#e0e0e0" stroke="#999999" points="91.75,-19.25 0,-19.25 0,0 91.75,0 91.75,-19.25"/>
<text text-anchor="middle" x="45.88" y="-5.75" font-family="Helvetica,sans-Serif" font-size="10.00">mlir/IR/Builders.h</text>
</a>
</g>
</g>
<!-- Node1&#45;&gt;Node2 -->
<g id="edge1_Node000001_Node000002" class="edge">
<title>Node1&#45;&gt;Node2</title>
<g id="a_edge1_Node000001_Node000002"><a xlink:title=" ">
<path fill="none" stroke="#63b8ff" d="M256.9,-57.16C210.1,-46.84 143.85,-32.23 98.12,-22.14"/>
<polygon fill="#63b8ff" stroke="#63b8ff" points="98.96,-18.75 88.44,-20.01 97.45,-25.58 98.96,-18.75"/>
</a>
</g>
</g>
<!-- Node3 -->
<g id="Node000003" class="node">
<title>Node3</title>
<g id="a_Node000003"><a xlink:title=" ">
<polygon fill="#e0e0e0" stroke="#999999" points="245.88,-19.25 109.88,-19.25 109.88,0 245.88,0 245.88,-19.25"/>
<text text-anchor="middle" x="177.88" y="-5.75" font-family="Helvetica,sans-Serif" font-size="10.00">mlir/IR/OpImplementation.h</text>
</a>
</g>
</g>
<!-- Node1&#45;&gt;Node3 -->
<g id="edge2_Node000001_Node000003" class="edge">
<title>Node1&#45;&gt;Node3</title>
<g id="a_edge2_Node000001_Node000003"><a xlink:title=" ">
<path fill="none" stroke="#63b8ff" d="M279.16,-54.8C257.61,-45.4 229.87,-33.3 208.88,-24.14"/>
<polygon fill="#63b8ff" stroke="#63b8ff" points="210.53,-21.05 199.97,-20.26 207.73,-27.46 210.53,-21.05"/>
</a>
</g>
</g>
<!-- Node4 -->
<g id="Node000004" class="node">
<title>Node4</title>
<g id="a_Node000004"><a xlink:title=" ">
<polygon fill="#e0e0e0" stroke="#999999" points="362.12,-19.25 263.62,-19.25 263.62,0 362.12,0 362.12,-19.25"/>
<text text-anchor="middle" x="312.88" y="-5.75" font-family="Helvetica,sans-Serif" font-size="10.00">mlir/IR/Operation.h</text>
</a>
</g>
</g>
<!-- Node1&#45;&gt;Node4 -->
<g id="edge3_Node000001_Node000004" class="edge">
<title>Node1&#45;&gt;Node4</title>
<g id="a_edge3_Node000001_Node000004"><a xlink:title=" ">
<path fill="none" stroke="#63b8ff" d="M312.88,-54.95C312.88,-47.71 312.88,-38.84 312.88,-30.94"/>
<polygon fill="#63b8ff" stroke="#63b8ff" points="316.38,-31.21 312.88,-21.21 309.38,-31.21 316.38,-31.21"/>
</a>
</g>
</g>
<!-- Node5 -->
<g id="Node000005" class="node">
<title>Node5</title>
<g id="a_Node000005"><a xlink:title=" ">
<polygon fill="#e0e0e0" stroke="#999999" points="489.38,-19.25 380.38,-19.25 380.38,0 489.38,0 489.38,-19.25"/>
<text text-anchor="middle" x="434.88" y="-5.75" font-family="Helvetica,sans-Serif" font-size="10.00">mlir/IR/ValueRange.h</text>
</a>
</g>
</g>
<!-- Node1&#45;&gt;Node5 -->
<g id="edge4_Node000001_Node000005" class="edge">
<title>Node1&#45;&gt;Node5</title>
<g id="a_edge4_Node000001_Node000005"><a xlink:title=" ">
<path fill="none" stroke="#63b8ff" d="M343.35,-54.8C362.46,-45.57 386.97,-33.75 405.81,-24.65"/>
<polygon fill="#63b8ff" stroke="#63b8ff" points="407.32,-27.81 414.8,-20.31 404.27,-21.51 407.32,-27.81"/>
</a>
</g>
</g>
<!-- Node6 -->
<g id="Node000006" class="node">
<title>Node6</title>
<g id="a_Node000006"><a xlink:title=" ">
<polygon fill="#e0e0e0" stroke="#999999" points="628.38,-19.25 507.38,-19.25 507.38,0 628.38,0 628.38,-19.25"/>
<text text-anchor="middle" x="567.88" y="-5.75" font-family="Helvetica,sans-Serif" font-size="10.00">llvm/ADT/SmallVector.h</text>
</a>
</g>
</g>
<!-- Node1&#45;&gt;Node6 -->
<g id="edge5_Node000001_Node000006" class="edge">
<title>Node1&#45;&gt;Node6</title>
<g id="a_edge5_Node000001_Node000006"><a xlink:title=" ">
<path fill="none" stroke="#63b8ff" d="M368.84,-56.58C413.25,-46.33 474.78,-32.12 517.63,-22.23"/>
<polygon fill="#63b8ff" stroke="#63b8ff" points="518.21,-25.68 527.17,-20.02 516.64,-18.86 518.21,-25.68"/>
</a>
</g>
</g>
</g>
</svg>
