<?xml version="1.0" encoding="UTF-8" standalone="no"?>
<!DOCTYPE svg PUBLIC "-//W3C//DTD SVG 1.1//EN"
 "http://www.w3.org/Graphics/SVG/1.1/DTD/svg11.dtd">
<!-- Generated by graphviz version 12.2.1 (20241206.2353)
 -->
<!-- Title: lib/Util/AffineHelper.cpp Pages: 1 -->
<svg width="636pt" height="138pt"
 viewBox="0.00 0.00 636.38 137.75" xmlns="http://www.w3.org/2000/svg" xmlns:xlink="http://www.w3.org/1999/xlink">
<g id="graph0" class="graph" transform="scale(1 1) rotate(0) translate(4 133.75)">
<title>lib/Util/AffineHelper.cpp</title>
<!-- Node1 -->
<g id="Node000001" class="node">
<title>Node1</title>
<g id="a_Node000001"><a xlink:title=" ">
<polygon fill="#999999" stroke="#666666" points="422.25,-129.75 303.5,-129.75 303.5,-110.5 422.25,-110.5 422.25,-129.75"/>
<text text-anchor="middle" x="362.88" y="-116.25" font-family="Helvetica,sans-Serif" font-size="10.00">lib/Util/AffineHelper.cpp</text>
</a>
</g>
</g>
<!-- Node2 -->
<g id="Node000002" class="node">
<title>Node2</title>
<g id="a_Node000002"><a xlink:href="_affine_helper_8h.html" target="_top" xlink:title=" ">
<polygon fill="white" stroke="#666666" points="369.62,-74.5 256.12,-74.5 256.12,-55.25 369.62,-55.25 369.62,-74.5"/>
<text text-anchor="middle" x="312.88" y="-61" font-family="Helvetica,sans-Serif" font-size="10.00">llzk/Util/AffineHelper.h</text>
</a>
</g>
</g>
<!-- Node1&#45;&gt;Node2 -->
<g id="edge1_Node000001_Node000002" class="edge">
<title>Node1&#45;&gt;Node2</title>
<g id="a_edge1_Node000001_Node000002"><a xlink:title=" ">
<path fill="none" stroke="#63b8ff" d="M354.62,-110.33C347.71,-102.98 337.65,-92.26 329.14,-83.19"/>
<polygon fill="#63b8ff" stroke="#63b8ff" points="331.74,-80.86 322.35,-75.96 326.64,-85.65 331.74,-80.86"/>
</a>
</g>
</g>
<!-- Node8 -->
<g id="Node000008" class="node">
<title>Node8</title>
<g id="a_Node000008"><a xlink:title=" ">
<polygon fill="#e0e0e0" stroke="#999999" points="438.12,-74.5 387.62,-74.5 387.62,-55.25 438.12,-55.25 438.12,-74.5"/>
<text text-anchor="middle" x="412.88" y="-61" font-family="Helvetica,sans-Serif" font-size="10.00">numeric</text>
</a>
</g>
</g>
<!-- Node1&#45;&gt;Node8 -->
<g id="edge7_Node000001_Node000008" class="edge">
<title>Node1&#45;&gt;Node8</title>
<g id="a_edge7_Node000001_Node000008"><a xlink:title=" ">
<path fill="none" stroke="#63b8ff" d="M371.13,-110.33C378.04,-102.98 388.1,-92.26 396.61,-83.19"/>
<polygon fill="#63b8ff" stroke="#63b8ff" points="399.11,-85.65 403.4,-75.96 394.01,-80.86 399.11,-85.65"/>
</a>
</g>
</g>
<!-- Node3 -->
<g id="Node000003" class="node">
<title>Node3</title>
<g id="a_Node000003"><a xlink:title=" ">
<polygon fill="#e0e0e0" stroke="#999999" points="91.75,-19.25 0,-19.25 0,0 91.75,0 91.75,-19.25"/>
<text text-anchor="middle" x="45.88" y="-5.75" font-family="Helvetica,sans-Serif" font-size="10.00">mlir/IR/Builders.h</text>
</a>
</g>
</g>
<!-- Node2&#45;&gt;Node3 -->
<g id="edge2_Node000002_Node000003" class="edge">
<title>Node2&#45;&gt;Node3</title>
<g id="a_edge2_Node000002_Node000003"><a xlink:title=" ">
<path fill="none" stroke="#63b8ff" d="M267.28,-54.78C221.68,-45.69 151.45,-31.68 102.35,-21.89"/>
<polygon fill="#63b8ff" stroke="#63b8ff" points="103.26,-18.5 92.77,-19.98 101.89,-25.37 103.26,-18.5"/>
</a>
</g>
</g>
<!-- Node4 -->
<g id="Node000004" class="node">
<title>Node4</title>
<g id="a_Node000004"><a xlink:title=" ">
<polygon fill="#e0e0e0" stroke="#999999" points="245.88,-19.25 109.88,-19.25 109.88,0 245.88,0 245.88,-19.25"/>
<text text-anchor="middle" x="177.88" y="-5.75" font-family="Helvetica,sans-Serif" font-size="10.00">mlir/IR/OpImplementation.h</text>
</a>
</g>
</g>
<!-- Node2&#45;&gt;Node4 -->
<g id="edge3_Node000002_Node000004" class="edge">
<title>Node2&#45;&gt;Node4</title>
<g id="a_edge3_Node000002_Node000004"><a xlink:title=" ">
<path fill="none" stroke="#63b8ff" d="M289.97,-54.84C268.45,-46.35 235.96,-33.54 211.5,-23.89"/>
<polygon fill="#63b8ff" stroke="#63b8ff" points="212.88,-20.67 202.3,-20.26 210.31,-27.18 212.88,-20.67"/>
</a>
</g>
</g>
<!-- Node5 -->
<g id="Node000005" class="node">
<title>Node5</title>
<g id="a_Node000005"><a xlink:title=" ">
<polygon fill="#e0e0e0" stroke="#999999" points="362.12,-19.25 263.62,-19.25 263.62,0 362.12,0 362.12,-19.25"/>
<text text-anchor="middle" x="312.88" y="-5.75" font-family="Helvetica,sans-Serif" font-size="10.00">mlir/IR/Operation.h</text>
</a>
</g>
</g>
<!-- Node2&#45;&gt;Node5 -->
<g id="edge4_Node000002_Node000005" class="edge">
<title>Node2&#45;&gt;Node5</title>
<g id="a_edge4_Node000002_Node000005"><a xlink:title=" ">
<path fill="none" stroke="#63b8ff" d="M312.88,-55.08C312.88,-48.57 312.88,-39.42 312.88,-31.12"/>
<polygon fill="#63b8ff" stroke="#63b8ff" points="316.38,-31.12 312.88,-21.12 309.38,-31.12 316.38,-31.12"/>
</a>
</g>
</g>
<!-- Node6 -->
<g id="Node000006" class="node">
<title>Node6</title>
<g id="a_Node000006"><a xlink:title=" ">
<polygon fill="#e0e0e0" stroke="#999999" points="489.38,-19.25 380.38,-19.25 380.38,0 489.38,0 489.38,-19.25"/>
<text text-anchor="middle" x="434.88" y="-5.75" font-family="Helvetica,sans-Serif" font-size="10.00">mlir/IR/ValueRange.h</text>
</a>
</g>
</g>
<!-- Node2&#45;&gt;Node6 -->
<g id="edge5_Node000002_Node000006" class="edge">
<title>Node2&#45;&gt;Node6</title>
<g id="a_edge5_Node000002_Node000006"><a xlink:title=" ">
<path fill="none" stroke="#63b8ff" d="M333.57,-54.84C352.76,-46.47 381.59,-33.88 403.59,-24.28"/>
<polygon fill="#63b8ff" stroke="#63b8ff" points="404.93,-27.52 412.69,-20.31 402.13,-21.1 404.93,-27.52"/>
</a>
</g>
</g>
<!-- Node7 -->
<g id="Node000007" class="node">
<title>Node7</title>
<g id="a_Node000007"><a xlink:title=" ">
<polygon fill="#e0e0e0" stroke="#999999" points="628.38,-19.25 507.38,-19.25 507.38,0 628.38,0 628.38,-19.25"/>
<text text-anchor="middle" x="567.88" y="-5.75" font-family="Helvetica,sans-Serif" font-size="10.00">llvm/ADT/SmallVector.h</text>
</a>
</g>
</g>
<!-- Node2&#45;&gt;Node7 -->
<g id="edge6_Node000002_Node000007" class="edge">
<title>Node2&#45;&gt;Node7</title>
<g id="a_edge6_Node000002_Node000007"><a xlink:title=" ">
<path fill="none" stroke="#63b8ff" d="M356.42,-54.78C399.79,-45.73 466.48,-31.8 513.34,-22.01"/>
<polygon fill="#63b8ff" stroke="#63b8ff" points="513.95,-25.46 523.03,-19.99 512.52,-18.61 513.95,-25.46"/>
</a>
</g>
</g>
</g>
</svg>
