<?xml version="1.0" encoding="UTF-8" standalone="no"?>
<!DOCTYPE svg PUBLIC "-//W3C//DTD SVG 1.1//EN"
 "http://www.w3.org/Graphics/SVG/1.1/DTD/svg11.dtd">
<!-- Generated by graphviz version 12.2.1 (20241206.2353)
 -->
<!-- Title: build/include/llzk/Analysis/AnalysisPasses.h.inc Pages: 1 -->
<svg width="624pt" height="172pt"
 viewBox="0.00 0.00 623.75 171.50" xmlns="http://www.w3.org/2000/svg" xmlns:xlink="http://www.w3.org/1999/xlink">
<g id="graph0" class="graph" transform="scale(1 1) rotate(0) translate(4 167.5)">
<title>build/include/llzk/Analysis/AnalysisPasses.h.inc</title>
<!-- Node1 -->
<g id="Node000001" class="node">
<title>Node1</title>
<g id="a_Node000001"><a xlink:title=" ">
<polygon fill="#999999" stroke="#666666" points="384.25,-163.5 230.25,-163.5 230.25,-133 384.25,-133 384.25,-163.5"/>
<text text-anchor="start" x="238.25" y="-150" font-family="Helvetica,sans-Serif" font-size="10.00">build/include/llzk</text>
<text text-anchor="middle" x="307.25" y="-138.75" font-family="Helvetica,sans-Serif" font-size="10.00">/Analysis/AnalysisPasses.h.inc</text>
</a>
</g>
</g>
<!-- Node2 -->
<g id="Node000002" class="node">
<title>Node2</title>
<g id="a_Node000002"><a xlink:href="_analysis_passes_8h.html" target="_top" xlink:title=" ">
<polygon fill="white" stroke="#666666" points="400.88,-97 295.62,-97 295.62,-66.5 400.88,-66.5 400.88,-97"/>
<text text-anchor="start" x="303.62" y="-83.5" font-family="Helvetica,sans-Serif" font-size="10.00">include/llzk/Analysis</text>
<text text-anchor="middle" x="348.25" y="-72.25" font-family="Helvetica,sans-Serif" font-size="10.00">/AnalysisPasses.h</text>
</a>
</g>
</g>
<!-- Node1&#45;&gt;Node2 -->
<g id="edge1_Node000001_Node000002" class="edge">
<title>Node1&#45;&gt;Node2</title>
<g id="a_edge1_Node000001_Node000002"><a xlink:title=" ">
<path fill="none" stroke="#63b8ff" d="M322.66,-123.01C328.15,-114.37 334.17,-104.91 338.98,-97.33"/>
<polygon fill="#63b8ff" stroke="#63b8ff" points="319.78,-121.02 317.37,-131.34 325.68,-124.77 319.78,-121.02"/>
</a>
</g>
</g>
<!-- Node3 -->
<g id="Node000003" class="node">
<title>Node3</title>
<g id="a_Node000003"><a xlink:href="_call_graph_passes_8cpp.html" target="_top" xlink:title="This file implements the &#45;llzk&#45;print&#45;call&#45;graph and &#45;llzk&#45;print&#45;call&#45;graph&#45;sccs passes.">
<polygon fill="white" stroke="#666666" points="164.5,-24.88 0,-24.88 0,-5.63 164.5,-5.63 164.5,-24.88"/>
<text text-anchor="middle" x="82.25" y="-11.38" font-family="Helvetica,sans-Serif" font-size="10.00">lib/Analysis/CallGraphPasses.cpp</text>
</a>
</g>
</g>
<!-- Node1&#45;&gt;Node3 -->
<g id="edge6_Node000001_Node000003" class="edge">
<title>Node1&#45;&gt;Node3</title>
<g id="a_edge6_Node000001_Node000003"><a xlink:title=" ">
<path fill="none" stroke="#63b8ff" d="M272.66,-127.11C223.08,-98.24 133.83,-46.28 97.88,-25.35"/>
<polygon fill="#63b8ff" stroke="#63b8ff" points="270.6,-129.96 281,-131.97 274.12,-123.91 270.6,-129.96"/>
</a>
</g>
</g>
<!-- Node4 -->
<g id="Node000004" class="node">
<title>Node4</title>
<g id="a_Node000004"><a xlink:href="_constraint_dependency_graph_pass_8cpp.html" target="_top" xlink:title="This file implements the &#45;llzk&#45;print&#45;constraint&#45;dependency&#45;graphs pass.">
<polygon fill="white" stroke="#666666" points="351.75,-30.5 182.75,-30.5 182.75,0 351.75,0 351.75,-30.5"/>
<text text-anchor="start" x="190.75" y="-17" font-family="Helvetica,sans-Serif" font-size="10.00">lib/Analysis/ConstraintDependency</text>
<text text-anchor="middle" x="267.25" y="-5.75" font-family="Helvetica,sans-Serif" font-size="10.00">GraphPass.cpp</text>
</a>
</g>
</g>
<!-- Node1&#45;&gt;Node4 -->
<g id="edge7_Node000001_Node000004" class="edge">
<title>Node1&#45;&gt;Node4</title>
<g id="a_edge7_Node000001_Node000004"><a xlink:title=" ">
<path fill="none" stroke="#63b8ff" d="M295.79,-122.11C292.43,-114.18 288.95,-105.31 286.25,-97 278.88,-74.26 273.08,-47.06 269.91,-30.74"/>
<polygon fill="#63b8ff" stroke="#63b8ff" points="292.53,-123.39 299.74,-131.15 298.94,-120.59 292.53,-123.39"/>
</a>
</g>
</g>
<!-- Node5 -->
<g id="Node000005" class="node">
<title>Node5</title>
<g id="a_Node000005"><a xlink:href="_interval_analysis_pass_8cpp.html" target="_top" xlink:title="This file implements the &#45;llzk&#45;print&#45;interval&#45;analysis pass.">
<polygon fill="white" stroke="#666666" points="615.75,-30.5 476.75,-30.5 476.75,0 615.75,0 615.75,-30.5"/>
<text text-anchor="start" x="484.75" y="-17" font-family="Helvetica,sans-Serif" font-size="10.00">lib/Analysis/IntervalAnalysis</text>
<text text-anchor="middle" x="546.25" y="-5.75" font-family="Helvetica,sans-Serif" font-size="10.00">Pass.cpp</text>
</a>
</g>
</g>
<!-- Node1&#45;&gt;Node5 -->
<g id="edge8_Node000001_Node000005" class="edge">
<title>Node1&#45;&gt;Node5</title>
<g id="a_edge8_Node000001_Node000005"><a xlink:title=" ">
<path fill="none" stroke="#63b8ff" d="M349.47,-127.61C368.26,-118.63 390.54,-107.63 410.25,-97 450.61,-75.22 496.19,-47.49 523,-30.85"/>
<polygon fill="#63b8ff" stroke="#63b8ff" points="348.04,-124.42 340.51,-131.87 351.05,-130.74 348.04,-124.42"/>
</a>
</g>
</g>
<!-- Node2&#45;&gt;Node3 -->
<g id="edge2_Node000002_Node000003" class="edge">
<title>Node2&#45;&gt;Node3</title>
<g id="a_edge2_Node000002_Node000003"><a xlink:title=" ">
<path fill="none" stroke="#63b8ff" d="M284.38,-65.26C232.9,-52.78 162.29,-35.66 119.6,-25.31"/>
<polygon fill="#63b8ff" stroke="#63b8ff" points="283.36,-68.62 293.91,-67.57 285.01,-61.82 283.36,-68.62"/>
</a>
</g>
</g>
<!-- Node2&#45;&gt;Node4 -->
<g id="edge3_Node000002_Node000004" class="edge">
<title>Node2&#45;&gt;Node4</title>
<g id="a_edge3_Node000002_Node000004"><a xlink:title=" ">
<path fill="none" stroke="#63b8ff" d="M320.96,-59.02C309.3,-49.73 296,-39.15 285.56,-30.83"/>
<polygon fill="#63b8ff" stroke="#63b8ff" points="318.68,-61.68 328.69,-65.17 323.04,-56.2 318.68,-61.68"/>
</a>
</g>
</g>
<!-- Node2&#45;&gt;Node5 -->
<g id="edge4_Node000002_Node000005" class="edge">
<title>Node2&#45;&gt;Node5</title>
<g id="a_edge4_Node000002_Node000005"><a xlink:title=" ">
<path fill="none" stroke="#63b8ff" d="M403.74,-62.67C434.49,-52.66 472.24,-40.36 501.16,-30.94"/>
<polygon fill="#63b8ff" stroke="#63b8ff" points="403.04,-59.22 394.62,-65.65 405.21,-65.88 403.04,-59.22"/>
</a>
</g>
</g>
<!-- Node6 -->
<g id="Node000006" class="node">
<title>Node6</title>
<g id="a_Node000006"><a xlink:href="llzk-opt_8cpp.html" target="_top" xlink:title="This file implements a version of the mlir&#45;opt tool configured for use on LLZK files.">
<polygon fill="white" stroke="#666666" points="459,-30.5 369.5,-30.5 369.5,0 459,0 459,-30.5"/>
<text text-anchor="start" x="377.5" y="-17" font-family="Helvetica,sans-Serif" font-size="10.00">tools/llzk&#45;opt/llzk</text>
<text text-anchor="middle" x="414.25" y="-5.75" font-family="Helvetica,sans-Serif" font-size="10.00">&#45;opt.cpp</text>
</a>
</g>
</g>
<!-- Node2&#45;&gt;Node6 -->
<g id="edge5_Node000002_Node000006" class="edge">
<title>Node2&#45;&gt;Node6</title>
<g id="a_edge5_Node000002_Node000006"><a xlink:title=" ">
<path fill="none" stroke="#63b8ff" d="M371.34,-58.19C380.63,-49.11 391.07,-38.9 399.33,-30.83"/>
<polygon fill="#63b8ff" stroke="#63b8ff" points="369.01,-55.56 364.31,-65.06 373.91,-60.57 369.01,-55.56"/>
</a>
</g>
</g>
</g>
</svg>
