<?xml version="1.0" encoding="UTF-8" standalone="no"?>
<!DOCTYPE svg PUBLIC "-//W3C//DTD SVG 1.1//EN"
 "http://www.w3.org/Graphics/SVG/1.1/DTD/svg11.dtd">
<!-- Generated by graphviz version 12.2.1 (20241206.2353)
 -->
<!-- Title: include/llzk/Analysis/AnalysisWrappers.h Pages: 1 -->
<svg width="2166pt" height="360pt"
 viewBox="0.00 0.00 2166.25 359.75" xmlns="http://www.w3.org/2000/svg" xmlns:xlink="http://www.w3.org/1999/xlink">
<g id="graph0" class="graph" transform="scale(1 1) rotate(0) translate(4 355.75)">
<title>include/llzk/Analysis/AnalysisWrappers.h</title>
<!-- Node1 -->
<g id="Node000001" class="node">
<title>Node1</title>
<g id="a_Node000001"><a xlink:title="Convenience classes for a frequent pattern of dataflow analysis used in LLZK, where an analysis is ru...">
<polygon fill="#999999" stroke="#666666" points="1792.88,-351.75 1686.88,-351.75 1686.88,-321.25 1792.88,-321.25 1792.88,-351.75"/>
<text text-anchor="start" x="1694.88" y="-338.25" font-family="Helvetica,sans-Serif" font-size="10.00">include/llzk/Analysis</text>
<text text-anchor="middle" x="1739.88" y="-327" font-family="Helvetica,sans-Serif" font-size="10.00">/AnalysisWrappers.h</text>
</a>
</g>
</g>
<!-- Node2 -->
<g id="Node000002" class="node">
<title>Node2</title>
<g id="a_Node000002"><a xlink:href="_dense_analysis_8h.html" target="_top" xlink:title="This file implements (LLZK&#45;tailored) dense data&#45;flow analysis using the data&#45;flow analysis framework.">
<polygon fill="white" stroke="#666666" points="702.25,-279.62 553.5,-279.62 553.5,-260.38 702.25,-260.38 702.25,-279.62"/>
<text text-anchor="middle" x="627.88" y="-266.12" font-family="Helvetica,sans-Serif" font-size="10.00">llzk/Analysis/DenseAnalysis.h</text>
</a>
</g>
</g>
<!-- Node1&#45;&gt;Node2 -->
<g id="edge1_Node000001_Node000002" class="edge">
<title>Node1&#45;&gt;Node2</title>
<g id="a_edge1_Node000001_Node000002"><a xlink:title=" ">
<path fill="none" stroke="#63b8ff" d="M1686.62,-332.41C1508.59,-322.08 933.12,-288.71 713.83,-275.99"/>
<polygon fill="#63b8ff" stroke="#63b8ff" points="714.11,-272.5 703.92,-275.41 713.7,-279.48 714.11,-272.5"/>
</a>
</g>
</g>
<!-- Node8 -->
<g id="Node000008" class="node">
<title>Node8</title>
<g id="a_Node000008"><a xlink:href="_struct_2_i_r_2_ops_8h.html" target="_top" xlink:title=" ">
<polygon fill="white" stroke="#666666" points="1240.88,-285.25 1146.88,-285.25 1146.88,-254.75 1240.88,-254.75 1240.88,-285.25"/>
<text text-anchor="start" x="1154.88" y="-271.75" font-family="Helvetica,sans-Serif" font-size="10.00">llzk/Dialect/Struct</text>
<text text-anchor="middle" x="1193.88" y="-260.5" font-family="Helvetica,sans-Serif" font-size="10.00">/IR/Ops.h</text>
</a>
</g>
</g>
<!-- Node1&#45;&gt;Node8 -->
<g id="edge7_Node000001_Node000008" class="edge">
<title>Node1&#45;&gt;Node8</title>
<g id="a_edge7_Node000001_Node000008"><a xlink:title=" ">
<path fill="none" stroke="#63b8ff" d="M1686.53,-329.2C1583.74,-317.06 1359.01,-290.51 1252.33,-277.91"/>
<polygon fill="#63b8ff" stroke="#63b8ff" points="1252.99,-274.46 1242.65,-276.76 1252.17,-281.41 1252.99,-274.46"/>
</a>
</g>
</g>
<!-- Node27 -->
<g id="Node000027" class="node">
<title>Node27</title>
<g id="a_Node000027"><a xlink:title=" ">
<polygon fill="#e0e0e0" stroke="#999999" points="2044.62,-80.12 1943.12,-80.12 1943.12,-60.88 2044.62,-60.88 2044.62,-80.12"/>
<text text-anchor="middle" x="1993.88" y="-66.62" font-family="Helvetica,sans-Serif" font-size="10.00">mlir/IR/BuiltinOps.h</text>
</a>
</g>
</g>
<!-- Node1&#45;&gt;Node27 -->
<g id="edge61_Node000001_Node000027" class="edge">
<title>Node1&#45;&gt;Node27</title>
<g id="a_edge61_Node000001_Node000027"><a xlink:title=" ">
<path fill="none" stroke="#63b8ff" d="M1753.89,-320.93C1797.47,-275.64 1930.44,-137.43 1977.31,-88.72"/>
<polygon fill="#63b8ff" stroke="#63b8ff" points="1979.79,-91.19 1984.2,-81.55 1974.75,-86.33 1979.79,-91.19"/>
</a>
</g>
</g>
<!-- Node33 -->
<g id="Node000033" class="node">
<title>Node33</title>
<g id="a_Node000033"><a xlink:href="_error_helper_8h.html" target="_top" xlink:title=" ">
<polygon fill="white" stroke="#666666" points="1751.38,-80.12 1642.38,-80.12 1642.38,-60.88 1751.38,-60.88 1751.38,-80.12"/>
<text text-anchor="middle" x="1696.88" y="-66.62" font-family="Helvetica,sans-Serif" font-size="10.00">llzk/Util/ErrorHelper.h</text>
</a>
</g>
</g>
<!-- Node1&#45;&gt;Node33 -->
<g id="edge56_Node000001_Node000033" class="edge">
<title>Node1&#45;&gt;Node33</title>
<g id="a_edge56_Node000001_Node000033"><a xlink:title=" ">
<path fill="none" stroke="#63b8ff" d="M1747.06,-320.77C1763.6,-284.63 1800.37,-189.55 1765.88,-121.75 1757.93,-106.13 1742.59,-94.21 1728.39,-85.92"/>
<polygon fill="#63b8ff" stroke="#63b8ff" points="1730.17,-82.9 1719.71,-81.23 1726.85,-89.06 1730.17,-82.9"/>
</a>
</g>
</g>
<!-- Node42 -->
<g id="Node000042" class="node">
<title>Node42</title>
<g id="a_Node000042"><a xlink:href="_compare_8h.html" target="_top" xlink:title=" ">
<polygon fill="white" stroke="#666666" points="302.88,-279.62 202.88,-279.62 202.88,-260.38 302.88,-260.38 302.88,-279.62"/>
<text text-anchor="middle" x="252.88" y="-266.12" font-family="Helvetica,sans-Serif" font-size="10.00">llzk/Util/Compare.h</text>
</a>
</g>
</g>
<!-- Node1&#45;&gt;Node42 -->
<g id="edge53_Node000001_Node000042" class="edge">
<title>Node1&#45;&gt;Node42</title>
<g id="a_edge53_Node000001_Node000042"><a xlink:title=" ">
<path fill="none" stroke="#63b8ff" d="M1686.57,-333.39C1518.69,-326.7 985.93,-305.29 544.88,-285.25 465.38,-281.64 373.72,-277.11 314.62,-274.13"/>
<polygon fill="#63b8ff" stroke="#63b8ff" points="314.93,-270.65 304.76,-273.64 314.57,-277.64 314.93,-270.65"/>
</a>
</g>
</g>
<!-- Node44 -->
<g id="Node000044" class="node">
<title>Node44</title>
<g id="a_Node000044"><a xlink:href="_symbol_helper_8h.html" target="_top" xlink:title=" ">
<polygon fill="white" stroke="#666666" points="1749.38,-279.62 1628.38,-279.62 1628.38,-260.38 1749.38,-260.38 1749.38,-279.62"/>
<text text-anchor="middle" x="1688.88" y="-266.12" font-family="Helvetica,sans-Serif" font-size="10.00">llzk/Util/SymbolHelper.h</text>
</a>
</g>
</g>
<!-- Node1&#45;&gt;Node44 -->
<g id="edge57_Node000001_Node000044" class="edge">
<title>Node1&#45;&gt;Node44</title>
<g id="a_edge57_Node000001_Node000044"><a xlink:title=" ">
<path fill="none" stroke="#63b8ff" d="M1728.3,-320.86C1720.73,-311.29 1710.79,-298.72 1702.79,-288.6"/>
<polygon fill="#63b8ff" stroke="#63b8ff" points="1705.74,-286.68 1696.79,-281.01 1700.25,-291.02 1705.74,-286.68"/>
</a>
</g>
</g>
<!-- Node46 -->
<g id="Node000046" class="node">
<title>Node46</title>
<g id="a_Node000046"><a xlink:title=" ">
<polygon fill="#e0e0e0" stroke="#999999" points="2105.25,-279.62 1962.5,-279.62 1962.5,-260.38 2105.25,-260.38 2105.25,-279.62"/>
<text text-anchor="middle" x="2033.88" y="-266.12" font-family="Helvetica,sans-Serif" font-size="10.00">mlir/Pass/AnalysisManager.h</text>
</a>
</g>
</g>
<!-- Node1&#45;&gt;Node46 -->
<g id="edge62_Node000001_Node000046" class="edge">
<title>Node1&#45;&gt;Node46</title>
<g id="a_edge62_Node000001_Node000046"><a xlink:title=" ">
<path fill="none" stroke="#63b8ff" d="M1793.12,-323.82C1846.46,-312.12 1928.06,-294.21 1981.2,-282.56"/>
<polygon fill="#63b8ff" stroke="#63b8ff" points="1981.92,-285.98 1990.94,-280.42 1980.42,-279.14 1981.92,-285.98"/>
</a>
</g>
</g>
<!-- Node47 -->
<g id="Node000047" class="node">
<title>Node47</title>
<g id="a_Node000047"><a xlink:title=" ">
<polygon fill="#e0e0e0" stroke="#999999" points="2158.25,-279.62 2123.5,-279.62 2123.5,-260.38 2158.25,-260.38 2158.25,-279.62"/>
<text text-anchor="middle" x="2140.88" y="-266.12" font-family="Helvetica,sans-Serif" font-size="10.00">map</text>
</a>
</g>
</g>
<!-- Node1&#45;&gt;Node47 -->
<g id="edge63_Node000001_Node000047" class="edge">
<title>Node1&#45;&gt;Node47</title>
<g id="a_edge63_Node000001_Node000047"><a xlink:title=" ">
<path fill="none" stroke="#63b8ff" d="M1793.19,-334.19C1866.92,-331.08 2003.43,-320.58 2113.88,-285.25 2114.38,-285.09 2114.89,-284.92 2115.39,-284.74"/>
<polygon fill="#63b8ff" stroke="#63b8ff" points="2116.75,-287.97 2124.48,-280.72 2113.92,-281.56 2116.75,-287.97"/>
</a>
</g>
</g>
<!-- Node3 -->
<g id="Node000003" class="node">
<title>Node3</title>
<g id="a_Node000003"><a xlink:title=" ">
<polygon fill="#e0e0e0" stroke="#999999" points="436.5,-218.75 319.25,-218.75 319.25,-188.25 436.5,-188.25 436.5,-218.75"/>
<text text-anchor="start" x="327.25" y="-205.25" font-family="Helvetica,sans-Serif" font-size="10.00">mlir/Analysis/DataFlow</text>
<text text-anchor="middle" x="377.88" y="-194" font-family="Helvetica,sans-Serif" font-size="10.00">/DenseAnalysis.h</text>
</a>
</g>
</g>
<!-- Node2&#45;&gt;Node3 -->
<g id="edge2_Node000002_Node000003" class="edge">
<title>Node2&#45;&gt;Node3</title>
<g id="a_edge2_Node000002_Node000003"><a xlink:title=" ">
<path fill="none" stroke="#63b8ff" d="M592.59,-259.9C554.58,-250.09 493.19,-234.25 445.77,-222.02"/>
<polygon fill="#63b8ff" stroke="#63b8ff" points="446.68,-218.64 436.12,-219.53 444.93,-225.41 446.68,-218.64"/>
</a>
</g>
</g>
<!-- Node4 -->
<g id="Node000004" class="node">
<title>Node4</title>
<g id="a_Node000004"><a xlink:title=" ">
<polygon fill="#e0e0e0" stroke="#999999" points="629,-213.12 454.75,-213.12 454.75,-193.88 629,-193.88 629,-213.12"/>
<text text-anchor="middle" x="541.88" y="-199.62" font-family="Helvetica,sans-Serif" font-size="10.00">mlir/Analysis/DataFlowFramework.h</text>
</a>
</g>
</g>
<!-- Node2&#45;&gt;Node4 -->
<g id="edge3_Node000002_Node000004" class="edge">
<title>Node2&#45;&gt;Node4</title>
<g id="a_edge3_Node000002_Node000004"><a xlink:title=" ">
<path fill="none" stroke="#63b8ff" d="M615.92,-260.03C602.26,-249.79 579.66,-232.84 563.01,-220.35"/>
<polygon fill="#63b8ff" stroke="#63b8ff" points="565.32,-217.71 555.22,-214.51 561.12,-223.31 565.32,-217.71"/>
</a>
</g>
</g>
<!-- Node5 -->
<g id="Node000005" class="node">
<title>Node5</title>
<g id="a_Node000005"><a xlink:title=" ">
<polygon fill="#e0e0e0" stroke="#999999" points="928.25,-80.12 815.5,-80.12 815.5,-60.88 928.25,-60.88 928.25,-80.12"/>
<text text-anchor="middle" x="871.88" y="-66.62" font-family="Helvetica,sans-Serif" font-size="10.00">mlir/IR/SymbolTable.h</text>
</a>
</g>
</g>
<!-- Node2&#45;&gt;Node5 -->
<g id="edge4_Node000002_Node000005" class="edge">
<title>Node2&#45;&gt;Node5</title>
<g id="a_edge4_Node000002_Node000005"><a xlink:title=" ">
<path fill="none" stroke="#63b8ff" d="M553.29,-267.98C469.31,-265.06 340.55,-254.66 309.88,-218.75 301.07,-208.44 302.07,-199.33 309.88,-188.25 360.43,-116.48 410.56,-142.46 495.88,-121.75 601.8,-96.04 727.92,-82.57 803.85,-76.26"/>
<polygon fill="#63b8ff" stroke="#63b8ff" points="803.94,-79.76 813.62,-75.47 803.37,-72.79 803.94,-79.76"/>
</a>
</g>
</g>
<!-- Node6 -->
<g id="Node000006" class="node">
<title>Node6</title>
<g id="a_Node000006"><a xlink:title=" ">
<polygon fill="#e0e0e0" stroke="#999999" points="1503,-213.12 1352.75,-213.12 1352.75,-193.88 1503,-193.88 1503,-213.12"/>
<text text-anchor="middle" x="1427.88" y="-199.62" font-family="Helvetica,sans-Serif" font-size="10.00">mlir/Interfaces/CallInterfaces.h</text>
</a>
</g>
</g>
<!-- Node2&#45;&gt;Node6 -->
<g id="edge5_Node000002_Node000006" class="edge">
<title>Node2&#45;&gt;Node6</title>
<g id="a_edge5_Node000002_Node000006"><a xlink:title=" ">
<path fill="none" stroke="#63b8ff" d="M702.72,-266.11C833.12,-260.54 1110.25,-246.36 1342.88,-218.75 1350.84,-217.8 1359.2,-216.63 1367.44,-215.36"/>
<polygon fill="#63b8ff" stroke="#63b8ff" points="1367.73,-218.86 1377.05,-213.83 1366.63,-211.95 1367.73,-218.86"/>
</a>
</g>
</g>
<!-- Node7 -->
<g id="Node000007" class="node">
<title>Node7</title>
<g id="a_Node000007"><a xlink:title=" ">
<polygon fill="#e0e0e0" stroke="#999999" points="780.75,-218.75 647,-218.75 647,-188.25 780.75,-188.25 780.75,-218.75"/>
<text text-anchor="start" x="655" y="-205.25" font-family="Helvetica,sans-Serif" font-size="10.00">mlir/Interfaces/ControlFlow</text>
<text text-anchor="middle" x="713.88" y="-194" font-family="Helvetica,sans-Serif" font-size="10.00">Interfaces.h</text>
</a>
</g>
</g>
<!-- Node2&#45;&gt;Node7 -->
<g id="edge6_Node000002_Node000007" class="edge">
<title>Node2&#45;&gt;Node7</title>
<g id="a_edge6_Node000002_Node000007"><a xlink:title=" ">
<path fill="none" stroke="#63b8ff" d="M639.83,-260.03C651.53,-251.26 669.78,-237.57 685.24,-225.98"/>
<polygon fill="#63b8ff" stroke="#63b8ff" points="687.31,-228.8 693.21,-220 683.11,-223.2 687.31,-228.8"/>
</a>
</g>
</g>
<!-- Node9 -->
<g id="Node000009" class="node">
<title>Node9</title>
<g id="a_Node000009"><a xlink:href="_op_traits_8h.html" target="_top" xlink:title=" ">
<polygon fill="white" stroke="#666666" points="1020.5,-218.75 915.25,-218.75 915.25,-188.25 1020.5,-188.25 1020.5,-218.75"/>
<text text-anchor="start" x="923.25" y="-205.25" font-family="Helvetica,sans-Serif" font-size="10.00">llzk/Dialect/Function</text>
<text text-anchor="middle" x="967.88" y="-194" font-family="Helvetica,sans-Serif" font-size="10.00">/IR/OpTraits.h</text>
</a>
</g>
</g>
<!-- Node8&#45;&gt;Node9 -->
<g id="edge8_Node000008_Node000009" class="edge">
<title>Node8&#45;&gt;Node9</title>
<g id="a_edge8_Node000008_Node000009"><a xlink:title=" ">
<path fill="none" stroke="#63b8ff" d="M1146.5,-255.48C1112.69,-245.83 1066.88,-232.76 1030.12,-222.27"/>
<polygon fill="#63b8ff" stroke="#63b8ff" points="1031.55,-219.03 1020.98,-219.66 1029.63,-225.77 1031.55,-219.03"/>
</a>
</g>
</g>
<!-- Node13 -->
<g id="Node000013" class="node">
<title>Node13</title>
<g id="a_Node000013"><a xlink:href="_l_l_z_k_2_i_r_2_attrs_8h.html" target="_top" xlink:title=" ">
<polygon fill="white" stroke="#666666" points="1166.12,-218.75 1061.62,-218.75 1061.62,-188.25 1166.12,-188.25 1166.12,-218.75"/>
<text text-anchor="start" x="1069.62" y="-205.25" font-family="Helvetica,sans-Serif" font-size="10.00">llzk/Dialect/LLZK/IR</text>
<text text-anchor="middle" x="1113.88" y="-194" font-family="Helvetica,sans-Serif" font-size="10.00">/Attrs.h</text>
</a>
</g>
</g>
<!-- Node8&#45;&gt;Node13 -->
<g id="edge12_Node000008_Node000013" class="edge">
<title>Node8&#45;&gt;Node13</title>
<g id="a_edge12_Node000008_Node000013"><a xlink:title=" ">
<path fill="none" stroke="#63b8ff" d="M1175.72,-254.36C1165.39,-246.03 1152.26,-235.44 1140.75,-226.17"/>
<polygon fill="#63b8ff" stroke="#63b8ff" points="1143.12,-223.58 1133.13,-220.03 1138.72,-229.03 1143.12,-223.58"/>
</a>
</g>
</g>
<!-- Node16 -->
<g id="Node000016" class="node">
<title>Node16</title>
<g id="a_Node000016"><a xlink:href="_op_helpers_8h.html" target="_top" xlink:title=" ">
<polygon fill="white" stroke="#666666" points="897.12,-218.75 798.62,-218.75 798.62,-188.25 897.12,-188.25 897.12,-218.75"/>
<text text-anchor="start" x="806.62" y="-205.25" font-family="Helvetica,sans-Serif" font-size="10.00">llzk/Dialect/Shared</text>
<text text-anchor="middle" x="847.88" y="-194" font-family="Helvetica,sans-Serif" font-size="10.00">/OpHelpers.h</text>
</a>
</g>
</g>
<!-- Node8&#45;&gt;Node16 -->
<g id="edge15_Node000008_Node000016" class="edge">
<title>Node8&#45;&gt;Node16</title>
<g id="a_edge15_Node000008_Node000016"><a xlink:title=" ">
<path fill="none" stroke="#63b8ff" d="M1146.54,-261.76C1091.61,-253.13 998.07,-237.74 908.66,-219.26"/>
<polygon fill="#63b8ff" stroke="#63b8ff" points="909.48,-215.85 898.98,-217.24 908.05,-222.71 909.48,-215.85"/>
</a>
</g>
</g>
<!-- Node25 -->
<g id="Node000025" class="node">
<title>Node25</title>
<g id="a_Node000025"><a xlink:href="_struct_2_i_r_2_types_8h.html" target="_top" xlink:title=" ">
<polygon fill="white" stroke="#666666" points="1614.88,-218.75 1520.88,-218.75 1520.88,-188.25 1614.88,-188.25 1614.88,-218.75"/>
<text text-anchor="start" x="1528.88" y="-205.25" font-family="Helvetica,sans-Serif" font-size="10.00">llzk/Dialect/Struct</text>
<text text-anchor="middle" x="1567.88" y="-194" font-family="Helvetica,sans-Serif" font-size="10.00">/IR/Types.h</text>
</a>
</g>
</g>
<!-- Node8&#45;&gt;Node25 -->
<g id="edge28_Node000008_Node000025" class="edge">
<title>Node8&#45;&gt;Node25</title>
<g id="a_edge28_Node000008_Node000025"><a xlink:title=" ">
<path fill="none" stroke="#63b8ff" d="M1241.26,-262.91C1301.43,-254.86 1408.61,-239.51 1509.58,-219.11"/>
<polygon fill="#63b8ff" stroke="#63b8ff" points="1510.01,-222.59 1519.11,-217.16 1508.61,-215.74 1510.01,-222.59"/>
</a>
</g>
</g>
<!-- Node39 -->
<g id="Node000039" class="node">
<title>Node39</title>
<g id="a_Node000039"><a xlink:href="_struct_2_i_r_2_ops_8h_8inc.html" target="_top" xlink:title=" ">
<polygon fill="white" stroke="#666666" points="1374.88,-152.25 1280.88,-152.25 1280.88,-121.75 1374.88,-121.75 1374.88,-152.25"/>
<text text-anchor="start" x="1288.88" y="-138.75" font-family="Helvetica,sans-Serif" font-size="10.00">llzk/Dialect/Struct</text>
<text text-anchor="middle" x="1327.88" y="-127.5" font-family="Helvetica,sans-Serif" font-size="10.00">/IR/Ops.h.inc</text>
</a>
</g>
</g>
<!-- Node8&#45;&gt;Node39 -->
<g id="edge52_Node000008_Node000039" class="edge">
<title>Node8&#45;&gt;Node39</title>
<g id="a_edge52_Node000008_Node000039"><a xlink:title=" ">
<path fill="none" stroke="#63b8ff" d="M1193.55,-254.46C1193.93,-236.84 1197.1,-207.17 1212.88,-188.25 1221.33,-178.11 1247.55,-166.31 1272.82,-156.69"/>
<polygon fill="#63b8ff" stroke="#63b8ff" points="1273.96,-160 1282.12,-153.24 1271.53,-153.44 1273.96,-160"/>
</a>
</g>
</g>
<!-- Node41 -->
<g id="Node000041" class="node">
<title>Node41</title>
<g id="a_Node000041"><a xlink:href="_struct_2_i_r_2_op_interfaces_8h_8inc.html" target="_top" xlink:title=" ">
<polygon fill="white" stroke="#666666" points="1334.25,-218.75 1221.5,-218.75 1221.5,-188.25 1334.25,-188.25 1334.25,-218.75"/>
<text text-anchor="start" x="1229.5" y="-205.25" font-family="Helvetica,sans-Serif" font-size="10.00">llzk/Dialect/Struct</text>
<text text-anchor="middle" x="1277.88" y="-194" font-family="Helvetica,sans-Serif" font-size="10.00">/IR/OpInterfaces.h.inc</text>
</a>
</g>
</g>
<!-- Node8&#45;&gt;Node41 -->
<g id="edge51_Node000008_Node000041" class="edge">
<title>Node8&#45;&gt;Node41</title>
<g id="a_edge51_Node000008_Node000041"><a xlink:title=" ">
<path fill="none" stroke="#63b8ff" d="M1212.94,-254.36C1223.89,-245.95 1237.85,-235.23 1250.01,-225.89"/>
<polygon fill="#63b8ff" stroke="#63b8ff" points="1251.89,-228.87 1257.69,-220 1247.63,-223.31 1251.89,-228.87"/>
</a>
</g>
</g>
<!-- Node10 -->
<g id="Node000010" class="node">
<title>Node10</title>
<g id="a_Node000010"><a xlink:title=" ">
<polygon fill="#e0e0e0" stroke="#999999" points="1023.12,-146.62 912.62,-146.62 912.62,-127.38 1023.12,-127.38 1023.12,-146.62"/>
<text text-anchor="middle" x="967.88" y="-133.12" font-family="Helvetica,sans-Serif" font-size="10.00">mlir/IR/OpDefinition.h</text>
</a>
</g>
</g>
<!-- Node9&#45;&gt;Node10 -->
<g id="edge9_Node000009_Node000010" class="edge">
<title>Node9&#45;&gt;Node10</title>
<g id="a_edge9_Node000009_Node000010"><a xlink:title=" ">
<path fill="none" stroke="#63b8ff" d="M967.88,-187.86C967.88,-179.08 967.88,-167.77 967.88,-158.15"/>
<polygon fill="#63b8ff" stroke="#63b8ff" points="971.38,-158.34 967.88,-148.34 964.38,-158.34 971.38,-158.34"/>
</a>
</g>
</g>
<!-- Node11 -->
<g id="Node000011" class="node">
<title>Node11</title>
<g id="a_Node000011"><a xlink:title=" ">
<polygon fill="#e0e0e0" stroke="#999999" points="699.12,-80.12 600.62,-80.12 600.62,-60.88 699.12,-60.88 699.12,-80.12"/>
<text text-anchor="middle" x="649.88" y="-66.62" font-family="Helvetica,sans-Serif" font-size="10.00">mlir/IR/Operation.h</text>
</a>
</g>
</g>
<!-- Node9&#45;&gt;Node11 -->
<g id="edge10_Node000009_Node000011" class="edge">
<title>Node9&#45;&gt;Node11</title>
<g id="a_edge10_Node000009_Node000011"><a xlink:title=" ">
<path fill="none" stroke="#63b8ff" d="M949.53,-188.09C920,-164.91 865.17,-121.89 864.88,-121.75 815.75,-98.19 754.9,-85.3 710.49,-78.5"/>
<polygon fill="#63b8ff" stroke="#63b8ff" points="711.18,-75.06 700.78,-77.07 710.17,-81.99 711.18,-75.06"/>
</a>
</g>
</g>
<!-- Node12 -->
<g id="Node000012" class="node">
<title>Node12</title>
<g id="a_Node000012"><a xlink:title=" ">
<polygon fill="#e0e0e0" stroke="#999999" points="856.38,-146.62 717.38,-146.62 717.38,-127.38 856.38,-127.38 856.38,-146.62"/>
<text text-anchor="middle" x="786.88" y="-133.12" font-family="Helvetica,sans-Serif" font-size="10.00">mlir/Support/LogicalResult.h</text>
</a>
</g>
</g>
<!-- Node9&#45;&gt;Node12 -->
<g id="edge11_Node000009_Node000012" class="edge">
<title>Node9&#45;&gt;Node12</title>
<g id="a_edge11_Node000009_Node000012"><a xlink:title=" ">
<path fill="none" stroke="#63b8ff" d="M926.8,-187.86C895.64,-176.76 853.18,-161.63 823.24,-150.96"/>
<polygon fill="#63b8ff" stroke="#63b8ff" points="824.44,-147.67 813.85,-147.61 822.09,-154.27 824.44,-147.67"/>
</a>
</g>
</g>
<!-- Node14 -->
<g id="Node000014" class="node">
<title>Node14</title>
<g id="a_Node000014"><a xlink:title=" ">
<polygon fill="#e0e0e0" stroke="#999999" points="1263.12,-146.62 1164.62,-146.62 1164.62,-127.38 1263.12,-127.38 1263.12,-146.62"/>
<text text-anchor="middle" x="1213.88" y="-133.12" font-family="Helvetica,sans-Serif" font-size="10.00">mlir/IR/Attributes.h</text>
</a>
</g>
</g>
<!-- Node13&#45;&gt;Node14 -->
<g id="edge13_Node000013_Node000014" class="edge">
<title>Node13&#45;&gt;Node14</title>
<g id="a_edge13_Node000013_Node000014"><a xlink:title=" ">
<path fill="none" stroke="#63b8ff" d="M1136.57,-187.86C1152.7,-177.46 1174.3,-163.53 1190.56,-153.04"/>
<polygon fill="#63b8ff" stroke="#63b8ff" points="1192.13,-156.19 1198.63,-147.83 1188.33,-150.31 1192.13,-156.19"/>
</a>
</g>
</g>
<!-- Node15 -->
<g id="Node000015" class="node">
<title>Node15</title>
<g id="a_Node000015"><a xlink:href="_l_l_z_k_2_i_r_2_attrs_8h_8inc.html" target="_top" xlink:title=" ">
<polygon fill="white" stroke="#666666" points="1146.12,-152.25 1041.62,-152.25 1041.62,-121.75 1146.12,-121.75 1146.12,-152.25"/>
<text text-anchor="start" x="1049.62" y="-138.75" font-family="Helvetica,sans-Serif" font-size="10.00">llzk/Dialect/LLZK/IR</text>
<text text-anchor="middle" x="1093.88" y="-127.5" font-family="Helvetica,sans-Serif" font-size="10.00">/Attrs.h.inc</text>
</a>
</g>
</g>
<!-- Node13&#45;&gt;Node15 -->
<g id="edge14_Node000013_Node000015" class="edge">
<title>Node13&#45;&gt;Node15</title>
<g id="a_edge14_Node000013_Node000015"><a xlink:title=" ">
<path fill="none" stroke="#63b8ff" d="M1109.34,-187.86C1107.09,-180.61 1104.3,-171.63 1101.72,-163.31"/>
<polygon fill="#63b8ff" stroke="#63b8ff" points="1105.15,-162.54 1098.84,-154.02 1098.46,-164.61 1105.15,-162.54"/>
</a>
</g>
</g>
<!-- Node16&#45;&gt;Node11 -->
<g id="edge24_Node000016_Node000011" class="edge">
<title>Node16&#45;&gt;Node11</title>
<g id="a_edge24_Node000016_Node000011"><a xlink:title=" ">
<path fill="none" stroke="#63b8ff" d="M798.28,-189.9C795.45,-189.31 792.63,-188.76 789.88,-188.25 725.13,-176.38 539.5,-201.54 495.88,-152.25 463.52,-115.69 533.5,-93.1 589.43,-81.41"/>
<polygon fill="#63b8ff" stroke="#63b8ff" points="589.79,-84.91 598.91,-79.52 588.42,-78.05 589.79,-84.91"/>
</a>
</g>
</g>
<!-- Node16&#45;&gt;Node12 -->
<g id="edge25_Node000016_Node000012" class="edge">
<title>Node16&#45;&gt;Node12</title>
<g id="a_edge25_Node000016_Node000012"><a xlink:title=" ">
<path fill="none" stroke="#63b8ff" d="M834.03,-187.86C824.79,-178.09 812.6,-165.2 802.93,-154.98"/>
<polygon fill="#63b8ff" stroke="#63b8ff" points="805.67,-152.78 796.26,-147.92 800.59,-157.59 805.67,-152.78"/>
</a>
</g>
</g>
<!-- Node17 -->
<g id="Node000017" class="node">
<title>Node17</title>
<g id="a_Node000017"><a xlink:href="_affine_helper_8h.html" target="_top" xlink:title=" ">
<polygon fill="white" stroke="#666666" points="224.62,-146.62 111.12,-146.62 111.12,-127.38 224.62,-127.38 224.62,-146.62"/>
<text text-anchor="middle" x="167.88" y="-133.12" font-family="Helvetica,sans-Serif" font-size="10.00">llzk/Util/AffineHelper.h</text>
</a>
</g>
</g>
<!-- Node16&#45;&gt;Node17 -->
<g id="edge16_Node000016_Node000017" class="edge">
<title>Node16&#45;&gt;Node17</title>
<g id="a_edge16_Node000016_Node000017"><a xlink:title=" ">
<path fill="none" stroke="#63b8ff" d="M798.31,-189.77C795.46,-189.21 792.64,-188.7 789.88,-188.25 684.82,-171.21 374.64,-150.73 236.08,-142.12"/>
<polygon fill="#63b8ff" stroke="#63b8ff" points="236.52,-138.64 226.32,-141.52 236.08,-145.63 236.52,-138.64"/>
</a>
</g>
</g>
<!-- Node19 -->
<g id="Node000019" class="node">
<title>Node19</title>
<g id="a_Node000019"><a xlink:title=" ">
<polygon fill="#e0e0e0" stroke="#999999" points="511.88,-80.12 375.88,-80.12 375.88,-60.88 511.88,-60.88 511.88,-80.12"/>
<text text-anchor="middle" x="443.88" y="-66.62" font-family="Helvetica,sans-Serif" font-size="10.00">mlir/IR/OpImplementation.h</text>
</a>
</g>
</g>
<!-- Node16&#45;&gt;Node19 -->
<g id="edge23_Node000016_Node000019" class="edge">
<title>Node16&#45;&gt;Node19</title>
<g id="a_edge23_Node000016_Node000019"><a xlink:title=" ">
<path fill="none" stroke="#63b8ff" d="M798.29,-189.89C795.45,-189.3 792.63,-188.75 789.88,-188.25 722.5,-176.06 539.84,-191.7 483.88,-152.25 463.63,-137.98 453.13,-110.48 448.06,-91.56"/>
<polygon fill="#63b8ff" stroke="#63b8ff" points="451.52,-91 445.81,-82.08 444.71,-92.61 451.52,-91"/>
</a>
</g>
</g>
<!-- Node22 -->
<g id="Node000022" class="node">
<title>Node22</title>
<g id="a_Node000022"><a xlink:href="_constants_8h.html" target="_top" xlink:title=" ">
<polygon fill="white" stroke="#666666" points="1225.5,-80.12 1120.25,-80.12 1120.25,-60.88 1225.5,-60.88 1225.5,-80.12"/>
<text text-anchor="middle" x="1172.88" y="-66.62" font-family="Helvetica,sans-Serif" font-size="10.00">llzk/Util/Constants.h</text>
</a>
</g>
</g>
<!-- Node16&#45;&gt;Node22 -->
<g id="edge22_Node000016_Node000022" class="edge">
<title>Node16&#45;&gt;Node22</title>
<g id="a_edge22_Node000016_Node000022"><a xlink:title=" ">
<path fill="none" stroke="#63b8ff" d="M798.4,-189.68C748.64,-176.56 678.72,-157.38 674.88,-152.25 666.74,-141.41 665.69,-131.72 674.88,-121.75 707.88,-85.91 1063.75,-93.31 1111.88,-85.75 1116.78,-84.98 1121.88,-84.03 1126.94,-82.99"/>
<polygon fill="#63b8ff" stroke="#63b8ff" points="1127.39,-86.48 1136.41,-80.93 1125.89,-79.64 1127.39,-86.48"/>
</a>
</g>
</g>
<!-- Node23 -->
<g id="Node000023" class="node">
<title>Node23</title>
<g id="a_Node000023"><a xlink:title=" ">
<polygon fill="#e0e0e0" stroke="#999999" points="623.25,-146.62 504.5,-146.62 504.5,-127.38 623.25,-127.38 623.25,-146.62"/>
<text text-anchor="middle" x="563.88" y="-133.12" font-family="Helvetica,sans-Serif" font-size="10.00">llvm/ADT/SmallString.h</text>
</a>
</g>
</g>
<!-- Node16&#45;&gt;Node23 -->
<g id="edge26_Node000016_Node000023" class="edge">
<title>Node16&#45;&gt;Node23</title>
<g id="a_edge26_Node000016_Node000023"><a xlink:title=" ">
<path fill="none" stroke="#63b8ff" d="M798.22,-190.22C795.4,-189.55 792.6,-188.89 789.88,-188.25 730.88,-174.45 663.01,-159.48 617.17,-149.5"/>
<polygon fill="#63b8ff" stroke="#63b8ff" points="618,-146.1 607.49,-147.4 616.52,-152.94 618,-146.1"/>
</a>
</g>
</g>
<!-- Node24 -->
<g id="Node000024" class="node">
<title>Node24</title>
<g id="a_Node000024"><a xlink:title=" ">
<polygon fill="#e0e0e0" stroke="#999999" points="1353.75,-80.12 1244,-80.12 1244,-60.88 1353.75,-60.88 1353.75,-80.12"/>
<text text-anchor="middle" x="1298.88" y="-66.62" font-family="Helvetica,sans-Serif" font-size="10.00">llvm/ADT/StringRef.h</text>
</a>
</g>
</g>
<!-- Node16&#45;&gt;Node24 -->
<g id="edge27_Node000016_Node000024" class="edge">
<title>Node16&#45;&gt;Node24</title>
<g id="a_edge27_Node000016_Node000024"><a xlink:title=" ">
<path fill="none" stroke="#63b8ff" d="M798.61,-187.86C760.55,-176.06 713.45,-160.17 707.88,-152.25 700.08,-141.16 698.62,-131.66 707.88,-121.75 747.94,-78.86 1176.79,-94.15 1234.88,-85.75 1240.23,-84.98 1245.8,-84 1251.32,-82.92"/>
<polygon fill="#63b8ff" stroke="#63b8ff" points="1251.94,-86.37 1261.02,-80.9 1250.51,-79.51 1251.94,-86.37"/>
</a>
</g>
</g>
<!-- Node17&#45;&gt;Node11 -->
<g id="edge19_Node000017_Node000011" class="edge">
<title>Node17&#45;&gt;Node11</title>
<g id="a_edge19_Node000017_Node000011"><a xlink:title=" ">
<path fill="none" stroke="#63b8ff" d="M210.58,-126.88C219.88,-125.05 229.69,-123.23 238.88,-121.75 304.77,-111.12 491.33,-89.47 588.83,-78.38"/>
<polygon fill="#63b8ff" stroke="#63b8ff" points="589.21,-81.86 598.76,-77.26 588.42,-74.91 589.21,-81.86"/>
</a>
</g>
</g>
<!-- Node18 -->
<g id="Node000018" class="node">
<title>Node18</title>
<g id="a_Node000018"><a xlink:title=" ">
<polygon fill="#e0e0e0" stroke="#999999" points="91.75,-80.12 0,-80.12 0,-60.88 91.75,-60.88 91.75,-80.12"/>
<text text-anchor="middle" x="45.88" y="-66.62" font-family="Helvetica,sans-Serif" font-size="10.00">mlir/IR/Builders.h</text>
</a>
</g>
</g>
<!-- Node17&#45;&gt;Node18 -->
<g id="edge17_Node000017_Node000018" class="edge">
<title>Node17&#45;&gt;Node18</title>
<g id="a_edge17_Node000017_Node000018"><a xlink:title=" ">
<path fill="none" stroke="#63b8ff" d="M150.65,-126.9C130.49,-116.24 96.84,-98.44 73.12,-85.91"/>
<polygon fill="#63b8ff" stroke="#63b8ff" points="74.82,-82.85 64.35,-81.27 71.55,-89.03 74.82,-82.85"/>
</a>
</g>
</g>
<!-- Node17&#45;&gt;Node19 -->
<g id="edge18_Node000017_Node000019" class="edge">
<title>Node17&#45;&gt;Node19</title>
<g id="a_edge18_Node000017_Node000019"><a xlink:title=" ">
<path fill="none" stroke="#63b8ff" d="M206.83,-126.9C255.94,-115.42 340.42,-95.68 394.14,-83.12"/>
<polygon fill="#63b8ff" stroke="#63b8ff" points="394.7,-86.59 403.64,-80.9 393.11,-79.77 394.7,-86.59"/>
</a>
</g>
</g>
<!-- Node20 -->
<g id="Node000020" class="node">
<title>Node20</title>
<g id="a_Node000020"><a xlink:title=" ">
<polygon fill="#e0e0e0" stroke="#999999" points="218.38,-80.12 109.38,-80.12 109.38,-60.88 218.38,-60.88 218.38,-80.12"/>
<text text-anchor="middle" x="163.88" y="-66.62" font-family="Helvetica,sans-Serif" font-size="10.00">mlir/IR/ValueRange.h</text>
</a>
</g>
</g>
<!-- Node17&#45;&gt;Node20 -->
<g id="edge20_Node000017_Node000020" class="edge">
<title>Node17&#45;&gt;Node20</title>
<g id="a_edge20_Node000017_Node000020"><a xlink:title=" ">
<path fill="none" stroke="#63b8ff" d="M167.32,-127.03C166.76,-117.98 165.87,-103.7 165.14,-91.88"/>
<polygon fill="#63b8ff" stroke="#63b8ff" points="168.63,-91.67 164.52,-81.9 161.65,-92.1 168.63,-91.67"/>
</a>
</g>
</g>
<!-- Node21 -->
<g id="Node000021" class="node">
<title>Node21</title>
<g id="a_Node000021"><a xlink:title=" ">
<polygon fill="#e0e0e0" stroke="#999999" points="357.38,-80.12 236.38,-80.12 236.38,-60.88 357.38,-60.88 357.38,-80.12"/>
<text text-anchor="middle" x="296.88" y="-66.62" font-family="Helvetica,sans-Serif" font-size="10.00">llvm/ADT/SmallVector.h</text>
</a>
</g>
</g>
<!-- Node17&#45;&gt;Node21 -->
<g id="edge21_Node000017_Node000021" class="edge">
<title>Node17&#45;&gt;Node21</title>
<g id="a_edge21_Node000017_Node000021"><a xlink:title=" ">
<path fill="none" stroke="#63b8ff" d="M186.08,-126.9C207.6,-116.14 243.63,-98.12 268.74,-85.57"/>
<polygon fill="#63b8ff" stroke="#63b8ff" points="270.03,-88.84 277.4,-81.24 266.9,-82.58 270.03,-88.84"/>
</a>
</g>
</g>
<!-- Node26 -->
<g id="Node000026" class="node">
<title>Node26</title>
<g id="a_Node000026"><a xlink:href="_struct_2_i_r_2_dialect_8h.html" target="_top" xlink:title=" ">
<polygon fill="white" stroke="#666666" points="1906.88,-152.25 1812.88,-152.25 1812.88,-121.75 1906.88,-121.75 1906.88,-152.25"/>
<text text-anchor="start" x="1820.88" y="-138.75" font-family="Helvetica,sans-Serif" font-size="10.00">llzk/Dialect/Struct</text>
<text text-anchor="middle" x="1859.88" y="-127.5" font-family="Helvetica,sans-Serif" font-size="10.00">/IR/Dialect.h</text>
</a>
</g>
</g>
<!-- Node25&#45;&gt;Node26 -->
<g id="edge29_Node000025_Node000026" class="edge">
<title>Node25&#45;&gt;Node26</title>
<g id="a_edge29_Node000025_Node000026"><a xlink:title=" ">
<path fill="none" stroke="#63b8ff" d="M1615.11,-192.07C1666,-180.82 1747.03,-162.93 1801.78,-150.83"/>
<polygon fill="#63b8ff" stroke="#63b8ff" points="1802.22,-154.32 1811.23,-148.75 1800.71,-147.49 1802.22,-154.32"/>
</a>
</g>
</g>
<!-- Node29 -->
<g id="Node000029" class="node">
<title>Node29</title>
<g id="a_Node000029"><a xlink:href="_symbol_lookup_8h.html" target="_top" xlink:title="This file defines methods symbol lookup across LLZK operations and included files.">
<polygon fill="white" stroke="#666666" points="1757.25,-146.62 1632.5,-146.62 1632.5,-127.38 1757.25,-127.38 1757.25,-146.62"/>
<text text-anchor="middle" x="1694.88" y="-133.12" font-family="Helvetica,sans-Serif" font-size="10.00">llzk/Util/SymbolLookup.h</text>
</a>
</g>
</g>
<!-- Node25&#45;&gt;Node29 -->
<g id="edge32_Node000025_Node000029" class="edge">
<title>Node25&#45;&gt;Node29</title>
<g id="a_edge32_Node000025_Node000029"><a xlink:title=" ">
<path fill="none" stroke="#63b8ff" d="M1596.69,-187.86C1617.76,-177.17 1646.17,-162.74 1667.01,-152.15"/>
<polygon fill="#63b8ff" stroke="#63b8ff" points="1668.45,-155.34 1675.79,-147.7 1665.28,-149.1 1668.45,-155.34"/>
</a>
</g>
</g>
<!-- Node32 -->
<g id="Node000032" class="node">
<title>Node32</title>
<g id="a_Node000032"><a xlink:href="_type_helper_8h.html" target="_top" xlink:title=" ">
<polygon fill="white" stroke="#666666" points="1502.38,-146.62 1393.38,-146.62 1393.38,-127.38 1502.38,-127.38 1502.38,-146.62"/>
<text text-anchor="middle" x="1447.88" y="-133.12" font-family="Helvetica,sans-Serif" font-size="10.00">llzk/Util/TypeHelper.h</text>
</a>
</g>
</g>
<!-- Node25&#45;&gt;Node32 -->
<g id="edge38_Node000025_Node000032" class="edge">
<title>Node25&#45;&gt;Node32</title>
<g id="a_edge38_Node000025_Node000032"><a xlink:title=" ">
<path fill="none" stroke="#63b8ff" d="M1540.65,-187.86C1520.92,-177.26 1494.39,-163 1474.75,-152.45"/>
<polygon fill="#63b8ff" stroke="#63b8ff" points="1476.44,-149.38 1465.97,-147.73 1473.12,-155.54 1476.44,-149.38"/>
</a>
</g>
</g>
<!-- Node25&#45;&gt;Node39 -->
<g id="edge49_Node000025_Node000039" class="edge">
<title>Node25&#45;&gt;Node39</title>
<g id="a_edge49_Node000025_Node000039"><a xlink:title=" ">
<path fill="none" stroke="#63b8ff" d="M1520.46,-189.76C1481.92,-179.4 1427.37,-164.74 1386.17,-153.67"/>
<polygon fill="#63b8ff" stroke="#63b8ff" points="1387.22,-150.32 1376.65,-151.11 1385.4,-157.09 1387.22,-150.32"/>
</a>
</g>
</g>
<!-- Node40 -->
<g id="Node000040" class="node">
<title>Node40</title>
<g id="a_Node000040"><a xlink:href="_struct_2_i_r_2_types_8h_8inc.html" target="_top" xlink:title=" ">
<polygon fill="white" stroke="#666666" points="1614.88,-152.25 1520.88,-152.25 1520.88,-121.75 1614.88,-121.75 1614.88,-152.25"/>
<text text-anchor="start" x="1528.88" y="-138.75" font-family="Helvetica,sans-Serif" font-size="10.00">llzk/Dialect/Struct</text>
<text text-anchor="middle" x="1567.88" y="-127.5" font-family="Helvetica,sans-Serif" font-size="10.00">/IR/Types.h.inc</text>
</a>
</g>
</g>
<!-- Node25&#45;&gt;Node40 -->
<g id="edge50_Node000025_Node000040" class="edge">
<title>Node25&#45;&gt;Node40</title>
<g id="a_edge50_Node000025_Node000040"><a xlink:title=" ">
<path fill="none" stroke="#63b8ff" d="M1567.88,-187.86C1567.88,-180.77 1567.88,-172.04 1567.88,-163.88"/>
<polygon fill="#63b8ff" stroke="#63b8ff" points="1571.38,-164.09 1567.88,-154.09 1564.38,-164.09 1571.38,-164.09"/>
</a>
</g>
</g>
<!-- Node26&#45;&gt;Node27 -->
<g id="edge30_Node000026_Node000027" class="edge">
<title>Node26&#45;&gt;Node27</title>
<g id="a_edge30_Node000026_Node000027"><a xlink:title=" ">
<path fill="none" stroke="#63b8ff" d="M1890.28,-121.36C1912.71,-110.57 1943.03,-95.97 1965.07,-85.36"/>
<polygon fill="#63b8ff" stroke="#63b8ff" points="1966.3,-88.66 1973.79,-81.17 1963.26,-82.35 1966.3,-88.66"/>
</a>
</g>
</g>
<!-- Node28 -->
<g id="Node000028" class="node">
<title>Node28</title>
<g id="a_Node000028"><a xlink:href="_struct_2_i_r_2_dialect_8h_8inc.html" target="_top" xlink:title=" ">
<polygon fill="white" stroke="#666666" points="1924.88,-85.75 1830.88,-85.75 1830.88,-55.25 1924.88,-55.25 1924.88,-85.75"/>
<text text-anchor="start" x="1838.88" y="-72.25" font-family="Helvetica,sans-Serif" font-size="10.00">llzk/Dialect/Struct</text>
<text text-anchor="middle" x="1877.88" y="-61" font-family="Helvetica,sans-Serif" font-size="10.00">/IR/Dialect.h.inc</text>
</a>
</g>
</g>
<!-- Node26&#45;&gt;Node28 -->
<g id="edge31_Node000026_Node000028" class="edge">
<title>Node26&#45;&gt;Node28</title>
<g id="a_edge31_Node000026_Node000028"><a xlink:title=" ">
<path fill="none" stroke="#63b8ff" d="M1863.96,-121.36C1865.96,-114.19 1868.43,-105.34 1870.73,-97.09"/>
<polygon fill="#63b8ff" stroke="#63b8ff" points="1874.08,-98.11 1873.4,-87.54 1867.34,-96.23 1874.08,-98.11"/>
</a>
</g>
</g>
<!-- Node29&#45;&gt;Node11 -->
<g id="edge34_Node000029_Node000011" class="edge">
<title>Node29&#45;&gt;Node11</title>
<g id="a_edge34_Node000029_Node000011"><a xlink:title=" ">
<path fill="none" stroke="#63b8ff" d="M1655.25,-126.92C1645.07,-124.9 1634.11,-122.99 1623.88,-121.75 1263.07,-77.86 1169.52,-110.18 806.88,-85.75 775.05,-83.61 739.67,-80.46 710.56,-77.67"/>
<polygon fill="#63b8ff" stroke="#63b8ff" points="711.12,-74.21 700.83,-76.73 710.45,-81.18 711.12,-74.21"/>
</a>
</g>
</g>
<!-- Node29&#45;&gt;Node22 -->
<g id="edge33_Node000029_Node000022" class="edge">
<title>Node29&#45;&gt;Node22</title>
<g id="a_edge33_Node000029_Node000022"><a xlink:title=" ">
<path fill="none" stroke="#63b8ff" d="M1653.33,-126.9C1643.69,-125 1633.45,-123.15 1623.88,-121.75 1452.07,-96.63 1406.31,-113.26 1234.88,-85.75 1229.96,-84.96 1224.85,-84.01 1219.77,-82.97"/>
<polygon fill="#63b8ff" stroke="#63b8ff" points="1220.77,-79.61 1210.26,-80.93 1219.3,-86.45 1220.77,-79.61"/>
</a>
</g>
</g>
<!-- Node29&#45;&gt;Node24 -->
<g id="edge36_Node000029_Node000024" class="edge">
<title>Node29&#45;&gt;Node24</title>
<g id="a_edge36_Node000029_Node000024"><a xlink:title=" ">
<path fill="none" stroke="#63b8ff" d="M1651.77,-126.91C1642.59,-125.1 1632.92,-123.28 1623.88,-121.75 1508.42,-102.22 1478.12,-106.49 1362.88,-85.75 1358.21,-84.91 1353.37,-83.97 1348.54,-82.98"/>
<polygon fill="#63b8ff" stroke="#63b8ff" points="1349.34,-79.57 1338.83,-80.92 1347.89,-86.42 1349.34,-79.57"/>
</a>
</g>
</g>
<!-- Node30 -->
<g id="Node000030" class="node">
<title>Node30</title>
<g id="a_Node000030"><a xlink:title=" ">
<polygon fill="#e0e0e0" stroke="#999999" points="1623.88,-80.12 1505.88,-80.12 1505.88,-60.88 1623.88,-60.88 1623.88,-80.12"/>
<text text-anchor="middle" x="1564.88" y="-66.62" font-family="Helvetica,sans-Serif" font-size="10.00">mlir/IR/OwningOpRef.h</text>
</a>
</g>
</g>
<!-- Node29&#45;&gt;Node30 -->
<g id="edge35_Node000029_Node000030" class="edge">
<title>Node29&#45;&gt;Node30</title>
<g id="a_edge35_Node000029_Node000030"><a xlink:title=" ">
<path fill="none" stroke="#63b8ff" d="M1676.52,-126.9C1654.85,-116.14 1618.53,-98.12 1593.23,-85.57"/>
<polygon fill="#63b8ff" stroke="#63b8ff" points="1595,-82.54 1584.49,-81.23 1591.89,-88.81 1595,-82.54"/>
</a>
</g>
</g>
<!-- Node31 -->
<g id="Node000031" class="node">
<title>Node31</title>
<g id="a_Node000031"><a xlink:title=" ">
<polygon fill="#e0e0e0" stroke="#999999" points="1812.38,-80.12 1769.38,-80.12 1769.38,-60.88 1812.38,-60.88 1812.38,-80.12"/>
<text text-anchor="middle" x="1790.88" y="-66.62" font-family="Helvetica,sans-Serif" font-size="10.00">vector</text>
</a>
</g>
</g>
<!-- Node29&#45;&gt;Node31 -->
<g id="edge37_Node000029_Node000031" class="edge">
<title>Node29&#45;&gt;Node31</title>
<g id="a_edge37_Node000029_Node000031"><a xlink:title=" ">
<path fill="none" stroke="#63b8ff" d="M1708.22,-127.03C1723.61,-116.69 1749.17,-99.52 1767.8,-87"/>
<polygon fill="#63b8ff" stroke="#63b8ff" points="1769.73,-89.93 1776.07,-81.44 1765.82,-84.12 1769.73,-89.93"/>
</a>
</g>
</g>
<!-- Node32&#45;&gt;Node5 -->
<g id="edge45_Node000032_Node000005" class="edge">
<title>Node32&#45;&gt;Node5</title>
<g id="a_edge45_Node000032_Node000005"><a xlink:title=" ">
<path fill="none" stroke="#63b8ff" d="M1410.8,-126.9C1402.02,-124.97 1392.65,-123.12 1383.88,-121.75 1208.38,-94.39 1162.46,-104.77 985.88,-85.75 971.02,-84.15 955.1,-82.27 940.01,-80.4"/>
<polygon fill="#63b8ff" stroke="#63b8ff" points="940.52,-76.94 930.16,-79.17 939.65,-83.88 940.52,-76.94"/>
</a>
</g>
</g>
<!-- Node32&#45;&gt;Node11 -->
<g id="edge44_Node000032_Node000011" class="edge">
<title>Node32&#45;&gt;Node11</title>
<g id="a_edge44_Node000032_Node000011"><a xlink:title=" ">
<path fill="none" stroke="#63b8ff" d="M1411.84,-126.94C1402.76,-124.94 1393,-123.04 1383.88,-121.75 1129.47,-85.72 1063.07,-105.36 806.88,-85.75 775.07,-83.32 739.69,-80.14 710.58,-77.41"/>
<polygon fill="#63b8ff" stroke="#63b8ff" points="711.13,-73.95 700.85,-76.49 710.48,-80.92 711.13,-73.95"/>
</a>
</g>
</g>
<!-- Node32&#45;&gt;Node19 -->
<g id="edge43_Node000032_Node000019" class="edge">
<title>Node32&#45;&gt;Node19</title>
<g id="a_edge43_Node000032_Node000019"><a xlink:title=" ">
<path fill="none" stroke="#63b8ff" d="M1412.19,-126.91C1403.02,-124.89 1393.13,-122.98 1383.88,-121.75 1034.59,-75.28 943.36,-110.64 591.88,-85.75 569.73,-84.18 545.76,-82.06 523.69,-79.93"/>
<polygon fill="#63b8ff" stroke="#63b8ff" points="524.14,-76.46 513.85,-78.97 523.46,-83.42 524.14,-76.46"/>
</a>
</g>
</g>
<!-- Node32&#45;&gt;Node24 -->
<g id="edge48_Node000032_Node000024" class="edge">
<title>Node32&#45;&gt;Node24</title>
<g id="a_edge48_Node000032_Node000024"><a xlink:title=" ">
<path fill="none" stroke="#63b8ff" d="M1426.84,-126.9C1401.66,-116 1359.26,-97.64 1330.21,-85.07"/>
<polygon fill="#63b8ff" stroke="#63b8ff" points="1331.76,-81.92 1321.19,-81.16 1328.98,-88.34 1331.76,-81.92"/>
</a>
</g>
</g>
<!-- Node32&#45;&gt;Node33 -->
<g id="edge39_Node000032_Node000033" class="edge">
<title>Node32&#45;&gt;Node33</title>
<g id="a_edge39_Node000032_Node000033"><a xlink:title=" ">
<path fill="none" stroke="#63b8ff" d="M1483.02,-126.9C1526.96,-115.52 1602.27,-96.01 1650.78,-83.44"/>
<polygon fill="#63b8ff" stroke="#63b8ff" points="1651.64,-86.83 1660.44,-80.94 1649.88,-80.06 1651.64,-86.83"/>
</a>
</g>
</g>
<!-- Node37 -->
<g id="Node000037" class="node">
<title>Node37</title>
<g id="a_Node000037"><a xlink:title=" ">
<polygon fill="#e0e0e0" stroke="#999999" points="1102.62,-80.12 995.12,-80.12 995.12,-60.88 1102.62,-60.88 1102.62,-80.12"/>
<text text-anchor="middle" x="1048.88" y="-66.62" font-family="Helvetica,sans-Serif" font-size="10.00">llvm/ADT/ArrayRef.h</text>
</a>
</g>
</g>
<!-- Node32&#45;&gt;Node37 -->
<g id="edge46_Node000032_Node000037" class="edge">
<title>Node32&#45;&gt;Node37</title>
<g id="a_edge46_Node000032_Node000037"><a xlink:title=" ">
<path fill="none" stroke="#63b8ff" d="M1409.74,-126.93C1401.26,-125.08 1392.28,-123.24 1383.88,-121.75 1263.36,-100.43 1231.31,-107.48 1110.88,-85.75 1106.29,-84.92 1101.53,-83.98 1096.78,-82.99"/>
<polygon fill="#63b8ff" stroke="#63b8ff" points="1097.8,-79.62 1087.28,-80.91 1096.31,-86.46 1097.8,-79.62"/>
</a>
</g>
</g>
<!-- Node38 -->
<g id="Node000038" class="node">
<title>Node38</title>
<g id="a_Node000038"><a xlink:title=" ">
<polygon fill="#e0e0e0" stroke="#999999" points="1487.75,-80.12 1372,-80.12 1372,-60.88 1487.75,-60.88 1487.75,-80.12"/>
<text text-anchor="middle" x="1429.88" y="-66.62" font-family="Helvetica,sans-Serif" font-size="10.00">llvm/ADT/DenseMap.h</text>
</a>
</g>
</g>
<!-- Node32&#45;&gt;Node38 -->
<g id="edge47_Node000032_Node000038" class="edge">
<title>Node32&#45;&gt;Node38</title>
<g id="a_edge47_Node000032_Node000038"><a xlink:title=" ">
<path fill="none" stroke="#63b8ff" d="M1445.37,-127.03C1442.79,-117.79 1438.69,-103.08 1435.35,-91.13"/>
<polygon fill="#63b8ff" stroke="#63b8ff" points="1438.82,-90.54 1432.76,-81.85 1432.08,-92.42 1438.82,-90.54"/>
</a>
</g>
</g>
<!-- Node34 -->
<g id="Node000034" class="node">
<title>Node34</title>
<g id="a_Node000034"><a xlink:title=" ">
<polygon fill="#e0e0e0" stroke="#999999" points="1631.88,-19.25 1471.88,-19.25 1471.88,0 1631.88,0 1631.88,-19.25"/>
<text text-anchor="middle" x="1551.88" y="-5.75" font-family="Helvetica,sans-Serif" font-size="10.00">llvm/ADT/STLFunctionalExtras.h</text>
</a>
</g>
</g>
<!-- Node33&#45;&gt;Node34 -->
<g id="edge40_Node000033_Node000034" class="edge">
<title>Node33&#45;&gt;Node34</title>
<g id="a_edge40_Node000033_Node000034"><a xlink:title=" ">
<path fill="none" stroke="#63b8ff" d="M1674.54,-60.43C1650.52,-50.68 1612.09,-35.08 1584.65,-23.93"/>
<polygon fill="#63b8ff" stroke="#63b8ff" points="1585.99,-20.7 1575.4,-20.18 1583.35,-27.18 1585.99,-20.7"/>
</a>
</g>
</g>
<!-- Node35 -->
<g id="Node000035" class="node">
<title>Node35</title>
<g id="a_Node000035"><a xlink:title=" ">
<polygon fill="#e0e0e0" stroke="#999999" points="1743.88,-19.25 1649.88,-19.25 1649.88,0 1743.88,0 1743.88,-19.25"/>
<text text-anchor="middle" x="1696.88" y="-5.75" font-family="Helvetica,sans-Serif" font-size="10.00">llvm/ADT/Twine.h</text>
</a>
</g>
</g>
<!-- Node33&#45;&gt;Node35 -->
<g id="edge41_Node000033_Node000035" class="edge">
<title>Node33&#45;&gt;Node35</title>
<g id="a_edge41_Node000033_Node000035"><a xlink:title=" ">
<path fill="none" stroke="#63b8ff" d="M1696.88,-60.56C1696.88,-52.78 1696.88,-41.2 1696.88,-31.16"/>
<polygon fill="#63b8ff" stroke="#63b8ff" points="1700.38,-31.16 1696.88,-21.16 1693.38,-31.16 1700.38,-31.16"/>
</a>
</g>
</g>
<!-- Node36 -->
<g id="Node000036" class="node">
<title>Node36</title>
<g id="a_Node000036"><a xlink:title=" ">
<polygon fill="#e0e0e0" stroke="#999999" points="1903.5,-19.25 1762.25,-19.25 1762.25,0 1903.5,0 1903.5,-19.25"/>
<text text-anchor="middle" x="1832.88" y="-5.75" font-family="Helvetica,sans-Serif" font-size="10.00">llvm/Support/ErrorHandling.h</text>
</a>
</g>
</g>
<!-- Node33&#45;&gt;Node36 -->
<g id="edge42_Node000033_Node000036" class="edge">
<title>Node33&#45;&gt;Node36</title>
<g id="a_edge42_Node000033_Node000036"><a xlink:title=" ">
<path fill="none" stroke="#63b8ff" d="M1717.83,-60.43C1740.25,-50.72 1776.07,-35.21 1801.79,-24.08"/>
<polygon fill="#63b8ff" stroke="#63b8ff" points="1802.95,-27.39 1810.73,-20.21 1800.17,-20.97 1802.95,-27.39"/>
</a>
</g>
</g>
<!-- Node42&#45;&gt;Node11 -->
<g id="edge54_Node000042_Node000011" class="edge">
<title>Node42&#45;&gt;Node11</title>
<g id="a_edge54_Node000042_Node000011"><a xlink:title=" ">
<path fill="none" stroke="#63b8ff" d="M255.34,-260.16C263.14,-233.95 289.98,-156.37 342.88,-121.75 363.11,-108.51 505.26,-89.2 588.86,-78.8"/>
<polygon fill="#63b8ff" stroke="#63b8ff" points="589.25,-82.28 598.74,-77.58 588.39,-75.33 589.25,-82.28"/>
</a>
</g>
</g>
<!-- Node43 -->
<g id="Node000043" class="node">
<title>Node43</title>
<g id="a_Node000043"><a xlink:title=" ">
<polygon fill="#e0e0e0" stroke="#999999" points="224.75,-213.12 169,-213.12 169,-193.88 224.75,-193.88 224.75,-213.12"/>
<text text-anchor="middle" x="196.88" y="-199.62" font-family="Helvetica,sans-Serif" font-size="10.00">concepts</text>
</a>
</g>
</g>
<!-- Node42&#45;&gt;Node43 -->
<g id="edge55_Node000042_Node000043" class="edge">
<title>Node42&#45;&gt;Node43</title>
<g id="a_edge55_Node000042_Node000043"><a xlink:title=" ">
<path fill="none" stroke="#63b8ff" d="M245.09,-260.03C236.56,-250.21 222.68,-234.23 212,-221.92"/>
<polygon fill="#63b8ff" stroke="#63b8ff" points="214.79,-219.79 205.59,-214.54 209.5,-224.38 214.79,-219.79"/>
</a>
</g>
</g>
<!-- Node44&#45;&gt;Node6 -->
<g id="edge59_Node000044_Node000006" class="edge">
<title>Node44&#45;&gt;Node6</title>
<g id="a_edge59_Node000044_Node000006"><a xlink:title=" ">
<path fill="none" stroke="#63b8ff" d="M1652.03,-259.9C1605.79,-248.47 1526.38,-228.84 1475.55,-216.28"/>
<polygon fill="#63b8ff" stroke="#63b8ff" points="1476.55,-212.92 1466,-213.92 1474.87,-219.72 1476.55,-212.92"/>
</a>
</g>
</g>
<!-- Node44&#45;&gt;Node29 -->
<g id="edge58_Node000044_Node000029" class="edge">
<title>Node44&#45;&gt;Node29</title>
<g id="a_edge58_Node000044_Node000029"><a xlink:title=" ">
<path fill="none" stroke="#63b8ff" d="M1689.29,-260C1690.24,-239.15 1692.62,-187.14 1693.95,-158.22"/>
<polygon fill="#63b8ff" stroke="#63b8ff" points="1697.43,-158.73 1694.39,-148.58 1690.44,-158.41 1697.43,-158.73"/>
</a>
</g>
</g>
<!-- Node45 -->
<g id="Node000045" class="node">
<title>Node45</title>
<g id="a_Node000045"><a xlink:title=" ">
<polygon fill="#e0e0e0" stroke="#999999" points="1756.5,-213.12 1711.25,-213.12 1711.25,-193.88 1756.5,-193.88 1756.5,-213.12"/>
<text text-anchor="middle" x="1733.88" y="-199.62" font-family="Helvetica,sans-Serif" font-size="10.00">ranges</text>
</a>
</g>
</g>
<!-- Node44&#45;&gt;Node45 -->
<g id="edge60_Node000044_Node000045" class="edge">
<title>Node44&#45;&gt;Node45</title>
<g id="a_edge60_Node000044_Node000045"><a xlink:title=" ">
<path fill="none" stroke="#63b8ff" d="M1695.13,-260.03C1701.85,-250.4 1712.7,-234.85 1721.21,-222.65"/>
<polygon fill="#63b8ff" stroke="#63b8ff" points="1723.95,-224.84 1726.81,-214.63 1718.21,-220.83 1723.95,-224.84"/>
</a>
</g>
</g>
</g>
</svg>
