<?xml version="1.0" encoding="UTF-8" standalone="no"?>
<!DOCTYPE svg PUBLIC "-//W3C//DTD SVG 1.1//EN"
 "http://www.w3.org/Graphics/SVG/1.1/DTD/svg11.dtd">
<!-- Generated by graphviz version 12.2.1 (20241206.2353)
 -->
<!-- Title: lib/Dialect/Array/Util/ArrayTypeHelper.cpp Pages: 1 -->
<svg width="2000pt" height="305pt"
 viewBox="0.00 0.00 1999.88 304.50" xmlns="http://www.w3.org/2000/svg" xmlns:xlink="http://www.w3.org/1999/xlink">
<g id="graph0" class="graph" transform="scale(1 1) rotate(0) translate(4 300.5)">
<title>lib/Dialect/Array/Util/ArrayTypeHelper.cpp</title>
<!-- Node1 -->
<g id="Node000001" class="node">
<title>Node1</title>
<g id="a_Node000001"><a xlink:title="This file contains the implementation for array type helpers.">
<polygon fill="#999999" stroke="#666666" points="1368.88,-296.5 1259.12,-296.5 1259.12,-266 1368.88,-266 1368.88,-296.5"/>
<text text-anchor="start" x="1267.12" y="-283" font-family="Helvetica,sans-Serif" font-size="10.00">lib/Dialect/Array/Util</text>
<text text-anchor="middle" x="1314" y="-271.75" font-family="Helvetica,sans-Serif" font-size="10.00">/ArrayTypeHelper.cpp</text>
</a>
</g>
</g>
<!-- Node2 -->
<g id="Node000002" class="node">
<title>Node2</title>
<g id="a_Node000002"><a xlink:href="_array_type_helper_8h.html" target="_top" xlink:title=" ">
<polygon fill="white" stroke="#666666" points="1312.62,-230 1195.38,-230 1195.38,-199.5 1312.62,-199.5 1312.62,-230"/>
<text text-anchor="start" x="1203.38" y="-216.5" font-family="Helvetica,sans-Serif" font-size="10.00">llzk/Dialect/Array</text>
<text text-anchor="middle" x="1254" y="-205.25" font-family="Helvetica,sans-Serif" font-size="10.00">/Util/ArrayTypeHelper.h</text>
</a>
</g>
</g>
<!-- Node1&#45;&gt;Node2 -->
<g id="edge1_Node000001_Node000002" class="edge">
<title>Node1&#45;&gt;Node2</title>
<g id="a_edge1_Node000001_Node000002"><a xlink:title=" ">
<path fill="none" stroke="#63b8ff" d="M1300.39,-265.61C1292.94,-257.61 1283.56,-247.53 1275.19,-238.53"/>
<polygon fill="#63b8ff" stroke="#63b8ff" points="1277.97,-236.37 1268.59,-231.44 1272.84,-241.14 1277.97,-236.37"/>
</a>
</g>
</g>
<!-- Node8 -->
<g id="Node000008" class="node">
<title>Node8</title>
<g id="a_Node000008"><a xlink:title=" ">
<polygon fill="#e0e0e0" stroke="#999999" points="160,-24.88 0,-24.88 0,-5.63 160,-5.63 160,-24.88"/>
<text text-anchor="middle" x="80" y="-11.38" font-family="Helvetica,sans-Serif" font-size="10.00">llvm/ADT/STLFunctionalExtras.h</text>
</a>
</g>
</g>
<!-- Node1&#45;&gt;Node8 -->
<g id="edge37_Node000001_Node000008" class="edge">
<title>Node1&#45;&gt;Node8</title>
<g id="a_edge37_Node000001_Node000008"><a xlink:title=" ">
<path fill="none" stroke="#63b8ff" d="M1259,-278.6C1036.6,-271.42 211.56,-239.79 126,-163.5 89.1,-130.6 81.5,-68.6 80.13,-36.56"/>
<polygon fill="#63b8ff" stroke="#63b8ff" points="83.63,-36.61 79.89,-26.69 76.63,-36.77 83.63,-36.61"/>
</a>
</g>
</g>
<!-- Node16 -->
<g id="Node000016" class="node">
<title>Node16</title>
<g id="a_Node000016"><a xlink:title=" ">
<polygon fill="#e0e0e0" stroke="#999999" points="1180.62,-91.38 1087.38,-91.38 1087.38,-72.12 1180.62,-72.12 1180.62,-91.38"/>
<text text-anchor="middle" x="1134" y="-77.88" font-family="Helvetica,sans-Serif" font-size="10.00">llvm/ADT/APInt.h</text>
</a>
</g>
</g>
<!-- Node1&#45;&gt;Node16 -->
<g id="edge35_Node000001_Node000016" class="edge">
<title>Node1&#45;&gt;Node16</title>
<g id="a_edge35_Node000001_Node000016"><a xlink:title=" ">
<path fill="none" stroke="#63b8ff" d="M1258.73,-271.72C1200.19,-259.34 1111.08,-230.09 1073,-163.5 1066.27,-151.73 1067.22,-145.26 1073,-133 1079.98,-118.21 1093.67,-106.31 1106.32,-97.8"/>
<polygon fill="#63b8ff" stroke="#63b8ff" points="1108.17,-100.77 1114.81,-92.52 1104.47,-94.83 1108.17,-100.77"/>
</a>
</g>
</g>
<!-- Node25 -->
<g id="Node000025" class="node">
<title>Node25</title>
<g id="a_Node000025"><a xlink:href="_type_helper_8h.html" target="_top" xlink:title=" ">
<polygon fill="white" stroke="#666666" points="593.5,-224.38 484.5,-224.38 484.5,-205.12 593.5,-205.12 593.5,-224.38"/>
<text text-anchor="middle" x="539" y="-210.88" font-family="Helvetica,sans-Serif" font-size="10.00">llzk/Util/TypeHelper.h</text>
</a>
</g>
</g>
<!-- Node1&#45;&gt;Node25 -->
<g id="edge24_Node000001_Node000025" class="edge">
<title>Node1&#45;&gt;Node25</title>
<g id="a_edge24_Node000001_Node000025"><a xlink:title=" ">
<path fill="none" stroke="#63b8ff" d="M1258.89,-275.66C1119.86,-264.09 755.32,-233.75 605.13,-221.25"/>
<polygon fill="#63b8ff" stroke="#63b8ff" points="605.6,-217.78 595.34,-220.44 605.02,-224.76 605.6,-217.78"/>
</a>
</g>
</g>
<!-- Node31 -->
<g id="Node000031" class="node">
<title>Node31</title>
<g id="a_Node000031"><a xlink:title=" ">
<polygon fill="#e0e0e0" stroke="#999999" points="1419.38,-230 1330.62,-230 1330.62,-199.5 1419.38,-199.5 1419.38,-230"/>
<text text-anchor="start" x="1338.62" y="-216.5" font-family="Helvetica,sans-Serif" font-size="10.00">mlir/Dialect/Arith</text>
<text text-anchor="middle" x="1375" y="-205.25" font-family="Helvetica,sans-Serif" font-size="10.00">/IR/Arith.h</text>
</a>
</g>
</g>
<!-- Node1&#45;&gt;Node31 -->
<g id="edge32_Node000001_Node000031" class="edge">
<title>Node1&#45;&gt;Node31</title>
<g id="a_edge32_Node000001_Node000031"><a xlink:title=" ">
<path fill="none" stroke="#63b8ff" d="M1327.84,-265.61C1335.41,-257.61 1344.94,-247.53 1353.46,-238.53"/>
<polygon fill="#63b8ff" stroke="#63b8ff" points="1355.84,-241.1 1360.17,-231.43 1350.76,-236.29 1355.84,-241.1"/>
</a>
</g>
</g>
<!-- Node32 -->
<g id="Node000032" class="node">
<title>Node32</title>
<g id="a_Node000032"><a xlink:title=" ">
<polygon fill="#e0e0e0" stroke="#999999" points="1526.38,-230 1437.62,-230 1437.62,-199.5 1526.38,-199.5 1526.38,-230"/>
<text text-anchor="start" x="1445.62" y="-216.5" font-family="Helvetica,sans-Serif" font-size="10.00">mlir/Dialect/Utils</text>
<text text-anchor="middle" x="1482" y="-205.25" font-family="Helvetica,sans-Serif" font-size="10.00">/IndexingUtils.h</text>
</a>
</g>
</g>
<!-- Node1&#45;&gt;Node32 -->
<g id="edge33_Node000001_Node000032" class="edge">
<title>Node1&#45;&gt;Node32</title>
<g id="a_edge33_Node000001_Node000032"><a xlink:title=" ">
<path fill="none" stroke="#63b8ff" d="M1352.12,-265.61C1376.09,-256.41 1407.26,-244.45 1433.05,-234.54"/>
<polygon fill="#63b8ff" stroke="#63b8ff" points="1434.24,-237.83 1442.33,-230.98 1431.74,-231.3 1434.24,-237.83"/>
</a>
</g>
</g>
<!-- Node33 -->
<g id="Node000033" class="node">
<title>Node33</title>
<g id="a_Node000033"><a xlink:title=" ">
<polygon fill="#e0e0e0" stroke="#999999" points="1641.5,-224.38 1544.5,-224.38 1544.5,-205.12 1641.5,-205.12 1641.5,-224.38"/>
<text text-anchor="middle" x="1593" y="-210.88" font-family="Helvetica,sans-Serif" font-size="10.00">mlir/IR/Matchers.h</text>
</a>
</g>
</g>
<!-- Node1&#45;&gt;Node33 -->
<g id="edge34_Node000001_Node000033" class="edge">
<title>Node1&#45;&gt;Node33</title>
<g id="a_edge34_Node000001_Node000033"><a xlink:title=" ">
<path fill="none" stroke="#63b8ff" d="M1369.01,-268.02C1413.76,-258 1478.52,-243.36 1535,-230 1538.37,-229.2 1541.85,-228.37 1545.36,-227.53"/>
<polygon fill="#63b8ff" stroke="#63b8ff" points="1546.15,-230.93 1555.04,-225.17 1544.5,-224.13 1546.15,-230.93"/>
</a>
</g>
</g>
<!-- Node34 -->
<g id="Node000034" class="node">
<title>Node34</title>
<g id="a_Node000034"><a xlink:title=" ">
<polygon fill="#e0e0e0" stroke="#999999" points="1774.5,-224.38 1659.5,-224.38 1659.5,-205.12 1774.5,-205.12 1774.5,-224.38"/>
<text text-anchor="middle" x="1717" y="-210.88" font-family="Helvetica,sans-Serif" font-size="10.00">llvm/ADT/STLExtras.h</text>
</a>
</g>
</g>
<!-- Node1&#45;&gt;Node34 -->
<g id="edge36_Node000001_Node000034" class="edge">
<title>Node1&#45;&gt;Node34</title>
<g id="a_edge36_Node000001_Node000034"><a xlink:title=" ">
<path fill="none" stroke="#63b8ff" d="M1369.34,-273.11C1436.26,-264.23 1552.21,-248.01 1651,-230 1655.87,-229.11 1660.92,-228.13 1665.97,-227.11"/>
<polygon fill="#63b8ff" stroke="#63b8ff" points="1666.38,-230.6 1675.46,-225.14 1664.96,-223.74 1666.38,-230.6"/>
</a>
</g>
</g>
<!-- Node3 -->
<g id="Node000003" class="node">
<title>Node3</title>
<g id="a_Node000003"><a xlink:href="_array_2_i_r_2_types_8h.html" target="_top" xlink:title=" ">
<polygon fill="white" stroke="#666666" points="1025.5,-163.5 934.5,-163.5 934.5,-133 1025.5,-133 1025.5,-163.5"/>
<text text-anchor="start" x="942.5" y="-150" font-family="Helvetica,sans-Serif" font-size="10.00">llzk/Dialect/Array</text>
<text text-anchor="middle" x="980" y="-138.75" font-family="Helvetica,sans-Serif" font-size="10.00">/IR/Types.h</text>
</a>
</g>
</g>
<!-- Node2&#45;&gt;Node3 -->
<g id="edge2_Node000002_Node000003" class="edge">
<title>Node2&#45;&gt;Node3</title>
<g id="a_edge2_Node000002_Node000003"><a xlink:title=" ">
<path fill="none" stroke="#63b8ff" d="M1194.88,-199.83C1148.08,-188.82 1083.13,-173.53 1036.91,-162.65"/>
<polygon fill="#63b8ff" stroke="#63b8ff" points="1037.89,-159.28 1027.36,-160.4 1036.29,-166.1 1037.89,-159.28"/>
</a>
</g>
</g>
<!-- Node14 -->
<g id="Node000014" class="node">
<title>Node14</title>
<g id="a_Node000014"><a xlink:href="_attribute_helper_8h.html" target="_top" xlink:title=" ">
<polygon fill="white" stroke="#666666" points="1186.25,-163.5 1081.75,-163.5 1081.75,-133 1186.25,-133 1186.25,-163.5"/>
<text text-anchor="start" x="1089.75" y="-150" font-family="Helvetica,sans-Serif" font-size="10.00">llzk/Dialect/LLZK/IR</text>
<text text-anchor="middle" x="1134" y="-138.75" font-family="Helvetica,sans-Serif" font-size="10.00">/AttributeHelper.h</text>
</a>
</g>
</g>
<!-- Node2&#45;&gt;Node14 -->
<g id="edge13_Node000002_Node000014" class="edge">
<title>Node2&#45;&gt;Node14</title>
<g id="a_edge13_Node000002_Node000014"><a xlink:title=" ">
<path fill="none" stroke="#63b8ff" d="M1226.77,-199.11C1210.28,-190.25 1189.02,-178.82 1171.01,-169.14"/>
<polygon fill="#63b8ff" stroke="#63b8ff" points="1172.92,-166.2 1162.46,-164.54 1169.61,-172.36 1172.92,-166.2"/>
</a>
</g>
</g>
<!-- Node17 -->
<g id="Node000017" class="node">
<title>Node17</title>
<g id="a_Node000017"><a xlink:title=" ">
<polygon fill="#e0e0e0" stroke="#999999" points="1303.25,-157.88 1204.75,-157.88 1204.75,-138.62 1303.25,-138.62 1303.25,-157.88"/>
<text text-anchor="middle" x="1254" y="-144.38" font-family="Helvetica,sans-Serif" font-size="10.00">mlir/IR/Attributes.h</text>
</a>
</g>
</g>
<!-- Node2&#45;&gt;Node17 -->
<g id="edge16_Node000002_Node000017" class="edge">
<title>Node2&#45;&gt;Node17</title>
<g id="a_edge16_Node000002_Node000017"><a xlink:title=" ">
<path fill="none" stroke="#63b8ff" d="M1254,-199.11C1254,-190.33 1254,-179.02 1254,-169.4"/>
<polygon fill="#63b8ff" stroke="#63b8ff" points="1257.5,-169.59 1254,-159.59 1250.5,-169.59 1257.5,-169.59"/>
</a>
</g>
</g>
<!-- Node18 -->
<g id="Node000018" class="node">
<title>Node18</title>
<g id="a_Node000018"><a xlink:title=" ">
<polygon fill="#e0e0e0" stroke="#999999" points="1412.88,-157.88 1321.12,-157.88 1321.12,-138.62 1412.88,-138.62 1412.88,-157.88"/>
<text text-anchor="middle" x="1367" y="-144.38" font-family="Helvetica,sans-Serif" font-size="10.00">mlir/IR/Builders.h</text>
</a>
</g>
</g>
<!-- Node2&#45;&gt;Node18 -->
<g id="edge17_Node000002_Node000018" class="edge">
<title>Node2&#45;&gt;Node18</title>
<g id="a_edge17_Node000002_Node000018"><a xlink:title=" ">
<path fill="none" stroke="#63b8ff" d="M1279.64,-199.11C1298.13,-188.56 1322.97,-174.38 1341.43,-163.84"/>
<polygon fill="#63b8ff" stroke="#63b8ff" points="1342.95,-167.01 1349.9,-159.01 1339.48,-160.93 1342.95,-167.01"/>
</a>
</g>
</g>
<!-- Node19 -->
<g id="Node000019" class="node">
<title>Node19</title>
<g id="a_Node000019"><a xlink:title=" ">
<polygon fill="#e0e0e0" stroke="#999999" points="1540.88,-157.88 1431.12,-157.88 1431.12,-138.62 1540.88,-138.62 1540.88,-157.88"/>
<text text-anchor="middle" x="1486" y="-144.38" font-family="Helvetica,sans-Serif" font-size="10.00">mlir/IR/BuiltinTypes.h</text>
</a>
</g>
</g>
<!-- Node2&#45;&gt;Node19 -->
<g id="edge18_Node000002_Node000019" class="edge">
<title>Node2&#45;&gt;Node19</title>
<g id="a_edge18_Node000002_Node000019"><a xlink:title=" ">
<path fill="none" stroke="#63b8ff" d="M1306.93,-199.03C1347.95,-187.63 1404.09,-172.02 1442.51,-161.34"/>
<polygon fill="#63b8ff" stroke="#63b8ff" points="1443.18,-164.79 1451.88,-158.74 1441.31,-158.04 1443.18,-164.79"/>
</a>
</g>
</g>
<!-- Node20 -->
<g id="Node000020" class="node">
<title>Node20</title>
<g id="a_Node000020"><a xlink:title=" ">
<polygon fill="#e0e0e0" stroke="#999999" points="1652.62,-157.88 1559.38,-157.88 1559.38,-138.62 1652.62,-138.62 1652.62,-157.88"/>
<text text-anchor="middle" x="1606" y="-144.38" font-family="Helvetica,sans-Serif" font-size="10.00">mlir/IR/Location.h</text>
</a>
</g>
</g>
<!-- Node2&#45;&gt;Node20 -->
<g id="edge19_Node000002_Node000020" class="edge">
<title>Node2&#45;&gt;Node20</title>
<g id="a_edge19_Node000002_Node000020"><a xlink:title=" ">
<path fill="none" stroke="#63b8ff" d="M1312.94,-201.21C1316,-200.62 1319.03,-200.04 1322,-199.5 1422.9,-180.97 1449.52,-184.17 1550,-163.5 1553.75,-162.73 1557.63,-161.87 1561.51,-160.97"/>
<polygon fill="#63b8ff" stroke="#63b8ff" points="1561.99,-164.45 1570.89,-158.7 1560.34,-157.65 1561.99,-164.45"/>
</a>
</g>
</g>
<!-- Node21 -->
<g id="Node000021" class="node">
<title>Node21</title>
<g id="a_Node000021"><a xlink:title=" ">
<polygon fill="#e0e0e0" stroke="#999999" points="1785.5,-157.88 1670.5,-157.88 1670.5,-138.62 1785.5,-138.62 1785.5,-157.88"/>
<text text-anchor="middle" x="1728" y="-144.38" font-family="Helvetica,sans-Serif" font-size="10.00">mlir/IR/MLIRContext.h</text>
</a>
</g>
</g>
<!-- Node2&#45;&gt;Node21 -->
<g id="edge20_Node000002_Node000021" class="edge">
<title>Node2&#45;&gt;Node21</title>
<g id="a_edge20_Node000002_Node000021"><a xlink:title=" ">
<path fill="none" stroke="#63b8ff" d="M1312.9,-201.03C1315.98,-200.48 1319.02,-199.97 1322,-199.5 1472.11,-175.89 1511.96,-187.57 1662,-163.5 1667.29,-162.65 1672.8,-161.65 1678.27,-160.58"/>
<polygon fill="#63b8ff" stroke="#63b8ff" points="1678.81,-164.04 1687.91,-158.61 1677.41,-157.18 1678.81,-164.04"/>
</a>
</g>
</g>
<!-- Node22 -->
<g id="Node000022" class="node">
<title>Node22</title>
<g id="a_Node000022"><a xlink:title=" ">
<polygon fill="#e0e0e0" stroke="#999999" points="916.75,-157.88 809.25,-157.88 809.25,-138.62 916.75,-138.62 916.75,-157.88"/>
<text text-anchor="middle" x="863" y="-144.38" font-family="Helvetica,sans-Serif" font-size="10.00">llvm/ADT/ArrayRef.h</text>
</a>
</g>
</g>
<!-- Node2&#45;&gt;Node22 -->
<g id="edge21_Node000002_Node000022" class="edge">
<title>Node2&#45;&gt;Node22</title>
<g id="a_edge21_Node000002_Node000022"><a xlink:title=" ">
<path fill="none" stroke="#63b8ff" d="M1195.13,-206C1129.32,-197.05 1019.68,-181.25 926,-163.5 921.48,-162.64 916.78,-161.69 912.09,-160.71"/>
<polygon fill="#63b8ff" stroke="#63b8ff" points="913.22,-157.37 902.7,-158.67 911.73,-164.21 913.22,-157.37"/>
</a>
</g>
</g>
<!-- Node23 -->
<g id="Node000023" class="node">
<title>Node23</title>
<g id="a_Node000023"><a xlink:title=" ">
<polygon fill="#e0e0e0" stroke="#999999" points="1924.5,-157.88 1803.5,-157.88 1803.5,-138.62 1924.5,-138.62 1924.5,-157.88"/>
<text text-anchor="middle" x="1864" y="-144.38" font-family="Helvetica,sans-Serif" font-size="10.00">llvm/ADT/SmallVector.h</text>
</a>
</g>
</g>
<!-- Node2&#45;&gt;Node23 -->
<g id="edge22_Node000002_Node000023" class="edge">
<title>Node2&#45;&gt;Node23</title>
<g id="a_edge22_Node000002_Node000023"><a xlink:title=" ">
<path fill="none" stroke="#63b8ff" d="M1312.89,-200.92C1315.96,-200.4 1319.01,-199.92 1322,-199.5 1530.73,-169.82 1586.23,-192.88 1795,-163.5 1800.98,-162.66 1807.22,-161.61 1813.4,-160.47"/>
<polygon fill="#63b8ff" stroke="#63b8ff" points="1813.75,-163.97 1822.89,-158.62 1812.41,-157.1 1813.75,-163.97"/>
</a>
</g>
</g>
<!-- Node24 -->
<g id="Node000024" class="node">
<title>Node24</title>
<g id="a_Node000024"><a xlink:title=" ">
<polygon fill="#e0e0e0" stroke="#999999" points="1991.88,-157.88 1942.12,-157.88 1942.12,-138.62 1991.88,-138.62 1991.88,-157.88"/>
<text text-anchor="middle" x="1967" y="-144.38" font-family="Helvetica,sans-Serif" font-size="10.00">optional</text>
</a>
</g>
</g>
<!-- Node2&#45;&gt;Node24 -->
<g id="edge23_Node000002_Node000024" class="edge">
<title>Node2&#45;&gt;Node24</title>
<g id="a_edge23_Node000002_Node000024"><a xlink:title=" ">
<path fill="none" stroke="#63b8ff" d="M1312.88,-200.86C1315.96,-200.36 1319.01,-199.9 1322,-199.5 1592.08,-163.46 1668.9,-226.46 1934,-163.5 1935.59,-163.12 1937.21,-162.67 1938.82,-162.17"/>
<polygon fill="#63b8ff" stroke="#63b8ff" points="1939.68,-165.58 1947.82,-158.79 1937.22,-159.03 1939.68,-165.58"/>
</a>
</g>
</g>
<!-- Node4 -->
<g id="Node000004" class="node">
<title>Node4</title>
<g id="a_Node000004"><a xlink:href="_array_2_i_r_2_dialect_8h.html" target="_top" xlink:title=" ">
<polygon fill="white" stroke="#666666" points="809.5,-97 718.5,-97 718.5,-66.5 809.5,-66.5 809.5,-97"/>
<text text-anchor="start" x="726.5" y="-83.5" font-family="Helvetica,sans-Serif" font-size="10.00">llzk/Dialect/Array</text>
<text text-anchor="middle" x="764" y="-72.25" font-family="Helvetica,sans-Serif" font-size="10.00">/IR/Dialect.h</text>
</a>
</g>
</g>
<!-- Node3&#45;&gt;Node4 -->
<g id="edge3_Node000003_Node000004" class="edge">
<title>Node3&#45;&gt;Node4</title>
<g id="a_edge3_Node000003_Node000004"><a xlink:title=" ">
<path fill="none" stroke="#63b8ff" d="M934.19,-133.57C900.97,-123.65 855.84,-110.18 820.41,-99.59"/>
<polygon fill="#63b8ff" stroke="#63b8ff" points="821.78,-96.35 811.19,-96.84 819.77,-103.06 821.78,-96.35"/>
</a>
</g>
</g>
<!-- Node7 -->
<g id="Node000007" class="node">
<title>Node7</title>
<g id="a_Node000007"><a xlink:href="_error_helper_8h.html" target="_top" xlink:title=" ">
<polygon fill="white" stroke="#666666" points="303.5,-91.38 194.5,-91.38 194.5,-72.12 303.5,-72.12 303.5,-91.38"/>
<text text-anchor="middle" x="249" y="-77.88" font-family="Helvetica,sans-Serif" font-size="10.00">llzk/Util/ErrorHelper.h</text>
</a>
</g>
</g>
<!-- Node3&#45;&gt;Node7 -->
<g id="edge6_Node000003_Node000007" class="edge">
<title>Node3&#45;&gt;Node7</title>
<g id="a_edge6_Node000003_Node000007"><a xlink:title=" ">
<path fill="none" stroke="#63b8ff" d="M934.17,-134.54C931.42,-133.97 928.68,-133.45 926,-133 809.79,-113.52 462.08,-93.82 315.42,-86.12"/>
<polygon fill="#63b8ff" stroke="#63b8ff" points="315.63,-82.63 305.46,-85.6 315.27,-89.62 315.63,-82.63"/>
</a>
</g>
</g>
<!-- Node11 -->
<g id="Node000011" class="node">
<title>Node11</title>
<g id="a_Node000011"><a xlink:title=" ">
<polygon fill="#e0e0e0" stroke="#999999" points="960.88,-97 827.12,-97 827.12,-66.5 960.88,-66.5 960.88,-97"/>
<text text-anchor="start" x="835.12" y="-83.5" font-family="Helvetica,sans-Serif" font-size="10.00">mlir/Interfaces/MemorySlot</text>
<text text-anchor="middle" x="894" y="-72.25" font-family="Helvetica,sans-Serif" font-size="10.00">Interfaces.h</text>
</a>
</g>
</g>
<!-- Node3&#45;&gt;Node11 -->
<g id="edge10_Node000003_Node000011" class="edge">
<title>Node3&#45;&gt;Node11</title>
<g id="a_edge10_Node000003_Node000011"><a xlink:title=" ">
<path fill="none" stroke="#63b8ff" d="M960.49,-132.61C949.27,-124.2 934.98,-113.48 922.52,-104.14"/>
<polygon fill="#63b8ff" stroke="#63b8ff" points="924.75,-101.44 914.65,-98.24 920.55,-107.04 924.75,-101.44"/>
</a>
</g>
</g>
<!-- Node12 -->
<g id="Node000012" class="node">
<title>Node12</title>
<g id="a_Node000012"><a xlink:href="_array_2_i_r_2_ops_8h_8inc.html" target="_top" xlink:title=" ">
<polygon fill="white" stroke="#666666" points="1069.5,-97 978.5,-97 978.5,-66.5 1069.5,-66.5 1069.5,-97"/>
<text text-anchor="start" x="986.5" y="-83.5" font-family="Helvetica,sans-Serif" font-size="10.00">llzk/Dialect/Array</text>
<text text-anchor="middle" x="1024" y="-72.25" font-family="Helvetica,sans-Serif" font-size="10.00">/IR/Ops.h.inc</text>
</a>
</g>
</g>
<!-- Node3&#45;&gt;Node12 -->
<g id="edge11_Node000003_Node000012" class="edge">
<title>Node3&#45;&gt;Node12</title>
<g id="a_edge11_Node000003_Node000012"><a xlink:title=" ">
<path fill="none" stroke="#63b8ff" d="M989.98,-132.61C995.22,-124.94 1001.76,-115.36 1007.7,-106.65"/>
<polygon fill="#63b8ff" stroke="#63b8ff" points="1010.46,-108.81 1013.2,-98.58 1004.68,-104.87 1010.46,-108.81"/>
</a>
</g>
</g>
<!-- Node13 -->
<g id="Node000013" class="node">
<title>Node13</title>
<g id="a_Node000013"><a xlink:href="_array_2_i_r_2_types_8h_8inc.html" target="_top" xlink:title=" ">
<polygon fill="white" stroke="#666666" points="700.5,-97 609.5,-97 609.5,-66.5 700.5,-66.5 700.5,-97"/>
<text text-anchor="start" x="617.5" y="-83.5" font-family="Helvetica,sans-Serif" font-size="10.00">llzk/Dialect/Array</text>
<text text-anchor="middle" x="655" y="-72.25" font-family="Helvetica,sans-Serif" font-size="10.00">/IR/Types.h.inc</text>
</a>
</g>
</g>
<!-- Node3&#45;&gt;Node13 -->
<g id="edge12_Node000003_Node000013" class="edge">
<title>Node3&#45;&gt;Node13</title>
<g id="a_edge12_Node000003_Node000013"><a xlink:title=" ">
<path fill="none" stroke="#63b8ff" d="M934.11,-134.83C931.37,-134.18 928.65,-133.57 926,-133 833.96,-113.27 806.6,-117.16 712.12,-97.55"/>
<polygon fill="#63b8ff" stroke="#63b8ff" points="712.88,-94.13 702.37,-95.48 711.43,-100.98 712.88,-94.13"/>
</a>
</g>
</g>
<!-- Node5 -->
<g id="Node000005" class="node">
<title>Node5</title>
<g id="a_Node000005"><a xlink:title=" ">
<polygon fill="#e0e0e0" stroke="#999999" points="871.75,-24.88 770.25,-24.88 770.25,-5.63 871.75,-5.63 871.75,-24.88"/>
<text text-anchor="middle" x="821" y="-11.38" font-family="Helvetica,sans-Serif" font-size="10.00">mlir/IR/BuiltinOps.h</text>
</a>
</g>
</g>
<!-- Node4&#45;&gt;Node5 -->
<g id="edge4_Node000004_Node000005" class="edge">
<title>Node4&#45;&gt;Node5</title>
<g id="a_edge4_Node000004_Node000005"><a xlink:title=" ">
<path fill="none" stroke="#63b8ff" d="M776.93,-66.11C785.48,-56.44 796.73,-43.71 805.72,-33.54"/>
<polygon fill="#63b8ff" stroke="#63b8ff" points="808.2,-36.02 812.2,-26.21 802.96,-31.38 808.2,-36.02"/>
</a>
</g>
</g>
<!-- Node6 -->
<g id="Node000006" class="node">
<title>Node6</title>
<g id="a_Node000006"><a xlink:href="_array_2_i_r_2_dialect_8h_8inc.html" target="_top" xlink:title=" ">
<polygon fill="white" stroke="#666666" points="752.5,-30.5 661.5,-30.5 661.5,0 752.5,0 752.5,-30.5"/>
<text text-anchor="start" x="669.5" y="-17" font-family="Helvetica,sans-Serif" font-size="10.00">llzk/Dialect/Array</text>
<text text-anchor="middle" x="707" y="-5.75" font-family="Helvetica,sans-Serif" font-size="10.00">/IR/Dialect.h.inc</text>
</a>
</g>
</g>
<!-- Node4&#45;&gt;Node6 -->
<g id="edge5_Node000004_Node000006" class="edge">
<title>Node4&#45;&gt;Node6</title>
<g id="a_edge5_Node000004_Node000006"><a xlink:title=" ">
<path fill="none" stroke="#63b8ff" d="M751.07,-66.11C744.07,-58.2 735.27,-48.24 727.37,-39.3"/>
<polygon fill="#63b8ff" stroke="#63b8ff" points="730.13,-37.14 720.89,-31.96 724.88,-41.77 730.13,-37.14"/>
</a>
</g>
</g>
<!-- Node7&#45;&gt;Node8 -->
<g id="edge7_Node000007_Node000008" class="edge">
<title>Node7&#45;&gt;Node8</title>
<g id="a_edge7_Node000007_Node000008"><a xlink:title=" ">
<path fill="none" stroke="#63b8ff" d="M225.14,-71.65C196.21,-60.6 147.21,-41.9 114.25,-29.32"/>
<polygon fill="#63b8ff" stroke="#63b8ff" points="115.74,-26.14 105.15,-25.85 113.24,-32.68 115.74,-26.14"/>
</a>
</g>
</g>
<!-- Node9 -->
<g id="Node000009" class="node">
<title>Node9</title>
<g id="a_Node000009"><a xlink:title=" ">
<polygon fill="#e0e0e0" stroke="#999999" points="432,-24.88 338,-24.88 338,-5.63 432,-5.63 432,-24.88"/>
<text text-anchor="middle" x="385" y="-11.38" font-family="Helvetica,sans-Serif" font-size="10.00">llvm/ADT/Twine.h</text>
</a>
</g>
</g>
<!-- Node7&#45;&gt;Node9 -->
<g id="edge8_Node000007_Node000009" class="edge">
<title>Node7&#45;&gt;Node9</title>
<g id="a_edge8_Node000007_Node000009"><a xlink:title=" ">
<path fill="none" stroke="#63b8ff" d="M268.2,-71.65C290.98,-60.84 329.2,-42.71 355.69,-30.15"/>
<polygon fill="#63b8ff" stroke="#63b8ff" points="357,-33.4 364.53,-25.96 354,-27.08 357,-33.4"/>
</a>
</g>
</g>
<!-- Node10 -->
<g id="Node000010" class="node">
<title>Node10</title>
<g id="a_Node000010"><a xlink:title=" ">
<polygon fill="#e0e0e0" stroke="#999999" points="319.62,-24.88 178.38,-24.88 178.38,-5.63 319.62,-5.63 319.62,-24.88"/>
<text text-anchor="middle" x="249" y="-11.38" font-family="Helvetica,sans-Serif" font-size="10.00">llvm/Support/ErrorHandling.h</text>
</a>
</g>
</g>
<!-- Node7&#45;&gt;Node10 -->
<g id="edge9_Node000007_Node000010" class="edge">
<title>Node7&#45;&gt;Node10</title>
<g id="a_edge9_Node000007_Node000010"><a xlink:title=" ">
<path fill="none" stroke="#63b8ff" d="M249,-71.78C249,-62.73 249,-48.45 249,-36.63"/>
<polygon fill="#63b8ff" stroke="#63b8ff" points="252.5,-36.66 249,-26.66 245.5,-36.66 252.5,-36.66"/>
</a>
</g>
</g>
<!-- Node15 -->
<g id="Node000015" class="node">
<title>Node15</title>
<g id="a_Node000015"><a xlink:title=" ">
<polygon fill="#e0e0e0" stroke="#999999" points="1353,-91.38 1199,-91.38 1199,-72.12 1353,-72.12 1353,-91.38"/>
<text text-anchor="middle" x="1276" y="-77.88" font-family="Helvetica,sans-Serif" font-size="10.00">mlir/IR/DialectImplementation.h</text>
</a>
</g>
</g>
<!-- Node14&#45;&gt;Node15 -->
<g id="edge14_Node000014_Node000015" class="edge">
<title>Node14&#45;&gt;Node15</title>
<g id="a_edge14_Node000014_Node000015"><a xlink:title=" ">
<path fill="none" stroke="#63b8ff" d="M1166.22,-132.61C1190.1,-121.77 1222.41,-107.09 1245.8,-96.47"/>
<polygon fill="#63b8ff" stroke="#63b8ff" points="1247.13,-99.71 1254.79,-92.39 1244.23,-93.33 1247.13,-99.71"/>
</a>
</g>
</g>
<!-- Node14&#45;&gt;Node16 -->
<g id="edge15_Node000014_Node000016" class="edge">
<title>Node14&#45;&gt;Node16</title>
<g id="a_edge15_Node000014_Node000016"><a xlink:title=" ">
<path fill="none" stroke="#63b8ff" d="M1134,-132.61C1134,-123.83 1134,-112.52 1134,-102.9"/>
<polygon fill="#63b8ff" stroke="#63b8ff" points="1137.5,-103.09 1134,-93.09 1130.5,-103.09 1137.5,-103.09"/>
</a>
</g>
</g>
<!-- Node25&#45;&gt;Node7 -->
<g id="edge25_Node000025_Node000007" class="edge">
<title>Node25&#45;&gt;Node7</title>
<g id="a_edge25_Node000025_Node000007"><a xlink:title=" ">
<path fill="none" stroke="#63b8ff" d="M484.06,-210.86C379.36,-204.79 159.6,-189.11 137,-163.5 111.15,-134.22 163.58,-109.5 205.11,-95.4"/>
<polygon fill="#63b8ff" stroke="#63b8ff" points="206.06,-98.77 214.48,-92.34 203.89,-92.11 206.06,-98.77"/>
</a>
</g>
</g>
<!-- Node25&#45;&gt;Node22 -->
<g id="edge29_Node000025_Node000022" class="edge">
<title>Node25&#45;&gt;Node22</title>
<g id="a_edge29_Node000025_Node000022"><a xlink:title=" ">
<path fill="none" stroke="#63b8ff" d="M588.65,-204.68C641.22,-194.97 726.61,-178.86 800,-163.5 804.08,-162.65 808.31,-161.74 812.55,-160.81"/>
<polygon fill="#63b8ff" stroke="#63b8ff" points="813.24,-164.24 822.25,-158.67 811.72,-157.41 813.24,-164.24"/>
</a>
</g>
</g>
<!-- Node26 -->
<g id="Node000026" class="node">
<title>Node26</title>
<g id="a_Node000026"><a xlink:title=" ">
<polygon fill="#e0e0e0" stroke="#999999" points="282,-157.88 146,-157.88 146,-138.62 282,-138.62 282,-157.88"/>
<text text-anchor="middle" x="214" y="-144.38" font-family="Helvetica,sans-Serif" font-size="10.00">mlir/IR/OpImplementation.h</text>
</a>
</g>
</g>
<!-- Node25&#45;&gt;Node26 -->
<g id="edge26_Node000025_Node000026" class="edge">
<title>Node25&#45;&gt;Node26</title>
<g id="a_edge26_Node000025_Node000026"><a xlink:title=" ">
<path fill="none" stroke="#63b8ff" d="M493.12,-204.65C434.77,-193.07 334.02,-173.07 270.86,-160.53"/>
<polygon fill="#63b8ff" stroke="#63b8ff" points="271.88,-157.17 261.39,-158.65 270.52,-164.03 271.88,-157.17"/>
</a>
</g>
</g>
<!-- Node27 -->
<g id="Node000027" class="node">
<title>Node27</title>
<g id="a_Node000027"><a xlink:title=" ">
<polygon fill="#e0e0e0" stroke="#999999" points="398.25,-157.88 299.75,-157.88 299.75,-138.62 398.25,-138.62 398.25,-157.88"/>
<text text-anchor="middle" x="349" y="-144.38" font-family="Helvetica,sans-Serif" font-size="10.00">mlir/IR/Operation.h</text>
</a>
</g>
</g>
<!-- Node25&#45;&gt;Node27 -->
<g id="edge27_Node000025_Node000027" class="edge">
<title>Node25&#45;&gt;Node27</title>
<g id="a_edge27_Node000025_Node000027"><a xlink:title=" ">
<path fill="none" stroke="#63b8ff" d="M512.18,-204.65C479.36,-193.51 423.61,-174.58 386.54,-161.99"/>
<polygon fill="#63b8ff" stroke="#63b8ff" points="387.71,-158.7 377.12,-158.79 385.46,-165.32 387.71,-158.7"/>
</a>
</g>
</g>
<!-- Node28 -->
<g id="Node000028" class="node">
<title>Node28</title>
<g id="a_Node000028"><a xlink:title=" ">
<polygon fill="#e0e0e0" stroke="#999999" points="529.38,-157.88 416.62,-157.88 416.62,-138.62 529.38,-138.62 529.38,-157.88"/>
<text text-anchor="middle" x="473" y="-144.38" font-family="Helvetica,sans-Serif" font-size="10.00">mlir/IR/SymbolTable.h</text>
</a>
</g>
</g>
<!-- Node25&#45;&gt;Node28 -->
<g id="edge28_Node000025_Node000028" class="edge">
<title>Node25&#45;&gt;Node28</title>
<g id="a_edge28_Node000025_Node000028"><a xlink:title=" ">
<path fill="none" stroke="#63b8ff" d="M529.82,-204.78C519.58,-194.77 502.77,-178.35 490.09,-165.95"/>
<polygon fill="#63b8ff" stroke="#63b8ff" points="492.78,-163.69 483.18,-159.2 487.89,-168.69 492.78,-163.69"/>
</a>
</g>
</g>
<!-- Node29 -->
<g id="Node000029" class="node">
<title>Node29</title>
<g id="a_Node000029"><a xlink:title=" ">
<polygon fill="#e0e0e0" stroke="#999999" points="662.88,-157.88 547.12,-157.88 547.12,-138.62 662.88,-138.62 662.88,-157.88"/>
<text text-anchor="middle" x="605" y="-144.38" font-family="Helvetica,sans-Serif" font-size="10.00">llvm/ADT/DenseMap.h</text>
</a>
</g>
</g>
<!-- Node25&#45;&gt;Node29 -->
<g id="edge30_Node000025_Node000029" class="edge">
<title>Node25&#45;&gt;Node29</title>
<g id="a_edge30_Node000025_Node000029"><a xlink:title=" ">
<path fill="none" stroke="#63b8ff" d="M548.18,-204.78C558.42,-194.77 575.23,-178.35 587.91,-165.95"/>
<polygon fill="#63b8ff" stroke="#63b8ff" points="590.11,-168.69 594.82,-159.2 585.22,-163.69 590.11,-168.69"/>
</a>
</g>
</g>
<!-- Node30 -->
<g id="Node000030" class="node">
<title>Node30</title>
<g id="a_Node000030"><a xlink:title=" ">
<polygon fill="#e0e0e0" stroke="#999999" points="790.88,-157.88 681.12,-157.88 681.12,-138.62 790.88,-138.62 790.88,-157.88"/>
<text text-anchor="middle" x="736" y="-144.38" font-family="Helvetica,sans-Serif" font-size="10.00">llvm/ADT/StringRef.h</text>
</a>
</g>
</g>
<!-- Node25&#45;&gt;Node30 -->
<g id="edge31_Node000025_Node000030" class="edge">
<title>Node25&#45;&gt;Node30</title>
<g id="a_edge31_Node000025_Node000030"><a xlink:title=" ">
<path fill="none" stroke="#63b8ff" d="M566.81,-204.65C600.98,-193.46 659.14,-174.41 697.57,-161.83"/>
<polygon fill="#63b8ff" stroke="#63b8ff" points="698.48,-165.22 706.9,-158.78 696.3,-158.56 698.48,-165.22"/>
</a>
</g>
</g>
</g>
</svg>
