<?xml version="1.0" encoding="UTF-8" standalone="no"?>
<!DOCTYPE svg PUBLIC "-//W3C//DTD SVG 1.1//EN"
 "http://www.w3.org/Graphics/SVG/1.1/DTD/svg11.dtd">
<!-- Generated by graphviz version 12.2.1 (20241206.2353)
 -->
<!-- Title: lib/Dialect/Array/IR/Types.cpp Pages: 1 -->
<svg width="2432pt" height="305pt"
 viewBox="0.00 0.00 2432.38 304.50" xmlns="http://www.w3.org/2000/svg" xmlns:xlink="http://www.w3.org/1999/xlink">
<g id="graph0" class="graph" transform="scale(1 1) rotate(0) translate(4 300.5)">
<title>lib/Dialect/Array/IR/Types.cpp</title>
<!-- Node1 -->
<g id="Node000001" class="node">
<title>Node1</title>
<g id="a_Node000001"><a xlink:title=" ">
<polygon fill="#999999" stroke="#666666" points="857.38,-296.5 758.12,-296.5 758.12,-266 857.38,-266 857.38,-296.5"/>
<text text-anchor="start" x="766.12" y="-283" font-family="Helvetica,sans-Serif" font-size="10.00">lib/Dialect/Array/IR</text>
<text text-anchor="middle" x="807.75" y="-271.75" font-family="Helvetica,sans-Serif" font-size="10.00">/Types.cpp</text>
</a>
</g>
</g>
<!-- Node2 -->
<g id="Node000002" class="node">
<title>Node2</title>
<g id="a_Node000002"><a xlink:href="_array_2_i_r_2_ops_8h.html" target="_top" xlink:title=" ">
<polygon fill="white" stroke="#666666" points="621.25,-230 530.25,-230 530.25,-199.5 621.25,-199.5 621.25,-230"/>
<text text-anchor="start" x="538.25" y="-216.5" font-family="Helvetica,sans-Serif" font-size="10.00">llzk/Dialect/Array</text>
<text text-anchor="middle" x="575.75" y="-205.25" font-family="Helvetica,sans-Serif" font-size="10.00">/IR/Ops.h</text>
</a>
</g>
</g>
<!-- Node1&#45;&gt;Node2 -->
<g id="edge1_Node000001_Node000002" class="edge">
<title>Node1&#45;&gt;Node2</title>
<g id="a_edge1_Node000001_Node000002"><a xlink:title=" ">
<path fill="none" stroke="#63b8ff" d="M757.7,-266.33C720.84,-256.09 670.68,-242.14 632.36,-231.49"/>
<polygon fill="#63b8ff" stroke="#63b8ff" points="633.42,-228.15 622.84,-228.84 631.54,-234.89 633.42,-228.15"/>
</a>
</g>
</g>
<!-- Node6 -->
<g id="Node000006" class="node">
<title>Node6</title>
<g id="a_Node000006"><a xlink:href="_array_2_i_r_2_types_8h.html" target="_top" xlink:title=" ">
<polygon fill="white" stroke="#666666" points="658.25,-163.5 567.25,-163.5 567.25,-133 658.25,-133 658.25,-163.5"/>
<text text-anchor="start" x="575.25" y="-150" font-family="Helvetica,sans-Serif" font-size="10.00">llzk/Dialect/Array</text>
<text text-anchor="middle" x="612.75" y="-138.75" font-family="Helvetica,sans-Serif" font-size="10.00">/IR/Types.h</text>
</a>
</g>
</g>
<!-- Node1&#45;&gt;Node6 -->
<g id="edge38_Node000001_Node000006" class="edge">
<title>Node1&#45;&gt;Node6</title>
<g id="a_edge38_Node000001_Node000006"><a xlink:title=" ">
<path fill="none" stroke="#63b8ff" d="M786.14,-265.73C751.58,-242.52 683.75,-196.95 643.94,-170.2"/>
<polygon fill="#63b8ff" stroke="#63b8ff" points="645.97,-167.35 635.72,-164.68 642.07,-173.16 645.97,-167.35"/>
</a>
</g>
</g>
<!-- Node25 -->
<g id="Node000025" class="node">
<title>Node25</title>
<g id="a_Node000025"><a xlink:href="_type_helper_8h.html" target="_top" xlink:title=" ">
<polygon fill="white" stroke="#666666" points="1354.25,-157.88 1245.25,-157.88 1245.25,-138.62 1354.25,-138.62 1354.25,-157.88"/>
<text text-anchor="middle" x="1299.75" y="-144.38" font-family="Helvetica,sans-Serif" font-size="10.00">llzk/Util/TypeHelper.h</text>
</a>
</g>
</g>
<!-- Node1&#45;&gt;Node25 -->
<g id="edge52_Node000001_Node000025" class="edge">
<title>Node1&#45;&gt;Node25</title>
<g id="a_edge52_Node000001_Node000025"><a xlink:title=" ">
<path fill="none" stroke="#63b8ff" d="M857.63,-266.97C953.67,-241.4 1162.86,-185.7 1254.83,-161.21"/>
<polygon fill="#63b8ff" stroke="#63b8ff" points="1255.49,-164.66 1264.25,-158.7 1253.69,-157.89 1255.49,-164.66"/>
</a>
</g>
</g>
<!-- Node31 -->
<g id="Node000031" class="node">
<title>Node31</title>
<g id="a_Node000031"><a xlink:href="_array_type_helper_8h.html" target="_top" xlink:title=" ">
<polygon fill="white" stroke="#666666" points="1956.38,-230 1839.12,-230 1839.12,-199.5 1956.38,-199.5 1956.38,-230"/>
<text text-anchor="start" x="1847.12" y="-216.5" font-family="Helvetica,sans-Serif" font-size="10.00">llzk/Dialect/Array</text>
<text text-anchor="middle" x="1897.75" y="-205.25" font-family="Helvetica,sans-Serif" font-size="10.00">/Util/ArrayTypeHelper.h</text>
</a>
</g>
</g>
<!-- Node1&#45;&gt;Node31 -->
<g id="edge39_Node000001_Node000031" class="edge">
<title>Node1&#45;&gt;Node31</title>
<g id="a_edge39_Node000001_Node000031"><a xlink:title=" ">
<path fill="none" stroke="#63b8ff" d="M857.78,-277.29C1033.51,-266.89 1622.94,-232.01 1827.29,-219.92"/>
<polygon fill="#63b8ff" stroke="#63b8ff" points="1827.46,-223.42 1837.23,-219.33 1827.04,-216.43 1827.46,-223.42"/>
</a>
</g>
</g>
<!-- Node3 -->
<g id="Node000003" class="node">
<title>Node3</title>
<g id="a_Node000003"><a xlink:href="_array_2_i_r_2_dialect_8h.html" target="_top" xlink:title=" ">
<polygon fill="white" stroke="#666666" points="153.25,-97 62.25,-97 62.25,-66.5 153.25,-66.5 153.25,-97"/>
<text text-anchor="start" x="70.25" y="-83.5" font-family="Helvetica,sans-Serif" font-size="10.00">llzk/Dialect/Array</text>
<text text-anchor="middle" x="107.75" y="-72.25" font-family="Helvetica,sans-Serif" font-size="10.00">/IR/Dialect.h</text>
</a>
</g>
</g>
<!-- Node2&#45;&gt;Node3 -->
<g id="edge2_Node000002_Node000003" class="edge">
<title>Node2&#45;&gt;Node3</title>
<g id="a_edge2_Node000002_Node000003"><a xlink:title=" ">
<path fill="none" stroke="#63b8ff" d="M557.37,-199.07C545.15,-189.19 528.81,-175.77 514.75,-163.5 499.7,-150.37 499.91,-141.31 481.75,-133 354.91,-74.97 304.98,-120.87 164.75,-97.32"/>
<polygon fill="#63b8ff" stroke="#63b8ff" points="165.55,-93.91 155.09,-95.6 164.32,-100.8 165.55,-93.91"/>
</a>
</g>
</g>
<!-- Node2&#45;&gt;Node6 -->
<g id="edge5_Node000002_Node000006" class="edge">
<title>Node2&#45;&gt;Node6</title>
<g id="a_edge5_Node000002_Node000006"><a xlink:title=" ">
<path fill="none" stroke="#63b8ff" d="M584.15,-199.11C588.45,-191.61 593.81,-182.27 598.72,-173.71"/>
<polygon fill="#63b8ff" stroke="#63b8ff" points="601.69,-175.56 603.63,-165.14 595.62,-172.07 601.69,-175.56"/>
</a>
</g>
</g>
<!-- Node12 -->
<g id="Node000012" class="node">
<title>Node12</title>
<g id="a_Node000012"><a xlink:href="_array_2_i_r_2_ops_8h_8inc.html" target="_top" xlink:title=" ">
<polygon fill="white" stroke="#666666" points="262.25,-97 171.25,-97 171.25,-66.5 262.25,-66.5 262.25,-97"/>
<text text-anchor="start" x="179.25" y="-83.5" font-family="Helvetica,sans-Serif" font-size="10.00">llzk/Dialect/Array</text>
<text text-anchor="middle" x="216.75" y="-72.25" font-family="Helvetica,sans-Serif" font-size="10.00">/IR/Ops.h.inc</text>
</a>
</g>
</g>
<!-- Node2&#45;&gt;Node12 -->
<g id="edge37_Node000002_Node000012" class="edge">
<title>Node2&#45;&gt;Node12</title>
<g id="a_edge37_Node000002_Node000012"><a xlink:title=" ">
<path fill="none" stroke="#63b8ff" d="M569.08,-199C559.78,-180.29 541.05,-148.59 514.75,-133 423.59,-78.95 381,-116.34 273.89,-97.39"/>
<polygon fill="#63b8ff" stroke="#63b8ff" points="274.59,-93.96 264.11,-95.51 273.27,-100.83 274.59,-93.96"/>
</a>
</g>
</g>
<!-- Node14 -->
<g id="Node000014" class="node">
<title>Node14</title>
<g id="a_Node000014"><a xlink:href="_op_helpers_8h.html" target="_top" xlink:title=" ">
<polygon fill="white" stroke="#666666" points="1038,-163.5 939.5,-163.5 939.5,-133 1038,-133 1038,-163.5"/>
<text text-anchor="start" x="947.5" y="-150" font-family="Helvetica,sans-Serif" font-size="10.00">llzk/Dialect/Shared</text>
<text text-anchor="middle" x="988.75" y="-138.75" font-family="Helvetica,sans-Serif" font-size="10.00">/OpHelpers.h</text>
</a>
</g>
</g>
<!-- Node2&#45;&gt;Node14 -->
<g id="edge14_Node000002_Node000014" class="edge">
<title>Node2&#45;&gt;Node14</title>
<g id="a_edge14_Node000002_Node000014"><a xlink:title=" ">
<path fill="none" stroke="#63b8ff" d="M621.53,-206.6C696.24,-194.93 844.43,-171.79 927.91,-158.75"/>
<polygon fill="#63b8ff" stroke="#63b8ff" points="928.41,-162.22 937.75,-157.21 927.33,-155.3 928.41,-162.22"/>
</a>
</g>
</g>
<!-- Node2&#45;&gt;Node25 -->
<g id="edge27_Node000002_Node000025" class="edge">
<title>Node2&#45;&gt;Node25</title>
<g id="a_edge27_Node000002_Node000025"><a xlink:title=" ">
<path fill="none" stroke="#63b8ff" d="M621.59,-209.67C745.67,-198.61 1088.51,-168.07 1233.56,-155.15"/>
<polygon fill="#63b8ff" stroke="#63b8ff" points="1233.75,-158.64 1243.4,-154.27 1233.12,-151.67 1233.75,-158.64"/>
</a>
</g>
</g>
<!-- Node29 -->
<g id="Node000029" class="node">
<title>Node29</title>
<g id="a_Node000029"><a xlink:title=" ">
<polygon fill="#e0e0e0" stroke="#999999" points="342.62,-163.5 220.88,-163.5 220.88,-133 342.62,-133 342.62,-163.5"/>
<text text-anchor="start" x="228.88" y="-150" font-family="Helvetica,sans-Serif" font-size="10.00">mlir/Interfaces/InferType</text>
<text text-anchor="middle" x="281.75" y="-138.75" font-family="Helvetica,sans-Serif" font-size="10.00">OpInterface.h</text>
</a>
</g>
</g>
<!-- Node2&#45;&gt;Node29 -->
<g id="edge35_Node000002_Node000029" class="edge">
<title>Node2&#45;&gt;Node29</title>
<g id="a_edge35_Node000002_Node000029"><a xlink:title=" ">
<path fill="none" stroke="#63b8ff" d="M529.81,-203.67C482.75,-193.35 408.9,-177.14 354,-165.1"/>
<polygon fill="#63b8ff" stroke="#63b8ff" points="354.93,-161.72 344.41,-163 353.43,-168.56 354.93,-161.72"/>
</a>
</g>
</g>
<!-- Node30 -->
<g id="Node000030" class="node">
<title>Node30</title>
<g id="a_Node000030"><a xlink:href="_array_2_i_r_2_op_interfaces_8h_8inc.html" target="_top" xlink:title=" ">
<polygon fill="white" stroke="#666666" points="473.12,-163.5 360.38,-163.5 360.38,-133 473.12,-133 473.12,-163.5"/>
<text text-anchor="start" x="368.38" y="-150" font-family="Helvetica,sans-Serif" font-size="10.00">llzk/Dialect/Array</text>
<text text-anchor="middle" x="416.75" y="-138.75" font-family="Helvetica,sans-Serif" font-size="10.00">/IR/OpInterfaces.h.inc</text>
</a>
</g>
</g>
<!-- Node2&#45;&gt;Node30 -->
<g id="edge36_Node000002_Node000030" class="edge">
<title>Node2&#45;&gt;Node30</title>
<g id="a_edge36_Node000002_Node000030"><a xlink:title=" ">
<path fill="none" stroke="#63b8ff" d="M539.67,-199.11C517.08,-189.95 487.75,-178.05 463.4,-168.18"/>
<polygon fill="#63b8ff" stroke="#63b8ff" points="464.95,-165.02 454.36,-164.51 462.32,-171.51 464.95,-165.02"/>
</a>
</g>
</g>
<!-- Node4 -->
<g id="Node000004" class="node">
<title>Node4</title>
<g id="a_Node000004"><a xlink:title=" ">
<polygon fill="#e0e0e0" stroke="#999999" points="101.5,-24.88 0,-24.88 0,-5.63 101.5,-5.63 101.5,-24.88"/>
<text text-anchor="middle" x="50.75" y="-11.38" font-family="Helvetica,sans-Serif" font-size="10.00">mlir/IR/BuiltinOps.h</text>
</a>
</g>
</g>
<!-- Node3&#45;&gt;Node4 -->
<g id="edge3_Node000003_Node000004" class="edge">
<title>Node3&#45;&gt;Node4</title>
<g id="a_edge3_Node000003_Node000004"><a xlink:title=" ">
<path fill="none" stroke="#63b8ff" d="M94.82,-66.11C86.27,-56.44 75.02,-43.71 66.03,-33.54"/>
<polygon fill="#63b8ff" stroke="#63b8ff" points="68.79,-31.38 59.55,-26.21 63.55,-36.02 68.79,-31.38"/>
</a>
</g>
</g>
<!-- Node5 -->
<g id="Node000005" class="node">
<title>Node5</title>
<g id="a_Node000005"><a xlink:href="_array_2_i_r_2_dialect_8h_8inc.html" target="_top" xlink:title=" ">
<polygon fill="white" stroke="#666666" points="210.25,-30.5 119.25,-30.5 119.25,0 210.25,0 210.25,-30.5"/>
<text text-anchor="start" x="127.25" y="-17" font-family="Helvetica,sans-Serif" font-size="10.00">llzk/Dialect/Array</text>
<text text-anchor="middle" x="164.75" y="-5.75" font-family="Helvetica,sans-Serif" font-size="10.00">/IR/Dialect.h.inc</text>
</a>
</g>
</g>
<!-- Node3&#45;&gt;Node5 -->
<g id="edge4_Node000003_Node000005" class="edge">
<title>Node3&#45;&gt;Node5</title>
<g id="a_edge4_Node000003_Node000005"><a xlink:title=" ">
<path fill="none" stroke="#63b8ff" d="M120.68,-66.11C127.68,-58.2 136.48,-48.24 144.38,-39.3"/>
<polygon fill="#63b8ff" stroke="#63b8ff" points="146.87,-41.77 150.86,-31.96 141.62,-37.14 146.87,-41.77"/>
</a>
</g>
</g>
<!-- Node6&#45;&gt;Node3 -->
<g id="edge6_Node000006_Node000003" class="edge">
<title>Node6&#45;&gt;Node3</title>
<g id="a_edge6_Node000006_Node000003"><a xlink:title=" ">
<path fill="none" stroke="#63b8ff" d="M566.94,-140.17C550.5,-137.75 531.81,-135.11 514.75,-133 361.91,-114.1 318.91,-124.68 164.88,-97.4"/>
<polygon fill="#63b8ff" stroke="#63b8ff" points="165.55,-93.96 155.09,-95.64 164.31,-100.85 165.55,-93.96"/>
</a>
</g>
</g>
<!-- Node7 -->
<g id="Node000007" class="node">
<title>Node7</title>
<g id="a_Node000007"><a xlink:href="_error_helper_8h.html" target="_top" xlink:title=" ">
<polygon fill="white" stroke="#666666" points="1067.25,-91.38 958.25,-91.38 958.25,-72.12 1067.25,-72.12 1067.25,-91.38"/>
<text text-anchor="middle" x="1012.75" y="-77.88" font-family="Helvetica,sans-Serif" font-size="10.00">llzk/Util/ErrorHelper.h</text>
</a>
</g>
</g>
<!-- Node6&#45;&gt;Node7 -->
<g id="edge7_Node000006_Node000007" class="edge">
<title>Node6&#45;&gt;Node7</title>
<g id="a_edge7_Node000006_Node000007"><a xlink:title=" ">
<path fill="none" stroke="#63b8ff" d="M658.57,-141.44C723.41,-132.98 845.53,-116.19 948.75,-97 953.35,-96.15 958.11,-95.2 962.88,-94.21"/>
<polygon fill="#63b8ff" stroke="#63b8ff" points="963.39,-97.68 972.44,-92.17 961.93,-90.84 963.39,-97.68"/>
</a>
</g>
</g>
<!-- Node11 -->
<g id="Node000011" class="node">
<title>Node11</title>
<g id="a_Node000011"><a xlink:title=" ">
<polygon fill="#e0e0e0" stroke="#999999" points="522.62,-97 388.88,-97 388.88,-66.5 522.62,-66.5 522.62,-97"/>
<text text-anchor="start" x="396.88" y="-83.5" font-family="Helvetica,sans-Serif" font-size="10.00">mlir/Interfaces/MemorySlot</text>
<text text-anchor="middle" x="455.75" y="-72.25" font-family="Helvetica,sans-Serif" font-size="10.00">Interfaces.h</text>
</a>
</g>
</g>
<!-- Node6&#45;&gt;Node11 -->
<g id="edge11_Node000006_Node000011" class="edge">
<title>Node6&#45;&gt;Node11</title>
<g id="a_edge11_Node000006_Node000011"><a xlink:title=" ">
<path fill="none" stroke="#63b8ff" d="M577.12,-132.61C554.92,-123.49 526.12,-111.66 502.14,-101.81"/>
<polygon fill="#63b8ff" stroke="#63b8ff" points="503.49,-98.58 492.91,-98.01 500.83,-105.05 503.49,-98.58"/>
</a>
</g>
</g>
<!-- Node6&#45;&gt;Node12 -->
<g id="edge12_Node000006_Node000012" class="edge">
<title>Node6&#45;&gt;Node12</title>
<g id="a_edge12_Node000006_Node000012"><a xlink:title=" ">
<path fill="none" stroke="#63b8ff" d="M566.99,-135.85C562.2,-134.82 557.38,-133.84 552.75,-133 431.96,-111.01 396.75,-120.59 273.61,-97.4"/>
<polygon fill="#63b8ff" stroke="#63b8ff" points="274.58,-94.02 264.1,-95.58 273.26,-100.9 274.58,-94.02"/>
</a>
</g>
</g>
<!-- Node13 -->
<g id="Node000013" class="node">
<title>Node13</title>
<g id="a_Node000013"><a xlink:href="_array_2_i_r_2_types_8h_8inc.html" target="_top" xlink:title=" ">
<polygon fill="white" stroke="#666666" points="371.25,-97 280.25,-97 280.25,-66.5 371.25,-66.5 371.25,-97"/>
<text text-anchor="start" x="288.25" y="-83.5" font-family="Helvetica,sans-Serif" font-size="10.00">llzk/Dialect/Array</text>
<text text-anchor="middle" x="325.75" y="-72.25" font-family="Helvetica,sans-Serif" font-size="10.00">/IR/Types.h.inc</text>
</a>
</g>
</g>
<!-- Node6&#45;&gt;Node13 -->
<g id="edge13_Node000006_Node000013" class="edge">
<title>Node6&#45;&gt;Node13</title>
<g id="a_edge13_Node000006_Node000013"><a xlink:title=" ">
<path fill="none" stroke="#63b8ff" d="M566.92,-136.23C562.14,-135.12 557.35,-134.02 552.75,-133 479.54,-116.69 458.09,-115.14 382.68,-97.62"/>
<polygon fill="#63b8ff" stroke="#63b8ff" points="383.67,-94.26 373.14,-95.39 382.08,-101.08 383.67,-94.26"/>
</a>
</g>
</g>
<!-- Node8 -->
<g id="Node000008" class="node">
<title>Node8</title>
<g id="a_Node000008"><a xlink:title=" ">
<polygon fill="#e0e0e0" stroke="#999999" points="1213.75,-24.88 1053.75,-24.88 1053.75,-5.63 1213.75,-5.63 1213.75,-24.88"/>
<text text-anchor="middle" x="1133.75" y="-11.38" font-family="Helvetica,sans-Serif" font-size="10.00">llvm/ADT/STLFunctionalExtras.h</text>
</a>
</g>
</g>
<!-- Node7&#45;&gt;Node8 -->
<g id="edge8_Node000007_Node000008" class="edge">
<title>Node7&#45;&gt;Node8</title>
<g id="a_edge8_Node000007_Node000008"><a xlink:title=" ">
<path fill="none" stroke="#63b8ff" d="M1029.83,-71.65C1049.83,-60.99 1083.2,-43.19 1106.73,-30.66"/>
<polygon fill="#63b8ff" stroke="#63b8ff" points="1108.24,-33.81 1115.42,-26.02 1104.95,-27.64 1108.24,-33.81"/>
</a>
</g>
</g>
<!-- Node9 -->
<g id="Node000009" class="node">
<title>Node9</title>
<g id="a_Node000009"><a xlink:title=" ">
<polygon fill="#e0e0e0" stroke="#999999" points="875.75,-24.88 781.75,-24.88 781.75,-5.63 875.75,-5.63 875.75,-24.88"/>
<text text-anchor="middle" x="828.75" y="-11.38" font-family="Helvetica,sans-Serif" font-size="10.00">llvm/ADT/Twine.h</text>
</a>
</g>
</g>
<!-- Node7&#45;&gt;Node9 -->
<g id="edge9_Node000007_Node000009" class="edge">
<title>Node7&#45;&gt;Node9</title>
<g id="a_edge9_Node000007_Node000009"><a xlink:title=" ">
<path fill="none" stroke="#63b8ff" d="M986.78,-71.65C955,-60.51 901,-41.58 865.1,-28.99"/>
<polygon fill="#63b8ff" stroke="#63b8ff" points="866.61,-25.81 856.02,-25.81 864.3,-32.42 866.61,-25.81"/>
</a>
</g>
</g>
<!-- Node10 -->
<g id="Node000010" class="node">
<title>Node10</title>
<g id="a_Node000010"><a xlink:title=" ">
<polygon fill="#e0e0e0" stroke="#999999" points="1035.38,-24.88 894.12,-24.88 894.12,-5.63 1035.38,-5.63 1035.38,-24.88"/>
<text text-anchor="middle" x="964.75" y="-11.38" font-family="Helvetica,sans-Serif" font-size="10.00">llvm/Support/ErrorHandling.h</text>
</a>
</g>
</g>
<!-- Node7&#45;&gt;Node10 -->
<g id="edge10_Node000007_Node000010" class="edge">
<title>Node7&#45;&gt;Node10</title>
<g id="a_edge10_Node000007_Node000010"><a xlink:title=" ">
<path fill="none" stroke="#63b8ff" d="M1006.08,-71.78C998.84,-62.06 987.1,-46.29 977.98,-34.03"/>
<polygon fill="#63b8ff" stroke="#63b8ff" points="981.05,-32.29 972.27,-26.36 975.43,-36.47 981.05,-32.29"/>
</a>
</g>
</g>
<!-- Node15 -->
<g id="Node000015" class="node">
<title>Node15</title>
<g id="a_Node000015"><a xlink:href="_affine_helper_8h.html" target="_top" xlink:title=" ">
<polygon fill="white" stroke="#666666" points="1441.5,-91.38 1328,-91.38 1328,-72.12 1441.5,-72.12 1441.5,-91.38"/>
<text text-anchor="middle" x="1384.75" y="-77.88" font-family="Helvetica,sans-Serif" font-size="10.00">llzk/Util/AffineHelper.h</text>
</a>
</g>
</g>
<!-- Node14&#45;&gt;Node15 -->
<g id="edge15_Node000014_Node000015" class="edge">
<title>Node14&#45;&gt;Node15</title>
<g id="a_edge15_Node000014_Node000015"><a xlink:title=" ">
<path fill="none" stroke="#63b8ff" d="M1038.1,-139.21C1108.65,-127.72 1238.53,-106.57 1317.72,-93.67"/>
<polygon fill="#63b8ff" stroke="#63b8ff" points="1318.23,-97.13 1327.53,-92.07 1317.1,-90.22 1318.23,-97.13"/>
</a>
</g>
</g>
<!-- Node17 -->
<g id="Node000017" class="node">
<title>Node17</title>
<g id="a_Node000017"><a xlink:title=" ">
<polygon fill="#e0e0e0" stroke="#999999" points="1611.75,-24.88 1475.75,-24.88 1475.75,-5.63 1611.75,-5.63 1611.75,-24.88"/>
<text text-anchor="middle" x="1543.75" y="-11.38" font-family="Helvetica,sans-Serif" font-size="10.00">mlir/IR/OpImplementation.h</text>
</a>
</g>
</g>
<!-- Node14&#45;&gt;Node17 -->
<g id="edge22_Node000014_Node000017" class="edge">
<title>Node14&#45;&gt;Node17</title>
<g id="a_edge22_Node000014_Node000017"><a xlink:title=" ">
<path fill="none" stroke="#63b8ff" d="M1033.12,-132.54C1057.37,-123.7 1087.53,-111.38 1112.75,-97 1132.17,-85.93 1132.01,-74.85 1152.75,-66.5 1283.05,-14.03 1327.83,-51.29 1466.75,-30.5 1473.12,-29.55 1479.78,-28.46 1486.39,-27.31"/>
<polygon fill="#63b8ff" stroke="#63b8ff" points="1486.69,-30.82 1495.93,-25.62 1485.47,-23.92 1486.69,-30.82"/>
</a>
</g>
</g>
<!-- Node18 -->
<g id="Node000018" class="node">
<title>Node18</title>
<g id="a_Node000018"><a xlink:title=" ">
<polygon fill="#e0e0e0" stroke="#999999" points="1330,-24.88 1231.5,-24.88 1231.5,-5.63 1330,-5.63 1330,-24.88"/>
<text text-anchor="middle" x="1280.75" y="-11.38" font-family="Helvetica,sans-Serif" font-size="10.00">mlir/IR/Operation.h</text>
</a>
</g>
</g>
<!-- Node14&#45;&gt;Node18 -->
<g id="edge23_Node000014_Node000018" class="edge">
<title>Node14&#45;&gt;Node18</title>
<g id="a_edge23_Node000014_Node000018"><a xlink:title=" ">
<path fill="none" stroke="#63b8ff" d="M1016.12,-132.53C1033.7,-122.85 1056.88,-109.68 1076.75,-97 1096.5,-84.4 1098.75,-76.9 1119.75,-66.5 1140.38,-56.29 1196.39,-39.67 1236.55,-28.36"/>
<polygon fill="#63b8ff" stroke="#63b8ff" points="1237.27,-31.79 1245.95,-25.73 1235.38,-25.05 1237.27,-31.79"/>
</a>
</g>
</g>
<!-- Node21 -->
<g id="Node000021" class="node">
<title>Node21</title>
<g id="a_Node000021"><a xlink:href="_constants_8h.html" target="_top" xlink:title=" ">
<polygon fill="white" stroke="#666666" points="646.38,-91.38 541.12,-91.38 541.12,-72.12 646.38,-72.12 646.38,-91.38"/>
<text text-anchor="middle" x="593.75" y="-77.88" font-family="Helvetica,sans-Serif" font-size="10.00">llzk/Util/Constants.h</text>
</a>
</g>
</g>
<!-- Node14&#45;&gt;Node21 -->
<g id="edge21_Node000014_Node000021" class="edge">
<title>Node14&#45;&gt;Node21</title>
<g id="a_edge21_Node000014_Node000021"><a xlink:title=" ">
<path fill="none" stroke="#63b8ff" d="M939.18,-140.97C873.95,-132.43 755.84,-116.02 655.75,-97 651.36,-96.17 646.81,-95.24 642.25,-94.27"/>
<polygon fill="#63b8ff" stroke="#63b8ff" points="643.03,-90.86 632.51,-92.13 641.52,-97.69 643.03,-90.86"/>
</a>
</g>
</g>
<!-- Node22 -->
<g id="Node000022" class="node">
<title>Node22</title>
<g id="a_Node000022"><a xlink:title=" ">
<polygon fill="#e0e0e0" stroke="#999999" points="803.25,-91.38 664.25,-91.38 664.25,-72.12 803.25,-72.12 803.25,-91.38"/>
<text text-anchor="middle" x="733.75" y="-77.88" font-family="Helvetica,sans-Serif" font-size="10.00">mlir/Support/LogicalResult.h</text>
</a>
</g>
</g>
<!-- Node14&#45;&gt;Node22 -->
<g id="edge24_Node000014_Node000022" class="edge">
<title>Node14&#45;&gt;Node22</title>
<g id="a_edge24_Node000014_Node000022"><a xlink:title=" ">
<path fill="none" stroke="#63b8ff" d="M939.28,-134.74C893.35,-123.12 825.47,-105.95 780.45,-94.56"/>
<polygon fill="#63b8ff" stroke="#63b8ff" points="781.54,-91.23 770.99,-92.17 779.83,-98.01 781.54,-91.23"/>
</a>
</g>
</g>
<!-- Node23 -->
<g id="Node000023" class="node">
<title>Node23</title>
<g id="a_Node000023"><a xlink:title=" ">
<polygon fill="#e0e0e0" stroke="#999999" points="940.12,-91.38 821.38,-91.38 821.38,-72.12 940.12,-72.12 940.12,-91.38"/>
<text text-anchor="middle" x="880.75" y="-77.88" font-family="Helvetica,sans-Serif" font-size="10.00">llvm/ADT/SmallString.h</text>
</a>
</g>
</g>
<!-- Node14&#45;&gt;Node23 -->
<g id="edge25_Node000014_Node000023" class="edge">
<title>Node14&#45;&gt;Node23</title>
<g id="a_edge25_Node000014_Node000023"><a xlink:title=" ">
<path fill="none" stroke="#63b8ff" d="M964.24,-132.61C946.66,-122.11 923.06,-108.02 905.43,-97.49"/>
<polygon fill="#63b8ff" stroke="#63b8ff" points="907.52,-94.66 897.14,-92.54 903.93,-100.67 907.52,-94.66"/>
</a>
</g>
</g>
<!-- Node24 -->
<g id="Node000024" class="node">
<title>Node24</title>
<g id="a_Node000024"><a xlink:title=" ">
<polygon fill="#e0e0e0" stroke="#999999" points="1271.62,-91.38 1161.88,-91.38 1161.88,-72.12 1271.62,-72.12 1271.62,-91.38"/>
<text text-anchor="middle" x="1216.75" y="-77.88" font-family="Helvetica,sans-Serif" font-size="10.00">llvm/ADT/StringRef.h</text>
</a>
</g>
</g>
<!-- Node14&#45;&gt;Node24 -->
<g id="edge26_Node000014_Node000024" class="edge">
<title>Node14&#45;&gt;Node24</title>
<g id="a_edge26_Node000014_Node000024"><a xlink:title=" ">
<path fill="none" stroke="#63b8ff" d="M1038.22,-133.25C1078.63,-121.82 1135.17,-105.83 1173.73,-94.92"/>
<polygon fill="#63b8ff" stroke="#63b8ff" points="1174.46,-98.35 1183.13,-92.26 1172.55,-91.62 1174.46,-98.35"/>
</a>
</g>
</g>
<!-- Node16 -->
<g id="Node000016" class="node">
<title>Node16</title>
<g id="a_Node000016"><a xlink:title=" ">
<polygon fill="#e0e0e0" stroke="#999999" points="1798.62,-24.88 1706.88,-24.88 1706.88,-5.63 1798.62,-5.63 1798.62,-24.88"/>
<text text-anchor="middle" x="1752.75" y="-11.38" font-family="Helvetica,sans-Serif" font-size="10.00">mlir/IR/Builders.h</text>
</a>
</g>
</g>
<!-- Node15&#45;&gt;Node16 -->
<g id="edge16_Node000015_Node000016" class="edge">
<title>Node15&#45;&gt;Node16</title>
<g id="a_edge16_Node000015_Node000016"><a xlink:title=" ">
<path fill="none" stroke="#63b8ff" d="M1425.53,-71.63C1433.86,-69.85 1442.57,-68.06 1450.75,-66.5 1535.6,-50.29 1634.44,-34.41 1695.3,-24.97"/>
<polygon fill="#63b8ff" stroke="#63b8ff" points="1695.74,-28.45 1705.08,-23.46 1694.67,-21.53 1695.74,-28.45"/>
</a>
</g>
</g>
<!-- Node15&#45;&gt;Node17 -->
<g id="edge17_Node000015_Node000017" class="edge">
<title>Node15&#45;&gt;Node17</title>
<g id="a_edge17_Node000015_Node000017"><a xlink:title=" ">
<path fill="none" stroke="#63b8ff" d="M1407.19,-71.65C1434.3,-60.65 1480.11,-42.06 1511.12,-29.49"/>
<polygon fill="#63b8ff" stroke="#63b8ff" points="1512.07,-32.88 1520.02,-25.88 1509.44,-26.39 1512.07,-32.88"/>
</a>
</g>
</g>
<!-- Node15&#45;&gt;Node18 -->
<g id="edge18_Node000015_Node000018" class="edge">
<title>Node15&#45;&gt;Node18</title>
<g id="a_edge18_Node000015_Node000018"><a xlink:title=" ">
<path fill="none" stroke="#63b8ff" d="M1370.29,-71.78C1353.46,-61.35 1325.41,-43.95 1305.19,-31.4"/>
<polygon fill="#63b8ff" stroke="#63b8ff" points="1307.05,-28.44 1296.71,-26.15 1303.36,-34.39 1307.05,-28.44"/>
</a>
</g>
</g>
<!-- Node19 -->
<g id="Node000019" class="node">
<title>Node19</title>
<g id="a_Node000019"><a xlink:title=" ">
<polygon fill="#e0e0e0" stroke="#999999" points="1457.25,-24.88 1348.25,-24.88 1348.25,-5.63 1457.25,-5.63 1457.25,-24.88"/>
<text text-anchor="middle" x="1402.75" y="-11.38" font-family="Helvetica,sans-Serif" font-size="10.00">mlir/IR/ValueRange.h</text>
</a>
</g>
</g>
<!-- Node15&#45;&gt;Node19 -->
<g id="edge19_Node000015_Node000019" class="edge">
<title>Node15&#45;&gt;Node19</title>
<g id="a_edge19_Node000015_Node000019"><a xlink:title=" ">
<path fill="none" stroke="#63b8ff" d="M1387.25,-71.78C1389.83,-62.54 1393.94,-47.83 1397.27,-35.88"/>
<polygon fill="#63b8ff" stroke="#63b8ff" points="1400.54,-37.17 1399.86,-26.6 1393.8,-35.29 1400.54,-37.17"/>
</a>
</g>
</g>
<!-- Node20 -->
<g id="Node000020" class="node">
<title>Node20</title>
<g id="a_Node000020"><a xlink:title=" ">
<polygon fill="#e0e0e0" stroke="#999999" points="1975.25,-24.88 1854.25,-24.88 1854.25,-5.63 1975.25,-5.63 1975.25,-24.88"/>
<text text-anchor="middle" x="1914.75" y="-11.38" font-family="Helvetica,sans-Serif" font-size="10.00">llvm/ADT/SmallVector.h</text>
</a>
</g>
</g>
<!-- Node15&#45;&gt;Node20 -->
<g id="edge20_Node000015_Node000020" class="edge">
<title>Node15&#45;&gt;Node20</title>
<g id="a_edge20_Node000015_Node000020"><a xlink:title=" ">
<path fill="none" stroke="#63b8ff" d="M1423.35,-71.66C1432.31,-69.76 1441.83,-67.91 1450.75,-66.5 1608.27,-41.63 1649.36,-49.03 1807.75,-30.5 1819.1,-29.17 1831.12,-27.67 1842.85,-26.15"/>
<polygon fill="#63b8ff" stroke="#63b8ff" points="1843,-29.66 1852.46,-24.88 1842.09,-22.72 1843,-29.66"/>
</a>
</g>
</g>
<!-- Node25&#45;&gt;Node7 -->
<g id="edge28_Node000025_Node000007" class="edge">
<title>Node25&#45;&gt;Node7</title>
<g id="a_edge28_Node000025_Node000007"><a xlink:title=" ">
<path fill="none" stroke="#63b8ff" d="M1259.24,-138.15C1208.07,-126.65 1119.96,-106.84 1064.12,-94.29"/>
<polygon fill="#63b8ff" stroke="#63b8ff" points="1065.06,-90.92 1054.53,-92.14 1063.52,-97.75 1065.06,-90.92"/>
</a>
</g>
</g>
<!-- Node25&#45;&gt;Node17 -->
<g id="edge29_Node000025_Node000017" class="edge">
<title>Node25&#45;&gt;Node17</title>
<g id="a_edge29_Node000025_Node000017"><a xlink:title=" ">
<path fill="none" stroke="#63b8ff" d="M1354.39,-144.6C1461.6,-138.85 1691.22,-123.55 1714.75,-97 1747.65,-59.87 1682.15,-38.44 1622.93,-27.11"/>
<polygon fill="#63b8ff" stroke="#63b8ff" points="1623.93,-23.74 1613.47,-25.39 1622.68,-30.62 1623.93,-23.74"/>
</a>
</g>
</g>
<!-- Node25&#45;&gt;Node18 -->
<g id="edge30_Node000025_Node000018" class="edge">
<title>Node25&#45;&gt;Node18</title>
<g id="a_edge30_Node000025_Node000018"><a xlink:title=" ">
<path fill="none" stroke="#63b8ff" d="M1298.44,-138.25C1295.42,-117.4 1287.88,-65.39 1283.68,-36.47"/>
<polygon fill="#63b8ff" stroke="#63b8ff" points="1287.18,-36.21 1282.28,-26.82 1280.25,-37.21 1287.18,-36.21"/>
</a>
</g>
</g>
<!-- Node25&#45;&gt;Node24 -->
<g id="edge34_Node000025_Node000024" class="edge">
<title>Node25&#45;&gt;Node24</title>
<g id="a_edge34_Node000025_Node000024"><a xlink:title=" ">
<path fill="none" stroke="#63b8ff" d="M1288.21,-138.28C1275.03,-128.04 1253.21,-111.09 1237.15,-98.6"/>
<polygon fill="#63b8ff" stroke="#63b8ff" points="1239.7,-96.15 1229.66,-92.78 1235.4,-101.68 1239.7,-96.15"/>
</a>
</g>
</g>
<!-- Node26 -->
<g id="Node000026" class="node">
<title>Node26</title>
<g id="a_Node000026"><a xlink:title=" ">
<polygon fill="#e0e0e0" stroke="#999999" points="1572.12,-91.38 1459.38,-91.38 1459.38,-72.12 1572.12,-72.12 1572.12,-91.38"/>
<text text-anchor="middle" x="1515.75" y="-77.88" font-family="Helvetica,sans-Serif" font-size="10.00">mlir/IR/SymbolTable.h</text>
</a>
</g>
</g>
<!-- Node25&#45;&gt;Node26 -->
<g id="edge31_Node000025_Node000026" class="edge">
<title>Node25&#45;&gt;Node26</title>
<g id="a_edge31_Node000025_Node000026"><a xlink:title=" ">
<path fill="none" stroke="#63b8ff" d="M1330.24,-138.15C1367.95,-126.89 1432.3,-107.67 1474.43,-95.09"/>
<polygon fill="#63b8ff" stroke="#63b8ff" points="1475.38,-98.46 1483.97,-92.24 1473.38,-91.75 1475.38,-98.46"/>
</a>
</g>
</g>
<!-- Node27 -->
<g id="Node000027" class="node">
<title>Node27</title>
<g id="a_Node000027"><a xlink:title=" ">
<polygon fill="#e0e0e0" stroke="#999999" points="1869.5,-91.38 1762,-91.38 1762,-72.12 1869.5,-72.12 1869.5,-91.38"/>
<text text-anchor="middle" x="1815.75" y="-77.88" font-family="Helvetica,sans-Serif" font-size="10.00">llvm/ADT/ArrayRef.h</text>
</a>
</g>
</g>
<!-- Node25&#45;&gt;Node27 -->
<g id="edge32_Node000025_Node000027" class="edge">
<title>Node25&#45;&gt;Node27</title>
<g id="a_edge32_Node000025_Node000027"><a xlink:title=" ">
<path fill="none" stroke="#63b8ff" d="M1354.46,-142.8C1439.09,-135.53 1606.72,-119.63 1747.75,-97 1753.27,-96.11 1759.01,-95.08 1764.72,-93.99"/>
<polygon fill="#63b8ff" stroke="#63b8ff" points="1764.99,-97.5 1774.11,-92.12 1763.62,-90.64 1764.99,-97.5"/>
</a>
</g>
</g>
<!-- Node28 -->
<g id="Node000028" class="node">
<title>Node28</title>
<g id="a_Node000028"><a xlink:title=" ">
<polygon fill="#e0e0e0" stroke="#999999" points="1705.62,-91.38 1589.88,-91.38 1589.88,-72.12 1705.62,-72.12 1705.62,-91.38"/>
<text text-anchor="middle" x="1647.75" y="-77.88" font-family="Helvetica,sans-Serif" font-size="10.00">llvm/ADT/DenseMap.h</text>
</a>
</g>
</g>
<!-- Node25&#45;&gt;Node28 -->
<g id="edge33_Node000025_Node000028" class="edge">
<title>Node25&#45;&gt;Node28</title>
<g id="a_edge33_Node000025_Node000028"><a xlink:title=" ">
<path fill="none" stroke="#63b8ff" d="M1353.72,-138.14C1410.36,-128.45 1501.96,-112.42 1580.75,-97 1585.35,-96.1 1590.11,-95.14 1594.89,-94.16"/>
<polygon fill="#63b8ff" stroke="#63b8ff" points="1595.42,-97.63 1604.49,-92.16 1593.99,-90.77 1595.42,-97.63"/>
</a>
</g>
</g>
<!-- Node31&#45;&gt;Node6 -->
<g id="edge40_Node000031_Node000006" class="edge">
<title>Node31&#45;&gt;Node6</title>
<g id="a_edge40_Node000031_Node000006"><a xlink:title=" ">
<path fill="none" stroke="#63b8ff" d="M1838.77,-210.79C1623.65,-199.99 882.64,-162.8 670.13,-152.13"/>
<polygon fill="#63b8ff" stroke="#63b8ff" points="670.33,-148.64 660.17,-151.63 669.98,-155.63 670.33,-148.64"/>
</a>
</g>
</g>
<!-- Node31&#45;&gt;Node16 -->
<g id="edge45_Node000031_Node000016" class="edge">
<title>Node31&#45;&gt;Node16</title>
<g id="a_edge45_Node000031_Node000016"><a xlink:title=" ">
<path fill="none" stroke="#63b8ff" d="M1900.28,-199.42C1904.46,-170.86 1909.56,-106.21 1878.75,-66.5 1862.09,-45.02 1834.84,-32.7 1809.93,-25.64"/>
<polygon fill="#63b8ff" stroke="#63b8ff" points="1811.1,-22.32 1800.54,-23.21 1809.35,-29.1 1811.1,-22.32"/>
</a>
</g>
</g>
<!-- Node31&#45;&gt;Node20 -->
<g id="edge50_Node000031_Node000020" class="edge">
<title>Node31&#45;&gt;Node20</title>
<g id="a_edge50_Node000031_Node000020"><a xlink:title=" ">
<path fill="none" stroke="#63b8ff" d="M1902.91,-199.01C1906.12,-189.11 1909.96,-175.69 1911.75,-163.5 1918.36,-118.53 1917.24,-65.01 1915.93,-36.5"/>
<polygon fill="#63b8ff" stroke="#63b8ff" points="1919.44,-36.59 1915.43,-26.79 1912.45,-36.96 1919.44,-36.59"/>
</a>
</g>
</g>
<!-- Node31&#45;&gt;Node27 -->
<g id="edge49_Node000031_Node000027" class="edge">
<title>Node31&#45;&gt;Node27</title>
<g id="a_edge49_Node000031_Node000027"><a xlink:title=" ">
<path fill="none" stroke="#63b8ff" d="M1888.66,-199.23C1873.71,-175.34 1843.94,-127.78 1827.44,-101.42"/>
<polygon fill="#63b8ff" stroke="#63b8ff" points="1830.52,-99.75 1822.25,-93.13 1824.59,-103.47 1830.52,-99.75"/>
</a>
</g>
</g>
<!-- Node32 -->
<g id="Node000032" class="node">
<title>Node32</title>
<g id="a_Node000032"><a xlink:href="_attribute_helper_8h.html" target="_top" xlink:title=" ">
<polygon fill="white" stroke="#666666" points="2068,-163.5 1963.5,-163.5 1963.5,-133 2068,-133 2068,-163.5"/>
<text text-anchor="start" x="1971.5" y="-150" font-family="Helvetica,sans-Serif" font-size="10.00">llzk/Dialect/LLZK/IR</text>
<text text-anchor="middle" x="2015.75" y="-138.75" font-family="Helvetica,sans-Serif" font-size="10.00">/AttributeHelper.h</text>
</a>
</g>
</g>
<!-- Node31&#45;&gt;Node32 -->
<g id="edge41_Node000031_Node000032" class="edge">
<title>Node31&#45;&gt;Node32</title>
<g id="a_edge41_Node000031_Node000032"><a xlink:title=" ">
<path fill="none" stroke="#63b8ff" d="M1924.53,-199.11C1940.67,-190.29 1961.46,-178.93 1979.11,-169.28"/>
<polygon fill="#63b8ff" stroke="#63b8ff" points="1980.66,-172.42 1987.75,-164.55 1977.3,-166.28 1980.66,-172.42"/>
</a>
</g>
</g>
<!-- Node35 -->
<g id="Node000035" class="node">
<title>Node35</title>
<g id="a_Node000035"><a xlink:title=" ">
<polygon fill="#e0e0e0" stroke="#999999" points="2185,-157.88 2086.5,-157.88 2086.5,-138.62 2185,-138.62 2185,-157.88"/>
<text text-anchor="middle" x="2135.75" y="-144.38" font-family="Helvetica,sans-Serif" font-size="10.00">mlir/IR/Attributes.h</text>
</a>
</g>
</g>
<!-- Node31&#45;&gt;Node35 -->
<g id="edge44_Node000031_Node000035" class="edge">
<title>Node31&#45;&gt;Node35</title>
<g id="a_edge44_Node000031_Node000035"><a xlink:title=" ">
<path fill="none" stroke="#63b8ff" d="M1952.05,-199.03C1994.13,-187.63 2051.72,-172.02 2091.14,-161.34"/>
<polygon fill="#63b8ff" stroke="#63b8ff" points="2092.05,-164.72 2100.78,-158.73 2090.21,-157.96 2092.05,-164.72"/>
</a>
</g>
</g>
<!-- Node36 -->
<g id="Node000036" class="node">
<title>Node36</title>
<g id="a_Node000036"><a xlink:title=" ">
<polygon fill="#e0e0e0" stroke="#999999" points="2312.62,-157.88 2202.88,-157.88 2202.88,-138.62 2312.62,-138.62 2312.62,-157.88"/>
<text text-anchor="middle" x="2257.75" y="-144.38" font-family="Helvetica,sans-Serif" font-size="10.00">mlir/IR/BuiltinTypes.h</text>
</a>
</g>
</g>
<!-- Node31&#45;&gt;Node36 -->
<g id="edge46_Node000031_Node000036" class="edge">
<title>Node31&#45;&gt;Node36</title>
<g id="a_edge46_Node000031_Node000036"><a xlink:title=" ">
<path fill="none" stroke="#63b8ff" d="M1956.6,-204.66C2016.45,-195.21 2111.78,-179.57 2193.75,-163.5 2198.27,-162.61 2202.97,-161.65 2207.67,-160.66"/>
<polygon fill="#63b8ff" stroke="#63b8ff" points="2208.04,-164.16 2217.08,-158.63 2206.56,-157.31 2208.04,-164.16"/>
</a>
</g>
</g>
<!-- Node37 -->
<g id="Node000037" class="node">
<title>Node37</title>
<g id="a_Node000037"><a xlink:title=" ">
<polygon fill="#e0e0e0" stroke="#999999" points="2424.38,-157.88 2331.12,-157.88 2331.12,-138.62 2424.38,-138.62 2424.38,-157.88"/>
<text text-anchor="middle" x="2377.75" y="-144.38" font-family="Helvetica,sans-Serif" font-size="10.00">mlir/IR/Location.h</text>
</a>
</g>
</g>
<!-- Node31&#45;&gt;Node37 -->
<g id="edge47_Node000031_Node000037" class="edge">
<title>Node31&#45;&gt;Node37</title>
<g id="a_edge47_Node000031_Node000037"><a xlink:title=" ">
<path fill="none" stroke="#63b8ff" d="M1956.76,-209.22C2039.01,-202.35 2192.57,-187.48 2321.75,-163.5 2325.78,-162.75 2329.96,-161.88 2334.13,-160.94"/>
<polygon fill="#63b8ff" stroke="#63b8ff" points="2334.65,-164.41 2343.57,-158.69 2333.03,-157.6 2334.65,-164.41"/>
</a>
</g>
</g>
<!-- Node38 -->
<g id="Node000038" class="node">
<title>Node38</title>
<g id="a_Node000038"><a xlink:title=" ">
<polygon fill="#e0e0e0" stroke="#999999" points="1764.25,-157.88 1649.25,-157.88 1649.25,-138.62 1764.25,-138.62 1764.25,-157.88"/>
<text text-anchor="middle" x="1706.75" y="-144.38" font-family="Helvetica,sans-Serif" font-size="10.00">mlir/IR/MLIRContext.h</text>
</a>
</g>
</g>
<!-- Node31&#45;&gt;Node38 -->
<g id="edge48_Node000031_Node000038" class="edge">
<title>Node31&#45;&gt;Node38</title>
<g id="a_edge48_Node000031_Node000038"><a xlink:title=" ">
<path fill="none" stroke="#63b8ff" d="M1854.41,-199.11C1821.23,-187.91 1775.93,-172.61 1744.29,-161.93"/>
<polygon fill="#63b8ff" stroke="#63b8ff" points="1745.74,-158.72 1735.14,-158.84 1743.5,-165.35 1745.74,-158.72"/>
</a>
</g>
</g>
<!-- Node39 -->
<g id="Node000039" class="node">
<title>Node39</title>
<g id="a_Node000039"><a xlink:title=" ">
<polygon fill="#e0e0e0" stroke="#999999" points="1831.62,-157.88 1781.88,-157.88 1781.88,-138.62 1831.62,-138.62 1831.62,-157.88"/>
<text text-anchor="middle" x="1806.75" y="-144.38" font-family="Helvetica,sans-Serif" font-size="10.00">optional</text>
</a>
</g>
</g>
<!-- Node31&#45;&gt;Node39 -->
<g id="edge51_Node000031_Node000039" class="edge">
<title>Node31&#45;&gt;Node39</title>
<g id="a_edge51_Node000031_Node000039"><a xlink:title=" ">
<path fill="none" stroke="#63b8ff" d="M1877.1,-199.11C1862.7,-188.91 1843.51,-175.3 1828.81,-164.88"/>
<polygon fill="#63b8ff" stroke="#63b8ff" points="1830.88,-162.06 1820.7,-159.14 1826.83,-167.77 1830.88,-162.06"/>
</a>
</g>
</g>
<!-- Node33 -->
<g id="Node000033" class="node">
<title>Node33</title>
<g id="a_Node000033"><a xlink:title=" ">
<polygon fill="#e0e0e0" stroke="#999999" points="2232.75,-91.38 2078.75,-91.38 2078.75,-72.12 2232.75,-72.12 2232.75,-91.38"/>
<text text-anchor="middle" x="2155.75" y="-77.88" font-family="Helvetica,sans-Serif" font-size="10.00">mlir/IR/DialectImplementation.h</text>
</a>
</g>
</g>
<!-- Node32&#45;&gt;Node33 -->
<g id="edge42_Node000032_Node000033" class="edge">
<title>Node32&#45;&gt;Node33</title>
<g id="a_edge42_Node000032_Node000033"><a xlink:title=" ">
<path fill="none" stroke="#63b8ff" d="M2047.52,-132.61C2071.06,-121.77 2102.92,-107.09 2125.97,-96.47"/>
<polygon fill="#63b8ff" stroke="#63b8ff" points="2127.2,-99.76 2134.82,-92.39 2124.27,-93.4 2127.2,-99.76"/>
</a>
</g>
</g>
<!-- Node34 -->
<g id="Node000034" class="node">
<title>Node34</title>
<g id="a_Node000034"><a xlink:title=" ">
<polygon fill="#e0e0e0" stroke="#999999" points="2060.38,-91.38 1967.12,-91.38 1967.12,-72.12 2060.38,-72.12 2060.38,-91.38"/>
<text text-anchor="middle" x="2013.75" y="-77.88" font-family="Helvetica,sans-Serif" font-size="10.00">llvm/ADT/APInt.h</text>
</a>
</g>
</g>
<!-- Node32&#45;&gt;Node34 -->
<g id="edge43_Node000032_Node000034" class="edge">
<title>Node32&#45;&gt;Node34</title>
<g id="a_edge43_Node000032_Node000034"><a xlink:title=" ">
<path fill="none" stroke="#63b8ff" d="M2015.3,-132.61C2015.02,-123.83 2014.67,-112.52 2014.37,-102.9"/>
<polygon fill="#63b8ff" stroke="#63b8ff" points="2017.88,-102.97 2014.07,-93.09 2010.88,-103.19 2017.88,-102.97"/>
</a>
</g>
</g>
</g>
</svg>
