<?xml version="1.0" encoding="UTF-8" standalone="no"?>
<!DOCTYPE svg PUBLIC "-//W3C//DTD SVG 1.1//EN"
 "http://www.w3.org/Graphics/SVG/1.1/DTD/svg11.dtd">
<!-- Generated by graphviz version 12.2.1 (20241206.2353)
 -->
<!-- Title: include/llzk/Dialect/Array/IR/Ops.h Pages: 1 -->
<svg width="1585pt" height="172pt"
 viewBox="0.00 0.00 1585.00 171.50" xmlns="http://www.w3.org/2000/svg" xmlns:xlink="http://www.w3.org/1999/xlink">
<g id="graph0" class="graph" transform="scale(1 1) rotate(0) translate(4 167.5)">
<title>include/llzk/Dialect/Array/IR/Ops.h</title>
<!-- Node1 -->
<g id="Node000001" class="node">
<title>Node1</title>
<g id="a_Node000001"><a xlink:title=" ">
<polygon fill="#999999" stroke="#666666" points="857.12,-163.5 758.62,-163.5 758.62,-133 857.12,-133 857.12,-163.5"/>
<text text-anchor="start" x="766.62" y="-150" font-family="Helvetica,sans-Serif" font-size="10.00">include/llzk/Dialect</text>
<text text-anchor="middle" x="807.88" y="-138.75" font-family="Helvetica,sans-Serif" font-size="10.00">/Array/IR/Ops.h</text>
</a>
</g>
</g>
<!-- Node2 -->
<g id="Node000002" class="node">
<title>Node2</title>
<g id="a_Node000002"><a xlink:href="_interval_analysis_8h.html" target="_top" xlink:title=" ">
<polygon fill="white" stroke="#666666" points="214.5,-97 109.25,-97 109.25,-66.5 214.5,-66.5 214.5,-97"/>
<text text-anchor="start" x="117.25" y="-83.5" font-family="Helvetica,sans-Serif" font-size="10.00">include/llzk/Analysis</text>
<text text-anchor="middle" x="161.88" y="-72.25" font-family="Helvetica,sans-Serif" font-size="10.00">/IntervalAnalysis.h</text>
</a>
</g>
</g>
<!-- Node1&#45;&gt;Node2 -->
<g id="edge1_Node000001_Node000002" class="edge">
<title>Node1&#45;&gt;Node2</title>
<g id="a_edge1_Node000001_Node000002"><a xlink:title=" ">
<path fill="none" stroke="#63b8ff" d="M746.9,-144.82C640.28,-139.94 413.31,-126.77 223.88,-97 220.93,-96.54 217.91,-96.01 214.88,-95.45"/>
<polygon fill="#63b8ff" stroke="#63b8ff" points="746.71,-148.31 756.86,-145.26 747.03,-141.32 746.71,-148.31"/>
</a>
</g>
</g>
<!-- Node5 -->
<g id="Node000005" class="node">
<title>Node5</title>
<g id="a_Node000005"><a xlink:href="_constrain_ref_8cpp.html" target="_top" xlink:title=" ">
<polygon fill="white" stroke="#666666" points="378.75,-91.38 233,-91.38 233,-72.12 378.75,-72.12 378.75,-91.38"/>
<text text-anchor="middle" x="305.88" y="-77.88" font-family="Helvetica,sans-Serif" font-size="10.00">lib/Analysis/ConstrainRef.cpp</text>
</a>
</g>
</g>
<!-- Node1&#45;&gt;Node5 -->
<g id="edge4_Node000001_Node000005" class="edge">
<title>Node1&#45;&gt;Node5</title>
<g id="a_edge4_Node000001_Node000005"><a xlink:title=" ">
<path fill="none" stroke="#63b8ff" d="M746.97,-140.99C665.15,-132.34 515.26,-115.68 387.88,-97 377.44,-95.47 366.29,-93.65 355.68,-91.84"/>
<polygon fill="#63b8ff" stroke="#63b8ff" points="746.48,-144.45 756.8,-142.02 747.22,-137.49 746.48,-144.45"/>
</a>
</g>
</g>
<!-- Node6 -->
<g id="Node000006" class="node">
<title>Node6</title>
<g id="a_Node000006"><a xlink:href="_constraint_dependency_graph_8cpp.html" target="_top" xlink:title=" ">
<polygon fill="white" stroke="#666666" points="565.38,-97 396.38,-97 396.38,-66.5 565.38,-66.5 565.38,-97"/>
<text text-anchor="start" x="404.38" y="-83.5" font-family="Helvetica,sans-Serif" font-size="10.00">lib/Analysis/ConstraintDependency</text>
<text text-anchor="middle" x="480.88" y="-72.25" font-family="Helvetica,sans-Serif" font-size="10.00">Graph.cpp</text>
</a>
</g>
</g>
<!-- Node1&#45;&gt;Node6 -->
<g id="edge5_Node000001_Node000006" class="edge">
<title>Node1&#45;&gt;Node6</title>
<g id="a_edge5_Node000001_Node000006"><a xlink:title=" ">
<path fill="none" stroke="#63b8ff" d="M747.06,-135.25C692.95,-124.58 613.62,-108.93 555.65,-97.5"/>
<polygon fill="#63b8ff" stroke="#63b8ff" points="746.24,-138.66 756.73,-137.16 747.59,-131.79 746.24,-138.66"/>
</a>
</g>
</g>
<!-- Node7 -->
<g id="Node000007" class="node">
<title>Node7</title>
<g id="a_Node000007"><a xlink:href="_array_2_i_r_2_dialect_8cpp.html" target="_top" xlink:title=" ">
<polygon fill="white" stroke="#666666" points="682.5,-97 583.25,-97 583.25,-66.5 682.5,-66.5 682.5,-97"/>
<text text-anchor="start" x="591.25" y="-83.5" font-family="Helvetica,sans-Serif" font-size="10.00">lib/Dialect/Array/IR</text>
<text text-anchor="middle" x="632.88" y="-72.25" font-family="Helvetica,sans-Serif" font-size="10.00">/Dialect.cpp</text>
</a>
</g>
</g>
<!-- Node1&#45;&gt;Node7 -->
<g id="edge6_Node000001_Node000007" class="edge">
<title>Node1&#45;&gt;Node7</title>
<g id="a_edge6_Node000001_Node000007"><a xlink:title=" ">
<path fill="none" stroke="#63b8ff" d="M757.4,-128.65C730.49,-118.73 697.84,-106.7 672.73,-97.44"/>
<polygon fill="#63b8ff" stroke="#63b8ff" points="756.15,-131.92 766.74,-132.09 758.57,-125.35 756.15,-131.92"/>
</a>
</g>
</g>
<!-- Node8 -->
<g id="Node000008" class="node">
<title>Node8</title>
<g id="a_Node000008"><a xlink:href="_array_2_i_r_2_ops_8cpp.html" target="_top" xlink:title=" ">
<polygon fill="white" stroke="#666666" points="799.5,-97 700.25,-97 700.25,-66.5 799.5,-66.5 799.5,-97"/>
<text text-anchor="start" x="708.25" y="-83.5" font-family="Helvetica,sans-Serif" font-size="10.00">lib/Dialect/Array/IR</text>
<text text-anchor="middle" x="749.88" y="-72.25" font-family="Helvetica,sans-Serif" font-size="10.00">/Ops.cpp</text>
</a>
</g>
</g>
<!-- Node1&#45;&gt;Node8 -->
<g id="edge7_Node000001_Node000008" class="edge">
<title>Node1&#45;&gt;Node8</title>
<g id="a_edge7_Node000001_Node000008"><a xlink:title=" ">
<path fill="none" stroke="#63b8ff" d="M787.08,-124.13C779.05,-115.19 770.09,-105.24 762.98,-97.33"/>
<polygon fill="#63b8ff" stroke="#63b8ff" points="784.41,-126.39 793.7,-131.49 789.62,-121.71 784.41,-126.39"/>
</a>
</g>
</g>
<!-- Node9 -->
<g id="Node000009" class="node">
<title>Node9</title>
<g id="a_Node000009"><a xlink:href="_array_2_i_r_2_types_8cpp.html" target="_top" xlink:title=" ">
<polygon fill="white" stroke="#666666" points="916.5,-97 817.25,-97 817.25,-66.5 916.5,-66.5 916.5,-97"/>
<text text-anchor="start" x="825.25" y="-83.5" font-family="Helvetica,sans-Serif" font-size="10.00">lib/Dialect/Array/IR</text>
<text text-anchor="middle" x="866.88" y="-72.25" font-family="Helvetica,sans-Serif" font-size="10.00">/Types.cpp</text>
</a>
</g>
</g>
<!-- Node1&#45;&gt;Node9 -->
<g id="edge8_Node000001_Node000009" class="edge">
<title>Node1&#45;&gt;Node9</title>
<g id="a_edge8_Node000001_Node000009"><a xlink:title=" ">
<path fill="none" stroke="#63b8ff" d="M829.02,-124.13C837.2,-115.19 846.31,-105.24 853.54,-97.33"/>
<polygon fill="#63b8ff" stroke="#63b8ff" points="826.45,-121.76 822.28,-131.5 831.62,-126.48 826.45,-121.76"/>
</a>
</g>
</g>
<!-- Node10 -->
<g id="Node000010" class="node">
<title>Node10</title>
<g id="a_Node000010"><a xlink:href="_array_to_scalar_pass_8cpp.html" target="_top" xlink:title="This file implements the &#45;llzk&#45;array&#45;to&#45;scalar pass.">
<polygon fill="white" stroke="#666666" points="1073,-97 934.75,-97 934.75,-66.5 1073,-66.5 1073,-97"/>
<text text-anchor="start" x="942.75" y="-83.5" font-family="Helvetica,sans-Serif" font-size="10.00">lib/Dialect/Array/Transforms</text>
<text text-anchor="middle" x="1003.88" y="-72.25" font-family="Helvetica,sans-Serif" font-size="10.00">/ArrayToScalarPass.cpp</text>
</a>
</g>
</g>
<!-- Node1&#45;&gt;Node10 -->
<g id="edge9_Node000001_Node000010" class="edge">
<title>Node1&#45;&gt;Node10</title>
<g id="a_edge9_Node000001_Node000010"><a xlink:title=" ">
<path fill="none" stroke="#63b8ff" d="M863.2,-129.04C893.57,-119.05 930.74,-106.82 959.24,-97.44"/>
<polygon fill="#63b8ff" stroke="#63b8ff" points="862.19,-125.69 853.79,-132.14 864.38,-132.34 862.19,-125.69"/>
</a>
</g>
</g>
<!-- Node11 -->
<g id="Node000011" class="node">
<title>Node11</title>
<g id="a_Node000011"><a xlink:href="_flattening_pass_8cpp.html" target="_top" xlink:title="This file implements the &#45;llzk&#45;flatten pass.">
<polygon fill="white" stroke="#666666" points="1246.62,-97 1091.12,-97 1091.12,-66.5 1246.62,-66.5 1246.62,-97"/>
<text text-anchor="start" x="1099.12" y="-83.5" font-family="Helvetica,sans-Serif" font-size="10.00">lib/Dialect/Polymorphic</text>
<text text-anchor="middle" x="1168.88" y="-72.25" font-family="Helvetica,sans-Serif" font-size="10.00">/Transforms/FlatteningPass.cpp</text>
</a>
</g>
</g>
<!-- Node1&#45;&gt;Node11 -->
<g id="edge10_Node000001_Node000011" class="edge">
<title>Node1&#45;&gt;Node11</title>
<g id="a_edge10_Node000001_Node000011"><a xlink:title=" ">
<path fill="none" stroke="#63b8ff" d="M868.31,-136.45C929.34,-125.55 1023.9,-108.65 1090.63,-96.73"/>
<polygon fill="#63b8ff" stroke="#63b8ff" points="868.03,-132.95 858.8,-138.15 869.26,-139.84 868.03,-132.95"/>
</a>
</g>
</g>
<!-- Node12 -->
<g id="Node000012" class="node">
<title>Node12</title>
<g id="a_Node000012"><a xlink:href="_l_l_z_k_redundant_read_and_write_elimination_pass_8cpp.html" target="_top" xlink:title="This file implements the &#45;llzk&#45;duplicate&#45;read&#45;write&#45;elim pass.">
<polygon fill="white" stroke="#666666" points="1433,-97 1264.75,-97 1264.75,-66.5 1433,-66.5 1433,-97"/>
<text text-anchor="start" x="1272.75" y="-83.5" font-family="Helvetica,sans-Serif" font-size="10.00">lib/Transforms/LLZKRedundant</text>
<text text-anchor="middle" x="1348.88" y="-72.25" font-family="Helvetica,sans-Serif" font-size="10.00">ReadAndWriteEliminationPass.cpp</text>
</a>
</g>
</g>
<!-- Node1&#45;&gt;Node12 -->
<g id="edge11_Node000001_Node000012" class="edge">
<title>Node1&#45;&gt;Node12</title>
<g id="a_edge11_Node000001_Node000012"><a xlink:title=" ">
<path fill="none" stroke="#63b8ff" d="M868.74,-141.21C955.01,-132.47 1117.72,-115.32 1255.88,-97 1258.79,-96.61 1261.75,-96.21 1264.75,-95.8"/>
<polygon fill="#63b8ff" stroke="#63b8ff" points="868.45,-137.72 858.85,-142.21 869.15,-144.69 868.45,-137.72"/>
</a>
</g>
</g>
<!-- Node13 -->
<g id="Node000013" class="node">
<title>Node13</title>
<g id="a_Node000013"><a xlink:href="_symbol_helper_8cpp.html" target="_top" xlink:title="This file contains the implementations for symbol helper functions.">
<polygon fill="white" stroke="#666666" points="1577,-91.38 1450.75,-91.38 1450.75,-72.12 1577,-72.12 1577,-91.38"/>
<text text-anchor="middle" x="1513.88" y="-77.88" font-family="Helvetica,sans-Serif" font-size="10.00">lib/Util/SymbolHelper.cpp</text>
</a>
</g>
</g>
<!-- Node1&#45;&gt;Node13 -->
<g id="edge12_Node000001_Node000013" class="edge">
<title>Node1&#45;&gt;Node13</title>
<g id="a_edge12_Node000001_Node000013"><a xlink:title=" ">
<path fill="none" stroke="#63b8ff" d="M868.58,-144.79C981.75,-139.68 1232.5,-125.92 1441.88,-97 1451.72,-95.64 1462.25,-93.79 1472.13,-91.87"/>
<polygon fill="#63b8ff" stroke="#63b8ff" points="868.76,-141.28 858.92,-145.22 869.07,-148.27 868.76,-141.28"/>
</a>
</g>
</g>
<!-- Node3 -->
<g id="Node000003" class="node">
<title>Node3</title>
<g id="a_Node000003"><a xlink:href="_interval_analysis_8cpp.html" target="_top" xlink:title=" ">
<polygon fill="white" stroke="#666666" points="157.75,-24.88 0,-24.88 0,-5.63 157.75,-5.63 157.75,-24.88"/>
<text text-anchor="middle" x="78.88" y="-11.38" font-family="Helvetica,sans-Serif" font-size="10.00">lib/Analysis/IntervalAnalysis.cpp</text>
</a>
</g>
</g>
<!-- Node2&#45;&gt;Node3 -->
<g id="edge2_Node000002_Node000003" class="edge">
<title>Node2&#45;&gt;Node3</title>
<g id="a_edge2_Node000002_Node000003"><a xlink:title=" ">
<path fill="none" stroke="#63b8ff" d="M134.14,-59.2C119.16,-47.56 101.48,-33.82 90.23,-25.07"/>
<polygon fill="#63b8ff" stroke="#63b8ff" points="131.8,-61.81 141.85,-65.19 136.1,-56.29 131.8,-61.81"/>
</a>
</g>
</g>
<!-- Node4 -->
<g id="Node000004" class="node">
<title>Node4</title>
<g id="a_Node000004"><a xlink:href="_interval_analysis_pass_8cpp.html" target="_top" xlink:title="This file implements the &#45;llzk&#45;print&#45;interval&#45;analysis pass.">
<polygon fill="white" stroke="#666666" points="314.38,-30.5 175.38,-30.5 175.38,0 314.38,0 314.38,-30.5"/>
<text text-anchor="start" x="183.38" y="-17" font-family="Helvetica,sans-Serif" font-size="10.00">lib/Analysis/IntervalAnalysis</text>
<text text-anchor="middle" x="244.88" y="-5.75" font-family="Helvetica,sans-Serif" font-size="10.00">Pass.cpp</text>
</a>
</g>
</g>
<!-- Node2&#45;&gt;Node4 -->
<g id="edge3_Node000002_Node000004" class="edge">
<title>Node2&#45;&gt;Node4</title>
<g id="a_edge3_Node000002_Node000004"><a xlink:title=" ">
<path fill="none" stroke="#63b8ff" d="M189.49,-59.29C201.52,-49.94 215.3,-39.23 226.12,-30.83"/>
<polygon fill="#63b8ff" stroke="#63b8ff" points="187.65,-56.29 181.9,-65.19 191.95,-61.81 187.65,-56.29"/>
</a>
</g>
</g>
</g>
</svg>
