<?xml version="1.0" encoding="UTF-8" standalone="no"?>
<!DOCTYPE svg PUBLIC "-//W3C//DTD SVG 1.1//EN"
 "http://www.w3.org/Graphics/SVG/1.1/DTD/svg11.dtd">
<!-- Generated by graphviz version 12.2.1 (20241206.2353)
 -->
<!-- Title: build/include/llzk/Dialect/Array/IR/Types.h.inc Pages: 1 -->
<svg width="2045pt" height="305pt"
 viewBox="0.00 0.00 2045.38 304.50" xmlns="http://www.w3.org/2000/svg" xmlns:xlink="http://www.w3.org/1999/xlink">
<g id="graph0" class="graph" transform="scale(1 1) rotate(0) translate(4 300.5)">
<title>build/include/llzk/Dialect/Array/IR/Types.h.inc</title>
<!-- Node1 -->
<g id="Node000001" class="node">
<title>Node1</title>
<g id="a_Node000001"><a xlink:title=" ">
<polygon fill="#999999" stroke="#666666" points="1650.62,-296.5 1507.88,-296.5 1507.88,-266 1650.62,-266 1650.62,-296.5"/>
<text text-anchor="start" x="1515.88" y="-283" font-family="Helvetica,sans-Serif" font-size="10.00">build/include/llzk</text>
<text text-anchor="middle" x="1579.25" y="-271.75" font-family="Helvetica,sans-Serif" font-size="10.00">/Dialect/Array/IR/Types.h.inc</text>
</a>
</g>
</g>
<!-- Node2 -->
<g id="Node000002" class="node">
<title>Node2</title>
<g id="a_Node000002"><a xlink:href="_array_2_i_r_2_types_8h.html" target="_top" xlink:title=" ">
<polygon fill="white" stroke="#666666" points="1628.5,-230 1530,-230 1530,-199.5 1628.5,-199.5 1628.5,-230"/>
<text text-anchor="start" x="1538" y="-216.5" font-family="Helvetica,sans-Serif" font-size="10.00">include/llzk/Dialect</text>
<text text-anchor="middle" x="1579.25" y="-205.25" font-family="Helvetica,sans-Serif" font-size="10.00">/Array/IR/Types.h</text>
</a>
</g>
</g>
<!-- Node1&#45;&gt;Node2 -->
<g id="edge1_Node000001_Node000002" class="edge">
<title>Node1&#45;&gt;Node2</title>
<g id="a_edge1_Node000001_Node000002"><a xlink:title=" ">
<path fill="none" stroke="#63b8ff" d="M1579.25,-254.31C1579.25,-246.14 1579.25,-237.41 1579.25,-230.33"/>
<polygon fill="#63b8ff" stroke="#63b8ff" points="1575.75,-254.1 1579.25,-264.1 1582.75,-254.1 1575.75,-254.1"/>
</a>
</g>
</g>
<!-- Node3 -->
<g id="Node000003" class="node">
<title>Node3</title>
<g id="a_Node000003"><a xlink:href="_array_2_i_r_2_ops_8h.html" target="_top" xlink:title=" ">
<polygon fill="white" stroke="#666666" points="1313.5,-163.5 1215,-163.5 1215,-133 1313.5,-133 1313.5,-163.5"/>
<text text-anchor="start" x="1223" y="-150" font-family="Helvetica,sans-Serif" font-size="10.00">include/llzk/Dialect</text>
<text text-anchor="middle" x="1264.25" y="-138.75" font-family="Helvetica,sans-Serif" font-size="10.00">/Array/IR/Ops.h</text>
</a>
</g>
</g>
<!-- Node2&#45;&gt;Node3 -->
<g id="edge2_Node000002_Node000003" class="edge">
<title>Node2&#45;&gt;Node3</title>
<g id="a_edge2_Node000002_Node000003"><a xlink:title=" ">
<path fill="none" stroke="#63b8ff" d="M1518.56,-201.32C1458.98,-189.12 1369.2,-170.74 1313.79,-159.39"/>
<polygon fill="#63b8ff" stroke="#63b8ff" points="1517.7,-204.72 1528.2,-203.3 1519.11,-197.86 1517.7,-204.72"/>
</a>
</g>
</g>
<!-- Node9 -->
<g id="Node000009" class="node">
<title>Node9</title>
<g id="a_Node000009"><a xlink:href="_array_2_i_r_2_dialect_8cpp.html" target="_top" xlink:title=" ">
<polygon fill="white" stroke="#666666" points="997.88,-97 898.62,-97 898.62,-66.5 997.88,-66.5 997.88,-97"/>
<text text-anchor="start" x="906.62" y="-83.5" font-family="Helvetica,sans-Serif" font-size="10.00">lib/Dialect/Array/IR</text>
<text text-anchor="middle" x="948.25" y="-72.25" font-family="Helvetica,sans-Serif" font-size="10.00">/Dialect.cpp</text>
</a>
</g>
</g>
<!-- Node2&#45;&gt;Node9 -->
<g id="edge27_Node000002_Node000009" class="edge">
<title>Node2&#45;&gt;Node9</title>
<g id="a_edge27_Node000002_Node000009"><a xlink:title=" ">
<path fill="none" stroke="#63b8ff" d="M1518.15,-208.72C1443.82,-201.87 1314.78,-187.61 1206.25,-163.5 1127.44,-145.99 1038.07,-115.56 987.9,-97.47"/>
<polygon fill="#63b8ff" stroke="#63b8ff" points="1517.82,-212.21 1528.1,-209.62 1518.45,-205.23 1517.82,-212.21"/>
</a>
</g>
</g>
<!-- Node11 -->
<g id="Node000011" class="node">
<title>Node11</title>
<g id="a_Node000011"><a xlink:href="_array_2_i_r_2_types_8cpp.html" target="_top" xlink:title=" ">
<polygon fill="white" stroke="#666666" points="1882.88,-97 1783.62,-97 1783.62,-66.5 1882.88,-66.5 1882.88,-97"/>
<text text-anchor="start" x="1791.62" y="-83.5" font-family="Helvetica,sans-Serif" font-size="10.00">lib/Dialect/Array/IR</text>
<text text-anchor="middle" x="1833.25" y="-72.25" font-family="Helvetica,sans-Serif" font-size="10.00">/Types.cpp</text>
</a>
</g>
</g>
<!-- Node2&#45;&gt;Node11 -->
<g id="edge28_Node000002_Node000011" class="edge">
<title>Node2&#45;&gt;Node11</title>
<g id="a_edge28_Node000002_Node000011"><a xlink:title=" ">
<path fill="none" stroke="#63b8ff" d="M1614.19,-193.35C1628.69,-184.55 1645.54,-173.91 1660.25,-163.5 1677.93,-150.99 1679.42,-143.69 1698.25,-133 1724.89,-117.88 1756.95,-105.72 1783.14,-97.15"/>
<polygon fill="#63b8ff" stroke="#63b8ff" points="1612.64,-190.19 1605.87,-198.34 1616.24,-196.19 1612.64,-190.19"/>
</a>
</g>
</g>
<!-- Node16 -->
<g id="Node000016" class="node">
<title>Node16</title>
<g id="a_Node000016"><a xlink:href="_array_type_helper_8h.html" target="_top" xlink:title=" ">
<polygon fill="white" stroke="#666666" points="1651,-163.5 1507.5,-163.5 1507.5,-133 1651,-133 1651,-163.5"/>
<text text-anchor="start" x="1515.5" y="-150" font-family="Helvetica,sans-Serif" font-size="10.00">include/llzk/Dialect</text>
<text text-anchor="middle" x="1579.25" y="-138.75" font-family="Helvetica,sans-Serif" font-size="10.00">/Array/Util/ArrayTypeHelper.h</text>
</a>
</g>
</g>
<!-- Node2&#45;&gt;Node16 -->
<g id="edge15_Node000002_Node000016" class="edge">
<title>Node2&#45;&gt;Node16</title>
<g id="a_edge15_Node000002_Node000016"><a xlink:title=" ">
<path fill="none" stroke="#63b8ff" d="M1579.25,-187.81C1579.25,-179.64 1579.25,-170.91 1579.25,-163.83"/>
<polygon fill="#63b8ff" stroke="#63b8ff" points="1575.75,-187.6 1579.25,-197.6 1582.75,-187.6 1575.75,-187.6"/>
</a>
</g>
</g>
<!-- Node18 -->
<g id="Node000018" class="node">
<title>Node18</title>
<g id="a_Node000018"><a xlink:href="_constrain_2_i_r_2_ops_8h.html" target="_top" xlink:title=" ">
<polygon fill="white" stroke="#666666" points="520.12,-163.5 416.38,-163.5 416.38,-133 520.12,-133 520.12,-163.5"/>
<text text-anchor="start" x="424.38" y="-150" font-family="Helvetica,sans-Serif" font-size="10.00">include/llzk/Dialect</text>
<text text-anchor="middle" x="468.25" y="-138.75" font-family="Helvetica,sans-Serif" font-size="10.00">/Constrain/IR/Ops.h</text>
</a>
</g>
</g>
<!-- Node2&#45;&gt;Node18 -->
<g id="edge20_Node000002_Node000018" class="edge">
<title>Node2&#45;&gt;Node18</title>
<g id="a_edge20_Node000002_Node000018"><a xlink:title=" ">
<path fill="none" stroke="#63b8ff" d="M1518.47,-210.22C1321.79,-198.8 704.75,-162.98 520.62,-152.29"/>
<polygon fill="#63b8ff" stroke="#63b8ff" points="1518.02,-213.7 1528.21,-210.79 1518.43,-206.71 1518.02,-213.7"/>
</a>
</g>
</g>
<!-- Node20 -->
<g id="Node000020" class="node">
<title>Node20</title>
<g id="a_Node000020"><a xlink:href="_constrain_2_i_r_2_ops_8cpp.html" target="_top" xlink:title=" ">
<polygon fill="white" stroke="#666666" points="104.5,-97 0,-97 0,-66.5 104.5,-66.5 104.5,-97"/>
<text text-anchor="start" x="8" y="-83.5" font-family="Helvetica,sans-Serif" font-size="10.00">lib/Dialect/Constrain</text>
<text text-anchor="middle" x="52.25" y="-72.25" font-family="Helvetica,sans-Serif" font-size="10.00">/IR/Ops.cpp</text>
</a>
</g>
</g>
<!-- Node2&#45;&gt;Node20 -->
<g id="edge29_Node000002_Node000020" class="edge">
<title>Node2&#45;&gt;Node20</title>
<g id="a_edge29_Node000002_Node000020"><a xlink:title=" ">
<path fill="none" stroke="#63b8ff" d="M1518.44,-212.59C1310,-208.4 625.3,-192.68 407.25,-163.5 297.62,-148.83 171.98,-116.48 103.45,-97.48"/>
<polygon fill="#63b8ff" stroke="#63b8ff" points="1518.16,-216.09 1528.23,-212.79 1518.3,-209.09 1518.16,-216.09"/>
</a>
</g>
</g>
<!-- Node22 -->
<g id="Node000022" class="node">
<title>Node22</title>
<g id="a_Node000022"><a xlink:href="_global_2_i_r_2_ops_8cpp.html" target="_top" xlink:title=" ">
<polygon fill="white" stroke="#666666" points="1797.38,-163.5 1707.12,-163.5 1707.12,-133 1797.38,-133 1797.38,-163.5"/>
<text text-anchor="start" x="1715.12" y="-150" font-family="Helvetica,sans-Serif" font-size="10.00">lib/Dialect/Global</text>
<text text-anchor="middle" x="1752.25" y="-138.75" font-family="Helvetica,sans-Serif" font-size="10.00">/IR/Ops.cpp</text>
</a>
</g>
</g>
<!-- Node2&#45;&gt;Node22 -->
<g id="edge30_Node000002_Node000022" class="edge">
<title>Node2&#45;&gt;Node22</title>
<g id="a_edge30_Node000002_Node000022"><a xlink:title=" ">
<path fill="none" stroke="#63b8ff" d="M1629.15,-195.15C1655.75,-185.23 1688.02,-173.2 1712.85,-163.94"/>
<polygon fill="#63b8ff" stroke="#63b8ff" points="1628.07,-191.81 1619.92,-198.59 1630.52,-198.37 1628.07,-191.81"/>
</a>
</g>
</g>
<!-- Node23 -->
<g id="Node000023" class="node">
<title>Node23</title>
<g id="a_Node000023"><a xlink:href="_struct_2_i_r_2_ops_8cpp.html" target="_top" xlink:title=" ">
<polygon fill="white" stroke="#666666" points="1904.62,-163.5 1815.88,-163.5 1815.88,-133 1904.62,-133 1904.62,-163.5"/>
<text text-anchor="start" x="1823.88" y="-150" font-family="Helvetica,sans-Serif" font-size="10.00">lib/Dialect/Struct</text>
<text text-anchor="middle" x="1860.25" y="-138.75" font-family="Helvetica,sans-Serif" font-size="10.00">/IR/Ops.cpp</text>
</a>
</g>
</g>
<!-- Node2&#45;&gt;Node23 -->
<g id="edge31_Node000002_Node000023" class="edge">
<title>Node2&#45;&gt;Node23</title>
<g id="a_edge31_Node000002_Node000023"><a xlink:title=" ">
<path fill="none" stroke="#63b8ff" d="M1640.21,-200.95C1686,-191.17 1750.2,-177.09 1806.25,-163.5 1809.27,-162.77 1812.37,-162 1815.5,-161.21"/>
<polygon fill="#63b8ff" stroke="#63b8ff" points="1639.51,-197.52 1630.46,-203.03 1640.97,-204.37 1639.51,-197.52"/>
</a>
</g>
</g>
<!-- Node24 -->
<g id="Node000024" class="node">
<title>Node24</title>
<g id="a_Node000024"><a xlink:href="_type_helper_8cpp.html" target="_top" xlink:title=" ">
<polygon fill="white" stroke="#666666" points="2037.38,-157.88 1923.12,-157.88 1923.12,-138.62 2037.38,-138.62 2037.38,-157.88"/>
<text text-anchor="middle" x="1980.25" y="-144.38" font-family="Helvetica,sans-Serif" font-size="10.00">lib/Util/TypeHelper.cpp</text>
</a>
</g>
</g>
<!-- Node2&#45;&gt;Node24 -->
<g id="edge32_Node000002_Node000024" class="edge">
<title>Node2&#45;&gt;Node24</title>
<g id="a_edge32_Node000002_Node000024"><a xlink:title=" ">
<path fill="none" stroke="#63b8ff" d="M1640.11,-205.72C1707.19,-196.6 1818.21,-180.74 1913.25,-163.5 1921.79,-161.95 1930.91,-160.13 1939.58,-158.31"/>
<polygon fill="#63b8ff" stroke="#63b8ff" points="1639.86,-202.22 1630.42,-207.03 1640.8,-209.15 1639.86,-202.22"/>
</a>
</g>
</g>
<!-- Node4 -->
<g id="Node000004" class="node">
<title>Node4</title>
<g id="a_Node000004"><a xlink:href="_interval_analysis_8h.html" target="_top" xlink:title=" ">
<polygon fill="white" stroke="#666666" points="520.88,-97 415.62,-97 415.62,-66.5 520.88,-66.5 520.88,-97"/>
<text text-anchor="start" x="423.62" y="-83.5" font-family="Helvetica,sans-Serif" font-size="10.00">include/llzk/Analysis</text>
<text text-anchor="middle" x="468.25" y="-72.25" font-family="Helvetica,sans-Serif" font-size="10.00">/IntervalAnalysis.h</text>
</a>
</g>
</g>
<!-- Node3&#45;&gt;Node4 -->
<g id="edge3_Node000003_Node000004" class="edge">
<title>Node3&#45;&gt;Node4</title>
<g id="a_edge3_Node000003_Node000004"><a xlink:title=" ">
<path fill="none" stroke="#63b8ff" d="M1203.62,-146.4C1077.43,-143.92 777.63,-134.25 529.25,-97 526.56,-96.6 523.82,-96.14 521.05,-95.63"/>
<polygon fill="#63b8ff" stroke="#63b8ff" points="1203.35,-149.9 1213.41,-146.59 1203.48,-142.9 1203.35,-149.9"/>
</a>
</g>
</g>
<!-- Node7 -->
<g id="Node000007" class="node">
<title>Node7</title>
<g id="a_Node000007"><a xlink:href="_constrain_ref_8cpp.html" target="_top" xlink:title=" ">
<polygon fill="white" stroke="#666666" points="1162.12,-91.38 1016.38,-91.38 1016.38,-72.12 1162.12,-72.12 1162.12,-91.38"/>
<text text-anchor="middle" x="1089.25" y="-77.88" font-family="Helvetica,sans-Serif" font-size="10.00">lib/Analysis/ConstrainRef.cpp</text>
</a>
</g>
</g>
<!-- Node3&#45;&gt;Node7 -->
<g id="edge6_Node000003_Node000007" class="edge">
<title>Node3&#45;&gt;Node7</title>
<g id="a_edge6_Node000003_Node000007"><a xlink:title=" ">
<path fill="none" stroke="#63b8ff" d="M1213.79,-128.65C1181.03,-116.58 1139.78,-101.37 1113.95,-91.85"/>
<polygon fill="#63b8ff" stroke="#63b8ff" points="1212.53,-131.92 1223.12,-132.09 1214.95,-125.35 1212.53,-131.92"/>
</a>
</g>
</g>
<!-- Node8 -->
<g id="Node000008" class="node">
<title>Node8</title>
<g id="a_Node000008"><a xlink:href="_constraint_dependency_graph_8cpp.html" target="_top" xlink:title=" ">
<polygon fill="white" stroke="#666666" points="707.75,-97 538.75,-97 538.75,-66.5 707.75,-66.5 707.75,-97"/>
<text text-anchor="start" x="546.75" y="-83.5" font-family="Helvetica,sans-Serif" font-size="10.00">lib/Analysis/ConstraintDependency</text>
<text text-anchor="middle" x="623.25" y="-72.25" font-family="Helvetica,sans-Serif" font-size="10.00">Graph.cpp</text>
</a>
</g>
</g>
<!-- Node3&#45;&gt;Node8 -->
<g id="edge7_Node000003_Node000008" class="edge">
<title>Node3&#45;&gt;Node8</title>
<g id="a_edge7_Node000003_Node000008"><a xlink:title=" ">
<path fill="none" stroke="#63b8ff" d="M1203.43,-142.88C1102.17,-135.34 892.71,-118.59 716.25,-97 713.49,-96.66 710.69,-96.31 707.87,-95.94"/>
<polygon fill="#63b8ff" stroke="#63b8ff" points="1202.91,-146.35 1213.14,-143.6 1203.42,-139.37 1202.91,-146.35"/>
</a>
</g>
</g>
<!-- Node3&#45;&gt;Node9 -->
<g id="edge8_Node000003_Node000009" class="edge">
<title>Node3&#45;&gt;Node9</title>
<g id="a_edge8_Node000003_Node000009"><a xlink:title=" ">
<path fill="none" stroke="#63b8ff" d="M1203.78,-136.2C1151.6,-126.48 1074.28,-111.64 1007.25,-97 1004.26,-96.35 1001.2,-95.66 998.11,-94.95"/>
<polygon fill="#63b8ff" stroke="#63b8ff" points="1202.89,-139.6 1213.36,-137.98 1204.17,-132.71 1202.89,-139.6"/>
</a>
</g>
</g>
<!-- Node10 -->
<g id="Node000010" class="node">
<title>Node10</title>
<g id="a_Node000010"><a xlink:href="_array_2_i_r_2_ops_8cpp.html" target="_top" xlink:title=" ">
<polygon fill="white" stroke="#666666" points="1765.88,-97 1666.62,-97 1666.62,-66.5 1765.88,-66.5 1765.88,-97"/>
<text text-anchor="start" x="1674.62" y="-83.5" font-family="Helvetica,sans-Serif" font-size="10.00">lib/Dialect/Array/IR</text>
<text text-anchor="middle" x="1716.25" y="-72.25" font-family="Helvetica,sans-Serif" font-size="10.00">/Ops.cpp</text>
</a>
</g>
</g>
<!-- Node3&#45;&gt;Node10 -->
<g id="edge9_Node000003_Node000010" class="edge">
<title>Node3&#45;&gt;Node10</title>
<g id="a_edge9_Node000003_Node000010"><a xlink:title=" ">
<path fill="none" stroke="#63b8ff" d="M1325.3,-141.54C1402.85,-133.81 1540.63,-118.47 1657.25,-97 1660.26,-96.45 1663.34,-95.84 1666.44,-95.19"/>
<polygon fill="#63b8ff" stroke="#63b8ff" points="1324.96,-138.06 1315.35,-142.52 1325.64,-145.03 1324.96,-138.06"/>
</a>
</g>
</g>
<!-- Node3&#45;&gt;Node11 -->
<g id="edge10_Node000003_Node000011" class="edge">
<title>Node3&#45;&gt;Node11</title>
<g id="a_edge10_Node000003_Node000011"><a xlink:title=" ">
<path fill="none" stroke="#63b8ff" d="M1325.13,-144.08C1421.29,-138.45 1613.98,-124.59 1775.25,-97 1777.91,-96.55 1780.62,-96.04 1783.36,-95.49"/>
<polygon fill="#63b8ff" stroke="#63b8ff" points="1325.19,-140.57 1315.4,-144.64 1325.59,-147.56 1325.19,-140.57"/>
</a>
</g>
</g>
<!-- Node12 -->
<g id="Node000012" class="node">
<title>Node12</title>
<g id="a_Node000012"><a xlink:href="_array_to_scalar_pass_8cpp.html" target="_top" xlink:title="This file implements the &#45;llzk&#45;array&#45;to&#45;scalar pass.">
<polygon fill="white" stroke="#666666" points="1648.38,-97 1510.12,-97 1510.12,-66.5 1648.38,-66.5 1648.38,-97"/>
<text text-anchor="start" x="1518.12" y="-83.5" font-family="Helvetica,sans-Serif" font-size="10.00">lib/Dialect/Array/Transforms</text>
<text text-anchor="middle" x="1579.25" y="-72.25" font-family="Helvetica,sans-Serif" font-size="10.00">/ArrayToScalarPass.cpp</text>
</a>
</g>
</g>
<!-- Node3&#45;&gt;Node12 -->
<g id="edge11_Node000003_Node000012" class="edge">
<title>Node3&#45;&gt;Node12</title>
<g id="a_edge11_Node000003_Node000012"><a xlink:title=" ">
<path fill="none" stroke="#63b8ff" d="M1325.05,-134.8C1377.93,-123.97 1454.52,-108.29 1509.79,-96.97"/>
<polygon fill="#63b8ff" stroke="#63b8ff" points="1324.39,-131.36 1315.3,-136.8 1325.8,-138.22 1324.39,-131.36"/>
</a>
</g>
</g>
<!-- Node13 -->
<g id="Node000013" class="node">
<title>Node13</title>
<g id="a_Node000013"><a xlink:href="_flattening_pass_8cpp.html" target="_top" xlink:title="This file implements the &#45;llzk&#45;flatten pass.">
<polygon fill="white" stroke="#666666" points="881,-97 725.5,-97 725.5,-66.5 881,-66.5 881,-97"/>
<text text-anchor="start" x="733.5" y="-83.5" font-family="Helvetica,sans-Serif" font-size="10.00">lib/Dialect/Polymorphic</text>
<text text-anchor="middle" x="803.25" y="-72.25" font-family="Helvetica,sans-Serif" font-size="10.00">/Transforms/FlatteningPass.cpp</text>
</a>
</g>
</g>
<!-- Node3&#45;&gt;Node13 -->
<g id="edge12_Node000003_Node000013" class="edge">
<title>Node3&#45;&gt;Node13</title>
<g id="a_edge12_Node000003_Node000013"><a xlink:title=" ">
<path fill="none" stroke="#63b8ff" d="M1203.76,-139.73C1129.57,-130.37 1000.01,-113.59 889.25,-97 886.56,-96.6 883.82,-96.18 881.05,-95.75"/>
<polygon fill="#63b8ff" stroke="#63b8ff" points="1202.88,-143.15 1213.24,-140.92 1203.75,-136.2 1202.88,-143.15"/>
</a>
</g>
</g>
<!-- Node14 -->
<g id="Node000014" class="node">
<title>Node14</title>
<g id="a_Node000014"><a xlink:href="_l_l_z_k_redundant_read_and_write_elimination_pass_8cpp.html" target="_top" xlink:title="This file implements the &#45;llzk&#45;duplicate&#45;read&#45;write&#45;elim pass.">
<polygon fill="white" stroke="#666666" points="1348.38,-97 1180.12,-97 1180.12,-66.5 1348.38,-66.5 1348.38,-97"/>
<text text-anchor="start" x="1188.12" y="-83.5" font-family="Helvetica,sans-Serif" font-size="10.00">lib/Transforms/LLZKRedundant</text>
<text text-anchor="middle" x="1264.25" y="-72.25" font-family="Helvetica,sans-Serif" font-size="10.00">ReadAndWriteEliminationPass.cpp</text>
</a>
</g>
</g>
<!-- Node3&#45;&gt;Node14 -->
<g id="edge13_Node000003_Node000014" class="edge">
<title>Node3&#45;&gt;Node14</title>
<g id="a_edge13_Node000003_Node000014"><a xlink:title=" ">
<path fill="none" stroke="#63b8ff" d="M1264.25,-121.31C1264.25,-113.14 1264.25,-104.41 1264.25,-97.33"/>
<polygon fill="#63b8ff" stroke="#63b8ff" points="1260.75,-121.1 1264.25,-131.1 1267.75,-121.1 1260.75,-121.1"/>
</a>
</g>
</g>
<!-- Node15 -->
<g id="Node000015" class="node">
<title>Node15</title>
<g id="a_Node000015"><a xlink:href="_symbol_helper_8cpp.html" target="_top" xlink:title="This file contains the implementations for symbol helper functions.">
<polygon fill="white" stroke="#666666" points="1492.38,-91.38 1366.12,-91.38 1366.12,-72.12 1492.38,-72.12 1492.38,-91.38"/>
<text text-anchor="middle" x="1429.25" y="-77.88" font-family="Helvetica,sans-Serif" font-size="10.00">lib/Util/SymbolHelper.cpp</text>
</a>
</g>
</g>
<!-- Node3&#45;&gt;Node15 -->
<g id="edge14_Node000003_Node000015" class="edge">
<title>Node3&#45;&gt;Node15</title>
<g id="a_edge14_Node000003_Node000015"><a xlink:title=" ">
<path fill="none" stroke="#63b8ff" d="M1312.26,-128.48C1343.18,-116.4 1381.98,-101.23 1406.2,-91.76"/>
<polygon fill="#63b8ff" stroke="#63b8ff" points="1311.14,-125.16 1303.1,-132.06 1313.69,-131.68 1311.14,-125.16"/>
</a>
</g>
</g>
<!-- Node5 -->
<g id="Node000005" class="node">
<title>Node5</title>
<g id="a_Node000005"><a xlink:href="_interval_analysis_8cpp.html" target="_top" xlink:title=" ">
<polygon fill="white" stroke="#666666" points="464.12,-24.88 306.38,-24.88 306.38,-5.63 464.12,-5.63 464.12,-24.88"/>
<text text-anchor="middle" x="385.25" y="-11.38" font-family="Helvetica,sans-Serif" font-size="10.00">lib/Analysis/IntervalAnalysis.cpp</text>
</a>
</g>
</g>
<!-- Node4&#45;&gt;Node5 -->
<g id="edge4_Node000004_Node000005" class="edge">
<title>Node4&#45;&gt;Node5</title>
<g id="a_edge4_Node000004_Node000005"><a xlink:title=" ">
<path fill="none" stroke="#63b8ff" d="M440.52,-59.2C425.54,-47.56 407.86,-33.82 396.6,-25.07"/>
<polygon fill="#63b8ff" stroke="#63b8ff" points="438.18,-61.81 448.22,-65.19 442.47,-56.29 438.18,-61.81"/>
</a>
</g>
</g>
<!-- Node6 -->
<g id="Node000006" class="node">
<title>Node6</title>
<g id="a_Node000006"><a xlink:href="_interval_analysis_pass_8cpp.html" target="_top" xlink:title="This file implements the &#45;llzk&#45;print&#45;interval&#45;analysis pass.">
<polygon fill="white" stroke="#666666" points="620.75,-30.5 481.75,-30.5 481.75,0 620.75,0 620.75,-30.5"/>
<text text-anchor="start" x="489.75" y="-17" font-family="Helvetica,sans-Serif" font-size="10.00">lib/Analysis/IntervalAnalysis</text>
<text text-anchor="middle" x="551.25" y="-5.75" font-family="Helvetica,sans-Serif" font-size="10.00">Pass.cpp</text>
</a>
</g>
</g>
<!-- Node4&#45;&gt;Node6 -->
<g id="edge5_Node000004_Node000006" class="edge">
<title>Node4&#45;&gt;Node6</title>
<g id="a_edge5_Node000004_Node000006"><a xlink:title=" ">
<path fill="none" stroke="#63b8ff" d="M495.86,-59.29C507.89,-49.94 521.68,-39.23 532.49,-30.83"/>
<polygon fill="#63b8ff" stroke="#63b8ff" points="494.03,-56.29 488.28,-65.19 498.32,-61.81 494.03,-56.29"/>
</a>
</g>
</g>
<!-- Node16&#45;&gt;Node10 -->
<g id="edge16_Node000016_Node000010" class="edge">
<title>Node16&#45;&gt;Node10</title>
<g id="a_edge16_Node000016_Node000010"><a xlink:title=" ">
<path fill="none" stroke="#63b8ff" d="M1620.5,-127.83C1641.31,-118.03 1666.13,-106.35 1685.29,-97.33"/>
<polygon fill="#63b8ff" stroke="#63b8ff" points="1619.26,-124.54 1611.71,-131.97 1622.25,-130.88 1619.26,-124.54"/>
</a>
</g>
</g>
<!-- Node16&#45;&gt;Node11 -->
<g id="edge17_Node000016_Node000011" class="edge">
<title>Node16&#45;&gt;Node11</title>
<g id="a_edge17_Node000016_Node000011"><a xlink:title=" ">
<path fill="none" stroke="#63b8ff" d="M1648.35,-129.7C1691,-118.87 1744.73,-105.23 1783.26,-95.44"/>
<polygon fill="#63b8ff" stroke="#63b8ff" points="1647.5,-126.31 1638.67,-132.16 1649.23,-133.09 1647.5,-126.31"/>
</a>
</g>
</g>
<!-- Node16&#45;&gt;Node12 -->
<g id="edge18_Node000016_Node000012" class="edge">
<title>Node16&#45;&gt;Node12</title>
<g id="a_edge18_Node000016_Node000012"><a xlink:title=" ">
<path fill="none" stroke="#63b8ff" d="M1579.25,-121.31C1579.25,-113.14 1579.25,-104.41 1579.25,-97.33"/>
<polygon fill="#63b8ff" stroke="#63b8ff" points="1575.75,-121.1 1579.25,-131.1 1582.75,-121.1 1575.75,-121.1"/>
</a>
</g>
</g>
<!-- Node17 -->
<g id="Node000017" class="node">
<title>Node17</title>
<g id="a_Node000017"><a xlink:href="_array_type_helper_8cpp.html" target="_top" xlink:title="This file contains the implementation for array type helpers.">
<polygon fill="white" stroke="#666666" points="2011.12,-97 1901.38,-97 1901.38,-66.5 2011.12,-66.5 2011.12,-97"/>
<text text-anchor="start" x="1909.38" y="-83.5" font-family="Helvetica,sans-Serif" font-size="10.00">lib/Dialect/Array/Util</text>
<text text-anchor="middle" x="1956.25" y="-72.25" font-family="Helvetica,sans-Serif" font-size="10.00">/ArrayTypeHelper.cpp</text>
</a>
</g>
</g>
<!-- Node16&#45;&gt;Node17 -->
<g id="edge19_Node000016_Node000017" class="edge">
<title>Node16&#45;&gt;Node17</title>
<g id="a_edge19_Node000016_Node000017"><a xlink:title=" ">
<path fill="none" stroke="#63b8ff" d="M1662.36,-135.29C1725.57,-125.86 1814.61,-111.86 1892.25,-97 1895.16,-96.44 1898.13,-95.85 1901.14,-95.24"/>
<polygon fill="#63b8ff" stroke="#63b8ff" points="1662.13,-131.79 1652.75,-136.72 1663.16,-138.71 1662.13,-131.79"/>
</a>
</g>
</g>
<!-- Node18&#45;&gt;Node4 -->
<g id="edge21_Node000018_Node000004" class="edge">
<title>Node18&#45;&gt;Node4</title>
<g id="a_edge21_Node000018_Node000004"><a xlink:title=" ">
<path fill="none" stroke="#63b8ff" d="M468.25,-121.31C468.25,-113.14 468.25,-104.41 468.25,-97.33"/>
<polygon fill="#63b8ff" stroke="#63b8ff" points="464.75,-121.1 468.25,-131.1 471.75,-121.1 464.75,-121.1"/>
</a>
</g>
</g>
<!-- Node18&#45;&gt;Node8 -->
<g id="edge22_Node000018_Node000008" class="edge">
<title>Node18&#45;&gt;Node8</title>
<g id="a_edge22_Node000018_Node000008"><a xlink:title=" ">
<path fill="none" stroke="#63b8ff" d="M513.91,-128.25C537.56,-118.41 566,-106.57 587.95,-97.44"/>
<polygon fill="#63b8ff" stroke="#63b8ff" points="512.71,-124.96 504.82,-132.03 515.4,-131.42 512.71,-124.96"/>
</a>
</g>
</g>
<!-- Node18&#45;&gt;Node13 -->
<g id="edge25_Node000018_Node000013" class="edge">
<title>Node18&#45;&gt;Node13</title>
<g id="a_edge25_Node000018_Node000013"><a xlink:title=" ">
<path fill="none" stroke="#63b8ff" d="M531.68,-135.04C587.1,-124.37 667.71,-108.85 726.71,-97.49"/>
<polygon fill="#63b8ff" stroke="#63b8ff" points="531.24,-131.56 522.08,-136.89 532.56,-138.43 531.24,-131.56"/>
</a>
</g>
</g>
<!-- Node19 -->
<g id="Node000019" class="node">
<title>Node19</title>
<g id="a_Node000019"><a xlink:href="_constrain_2_i_r_2_dialect_8cpp.html" target="_top" xlink:title=" ">
<polygon fill="white" stroke="#666666" points="227.5,-97 123,-97 123,-66.5 227.5,-66.5 227.5,-97"/>
<text text-anchor="start" x="131" y="-83.5" font-family="Helvetica,sans-Serif" font-size="10.00">lib/Dialect/Constrain</text>
<text text-anchor="middle" x="175.25" y="-72.25" font-family="Helvetica,sans-Serif" font-size="10.00">/IR/Dialect.cpp</text>
</a>
</g>
</g>
<!-- Node18&#45;&gt;Node19 -->
<g id="edge23_Node000018_Node000019" class="edge">
<title>Node18&#45;&gt;Node19</title>
<g id="a_edge23_Node000018_Node000019"><a xlink:title=" ">
<path fill="none" stroke="#63b8ff" d="M404.98,-133.84C358.3,-123.87 293.26,-109.83 236.25,-97 233.49,-96.38 230.66,-95.74 227.81,-95.09"/>
<polygon fill="#63b8ff" stroke="#63b8ff" points="404.15,-137.24 414.66,-135.9 405.61,-130.39 404.15,-137.24"/>
</a>
</g>
</g>
<!-- Node18&#45;&gt;Node20 -->
<g id="edge24_Node000018_Node000020" class="edge">
<title>Node18&#45;&gt;Node20</title>
<g id="a_edge24_Node000018_Node000020"><a xlink:title=" ">
<path fill="none" stroke="#63b8ff" d="M404.72,-139.88C333.67,-131.26 215.28,-115.75 114.25,-97 111.21,-96.44 108.09,-95.82 104.95,-95.18"/>
<polygon fill="#63b8ff" stroke="#63b8ff" points="404.29,-143.36 414.64,-141.08 405.13,-136.41 404.29,-143.36"/>
</a>
</g>
</g>
<!-- Node21 -->
<g id="Node000021" class="node">
<title>Node21</title>
<g id="a_Node000021"><a xlink:href="_l_l_z_k_redundant_operation_elimination_pass_8cpp.html" target="_top" xlink:title="This file implements the &#45;llzk&#45;duplicate&#45;op&#45;elim pass.">
<polygon fill="white" stroke="#666666" points="397.12,-97 245.38,-97 245.38,-66.5 397.12,-66.5 397.12,-97"/>
<text text-anchor="start" x="253.38" y="-83.5" font-family="Helvetica,sans-Serif" font-size="10.00">lib/Transforms/LLZKRedundant</text>
<text text-anchor="middle" x="321.25" y="-72.25" font-family="Helvetica,sans-Serif" font-size="10.00">OperationEliminationPass.cpp</text>
</a>
</g>
</g>
<!-- Node18&#45;&gt;Node21 -->
<g id="edge26_Node000018_Node000021" class="edge">
<title>Node18&#45;&gt;Node21</title>
<g id="a_edge26_Node000018_Node000021"><a xlink:title=" ">
<path fill="none" stroke="#63b8ff" d="M424.64,-128.12C402.27,-118.3 375.45,-106.53 354.73,-97.44"/>
<polygon fill="#63b8ff" stroke="#63b8ff" points="422.94,-131.19 433.51,-132.01 425.76,-124.78 422.94,-131.19"/>
</a>
</g>
</g>
</g>
</svg>
