<?xml version="1.0" encoding="UTF-8" standalone="no"?>
<!DOCTYPE svg PUBLIC "-//W3C//DTD SVG 1.1//EN"
 "http://www.w3.org/Graphics/SVG/1.1/DTD/svg11.dtd">
<!-- Generated by graphviz version 12.2.1 (20241206.2353)
 -->
<!-- Title: include/llzk/Dialect/Array/Util/ArrayTypeHelper.h Pages: 1 -->
<svg width="1891pt" height="238pt"
 viewBox="0.00 0.00 1890.62 238.00" xmlns="http://www.w3.org/2000/svg" xmlns:xlink="http://www.w3.org/1999/xlink">
<g id="graph0" class="graph" transform="scale(1 1) rotate(0) translate(4 234)">
<title>include/llzk/Dialect/Array/Util/ArrayTypeHelper.h</title>
<!-- Node1 -->
<g id="Node000001" class="node">
<title>Node1</title>
<g id="a_Node000001"><a xlink:title=" ">
<polygon fill="#999999" stroke="#666666" points="1383.5,-230 1240,-230 1240,-199.5 1383.5,-199.5 1383.5,-230"/>
<text text-anchor="start" x="1248" y="-216.5" font-family="Helvetica,sans-Serif" font-size="10.00">include/llzk/Dialect</text>
<text text-anchor="middle" x="1311.75" y="-205.25" font-family="Helvetica,sans-Serif" font-size="10.00">/Array/Util/ArrayTypeHelper.h</text>
</a>
</g>
</g>
<!-- Node2 -->
<g id="Node000002" class="node">
<title>Node2</title>
<g id="a_Node000002"><a xlink:href="_array_2_i_r_2_types_8h.html" target="_top" xlink:title=" ">
<polygon fill="white" stroke="#666666" points="630.25,-163.5 539.25,-163.5 539.25,-133 630.25,-133 630.25,-163.5"/>
<text text-anchor="start" x="547.25" y="-150" font-family="Helvetica,sans-Serif" font-size="10.00">llzk/Dialect/Array</text>
<text text-anchor="middle" x="584.75" y="-138.75" font-family="Helvetica,sans-Serif" font-size="10.00">/IR/Types.h</text>
</a>
</g>
</g>
<!-- Node1&#45;&gt;Node2 -->
<g id="edge1_Node000001_Node000002" class="edge">
<title>Node1&#45;&gt;Node2</title>
<g id="a_edge1_Node000001_Node000002"><a xlink:title=" ">
<path fill="none" stroke="#63b8ff" d="M1239.72,-207.36C1095.22,-194.54 772.64,-165.92 641.67,-154.3"/>
<polygon fill="#63b8ff" stroke="#63b8ff" points="642.12,-150.83 631.85,-153.43 641.5,-157.8 642.12,-150.83"/>
</a>
</g>
</g>
<!-- Node13 -->
<g id="Node000013" class="node">
<title>Node13</title>
<g id="a_Node000013"><a xlink:href="_attribute_helper_8h.html" target="_top" xlink:title=" ">
<polygon fill="white" stroke="#666666" points="952,-163.5 847.5,-163.5 847.5,-133 952,-133 952,-163.5"/>
<text text-anchor="start" x="855.5" y="-150" font-family="Helvetica,sans-Serif" font-size="10.00">llzk/Dialect/LLZK/IR</text>
<text text-anchor="middle" x="899.75" y="-138.75" font-family="Helvetica,sans-Serif" font-size="10.00">/AttributeHelper.h</text>
</a>
</g>
</g>
<!-- Node1&#45;&gt;Node13 -->
<g id="edge12_Node000001_Node000013" class="edge">
<title>Node1&#45;&gt;Node13</title>
<g id="a_edge12_Node000001_Node000013"><a xlink:title=" ">
<path fill="none" stroke="#63b8ff" d="M1239.74,-205.19C1171.27,-196.65 1065.18,-182.37 963.54,-163.73"/>
<polygon fill="#63b8ff" stroke="#63b8ff" points="964.41,-160.33 953.94,-161.95 963.14,-167.22 964.41,-160.33"/>
</a>
</g>
</g>
<!-- Node16 -->
<g id="Node000016" class="node">
<title>Node16</title>
<g id="a_Node000016"><a xlink:title=" ">
<polygon fill="#e0e0e0" stroke="#999999" points="1069,-157.88 970.5,-157.88 970.5,-138.62 1069,-138.62 1069,-157.88"/>
<text text-anchor="middle" x="1019.75" y="-144.38" font-family="Helvetica,sans-Serif" font-size="10.00">mlir/IR/Attributes.h</text>
</a>
</g>
</g>
<!-- Node1&#45;&gt;Node16 -->
<g id="edge15_Node000001_Node000016" class="edge">
<title>Node1&#45;&gt;Node16</title>
<g id="a_edge15_Node000001_Node000016"><a xlink:title=" ">
<path fill="none" stroke="#63b8ff" d="M1240.46,-199.01C1194.04,-189.27 1132.21,-176.04 1077.75,-163.5 1074.21,-162.69 1070.56,-161.83 1066.89,-160.95"/>
<polygon fill="#63b8ff" stroke="#63b8ff" points="1067.92,-157.6 1057.38,-158.66 1066.28,-164.41 1067.92,-157.6"/>
</a>
</g>
</g>
<!-- Node17 -->
<g id="Node000017" class="node">
<title>Node17</title>
<g id="a_Node000017"><a xlink:title=" ">
<polygon fill="#e0e0e0" stroke="#999999" points="1178.62,-157.88 1086.88,-157.88 1086.88,-138.62 1178.62,-138.62 1178.62,-157.88"/>
<text text-anchor="middle" x="1132.75" y="-144.38" font-family="Helvetica,sans-Serif" font-size="10.00">mlir/IR/Builders.h</text>
</a>
</g>
</g>
<!-- Node1&#45;&gt;Node17 -->
<g id="edge16_Node000001_Node000017" class="edge">
<title>Node1&#45;&gt;Node17</title>
<g id="a_edge16_Node000001_Node000017"><a xlink:title=" ">
<path fill="none" stroke="#63b8ff" d="M1271.13,-199.11C1240.31,-188.01 1198.33,-172.88 1168.71,-162.21"/>
<polygon fill="#63b8ff" stroke="#63b8ff" points="1170.03,-158.96 1159.44,-158.87 1167.66,-165.55 1170.03,-158.96"/>
</a>
</g>
</g>
<!-- Node18 -->
<g id="Node000018" class="node">
<title>Node18</title>
<g id="a_Node000018"><a xlink:title=" ">
<polygon fill="#e0e0e0" stroke="#999999" points="1306.62,-157.88 1196.88,-157.88 1196.88,-138.62 1306.62,-138.62 1306.62,-157.88"/>
<text text-anchor="middle" x="1251.75" y="-144.38" font-family="Helvetica,sans-Serif" font-size="10.00">mlir/IR/BuiltinTypes.h</text>
</a>
</g>
</g>
<!-- Node1&#45;&gt;Node18 -->
<g id="edge17_Node000001_Node000018" class="edge">
<title>Node1&#45;&gt;Node18</title>
<g id="a_edge17_Node000001_Node000018"><a xlink:title=" ">
<path fill="none" stroke="#63b8ff" d="M1298.14,-199.11C1289.04,-189.34 1277.05,-176.45 1267.54,-166.23"/>
<polygon fill="#63b8ff" stroke="#63b8ff" points="1270.36,-164.12 1260.99,-159.18 1265.24,-168.89 1270.36,-164.12"/>
</a>
</g>
</g>
<!-- Node19 -->
<g id="Node000019" class="node">
<title>Node19</title>
<g id="a_Node000019"><a xlink:title=" ">
<polygon fill="#e0e0e0" stroke="#999999" points="1418.38,-157.88 1325.12,-157.88 1325.12,-138.62 1418.38,-138.62 1418.38,-157.88"/>
<text text-anchor="middle" x="1371.75" y="-144.38" font-family="Helvetica,sans-Serif" font-size="10.00">mlir/IR/Location.h</text>
</a>
</g>
</g>
<!-- Node1&#45;&gt;Node19 -->
<g id="edge18_Node000001_Node000019" class="edge">
<title>Node1&#45;&gt;Node19</title>
<g id="a_edge18_Node000001_Node000019"><a xlink:title=" ">
<path fill="none" stroke="#63b8ff" d="M1325.36,-199.11C1334.46,-189.34 1346.45,-176.45 1355.96,-166.23"/>
<polygon fill="#63b8ff" stroke="#63b8ff" points="1358.26,-168.89 1362.51,-159.18 1353.14,-164.12 1358.26,-168.89"/>
</a>
</g>
</g>
<!-- Node20 -->
<g id="Node000020" class="node">
<title>Node20</title>
<g id="a_Node000020"><a xlink:title=" ">
<polygon fill="#e0e0e0" stroke="#999999" points="1551.25,-157.88 1436.25,-157.88 1436.25,-138.62 1551.25,-138.62 1551.25,-157.88"/>
<text text-anchor="middle" x="1493.75" y="-144.38" font-family="Helvetica,sans-Serif" font-size="10.00">mlir/IR/MLIRContext.h</text>
</a>
</g>
</g>
<!-- Node1&#45;&gt;Node20 -->
<g id="edge19_Node000001_Node000020" class="edge">
<title>Node1&#45;&gt;Node20</title>
<g id="a_edge19_Node000001_Node000020"><a xlink:title=" ">
<path fill="none" stroke="#63b8ff" d="M1353.05,-199.11C1384.53,-187.96 1427.45,-172.75 1457.58,-162.07"/>
<polygon fill="#63b8ff" stroke="#63b8ff" points="1458.38,-165.5 1466.63,-158.86 1456.04,-158.9 1458.38,-165.5"/>
</a>
</g>
</g>
<!-- Node21 -->
<g id="Node000021" class="node">
<title>Node21</title>
<g id="a_Node000021"><a xlink:title=" ">
<polygon fill="#e0e0e0" stroke="#999999" points="1676.5,-157.88 1569,-157.88 1569,-138.62 1676.5,-138.62 1676.5,-157.88"/>
<text text-anchor="middle" x="1622.75" y="-144.38" font-family="Helvetica,sans-Serif" font-size="10.00">llvm/ADT/ArrayRef.h</text>
</a>
</g>
</g>
<!-- Node1&#45;&gt;Node21 -->
<g id="edge20_Node000001_Node000021" class="edge">
<title>Node1&#45;&gt;Node21</title>
<g id="a_edge20_Node000001_Node000021"><a xlink:title=" ">
<path fill="none" stroke="#63b8ff" d="M1383.77,-199.75C1433.55,-189.94 1501.26,-176.34 1560.75,-163.5 1564.76,-162.63 1568.92,-161.72 1573.09,-160.79"/>
<polygon fill="#63b8ff" stroke="#63b8ff" points="1573.63,-164.25 1582.61,-158.64 1572.09,-157.43 1573.63,-164.25"/>
</a>
</g>
</g>
<!-- Node22 -->
<g id="Node000022" class="node">
<title>Node22</title>
<g id="a_Node000022"><a xlink:title=" ">
<polygon fill="#e0e0e0" stroke="#999999" points="1815.25,-157.88 1694.25,-157.88 1694.25,-138.62 1815.25,-138.62 1815.25,-157.88"/>
<text text-anchor="middle" x="1754.75" y="-144.38" font-family="Helvetica,sans-Serif" font-size="10.00">llvm/ADT/SmallVector.h</text>
</a>
</g>
</g>
<!-- Node1&#45;&gt;Node22 -->
<g id="edge21_Node000001_Node000022" class="edge">
<title>Node1&#45;&gt;Node22</title>
<g id="a_edge21_Node000001_Node000022"><a xlink:title=" ">
<path fill="none" stroke="#63b8ff" d="M1383.67,-205.6C1459.15,-196.7 1581.12,-181.31 1685.75,-163.5 1691.05,-162.6 1696.56,-161.59 1702.06,-160.53"/>
<polygon fill="#63b8ff" stroke="#63b8ff" points="1702.63,-163.98 1711.76,-158.61 1701.27,-157.12 1702.63,-163.98"/>
</a>
</g>
</g>
<!-- Node23 -->
<g id="Node000023" class="node">
<title>Node23</title>
<g id="a_Node000023"><a xlink:title=" ">
<polygon fill="#e0e0e0" stroke="#999999" points="1882.62,-157.88 1832.88,-157.88 1832.88,-138.62 1882.62,-138.62 1882.62,-157.88"/>
<text text-anchor="middle" x="1857.75" y="-144.38" font-family="Helvetica,sans-Serif" font-size="10.00">optional</text>
</a>
</g>
</g>
<!-- Node1&#45;&gt;Node23 -->
<g id="edge22_Node000001_Node000023" class="edge">
<title>Node1&#45;&gt;Node23</title>
<g id="a_edge22_Node000001_Node000023"><a xlink:title=" ">
<path fill="none" stroke="#63b8ff" d="M1383.92,-213.67C1484.33,-211.98 1671.17,-203.15 1824.75,-163.5 1826.14,-163.14 1827.55,-162.73 1828.97,-162.28"/>
<polygon fill="#63b8ff" stroke="#63b8ff" points="1830.06,-165.61 1838.19,-158.81 1827.6,-159.06 1830.06,-165.61"/>
</a>
</g>
</g>
<!-- Node3 -->
<g id="Node000003" class="node">
<title>Node3</title>
<g id="a_Node000003"><a xlink:href="_array_2_i_r_2_dialect_8h.html" target="_top" xlink:title=" ">
<polygon fill="white" stroke="#666666" points="210.25,-97 119.25,-97 119.25,-66.5 210.25,-66.5 210.25,-97"/>
<text text-anchor="start" x="127.25" y="-83.5" font-family="Helvetica,sans-Serif" font-size="10.00">llzk/Dialect/Array</text>
<text text-anchor="middle" x="164.75" y="-72.25" font-family="Helvetica,sans-Serif" font-size="10.00">/IR/Dialect.h</text>
</a>
</g>
</g>
<!-- Node2&#45;&gt;Node3 -->
<g id="edge2_Node000002_Node000003" class="edge">
<title>Node2&#45;&gt;Node3</title>
<g id="a_edge2_Node000002_Node000003"><a xlink:title=" ">
<path fill="none" stroke="#63b8ff" d="M539,-140.22C461.76,-128.36 305.7,-104.4 221.57,-91.48"/>
<polygon fill="#63b8ff" stroke="#63b8ff" points="222.35,-88.06 211.94,-90 221.29,-94.97 222.35,-88.06"/>
</a>
</g>
</g>
<!-- Node6 -->
<g id="Node000006" class="node">
<title>Node6</title>
<g id="a_Node000006"><a xlink:href="_error_helper_8h.html" target="_top" xlink:title=" ">
<polygon fill="white" stroke="#666666" points="435.25,-91.38 326.25,-91.38 326.25,-72.12 435.25,-72.12 435.25,-91.38"/>
<text text-anchor="middle" x="380.75" y="-77.88" font-family="Helvetica,sans-Serif" font-size="10.00">llzk/Util/ErrorHelper.h</text>
</a>
</g>
</g>
<!-- Node2&#45;&gt;Node6 -->
<g id="edge5_Node000002_Node000006" class="edge">
<title>Node2&#45;&gt;Node6</title>
<g id="a_edge5_Node000002_Node000006"><a xlink:title=" ">
<path fill="none" stroke="#63b8ff" d="M538.97,-132.77C503.3,-121.5 454.28,-106 420.3,-95.25"/>
<polygon fill="#63b8ff" stroke="#63b8ff" points="421.43,-91.94 410.84,-92.26 419.32,-98.61 421.43,-91.94"/>
</a>
</g>
</g>
<!-- Node10 -->
<g id="Node000010" class="node">
<title>Node10</title>
<g id="a_Node000010"><a xlink:title=" ">
<polygon fill="#e0e0e0" stroke="#999999" points="586.62,-97 452.88,-97 452.88,-66.5 586.62,-66.5 586.62,-97"/>
<text text-anchor="start" x="460.88" y="-83.5" font-family="Helvetica,sans-Serif" font-size="10.00">mlir/Interfaces/MemorySlot</text>
<text text-anchor="middle" x="519.75" y="-72.25" font-family="Helvetica,sans-Serif" font-size="10.00">Interfaces.h</text>
</a>
</g>
</g>
<!-- Node2&#45;&gt;Node10 -->
<g id="edge9_Node000002_Node000010" class="edge">
<title>Node2&#45;&gt;Node10</title>
<g id="a_edge9_Node000002_Node000010"><a xlink:title=" ">
<path fill="none" stroke="#63b8ff" d="M570,-132.61C561.86,-124.53 551.57,-114.32 542.42,-105.25"/>
<polygon fill="#63b8ff" stroke="#63b8ff" points="545.08,-102.95 535.52,-98.39 540.15,-107.92 545.08,-102.95"/>
</a>
</g>
</g>
<!-- Node11 -->
<g id="Node000011" class="node">
<title>Node11</title>
<g id="a_Node000011"><a xlink:href="_array_2_i_r_2_ops_8h_8inc.html" target="_top" xlink:title=" ">
<polygon fill="white" stroke="#666666" points="695.25,-97 604.25,-97 604.25,-66.5 695.25,-66.5 695.25,-97"/>
<text text-anchor="start" x="612.25" y="-83.5" font-family="Helvetica,sans-Serif" font-size="10.00">llzk/Dialect/Array</text>
<text text-anchor="middle" x="649.75" y="-72.25" font-family="Helvetica,sans-Serif" font-size="10.00">/IR/Ops.h.inc</text>
</a>
</g>
</g>
<!-- Node2&#45;&gt;Node11 -->
<g id="edge10_Node000002_Node000011" class="edge">
<title>Node2&#45;&gt;Node11</title>
<g id="a_edge10_Node000002_Node000011"><a xlink:title=" ">
<path fill="none" stroke="#63b8ff" d="M599.5,-132.61C607.64,-124.53 617.93,-114.32 627.08,-105.25"/>
<polygon fill="#63b8ff" stroke="#63b8ff" points="629.35,-107.92 633.98,-98.39 624.42,-102.95 629.35,-107.92"/>
</a>
</g>
</g>
<!-- Node12 -->
<g id="Node000012" class="node">
<title>Node12</title>
<g id="a_Node000012"><a xlink:href="_array_2_i_r_2_types_8h_8inc.html" target="_top" xlink:title=" ">
<polygon fill="white" stroke="#666666" points="804.25,-97 713.25,-97 713.25,-66.5 804.25,-66.5 804.25,-97"/>
<text text-anchor="start" x="721.25" y="-83.5" font-family="Helvetica,sans-Serif" font-size="10.00">llzk/Dialect/Array</text>
<text text-anchor="middle" x="758.75" y="-72.25" font-family="Helvetica,sans-Serif" font-size="10.00">/IR/Types.h.inc</text>
</a>
</g>
</g>
<!-- Node2&#45;&gt;Node12 -->
<g id="edge11_Node000002_Node000012" class="edge">
<title>Node2&#45;&gt;Node12</title>
<g id="a_edge11_Node000002_Node000012"><a xlink:title=" ">
<path fill="none" stroke="#63b8ff" d="M624.23,-132.61C649.17,-123.37 681.63,-111.34 708.41,-101.41"/>
<polygon fill="#63b8ff" stroke="#63b8ff" points="709.54,-104.72 717.7,-97.97 707.11,-98.16 709.54,-104.72"/>
</a>
</g>
</g>
<!-- Node4 -->
<g id="Node000004" class="node">
<title>Node4</title>
<g id="a_Node000004"><a xlink:title=" ">
<polygon fill="#e0e0e0" stroke="#999999" points="101.5,-24.88 0,-24.88 0,-5.63 101.5,-5.63 101.5,-24.88"/>
<text text-anchor="middle" x="50.75" y="-11.38" font-family="Helvetica,sans-Serif" font-size="10.00">mlir/IR/BuiltinOps.h</text>
</a>
</g>
</g>
<!-- Node3&#45;&gt;Node4 -->
<g id="edge3_Node000003_Node000004" class="edge">
<title>Node3&#45;&gt;Node4</title>
<g id="a_edge3_Node000003_Node000004"><a xlink:title=" ">
<path fill="none" stroke="#63b8ff" d="M138.88,-66.11C120.23,-55.56 95.17,-41.38 76.54,-30.84"/>
<polygon fill="#63b8ff" stroke="#63b8ff" points="78.42,-27.88 67.99,-26.01 74.97,-33.98 78.42,-27.88"/>
</a>
</g>
</g>
<!-- Node5 -->
<g id="Node000005" class="node">
<title>Node5</title>
<g id="a_Node000005"><a xlink:href="_array_2_i_r_2_dialect_8h_8inc.html" target="_top" xlink:title=" ">
<polygon fill="white" stroke="#666666" points="210.25,-30.5 119.25,-30.5 119.25,0 210.25,0 210.25,-30.5"/>
<text text-anchor="start" x="127.25" y="-17" font-family="Helvetica,sans-Serif" font-size="10.00">llzk/Dialect/Array</text>
<text text-anchor="middle" x="164.75" y="-5.75" font-family="Helvetica,sans-Serif" font-size="10.00">/IR/Dialect.h.inc</text>
</a>
</g>
</g>
<!-- Node3&#45;&gt;Node5 -->
<g id="edge4_Node000003_Node000005" class="edge">
<title>Node3&#45;&gt;Node5</title>
<g id="a_edge4_Node000003_Node000005"><a xlink:title=" ">
<path fill="none" stroke="#63b8ff" d="M164.75,-66.11C164.75,-59.02 164.75,-50.29 164.75,-42.13"/>
<polygon fill="#63b8ff" stroke="#63b8ff" points="168.25,-42.34 164.75,-32.34 161.25,-42.34 168.25,-42.34"/>
</a>
</g>
</g>
<!-- Node7 -->
<g id="Node000007" class="node">
<title>Node7</title>
<g id="a_Node000007"><a xlink:title=" ">
<polygon fill="#e0e0e0" stroke="#999999" points="388.75,-24.88 228.75,-24.88 228.75,-5.63 388.75,-5.63 388.75,-24.88"/>
<text text-anchor="middle" x="308.75" y="-11.38" font-family="Helvetica,sans-Serif" font-size="10.00">llvm/ADT/STLFunctionalExtras.h</text>
</a>
</g>
</g>
<!-- Node6&#45;&gt;Node7 -->
<g id="edge6_Node000006_Node000007" class="edge">
<title>Node6&#45;&gt;Node7</title>
<g id="a_edge6_Node000006_Node000007"><a xlink:title=" ">
<path fill="none" stroke="#63b8ff" d="M370.74,-71.78C359.45,-61.67 340.88,-45.03 327,-32.6"/>
<polygon fill="#63b8ff" stroke="#63b8ff" points="329.59,-30.22 319.8,-26.15 324.92,-35.43 329.59,-30.22"/>
</a>
</g>
</g>
<!-- Node8 -->
<g id="Node000008" class="node">
<title>Node8</title>
<g id="a_Node000008"><a xlink:title=" ">
<polygon fill="#e0e0e0" stroke="#999999" points="500.75,-24.88 406.75,-24.88 406.75,-5.63 500.75,-5.63 500.75,-24.88"/>
<text text-anchor="middle" x="453.75" y="-11.38" font-family="Helvetica,sans-Serif" font-size="10.00">llvm/ADT/Twine.h</text>
</a>
</g>
</g>
<!-- Node6&#45;&gt;Node8 -->
<g id="edge7_Node000006_Node000008" class="edge">
<title>Node6&#45;&gt;Node8</title>
<g id="a_edge7_Node000006_Node000008"><a xlink:title=" ">
<path fill="none" stroke="#63b8ff" d="M390.9,-71.78C402.34,-61.67 421.18,-45.03 435.25,-32.6"/>
<polygon fill="#63b8ff" stroke="#63b8ff" points="437.38,-35.39 442.55,-26.14 432.74,-30.14 437.38,-35.39"/>
</a>
</g>
</g>
<!-- Node9 -->
<g id="Node000009" class="node">
<title>Node9</title>
<g id="a_Node000009"><a xlink:title=" ">
<polygon fill="#e0e0e0" stroke="#999999" points="660.38,-24.88 519.12,-24.88 519.12,-5.63 660.38,-5.63 660.38,-24.88"/>
<text text-anchor="middle" x="589.75" y="-11.38" font-family="Helvetica,sans-Serif" font-size="10.00">llvm/Support/ErrorHandling.h</text>
</a>
</g>
</g>
<!-- Node6&#45;&gt;Node9 -->
<g id="edge8_Node000006_Node000009" class="edge">
<title>Node6&#45;&gt;Node9</title>
<g id="a_edge8_Node000006_Node000009"><a xlink:title=" ">
<path fill="none" stroke="#63b8ff" d="M410.25,-71.65C446.66,-60.41 508.74,-41.25 549.51,-28.67"/>
<polygon fill="#63b8ff" stroke="#63b8ff" points="550.43,-32.05 558.95,-25.75 548.37,-25.36 550.43,-32.05"/>
</a>
</g>
</g>
<!-- Node14 -->
<g id="Node000014" class="node">
<title>Node14</title>
<g id="a_Node000014"><a xlink:title=" ">
<polygon fill="#e0e0e0" stroke="#999999" points="976.75,-91.38 822.75,-91.38 822.75,-72.12 976.75,-72.12 976.75,-91.38"/>
<text text-anchor="middle" x="899.75" y="-77.88" font-family="Helvetica,sans-Serif" font-size="10.00">mlir/IR/DialectImplementation.h</text>
</a>
</g>
</g>
<!-- Node13&#45;&gt;Node14 -->
<g id="edge13_Node000013_Node000014" class="edge">
<title>Node13&#45;&gt;Node14</title>
<g id="a_edge13_Node000013_Node000014"><a xlink:title=" ">
<path fill="none" stroke="#63b8ff" d="M899.75,-132.61C899.75,-123.83 899.75,-112.52 899.75,-102.9"/>
<polygon fill="#63b8ff" stroke="#63b8ff" points="903.25,-103.09 899.75,-93.09 896.25,-103.09 903.25,-103.09"/>
</a>
</g>
</g>
<!-- Node15 -->
<g id="Node000015" class="node">
<title>Node15</title>
<g id="a_Node000015"><a xlink:title=" ">
<polygon fill="#e0e0e0" stroke="#999999" points="1088.38,-91.38 995.12,-91.38 995.12,-72.12 1088.38,-72.12 1088.38,-91.38"/>
<text text-anchor="middle" x="1041.75" y="-77.88" font-family="Helvetica,sans-Serif" font-size="10.00">llvm/ADT/APInt.h</text>
</a>
</g>
</g>
<!-- Node13&#45;&gt;Node15 -->
<g id="edge14_Node000013_Node000015" class="edge">
<title>Node13&#45;&gt;Node15</title>
<g id="a_edge14_Node000013_Node000015"><a xlink:title=" ">
<path fill="none" stroke="#63b8ff" d="M931.97,-132.61C955.85,-121.77 988.16,-107.09 1011.55,-96.47"/>
<polygon fill="#63b8ff" stroke="#63b8ff" points="1012.88,-99.71 1020.54,-92.39 1009.98,-93.33 1012.88,-99.71"/>
</a>
</g>
</g>
</g>
</svg>
