<?xml version="1.0" encoding="UTF-8" standalone="no"?>
<!DOCTYPE svg PUBLIC "-//W3C//DTD SVG 1.1//EN"
 "http://www.w3.org/Graphics/SVG/1.1/DTD/svg11.dtd">
<!-- Generated by graphviz version 12.2.1 (20241206.2353)
 -->
<!-- Title: include/llzk/Dialect/Array/IR/Ops.h Pages: 1 -->
<svg width="2015pt" height="238pt"
 viewBox="0.00 0.00 2014.88 238.00" xmlns="http://www.w3.org/2000/svg" xmlns:xlink="http://www.w3.org/1999/xlink">
<g id="graph0" class="graph" transform="scale(1 1) rotate(0) translate(4 234)">
<title>include/llzk/Dialect/Array/IR/Ops.h</title>
<!-- Node1 -->
<g id="Node000001" class="node">
<title>Node1</title>
<g id="a_Node000001"><a xlink:title=" ">
<polygon fill="#999999" stroke="#666666" points="1701.75,-230 1603.25,-230 1603.25,-199.5 1701.75,-199.5 1701.75,-230"/>
<text text-anchor="start" x="1611.25" y="-216.5" font-family="Helvetica,sans-Serif" font-size="10.00">include/llzk/Dialect</text>
<text text-anchor="middle" x="1652.5" y="-205.25" font-family="Helvetica,sans-Serif" font-size="10.00">/Array/IR/Ops.h</text>
</a>
</g>
</g>
<!-- Node2 -->
<g id="Node000002" class="node">
<title>Node2</title>
<g id="a_Node000002"><a xlink:href="_array_2_i_r_2_dialect_8h.html" target="_top" xlink:title=" ">
<polygon fill="white" stroke="#666666" points="1624,-97 1533,-97 1533,-66.5 1624,-66.5 1624,-97"/>
<text text-anchor="start" x="1541" y="-83.5" font-family="Helvetica,sans-Serif" font-size="10.00">llzk/Dialect/Array</text>
<text text-anchor="middle" x="1578.5" y="-72.25" font-family="Helvetica,sans-Serif" font-size="10.00">/IR/Dialect.h</text>
</a>
</g>
</g>
<!-- Node1&#45;&gt;Node2 -->
<g id="edge1_Node000001_Node000002" class="edge">
<title>Node1&#45;&gt;Node2</title>
<g id="a_edge1_Node000001_Node000002"><a xlink:title=" ">
<path fill="none" stroke="#63b8ff" d="M1631.47,-199.01C1620.11,-189.99 1606.75,-177.52 1598.5,-163.5 1588.59,-146.67 1583.57,-125.1 1581.04,-108.49"/>
<polygon fill="#63b8ff" stroke="#63b8ff" points="1584.55,-108.37 1579.8,-98.9 1577.61,-109.27 1584.55,-108.37"/>
</a>
</g>
</g>
<!-- Node5 -->
<g id="Node000005" class="node">
<title>Node5</title>
<g id="a_Node000005"><a xlink:href="_array_2_i_r_2_types_8h.html" target="_top" xlink:title=" ">
<polygon fill="white" stroke="#666666" points="1698,-163.5 1607,-163.5 1607,-133 1698,-133 1698,-163.5"/>
<text text-anchor="start" x="1615" y="-150" font-family="Helvetica,sans-Serif" font-size="10.00">llzk/Dialect/Array</text>
<text text-anchor="middle" x="1652.5" y="-138.75" font-family="Helvetica,sans-Serif" font-size="10.00">/IR/Types.h</text>
</a>
</g>
</g>
<!-- Node1&#45;&gt;Node5 -->
<g id="edge4_Node000001_Node000005" class="edge">
<title>Node1&#45;&gt;Node5</title>
<g id="a_edge4_Node000001_Node000005"><a xlink:title=" ">
<path fill="none" stroke="#63b8ff" d="M1652.5,-199.11C1652.5,-192.02 1652.5,-183.29 1652.5,-175.13"/>
<polygon fill="#63b8ff" stroke="#63b8ff" points="1656,-175.34 1652.5,-165.34 1649,-175.34 1656,-175.34"/>
</a>
</g>
</g>
<!-- Node11 -->
<g id="Node000011" class="node">
<title>Node11</title>
<g id="a_Node000011"><a xlink:href="_array_2_i_r_2_ops_8h_8inc.html" target="_top" xlink:title=" ">
<polygon fill="white" stroke="#666666" points="1993,-97 1902,-97 1902,-66.5 1993,-66.5 1993,-97"/>
<text text-anchor="start" x="1910" y="-83.5" font-family="Helvetica,sans-Serif" font-size="10.00">llzk/Dialect/Array</text>
<text text-anchor="middle" x="1947.5" y="-72.25" font-family="Helvetica,sans-Serif" font-size="10.00">/IR/Ops.h.inc</text>
</a>
</g>
</g>
<!-- Node1&#45;&gt;Node11 -->
<g id="edge36_Node000001_Node000011" class="edge">
<title>Node1&#45;&gt;Node11</title>
<g id="a_edge36_Node000001_Node000011"><a xlink:title=" ">
<path fill="none" stroke="#63b8ff" d="M1668.36,-199.25C1692.54,-177.25 1736.76,-137.51 1745.5,-133 1802.59,-103.51 1825.52,-112.56 1890.72,-97.56"/>
<polygon fill="#63b8ff" stroke="#63b8ff" points="1891.19,-101.05 1900.09,-95.29 1889.55,-94.24 1891.19,-101.05"/>
</a>
</g>
</g>
<!-- Node13 -->
<g id="Node000013" class="node">
<title>Node13</title>
<g id="a_Node000013"><a xlink:href="_op_helpers_8h.html" target="_top" xlink:title=" ">
<polygon fill="white" stroke="#666666" points="672.75,-163.5 574.25,-163.5 574.25,-133 672.75,-133 672.75,-163.5"/>
<text text-anchor="start" x="582.25" y="-150" font-family="Helvetica,sans-Serif" font-size="10.00">llzk/Dialect/Shared</text>
<text text-anchor="middle" x="623.5" y="-138.75" font-family="Helvetica,sans-Serif" font-size="10.00">/OpHelpers.h</text>
</a>
</g>
</g>
<!-- Node1&#45;&gt;Node13 -->
<g id="edge13_Node000001_Node000013" class="edge">
<title>Node1&#45;&gt;Node13</title>
<g id="a_edge13_Node000001_Node000013"><a xlink:title=" ">
<path fill="none" stroke="#63b8ff" d="M1602.87,-210.64C1432.41,-199.95 871.1,-164.77 684.46,-153.07"/>
<polygon fill="#63b8ff" stroke="#63b8ff" points="684.94,-149.59 674.74,-152.46 684.51,-156.58 684.94,-149.59"/>
</a>
</g>
</g>
<!-- Node24 -->
<g id="Node000024" class="node">
<title>Node24</title>
<g id="a_Node000024"><a xlink:href="_type_helper_8h.html" target="_top" xlink:title=" ">
<polygon fill="white" stroke="#666666" points="1259,-157.88 1150,-157.88 1150,-138.62 1259,-138.62 1259,-157.88"/>
<text text-anchor="middle" x="1204.5" y="-144.38" font-family="Helvetica,sans-Serif" font-size="10.00">llzk/Util/TypeHelper.h</text>
</a>
</g>
</g>
<!-- Node1&#45;&gt;Node24 -->
<g id="edge26_Node000001_Node000024" class="edge">
<title>Node1&#45;&gt;Node24</title>
<g id="a_edge26_Node000001_Node000024"><a xlink:title=" ">
<path fill="none" stroke="#63b8ff" d="M1602.84,-206.6C1521.79,-194.93 1361.03,-171.79 1270.48,-158.75"/>
<polygon fill="#63b8ff" stroke="#63b8ff" points="1271.16,-155.31 1260.76,-157.35 1270.16,-162.24 1271.16,-155.31"/>
</a>
</g>
</g>
<!-- Node28 -->
<g id="Node000028" class="node">
<title>Node28</title>
<g id="a_Node000028"><a xlink:title=" ">
<polygon fill="#e0e0e0" stroke="#999999" points="1876.38,-163.5 1754.62,-163.5 1754.62,-133 1876.38,-133 1876.38,-163.5"/>
<text text-anchor="start" x="1762.62" y="-150" font-family="Helvetica,sans-Serif" font-size="10.00">mlir/Interfaces/InferType</text>
<text text-anchor="middle" x="1815.5" y="-138.75" font-family="Helvetica,sans-Serif" font-size="10.00">OpInterface.h</text>
</a>
</g>
</g>
<!-- Node1&#45;&gt;Node28 -->
<g id="edge34_Node000001_Node000028" class="edge">
<title>Node1&#45;&gt;Node28</title>
<g id="a_edge34_Node000001_Node000028"><a xlink:title=" ">
<path fill="none" stroke="#63b8ff" d="M1689.49,-199.11C1712.64,-189.95 1742.71,-178.05 1767.67,-168.18"/>
<polygon fill="#63b8ff" stroke="#63b8ff" points="1768.96,-171.43 1776.97,-164.5 1766.38,-164.92 1768.96,-171.43"/>
</a>
</g>
</g>
<!-- Node29 -->
<g id="Node000029" class="node">
<title>Node29</title>
<g id="a_Node000029"><a xlink:href="_array_2_i_r_2_op_interfaces_8h_8inc.html" target="_top" xlink:title=" ">
<polygon fill="white" stroke="#666666" points="2006.88,-163.5 1894.12,-163.5 1894.12,-133 2006.88,-133 2006.88,-163.5"/>
<text text-anchor="start" x="1902.12" y="-150" font-family="Helvetica,sans-Serif" font-size="10.00">llzk/Dialect/Array</text>
<text text-anchor="middle" x="1950.5" y="-138.75" font-family="Helvetica,sans-Serif" font-size="10.00">/IR/OpInterfaces.h.inc</text>
</a>
</g>
</g>
<!-- Node1&#45;&gt;Node29 -->
<g id="edge35_Node000001_Node000029" class="edge">
<title>Node1&#45;&gt;Node29</title>
<g id="a_edge35_Node000001_Node000029"><a xlink:title=" ">
<path fill="none" stroke="#63b8ff" d="M1702.05,-203.11C1746.83,-193.49 1814.87,-178.84 1882.87,-164.07"/>
<polygon fill="#63b8ff" stroke="#63b8ff" points="1883.27,-167.56 1892.3,-162.02 1881.79,-160.72 1883.27,-167.56"/>
</a>
</g>
</g>
<!-- Node3 -->
<g id="Node000003" class="node">
<title>Node3</title>
<g id="a_Node000003"><a xlink:title=" ">
<polygon fill="#e0e0e0" stroke="#999999" points="1650.25,-24.88 1548.75,-24.88 1548.75,-5.63 1650.25,-5.63 1650.25,-24.88"/>
<text text-anchor="middle" x="1599.5" y="-11.38" font-family="Helvetica,sans-Serif" font-size="10.00">mlir/IR/BuiltinOps.h</text>
</a>
</g>
</g>
<!-- Node2&#45;&gt;Node3 -->
<g id="edge2_Node000002_Node000003" class="edge">
<title>Node2&#45;&gt;Node3</title>
<g id="a_edge2_Node000002_Node000003"><a xlink:title=" ">
<path fill="none" stroke="#63b8ff" d="M1583.27,-66.11C1586.19,-57.13 1589.97,-45.51 1593.15,-35.76"/>
<polygon fill="#63b8ff" stroke="#63b8ff" points="1596.39,-37.1 1596.16,-26.51 1589.73,-34.94 1596.39,-37.1"/>
</a>
</g>
</g>
<!-- Node4 -->
<g id="Node000004" class="node">
<title>Node4</title>
<g id="a_Node000004"><a xlink:href="_array_2_i_r_2_dialect_8h_8inc.html" target="_top" xlink:title=" ">
<polygon fill="white" stroke="#666666" points="1759,-30.5 1668,-30.5 1668,0 1759,0 1759,-30.5"/>
<text text-anchor="start" x="1676" y="-17" font-family="Helvetica,sans-Serif" font-size="10.00">llzk/Dialect/Array</text>
<text text-anchor="middle" x="1713.5" y="-5.75" font-family="Helvetica,sans-Serif" font-size="10.00">/IR/Dialect.h.inc</text>
</a>
</g>
</g>
<!-- Node2&#45;&gt;Node4 -->
<g id="edge3_Node000002_Node000004" class="edge">
<title>Node2&#45;&gt;Node4</title>
<g id="a_edge3_Node000002_Node000004"><a xlink:title=" ">
<path fill="none" stroke="#63b8ff" d="M1609.13,-66.11C1627.95,-57.13 1652.27,-45.5 1672.71,-35.74"/>
<polygon fill="#63b8ff" stroke="#63b8ff" points="1674.11,-38.95 1681.62,-31.48 1671.09,-32.63 1674.11,-38.95"/>
</a>
</g>
</g>
<!-- Node5&#45;&gt;Node2 -->
<g id="edge5_Node000005_Node000002" class="edge">
<title>Node5&#45;&gt;Node2</title>
<g id="a_edge5_Node000005_Node000002"><a xlink:title=" ">
<path fill="none" stroke="#63b8ff" d="M1635.71,-132.61C1626.25,-124.37 1614.24,-113.9 1603.68,-104.69"/>
<polygon fill="#63b8ff" stroke="#63b8ff" points="1606.2,-102.25 1596.37,-98.32 1601.6,-107.53 1606.2,-102.25"/>
</a>
</g>
</g>
<!-- Node6 -->
<g id="Node000006" class="node">
<title>Node6</title>
<g id="a_Node000006"><a xlink:href="_error_helper_8h.html" target="_top" xlink:title=" ">
<polygon fill="white" stroke="#666666" points="1515,-91.38 1406,-91.38 1406,-72.12 1515,-72.12 1515,-91.38"/>
<text text-anchor="middle" x="1460.5" y="-77.88" font-family="Helvetica,sans-Serif" font-size="10.00">llzk/Util/ErrorHelper.h</text>
</a>
</g>
</g>
<!-- Node5&#45;&gt;Node6 -->
<g id="edge6_Node000005_Node000006" class="edge">
<title>Node5&#45;&gt;Node6</title>
<g id="a_edge6_Node000005_Node000006"><a xlink:title=" ">
<path fill="none" stroke="#63b8ff" d="M1608.93,-132.61C1575.58,-121.41 1530.04,-106.11 1498.24,-95.43"/>
<polygon fill="#63b8ff" stroke="#63b8ff" points="1499.63,-92.2 1489.03,-92.34 1497.4,-98.84 1499.63,-92.2"/>
</a>
</g>
</g>
<!-- Node10 -->
<g id="Node000010" class="node">
<title>Node10</title>
<g id="a_Node000010"><a xlink:title=" ">
<polygon fill="#e0e0e0" stroke="#999999" points="1884.38,-97 1750.62,-97 1750.62,-66.5 1884.38,-66.5 1884.38,-97"/>
<text text-anchor="start" x="1758.62" y="-83.5" font-family="Helvetica,sans-Serif" font-size="10.00">mlir/Interfaces/MemorySlot</text>
<text text-anchor="middle" x="1817.5" y="-72.25" font-family="Helvetica,sans-Serif" font-size="10.00">Interfaces.h</text>
</a>
</g>
</g>
<!-- Node5&#45;&gt;Node10 -->
<g id="edge10_Node000005_Node000010" class="edge">
<title>Node5&#45;&gt;Node10</title>
<g id="a_edge10_Node000005_Node000010"><a xlink:title=" ">
<path fill="none" stroke="#63b8ff" d="M1689.94,-132.61C1713.49,-123.41 1744.09,-111.45 1769.42,-101.54"/>
<polygon fill="#63b8ff" stroke="#63b8ff" points="1770.47,-104.89 1778.51,-97.99 1767.92,-98.37 1770.47,-104.89"/>
</a>
</g>
</g>
<!-- Node5&#45;&gt;Node11 -->
<g id="edge11_Node000005_Node000011" class="edge">
<title>Node5&#45;&gt;Node11</title>
<g id="a_edge11_Node000005_Node000011"><a xlink:title=" ">
<path fill="none" stroke="#63b8ff" d="M1698.32,-136.18C1703.1,-135.08 1707.9,-134 1712.5,-133 1789.19,-116.27 1811.68,-115.51 1890.61,-97.59"/>
<polygon fill="#63b8ff" stroke="#63b8ff" points="1891.15,-101.06 1900.12,-95.41 1889.59,-94.23 1891.15,-101.06"/>
</a>
</g>
</g>
<!-- Node12 -->
<g id="Node000012" class="node">
<title>Node12</title>
<g id="a_Node000012"><a xlink:href="_array_2_i_r_2_types_8h_8inc.html" target="_top" xlink:title=" ">
<polygon fill="white" stroke="#666666" points="1733,-97 1642,-97 1642,-66.5 1733,-66.5 1733,-97"/>
<text text-anchor="start" x="1650" y="-83.5" font-family="Helvetica,sans-Serif" font-size="10.00">llzk/Dialect/Array</text>
<text text-anchor="middle" x="1687.5" y="-72.25" font-family="Helvetica,sans-Serif" font-size="10.00">/IR/Types.h.inc</text>
</a>
</g>
</g>
<!-- Node5&#45;&gt;Node12 -->
<g id="edge12_Node000005_Node000012" class="edge">
<title>Node5&#45;&gt;Node12</title>
<g id="a_edge12_Node000005_Node000012"><a xlink:title=" ">
<path fill="none" stroke="#63b8ff" d="M1660.44,-132.61C1664.51,-125.11 1669.58,-115.77 1674.23,-107.21"/>
<polygon fill="#63b8ff" stroke="#63b8ff" points="1677.17,-109.12 1678.87,-98.66 1671.02,-105.78 1677.17,-109.12"/>
</a>
</g>
</g>
<!-- Node7 -->
<g id="Node000007" class="node">
<title>Node7</title>
<g id="a_Node000007"><a xlink:title=" ">
<polygon fill="#e0e0e0" stroke="#999999" points="1259.5,-24.88 1099.5,-24.88 1099.5,-5.63 1259.5,-5.63 1259.5,-24.88"/>
<text text-anchor="middle" x="1179.5" y="-11.38" font-family="Helvetica,sans-Serif" font-size="10.00">llvm/ADT/STLFunctionalExtras.h</text>
</a>
</g>
</g>
<!-- Node6&#45;&gt;Node7 -->
<g id="edge7_Node000006_Node000007" class="edge">
<title>Node6&#45;&gt;Node7</title>
<g id="a_edge7_Node000006_Node000007"><a xlink:title=" ">
<path fill="none" stroke="#63b8ff" d="M1420.84,-71.65C1370.84,-60.17 1284.83,-40.43 1230.13,-27.87"/>
<polygon fill="#63b8ff" stroke="#63b8ff" points="1230.97,-24.47 1220.44,-25.65 1229.4,-31.3 1230.97,-24.47"/>
</a>
</g>
</g>
<!-- Node8 -->
<g id="Node000008" class="node">
<title>Node8</title>
<g id="a_Node000008"><a xlink:title=" ">
<polygon fill="#e0e0e0" stroke="#999999" points="1371.5,-24.88 1277.5,-24.88 1277.5,-5.63 1371.5,-5.63 1371.5,-24.88"/>
<text text-anchor="middle" x="1324.5" y="-11.38" font-family="Helvetica,sans-Serif" font-size="10.00">llvm/ADT/Twine.h</text>
</a>
</g>
</g>
<!-- Node6&#45;&gt;Node8 -->
<g id="edge8_Node000006_Node000008" class="edge">
<title>Node6&#45;&gt;Node8</title>
<g id="a_edge8_Node000006_Node000008"><a xlink:title=" ">
<path fill="none" stroke="#63b8ff" d="M1441.3,-71.65C1418.52,-60.84 1380.3,-42.71 1353.81,-30.15"/>
<polygon fill="#63b8ff" stroke="#63b8ff" points="1355.5,-27.08 1344.97,-25.96 1352.5,-33.4 1355.5,-27.08"/>
</a>
</g>
</g>
<!-- Node9 -->
<g id="Node000009" class="node">
<title>Node9</title>
<g id="a_Node000009"><a xlink:title=" ">
<polygon fill="#e0e0e0" stroke="#999999" points="1531.12,-24.88 1389.88,-24.88 1389.88,-5.63 1531.12,-5.63 1531.12,-24.88"/>
<text text-anchor="middle" x="1460.5" y="-11.38" font-family="Helvetica,sans-Serif" font-size="10.00">llvm/Support/ErrorHandling.h</text>
</a>
</g>
</g>
<!-- Node6&#45;&gt;Node9 -->
<g id="edge9_Node000006_Node000009" class="edge">
<title>Node6&#45;&gt;Node9</title>
<g id="a_edge9_Node000006_Node000009"><a xlink:title=" ">
<path fill="none" stroke="#63b8ff" d="M1460.5,-71.78C1460.5,-62.73 1460.5,-48.45 1460.5,-36.63"/>
<polygon fill="#63b8ff" stroke="#63b8ff" points="1464,-36.66 1460.5,-26.66 1457,-36.66 1464,-36.66"/>
</a>
</g>
</g>
<!-- Node14 -->
<g id="Node000014" class="node">
<title>Node14</title>
<g id="a_Node000014"><a xlink:href="_affine_helper_8h.html" target="_top" xlink:title=" ">
<polygon fill="white" stroke="#666666" points="300.25,-91.38 186.75,-91.38 186.75,-72.12 300.25,-72.12 300.25,-91.38"/>
<text text-anchor="middle" x="243.5" y="-77.88" font-family="Helvetica,sans-Serif" font-size="10.00">llzk/Util/AffineHelper.h</text>
</a>
</g>
</g>
<!-- Node13&#45;&gt;Node14 -->
<g id="edge14_Node000013_Node000014" class="edge">
<title>Node13&#45;&gt;Node14</title>
<g id="a_edge14_Node000013_Node000014"><a xlink:title=" ">
<path fill="none" stroke="#63b8ff" d="M573.9,-139.76C512.78,-130.4 405.81,-113.58 314.5,-97 309.29,-96.05 303.86,-95.03 298.44,-93.99"/>
<polygon fill="#63b8ff" stroke="#63b8ff" points="299.36,-90.6 288.87,-92.11 298.01,-97.47 299.36,-90.6"/>
</a>
</g>
</g>
<!-- Node16 -->
<g id="Node000016" class="node">
<title>Node16</title>
<g id="a_Node000016"><a xlink:title=" ">
<polygon fill="#e0e0e0" stroke="#999999" points="511.5,-24.88 375.5,-24.88 375.5,-5.63 511.5,-5.63 511.5,-24.88"/>
<text text-anchor="middle" x="443.5" y="-11.38" font-family="Helvetica,sans-Serif" font-size="10.00">mlir/IR/OpImplementation.h</text>
</a>
</g>
</g>
<!-- Node13&#45;&gt;Node16 -->
<g id="edge21_Node000013_Node000016" class="edge">
<title>Node13&#45;&gt;Node16</title>
<g id="a_edge21_Node000013_Node000016"><a xlink:title=" ">
<path fill="none" stroke="#63b8ff" d="M573.88,-145.57C502.37,-141.98 375.78,-130.89 347.5,-97 324.58,-69.53 370.61,-44.06 406.54,-29.34"/>
<polygon fill="#63b8ff" stroke="#63b8ff" points="407.37,-32.77 415.4,-25.86 404.81,-26.26 407.37,-32.77"/>
</a>
</g>
</g>
<!-- Node17 -->
<g id="Node000017" class="node">
<title>Node17</title>
<g id="a_Node000017"><a xlink:title=" ">
<polygon fill="#e0e0e0" stroke="#999999" points="832.75,-24.88 734.25,-24.88 734.25,-5.63 832.75,-5.63 832.75,-24.88"/>
<text text-anchor="middle" x="783.5" y="-11.38" font-family="Helvetica,sans-Serif" font-size="10.00">mlir/IR/Operation.h</text>
</a>
</g>
</g>
<!-- Node13&#45;&gt;Node17 -->
<g id="edge22_Node000013_Node000017" class="edge">
<title>Node13&#45;&gt;Node17</title>
<g id="a_edge22_Node000013_Node000017"><a xlink:title=" ">
<path fill="none" stroke="#63b8ff" d="M673.23,-141.57C703.74,-135.51 741.28,-122.95 764.5,-97 779.26,-80.5 783.14,-54.71 783.89,-36.73"/>
<polygon fill="#63b8ff" stroke="#63b8ff" points="787.39,-36.8 783.98,-26.77 780.39,-36.74 787.39,-36.8"/>
</a>
</g>
</g>
<!-- Node20 -->
<g id="Node000020" class="node">
<title>Node20</title>
<g id="a_Node000020"><a xlink:href="_constants_8h.html" target="_top" xlink:title=" ">
<polygon fill="white" stroke="#666666" points="462.12,-91.38 356.88,-91.38 356.88,-72.12 462.12,-72.12 462.12,-91.38"/>
<text text-anchor="middle" x="409.5" y="-77.88" font-family="Helvetica,sans-Serif" font-size="10.00">llzk/Util/Constants.h</text>
</a>
</g>
</g>
<!-- Node13&#45;&gt;Node20 -->
<g id="edge20_Node000013_Node000020" class="edge">
<title>Node13&#45;&gt;Node20</title>
<g id="a_edge20_Node000013_Node000020"><a xlink:title=" ">
<path fill="none" stroke="#63b8ff" d="M574.67,-132.53C537.16,-121.23 485.94,-105.79 450.53,-95.12"/>
<polygon fill="#63b8ff" stroke="#63b8ff" points="451.66,-91.8 441.08,-92.27 449.64,-98.5 451.66,-91.8"/>
</a>
</g>
</g>
<!-- Node21 -->
<g id="Node000021" class="node">
<title>Node21</title>
<g id="a_Node000021"><a xlink:title=" ">
<polygon fill="#e0e0e0" stroke="#999999" points="619,-91.38 480,-91.38 480,-72.12 619,-72.12 619,-91.38"/>
<text text-anchor="middle" x="549.5" y="-77.88" font-family="Helvetica,sans-Serif" font-size="10.00">mlir/Support/LogicalResult.h</text>
</a>
</g>
</g>
<!-- Node13&#45;&gt;Node21 -->
<g id="edge23_Node000013_Node000021" class="edge">
<title>Node13&#45;&gt;Node21</title>
<g id="a_edge23_Node000013_Node000021"><a xlink:title=" ">
<path fill="none" stroke="#63b8ff" d="M606.71,-132.61C595.27,-122.64 580.11,-109.43 568.27,-99.11"/>
<polygon fill="#63b8ff" stroke="#63b8ff" points="570.6,-96.5 560.76,-92.57 566,-101.78 570.6,-96.5"/>
</a>
</g>
</g>
<!-- Node22 -->
<g id="Node000022" class="node">
<title>Node22</title>
<g id="a_Node000022"><a xlink:title=" ">
<polygon fill="#e0e0e0" stroke="#999999" points="755.88,-91.38 637.12,-91.38 637.12,-72.12 755.88,-72.12 755.88,-91.38"/>
<text text-anchor="middle" x="696.5" y="-77.88" font-family="Helvetica,sans-Serif" font-size="10.00">llvm/ADT/SmallString.h</text>
</a>
</g>
</g>
<!-- Node13&#45;&gt;Node22 -->
<g id="edge24_Node000013_Node000022" class="edge">
<title>Node13&#45;&gt;Node22</title>
<g id="a_edge24_Node000013_Node000022"><a xlink:title=" ">
<path fill="none" stroke="#63b8ff" d="M640.06,-132.61C651.35,-122.64 666.3,-109.43 677.98,-99.11"/>
<polygon fill="#63b8ff" stroke="#63b8ff" points="680.2,-101.82 685.38,-92.57 675.57,-96.57 680.2,-101.82"/>
</a>
</g>
</g>
<!-- Node23 -->
<g id="Node000023" class="node">
<title>Node23</title>
<g id="a_Node000023"><a xlink:title=" ">
<polygon fill="#e0e0e0" stroke="#999999" points="921.38,-91.38 811.62,-91.38 811.62,-72.12 921.38,-72.12 921.38,-91.38"/>
<text text-anchor="middle" x="866.5" y="-77.88" font-family="Helvetica,sans-Serif" font-size="10.00">llvm/ADT/StringRef.h</text>
</a>
</g>
</g>
<!-- Node13&#45;&gt;Node23 -->
<g id="edge25_Node000013_Node000023" class="edge">
<title>Node13&#45;&gt;Node23</title>
<g id="a_edge25_Node000013_Node000023"><a xlink:title=" ">
<path fill="none" stroke="#63b8ff" d="M672.97,-134.12C716.44,-122.58 779.17,-105.93 821.31,-94.74"/>
<polygon fill="#63b8ff" stroke="#63b8ff" points="822.13,-98.15 830.89,-92.2 820.33,-91.38 822.13,-98.15"/>
</a>
</g>
</g>
<!-- Node15 -->
<g id="Node000015" class="node">
<title>Node15</title>
<g id="a_Node000015"><a xlink:title=" ">
<polygon fill="#e0e0e0" stroke="#999999" points="230.38,-24.88 138.62,-24.88 138.62,-5.63 230.38,-5.63 230.38,-24.88"/>
<text text-anchor="middle" x="184.5" y="-11.38" font-family="Helvetica,sans-Serif" font-size="10.00">mlir/IR/Builders.h</text>
</a>
</g>
</g>
<!-- Node14&#45;&gt;Node15 -->
<g id="edge15_Node000014_Node000015" class="edge">
<title>Node14&#45;&gt;Node15</title>
<g id="a_edge15_Node000014_Node000015"><a xlink:title=" ">
<path fill="none" stroke="#63b8ff" d="M235.3,-71.78C226.23,-61.87 211.4,-45.66 200.11,-33.31"/>
<polygon fill="#63b8ff" stroke="#63b8ff" points="202.99,-31.28 193.66,-26.26 197.82,-36 202.99,-31.28"/>
</a>
</g>
</g>
<!-- Node14&#45;&gt;Node16 -->
<g id="edge16_Node000014_Node000016" class="edge">
<title>Node14&#45;&gt;Node16</title>
<g id="a_edge16_Node000014_Node000016"><a xlink:title=" ">
<path fill="none" stroke="#63b8ff" d="M271.73,-71.65C306.42,-60.46 365.47,-41.41 404.49,-28.83"/>
<polygon fill="#63b8ff" stroke="#63b8ff" points="405.53,-32.17 413.97,-25.77 403.38,-25.51 405.53,-32.17"/>
</a>
</g>
</g>
<!-- Node14&#45;&gt;Node17 -->
<g id="edge17_Node000014_Node000017" class="edge">
<title>Node14&#45;&gt;Node17</title>
<g id="a_edge17_Node000014_Node000017"><a xlink:title=" ">
<path fill="none" stroke="#63b8ff" d="M300.69,-72.69C315.89,-70.61 332.31,-68.42 347.5,-66.5 481.07,-49.65 637.96,-32.12 722.35,-22.88"/>
<polygon fill="#63b8ff" stroke="#63b8ff" points="722.7,-26.36 732.26,-21.8 721.94,-19.4 722.7,-26.36"/>
</a>
</g>
</g>
<!-- Node18 -->
<g id="Node000018" class="node">
<title>Node18</title>
<g id="a_Node000018"><a xlink:title=" ">
<polygon fill="#e0e0e0" stroke="#999999" points="357,-24.88 248,-24.88 248,-5.63 357,-5.63 357,-24.88"/>
<text text-anchor="middle" x="302.5" y="-11.38" font-family="Helvetica,sans-Serif" font-size="10.00">mlir/IR/ValueRange.h</text>
</a>
</g>
</g>
<!-- Node14&#45;&gt;Node18 -->
<g id="edge18_Node000014_Node000018" class="edge">
<title>Node14&#45;&gt;Node18</title>
<g id="a_edge18_Node000014_Node000018"><a xlink:title=" ">
<path fill="none" stroke="#63b8ff" d="M251.7,-71.78C260.77,-61.87 275.6,-45.66 286.89,-33.31"/>
<polygon fill="#63b8ff" stroke="#63b8ff" points="289.18,-36 293.34,-26.26 284.01,-31.28 289.18,-36"/>
</a>
</g>
</g>
<!-- Node19 -->
<g id="Node000019" class="node">
<title>Node19</title>
<g id="a_Node000019"><a xlink:title=" ">
<polygon fill="#e0e0e0" stroke="#999999" points="121,-24.88 0,-24.88 0,-5.63 121,-5.63 121,-24.88"/>
<text text-anchor="middle" x="60.5" y="-11.38" font-family="Helvetica,sans-Serif" font-size="10.00">llvm/ADT/SmallVector.h</text>
</a>
</g>
</g>
<!-- Node14&#45;&gt;Node19 -->
<g id="edge19_Node000014_Node000019" class="edge">
<title>Node14&#45;&gt;Node19</title>
<g id="a_edge19_Node000014_Node000019"><a xlink:title=" ">
<path fill="none" stroke="#63b8ff" d="M217.67,-71.65C186.06,-60.51 132.36,-41.58 96.66,-28.99"/>
<polygon fill="#63b8ff" stroke="#63b8ff" points="98.22,-25.83 87.63,-25.81 95.9,-32.44 98.22,-25.83"/>
</a>
</g>
</g>
<!-- Node24&#45;&gt;Node6 -->
<g id="edge27_Node000024_Node000006" class="edge">
<title>Node24&#45;&gt;Node6</title>
<g id="a_edge27_Node000024_Node000006"><a xlink:title=" ">
<path fill="none" stroke="#63b8ff" d="M1240.64,-138.15C1285.9,-126.74 1363.56,-107.17 1413.43,-94.61"/>
<polygon fill="#63b8ff" stroke="#63b8ff" points="1414.24,-98.02 1423.08,-92.18 1412.53,-91.23 1414.24,-98.02"/>
</a>
</g>
</g>
<!-- Node24&#45;&gt;Node16 -->
<g id="edge28_Node000024_Node000016" class="edge">
<title>Node24&#45;&gt;Node16</title>
<g id="a_edge28_Node000024_Node000016"><a xlink:title=" ">
<path fill="none" stroke="#63b8ff" d="M1149.72,-142.85C1100.35,-137.22 1026.78,-124.66 968.5,-97 948.93,-87.72 950.53,-74.73 930.5,-66.5 858.71,-37.02 641.54,-24.03 522.92,-19"/>
<polygon fill="#63b8ff" stroke="#63b8ff" points="523.41,-15.52 513.27,-18.6 523.12,-22.52 523.41,-15.52"/>
</a>
</g>
</g>
<!-- Node24&#45;&gt;Node17 -->
<g id="edge29_Node000024_Node000017" class="edge">
<title>Node24&#45;&gt;Node17</title>
<g id="a_edge29_Node000024_Node000017"><a xlink:title=" ">
<path fill="none" stroke="#63b8ff" d="M1211.96,-138.3C1224.59,-122.03 1247.11,-87.33 1228.5,-66.5 1203.37,-38.37 960.57,-24.01 844.59,-18.71"/>
<polygon fill="#63b8ff" stroke="#63b8ff" points="844.76,-15.21 834.61,-18.26 844.45,-22.21 844.76,-15.21"/>
</a>
</g>
</g>
<!-- Node24&#45;&gt;Node23 -->
<g id="edge33_Node000024_Node000023" class="edge">
<title>Node24&#45;&gt;Node23</title>
<g id="a_edge33_Node000024_Node000023"><a xlink:title=" ">
<path fill="none" stroke="#63b8ff" d="M1154.37,-138.18C1100.3,-128.33 1011.72,-111.99 935.5,-97 930.84,-96.08 926.01,-95.12 921.16,-94.14"/>
<polygon fill="#63b8ff" stroke="#63b8ff" points="921.89,-90.71 911.39,-92.15 920.49,-97.57 921.89,-90.71"/>
</a>
</g>
</g>
<!-- Node25 -->
<g id="Node000025" class="node">
<title>Node25</title>
<g id="a_Node000025"><a xlink:title=" ">
<polygon fill="#e0e0e0" stroke="#999999" points="1387.88,-91.38 1275.12,-91.38 1275.12,-72.12 1387.88,-72.12 1387.88,-91.38"/>
<text text-anchor="middle" x="1331.5" y="-77.88" font-family="Helvetica,sans-Serif" font-size="10.00">mlir/IR/SymbolTable.h</text>
</a>
</g>
</g>
<!-- Node24&#45;&gt;Node25 -->
<g id="edge30_Node000024_Node000025" class="edge">
<title>Node24&#45;&gt;Node25</title>
<g id="a_edge30_Node000024_Node000025"><a xlink:title=" ">
<path fill="none" stroke="#63b8ff" d="M1222.43,-138.15C1243.51,-127.44 1278.76,-109.53 1303.47,-96.99"/>
<polygon fill="#63b8ff" stroke="#63b8ff" points="1304.98,-100.14 1312.32,-92.49 1301.81,-93.9 1304.98,-100.14"/>
</a>
</g>
</g>
<!-- Node26 -->
<g id="Node000026" class="node">
<title>Node26</title>
<g id="a_Node000026"><a xlink:title=" ">
<polygon fill="#e0e0e0" stroke="#999999" points="1085.25,-91.38 977.75,-91.38 977.75,-72.12 1085.25,-72.12 1085.25,-91.38"/>
<text text-anchor="middle" x="1031.5" y="-77.88" font-family="Helvetica,sans-Serif" font-size="10.00">llvm/ADT/ArrayRef.h</text>
</a>
</g>
</g>
<!-- Node24&#45;&gt;Node26 -->
<g id="edge31_Node000024_Node000026" class="edge">
<title>Node24&#45;&gt;Node26</title>
<g id="a_edge31_Node000024_Node000026"><a xlink:title=" ">
<path fill="none" stroke="#63b8ff" d="M1180.08,-138.15C1150.46,-127.1 1100.3,-108.4 1066.56,-95.82"/>
<polygon fill="#63b8ff" stroke="#63b8ff" points="1067.81,-92.55 1057.21,-92.34 1065.36,-99.11 1067.81,-92.55"/>
</a>
</g>
</g>
<!-- Node27 -->
<g id="Node000027" class="node">
<title>Node27</title>
<g id="a_Node000027"><a xlink:title=" ">
<polygon fill="#e0e0e0" stroke="#999999" points="1219.38,-91.38 1103.62,-91.38 1103.62,-72.12 1219.38,-72.12 1219.38,-91.38"/>
<text text-anchor="middle" x="1161.5" y="-77.88" font-family="Helvetica,sans-Serif" font-size="10.00">llvm/ADT/DenseMap.h</text>
</a>
</g>
</g>
<!-- Node24&#45;&gt;Node27 -->
<g id="edge32_Node000024_Node000027" class="edge">
<title>Node24&#45;&gt;Node27</title>
<g id="a_edge32_Node000024_Node000027"><a xlink:title=" ">
<path fill="none" stroke="#63b8ff" d="M1198.52,-138.28C1192.1,-128.65 1181.73,-113.1 1173.6,-100.9"/>
<polygon fill="#63b8ff" stroke="#63b8ff" points="1176.73,-99.28 1168.27,-92.9 1170.9,-103.16 1176.73,-99.28"/>
</a>
</g>
</g>
</g>
</svg>
