<?xml version="1.0" encoding="UTF-8" standalone="no"?>
<!DOCTYPE svg PUBLIC "-//W3C//DTD SVG 1.1//EN"
 "http://www.w3.org/Graphics/SVG/1.1/DTD/svg11.dtd">
<!-- Generated by graphviz version 12.2.1 (20241206.2353)
 -->
<!-- Title: include/llzk/Dialect/LLZK/IR/AttributeHelper.h Pages: 1 -->
<svg width="274pt" height="94pt"
 viewBox="0.00 0.00 273.62 93.75" xmlns="http://www.w3.org/2000/svg" xmlns:xlink="http://www.w3.org/1999/xlink">
<g id="graph0" class="graph" transform="scale(1 1) rotate(0) translate(4 89.75)">
<title>include/llzk/Dialect/LLZK/IR/AttributeHelper.h</title>
<!-- Node1 -->
<g id="Node000001" class="node">
<title>Node1</title>
<g id="a_Node000001"><a xlink:title=" ">
<polygon fill="#999999" stroke="#666666" points="213.75,-85.75 82.25,-85.75 82.25,-55.25 213.75,-55.25 213.75,-85.75"/>
<text text-anchor="start" x="90.25" y="-72.25" font-family="Helvetica,sans-Serif" font-size="10.00">include/llzk/Dialect</text>
<text text-anchor="middle" x="148" y="-61" font-family="Helvetica,sans-Serif" font-size="10.00">/LLZK/IR/AttributeHelper.h</text>
</a>
</g>
</g>
<!-- Node2 -->
<g id="Node000002" class="node">
<title>Node2</title>
<g id="a_Node000002"><a xlink:title=" ">
<polygon fill="#e0e0e0" stroke="#999999" points="154,-19.25 0,-19.25 0,0 154,0 154,-19.25"/>
<text text-anchor="middle" x="77" y="-5.75" font-family="Helvetica,sans-Serif" font-size="10.00">mlir/IR/DialectImplementation.h</text>
</a>
</g>
</g>
<!-- Node1&#45;&gt;Node2 -->
<g id="edge1_Node000001_Node000002" class="edge">
<title>Node1&#45;&gt;Node2</title>
<g id="a_edge1_Node000001_Node000002"><a xlink:title=" ">
<path fill="none" stroke="#63b8ff" d="M130.45,-54.95C120.16,-46.41 107.14,-35.62 96.52,-26.81"/>
<polygon fill="#63b8ff" stroke="#63b8ff" points="99.04,-24.36 89.11,-20.67 94.57,-29.74 99.04,-24.36"/>
</a>
</g>
</g>
<!-- Node3 -->
<g id="Node000003" class="node">
<title>Node3</title>
<g id="a_Node000003"><a xlink:title=" ">
<polygon fill="#e0e0e0" stroke="#999999" points="265.62,-19.25 172.38,-19.25 172.38,0 265.62,0 265.62,-19.25"/>
<text text-anchor="middle" x="219" y="-5.75" font-family="Helvetica,sans-Serif" font-size="10.00">llvm/ADT/APInt.h</text>
</a>
</g>
</g>
<!-- Node1&#45;&gt;Node3 -->
<g id="edge2_Node000001_Node000003" class="edge">
<title>Node1&#45;&gt;Node3</title>
<g id="a_edge2_Node000001_Node000003"><a xlink:title=" ">
<path fill="none" stroke="#63b8ff" d="M165.55,-54.95C175.84,-46.41 188.86,-35.62 199.48,-26.81"/>
<polygon fill="#63b8ff" stroke="#63b8ff" points="201.43,-29.74 206.89,-20.67 196.96,-24.36 201.43,-29.74"/>
</a>
</g>
</g>
</g>
</svg>
