<?xml version="1.0" encoding="UTF-8" standalone="no"?>
<!DOCTYPE svg PUBLIC "-//W3C//DTD SVG 1.1//EN"
 "http://www.w3.org/Graphics/SVG/1.1/DTD/svg11.dtd">
<!-- Generated by graphviz version 12.2.1 (20241206.2353)
 -->
<!-- Title: lib/Dialect/Bool/IR/Ops.cpp Pages: 1 -->
<svg width="2369pt" height="305pt"
 viewBox="0.00 0.00 2368.75 304.50" xmlns="http://www.w3.org/2000/svg" xmlns:xlink="http://www.w3.org/1999/xlink">
<g id="graph0" class="graph" transform="scale(1 1) rotate(0) translate(4 300.5)">
<title>lib/Dialect/Bool/IR/Ops.cpp</title>
<!-- Node1 -->
<g id="Node000001" class="node">
<title>Node1</title>
<g id="a_Node000001"><a xlink:title=" ">
<polygon fill="#999999" stroke="#666666" points="1874.62,-296.5 1779.12,-296.5 1779.12,-266 1874.62,-266 1874.62,-296.5"/>
<text text-anchor="start" x="1787.12" y="-283" font-family="Helvetica,sans-Serif" font-size="10.00">lib/Dialect/Bool/IR</text>
<text text-anchor="middle" x="1826.88" y="-271.75" font-family="Helvetica,sans-Serif" font-size="10.00">/Ops.cpp</text>
</a>
</g>
</g>
<!-- Node2 -->
<g id="Node000002" class="node">
<title>Node2</title>
<g id="a_Node000002"><a xlink:href="_bool_2_i_r_2_ops_8h.html" target="_top" xlink:title=" ">
<polygon fill="white" stroke="#666666" points="1684.25,-230 1583.5,-230 1583.5,-199.5 1684.25,-199.5 1684.25,-230"/>
<text text-anchor="start" x="1591.5" y="-216.5" font-family="Helvetica,sans-Serif" font-size="10.00">llzk/Dialect/Bool/IR</text>
<text text-anchor="middle" x="1633.88" y="-205.25" font-family="Helvetica,sans-Serif" font-size="10.00">/Ops.h</text>
</a>
</g>
</g>
<!-- Node1&#45;&gt;Node2 -->
<g id="edge1_Node000001_Node000002" class="edge">
<title>Node1&#45;&gt;Node2</title>
<g id="a_edge1_Node000001_Node000002"><a xlink:title=" ">
<path fill="none" stroke="#63b8ff" d="M1783.08,-265.61C1755.05,-256.25 1718.46,-244.02 1688.53,-234.01"/>
<polygon fill="#63b8ff" stroke="#63b8ff" points="1689.86,-230.77 1679.27,-230.92 1687.64,-237.41 1689.86,-230.77"/>
</a>
</g>
</g>
<!-- Node26 -->
<g id="Node000026" class="node">
<title>Node26</title>
<g id="a_Node000026"><a xlink:href="_polymorphic_2_i_r_2_types_8h.html" target="_top" xlink:title=" ">
<polygon fill="white" stroke="#666666" points="2080.75,-230 1959,-230 1959,-199.5 2080.75,-199.5 2080.75,-230"/>
<text text-anchor="start" x="1967" y="-216.5" font-family="Helvetica,sans-Serif" font-size="10.00">llzk/Dialect/Polymorphic</text>
<text text-anchor="middle" x="2019.88" y="-205.25" font-family="Helvetica,sans-Serif" font-size="10.00">/IR/Types.h</text>
</a>
</g>
</g>
<!-- Node1&#45;&gt;Node26 -->
<g id="edge27_Node000001_Node000026" class="edge">
<title>Node1&#45;&gt;Node26</title>
<g id="a_edge27_Node000001_Node000026"><a xlink:title=" ">
<path fill="none" stroke="#63b8ff" d="M1870.67,-265.61C1898.7,-256.25 1935.29,-244.02 1965.22,-234.01"/>
<polygon fill="#63b8ff" stroke="#63b8ff" points="1966.11,-237.41 1974.48,-230.92 1963.89,-230.77 1966.11,-237.41"/>
</a>
</g>
</g>
<!-- Node31 -->
<g id="Node000031" class="node">
<title>Node31</title>
<g id="a_Node000031"><a xlink:href="_type_helper_8h.html" target="_top" xlink:title=" ">
<polygon fill="white" stroke="#666666" points="492.38,-157.88 383.38,-157.88 383.38,-138.62 492.38,-138.62 492.38,-157.88"/>
<text text-anchor="middle" x="437.88" y="-144.38" font-family="Helvetica,sans-Serif" font-size="10.00">llzk/Util/TypeHelper.h</text>
</a>
</g>
</g>
<!-- Node1&#45;&gt;Node31 -->
<g id="edge33_Node000001_Node000031" class="edge">
<title>Node1&#45;&gt;Node31</title>
<g id="a_edge33_Node000001_Node000031"><a xlink:title=" ">
<path fill="none" stroke="#63b8ff" d="M1778.66,-275.7C1570.06,-256.03 744.95,-178.21 504.17,-155.5"/>
<polygon fill="#63b8ff" stroke="#63b8ff" points="504.6,-152.03 494.32,-154.57 503.95,-159 504.6,-152.03"/>
</a>
</g>
</g>
<!-- Node40 -->
<g id="Node000040" class="node">
<title>Node40</title>
<g id="a_Node000040"><a xlink:href="_bool_2_i_r_2_ops_8cpp_8inc.html" target="_top" xlink:title=" ">
<polygon fill="white" stroke="#666666" points="2199.25,-230 2098.5,-230 2098.5,-199.5 2199.25,-199.5 2199.25,-230"/>
<text text-anchor="start" x="2106.5" y="-216.5" font-family="Helvetica,sans-Serif" font-size="10.00">llzk/Dialect/Bool/IR</text>
<text text-anchor="middle" x="2148.88" y="-205.25" font-family="Helvetica,sans-Serif" font-size="10.00">/Ops.cpp.inc</text>
</a>
</g>
</g>
<!-- Node1&#45;&gt;Node40 -->
<g id="edge44_Node000001_Node000040" class="edge">
<title>Node1&#45;&gt;Node40</title>
<g id="a_edge44_Node000001_Node000040"><a xlink:title=" ">
<path fill="none" stroke="#63b8ff" d="M1875.01,-271.77C1925.48,-262.72 2007.36,-247.59 2086.86,-230.6"/>
<polygon fill="#63b8ff" stroke="#63b8ff" points="2087.54,-234.03 2096.58,-228.51 2086.07,-227.19 2087.54,-234.03"/>
</a>
</g>
</g>
<!-- Node2&#45;&gt;Node2 -->
<g id="edge14_Node000002_Node000002" class="edge">
<title>Node2&#45;&gt;Node2</title>
<g id="a_edge14_Node000002_Node000002"><a xlink:title=" ">
<path fill="none" stroke="#63b8ff" d="M1684.57,-226.74C1694.87,-225.44 1702.25,-221.44 1702.25,-214.75 1702.25,-210.78 1699.65,-207.76 1695.38,-205.68"/>
<polygon fill="#63b8ff" stroke="#63b8ff" points="1696.59,-202.38 1686.03,-203.15 1694.77,-209.14 1696.59,-202.38"/>
</a>
</g>
</g>
<!-- Node3 -->
<g id="Node000003" class="node">
<title>Node3</title>
<g id="a_Node000003"><a xlink:href="_bool_2_i_r_2_attrs_8h.html" target="_top" xlink:title=" ">
<polygon fill="white" stroke="#666666" points="1389.25,-163.5 1288.5,-163.5 1288.5,-133 1389.25,-133 1389.25,-163.5"/>
<text text-anchor="start" x="1296.5" y="-150" font-family="Helvetica,sans-Serif" font-size="10.00">llzk/Dialect/Bool/IR</text>
<text text-anchor="middle" x="1338.88" y="-138.75" font-family="Helvetica,sans-Serif" font-size="10.00">/Attrs.h</text>
</a>
</g>
</g>
<!-- Node2&#45;&gt;Node3 -->
<g id="edge2_Node000002_Node000003" class="edge">
<title>Node2&#45;&gt;Node3</title>
<g id="a_edge2_Node000002_Node000003"><a xlink:title=" ">
<path fill="none" stroke="#63b8ff" d="M1583.16,-202.66C1532.56,-191.6 1454.76,-174.59 1400.6,-162.75"/>
<polygon fill="#63b8ff" stroke="#63b8ff" points="1401.41,-159.34 1390.9,-160.62 1399.92,-166.18 1401.41,-159.34"/>
</a>
</g>
</g>
<!-- Node12 -->
<g id="Node000012" class="node">
<title>Node12</title>
<g id="a_Node000012"><a xlink:href="_bool_2_i_r_2_dialect_8h.html" target="_top" xlink:title=" ">
<polygon fill="white" stroke="#666666" points="1567.25,-163.5 1466.5,-163.5 1466.5,-133 1567.25,-133 1567.25,-163.5"/>
<text text-anchor="start" x="1474.5" y="-150" font-family="Helvetica,sans-Serif" font-size="10.00">llzk/Dialect/Bool/IR</text>
<text text-anchor="middle" x="1516.88" y="-138.75" font-family="Helvetica,sans-Serif" font-size="10.00">/Dialect.h</text>
</a>
</g>
</g>
<!-- Node2&#45;&gt;Node12 -->
<g id="edge11_Node000002_Node000012" class="edge">
<title>Node2&#45;&gt;Node12</title>
<g id="a_edge11_Node000002_Node000012"><a xlink:title=" ">
<path fill="none" stroke="#63b8ff" d="M1607.33,-199.11C1591.32,-190.29 1570.71,-178.93 1553.21,-169.28"/>
<polygon fill="#63b8ff" stroke="#63b8ff" points="1555.09,-166.32 1544.64,-164.56 1551.71,-172.45 1555.09,-166.32"/>
</a>
</g>
</g>
<!-- Node15 -->
<g id="Node000015" class="node">
<title>Node15</title>
<g id="a_Node000015"><a xlink:href="_felt_2_i_r_2_types_8h.html" target="_top" xlink:title=" ">
<polygon fill="white" stroke="#666666" points="1682.75,-163.5 1585,-163.5 1585,-133 1682.75,-133 1682.75,-163.5"/>
<text text-anchor="start" x="1593" y="-150" font-family="Helvetica,sans-Serif" font-size="10.00">llzk/Dialect/Felt/IR</text>
<text text-anchor="middle" x="1633.88" y="-138.75" font-family="Helvetica,sans-Serif" font-size="10.00">/Types.h</text>
</a>
</g>
</g>
<!-- Node2&#45;&gt;Node15 -->
<g id="edge15_Node000002_Node000015" class="edge">
<title>Node2&#45;&gt;Node15</title>
<g id="a_edge15_Node000002_Node000015"><a xlink:title=" ">
<path fill="none" stroke="#63b8ff" d="M1633.88,-199.11C1633.88,-192.02 1633.88,-183.29 1633.88,-175.13"/>
<polygon fill="#63b8ff" stroke="#63b8ff" points="1637.38,-175.34 1633.88,-165.34 1630.38,-175.34 1637.38,-175.34"/>
</a>
</g>
</g>
<!-- Node20 -->
<g id="Node000020" class="node">
<title>Node20</title>
<g id="a_Node000020"><a xlink:href="_op_traits_8h.html" target="_top" xlink:title=" ">
<polygon fill="white" stroke="#666666" points="1005.5,-163.5 900.25,-163.5 900.25,-133 1005.5,-133 1005.5,-163.5"/>
<text text-anchor="start" x="908.25" y="-150" font-family="Helvetica,sans-Serif" font-size="10.00">llzk/Dialect/Function</text>
<text text-anchor="middle" x="952.88" y="-138.75" font-family="Helvetica,sans-Serif" font-size="10.00">/IR/OpTraits.h</text>
</a>
</g>
</g>
<!-- Node2&#45;&gt;Node20 -->
<g id="edge21_Node000002_Node000020" class="edge">
<title>Node2&#45;&gt;Node20</title>
<g id="a_edge21_Node000002_Node000020"><a xlink:title=" ">
<path fill="none" stroke="#63b8ff" d="M1583.25,-208.95C1461.34,-197.41 1151.67,-168.08 1017.02,-155.33"/>
<polygon fill="#63b8ff" stroke="#63b8ff" points="1017.5,-151.86 1007.21,-154.4 1016.84,-158.82 1017.5,-151.86"/>
</a>
</g>
</g>
<!-- Node24 -->
<g id="Node000024" class="node">
<title>Node24</title>
<g id="a_Node000024"><a xlink:title=" ">
<polygon fill="#e0e0e0" stroke="#999999" points="1822.75,-163.5 1701,-163.5 1701,-133 1822.75,-133 1822.75,-163.5"/>
<text text-anchor="start" x="1709" y="-150" font-family="Helvetica,sans-Serif" font-size="10.00">mlir/Interfaces/InferType</text>
<text text-anchor="middle" x="1761.88" y="-138.75" font-family="Helvetica,sans-Serif" font-size="10.00">OpInterface.h</text>
</a>
</g>
</g>
<!-- Node2&#45;&gt;Node24 -->
<g id="edge25_Node000002_Node000024" class="edge">
<title>Node2&#45;&gt;Node24</title>
<g id="a_edge25_Node000002_Node000024"><a xlink:title=" ">
<path fill="none" stroke="#63b8ff" d="M1662.92,-199.11C1680.6,-190.21 1703.4,-178.72 1722.66,-169.01"/>
<polygon fill="#63b8ff" stroke="#63b8ff" points="1724.24,-172.13 1731.59,-164.51 1721.09,-165.88 1724.24,-172.13"/>
</a>
</g>
</g>
<!-- Node25 -->
<g id="Node000025" class="node">
<title>Node25</title>
<g id="a_Node000025"><a xlink:href="_bool_2_i_r_2_ops_8h_8inc.html" target="_top" xlink:title=" ">
<polygon fill="white" stroke="#666666" points="1941.25,-163.5 1840.5,-163.5 1840.5,-133 1941.25,-133 1941.25,-163.5"/>
<text text-anchor="start" x="1848.5" y="-150" font-family="Helvetica,sans-Serif" font-size="10.00">llzk/Dialect/Bool/IR</text>
<text text-anchor="middle" x="1890.88" y="-138.75" font-family="Helvetica,sans-Serif" font-size="10.00">/Ops.h.inc</text>
</a>
</g>
</g>
<!-- Node2&#45;&gt;Node25 -->
<g id="edge26_Node000002_Node000025" class="edge">
<title>Node2&#45;&gt;Node25</title>
<g id="a_edge26_Node000002_Node000025"><a xlink:title=" ">
<path fill="none" stroke="#63b8ff" d="M1684.65,-201.01C1726.19,-190.58 1785.08,-175.8 1829.3,-164.7"/>
<polygon fill="#63b8ff" stroke="#63b8ff" points="1829.89,-168.16 1838.74,-162.34 1828.19,-161.37 1829.89,-168.16"/>
</a>
</g>
</g>
<!-- Node4 -->
<g id="Node000004" class="node">
<title>Node4</title>
<g id="a_Node000004"><a xlink:href="_enums_8h.html" target="_top" xlink:title=" ">
<polygon fill="white" stroke="#666666" points="1212.25,-97 1111.5,-97 1111.5,-66.5 1212.25,-66.5 1212.25,-97"/>
<text text-anchor="start" x="1119.5" y="-83.5" font-family="Helvetica,sans-Serif" font-size="10.00">llzk/Dialect/Bool/IR</text>
<text text-anchor="middle" x="1161.88" y="-72.25" font-family="Helvetica,sans-Serif" font-size="10.00">/Enums.h</text>
</a>
</g>
</g>
<!-- Node3&#45;&gt;Node4 -->
<g id="edge3_Node000003_Node000004" class="edge">
<title>Node3&#45;&gt;Node4</title>
<g id="a_edge3_Node000003_Node000004"><a xlink:title=" ">
<path fill="none" stroke="#63b8ff" d="M1298.71,-132.61C1273.23,-123.33 1240.03,-111.23 1212.72,-101.28"/>
<polygon fill="#63b8ff" stroke="#63b8ff" points="1214.2,-98.09 1203.61,-97.96 1211.81,-104.67 1214.2,-98.09"/>
</a>
</g>
</g>
<!-- Node10 -->
<g id="Node000010" class="node">
<title>Node10</title>
<g id="a_Node000010"><a xlink:title=" ">
<polygon fill="#e0e0e0" stroke="#999999" points="1448.12,-91.38 1349.62,-91.38 1349.62,-72.12 1448.12,-72.12 1448.12,-91.38"/>
<text text-anchor="middle" x="1398.88" y="-77.88" font-family="Helvetica,sans-Serif" font-size="10.00">mlir/IR/Attributes.h</text>
</a>
</g>
</g>
<!-- Node3&#45;&gt;Node10 -->
<g id="edge9_Node000003_Node000010" class="edge">
<title>Node3&#45;&gt;Node10</title>
<g id="a_edge9_Node000003_Node000010"><a xlink:title=" ">
<path fill="none" stroke="#63b8ff" d="M1352.49,-132.61C1361.58,-122.84 1373.57,-109.95 1383.08,-99.73"/>
<polygon fill="#63b8ff" stroke="#63b8ff" points="1385.39,-102.39 1389.64,-92.68 1380.26,-97.62 1385.39,-102.39"/>
</a>
</g>
</g>
<!-- Node11 -->
<g id="Node000011" class="node">
<title>Node11</title>
<g id="a_Node000011"><a xlink:href="_bool_2_i_r_2_attrs_8h_8inc.html" target="_top" xlink:title=" ">
<polygon fill="white" stroke="#666666" points="1331.25,-97 1230.5,-97 1230.5,-66.5 1331.25,-66.5 1331.25,-97"/>
<text text-anchor="start" x="1238.5" y="-83.5" font-family="Helvetica,sans-Serif" font-size="10.00">llzk/Dialect/Bool/IR</text>
<text text-anchor="middle" x="1280.88" y="-72.25" font-family="Helvetica,sans-Serif" font-size="10.00">/Attrs.h.inc</text>
</a>
</g>
</g>
<!-- Node3&#45;&gt;Node11 -->
<g id="edge10_Node000003_Node000011" class="edge">
<title>Node3&#45;&gt;Node11</title>
<g id="a_edge10_Node000003_Node000011"><a xlink:title=" ">
<path fill="none" stroke="#63b8ff" d="M1325.71,-132.61C1318.59,-124.7 1309.64,-114.74 1301.61,-105.8"/>
<polygon fill="#63b8ff" stroke="#63b8ff" points="1304.29,-103.55 1295,-98.45 1299.08,-108.23 1304.29,-103.55"/>
</a>
</g>
</g>
<!-- Node5 -->
<g id="Node000005" class="node">
<title>Node5</title>
<g id="a_Node000005"><a xlink:title=" ">
<polygon fill="#e0e0e0" stroke="#999999" points="1001,-24.88 892.75,-24.88 892.75,-5.63 1001,-5.63 1001,-24.88"/>
<text text-anchor="middle" x="946.88" y="-11.38" font-family="Helvetica,sans-Serif" font-size="10.00">mlir/IR/Diagnostics.h</text>
</a>
</g>
</g>
<!-- Node4&#45;&gt;Node5 -->
<g id="edge4_Node000004_Node000005" class="edge">
<title>Node4&#45;&gt;Node5</title>
<g id="a_edge4_Node000004_Node000005"><a xlink:title=" ">
<path fill="none" stroke="#63b8ff" d="M1112.82,-66.03C1075.13,-54.73 1023.67,-39.29 988.1,-28.62"/>
<polygon fill="#63b8ff" stroke="#63b8ff" points="989.18,-25.29 978.59,-25.77 987.17,-31.99 989.18,-25.29"/>
</a>
</g>
</g>
<!-- Node6 -->
<g id="Node000006" class="node">
<title>Node6</title>
<g id="a_Node000006"><a xlink:title=" ">
<polygon fill="#e0e0e0" stroke="#999999" points="1151,-24.88 1018.75,-24.88 1018.75,-5.63 1151,-5.63 1151,-24.88"/>
<text text-anchor="middle" x="1084.88" y="-11.38" font-family="Helvetica,sans-Serif" font-size="10.00">llvm/ADT/DenseMapInfo.h</text>
</a>
</g>
</g>
<!-- Node4&#45;&gt;Node6 -->
<g id="edge5_Node000004_Node000006" class="edge">
<title>Node4&#45;&gt;Node6</title>
<g id="a_edge5_Node000004_Node000006"><a xlink:title=" ">
<path fill="none" stroke="#63b8ff" d="M1144.4,-66.11C1132.38,-56.04 1116.41,-42.67 1104.04,-32.31"/>
<polygon fill="#63b8ff" stroke="#63b8ff" points="1106.48,-29.78 1096.57,-26.04 1101.99,-35.15 1106.48,-29.78"/>
</a>
</g>
</g>
<!-- Node7 -->
<g id="Node000007" class="node">
<title>Node7</title>
<g id="a_Node000007"><a xlink:title=" ">
<polygon fill="#e0e0e0" stroke="#999999" points="757.75,-24.88 648,-24.88 648,-5.63 757.75,-5.63 757.75,-24.88"/>
<text text-anchor="middle" x="702.88" y="-11.38" font-family="Helvetica,sans-Serif" font-size="10.00">llvm/ADT/StringRef.h</text>
</a>
</g>
</g>
<!-- Node4&#45;&gt;Node7 -->
<g id="edge6_Node000004_Node000007" class="edge">
<title>Node4&#45;&gt;Node7</title>
<g id="a_edge6_Node000004_Node000007"><a xlink:title=" ">
<path fill="none" stroke="#63b8ff" d="M1111.22,-68.31C1108.06,-67.66 1104.93,-67.05 1101.88,-66.5 985.65,-45.44 848.78,-30.27 769.32,-22.4"/>
<polygon fill="#63b8ff" stroke="#63b8ff" points="769.82,-18.94 759.53,-21.44 769.14,-25.9 769.82,-18.94"/>
</a>
</g>
</g>
<!-- Node8 -->
<g id="Node000008" class="node">
<title>Node8</title>
<g id="a_Node000008"><a xlink:title=" ">
<polygon fill="#e0e0e0" stroke="#999999" points="1307,-24.88 1168.75,-24.88 1168.75,-5.63 1307,-5.63 1307,-24.88"/>
<text text-anchor="middle" x="1237.88" y="-11.38" font-family="Helvetica,sans-Serif" font-size="10.00">llvm/Support/raw_ostream.h</text>
</a>
</g>
</g>
<!-- Node4&#45;&gt;Node8 -->
<g id="edge7_Node000004_Node000008" class="edge">
<title>Node4&#45;&gt;Node8</title>
<g id="a_edge7_Node000004_Node000008"><a xlink:title=" ">
<path fill="none" stroke="#63b8ff" d="M1179.12,-66.11C1190.99,-56.04 1206.75,-42.67 1218.96,-32.31"/>
<polygon fill="#63b8ff" stroke="#63b8ff" points="1220.97,-35.19 1226.33,-26.05 1216.44,-29.85 1220.97,-35.19"/>
</a>
</g>
</g>
<!-- Node9 -->
<g id="Node000009" class="node">
<title>Node9</title>
<g id="a_Node000009"><a xlink:href="_enums_8h_8inc.html" target="_top" xlink:title=" ">
<polygon fill="white" stroke="#666666" points="1426.25,-30.5 1325.5,-30.5 1325.5,0 1426.25,0 1426.25,-30.5"/>
<text text-anchor="start" x="1333.5" y="-17" font-family="Helvetica,sans-Serif" font-size="10.00">llzk/Dialect/Bool/IR</text>
<text text-anchor="middle" x="1375.88" y="-5.75" font-family="Helvetica,sans-Serif" font-size="10.00">/Enums.h.inc</text>
</a>
</g>
</g>
<!-- Node4&#45;&gt;Node9 -->
<g id="edge8_Node000004_Node000009" class="edge">
<title>Node4&#45;&gt;Node9</title>
<g id="a_edge8_Node000004_Node000009"><a xlink:title=" ">
<path fill="none" stroke="#63b8ff" d="M1210.7,-66.03C1242.07,-56.58 1283.01,-44.24 1316.29,-34.21"/>
<polygon fill="#63b8ff" stroke="#63b8ff" points="1317.24,-37.58 1325.81,-31.34 1315.22,-30.88 1317.24,-37.58"/>
</a>
</g>
</g>
<!-- Node13 -->
<g id="Node000013" class="node">
<title>Node13</title>
<g id="a_Node000013"><a xlink:title=" ">
<polygon fill="#e0e0e0" stroke="#999999" points="1683.62,-24.88 1582.12,-24.88 1582.12,-5.63 1683.62,-5.63 1683.62,-24.88"/>
<text text-anchor="middle" x="1632.88" y="-11.38" font-family="Helvetica,sans-Serif" font-size="10.00">mlir/IR/BuiltinOps.h</text>
</a>
</g>
</g>
<!-- Node12&#45;&gt;Node13 -->
<g id="edge12_Node000012_Node000013" class="edge">
<title>Node12&#45;&gt;Node13</title>
<g id="a_edge12_Node000012_Node000013"><a xlink:title=" ">
<path fill="none" stroke="#63b8ff" d="M1536.56,-132.53C1548.59,-123.07 1563.9,-110.12 1575.88,-97 1593.89,-77.27 1611.07,-51.67 1621.78,-34.64"/>
<polygon fill="#63b8ff" stroke="#63b8ff" points="1624.49,-36.91 1626.76,-26.56 1618.53,-33.24 1624.49,-36.91"/>
</a>
</g>
</g>
<!-- Node14 -->
<g id="Node000014" class="node">
<title>Node14</title>
<g id="a_Node000014"><a xlink:href="_bool_2_i_r_2_dialect_8h_8inc.html" target="_top" xlink:title=" ">
<polygon fill="white" stroke="#666666" points="1567.25,-97 1466.5,-97 1466.5,-66.5 1567.25,-66.5 1567.25,-97"/>
<text text-anchor="start" x="1474.5" y="-83.5" font-family="Helvetica,sans-Serif" font-size="10.00">llzk/Dialect/Bool/IR</text>
<text text-anchor="middle" x="1516.88" y="-72.25" font-family="Helvetica,sans-Serif" font-size="10.00">/Dialect.h.inc</text>
</a>
</g>
</g>
<!-- Node12&#45;&gt;Node14 -->
<g id="edge13_Node000012_Node000014" class="edge">
<title>Node12&#45;&gt;Node14</title>
<g id="a_edge13_Node000012_Node000014"><a xlink:title=" ">
<path fill="none" stroke="#63b8ff" d="M1516.88,-132.61C1516.88,-125.52 1516.88,-116.79 1516.88,-108.63"/>
<polygon fill="#63b8ff" stroke="#63b8ff" points="1520.38,-108.84 1516.88,-98.84 1513.38,-108.84 1520.38,-108.84"/>
</a>
</g>
</g>
<!-- Node16 -->
<g id="Node000016" class="node">
<title>Node16</title>
<g id="a_Node000016"><a xlink:href="_felt_2_i_r_2_dialect_8h.html" target="_top" xlink:title=" ">
<polygon fill="white" stroke="#666666" points="1720.75,-97 1623,-97 1623,-66.5 1720.75,-66.5 1720.75,-97"/>
<text text-anchor="start" x="1631" y="-83.5" font-family="Helvetica,sans-Serif" font-size="10.00">llzk/Dialect/Felt/IR</text>
<text text-anchor="middle" x="1671.88" y="-72.25" font-family="Helvetica,sans-Serif" font-size="10.00">/Dialect.h</text>
</a>
</g>
</g>
<!-- Node15&#45;&gt;Node16 -->
<g id="edge16_Node000015_Node000016" class="edge">
<title>Node15&#45;&gt;Node16</title>
<g id="a_edge16_Node000015_Node000016"><a xlink:title=" ">
<path fill="none" stroke="#63b8ff" d="M1642.5,-132.61C1646.92,-125.11 1652.42,-115.77 1657.47,-107.21"/>
<polygon fill="#63b8ff" stroke="#63b8ff" points="1660.46,-109.02 1662.52,-98.63 1654.43,-105.47 1660.46,-109.02"/>
</a>
</g>
</g>
<!-- Node18 -->
<g id="Node000018" class="node">
<title>Node18</title>
<g id="a_Node000018"><a xlink:href="_felt_2_i_r_2_ops_8h_8inc.html" target="_top" xlink:title=" ">
<polygon fill="white" stroke="#666666" points="1836.75,-97 1739,-97 1739,-66.5 1836.75,-66.5 1836.75,-97"/>
<text text-anchor="start" x="1747" y="-83.5" font-family="Helvetica,sans-Serif" font-size="10.00">llzk/Dialect/Felt/IR</text>
<text text-anchor="middle" x="1787.88" y="-72.25" font-family="Helvetica,sans-Serif" font-size="10.00">/Ops.h.inc</text>
</a>
</g>
</g>
<!-- Node15&#45;&gt;Node18 -->
<g id="edge19_Node000015_Node000018" class="edge">
<title>Node15&#45;&gt;Node18</title>
<g id="a_edge19_Node000015_Node000018"><a xlink:title=" ">
<path fill="none" stroke="#63b8ff" d="M1668.82,-132.61C1690.6,-123.49 1718.85,-111.66 1742.37,-101.81"/>
<polygon fill="#63b8ff" stroke="#63b8ff" points="1743.53,-105.12 1751.41,-98.02 1740.83,-98.66 1743.53,-105.12"/>
</a>
</g>
</g>
<!-- Node19 -->
<g id="Node000019" class="node">
<title>Node19</title>
<g id="a_Node000019"><a xlink:href="_felt_2_i_r_2_types_8h_8inc.html" target="_top" xlink:title=" ">
<polygon fill="white" stroke="#666666" points="1952.75,-97 1855,-97 1855,-66.5 1952.75,-66.5 1952.75,-97"/>
<text text-anchor="start" x="1863" y="-83.5" font-family="Helvetica,sans-Serif" font-size="10.00">llzk/Dialect/Felt/IR</text>
<text text-anchor="middle" x="1903.88" y="-72.25" font-family="Helvetica,sans-Serif" font-size="10.00">/Types.h.inc</text>
</a>
</g>
</g>
<!-- Node15&#45;&gt;Node19 -->
<g id="edge20_Node000015_Node000019" class="edge">
<title>Node15&#45;&gt;Node19</title>
<g id="a_edge20_Node000015_Node000019"><a xlink:title=" ">
<path fill="none" stroke="#63b8ff" d="M1683.23,-135.08C1686.15,-134.38 1689.05,-133.68 1691.88,-133 1756.89,-117.41 1775.71,-113.73 1843.66,-97.52"/>
<polygon fill="#63b8ff" stroke="#63b8ff" points="1844.14,-101 1853.05,-95.27 1842.51,-94.19 1844.14,-101"/>
</a>
</g>
</g>
<!-- Node16&#45;&gt;Node13 -->
<g id="edge17_Node000016_Node000013" class="edge">
<title>Node16&#45;&gt;Node13</title>
<g id="a_edge17_Node000016_Node000013"><a xlink:title=" ">
<path fill="none" stroke="#63b8ff" d="M1663.03,-66.11C1657.41,-56.83 1650.11,-44.75 1644.09,-34.8"/>
<polygon fill="#63b8ff" stroke="#63b8ff" points="1647.16,-33.11 1638.99,-26.37 1641.17,-36.74 1647.16,-33.11"/>
</a>
</g>
</g>
<!-- Node17 -->
<g id="Node000017" class="node">
<title>Node17</title>
<g id="a_Node000017"><a xlink:href="_felt_2_i_r_2_dialect_8h_8inc.html" target="_top" xlink:title=" ">
<polygon fill="white" stroke="#666666" points="1799.75,-30.5 1702,-30.5 1702,0 1799.75,0 1799.75,-30.5"/>
<text text-anchor="start" x="1710" y="-17" font-family="Helvetica,sans-Serif" font-size="10.00">llzk/Dialect/Felt/IR</text>
<text text-anchor="middle" x="1750.88" y="-5.75" font-family="Helvetica,sans-Serif" font-size="10.00">/Dialect.h.inc</text>
</a>
</g>
</g>
<!-- Node16&#45;&gt;Node17 -->
<g id="edge18_Node000016_Node000017" class="edge">
<title>Node16&#45;&gt;Node17</title>
<g id="a_edge18_Node000016_Node000017"><a xlink:title=" ">
<path fill="none" stroke="#63b8ff" d="M1689.8,-66.11C1700,-57.78 1712.97,-47.19 1724.34,-37.92"/>
<polygon fill="#63b8ff" stroke="#63b8ff" points="1726.31,-40.82 1731.85,-31.79 1721.89,-35.4 1726.31,-40.82"/>
</a>
</g>
</g>
<!-- Node21 -->
<g id="Node000021" class="node">
<title>Node21</title>
<g id="a_Node000021"><a xlink:title=" ">
<polygon fill="#e0e0e0" stroke="#999999" points="936.12,-91.38 825.62,-91.38 825.62,-72.12 936.12,-72.12 936.12,-91.38"/>
<text text-anchor="middle" x="880.88" y="-77.88" font-family="Helvetica,sans-Serif" font-size="10.00">mlir/IR/OpDefinition.h</text>
</a>
</g>
</g>
<!-- Node20&#45;&gt;Node21 -->
<g id="edge22_Node000020_Node000021" class="edge">
<title>Node20&#45;&gt;Node21</title>
<g id="a_edge22_Node000020_Node000021"><a xlink:title=" ">
<path fill="none" stroke="#63b8ff" d="M936.54,-132.61C925.41,-122.64 910.66,-109.43 899.14,-99.11"/>
<polygon fill="#63b8ff" stroke="#63b8ff" points="901.63,-96.65 891.85,-92.58 896.96,-101.86 901.63,-96.65"/>
</a>
</g>
</g>
<!-- Node22 -->
<g id="Node000022" class="node">
<title>Node22</title>
<g id="a_Node000022"><a xlink:title=" ">
<polygon fill="#e0e0e0" stroke="#999999" points="807.12,-91.38 708.62,-91.38 708.62,-72.12 807.12,-72.12 807.12,-91.38"/>
<text text-anchor="middle" x="757.88" y="-77.88" font-family="Helvetica,sans-Serif" font-size="10.00">mlir/IR/Operation.h</text>
</a>
</g>
</g>
<!-- Node20&#45;&gt;Node22 -->
<g id="edge23_Node000020_Node000022" class="edge">
<title>Node20&#45;&gt;Node22</title>
<g id="a_edge23_Node000020_Node000022"><a xlink:title=" ">
<path fill="none" stroke="#63b8ff" d="M908.63,-132.61C874.75,-121.41 828.51,-106.11 796.2,-95.43"/>
<polygon fill="#63b8ff" stroke="#63b8ff" points="797.43,-92.15 786.84,-92.33 795.23,-98.79 797.43,-92.15"/>
</a>
</g>
</g>
<!-- Node23 -->
<g id="Node000023" class="node">
<title>Node23</title>
<g id="a_Node000023"><a xlink:title=" ">
<polygon fill="#e0e0e0" stroke="#999999" points="1093.38,-91.38 954.38,-91.38 954.38,-72.12 1093.38,-72.12 1093.38,-91.38"/>
<text text-anchor="middle" x="1023.88" y="-77.88" font-family="Helvetica,sans-Serif" font-size="10.00">mlir/Support/LogicalResult.h</text>
</a>
</g>
</g>
<!-- Node20&#45;&gt;Node23 -->
<g id="edge24_Node000020_Node000023" class="edge">
<title>Node20&#45;&gt;Node23</title>
<g id="a_edge24_Node000020_Node000023"><a xlink:title=" ">
<path fill="none" stroke="#63b8ff" d="M968.99,-132.61C979.96,-122.64 994.51,-109.43 1005.87,-99.11"/>
<polygon fill="#63b8ff" stroke="#63b8ff" points="1007.99,-101.91 1013.04,-92.59 1003.29,-96.72 1007.99,-101.91"/>
</a>
</g>
</g>
<!-- Node27 -->
<g id="Node000027" class="node">
<title>Node27</title>
<g id="a_Node000027"><a xlink:href="_polymorphic_2_i_r_2_dialect_8h.html" target="_top" xlink:title=" ">
<polygon fill="white" stroke="#666666" points="2360.75,-163.5 2239,-163.5 2239,-133 2360.75,-133 2360.75,-163.5"/>
<text text-anchor="start" x="2247" y="-150" font-family="Helvetica,sans-Serif" font-size="10.00">llzk/Dialect/Polymorphic</text>
<text text-anchor="middle" x="2299.88" y="-138.75" font-family="Helvetica,sans-Serif" font-size="10.00">/IR/Dialect.h</text>
</a>
</g>
</g>
<!-- Node26&#45;&gt;Node27 -->
<g id="edge28_Node000026_Node000027" class="edge">
<title>Node26&#45;&gt;Node27</title>
<g id="a_edge28_Node000026_Node000027"><a xlink:title=" ">
<path fill="none" stroke="#63b8ff" d="M2080.98,-199.67C2124.23,-189.71 2182.42,-176.31 2227.92,-165.82"/>
<polygon fill="#63b8ff" stroke="#63b8ff" points="2228.47,-169.29 2237.43,-163.63 2226.9,-162.47 2228.47,-169.29"/>
</a>
</g>
</g>
<!-- Node29 -->
<g id="Node000029" class="node">
<title>Node29</title>
<g id="a_Node000029"><a xlink:href="_polymorphic_2_i_r_2_ops_8h_8inc.html" target="_top" xlink:title=" ">
<polygon fill="white" stroke="#666666" points="2220.75,-163.5 2099,-163.5 2099,-133 2220.75,-133 2220.75,-163.5"/>
<text text-anchor="start" x="2107" y="-150" font-family="Helvetica,sans-Serif" font-size="10.00">llzk/Dialect/Polymorphic</text>
<text text-anchor="middle" x="2159.88" y="-138.75" font-family="Helvetica,sans-Serif" font-size="10.00">/IR/Ops.h.inc</text>
</a>
</g>
</g>
<!-- Node26&#45;&gt;Node29 -->
<g id="edge31_Node000026_Node000029" class="edge">
<title>Node26&#45;&gt;Node29</title>
<g id="a_edge31_Node000026_Node000029"><a xlink:title=" ">
<path fill="none" stroke="#63b8ff" d="M2051.64,-199.11C2071.24,-190.08 2096.61,-178.4 2117.86,-168.61"/>
<polygon fill="#63b8ff" stroke="#63b8ff" points="2119.24,-171.82 2126.86,-164.46 2116.31,-165.47 2119.24,-171.82"/>
</a>
</g>
</g>
<!-- Node30 -->
<g id="Node000030" class="node">
<title>Node30</title>
<g id="a_Node000030"><a xlink:href="_polymorphic_2_i_r_2_types_8h_8inc.html" target="_top" xlink:title=" ">
<polygon fill="white" stroke="#666666" points="2080.75,-163.5 1959,-163.5 1959,-133 2080.75,-133 2080.75,-163.5"/>
<text text-anchor="start" x="1967" y="-150" font-family="Helvetica,sans-Serif" font-size="10.00">llzk/Dialect/Polymorphic</text>
<text text-anchor="middle" x="2019.88" y="-138.75" font-family="Helvetica,sans-Serif" font-size="10.00">/IR/Types.h.inc</text>
</a>
</g>
</g>
<!-- Node26&#45;&gt;Node30 -->
<g id="edge32_Node000026_Node000030" class="edge">
<title>Node26&#45;&gt;Node30</title>
<g id="a_edge32_Node000026_Node000030"><a xlink:title=" ">
<path fill="none" stroke="#63b8ff" d="M2019.88,-199.11C2019.88,-192.02 2019.88,-183.29 2019.88,-175.13"/>
<polygon fill="#63b8ff" stroke="#63b8ff" points="2023.38,-175.34 2019.88,-165.34 2016.38,-175.34 2023.38,-175.34"/>
</a>
</g>
</g>
<!-- Node27&#45;&gt;Node13 -->
<g id="edge29_Node000027_Node000013" class="edge">
<title>Node27&#45;&gt;Node13</title>
<g id="a_edge29_Node000027_Node000013"><a xlink:title=" ">
<path fill="none" stroke="#63b8ff" d="M2245.79,-132.54C2179.36,-114.88 2063.01,-85.3 1961.88,-66.5 1843.28,-44.46 1811.48,-52.46 1692.88,-30.5 1688.56,-29.7 1684.08,-28.79 1679.61,-27.83"/>
<polygon fill="#63b8ff" stroke="#63b8ff" points="1680.6,-24.46 1670.08,-25.69 1679.07,-31.29 1680.6,-24.46"/>
</a>
</g>
</g>
<!-- Node28 -->
<g id="Node000028" class="node">
<title>Node28</title>
<g id="a_Node000028"><a xlink:href="_polymorphic_2_i_r_2_dialect_8h_8inc.html" target="_top" xlink:title=" ">
<polygon fill="white" stroke="#666666" points="2360.75,-97 2239,-97 2239,-66.5 2360.75,-66.5 2360.75,-97"/>
<text text-anchor="start" x="2247" y="-83.5" font-family="Helvetica,sans-Serif" font-size="10.00">llzk/Dialect/Polymorphic</text>
<text text-anchor="middle" x="2299.88" y="-72.25" font-family="Helvetica,sans-Serif" font-size="10.00">/IR/Dialect.h.inc</text>
</a>
</g>
</g>
<!-- Node27&#45;&gt;Node28 -->
<g id="edge30_Node000027_Node000028" class="edge">
<title>Node27&#45;&gt;Node28</title>
<g id="a_edge30_Node000027_Node000028"><a xlink:title=" ">
<path fill="none" stroke="#63b8ff" d="M2299.88,-132.61C2299.88,-125.52 2299.88,-116.79 2299.88,-108.63"/>
<polygon fill="#63b8ff" stroke="#63b8ff" points="2303.38,-108.84 2299.88,-98.84 2296.38,-108.84 2303.38,-108.84"/>
</a>
</g>
</g>
<!-- Node31&#45;&gt;Node7 -->
<g id="edge43_Node000031_Node000007" class="edge">
<title>Node31&#45;&gt;Node7</title>
<g id="a_edge43_Node000031_Node000007"><a xlink:title=" ">
<path fill="none" stroke="#63b8ff" d="M385.39,-138.13C330.76,-126.45 257.37,-103.2 289.88,-66.5 312.42,-41.04 525.32,-25.84 636.29,-19.59"/>
<polygon fill="#63b8ff" stroke="#63b8ff" points="636.38,-23.09 646.17,-19.04 635.99,-16.1 636.38,-23.09"/>
</a>
</g>
</g>
<!-- Node31&#45;&gt;Node22 -->
<g id="edge39_Node000031_Node000022" class="edge">
<title>Node31&#45;&gt;Node22</title>
<g id="a_edge39_Node000031_Node000022"><a xlink:title=" ">
<path fill="none" stroke="#63b8ff" d="M489.24,-138.2C542.18,-128.69 627.03,-112.92 699.88,-97 703.47,-96.21 707.19,-95.37 710.92,-94.5"/>
<polygon fill="#63b8ff" stroke="#63b8ff" points="711.66,-97.92 720.58,-92.21 710.04,-91.11 711.66,-97.92"/>
</a>
</g>
</g>
<!-- Node32 -->
<g id="Node000032" class="node">
<title>Node32</title>
<g id="a_Node000032"><a xlink:href="_error_helper_8h.html" target="_top" xlink:title=" ">
<polygon fill="white" stroke="#666666" points="242.38,-91.38 133.38,-91.38 133.38,-72.12 242.38,-72.12 242.38,-91.38"/>
<text text-anchor="middle" x="187.88" y="-77.88" font-family="Helvetica,sans-Serif" font-size="10.00">llzk/Util/ErrorHelper.h</text>
</a>
</g>
</g>
<!-- Node31&#45;&gt;Node32 -->
<g id="edge34_Node000031_Node000032" class="edge">
<title>Node31&#45;&gt;Node32</title>
<g id="a_edge34_Node000031_Node000032"><a xlink:title=" ">
<path fill="none" stroke="#63b8ff" d="M402.59,-138.15C358.38,-126.74 282.54,-107.17 233.84,-94.61"/>
<polygon fill="#63b8ff" stroke="#63b8ff" points="235.01,-91.3 224.45,-92.19 233.26,-98.07 235.01,-91.3"/>
</a>
</g>
</g>
<!-- Node36 -->
<g id="Node000036" class="node">
<title>Node36</title>
<g id="a_Node000036"><a xlink:title=" ">
<polygon fill="#e0e0e0" stroke="#999999" points="434.88,-91.38 298.88,-91.38 298.88,-72.12 434.88,-72.12 434.88,-91.38"/>
<text text-anchor="middle" x="366.88" y="-77.88" font-family="Helvetica,sans-Serif" font-size="10.00">mlir/IR/OpImplementation.h</text>
</a>
</g>
</g>
<!-- Node31&#45;&gt;Node36 -->
<g id="edge38_Node000031_Node000036" class="edge">
<title>Node31&#45;&gt;Node36</title>
<g id="a_edge38_Node000031_Node000036"><a xlink:title=" ">
<path fill="none" stroke="#63b8ff" d="M428,-138.28C416.88,-128.17 398.56,-111.53 384.87,-99.1"/>
<polygon fill="#63b8ff" stroke="#63b8ff" points="387.54,-96.79 377.78,-92.66 382.83,-101.97 387.54,-96.79"/>
</a>
</g>
</g>
<!-- Node37 -->
<g id="Node000037" class="node">
<title>Node37</title>
<g id="a_Node000037"><a xlink:title=" ">
<polygon fill="#e0e0e0" stroke="#999999" points="565.25,-91.38 452.5,-91.38 452.5,-72.12 565.25,-72.12 565.25,-91.38"/>
<text text-anchor="middle" x="508.88" y="-77.88" font-family="Helvetica,sans-Serif" font-size="10.00">mlir/IR/SymbolTable.h</text>
</a>
</g>
</g>
<!-- Node31&#45;&gt;Node37 -->
<g id="edge40_Node000031_Node000037" class="edge">
<title>Node31&#45;&gt;Node37</title>
<g id="a_edge40_Node000031_Node000037"><a xlink:title=" ">
<path fill="none" stroke="#63b8ff" d="M447.75,-138.28C458.87,-128.17 477.19,-111.53 490.88,-99.1"/>
<polygon fill="#63b8ff" stroke="#63b8ff" points="492.92,-101.97 497.97,-92.66 488.21,-96.79 492.92,-101.97"/>
</a>
</g>
</g>
<!-- Node38 -->
<g id="Node000038" class="node">
<title>Node38</title>
<g id="a_Node000038"><a xlink:title=" ">
<polygon fill="#e0e0e0" stroke="#999999" points="690.62,-91.38 583.12,-91.38 583.12,-72.12 690.62,-72.12 690.62,-91.38"/>
<text text-anchor="middle" x="636.88" y="-77.88" font-family="Helvetica,sans-Serif" font-size="10.00">llvm/ADT/ArrayRef.h</text>
</a>
</g>
</g>
<!-- Node31&#45;&gt;Node38 -->
<g id="edge41_Node000031_Node000038" class="edge">
<title>Node31&#45;&gt;Node38</title>
<g id="a_edge41_Node000031_Node000038"><a xlink:title=" ">
<path fill="none" stroke="#63b8ff" d="M465.96,-138.15C500.48,-126.96 559.24,-107.91 598.06,-95.33"/>
<polygon fill="#63b8ff" stroke="#63b8ff" points="599.05,-98.69 607.49,-92.27 596.9,-92.03 599.05,-98.69"/>
</a>
</g>
</g>
<!-- Node39 -->
<g id="Node000039" class="node">
<title>Node39</title>
<g id="a_Node000039"><a xlink:title=" ">
<polygon fill="#e0e0e0" stroke="#999999" points="115.75,-91.38 0,-91.38 0,-72.12 115.75,-72.12 115.75,-91.38"/>
<text text-anchor="middle" x="57.88" y="-77.88" font-family="Helvetica,sans-Serif" font-size="10.00">llvm/ADT/DenseMap.h</text>
</a>
</g>
</g>
<!-- Node31&#45;&gt;Node39 -->
<g id="edge42_Node000031_Node000039" class="edge">
<title>Node31&#45;&gt;Node39</title>
<g id="a_edge42_Node000031_Node000039"><a xlink:title=" ">
<path fill="none" stroke="#63b8ff" d="M382.98,-139.38C320.18,-130.17 214.35,-113.99 123.88,-97 119.21,-96.12 114.37,-95.17 109.52,-94.18"/>
<polygon fill="#63b8ff" stroke="#63b8ff" points="110.28,-90.76 99.78,-92.15 108.85,-97.61 110.28,-90.76"/>
</a>
</g>
</g>
<!-- Node33 -->
<g id="Node000033" class="node">
<title>Node33</title>
<g id="a_Node000033"><a xlink:title=" ">
<polygon fill="#e0e0e0" stroke="#999999" points="436.88,-24.88 276.88,-24.88 276.88,-5.63 436.88,-5.63 436.88,-24.88"/>
<text text-anchor="middle" x="356.88" y="-11.38" font-family="Helvetica,sans-Serif" font-size="10.00">llvm/ADT/STLFunctionalExtras.h</text>
</a>
</g>
</g>
<!-- Node32&#45;&gt;Node33 -->
<g id="edge35_Node000032_Node000033" class="edge">
<title>Node32&#45;&gt;Node33</title>
<g id="a_edge35_Node000032_Node000033"><a xlink:title=" ">
<path fill="none" stroke="#63b8ff" d="M211.73,-71.65C240.67,-60.6 289.66,-41.9 322.63,-29.32"/>
<polygon fill="#63b8ff" stroke="#63b8ff" points="323.63,-32.68 331.73,-25.85 321.14,-26.14 323.63,-32.68"/>
</a>
</g>
</g>
<!-- Node34 -->
<g id="Node000034" class="node">
<title>Node34</title>
<g id="a_Node000034"><a xlink:title=" ">
<polygon fill="#e0e0e0" stroke="#999999" points="98.88,-24.88 4.87,-24.88 4.87,-5.63 98.88,-5.63 98.88,-24.88"/>
<text text-anchor="middle" x="51.88" y="-11.38" font-family="Helvetica,sans-Serif" font-size="10.00">llvm/ADT/Twine.h</text>
</a>
</g>
</g>
<!-- Node32&#45;&gt;Node34 -->
<g id="edge36_Node000032_Node000034" class="edge">
<title>Node32&#45;&gt;Node34</title>
<g id="a_edge36_Node000032_Node000034"><a xlink:title=" ">
<path fill="none" stroke="#63b8ff" d="M168.68,-71.65C145.9,-60.84 107.67,-42.71 81.18,-30.15"/>
<polygon fill="#63b8ff" stroke="#63b8ff" points="82.88,-27.08 72.34,-25.96 79.88,-33.4 82.88,-27.08"/>
</a>
</g>
</g>
<!-- Node35 -->
<g id="Node000035" class="node">
<title>Node35</title>
<g id="a_Node000035"><a xlink:title=" ">
<polygon fill="#e0e0e0" stroke="#999999" points="258.5,-24.88 117.25,-24.88 117.25,-5.63 258.5,-5.63 258.5,-24.88"/>
<text text-anchor="middle" x="187.88" y="-11.38" font-family="Helvetica,sans-Serif" font-size="10.00">llvm/Support/ErrorHandling.h</text>
</a>
</g>
</g>
<!-- Node32&#45;&gt;Node35 -->
<g id="edge37_Node000032_Node000035" class="edge">
<title>Node32&#45;&gt;Node35</title>
<g id="a_edge37_Node000032_Node000035"><a xlink:title=" ">
<path fill="none" stroke="#63b8ff" d="M187.88,-71.78C187.88,-62.73 187.88,-48.45 187.88,-36.63"/>
<polygon fill="#63b8ff" stroke="#63b8ff" points="191.38,-36.66 187.88,-26.66 184.38,-36.66 191.38,-36.66"/>
</a>
</g>
</g>
</g>
</svg>
