<?xml version="1.0" encoding="UTF-8" standalone="no"?>
<!DOCTYPE svg PUBLIC "-//W3C//DTD SVG 1.1//EN"
 "http://www.w3.org/Graphics/SVG/1.1/DTD/svg11.dtd">
<!-- Generated by graphviz version 12.2.1 (20241206.2353)
 -->
<!-- Title: build/include/llzk/Dialect/Bool/IR/Attrs.h.inc Pages: 1 -->
<svg width="661pt" height="305pt"
 viewBox="0.00 0.00 660.75 304.50" xmlns="http://www.w3.org/2000/svg" xmlns:xlink="http://www.w3.org/1999/xlink">
<g id="graph0" class="graph" transform="scale(1 1) rotate(0) translate(4 300.5)">
<title>build/include/llzk/Dialect/Bool/IR/Attrs.h.inc</title>
<!-- Node1 -->
<g id="Node000001" class="node">
<title>Node1</title>
<g id="a_Node000001"><a xlink:title=" ">
<polygon fill="#999999" stroke="#666666" points="387.75,-296.5 254,-296.5 254,-266 387.75,-266 387.75,-296.5"/>
<text text-anchor="start" x="262" y="-283" font-family="Helvetica,sans-Serif" font-size="10.00">build/include/llzk</text>
<text text-anchor="middle" x="320.88" y="-271.75" font-family="Helvetica,sans-Serif" font-size="10.00">/Dialect/Bool/IR/Attrs.h.inc</text>
</a>
</g>
</g>
<!-- Node2 -->
<g id="Node000002" class="node">
<title>Node2</title>
<g id="a_Node000002"><a xlink:href="_bool_2_i_r_2_attrs_8h.html" target="_top" xlink:title=" ">
<polygon fill="white" stroke="#666666" points="370.12,-230 271.62,-230 271.62,-199.5 370.12,-199.5 370.12,-230"/>
<text text-anchor="start" x="279.62" y="-216.5" font-family="Helvetica,sans-Serif" font-size="10.00">include/llzk/Dialect</text>
<text text-anchor="middle" x="320.88" y="-205.25" font-family="Helvetica,sans-Serif" font-size="10.00">/Bool/IR/Attrs.h</text>
</a>
</g>
</g>
<!-- Node1&#45;&gt;Node2 -->
<g id="edge1_Node000001_Node000002" class="edge">
<title>Node1&#45;&gt;Node2</title>
<g id="a_edge1_Node000001_Node000002"><a xlink:title=" ">
<path fill="none" stroke="#63b8ff" d="M320.88,-254.31C320.88,-246.14 320.88,-237.41 320.88,-230.33"/>
<polygon fill="#63b8ff" stroke="#63b8ff" points="317.38,-254.1 320.88,-264.1 324.38,-254.1 317.38,-254.1"/>
</a>
</g>
</g>
<!-- Node3 -->
<g id="Node000003" class="node">
<title>Node3</title>
<g id="a_Node000003"><a xlink:href="_bool_2_i_r_2_ops_8h.html" target="_top" xlink:title=" ">
<polygon fill="white" stroke="#666666" points="370.12,-163.5 271.62,-163.5 271.62,-133 370.12,-133 370.12,-163.5"/>
<text text-anchor="start" x="279.62" y="-150" font-family="Helvetica,sans-Serif" font-size="10.00">include/llzk/Dialect</text>
<text text-anchor="middle" x="320.88" y="-138.75" font-family="Helvetica,sans-Serif" font-size="10.00">/Bool/IR/Ops.h</text>
</a>
</g>
</g>
<!-- Node2&#45;&gt;Node3 -->
<g id="edge2_Node000002_Node000003" class="edge">
<title>Node2&#45;&gt;Node3</title>
<g id="a_edge2_Node000002_Node000003"><a xlink:title=" ">
<path fill="none" stroke="#63b8ff" d="M320.88,-187.81C320.88,-179.64 320.88,-170.91 320.88,-163.83"/>
<polygon fill="#63b8ff" stroke="#63b8ff" points="317.38,-187.6 320.88,-197.6 324.38,-187.6 317.38,-187.6"/>
</a>
</g>
</g>
<!-- Node3&#45;&gt;Node3 -->
<g id="edge6_Node000003_Node000003" class="edge">
<title>Node3&#45;&gt;Node3</title>
<g id="a_edge6_Node000003_Node000003"><a xlink:title=" ">
<path fill="none" stroke="#63b8ff" d="M381.24,-157.38C385.52,-155.3 388.12,-152.26 388.12,-148.25 388.12,-141.5 380.73,-137.49 370.44,-136.22"/>
<polygon fill="#63b8ff" stroke="#63b8ff" points="380.65,-153.91 371.9,-159.89 382.46,-160.67 380.65,-153.91"/>
</a>
</g>
</g>
<!-- Node4 -->
<g id="Node000004" class="node">
<title>Node4</title>
<g id="a_Node000004"><a xlink:href="_interval_analysis_8h.html" target="_top" xlink:title=" ">
<polygon fill="white" stroke="#666666" points="216.5,-97 111.25,-97 111.25,-66.5 216.5,-66.5 216.5,-97"/>
<text text-anchor="start" x="119.25" y="-83.5" font-family="Helvetica,sans-Serif" font-size="10.00">include/llzk/Analysis</text>
<text text-anchor="middle" x="163.88" y="-72.25" font-family="Helvetica,sans-Serif" font-size="10.00">/IntervalAnalysis.h</text>
</a>
</g>
</g>
<!-- Node3&#45;&gt;Node4 -->
<g id="edge3_Node000003_Node000004" class="edge">
<title>Node3&#45;&gt;Node4</title>
<g id="a_edge3_Node000003_Node000004"><a xlink:title=" ">
<path fill="none" stroke="#63b8ff" d="M274.62,-128.25C250.67,-118.41 221.86,-106.57 199.63,-97.44"/>
<polygon fill="#63b8ff" stroke="#63b8ff" points="273.27,-131.48 283.85,-132.04 275.93,-125 273.27,-131.48"/>
</a>
</g>
</g>
<!-- Node6 -->
<g id="Node000006" class="node">
<title>Node6</title>
<g id="a_Node000006"><a xlink:href="_interval_analysis_pass_8cpp.html" target="_top" xlink:title="This file implements the &#45;llzk&#45;print&#45;interval&#45;analysis pass.">
<polygon fill="white" stroke="#666666" points="314.38,-30.5 175.38,-30.5 175.38,0 314.38,0 314.38,-30.5"/>
<text text-anchor="start" x="183.38" y="-17" font-family="Helvetica,sans-Serif" font-size="10.00">lib/Analysis/IntervalAnalysis</text>
<text text-anchor="middle" x="244.88" y="-5.75" font-family="Helvetica,sans-Serif" font-size="10.00">Pass.cpp</text>
</a>
</g>
</g>
<!-- Node3&#45;&gt;Node6 -->
<g id="edge7_Node000003_Node000006" class="edge">
<title>Node3&#45;&gt;Node6</title>
<g id="a_edge7_Node000003_Node000006"><a xlink:title=" ">
<path fill="none" stroke="#63b8ff" d="M289.38,-125.5C279.92,-117.54 270.35,-107.81 263.88,-97 251.44,-76.24 247.14,-47.95 245.66,-30.96"/>
<polygon fill="#63b8ff" stroke="#63b8ff" points="287.11,-128.17 297.13,-131.63 291.46,-122.68 287.11,-128.17"/>
</a>
</g>
</g>
<!-- Node7 -->
<g id="Node000007" class="node">
<title>Node7</title>
<g id="a_Node000007"><a xlink:href="_bool_2_i_r_2_dialect_8cpp.html" target="_top" xlink:title=" ">
<polygon fill="white" stroke="#666666" points="368.62,-97 273.12,-97 273.12,-66.5 368.62,-66.5 368.62,-97"/>
<text text-anchor="start" x="281.12" y="-83.5" font-family="Helvetica,sans-Serif" font-size="10.00">lib/Dialect/Bool/IR</text>
<text text-anchor="middle" x="320.88" y="-72.25" font-family="Helvetica,sans-Serif" font-size="10.00">/Dialect.cpp</text>
</a>
</g>
</g>
<!-- Node3&#45;&gt;Node7 -->
<g id="edge8_Node000003_Node000007" class="edge">
<title>Node3&#45;&gt;Node7</title>
<g id="a_edge8_Node000003_Node000007"><a xlink:title=" ">
<path fill="none" stroke="#63b8ff" d="M320.88,-121.31C320.88,-113.14 320.88,-104.41 320.88,-97.33"/>
<polygon fill="#63b8ff" stroke="#63b8ff" points="317.38,-121.1 320.88,-131.1 324.38,-121.1 317.38,-121.1"/>
</a>
</g>
</g>
<!-- Node8 -->
<g id="Node000008" class="node">
<title>Node8</title>
<g id="a_Node000008"><a xlink:href="_bool_2_i_r_2_ops_8cpp.html" target="_top" xlink:title=" ">
<polygon fill="white" stroke="#666666" points="482.62,-97 387.12,-97 387.12,-66.5 482.62,-66.5 482.62,-97"/>
<text text-anchor="start" x="395.12" y="-83.5" font-family="Helvetica,sans-Serif" font-size="10.00">lib/Dialect/Bool/IR</text>
<text text-anchor="middle" x="434.88" y="-72.25" font-family="Helvetica,sans-Serif" font-size="10.00">/Ops.cpp</text>
</a>
</g>
</g>
<!-- Node3&#45;&gt;Node8 -->
<g id="edge9_Node000003_Node000008" class="edge">
<title>Node3&#45;&gt;Node8</title>
<g id="a_edge9_Node000003_Node000008"><a xlink:title=" ">
<path fill="none" stroke="#63b8ff" d="M356.39,-127.16C373.45,-117.5 393.53,-106.14 409.11,-97.33"/>
<polygon fill="#63b8ff" stroke="#63b8ff" points="355.04,-123.9 348.06,-131.87 358.49,-129.99 355.04,-123.9"/>
</a>
</g>
</g>
<!-- Node9 -->
<g id="Node000009" class="node">
<title>Node9</title>
<g id="a_Node000009"><a xlink:href="_l_l_z_k_redundant_operation_elimination_pass_8cpp.html" target="_top" xlink:title="This file implements the &#45;llzk&#45;duplicate&#45;op&#45;elim pass.">
<polygon fill="white" stroke="#666666" points="652.75,-97 501,-97 501,-66.5 652.75,-66.5 652.75,-97"/>
<text text-anchor="start" x="509" y="-83.5" font-family="Helvetica,sans-Serif" font-size="10.00">lib/Transforms/LLZKRedundant</text>
<text text-anchor="middle" x="576.88" y="-72.25" font-family="Helvetica,sans-Serif" font-size="10.00">OperationEliminationPass.cpp</text>
</a>
</g>
</g>
<!-- Node3&#45;&gt;Node9 -->
<g id="edge10_Node000003_Node000009" class="edge">
<title>Node3&#45;&gt;Node9</title>
<g id="a_edge10_Node000003_Node000009"><a xlink:title=" ">
<path fill="none" stroke="#63b8ff" d="M381.57,-131.96C422.96,-121.53 477.47,-107.8 518.38,-97.49"/>
<polygon fill="#63b8ff" stroke="#63b8ff" points="380.85,-128.53 372.01,-134.37 382.56,-135.32 380.85,-128.53"/>
</a>
</g>
</g>
<!-- Node5 -->
<g id="Node000005" class="node">
<title>Node5</title>
<g id="a_Node000005"><a xlink:href="_interval_analysis_8cpp.html" target="_top" xlink:title=" ">
<polygon fill="white" stroke="#666666" points="157.75,-24.88 0,-24.88 0,-5.63 157.75,-5.63 157.75,-24.88"/>
<text text-anchor="middle" x="78.88" y="-11.38" font-family="Helvetica,sans-Serif" font-size="10.00">lib/Analysis/IntervalAnalysis.cpp</text>
</a>
</g>
</g>
<!-- Node4&#45;&gt;Node5 -->
<g id="edge4_Node000004_Node000005" class="edge">
<title>Node4&#45;&gt;Node5</title>
<g id="a_edge4_Node000004_Node000005"><a xlink:title=" ">
<path fill="none" stroke="#63b8ff" d="M135.48,-59.2C120.13,-47.56 102.03,-33.82 90.5,-25.07"/>
<polygon fill="#63b8ff" stroke="#63b8ff" points="133.3,-61.94 143.38,-65.2 137.53,-56.37 133.3,-61.94"/>
</a>
</g>
</g>
<!-- Node4&#45;&gt;Node6 -->
<g id="edge5_Node000004_Node000006" class="edge">
<title>Node4&#45;&gt;Node6</title>
<g id="a_edge5_Node000004_Node000006"><a xlink:title=" ">
<path fill="none" stroke="#63b8ff" d="M191.17,-59.02C202.82,-49.73 216.12,-39.15 226.57,-30.83"/>
<polygon fill="#63b8ff" stroke="#63b8ff" points="189.08,-56.2 183.44,-65.17 193.44,-61.68 189.08,-56.2"/>
</a>
</g>
</g>
</g>
</svg>
