<?xml version="1.0" encoding="UTF-8" standalone="no"?>
<!DOCTYPE svg PUBLIC "-//W3C//DTD SVG 1.1//EN"
 "http://www.w3.org/Graphics/SVG/1.1/DTD/svg11.dtd">
<!-- Generated by graphviz version 12.2.1 (20241206.2353)
 -->
<!-- Title: include/llzk/Util/BuilderHelper.h Pages: 1 -->
<svg width="683pt" height="105pt"
 viewBox="0.00 0.00 682.62 105.00" xmlns="http://www.w3.org/2000/svg" xmlns:xlink="http://www.w3.org/1999/xlink">
<g id="graph0" class="graph" transform="scale(1 1) rotate(0) translate(4 101)">
<title>include/llzk/Util/BuilderHelper.h</title>
<!-- Node1 -->
<g id="Node000001" class="node">
<title>Node1</title>
<g id="a_Node000001"><a xlink:title=" ">
<polygon fill="#999999" stroke="#666666" points="402.5,-97 286.75,-97 286.75,-66.5 402.5,-66.5 402.5,-97"/>
<text text-anchor="start" x="294.75" y="-83.5" font-family="Helvetica,sans-Serif" font-size="10.00">include/llzk/Util/Builder</text>
<text text-anchor="middle" x="344.62" y="-72.25" font-family="Helvetica,sans-Serif" font-size="10.00">Helper.h</text>
</a>
</g>
</g>
<!-- Node2 -->
<g id="Node000002" class="node">
<title>Node2</title>
<g id="a_Node000002"><a xlink:href="_array_2_i_r_2_ops_8cpp.html" target="_top" xlink:title=" ">
<polygon fill="white" stroke="#666666" points="99.25,-30.5 0,-30.5 0,0 99.25,0 99.25,-30.5"/>
<text text-anchor="start" x="8" y="-17" font-family="Helvetica,sans-Serif" font-size="10.00">lib/Dialect/Array/IR</text>
<text text-anchor="middle" x="49.62" y="-5.75" font-family="Helvetica,sans-Serif" font-size="10.00">/Ops.cpp</text>
</a>
</g>
</g>
<!-- Node1&#45;&gt;Node2 -->
<g id="edge1_Node000001_Node000002" class="edge">
<title>Node1&#45;&gt;Node2</title>
<g id="a_edge1_Node000001_Node000002"><a xlink:title=" ">
<path fill="none" stroke="#63b8ff" d="M275.51,-66.7C228.17,-56.93 163.99,-43.4 107.62,-30.5 105,-29.9 102.3,-29.27 99.59,-28.63"/>
<polygon fill="#63b8ff" stroke="#63b8ff" points="274.58,-70.08 285.08,-68.67 275.99,-63.23 274.58,-70.08"/>
</a>
</g>
</g>
<!-- Node3 -->
<g id="Node000003" class="node">
<title>Node3</title>
<g id="a_Node000003"><a xlink:href="_cast_2_i_r_2_ops_8cpp.html" target="_top" xlink:title=" ">
<polygon fill="white" stroke="#666666" points="214.12,-30.5 117.12,-30.5 117.12,0 214.12,0 214.12,-30.5"/>
<text text-anchor="start" x="125.12" y="-17" font-family="Helvetica,sans-Serif" font-size="10.00">lib/Dialect/Cast/IR</text>
<text text-anchor="middle" x="165.62" y="-5.75" font-family="Helvetica,sans-Serif" font-size="10.00">/Ops.cpp</text>
</a>
</g>
</g>
<!-- Node1&#45;&gt;Node3 -->
<g id="edge2_Node000001_Node000003" class="edge">
<title>Node1&#45;&gt;Node3</title>
<g id="a_edge2_Node000001_Node000003"><a xlink:title=" ">
<path fill="none" stroke="#63b8ff" d="M293.36,-62.28C265.77,-52.33 232.19,-40.24 206.39,-30.94"/>
<polygon fill="#63b8ff" stroke="#63b8ff" points="291.99,-65.5 302.58,-65.6 294.36,-58.92 291.99,-65.5"/>
</a>
</g>
</g>
<!-- Node4 -->
<g id="Node000004" class="node">
<title>Node4</title>
<g id="a_Node000004"><a xlink:href="_constrain_2_i_r_2_ops_8cpp.html" target="_top" xlink:title=" ">
<polygon fill="white" stroke="#666666" points="336.88,-30.5 232.38,-30.5 232.38,0 336.88,0 336.88,-30.5"/>
<text text-anchor="start" x="240.38" y="-17" font-family="Helvetica,sans-Serif" font-size="10.00">lib/Dialect/Constrain</text>
<text text-anchor="middle" x="284.62" y="-5.75" font-family="Helvetica,sans-Serif" font-size="10.00">/IR/Ops.cpp</text>
</a>
</g>
</g>
<!-- Node1&#45;&gt;Node4 -->
<g id="edge3_Node000001_Node000004" class="edge">
<title>Node1&#45;&gt;Node4</title>
<g id="a_edge3_Node000001_Node000004"><a xlink:title=" ">
<path fill="none" stroke="#63b8ff" d="M323.38,-57.91C315,-48.9 305.62,-38.82 298.19,-30.83"/>
<polygon fill="#63b8ff" stroke="#63b8ff" points="320.61,-60.07 329.98,-65.01 325.73,-55.3 320.61,-60.07"/>
</a>
</g>
</g>
<!-- Node5 -->
<g id="Node000005" class="node">
<title>Node5</title>
<g id="a_Node000005"><a xlink:href="_function_2_i_r_2_ops_8cpp.html" target="_top" xlink:title=" ">
<polygon fill="white" stroke="#666666" points="454.62,-30.5 354.62,-30.5 354.62,0 454.62,0 454.62,-30.5"/>
<text text-anchor="start" x="362.62" y="-17" font-family="Helvetica,sans-Serif" font-size="10.00">lib/Dialect/Function</text>
<text text-anchor="middle" x="404.62" y="-5.75" font-family="Helvetica,sans-Serif" font-size="10.00">/IR/Ops.cpp</text>
</a>
</g>
</g>
<!-- Node1&#45;&gt;Node5 -->
<g id="edge4_Node000001_Node000005" class="edge">
<title>Node1&#45;&gt;Node5</title>
<g id="a_edge4_Node000001_Node000005"><a xlink:title=" ">
<path fill="none" stroke="#63b8ff" d="M365.87,-57.91C374.25,-48.9 383.63,-38.82 391.06,-30.83"/>
<polygon fill="#63b8ff" stroke="#63b8ff" points="363.52,-55.3 359.27,-65.01 368.64,-60.07 363.52,-55.3"/>
</a>
</g>
</g>
<!-- Node6 -->
<g id="Node000006" class="node">
<title>Node6</title>
<g id="a_Node000006"><a xlink:href="_global_2_i_r_2_ops_8cpp.html" target="_top" xlink:title=" ">
<polygon fill="white" stroke="#666666" points="562.75,-30.5 472.5,-30.5 472.5,0 562.75,0 562.75,-30.5"/>
<text text-anchor="start" x="480.5" y="-17" font-family="Helvetica,sans-Serif" font-size="10.00">lib/Dialect/Global</text>
<text text-anchor="middle" x="517.62" y="-5.75" font-family="Helvetica,sans-Serif" font-size="10.00">/IR/Ops.cpp</text>
</a>
</g>
</g>
<!-- Node1&#45;&gt;Node6 -->
<g id="edge5_Node000001_Node000006" class="edge">
<title>Node1&#45;&gt;Node6</title>
<g id="a_edge5_Node000001_Node000006"><a xlink:title=" ">
<path fill="none" stroke="#63b8ff" d="M394.52,-62.15C421.13,-52.23 453.4,-40.2 478.22,-30.94"/>
<polygon fill="#63b8ff" stroke="#63b8ff" points="393.45,-58.81 385.3,-65.59 395.89,-65.37 393.45,-58.81"/>
</a>
</g>
</g>
<!-- Node7 -->
<g id="Node000007" class="node">
<title>Node7</title>
<g id="a_Node000007"><a xlink:href="_include_2_i_r_2_ops_8cpp.html" target="_top" xlink:title=" ">
<polygon fill="white" stroke="#666666" points="674.62,-30.5 580.62,-30.5 580.62,0 674.62,0 674.62,-30.5"/>
<text text-anchor="start" x="588.62" y="-17" font-family="Helvetica,sans-Serif" font-size="10.00">lib/Dialect/Include</text>
<text text-anchor="middle" x="627.62" y="-5.75" font-family="Helvetica,sans-Serif" font-size="10.00">/IR/Ops.cpp</text>
</a>
</g>
</g>
<!-- Node1&#45;&gt;Node7 -->
<g id="edge6_Node000001_Node000007" class="edge">
<title>Node1&#45;&gt;Node7</title>
<g id="a_edge6_Node000001_Node000007"><a xlink:title=" ">
<path fill="none" stroke="#63b8ff" d="M413.7,-66.05C458.75,-56.31 518.77,-43.07 571.62,-30.5 574.46,-29.83 577.36,-29.12 580.29,-28.4"/>
<polygon fill="#63b8ff" stroke="#63b8ff" points="413.1,-62.6 404.07,-68.12 414.58,-69.44 413.1,-62.6"/>
</a>
</g>
</g>
</g>
</svg>
