<?xml version="1.0" encoding="UTF-8" standalone="no"?>
<!DOCTYPE svg PUBLIC "-//W3C//DTD SVG 1.1//EN"
 "http://www.w3.org/Graphics/SVG/1.1/DTD/svg11.dtd">
<!-- Generated by graphviz version 12.2.1 (20241206.2353)
 -->
<!-- Title: include/llzk/Analysis/CallGraph.h Pages: 1 -->
<svg width="532pt" height="172pt"
 viewBox="0.00 0.00 531.88 171.50" xmlns="http://www.w3.org/2000/svg" xmlns:xlink="http://www.w3.org/1999/xlink">
<g id="graph0" class="graph" transform="scale(1 1) rotate(0) translate(4 167.5)">
<title>include/llzk/Analysis/CallGraph.h</title>
<!-- Node1 -->
<g id="Node000001" class="node">
<title>Node1</title>
<g id="a_Node000001"><a xlink:title=" ">
<polygon fill="#999999" stroke="#666666" points="393.62,-163.5 288.38,-163.5 288.38,-133 393.62,-133 393.62,-163.5"/>
<text text-anchor="start" x="296.38" y="-150" font-family="Helvetica,sans-Serif" font-size="10.00">include/llzk/Analysis</text>
<text text-anchor="middle" x="341" y="-138.75" font-family="Helvetica,sans-Serif" font-size="10.00">/CallGraph.h</text>
</a>
</g>
</g>
<!-- Node2 -->
<g id="Node000002" class="node">
<title>Node2</title>
<g id="a_Node000002"><a xlink:href="_call_graph_analyses_8h.html" target="_top" xlink:title=" ">
<polygon fill="white" stroke="#666666" points="327.62,-97 216.38,-97 216.38,-66.5 327.62,-66.5 327.62,-97"/>
<text text-anchor="start" x="224.38" y="-83.5" font-family="Helvetica,sans-Serif" font-size="10.00">include/llzk/Analysis</text>
<text text-anchor="middle" x="272" y="-72.25" font-family="Helvetica,sans-Serif" font-size="10.00">/CallGraphAnalyses.h</text>
</a>
</g>
</g>
<!-- Node1&#45;&gt;Node2 -->
<g id="edge1_Node000001_Node000002" class="edge">
<title>Node1&#45;&gt;Node2</title>
<g id="a_edge1_Node000001_Node000002"><a xlink:title=" ">
<path fill="none" stroke="#63b8ff" d="M317.16,-124.96C307.37,-115.82 296.32,-105.48 287.6,-97.33"/>
<polygon fill="#63b8ff" stroke="#63b8ff" points="314.54,-127.31 324.24,-131.58 319.32,-122.19 314.54,-127.31"/>
</a>
</g>
</g>
<!-- Node6 -->
<g id="Node000006" class="node">
<title>Node6</title>
<g id="a_Node000006"><a xlink:href="_call_graph_8cpp.html" target="_top" xlink:title=" ">
<polygon fill="white" stroke="#666666" points="476.75,-91.38 345.25,-91.38 345.25,-72.12 476.75,-72.12 476.75,-91.38"/>
<text text-anchor="middle" x="411" y="-77.88" font-family="Helvetica,sans-Serif" font-size="10.00">lib/Analysis/CallGraph.cpp</text>
</a>
</g>
</g>
<!-- Node1&#45;&gt;Node6 -->
<g id="edge5_Node000001_Node000006" class="edge">
<title>Node1&#45;&gt;Node6</title>
<g id="a_edge5_Node000001_Node000006"><a xlink:title=" ">
<path fill="none" stroke="#63b8ff" d="M365.11,-125.04C377.58,-113.54 392.11,-100.15 401.43,-91.57"/>
<polygon fill="#63b8ff" stroke="#63b8ff" points="362.98,-122.24 358,-131.59 367.72,-127.39 362.98,-122.24"/>
</a>
</g>
</g>
<!-- Node3 -->
<g id="Node000003" class="node">
<title>Node3</title>
<g id="a_Node000003"><a xlink:href="_call_graph_analyses_8cpp.html" target="_top" xlink:title=" ">
<polygon fill="white" stroke="#666666" points="172,-24.88 0,-24.88 0,-5.63 172,-5.63 172,-24.88"/>
<text text-anchor="middle" x="86" y="-11.38" font-family="Helvetica,sans-Serif" font-size="10.00">lib/Analysis/CallGraphAnalyses.cpp</text>
</a>
</g>
</g>
<!-- Node2&#45;&gt;Node3 -->
<g id="edge2_Node000002_Node000003" class="edge">
<title>Node2&#45;&gt;Node3</title>
<g id="a_edge2_Node000002_Node000003"><a xlink:title=" ">
<path fill="none" stroke="#63b8ff" d="M219.27,-62.47C184.31,-50.34 139.94,-34.96 112.25,-25.35"/>
<polygon fill="#63b8ff" stroke="#63b8ff" points="217.77,-65.65 228.36,-65.62 220.06,-59.03 217.77,-65.65"/>
</a>
</g>
</g>
<!-- Node4 -->
<g id="Node000004" class="node">
<title>Node4</title>
<g id="a_Node000004"><a xlink:href="_call_graph_passes_8cpp.html" target="_top" xlink:title="This file implements the &#45;llzk&#45;print&#45;call&#45;graph and &#45;llzk&#45;print&#45;call&#45;graph&#45;sccs passes.">
<polygon fill="white" stroke="#666666" points="354.25,-24.88 189.75,-24.88 189.75,-5.63 354.25,-5.63 354.25,-24.88"/>
<text text-anchor="middle" x="272" y="-11.38" font-family="Helvetica,sans-Serif" font-size="10.00">lib/Analysis/CallGraphPasses.cpp</text>
</a>
</g>
</g>
<!-- Node2&#45;&gt;Node4 -->
<g id="edge3_Node000002_Node000004" class="edge">
<title>Node2&#45;&gt;Node4</title>
<g id="a_edge3_Node000002_Node000004"><a xlink:title=" ">
<path fill="none" stroke="#63b8ff" d="M272,-54.84C272,-44.26 272,-32.75 272,-25.07"/>
<polygon fill="#63b8ff" stroke="#63b8ff" points="268.5,-54.6 272,-64.6 275.5,-54.6 268.5,-54.6"/>
</a>
</g>
</g>
<!-- Node5 -->
<g id="Node000005" class="node">
<title>Node5</title>
<g id="a_Node000005"><a xlink:href="_l_l_z_k_redundant_operation_elimination_pass_8cpp.html" target="_top" xlink:title="This file implements the &#45;llzk&#45;duplicate&#45;op&#45;elim pass.">
<polygon fill="white" stroke="#666666" points="523.88,-30.5 372.12,-30.5 372.12,0 523.88,0 523.88,-30.5"/>
<text text-anchor="start" x="380.12" y="-17" font-family="Helvetica,sans-Serif" font-size="10.00">lib/Transforms/LLZKRedundant</text>
<text text-anchor="middle" x="448" y="-5.75" font-family="Helvetica,sans-Serif" font-size="10.00">OperationEliminationPass.cpp</text>
</a>
</g>
</g>
<!-- Node2&#45;&gt;Node5 -->
<g id="edge4_Node000002_Node000005" class="edge">
<title>Node2&#45;&gt;Node5</title>
<g id="a_edge4_Node000002_Node000005"><a xlink:title=" ">
<path fill="none" stroke="#63b8ff" d="M322.4,-62.28C349.54,-52.33 382.55,-40.24 407.92,-30.94"/>
<polygon fill="#63b8ff" stroke="#63b8ff" points="321.54,-58.87 313.36,-65.59 323.95,-65.44 321.54,-58.87"/>
</a>
</g>
</g>
</g>
</svg>
