<?xml version="1.0" encoding="UTF-8" standalone="no"?>
<!DOCTYPE svg PUBLIC "-//W3C//DTD SVG 1.1//EN"
 "http://www.w3.org/Graphics/SVG/1.1/DTD/svg11.dtd">
<!-- Generated by graphviz version 12.2.1 (20241206.2353)
 -->
<!-- Title: lib/Analysis/CallGraphPasses.cpp Pages: 1 -->
<svg width="3869pt" height="393pt"
 viewBox="0.00 0.00 3869.12 392.50" xmlns="http://www.w3.org/2000/svg" xmlns:xlink="http://www.w3.org/1999/xlink">
<g id="graph0" class="graph" transform="scale(1 1) rotate(0) translate(4 388.5)">
<title>lib/Analysis/CallGraphPasses.cpp</title>
<!-- Node1 -->
<g id="Node000001" class="node">
<title>Node1</title>
<g id="a_Node000001"><a xlink:title="This file implements the &#45;llzk&#45;print&#45;call&#45;graph and &#45;llzk&#45;print&#45;call&#45;graph&#45;sccs passes.">
<polygon fill="#999999" stroke="#666666" points="2117.88,-384.5 1953.38,-384.5 1953.38,-365.25 2117.88,-365.25 2117.88,-384.5"/>
<text text-anchor="middle" x="2035.62" y="-371" font-family="Helvetica,sans-Serif" font-size="10.00">lib/Analysis/CallGraphPasses.cpp</text>
</a>
</g>
</g>
<!-- Node2 -->
<g id="Node000002" class="node">
<title>Node2</title>
<g id="a_Node000002"><a xlink:href="_analysis_passes_8h.html" target="_top" xlink:title=" ">
<polygon fill="white" stroke="#666666" points="1704.25,-329.25 1551,-329.25 1551,-310 1704.25,-310 1704.25,-329.25"/>
<text text-anchor="middle" x="1627.62" y="-315.75" font-family="Helvetica,sans-Serif" font-size="10.00">llzk/Analysis/AnalysisPasses.h</text>
</a>
</g>
</g>
<!-- Node1&#45;&gt;Node2 -->
<g id="edge1_Node000001_Node000002" class="edge">
<title>Node1&#45;&gt;Node2</title>
<g id="a_edge1_Node000001_Node000002"><a xlink:title=" ">
<path fill="none" stroke="#63b8ff" d="M1965.95,-364.78C1894.62,-355.47 1783.84,-341.01 1708.64,-331.2"/>
<polygon fill="#63b8ff" stroke="#63b8ff" points="1709.22,-327.75 1698.85,-329.92 1708.32,-334.69 1709.22,-327.75"/>
</a>
</g>
</g>
<!-- Node32 -->
<g id="Node000032" class="node">
<title>Node32</title>
<g id="a_Node000032"><a xlink:href="_analysis_passes_8h_8inc.html" target="_top" xlink:title=" ">
<polygon fill="white" stroke="#666666" points="1727.12,-268.38 1558.12,-268.38 1558.12,-249.12 1727.12,-249.12 1727.12,-268.38"/>
<text text-anchor="middle" x="1642.62" y="-254.88" font-family="Helvetica,sans-Serif" font-size="10.00">llzk/Analysis/AnalysisPasses.h.inc</text>
</a>
</g>
</g>
<!-- Node1&#45;&gt;Node32 -->
<g id="edge59_Node000001_Node000032" class="edge">
<title>Node1&#45;&gt;Node32</title>
<g id="a_edge59_Node000001_Node000032"><a xlink:title=" ">
<path fill="none" stroke="#63b8ff" d="M1952.93,-369.09C1896.26,-363.79 1820.14,-352.66 1756.62,-329.25 1721.17,-316.18 1684.64,-291.57 1662.78,-275.42"/>
<polygon fill="#63b8ff" stroke="#63b8ff" points="1665.13,-272.81 1655.04,-269.58 1660.91,-278.39 1665.13,-272.81"/>
</a>
</g>
</g>
<!-- Node33 -->
<g id="Node000033" class="node">
<title>Node33</title>
<g id="a_Node000033"><a xlink:href="_call_graph_analyses_8h.html" target="_top" xlink:title=" ">
<polygon fill="white" stroke="#666666" points="3377,-329.25 3210.25,-329.25 3210.25,-310 3377,-310 3377,-329.25"/>
<text text-anchor="middle" x="3293.62" y="-315.75" font-family="Helvetica,sans-Serif" font-size="10.00">llzk/Analysis/CallGraphAnalyses.h</text>
</a>
</g>
</g>
<!-- Node1&#45;&gt;Node33 -->
<g id="edge19_Node000001_Node000033" class="edge">
<title>Node1&#45;&gt;Node33</title>
<g id="a_edge19_Node000001_Node000033"><a xlink:title=" ">
<path fill="none" stroke="#63b8ff" d="M2118.17,-370.38C2342.17,-360.9 2960.59,-334.72 3198.57,-324.65"/>
<polygon fill="#63b8ff" stroke="#63b8ff" points="3198.6,-328.15 3208.44,-324.23 3198.31,-321.16 3198.6,-328.15"/>
</a>
</g>
</g>
<!-- Node41 -->
<g id="Node000041" class="node">
<title>Node41</title>
<g id="a_Node000041"><a xlink:href="_function_2_i_r_2_ops_8h.html" target="_top" xlink:title=" ">
<polygon fill="white" stroke="#666666" points="2409.25,-274 2304,-274 2304,-243.5 2409.25,-243.5 2409.25,-274"/>
<text text-anchor="start" x="2312" y="-260.5" font-family="Helvetica,sans-Serif" font-size="10.00">llzk/Dialect/Function</text>
<text text-anchor="middle" x="2356.62" y="-249.25" font-family="Helvetica,sans-Serif" font-size="10.00">/IR/Ops.h</text>
</a>
</g>
</g>
<!-- Node1&#45;&gt;Node41 -->
<g id="edge56_Node000001_Node000041" class="edge">
<title>Node1&#45;&gt;Node41</title>
<g id="a_edge56_Node000001_Node000041"><a xlink:title=" ">
<path fill="none" stroke="#63b8ff" d="M2061.08,-364.82C2113.58,-346.16 2234.8,-303.06 2304.59,-278.25"/>
<polygon fill="#63b8ff" stroke="#63b8ff" points="2305.66,-281.58 2313.91,-274.94 2303.31,-274.99 2305.66,-281.58"/>
</a>
</g>
</g>
<!-- Node51 -->
<g id="Node000051" class="node">
<title>Node51</title>
<g id="a_Node000051"><a xlink:title=" ">
<polygon fill="#e0e0e0" stroke="#999999" points="1950.12,-19.25 1829.12,-19.25 1829.12,0 1950.12,0 1950.12,-19.25"/>
<text text-anchor="middle" x="1889.62" y="-5.75" font-family="Helvetica,sans-Serif" font-size="10.00">llvm/ADT/SmallVector.h</text>
</a>
</g>
</g>
<!-- Node1&#45;&gt;Node51 -->
<g id="edge57_Node000001_Node000051" class="edge">
<title>Node1&#45;&gt;Node51</title>
<g id="a_edge57_Node000001_Node000051"><a xlink:title=" ">
<path fill="none" stroke="#63b8ff" d="M1953.23,-371.71C1875.44,-364.75 1770.62,-340.4 1770.62,-259.75 1770.62,-259.75 1770.62,-259.75 1770.62,-124.75 1770.62,-92.73 1768.78,-79.56 1789.62,-55.25 1802.33,-40.43 1820.94,-30.32 1838.66,-23.53"/>
<polygon fill="#63b8ff" stroke="#63b8ff" points="1839.82,-26.83 1848.1,-20.21 1837.5,-20.22 1839.82,-26.83"/>
</a>
</g>
</g>
<!-- Node69 -->
<g id="Node000069" class="node">
<title>Node69</title>
<g id="a_Node000069"><a xlink:title=" ">
<polygon fill="#e0e0e0" stroke="#999999" points="3536.25,-329.25 3395,-329.25 3395,-310 3536.25,-310 3536.25,-329.25"/>
<text text-anchor="middle" x="3465.62" y="-315.75" font-family="Helvetica,sans-Serif" font-size="10.00">llvm/Support/ErrorHandling.h</text>
</a>
</g>
</g>
<!-- Node1&#45;&gt;Node69 -->
<g id="edge58_Node000001_Node000069" class="edge">
<title>Node1&#45;&gt;Node69</title>
<g id="a_edge58_Node000001_Node000069"><a xlink:title=" ">
<path fill="none" stroke="#63b8ff" d="M2118.3,-373.28C2327.92,-371.31 2897.38,-363.09 3383.09,-329.37"/>
<polygon fill="#63b8ff" stroke="#63b8ff" points="3383.31,-332.86 3393.04,-328.67 3382.82,-325.88 3383.31,-332.86"/>
</a>
</g>
</g>
<!-- Node3 -->
<g id="Node000003" class="node">
<title>Node3</title>
<g id="a_Node000003"><a xlink:href="_pass_base_8h.html" target="_top" xlink:title=" ">
<polygon fill="white" stroke="#666666" points="988,-268.38 875.25,-268.38 875.25,-249.12 988,-249.12 988,-268.38"/>
<text text-anchor="middle" x="931.62" y="-254.88" font-family="Helvetica,sans-Serif" font-size="10.00">llzk/Pass/PassBase.h</text>
</a>
</g>
</g>
<!-- Node2&#45;&gt;Node3 -->
<g id="edge2_Node000002_Node000003" class="edge">
<title>Node2&#45;&gt;Node3</title>
<g id="a_edge2_Node000002_Node000003"><a xlink:title=" ">
<path fill="none" stroke="#63b8ff" d="M1550.82,-312.13C1413.89,-300.55 1129.8,-276.51 999.55,-265.5"/>
<polygon fill="#63b8ff" stroke="#63b8ff" points="999.95,-262.02 989.69,-264.66 999.36,-268.99 999.95,-262.02"/>
</a>
</g>
</g>
<!-- Node2&#45;&gt;Node32 -->
<g id="edge18_Node000002_Node000032" class="edge">
<title>Node2&#45;&gt;Node32</title>
<g id="a_edge18_Node000002_Node000032"><a xlink:title=" ">
<path fill="none" stroke="#63b8ff" d="M1629.9,-309.68C1631.93,-301.73 1634.97,-289.81 1637.56,-279.62"/>
<polygon fill="#63b8ff" stroke="#63b8ff" points="1640.87,-280.8 1639.95,-270.24 1634.09,-279.07 1640.87,-280.8"/>
</a>
</g>
</g>
<!-- Node4 -->
<g id="Node000004" class="node">
<title>Node4</title>
<g id="a_Node000004"><a xlink:href="_array_2_i_r_2_dialect_8h.html" target="_top" xlink:title=" ">
<polygon fill="#fff0f0" stroke="red" points="1143.12,-207.5 1052.12,-207.5 1052.12,-177 1143.12,-177 1143.12,-207.5"/>
<text text-anchor="start" x="1060.12" y="-194" font-family="Helvetica,sans-Serif" font-size="10.00">llzk/Dialect/Array</text>
<text text-anchor="middle" x="1097.62" y="-182.75" font-family="Helvetica,sans-Serif" font-size="10.00">/IR/Dialect.h</text>
</a>
</g>
</g>
<!-- Node3&#45;&gt;Node4 -->
<g id="edge3_Node000003_Node000004" class="edge">
<title>Node3&#45;&gt;Node4</title>
<g id="a_edge3_Node000003_Node000004"><a xlink:title=" ">
<path fill="none" stroke="#63b8ff" d="M955.06,-248.65C979.44,-239.17 1018.32,-224.06 1049.32,-212.02"/>
<polygon fill="#63b8ff" stroke="#63b8ff" points="1050.46,-215.33 1058.51,-208.45 1047.92,-208.81 1050.46,-215.33"/>
</a>
</g>
</g>
<!-- Node7 -->
<g id="Node000007" class="node">
<title>Node7</title>
<g id="a_Node000007"><a xlink:href="_bool_2_i_r_2_dialect_8h.html" target="_top" xlink:title=" ">
<polygon fill="#fff0f0" stroke="red" points="1262,-207.5 1161.25,-207.5 1161.25,-177 1262,-177 1262,-207.5"/>
<text text-anchor="start" x="1169.25" y="-194" font-family="Helvetica,sans-Serif" font-size="10.00">llzk/Dialect/Bool/IR</text>
<text text-anchor="middle" x="1211.62" y="-182.75" font-family="Helvetica,sans-Serif" font-size="10.00">/Dialect.h</text>
</a>
</g>
</g>
<!-- Node3&#45;&gt;Node7 -->
<g id="edge4_Node000003_Node000007" class="edge">
<title>Node3&#45;&gt;Node7</title>
<g id="a_edge4_Node000003_Node000007"><a xlink:title=" ">
<path fill="none" stroke="#63b8ff" d="M971.79,-248.68C1013.68,-239.21 1081.52,-223.79 1149.92,-207.89"/>
<polygon fill="#63b8ff" stroke="#63b8ff" points="1150.47,-211.35 1159.42,-205.67 1148.89,-204.53 1150.47,-211.35"/>
</a>
</g>
</g>
<!-- Node9 -->
<g id="Node000009" class="node">
<title>Node9</title>
<g id="a_Node000009"><a xlink:href="_constrain_2_i_r_2_dialect_8h.html" target="_top" xlink:title=" ">
<polygon fill="#fff0f0" stroke="red" points="1389.5,-207.5 1279.75,-207.5 1279.75,-177 1389.5,-177 1389.5,-207.5"/>
<text text-anchor="start" x="1287.75" y="-194" font-family="Helvetica,sans-Serif" font-size="10.00">llzk/Dialect/Constrain</text>
<text text-anchor="middle" x="1334.62" y="-182.75" font-family="Helvetica,sans-Serif" font-size="10.00">/IR/Dialect.h</text>
</a>
</g>
</g>
<!-- Node3&#45;&gt;Node9 -->
<g id="edge5_Node000003_Node000009" class="edge">
<title>Node3&#45;&gt;Node9</title>
<g id="a_edge5_Node000003_Node000009"><a xlink:title=" ">
<path fill="none" stroke="#63b8ff" d="M988.21,-250.63C1053.38,-242.14 1163.88,-226.9 1268.44,-207.82"/>
<polygon fill="#63b8ff" stroke="#63b8ff" points="1268.83,-211.31 1278.03,-206.06 1267.56,-204.43 1268.83,-211.31"/>
</a>
</g>
</g>
<!-- Node11 -->
<g id="Node000011" class="node">
<title>Node11</title>
<g id="a_Node000011"><a xlink:href="_felt_2_i_r_2_dialect_8h.html" target="_top" xlink:title=" ">
<polygon fill="#fff0f0" stroke="red" points="1505.5,-207.5 1407.75,-207.5 1407.75,-177 1505.5,-177 1505.5,-207.5"/>
<text text-anchor="start" x="1415.75" y="-194" font-family="Helvetica,sans-Serif" font-size="10.00">llzk/Dialect/Felt/IR</text>
<text text-anchor="middle" x="1456.62" y="-182.75" font-family="Helvetica,sans-Serif" font-size="10.00">/Dialect.h</text>
</a>
</g>
</g>
<!-- Node3&#45;&gt;Node11 -->
<g id="edge6_Node000003_Node000011" class="edge">
<title>Node3&#45;&gt;Node11</title>
<g id="a_edge6_Node000003_Node000011"><a xlink:title=" ">
<path fill="none" stroke="#63b8ff" d="M988.4,-254.1C1074.58,-248.02 1243.69,-233.99 1396.39,-207.74"/>
<polygon fill="#63b8ff" stroke="#63b8ff" points="1396.62,-211.25 1405.87,-206.09 1395.42,-204.36 1396.62,-211.25"/>
</a>
</g>
</g>
<!-- Node13 -->
<g id="Node000013" class="node">
<title>Node13</title>
<g id="a_Node000013"><a xlink:href="_function_2_i_r_2_dialect_8h.html" target="_top" xlink:title=" ">
<polygon fill="#fff0f0" stroke="red" points="1629.25,-207.5 1524,-207.5 1524,-177 1629.25,-177 1629.25,-207.5"/>
<text text-anchor="start" x="1532" y="-194" font-family="Helvetica,sans-Serif" font-size="10.00">llzk/Dialect/Function</text>
<text text-anchor="middle" x="1576.62" y="-182.75" font-family="Helvetica,sans-Serif" font-size="10.00">/IR/Dialect.h</text>
</a>
</g>
</g>
<!-- Node3&#45;&gt;Node13 -->
<g id="edge7_Node000003_Node000013" class="edge">
<title>Node3&#45;&gt;Node13</title>
<g id="a_edge7_Node000003_Node000013"><a xlink:title=" ">
<path fill="none" stroke="#63b8ff" d="M988.22,-255.51C1090.82,-250.86 1314.44,-238.12 1512.42,-207.69"/>
<polygon fill="#63b8ff" stroke="#63b8ff" points="1512.78,-211.18 1522.12,-206.18 1511.71,-204.26 1512.78,-211.18"/>
</a>
</g>
</g>
<!-- Node15 -->
<g id="Node000015" class="node">
<title>Node15</title>
<g id="a_Node000015"><a xlink:href="_global_2_i_r_2_dialect_8h.html" target="_top" xlink:title=" ">
<polygon fill="#fff0f0" stroke="red" points="1742.38,-207.5 1646.88,-207.5 1646.88,-177 1742.38,-177 1742.38,-207.5"/>
<text text-anchor="start" x="1654.88" y="-194" font-family="Helvetica,sans-Serif" font-size="10.00">llzk/Dialect/Global</text>
<text text-anchor="middle" x="1694.62" y="-182.75" font-family="Helvetica,sans-Serif" font-size="10.00">/IR/Dialect.h</text>
</a>
</g>
</g>
<!-- Node3&#45;&gt;Node15 -->
<g id="edge8_Node000003_Node000015" class="edge">
<title>Node3&#45;&gt;Node15</title>
<g id="a_edge8_Node000003_Node000015"><a xlink:title=" ">
<path fill="none" stroke="#63b8ff" d="M988.38,-257.14C1107.09,-255.12 1390.26,-246.45 1635.21,-207.88"/>
<polygon fill="#63b8ff" stroke="#63b8ff" points="1635.66,-211.35 1644.98,-206.32 1634.55,-204.44 1635.66,-211.35"/>
</a>
</g>
</g>
<!-- Node17 -->
<g id="Node000017" class="node">
<title>Node17</title>
<g id="a_Node000017"><a xlink:href="_include_2_i_r_2_dialect_8h.html" target="_top" xlink:title=" ">
<polygon fill="#fff0f0" stroke="red" points="99.25,-207.5 0,-207.5 0,-177 99.25,-177 99.25,-207.5"/>
<text text-anchor="start" x="8" y="-194" font-family="Helvetica,sans-Serif" font-size="10.00">llzk/Dialect/Include</text>
<text text-anchor="middle" x="49.62" y="-182.75" font-family="Helvetica,sans-Serif" font-size="10.00">/IR/Dialect.h</text>
</a>
</g>
</g>
<!-- Node3&#45;&gt;Node17 -->
<g id="edge9_Node000003_Node000017" class="edge">
<title>Node3&#45;&gt;Node17</title>
<g id="a_edge9_Node000003_Node000017"><a xlink:title=" ">
<path fill="none" stroke="#63b8ff" d="M874.89,-257.71C742.52,-256.89 402.99,-250.53 110.96,-207.66"/>
<polygon fill="#63b8ff" stroke="#63b8ff" points="111.62,-204.22 101.22,-206.21 110.59,-211.14 111.62,-204.22"/>
</a>
</g>
</g>
<!-- Node19 -->
<g id="Node000019" class="node">
<title>Node19</title>
<g id="a_Node000019"><a xlink:href="_l_l_z_k_2_i_r_2_dialect_8h.html" target="_top" xlink:title=" ">
<polygon fill="#fff0f0" stroke="red" points="221.88,-207.5 117.38,-207.5 117.38,-177 221.88,-177 221.88,-207.5"/>
<text text-anchor="start" x="125.38" y="-194" font-family="Helvetica,sans-Serif" font-size="10.00">llzk/Dialect/LLZK/IR</text>
<text text-anchor="middle" x="169.62" y="-182.75" font-family="Helvetica,sans-Serif" font-size="10.00">/Dialect.h</text>
</a>
</g>
</g>
<!-- Node3&#45;&gt;Node19 -->
<g id="edge10_Node000003_Node000019" class="edge">
<title>Node3&#45;&gt;Node19</title>
<g id="a_edge10_Node000003_Node000019"><a xlink:title=" ">
<path fill="none" stroke="#63b8ff" d="M874.95,-256.72C757.09,-253.91 476.92,-243.86 233.3,-207.75"/>
<polygon fill="#63b8ff" stroke="#63b8ff" points="234,-204.31 223.59,-206.29 232.96,-211.23 234,-204.31"/>
</a>
</g>
</g>
<!-- Node21 -->
<g id="Node000021" class="node">
<title>Node21</title>
<g id="a_Node000021"><a xlink:href="_polymorphic_2_i_r_2_dialect_8h.html" target="_top" xlink:title=" ">
<polygon fill="#fff0f0" stroke="red" points="361.5,-207.5 239.75,-207.5 239.75,-177 361.5,-177 361.5,-207.5"/>
<text text-anchor="start" x="247.75" y="-194" font-family="Helvetica,sans-Serif" font-size="10.00">llzk/Dialect/Polymorphic</text>
<text text-anchor="middle" x="300.62" y="-182.75" font-family="Helvetica,sans-Serif" font-size="10.00">/IR/Dialect.h</text>
</a>
</g>
</g>
<!-- Node3&#45;&gt;Node21 -->
<g id="edge11_Node000003_Node000021" class="edge">
<title>Node3&#45;&gt;Node21</title>
<g id="a_edge11_Node000003_Node000021"><a xlink:title=" ">
<path fill="none" stroke="#63b8ff" d="M874.84,-254.76C775.27,-249.07 562.5,-234.86 372.94,-207.72"/>
<polygon fill="#63b8ff" stroke="#63b8ff" points="373.53,-204.27 363.14,-206.3 372.53,-211.2 373.53,-204.27"/>
</a>
</g>
</g>
<!-- Node23 -->
<g id="Node000023" class="node">
<title>Node23</title>
<g id="a_Node000023"><a xlink:href="_string_2_i_r_2_dialect_8h.html" target="_top" xlink:title=" ">
<polygon fill="#fff0f0" stroke="red" points="473.25,-207.5 380,-207.5 380,-177 473.25,-177 473.25,-207.5"/>
<text text-anchor="start" x="388" y="-194" font-family="Helvetica,sans-Serif" font-size="10.00">llzk/Dialect/String</text>
<text text-anchor="middle" x="426.62" y="-182.75" font-family="Helvetica,sans-Serif" font-size="10.00">/IR/Dialect.h</text>
</a>
</g>
</g>
<!-- Node3&#45;&gt;Node23 -->
<g id="edge12_Node000003_Node000023" class="edge">
<title>Node3&#45;&gt;Node23</title>
<g id="a_edge12_Node000003_Node000023"><a xlink:title=" ">
<path fill="none" stroke="#63b8ff" d="M874.91,-253.92C791.46,-247.73 630.59,-233.7 484.51,-207.67"/>
<polygon fill="#63b8ff" stroke="#63b8ff" points="485.53,-204.3 475.06,-205.97 484.28,-211.19 485.53,-204.3"/>
</a>
</g>
</g>
<!-- Node25 -->
<g id="Node000025" class="node">
<title>Node25</title>
<g id="a_Node000025"><a xlink:href="_struct_2_i_r_2_dialect_8h.html" target="_top" xlink:title=" ">
<polygon fill="#fff0f0" stroke="red" points="585.62,-207.5 491.62,-207.5 491.62,-177 585.62,-177 585.62,-207.5"/>
<text text-anchor="start" x="499.62" y="-194" font-family="Helvetica,sans-Serif" font-size="10.00">llzk/Dialect/Struct</text>
<text text-anchor="middle" x="538.62" y="-182.75" font-family="Helvetica,sans-Serif" font-size="10.00">/IR/Dialect.h</text>
</a>
</g>
</g>
<!-- Node3&#45;&gt;Node25 -->
<g id="edge13_Node000003_Node000025" class="edge">
<title>Node3&#45;&gt;Node25</title>
<g id="a_edge13_Node000003_Node000025"><a xlink:title=" ">
<path fill="none" stroke="#63b8ff" d="M874.97,-251.08C810.13,-243.05 700.53,-228.28 597.18,-207.89"/>
<polygon fill="#63b8ff" stroke="#63b8ff" points="597.88,-204.46 587.39,-205.94 596.51,-211.33 597.88,-204.46"/>
</a>
</g>
</g>
<!-- Node27 -->
<g id="Node000027" class="node">
<title>Node27</title>
<g id="a_Node000027"><a xlink:href="_undef_2_i_r_2_dialect_8h.html" target="_top" xlink:title=" ">
<polygon fill="#fff0f0" stroke="red" points="697.62,-207.5 603.62,-207.5 603.62,-177 697.62,-177 697.62,-207.5"/>
<text text-anchor="start" x="611.62" y="-194" font-family="Helvetica,sans-Serif" font-size="10.00">llzk/Dialect/Undef</text>
<text text-anchor="middle" x="650.62" y="-182.75" font-family="Helvetica,sans-Serif" font-size="10.00">/IR/Dialect.h</text>
</a>
</g>
</g>
<!-- Node3&#45;&gt;Node27 -->
<g id="edge14_Node000003_Node000027" class="edge">
<title>Node3&#45;&gt;Node27</title>
<g id="a_edge14_Node000003_Node000027"><a xlink:title=" ">
<path fill="none" stroke="#63b8ff" d="M889.24,-248.67C846.25,-239.38 777.51,-224.29 708.95,-208.02"/>
<polygon fill="#63b8ff" stroke="#63b8ff" points="709.97,-204.66 699.43,-205.75 708.35,-211.47 709.97,-204.66"/>
</a>
</g>
</g>
<!-- Node29 -->
<g id="Node000029" class="node">
<title>Node29</title>
<g id="a_Node000029"><a xlink:title=" ">
<polygon fill="#e0e0e0" stroke="#999999" points="804,-207.5 715.25,-207.5 715.25,-177 804,-177 804,-207.5"/>
<text text-anchor="start" x="723.25" y="-194" font-family="Helvetica,sans-Serif" font-size="10.00">mlir/Dialect/Arith</text>
<text text-anchor="middle" x="759.62" y="-182.75" font-family="Helvetica,sans-Serif" font-size="10.00">/IR/Arith.h</text>
</a>
</g>
</g>
<!-- Node3&#45;&gt;Node29 -->
<g id="edge15_Node000003_Node000029" class="edge">
<title>Node3&#45;&gt;Node29</title>
<g id="a_edge15_Node000003_Node000029"><a xlink:title=" ">
<path fill="none" stroke="#63b8ff" d="M907.35,-248.65C881.97,-239.13 841.44,-223.93 809.25,-211.86"/>
<polygon fill="#63b8ff" stroke="#63b8ff" points="810.7,-208.66 800.11,-208.43 808.24,-215.22 810.7,-208.66"/>
</a>
</g>
</g>
<!-- Node30 -->
<g id="Node000030" class="node">
<title>Node30</title>
<g id="a_Node000030"><a xlink:title=" ">
<polygon fill="#e0e0e0" stroke="#999999" points="924.75,-207.5 822.5,-207.5 822.5,-177 924.75,-177 924.75,-207.5"/>
<text text-anchor="start" x="830.5" y="-194" font-family="Helvetica,sans-Serif" font-size="10.00">mlir/Dialect/SCF/IR</text>
<text text-anchor="middle" x="873.62" y="-182.75" font-family="Helvetica,sans-Serif" font-size="10.00">/SCF.h</text>
</a>
</g>
</g>
<!-- Node3&#45;&gt;Node30 -->
<g id="edge16_Node000003_Node000030" class="edge">
<title>Node3&#45;&gt;Node30</title>
<g id="a_edge16_Node000003_Node000030"><a xlink:title=" ">
<path fill="none" stroke="#63b8ff" d="M923.56,-248.78C915.92,-240.29 904.13,-227.17 893.92,-215.82"/>
<polygon fill="#63b8ff" stroke="#63b8ff" points="896.83,-213.82 887.54,-208.72 891.62,-218.5 896.83,-213.82"/>
</a>
</g>
</g>
<!-- Node31 -->
<g id="Node000031" class="node">
<title>Node31</title>
<g id="a_Node000031"><a xlink:title=" ">
<polygon fill="#e0e0e0" stroke="#999999" points="1034.12,-201.88 943.12,-201.88 943.12,-182.62 1034.12,-182.62 1034.12,-201.88"/>
<text text-anchor="middle" x="988.62" y="-188.38" font-family="Helvetica,sans-Serif" font-size="10.00">mlir/Pass/Pass.h</text>
</a>
</g>
</g>
<!-- Node3&#45;&gt;Node31 -->
<g id="edge17_Node000003_Node000031" class="edge">
<title>Node3&#45;&gt;Node31</title>
<g id="a_edge17_Node000003_Node000031"><a xlink:title=" ">
<path fill="none" stroke="#63b8ff" d="M939.55,-248.78C948.23,-238.96 962.36,-222.98 973.23,-210.67"/>
<polygon fill="#63b8ff" stroke="#63b8ff" points="975.77,-213.09 979.76,-203.28 970.52,-208.45 975.77,-213.09"/>
</a>
</g>
</g>
<!-- Node34 -->
<g id="Node000034" class="node">
<title>Node34</title>
<g id="a_Node000034"><a xlink:href="_call_graph_8h.html" target="_top" xlink:title=" ">
<polygon fill="white" stroke="#666666" points="3265.75,-268.38 3139.5,-268.38 3139.5,-249.12 3265.75,-249.12 3265.75,-268.38"/>
<text text-anchor="middle" x="3202.62" y="-254.88" font-family="Helvetica,sans-Serif" font-size="10.00">llzk/Analysis/CallGraph.h</text>
</a>
</g>
</g>
<!-- Node33&#45;&gt;Node34 -->
<g id="edge20_Node000033_Node000034" class="edge">
<title>Node33&#45;&gt;Node34</title>
<g id="a_edge20_Node000033_Node000034"><a xlink:title=" ">
<path fill="none" stroke="#63b8ff" d="M3279.8,-309.68C3265.51,-300.43 3242.92,-285.82 3225.87,-274.79"/>
<polygon fill="#63b8ff" stroke="#63b8ff" points="3228.14,-272.09 3217.85,-269.6 3224.34,-277.97 3228.14,-272.09"/>
</a>
</g>
</g>
<!-- Node39 -->
<g id="Node000039" class="node">
<title>Node39</title>
<g id="a_Node000039"><a xlink:title=" ">
<polygon fill="#e0e0e0" stroke="#999999" points="3748.75,-201.88 3628.5,-201.88 3628.5,-182.62 3748.75,-182.62 3748.75,-201.88"/>
<text text-anchor="middle" x="3688.62" y="-188.38" font-family="Helvetica,sans-Serif" font-size="10.00">llvm/ADT/SCCIterator.h</text>
</a>
</g>
</g>
<!-- Node33&#45;&gt;Node39 -->
<g id="edge54_Node000033_Node000039" class="edge">
<title>Node33&#45;&gt;Node39</title>
<g id="a_edge54_Node000033_Node000039"><a xlink:title=" ">
<path fill="none" stroke="#63b8ff" d="M3292.93,-309.58C3292.25,-293.57 3293.41,-260.35 3312.62,-243.5 3364.27,-198.21 3551.81,-218.46 3619.62,-207.5 3625.14,-206.61 3630.89,-205.58 3636.61,-204.49"/>
<polygon fill="#63b8ff" stroke="#63b8ff" points="3636.88,-208.01 3646.02,-202.64 3635.53,-201.14 3636.88,-208.01"/>
</a>
</g>
</g>
<!-- Node33&#45;&gt;Node41 -->
<g id="edge27_Node000033_Node000041" class="edge">
<title>Node33&#45;&gt;Node41</title>
<g id="a_edge27_Node000033_Node000041"><a xlink:title=" ">
<path fill="none" stroke="#63b8ff" d="M3210.06,-313.37C3025.54,-301.78 2586.59,-274.2 2421.18,-263.81"/>
<polygon fill="#63b8ff" stroke="#63b8ff" points="2421.46,-260.32 2411.26,-263.18 2421.02,-267.3 2421.46,-260.32"/>
</a>
</g>
</g>
<!-- Node82 -->
<g id="Node000082" class="node">
<title>Node82</title>
<g id="a_Node000082"><a xlink:title=" ">
<polygon fill="#e0e0e0" stroke="#999999" points="3464,-268.38 3321.25,-268.38 3321.25,-249.12 3464,-249.12 3464,-268.38"/>
<text text-anchor="middle" x="3392.62" y="-254.88" font-family="Helvetica,sans-Serif" font-size="10.00">mlir/Pass/AnalysisManager.h</text>
</a>
</g>
</g>
<!-- Node33&#45;&gt;Node82 -->
<g id="edge51_Node000033_Node000082" class="edge">
<title>Node33&#45;&gt;Node82</title>
<g id="a_edge51_Node000033_Node000082"><a xlink:title=" ">
<path fill="none" stroke="#63b8ff" d="M3308.66,-309.68C3324.29,-300.39 3349.01,-285.69 3367.59,-274.64"/>
<polygon fill="#63b8ff" stroke="#63b8ff" points="3369.34,-277.67 3376.15,-269.55 3365.76,-271.65 3369.34,-277.67"/>
</a>
</g>
</g>
<!-- Node72 -->
<g id="Node000072" class="node">
<title>Node72</title>
<g id="a_Node000072"><a xlink:title=" ">
<polygon fill="#e0e0e0" stroke="#999999" points="3597.5,-268.38 3481.75,-268.38 3481.75,-249.12 3597.5,-249.12 3597.5,-268.38"/>
<text text-anchor="middle" x="3539.62" y="-254.88" font-family="Helvetica,sans-Serif" font-size="10.00">llvm/ADT/DenseMap.h</text>
</a>
</g>
</g>
<!-- Node33&#45;&gt;Node72 -->
<g id="edge52_Node000033_Node000072" class="edge">
<title>Node33&#45;&gt;Node72</title>
<g id="a_edge52_Node000033_Node000072"><a xlink:title=" ">
<path fill="none" stroke="#63b8ff" d="M3331.52,-309.55C3374.23,-299.33 3443.78,-282.69 3490.6,-271.48"/>
<polygon fill="#63b8ff" stroke="#63b8ff" points="3491.3,-274.91 3500.21,-269.18 3489.67,-268.11 3491.3,-274.91"/>
</a>
</g>
</g>
<!-- Node83 -->
<g id="Node000083" class="node">
<title>Node83</title>
<g id="a_Node000083"><a xlink:title=" ">
<polygon fill="#e0e0e0" stroke="#999999" points="3727.62,-268.38 3615.62,-268.38 3615.62,-249.12 3727.62,-249.12 3727.62,-268.38"/>
<text text-anchor="middle" x="3671.62" y="-254.88" font-family="Helvetica,sans-Serif" font-size="10.00">llvm/ADT/DenseSet.h</text>
</a>
</g>
</g>
<!-- Node33&#45;&gt;Node83 -->
<g id="edge53_Node000033_Node000083" class="edge">
<title>Node33&#45;&gt;Node83</title>
<g id="a_edge53_Node000033_Node000083"><a xlink:title=" ">
<path fill="none" stroke="#63b8ff" d="M3368.5,-309.54C3432.07,-301.44 3525.6,-288.64 3606.62,-274 3611.49,-273.12 3616.54,-272.14 3621.59,-271.11"/>
<polygon fill="#63b8ff" stroke="#63b8ff" points="3621.99,-274.6 3631.05,-269.12 3620.55,-267.75 3621.99,-274.6"/>
</a>
</g>
</g>
<!-- Node84 -->
<g id="Node000084" class="node">
<title>Node84</title>
<g id="a_Node000084"><a xlink:title=" ">
<polygon fill="#e0e0e0" stroke="#999999" points="3861.12,-268.38 3746.12,-268.38 3746.12,-249.12 3861.12,-249.12 3861.12,-268.38"/>
<text text-anchor="middle" x="3803.62" y="-254.88" font-family="Helvetica,sans-Serif" font-size="10.00">llvm/ADT/STLExtras.h</text>
</a>
</g>
</g>
<!-- Node33&#45;&gt;Node84 -->
<g id="edge55_Node000033_Node000084" class="edge">
<title>Node33&#45;&gt;Node84</title>
<g id="a_edge55_Node000033_Node000084"><a xlink:title=" ">
<path fill="none" stroke="#63b8ff" d="M3377.5,-310.68C3496.07,-299.36 3702.16,-279.38 3736.62,-274 3742,-273.16 3747.59,-272.17 3753.15,-271.1"/>
<polygon fill="#63b8ff" stroke="#63b8ff" points="3753.83,-274.53 3762.95,-269.13 3752.46,-267.67 3753.83,-274.53"/>
</a>
</g>
</g>
<!-- Node35 -->
<g id="Node000035" class="node">
<title>Node35</title>
<g id="a_Node000035"><a xlink:title=" ">
<polygon fill="#e0e0e0" stroke="#999999" points="3610.12,-201.88 3483.12,-201.88 3483.12,-182.62 3610.12,-182.62 3610.12,-201.88"/>
<text text-anchor="middle" x="3546.62" y="-188.38" font-family="Helvetica,sans-Serif" font-size="10.00">mlir/Analysis/CallGraph.h</text>
</a>
</g>
</g>
<!-- Node34&#45;&gt;Node35 -->
<g id="edge21_Node000034_Node000035" class="edge">
<title>Node34&#45;&gt;Node35</title>
<g id="a_edge21_Node000034_Node000035"><a xlink:title=" ">
<path fill="none" stroke="#63b8ff" d="M3251.5,-248.7C3260.84,-246.97 3270.53,-245.18 3279.62,-243.5 3366.29,-227.48 3388.06,-224.06 3474.62,-207.5 3479.75,-206.52 3485.08,-205.49 3490.42,-204.45"/>
<polygon fill="#63b8ff" stroke="#63b8ff" points="3490.7,-207.96 3499.84,-202.6 3489.35,-201.09 3490.7,-207.96"/>
</a>
</g>
</g>
<!-- Node36 -->
<g id="Node000036" class="node">
<title>Node36</title>
<g id="a_Node000036"><a xlink:title=" ">
<polygon fill="#e0e0e0" stroke="#999999" points="3058.38,-201.88 2938.88,-201.88 2938.88,-182.62 3058.38,-182.62 3058.38,-201.88"/>
<text text-anchor="middle" x="2998.62" y="-188.38" font-family="Helvetica,sans-Serif" font-size="10.00">llvm/ADT/GraphTraits.h</text>
</a>
</g>
</g>
<!-- Node34&#45;&gt;Node36 -->
<g id="edge22_Node000034_Node000036" class="edge">
<title>Node34&#45;&gt;Node36</title>
<g id="a_edge22_Node000034_Node000036"><a xlink:title=" ">
<path fill="none" stroke="#63b8ff" d="M3173.83,-248.65C3138.37,-237.43 3077.95,-218.33 3038.16,-205.75"/>
<polygon fill="#63b8ff" stroke="#63b8ff" points="3039.31,-202.44 3028.72,-202.76 3037.2,-209.12 3039.31,-202.44"/>
</a>
</g>
</g>
<!-- Node37 -->
<g id="Node000037" class="node">
<title>Node37</title>
<g id="a_Node000037"><a xlink:title=" ">
<polygon fill="#e0e0e0" stroke="#999999" points="3191.12,-201.88 3076.12,-201.88 3076.12,-182.62 3191.12,-182.62 3191.12,-201.88"/>
<text text-anchor="middle" x="3133.62" y="-188.38" font-family="Helvetica,sans-Serif" font-size="10.00">llvm/ADT/MapVector.h</text>
</a>
</g>
</g>
<!-- Node34&#45;&gt;Node37 -->
<g id="edge23_Node000034_Node000037" class="edge">
<title>Node34&#45;&gt;Node37</title>
<g id="a_edge23_Node000034_Node000037"><a xlink:title=" ">
<path fill="none" stroke="#63b8ff" d="M3193.03,-248.78C3182.32,-238.77 3164.75,-222.35 3151.49,-209.95"/>
<polygon fill="#63b8ff" stroke="#63b8ff" points="3153.94,-207.45 3144.24,-203.18 3149.16,-212.56 3153.94,-207.45"/>
</a>
</g>
</g>
<!-- Node38 -->
<g id="Node000038" class="node">
<title>Node38</title>
<g id="a_Node000038"><a xlink:title=" ">
<polygon fill="#e0e0e0" stroke="#999999" points="3336.12,-201.88 3209.12,-201.88 3209.12,-182.62 3336.12,-182.62 3336.12,-201.88"/>
<text text-anchor="middle" x="3272.62" y="-188.38" font-family="Helvetica,sans-Serif" font-size="10.00">llvm/ADT/PointerIntPair.h</text>
</a>
</g>
</g>
<!-- Node34&#45;&gt;Node38 -->
<g id="edge24_Node000034_Node000038" class="edge">
<title>Node34&#45;&gt;Node38</title>
<g id="a_edge24_Node000034_Node000038"><a xlink:title=" ">
<path fill="none" stroke="#63b8ff" d="M3212.36,-248.78C3223.33,-238.67 3241.39,-222.03 3254.89,-209.6"/>
<polygon fill="#63b8ff" stroke="#63b8ff" points="3256.88,-212.52 3261.86,-203.17 3252.14,-207.37 3256.88,-212.52"/>
</a>
</g>
</g>
<!-- Node34&#45;&gt;Node39 -->
<g id="edge25_Node000034_Node000039" class="edge">
<title>Node34&#45;&gt;Node39</title>
<g id="a_edge25_Node000034_Node000039"><a xlink:title=" ">
<path fill="none" stroke="#63b8ff" d="M3248.54,-248.65C3258.75,-246.8 3269.53,-244.97 3279.62,-243.5 3430,-221.66 3469.48,-230.89 3619.62,-207.5 3625.22,-206.63 3631.05,-205.6 3636.85,-204.51"/>
<polygon fill="#63b8ff" stroke="#63b8ff" points="3637.25,-208 3646.4,-202.65 3635.91,-201.13 3637.25,-208"/>
</a>
</g>
</g>
<!-- Node40 -->
<g id="Node000040" class="node">
<title>Node40</title>
<g id="a_Node000040"><a xlink:title=" ">
<polygon fill="#e0e0e0" stroke="#999999" points="3465.25,-201.88 3354,-201.88 3354,-182.62 3465.25,-182.62 3465.25,-201.88"/>
<text text-anchor="middle" x="3409.62" y="-188.38" font-family="Helvetica,sans-Serif" font-size="10.00">llvm/ADT/SetVector.h</text>
</a>
</g>
</g>
<!-- Node34&#45;&gt;Node40 -->
<g id="edge26_Node000034_Node000040" class="edge">
<title>Node34&#45;&gt;Node40</title>
<g id="a_edge26_Node000034_Node000040"><a xlink:title=" ">
<path fill="none" stroke="#63b8ff" d="M3231.84,-248.65C3267.91,-237.41 3329.39,-218.25 3369.77,-205.67"/>
<polygon fill="#63b8ff" stroke="#63b8ff" points="3370.6,-209.07 3379.11,-202.76 3368.52,-202.39 3370.6,-209.07"/>
</a>
</g>
</g>
<!-- Node42 -->
<g id="Node000042" class="node">
<title>Node42</title>
<g id="a_Node000042"><a xlink:href="_function_2_i_r_2_attrs_8h.html" target="_top" xlink:title=" ">
<polygon fill="white" stroke="#666666" points="2509.25,-207.5 2404,-207.5 2404,-177 2509.25,-177 2509.25,-207.5"/>
<text text-anchor="start" x="2412" y="-194" font-family="Helvetica,sans-Serif" font-size="10.00">llzk/Dialect/Function</text>
<text text-anchor="middle" x="2456.62" y="-182.75" font-family="Helvetica,sans-Serif" font-size="10.00">/IR/Attrs.h</text>
</a>
</g>
</g>
<!-- Node41&#45;&gt;Node42 -->
<g id="edge28_Node000041_Node000042" class="edge">
<title>Node41&#45;&gt;Node42</title>
<g id="a_edge28_Node000041_Node000042"><a xlink:title=" ">
<path fill="none" stroke="#63b8ff" d="M2379.32,-243.11C2392.74,-234.45 2409.96,-223.35 2424.73,-213.82"/>
<polygon fill="#63b8ff" stroke="#63b8ff" points="2426.24,-217.01 2432.75,-208.65 2422.45,-211.13 2426.24,-217.01"/>
</a>
</g>
</g>
<!-- Node45 -->
<g id="Node000045" class="node">
<title>Node45</title>
<g id="a_Node000045"><a xlink:href="_op_helpers_8h.html" target="_top" xlink:title=" ">
<polygon fill="#fff0f0" stroke="red" points="2262.88,-141 2164.38,-141 2164.38,-110.5 2262.88,-110.5 2262.88,-141"/>
<text text-anchor="start" x="2172.38" y="-127.5" font-family="Helvetica,sans-Serif" font-size="10.00">llzk/Dialect/Shared</text>
<text text-anchor="middle" x="2213.62" y="-116.25" font-family="Helvetica,sans-Serif" font-size="10.00">/OpHelpers.h</text>
</a>
</g>
</g>
<!-- Node41&#45;&gt;Node45 -->
<g id="edge31_Node000041_Node000045" class="edge">
<title>Node41&#45;&gt;Node45</title>
<g id="a_edge31_Node000041_Node000045"><a xlink:title=" ">
<path fill="none" stroke="#63b8ff" d="M2344.14,-243.03C2329.63,-226.26 2304.59,-198.43 2280.62,-177 2269.25,-166.83 2255.94,-156.55 2244.2,-147.97"/>
<polygon fill="#63b8ff" stroke="#63b8ff" points="2246.57,-145.36 2236.41,-142.36 2242.48,-151.04 2246.57,-145.36"/>
</a>
</g>
</g>
<!-- Node48 -->
<g id="Node000048" class="node">
<title>Node48</title>
<g id="a_Node000048"><a xlink:title=" ">
<polygon fill="#e0e0e0" stroke="#999999" points="2340.62,-19.25 2204.62,-19.25 2204.62,0 2340.62,0 2340.62,-19.25"/>
<text text-anchor="middle" x="2272.62" y="-5.75" font-family="Helvetica,sans-Serif" font-size="10.00">mlir/IR/OpImplementation.h</text>
</a>
</g>
</g>
<!-- Node41&#45;&gt;Node48 -->
<g id="edge46_Node000041_Node000048" class="edge">
<title>Node41&#45;&gt;Node48</title>
<g id="a_edge46_Node000041_Node000048"><a xlink:title=" ">
<path fill="none" stroke="#63b8ff" d="M2359.02,-243.11C2363.73,-216.15 2375.44,-157.13 2394.62,-110.5 2404.62,-86.21 2431.19,-76.41 2415.62,-55.25 2400.66,-34.9 2376.47,-23.57 2352.2,-17.34"/>
<polygon fill="#63b8ff" stroke="#63b8ff" points="2353.08,-13.95 2342.56,-15.16 2351.54,-20.78 2353.08,-13.95"/>
</a>
</g>
</g>
<!-- Node52 -->
<g id="Node000052" class="node">
<title>Node52</title>
<g id="a_Node000052"><a xlink:href="_constants_8h.html" target="_top" xlink:title=" ">
<polygon fill="white" stroke="#666666" points="2406.25,-74.5 2301,-74.5 2301,-55.25 2406.25,-55.25 2406.25,-74.5"/>
<text text-anchor="middle" x="2353.62" y="-61" font-family="Helvetica,sans-Serif" font-size="10.00">llzk/Util/Constants.h</text>
</a>
</g>
</g>
<!-- Node41&#45;&gt;Node52 -->
<g id="edge43_Node000041_Node000052" class="edge">
<title>Node41&#45;&gt;Node52</title>
<g id="a_edge43_Node000041_Node000052"><a xlink:title=" ">
<path fill="none" stroke="#63b8ff" d="M2356.39,-243.01C2355.86,-208.95 2354.55,-124.74 2353.94,-85.98"/>
<polygon fill="#63b8ff" stroke="#63b8ff" points="2357.44,-86.18 2353.79,-76.23 2350.44,-86.29 2357.44,-86.18"/>
</a>
</g>
</g>
<!-- Node56 -->
<g id="Node000056" class="node">
<title>Node56</title>
<g id="a_Node000056"><a xlink:href="_struct_2_i_r_2_ops_8h.html" target="_top" xlink:title=" ">
<polygon fill="#fff0f0" stroke="red" points="2271.62,-207.5 2177.62,-207.5 2177.62,-177 2271.62,-177 2271.62,-207.5"/>
<text text-anchor="start" x="2185.62" y="-194" font-family="Helvetica,sans-Serif" font-size="10.00">llzk/Dialect/Struct</text>
<text text-anchor="middle" x="2224.62" y="-182.75" font-family="Helvetica,sans-Serif" font-size="10.00">/IR/Ops.h</text>
</a>
</g>
</g>
<!-- Node41&#45;&gt;Node56 -->
<g id="edge41_Node000041_Node000056" class="edge">
<title>Node41&#45;&gt;Node56</title>
<g id="a_edge41_Node000041_Node000056"><a xlink:title=" ">
<path fill="none" stroke="#63b8ff" d="M2326.67,-243.11C2308.36,-234.17 2284.71,-222.61 2264.79,-212.87"/>
<polygon fill="#63b8ff" stroke="#63b8ff" points="2266.34,-209.74 2255.82,-208.49 2263.27,-216.03 2266.34,-209.74"/>
</a>
</g>
</g>
<!-- Node76 -->
<g id="Node000076" class="node">
<title>Node76</title>
<g id="a_Node000076"><a xlink:href="_symbol_helper_8h.html" target="_top" xlink:title=" ">
<polygon fill="#fff0f0" stroke="red" points="2121.12,-201.88 2000.12,-201.88 2000.12,-182.62 2121.12,-182.62 2121.12,-201.88"/>
<text text-anchor="middle" x="2060.62" y="-188.38" font-family="Helvetica,sans-Serif" font-size="10.00">llzk/Util/SymbolHelper.h</text>
</a>
</g>
</g>
<!-- Node41&#45;&gt;Node76 -->
<g id="edge44_Node000041_Node000076" class="edge">
<title>Node41&#45;&gt;Node76</title>
<g id="a_edge44_Node000041_Node000076"><a xlink:title=" ">
<path fill="none" stroke="#63b8ff" d="M2303.71,-246.22C2249.84,-234.48 2166.82,-216.39 2113.11,-204.69"/>
<polygon fill="#63b8ff" stroke="#63b8ff" points="2114.11,-201.32 2103.59,-202.61 2112.62,-208.16 2114.11,-201.32"/>
</a>
</g>
</g>
<!-- Node77 -->
<g id="Node000077" class="node">
<title>Node77</title>
<g id="a_Node000077"><a xlink:title=" ">
<polygon fill="#e0e0e0" stroke="#999999" points="2140.75,-135.38 1990.5,-135.38 1990.5,-116.12 2140.75,-116.12 2140.75,-135.38"/>
<text text-anchor="middle" x="2065.62" y="-121.88" font-family="Helvetica,sans-Serif" font-size="10.00">mlir/Interfaces/CallInterfaces.h</text>
</a>
</g>
</g>
<!-- Node41&#45;&gt;Node77 -->
<g id="edge47_Node000041_Node000077" class="edge">
<title>Node41&#45;&gt;Node77</title>
<g id="a_edge47_Node000041_Node000077"><a xlink:title=" ">
<path fill="none" stroke="#63b8ff" d="M2303.86,-249.7C2264.96,-242.36 2211.57,-229.25 2168.62,-207.5 2149.3,-197.72 2147.64,-190.4 2130.62,-177 2115.8,-165.32 2098.94,-152.3 2086.11,-142.43"/>
<polygon fill="#63b8ff" stroke="#63b8ff" points="2088.45,-139.81 2078.38,-136.5 2084.18,-145.37 2088.45,-139.81"/>
</a>
</g>
</g>
<!-- Node79 -->
<g id="Node000079" class="node">
<title>Node79</title>
<g id="a_Node000079"><a xlink:title=" ">
<polygon fill="#e0e0e0" stroke="#999999" points="2661.5,-207.5 2527.75,-207.5 2527.75,-177 2661.5,-177 2661.5,-207.5"/>
<text text-anchor="start" x="2535.75" y="-194" font-family="Helvetica,sans-Serif" font-size="10.00">mlir/Interfaces/ControlFlow</text>
<text text-anchor="middle" x="2594.62" y="-182.75" font-family="Helvetica,sans-Serif" font-size="10.00">Interfaces.h</text>
</a>
</g>
</g>
<!-- Node41&#45;&gt;Node79 -->
<g id="edge48_Node000041_Node000079" class="edge">
<title>Node41&#45;&gt;Node79</title>
<g id="a_edge48_Node000041_Node000079"><a xlink:title=" ">
<path fill="none" stroke="#63b8ff" d="M2409.74,-243.36C2445.15,-233.76 2491.93,-221.08 2529.57,-210.88"/>
<polygon fill="#63b8ff" stroke="#63b8ff" points="2530.24,-214.33 2538.97,-208.33 2528.41,-207.57 2530.24,-214.33"/>
</a>
</g>
</g>
<!-- Node80 -->
<g id="Node000080" class="node">
<title>Node80</title>
<g id="a_Node000080"><a xlink:title=" ">
<polygon fill="#e0e0e0" stroke="#999999" points="2798,-207.5 2679.25,-207.5 2679.25,-177 2798,-177 2798,-207.5"/>
<text text-anchor="start" x="2687.25" y="-194" font-family="Helvetica,sans-Serif" font-size="10.00">mlir/Interfaces/Function</text>
<text text-anchor="middle" x="2738.62" y="-182.75" font-family="Helvetica,sans-Serif" font-size="10.00">Interfaces.h</text>
</a>
</g>
</g>
<!-- Node41&#45;&gt;Node80 -->
<g id="edge49_Node000041_Node000080" class="edge">
<title>Node41&#45;&gt;Node80</title>
<g id="a_edge49_Node000041_Node000080"><a xlink:title=" ">
<path fill="none" stroke="#63b8ff" d="M2409.54,-250.07C2469.74,-241.16 2571.26,-225.6 2667.81,-207.97"/>
<polygon fill="#63b8ff" stroke="#63b8ff" points="2668.26,-211.45 2677.46,-206.2 2667,-204.56 2668.26,-211.45"/>
</a>
</g>
</g>
<!-- Node81 -->
<g id="Node000081" class="node">
<title>Node81</title>
<g id="a_Node000081"><a xlink:href="_function_2_i_r_2_ops_8h_8inc.html" target="_top" xlink:title=" ">
<polygon fill="white" stroke="#666666" points="2921.25,-207.5 2816,-207.5 2816,-177 2921.25,-177 2921.25,-207.5"/>
<text text-anchor="start" x="2824" y="-194" font-family="Helvetica,sans-Serif" font-size="10.00">llzk/Dialect/Function</text>
<text text-anchor="middle" x="2868.62" y="-182.75" font-family="Helvetica,sans-Serif" font-size="10.00">/IR/Ops.h.inc</text>
</a>
</g>
</g>
<!-- Node41&#45;&gt;Node81 -->
<g id="edge50_Node000041_Node000081" class="edge">
<title>Node41&#45;&gt;Node81</title>
<g id="a_edge50_Node000041_Node000081"><a xlink:title=" ">
<path fill="none" stroke="#63b8ff" d="M2409.55,-253.82C2491.89,-247.27 2655.78,-232.51 2804.47,-207.74"/>
<polygon fill="#63b8ff" stroke="#63b8ff" points="2804.83,-211.22 2814.11,-206.11 2803.67,-204.32 2804.83,-211.22"/>
</a>
</g>
</g>
<!-- Node43 -->
<g id="Node000043" class="node">
<title>Node43</title>
<g id="a_Node000043"><a xlink:title=" ">
<polygon fill="#e0e0e0" stroke="#999999" points="2625.88,-135.38 2527.38,-135.38 2527.38,-116.12 2625.88,-116.12 2625.88,-135.38"/>
<text text-anchor="middle" x="2576.62" y="-121.88" font-family="Helvetica,sans-Serif" font-size="10.00">mlir/IR/Attributes.h</text>
</a>
</g>
</g>
<!-- Node42&#45;&gt;Node43 -->
<g id="edge29_Node000042_Node000043" class="edge">
<title>Node42&#45;&gt;Node43</title>
<g id="a_edge29_Node000042_Node000043"><a xlink:title=" ">
<path fill="none" stroke="#63b8ff" d="M2483.85,-176.61C2503.58,-166.01 2530.11,-151.75 2549.75,-141.2"/>
<polygon fill="#63b8ff" stroke="#63b8ff" points="2551.38,-144.29 2558.53,-136.48 2548.06,-138.13 2551.38,-144.29"/>
</a>
</g>
</g>
<!-- Node44 -->
<g id="Node000044" class="node">
<title>Node44</title>
<g id="a_Node000044"><a xlink:href="_function_2_i_r_2_attrs_8h_8inc.html" target="_top" xlink:title=" ">
<polygon fill="white" stroke="#666666" points="2509.25,-141 2404,-141 2404,-110.5 2509.25,-110.5 2509.25,-141"/>
<text text-anchor="start" x="2412" y="-127.5" font-family="Helvetica,sans-Serif" font-size="10.00">llzk/Dialect/Function</text>
<text text-anchor="middle" x="2456.62" y="-116.25" font-family="Helvetica,sans-Serif" font-size="10.00">/IR/Attrs.h.inc</text>
</a>
</g>
</g>
<!-- Node42&#45;&gt;Node44 -->
<g id="edge30_Node000042_Node000044" class="edge">
<title>Node42&#45;&gt;Node44</title>
<g id="a_edge30_Node000042_Node000044"><a xlink:title=" ">
<path fill="none" stroke="#63b8ff" d="M2456.62,-176.61C2456.62,-169.52 2456.62,-160.79 2456.62,-152.63"/>
<polygon fill="#63b8ff" stroke="#63b8ff" points="2460.13,-152.84 2456.63,-142.84 2453.13,-152.84 2460.13,-152.84"/>
</a>
</g>
</g>
<!-- Node46 -->
<g id="Node000046" class="node">
<title>Node46</title>
<g id="a_Node000046"><a xlink:href="_affine_helper_8h.html" target="_top" xlink:title=" ">
<polygon fill="#fff0f0" stroke="red" points="2244.38,-74.5 2130.88,-74.5 2130.88,-55.25 2244.38,-55.25 2244.38,-74.5"/>
<text text-anchor="middle" x="2187.62" y="-61" font-family="Helvetica,sans-Serif" font-size="10.00">llzk/Util/AffineHelper.h</text>
</a>
</g>
</g>
<!-- Node45&#45;&gt;Node46 -->
<g id="edge32_Node000045_Node000046" class="edge">
<title>Node45&#45;&gt;Node46</title>
<g id="a_edge32_Node000045_Node000046"><a xlink:title=" ">
<path fill="none" stroke="#63b8ff" d="M2207.2,-110.2C2203.89,-102.7 2199.8,-93.45 2196.22,-85.35"/>
<polygon fill="#63b8ff" stroke="#63b8ff" points="2199.49,-84.07 2192.24,-76.34 2193.08,-86.9 2199.49,-84.07"/>
</a>
</g>
</g>
<!-- Node45&#45;&gt;Node48 -->
<g id="edge37_Node000045_Node000048" class="edge">
<title>Node45&#45;&gt;Node48</title>
<g id="a_edge37_Node000045_Node000048"><a xlink:title=" ">
<path fill="none" stroke="#63b8ff" d="M2227.51,-110.42C2236.08,-100.9 2246.72,-87.75 2253.62,-74.5 2260.84,-60.66 2265.73,-43.67 2268.74,-30.7"/>
<polygon fill="#63b8ff" stroke="#63b8ff" points="2272.1,-31.7 2270.75,-21.2 2265.25,-30.25 2272.1,-31.7"/>
</a>
</g>
</g>
<!-- Node49 -->
<g id="Node000049" class="node">
<title>Node49</title>
<g id="a_Node000049"><a xlink:title=" ">
<polygon fill="#e0e0e0" stroke="#999999" points="2168.88,-19.25 2070.38,-19.25 2070.38,0 2168.88,0 2168.88,-19.25"/>
<text text-anchor="middle" x="2119.62" y="-5.75" font-family="Helvetica,sans-Serif" font-size="10.00">mlir/IR/Operation.h</text>
</a>
</g>
</g>
<!-- Node45&#45;&gt;Node49 -->
<g id="edge38_Node000045_Node000049" class="edge">
<title>Node45&#45;&gt;Node49</title>
<g id="a_edge38_Node000045_Node000049"><a xlink:title=" ">
<path fill="none" stroke="#63b8ff" d="M2166.29,-110.14C2149.24,-102.38 2131.73,-90.94 2121.62,-74.5 2113.7,-61.61 2113.65,-44.32 2115.34,-30.98"/>
<polygon fill="#63b8ff" stroke="#63b8ff" points="2118.78,-31.61 2117.03,-21.16 2111.88,-30.43 2118.78,-31.61"/>
</a>
</g>
</g>
<!-- Node45&#45;&gt;Node52 -->
<g id="edge36_Node000045_Node000052" class="edge">
<title>Node45&#45;&gt;Node52</title>
<g id="a_edge36_Node000045_Node000052"><a xlink:title=" ">
<path fill="none" stroke="#63b8ff" d="M2248.59,-110.05C2271.04,-100.6 2299.96,-88.44 2321.77,-79.27"/>
<polygon fill="#63b8ff" stroke="#63b8ff" points="2322.9,-82.59 2330.76,-75.49 2320.18,-76.14 2322.9,-82.59"/>
</a>
</g>
</g>
<!-- Node53 -->
<g id="Node000053" class="node">
<title>Node53</title>
<g id="a_Node000053"><a xlink:title=" ">
<polygon fill="#e0e0e0" stroke="#999999" points="1938.12,-74.5 1799.12,-74.5 1799.12,-55.25 1938.12,-55.25 1938.12,-74.5"/>
<text text-anchor="middle" x="1868.62" y="-61" font-family="Helvetica,sans-Serif" font-size="10.00">mlir/Support/LogicalResult.h</text>
</a>
</g>
</g>
<!-- Node45&#45;&gt;Node53 -->
<g id="edge39_Node000045_Node000053" class="edge">
<title>Node45&#45;&gt;Node53</title>
<g id="a_edge39_Node000045_Node000053"><a xlink:title=" ">
<path fill="none" stroke="#63b8ff" d="M2164.07,-113.4C2159.2,-112.38 2154.32,-111.39 2149.62,-110.5 2080.51,-97.33 2001.32,-85 1944.65,-76.65"/>
<polygon fill="#63b8ff" stroke="#63b8ff" points="1945.17,-73.19 1934.77,-75.21 1944.16,-80.12 1945.17,-73.19"/>
</a>
</g>
</g>
<!-- Node54 -->
<g id="Node000054" class="node">
<title>Node54</title>
<g id="a_Node000054"><a xlink:title=" ">
<polygon fill="#e0e0e0" stroke="#999999" points="2075,-74.5 1956.25,-74.5 1956.25,-55.25 2075,-55.25 2075,-74.5"/>
<text text-anchor="middle" x="2015.62" y="-61" font-family="Helvetica,sans-Serif" font-size="10.00">llvm/ADT/SmallString.h</text>
</a>
</g>
</g>
<!-- Node45&#45;&gt;Node54 -->
<g id="edge40_Node000045_Node000054" class="edge">
<title>Node45&#45;&gt;Node54</title>
<g id="a_edge40_Node000045_Node000054"><a xlink:title=" ">
<path fill="none" stroke="#63b8ff" d="M2164.17,-110.05C2131.22,-100.25 2088.4,-87.52 2057.21,-78.24"/>
<polygon fill="#63b8ff" stroke="#63b8ff" points="2058.32,-74.92 2047.73,-75.42 2056.32,-81.63 2058.32,-74.92"/>
</a>
</g>
</g>
<!-- Node46&#45;&gt;Node48 -->
<g id="edge33_Node000046_Node000048" class="edge">
<title>Node46&#45;&gt;Node48</title>
<g id="a_edge33_Node000046_Node000048"><a xlink:title=" ">
<path fill="none" stroke="#63b8ff" d="M2202.04,-54.84C2214.74,-46.89 2233.5,-35.14 2248.48,-25.75"/>
<polygon fill="#63b8ff" stroke="#63b8ff" points="2250.24,-28.78 2256.85,-20.51 2246.52,-22.85 2250.24,-28.78"/>
</a>
</g>
</g>
<!-- Node46&#45;&gt;Node49 -->
<g id="edge34_Node000046_Node000049" class="edge">
<title>Node46&#45;&gt;Node49</title>
<g id="a_edge34_Node000046_Node000049"><a xlink:title=" ">
<path fill="none" stroke="#63b8ff" d="M2176.09,-54.84C2166.16,-47.07 2151.61,-35.67 2139.77,-26.4"/>
<polygon fill="#63b8ff" stroke="#63b8ff" points="2142.21,-23.87 2132.18,-20.46 2137.9,-29.38 2142.21,-23.87"/>
</a>
</g>
</g>
<!-- Node46&#45;&gt;Node51 -->
<g id="edge35_Node000046_Node000051" class="edge">
<title>Node46&#45;&gt;Node51</title>
<g id="a_edge35_Node000046_Node000051"><a xlink:title=" ">
<path fill="none" stroke="#63b8ff" d="M2136.74,-54.78C2085.52,-45.63 2006.47,-31.5 1951.62,-21.7"/>
<polygon fill="#63b8ff" stroke="#63b8ff" points="1952.25,-18.26 1941.79,-19.95 1951.02,-25.15 1952.25,-18.26"/>
</a>
</g>
</g>
<!-- Node56&#45;&gt;Node45 -->
<g id="edge42_Node000056_Node000045" class="edge">
<title>Node56&#45;&gt;Node45</title>
<g id="a_edge42_Node000056_Node000045"><a xlink:title=" ">
<path fill="none" stroke="#63b8ff" d="M2222.13,-176.61C2220.92,-169.52 2219.43,-160.79 2218.04,-152.63"/>
<polygon fill="#63b8ff" stroke="#63b8ff" points="2221.5,-152.09 2216.37,-142.82 2214.6,-153.27 2221.5,-152.09"/>
</a>
</g>
</g>
<!-- Node76&#45;&gt;Node77 -->
<g id="edge45_Node000076_Node000077" class="edge">
<title>Node76&#45;&gt;Node77</title>
<g id="a_edge45_Node000076_Node000077"><a xlink:title=" ">
<path fill="none" stroke="#63b8ff" d="M2061.32,-182.28C2062.03,-173.14 2063.15,-158.64 2064.07,-146.75"/>
<polygon fill="#63b8ff" stroke="#63b8ff" points="2067.54,-147.39 2064.82,-137.15 2060.56,-146.85 2067.54,-147.39"/>
</a>
</g>
</g>
</g>
</svg>
