<?xml version="1.0" encoding="UTF-8" standalone="no"?>
<!DOCTYPE svg PUBLIC "-//W3C//DTD SVG 1.1//EN"
 "http://www.w3.org/Graphics/SVG/1.1/DTD/svg11.dtd">
<!-- Generated by graphviz version 12.2.1 (20241206.2353)
 -->
<!-- Title: include/llzk/Util/Compare.h Pages: 1 -->
<svg width="180pt" height="83pt"
 viewBox="0.00 0.00 180.12 82.50" xmlns="http://www.w3.org/2000/svg" xmlns:xlink="http://www.w3.org/1999/xlink">
<g id="graph0" class="graph" transform="scale(1 1) rotate(0) translate(4 78.5)">
<title>include/llzk/Util/Compare.h</title>
<!-- Node1 -->
<g id="Node000001" class="node">
<title>Node1</title>
<g id="a_Node000001"><a xlink:title=" ">
<polygon fill="#999999" stroke="#666666" points="163.12,-74.5 29.38,-74.5 29.38,-55.25 163.12,-55.25 163.12,-74.5"/>
<text text-anchor="middle" x="96.25" y="-61" font-family="Helvetica,sans-Serif" font-size="10.00">include/llzk/Util/Compare.h</text>
</a>
</g>
</g>
<!-- Node2 -->
<g id="Node000002" class="node">
<title>Node2</title>
<g id="a_Node000002"><a xlink:title=" ">
<polygon fill="#e0e0e0" stroke="#999999" points="98.5,-19.25 0,-19.25 0,0 98.5,0 98.5,-19.25"/>
<text text-anchor="middle" x="49.25" y="-5.75" font-family="Helvetica,sans-Serif" font-size="10.00">mlir/IR/Operation.h</text>
</a>
</g>
</g>
<!-- Node1&#45;&gt;Node2 -->
<g id="edge1_Node000001_Node000002" class="edge">
<title>Node1&#45;&gt;Node2</title>
<g id="a_edge1_Node000001_Node000002"><a xlink:title=" ">
<path fill="none" stroke="#63b8ff" d="M88.49,-55.08C82.06,-47.8 72.74,-37.23 64.79,-28.23"/>
<polygon fill="#63b8ff" stroke="#63b8ff" points="67.42,-25.93 58.18,-20.74 62.17,-30.56 67.42,-25.93"/>
</a>
</g>
</g>
<!-- Node3 -->
<g id="Node000003" class="node">
<title>Node3</title>
<g id="a_Node000003"><a xlink:title=" ">
<polygon fill="#e0e0e0" stroke="#999999" points="172.12,-19.25 116.38,-19.25 116.38,0 172.12,0 172.12,-19.25"/>
<text text-anchor="middle" x="144.25" y="-5.75" font-family="Helvetica,sans-Serif" font-size="10.00">concepts</text>
</a>
</g>
</g>
<!-- Node1&#45;&gt;Node3 -->
<g id="edge2_Node000001_Node000003" class="edge">
<title>Node1&#45;&gt;Node3</title>
<g id="a_edge2_Node000001_Node000003"><a xlink:title=" ">
<path fill="none" stroke="#63b8ff" d="M104.18,-55.08C110.81,-47.73 120.47,-37.01 128.64,-27.94"/>
<polygon fill="#63b8ff" stroke="#63b8ff" points="131.04,-30.5 135.14,-20.73 125.84,-25.82 131.04,-30.5"/>
</a>
</g>
</g>
</g>
</svg>
