<?xml version="1.0" encoding="UTF-8" standalone="no"?>
<!DOCTYPE svg PUBLIC "-//W3C//DTD SVG 1.1//EN"
 "http://www.w3.org/Graphics/SVG/1.1/DTD/svg11.dtd">
<!-- Generated by graphviz version 12.2.1 (20241206.2353)
 -->
<!-- Title: include/llzk/Dialect/Constrain/IR/Dialect.h Pages: 1 -->
<svg width="238pt" height="105pt"
 viewBox="0.00 0.00 237.62 105.00" xmlns="http://www.w3.org/2000/svg" xmlns:xlink="http://www.w3.org/1999/xlink">
<g id="graph0" class="graph" transform="scale(1 1) rotate(0) translate(4 101)">
<title>include/llzk/Dialect/Constrain/IR/Dialect.h</title>
<!-- Node1 -->
<g id="Node000001" class="node">
<title>Node1</title>
<g id="a_Node000001"><a xlink:title=" ">
<polygon fill="#999999" stroke="#666666" points="171,-97 54.5,-97 54.5,-66.5 171,-66.5 171,-97"/>
<text text-anchor="start" x="62.5" y="-83.5" font-family="Helvetica,sans-Serif" font-size="10.00">include/llzk/Dialect</text>
<text text-anchor="middle" x="112.75" y="-72.25" font-family="Helvetica,sans-Serif" font-size="10.00">/Constrain/IR/Dialect.h</text>
</a>
</g>
</g>
<!-- Node2 -->
<g id="Node000002" class="node">
<title>Node2</title>
<g id="a_Node000002"><a xlink:title=" ">
<polygon fill="#e0e0e0" stroke="#999999" points="101.5,-24.88 0,-24.88 0,-5.63 101.5,-5.63 101.5,-24.88"/>
<text text-anchor="middle" x="50.75" y="-11.38" font-family="Helvetica,sans-Serif" font-size="10.00">mlir/IR/BuiltinOps.h</text>
</a>
</g>
</g>
<!-- Node1&#45;&gt;Node2 -->
<g id="edge1_Node000001_Node000002" class="edge">
<title>Node1&#45;&gt;Node2</title>
<g id="a_edge1_Node000001_Node000002"><a xlink:title=" ">
<path fill="none" stroke="#63b8ff" d="M98.68,-66.11C89.29,-56.34 76.9,-43.45 67.07,-33.23"/>
<polygon fill="#63b8ff" stroke="#63b8ff" points="69.73,-30.95 60.28,-26.16 64.69,-35.8 69.73,-30.95"/>
</a>
</g>
</g>
<!-- Node3 -->
<g id="Node000003" class="node">
<title>Node3</title>
<g id="a_Node000003"><a xlink:href="_constrain_2_i_r_2_dialect_8h_8inc.html" target="_top" xlink:title=" ">
<polygon fill="white" stroke="#666666" points="229.62,-30.5 119.88,-30.5 119.88,0 229.62,0 229.62,-30.5"/>
<text text-anchor="start" x="127.88" y="-17" font-family="Helvetica,sans-Serif" font-size="10.00">llzk/Dialect/Constrain</text>
<text text-anchor="middle" x="174.75" y="-5.75" font-family="Helvetica,sans-Serif" font-size="10.00">/IR/Dialect.h.inc</text>
</a>
</g>
</g>
<!-- Node1&#45;&gt;Node3 -->
<g id="edge2_Node000001_Node000003" class="edge">
<title>Node1&#45;&gt;Node3</title>
<g id="a_edge2_Node000001_Node000003"><a xlink:title=" ">
<path fill="none" stroke="#63b8ff" d="M126.82,-66.11C134.51,-58.11 144.2,-48.03 152.86,-39.03"/>
<polygon fill="#63b8ff" stroke="#63b8ff" points="155.28,-41.55 159.69,-31.92 150.23,-36.7 155.28,-41.55"/>
</a>
</g>
</g>
</g>
</svg>
