<?xml version="1.0" encoding="UTF-8" standalone="no"?>
<!DOCTYPE svg PUBLIC "-//W3C//DTD SVG 1.1//EN"
 "http://www.w3.org/Graphics/SVG/1.1/DTD/svg11.dtd">
<!-- Generated by graphviz version 12.2.1 (20241206.2353)
 -->
<!-- Title: include/llzk/Dialect/Constrain/IR/Ops.h Pages: 1 -->
<svg width="1464pt" height="238pt"
 viewBox="0.00 0.00 1464.25 238.00" xmlns="http://www.w3.org/2000/svg" xmlns:xlink="http://www.w3.org/1999/xlink">
<g id="graph0" class="graph" transform="scale(1 1) rotate(0) translate(4 234)">
<title>include/llzk/Dialect/Constrain/IR/Ops.h</title>
<!-- Node1 -->
<g id="Node000001" class="node">
<title>Node1</title>
<g id="a_Node000001"><a xlink:title=" ">
<polygon fill="#999999" stroke="#666666" points="1057.88,-230 954.12,-230 954.12,-199.5 1057.88,-199.5 1057.88,-230"/>
<text text-anchor="start" x="962.12" y="-216.5" font-family="Helvetica,sans-Serif" font-size="10.00">include/llzk/Dialect</text>
<text text-anchor="middle" x="1006" y="-205.25" font-family="Helvetica,sans-Serif" font-size="10.00">/Constrain/IR/Ops.h</text>
</a>
</g>
</g>
<!-- Node2 -->
<g id="Node000002" class="node">
<title>Node2</title>
<g id="a_Node000002"><a xlink:href="_array_2_i_r_2_types_8h.html" target="_top" xlink:title=" ">
<polygon fill="white" stroke="#666666" points="594.5,-163.5 503.5,-163.5 503.5,-133 594.5,-133 594.5,-163.5"/>
<text text-anchor="start" x="511.5" y="-150" font-family="Helvetica,sans-Serif" font-size="10.00">llzk/Dialect/Array</text>
<text text-anchor="middle" x="549" y="-138.75" font-family="Helvetica,sans-Serif" font-size="10.00">/IR/Types.h</text>
</a>
</g>
</g>
<!-- Node1&#45;&gt;Node2 -->
<g id="edge1_Node000001_Node000002" class="edge">
<title>Node1&#45;&gt;Node2</title>
<g id="a_edge1_Node000001_Node000002"><a xlink:title=" ">
<path fill="none" stroke="#63b8ff" d="M954.02,-206.41C867.73,-194.24 695.58,-169.94 606.05,-157.3"/>
<polygon fill="#63b8ff" stroke="#63b8ff" points="606.66,-153.85 596.27,-155.92 605.68,-160.78 606.66,-153.85"/>
</a>
</g>
</g>
<!-- Node13 -->
<g id="Node000013" class="node">
<title>Node13</title>
<g id="a_Node000013"><a xlink:href="_constrain_2_i_r_2_dialect_8h.html" target="_top" xlink:title=" ">
<polygon fill="white" stroke="#666666" points="932.88,-163.5 823.12,-163.5 823.12,-133 932.88,-133 932.88,-163.5"/>
<text text-anchor="start" x="831.12" y="-150" font-family="Helvetica,sans-Serif" font-size="10.00">llzk/Dialect/Constrain</text>
<text text-anchor="middle" x="878" y="-138.75" font-family="Helvetica,sans-Serif" font-size="10.00">/IR/Dialect.h</text>
</a>
</g>
</g>
<!-- Node1&#45;&gt;Node13 -->
<g id="edge12_Node000001_Node000013" class="edge">
<title>Node1&#45;&gt;Node13</title>
<g id="a_edge12_Node000001_Node000013"><a xlink:title=" ">
<path fill="none" stroke="#63b8ff" d="M976.95,-199.11C959.28,-190.21 936.47,-178.72 917.21,-169.01"/>
<polygon fill="#63b8ff" stroke="#63b8ff" points="918.79,-165.88 908.28,-164.51 915.64,-172.13 918.79,-165.88"/>
</a>
</g>
</g>
<!-- Node15 -->
<g id="Node000015" class="node">
<title>Node15</title>
<g id="a_Node000015"><a xlink:href="_constrain_2_i_r_2_op_interfaces_8h.html" target="_top" xlink:title=" ">
<polygon fill="white" stroke="#666666" points="1060.88,-163.5 951.12,-163.5 951.12,-133 1060.88,-133 1060.88,-163.5"/>
<text text-anchor="start" x="959.12" y="-150" font-family="Helvetica,sans-Serif" font-size="10.00">llzk/Dialect/Constrain</text>
<text text-anchor="middle" x="1006" y="-138.75" font-family="Helvetica,sans-Serif" font-size="10.00">/IR/OpInterfaces.h</text>
</a>
</g>
</g>
<!-- Node1&#45;&gt;Node15 -->
<g id="edge15_Node000001_Node000015" class="edge">
<title>Node1&#45;&gt;Node15</title>
<g id="a_edge15_Node000001_Node000015"><a xlink:title=" ">
<path fill="none" stroke="#63b8ff" d="M1006,-199.11C1006,-192.02 1006,-183.29 1006,-175.13"/>
<polygon fill="#63b8ff" stroke="#63b8ff" points="1009.5,-175.34 1006,-165.34 1002.5,-175.34 1009.5,-175.34"/>
</a>
</g>
</g>
<!-- Node17 -->
<g id="Node000017" class="node">
<title>Node17</title>
<g id="a_Node000017"><a xlink:href="_op_traits_8h.html" target="_top" xlink:title=" ">
<polygon fill="white" stroke="#666666" points="1193.62,-163.5 1088.38,-163.5 1088.38,-133 1193.62,-133 1193.62,-163.5"/>
<text text-anchor="start" x="1096.38" y="-150" font-family="Helvetica,sans-Serif" font-size="10.00">llzk/Dialect/Function</text>
<text text-anchor="middle" x="1141" y="-138.75" font-family="Helvetica,sans-Serif" font-size="10.00">/IR/OpTraits.h</text>
</a>
</g>
</g>
<!-- Node1&#45;&gt;Node17 -->
<g id="edge17_Node000001_Node000017" class="edge">
<title>Node1&#45;&gt;Node17</title>
<g id="a_edge17_Node000001_Node000017"><a xlink:title=" ">
<path fill="none" stroke="#63b8ff" d="M1036.63,-199.11C1055.45,-190.13 1079.77,-178.5 1100.21,-168.74"/>
<polygon fill="#63b8ff" stroke="#63b8ff" points="1101.61,-171.95 1109.12,-164.48 1098.59,-165.63 1101.61,-171.95"/>
</a>
</g>
</g>
<!-- Node21 -->
<g id="Node000021" class="node">
<title>Node21</title>
<g id="a_Node000021"><a xlink:href="_constrain_2_i_r_2_ops_8h_8inc.html" target="_top" xlink:title=" ">
<polygon fill="white" stroke="#666666" points="1321.88,-163.5 1212.12,-163.5 1212.12,-133 1321.88,-133 1321.88,-163.5"/>
<text text-anchor="start" x="1220.12" y="-150" font-family="Helvetica,sans-Serif" font-size="10.00">llzk/Dialect/Constrain</text>
<text text-anchor="middle" x="1267" y="-138.75" font-family="Helvetica,sans-Serif" font-size="10.00">/IR/Ops.h.inc</text>
</a>
</g>
</g>
<!-- Node1&#45;&gt;Node21 -->
<g id="edge21_Node000001_Node000021" class="edge">
<title>Node1&#45;&gt;Node21</title>
<g id="a_edge21_Node000001_Node000021"><a xlink:title=" ">
<path fill="none" stroke="#63b8ff" d="M1058.19,-200.85C1099.19,-190.72 1156.57,-176.54 1200.8,-165.61"/>
<polygon fill="#63b8ff" stroke="#63b8ff" points="1201.41,-169.06 1210.28,-163.27 1199.73,-162.27 1201.41,-169.06"/>
</a>
</g>
</g>
<!-- Node3 -->
<g id="Node000003" class="node">
<title>Node3</title>
<g id="a_Node000003"><a xlink:href="_array_2_i_r_2_dialect_8h.html" target="_top" xlink:title=" ">
<polygon fill="white" stroke="#666666" points="757.5,-97 666.5,-97 666.5,-66.5 757.5,-66.5 757.5,-97"/>
<text text-anchor="start" x="674.5" y="-83.5" font-family="Helvetica,sans-Serif" font-size="10.00">llzk/Dialect/Array</text>
<text text-anchor="middle" x="712" y="-72.25" font-family="Helvetica,sans-Serif" font-size="10.00">/IR/Dialect.h</text>
</a>
</g>
</g>
<!-- Node2&#45;&gt;Node3 -->
<g id="edge2_Node000002_Node000003" class="edge">
<title>Node2&#45;&gt;Node3</title>
<g id="a_edge2_Node000002_Node000003"><a xlink:title=" ">
<path fill="none" stroke="#63b8ff" d="M585.99,-132.61C609.14,-123.45 639.21,-111.55 664.17,-101.68"/>
<polygon fill="#63b8ff" stroke="#63b8ff" points="665.46,-104.93 673.47,-98 662.88,-98.42 665.46,-104.93"/>
</a>
</g>
</g>
<!-- Node6 -->
<g id="Node000006" class="node">
<title>Node6</title>
<g id="a_Node000006"><a xlink:href="_error_helper_8h.html" target="_top" xlink:title=" ">
<polygon fill="white" stroke="#666666" points="279.5,-91.38 170.5,-91.38 170.5,-72.12 279.5,-72.12 279.5,-91.38"/>
<text text-anchor="middle" x="225" y="-77.88" font-family="Helvetica,sans-Serif" font-size="10.00">llzk/Util/ErrorHelper.h</text>
</a>
</g>
</g>
<!-- Node2&#45;&gt;Node6 -->
<g id="edge5_Node000002_Node000006" class="edge">
<title>Node2&#45;&gt;Node6</title>
<g id="a_edge5_Node000002_Node000006"><a xlink:title=" ">
<path fill="none" stroke="#63b8ff" d="M503.18,-138.89C450.99,-129.26 363.2,-112.74 288,-97 283.92,-96.15 279.69,-95.24 275.45,-94.31"/>
<polygon fill="#63b8ff" stroke="#63b8ff" points="276.28,-90.91 265.75,-92.17 274.76,-97.74 276.28,-90.91"/>
</a>
</g>
</g>
<!-- Node10 -->
<g id="Node000010" class="node">
<title>Node10</title>
<g id="a_Node000010"><a xlink:title=" ">
<polygon fill="#e0e0e0" stroke="#999999" points="430.88,-97 297.12,-97 297.12,-66.5 430.88,-66.5 430.88,-97"/>
<text text-anchor="start" x="305.12" y="-83.5" font-family="Helvetica,sans-Serif" font-size="10.00">mlir/Interfaces/MemorySlot</text>
<text text-anchor="middle" x="364" y="-72.25" font-family="Helvetica,sans-Serif" font-size="10.00">Interfaces.h</text>
</a>
</g>
</g>
<!-- Node2&#45;&gt;Node10 -->
<g id="edge9_Node000002_Node000010" class="edge">
<title>Node2&#45;&gt;Node10</title>
<g id="a_edge9_Node000002_Node000010"><a xlink:title=" ">
<path fill="none" stroke="#63b8ff" d="M507.02,-132.61C480.27,-123.29 445.38,-111.12 416.76,-101.15"/>
<polygon fill="#63b8ff" stroke="#63b8ff" points="418.16,-97.93 407.56,-97.94 415.85,-104.54 418.16,-97.93"/>
</a>
</g>
</g>
<!-- Node11 -->
<g id="Node000011" class="node">
<title>Node11</title>
<g id="a_Node000011"><a xlink:href="_array_2_i_r_2_ops_8h_8inc.html" target="_top" xlink:title=" ">
<polygon fill="white" stroke="#666666" points="539.5,-97 448.5,-97 448.5,-66.5 539.5,-66.5 539.5,-97"/>
<text text-anchor="start" x="456.5" y="-83.5" font-family="Helvetica,sans-Serif" font-size="10.00">llzk/Dialect/Array</text>
<text text-anchor="middle" x="494" y="-72.25" font-family="Helvetica,sans-Serif" font-size="10.00">/IR/Ops.h.inc</text>
</a>
</g>
</g>
<!-- Node2&#45;&gt;Node11 -->
<g id="edge10_Node000002_Node000011" class="edge">
<title>Node2&#45;&gt;Node11</title>
<g id="a_edge10_Node000002_Node000011"><a xlink:title=" ">
<path fill="none" stroke="#63b8ff" d="M536.52,-132.61C529.84,-124.78 521.45,-114.94 513.9,-106.08"/>
<polygon fill="#63b8ff" stroke="#63b8ff" points="516.56,-103.82 507.41,-98.48 511.24,-108.36 516.56,-103.82"/>
</a>
</g>
</g>
<!-- Node12 -->
<g id="Node000012" class="node">
<title>Node12</title>
<g id="a_Node000012"><a xlink:href="_array_2_i_r_2_types_8h_8inc.html" target="_top" xlink:title=" ">
<polygon fill="white" stroke="#666666" points="648.5,-97 557.5,-97 557.5,-66.5 648.5,-66.5 648.5,-97"/>
<text text-anchor="start" x="565.5" y="-83.5" font-family="Helvetica,sans-Serif" font-size="10.00">llzk/Dialect/Array</text>
<text text-anchor="middle" x="603" y="-72.25" font-family="Helvetica,sans-Serif" font-size="10.00">/IR/Types.h.inc</text>
</a>
</g>
</g>
<!-- Node2&#45;&gt;Node12 -->
<g id="edge11_Node000002_Node000012" class="edge">
<title>Node2&#45;&gt;Node12</title>
<g id="a_edge11_Node000002_Node000012"><a xlink:title=" ">
<path fill="none" stroke="#63b8ff" d="M561.25,-132.61C567.81,-124.78 576.05,-114.94 583.46,-106.08"/>
<polygon fill="#63b8ff" stroke="#63b8ff" points="586.09,-108.4 589.82,-98.49 580.72,-103.91 586.09,-108.4"/>
</a>
</g>
</g>
<!-- Node4 -->
<g id="Node000004" class="node">
<title>Node4</title>
<g id="a_Node000004"><a xlink:title=" ">
<polygon fill="#e0e0e0" stroke="#999999" points="919.75,-24.88 818.25,-24.88 818.25,-5.63 919.75,-5.63 919.75,-24.88"/>
<text text-anchor="middle" x="869" y="-11.38" font-family="Helvetica,sans-Serif" font-size="10.00">mlir/IR/BuiltinOps.h</text>
</a>
</g>
</g>
<!-- Node3&#45;&gt;Node4 -->
<g id="edge3_Node000003_Node000004" class="edge">
<title>Node3&#45;&gt;Node4</title>
<g id="a_edge3_Node000003_Node000004"><a xlink:title=" ">
<path fill="none" stroke="#63b8ff" d="M747.63,-66.11C774.38,-55.12 810.73,-40.19 836.65,-29.54"/>
<polygon fill="#63b8ff" stroke="#63b8ff" points="837.75,-32.87 845.67,-25.83 835.09,-26.4 837.75,-32.87"/>
</a>
</g>
</g>
<!-- Node5 -->
<g id="Node000005" class="node">
<title>Node5</title>
<g id="a_Node000005"><a xlink:href="_array_2_i_r_2_dialect_8h_8inc.html" target="_top" xlink:title=" ">
<polygon fill="white" stroke="#666666" points="757.5,-30.5 666.5,-30.5 666.5,0 757.5,0 757.5,-30.5"/>
<text text-anchor="start" x="674.5" y="-17" font-family="Helvetica,sans-Serif" font-size="10.00">llzk/Dialect/Array</text>
<text text-anchor="middle" x="712" y="-5.75" font-family="Helvetica,sans-Serif" font-size="10.00">/IR/Dialect.h.inc</text>
</a>
</g>
</g>
<!-- Node3&#45;&gt;Node5 -->
<g id="edge4_Node000003_Node000005" class="edge">
<title>Node3&#45;&gt;Node5</title>
<g id="a_edge4_Node000003_Node000005"><a xlink:title=" ">
<path fill="none" stroke="#63b8ff" d="M712,-66.11C712,-59.02 712,-50.29 712,-42.13"/>
<polygon fill="#63b8ff" stroke="#63b8ff" points="715.5,-42.34 712,-32.34 708.5,-42.34 715.5,-42.34"/>
</a>
</g>
</g>
<!-- Node7 -->
<g id="Node000007" class="node">
<title>Node7</title>
<g id="a_Node000007"><a xlink:title=" ">
<polygon fill="#e0e0e0" stroke="#999999" points="160,-24.88 0,-24.88 0,-5.63 160,-5.63 160,-24.88"/>
<text text-anchor="middle" x="80" y="-11.38" font-family="Helvetica,sans-Serif" font-size="10.00">llvm/ADT/STLFunctionalExtras.h</text>
</a>
</g>
</g>
<!-- Node6&#45;&gt;Node7 -->
<g id="edge6_Node000006_Node000007" class="edge">
<title>Node6&#45;&gt;Node7</title>
<g id="a_edge6_Node000006_Node000007"><a xlink:title=" ">
<path fill="none" stroke="#63b8ff" d="M204.53,-71.65C180.14,-60.79 139.13,-42.55 110.87,-29.98"/>
<polygon fill="#63b8ff" stroke="#63b8ff" points="112.31,-26.79 101.75,-25.92 109.46,-33.19 112.31,-26.79"/>
</a>
</g>
</g>
<!-- Node8 -->
<g id="Node000008" class="node">
<title>Node8</title>
<g id="a_Node000008"><a xlink:title=" ">
<polygon fill="#e0e0e0" stroke="#999999" points="272,-24.88 178,-24.88 178,-5.63 272,-5.63 272,-24.88"/>
<text text-anchor="middle" x="225" y="-11.38" font-family="Helvetica,sans-Serif" font-size="10.00">llvm/ADT/Twine.h</text>
</a>
</g>
</g>
<!-- Node6&#45;&gt;Node8 -->
<g id="edge7_Node000006_Node000008" class="edge">
<title>Node6&#45;&gt;Node8</title>
<g id="a_edge7_Node000006_Node000008"><a xlink:title=" ">
<path fill="none" stroke="#63b8ff" d="M225,-71.78C225,-62.73 225,-48.45 225,-36.63"/>
<polygon fill="#63b8ff" stroke="#63b8ff" points="228.5,-36.66 225,-26.66 221.5,-36.66 228.5,-36.66"/>
</a>
</g>
</g>
<!-- Node9 -->
<g id="Node000009" class="node">
<title>Node9</title>
<g id="a_Node000009"><a xlink:title=" ">
<polygon fill="#e0e0e0" stroke="#999999" points="431.62,-24.88 290.38,-24.88 290.38,-5.63 431.62,-5.63 431.62,-24.88"/>
<text text-anchor="middle" x="361" y="-11.38" font-family="Helvetica,sans-Serif" font-size="10.00">llvm/Support/ErrorHandling.h</text>
</a>
</g>
</g>
<!-- Node6&#45;&gt;Node9 -->
<g id="edge8_Node000006_Node000009" class="edge">
<title>Node6&#45;&gt;Node9</title>
<g id="a_edge8_Node000006_Node000009"><a xlink:title=" ">
<path fill="none" stroke="#63b8ff" d="M244.2,-71.65C266.98,-60.84 305.2,-42.71 331.69,-30.15"/>
<polygon fill="#63b8ff" stroke="#63b8ff" points="333,-33.4 340.53,-25.96 330,-27.08 333,-33.4"/>
</a>
</g>
</g>
<!-- Node13&#45;&gt;Node4 -->
<g id="edge13_Node000013_Node000004" class="edge">
<title>Node13&#45;&gt;Node4</title>
<g id="a_edge13_Node000013_Node000004"><a xlink:title=" ">
<path fill="none" stroke="#63b8ff" d="M884.67,-132.6C891.19,-116.37 899.39,-89.46 894,-66.5 891.4,-55.44 885.98,-44.03 880.85,-34.89"/>
<polygon fill="#63b8ff" stroke="#63b8ff" points="883.87,-33.11 875.73,-26.33 877.86,-36.7 883.87,-33.11"/>
</a>
</g>
</g>
<!-- Node14 -->
<g id="Node000014" class="node">
<title>Node14</title>
<g id="a_Node000014"><a xlink:href="_constrain_2_i_r_2_dialect_8h_8inc.html" target="_top" xlink:title=" ">
<polygon fill="white" stroke="#666666" points="884.88,-97 775.12,-97 775.12,-66.5 884.88,-66.5 884.88,-97"/>
<text text-anchor="start" x="783.12" y="-83.5" font-family="Helvetica,sans-Serif" font-size="10.00">llzk/Dialect/Constrain</text>
<text text-anchor="middle" x="830" y="-72.25" font-family="Helvetica,sans-Serif" font-size="10.00">/IR/Dialect.h.inc</text>
</a>
</g>
</g>
<!-- Node13&#45;&gt;Node14 -->
<g id="edge14_Node000013_Node000014" class="edge">
<title>Node13&#45;&gt;Node14</title>
<g id="a_edge14_Node000013_Node000014"><a xlink:title=" ">
<path fill="none" stroke="#63b8ff" d="M867.11,-132.61C861.34,-124.86 854.11,-115.15 847.57,-106.36"/>
<polygon fill="#63b8ff" stroke="#63b8ff" points="850.53,-104.48 841.75,-98.54 844.91,-108.65 850.53,-104.48"/>
</a>
</g>
</g>
<!-- Node16 -->
<g id="Node000016" class="node">
<title>Node16</title>
<g id="a_Node000016"><a xlink:href="_constrain_2_i_r_2_op_interfaces_8h_8inc.html" target="_top" xlink:title=" ">
<polygon fill="white" stroke="#666666" points="1053.38,-97 940.62,-97 940.62,-66.5 1053.38,-66.5 1053.38,-97"/>
<text text-anchor="start" x="948.62" y="-83.5" font-family="Helvetica,sans-Serif" font-size="10.00">llzk/Dialect/Constrain</text>
<text text-anchor="middle" x="997" y="-72.25" font-family="Helvetica,sans-Serif" font-size="10.00">/IR/OpInterfaces.h.inc</text>
</a>
</g>
</g>
<!-- Node15&#45;&gt;Node16 -->
<g id="edge16_Node000015_Node000016" class="edge">
<title>Node15&#45;&gt;Node16</title>
<g id="a_edge16_Node000015_Node000016"><a xlink:title=" ">
<path fill="none" stroke="#63b8ff" d="M1003.96,-132.61C1002.97,-125.52 1001.75,-116.79 1000.61,-108.63"/>
<polygon fill="#63b8ff" stroke="#63b8ff" points="1004.09,-108.25 999.24,-98.83 997.16,-109.21 1004.09,-108.25"/>
</a>
</g>
</g>
<!-- Node18 -->
<g id="Node000018" class="node">
<title>Node18</title>
<g id="a_Node000018"><a xlink:title=" ">
<polygon fill="#e0e0e0" stroke="#999999" points="1339.25,-91.38 1228.75,-91.38 1228.75,-72.12 1339.25,-72.12 1339.25,-91.38"/>
<text text-anchor="middle" x="1284" y="-77.88" font-family="Helvetica,sans-Serif" font-size="10.00">mlir/IR/OpDefinition.h</text>
</a>
</g>
</g>
<!-- Node17&#45;&gt;Node18 -->
<g id="edge18_Node000017_Node000018" class="edge">
<title>Node17&#45;&gt;Node18</title>
<g id="a_edge18_Node000017_Node000018"><a xlink:title=" ">
<path fill="none" stroke="#63b8ff" d="M1173.45,-132.61C1197.49,-121.77 1230.04,-107.09 1253.58,-96.47"/>
<polygon fill="#63b8ff" stroke="#63b8ff" points="1254.97,-99.68 1262.65,-92.38 1252.09,-93.3 1254.97,-99.68"/>
</a>
</g>
</g>
<!-- Node19 -->
<g id="Node000019" class="node">
<title>Node19</title>
<g id="a_Node000019"><a xlink:title=" ">
<polygon fill="#e0e0e0" stroke="#999999" points="1456.25,-91.38 1357.75,-91.38 1357.75,-72.12 1456.25,-72.12 1456.25,-91.38"/>
<text text-anchor="middle" x="1407" y="-77.88" font-family="Helvetica,sans-Serif" font-size="10.00">mlir/IR/Operation.h</text>
</a>
</g>
</g>
<!-- Node17&#45;&gt;Node19 -->
<g id="edge19_Node000017_Node000019" class="edge">
<title>Node17&#45;&gt;Node19</title>
<g id="a_edge19_Node000017_Node000019"><a xlink:title=" ">
<path fill="none" stroke="#63b8ff" d="M1193.87,-134.43C1241.88,-122.79 1312.1,-105.76 1358.65,-94.47"/>
<polygon fill="#63b8ff" stroke="#63b8ff" points="1359.29,-97.92 1368.18,-92.16 1357.64,-91.12 1359.29,-97.92"/>
</a>
</g>
</g>
<!-- Node20 -->
<g id="Node000020" class="node">
<title>Node20</title>
<g id="a_Node000020"><a xlink:title=" ">
<polygon fill="#e0e0e0" stroke="#999999" points="1210.5,-91.38 1071.5,-91.38 1071.5,-72.12 1210.5,-72.12 1210.5,-91.38"/>
<text text-anchor="middle" x="1141" y="-77.88" font-family="Helvetica,sans-Serif" font-size="10.00">mlir/Support/LogicalResult.h</text>
</a>
</g>
</g>
<!-- Node17&#45;&gt;Node20 -->
<g id="edge20_Node000017_Node000020" class="edge">
<title>Node17&#45;&gt;Node20</title>
<g id="a_edge20_Node000017_Node000020"><a xlink:title=" ">
<path fill="none" stroke="#63b8ff" d="M1141,-132.61C1141,-123.83 1141,-112.52 1141,-102.9"/>
<polygon fill="#63b8ff" stroke="#63b8ff" points="1144.5,-103.09 1141,-93.09 1137.5,-103.09 1144.5,-103.09"/>
</a>
</g>
</g>
</g>
</svg>
