<?xml version="1.0" encoding="UTF-8" standalone="no"?>
<!DOCTYPE svg PUBLIC "-//W3C//DTD SVG 1.1//EN"
 "http://www.w3.org/Graphics/SVG/1.1/DTD/svg11.dtd">
<!-- Generated by graphviz version 12.2.1 (20241206.2353)
 -->
<!-- Title: build/include/llzk/Dialect/Constrain/IR/Dialect.h.inc Pages: 1 -->
<svg width="2131pt" height="338pt"
 viewBox="0.00 0.00 2131.00 338.25" xmlns="http://www.w3.org/2000/svg" xmlns:xlink="http://www.w3.org/1999/xlink">
<g id="graph0" class="graph" transform="scale(1 1) rotate(0) translate(4 334.25)">
<title>build/include/llzk/Dialect/Constrain/IR/Dialect.h.inc</title>
<!-- Node1 -->
<g id="Node000001" class="node">
<title>Node1</title>
<g id="a_Node000001"><a xlink:title=" ">
<polygon fill="#999999" stroke="#666666" points="1706.25,-330.25 1598,-330.25 1598,-288.5 1706.25,-288.5 1706.25,-330.25"/>
<text text-anchor="start" x="1606" y="-316.75" font-family="Helvetica,sans-Serif" font-size="10.00">build/include/llzk</text>
<text text-anchor="start" x="1606" y="-305.5" font-family="Helvetica,sans-Serif" font-size="10.00">/Dialect/Constrain/IR</text>
<text text-anchor="middle" x="1652.12" y="-294.25" font-family="Helvetica,sans-Serif" font-size="10.00">/Dialect.h.inc</text>
</a>
</g>
</g>
<!-- Node2 -->
<g id="Node000002" class="node">
<title>Node2</title>
<g id="a_Node000002"><a xlink:href="_constrain_2_i_r_2_dialect_8h.html" target="_top" xlink:title=" ">
<polygon fill="white" stroke="#666666" points="1710.38,-252.5 1593.88,-252.5 1593.88,-222 1710.38,-222 1710.38,-252.5"/>
<text text-anchor="start" x="1601.88" y="-239" font-family="Helvetica,sans-Serif" font-size="10.00">include/llzk/Dialect</text>
<text text-anchor="middle" x="1652.12" y="-227.75" font-family="Helvetica,sans-Serif" font-size="10.00">/Constrain/IR/Dialect.h</text>
</a>
</g>
</g>
<!-- Node1&#45;&gt;Node2 -->
<g id="edge1_Node000001_Node000002" class="edge">
<title>Node1&#45;&gt;Node2</title>
<g id="a_edge1_Node000001_Node000002"><a xlink:title=" ">
<path fill="none" stroke="#63b8ff" d="M1652.12,-276.63C1652.12,-268.27 1652.12,-259.65 1652.12,-252.7"/>
<polygon fill="#63b8ff" stroke="#63b8ff" points="1648.63,-276.58 1652.13,-286.58 1655.63,-276.58 1648.63,-276.58"/>
</a>
</g>
</g>
<!-- Node3 -->
<g id="Node000003" class="node">
<title>Node3</title>
<g id="a_Node000003"><a xlink:href="_constrain_2_i_r_2_ops_8h.html" target="_top" xlink:title=" ">
<polygon fill="white" stroke="#666666" points="1704,-186 1600.25,-186 1600.25,-155.5 1704,-155.5 1704,-186"/>
<text text-anchor="start" x="1608.25" y="-172.5" font-family="Helvetica,sans-Serif" font-size="10.00">include/llzk/Dialect</text>
<text text-anchor="middle" x="1652.12" y="-161.25" font-family="Helvetica,sans-Serif" font-size="10.00">/Constrain/IR/Ops.h</text>
</a>
</g>
</g>
<!-- Node2&#45;&gt;Node3 -->
<g id="edge2_Node000002_Node000003" class="edge">
<title>Node2&#45;&gt;Node3</title>
<g id="a_edge2_Node000002_Node000003"><a xlink:title=" ">
<path fill="none" stroke="#63b8ff" d="M1652.12,-210.31C1652.12,-202.14 1652.12,-193.41 1652.12,-186.33"/>
<polygon fill="#63b8ff" stroke="#63b8ff" points="1648.63,-210.1 1652.13,-220.1 1655.63,-210.1 1648.63,-210.1"/>
</a>
</g>
</g>
<!-- Node8 -->
<g id="Node000008" class="node">
<title>Node8</title>
<g id="a_Node000008"><a xlink:href="_constrain_2_i_r_2_dialect_8cpp.html" target="_top" xlink:title=" ">
<polygon fill="white" stroke="#666666" points="1988.38,-113.88 1883.88,-113.88 1883.88,-83.38 1988.38,-83.38 1988.38,-113.88"/>
<text text-anchor="start" x="1891.88" y="-100.38" font-family="Helvetica,sans-Serif" font-size="10.00">lib/Dialect/Constrain</text>
<text text-anchor="middle" x="1936.12" y="-89.12" font-family="Helvetica,sans-Serif" font-size="10.00">/IR/Dialect.cpp</text>
</a>
</g>
</g>
<!-- Node2&#45;&gt;Node8 -->
<g id="edge36_Node000002_Node000008" class="edge">
<title>Node2&#45;&gt;Node8</title>
<g id="a_edge36_Node000002_Node000008"><a xlink:title=" ">
<path fill="none" stroke="#63b8ff" d="M1678.53,-214.5C1707.16,-190.96 1749.07,-156.59 1751.12,-155.5 1763.09,-149.14 1833.58,-128.57 1884,-114.25"/>
<polygon fill="#63b8ff" stroke="#63b8ff" points="1676.44,-211.69 1670.94,-220.75 1680.89,-217.1 1676.44,-211.69"/>
</a>
</g>
</g>
<!-- Node12 -->
<g id="Node000012" class="node">
<title>Node12</title>
<g id="a_Node000012"><a xlink:href="_pass_base_8h.html" target="_top" xlink:title=" ">
<polygon fill="white" stroke="#666666" points="943.38,-180.38 796.88,-180.38 796.88,-161.12 943.38,-161.12 943.38,-180.38"/>
<text text-anchor="middle" x="870.12" y="-166.88" font-family="Helvetica,sans-Serif" font-size="10.00">include/llzk/Pass/PassBase.h</text>
</a>
</g>
</g>
<!-- Node2&#45;&gt;Node12 -->
<g id="edge11_Node000002_Node000012" class="edge">
<title>Node2&#45;&gt;Node12</title>
<g id="a_edge11_Node000002_Node000012"><a xlink:title=" ">
<path fill="none" stroke="#63b8ff" d="M1582.58,-230.51C1435.52,-218.38 1094.19,-190.23 943.68,-177.82"/>
<polygon fill="#63b8ff" stroke="#63b8ff" points="1581.91,-233.97 1592.16,-231.3 1582.48,-226.99 1581.91,-233.97"/>
</a>
</g>
</g>
<!-- Node18 -->
<g id="Node000018" class="node">
<title>Node18</title>
<g id="a_Node000018"><a xlink:href="_array_to_scalar_pass_8cpp.html" target="_top" xlink:title="This file implements the &#45;llzk&#45;array&#45;to&#45;scalar pass.">
<polygon fill="white" stroke="#666666" points="138.25,-36.12 0,-36.12 0,-5.62 138.25,-5.62 138.25,-36.12"/>
<text text-anchor="start" x="8" y="-22.62" font-family="Helvetica,sans-Serif" font-size="10.00">lib/Dialect/Array/Transforms</text>
<text text-anchor="middle" x="69.12" y="-11.38" font-family="Helvetica,sans-Serif" font-size="10.00">/ArrayToScalarPass.cpp</text>
</a>
</g>
</g>
<!-- Node2&#45;&gt;Node18 -->
<g id="edge35_Node000002_Node000018" class="edge">
<title>Node2&#45;&gt;Node18</title>
<g id="a_edge35_Node000002_Node000018"><a xlink:title=" ">
<path fill="none" stroke="#63b8ff" d="M1582.53,-234.09C1435.52,-229.11 1082.69,-214.97 788.12,-186 574.23,-164.97 516.71,-175.2 309.12,-119.5 230.27,-98.34 142.59,-58.11 98.24,-36.49"/>
<polygon fill="#63b8ff" stroke="#63b8ff" points="1581.97,-237.57 1592.08,-234.41 1582.2,-230.58 1581.97,-237.57"/>
</a>
</g>
</g>
<!-- Node28 -->
<g id="Node000028" class="node">
<title>Node28</title>
<g id="a_Node000028"><a xlink:href="_init_dialects_8cpp.html" target="_top" xlink:title=" ">
<polygon fill="white" stroke="#666666" points="1890.5,-180.38 1759.75,-180.38 1759.75,-161.12 1890.5,-161.12 1890.5,-180.38"/>
<text text-anchor="middle" x="1825.12" y="-166.88" font-family="Helvetica,sans-Serif" font-size="10.00">lib/Dialect/InitDialects.cpp</text>
</a>
</g>
</g>
<!-- Node2&#45;&gt;Node28 -->
<g id="edge37_Node000002_Node000028" class="edge">
<title>Node2&#45;&gt;Node28</title>
<g id="a_edge37_Node000002_Node000028"><a xlink:title=" ">
<path fill="none" stroke="#63b8ff" d="M1702.01,-217.65C1734.39,-205.58 1775.18,-190.37 1800.71,-180.85"/>
<polygon fill="#63b8ff" stroke="#63b8ff" points="1700.95,-214.31 1692.8,-221.09 1703.39,-220.87 1700.95,-214.31"/>
</a>
</g>
</g>
<!-- Node4 -->
<g id="Node000004" class="node">
<title>Node4</title>
<g id="a_Node000004"><a xlink:href="_interval_analysis_8h.html" target="_top" xlink:title=" ">
<polygon fill="white" stroke="#666666" points="1827.75,-113.88 1722.5,-113.88 1722.5,-83.38 1827.75,-83.38 1827.75,-113.88"/>
<text text-anchor="start" x="1730.5" y="-100.38" font-family="Helvetica,sans-Serif" font-size="10.00">include/llzk/Analysis</text>
<text text-anchor="middle" x="1775.12" y="-89.12" font-family="Helvetica,sans-Serif" font-size="10.00">/IntervalAnalysis.h</text>
</a>
</g>
</g>
<!-- Node3&#45;&gt;Node4 -->
<g id="edge3_Node000003_Node000004" class="edge">
<title>Node3&#45;&gt;Node4</title>
<g id="a_edge3_Node000003_Node000004"><a xlink:title=" ">
<path fill="none" stroke="#63b8ff" d="M1687.76,-149.43C1707.47,-138.2 1731.51,-124.49 1749.37,-114.31"/>
<polygon fill="#63b8ff" stroke="#63b8ff" points="1686.18,-146.31 1679.22,-154.3 1689.65,-152.39 1686.18,-146.31"/>
</a>
</g>
</g>
<!-- Node7 -->
<g id="Node000007" class="node">
<title>Node7</title>
<g id="a_Node000007"><a xlink:href="_constraint_dependency_graph_8cpp.html" target="_top" xlink:title=" ">
<polygon fill="white" stroke="#666666" points="1581.62,-113.88 1412.62,-113.88 1412.62,-83.38 1581.62,-83.38 1581.62,-113.88"/>
<text text-anchor="start" x="1420.62" y="-100.38" font-family="Helvetica,sans-Serif" font-size="10.00">lib/Analysis/ConstraintDependency</text>
<text text-anchor="middle" x="1497.12" y="-89.12" font-family="Helvetica,sans-Serif" font-size="10.00">Graph.cpp</text>
</a>
</g>
</g>
<!-- Node3&#45;&gt;Node7 -->
<g id="edge6_Node000003_Node000007" class="edge">
<title>Node3&#45;&gt;Node7</title>
<g id="a_edge6_Node000003_Node000007"><a xlink:title=" ">
<path fill="none" stroke="#63b8ff" d="M1609.25,-150.35C1584.06,-138.95 1552.71,-124.77 1529.58,-114.31"/>
<polygon fill="#63b8ff" stroke="#63b8ff" points="1607.7,-153.49 1618.25,-154.43 1610.58,-147.11 1607.7,-153.49"/>
</a>
</g>
</g>
<!-- Node3&#45;&gt;Node8 -->
<g id="edge7_Node000003_Node000008" class="edge">
<title>Node3&#45;&gt;Node8</title>
<g id="a_edge7_Node000003_Node000008"><a xlink:title=" ">
<path fill="none" stroke="#63b8ff" d="M1715.54,-155.62C1769.05,-143.61 1841.39,-127.13 1870.12,-119.5 1876.14,-117.9 1882.43,-116.13 1888.65,-114.33"/>
<polygon fill="#63b8ff" stroke="#63b8ff" points="1714.9,-152.18 1705.9,-157.78 1716.43,-159.01 1714.9,-152.18"/>
</a>
</g>
</g>
<!-- Node9 -->
<g id="Node000009" class="node">
<title>Node9</title>
<g id="a_Node000009"><a xlink:href="_constrain_2_i_r_2_ops_8cpp.html" target="_top" xlink:title=" ">
<polygon fill="white" stroke="#666666" points="1704.38,-113.88 1599.88,-113.88 1599.88,-83.38 1704.38,-83.38 1704.38,-113.88"/>
<text text-anchor="start" x="1607.88" y="-100.38" font-family="Helvetica,sans-Serif" font-size="10.00">lib/Dialect/Constrain</text>
<text text-anchor="middle" x="1652.12" y="-89.12" font-family="Helvetica,sans-Serif" font-size="10.00">/IR/Ops.cpp</text>
</a>
</g>
</g>
<!-- Node3&#45;&gt;Node9 -->
<g id="edge8_Node000003_Node000009" class="edge">
<title>Node3&#45;&gt;Node9</title>
<g id="a_edge8_Node000003_Node000009"><a xlink:title=" ">
<path fill="none" stroke="#63b8ff" d="M1652.12,-143.77C1652.12,-133.76 1652.12,-122.69 1652.12,-114.14"/>
<polygon fill="#63b8ff" stroke="#63b8ff" points="1648.63,-143.71 1652.13,-153.71 1655.63,-143.71 1648.63,-143.71"/>
</a>
</g>
</g>
<!-- Node10 -->
<g id="Node000010" class="node">
<title>Node10</title>
<g id="a_Node000010"><a xlink:href="_flattening_pass_8cpp.html" target="_top" xlink:title="This file implements the &#45;llzk&#45;flatten pass.">
<polygon fill="white" stroke="#666666" points="1253.88,-36.12 1098.38,-36.12 1098.38,-5.62 1253.88,-5.62 1253.88,-36.12"/>
<text text-anchor="start" x="1106.38" y="-22.62" font-family="Helvetica,sans-Serif" font-size="10.00">lib/Dialect/Polymorphic</text>
<text text-anchor="middle" x="1176.12" y="-11.38" font-family="Helvetica,sans-Serif" font-size="10.00">/Transforms/FlatteningPass.cpp</text>
</a>
</g>
</g>
<!-- Node3&#45;&gt;Node10 -->
<g id="edge9_Node000003_Node000010" class="edge">
<title>Node3&#45;&gt;Node10</title>
<g id="a_edge9_Node000003_Node000010"><a xlink:title=" ">
<path fill="none" stroke="#63b8ff" d="M1588.52,-168.65C1487.01,-165.82 1294.03,-155.69 1237.12,-119.5 1206.26,-99.87 1188.35,-58.42 1180.65,-36.38"/>
<polygon fill="#63b8ff" stroke="#63b8ff" points="1588.23,-172.14 1598.32,-168.91 1588.41,-165.15 1588.23,-172.14"/>
</a>
</g>
</g>
<!-- Node11 -->
<g id="Node000011" class="node">
<title>Node11</title>
<g id="a_Node000011"><a xlink:href="_l_l_z_k_redundant_operation_elimination_pass_8cpp.html" target="_top" xlink:title="This file implements the &#45;llzk&#45;duplicate&#45;op&#45;elim pass.">
<polygon fill="white" stroke="#666666" points="1947,-36.12 1795.25,-36.12 1795.25,-5.62 1947,-5.62 1947,-36.12"/>
<text text-anchor="start" x="1803.25" y="-22.62" font-family="Helvetica,sans-Serif" font-size="10.00">lib/Transforms/LLZKRedundant</text>
<text text-anchor="middle" x="1871.12" y="-11.38" font-family="Helvetica,sans-Serif" font-size="10.00">OperationEliminationPass.cpp</text>
</a>
</g>
</g>
<!-- Node3&#45;&gt;Node11 -->
<g id="edge10_Node000003_Node000011" class="edge">
<title>Node3&#45;&gt;Node11</title>
<g id="a_edge10_Node000003_Node000011"><a xlink:title=" ">
<path fill="none" stroke="#63b8ff" d="M1715.25,-155.67C1765.16,-144.03 1827.93,-128.07 1837.12,-119.5 1860.88,-97.35 1868.04,-57.72 1870.2,-36.4"/>
<polygon fill="#63b8ff" stroke="#63b8ff" points="1714.6,-152.22 1705.65,-157.89 1716.18,-159.04 1714.6,-152.22"/>
</a>
</g>
</g>
<!-- Node5 -->
<g id="Node000005" class="node">
<title>Node5</title>
<g id="a_Node000005"><a xlink:href="_interval_analysis_8cpp.html" target="_top" xlink:title=" ">
<polygon fill="white" stroke="#666666" points="2123,-30.5 1965.25,-30.5 1965.25,-11.25 2123,-11.25 2123,-30.5"/>
<text text-anchor="middle" x="2044.12" y="-17" font-family="Helvetica,sans-Serif" font-size="10.00">lib/Analysis/IntervalAnalysis.cpp</text>
</a>
</g>
</g>
<!-- Node4&#45;&gt;Node5 -->
<g id="edge4_Node000004_Node000005" class="edge">
<title>Node4&#45;&gt;Node5</title>
<g id="a_edge4_Node000004_Node000005"><a xlink:title=" ">
<path fill="none" stroke="#63b8ff" d="M1838.24,-79.85C1892.7,-64.52 1969.16,-42.98 2011.92,-30.94"/>
<polygon fill="#63b8ff" stroke="#63b8ff" points="1837.44,-76.44 1828.77,-82.52 1839.34,-83.18 1837.44,-76.44"/>
</a>
</g>
</g>
<!-- Node6 -->
<g id="Node000006" class="node">
<title>Node6</title>
<g id="a_Node000006"><a xlink:href="_interval_analysis_pass_8cpp.html" target="_top" xlink:title="This file implements the &#45;llzk&#45;print&#45;interval&#45;analysis pass.">
<polygon fill="white" stroke="#666666" points="1080.62,-36.12 941.62,-36.12 941.62,-5.62 1080.62,-5.62 1080.62,-36.12"/>
<text text-anchor="start" x="949.62" y="-22.62" font-family="Helvetica,sans-Serif" font-size="10.00">lib/Analysis/IntervalAnalysis</text>
<text text-anchor="middle" x="1011.12" y="-11.38" font-family="Helvetica,sans-Serif" font-size="10.00">Pass.cpp</text>
</a>
</g>
</g>
<!-- Node4&#45;&gt;Node6 -->
<g id="edge5_Node000004_Node000006" class="edge">
<title>Node4&#45;&gt;Node6</title>
<g id="a_edge5_Node000004_Node000006"><a xlink:title=" ">
<path fill="none" stroke="#63b8ff" d="M1723.29,-79.96C1719.87,-79.12 1716.46,-78.37 1713.12,-77.75 1440.02,-26.95 1363.65,-84.24 1089.12,-41.75 1080.56,-40.42 1071.57,-38.58 1062.86,-36.53"/>
<polygon fill="#63b8ff" stroke="#63b8ff" points="1722.12,-83.27 1732.68,-82.5 1723.94,-76.51 1722.12,-83.27"/>
</a>
</g>
</g>
<!-- Node13 -->
<g id="Node000013" class="node">
<title>Node13</title>
<g id="a_Node000013"><a xlink:href="_analysis_passes_8h.html" target="_top" xlink:title=" ">
<polygon fill="white" stroke="#666666" points="604.75,-113.88 499.5,-113.88 499.5,-83.38 604.75,-83.38 604.75,-113.88"/>
<text text-anchor="start" x="507.5" y="-100.38" font-family="Helvetica,sans-Serif" font-size="10.00">include/llzk/Analysis</text>
<text text-anchor="middle" x="552.12" y="-89.12" font-family="Helvetica,sans-Serif" font-size="10.00">/AnalysisPasses.h</text>
</a>
</g>
</g>
<!-- Node12&#45;&gt;Node13 -->
<g id="edge12_Node000012_Node000013" class="edge">
<title>Node12&#45;&gt;Node13</title>
<g id="a_edge12_Node000012_Node000013"><a xlink:title=" ">
<path fill="none" stroke="#63b8ff" d="M802.7,-158.73C750.8,-149.71 677.46,-135.81 614.12,-119.5 608.1,-117.95 601.81,-116.15 595.63,-114.27"/>
<polygon fill="#63b8ff" stroke="#63b8ff" points="801.83,-162.13 812.28,-160.37 803.02,-155.23 801.83,-162.13"/>
</a>
</g>
</g>
<!-- Node17 -->
<g id="Node000017" class="node">
<title>Node17</title>
<g id="a_Node000017"><a xlink:href="_array_2_transforms_2_transformation_passes_8h.html" target="_top" xlink:title=" ">
<polygon fill="white" stroke="#666666" points="481.62,-119.5 318.62,-119.5 318.62,-77.75 481.62,-77.75 481.62,-119.5"/>
<text text-anchor="start" x="326.62" y="-106" font-family="Helvetica,sans-Serif" font-size="10.00">include/llzk/Dialect</text>
<text text-anchor="start" x="326.62" y="-94.75" font-family="Helvetica,sans-Serif" font-size="10.00">/Array/Transforms/Transformation</text>
<text text-anchor="middle" x="400.12" y="-83.5" font-family="Helvetica,sans-Serif" font-size="10.00">Passes.h</text>
</a>
</g>
</g>
<!-- Node12&#45;&gt;Node17 -->
<g id="edge17_Node000012_Node000017" class="edge">
<title>Node12&#45;&gt;Node17</title>
<g id="a_edge17_Node000012_Node000017"><a xlink:title=" ">
<path fill="none" stroke="#63b8ff" d="M785.54,-160.67C708.32,-151.89 591.16,-137.3 490.12,-119.5 487.45,-119.03 484.73,-118.53 481.98,-118.01"/>
<polygon fill="#63b8ff" stroke="#63b8ff" points="784.8,-164.11 795.13,-161.76 785.59,-157.16 784.8,-164.11"/>
</a>
</g>
</g>
<!-- Node19 -->
<g id="Node000019" class="node">
<title>Node19</title>
<g id="a_Node000019"><a xlink:href="_inline_includes_pass_8h.html" target="_top" xlink:title=" ">
<polygon fill="white" stroke="#666666" points="789.12,-119.5 623.12,-119.5 623.12,-77.75 789.12,-77.75 789.12,-119.5"/>
<text text-anchor="start" x="631.12" y="-106" font-family="Helvetica,sans-Serif" font-size="10.00">include/llzk/Dialect</text>
<text text-anchor="start" x="631.12" y="-94.75" font-family="Helvetica,sans-Serif" font-size="10.00">/Include/Transforms/InlineIncludes</text>
<text text-anchor="middle" x="706.12" y="-83.5" font-family="Helvetica,sans-Serif" font-size="10.00">Pass.h</text>
</a>
</g>
</g>
<!-- Node12&#45;&gt;Node19 -->
<g id="edge20_Node000012_Node000019" class="edge">
<title>Node12&#45;&gt;Node19</title>
<g id="a_edge20_Node000012_Node000019"><a xlink:title=" ">
<path fill="none" stroke="#63b8ff" d="M838.69,-156.31C814.62,-146.01 781.01,-131.64 753.66,-119.95"/>
<polygon fill="#63b8ff" stroke="#63b8ff" points="837.06,-159.42 847.63,-160.13 839.81,-152.98 837.06,-159.42"/>
</a>
</g>
</g>
<!-- Node21 -->
<g id="Node000021" class="node">
<title>Node21</title>
<g id="a_Node000021"><a xlink:href="_polymorphic_2_transforms_2_transformation_passes_8h.html" target="_top" xlink:title=" ">
<polygon fill="white" stroke="#666666" points="1076.88,-119.5 951.38,-119.5 951.38,-77.75 1076.88,-77.75 1076.88,-119.5"/>
<text text-anchor="start" x="959.38" y="-106" font-family="Helvetica,sans-Serif" font-size="10.00">include/llzk/Dialect</text>
<text text-anchor="start" x="959.38" y="-94.75" font-family="Helvetica,sans-Serif" font-size="10.00">/Polymorphic/Transforms</text>
<text text-anchor="middle" x="1014.12" y="-83.5" font-family="Helvetica,sans-Serif" font-size="10.00">/TransformationPasses.h</text>
</a>
</g>
</g>
<!-- Node12&#45;&gt;Node21 -->
<g id="edge23_Node000012_Node000021" class="edge">
<title>Node12&#45;&gt;Node21</title>
<g id="a_edge23_Node000012_Node000021"><a xlink:title=" ">
<path fill="none" stroke="#63b8ff" d="M898.88,-155.75C919.93,-145.5 948.81,-131.43 972.39,-119.95"/>
<polygon fill="#63b8ff" stroke="#63b8ff" points="897.47,-152.54 890.02,-160.06 900.54,-158.83 897.47,-152.54"/>
</a>
</g>
</g>
<!-- Node22 -->
<g id="Node000022" class="node">
<title>Node22</title>
<g id="a_Node000022"><a xlink:href="_l_l_z_k_transformation_passes_8h.html" target="_top" xlink:title=" ">
<polygon fill="white" stroke="#666666" points="1394.5,-113.88 1245.75,-113.88 1245.75,-83.38 1394.5,-83.38 1394.5,-113.88"/>
<text text-anchor="start" x="1253.75" y="-100.38" font-family="Helvetica,sans-Serif" font-size="10.00">include/llzk/Transforms</text>
<text text-anchor="middle" x="1320.12" y="-89.12" font-family="Helvetica,sans-Serif" font-size="10.00">/LLZKTransformationPasses.h</text>
</a>
</g>
</g>
<!-- Node12&#45;&gt;Node22 -->
<g id="edge26_Node000012_Node000022" class="edge">
<title>Node12&#45;&gt;Node22</title>
<g id="a_edge26_Node000012_Node000022"><a xlink:title=" ">
<path fill="none" stroke="#63b8ff" d="M939.81,-158.89C1022.66,-145.98 1160.38,-124.52 1245.39,-111.27"/>
<polygon fill="#63b8ff" stroke="#63b8ff" points="939.33,-155.42 929.99,-160.42 940.41,-162.34 939.33,-155.42"/>
</a>
</g>
</g>
<!-- Node26 -->
<g id="Node000026" class="node">
<title>Node26</title>
<g id="a_Node000026"><a xlink:href="_l_l_z_k_validation_passes_8h.html" target="_top" xlink:title=" ">
<polygon fill="white" stroke="#666666" points="932.88,-113.88 807.38,-113.88 807.38,-83.38 932.88,-83.38 932.88,-113.88"/>
<text text-anchor="start" x="815.38" y="-100.38" font-family="Helvetica,sans-Serif" font-size="10.00">include/llzk/Validators</text>
<text text-anchor="middle" x="870.12" y="-89.12" font-family="Helvetica,sans-Serif" font-size="10.00">/LLZKValidationPasses.h</text>
</a>
</g>
</g>
<!-- Node12&#45;&gt;Node26 -->
<g id="edge32_Node000012_Node000026" class="edge">
<title>Node12&#45;&gt;Node26</title>
<g id="a_edge32_Node000012_Node000026"><a xlink:title=" ">
<path fill="none" stroke="#63b8ff" d="M870.12,-149.54C870.12,-138.28 870.12,-124.51 870.12,-114.29"/>
<polygon fill="#63b8ff" stroke="#63b8ff" points="866.63,-149.36 870.13,-159.36 873.63,-149.36 866.63,-149.36"/>
</a>
</g>
</g>
<!-- Node13&#45;&gt;Node6 -->
<g id="edge15_Node000013_Node000006" class="edge">
<title>Node13&#45;&gt;Node6</title>
<g id="a_edge15_Node000013_Node000006"><a xlink:title=" ">
<path fill="none" stroke="#63b8ff" d="M605.13,-79.88C608.16,-79.1 611.17,-78.38 614.12,-77.75 753.63,-47.83 792.78,-67.43 933.12,-41.75 941.1,-40.29 949.46,-38.47 957.63,-36.53"/>
<polygon fill="#63b8ff" stroke="#63b8ff" points="604.34,-76.47 595.64,-82.51 606.21,-83.21 604.34,-76.47"/>
</a>
</g>
</g>
<!-- Node14 -->
<g id="Node000014" class="node">
<title>Node14</title>
<g id="a_Node000014"><a xlink:href="_call_graph_passes_8cpp.html" target="_top" xlink:title="This file implements the &#45;llzk&#45;print&#45;call&#45;graph and &#45;llzk&#45;print&#45;call&#45;graph&#45;sccs passes.">
<polygon fill="white" stroke="#666666" points="508.38,-30.5 343.88,-30.5 343.88,-11.25 508.38,-11.25 508.38,-30.5"/>
<text text-anchor="middle" x="426.12" y="-17" font-family="Helvetica,sans-Serif" font-size="10.00">lib/Analysis/CallGraphPasses.cpp</text>
</a>
</g>
</g>
<!-- Node13&#45;&gt;Node14 -->
<g id="edge13_Node000013_Node000014" class="edge">
<title>Node13&#45;&gt;Node14</title>
<g id="a_edge13_Node000013_Node000014"><a xlink:title=" ">
<path fill="none" stroke="#63b8ff" d="M517.97,-77.09C492.92,-62.03 460.11,-42.3 441.25,-30.97"/>
<polygon fill="#63b8ff" stroke="#63b8ff" points="516.16,-80.09 526.53,-82.24 519.77,-74.09 516.16,-80.09"/>
</a>
</g>
</g>
<!-- Node15 -->
<g id="Node000015" class="node">
<title>Node15</title>
<g id="a_Node000015"><a xlink:href="_constraint_dependency_graph_pass_8cpp.html" target="_top" xlink:title="This file implements the &#45;llzk&#45;print&#45;constraint&#45;dependency&#45;graphs pass.">
<polygon fill="white" stroke="#666666" points="325.62,-36.12 156.62,-36.12 156.62,-5.62 325.62,-5.62 325.62,-36.12"/>
<text text-anchor="start" x="164.62" y="-22.62" font-family="Helvetica,sans-Serif" font-size="10.00">lib/Analysis/ConstraintDependency</text>
<text text-anchor="middle" x="241.12" y="-11.38" font-family="Helvetica,sans-Serif" font-size="10.00">GraphPass.cpp</text>
</a>
</g>
</g>
<!-- Node13&#45;&gt;Node15 -->
<g id="edge14_Node000013_Node000015" class="edge">
<title>Node13&#45;&gt;Node15</title>
<g id="a_edge14_Node000013_Node000015"><a xlink:title=" ">
<path fill="none" stroke="#63b8ff" d="M497,-79.68C494.68,-79.01 492.38,-78.36 490.12,-77.75 456.72,-68.67 371.34,-49.86 309.86,-36.58"/>
<polygon fill="#63b8ff" stroke="#63b8ff" points="495.87,-82.99 506.45,-82.49 497.86,-76.28 495.87,-82.99"/>
</a>
</g>
</g>
<!-- Node16 -->
<g id="Node000016" class="node">
<title>Node16</title>
<g id="a_Node000016"><a xlink:href="llzk-opt_8cpp.html" target="_top" xlink:title="This file implements a version of the mlir&#45;opt tool configured for use on LLZK files.">
<polygon fill="white" stroke="#666666" points="765.88,-36.12 676.38,-36.12 676.38,-5.62 765.88,-5.62 765.88,-36.12"/>
<text text-anchor="start" x="684.38" y="-22.62" font-family="Helvetica,sans-Serif" font-size="10.00">tools/llzk&#45;opt/llzk</text>
<text text-anchor="middle" x="721.12" y="-11.38" font-family="Helvetica,sans-Serif" font-size="10.00">&#45;opt.cpp</text>
</a>
</g>
</g>
<!-- Node13&#45;&gt;Node16 -->
<g id="edge16_Node000013_Node000016" class="edge">
<title>Node13&#45;&gt;Node16</title>
<g id="a_edge16_Node000013_Node000016"><a xlink:title=" ">
<path fill="none" stroke="#63b8ff" d="M594.97,-78.42C623.98,-65.42 661.73,-48.5 688.35,-36.56"/>
<polygon fill="#63b8ff" stroke="#63b8ff" points="593.78,-75.12 586.09,-82.4 596.65,-81.5 593.78,-75.12"/>
</a>
</g>
</g>
<!-- Node17&#45;&gt;Node16 -->
<g id="edge19_Node000017_Node000016" class="edge">
<title>Node17&#45;&gt;Node16</title>
<g id="a_edge19_Node000017_Node000016"><a xlink:title=" ">
<path fill="none" stroke="#63b8ff" d="M492.84,-77.22C570.58,-61.27 593.22,-62.74 667.12,-41.75 672.41,-40.25 677.92,-38.48 683.31,-36.62"/>
<polygon fill="#63b8ff" stroke="#63b8ff" points="492.58,-73.7 483.51,-79.17 494.01,-80.55 492.58,-73.7"/>
</a>
</g>
</g>
<!-- Node17&#45;&gt;Node18 -->
<g id="edge18_Node000017_Node000018" class="edge">
<title>Node17&#45;&gt;Node18</title>
<g id="a_edge18_Node000017_Node000018"><a xlink:title=" ">
<path fill="none" stroke="#63b8ff" d="M307.24,-77.86C259.33,-67.48 200.01,-54.32 147.12,-41.75 140.19,-40.1 132.92,-38.32 125.73,-36.53"/>
<polygon fill="#63b8ff" stroke="#63b8ff" points="306.23,-81.22 316.74,-79.91 307.71,-74.38 306.23,-81.22"/>
</a>
</g>
</g>
<!-- Node19&#45;&gt;Node16 -->
<g id="edge22_Node000019_Node000016" class="edge">
<title>Node19&#45;&gt;Node16</title>
<g id="a_edge22_Node000019_Node000016"><a xlink:title=" ">
<path fill="none" stroke="#63b8ff" d="M712.37,-66.06C714.43,-55.69 716.61,-44.67 718.28,-36.23"/>
<polygon fill="#63b8ff" stroke="#63b8ff" points="708.95,-65.35 710.44,-75.84 715.81,-66.71 708.95,-65.35"/>
</a>
</g>
</g>
<!-- Node20 -->
<g id="Node000020" class="node">
<title>Node20</title>
<g id="a_Node000020"><a xlink:href="_inline_includes_pass_8cpp.html" target="_top" xlink:title="This file implements the &#45;llzk&#45;inline&#45;includes pass.">
<polygon fill="white" stroke="#666666" points="657.88,-41.75 526.38,-41.75 526.38,0 657.88,0 657.88,-41.75"/>
<text text-anchor="start" x="534.38" y="-28.25" font-family="Helvetica,sans-Serif" font-size="10.00">lib/Dialect/Include</text>
<text text-anchor="start" x="534.38" y="-17" font-family="Helvetica,sans-Serif" font-size="10.00">/Transforms/InlineIncludes</text>
<text text-anchor="middle" x="592.12" y="-5.75" font-family="Helvetica,sans-Serif" font-size="10.00">Pass.cpp</text>
</a>
</g>
</g>
<!-- Node19&#45;&gt;Node20 -->
<g id="edge21_Node000019_Node000020" class="edge">
<title>Node19&#45;&gt;Node20</title>
<g id="a_edge21_Node000019_Node000020"><a xlink:title=" ">
<path fill="none" stroke="#63b8ff" d="M666.03,-70.98C651.82,-61.54 636.06,-51.07 622.76,-42.23"/>
<polygon fill="#63b8ff" stroke="#63b8ff" points="664.05,-73.87 674.31,-76.49 667.92,-68.04 664.05,-73.87"/>
</a>
</g>
</g>
<!-- Node21&#45;&gt;Node10 -->
<g id="edge24_Node000021_Node000010" class="edge">
<title>Node21&#45;&gt;Node10</title>
<g id="a_edge24_Node000021_Node000010"><a xlink:title=" ">
<path fill="none" stroke="#63b8ff" d="M1067.81,-72.52C1093.3,-60.61 1122.87,-46.78 1144.67,-36.58"/>
<polygon fill="#63b8ff" stroke="#63b8ff" points="1066.49,-69.28 1058.91,-76.68 1069.45,-75.62 1066.49,-69.28"/>
</a>
</g>
</g>
<!-- Node21&#45;&gt;Node16 -->
<g id="edge25_Node000021_Node000016" class="edge">
<title>Node21&#45;&gt;Node16</title>
<g id="a_edge25_Node000021_Node000016"><a xlink:title=" ">
<path fill="none" stroke="#63b8ff" d="M940.2,-77.37C866.45,-59.89 844.77,-61.96 775.12,-41.75 769.85,-40.22 764.35,-38.43 758.96,-36.56"/>
<polygon fill="#63b8ff" stroke="#63b8ff" points="938.95,-80.67 949.49,-79.61 940.59,-73.86 938.95,-80.67"/>
</a>
</g>
</g>
<!-- Node22&#45;&gt;Node11 -->
<g id="edge27_Node000022_Node000011" class="edge">
<title>Node22&#45;&gt;Node11</title>
<g id="a_edge27_Node000022_Node000011"><a xlink:title=" ">
<path fill="none" stroke="#63b8ff" d="M1387.86,-80.58C1393.01,-79.54 1398.14,-78.58 1403.12,-77.75 1571.79,-49.77 1617.38,-69.28 1786.12,-41.75 1794.8,-40.33 1803.91,-38.54 1812.81,-36.61"/>
<polygon fill="#63b8ff" stroke="#63b8ff" points="1387.14,-77.15 1378.09,-82.66 1388.6,-84 1387.14,-77.15"/>
</a>
</g>
</g>
<!-- Node22&#45;&gt;Node16 -->
<g id="edge31_Node000022_Node000016" class="edge">
<title>Node22&#45;&gt;Node16</title>
<g id="a_edge31_Node000022_Node000016"><a xlink:title=" ">
<path fill="none" stroke="#63b8ff" d="M1234.21,-90.01C1091.93,-77.21 818.66,-51.82 775.12,-41.75 769.29,-40.4 763.22,-38.59 757.35,-36.61"/>
<polygon fill="#63b8ff" stroke="#63b8ff" points="1233.69,-93.48 1243.97,-90.88 1234.32,-86.5 1233.69,-93.48"/>
</a>
</g>
</g>
<!-- Node23 -->
<g id="Node000023" class="node">
<title>Node23</title>
<g id="a_Node000023"><a xlink:href="_l_l_z_k_redundant_read_and_write_elimination_pass_8cpp.html" target="_top" xlink:title="This file implements the &#45;llzk&#45;duplicate&#45;read&#45;write&#45;elim pass.">
<polygon fill="white" stroke="#666666" points="1777.25,-36.12 1609,-36.12 1609,-5.62 1777.25,-5.62 1777.25,-36.12"/>
<text text-anchor="start" x="1617" y="-22.62" font-family="Helvetica,sans-Serif" font-size="10.00">lib/Transforms/LLZKRedundant</text>
<text text-anchor="middle" x="1693.12" y="-11.38" font-family="Helvetica,sans-Serif" font-size="10.00">ReadAndWriteEliminationPass.cpp</text>
</a>
</g>
</g>
<!-- Node22&#45;&gt;Node23 -->
<g id="edge28_Node000022_Node000023" class="edge">
<title>Node22&#45;&gt;Node23</title>
<g id="a_edge28_Node000022_Node000023"><a xlink:title=" ">
<path fill="none" stroke="#63b8ff" d="M1390.87,-80.41C1395.01,-79.49 1399.12,-78.59 1403.12,-77.75 1490.21,-59.38 1512.82,-59.05 1600.12,-41.75 1608.3,-40.13 1616.87,-38.37 1625.36,-36.6"/>
<polygon fill="#63b8ff" stroke="#63b8ff" points="1390.33,-76.94 1381.36,-82.57 1391.88,-83.77 1390.33,-76.94"/>
</a>
</g>
</g>
<!-- Node24 -->
<g id="Node000024" class="node">
<title>Node24</title>
<g id="a_Node000024"><a xlink:href="_l_l_z_k_unused_declaration_elimination_pass_8cpp.html" target="_top" xlink:title="This file implements the &#45;llzk&#45;unused&#45;declaration&#45;elim pass.">
<polygon fill="white" stroke="#666666" points="1426.5,-36.12 1271.75,-36.12 1271.75,-5.62 1426.5,-5.62 1426.5,-36.12"/>
<text text-anchor="start" x="1279.75" y="-22.62" font-family="Helvetica,sans-Serif" font-size="10.00">lib/Transforms/LLZKUnused</text>
<text text-anchor="middle" x="1349.12" y="-11.38" font-family="Helvetica,sans-Serif" font-size="10.00">DeclarationEliminationPass.cpp</text>
</a>
</g>
</g>
<!-- Node22&#45;&gt;Node24 -->
<g id="edge29_Node000022_Node000024" class="edge">
<title>Node22&#45;&gt;Node24</title>
<g id="a_edge29_Node000022_Node000024"><a xlink:title=" ">
<path fill="none" stroke="#63b8ff" d="M1329.81,-72.34C1334.37,-60.4 1339.66,-46.59 1343.55,-36.44"/>
<polygon fill="#63b8ff" stroke="#63b8ff" points="1326.56,-71.02 1326.26,-81.61 1333.1,-73.52 1326.56,-71.02"/>
</a>
</g>
</g>
<!-- Node25 -->
<g id="Node000025" class="node">
<title>Node25</title>
<g id="a_Node000025"><a xlink:href="_transformation_pass_pipelines_8cpp.html" target="_top" xlink:title="This file implements logic for registering the &#45;llzk&#45;remove&#45;unnecessary&#45;ops and &#45;llzk&#45;remove&#45;unnecess...">
<polygon fill="white" stroke="#666666" points="1591.38,-36.12 1444.88,-36.12 1444.88,-5.62 1591.38,-5.62 1591.38,-36.12"/>
<text text-anchor="start" x="1452.88" y="-22.62" font-family="Helvetica,sans-Serif" font-size="10.00">lib/Transforms/Transformation</text>
<text text-anchor="middle" x="1518.12" y="-11.38" font-family="Helvetica,sans-Serif" font-size="10.00">PassPipelines.cpp</text>
</a>
</g>
</g>
<!-- Node22&#45;&gt;Node25 -->
<g id="edge30_Node000022_Node000025" class="edge">
<title>Node22&#45;&gt;Node25</title>
<g id="a_edge30_Node000022_Node000025"><a xlink:title=" ">
<path fill="none" stroke="#63b8ff" d="M1368.98,-78.93C1403.14,-65.86 1448.13,-48.65 1479.73,-36.56"/>
<polygon fill="#63b8ff" stroke="#63b8ff" points="1367.8,-75.64 1359.72,-82.48 1370.31,-82.17 1367.8,-75.64"/>
</a>
</g>
</g>
<!-- Node26&#45;&gt;Node16 -->
<g id="edge34_Node000026_Node000016" class="edge">
<title>Node26&#45;&gt;Node16</title>
<g id="a_edge34_Node000026_Node000016"><a xlink:title=" ">
<path fill="none" stroke="#63b8ff" d="M831.34,-77.91C805.9,-64.97 773.18,-48.34 750.02,-36.56"/>
<polygon fill="#63b8ff" stroke="#63b8ff" points="829.55,-80.92 840.05,-82.33 832.72,-74.68 829.55,-80.92"/>
</a>
</g>
</g>
<!-- Node27 -->
<g id="Node000027" class="node">
<title>Node27</title>
<g id="a_Node000027"><a xlink:href="_l_l_z_k_validation_passes_8cpp.html" target="_top" xlink:title="This file contains the implementation for the &#45;llzk&#45;validate&#45;field&#45;writes pass.">
<polygon fill="white" stroke="#666666" points="924,-36.12 784.25,-36.12 784.25,-5.62 924,-5.62 924,-36.12"/>
<text text-anchor="start" x="792.25" y="-22.62" font-family="Helvetica,sans-Serif" font-size="10.00">lib/Validators/LLZKValidation</text>
<text text-anchor="middle" x="854.12" y="-11.38" font-family="Helvetica,sans-Serif" font-size="10.00">Passes.cpp</text>
</a>
</g>
</g>
<!-- Node26&#45;&gt;Node27 -->
<g id="edge33_Node000026_Node000027" class="edge">
<title>Node26&#45;&gt;Node27</title>
<g id="a_edge33_Node000026_Node000027"><a xlink:title=" ">
<path fill="none" stroke="#63b8ff" d="M864.71,-71.97C862.2,-60.12 859.32,-46.49 857.2,-36.44"/>
<polygon fill="#63b8ff" stroke="#63b8ff" points="861.24,-72.48 866.73,-81.54 868.08,-71.03 861.24,-72.48"/>
</a>
</g>
</g>
</g>
</svg>
