<?xml version="1.0" encoding="UTF-8" standalone="no"?>
<!DOCTYPE svg PUBLIC "-//W3C//DTD SVG 1.1//EN"
 "http://www.w3.org/Graphics/SVG/1.1/DTD/svg11.dtd">
<!-- Generated by graphviz version 12.2.1 (20241206.2353)
 -->
<!-- Title: lib/Dialect/Constrain/IR/Dialect.cpp Pages: 1 -->
<svg width="1368pt" height="305pt"
 viewBox="0.00 0.00 1368.38 304.50" xmlns="http://www.w3.org/2000/svg" xmlns:xlink="http://www.w3.org/1999/xlink">
<g id="graph0" class="graph" transform="scale(1 1) rotate(0) translate(4 300.5)">
<title>lib/Dialect/Constrain/IR/Dialect.cpp</title>
<!-- Node1 -->
<g id="Node000001" class="node">
<title>Node1</title>
<g id="a_Node000001"><a xlink:title=" ">
<polygon fill="#999999" stroke="#666666" points="1015,-296.5 910.5,-296.5 910.5,-266 1015,-266 1015,-296.5"/>
<text text-anchor="start" x="918.5" y="-283" font-family="Helvetica,sans-Serif" font-size="10.00">lib/Dialect/Constrain</text>
<text text-anchor="middle" x="962.75" y="-271.75" font-family="Helvetica,sans-Serif" font-size="10.00">/IR/Dialect.cpp</text>
</a>
</g>
</g>
<!-- Node2 -->
<g id="Node000002" class="node">
<title>Node2</title>
<g id="a_Node000002"><a xlink:href="_constrain_2_i_r_2_dialect_8h.html" target="_top" xlink:title=" ">
<polygon fill="white" stroke="#666666" points="287.62,-163.5 177.88,-163.5 177.88,-133 287.62,-133 287.62,-163.5"/>
<text text-anchor="start" x="185.88" y="-150" font-family="Helvetica,sans-Serif" font-size="10.00">llzk/Dialect/Constrain</text>
<text text-anchor="middle" x="232.75" y="-138.75" font-family="Helvetica,sans-Serif" font-size="10.00">/IR/Dialect.h</text>
</a>
</g>
</g>
<!-- Node1&#45;&gt;Node2 -->
<g id="edge1_Node000001_Node000002" class="edge">
<title>Node1&#45;&gt;Node2</title>
<g id="a_edge1_Node000001_Node000002"><a xlink:title=" ">
<path fill="none" stroke="#63b8ff" d="M910.25,-270.83C780.15,-247.48 442.97,-186.97 299.23,-161.18"/>
<polygon fill="#63b8ff" stroke="#63b8ff" points="299.94,-157.75 289.48,-159.43 298.7,-164.64 299.94,-157.75"/>
</a>
</g>
</g>
<!-- Node5 -->
<g id="Node000005" class="node">
<title>Node5</title>
<g id="a_Node000005"><a xlink:href="_constrain_2_i_r_2_ops_8h.html" target="_top" xlink:title=" ">
<polygon fill="white" stroke="#666666" points="892.62,-230 782.88,-230 782.88,-199.5 892.62,-199.5 892.62,-230"/>
<text text-anchor="start" x="790.88" y="-216.5" font-family="Helvetica,sans-Serif" font-size="10.00">llzk/Dialect/Constrain</text>
<text text-anchor="middle" x="837.75" y="-205.25" font-family="Helvetica,sans-Serif" font-size="10.00">/IR/Ops.h</text>
</a>
</g>
</g>
<!-- Node1&#45;&gt;Node5 -->
<g id="edge4_Node000001_Node000005" class="edge">
<title>Node1&#45;&gt;Node5</title>
<g id="a_edge4_Node000001_Node000005"><a xlink:title=" ">
<path fill="none" stroke="#63b8ff" d="M934.39,-265.61C917.12,-256.71 894.85,-245.22 876.04,-235.51"/>
<polygon fill="#63b8ff" stroke="#63b8ff" points="877.84,-232.5 867.35,-231.02 874.63,-238.72 877.84,-232.5"/>
</a>
</g>
</g>
<!-- Node23 -->
<g id="Node000023" class="node">
<title>Node23</title>
<g id="a_Node000023"><a xlink:href="_versioning_8h.html" target="_top" xlink:title=" ">
<polygon fill="white" stroke="#666666" points="1015,-230 910.5,-230 910.5,-199.5 1015,-199.5 1015,-230"/>
<text text-anchor="start" x="918.5" y="-216.5" font-family="Helvetica,sans-Serif" font-size="10.00">llzk/Dialect/LLZK/IR</text>
<text text-anchor="middle" x="962.75" y="-205.25" font-family="Helvetica,sans-Serif" font-size="10.00">/Versioning.h</text>
</a>
</g>
</g>
<!-- Node1&#45;&gt;Node23 -->
<g id="edge24_Node000001_Node000023" class="edge">
<title>Node1&#45;&gt;Node23</title>
<g id="a_edge24_Node000001_Node000023"><a xlink:title=" ">
<path fill="none" stroke="#63b8ff" d="M962.75,-265.61C962.75,-258.52 962.75,-249.79 962.75,-241.63"/>
<polygon fill="#63b8ff" stroke="#63b8ff" points="966.25,-241.84 962.75,-231.84 959.25,-241.84 966.25,-241.84"/>
</a>
</g>
</g>
<!-- Node25 -->
<g id="Node000025" class="node">
<title>Node25</title>
<g id="a_Node000025"><a xlink:href="_constrain_2_i_r_2_dialect_8cpp_8inc.html" target="_top" xlink:title=" ">
<polygon fill="white" stroke="#666666" points="1142.62,-230 1032.88,-230 1032.88,-199.5 1142.62,-199.5 1142.62,-230"/>
<text text-anchor="start" x="1040.88" y="-216.5" font-family="Helvetica,sans-Serif" font-size="10.00">llzk/Dialect/Constrain</text>
<text text-anchor="middle" x="1087.75" y="-205.25" font-family="Helvetica,sans-Serif" font-size="10.00">/IR/Dialect.cpp.inc</text>
</a>
</g>
</g>
<!-- Node1&#45;&gt;Node25 -->
<g id="edge26_Node000001_Node000025" class="edge">
<title>Node1&#45;&gt;Node25</title>
<g id="a_edge26_Node000001_Node000025"><a xlink:title=" ">
<path fill="none" stroke="#63b8ff" d="M991.11,-265.61C1008.38,-256.71 1030.65,-245.22 1049.46,-235.51"/>
<polygon fill="#63b8ff" stroke="#63b8ff" points="1050.87,-238.72 1058.15,-231.02 1047.66,-232.5 1050.87,-238.72"/>
</a>
</g>
</g>
<!-- Node26 -->
<g id="Node000026" class="node">
<title>Node26</title>
<g id="a_Node000026"><a xlink:href="_constrain_2_i_r_2_ops_8cpp_8inc.html" target="_top" xlink:title=" ">
<polygon fill="white" stroke="#666666" points="1270.62,-230 1160.88,-230 1160.88,-199.5 1270.62,-199.5 1270.62,-230"/>
<text text-anchor="start" x="1168.88" y="-216.5" font-family="Helvetica,sans-Serif" font-size="10.00">llzk/Dialect/Constrain</text>
<text text-anchor="middle" x="1215.75" y="-205.25" font-family="Helvetica,sans-Serif" font-size="10.00">/IR/Ops.cpp.inc</text>
</a>
</g>
</g>
<!-- Node1&#45;&gt;Node26 -->
<g id="edge27_Node000001_Node000026" class="edge">
<title>Node1&#45;&gt;Node26</title>
<g id="a_edge27_Node000001_Node000026"><a xlink:title=" ">
<path fill="none" stroke="#63b8ff" d="M1015.48,-266.81C1054.43,-256.88 1107.72,-243.29 1149.54,-232.63"/>
<polygon fill="#63b8ff" stroke="#63b8ff" points="1150.17,-236.08 1159,-230.22 1148.44,-229.3 1150.17,-236.08"/>
</a>
</g>
</g>
<!-- Node3 -->
<g id="Node000003" class="node">
<title>Node3</title>
<g id="a_Node000003"><a xlink:title=" ">
<polygon fill="#e0e0e0" stroke="#999999" points="101.5,-24.88 0,-24.88 0,-5.63 101.5,-5.63 101.5,-24.88"/>
<text text-anchor="middle" x="50.75" y="-11.38" font-family="Helvetica,sans-Serif" font-size="10.00">mlir/IR/BuiltinOps.h</text>
</a>
</g>
</g>
<!-- Node2&#45;&gt;Node3 -->
<g id="edge2_Node000002_Node000003" class="edge">
<title>Node2&#45;&gt;Node3</title>
<g id="a_edge2_Node000002_Node000003"><a xlink:title=" ">
<path fill="none" stroke="#63b8ff" d="M177.39,-140.38C126.52,-132.8 56.53,-118.71 39.75,-97 26.26,-79.55 33.28,-53.42 40.83,-35.64"/>
<polygon fill="#63b8ff" stroke="#63b8ff" points="43.94,-37.25 45.01,-26.71 37.6,-34.28 43.94,-37.25"/>
</a>
</g>
</g>
<!-- Node4 -->
<g id="Node000004" class="node">
<title>Node4</title>
<g id="a_Node000004"><a xlink:href="_constrain_2_i_r_2_dialect_8h_8inc.html" target="_top" xlink:title=" ">
<polygon fill="white" stroke="#666666" points="158.62,-97 48.88,-97 48.88,-66.5 158.62,-66.5 158.62,-97"/>
<text text-anchor="start" x="56.88" y="-83.5" font-family="Helvetica,sans-Serif" font-size="10.00">llzk/Dialect/Constrain</text>
<text text-anchor="middle" x="103.75" y="-72.25" font-family="Helvetica,sans-Serif" font-size="10.00">/IR/Dialect.h.inc</text>
</a>
</g>
</g>
<!-- Node2&#45;&gt;Node4 -->
<g id="edge3_Node000002_Node000004" class="edge">
<title>Node2&#45;&gt;Node4</title>
<g id="a_edge3_Node000002_Node000004"><a xlink:title=" ">
<path fill="none" stroke="#63b8ff" d="M203.48,-132.61C185.58,-123.67 162.47,-112.11 143,-102.37"/>
<polygon fill="#63b8ff" stroke="#63b8ff" points="144.77,-99.35 134.26,-98.01 141.64,-105.61 144.77,-99.35"/>
</a>
</g>
</g>
<!-- Node5&#45;&gt;Node2 -->
<g id="edge16_Node000005_Node000002" class="edge">
<title>Node5&#45;&gt;Node2</title>
<g id="a_edge16_Node000005_Node000002"><a xlink:title=" ">
<path fill="none" stroke="#63b8ff" d="M782.46,-207.86C670.83,-195.95 419.01,-169.11 298.9,-156.3"/>
<polygon fill="#63b8ff" stroke="#63b8ff" points="299.52,-152.85 289.2,-155.27 298.77,-159.81 299.52,-152.85"/>
</a>
</g>
</g>
<!-- Node6 -->
<g id="Node000006" class="node">
<title>Node6</title>
<g id="a_Node000006"><a xlink:href="_array_2_i_r_2_types_8h.html" target="_top" xlink:title=" ">
<polygon fill="white" stroke="#666666" points="589.25,-163.5 498.25,-163.5 498.25,-133 589.25,-133 589.25,-163.5"/>
<text text-anchor="start" x="506.25" y="-150" font-family="Helvetica,sans-Serif" font-size="10.00">llzk/Dialect/Array</text>
<text text-anchor="middle" x="543.75" y="-138.75" font-family="Helvetica,sans-Serif" font-size="10.00">/IR/Types.h</text>
</a>
</g>
</g>
<!-- Node5&#45;&gt;Node6 -->
<g id="edge5_Node000005_Node000006" class="edge">
<title>Node5&#45;&gt;Node6</title>
<g id="a_edge5_Node000005_Node000006"><a xlink:title=" ">
<path fill="none" stroke="#63b8ff" d="M782.45,-201.62C730.54,-190.23 653.22,-173.27 600.76,-161.76"/>
<polygon fill="#63b8ff" stroke="#63b8ff" points="601.63,-158.36 591.11,-159.64 600.13,-165.2 601.63,-158.36"/>
</a>
</g>
</g>
<!-- Node16 -->
<g id="Node000016" class="node">
<title>Node16</title>
<g id="a_Node000016"><a xlink:href="_constrain_2_i_r_2_op_interfaces_8h.html" target="_top" xlink:title=" ">
<polygon fill="white" stroke="#666666" points="892.62,-163.5 782.88,-163.5 782.88,-133 892.62,-133 892.62,-163.5"/>
<text text-anchor="start" x="790.88" y="-150" font-family="Helvetica,sans-Serif" font-size="10.00">llzk/Dialect/Constrain</text>
<text text-anchor="middle" x="837.75" y="-138.75" font-family="Helvetica,sans-Serif" font-size="10.00">/IR/OpInterfaces.h</text>
</a>
</g>
</g>
<!-- Node5&#45;&gt;Node16 -->
<g id="edge17_Node000005_Node000016" class="edge">
<title>Node5&#45;&gt;Node16</title>
<g id="a_edge17_Node000005_Node000016"><a xlink:title=" ">
<path fill="none" stroke="#63b8ff" d="M837.75,-199.11C837.75,-192.02 837.75,-183.29 837.75,-175.13"/>
<polygon fill="#63b8ff" stroke="#63b8ff" points="841.25,-175.34 837.75,-165.34 834.25,-175.34 841.25,-175.34"/>
</a>
</g>
</g>
<!-- Node18 -->
<g id="Node000018" class="node">
<title>Node18</title>
<g id="a_Node000018"><a xlink:href="_op_traits_8h.html" target="_top" xlink:title=" ">
<polygon fill="white" stroke="#666666" points="1018.38,-163.5 913.12,-163.5 913.12,-133 1018.38,-133 1018.38,-163.5"/>
<text text-anchor="start" x="921.12" y="-150" font-family="Helvetica,sans-Serif" font-size="10.00">llzk/Dialect/Function</text>
<text text-anchor="middle" x="965.75" y="-138.75" font-family="Helvetica,sans-Serif" font-size="10.00">/IR/OpTraits.h</text>
</a>
</g>
</g>
<!-- Node5&#45;&gt;Node18 -->
<g id="edge19_Node000005_Node000018" class="edge">
<title>Node5&#45;&gt;Node18</title>
<g id="a_edge19_Node000005_Node000018"><a xlink:title=" ">
<path fill="none" stroke="#63b8ff" d="M866.8,-199.11C884.47,-190.21 907.28,-178.72 926.54,-169.01"/>
<polygon fill="#63b8ff" stroke="#63b8ff" points="928.11,-172.13 935.47,-164.51 924.96,-165.88 928.11,-172.13"/>
</a>
</g>
</g>
<!-- Node22 -->
<g id="Node000022" class="node">
<title>Node22</title>
<g id="a_Node000022"><a xlink:href="_constrain_2_i_r_2_ops_8h_8inc.html" target="_top" xlink:title=" ">
<polygon fill="white" stroke="#666666" points="1146.62,-163.5 1036.88,-163.5 1036.88,-133 1146.62,-133 1146.62,-163.5"/>
<text text-anchor="start" x="1044.88" y="-150" font-family="Helvetica,sans-Serif" font-size="10.00">llzk/Dialect/Constrain</text>
<text text-anchor="middle" x="1091.75" y="-138.75" font-family="Helvetica,sans-Serif" font-size="10.00">/IR/Ops.h.inc</text>
</a>
</g>
</g>
<!-- Node5&#45;&gt;Node22 -->
<g id="edge23_Node000005_Node000022" class="edge">
<title>Node5&#45;&gt;Node22</title>
<g id="a_edge23_Node000005_Node000022"><a xlink:title=" ">
<path fill="none" stroke="#63b8ff" d="M892.86,-199.75C931.89,-189.84 984.42,-176.5 1025.69,-166.02"/>
<polygon fill="#63b8ff" stroke="#63b8ff" points="1026.45,-169.44 1035.28,-163.59 1024.72,-162.66 1026.45,-169.44"/>
</a>
</g>
</g>
<!-- Node7 -->
<g id="Node000007" class="node">
<title>Node7</title>
<g id="a_Node000007"><a xlink:href="_array_2_i_r_2_dialect_8h.html" target="_top" xlink:title=" ">
<polygon fill="white" stroke="#666666" points="267.25,-97 176.25,-97 176.25,-66.5 267.25,-66.5 267.25,-97"/>
<text text-anchor="start" x="184.25" y="-83.5" font-family="Helvetica,sans-Serif" font-size="10.00">llzk/Dialect/Array</text>
<text text-anchor="middle" x="221.75" y="-72.25" font-family="Helvetica,sans-Serif" font-size="10.00">/IR/Dialect.h</text>
</a>
</g>
</g>
<!-- Node6&#45;&gt;Node7 -->
<g id="edge6_Node000006_Node000007" class="edge">
<title>Node6&#45;&gt;Node7</title>
<g id="a_edge6_Node000006_Node000007"><a xlink:title=" ">
<path fill="none" stroke="#63b8ff" d="M498.02,-139.72C446.81,-131.05 361.1,-115.86 278.72,-97.59"/>
<polygon fill="#63b8ff" stroke="#63b8ff" points="279.65,-94.21 269.13,-95.44 278.12,-101.04 279.65,-94.21"/>
</a>
</g>
</g>
<!-- Node9 -->
<g id="Node000009" class="node">
<title>Node9</title>
<g id="a_Node000009"><a xlink:href="_error_helper_8h.html" target="_top" xlink:title=" ">
<polygon fill="white" stroke="#666666" points="394.25,-91.38 285.25,-91.38 285.25,-72.12 394.25,-72.12 394.25,-91.38"/>
<text text-anchor="middle" x="339.75" y="-77.88" font-family="Helvetica,sans-Serif" font-size="10.00">llzk/Util/ErrorHelper.h</text>
</a>
</g>
</g>
<!-- Node6&#45;&gt;Node9 -->
<g id="edge9_Node000006_Node000009" class="edge">
<title>Node6&#45;&gt;Node9</title>
<g id="a_edge9_Node000006_Node000009"><a xlink:title=" ">
<path fill="none" stroke="#63b8ff" d="M497.97,-132.77C462.3,-121.5 413.28,-106 379.3,-95.25"/>
<polygon fill="#63b8ff" stroke="#63b8ff" points="380.43,-91.94 369.84,-92.26 378.32,-98.61 380.43,-91.94"/>
</a>
</g>
</g>
<!-- Node13 -->
<g id="Node000013" class="node">
<title>Node13</title>
<g id="a_Node000013"><a xlink:title=" ">
<polygon fill="#e0e0e0" stroke="#999999" points="545.62,-97 411.88,-97 411.88,-66.5 545.62,-66.5 545.62,-97"/>
<text text-anchor="start" x="419.88" y="-83.5" font-family="Helvetica,sans-Serif" font-size="10.00">mlir/Interfaces/MemorySlot</text>
<text text-anchor="middle" x="478.75" y="-72.25" font-family="Helvetica,sans-Serif" font-size="10.00">Interfaces.h</text>
</a>
</g>
</g>
<!-- Node6&#45;&gt;Node13 -->
<g id="edge13_Node000006_Node000013" class="edge">
<title>Node6&#45;&gt;Node13</title>
<g id="a_edge13_Node000006_Node000013"><a xlink:title=" ">
<path fill="none" stroke="#63b8ff" d="M529,-132.61C520.86,-124.53 510.57,-114.32 501.42,-105.25"/>
<polygon fill="#63b8ff" stroke="#63b8ff" points="504.08,-102.95 494.52,-98.39 499.15,-107.92 504.08,-102.95"/>
</a>
</g>
</g>
<!-- Node14 -->
<g id="Node000014" class="node">
<title>Node14</title>
<g id="a_Node000014"><a xlink:href="_array_2_i_r_2_ops_8h_8inc.html" target="_top" xlink:title=" ">
<polygon fill="white" stroke="#666666" points="654.25,-97 563.25,-97 563.25,-66.5 654.25,-66.5 654.25,-97"/>
<text text-anchor="start" x="571.25" y="-83.5" font-family="Helvetica,sans-Serif" font-size="10.00">llzk/Dialect/Array</text>
<text text-anchor="middle" x="608.75" y="-72.25" font-family="Helvetica,sans-Serif" font-size="10.00">/IR/Ops.h.inc</text>
</a>
</g>
</g>
<!-- Node6&#45;&gt;Node14 -->
<g id="edge14_Node000006_Node000014" class="edge">
<title>Node6&#45;&gt;Node14</title>
<g id="a_edge14_Node000006_Node000014"><a xlink:title=" ">
<path fill="none" stroke="#63b8ff" d="M558.5,-132.61C566.64,-124.53 576.93,-114.32 586.08,-105.25"/>
<polygon fill="#63b8ff" stroke="#63b8ff" points="588.35,-107.92 592.98,-98.39 583.42,-102.95 588.35,-107.92"/>
</a>
</g>
</g>
<!-- Node15 -->
<g id="Node000015" class="node">
<title>Node15</title>
<g id="a_Node000015"><a xlink:href="_array_2_i_r_2_types_8h_8inc.html" target="_top" xlink:title=" ">
<polygon fill="white" stroke="#666666" points="763.25,-97 672.25,-97 672.25,-66.5 763.25,-66.5 763.25,-97"/>
<text text-anchor="start" x="680.25" y="-83.5" font-family="Helvetica,sans-Serif" font-size="10.00">llzk/Dialect/Array</text>
<text text-anchor="middle" x="717.75" y="-72.25" font-family="Helvetica,sans-Serif" font-size="10.00">/IR/Types.h.inc</text>
</a>
</g>
</g>
<!-- Node6&#45;&gt;Node15 -->
<g id="edge15_Node000006_Node000015" class="edge">
<title>Node6&#45;&gt;Node15</title>
<g id="a_edge15_Node000006_Node000015"><a xlink:title=" ">
<path fill="none" stroke="#63b8ff" d="M583.23,-132.61C608.17,-123.37 640.63,-111.34 667.41,-101.41"/>
<polygon fill="#63b8ff" stroke="#63b8ff" points="668.54,-104.72 676.7,-97.97 666.11,-98.16 668.54,-104.72"/>
</a>
</g>
</g>
<!-- Node7&#45;&gt;Node3 -->
<g id="edge7_Node000007_Node000003" class="edge">
<title>Node7&#45;&gt;Node3</title>
<g id="a_edge7_Node000007_Node000003"><a xlink:title=" ">
<path fill="none" stroke="#63b8ff" d="M182.95,-66.11C153.54,-55.02 113.51,-39.92 85.23,-29.25"/>
<polygon fill="#63b8ff" stroke="#63b8ff" points="86.64,-26.05 76.05,-25.79 84.17,-32.6 86.64,-26.05"/>
</a>
</g>
</g>
<!-- Node8 -->
<g id="Node000008" class="node">
<title>Node8</title>
<g id="a_Node000008"><a xlink:href="_array_2_i_r_2_dialect_8h_8inc.html" target="_top" xlink:title=" ">
<polygon fill="white" stroke="#666666" points="225.25,-30.5 134.25,-30.5 134.25,0 225.25,0 225.25,-30.5"/>
<text text-anchor="start" x="142.25" y="-17" font-family="Helvetica,sans-Serif" font-size="10.00">llzk/Dialect/Array</text>
<text text-anchor="middle" x="179.75" y="-5.75" font-family="Helvetica,sans-Serif" font-size="10.00">/IR/Dialect.h.inc</text>
</a>
</g>
</g>
<!-- Node7&#45;&gt;Node8 -->
<g id="edge8_Node000007_Node000008" class="edge">
<title>Node7&#45;&gt;Node8</title>
<g id="a_edge8_Node000007_Node000008"><a xlink:title=" ">
<path fill="none" stroke="#63b8ff" d="M212.22,-66.11C207.28,-58.53 201.12,-49.06 195.49,-40.43"/>
<polygon fill="#63b8ff" stroke="#63b8ff" points="198.46,-38.57 190.07,-32.1 192.59,-42.39 198.46,-38.57"/>
</a>
</g>
</g>
<!-- Node10 -->
<g id="Node000010" class="node">
<title>Node10</title>
<g id="a_Node000010"><a xlink:title=" ">
<polygon fill="#e0e0e0" stroke="#999999" points="403.75,-24.88 243.75,-24.88 243.75,-5.63 403.75,-5.63 403.75,-24.88"/>
<text text-anchor="middle" x="323.75" y="-11.38" font-family="Helvetica,sans-Serif" font-size="10.00">llvm/ADT/STLFunctionalExtras.h</text>
</a>
</g>
</g>
<!-- Node9&#45;&gt;Node10 -->
<g id="edge10_Node000009_Node000010" class="edge">
<title>Node9&#45;&gt;Node10</title>
<g id="a_edge10_Node000009_Node000010"><a xlink:title=" ">
<path fill="none" stroke="#63b8ff" d="M337.53,-71.78C335.26,-62.64 331.66,-48.14 328.71,-36.25"/>
<polygon fill="#63b8ff" stroke="#63b8ff" points="332.13,-35.47 326.32,-26.61 325.33,-37.16 332.13,-35.47"/>
</a>
</g>
</g>
<!-- Node11 -->
<g id="Node000011" class="node">
<title>Node11</title>
<g id="a_Node000011"><a xlink:title=" ">
<polygon fill="#e0e0e0" stroke="#999999" points="515.75,-24.88 421.75,-24.88 421.75,-5.63 515.75,-5.63 515.75,-24.88"/>
<text text-anchor="middle" x="468.75" y="-11.38" font-family="Helvetica,sans-Serif" font-size="10.00">llvm/ADT/Twine.h</text>
</a>
</g>
</g>
<!-- Node9&#45;&gt;Node11 -->
<g id="edge11_Node000009_Node000011" class="edge">
<title>Node9&#45;&gt;Node11</title>
<g id="a_edge11_Node000009_Node000011"><a xlink:title=" ">
<path fill="none" stroke="#63b8ff" d="M357.96,-71.65C379.47,-60.89 415.5,-42.87 440.61,-30.32"/>
<polygon fill="#63b8ff" stroke="#63b8ff" points="441.9,-33.59 449.28,-25.99 438.77,-27.33 441.9,-33.59"/>
</a>
</g>
</g>
<!-- Node12 -->
<g id="Node000012" class="node">
<title>Node12</title>
<g id="a_Node000012"><a xlink:title=" ">
<polygon fill="#e0e0e0" stroke="#999999" points="675.38,-24.88 534.12,-24.88 534.12,-5.63 675.38,-5.63 675.38,-24.88"/>
<text text-anchor="middle" x="604.75" y="-11.38" font-family="Helvetica,sans-Serif" font-size="10.00">llvm/Support/ErrorHandling.h</text>
</a>
</g>
</g>
<!-- Node9&#45;&gt;Node12 -->
<g id="edge12_Node000009_Node000012" class="edge">
<title>Node9&#45;&gt;Node12</title>
<g id="a_edge12_Node000009_Node000012"><a xlink:title=" ">
<path fill="none" stroke="#63b8ff" d="M377.16,-71.65C424.11,-60.22 504.74,-40.59 556.35,-28.03"/>
<polygon fill="#63b8ff" stroke="#63b8ff" points="557.18,-31.43 566.06,-25.67 555.52,-24.63 557.18,-31.43"/>
</a>
</g>
</g>
<!-- Node17 -->
<g id="Node000017" class="node">
<title>Node17</title>
<g id="a_Node000017"><a xlink:href="_constrain_2_i_r_2_op_interfaces_8h_8inc.html" target="_top" xlink:title=" ">
<polygon fill="white" stroke="#666666" points="894.12,-97 781.38,-97 781.38,-66.5 894.12,-66.5 894.12,-97"/>
<text text-anchor="start" x="789.38" y="-83.5" font-family="Helvetica,sans-Serif" font-size="10.00">llzk/Dialect/Constrain</text>
<text text-anchor="middle" x="837.75" y="-72.25" font-family="Helvetica,sans-Serif" font-size="10.00">/IR/OpInterfaces.h.inc</text>
</a>
</g>
</g>
<!-- Node16&#45;&gt;Node17 -->
<g id="edge18_Node000016_Node000017" class="edge">
<title>Node16&#45;&gt;Node17</title>
<g id="a_edge18_Node000016_Node000017"><a xlink:title=" ">
<path fill="none" stroke="#63b8ff" d="M837.75,-132.61C837.75,-125.52 837.75,-116.79 837.75,-108.63"/>
<polygon fill="#63b8ff" stroke="#63b8ff" points="841.25,-108.84 837.75,-98.84 834.25,-108.84 841.25,-108.84"/>
</a>
</g>
</g>
<!-- Node19 -->
<g id="Node000019" class="node">
<title>Node19</title>
<g id="a_Node000019"><a xlink:title=" ">
<polygon fill="#e0e0e0" stroke="#999999" points="1023,-91.38 912.5,-91.38 912.5,-72.12 1023,-72.12 1023,-91.38"/>
<text text-anchor="middle" x="967.75" y="-77.88" font-family="Helvetica,sans-Serif" font-size="10.00">mlir/IR/OpDefinition.h</text>
</a>
</g>
</g>
<!-- Node18&#45;&gt;Node19 -->
<g id="edge20_Node000018_Node000019" class="edge">
<title>Node18&#45;&gt;Node19</title>
<g id="a_edge20_Node000018_Node000019"><a xlink:title=" ">
<path fill="none" stroke="#63b8ff" d="M966.2,-132.61C966.48,-123.83 966.83,-112.52 967.13,-102.9"/>
<polygon fill="#63b8ff" stroke="#63b8ff" points="970.62,-103.19 967.43,-93.09 963.62,-102.97 970.62,-103.19"/>
</a>
</g>
</g>
<!-- Node20 -->
<g id="Node000020" class="node">
<title>Node20</title>
<g id="a_Node000020"><a xlink:title=" ">
<polygon fill="#e0e0e0" stroke="#999999" points="1140,-91.38 1041.5,-91.38 1041.5,-72.12 1140,-72.12 1140,-91.38"/>
<text text-anchor="middle" x="1090.75" y="-77.88" font-family="Helvetica,sans-Serif" font-size="10.00">mlir/IR/Operation.h</text>
</a>
</g>
</g>
<!-- Node18&#45;&gt;Node20 -->
<g id="edge21_Node000018_Node000020" class="edge">
<title>Node18&#45;&gt;Node20</title>
<g id="a_edge21_Node000018_Node000020"><a xlink:title=" ">
<path fill="none" stroke="#63b8ff" d="M994.11,-132.61C1014.85,-121.92 1042.81,-107.49 1063.32,-96.9"/>
<polygon fill="#63b8ff" stroke="#63b8ff" points="1064.66,-100.15 1071.94,-92.45 1061.45,-93.93 1064.66,-100.15"/>
</a>
</g>
</g>
<!-- Node21 -->
<g id="Node000021" class="node">
<title>Node21</title>
<g id="a_Node000021"><a xlink:title=" ">
<polygon fill="#e0e0e0" stroke="#999999" points="1297.25,-91.38 1158.25,-91.38 1158.25,-72.12 1297.25,-72.12 1297.25,-91.38"/>
<text text-anchor="middle" x="1227.75" y="-77.88" font-family="Helvetica,sans-Serif" font-size="10.00">mlir/Support/LogicalResult.h</text>
</a>
</g>
</g>
<!-- Node18&#45;&gt;Node21 -->
<g id="edge22_Node000018_Node000021" class="edge">
<title>Node18&#45;&gt;Node21</title>
<g id="a_edge22_Node000018_Node000021"><a xlink:title=" ">
<path fill="none" stroke="#63b8ff" d="M1018.77,-134.2C1065.91,-122.59 1134.24,-105.77 1179.78,-94.56"/>
<polygon fill="#63b8ff" stroke="#63b8ff" points="1180.5,-97.99 1189.38,-92.2 1178.83,-91.19 1180.5,-97.99"/>
</a>
</g>
</g>
<!-- Node24 -->
<g id="Node000024" class="node">
<title>Node24</title>
<g id="a_Node000024"><a xlink:title=" ">
<polygon fill="#e0e0e0" stroke="#999999" points="1360.38,-157.88 1165.12,-157.88 1165.12,-138.62 1360.38,-138.62 1360.38,-157.88"/>
<text text-anchor="middle" x="1262.75" y="-144.38" font-family="Helvetica,sans-Serif" font-size="10.00">mlir/Bytecode/BytecodeImplementation.h</text>
</a>
</g>
</g>
<!-- Node23&#45;&gt;Node24 -->
<g id="edge25_Node000023_Node000024" class="edge">
<title>Node23&#45;&gt;Node24</title>
<g id="a_edge25_Node000023_Node000024"><a xlink:title=" ">
<path fill="none" stroke="#63b8ff" d="M1015.31,-201.39C1018.16,-200.75 1020.99,-200.11 1023.75,-199.5 1086.41,-185.6 1158.52,-170.57 1207.01,-160.6"/>
<polygon fill="#63b8ff" stroke="#63b8ff" points="1207.62,-164.05 1216.71,-158.61 1206.21,-157.19 1207.62,-164.05"/>
</a>
</g>
</g>
</g>
</svg>
