<?xml version="1.0" encoding="UTF-8" standalone="no"?>
<!DOCTYPE svg PUBLIC "-//W3C//DTD SVG 1.1//EN"
 "http://www.w3.org/Graphics/SVG/1.1/DTD/svg11.dtd">
<!-- Generated by graphviz version 12.2.1 (20241206.2353)
 -->
<!-- Title: include/llzk/Util/Debug.h Pages: 1 -->
<svg width="1229pt" height="94pt"
 viewBox="0.00 0.00 1229.25 93.75" xmlns="http://www.w3.org/2000/svg" xmlns:xlink="http://www.w3.org/1999/xlink">
<g id="graph0" class="graph" transform="scale(1 1) rotate(0) translate(4 89.75)">
<title>include/llzk/Util/Debug.h</title>
<!-- Node1 -->
<g id="Node000001" class="node">
<title>Node1</title>
<g id="a_Node000001"><a xlink:title=" ">
<polygon fill="#999999" stroke="#666666" points="671.5,-85.75 549,-85.75 549,-66.5 671.5,-66.5 671.5,-85.75"/>
<text text-anchor="middle" x="610.25" y="-72.25" font-family="Helvetica,sans-Serif" font-size="10.00">include/llzk/Util/Debug.h</text>
</a>
</g>
</g>
<!-- Node2 -->
<g id="Node000002" class="node">
<title>Node2</title>
<g id="a_Node000002"><a xlink:title=" ">
<polygon fill="#e0e0e0" stroke="#999999" points="98.5,-24.88 0,-24.88 0,-5.63 98.5,-5.63 98.5,-24.88"/>
<text text-anchor="middle" x="49.25" y="-11.38" font-family="Helvetica,sans-Serif" font-size="10.00">mlir/IR/Attributes.h</text>
</a>
</g>
</g>
<!-- Node1&#45;&gt;Node2 -->
<g id="edge1_Node000001_Node000002" class="edge">
<title>Node1&#45;&gt;Node2</title>
<g id="a_edge1_Node000001_Node000002"><a xlink:title=" ">
<path fill="none" stroke="#63b8ff" d="M548.7,-72.69C453.51,-68.24 265.08,-56.73 107.25,-30.5 102.83,-29.77 98.25,-28.87 93.69,-27.9"/>
<polygon fill="#63b8ff" stroke="#63b8ff" points="94.5,-24.49 83.98,-25.68 92.95,-31.32 94.5,-24.49"/>
</a>
</g>
</g>
<!-- Node3 -->
<g id="Node000003" class="node">
<title>Node3</title>
<g id="a_Node000003"><a xlink:title=" ">
<polygon fill="#e0e0e0" stroke="#999999" points="242,-24.88 116.5,-24.88 116.5,-5.63 242,-5.63 242,-24.88"/>
<text text-anchor="middle" x="179.25" y="-11.38" font-family="Helvetica,sans-Serif" font-size="10.00">mlir/IR/BuiltinAttributes.h</text>
</a>
</g>
</g>
<!-- Node1&#45;&gt;Node3 -->
<g id="edge2_Node000001_Node000003" class="edge">
<title>Node1&#45;&gt;Node3</title>
<g id="a_edge2_Node000001_Node000003"><a xlink:title=" ">
<path fill="none" stroke="#63b8ff" d="M548.76,-68.84C477.12,-61.2 355.27,-47.24 251.25,-30.5 245.58,-29.59 239.67,-28.55 233.78,-27.47"/>
<polygon fill="#63b8ff" stroke="#63b8ff" points="234.53,-24.05 224.05,-25.63 233.22,-30.93 234.53,-24.05"/>
</a>
</g>
</g>
<!-- Node4 -->
<g id="Node000004" class="node">
<title>Node4</title>
<g id="a_Node000004"><a xlink:title=" ">
<polygon fill="#e0e0e0" stroke="#999999" points="358.5,-24.88 260,-24.88 260,-5.63 358.5,-5.63 358.5,-24.88"/>
<text text-anchor="middle" x="309.25" y="-11.38" font-family="Helvetica,sans-Serif" font-size="10.00">mlir/IR/Operation.h</text>
</a>
</g>
</g>
<!-- Node1&#45;&gt;Node4 -->
<g id="edge3_Node000001_Node000004" class="edge">
<title>Node1&#45;&gt;Node4</title>
<g id="a_edge3_Node000001_Node000004"><a xlink:title=" ">
<path fill="none" stroke="#63b8ff" d="M556.26,-66.04C507.1,-57.56 432.6,-44.19 368.25,-30.5 364.42,-29.69 360.47,-28.81 356.5,-27.9"/>
<polygon fill="#63b8ff" stroke="#63b8ff" points="357.38,-24.51 346.85,-25.65 355.79,-31.33 357.38,-24.51"/>
</a>
</g>
</g>
<!-- Node5 -->
<g id="Node000005" class="node">
<title>Node5</title>
<g id="a_Node000005"><a xlink:title=" ">
<polygon fill="#e0e0e0" stroke="#999999" points="489.62,-24.88 376.88,-24.88 376.88,-5.63 489.62,-5.63 489.62,-24.88"/>
<text text-anchor="middle" x="433.25" y="-11.38" font-family="Helvetica,sans-Serif" font-size="10.00">mlir/IR/SymbolTable.h</text>
</a>
</g>
</g>
<!-- Node1&#45;&gt;Node5 -->
<g id="edge4_Node000001_Node000005" class="edge">
<title>Node1&#45;&gt;Node5</title>
<g id="a_edge4_Node000001_Node000005"><a xlink:title=" ">
<path fill="none" stroke="#63b8ff" d="M582.98,-66.05C553.1,-56.11 504.95,-40.1 471.34,-28.92"/>
<polygon fill="#63b8ff" stroke="#63b8ff" points="472.58,-25.64 461.99,-25.81 470.37,-32.29 472.58,-25.64"/>
</a>
</g>
</g>
<!-- Node6 -->
<g id="Node000006" class="node">
<title>Node6</title>
<g id="a_Node000006"><a xlink:title=" ">
<polygon fill="#e0e0e0" stroke="#999999" points="588.5,-24.88 508,-24.88 508,-5.63 588.5,-5.63 588.5,-24.88"/>
<text text-anchor="middle" x="548.25" y="-11.38" font-family="Helvetica,sans-Serif" font-size="10.00">mlir/IR/Value.h</text>
</a>
</g>
</g>
<!-- Node1&#45;&gt;Node6 -->
<g id="edge5_Node000001_Node000006" class="edge">
<title>Node1&#45;&gt;Node6</title>
<g id="a_edge5_Node000001_Node000006"><a xlink:title=" ">
<path fill="none" stroke="#63b8ff" d="M600.83,-66.18C591.64,-57.45 577.41,-43.94 566.08,-33.18"/>
<polygon fill="#63b8ff" stroke="#63b8ff" points="568.51,-30.67 558.85,-26.32 563.69,-35.74 568.51,-30.67"/>
</a>
</g>
</g>
<!-- Node7 -->
<g id="Node000007" class="node">
<title>Node7</title>
<g id="a_Node000007"><a xlink:title=" ">
<polygon fill="#e0e0e0" stroke="#999999" points="740.12,-30.5 606.38,-30.5 606.38,0 740.12,0 740.12,-30.5"/>
<text text-anchor="start" x="614.38" y="-17" font-family="Helvetica,sans-Serif" font-size="10.00">mlir/Interfaces/MemorySlot</text>
<text text-anchor="middle" x="673.25" y="-5.75" font-family="Helvetica,sans-Serif" font-size="10.00">Interfaces.h</text>
</a>
</g>
</g>
<!-- Node1&#45;&gt;Node7 -->
<g id="edge6_Node000001_Node000007" class="edge">
<title>Node1&#45;&gt;Node7</title>
<g id="a_edge6_Node000001_Node000007"><a xlink:title=" ">
<path fill="none" stroke="#63b8ff" d="M619.82,-66.18C627.67,-58.84 639.13,-48.13 649.43,-38.51"/>
<polygon fill="#63b8ff" stroke="#63b8ff" points="651.68,-41.2 656.59,-31.82 646.9,-36.09 651.68,-41.2"/>
</a>
</g>
</g>
<!-- Node8 -->
<g id="Node000008" class="node">
<title>Node8</title>
<g id="a_Node000008"><a xlink:title=" ">
<polygon fill="#e0e0e0" stroke="#999999" points="874.12,-24.88 758.38,-24.88 758.38,-5.63 874.12,-5.63 874.12,-24.88"/>
<text text-anchor="middle" x="816.25" y="-11.38" font-family="Helvetica,sans-Serif" font-size="10.00">llvm/ADT/DenseMap.h</text>
</a>
</g>
</g>
<!-- Node1&#45;&gt;Node8 -->
<g id="edge7_Node000001_Node000008" class="edge">
<title>Node1&#45;&gt;Node8</title>
<g id="a_edge7_Node000001_Node000008"><a xlink:title=" ">
<path fill="none" stroke="#63b8ff" d="M641.99,-66.05C677.22,-55.99 734.27,-39.68 773.44,-28.49"/>
<polygon fill="#63b8ff" stroke="#63b8ff" points="774.37,-31.86 783.02,-25.75 772.45,-25.13 774.37,-31.86"/>
</a>
</g>
</g>
<!-- Node9 -->
<g id="Node000009" class="node">
<title>Node9</title>
<g id="a_Node000009"><a xlink:title=" ">
<polygon fill="#e0e0e0" stroke="#999999" points="1006.75,-24.88 891.75,-24.88 891.75,-5.63 1006.75,-5.63 1006.75,-24.88"/>
<text text-anchor="middle" x="949.25" y="-11.38" font-family="Helvetica,sans-Serif" font-size="10.00">llvm/ADT/STLExtras.h</text>
</a>
</g>
</g>
<!-- Node1&#45;&gt;Node9 -->
<g id="edge8_Node000001_Node000009" class="edge">
<title>Node1&#45;&gt;Node9</title>
<g id="a_edge8_Node000001_Node000009"><a xlink:title=" ">
<path fill="none" stroke="#63b8ff" d="M671.4,-66.04C726.83,-57.58 810.7,-44.25 883.25,-30.5 887.91,-29.62 892.75,-28.65 897.6,-27.66"/>
<polygon fill="#63b8ff" stroke="#63b8ff" points="898.27,-31.1 907.35,-25.63 896.84,-24.25 898.27,-31.1"/>
</a>
</g>
</g>
<!-- Node10 -->
<g id="Node000010" class="node">
<title>Node10</title>
<g id="a_Node000010"><a xlink:title=" ">
<polygon fill="#e0e0e0" stroke="#999999" points="1163.38,-24.88 1025.12,-24.88 1025.12,-5.63 1163.38,-5.63 1163.38,-24.88"/>
<text text-anchor="middle" x="1094.25" y="-11.38" font-family="Helvetica,sans-Serif" font-size="10.00">llvm/Support/raw_ostream.h</text>
</a>
</g>
</g>
<!-- Node1&#45;&gt;Node10 -->
<g id="edge9_Node000001_Node000010" class="edge">
<title>Node1&#45;&gt;Node10</title>
<g id="a_edge9_Node000001_Node000010"><a xlink:title=" ">
<path fill="none" stroke="#63b8ff" d="M671.98,-69.72C751.71,-62.42 894.69,-48.26 1016.25,-30.5 1022.79,-29.54 1029.63,-28.44 1036.42,-27.29"/>
<polygon fill="#63b8ff" stroke="#63b8ff" points="1036.99,-30.74 1046.24,-25.57 1035.79,-23.85 1036.99,-30.74"/>
</a>
</g>
</g>
<!-- Node11 -->
<g id="Node000011" class="node">
<title>Node11</title>
<g id="a_Node000011"><a xlink:title=" ">
<polygon fill="#e0e0e0" stroke="#999999" points="1221.25,-24.88 1181.25,-24.88 1181.25,-5.63 1221.25,-5.63 1221.25,-24.88"/>
<text text-anchor="middle" x="1201.25" y="-11.38" font-family="Helvetica,sans-Serif" font-size="10.00">string</text>
</a>
</g>
</g>
<!-- Node1&#45;&gt;Node11 -->
<g id="edge10_Node000001_Node000011" class="edge">
<title>Node1&#45;&gt;Node11</title>
<g id="a_edge10_Node000001_Node000011"><a xlink:title=" ">
<path fill="none" stroke="#63b8ff" d="M671.71,-73.16C797.31,-68.66 1079.4,-56 1172.25,-30.5 1173.22,-30.23 1174.2,-29.93 1175.17,-29.61"/>
<polygon fill="#63b8ff" stroke="#63b8ff" points="1176.12,-33 1184.02,-25.94 1173.44,-26.54 1176.12,-33"/>
</a>
</g>
</g>
</g>
</svg>
