<?xml version="1.0" encoding="UTF-8" standalone="no"?>
<!DOCTYPE svg PUBLIC "-//W3C//DTD SVG 1.1//EN"
 "http://www.w3.org/Graphics/SVG/1.1/DTD/svg11.dtd">
<!-- Generated by graphviz version 12.2.1 (20241206.2353)
 -->
<!-- Title: include/llzk/Analysis/DenseAnalysis.h Pages: 1 -->
<svg width="745pt" height="305pt"
 viewBox="0.00 0.00 744.88 304.50" xmlns="http://www.w3.org/2000/svg" xmlns:xlink="http://www.w3.org/1999/xlink">
<g id="graph0" class="graph" transform="scale(1 1) rotate(0) translate(4 300.5)">
<title>include/llzk/Analysis/DenseAnalysis.h</title>
<!-- Node1 -->
<g id="Node000001" class="node">
<title>Node1</title>
<g id="a_Node000001"><a xlink:title="This file implements (LLZK&#45;tailored) dense data&#45;flow analysis using the data&#45;flow analysis framework.">
<polygon fill="#999999" stroke="#666666" points="526.5,-296.5 421.25,-296.5 421.25,-266 526.5,-266 526.5,-296.5"/>
<text text-anchor="start" x="429.25" y="-283" font-family="Helvetica,sans-Serif" font-size="10.00">include/llzk/Analysis</text>
<text text-anchor="middle" x="473.88" y="-271.75" font-family="Helvetica,sans-Serif" font-size="10.00">/DenseAnalysis.h</text>
</a>
</g>
</g>
<!-- Node2 -->
<g id="Node000002" class="node">
<title>Node2</title>
<g id="a_Node000002"><a xlink:href="_analysis_wrappers_8h.html" target="_top" xlink:title="Convenience classes for a frequent pattern of dataflow analysis used in LLZK, where an analysis is ru...">
<polygon fill="white" stroke="#666666" points="356.88,-230 250.88,-230 250.88,-199.5 356.88,-199.5 356.88,-230"/>
<text text-anchor="start" x="258.88" y="-216.5" font-family="Helvetica,sans-Serif" font-size="10.00">include/llzk/Analysis</text>
<text text-anchor="middle" x="303.88" y="-205.25" font-family="Helvetica,sans-Serif" font-size="10.00">/AnalysisWrappers.h</text>
</a>
</g>
</g>
<!-- Node1&#45;&gt;Node2 -->
<g id="edge1_Node000001_Node000002" class="edge">
<title>Node1&#45;&gt;Node2</title>
<g id="a_edge1_Node000001_Node000002"><a xlink:title=" ">
<path fill="none" stroke="#63b8ff" d="M424.84,-261.65C398.7,-251.73 366.99,-239.7 342.59,-230.44"/>
<polygon fill="#63b8ff" stroke="#63b8ff" points="423.29,-264.8 433.88,-265.08 425.78,-258.26 423.29,-264.8"/>
</a>
</g>
</g>
<!-- Node4 -->
<g id="Node000004" class="node">
<title>Node4</title>
<g id="a_Node000004"><a xlink:href="_interval_analysis_8h.html" target="_top" xlink:title=" ">
<polygon fill="white" stroke="#666666" points="214.5,-97 109.25,-97 109.25,-66.5 214.5,-66.5 214.5,-97"/>
<text text-anchor="start" x="117.25" y="-83.5" font-family="Helvetica,sans-Serif" font-size="10.00">include/llzk/Analysis</text>
<text text-anchor="middle" x="161.88" y="-72.25" font-family="Helvetica,sans-Serif" font-size="10.00">/IntervalAnalysis.h</text>
</a>
</g>
</g>
<!-- Node1&#45;&gt;Node4 -->
<g id="edge14_Node000001_Node000004" class="edge">
<title>Node1&#45;&gt;Node4</title>
<g id="a_edge14_Node000001_Node000004"><a xlink:title=" ">
<path fill="none" stroke="#63b8ff" d="M409.71,-279.36C359.97,-275.77 291.4,-264.25 241.88,-230 194.74,-197.4 172.77,-127.77 165.15,-97.41"/>
<polygon fill="#63b8ff" stroke="#63b8ff" points="409.27,-282.83 419.47,-279.96 409.7,-275.85 409.27,-282.83"/>
</a>
</g>
</g>
<!-- Node7 -->
<g id="Node000007" class="node">
<title>Node7</title>
<g id="a_Node000007"><a xlink:href="_constrain_ref_lattice_8cpp.html" target="_top" xlink:title=" ">
<polygon fill="white" stroke="#666666" points="733.38,-97 606.38,-97 606.38,-66.5 733.38,-66.5 733.38,-97"/>
<text text-anchor="start" x="614.38" y="-83.5" font-family="Helvetica,sans-Serif" font-size="10.00">lib/Analysis/ConstrainRef</text>
<text text-anchor="middle" x="669.88" y="-72.25" font-family="Helvetica,sans-Serif" font-size="10.00">Lattice.cpp</text>
</a>
</g>
</g>
<!-- Node1&#45;&gt;Node7 -->
<g id="edge15_Node000001_Node000007" class="edge">
<title>Node1&#45;&gt;Node7</title>
<g id="a_edge15_Node000001_Node000007"><a xlink:title=" ">
<path fill="none" stroke="#63b8ff" d="M496.25,-257.71C536.85,-216.8 621.58,-131.41 655.44,-97.29"/>
<polygon fill="#63b8ff" stroke="#63b8ff" points="493.91,-255.09 489.35,-264.65 498.88,-260.02 493.91,-255.09"/>
</a>
</g>
</g>
<!-- Node8 -->
<g id="Node000008" class="node">
<title>Node8</title>
<g id="a_Node000008"><a xlink:href="_constraint_dependency_graph_8cpp.html" target="_top" xlink:title=" ">
<polygon fill="white" stroke="#666666" points="588.38,-97 419.38,-97 419.38,-66.5 588.38,-66.5 588.38,-97"/>
<text text-anchor="start" x="427.38" y="-83.5" font-family="Helvetica,sans-Serif" font-size="10.00">lib/Analysis/ConstraintDependency</text>
<text text-anchor="middle" x="503.88" y="-72.25" font-family="Helvetica,sans-Serif" font-size="10.00">Graph.cpp</text>
</a>
</g>
</g>
<!-- Node1&#45;&gt;Node8 -->
<g id="edge16_Node000001_Node000008" class="edge">
<title>Node1&#45;&gt;Node8</title>
<g id="a_edge16_Node000001_Node000008"><a xlink:title=" ">
<path fill="none" stroke="#63b8ff" d="M487.98,-255.82C491.91,-247.84 495.7,-238.77 497.88,-230 509.64,-182.57 507.19,-123.95 505.19,-97.23"/>
<polygon fill="#63b8ff" stroke="#63b8ff" points="484.94,-254.07 483.37,-264.55 491.13,-257.34 484.94,-254.07"/>
</a>
</g>
</g>
<!-- Node10 -->
<g id="Node000010" class="node">
<title>Node10</title>
<g id="a_Node000010"><a xlink:href="_constrain_ref_lattice_8h.html" target="_top" xlink:title=" ">
<polygon fill="white" stroke="#666666" points="489,-230 374.75,-230 374.75,-199.5 489,-199.5 489,-230"/>
<text text-anchor="start" x="382.75" y="-216.5" font-family="Helvetica,sans-Serif" font-size="10.00">include/llzk/Analysis</text>
<text text-anchor="middle" x="431.88" y="-205.25" font-family="Helvetica,sans-Serif" font-size="10.00">/ConstrainRefLattice.h</text>
</a>
</g>
</g>
<!-- Node1&#45;&gt;Node10 -->
<g id="edge10_Node000001_Node000010" class="edge">
<title>Node1&#45;&gt;Node10</title>
<g id="a_edge10_Node000001_Node000010"><a xlink:title=" ">
<path fill="none" stroke="#63b8ff" d="M458.09,-256.01C452.46,-247.37 446.3,-237.91 441.37,-230.33"/>
<polygon fill="#63b8ff" stroke="#63b8ff" points="455.13,-257.88 463.52,-264.35 460.99,-254.06 455.13,-257.88"/>
</a>
</g>
</g>
<!-- Node11 -->
<g id="Node000011" class="node">
<title>Node11</title>
<g id="a_Node000011"><a xlink:href="_dense_analysis_8cpp.html" target="_top" xlink:title=" ">
<polygon fill="white" stroke="#666666" points="736.88,-224.38 582.88,-224.38 582.88,-205.12 736.88,-205.12 736.88,-224.38"/>
<text text-anchor="middle" x="659.88" y="-210.88" font-family="Helvetica,sans-Serif" font-size="10.00">lib/Analysis/DenseAnalysis.cpp</text>
</a>
</g>
</g>
<!-- Node1&#45;&gt;Node11 -->
<g id="edge17_Node000001_Node000011" class="edge">
<title>Node1&#45;&gt;Node11</title>
<g id="a_edge17_Node000001_Node000011"><a xlink:title=" ">
<path fill="none" stroke="#63b8ff" d="M526.6,-261.97C561.56,-249.84 605.93,-234.46 633.62,-224.85"/>
<polygon fill="#63b8ff" stroke="#63b8ff" points="525.81,-258.53 517.51,-265.12 528.11,-265.15 525.81,-258.53"/>
</a>
</g>
</g>
<!-- Node3 -->
<g id="Node000003" class="node">
<title>Node3</title>
<g id="a_Node000003"><a xlink:href="_constraint_dependency_graph_8h.html" target="_top" xlink:title=" ">
<polygon fill="white" stroke="#666666" points="394.5,-163.5 241.25,-163.5 241.25,-133 394.5,-133 394.5,-163.5"/>
<text text-anchor="start" x="249.25" y="-150" font-family="Helvetica,sans-Serif" font-size="10.00">include/llzk/Analysis</text>
<text text-anchor="middle" x="317.88" y="-138.75" font-family="Helvetica,sans-Serif" font-size="10.00">/ConstraintDependencyGraph.h</text>
</a>
</g>
</g>
<!-- Node2&#45;&gt;Node3 -->
<g id="edge2_Node000002_Node000003" class="edge">
<title>Node2&#45;&gt;Node3</title>
<g id="a_edge2_Node000002_Node000003"><a xlink:title=" ">
<path fill="none" stroke="#63b8ff" d="M309.44,-188.09C311.23,-179.84 313.16,-170.99 314.71,-163.83"/>
<polygon fill="#63b8ff" stroke="#63b8ff" points="306.07,-187.12 307.37,-197.63 312.91,-188.6 306.07,-187.12"/>
</a>
</g>
</g>
<!-- Node2&#45;&gt;Node4 -->
<g id="edge9_Node000002_Node000004" class="edge">
<title>Node2&#45;&gt;Node4</title>
<g id="a_edge9_Node000002_Node000004"><a xlink:title=" ">
<path fill="none" stroke="#63b8ff" d="M270.47,-192.95C257.85,-184.47 243.7,-174.15 231.88,-163.5 208.71,-142.65 185.8,-114.39 172.79,-97.42"/>
<polygon fill="#63b8ff" stroke="#63b8ff" points="268.21,-195.66 278.49,-198.23 272.06,-189.81 268.21,-195.66"/>
</a>
</g>
</g>
<!-- Node3&#45;&gt;Node4 -->
<g id="edge3_Node000003_Node000004" class="edge">
<title>Node3&#45;&gt;Node4</title>
<g id="a_edge3_Node000003_Node000004"><a xlink:title=" ">
<path fill="none" stroke="#63b8ff" d="M271.92,-128.25C248.11,-118.41 219.49,-106.57 197.4,-97.44"/>
<polygon fill="#63b8ff" stroke="#63b8ff" points="270.5,-131.45 281.08,-132.04 273.17,-124.98 270.5,-131.45"/>
</a>
</g>
</g>
<!-- Node3&#45;&gt;Node7 -->
<g id="edge6_Node000003_Node000007" class="edge">
<title>Node3&#45;&gt;Node7</title>
<g id="a_edge6_Node000003_Node000007"><a xlink:title=" ">
<path fill="none" stroke="#63b8ff" d="M406.04,-131.84C461.21,-122.1 533.74,-109.1 597.88,-97 600.5,-96.5 603.19,-95.99 605.9,-95.47"/>
<polygon fill="#63b8ff" stroke="#63b8ff" points="405.63,-128.36 396.39,-133.55 406.84,-135.25 405.63,-128.36"/>
</a>
</g>
</g>
<!-- Node3&#45;&gt;Node8 -->
<g id="edge7_Node000003_Node000008" class="edge">
<title>Node3&#45;&gt;Node8</title>
<g id="a_edge7_Node000003_Node000008"><a xlink:title=" ">
<path fill="none" stroke="#63b8ff" d="M370.76,-128.91C399.51,-118.94 434.59,-106.78 461.51,-97.44"/>
<polygon fill="#63b8ff" stroke="#63b8ff" points="369.81,-125.53 361.51,-132.12 372.11,-132.15 369.81,-125.53"/>
</a>
</g>
</g>
<!-- Node9 -->
<g id="Node000009" class="node">
<title>Node9</title>
<g id="a_Node000009"><a xlink:href="_constraint_dependency_graph_pass_8cpp.html" target="_top" xlink:title="This file implements the &#45;llzk&#45;print&#45;constraint&#45;dependency&#45;graphs pass.">
<polygon fill="white" stroke="#666666" points="401.38,-97 232.38,-97 232.38,-66.5 401.38,-66.5 401.38,-97"/>
<text text-anchor="start" x="240.38" y="-83.5" font-family="Helvetica,sans-Serif" font-size="10.00">lib/Analysis/ConstraintDependency</text>
<text text-anchor="middle" x="316.88" y="-72.25" font-family="Helvetica,sans-Serif" font-size="10.00">GraphPass.cpp</text>
</a>
</g>
</g>
<!-- Node3&#45;&gt;Node9 -->
<g id="edge8_Node000003_Node000009" class="edge">
<title>Node3&#45;&gt;Node9</title>
<g id="a_edge8_Node000003_Node000009"><a xlink:title=" ">
<path fill="none" stroke="#63b8ff" d="M317.47,-121.31C317.35,-113.14 317.21,-104.41 317.1,-97.33"/>
<polygon fill="#63b8ff" stroke="#63b8ff" points="313.97,-121.16 317.62,-131.1 320.97,-121.05 313.97,-121.16"/>
</a>
</g>
</g>
<!-- Node5 -->
<g id="Node000005" class="node">
<title>Node5</title>
<g id="a_Node000005"><a xlink:href="_interval_analysis_8cpp.html" target="_top" xlink:title=" ">
<polygon fill="white" stroke="#666666" points="157.75,-24.88 0,-24.88 0,-5.63 157.75,-5.63 157.75,-24.88"/>
<text text-anchor="middle" x="78.88" y="-11.38" font-family="Helvetica,sans-Serif" font-size="10.00">lib/Analysis/IntervalAnalysis.cpp</text>
</a>
</g>
</g>
<!-- Node4&#45;&gt;Node5 -->
<g id="edge4_Node000004_Node000005" class="edge">
<title>Node4&#45;&gt;Node5</title>
<g id="a_edge4_Node000004_Node000005"><a xlink:title=" ">
<path fill="none" stroke="#63b8ff" d="M134.14,-59.2C119.16,-47.56 101.48,-33.82 90.23,-25.07"/>
<polygon fill="#63b8ff" stroke="#63b8ff" points="131.8,-61.81 141.85,-65.19 136.1,-56.29 131.8,-61.81"/>
</a>
</g>
</g>
<!-- Node6 -->
<g id="Node000006" class="node">
<title>Node6</title>
<g id="a_Node000006"><a xlink:href="_interval_analysis_pass_8cpp.html" target="_top" xlink:title="This file implements the &#45;llzk&#45;print&#45;interval&#45;analysis pass.">
<polygon fill="white" stroke="#666666" points="314.38,-30.5 175.38,-30.5 175.38,0 314.38,0 314.38,-30.5"/>
<text text-anchor="start" x="183.38" y="-17" font-family="Helvetica,sans-Serif" font-size="10.00">lib/Analysis/IntervalAnalysis</text>
<text text-anchor="middle" x="244.88" y="-5.75" font-family="Helvetica,sans-Serif" font-size="10.00">Pass.cpp</text>
</a>
</g>
</g>
<!-- Node4&#45;&gt;Node6 -->
<g id="edge5_Node000004_Node000006" class="edge">
<title>Node4&#45;&gt;Node6</title>
<g id="a_edge5_Node000004_Node000006"><a xlink:title=" ">
<path fill="none" stroke="#63b8ff" d="M189.49,-59.29C201.52,-49.94 215.3,-39.23 226.12,-30.83"/>
<polygon fill="#63b8ff" stroke="#63b8ff" points="187.65,-56.29 181.9,-65.19 191.95,-61.81 187.65,-56.29"/>
</a>
</g>
</g>
<!-- Node10&#45;&gt;Node3 -->
<g id="edge11_Node000010_Node000003" class="edge">
<title>Node10&#45;&gt;Node3</title>
<g id="a_edge11_Node000010_Node000003"><a xlink:title=" ">
<path fill="none" stroke="#63b8ff" d="M396.36,-193.66C379.3,-184 359.22,-172.64 343.64,-163.83"/>
<polygon fill="#63b8ff" stroke="#63b8ff" points="394.26,-196.49 404.69,-198.37 397.71,-190.4 394.26,-196.49"/>
</a>
</g>
</g>
<!-- Node10&#45;&gt;Node7 -->
<g id="edge12_Node000010_Node000007" class="edge">
<title>Node10&#45;&gt;Node7</title>
<g id="a_edge12_Node000010_Node000007"><a xlink:title=" ">
<path fill="none" stroke="#63b8ff" d="M457.38,-191.79C478.66,-174.23 510.35,-149.86 540.88,-133 567.07,-118.54 598.3,-106.25 623.47,-97.46"/>
<polygon fill="#63b8ff" stroke="#63b8ff" points="455.24,-189.02 449.81,-198.12 459.73,-194.39 455.24,-189.02"/>
</a>
</g>
</g>
<!-- Node10&#45;&gt;Node8 -->
<g id="edge13_Node000010_Node000008" class="edge">
<title>Node10&#45;&gt;Node8</title>
<g id="a_edge13_Node000010_Node000008"><a xlink:title=" ">
<path fill="none" stroke="#63b8ff" d="M439.8,-188.27C445.41,-171.91 453.72,-150.54 463.88,-133 471.36,-120.07 481.97,-106.91 490.38,-97.3"/>
<polygon fill="#63b8ff" stroke="#63b8ff" points="436.49,-187.13 436.69,-197.72 443.14,-189.32 436.49,-187.13"/>
</a>
</g>
</g>
</g>
</svg>
