<?xml version="1.0" encoding="UTF-8" standalone="no"?>
<!DOCTYPE svg PUBLIC "-//W3C//DTD SVG 1.1//EN"
 "http://www.w3.org/Graphics/SVG/1.1/DTD/svg11.dtd">
<!-- Generated by graphviz version 12.2.1 (20241206.2353)
 -->
<!-- Title: include/llzk/Dialect/Bool/IR/Enums.h Pages: 1 -->
<svg width="670pt" height="105pt"
 viewBox="0.00 0.00 669.50 105.00" xmlns="http://www.w3.org/2000/svg" xmlns:xlink="http://www.w3.org/1999/xlink">
<g id="graph0" class="graph" transform="scale(1 1) rotate(0) translate(4 101)">
<title>include/llzk/Dialect/Bool/IR/Enums.h</title>
<!-- Node1 -->
<g id="Node000001" class="node">
<title>Node1</title>
<g id="a_Node000001"><a xlink:title=" ">
<polygon fill="#999999" stroke="#666666" points="380.38,-97 281.88,-97 281.88,-66.5 380.38,-66.5 380.38,-97"/>
<text text-anchor="start" x="289.88" y="-83.5" font-family="Helvetica,sans-Serif" font-size="10.00">include/llzk/Dialect</text>
<text text-anchor="middle" x="331.12" y="-72.25" font-family="Helvetica,sans-Serif" font-size="10.00">/Bool/IR/Enums.h</text>
</a>
</g>
</g>
<!-- Node2 -->
<g id="Node000002" class="node">
<title>Node2</title>
<g id="a_Node000002"><a xlink:title=" ">
<polygon fill="#e0e0e0" stroke="#999999" points="108.25,-24.88 0,-24.88 0,-5.63 108.25,-5.63 108.25,-24.88"/>
<text text-anchor="middle" x="54.12" y="-11.38" font-family="Helvetica,sans-Serif" font-size="10.00">mlir/IR/Diagnostics.h</text>
</a>
</g>
</g>
<!-- Node1&#45;&gt;Node2 -->
<g id="edge1_Node000001_Node000002" class="edge">
<title>Node1&#45;&gt;Node2</title>
<g id="a_edge1_Node000001_Node000002"><a xlink:title=" ">
<path fill="none" stroke="#63b8ff" d="M281.6,-69.22C231.4,-57.53 154.15,-39.54 103.87,-27.83"/>
<polygon fill="#63b8ff" stroke="#63b8ff" points="104.96,-24.49 94.42,-25.63 103.37,-31.31 104.96,-24.49"/>
</a>
</g>
</g>
<!-- Node3 -->
<g id="Node000003" class="node">
<title>Node3</title>
<g id="a_Node000003"><a xlink:title=" ">
<polygon fill="#e0e0e0" stroke="#999999" points="258.25,-24.88 126,-24.88 126,-5.63 258.25,-5.63 258.25,-24.88"/>
<text text-anchor="middle" x="192.12" y="-11.38" font-family="Helvetica,sans-Serif" font-size="10.00">llvm/ADT/DenseMapInfo.h</text>
</a>
</g>
</g>
<!-- Node1&#45;&gt;Node3 -->
<g id="edge2_Node000001_Node000003" class="edge">
<title>Node1&#45;&gt;Node3</title>
<g id="a_edge2_Node000001_Node000003"><a xlink:title=" ">
<path fill="none" stroke="#63b8ff" d="M299.58,-66.11C276.21,-55.27 244.58,-40.59 221.69,-29.97"/>
<polygon fill="#63b8ff" stroke="#63b8ff" points="223.46,-26.93 212.91,-25.9 220.51,-33.28 223.46,-26.93"/>
</a>
</g>
</g>
<!-- Node4 -->
<g id="Node000004" class="node">
<title>Node4</title>
<g id="a_Node000004"><a xlink:title=" ">
<polygon fill="#e0e0e0" stroke="#999999" points="386,-24.88 276.25,-24.88 276.25,-5.63 386,-5.63 386,-24.88"/>
<text text-anchor="middle" x="331.12" y="-11.38" font-family="Helvetica,sans-Serif" font-size="10.00">llvm/ADT/StringRef.h</text>
</a>
</g>
</g>
<!-- Node1&#45;&gt;Node4 -->
<g id="edge3_Node000001_Node000004" class="edge">
<title>Node1&#45;&gt;Node4</title>
<g id="a_edge3_Node000001_Node000004"><a xlink:title=" ">
<path fill="none" stroke="#63b8ff" d="M331.12,-66.11C331.12,-57.33 331.12,-46.02 331.12,-36.4"/>
<polygon fill="#63b8ff" stroke="#63b8ff" points="334.63,-36.59 331.13,-26.59 327.63,-36.59 334.63,-36.59"/>
</a>
</g>
</g>
<!-- Node5 -->
<g id="Node000005" class="node">
<title>Node5</title>
<g id="a_Node000005"><a xlink:title=" ">
<polygon fill="#e0e0e0" stroke="#999999" points="542.25,-24.88 404,-24.88 404,-5.63 542.25,-5.63 542.25,-24.88"/>
<text text-anchor="middle" x="473.12" y="-11.38" font-family="Helvetica,sans-Serif" font-size="10.00">llvm/Support/raw_ostream.h</text>
</a>
</g>
</g>
<!-- Node1&#45;&gt;Node5 -->
<g id="edge4_Node000001_Node000005" class="edge">
<title>Node1&#45;&gt;Node5</title>
<g id="a_edge4_Node000001_Node000005"><a xlink:title=" ">
<path fill="none" stroke="#63b8ff" d="M363.35,-66.11C387.22,-55.27 419.54,-40.59 442.92,-29.97"/>
<polygon fill="#63b8ff" stroke="#63b8ff" points="444.25,-33.21 451.91,-25.89 441.36,-26.83 444.25,-33.21"/>
</a>
</g>
</g>
<!-- Node6 -->
<g id="Node000006" class="node">
<title>Node6</title>
<g id="a_Node000006"><a xlink:href="_enums_8h_8inc.html" target="_top" xlink:title=" ">
<polygon fill="white" stroke="#666666" points="661.5,-30.5 560.75,-30.5 560.75,0 661.5,0 661.5,-30.5"/>
<text text-anchor="start" x="568.75" y="-17" font-family="Helvetica,sans-Serif" font-size="10.00">llzk/Dialect/Bool/IR</text>
<text text-anchor="middle" x="611.12" y="-5.75" font-family="Helvetica,sans-Serif" font-size="10.00">/Enums.h.inc</text>
</a>
</g>
</g>
<!-- Node1&#45;&gt;Node6 -->
<g id="edge5_Node000001_Node000006" class="edge">
<title>Node1&#45;&gt;Node6</title>
<g id="a_edge5_Node000001_Node000006"><a xlink:title=" ">
<path fill="none" stroke="#63b8ff" d="M380.52,-69.6C422.69,-60.04 485.25,-45.81 549.27,-30.92"/>
<polygon fill="#63b8ff" stroke="#63b8ff" points="549.97,-34.35 558.92,-28.67 548.39,-27.53 549.97,-34.35"/>
</a>
</g>
</g>
</g>
</svg>
