<?xml version="1.0" encoding="UTF-8" standalone="no"?>
<!DOCTYPE svg PUBLIC "-//W3C//DTD SVG 1.1//EN"
 "http://www.w3.org/Graphics/SVG/1.1/DTD/svg11.dtd">
<!-- Generated by graphviz version 12.2.1 (20241206.2353)
 -->
<!-- Title: lib/Dialect/Felt/IR/Dialect.cpp Pages: 1 -->
<svg width="1638pt" height="305pt"
 viewBox="0.00 0.00 1638.12 304.50" xmlns="http://www.w3.org/2000/svg" xmlns:xlink="http://www.w3.org/1999/xlink">
<g id="graph0" class="graph" transform="scale(1 1) rotate(0) translate(4 300.5)">
<title>lib/Dialect/Felt/IR/Dialect.cpp</title>
<!-- Node1 -->
<g id="Node000001" class="node">
<title>Node1</title>
<g id="a_Node000001"><a xlink:title=" ">
<polygon fill="#999999" stroke="#666666" points="960.5,-296.5 868,-296.5 868,-266 960.5,-266 960.5,-296.5"/>
<text text-anchor="start" x="876" y="-283" font-family="Helvetica,sans-Serif" font-size="10.00">lib/Dialect/Felt/IR</text>
<text text-anchor="middle" x="914.25" y="-271.75" font-family="Helvetica,sans-Serif" font-size="10.00">/Dialect.cpp</text>
</a>
</g>
</g>
<!-- Node2 -->
<g id="Node000002" class="node">
<title>Node2</title>
<g id="a_Node000002"><a xlink:href="_felt_2_i_r_2_attrs_8h.html" target="_top" xlink:title=" ">
<polygon fill="white" stroke="#666666" points="344.12,-163.5 246.38,-163.5 246.38,-133 344.12,-133 344.12,-163.5"/>
<text text-anchor="start" x="254.38" y="-150" font-family="Helvetica,sans-Serif" font-size="10.00">llzk/Dialect/Felt/IR</text>
<text text-anchor="middle" x="295.25" y="-138.75" font-family="Helvetica,sans-Serif" font-size="10.00">/Attrs.h</text>
</a>
</g>
</g>
<!-- Node1&#45;&gt;Node2 -->
<g id="edge1_Node000001_Node000002" class="edge">
<title>Node1&#45;&gt;Node2</title>
<g id="a_edge1_Node000001_Node000002"><a xlink:title=" ">
<path fill="none" stroke="#63b8ff" d="M867.76,-280.67C750.65,-281.02 446.6,-277.2 359.25,-230 336.12,-217.5 318.45,-192.74 307.6,-173.91"/>
<polygon fill="#63b8ff" stroke="#63b8ff" points="310.73,-172.35 302.87,-165.25 304.59,-175.7 310.73,-172.35"/>
</a>
</g>
</g>
<!-- Node6 -->
<g id="Node000006" class="node">
<title>Node6</title>
<g id="a_Node000006"><a xlink:href="_felt_2_i_r_2_dialect_8h.html" target="_top" xlink:title=" ">
<polygon fill="white" stroke="#666666" points="460.12,-97 362.38,-97 362.38,-66.5 460.12,-66.5 460.12,-97"/>
<text text-anchor="start" x="370.38" y="-83.5" font-family="Helvetica,sans-Serif" font-size="10.00">llzk/Dialect/Felt/IR</text>
<text text-anchor="middle" x="411.25" y="-72.25" font-family="Helvetica,sans-Serif" font-size="10.00">/Dialect.h</text>
</a>
</g>
</g>
<!-- Node1&#45;&gt;Node6 -->
<g id="edge5_Node000001_Node000006" class="edge">
<title>Node1&#45;&gt;Node6</title>
<g id="a_edge5_Node000001_Node000006"><a xlink:title=" ">
<path fill="none" stroke="#63b8ff" d="M867.78,-280.62C792.43,-279.85 639.85,-272.56 519.25,-230 466.09,-211.24 438.74,-212.71 411.25,-163.5 401.95,-146.86 402.53,-125.11 405.12,-108.38"/>
<polygon fill="#63b8ff" stroke="#63b8ff" points="408.53,-109.19 406.96,-98.71 401.65,-107.88 408.53,-109.19"/>
</a>
</g>
</g>
<!-- Node9 -->
<g id="Node000009" class="node">
<title>Node9</title>
<g id="a_Node000009"><a xlink:href="_felt_2_i_r_2_ops_8h.html" target="_top" xlink:title=" ">
<polygon fill="white" stroke="#666666" points="665.12,-230 567.38,-230 567.38,-199.5 665.12,-199.5 665.12,-230"/>
<text text-anchor="start" x="575.38" y="-216.5" font-family="Helvetica,sans-Serif" font-size="10.00">llzk/Dialect/Felt/IR</text>
<text text-anchor="middle" x="616.25" y="-205.25" font-family="Helvetica,sans-Serif" font-size="10.00">/Ops.h</text>
</a>
</g>
</g>
<!-- Node1&#45;&gt;Node9 -->
<g id="edge8_Node000001_Node000009" class="edge">
<title>Node1&#45;&gt;Node9</title>
<g id="a_edge8_Node000001_Node000009"><a xlink:title=" ">
<path fill="none" stroke="#63b8ff" d="M867.69,-270.17C816.12,-259.01 732.83,-240.98 676.38,-228.76"/>
<polygon fill="#63b8ff" stroke="#63b8ff" points="677.45,-225.42 666.94,-226.72 675.97,-232.26 677.45,-225.42"/>
</a>
</g>
</g>
<!-- Node10 -->
<g id="Node000010" class="node">
<title>Node10</title>
<g id="a_Node000010"><a xlink:href="_felt_2_i_r_2_types_8h.html" target="_top" xlink:title=" ">
<polygon fill="white" stroke="#666666" points="537.12,-163.5 439.38,-163.5 439.38,-133 537.12,-133 537.12,-163.5"/>
<text text-anchor="start" x="447.38" y="-150" font-family="Helvetica,sans-Serif" font-size="10.00">llzk/Dialect/Felt/IR</text>
<text text-anchor="middle" x="488.25" y="-138.75" font-family="Helvetica,sans-Serif" font-size="10.00">/Types.h</text>
</a>
</g>
</g>
<!-- Node1&#45;&gt;Node10 -->
<g id="edge21_Node000001_Node000010" class="edge">
<title>Node1&#45;&gt;Node10</title>
<g id="a_edge21_Node000001_Node000010"><a xlink:title=" ">
<path fill="none" stroke="#63b8ff" d="M867.51,-277.71C783.46,-272.48 610.68,-258.53 558.25,-230 534.19,-216.9 514.6,-192.05 502.32,-173.36"/>
<polygon fill="#63b8ff" stroke="#63b8ff" points="505.36,-171.62 497.08,-165.01 499.43,-175.34 505.36,-171.62"/>
</a>
</g>
</g>
<!-- Node18 -->
<g id="Node000018" class="node">
<title>Node18</title>
<g id="a_Node000018"><a xlink:href="_attribute_helper_8h.html" target="_top" xlink:title=" ">
<polygon fill="white" stroke="#666666" points="905.5,-230 801,-230 801,-199.5 905.5,-199.5 905.5,-230"/>
<text text-anchor="start" x="809" y="-216.5" font-family="Helvetica,sans-Serif" font-size="10.00">llzk/Dialect/LLZK/IR</text>
<text text-anchor="middle" x="853.25" y="-205.25" font-family="Helvetica,sans-Serif" font-size="10.00">/AttributeHelper.h</text>
</a>
</g>
</g>
<!-- Node1&#45;&gt;Node18 -->
<g id="edge22_Node000001_Node000018" class="edge">
<title>Node1&#45;&gt;Node18</title>
<g id="a_edge22_Node000001_Node000018"><a xlink:title=" ">
<path fill="none" stroke="#63b8ff" d="M900.41,-265.61C892.84,-257.61 883.31,-247.53 874.79,-238.53"/>
<polygon fill="#63b8ff" stroke="#63b8ff" points="877.49,-236.29 868.08,-231.43 872.41,-241.1 877.49,-236.29"/>
</a>
</g>
</g>
<!-- Node19 -->
<g id="Node000019" class="node">
<title>Node19</title>
<g id="a_Node000019"><a xlink:title=" ">
<polygon fill="#e0e0e0" stroke="#999999" points="1011.25,-157.88 857.25,-157.88 857.25,-138.62 1011.25,-138.62 1011.25,-157.88"/>
<text text-anchor="middle" x="934.25" y="-144.38" font-family="Helvetica,sans-Serif" font-size="10.00">mlir/IR/DialectImplementation.h</text>
</a>
</g>
</g>
<!-- Node1&#45;&gt;Node19 -->
<g id="edge27_Node000001_Node000019" class="edge">
<title>Node1&#45;&gt;Node19</title>
<g id="a_edge27_Node000001_Node000019"><a xlink:title=" ">
<path fill="none" stroke="#63b8ff" d="M867.78,-269.29C824,-256.66 768.42,-233.2 792.25,-199.5 803.02,-184.26 845.93,-170.39 881.78,-161.11"/>
<polygon fill="#63b8ff" stroke="#63b8ff" points="882.33,-164.58 891.17,-158.74 880.62,-157.79 882.33,-164.58"/>
</a>
</g>
</g>
<!-- Node21 -->
<g id="Node000021" class="node">
<title>Node21</title>
<g id="a_Node000021"><a xlink:href="_versioning_8h.html" target="_top" xlink:title=" ">
<polygon fill="white" stroke="#666666" points="1028.5,-230 924,-230 924,-199.5 1028.5,-199.5 1028.5,-230"/>
<text text-anchor="start" x="932" y="-216.5" font-family="Helvetica,sans-Serif" font-size="10.00">llzk/Dialect/LLZK/IR</text>
<text text-anchor="middle" x="976.25" y="-205.25" font-family="Helvetica,sans-Serif" font-size="10.00">/Versioning.h</text>
</a>
</g>
</g>
<!-- Node1&#45;&gt;Node21 -->
<g id="edge25_Node000001_Node000021" class="edge">
<title>Node1&#45;&gt;Node21</title>
<g id="a_edge25_Node000001_Node000021"><a xlink:title=" ">
<path fill="none" stroke="#63b8ff" d="M928.32,-265.61C936.01,-257.61 945.7,-247.53 954.36,-238.53"/>
<polygon fill="#63b8ff" stroke="#63b8ff" points="956.78,-241.05 961.19,-231.42 951.73,-236.2 956.78,-241.05"/>
</a>
</g>
</g>
<!-- Node23 -->
<g id="Node000023" class="node">
<title>Node23</title>
<g id="a_Node000023"><a xlink:title=" ">
<polygon fill="#e0e0e0" stroke="#999999" points="1166,-224.38 1046.5,-224.38 1046.5,-205.12 1166,-205.12 1166,-224.38"/>
<text text-anchor="middle" x="1106.25" y="-210.88" font-family="Helvetica,sans-Serif" font-size="10.00">llvm/ADT/TypeSwitch.h</text>
</a>
</g>
</g>
<!-- Node1&#45;&gt;Node23 -->
<g id="edge28_Node000001_Node000023" class="edge">
<title>Node1&#45;&gt;Node23</title>
<g id="a_edge28_Node000001_Node000023"><a xlink:title=" ">
<path fill="none" stroke="#63b8ff" d="M957.82,-265.61C991.17,-254.41 1036.71,-239.11 1068.51,-228.43"/>
<polygon fill="#63b8ff" stroke="#63b8ff" points="1069.35,-231.84 1077.72,-225.34 1067.12,-225.2 1069.35,-231.84"/>
</a>
</g>
</g>
<!-- Node24 -->
<g id="Node000024" class="node">
<title>Node24</title>
<g id="a_Node000024"><a xlink:href="_felt_2_i_r_2_dialect_8cpp_8inc.html" target="_top" xlink:title=" ">
<polygon fill="white" stroke="#666666" points="1282.12,-230 1184.38,-230 1184.38,-199.5 1282.12,-199.5 1282.12,-230"/>
<text text-anchor="start" x="1192.38" y="-216.5" font-family="Helvetica,sans-Serif" font-size="10.00">llzk/Dialect/Felt/IR</text>
<text text-anchor="middle" x="1233.25" y="-205.25" font-family="Helvetica,sans-Serif" font-size="10.00">/Dialect.cpp.inc</text>
</a>
</g>
</g>
<!-- Node1&#45;&gt;Node24 -->
<g id="edge29_Node000001_Node000024" class="edge">
<title>Node1&#45;&gt;Node24</title>
<g id="a_edge29_Node000001_Node000024"><a xlink:title=" ">
<path fill="none" stroke="#63b8ff" d="M960.6,-272.06C1010.65,-263.05 1092.97,-247.77 1173.15,-230.4"/>
<polygon fill="#63b8ff" stroke="#63b8ff" points="1173.43,-233.92 1182.45,-228.37 1171.93,-227.08 1173.43,-233.92"/>
</a>
</g>
</g>
<!-- Node25 -->
<g id="Node000025" class="node">
<title>Node25</title>
<g id="a_Node000025"><a xlink:href="_felt_2_i_r_2_types_8cpp_8inc.html" target="_top" xlink:title=" ">
<polygon fill="white" stroke="#666666" points="1398.12,-230 1300.38,-230 1300.38,-199.5 1398.12,-199.5 1398.12,-230"/>
<text text-anchor="start" x="1308.38" y="-216.5" font-family="Helvetica,sans-Serif" font-size="10.00">llzk/Dialect/Felt/IR</text>
<text text-anchor="middle" x="1349.25" y="-205.25" font-family="Helvetica,sans-Serif" font-size="10.00">/Types.cpp.inc</text>
</a>
</g>
</g>
<!-- Node1&#45;&gt;Node25 -->
<g id="edge30_Node000001_Node000025" class="edge">
<title>Node1&#45;&gt;Node25</title>
<g id="a_edge30_Node000001_Node000025"><a xlink:title=" ">
<path fill="none" stroke="#63b8ff" d="M960.94,-275.67C1030.34,-268.51 1164.98,-253.24 1288.79,-230.34"/>
<polygon fill="#63b8ff" stroke="#63b8ff" points="1289.3,-233.8 1298.48,-228.52 1288.01,-226.92 1289.3,-233.8"/>
</a>
</g>
</g>
<!-- Node26 -->
<g id="Node000026" class="node">
<title>Node26</title>
<g id="a_Node000026"><a xlink:href="_felt_2_i_r_2_attrs_8cpp_8inc.html" target="_top" xlink:title=" ">
<polygon fill="white" stroke="#666666" points="1514.12,-230 1416.38,-230 1416.38,-199.5 1514.12,-199.5 1514.12,-230"/>
<text text-anchor="start" x="1424.38" y="-216.5" font-family="Helvetica,sans-Serif" font-size="10.00">llzk/Dialect/Felt/IR</text>
<text text-anchor="middle" x="1465.25" y="-205.25" font-family="Helvetica,sans-Serif" font-size="10.00">/Attrs.cpp.inc</text>
</a>
</g>
</g>
<!-- Node1&#45;&gt;Node26 -->
<g id="edge31_Node000001_Node000026" class="edge">
<title>Node1&#45;&gt;Node26</title>
<g id="a_edge31_Node000001_Node000026"><a xlink:title=" ">
<path fill="none" stroke="#63b8ff" d="M960.76,-277.68C1046.62,-272.46 1235.92,-258.77 1404.65,-230.29"/>
<polygon fill="#63b8ff" stroke="#63b8ff" points="1405.23,-233.74 1414.5,-228.6 1404.05,-226.84 1405.23,-233.74"/>
</a>
</g>
</g>
<!-- Node27 -->
<g id="Node000027" class="node">
<title>Node27</title>
<g id="a_Node000027"><a xlink:href="_felt_2_i_r_2_ops_8cpp_8inc.html" target="_top" xlink:title=" ">
<polygon fill="white" stroke="#666666" points="1630.12,-230 1532.38,-230 1532.38,-199.5 1630.12,-199.5 1630.12,-230"/>
<text text-anchor="start" x="1540.38" y="-216.5" font-family="Helvetica,sans-Serif" font-size="10.00">llzk/Dialect/Felt/IR</text>
<text text-anchor="middle" x="1581.25" y="-205.25" font-family="Helvetica,sans-Serif" font-size="10.00">/Ops.cpp.inc</text>
</a>
</g>
</g>
<!-- Node1&#45;&gt;Node27 -->
<g id="edge32_Node000001_Node000027" class="edge">
<title>Node1&#45;&gt;Node27</title>
<g id="a_edge32_Node000001_Node000027"><a xlink:title=" ">
<path fill="none" stroke="#63b8ff" d="M960.78,-278.93C1061.35,-275.52 1306.58,-264.32 1520.85,-230.21"/>
<polygon fill="#63b8ff" stroke="#63b8ff" points="1521.19,-233.7 1530.5,-228.66 1520.07,-226.79 1521.19,-233.7"/>
</a>
</g>
</g>
<!-- Node3 -->
<g id="Node000003" class="node">
<title>Node3</title>
<g id="a_Node000003"><a xlink:title=" ">
<polygon fill="#e0e0e0" stroke="#999999" points="98.5,-91.38 0,-91.38 0,-72.12 98.5,-72.12 98.5,-91.38"/>
<text text-anchor="middle" x="49.25" y="-77.88" font-family="Helvetica,sans-Serif" font-size="10.00">mlir/IR/Attributes.h</text>
</a>
</g>
</g>
<!-- Node2&#45;&gt;Node3 -->
<g id="edge2_Node000002_Node000003" class="edge">
<title>Node2&#45;&gt;Node3</title>
<g id="a_edge2_Node000002_Node000003"><a xlink:title=" ">
<path fill="none" stroke="#63b8ff" d="M246.06,-134.35C201.91,-122.78 137.63,-105.92 94.68,-94.66"/>
<polygon fill="#63b8ff" stroke="#63b8ff" points="95.73,-91.32 85.17,-92.17 93.95,-98.09 95.73,-91.32"/>
</a>
</g>
</g>
<!-- Node4 -->
<g id="Node000004" class="node">
<title>Node4</title>
<g id="a_Node000004"><a xlink:title=" ">
<polygon fill="#e0e0e0" stroke="#999999" points="228.25,-97 116.25,-97 116.25,-66.5 228.25,-66.5 228.25,-97"/>
<text text-anchor="start" x="124.25" y="-83.5" font-family="Helvetica,sans-Serif" font-size="10.00">mlir/IR/BuiltinAttribute</text>
<text text-anchor="middle" x="172.25" y="-72.25" font-family="Helvetica,sans-Serif" font-size="10.00">Interfaces.h</text>
</a>
</g>
</g>
<!-- Node2&#45;&gt;Node4 -->
<g id="edge3_Node000002_Node000004" class="edge">
<title>Node2&#45;&gt;Node4</title>
<g id="a_edge3_Node000002_Node000004"><a xlink:title=" ">
<path fill="none" stroke="#63b8ff" d="M267.34,-132.61C250.43,-123.75 228.64,-112.32 210.19,-102.64"/>
<polygon fill="#63b8ff" stroke="#63b8ff" points="211.87,-99.58 201.39,-98.03 208.62,-105.77 211.87,-99.58"/>
</a>
</g>
</g>
<!-- Node5 -->
<g id="Node000005" class="node">
<title>Node5</title>
<g id="a_Node000005"><a xlink:href="_felt_2_i_r_2_attrs_8h_8inc.html" target="_top" xlink:title=" ">
<polygon fill="white" stroke="#666666" points="344.12,-97 246.38,-97 246.38,-66.5 344.12,-66.5 344.12,-97"/>
<text text-anchor="start" x="254.38" y="-83.5" font-family="Helvetica,sans-Serif" font-size="10.00">llzk/Dialect/Felt/IR</text>
<text text-anchor="middle" x="295.25" y="-72.25" font-family="Helvetica,sans-Serif" font-size="10.00">/Attrs.h.inc</text>
</a>
</g>
</g>
<!-- Node2&#45;&gt;Node5 -->
<g id="edge4_Node000002_Node000005" class="edge">
<title>Node2&#45;&gt;Node5</title>
<g id="a_edge4_Node000002_Node000005"><a xlink:title=" ">
<path fill="none" stroke="#63b8ff" d="M295.25,-132.61C295.25,-125.52 295.25,-116.79 295.25,-108.63"/>
<polygon fill="#63b8ff" stroke="#63b8ff" points="298.75,-108.84 295.25,-98.84 291.75,-108.84 298.75,-108.84"/>
</a>
</g>
</g>
<!-- Node7 -->
<g id="Node000007" class="node">
<title>Node7</title>
<g id="a_Node000007"><a xlink:title=" ">
<polygon fill="#e0e0e0" stroke="#999999" points="403,-24.88 301.5,-24.88 301.5,-5.63 403,-5.63 403,-24.88"/>
<text text-anchor="middle" x="352.25" y="-11.38" font-family="Helvetica,sans-Serif" font-size="10.00">mlir/IR/BuiltinOps.h</text>
</a>
</g>
</g>
<!-- Node6&#45;&gt;Node7 -->
<g id="edge6_Node000006_Node000007" class="edge">
<title>Node6&#45;&gt;Node7</title>
<g id="a_edge6_Node000006_Node000007"><a xlink:title=" ">
<path fill="none" stroke="#63b8ff" d="M397.86,-66.11C389.01,-56.44 377.37,-43.71 368.06,-33.54"/>
<polygon fill="#63b8ff" stroke="#63b8ff" points="370.67,-31.21 361.34,-26.19 365.51,-35.93 370.67,-31.21"/>
</a>
</g>
</g>
<!-- Node8 -->
<g id="Node000008" class="node">
<title>Node8</title>
<g id="a_Node000008"><a xlink:href="_felt_2_i_r_2_dialect_8h_8inc.html" target="_top" xlink:title=" ">
<polygon fill="white" stroke="#666666" points="519.12,-30.5 421.38,-30.5 421.38,0 519.12,0 519.12,-30.5"/>
<text text-anchor="start" x="429.38" y="-17" font-family="Helvetica,sans-Serif" font-size="10.00">llzk/Dialect/Felt/IR</text>
<text text-anchor="middle" x="470.25" y="-5.75" font-family="Helvetica,sans-Serif" font-size="10.00">/Dialect.h.inc</text>
</a>
</g>
</g>
<!-- Node6&#45;&gt;Node8 -->
<g id="edge7_Node000006_Node000008" class="edge">
<title>Node6&#45;&gt;Node8</title>
<g id="a_edge7_Node000006_Node000008"><a xlink:title=" ">
<path fill="none" stroke="#63b8ff" d="M424.64,-66.11C431.88,-58.2 440.99,-48.24 449.16,-39.3"/>
<polygon fill="#63b8ff" stroke="#63b8ff" points="451.73,-41.69 455.89,-31.94 446.56,-36.96 451.73,-41.69"/>
</a>
</g>
</g>
<!-- Node9&#45;&gt;Node2 -->
<g id="edge9_Node000009_Node000002" class="edge">
<title>Node9&#45;&gt;Node2</title>
<g id="a_edge9_Node000009_Node000002"><a xlink:title=" ">
<path fill="none" stroke="#63b8ff" d="M567.15,-203.88C510.35,-192.47 416.84,-173.68 355.64,-161.39"/>
<polygon fill="#63b8ff" stroke="#63b8ff" points="356.59,-158.01 346.09,-159.47 355.21,-164.87 356.59,-158.01"/>
</a>
</g>
</g>
<!-- Node9&#45;&gt;Node6 -->
<g id="edge10_Node000009_Node000006" class="edge">
<title>Node9&#45;&gt;Node6</title>
<g id="a_edge10_Node000009_Node000006"><a xlink:title=" ">
<path fill="none" stroke="#63b8ff" d="M567.02,-213.73C524.94,-210.97 465.72,-200.16 430.25,-163.5 416.25,-149.04 411.88,-126.3 410.79,-108.63"/>
<polygon fill="#63b8ff" stroke="#63b8ff" points="414.29,-108.79 410.52,-98.89 407.3,-108.98 414.29,-108.79"/>
</a>
</g>
</g>
<!-- Node9&#45;&gt;Node10 -->
<g id="edge11_Node000009_Node000010" class="edge">
<title>Node9&#45;&gt;Node10</title>
<g id="a_edge11_Node000009_Node000010"><a xlink:title=" ">
<path fill="none" stroke="#63b8ff" d="M587.2,-199.11C569.53,-190.21 546.72,-178.72 527.46,-169.01"/>
<polygon fill="#63b8ff" stroke="#63b8ff" points="529.04,-165.88 518.53,-164.51 525.89,-172.13 529.04,-165.88"/>
</a>
</g>
</g>
<!-- Node11 -->
<g id="Node000011" class="node">
<title>Node11</title>
<g id="a_Node000011"><a xlink:href="_felt_2_i_r_2_ops_8h_8inc.html" target="_top" xlink:title=" ">
<polygon fill="white" stroke="#666666" points="692.12,-97 594.38,-97 594.38,-66.5 692.12,-66.5 692.12,-97"/>
<text text-anchor="start" x="602.38" y="-83.5" font-family="Helvetica,sans-Serif" font-size="10.00">llzk/Dialect/Felt/IR</text>
<text text-anchor="middle" x="643.25" y="-72.25" font-family="Helvetica,sans-Serif" font-size="10.00">/Ops.h.inc</text>
</a>
</g>
</g>
<!-- Node9&#45;&gt;Node11 -->
<g id="edge20_Node000009_Node000011" class="edge">
<title>Node9&#45;&gt;Node11</title>
<g id="a_edge20_Node000009_Node000011"><a xlink:title=" ">
<path fill="none" stroke="#63b8ff" d="M648.68,-199.17C662.95,-190.91 678.26,-179.07 686.25,-163.5 696.44,-143.64 682.49,-121.26 667.83,-105.1"/>
<polygon fill="#63b8ff" stroke="#63b8ff" points="670.75,-103.09 661.28,-98.35 665.73,-107.97 670.75,-103.09"/>
</a>
</g>
</g>
<!-- Node13 -->
<g id="Node000013" class="node">
<title>Node13</title>
<g id="a_Node000013"><a xlink:href="_op_traits_8h.html" target="_top" xlink:title=" ">
<polygon fill="white" stroke="#666666" points="838.88,-163.5 733.62,-163.5 733.62,-133 838.88,-133 838.88,-163.5"/>
<text text-anchor="start" x="741.62" y="-150" font-family="Helvetica,sans-Serif" font-size="10.00">llzk/Dialect/Function</text>
<text text-anchor="middle" x="786.25" y="-138.75" font-family="Helvetica,sans-Serif" font-size="10.00">/IR/OpTraits.h</text>
</a>
</g>
</g>
<!-- Node9&#45;&gt;Node13 -->
<g id="edge15_Node000009_Node000013" class="edge">
<title>Node9&#45;&gt;Node13</title>
<g id="a_edge15_Node000009_Node000013"><a xlink:title=" ">
<path fill="none" stroke="#63b8ff" d="M654.83,-199.11C679.19,-189.87 710.9,-177.84 737.07,-167.91"/>
<polygon fill="#63b8ff" stroke="#63b8ff" points="738.01,-171.3 746.12,-164.48 735.53,-164.75 738.01,-171.3"/>
</a>
</g>
</g>
<!-- Node17 -->
<g id="Node000017" class="node">
<title>Node17</title>
<g id="a_Node000017"><a xlink:title=" ">
<polygon fill="#e0e0e0" stroke="#999999" points="677.12,-163.5 555.38,-163.5 555.38,-133 677.12,-133 677.12,-163.5"/>
<text text-anchor="start" x="563.38" y="-150" font-family="Helvetica,sans-Serif" font-size="10.00">mlir/Interfaces/InferType</text>
<text text-anchor="middle" x="616.25" y="-138.75" font-family="Helvetica,sans-Serif" font-size="10.00">OpInterface.h</text>
</a>
</g>
</g>
<!-- Node9&#45;&gt;Node17 -->
<g id="edge19_Node000009_Node000017" class="edge">
<title>Node9&#45;&gt;Node17</title>
<g id="a_edge19_Node000009_Node000017"><a xlink:title=" ">
<path fill="none" stroke="#63b8ff" d="M616.25,-199.11C616.25,-192.02 616.25,-183.29 616.25,-175.13"/>
<polygon fill="#63b8ff" stroke="#63b8ff" points="619.75,-175.34 616.25,-165.34 612.75,-175.34 619.75,-175.34"/>
</a>
</g>
</g>
<!-- Node10&#45;&gt;Node6 -->
<g id="edge12_Node000010_Node000006" class="edge">
<title>Node10&#45;&gt;Node6</title>
<g id="a_edge12_Node000010_Node000006"><a xlink:title=" ">
<path fill="none" stroke="#63b8ff" d="M470.78,-132.61C460.93,-124.37 448.44,-113.9 437.45,-104.69"/>
<polygon fill="#63b8ff" stroke="#63b8ff" points="439.73,-102.04 429.81,-98.3 435.23,-107.4 439.73,-102.04"/>
</a>
</g>
</g>
<!-- Node10&#45;&gt;Node11 -->
<g id="edge13_Node000010_Node000011" class="edge">
<title>Node10&#45;&gt;Node11</title>
<g id="a_edge13_Node000010_Node000011"><a xlink:title=" ">
<path fill="none" stroke="#63b8ff" d="M523.42,-132.61C545.34,-123.49 573.78,-111.66 597.45,-101.81"/>
<polygon fill="#63b8ff" stroke="#63b8ff" points="598.66,-105.09 606.55,-98.02 595.97,-98.63 598.66,-105.09"/>
</a>
</g>
</g>
<!-- Node12 -->
<g id="Node000012" class="node">
<title>Node12</title>
<g id="a_Node000012"><a xlink:href="_felt_2_i_r_2_types_8h_8inc.html" target="_top" xlink:title=" ">
<polygon fill="white" stroke="#666666" points="576.12,-97 478.38,-97 478.38,-66.5 576.12,-66.5 576.12,-97"/>
<text text-anchor="start" x="486.38" y="-83.5" font-family="Helvetica,sans-Serif" font-size="10.00">llzk/Dialect/Felt/IR</text>
<text text-anchor="middle" x="527.25" y="-72.25" font-family="Helvetica,sans-Serif" font-size="10.00">/Types.h.inc</text>
</a>
</g>
</g>
<!-- Node10&#45;&gt;Node12 -->
<g id="edge14_Node000010_Node000012" class="edge">
<title>Node10&#45;&gt;Node12</title>
<g id="a_edge14_Node000010_Node000012"><a xlink:title=" ">
<path fill="none" stroke="#63b8ff" d="M497.1,-132.61C501.69,-125.03 507.41,-115.56 512.63,-106.93"/>
<polygon fill="#63b8ff" stroke="#63b8ff" points="515.47,-108.99 517.65,-98.62 509.48,-105.37 515.47,-108.99"/>
</a>
</g>
</g>
<!-- Node14 -->
<g id="Node000014" class="node">
<title>Node14</title>
<g id="a_Node000014"><a xlink:title=" ">
<polygon fill="#e0e0e0" stroke="#999999" points="1094.5,-91.38 984,-91.38 984,-72.12 1094.5,-72.12 1094.5,-91.38"/>
<text text-anchor="middle" x="1039.25" y="-77.88" font-family="Helvetica,sans-Serif" font-size="10.00">mlir/IR/OpDefinition.h</text>
</a>
</g>
</g>
<!-- Node13&#45;&gt;Node14 -->
<g id="edge16_Node000013_Node000014" class="edge">
<title>Node13&#45;&gt;Node14</title>
<g id="a_edge16_Node000013_Node000014"><a xlink:title=" ">
<path fill="none" stroke="#63b8ff" d="M839.29,-133.73C884.64,-122.17 949.28,-105.69 992.67,-94.62"/>
<polygon fill="#63b8ff" stroke="#63b8ff" points="993.48,-98.03 1002.3,-92.17 991.75,-91.25 993.48,-98.03"/>
</a>
</g>
</g>
<!-- Node15 -->
<g id="Node000015" class="node">
<title>Node15</title>
<g id="a_Node000015"><a xlink:title=" ">
<polygon fill="#e0e0e0" stroke="#999999" points="808.5,-91.38 710,-91.38 710,-72.12 808.5,-72.12 808.5,-91.38"/>
<text text-anchor="middle" x="759.25" y="-77.88" font-family="Helvetica,sans-Serif" font-size="10.00">mlir/IR/Operation.h</text>
</a>
</g>
</g>
<!-- Node13&#45;&gt;Node15 -->
<g id="edge17_Node000013_Node000015" class="edge">
<title>Node13&#45;&gt;Node15</title>
<g id="a_edge17_Node000013_Node000015"><a xlink:title=" ">
<path fill="none" stroke="#63b8ff" d="M780.12,-132.61C776.32,-123.53 771.39,-111.76 767.28,-101.93"/>
<polygon fill="#63b8ff" stroke="#63b8ff" points="770.62,-100.84 763.53,-92.97 764.16,-103.54 770.62,-100.84"/>
</a>
</g>
</g>
<!-- Node16 -->
<g id="Node000016" class="node">
<title>Node16</title>
<g id="a_Node000016"><a xlink:title=" ">
<polygon fill="#e0e0e0" stroke="#999999" points="965.75,-91.38 826.75,-91.38 826.75,-72.12 965.75,-72.12 965.75,-91.38"/>
<text text-anchor="middle" x="896.25" y="-77.88" font-family="Helvetica,sans-Serif" font-size="10.00">mlir/Support/LogicalResult.h</text>
</a>
</g>
</g>
<!-- Node13&#45;&gt;Node16 -->
<g id="edge18_Node000013_Node000016" class="edge">
<title>Node13&#45;&gt;Node16</title>
<g id="a_edge18_Node000013_Node000016"><a xlink:title=" ">
<path fill="none" stroke="#63b8ff" d="M811.21,-132.61C829.12,-122.11 853.16,-108.02 871.11,-97.49"/>
<polygon fill="#63b8ff" stroke="#63b8ff" points="872.72,-100.6 879.58,-92.53 869.18,-94.56 872.72,-100.6"/>
</a>
</g>
</g>
<!-- Node18&#45;&gt;Node19 -->
<g id="edge23_Node000018_Node000019" class="edge">
<title>Node18&#45;&gt;Node19</title>
<g id="a_edge23_Node000018_Node000019"><a xlink:title=" ">
<path fill="none" stroke="#63b8ff" d="M871.63,-199.11C884.4,-188.94 901.4,-175.41 914.47,-165"/>
<polygon fill="#63b8ff" stroke="#63b8ff" points="916.34,-167.98 921.99,-159.02 911.98,-162.51 916.34,-167.98"/>
</a>
</g>
</g>
<!-- Node20 -->
<g id="Node000020" class="node">
<title>Node20</title>
<g id="a_Node000020"><a xlink:title=" ">
<polygon fill="#e0e0e0" stroke="#999999" points="1122.88,-157.88 1029.62,-157.88 1029.62,-138.62 1122.88,-138.62 1122.88,-157.88"/>
<text text-anchor="middle" x="1076.25" y="-144.38" font-family="Helvetica,sans-Serif" font-size="10.00">llvm/ADT/APInt.h</text>
</a>
</g>
</g>
<!-- Node18&#45;&gt;Node20 -->
<g id="edge24_Node000018_Node000020" class="edge">
<title>Node18&#45;&gt;Node20</title>
<g id="a_edge24_Node000018_Node000020"><a xlink:title=" ">
<path fill="none" stroke="#63b8ff" d="M904.13,-199.03C943.39,-187.68 997.05,-172.16 1033.97,-161.48"/>
<polygon fill="#63b8ff" stroke="#63b8ff" points="1034.77,-164.89 1043.4,-158.75 1032.82,-158.17 1034.77,-164.89"/>
</a>
</g>
</g>
<!-- Node22 -->
<g id="Node000022" class="node">
<title>Node22</title>
<g id="a_Node000022"><a xlink:title=" ">
<polygon fill="#e0e0e0" stroke="#999999" points="1335.88,-157.88 1140.62,-157.88 1140.62,-138.62 1335.88,-138.62 1335.88,-157.88"/>
<text text-anchor="middle" x="1238.25" y="-144.38" font-family="Helvetica,sans-Serif" font-size="10.00">mlir/Bytecode/BytecodeImplementation.h</text>
</a>
</g>
</g>
<!-- Node21&#45;&gt;Node22 -->
<g id="edge26_Node000021_Node000022" class="edge">
<title>Node21&#45;&gt;Node22</title>
<g id="a_edge26_Node000021_Node000022"><a xlink:title=" ">
<path fill="none" stroke="#63b8ff" d="M1028.95,-200.78C1076.07,-189.18 1144.52,-172.32 1190.17,-161.09"/>
<polygon fill="#63b8ff" stroke="#63b8ff" points="1190.91,-164.51 1199.78,-158.72 1189.24,-157.71 1190.91,-164.51"/>
</a>
</g>
</g>
</g>
</svg>
