<?xml version="1.0" encoding="UTF-8" standalone="no"?>
<!DOCTYPE svg PUBLIC "-//W3C//DTD SVG 1.1//EN"
 "http://www.w3.org/Graphics/SVG/1.1/DTD/svg11.dtd">
<!-- Generated by graphviz version 12.2.1 (20241206.2353)
 -->
<!-- Title: include/llzk/Dialect/Felt/IR/Ops.h Pages: 1 -->
<svg width="1103pt" height="238pt"
 viewBox="0.00 0.00 1102.75 238.00" xmlns="http://www.w3.org/2000/svg" xmlns:xlink="http://www.w3.org/1999/xlink">
<g id="graph0" class="graph" transform="scale(1 1) rotate(0) translate(4 234)">
<title>include/llzk/Dialect/Felt/IR/Ops.h</title>
<!-- Node1 -->
<g id="Node000001" class="node">
<title>Node1</title>
<g id="a_Node000001"><a xlink:title=" ">
<polygon fill="#999999" stroke="#666666" points="644.5,-230 546,-230 546,-199.5 644.5,-199.5 644.5,-230"/>
<text text-anchor="start" x="554" y="-216.5" font-family="Helvetica,sans-Serif" font-size="10.00">include/llzk/Dialect</text>
<text text-anchor="middle" x="595.25" y="-205.25" font-family="Helvetica,sans-Serif" font-size="10.00">/Felt/IR/Ops.h</text>
</a>
</g>
</g>
<!-- Node2 -->
<g id="Node000002" class="node">
<title>Node2</title>
<g id="a_Node000002"><a xlink:href="_felt_2_i_r_2_attrs_8h.html" target="_top" xlink:title=" ">
<polygon fill="white" stroke="#666666" points="283.12,-163.5 185.38,-163.5 185.38,-133 283.12,-133 283.12,-163.5"/>
<text text-anchor="start" x="193.38" y="-150" font-family="Helvetica,sans-Serif" font-size="10.00">llzk/Dialect/Felt/IR</text>
<text text-anchor="middle" x="234.25" y="-138.75" font-family="Helvetica,sans-Serif" font-size="10.00">/Attrs.h</text>
</a>
</g>
</g>
<!-- Node1&#45;&gt;Node2 -->
<g id="edge1_Node000001_Node000002" class="edge">
<title>Node1&#45;&gt;Node2</title>
<g id="a_edge1_Node000001_Node000002"><a xlink:title=" ">
<path fill="none" stroke="#63b8ff" d="M545.81,-204.92C480.28,-193.21 364.75,-172.57 294.29,-159.98"/>
<polygon fill="#63b8ff" stroke="#63b8ff" points="295.33,-156.61 284.87,-158.29 294.1,-163.5 295.33,-156.61"/>
</a>
</g>
</g>
<!-- Node6 -->
<g id="Node000006" class="node">
<title>Node6</title>
<g id="a_Node000006"><a xlink:href="_felt_2_i_r_2_dialect_8h.html" target="_top" xlink:title=" ">
<polygon fill="white" stroke="#666666" points="460.12,-97 362.38,-97 362.38,-66.5 460.12,-66.5 460.12,-97"/>
<text text-anchor="start" x="370.38" y="-83.5" font-family="Helvetica,sans-Serif" font-size="10.00">llzk/Dialect/Felt/IR</text>
<text text-anchor="middle" x="411.25" y="-72.25" font-family="Helvetica,sans-Serif" font-size="10.00">/Dialect.h</text>
</a>
</g>
</g>
<!-- Node1&#45;&gt;Node6 -->
<g id="edge5_Node000001_Node000006" class="edge">
<title>Node1&#45;&gt;Node6</title>
<g id="a_edge5_Node000001_Node000006"><a xlink:title=" ">
<path fill="none" stroke="#63b8ff" d="M548.29,-199.06C526.07,-190.75 499.94,-178.9 479.25,-163.5 458.04,-147.71 439.14,-124.07 426.68,-106.44"/>
<polygon fill="#63b8ff" stroke="#63b8ff" points="429.85,-104.87 421.3,-98.6 424.07,-108.83 429.85,-104.87"/>
</a>
</g>
</g>
<!-- Node9 -->
<g id="Node000009" class="node">
<title>Node9</title>
<g id="a_Node000009"><a xlink:href="_felt_2_i_r_2_types_8h.html" target="_top" xlink:title=" ">
<polygon fill="white" stroke="#666666" points="586.12,-163.5 488.38,-163.5 488.38,-133 586.12,-133 586.12,-163.5"/>
<text text-anchor="start" x="496.38" y="-150" font-family="Helvetica,sans-Serif" font-size="10.00">llzk/Dialect/Felt/IR</text>
<text text-anchor="middle" x="537.25" y="-138.75" font-family="Helvetica,sans-Serif" font-size="10.00">/Types.h</text>
</a>
</g>
</g>
<!-- Node1&#45;&gt;Node9 -->
<g id="edge8_Node000001_Node000009" class="edge">
<title>Node1&#45;&gt;Node9</title>
<g id="a_edge8_Node000001_Node000009"><a xlink:title=" ">
<path fill="none" stroke="#63b8ff" d="M582.09,-199.11C574.97,-191.2 566.01,-181.24 557.98,-172.3"/>
<polygon fill="#63b8ff" stroke="#63b8ff" points="560.66,-170.05 551.37,-164.95 555.45,-174.73 560.66,-170.05"/>
</a>
</g>
</g>
<!-- Node10 -->
<g id="Node000010" class="node">
<title>Node10</title>
<g id="a_Node000010"><a xlink:href="_felt_2_i_r_2_ops_8h_8inc.html" target="_top" xlink:title=" ">
<polygon fill="white" stroke="#666666" points="692.12,-97 594.38,-97 594.38,-66.5 692.12,-66.5 692.12,-97"/>
<text text-anchor="start" x="602.38" y="-83.5" font-family="Helvetica,sans-Serif" font-size="10.00">llzk/Dialect/Felt/IR</text>
<text text-anchor="middle" x="643.25" y="-72.25" font-family="Helvetica,sans-Serif" font-size="10.00">/Ops.h.inc</text>
</a>
</g>
</g>
<!-- Node1&#45;&gt;Node10 -->
<g id="edge17_Node000001_Node000010" class="edge">
<title>Node1&#45;&gt;Node10</title>
<g id="a_edge17_Node000001_Node000010"><a xlink:title=" ">
<path fill="none" stroke="#63b8ff" d="M600.57,-199.23C608.64,-177.2 624.1,-135.02 634.03,-107.92"/>
<polygon fill="#63b8ff" stroke="#63b8ff" points="637.23,-109.35 637.39,-98.76 630.66,-106.94 637.23,-109.35"/>
</a>
</g>
</g>
<!-- Node12 -->
<g id="Node000012" class="node">
<title>Node12</title>
<g id="a_Node000012"><a xlink:href="_op_traits_8h.html" target="_top" xlink:title=" ">
<polygon fill="white" stroke="#666666" points="817.88,-163.5 712.62,-163.5 712.62,-133 817.88,-133 817.88,-163.5"/>
<text text-anchor="start" x="720.62" y="-150" font-family="Helvetica,sans-Serif" font-size="10.00">llzk/Dialect/Function</text>
<text text-anchor="middle" x="765.25" y="-138.75" font-family="Helvetica,sans-Serif" font-size="10.00">/IR/OpTraits.h</text>
</a>
</g>
</g>
<!-- Node1&#45;&gt;Node12 -->
<g id="edge12_Node000001_Node000012" class="edge">
<title>Node1&#45;&gt;Node12</title>
<g id="a_edge12_Node000001_Node000012"><a xlink:title=" ">
<path fill="none" stroke="#63b8ff" d="M633.83,-199.11C658.19,-189.87 689.9,-177.84 716.07,-167.91"/>
<polygon fill="#63b8ff" stroke="#63b8ff" points="717.01,-171.3 725.12,-164.48 714.53,-164.75 717.01,-171.3"/>
</a>
</g>
</g>
<!-- Node16 -->
<g id="Node000016" class="node">
<title>Node16</title>
<g id="a_Node000016"><a xlink:title=" ">
<polygon fill="#e0e0e0" stroke="#999999" points="958.12,-163.5 836.38,-163.5 836.38,-133 958.12,-133 958.12,-163.5"/>
<text text-anchor="start" x="844.38" y="-150" font-family="Helvetica,sans-Serif" font-size="10.00">mlir/Interfaces/InferType</text>
<text text-anchor="middle" x="897.25" y="-138.75" font-family="Helvetica,sans-Serif" font-size="10.00">OpInterface.h</text>
</a>
</g>
</g>
<!-- Node1&#45;&gt;Node16 -->
<g id="edge16_Node000001_Node000016" class="edge">
<title>Node1&#45;&gt;Node16</title>
<g id="a_edge16_Node000001_Node000016"><a xlink:title=" ">
<path fill="none" stroke="#63b8ff" d="M644.78,-203.17C693.7,-192.72 769.07,-176.63 824.74,-164.74"/>
<polygon fill="#63b8ff" stroke="#63b8ff" points="825.42,-168.17 834.47,-162.66 823.96,-161.33 825.42,-168.17"/>
</a>
</g>
</g>
<!-- Node3 -->
<g id="Node000003" class="node">
<title>Node3</title>
<g id="a_Node000003"><a xlink:title=" ">
<polygon fill="#e0e0e0" stroke="#999999" points="98.5,-91.38 0,-91.38 0,-72.12 98.5,-72.12 98.5,-91.38"/>
<text text-anchor="middle" x="49.25" y="-77.88" font-family="Helvetica,sans-Serif" font-size="10.00">mlir/IR/Attributes.h</text>
</a>
</g>
</g>
<!-- Node2&#45;&gt;Node3 -->
<g id="edge2_Node000002_Node000003" class="edge">
<title>Node2&#45;&gt;Node3</title>
<g id="a_edge2_Node000002_Node000003"><a xlink:title=" ">
<path fill="none" stroke="#63b8ff" d="M192.27,-132.61C160.27,-121.46 116.64,-106.25 86.01,-95.57"/>
<polygon fill="#63b8ff" stroke="#63b8ff" points="87.39,-92.34 76.79,-92.35 85.08,-98.95 87.39,-92.34"/>
</a>
</g>
</g>
<!-- Node4 -->
<g id="Node000004" class="node">
<title>Node4</title>
<g id="a_Node000004"><a xlink:title=" ">
<polygon fill="#e0e0e0" stroke="#999999" points="228.25,-97 116.25,-97 116.25,-66.5 228.25,-66.5 228.25,-97"/>
<text text-anchor="start" x="124.25" y="-83.5" font-family="Helvetica,sans-Serif" font-size="10.00">mlir/IR/BuiltinAttribute</text>
<text text-anchor="middle" x="172.25" y="-72.25" font-family="Helvetica,sans-Serif" font-size="10.00">Interfaces.h</text>
</a>
</g>
</g>
<!-- Node2&#45;&gt;Node4 -->
<g id="edge3_Node000002_Node000004" class="edge">
<title>Node2&#45;&gt;Node4</title>
<g id="a_edge3_Node000002_Node000004"><a xlink:title=" ">
<path fill="none" stroke="#63b8ff" d="M220.18,-132.61C212.49,-124.61 202.8,-114.53 194.14,-105.53"/>
<polygon fill="#63b8ff" stroke="#63b8ff" points="196.77,-103.2 187.31,-98.42 191.72,-108.05 196.77,-103.2"/>
</a>
</g>
</g>
<!-- Node5 -->
<g id="Node000005" class="node">
<title>Node5</title>
<g id="a_Node000005"><a xlink:href="_felt_2_i_r_2_attrs_8h_8inc.html" target="_top" xlink:title=" ">
<polygon fill="white" stroke="#666666" points="344.12,-97 246.38,-97 246.38,-66.5 344.12,-66.5 344.12,-97"/>
<text text-anchor="start" x="254.38" y="-83.5" font-family="Helvetica,sans-Serif" font-size="10.00">llzk/Dialect/Felt/IR</text>
<text text-anchor="middle" x="295.25" y="-72.25" font-family="Helvetica,sans-Serif" font-size="10.00">/Attrs.h.inc</text>
</a>
</g>
</g>
<!-- Node2&#45;&gt;Node5 -->
<g id="edge4_Node000002_Node000005" class="edge">
<title>Node2&#45;&gt;Node5</title>
<g id="a_edge4_Node000002_Node000005"><a xlink:title=" ">
<path fill="none" stroke="#63b8ff" d="M248.09,-132.61C255.66,-124.61 265.19,-114.53 273.71,-105.53"/>
<polygon fill="#63b8ff" stroke="#63b8ff" points="276.09,-108.1 280.42,-98.43 271.01,-103.29 276.09,-108.1"/>
</a>
</g>
</g>
<!-- Node7 -->
<g id="Node000007" class="node">
<title>Node7</title>
<g id="a_Node000007"><a xlink:title=" ">
<polygon fill="#e0e0e0" stroke="#999999" points="403,-24.88 301.5,-24.88 301.5,-5.63 403,-5.63 403,-24.88"/>
<text text-anchor="middle" x="352.25" y="-11.38" font-family="Helvetica,sans-Serif" font-size="10.00">mlir/IR/BuiltinOps.h</text>
</a>
</g>
</g>
<!-- Node6&#45;&gt;Node7 -->
<g id="edge6_Node000006_Node000007" class="edge">
<title>Node6&#45;&gt;Node7</title>
<g id="a_edge6_Node000006_Node000007"><a xlink:title=" ">
<path fill="none" stroke="#63b8ff" d="M397.86,-66.11C389.01,-56.44 377.37,-43.71 368.06,-33.54"/>
<polygon fill="#63b8ff" stroke="#63b8ff" points="370.67,-31.21 361.34,-26.19 365.51,-35.93 370.67,-31.21"/>
</a>
</g>
</g>
<!-- Node8 -->
<g id="Node000008" class="node">
<title>Node8</title>
<g id="a_Node000008"><a xlink:href="_felt_2_i_r_2_dialect_8h_8inc.html" target="_top" xlink:title=" ">
<polygon fill="white" stroke="#666666" points="519.12,-30.5 421.38,-30.5 421.38,0 519.12,0 519.12,-30.5"/>
<text text-anchor="start" x="429.38" y="-17" font-family="Helvetica,sans-Serif" font-size="10.00">llzk/Dialect/Felt/IR</text>
<text text-anchor="middle" x="470.25" y="-5.75" font-family="Helvetica,sans-Serif" font-size="10.00">/Dialect.h.inc</text>
</a>
</g>
</g>
<!-- Node6&#45;&gt;Node8 -->
<g id="edge7_Node000006_Node000008" class="edge">
<title>Node6&#45;&gt;Node8</title>
<g id="a_edge7_Node000006_Node000008"><a xlink:title=" ">
<path fill="none" stroke="#63b8ff" d="M424.64,-66.11C431.88,-58.2 440.99,-48.24 449.16,-39.3"/>
<polygon fill="#63b8ff" stroke="#63b8ff" points="451.73,-41.69 455.89,-31.94 446.56,-36.96 451.73,-41.69"/>
</a>
</g>
</g>
<!-- Node9&#45;&gt;Node6 -->
<g id="edge9_Node000009_Node000006" class="edge">
<title>Node9&#45;&gt;Node6</title>
<g id="a_edge9_Node000009_Node000006"><a xlink:title=" ">
<path fill="none" stroke="#63b8ff" d="M508.66,-132.61C491.26,-123.71 468.81,-112.22 449.85,-102.51"/>
<polygon fill="#63b8ff" stroke="#63b8ff" points="451.57,-99.46 441.08,-98.02 448.38,-105.69 451.57,-99.46"/>
</a>
</g>
</g>
<!-- Node9&#45;&gt;Node10 -->
<g id="edge10_Node000009_Node000010" class="edge">
<title>Node9&#45;&gt;Node10</title>
<g id="a_edge10_Node000009_Node000010"><a xlink:title=" ">
<path fill="none" stroke="#63b8ff" d="M561.3,-132.61C575.67,-123.87 594.13,-112.64 609.89,-103.05"/>
<polygon fill="#63b8ff" stroke="#63b8ff" points="611.28,-106.3 618,-98.11 607.64,-100.32 611.28,-106.3"/>
</a>
</g>
</g>
<!-- Node11 -->
<g id="Node000011" class="node">
<title>Node11</title>
<g id="a_Node000011"><a xlink:href="_felt_2_i_r_2_types_8h_8inc.html" target="_top" xlink:title=" ">
<polygon fill="white" stroke="#666666" points="576.12,-97 478.38,-97 478.38,-66.5 576.12,-66.5 576.12,-97"/>
<text text-anchor="start" x="486.38" y="-83.5" font-family="Helvetica,sans-Serif" font-size="10.00">llzk/Dialect/Felt/IR</text>
<text text-anchor="middle" x="527.25" y="-72.25" font-family="Helvetica,sans-Serif" font-size="10.00">/Types.h.inc</text>
</a>
</g>
</g>
<!-- Node9&#45;&gt;Node11 -->
<g id="edge11_Node000009_Node000011" class="edge">
<title>Node9&#45;&gt;Node11</title>
<g id="a_edge11_Node000009_Node000011"><a xlink:title=" ">
<path fill="none" stroke="#63b8ff" d="M534.98,-132.61C533.88,-125.52 532.53,-116.79 531.26,-108.63"/>
<polygon fill="#63b8ff" stroke="#63b8ff" points="534.73,-108.17 529.74,-98.82 527.82,-109.24 534.73,-108.17"/>
</a>
</g>
</g>
<!-- Node13 -->
<g id="Node000013" class="node">
<title>Node13</title>
<g id="a_Node000013"><a xlink:title=" ">
<polygon fill="#e0e0e0" stroke="#999999" points="820.5,-91.38 710,-91.38 710,-72.12 820.5,-72.12 820.5,-91.38"/>
<text text-anchor="middle" x="765.25" y="-77.88" font-family="Helvetica,sans-Serif" font-size="10.00">mlir/IR/OpDefinition.h</text>
</a>
</g>
</g>
<!-- Node12&#45;&gt;Node13 -->
<g id="edge13_Node000012_Node000013" class="edge">
<title>Node12&#45;&gt;Node13</title>
<g id="a_edge13_Node000012_Node000013"><a xlink:title=" ">
<path fill="none" stroke="#63b8ff" d="M765.25,-132.61C765.25,-123.83 765.25,-112.52 765.25,-102.9"/>
<polygon fill="#63b8ff" stroke="#63b8ff" points="768.75,-103.09 765.25,-93.09 761.75,-103.09 768.75,-103.09"/>
</a>
</g>
</g>
<!-- Node14 -->
<g id="Node000014" class="node">
<title>Node14</title>
<g id="a_Node000014"><a xlink:title=" ">
<polygon fill="#e0e0e0" stroke="#999999" points="937.5,-91.38 839,-91.38 839,-72.12 937.5,-72.12 937.5,-91.38"/>
<text text-anchor="middle" x="888.25" y="-77.88" font-family="Helvetica,sans-Serif" font-size="10.00">mlir/IR/Operation.h</text>
</a>
</g>
</g>
<!-- Node12&#45;&gt;Node14 -->
<g id="edge14_Node000012_Node000014" class="edge">
<title>Node12&#45;&gt;Node14</title>
<g id="a_edge14_Node000012_Node000014"><a xlink:title=" ">
<path fill="none" stroke="#63b8ff" d="M793.16,-132.61C813.47,-121.96 840.82,-107.62 860.98,-97.05"/>
<polygon fill="#63b8ff" stroke="#63b8ff" points="862.5,-100.21 869.73,-92.46 859.25,-94.01 862.5,-100.21"/>
</a>
</g>
</g>
<!-- Node15 -->
<g id="Node000015" class="node">
<title>Node15</title>
<g id="a_Node000015"><a xlink:title=" ">
<polygon fill="#e0e0e0" stroke="#999999" points="1094.75,-91.38 955.75,-91.38 955.75,-72.12 1094.75,-72.12 1094.75,-91.38"/>
<text text-anchor="middle" x="1025.25" y="-77.88" font-family="Helvetica,sans-Serif" font-size="10.00">mlir/Support/LogicalResult.h</text>
</a>
</g>
</g>
<!-- Node12&#45;&gt;Node15 -->
<g id="edge15_Node000012_Node000015" class="edge">
<title>Node12&#45;&gt;Node15</title>
<g id="a_edge15_Node000012_Node000015"><a xlink:title=" ">
<path fill="none" stroke="#63b8ff" d="M818.18,-134.12C864.99,-122.51 932.67,-105.72 977.77,-94.53"/>
<polygon fill="#63b8ff" stroke="#63b8ff" points="978.39,-97.98 987.25,-92.18 976.7,-91.19 978.39,-97.98"/>
</a>
</g>
</g>
</g>
</svg>
