<?xml version="1.0" encoding="UTF-8" standalone="no"?>
<!DOCTYPE svg PUBLIC "-//W3C//DTD SVG 1.1//EN"
 "http://www.w3.org/Graphics/SVG/1.1/DTD/svg11.dtd">
<!-- Generated by graphviz version 12.2.1 (20241206.2353)
 -->
<!-- Title: build/include/llzk/Dialect/Felt/IR/Ops.h.inc Pages: 1 -->
<svg width="1664pt" height="504pt"
 viewBox="0.00 0.00 1663.98 504.00" xmlns="http://www.w3.org/2000/svg" xmlns:xlink="http://www.w3.org/1999/xlink">
<g id="graph0" class="graph" transform="scale(1 1) rotate(0) translate(4 500)">
<title>build/include/llzk/Dialect/Felt/IR/Ops.h.inc</title>
<!-- Node1 -->
<g id="Node000001" class="node">
<title>Node1</title>
<g id="a_Node000001"><a xlink:title=" ">
<polygon fill="#999999" stroke="#666666" points="973.35,-496 845.6,-496 845.6,-465.5 973.35,-465.5 973.35,-496"/>
<text text-anchor="start" x="853.6" y="-482.5" font-family="Helvetica,sans-Serif" font-size="10.00">build/include/llzk</text>
<text text-anchor="middle" x="909.48" y="-471.25" font-family="Helvetica,sans-Serif" font-size="10.00">/Dialect/Felt/IR/Ops.h.inc</text>
</a>
</g>
</g>
<!-- Node2 -->
<g id="Node000002" class="node">
<title>Node2</title>
<g id="a_Node000002"><a xlink:href="_felt_2_i_r_2_ops_8h.html" target="_top" xlink:title=" ">
<polygon fill="white" stroke="#666666" points="634.73,-363 536.23,-363 536.23,-332.5 634.73,-332.5 634.73,-363"/>
<text text-anchor="start" x="544.23" y="-349.5" font-family="Helvetica,sans-Serif" font-size="10.00">include/llzk/Dialect</text>
<text text-anchor="middle" x="585.48" y="-338.25" font-family="Helvetica,sans-Serif" font-size="10.00">/Felt/IR/Ops.h</text>
</a>
</g>
</g>
<!-- Node1&#45;&gt;Node2 -->
<g id="edge1_Node000001_Node000002" class="edge">
<title>Node1&#45;&gt;Node2</title>
<g id="a_edge1_Node000001_Node000002"><a xlink:title=" ">
<path fill="none" stroke="#63b8ff" d="M862.86,-460.9C797.61,-434.52 680.44,-387.15 621.47,-363.3"/>
<polygon fill="#63b8ff" stroke="#63b8ff" points="861.27,-464.03 871.85,-464.54 863.89,-457.54 861.27,-464.03"/>
</a>
</g>
</g>
<!-- Node18 -->
<g id="Node000018" class="node">
<title>Node18</title>
<g id="a_Node000018"><a xlink:href="_felt_2_i_r_2_types_8h.html" target="_top" xlink:title=" ">
<polygon fill="white" stroke="#666666" points="1153.73,-429.5 1055.23,-429.5 1055.23,-399 1153.73,-399 1153.73,-429.5"/>
<text text-anchor="start" x="1063.23" y="-416" font-family="Helvetica,sans-Serif" font-size="10.00">include/llzk/Dialect</text>
<text text-anchor="middle" x="1104.48" y="-404.75" font-family="Helvetica,sans-Serif" font-size="10.00">/Felt/IR/Types.h</text>
</a>
</g>
</g>
<!-- Node1&#45;&gt;Node18 -->
<g id="edge22_Node000001_Node000018" class="edge">
<title>Node1&#45;&gt;Node18</title>
<g id="a_edge22_Node000001_Node000018"><a xlink:title=" ">
<path fill="none" stroke="#63b8ff" d="M964.52,-461.54C994.74,-451.55 1031.71,-439.32 1060.07,-429.94"/>
<polygon fill="#63b8ff" stroke="#63b8ff" points="963.56,-458.18 955.16,-464.64 965.76,-464.82 963.56,-458.18"/>
</a>
</g>
</g>
<!-- Node3 -->
<g id="Node000003" class="node">
<title>Node3</title>
<g id="a_Node000003"><a xlink:href="_constrain_ref_8h.html" target="_top" xlink:title=" ">
<polygon fill="white" stroke="#666666" points="715.1,-296.5 609.85,-296.5 609.85,-266 715.1,-266 715.1,-296.5"/>
<text text-anchor="start" x="617.85" y="-283" font-family="Helvetica,sans-Serif" font-size="10.00">include/llzk/Analysis</text>
<text text-anchor="middle" x="662.48" y="-271.75" font-family="Helvetica,sans-Serif" font-size="10.00">/ConstrainRef.h</text>
</a>
</g>
</g>
<!-- Node2&#45;&gt;Node3 -->
<g id="edge2_Node000002_Node000003" class="edge">
<title>Node2&#45;&gt;Node3</title>
<g id="a_edge2_Node000002_Node000003"><a xlink:title=" ">
<path fill="none" stroke="#63b8ff" d="M611.75,-324.74C622.75,-315.53 635.24,-305.06 645.07,-296.83"/>
<polygon fill="#63b8ff" stroke="#63b8ff" points="609.53,-322.04 604.11,-331.14 614.02,-327.4 609.53,-322.04"/>
</a>
</g>
</g>
<!-- Node6 -->
<g id="Node000006" class="node">
<title>Node6</title>
<g id="a_Node000006"><a xlink:href="_interval_analysis_8h.html" target="_top" xlink:title=" ">
<polygon fill="white" stroke="#666666" points="1107.1,-97 1001.85,-97 1001.85,-66.5 1107.1,-66.5 1107.1,-97"/>
<text text-anchor="start" x="1009.85" y="-83.5" font-family="Helvetica,sans-Serif" font-size="10.00">include/llzk/Analysis</text>
<text text-anchor="middle" x="1054.48" y="-72.25" font-family="Helvetica,sans-Serif" font-size="10.00">/IntervalAnalysis.h</text>
</a>
</g>
</g>
<!-- Node2&#45;&gt;Node6 -->
<g id="edge15_Node000002_Node000006" class="edge">
<title>Node2&#45;&gt;Node6</title>
<g id="a_edge15_Node000002_Node000006"><a xlink:title=" ">
<path fill="none" stroke="#63b8ff" d="M645.99,-329.69C671.1,-321.4 700.02,-310.23 724.48,-296.5 743.36,-285.9 744.83,-278.55 762.48,-266 857.57,-198.34 977.22,-127.43 1028.84,-97.48"/>
<polygon fill="#63b8ff" stroke="#63b8ff" points="645.02,-326.33 636.56,-332.72 647.16,-332.99 645.02,-326.33"/>
</a>
</g>
</g>
<!-- Node9 -->
<g id="Node000009" class="node">
<title>Node9</title>
<g id="a_Node000009"><a xlink:href="_constrain_ref_lattice_8cpp.html" target="_top" xlink:title=" ">
<polygon fill="white" stroke="#666666" points="483.98,-97 356.98,-97 356.98,-66.5 483.98,-66.5 483.98,-97"/>
<text text-anchor="start" x="364.98" y="-83.5" font-family="Helvetica,sans-Serif" font-size="10.00">lib/Analysis/ConstrainRef</text>
<text text-anchor="middle" x="420.48" y="-72.25" font-family="Helvetica,sans-Serif" font-size="10.00">Lattice.cpp</text>
</a>
</g>
</g>
<!-- Node2&#45;&gt;Node9 -->
<g id="edge16_Node000002_Node000009" class="edge">
<title>Node2&#45;&gt;Node9</title>
<g id="a_edge16_Node000002_Node000009"><a xlink:title=" ">
<path fill="none" stroke="#63b8ff" d="M524.5,-345.85C385.76,-343.17 55.86,-332.99 22.48,-296.5 -83.46,-180.68 219.46,-115.32 356.73,-92.3"/>
<polygon fill="#63b8ff" stroke="#63b8ff" points="524.16,-349.34 534.23,-346.03 524.29,-342.35 524.16,-349.34"/>
</a>
</g>
</g>
<!-- Node13 -->
<g id="Node000013" class="node">
<title>Node13</title>
<g id="a_Node000013"><a xlink:href="_felt_2_i_r_2_dialect_8cpp.html" target="_top" xlink:title=" ">
<polygon fill="white" stroke="#666666" points="863.73,-296.5 771.23,-296.5 771.23,-266 863.73,-266 863.73,-296.5"/>
<text text-anchor="start" x="779.23" y="-283" font-family="Helvetica,sans-Serif" font-size="10.00">lib/Dialect/Felt/IR</text>
<text text-anchor="middle" x="817.48" y="-271.75" font-family="Helvetica,sans-Serif" font-size="10.00">/Dialect.cpp</text>
</a>
</g>
</g>
<!-- Node2&#45;&gt;Node13 -->
<g id="edge17_Node000002_Node000013" class="edge">
<title>Node2&#45;&gt;Node13</title>
<g id="a_edge17_Node000002_Node000013"><a xlink:title=" ">
<path fill="none" stroke="#63b8ff" d="M645.91,-329.95C684.92,-319.1 734.89,-305.21 770.84,-295.22"/>
<polygon fill="#63b8ff" stroke="#63b8ff" points="645.12,-326.54 636.42,-332.59 646.99,-333.28 645.12,-326.54"/>
</a>
</g>
</g>
<!-- Node14 -->
<g id="Node000014" class="node">
<title>Node14</title>
<g id="a_Node000014"><a xlink:href="_felt_2_i_r_2_ops_8cpp.html" target="_top" xlink:title=" ">
<polygon fill="white" stroke="#666666" points="123.73,-296.5 31.23,-296.5 31.23,-266 123.73,-266 123.73,-296.5"/>
<text text-anchor="start" x="39.23" y="-283" font-family="Helvetica,sans-Serif" font-size="10.00">lib/Dialect/Felt/IR</text>
<text text-anchor="middle" x="77.48" y="-271.75" font-family="Helvetica,sans-Serif" font-size="10.00">/Ops.cpp</text>
</a>
</g>
</g>
<!-- Node2&#45;&gt;Node14 -->
<g id="edge18_Node000002_Node000014" class="edge">
<title>Node2&#45;&gt;Node14</title>
<g id="a_edge18_Node000002_Node000014"><a xlink:title=" ">
<path fill="none" stroke="#63b8ff" d="M524.59,-342.78C437.24,-336.45 271.56,-322.1 132.48,-296.5 129.76,-296 126.98,-295.44 124.18,-294.84"/>
<polygon fill="#63b8ff" stroke="#63b8ff" points="524.14,-346.25 534.36,-343.47 524.64,-339.27 524.14,-346.25"/>
</a>
</g>
</g>
<!-- Node15 -->
<g id="Node000015" class="node">
<title>Node15</title>
<g id="a_Node000015"><a xlink:href="_global_2_i_r_2_ops_8cpp.html" target="_top" xlink:title=" ">
<polygon fill="white" stroke="#666666" points="231.6,-296.5 141.35,-296.5 141.35,-266 231.6,-266 231.6,-296.5"/>
<text text-anchor="start" x="149.35" y="-283" font-family="Helvetica,sans-Serif" font-size="10.00">lib/Dialect/Global</text>
<text text-anchor="middle" x="186.48" y="-271.75" font-family="Helvetica,sans-Serif" font-size="10.00">/IR/Ops.cpp</text>
</a>
</g>
</g>
<!-- Node2&#45;&gt;Node15 -->
<g id="edge19_Node000002_Node000015" class="edge">
<title>Node2&#45;&gt;Node15</title>
<g id="a_edge19_Node000002_Node000015"><a xlink:title=" ">
<path fill="none" stroke="#63b8ff" d="M524.64,-340.01C455.43,-331.84 339.21,-316.65 240.48,-296.5 237.72,-295.94 234.9,-295.32 232.06,-294.67"/>
<polygon fill="#63b8ff" stroke="#63b8ff" points="523.91,-343.44 534.25,-341.13 524.72,-336.49 523.91,-343.44"/>
</a>
</g>
</g>
<!-- Node16 -->
<g id="Node000016" class="node">
<title>Node16</title>
<g id="a_Node000016"><a xlink:href="_flattening_pass_8cpp.html" target="_top" xlink:title="This file implements the &#45;llzk&#45;flatten pass.">
<polygon fill="white" stroke="#666666" points="405.23,-296.5 249.73,-296.5 249.73,-266 405.23,-266 405.23,-296.5"/>
<text text-anchor="start" x="257.73" y="-283" font-family="Helvetica,sans-Serif" font-size="10.00">lib/Dialect/Polymorphic</text>
<text text-anchor="middle" x="327.48" y="-271.75" font-family="Helvetica,sans-Serif" font-size="10.00">/Transforms/FlatteningPass.cpp</text>
</a>
</g>
</g>
<!-- Node2&#45;&gt;Node16 -->
<g id="edge20_Node000002_Node000016" class="edge">
<title>Node2&#45;&gt;Node16</title>
<g id="a_edge20_Node000002_Node000016"><a xlink:title=" ">
<path fill="none" stroke="#63b8ff" d="M524.58,-331.53C482.73,-321.06 427.46,-307.25 386.1,-296.91"/>
<polygon fill="#63b8ff" stroke="#63b8ff" points="523.71,-334.92 534.26,-333.95 525.41,-328.13 523.71,-334.92"/>
</a>
</g>
</g>
<!-- Node17 -->
<g id="Node000017" class="node">
<title>Node17</title>
<g id="a_Node000017"><a xlink:href="_l_l_z_k_redundant_read_and_write_elimination_pass_8cpp.html" target="_top" xlink:title="This file implements the &#45;llzk&#45;duplicate&#45;read&#45;write&#45;elim pass.">
<polygon fill="white" stroke="#666666" points="591.6,-296.5 423.35,-296.5 423.35,-266 591.6,-266 591.6,-296.5"/>
<text text-anchor="start" x="431.35" y="-283" font-family="Helvetica,sans-Serif" font-size="10.00">lib/Transforms/LLZKRedundant</text>
<text text-anchor="middle" x="507.48" y="-271.75" font-family="Helvetica,sans-Serif" font-size="10.00">ReadAndWriteEliminationPass.cpp</text>
</a>
</g>
</g>
<!-- Node2&#45;&gt;Node17 -->
<g id="edge21_Node000002_Node000017" class="edge">
<title>Node2&#45;&gt;Node17</title>
<g id="a_edge21_Node000002_Node000017"><a xlink:title=" ">
<path fill="none" stroke="#63b8ff" d="M559.2,-325.02C547.97,-315.73 535.17,-305.15 525.11,-296.83"/>
<polygon fill="#63b8ff" stroke="#63b8ff" points="556.68,-327.47 566.61,-331.15 561.14,-322.08 556.68,-327.47"/>
</a>
</g>
</g>
<!-- Node4 -->
<g id="Node000004" class="node">
<title>Node4</title>
<g id="a_Node000004"><a xlink:href="_constrain_ref_lattice_8h.html" target="_top" xlink:title=" ">
<polygon fill="white" stroke="#666666" points="634.6,-230 520.35,-230 520.35,-199.5 634.6,-199.5 634.6,-230"/>
<text text-anchor="start" x="528.35" y="-216.5" font-family="Helvetica,sans-Serif" font-size="10.00">include/llzk/Analysis</text>
<text text-anchor="middle" x="577.48" y="-205.25" font-family="Helvetica,sans-Serif" font-size="10.00">/ConstrainRefLattice.h</text>
</a>
</g>
</g>
<!-- Node3&#45;&gt;Node4 -->
<g id="edge3_Node000003_Node000004" class="edge">
<title>Node3&#45;&gt;Node4</title>
<g id="a_edge3_Node000003_Node000004"><a xlink:title=" ">
<path fill="none" stroke="#63b8ff" d="M634.2,-258.79C621.88,-249.44 607.76,-238.73 596.69,-230.33"/>
<polygon fill="#63b8ff" stroke="#63b8ff" points="631.9,-261.44 641.98,-264.7 636.13,-255.87 631.9,-261.44"/>
</a>
</g>
</g>
<!-- Node5 -->
<g id="Node000005" class="node">
<title>Node5</title>
<g id="a_Node000005"><a xlink:href="_constraint_dependency_graph_8h.html" target="_top" xlink:title=" ">
<polygon fill="white" stroke="#666666" points="715.1,-163.5 561.85,-163.5 561.85,-133 715.1,-133 715.1,-163.5"/>
<text text-anchor="start" x="569.85" y="-150" font-family="Helvetica,sans-Serif" font-size="10.00">include/llzk/Analysis</text>
<text text-anchor="middle" x="638.48" y="-138.75" font-family="Helvetica,sans-Serif" font-size="10.00">/ConstraintDependencyGraph.h</text>
</a>
</g>
</g>
<!-- Node3&#45;&gt;Node5 -->
<g id="edge13_Node000003_Node000005" class="edge">
<title>Node3&#45;&gt;Node5</title>
<g id="a_edge13_Node000003_Node000005"><a xlink:title=" ">
<path fill="none" stroke="#63b8ff" d="M657.75,-254.43C652.78,-227.34 645.16,-185.71 641.15,-163.83"/>
<polygon fill="#63b8ff" stroke="#63b8ff" points="654.3,-255.04 659.55,-264.24 661.19,-253.77 654.3,-255.04"/>
</a>
</g>
</g>
<!-- Node12 -->
<g id="Node000012" class="node">
<title>Node12</title>
<g id="a_Node000012"><a xlink:href="_constrain_ref_8cpp.html" target="_top" xlink:title=" ">
<polygon fill="white" stroke="#666666" points="502.35,-224.38 356.6,-224.38 356.6,-205.12 502.35,-205.12 502.35,-224.38"/>
<text text-anchor="middle" x="429.48" y="-210.88" font-family="Helvetica,sans-Serif" font-size="10.00">lib/Analysis/ConstrainRef.cpp</text>
</a>
</g>
</g>
<!-- Node3&#45;&gt;Node12 -->
<g id="edge14_Node000003_Node000012" class="edge">
<title>Node3&#45;&gt;Node12</title>
<g id="a_edge14_Node000003_Node000012"><a xlink:title=" ">
<path fill="none" stroke="#63b8ff" d="M598.68,-262.59C554.56,-250.38 497.65,-234.62 462.37,-224.85"/>
<polygon fill="#63b8ff" stroke="#63b8ff" points="597.58,-265.92 608.15,-265.21 599.44,-259.17 597.58,-265.92"/>
</a>
</g>
</g>
<!-- Node4&#45;&gt;Node5 -->
<g id="edge4_Node000004_Node000005" class="edge">
<title>Node4&#45;&gt;Node5</title>
<g id="a_edge4_Node000004_Node000005"><a xlink:title=" ">
<path fill="none" stroke="#63b8ff" d="M599.08,-190.91C607.6,-181.9 617.14,-171.82 624.69,-163.83"/>
<polygon fill="#63b8ff" stroke="#63b8ff" points="596.69,-188.34 592.36,-198.01 601.77,-193.15 596.69,-188.34"/>
</a>
</g>
</g>
<!-- Node4&#45;&gt;Node9 -->
<g id="edge11_Node000004_Node000009" class="edge">
<title>Node4&#45;&gt;Node9</title>
<g id="a_edge11_Node000004_Node000009"><a xlink:title=" ">
<path fill="none" stroke="#63b8ff" d="M551.64,-192.19C519.52,-165.39 465.59,-120.39 437.96,-97.33"/>
<polygon fill="#63b8ff" stroke="#63b8ff" points="548.99,-194.54 558.91,-198.26 553.48,-189.17 548.99,-194.54"/>
</a>
</g>
</g>
<!-- Node10 -->
<g id="Node000010" class="node">
<title>Node10</title>
<g id="a_Node000010"><a xlink:href="_constraint_dependency_graph_8cpp.html" target="_top" xlink:title=" ">
<polygon fill="white" stroke="#666666" points="670.98,-97 501.98,-97 501.98,-66.5 670.98,-66.5 670.98,-97"/>
<text text-anchor="start" x="509.98" y="-83.5" font-family="Helvetica,sans-Serif" font-size="10.00">lib/Analysis/ConstraintDependency</text>
<text text-anchor="middle" x="586.48" y="-72.25" font-family="Helvetica,sans-Serif" font-size="10.00">Graph.cpp</text>
</a>
</g>
</g>
<!-- Node4&#45;&gt;Node10 -->
<g id="edge12_Node000004_Node000010" class="edge">
<title>Node4&#45;&gt;Node10</title>
<g id="a_edge12_Node000004_Node000010"><a xlink:title=" ">
<path fill="none" stroke="#63b8ff" d="M562.18,-189.5C553.98,-173.47 546.66,-151.99 552.48,-133 556.55,-119.71 565.47,-106.76 573.14,-97.34"/>
<polygon fill="#63b8ff" stroke="#63b8ff" points="558.9,-190.81 566.82,-197.85 565.01,-187.41 558.9,-190.81"/>
</a>
</g>
</g>
<!-- Node5&#45;&gt;Node6 -->
<g id="edge5_Node000005_Node000006" class="edge">
<title>Node5&#45;&gt;Node6</title>
<g id="a_edge5_Node000005_Node000006"><a xlink:title=" ">
<path fill="none" stroke="#63b8ff" d="M726.45,-133.47C727.47,-133.31 728.48,-133.16 729.48,-133 825.38,-118.08 937.23,-100.81 1001.56,-90.9"/>
<polygon fill="#63b8ff" stroke="#63b8ff" points="726.27,-129.96 716.93,-134.96 727.35,-136.87 726.27,-129.96"/>
</a>
</g>
</g>
<!-- Node5&#45;&gt;Node9 -->
<g id="edge8_Node000005_Node000009" class="edge">
<title>Node5&#45;&gt;Node9</title>
<g id="a_edge8_Node000005_Node000009"><a xlink:title=" ">
<path fill="none" stroke="#63b8ff" d="M578,-129.35C543.98,-119.29 502.05,-106.89 470,-97.4"/>
<polygon fill="#63b8ff" stroke="#63b8ff" points="576.7,-132.62 587.29,-132.1 578.69,-125.91 576.7,-132.62"/>
</a>
</g>
</g>
<!-- Node5&#45;&gt;Node10 -->
<g id="edge9_Node000005_Node000010" class="edge">
<title>Node5&#45;&gt;Node10</title>
<g id="a_edge9_Node000005_Node000010"><a xlink:title=" ">
<path fill="none" stroke="#63b8ff" d="M619.61,-123.85C612.47,-114.98 604.54,-105.15 598.23,-97.33"/>
<polygon fill="#63b8ff" stroke="#63b8ff" points="616.73,-125.85 625.73,-131.44 622.18,-121.45 616.73,-125.85"/>
</a>
</g>
</g>
<!-- Node11 -->
<g id="Node000011" class="node">
<title>Node11</title>
<g id="a_Node000011"><a xlink:href="_constraint_dependency_graph_pass_8cpp.html" target="_top" xlink:title="This file implements the &#45;llzk&#45;print&#45;constraint&#45;dependency&#45;graphs pass.">
<polygon fill="white" stroke="#666666" points="857.98,-97 688.98,-97 688.98,-66.5 857.98,-66.5 857.98,-97"/>
<text text-anchor="start" x="696.98" y="-83.5" font-family="Helvetica,sans-Serif" font-size="10.00">lib/Analysis/ConstraintDependency</text>
<text text-anchor="middle" x="773.48" y="-72.25" font-family="Helvetica,sans-Serif" font-size="10.00">GraphPass.cpp</text>
</a>
</g>
</g>
<!-- Node5&#45;&gt;Node11 -->
<g id="edge10_Node000005_Node000011" class="edge">
<title>Node5&#45;&gt;Node11</title>
<g id="a_edge10_Node000005_Node000011"><a xlink:title=" ">
<path fill="none" stroke="#63b8ff" d="M679.4,-127.7C699.85,-117.93 724.18,-106.31 742.97,-97.33"/>
<polygon fill="#63b8ff" stroke="#63b8ff" points="677.99,-124.49 670.48,-131.96 681.01,-130.81 677.99,-124.49"/>
</a>
</g>
</g>
<!-- Node7 -->
<g id="Node000007" class="node">
<title>Node7</title>
<g id="a_Node000007"><a xlink:href="_interval_analysis_8cpp.html" target="_top" xlink:title=" ">
<polygon fill="white" stroke="#666666" points="1126.35,-24.88 968.6,-24.88 968.6,-5.63 1126.35,-5.63 1126.35,-24.88"/>
<text text-anchor="middle" x="1047.48" y="-11.38" font-family="Helvetica,sans-Serif" font-size="10.00">lib/Analysis/IntervalAnalysis.cpp</text>
</a>
</g>
</g>
<!-- Node6&#45;&gt;Node7 -->
<g id="edge6_Node000006_Node000007" class="edge">
<title>Node6&#45;&gt;Node7</title>
<g id="a_edge6_Node000006_Node000007"><a xlink:title=" ">
<path fill="none" stroke="#63b8ff" d="M1051.67,-54.84C1050.52,-44.26 1049.27,-32.75 1048.44,-25.07"/>
<polygon fill="#63b8ff" stroke="#63b8ff" points="1048.17,-55.05 1052.73,-64.61 1055.13,-54.29 1048.17,-55.05"/>
</a>
</g>
</g>
<!-- Node8 -->
<g id="Node000008" class="node">
<title>Node8</title>
<g id="a_Node000008"><a xlink:href="_interval_analysis_pass_8cpp.html" target="_top" xlink:title="This file implements the &#45;llzk&#45;print&#45;interval&#45;analysis pass.">
<polygon fill="white" stroke="#666666" points="1282.98,-30.5 1143.98,-30.5 1143.98,0 1282.98,0 1282.98,-30.5"/>
<text text-anchor="start" x="1151.98" y="-17" font-family="Helvetica,sans-Serif" font-size="10.00">lib/Analysis/IntervalAnalysis</text>
<text text-anchor="middle" x="1213.48" y="-5.75" font-family="Helvetica,sans-Serif" font-size="10.00">Pass.cpp</text>
</a>
</g>
</g>
<!-- Node6&#45;&gt;Node8 -->
<g id="edge7_Node000006_Node000008" class="edge">
<title>Node6&#45;&gt;Node8</title>
<g id="a_edge7_Node000006_Node000008"><a xlink:title=" ">
<path fill="none" stroke="#63b8ff" d="M1100.99,-61.88C1125.32,-52.01 1154.65,-40.11 1177.27,-30.94"/>
<polygon fill="#63b8ff" stroke="#63b8ff" points="1099.91,-58.54 1091.96,-65.54 1102.54,-65.03 1099.91,-58.54"/>
</a>
</g>
</g>
<!-- Node18&#45;&gt;Node2 -->
<g id="edge34_Node000018_Node000002" class="edge">
<title>Node18&#45;&gt;Node2</title>
<g id="a_edge34_Node000018_Node000002"><a xlink:title=" ">
<path fill="none" stroke="#63b8ff" d="M1043.99,-405.73C940.38,-392.86 730.9,-366.82 635.2,-354.93"/>
<polygon fill="#63b8ff" stroke="#63b8ff" points="1043.33,-409.18 1053.68,-406.94 1044.19,-402.23 1043.33,-409.18"/>
</a>
</g>
</g>
<!-- Node18&#45;&gt;Node13 -->
<g id="edge37_Node000018_Node000013" class="edge">
<title>Node18&#45;&gt;Node13</title>
<g id="a_edge37_Node000018_Node000013"><a xlink:title=" ">
<path fill="none" stroke="#63b8ff" d="M1044.15,-396.86C1015.49,-388.22 981.11,-376.59 951.48,-363 909.5,-343.76 864.19,-314.46 838.47,-296.95"/>
<polygon fill="#63b8ff" stroke="#63b8ff" points="1042.8,-400.11 1053.38,-399.6 1044.78,-393.4 1042.8,-400.11"/>
</a>
</g>
</g>
<!-- Node19 -->
<g id="Node000019" class="node">
<title>Node19</title>
<g id="a_Node000019"><a xlink:href="_bool_2_i_r_2_ops_8h.html" target="_top" xlink:title=" ">
<polygon fill="white" stroke="#666666" points="1058.73,-363 960.23,-363 960.23,-332.5 1058.73,-332.5 1058.73,-363"/>
<text text-anchor="start" x="968.23" y="-349.5" font-family="Helvetica,sans-Serif" font-size="10.00">include/llzk/Dialect</text>
<text text-anchor="middle" x="1009.48" y="-338.25" font-family="Helvetica,sans-Serif" font-size="10.00">/Bool/IR/Ops.h</text>
</a>
</g>
</g>
<!-- Node18&#45;&gt;Node19 -->
<g id="edge23_Node000018_Node000019" class="edge">
<title>Node18&#45;&gt;Node19</title>
<g id="a_edge23_Node000018_Node000019"><a xlink:title=" ">
<path fill="none" stroke="#63b8ff" d="M1073.68,-392.34C1059.73,-382.87 1043.57,-371.89 1030.95,-363.33"/>
<polygon fill="#63b8ff" stroke="#63b8ff" points="1071.43,-395.04 1081.67,-397.76 1075.36,-389.25 1071.43,-395.04"/>
</a>
</g>
</g>
<!-- Node20 -->
<g id="Node000020" class="node">
<title>Node20</title>
<g id="a_Node000020"><a xlink:href="_bool_2_i_r_2_dialect_8cpp.html" target="_top" xlink:title=" ">
<polygon fill="white" stroke="#666666" points="1337.23,-296.5 1241.73,-296.5 1241.73,-266 1337.23,-266 1337.23,-296.5"/>
<text text-anchor="start" x="1249.73" y="-283" font-family="Helvetica,sans-Serif" font-size="10.00">lib/Dialect/Bool/IR</text>
<text text-anchor="middle" x="1289.48" y="-271.75" font-family="Helvetica,sans-Serif" font-size="10.00">/Dialect.cpp</text>
</a>
</g>
</g>
<!-- Node18&#45;&gt;Node20 -->
<g id="edge35_Node000018_Node000020" class="edge">
<title>Node18&#45;&gt;Node20</title>
<g id="a_edge35_Node000018_Node000020"><a xlink:title=" ">
<path fill="none" stroke="#63b8ff" d="M1104.17,-387.24C1105.35,-369.67 1109.77,-347.1 1123.48,-332.5 1131.77,-323.67 1195.29,-306.07 1241.29,-294.22"/>
<polygon fill="#63b8ff" stroke="#63b8ff" points="1100.67,-387.08 1103.84,-397.19 1107.67,-387.31 1100.67,-387.08"/>
</a>
</g>
</g>
<!-- Node23 -->
<g id="Node000023" class="node">
<title>Node23</title>
<g id="a_Node000023"><a xlink:href="_cast_2_i_r_2_ops_8h.html" target="_top" xlink:title=" ">
<polygon fill="white" stroke="#666666" points="1590.73,-363 1492.23,-363 1492.23,-332.5 1590.73,-332.5 1590.73,-363"/>
<text text-anchor="start" x="1500.23" y="-349.5" font-family="Helvetica,sans-Serif" font-size="10.00">include/llzk/Dialect</text>
<text text-anchor="middle" x="1541.48" y="-338.25" font-family="Helvetica,sans-Serif" font-size="10.00">/Cast/IR/Ops.h</text>
</a>
</g>
</g>
<!-- Node18&#45;&gt;Node23 -->
<g id="edge30_Node000018_Node000023" class="edge">
<title>Node18&#45;&gt;Node23</title>
<g id="a_edge30_Node000018_Node000023"><a xlink:title=" ">
<path fill="none" stroke="#63b8ff" d="M1165.23,-407.26C1240.35,-399.38 1371.96,-384.03 1483.48,-363 1486.23,-362.48 1489.05,-361.91 1491.88,-361.31"/>
<polygon fill="#63b8ff" stroke="#63b8ff" points="1165.21,-403.74 1155.62,-408.26 1165.93,-410.71 1165.21,-403.74"/>
</a>
</g>
</g>
<!-- Node26 -->
<g id="Node000026" class="node">
<title>Node26</title>
<g id="a_Node000026"><a xlink:href="_attrs_8cpp.html" target="_top" xlink:title=" ">
<polygon fill="white" stroke="#666666" points="1224.73,-363 1132.23,-363 1132.23,-332.5 1224.73,-332.5 1224.73,-363"/>
<text text-anchor="start" x="1140.23" y="-349.5" font-family="Helvetica,sans-Serif" font-size="10.00">lib/Dialect/Felt/IR</text>
<text text-anchor="middle" x="1178.48" y="-338.25" font-family="Helvetica,sans-Serif" font-size="10.00">/Attrs.cpp</text>
</a>
</g>
</g>
<!-- Node18&#45;&gt;Node26 -->
<g id="edge36_Node000018_Node000026" class="edge">
<title>Node18&#45;&gt;Node26</title>
<g id="a_edge36_Node000018_Node000026"><a xlink:title=" ">
<path fill="none" stroke="#63b8ff" d="M1129.73,-391.24C1140.3,-382.03 1152.3,-371.56 1161.75,-363.33"/>
<polygon fill="#63b8ff" stroke="#63b8ff" points="1127.65,-388.41 1122.41,-397.62 1132.25,-393.69 1127.65,-388.41"/>
</a>
</g>
</g>
<!-- Node27 -->
<g id="Node000027" class="node">
<title>Node27</title>
<g id="a_Node000027"><a xlink:href="_l_l_z_k_2_i_r_2_dialect_8cpp.html" target="_top" xlink:title=" ">
<polygon fill="white" stroke="#666666" points="1342.1,-363 1242.85,-363 1242.85,-332.5 1342.1,-332.5 1342.1,-363"/>
<text text-anchor="start" x="1250.85" y="-349.5" font-family="Helvetica,sans-Serif" font-size="10.00">lib/Dialect/LLZK/IR</text>
<text text-anchor="middle" x="1292.48" y="-338.25" font-family="Helvetica,sans-Serif" font-size="10.00">/Dialect.cpp</text>
</a>
</g>
</g>
<!-- Node18&#45;&gt;Node27 -->
<g id="edge38_Node000018_Node000027" class="edge">
<title>Node18&#45;&gt;Node27</title>
<g id="a_edge38_Node000018_Node000027"><a xlink:title=" ">
<path fill="none" stroke="#63b8ff" d="M1157.93,-394.91C1186.99,-384.94 1222.44,-372.78 1249.66,-363.44"/>
<polygon fill="#63b8ff" stroke="#63b8ff" points="1156.89,-391.57 1148.57,-398.12 1159.16,-398.19 1156.89,-391.57"/>
</a>
</g>
</g>
<!-- Node28 -->
<g id="Node000028" class="node">
<title>Node28</title>
<g id="a_Node000028"><a xlink:href="_type_helper_8cpp.html" target="_top" xlink:title=" ">
<polygon fill="white" stroke="#666666" points="1474.6,-357.38 1360.35,-357.38 1360.35,-338.12 1474.6,-338.12 1474.6,-357.38"/>
<text text-anchor="middle" x="1417.48" y="-343.88" font-family="Helvetica,sans-Serif" font-size="10.00">lib/Util/TypeHelper.cpp</text>
</a>
</g>
</g>
<!-- Node18&#45;&gt;Node28 -->
<g id="edge39_Node000018_Node000028" class="edge">
<title>Node18&#45;&gt;Node28</title>
<g id="a_edge39_Node000018_Node000028"><a xlink:title=" ">
<path fill="none" stroke="#63b8ff" d="M1165.45,-401.06C1215.47,-391 1288.1,-376.29 1351.48,-363 1359.28,-361.36 1367.59,-359.59 1375.6,-357.87"/>
<polygon fill="#63b8ff" stroke="#63b8ff" points="1164.79,-397.62 1155.67,-403.02 1166.17,-404.48 1164.79,-397.62"/>
</a>
</g>
</g>
<!-- Node19&#45;&gt;Node6 -->
<g id="edge24_Node000019_Node000006" class="edge">
<title>Node19&#45;&gt;Node6</title>
<g id="a_edge24_Node000019_Node000006"><a xlink:title=" ">
<path fill="none" stroke="#63b8ff" d="M1028.91,-322.74C1034.27,-314.83 1039.44,-305.7 1042.48,-296.5 1066.05,-225.02 1059.84,-132.88 1056.21,-97.49"/>
<polygon fill="#63b8ff" stroke="#63b8ff" points="1026.11,-320.64 1023.06,-330.79 1031.77,-324.76 1026.11,-320.64"/>
</a>
</g>
</g>
<!-- Node19&#45;&gt;Node8 -->
<g id="edge26_Node000019_Node000008" class="edge">
<title>Node19&#45;&gt;Node8</title>
<g id="a_edge26_Node000019_Node000008"><a xlink:title=" ">
<path fill="none" stroke="#63b8ff" d="M1069.9,-337.19C1116.99,-328.52 1177.19,-314.39 1194.48,-296.5 1220.1,-269.99 1213.48,-252.62 1213.48,-215.75 1213.48,-215.75 1213.48,-215.75 1213.48,-147.25 1213.48,-104.95 1213.48,-54.96 1213.48,-30.79"/>
<polygon fill="#63b8ff" stroke="#63b8ff" points="1069.58,-333.69 1060.35,-338.9 1070.81,-340.58 1069.58,-333.69"/>
</a>
</g>
</g>
<!-- Node19&#45;&gt;Node19 -->
<g id="edge25_Node000019_Node000019" class="edge">
<title>Node19&#45;&gt;Node19</title>
<g id="a_edge25_Node000019_Node000019"><a xlink:title=" ">
<path fill="none" stroke="#63b8ff" d="M1069.85,-356.88C1074.12,-354.8 1076.73,-351.76 1076.73,-347.75 1076.73,-341 1069.33,-336.99 1059.04,-335.72"/>
<polygon fill="#63b8ff" stroke="#63b8ff" points="1069.25,-353.41 1060.5,-359.39 1071.07,-360.17 1069.25,-353.41"/>
</a>
</g>
</g>
<!-- Node19&#45;&gt;Node20 -->
<g id="edge27_Node000019_Node000020" class="edge">
<title>Node19&#45;&gt;Node20</title>
<g id="a_edge27_Node000019_Node000020"><a xlink:title=" ">
<path fill="none" stroke="#63b8ff" d="M1070.17,-332.77C1121.56,-320.93 1194.24,-304.19 1241.61,-293.28"/>
<polygon fill="#63b8ff" stroke="#63b8ff" points="1069.65,-329.3 1060.69,-334.95 1071.22,-336.12 1069.65,-329.3"/>
</a>
</g>
</g>
<!-- Node21 -->
<g id="Node000021" class="node">
<title>Node21</title>
<g id="a_Node000021"><a xlink:href="_bool_2_i_r_2_ops_8cpp.html" target="_top" xlink:title=" ">
<polygon fill="white" stroke="#666666" points="1185.23,-296.5 1089.73,-296.5 1089.73,-266 1185.23,-266 1185.23,-296.5"/>
<text text-anchor="start" x="1097.73" y="-283" font-family="Helvetica,sans-Serif" font-size="10.00">lib/Dialect/Bool/IR</text>
<text text-anchor="middle" x="1137.48" y="-271.75" font-family="Helvetica,sans-Serif" font-size="10.00">/Ops.cpp</text>
</a>
</g>
</g>
<!-- Node19&#45;&gt;Node21 -->
<g id="edge28_Node000019_Node000021" class="edge">
<title>Node19&#45;&gt;Node21</title>
<g id="a_edge28_Node000019_Node000021"><a xlink:title=" ">
<path fill="none" stroke="#63b8ff" d="M1048.55,-327.06C1067.88,-317.32 1090.81,-305.76 1108.55,-296.83"/>
<polygon fill="#63b8ff" stroke="#63b8ff" points="1047.23,-323.81 1039.88,-331.43 1050.38,-330.06 1047.23,-323.81"/>
</a>
</g>
</g>
<!-- Node22 -->
<g id="Node000022" class="node">
<title>Node22</title>
<g id="a_Node000022"><a xlink:href="_l_l_z_k_redundant_operation_elimination_pass_8cpp.html" target="_top" xlink:title="This file implements the &#45;llzk&#45;duplicate&#45;op&#45;elim pass.">
<polygon fill="white" stroke="#666666" points="1033.35,-296.5 881.6,-296.5 881.6,-266 1033.35,-266 1033.35,-296.5"/>
<text text-anchor="start" x="889.6" y="-283" font-family="Helvetica,sans-Serif" font-size="10.00">lib/Transforms/LLZKRedundant</text>
<text text-anchor="middle" x="957.48" y="-271.75" font-family="Helvetica,sans-Serif" font-size="10.00">OperationEliminationPass.cpp</text>
</a>
</g>
</g>
<!-- Node19&#45;&gt;Node22 -->
<g id="edge29_Node000019_Node000022" class="edge">
<title>Node19&#45;&gt;Node22</title>
<g id="a_edge29_Node000019_Node000022"><a xlink:title=" ">
<path fill="none" stroke="#63b8ff" d="M990.61,-323.35C983.47,-314.48 975.54,-304.65 969.23,-296.83"/>
<polygon fill="#63b8ff" stroke="#63b8ff" points="987.73,-325.35 996.73,-330.94 993.18,-320.95 987.73,-325.35"/>
</a>
</g>
</g>
<!-- Node23&#45;&gt;Node6 -->
<g id="edge31_Node000023_Node000006" class="edge">
<title>Node23&#45;&gt;Node6</title>
<g id="a_edge31_Node000023_Node000006"><a xlink:title=" ">
<path fill="none" stroke="#63b8ff" d="M1498.81,-327.34C1479.34,-318.27 1456.09,-307.15 1435.48,-296.5 1298.7,-225.82 1139.27,-132.83 1079.12,-97.35"/>
<polygon fill="#63b8ff" stroke="#63b8ff" points="1497.27,-330.48 1507.82,-331.51 1500.21,-324.13 1497.27,-330.48"/>
</a>
</g>
</g>
<!-- Node24 -->
<g id="Node000024" class="node">
<title>Node24</title>
<g id="a_Node000024"><a xlink:href="_cast_2_i_r_2_dialect_8cpp.html" target="_top" xlink:title=" ">
<polygon fill="white" stroke="#666666" points="1540.98,-296.5 1443.98,-296.5 1443.98,-266 1540.98,-266 1540.98,-296.5"/>
<text text-anchor="start" x="1451.98" y="-283" font-family="Helvetica,sans-Serif" font-size="10.00">lib/Dialect/Cast/IR</text>
<text text-anchor="middle" x="1492.48" y="-271.75" font-family="Helvetica,sans-Serif" font-size="10.00">/Dialect.cpp</text>
</a>
</g>
</g>
<!-- Node23&#45;&gt;Node24 -->
<g id="edge32_Node000023_Node000024" class="edge">
<title>Node23&#45;&gt;Node24</title>
<g id="a_edge32_Node000023_Node000024"><a xlink:title=" ">
<path fill="none" stroke="#63b8ff" d="M1523.49,-323.07C1516.81,-314.28 1509.43,-304.57 1503.55,-296.83"/>
<polygon fill="#63b8ff" stroke="#63b8ff" points="1520.61,-325.06 1529.44,-330.91 1526.18,-320.83 1520.61,-325.06"/>
</a>
</g>
</g>
<!-- Node25 -->
<g id="Node000025" class="node">
<title>Node25</title>
<g id="a_Node000025"><a xlink:href="_cast_2_i_r_2_ops_8cpp.html" target="_top" xlink:title=" ">
<polygon fill="white" stroke="#666666" points="1655.98,-296.5 1558.98,-296.5 1558.98,-266 1655.98,-266 1655.98,-296.5"/>
<text text-anchor="start" x="1566.98" y="-283" font-family="Helvetica,sans-Serif" font-size="10.00">lib/Dialect/Cast/IR</text>
<text text-anchor="middle" x="1607.48" y="-271.75" font-family="Helvetica,sans-Serif" font-size="10.00">/Ops.cpp</text>
</a>
</g>
</g>
<!-- Node23&#45;&gt;Node25 -->
<g id="edge33_Node000023_Node000025" class="edge">
<title>Node23&#45;&gt;Node25</title>
<g id="a_edge33_Node000023_Node000025"><a xlink:title=" ">
<path fill="none" stroke="#63b8ff" d="M1564.57,-324.19C1573.86,-315.11 1584.3,-304.9 1592.56,-296.83"/>
<polygon fill="#63b8ff" stroke="#63b8ff" points="1562.24,-321.56 1557.54,-331.06 1567.14,-326.57 1562.24,-321.56"/>
</a>
</g>
</g>
</g>
</svg>
