<?xml version="1.0" encoding="UTF-8" standalone="no"?>
<!DOCTYPE svg PUBLIC "-//W3C//DTD SVG 1.1//EN"
 "http://www.w3.org/Graphics/SVG/1.1/DTD/svg11.dtd">
<!-- Generated by graphviz version 12.2.1 (20241206.2353)
 -->
<!-- Title: build/include/llzk/Dialect/Function/IR/Dialect.h.inc Pages: 1 -->
<svg width="1957pt" height="338pt"
 viewBox="0.00 0.00 1957.12 338.25" xmlns="http://www.w3.org/2000/svg" xmlns:xlink="http://www.w3.org/1999/xlink">
<g id="graph0" class="graph" transform="scale(1 1) rotate(0) translate(4 334.25)">
<title>build/include/llzk/Dialect/Function/IR/Dialect.h.inc</title>
<!-- Node1 -->
<g id="Node000001" class="node">
<title>Node1</title>
<g id="a_Node000001"><a xlink:title=" ">
<polygon fill="#999999" stroke="#666666" points="1130.12,-330.25 1026.38,-330.25 1026.38,-288.5 1130.12,-288.5 1130.12,-330.25"/>
<text text-anchor="start" x="1034.38" y="-316.75" font-family="Helvetica,sans-Serif" font-size="10.00">build/include/llzk</text>
<text text-anchor="start" x="1034.38" y="-305.5" font-family="Helvetica,sans-Serif" font-size="10.00">/Dialect/Function/IR</text>
<text text-anchor="middle" x="1078.25" y="-294.25" font-family="Helvetica,sans-Serif" font-size="10.00">/Dialect.h.inc</text>
</a>
</g>
</g>
<!-- Node2 -->
<g id="Node000002" class="node">
<title>Node2</title>
<g id="a_Node000002"><a xlink:href="_function_2_i_r_2_dialect_8h.html" target="_top" xlink:title=" ">
<polygon fill="white" stroke="#666666" points="1134.25,-252.5 1022.25,-252.5 1022.25,-222 1134.25,-222 1134.25,-252.5"/>
<text text-anchor="start" x="1030.25" y="-239" font-family="Helvetica,sans-Serif" font-size="10.00">include/llzk/Dialect</text>
<text text-anchor="middle" x="1078.25" y="-227.75" font-family="Helvetica,sans-Serif" font-size="10.00">/Function/IR/Dialect.h</text>
</a>
</g>
</g>
<!-- Node1&#45;&gt;Node2 -->
<g id="edge1_Node000001_Node000002" class="edge">
<title>Node1&#45;&gt;Node2</title>
<g id="a_edge1_Node000001_Node000002"><a xlink:title=" ">
<path fill="none" stroke="#63b8ff" d="M1078.25,-276.63C1078.25,-268.27 1078.25,-259.65 1078.25,-252.7"/>
<polygon fill="#63b8ff" stroke="#63b8ff" points="1074.75,-276.58 1078.25,-286.58 1081.75,-276.58 1074.75,-276.58"/>
</a>
</g>
</g>
<!-- Node3 -->
<g id="Node000003" class="node">
<title>Node3</title>
<g id="a_Node000003"><a xlink:href="_pass_base_8h.html" target="_top" xlink:title=" ">
<polygon fill="white" stroke="#666666" points="1010.5,-180.38 864,-180.38 864,-161.12 1010.5,-161.12 1010.5,-180.38"/>
<text text-anchor="middle" x="937.25" y="-166.88" font-family="Helvetica,sans-Serif" font-size="10.00">include/llzk/Pass/PassBase.h</text>
</a>
</g>
</g>
<!-- Node2&#45;&gt;Node3 -->
<g id="edge2_Node000002_Node000003" class="edge">
<title>Node2&#45;&gt;Node3</title>
<g id="a_edge2_Node000002_Node000003"><a xlink:title=" ">
<path fill="none" stroke="#63b8ff" d="M1035.83,-216.85C1009.65,-204.87 977.28,-190.06 956.95,-180.76"/>
<polygon fill="#63b8ff" stroke="#63b8ff" points="1034.33,-220.01 1044.88,-220.98 1037.24,-213.64 1034.33,-220.01"/>
</a>
</g>
</g>
<!-- Node22 -->
<g id="Node000022" class="node">
<title>Node22</title>
<g id="a_Node000022"><a xlink:href="_function_2_i_r_2_dialect_8cpp.html" target="_top" xlink:title=" ">
<polygon fill="white" stroke="#666666" points="1128.25,-186 1028.25,-186 1028.25,-155.5 1128.25,-155.5 1128.25,-186"/>
<text text-anchor="start" x="1036.25" y="-172.5" font-family="Helvetica,sans-Serif" font-size="10.00">lib/Dialect/Function</text>
<text text-anchor="middle" x="1078.25" y="-161.25" font-family="Helvetica,sans-Serif" font-size="10.00">/IR/Dialect.cpp</text>
</a>
</g>
</g>
<!-- Node2&#45;&gt;Node22 -->
<g id="edge26_Node000002_Node000022" class="edge">
<title>Node2&#45;&gt;Node22</title>
<g id="a_edge26_Node000002_Node000022"><a xlink:title=" ">
<path fill="none" stroke="#63b8ff" d="M1078.25,-210.31C1078.25,-202.14 1078.25,-193.41 1078.25,-186.33"/>
<polygon fill="#63b8ff" stroke="#63b8ff" points="1074.75,-210.1 1078.25,-220.1 1081.75,-210.1 1074.75,-210.1"/>
</a>
</g>
</g>
<!-- Node23 -->
<g id="Node000023" class="node">
<title>Node23</title>
<g id="a_Node000023"><a xlink:href="_init_dialects_8cpp.html" target="_top" xlink:title=" ">
<polygon fill="white" stroke="#666666" points="1276.62,-180.38 1145.88,-180.38 1145.88,-161.12 1276.62,-161.12 1276.62,-180.38"/>
<text text-anchor="middle" x="1211.25" y="-166.88" font-family="Helvetica,sans-Serif" font-size="10.00">lib/Dialect/InitDialects.cpp</text>
</a>
</g>
</g>
<!-- Node2&#45;&gt;Node23 -->
<g id="edge27_Node000002_Node000023" class="edge">
<title>Node2&#45;&gt;Node23</title>
<g id="a_edge27_Node000002_Node000023"><a xlink:title=" ">
<path fill="none" stroke="#63b8ff" d="M1118.59,-216.69C1143.23,-204.74 1173.57,-190.02 1192.67,-180.76"/>
<polygon fill="#63b8ff" stroke="#63b8ff" points="1117.26,-213.44 1109.79,-220.95 1120.32,-219.74 1117.26,-213.44"/>
</a>
</g>
</g>
<!-- Node4 -->
<g id="Node000004" class="node">
<title>Node4</title>
<g id="a_Node000004"><a xlink:href="_analysis_passes_8h.html" target="_top" xlink:title=" ">
<polygon fill="white" stroke="#666666" points="491.88,-113.88 386.62,-113.88 386.62,-83.38 491.88,-83.38 491.88,-113.88"/>
<text text-anchor="start" x="394.62" y="-100.38" font-family="Helvetica,sans-Serif" font-size="10.00">include/llzk/Analysis</text>
<text text-anchor="middle" x="439.25" y="-89.12" font-family="Helvetica,sans-Serif" font-size="10.00">/AnalysisPasses.h</text>
</a>
</g>
</g>
<!-- Node3&#45;&gt;Node4 -->
<g id="edge3_Node000003_Node000004" class="edge">
<title>Node3&#45;&gt;Node4</title>
<g id="a_edge3_Node000003_Node000004"><a xlink:title=" ">
<path fill="none" stroke="#63b8ff" d="M861.53,-159.09C759.66,-144.74 581.03,-119.59 492.33,-107.1"/>
<polygon fill="#63b8ff" stroke="#63b8ff" points="860.77,-162.51 871.16,-160.44 861.74,-155.58 860.77,-162.51"/>
</a>
</g>
</g>
<!-- Node9 -->
<g id="Node000009" class="node">
<title>Node9</title>
<g id="a_Node000009"><a xlink:href="_array_2_transforms_2_transformation_passes_8h.html" target="_top" xlink:title=" ">
<polygon fill="white" stroke="#666666" points="753.75,-119.5 590.75,-119.5 590.75,-77.75 753.75,-77.75 753.75,-119.5"/>
<text text-anchor="start" x="598.75" y="-106" font-family="Helvetica,sans-Serif" font-size="10.00">include/llzk/Dialect</text>
<text text-anchor="start" x="598.75" y="-94.75" font-family="Helvetica,sans-Serif" font-size="10.00">/Array/Transforms/Transformation</text>
<text text-anchor="middle" x="672.25" y="-83.5" font-family="Helvetica,sans-Serif" font-size="10.00">Passes.h</text>
</a>
</g>
</g>
<!-- Node3&#45;&gt;Node9 -->
<g id="edge8_Node000003_Node000009" class="edge">
<title>Node3&#45;&gt;Node9</title>
<g id="a_edge8_Node000003_Node000009"><a xlink:title=" ">
<path fill="none" stroke="#63b8ff" d="M891.85,-157.74C852.73,-147.39 795.43,-132.22 749.17,-119.98"/>
<polygon fill="#63b8ff" stroke="#63b8ff" points="890.85,-161.09 901.41,-160.27 892.64,-154.33 890.85,-161.09"/>
</a>
</g>
</g>
<!-- Node11 -->
<g id="Node000011" class="node">
<title>Node11</title>
<g id="a_Node000011"><a xlink:href="_inline_includes_pass_8h.html" target="_top" xlink:title=" ">
<polygon fill="white" stroke="#666666" points="938.25,-119.5 772.25,-119.5 772.25,-77.75 938.25,-77.75 938.25,-119.5"/>
<text text-anchor="start" x="780.25" y="-106" font-family="Helvetica,sans-Serif" font-size="10.00">include/llzk/Dialect</text>
<text text-anchor="start" x="780.25" y="-94.75" font-family="Helvetica,sans-Serif" font-size="10.00">/Include/Transforms/InlineIncludes</text>
<text text-anchor="middle" x="855.25" y="-83.5" font-family="Helvetica,sans-Serif" font-size="10.00">Pass.h</text>
</a>
</g>
</g>
<!-- Node3&#45;&gt;Node11 -->
<g id="edge11_Node000003_Node000011" class="edge">
<title>Node3&#45;&gt;Node11</title>
<g id="a_edge11_Node000003_Node000011"><a xlink:title=" ">
<path fill="none" stroke="#63b8ff" d="M918.32,-153.56C906.6,-143.54 891.46,-130.59 878.95,-119.89"/>
<polygon fill="#63b8ff" stroke="#63b8ff" points="915.84,-156.05 925.71,-159.88 920.39,-150.73 915.84,-156.05"/>
</a>
</g>
</g>
<!-- Node13 -->
<g id="Node000013" class="node">
<title>Node13</title>
<g id="a_Node000013"><a xlink:href="_polymorphic_2_transforms_2_transformation_passes_8h.html" target="_top" xlink:title=" ">
<polygon fill="white" stroke="#666666" points="1082,-119.5 956.5,-119.5 956.5,-77.75 1082,-77.75 1082,-119.5"/>
<text text-anchor="start" x="964.5" y="-106" font-family="Helvetica,sans-Serif" font-size="10.00">include/llzk/Dialect</text>
<text text-anchor="start" x="964.5" y="-94.75" font-family="Helvetica,sans-Serif" font-size="10.00">/Polymorphic/Transforms</text>
<text text-anchor="middle" x="1019.25" y="-83.5" font-family="Helvetica,sans-Serif" font-size="10.00">/TransformationPasses.h</text>
</a>
</g>
</g>
<!-- Node3&#45;&gt;Node13 -->
<g id="edge14_Node000003_Node000013" class="edge">
<title>Node3&#45;&gt;Node13</title>
<g id="a_edge14_Node000003_Node000013"><a xlink:title=" ">
<path fill="none" stroke="#63b8ff" d="M956.18,-153.56C967.9,-143.54 983.04,-130.59 995.55,-119.89"/>
<polygon fill="#63b8ff" stroke="#63b8ff" points="954.11,-150.73 948.79,-159.88 958.66,-156.05 954.11,-150.73"/>
</a>
</g>
</g>
<!-- Node15 -->
<g id="Node000015" class="node">
<title>Node15</title>
<g id="a_Node000015"><a xlink:href="_l_l_z_k_transformation_passes_8h.html" target="_top" xlink:title=" ">
<polygon fill="white" stroke="#666666" points="1265.62,-113.88 1116.88,-113.88 1116.88,-83.38 1265.62,-83.38 1265.62,-113.88"/>
<text text-anchor="start" x="1124.88" y="-100.38" font-family="Helvetica,sans-Serif" font-size="10.00">include/llzk/Transforms</text>
<text text-anchor="middle" x="1191.25" y="-89.12" font-family="Helvetica,sans-Serif" font-size="10.00">/LLZKTransformationPasses.h</text>
</a>
</g>
</g>
<!-- Node3&#45;&gt;Node15 -->
<g id="edge17_Node000003_Node000015" class="edge">
<title>Node3&#45;&gt;Node15</title>
<g id="a_edge17_Node000003_Node000015"><a xlink:title=" ">
<path fill="none" stroke="#63b8ff" d="M981.28,-157.59C1024.82,-145.57 1091.5,-127.16 1138,-114.33"/>
<polygon fill="#63b8ff" stroke="#63b8ff" points="980.36,-154.22 971.65,-160.25 982.23,-160.96 980.36,-154.22"/>
</a>
</g>
</g>
<!-- Node20 -->
<g id="Node000020" class="node">
<title>Node20</title>
<g id="a_Node000020"><a xlink:href="_l_l_z_k_validation_passes_8h.html" target="_top" xlink:title=" ">
<polygon fill="white" stroke="#666666" points="1409,-113.88 1283.5,-113.88 1283.5,-83.38 1409,-83.38 1409,-113.88"/>
<text text-anchor="start" x="1291.5" y="-100.38" font-family="Helvetica,sans-Serif" font-size="10.00">include/llzk/Validators</text>
<text text-anchor="middle" x="1346.25" y="-89.12" font-family="Helvetica,sans-Serif" font-size="10.00">/LLZKValidationPasses.h</text>
</a>
</g>
</g>
<!-- Node3&#45;&gt;Node20 -->
<g id="edge23_Node000003_Node000020" class="edge">
<title>Node3&#45;&gt;Node20</title>
<g id="a_edge23_Node000003_Node000020"><a xlink:title=" ">
<path fill="none" stroke="#63b8ff" d="M999.23,-158.76C1005.98,-157.63 1012.76,-156.52 1019.25,-155.5 1132.31,-137.7 1162.18,-142.78 1274.25,-119.5 1281.36,-118.02 1288.8,-116.24 1296.1,-114.36"/>
<polygon fill="#63b8ff" stroke="#63b8ff" points="998.71,-155.3 989.44,-160.43 999.89,-162.2 998.71,-155.3"/>
</a>
</g>
</g>
<!-- Node5 -->
<g id="Node000005" class="node">
<title>Node5</title>
<g id="a_Node000005"><a xlink:href="_call_graph_passes_8cpp.html" target="_top" xlink:title="This file implements the &#45;llzk&#45;print&#45;call&#45;graph and &#45;llzk&#45;print&#45;call&#45;graph&#45;sccs passes.">
<polygon fill="white" stroke="#666666" points="164.5,-30.5 0,-30.5 0,-11.25 164.5,-11.25 164.5,-30.5"/>
<text text-anchor="middle" x="82.25" y="-17" font-family="Helvetica,sans-Serif" font-size="10.00">lib/Analysis/CallGraphPasses.cpp</text>
</a>
</g>
</g>
<!-- Node4&#45;&gt;Node5 -->
<g id="edge4_Node000004_Node000005" class="edge">
<title>Node4&#45;&gt;Node5</title>
<g id="a_edge4_Node000004_Node000005"><a xlink:title=" ">
<path fill="none" stroke="#63b8ff" d="M375.13,-84.3C321.23,-73.07 242.17,-56.52 173.25,-41.75 156.96,-38.26 139.05,-34.36 123.46,-30.95"/>
<polygon fill="#63b8ff" stroke="#63b8ff" points="374.25,-87.7 384.75,-86.31 375.67,-80.84 374.25,-87.7"/>
</a>
</g>
</g>
<!-- Node6 -->
<g id="Node000006" class="node">
<title>Node6</title>
<g id="a_Node000006"><a xlink:href="_constraint_dependency_graph_pass_8cpp.html" target="_top" xlink:title="This file implements the &#45;llzk&#45;print&#45;constraint&#45;dependency&#45;graphs pass.">
<polygon fill="white" stroke="#666666" points="351.75,-36.12 182.75,-36.12 182.75,-5.62 351.75,-5.62 351.75,-36.12"/>
<text text-anchor="start" x="190.75" y="-22.62" font-family="Helvetica,sans-Serif" font-size="10.00">lib/Analysis/ConstraintDependency</text>
<text text-anchor="middle" x="267.25" y="-11.38" font-family="Helvetica,sans-Serif" font-size="10.00">GraphPass.cpp</text>
</a>
</g>
</g>
<!-- Node4&#45;&gt;Node6 -->
<g id="edge5_Node000004_Node000006" class="edge">
<title>Node4&#45;&gt;Node6</title>
<g id="a_edge5_Node000004_Node000006"><a xlink:title=" ">
<path fill="none" stroke="#63b8ff" d="M395.65,-78.42C366.12,-65.42 327.7,-48.5 300.6,-36.56"/>
<polygon fill="#63b8ff" stroke="#63b8ff" points="394.14,-81.58 404.7,-82.41 396.96,-75.18 394.14,-81.58"/>
</a>
</g>
</g>
<!-- Node7 -->
<g id="Node000007" class="node">
<title>Node7</title>
<g id="a_Node000007"><a xlink:href="_interval_analysis_pass_8cpp.html" target="_top" xlink:title="This file implements the &#45;llzk&#45;print&#45;interval&#45;analysis pass.">
<polygon fill="white" stroke="#666666" points="508.75,-36.12 369.75,-36.12 369.75,-5.62 508.75,-5.62 508.75,-36.12"/>
<text text-anchor="start" x="377.75" y="-22.62" font-family="Helvetica,sans-Serif" font-size="10.00">lib/Analysis/IntervalAnalysis</text>
<text text-anchor="middle" x="439.25" y="-11.38" font-family="Helvetica,sans-Serif" font-size="10.00">Pass.cpp</text>
</a>
</g>
</g>
<!-- Node4&#45;&gt;Node7 -->
<g id="edge6_Node000004_Node000007" class="edge">
<title>Node4&#45;&gt;Node7</title>
<g id="a_edge6_Node000004_Node000007"><a xlink:title=" ">
<path fill="none" stroke="#63b8ff" d="M439.25,-71.6C439.25,-59.84 439.25,-46.38 439.25,-36.44"/>
<polygon fill="#63b8ff" stroke="#63b8ff" points="435.75,-71.51 439.25,-81.51 442.75,-71.51 435.75,-71.51"/>
</a>
</g>
</g>
<!-- Node8 -->
<g id="Node000008" class="node">
<title>Node8</title>
<g id="a_Node000008"><a xlink:href="llzk-opt_8cpp.html" target="_top" xlink:title="This file implements a version of the mlir&#45;opt tool configured for use on LLZK files.">
<polygon fill="white" stroke="#666666" points="923,-36.12 833.5,-36.12 833.5,-5.62 923,-5.62 923,-36.12"/>
<text text-anchor="start" x="841.5" y="-22.62" font-family="Helvetica,sans-Serif" font-size="10.00">tools/llzk&#45;opt/llzk</text>
<text text-anchor="middle" x="878.25" y="-11.38" font-family="Helvetica,sans-Serif" font-size="10.00">&#45;opt.cpp</text>
</a>
</g>
</g>
<!-- Node4&#45;&gt;Node8 -->
<g id="edge7_Node000004_Node000008" class="edge">
<title>Node4&#45;&gt;Node8</title>
<g id="a_edge7_Node000004_Node000008"><a xlink:title=" ">
<path fill="none" stroke="#63b8ff" d="M503.22,-88.7C608.65,-73.93 808.87,-45.65 824.25,-41.75 829.87,-40.33 835.71,-38.53 841.39,-36.6"/>
<polygon fill="#63b8ff" stroke="#63b8ff" points="503,-85.19 493.58,-90.04 503.97,-92.12 503,-85.19"/>
</a>
</g>
</g>
<!-- Node9&#45;&gt;Node8 -->
<g id="edge10_Node000009_Node000008" class="edge">
<title>Node9&#45;&gt;Node8</title>
<g id="a_edge10_Node000009_Node000008"><a xlink:title=" ">
<path fill="none" stroke="#63b8ff" d="M738.25,-73.37C764.95,-63.55 796.07,-52.11 824.25,-41.75 828.84,-40.06 833.66,-38.29 838.44,-36.53"/>
<polygon fill="#63b8ff" stroke="#63b8ff" points="737.08,-70.07 728.91,-76.8 739.5,-76.64 737.08,-70.07"/>
</a>
</g>
</g>
<!-- Node10 -->
<g id="Node000010" class="node">
<title>Node10</title>
<g id="a_Node000010"><a xlink:href="_array_to_scalar_pass_8cpp.html" target="_top" xlink:title="This file implements the &#45;llzk&#45;array&#45;to&#45;scalar pass.">
<polygon fill="white" stroke="#666666" points="665.38,-36.12 527.12,-36.12 527.12,-5.62 665.38,-5.62 665.38,-36.12"/>
<text text-anchor="start" x="535.12" y="-22.62" font-family="Helvetica,sans-Serif" font-size="10.00">lib/Dialect/Array/Transforms</text>
<text text-anchor="middle" x="596.25" y="-11.38" font-family="Helvetica,sans-Serif" font-size="10.00">/ArrayToScalarPass.cpp</text>
</a>
</g>
</g>
<!-- Node9&#45;&gt;Node10 -->
<g id="edge9_Node000009_Node000010" class="edge">
<title>Node9&#45;&gt;Node10</title>
<g id="a_edge9_Node000009_Node000010"><a xlink:title=" ">
<path fill="none" stroke="#63b8ff" d="M643.91,-69.38C632.59,-58.09 620.03,-45.58 610.65,-36.23"/>
<polygon fill="#63b8ff" stroke="#63b8ff" points="641.26,-71.68 650.81,-76.26 646.2,-66.72 641.26,-71.68"/>
</a>
</g>
</g>
<!-- Node11&#45;&gt;Node8 -->
<g id="edge13_Node000011_Node000008" class="edge">
<title>Node11&#45;&gt;Node8</title>
<g id="a_edge13_Node000011_Node000008"><a xlink:title=" ">
<path fill="none" stroke="#63b8ff" d="M864.73,-66.4C867.91,-55.93 871.3,-44.76 873.89,-36.23"/>
<polygon fill="#63b8ff" stroke="#63b8ff" points="861.41,-65.29 861.85,-75.88 868.11,-67.33 861.41,-65.29"/>
</a>
</g>
</g>
<!-- Node12 -->
<g id="Node000012" class="node">
<title>Node12</title>
<g id="a_Node000012"><a xlink:href="_inline_includes_pass_8cpp.html" target="_top" xlink:title="This file implements the &#45;llzk&#45;inline&#45;includes pass.">
<polygon fill="white" stroke="#666666" points="815,-41.75 683.5,-41.75 683.5,0 815,0 815,-41.75"/>
<text text-anchor="start" x="691.5" y="-28.25" font-family="Helvetica,sans-Serif" font-size="10.00">lib/Dialect/Include</text>
<text text-anchor="start" x="691.5" y="-17" font-family="Helvetica,sans-Serif" font-size="10.00">/Transforms/InlineIncludes</text>
<text text-anchor="middle" x="749.25" y="-5.75" font-family="Helvetica,sans-Serif" font-size="10.00">Pass.cpp</text>
</a>
</g>
</g>
<!-- Node11&#45;&gt;Node12 -->
<g id="edge12_Node000011_Node000012" class="edge">
<title>Node11&#45;&gt;Node12</title>
<g id="a_edge12_Node000011_Node000012"><a xlink:title=" ">
<path fill="none" stroke="#63b8ff" d="M817.59,-70.71C804.47,-61.34 789.98,-50.98 777.73,-42.23"/>
<polygon fill="#63b8ff" stroke="#63b8ff" points="815.44,-73.48 825.61,-76.45 819.51,-67.78 815.44,-73.48"/>
</a>
</g>
</g>
<!-- Node13&#45;&gt;Node8 -->
<g id="edge16_Node000013_Node000008" class="edge">
<title>Node13&#45;&gt;Node8</title>
<g id="a_edge16_Node000013_Node000008"><a xlink:title=" ">
<path fill="none" stroke="#63b8ff" d="M971.6,-72.03C949.54,-60.18 924.14,-46.53 905.41,-36.46"/>
<polygon fill="#63b8ff" stroke="#63b8ff" points="969.67,-74.96 980.13,-76.61 972.98,-68.79 969.67,-74.96"/>
</a>
</g>
</g>
<!-- Node14 -->
<g id="Node000014" class="node">
<title>Node14</title>
<g id="a_Node000014"><a xlink:href="_flattening_pass_8cpp.html" target="_top" xlink:title="This file implements the &#45;llzk&#45;flatten pass.">
<polygon fill="white" stroke="#666666" points="1097,-36.12 941.5,-36.12 941.5,-5.62 1097,-5.62 1097,-36.12"/>
<text text-anchor="start" x="949.5" y="-22.62" font-family="Helvetica,sans-Serif" font-size="10.00">lib/Dialect/Polymorphic</text>
<text text-anchor="middle" x="1019.25" y="-11.38" font-family="Helvetica,sans-Serif" font-size="10.00">/Transforms/FlatteningPass.cpp</text>
</a>
</g>
</g>
<!-- Node13&#45;&gt;Node14 -->
<g id="edge15_Node000013_Node000014" class="edge">
<title>Node13&#45;&gt;Node14</title>
<g id="a_edge15_Node000013_Node000014"><a xlink:title=" ">
<path fill="none" stroke="#63b8ff" d="M1019.25,-66.06C1019.25,-55.69 1019.25,-44.67 1019.25,-36.23"/>
<polygon fill="#63b8ff" stroke="#63b8ff" points="1015.75,-65.81 1019.25,-75.81 1022.75,-65.81 1015.75,-65.81"/>
</a>
</g>
</g>
<!-- Node15&#45;&gt;Node8 -->
<g id="edge22_Node000015_Node000008" class="edge">
<title>Node15&#45;&gt;Node8</title>
<g id="a_edge22_Node000015_Node000008"><a xlink:title=" ">
<path fill="none" stroke="#63b8ff" d="M1106.43,-80.66C1043.93,-67.91 964.44,-51.1 932.25,-41.75 926.97,-40.22 921.47,-38.43 916.09,-36.56"/>
<polygon fill="#63b8ff" stroke="#63b8ff" points="1105.5,-84.05 1116,-82.61 1106.9,-77.19 1105.5,-84.05"/>
</a>
</g>
</g>
<!-- Node16 -->
<g id="Node000016" class="node">
<title>Node16</title>
<g id="a_Node000016"><a xlink:href="_l_l_z_k_redundant_operation_elimination_pass_8cpp.html" target="_top" xlink:title="This file implements the &#45;llzk&#45;duplicate&#45;op&#45;elim pass.">
<polygon fill="white" stroke="#666666" points="1267.12,-36.12 1115.38,-36.12 1115.38,-5.62 1267.12,-5.62 1267.12,-36.12"/>
<text text-anchor="start" x="1123.38" y="-22.62" font-family="Helvetica,sans-Serif" font-size="10.00">lib/Transforms/LLZKRedundant</text>
<text text-anchor="middle" x="1191.25" y="-11.38" font-family="Helvetica,sans-Serif" font-size="10.00">OperationEliminationPass.cpp</text>
</a>
</g>
</g>
<!-- Node15&#45;&gt;Node16 -->
<g id="edge18_Node000015_Node000016" class="edge">
<title>Node15&#45;&gt;Node16</title>
<g id="a_edge18_Node000015_Node000016"><a xlink:title=" ">
<path fill="none" stroke="#63b8ff" d="M1191.25,-71.6C1191.25,-59.84 1191.25,-46.38 1191.25,-36.44"/>
<polygon fill="#63b8ff" stroke="#63b8ff" points="1187.75,-71.51 1191.25,-81.51 1194.75,-71.51 1187.75,-71.51"/>
</a>
</g>
</g>
<!-- Node17 -->
<g id="Node000017" class="node">
<title>Node17</title>
<g id="a_Node000017"><a xlink:href="_l_l_z_k_redundant_read_and_write_elimination_pass_8cpp.html" target="_top" xlink:title="This file implements the &#45;llzk&#45;duplicate&#45;read&#45;write&#45;elim pass.">
<polygon fill="white" stroke="#666666" points="1453.38,-36.12 1285.12,-36.12 1285.12,-5.62 1453.38,-5.62 1453.38,-36.12"/>
<text text-anchor="start" x="1293.12" y="-22.62" font-family="Helvetica,sans-Serif" font-size="10.00">lib/Transforms/LLZKRedundant</text>
<text text-anchor="middle" x="1369.25" y="-11.38" font-family="Helvetica,sans-Serif" font-size="10.00">ReadAndWriteEliminationPass.cpp</text>
</a>
</g>
</g>
<!-- Node15&#45;&gt;Node17 -->
<g id="edge19_Node000015_Node000017" class="edge">
<title>Node15&#45;&gt;Node17</title>
<g id="a_edge19_Node000015_Node000017"><a xlink:title=" ">
<path fill="none" stroke="#63b8ff" d="M1235.97,-78.59C1266.58,-65.57 1306.57,-48.55 1334.73,-36.56"/>
<polygon fill="#63b8ff" stroke="#63b8ff" points="1234.79,-75.29 1226.96,-82.43 1237.53,-81.73 1234.79,-75.29"/>
</a>
</g>
</g>
<!-- Node18 -->
<g id="Node000018" class="node">
<title>Node18</title>
<g id="a_Node000018"><a xlink:href="_l_l_z_k_unused_declaration_elimination_pass_8cpp.html" target="_top" xlink:title="This file implements the &#45;llzk&#45;unused&#45;declaration&#45;elim pass.">
<polygon fill="white" stroke="#666666" points="1626.62,-36.12 1471.88,-36.12 1471.88,-5.62 1626.62,-5.62 1626.62,-36.12"/>
<text text-anchor="start" x="1479.88" y="-22.62" font-family="Helvetica,sans-Serif" font-size="10.00">lib/Transforms/LLZKUnused</text>
<text text-anchor="middle" x="1549.25" y="-11.38" font-family="Helvetica,sans-Serif" font-size="10.00">DeclarationEliminationPass.cpp</text>
</a>
</g>
</g>
<!-- Node15&#45;&gt;Node18 -->
<g id="edge20_Node000015_Node000018" class="edge">
<title>Node15&#45;&gt;Node18</title>
<g id="a_edge20_Node000015_Node000018"><a xlink:title=" ">
<path fill="none" stroke="#63b8ff" d="M1262.01,-80.45C1266.14,-79.52 1270.25,-78.61 1274.25,-77.75 1357.42,-59.84 1378.99,-59.23 1462.25,-41.75 1469.98,-40.13 1478.09,-38.36 1486.11,-36.58"/>
<polygon fill="#63b8ff" stroke="#63b8ff" points="1261.46,-76.99 1252.49,-82.63 1263.02,-83.81 1261.46,-76.99"/>
</a>
</g>
</g>
<!-- Node19 -->
<g id="Node000019" class="node">
<title>Node19</title>
<g id="a_Node000019"><a xlink:href="_transformation_pass_pipelines_8cpp.html" target="_top" xlink:title="This file implements logic for registering the &#45;llzk&#45;remove&#45;unnecessary&#45;ops and &#45;llzk&#45;remove&#45;unnecess...">
<polygon fill="white" stroke="#666666" points="1791.5,-36.12 1645,-36.12 1645,-5.62 1791.5,-5.62 1791.5,-36.12"/>
<text text-anchor="start" x="1653" y="-22.62" font-family="Helvetica,sans-Serif" font-size="10.00">lib/Transforms/Transformation</text>
<text text-anchor="middle" x="1718.25" y="-11.38" font-family="Helvetica,sans-Serif" font-size="10.00">PassPipelines.cpp</text>
</a>
</g>
</g>
<!-- Node15&#45;&gt;Node19 -->
<g id="edge21_Node000015_Node000019" class="edge">
<title>Node15&#45;&gt;Node19</title>
<g id="a_edge21_Node000015_Node000019"><a xlink:title=" ">
<path fill="none" stroke="#63b8ff" d="M1259.25,-80.56C1264.31,-79.53 1269.35,-78.58 1274.25,-77.75 1433.24,-50.91 1476.26,-68.59 1635.25,-41.75 1643.72,-40.32 1652.62,-38.52 1661.31,-36.58"/>
<polygon fill="#63b8ff" stroke="#63b8ff" points="1258.72,-77.09 1249.67,-82.6 1260.18,-83.94 1258.72,-77.09"/>
</a>
</g>
</g>
<!-- Node20&#45;&gt;Node8 -->
<g id="edge25_Node000020_Node000008" class="edge">
<title>Node20&#45;&gt;Node8</title>
<g id="a_edge25_Node000020_Node000008"><a xlink:title=" ">
<path fill="none" stroke="#63b8ff" d="M1286.45,-80.32C1282.34,-79.37 1278.24,-78.51 1274.25,-77.75 1124.08,-49.32 1081.11,-76.41 932.25,-41.75 926.41,-40.39 920.34,-38.58 914.48,-36.6"/>
<polygon fill="#63b8ff" stroke="#63b8ff" points="1285.3,-83.64 1295.84,-82.6 1286.95,-76.84 1285.3,-83.64"/>
</a>
</g>
</g>
<!-- Node21 -->
<g id="Node000021" class="node">
<title>Node21</title>
<g id="a_Node000021"><a xlink:href="_l_l_z_k_validation_passes_8cpp.html" target="_top" xlink:title="This file contains the implementation for the &#45;llzk&#45;validate&#45;field&#45;writes pass.">
<polygon fill="white" stroke="#666666" points="1949.12,-36.12 1809.38,-36.12 1809.38,-5.62 1949.12,-5.62 1949.12,-36.12"/>
<text text-anchor="start" x="1817.38" y="-22.62" font-family="Helvetica,sans-Serif" font-size="10.00">lib/Validators/LLZKValidation</text>
<text text-anchor="middle" x="1879.25" y="-11.38" font-family="Helvetica,sans-Serif" font-size="10.00">Passes.cpp</text>
</a>
</g>
</g>
<!-- Node20&#45;&gt;Node21 -->
<g id="edge24_Node000020_Node000021" class="edge">
<title>Node20&#45;&gt;Node21</title>
<g id="a_edge24_Node000020_Node000021"><a xlink:title=" ">
<path fill="none" stroke="#63b8ff" d="M1420.63,-91.33C1510.92,-83.02 1667.55,-66.51 1800.25,-41.75 1808.17,-40.27 1816.49,-38.47 1824.62,-36.55"/>
<polygon fill="#63b8ff" stroke="#63b8ff" points="1420.57,-87.82 1410.93,-92.21 1421.2,-94.79 1420.57,-87.82"/>
</a>
</g>
</g>
</g>
</svg>
