<?xml version="1.0" encoding="UTF-8" standalone="no"?>
<!DOCTYPE svg PUBLIC "-//W3C//DTD SVG 1.1//EN"
 "http://www.w3.org/Graphics/SVG/1.1/DTD/svg11.dtd">
<!-- Generated by graphviz version 12.2.1 (20241206.2353)
 -->
<!-- Title: build/include/llzk/Dialect/Function/IR/Ops.cpp.inc Pages: 1 -->
<svg width="226pt" height="116pt"
 viewBox="0.00 0.00 226.00 116.25" xmlns="http://www.w3.org/2000/svg" xmlns:xlink="http://www.w3.org/1999/xlink">
<g id="graph0" class="graph" transform="scale(1 1) rotate(0) translate(4 112.25)">
<title>build/include/llzk/Dialect/Function/IR/Ops.cpp.inc</title>
<!-- Node1 -->
<g id="Node000001" class="node">
<title>Node1</title>
<g id="a_Node000001"><a xlink:title=" ">
<polygon fill="#999999" stroke="#666666" points="160.88,-108.25 57.12,-108.25 57.12,-66.5 160.88,-66.5 160.88,-108.25"/>
<text text-anchor="start" x="65.12" y="-94.75" font-family="Helvetica,sans-Serif" font-size="10.00">build/include/llzk</text>
<text text-anchor="start" x="65.12" y="-83.5" font-family="Helvetica,sans-Serif" font-size="10.00">/Dialect/Function/IR</text>
<text text-anchor="middle" x="109" y="-72.25" font-family="Helvetica,sans-Serif" font-size="10.00">/Ops.cpp.inc</text>
</a>
</g>
</g>
<!-- Node2 -->
<g id="Node000002" class="node">
<title>Node2</title>
<g id="a_Node000002"><a xlink:href="_function_2_i_r_2_dialect_8cpp.html" target="_top" xlink:title=" ">
<polygon fill="white" stroke="#666666" points="100,-30.5 0,-30.5 0,0 100,0 100,-30.5"/>
<text text-anchor="start" x="8" y="-17" font-family="Helvetica,sans-Serif" font-size="10.00">lib/Dialect/Function</text>
<text text-anchor="middle" x="50" y="-5.75" font-family="Helvetica,sans-Serif" font-size="10.00">/IR/Dialect.cpp</text>
</a>
</g>
</g>
<!-- Node1&#45;&gt;Node2 -->
<g id="edge1_Node000001_Node000002" class="edge">
<title>Node1&#45;&gt;Node2</title>
<g id="a_edge1_Node000001_Node000002"><a xlink:title=" ">
<path fill="none" stroke="#63b8ff" d="M84.71,-57.51C76.94,-48.27 68.67,-38.45 62.16,-30.7"/>
<polygon fill="#63b8ff" stroke="#63b8ff" points="81.84,-59.54 90.96,-64.93 87.2,-55.03 81.84,-59.54"/>
</a>
</g>
</g>
<!-- Node3 -->
<g id="Node000003" class="node">
<title>Node3</title>
<g id="a_Node000003"><a xlink:href="_function_2_i_r_2_ops_8cpp.html" target="_top" xlink:title=" ">
<polygon fill="white" stroke="#666666" points="218,-30.5 118,-30.5 118,0 218,0 218,-30.5"/>
<text text-anchor="start" x="126" y="-17" font-family="Helvetica,sans-Serif" font-size="10.00">lib/Dialect/Function</text>
<text text-anchor="middle" x="168" y="-5.75" font-family="Helvetica,sans-Serif" font-size="10.00">/IR/Ops.cpp</text>
</a>
</g>
</g>
<!-- Node1&#45;&gt;Node3 -->
<g id="edge2_Node000001_Node000003" class="edge">
<title>Node1&#45;&gt;Node3</title>
<g id="a_edge2_Node000001_Node000003"><a xlink:title=" ">
<path fill="none" stroke="#63b8ff" d="M133.29,-57.51C141.06,-48.27 149.33,-38.45 155.84,-30.7"/>
<polygon fill="#63b8ff" stroke="#63b8ff" points="130.8,-55.03 127.04,-64.93 136.16,-59.54 130.8,-55.03"/>
</a>
</g>
</g>
</g>
</svg>
