<?xml version="1.0" encoding="UTF-8" standalone="no"?>
<!DOCTYPE svg PUBLIC "-//W3C//DTD SVG 1.1//EN"
 "http://www.w3.org/Graphics/SVG/1.1/DTD/svg11.dtd">
<!-- Generated by graphviz version 12.2.1 (20241206.2353)
 -->
<!-- Title: lib/Dialect/Global/IR/Dialect.cpp Pages: 1 -->
<svg width="1156pt" height="238pt"
 viewBox="0.00 0.00 1156.38 238.00" xmlns="http://www.w3.org/2000/svg" xmlns:xlink="http://www.w3.org/1999/xlink">
<g id="graph0" class="graph" transform="scale(1 1) rotate(0) translate(4 234)">
<title>lib/Dialect/Global/IR/Dialect.cpp</title>
<!-- Node1 -->
<g id="Node000001" class="node">
<title>Node1</title>
<g id="a_Node000001"><a xlink:title=" ">
<polygon fill="#999999" stroke="#666666" points="791.88,-230 701.62,-230 701.62,-199.5 791.88,-199.5 791.88,-230"/>
<text text-anchor="start" x="709.62" y="-216.5" font-family="Helvetica,sans-Serif" font-size="10.00">lib/Dialect/Global</text>
<text text-anchor="middle" x="746.75" y="-205.25" font-family="Helvetica,sans-Serif" font-size="10.00">/IR/Dialect.cpp</text>
</a>
</g>
</g>
<!-- Node2 -->
<g id="Node000002" class="node">
<title>Node2</title>
<g id="a_Node000002"><a xlink:href="_global_2_i_r_2_dialect_8h.html" target="_top" xlink:title=" ">
<polygon fill="white" stroke="#666666" points="348.5,-97 253,-97 253,-66.5 348.5,-66.5 348.5,-97"/>
<text text-anchor="start" x="261" y="-83.5" font-family="Helvetica,sans-Serif" font-size="10.00">llzk/Dialect/Global</text>
<text text-anchor="middle" x="300.75" y="-72.25" font-family="Helvetica,sans-Serif" font-size="10.00">/IR/Dialect.h</text>
</a>
</g>
</g>
<!-- Node1&#45;&gt;Node2 -->
<g id="edge1_Node000001_Node000002" class="edge">
<title>Node1&#45;&gt;Node2</title>
<g id="a_edge1_Node000001_Node000002"><a xlink:title=" ">
<path fill="none" stroke="#63b8ff" d="M701.39,-200.86C666.04,-190.78 615.74,-176.37 571.75,-163.5 498.58,-142.09 414.45,-116.94 359.59,-100.47"/>
<polygon fill="#63b8ff" stroke="#63b8ff" points="360.72,-97.15 350.13,-97.62 358.7,-103.85 360.72,-97.15"/>
</a>
</g>
</g>
<!-- Node5 -->
<g id="Node000005" class="node">
<title>Node5</title>
<g id="a_Node000005"><a xlink:href="_global_2_i_r_2_ops_8h.html" target="_top" xlink:title=" ">
<polygon fill="white" stroke="#666666" points="676.5,-163.5 581,-163.5 581,-133 676.5,-133 676.5,-163.5"/>
<text text-anchor="start" x="589" y="-150" font-family="Helvetica,sans-Serif" font-size="10.00">llzk/Dialect/Global</text>
<text text-anchor="middle" x="628.75" y="-138.75" font-family="Helvetica,sans-Serif" font-size="10.00">/IR/Ops.h</text>
</a>
</g>
</g>
<!-- Node1&#45;&gt;Node5 -->
<g id="edge4_Node000001_Node000005" class="edge">
<title>Node1&#45;&gt;Node5</title>
<g id="a_edge4_Node000001_Node000005"><a xlink:title=" ">
<path fill="none" stroke="#63b8ff" d="M719.97,-199.11C703.83,-190.29 683.04,-178.93 665.39,-169.28"/>
<polygon fill="#63b8ff" stroke="#63b8ff" points="667.2,-166.28 656.75,-164.55 663.84,-172.42 667.2,-166.28"/>
</a>
</g>
</g>
<!-- Node17 -->
<g id="Node000017" class="node">
<title>Node17</title>
<g id="a_Node000017"><a xlink:href="_versioning_8h.html" target="_top" xlink:title=" ">
<polygon fill="white" stroke="#666666" points="799,-163.5 694.5,-163.5 694.5,-133 799,-133 799,-163.5"/>
<text text-anchor="start" x="702.5" y="-150" font-family="Helvetica,sans-Serif" font-size="10.00">llzk/Dialect/LLZK/IR</text>
<text text-anchor="middle" x="746.75" y="-138.75" font-family="Helvetica,sans-Serif" font-size="10.00">/Versioning.h</text>
</a>
</g>
</g>
<!-- Node1&#45;&gt;Node17 -->
<g id="edge18_Node000001_Node000017" class="edge">
<title>Node1&#45;&gt;Node17</title>
<g id="a_edge18_Node000001_Node000017"><a xlink:title=" ">
<path fill="none" stroke="#63b8ff" d="M746.75,-199.11C746.75,-192.02 746.75,-183.29 746.75,-175.13"/>
<polygon fill="#63b8ff" stroke="#63b8ff" points="750.25,-175.34 746.75,-165.34 743.25,-175.34 750.25,-175.34"/>
</a>
</g>
</g>
<!-- Node19 -->
<g id="Node000019" class="node">
<title>Node19</title>
<g id="a_Node000019"><a xlink:href="_global_2_i_r_2_dialect_8cpp_8inc.html" target="_top" xlink:title=" ">
<polygon fill="white" stroke="#666666" points="914.62,-163.5 816.88,-163.5 816.88,-133 914.62,-133 914.62,-163.5"/>
<text text-anchor="start" x="824.88" y="-150" font-family="Helvetica,sans-Serif" font-size="10.00">llzk/Dialect/Global</text>
<text text-anchor="middle" x="865.75" y="-138.75" font-family="Helvetica,sans-Serif" font-size="10.00">/IR/Dialect.cpp.inc</text>
</a>
</g>
</g>
<!-- Node1&#45;&gt;Node19 -->
<g id="edge20_Node000001_Node000019" class="edge">
<title>Node1&#45;&gt;Node19</title>
<g id="a_edge20_Node000001_Node000019"><a xlink:title=" ">
<path fill="none" stroke="#63b8ff" d="M773.75,-199.11C790.03,-190.29 810.99,-178.93 828.8,-169.28"/>
<polygon fill="#63b8ff" stroke="#63b8ff" points="830.4,-172.39 837.52,-164.55 827.06,-166.24 830.4,-172.39"/>
</a>
</g>
</g>
<!-- Node20 -->
<g id="Node000020" class="node">
<title>Node20</title>
<g id="a_Node000020"><a xlink:href="_global_2_i_r_2_ops_8cpp_8inc.html" target="_top" xlink:title=" ">
<polygon fill="white" stroke="#666666" points="1028.5,-163.5 933,-163.5 933,-133 1028.5,-133 1028.5,-163.5"/>
<text text-anchor="start" x="941" y="-150" font-family="Helvetica,sans-Serif" font-size="10.00">llzk/Dialect/Global</text>
<text text-anchor="middle" x="980.75" y="-138.75" font-family="Helvetica,sans-Serif" font-size="10.00">/IR/Ops.cpp.inc</text>
</a>
</g>
</g>
<!-- Node1&#45;&gt;Node20 -->
<g id="edge21_Node000001_Node000020" class="edge">
<title>Node1&#45;&gt;Node20</title>
<g id="a_edge21_Node000001_Node000020"><a xlink:title=" ">
<path fill="none" stroke="#63b8ff" d="M792.15,-201.24C829.08,-191.06 881.47,-176.61 921.67,-165.53"/>
<polygon fill="#63b8ff" stroke="#63b8ff" points="922.49,-168.94 931.2,-162.91 920.63,-162.19 922.49,-168.94"/>
</a>
</g>
</g>
<!-- Node3 -->
<g id="Node000003" class="node">
<title>Node3</title>
<g id="a_Node000003"><a xlink:title=" ">
<polygon fill="#e0e0e0" stroke="#999999" points="101.5,-24.88 0,-24.88 0,-5.63 101.5,-5.63 101.5,-24.88"/>
<text text-anchor="middle" x="50.75" y="-11.38" font-family="Helvetica,sans-Serif" font-size="10.00">mlir/IR/BuiltinOps.h</text>
</a>
</g>
</g>
<!-- Node2&#45;&gt;Node3 -->
<g id="edge2_Node000002_Node000003" class="edge">
<title>Node2&#45;&gt;Node3</title>
<g id="a_edge2_Node000002_Node000003"><a xlink:title=" ">
<path fill="none" stroke="#63b8ff" d="M252.55,-68.31C207.65,-56.73 141.16,-39.58 96.92,-28.16"/>
<polygon fill="#63b8ff" stroke="#63b8ff" points="97.93,-24.81 87.37,-25.7 96.18,-31.59 97.93,-24.81"/>
</a>
</g>
</g>
<!-- Node4 -->
<g id="Node000004" class="node">
<title>Node4</title>
<g id="a_Node000004"><a xlink:href="_global_2_i_r_2_dialect_8h_8inc.html" target="_top" xlink:title=" ">
<polygon fill="white" stroke="#666666" points="215.5,-30.5 120,-30.5 120,0 215.5,0 215.5,-30.5"/>
<text text-anchor="start" x="128" y="-17" font-family="Helvetica,sans-Serif" font-size="10.00">llzk/Dialect/Global</text>
<text text-anchor="middle" x="167.75" y="-5.75" font-family="Helvetica,sans-Serif" font-size="10.00">/IR/Dialect.h.inc</text>
</a>
</g>
</g>
<!-- Node2&#45;&gt;Node4 -->
<g id="edge3_Node000002_Node000004" class="edge">
<title>Node2&#45;&gt;Node4</title>
<g id="a_edge3_Node000002_Node000004"><a xlink:title=" ">
<path fill="none" stroke="#63b8ff" d="M270.57,-66.11C252.03,-57.13 228.07,-45.5 207.94,-35.74"/>
<polygon fill="#63b8ff" stroke="#63b8ff" points="209.7,-32.7 199.17,-31.49 206.64,-39 209.7,-32.7"/>
</a>
</g>
</g>
<!-- Node5&#45;&gt;Node2 -->
<g id="edge9_Node000005_Node000002" class="edge">
<title>Node5&#45;&gt;Node2</title>
<g id="a_edge9_Node000005_Node000002"><a xlink:title=" ">
<path fill="none" stroke="#63b8ff" d="M580.7,-137.8C522.12,-126.28 423.12,-106.81 359.91,-94.38"/>
<polygon fill="#63b8ff" stroke="#63b8ff" points="360.9,-91.01 350.41,-92.52 359.55,-97.88 360.9,-91.01"/>
</a>
</g>
</g>
<!-- Node6 -->
<g id="Node000006" class="node">
<title>Node6</title>
<g id="a_Node000006"><a xlink:href="_op_traits_8h.html" target="_top" xlink:title=" ">
<polygon fill="white" stroke="#666666" points="546.38,-97 441.12,-97 441.12,-66.5 546.38,-66.5 546.38,-97"/>
<text text-anchor="start" x="449.12" y="-83.5" font-family="Helvetica,sans-Serif" font-size="10.00">llzk/Dialect/Function</text>
<text text-anchor="middle" x="493.75" y="-72.25" font-family="Helvetica,sans-Serif" font-size="10.00">/IR/OpTraits.h</text>
</a>
</g>
</g>
<!-- Node5&#45;&gt;Node6 -->
<g id="edge5_Node000005_Node000006" class="edge">
<title>Node5&#45;&gt;Node6</title>
<g id="a_edge5_Node000005_Node000006"><a xlink:title=" ">
<path fill="none" stroke="#63b8ff" d="M598.12,-132.61C579.3,-123.63 554.98,-112 534.54,-102.24"/>
<polygon fill="#63b8ff" stroke="#63b8ff" points="536.16,-99.13 525.63,-97.98 533.14,-105.45 536.16,-99.13"/>
</a>
</g>
</g>
<!-- Node10 -->
<g id="Node000010" class="node">
<title>Node10</title>
<g id="a_Node000010"><a xlink:href="_symbol_lookup_8h.html" target="_top" xlink:title="This file defines methods symbol lookup across LLZK operations and included files.">
<polygon fill="white" stroke="#666666" points="691.12,-91.38 566.38,-91.38 566.38,-72.12 691.12,-72.12 691.12,-91.38"/>
<text text-anchor="middle" x="628.75" y="-77.88" font-family="Helvetica,sans-Serif" font-size="10.00">llzk/Util/SymbolLookup.h</text>
</a>
</g>
</g>
<!-- Node5&#45;&gt;Node10 -->
<g id="edge10_Node000005_Node000010" class="edge">
<title>Node5&#45;&gt;Node10</title>
<g id="a_edge10_Node000005_Node000010"><a xlink:title=" ">
<path fill="none" stroke="#63b8ff" d="M628.75,-132.61C628.75,-123.83 628.75,-112.52 628.75,-102.9"/>
<polygon fill="#63b8ff" stroke="#63b8ff" points="632.25,-103.09 628.75,-93.09 625.25,-103.09 632.25,-103.09"/>
</a>
</g>
</g>
<!-- Node15 -->
<g id="Node000015" class="node">
<title>Node15</title>
<g id="a_Node000015"><a xlink:href="_global_2_i_r_2_ops_8h_8inc.html" target="_top" xlink:title=" ">
<polygon fill="white" stroke="#666666" points="804.5,-97 709,-97 709,-66.5 804.5,-66.5 804.5,-97"/>
<text text-anchor="start" x="717" y="-83.5" font-family="Helvetica,sans-Serif" font-size="10.00">llzk/Dialect/Global</text>
<text text-anchor="middle" x="756.75" y="-72.25" font-family="Helvetica,sans-Serif" font-size="10.00">/IR/Ops.h.inc</text>
</a>
</g>
</g>
<!-- Node5&#45;&gt;Node15 -->
<g id="edge16_Node000005_Node000015" class="edge">
<title>Node5&#45;&gt;Node15</title>
<g id="a_edge16_Node000005_Node000015"><a xlink:title=" ">
<path fill="none" stroke="#63b8ff" d="M657.8,-132.61C675.47,-123.71 698.28,-112.22 717.54,-102.51"/>
<polygon fill="#63b8ff" stroke="#63b8ff" points="719.11,-105.63 726.47,-98.01 715.96,-99.38 719.11,-105.63"/>
</a>
</g>
</g>
<!-- Node16 -->
<g id="Node000016" class="node">
<title>Node16</title>
<g id="a_Node000016"><a xlink:href="_global_2_i_r_2_op_interfaces_8h_8inc.html" target="_top" xlink:title=" ">
<polygon fill="white" stroke="#666666" points="935.12,-97 822.38,-97 822.38,-66.5 935.12,-66.5 935.12,-97"/>
<text text-anchor="start" x="830.38" y="-83.5" font-family="Helvetica,sans-Serif" font-size="10.00">llzk/Dialect/Global</text>
<text text-anchor="middle" x="878.75" y="-72.25" font-family="Helvetica,sans-Serif" font-size="10.00">/IR/OpInterfaces.h.inc</text>
</a>
</g>
</g>
<!-- Node5&#45;&gt;Node16 -->
<g id="edge17_Node000005_Node000016" class="edge">
<title>Node5&#45;&gt;Node16</title>
<g id="a_edge17_Node000005_Node000016"><a xlink:title=" ">
<path fill="none" stroke="#63b8ff" d="M676.95,-134.81C714.99,-125 768.5,-111.19 810.87,-100.26"/>
<polygon fill="#63b8ff" stroke="#63b8ff" points="811.67,-103.67 820.48,-97.78 809.92,-96.89 811.67,-103.67"/>
</a>
</g>
</g>
<!-- Node7 -->
<g id="Node000007" class="node">
<title>Node7</title>
<g id="a_Node000007"><a xlink:title=" ">
<polygon fill="#e0e0e0" stroke="#999999" points="344,-24.88 233.5,-24.88 233.5,-5.63 344,-5.63 344,-24.88"/>
<text text-anchor="middle" x="288.75" y="-11.38" font-family="Helvetica,sans-Serif" font-size="10.00">mlir/IR/OpDefinition.h</text>
</a>
</g>
</g>
<!-- Node6&#45;&gt;Node7 -->
<g id="edge6_Node000006_Node000007" class="edge">
<title>Node6&#45;&gt;Node7</title>
<g id="a_edge6_Node000006_Node000007"><a xlink:title=" ">
<path fill="none" stroke="#63b8ff" d="M446.98,-66.03C411.2,-54.78 362.4,-39.42 328.5,-28.76"/>
<polygon fill="#63b8ff" stroke="#63b8ff" points="329.64,-25.45 319.05,-25.78 327.54,-32.12 329.64,-25.45"/>
</a>
</g>
</g>
<!-- Node8 -->
<g id="Node000008" class="node">
<title>Node8</title>
<g id="a_Node000008"><a xlink:title=" ">
<polygon fill="#e0e0e0" stroke="#999999" points="618,-24.88 519.5,-24.88 519.5,-5.63 618,-5.63 618,-24.88"/>
<text text-anchor="middle" x="568.75" y="-11.38" font-family="Helvetica,sans-Serif" font-size="10.00">mlir/IR/Operation.h</text>
</a>
</g>
</g>
<!-- Node6&#45;&gt;Node8 -->
<g id="edge7_Node000006_Node000008" class="edge">
<title>Node6&#45;&gt;Node8</title>
<g id="a_edge7_Node000006_Node000008"><a xlink:title=" ">
<path fill="none" stroke="#63b8ff" d="M510.77,-66.11C522.48,-56.04 538.03,-42.67 550.08,-32.31"/>
<polygon fill="#63b8ff" stroke="#63b8ff" points="552.04,-35.23 557.34,-26.06 547.48,-29.93 552.04,-35.23"/>
</a>
</g>
</g>
<!-- Node9 -->
<g id="Node000009" class="node">
<title>Node9</title>
<g id="a_Node000009"><a xlink:title=" ">
<polygon fill="#e0e0e0" stroke="#999999" points="501.25,-24.88 362.25,-24.88 362.25,-5.63 501.25,-5.63 501.25,-24.88"/>
<text text-anchor="middle" x="431.75" y="-11.38" font-family="Helvetica,sans-Serif" font-size="10.00">mlir/Support/LogicalResult.h</text>
</a>
</g>
</g>
<!-- Node6&#45;&gt;Node9 -->
<g id="edge8_Node000006_Node000009" class="edge">
<title>Node6&#45;&gt;Node9</title>
<g id="a_edge8_Node000006_Node000009"><a xlink:title=" ">
<path fill="none" stroke="#63b8ff" d="M479.68,-66.11C470.29,-56.34 457.9,-43.45 448.07,-33.23"/>
<polygon fill="#63b8ff" stroke="#63b8ff" points="450.73,-30.95 441.28,-26.16 445.69,-35.8 450.73,-30.95"/>
</a>
</g>
</g>
<!-- Node10&#45;&gt;Node8 -->
<g id="edge12_Node000010_Node000008" class="edge">
<title>Node10&#45;&gt;Node8</title>
<g id="a_edge12_Node000010_Node000008"><a xlink:title=" ">
<path fill="none" stroke="#63b8ff" d="M620.41,-71.78C611.18,-61.87 596.11,-45.66 584.62,-33.31"/>
<polygon fill="#63b8ff" stroke="#63b8ff" points="587.43,-31.19 578.05,-26.25 582.3,-35.96 587.43,-31.19"/>
</a>
</g>
</g>
<!-- Node11 -->
<g id="Node000011" class="node">
<title>Node11</title>
<g id="a_Node000011"><a xlink:href="_constants_8h.html" target="_top" xlink:title=" ">
<polygon fill="white" stroke="#666666" points="741.38,-24.88 636.12,-24.88 636.12,-5.63 741.38,-5.63 741.38,-24.88"/>
<text text-anchor="middle" x="688.75" y="-11.38" font-family="Helvetica,sans-Serif" font-size="10.00">llzk/Util/Constants.h</text>
</a>
</g>
</g>
<!-- Node10&#45;&gt;Node11 -->
<g id="edge11_Node000010_Node000011" class="edge">
<title>Node10&#45;&gt;Node11</title>
<g id="a_edge11_Node000010_Node000011"><a xlink:title=" ">
<path fill="none" stroke="#63b8ff" d="M637.09,-71.78C646.32,-61.87 661.39,-45.66 672.88,-33.31"/>
<polygon fill="#63b8ff" stroke="#63b8ff" points="675.2,-35.96 679.45,-26.25 670.07,-31.19 675.2,-35.96"/>
</a>
</g>
</g>
<!-- Node12 -->
<g id="Node000012" class="node">
<title>Node12</title>
<g id="a_Node000012"><a xlink:title=" ">
<polygon fill="#e0e0e0" stroke="#999999" points="877.75,-24.88 759.75,-24.88 759.75,-5.63 877.75,-5.63 877.75,-24.88"/>
<text text-anchor="middle" x="818.75" y="-11.38" font-family="Helvetica,sans-Serif" font-size="10.00">mlir/IR/OwningOpRef.h</text>
</a>
</g>
</g>
<!-- Node10&#45;&gt;Node12 -->
<g id="edge13_Node000010_Node000012" class="edge">
<title>Node10&#45;&gt;Node12</title>
<g id="a_edge13_Node000010_Node000012"><a xlink:title=" ">
<path fill="none" stroke="#63b8ff" d="M655.57,-71.65C688.39,-60.51 744.14,-41.58 781.21,-28.99"/>
<polygon fill="#63b8ff" stroke="#63b8ff" points="782.29,-32.32 790.63,-25.79 780.04,-25.7 782.29,-32.32"/>
</a>
</g>
</g>
<!-- Node13 -->
<g id="Node000013" class="node">
<title>Node13</title>
<g id="a_Node000013"><a xlink:title=" ">
<polygon fill="#e0e0e0" stroke="#999999" points="1005.62,-24.88 895.88,-24.88 895.88,-5.63 1005.62,-5.63 1005.62,-24.88"/>
<text text-anchor="middle" x="950.75" y="-11.38" font-family="Helvetica,sans-Serif" font-size="10.00">llvm/ADT/StringRef.h</text>
</a>
</g>
</g>
<!-- Node10&#45;&gt;Node13 -->
<g id="edge14_Node000010_Node000013" class="edge">
<title>Node10&#45;&gt;Node13</title>
<g id="a_edge14_Node000010_Node000013"><a xlink:title=" ">
<path fill="none" stroke="#63b8ff" d="M673.81,-71.65C682.42,-69.93 691.36,-68.15 699.75,-66.5 782.8,-50.17 803.88,-47.7 886.75,-30.5 891.02,-29.61 895.44,-28.68 899.87,-27.72"/>
<polygon fill="#63b8ff" stroke="#63b8ff" points="900.34,-31.2 909.37,-25.64 898.85,-24.36 900.34,-31.2"/>
</a>
</g>
</g>
<!-- Node14 -->
<g id="Node000014" class="node">
<title>Node14</title>
<g id="a_Node000014"><a xlink:title=" ">
<polygon fill="#e0e0e0" stroke="#999999" points="1066.25,-24.88 1023.25,-24.88 1023.25,-5.63 1066.25,-5.63 1066.25,-24.88"/>
<text text-anchor="middle" x="1044.75" y="-11.38" font-family="Helvetica,sans-Serif" font-size="10.00">vector</text>
</a>
</g>
</g>
<!-- Node10&#45;&gt;Node14 -->
<g id="edge15_Node000010_Node000014" class="edge">
<title>Node10&#45;&gt;Node14</title>
<g id="a_edge15_Node000010_Node000014"><a xlink:title=" ">
<path fill="none" stroke="#63b8ff" d="M671.07,-71.65C680.48,-69.79 690.44,-67.96 699.75,-66.5 838.95,-44.62 879.27,-69.25 1014.75,-30.5 1015.74,-30.22 1016.75,-29.9 1017.75,-29.56"/>
<polygon fill="#63b8ff" stroke="#63b8ff" points="1018.98,-32.84 1026.91,-25.82 1016.33,-26.36 1018.98,-32.84"/>
</a>
</g>
</g>
<!-- Node18 -->
<g id="Node000018" class="node">
<title>Node18</title>
<g id="a_Node000018"><a xlink:title=" ">
<polygon fill="#e0e0e0" stroke="#999999" points="1148.38,-91.38 953.12,-91.38 953.12,-72.12 1148.38,-72.12 1148.38,-91.38"/>
<text text-anchor="middle" x="1050.75" y="-77.88" font-family="Helvetica,sans-Serif" font-size="10.00">mlir/Bytecode/BytecodeImplementation.h</text>
</a>
</g>
</g>
<!-- Node17&#45;&gt;Node18 -->
<g id="edge19_Node000017_Node000018" class="edge">
<title>Node17&#45;&gt;Node18</title>
<g id="a_edge19_Node000017_Node000018"><a xlink:title=" ">
<path fill="none" stroke="#63b8ff" d="M799.3,-134.88C802.16,-134.24 804.99,-133.61 807.75,-133 871.37,-118.99 944.62,-104 993.92,-94.07"/>
<polygon fill="#63b8ff" stroke="#63b8ff" points="994.4,-97.55 1003.51,-92.15 993.02,-90.69 994.4,-97.55"/>
</a>
</g>
</g>
</g>
</svg>
