<?xml version="1.0" encoding="UTF-8" standalone="no"?>
<!DOCTYPE svg PUBLIC "-//W3C//DTD SVG 1.1//EN"
 "http://www.w3.org/Graphics/SVG/1.1/DTD/svg11.dtd">
<!-- Generated by graphviz version 12.2.1 (20241206.2353)
 -->
<!-- Title: lib/Dialect/Global/IR/Ops.cpp Pages: 1 -->
<svg width="2454pt" height="305pt"
 viewBox="0.00 0.00 2454.38 304.50" xmlns="http://www.w3.org/2000/svg" xmlns:xlink="http://www.w3.org/1999/xlink">
<g id="graph0" class="graph" transform="scale(1 1) rotate(0) translate(4 300.5)">
<title>lib/Dialect/Global/IR/Ops.cpp</title>
<!-- Node1 -->
<g id="Node000001" class="node">
<title>Node1</title>
<g id="a_Node000001"><a xlink:title=" ">
<polygon fill="#999999" stroke="#666666" points="1896,-296.5 1805.75,-296.5 1805.75,-266 1896,-266 1896,-296.5"/>
<text text-anchor="start" x="1813.75" y="-283" font-family="Helvetica,sans-Serif" font-size="10.00">lib/Dialect/Global</text>
<text text-anchor="middle" x="1850.88" y="-271.75" font-family="Helvetica,sans-Serif" font-size="10.00">/IR/Ops.cpp</text>
</a>
</g>
</g>
<!-- Node2 -->
<g id="Node000002" class="node">
<title>Node2</title>
<g id="a_Node000002"><a xlink:href="_array_2_i_r_2_types_8h.html" target="_top" xlink:title=" ">
<polygon fill="white" stroke="#666666" points="2192.38,-163.5 2101.38,-163.5 2101.38,-133 2192.38,-133 2192.38,-163.5"/>
<text text-anchor="start" x="2109.38" y="-150" font-family="Helvetica,sans-Serif" font-size="10.00">llzk/Dialect/Array</text>
<text text-anchor="middle" x="2146.88" y="-138.75" font-family="Helvetica,sans-Serif" font-size="10.00">/IR/Types.h</text>
</a>
</g>
</g>
<!-- Node1&#45;&gt;Node2 -->
<g id="edge1_Node000001_Node000002" class="edge">
<title>Node1&#45;&gt;Node2</title>
<g id="a_edge1_Node000001_Node000002"><a xlink:title=" ">
<path fill="none" stroke="#63b8ff" d="M1866.91,-265.75C1891.36,-243.76 1936.07,-204.02 1944.88,-199.5 2002.04,-170.16 2024.91,-179.07 2090.1,-164.06"/>
<polygon fill="#63b8ff" stroke="#63b8ff" points="2090.57,-167.55 2099.46,-161.79 2088.92,-160.75 2090.57,-167.55"/>
</a>
</g>
</g>
<!-- Node13 -->
<g id="Node000013" class="node">
<title>Node13</title>
<g id="a_Node000013"><a xlink:href="_felt_2_i_r_2_ops_8h.html" target="_top" xlink:title=" ">
<polygon fill="white" stroke="#666666" points="652.75,-230 555,-230 555,-199.5 652.75,-199.5 652.75,-230"/>
<text text-anchor="start" x="563" y="-216.5" font-family="Helvetica,sans-Serif" font-size="10.00">llzk/Dialect/Felt/IR</text>
<text text-anchor="middle" x="603.88" y="-205.25" font-family="Helvetica,sans-Serif" font-size="10.00">/Ops.h</text>
</a>
</g>
</g>
<!-- Node1&#45;&gt;Node13 -->
<g id="edge12_Node000001_Node000013" class="edge">
<title>Node1&#45;&gt;Node13</title>
<g id="a_edge12_Node000001_Node000013"><a xlink:title=" ">
<path fill="none" stroke="#63b8ff" d="M1805.39,-277.9C1614.95,-268.05 881.62,-230.12 664.67,-218.89"/>
<polygon fill="#63b8ff" stroke="#63b8ff" points="664.9,-215.4 654.74,-218.38 664.54,-222.39 664.9,-215.4"/>
</a>
</g>
</g>
<!-- Node28 -->
<g id="Node000028" class="node">
<title>Node28</title>
<g id="a_Node000028"><a xlink:href="_global_2_i_r_2_ops_8h.html" target="_top" xlink:title=" ">
<polygon fill="white" stroke="#666666" points="1173.62,-230 1078.12,-230 1078.12,-199.5 1173.62,-199.5 1173.62,-230"/>
<text text-anchor="start" x="1086.12" y="-216.5" font-family="Helvetica,sans-Serif" font-size="10.00">llzk/Dialect/Global</text>
<text text-anchor="middle" x="1125.88" y="-205.25" font-family="Helvetica,sans-Serif" font-size="10.00">/IR/Ops.h</text>
</a>
</g>
</g>
<!-- Node1&#45;&gt;Node28 -->
<g id="edge30_Node000001_Node000028" class="edge">
<title>Node1&#45;&gt;Node28</title>
<g id="a_edge30_Node000001_Node000028"><a xlink:title=" ">
<path fill="none" stroke="#63b8ff" d="M1805.52,-276.22C1679.79,-265.03 1326.75,-233.62 1185.44,-221.05"/>
<polygon fill="#63b8ff" stroke="#63b8ff" points="1185.81,-217.57 1175.54,-220.17 1185.19,-224.54 1185.81,-217.57"/>
</a>
</g>
</g>
<!-- Node38 -->
<g id="Node000038" class="node">
<title>Node38</title>
<g id="a_Node000038"><a xlink:href="_string_2_i_r_2_types_8h.html" target="_top" xlink:title=" ">
<polygon fill="white" stroke="#666666" points="1897.5,-230 1804.25,-230 1804.25,-199.5 1897.5,-199.5 1897.5,-230"/>
<text text-anchor="start" x="1812.25" y="-216.5" font-family="Helvetica,sans-Serif" font-size="10.00">llzk/Dialect/String</text>
<text text-anchor="middle" x="1850.88" y="-205.25" font-family="Helvetica,sans-Serif" font-size="10.00">/IR/Types.h</text>
</a>
</g>
</g>
<!-- Node1&#45;&gt;Node38 -->
<g id="edge39_Node000001_Node000038" class="edge">
<title>Node1&#45;&gt;Node38</title>
<g id="a_edge39_Node000001_Node000038"><a xlink:title=" ">
<path fill="none" stroke="#63b8ff" d="M1850.88,-265.61C1850.88,-258.52 1850.88,-249.79 1850.88,-241.63"/>
<polygon fill="#63b8ff" stroke="#63b8ff" points="1854.38,-241.84 1850.88,-231.84 1847.38,-241.84 1854.38,-241.84"/>
</a>
</g>
</g>
<!-- Node43 -->
<g id="Node000043" class="node">
<title>Node43</title>
<g id="a_Node000043"><a xlink:href="_builder_helper_8h.html" target="_top" xlink:title=" ">
<polygon fill="white" stroke="#666666" points="2071.88,-224.38 1953.88,-224.38 1953.88,-205.12 2071.88,-205.12 2071.88,-224.38"/>
<text text-anchor="middle" x="2012.88" y="-210.88" font-family="Helvetica,sans-Serif" font-size="10.00">llzk/Util/BuilderHelper.h</text>
</a>
</g>
</g>
<!-- Node1&#45;&gt;Node43 -->
<g id="edge44_Node000001_Node000043" class="edge">
<title>Node1&#45;&gt;Node43</title>
<g id="a_edge44_Node000001_Node000043"><a xlink:title=" ">
<path fill="none" stroke="#63b8ff" d="M1887.64,-265.61C1915.37,-254.57 1953.08,-239.56 1979.86,-228.9"/>
<polygon fill="#63b8ff" stroke="#63b8ff" points="1980.84,-232.27 1988.84,-225.32 1978.25,-225.77 1980.84,-232.27"/>
</a>
</g>
</g>
<!-- Node46 -->
<g id="Node000046" class="node">
<title>Node46</title>
<g id="a_Node000046"><a xlink:href="_symbol_helper_8h.html" target="_top" xlink:title=" ">
<polygon fill="white" stroke="#666666" points="1752.38,-224.38 1631.38,-224.38 1631.38,-205.12 1752.38,-205.12 1752.38,-224.38"/>
<text text-anchor="middle" x="1691.88" y="-210.88" font-family="Helvetica,sans-Serif" font-size="10.00">llzk/Util/SymbolHelper.h</text>
</a>
</g>
</g>
<!-- Node1&#45;&gt;Node46 -->
<g id="edge47_Node000001_Node000046" class="edge">
<title>Node1&#45;&gt;Node46</title>
<g id="a_edge47_Node000001_Node000046"><a xlink:title=" ">
<path fill="none" stroke="#63b8ff" d="M1814.8,-265.61C1787.7,-254.62 1750.89,-239.69 1724.63,-229.04"/>
<polygon fill="#63b8ff" stroke="#63b8ff" points="1726.07,-225.84 1715.49,-225.33 1723.44,-232.33 1726.07,-225.84"/>
</a>
</g>
</g>
<!-- Node49 -->
<g id="Node000049" class="node">
<title>Node49</title>
<g id="a_Node000049"><a xlink:href="_type_helper_8h.html" target="_top" xlink:title=" ">
<polygon fill="white" stroke="#666666" points="1518.38,-157.88 1409.38,-157.88 1409.38,-138.62 1518.38,-138.62 1518.38,-157.88"/>
<text text-anchor="middle" x="1463.88" y="-144.38" font-family="Helvetica,sans-Serif" font-size="10.00">llzk/Util/TypeHelper.h</text>
</a>
</g>
</g>
<!-- Node1&#45;&gt;Node49 -->
<g id="edge51_Node000001_Node000049" class="edge">
<title>Node1&#45;&gt;Node49</title>
<g id="a_edge51_Node000001_Node000049"><a xlink:title=" ">
<path fill="none" stroke="#63b8ff" d="M1805.37,-273.7C1758.66,-266.18 1684.32,-251.97 1622.88,-230 1573.07,-212.19 1518.92,-182.18 1488.41,-164.2"/>
<polygon fill="#63b8ff" stroke="#63b8ff" points="1490.33,-161.27 1479.95,-159.15 1486.75,-167.28 1490.33,-161.27"/>
</a>
</g>
</g>
<!-- Node54 -->
<g id="Node000054" class="node">
<title>Node54</title>
<g id="a_Node000054"><a xlink:href="_global_2_i_r_2_op_interfaces_8cpp_8inc.html" target="_top" xlink:title=" ">
<polygon fill="white" stroke="#666666" points="2213.5,-230 2090.25,-230 2090.25,-199.5 2213.5,-199.5 2213.5,-230"/>
<text text-anchor="start" x="2098.25" y="-216.5" font-family="Helvetica,sans-Serif" font-size="10.00">llzk/Dialect/Global</text>
<text text-anchor="middle" x="2151.88" y="-205.25" font-family="Helvetica,sans-Serif" font-size="10.00">/IR/OpInterfaces.cpp.inc</text>
</a>
</g>
</g>
<!-- Node1&#45;&gt;Node54 -->
<g id="edge59_Node000001_Node000054" class="edge">
<title>Node1&#45;&gt;Node54</title>
<g id="a_edge59_Node000001_Node000054"><a xlink:title=" ">
<path fill="none" stroke="#63b8ff" d="M1896.26,-270.52C1944.61,-260.16 2021.86,-243.61 2078.8,-231.41"/>
<polygon fill="#63b8ff" stroke="#63b8ff" points="2079.37,-234.87 2088.42,-229.35 2077.91,-228.02 2079.37,-234.87"/>
</a>
</g>
</g>
<!-- Node55 -->
<g id="Node000055" class="node">
<title>Node55</title>
<g id="a_Node000055"><a xlink:href="_global_2_i_r_2_ops_8cpp_8inc.html" target="_top" xlink:title=" ">
<polygon fill="white" stroke="#666666" points="2326.62,-230 2231.12,-230 2231.12,-199.5 2326.62,-199.5 2326.62,-230"/>
<text text-anchor="start" x="2239.12" y="-216.5" font-family="Helvetica,sans-Serif" font-size="10.00">llzk/Dialect/Global</text>
<text text-anchor="middle" x="2278.88" y="-205.25" font-family="Helvetica,sans-Serif" font-size="10.00">/IR/Ops.cpp.inc</text>
</a>
</g>
</g>
<!-- Node1&#45;&gt;Node55 -->
<g id="edge60_Node000001_Node000055" class="edge">
<title>Node1&#45;&gt;Node55</title>
<g id="a_edge60_Node000001_Node000055"><a xlink:title=" ">
<path fill="none" stroke="#63b8ff" d="M1896.39,-275.81C1964.71,-268.76 2098.01,-253.59 2219.71,-230.5"/>
<polygon fill="#63b8ff" stroke="#63b8ff" points="2220.05,-234 2229.2,-228.67 2218.72,-227.12 2220.05,-234"/>
</a>
</g>
</g>
<!-- Node3 -->
<g id="Node000003" class="node">
<title>Node3</title>
<g id="a_Node000003"><a xlink:href="_array_2_i_r_2_dialect_8h.html" target="_top" xlink:title=" ">
<polygon fill="white" stroke="#666666" points="2077.38,-97 1986.38,-97 1986.38,-66.5 2077.38,-66.5 2077.38,-97"/>
<text text-anchor="start" x="1994.38" y="-83.5" font-family="Helvetica,sans-Serif" font-size="10.00">llzk/Dialect/Array</text>
<text text-anchor="middle" x="2031.88" y="-72.25" font-family="Helvetica,sans-Serif" font-size="10.00">/IR/Dialect.h</text>
</a>
</g>
</g>
<!-- Node2&#45;&gt;Node3 -->
<g id="edge2_Node000002_Node000003" class="edge">
<title>Node2&#45;&gt;Node3</title>
<g id="a_edge2_Node000002_Node000003"><a xlink:title=" ">
<path fill="none" stroke="#63b8ff" d="M2120.78,-132.61C2105.05,-123.79 2084.79,-112.43 2067.59,-102.78"/>
<polygon fill="#63b8ff" stroke="#63b8ff" points="2069.62,-99.91 2059.19,-98.07 2066.2,-106.01 2069.62,-99.91"/>
</a>
</g>
</g>
<!-- Node6 -->
<g id="Node000006" class="node">
<title>Node6</title>
<g id="a_Node000006"><a xlink:href="_error_helper_8h.html" target="_top" xlink:title=" ">
<polygon fill="white" stroke="#666666" points="1968.38,-91.38 1859.38,-91.38 1859.38,-72.12 1968.38,-72.12 1968.38,-91.38"/>
<text text-anchor="middle" x="1913.88" y="-77.88" font-family="Helvetica,sans-Serif" font-size="10.00">llzk/Util/ErrorHelper.h</text>
</a>
</g>
</g>
<!-- Node2&#45;&gt;Node6 -->
<g id="edge5_Node000002_Node000006" class="edge">
<title>Node2&#45;&gt;Node6</title>
<g id="a_edge5_Node000002_Node000006"><a xlink:title=" ">
<path fill="none" stroke="#63b8ff" d="M2101.12,-134.58C2059.57,-123.08 1998.69,-106.23 1957.74,-94.89"/>
<polygon fill="#63b8ff" stroke="#63b8ff" points="1958.78,-91.55 1948.21,-92.25 1956.91,-98.3 1958.78,-91.55"/>
</a>
</g>
</g>
<!-- Node10 -->
<g id="Node000010" class="node">
<title>Node10</title>
<g id="a_Node000010"><a xlink:title=" ">
<polygon fill="#e0e0e0" stroke="#999999" points="2228.75,-97 2095,-97 2095,-66.5 2228.75,-66.5 2228.75,-97"/>
<text text-anchor="start" x="2103" y="-83.5" font-family="Helvetica,sans-Serif" font-size="10.00">mlir/Interfaces/MemorySlot</text>
<text text-anchor="middle" x="2161.88" y="-72.25" font-family="Helvetica,sans-Serif" font-size="10.00">Interfaces.h</text>
</a>
</g>
</g>
<!-- Node2&#45;&gt;Node10 -->
<g id="edge9_Node000002_Node000010" class="edge">
<title>Node2&#45;&gt;Node10</title>
<g id="a_edge9_Node000002_Node000010"><a xlink:title=" ">
<path fill="none" stroke="#63b8ff" d="M2150.28,-132.61C2151.95,-125.44 2154.01,-116.59 2155.92,-108.34"/>
<polygon fill="#63b8ff" stroke="#63b8ff" points="2159.29,-109.34 2158.14,-98.8 2152.47,-107.75 2159.29,-109.34"/>
</a>
</g>
</g>
<!-- Node11 -->
<g id="Node000011" class="node">
<title>Node11</title>
<g id="a_Node000011"><a xlink:href="_array_2_i_r_2_ops_8h_8inc.html" target="_top" xlink:title=" ">
<polygon fill="white" stroke="#666666" points="2337.38,-97 2246.38,-97 2246.38,-66.5 2337.38,-66.5 2337.38,-97"/>
<text text-anchor="start" x="2254.38" y="-83.5" font-family="Helvetica,sans-Serif" font-size="10.00">llzk/Dialect/Array</text>
<text text-anchor="middle" x="2291.88" y="-72.25" font-family="Helvetica,sans-Serif" font-size="10.00">/IR/Ops.h.inc</text>
</a>
</g>
</g>
<!-- Node2&#45;&gt;Node11 -->
<g id="edge10_Node000002_Node000011" class="edge">
<title>Node2&#45;&gt;Node11</title>
<g id="a_edge10_Node000002_Node000011"><a xlink:title=" ">
<path fill="none" stroke="#63b8ff" d="M2179.78,-132.61C2200.1,-123.57 2226.41,-111.87 2248.43,-102.08"/>
<polygon fill="#63b8ff" stroke="#63b8ff" points="2249.75,-105.32 2257.47,-98.05 2246.91,-98.92 2249.75,-105.32"/>
</a>
</g>
</g>
<!-- Node12 -->
<g id="Node000012" class="node">
<title>Node12</title>
<g id="a_Node000012"><a xlink:href="_array_2_i_r_2_types_8h_8inc.html" target="_top" xlink:title=" ">
<polygon fill="white" stroke="#666666" points="2446.38,-97 2355.38,-97 2355.38,-66.5 2446.38,-66.5 2446.38,-97"/>
<text text-anchor="start" x="2363.38" y="-83.5" font-family="Helvetica,sans-Serif" font-size="10.00">llzk/Dialect/Array</text>
<text text-anchor="middle" x="2400.88" y="-72.25" font-family="Helvetica,sans-Serif" font-size="10.00">/IR/Types.h.inc</text>
</a>
</g>
</g>
<!-- Node2&#45;&gt;Node12 -->
<g id="edge11_Node000002_Node000012" class="edge">
<title>Node2&#45;&gt;Node12</title>
<g id="a_edge11_Node000002_Node000012"><a xlink:title=" ">
<path fill="none" stroke="#63b8ff" d="M2192.82,-135.07C2195.54,-134.37 2198.24,-133.67 2200.88,-133 2262.22,-117.34 2280.25,-113.88 2343.87,-97.74"/>
<polygon fill="#63b8ff" stroke="#63b8ff" points="2344.64,-101.16 2353.46,-95.3 2342.91,-94.38 2344.64,-101.16"/>
</a>
</g>
</g>
<!-- Node4 -->
<g id="Node000004" class="node">
<title>Node4</title>
<g id="a_Node000004"><a xlink:title=" ">
<polygon fill="#e0e0e0" stroke="#999999" points="1328.62,-24.88 1227.12,-24.88 1227.12,-5.63 1328.62,-5.63 1328.62,-24.88"/>
<text text-anchor="middle" x="1277.88" y="-11.38" font-family="Helvetica,sans-Serif" font-size="10.00">mlir/IR/BuiltinOps.h</text>
</a>
</g>
</g>
<!-- Node3&#45;&gt;Node4 -->
<g id="edge3_Node000003_Node000004" class="edge">
<title>Node3&#45;&gt;Node4</title>
<g id="a_edge3_Node000003_Node000004"><a xlink:title=" ">
<path fill="none" stroke="#63b8ff" d="M1986.04,-68.03C1983.29,-67.46 1980.55,-66.95 1977.88,-66.5 1855.98,-46.22 1487.78,-26.53 1340.12,-19.23"/>
<polygon fill="#63b8ff" stroke="#63b8ff" points="1340.71,-15.75 1330.55,-18.76 1340.37,-22.74 1340.71,-15.75"/>
</a>
</g>
</g>
<!-- Node5 -->
<g id="Node000005" class="node">
<title>Node5</title>
<g id="a_Node000005"><a xlink:href="_array_2_i_r_2_dialect_8h_8inc.html" target="_top" xlink:title=" ">
<polygon fill="white" stroke="#666666" points="2161.38,-30.5 2070.38,-30.5 2070.38,0 2161.38,0 2161.38,-30.5"/>
<text text-anchor="start" x="2078.38" y="-17" font-family="Helvetica,sans-Serif" font-size="10.00">llzk/Dialect/Array</text>
<text text-anchor="middle" x="2115.88" y="-5.75" font-family="Helvetica,sans-Serif" font-size="10.00">/IR/Dialect.h.inc</text>
</a>
</g>
</g>
<!-- Node3&#45;&gt;Node5 -->
<g id="edge4_Node000003_Node000005" class="edge">
<title>Node3&#45;&gt;Node5</title>
<g id="a_edge4_Node000003_Node000005"><a xlink:title=" ">
<path fill="none" stroke="#63b8ff" d="M2050.94,-66.11C2061.89,-57.7 2075.85,-46.98 2088.01,-37.64"/>
<polygon fill="#63b8ff" stroke="#63b8ff" points="2089.89,-40.62 2095.69,-31.75 2085.63,-35.06 2089.89,-40.62"/>
</a>
</g>
</g>
<!-- Node7 -->
<g id="Node000007" class="node">
<title>Node7</title>
<g id="a_Node000007"><a xlink:title=" ">
<polygon fill="#e0e0e0" stroke="#999999" points="1780.88,-24.88 1620.88,-24.88 1620.88,-5.63 1780.88,-5.63 1780.88,-24.88"/>
<text text-anchor="middle" x="1700.88" y="-11.38" font-family="Helvetica,sans-Serif" font-size="10.00">llvm/ADT/STLFunctionalExtras.h</text>
</a>
</g>
</g>
<!-- Node6&#45;&gt;Node7 -->
<g id="edge6_Node000006_Node000007" class="edge">
<title>Node6&#45;&gt;Node7</title>
<g id="a_edge6_Node000006_Node000007"><a xlink:title=" ">
<path fill="none" stroke="#63b8ff" d="M1883.81,-71.65C1846.62,-60.39 1783.16,-41.17 1741.62,-28.59"/>
<polygon fill="#63b8ff" stroke="#63b8ff" points="1742.82,-25.3 1732.24,-25.75 1740.79,-31.99 1742.82,-25.3"/>
</a>
</g>
</g>
<!-- Node8 -->
<g id="Node000008" class="node">
<title>Node8</title>
<g id="a_Node000008"><a xlink:title=" ">
<polygon fill="#e0e0e0" stroke="#999999" points="1892.88,-24.88 1798.88,-24.88 1798.88,-5.63 1892.88,-5.63 1892.88,-24.88"/>
<text text-anchor="middle" x="1845.88" y="-11.38" font-family="Helvetica,sans-Serif" font-size="10.00">llvm/ADT/Twine.h</text>
</a>
</g>
</g>
<!-- Node6&#45;&gt;Node8 -->
<g id="edge7_Node000006_Node000008" class="edge">
<title>Node6&#45;&gt;Node8</title>
<g id="a_edge7_Node000006_Node000008"><a xlink:title=" ">
<path fill="none" stroke="#63b8ff" d="M1904.42,-71.78C1893.86,-61.77 1876.55,-45.35 1863.48,-32.95"/>
<polygon fill="#63b8ff" stroke="#63b8ff" points="1866.01,-30.53 1856.35,-26.18 1861.19,-35.61 1866.01,-30.53"/>
</a>
</g>
</g>
<!-- Node9 -->
<g id="Node000009" class="node">
<title>Node9</title>
<g id="a_Node000009"><a xlink:title=" ">
<polygon fill="#e0e0e0" stroke="#999999" points="2052.5,-24.88 1911.25,-24.88 1911.25,-5.63 2052.5,-5.63 2052.5,-24.88"/>
<text text-anchor="middle" x="1981.88" y="-11.38" font-family="Helvetica,sans-Serif" font-size="10.00">llvm/Support/ErrorHandling.h</text>
</a>
</g>
</g>
<!-- Node6&#45;&gt;Node9 -->
<g id="edge8_Node000006_Node000009" class="edge">
<title>Node6&#45;&gt;Node9</title>
<g id="a_edge8_Node000006_Node000009"><a xlink:title=" ">
<path fill="none" stroke="#63b8ff" d="M1923.33,-71.78C1933.89,-61.77 1951.2,-45.35 1964.27,-32.95"/>
<polygon fill="#63b8ff" stroke="#63b8ff" points="1966.56,-35.61 1971.4,-26.18 1961.74,-30.53 1966.56,-35.61"/>
</a>
</g>
</g>
<!-- Node14 -->
<g id="Node000014" class="node">
<title>Node14</title>
<g id="a_Node000014"><a xlink:href="_felt_2_i_r_2_attrs_8h.html" target="_top" xlink:title=" ">
<polygon fill="white" stroke="#666666" points="275.75,-163.5 178,-163.5 178,-133 275.75,-133 275.75,-163.5"/>
<text text-anchor="start" x="186" y="-150" font-family="Helvetica,sans-Serif" font-size="10.00">llzk/Dialect/Felt/IR</text>
<text text-anchor="middle" x="226.88" y="-138.75" font-family="Helvetica,sans-Serif" font-size="10.00">/Attrs.h</text>
</a>
</g>
</g>
<!-- Node13&#45;&gt;Node14 -->
<g id="edge13_Node000013_Node000014" class="edge">
<title>Node13&#45;&gt;Node14</title>
<g id="a_edge13_Node000013_Node000014"><a xlink:title=" ">
<path fill="none" stroke="#63b8ff" d="M554.59,-205.32C485.86,-193.56 361.36,-172.26 287.18,-159.57"/>
<polygon fill="#63b8ff" stroke="#63b8ff" points="288.11,-156.18 277.67,-157.94 286.93,-163.08 288.11,-156.18"/>
</a>
</g>
</g>
<!-- Node18 -->
<g id="Node000018" class="node">
<title>Node18</title>
<g id="a_Node000018"><a xlink:href="_felt_2_i_r_2_dialect_8h.html" target="_top" xlink:title=" ">
<polygon fill="white" stroke="#666666" points="691.75,-97 594,-97 594,-66.5 691.75,-66.5 691.75,-97"/>
<text text-anchor="start" x="602" y="-83.5" font-family="Helvetica,sans-Serif" font-size="10.00">llzk/Dialect/Felt/IR</text>
<text text-anchor="middle" x="642.88" y="-72.25" font-family="Helvetica,sans-Serif" font-size="10.00">/Dialect.h</text>
</a>
</g>
</g>
<!-- Node13&#45;&gt;Node18 -->
<g id="edge17_Node000013_Node000018" class="edge">
<title>Node13&#45;&gt;Node18</title>
<g id="a_edge17_Node000013_Node000018"><a xlink:title=" ">
<path fill="none" stroke="#63b8ff" d="M606.61,-199.28C609.84,-182.99 615.7,-155.8 622.88,-133 625.48,-124.72 628.81,-115.87 632.01,-107.94"/>
<polygon fill="#63b8ff" stroke="#63b8ff" points="635.16,-109.47 635.76,-98.89 628.69,-106.79 635.16,-109.47"/>
</a>
</g>
</g>
<!-- Node20 -->
<g id="Node000020" class="node">
<title>Node20</title>
<g id="a_Node000020"><a xlink:href="_felt_2_i_r_2_types_8h.html" target="_top" xlink:title=" ">
<polygon fill="white" stroke="#666666" points="575.75,-163.5 478,-163.5 478,-133 575.75,-133 575.75,-163.5"/>
<text text-anchor="start" x="486" y="-150" font-family="Helvetica,sans-Serif" font-size="10.00">llzk/Dialect/Felt/IR</text>
<text text-anchor="middle" x="526.88" y="-138.75" font-family="Helvetica,sans-Serif" font-size="10.00">/Types.h</text>
</a>
</g>
</g>
<!-- Node13&#45;&gt;Node20 -->
<g id="edge20_Node000013_Node000020" class="edge">
<title>Node13&#45;&gt;Node20</title>
<g id="a_edge20_Node000013_Node000020"><a xlink:title=" ">
<path fill="none" stroke="#63b8ff" d="M586.4,-199.11C576.56,-190.87 564.07,-180.4 553.07,-171.19"/>
<polygon fill="#63b8ff" stroke="#63b8ff" points="555.35,-168.54 545.44,-164.8 550.86,-173.9 555.35,-168.54"/>
</a>
</g>
</g>
<!-- Node21 -->
<g id="Node000021" class="node">
<title>Node21</title>
<g id="a_Node000021"><a xlink:href="_felt_2_i_r_2_ops_8h_8inc.html" target="_top" xlink:title=" ">
<polygon fill="white" stroke="#666666" points="459.75,-97 362,-97 362,-66.5 459.75,-66.5 459.75,-97"/>
<text text-anchor="start" x="370" y="-83.5" font-family="Helvetica,sans-Serif" font-size="10.00">llzk/Dialect/Felt/IR</text>
<text text-anchor="middle" x="410.88" y="-72.25" font-family="Helvetica,sans-Serif" font-size="10.00">/Ops.h.inc</text>
</a>
</g>
</g>
<!-- Node13&#45;&gt;Node21 -->
<g id="edge29_Node000013_Node000021" class="edge">
<title>Node13&#45;&gt;Node21</title>
<g id="a_edge29_Node000013_Node000021"><a xlink:title=" ">
<path fill="none" stroke="#63b8ff" d="M554.81,-203.01C527.54,-195.29 494.12,-182.77 468.88,-163.5 449.24,-148.51 433.43,-125.04 423.31,-107.26"/>
<polygon fill="#63b8ff" stroke="#63b8ff" points="426.47,-105.75 418.61,-98.64 420.32,-109.09 426.47,-105.75"/>
</a>
</g>
</g>
<!-- Node23 -->
<g id="Node000023" class="node">
<title>Node23</title>
<g id="a_Node000023"><a xlink:href="_op_traits_8h.html" target="_top" xlink:title=" ">
<polygon fill="white" stroke="#666666" points="877.5,-163.5 772.25,-163.5 772.25,-133 877.5,-133 877.5,-163.5"/>
<text text-anchor="start" x="780.25" y="-150" font-family="Helvetica,sans-Serif" font-size="10.00">llzk/Dialect/Function</text>
<text text-anchor="middle" x="824.88" y="-138.75" font-family="Helvetica,sans-Serif" font-size="10.00">/IR/OpTraits.h</text>
</a>
</g>
</g>
<!-- Node13&#45;&gt;Node23 -->
<g id="edge24_Node000013_Node000023" class="edge">
<title>Node13&#45;&gt;Node23</title>
<g id="a_edge24_Node000013_Node000023"><a xlink:title=" ">
<path fill="none" stroke="#63b8ff" d="M653.2,-199.36C685.8,-189.84 728.77,-177.3 763.57,-167.14"/>
<polygon fill="#63b8ff" stroke="#63b8ff" points="764.48,-170.52 773.1,-164.36 762.52,-163.8 764.48,-170.52"/>
</a>
</g>
</g>
<!-- Node27 -->
<g id="Node000027" class="node">
<title>Node27</title>
<g id="a_Node000027"><a xlink:title=" ">
<polygon fill="#e0e0e0" stroke="#999999" points="753.75,-163.5 632,-163.5 632,-133 753.75,-133 753.75,-163.5"/>
<text text-anchor="start" x="640" y="-150" font-family="Helvetica,sans-Serif" font-size="10.00">mlir/Interfaces/InferType</text>
<text text-anchor="middle" x="692.88" y="-138.75" font-family="Helvetica,sans-Serif" font-size="10.00">OpInterface.h</text>
</a>
</g>
</g>
<!-- Node13&#45;&gt;Node27 -->
<g id="edge28_Node000013_Node000027" class="edge">
<title>Node13&#45;&gt;Node27</title>
<g id="a_edge28_Node000013_Node000027"><a xlink:title=" ">
<path fill="none" stroke="#63b8ff" d="M624.07,-199.11C635.79,-190.62 650.76,-179.77 663.74,-170.37"/>
<polygon fill="#63b8ff" stroke="#63b8ff" points="665.49,-173.42 671.53,-164.72 661.38,-167.75 665.49,-173.42"/>
</a>
</g>
</g>
<!-- Node15 -->
<g id="Node000015" class="node">
<title>Node15</title>
<g id="a_Node000015"><a xlink:title=" ">
<polygon fill="#e0e0e0" stroke="#999999" points="214.12,-91.38 115.62,-91.38 115.62,-72.12 214.12,-72.12 214.12,-91.38"/>
<text text-anchor="middle" x="164.88" y="-77.88" font-family="Helvetica,sans-Serif" font-size="10.00">mlir/IR/Attributes.h</text>
</a>
</g>
</g>
<!-- Node14&#45;&gt;Node15 -->
<g id="edge14_Node000014_Node000015" class="edge">
<title>Node14&#45;&gt;Node15</title>
<g id="a_edge14_Node000014_Node000015"><a xlink:title=" ">
<path fill="none" stroke="#63b8ff" d="M212.81,-132.61C203.41,-122.84 191.02,-109.95 181.19,-99.73"/>
<polygon fill="#63b8ff" stroke="#63b8ff" points="183.86,-97.45 174.4,-92.66 178.81,-102.3 183.86,-97.45"/>
</a>
</g>
</g>
<!-- Node16 -->
<g id="Node000016" class="node">
<title>Node16</title>
<g id="a_Node000016"><a xlink:title=" ">
<polygon fill="#e0e0e0" stroke="#999999" points="343.88,-97 231.88,-97 231.88,-66.5 343.88,-66.5 343.88,-97"/>
<text text-anchor="start" x="239.88" y="-83.5" font-family="Helvetica,sans-Serif" font-size="10.00">mlir/IR/BuiltinAttribute</text>
<text text-anchor="middle" x="287.88" y="-72.25" font-family="Helvetica,sans-Serif" font-size="10.00">Interfaces.h</text>
</a>
</g>
</g>
<!-- Node14&#45;&gt;Node16 -->
<g id="edge15_Node000014_Node000016" class="edge">
<title>Node14&#45;&gt;Node16</title>
<g id="a_edge15_Node000014_Node000016"><a xlink:title=" ">
<path fill="none" stroke="#63b8ff" d="M240.72,-132.61C248.28,-124.61 257.82,-114.53 266.33,-105.53"/>
<polygon fill="#63b8ff" stroke="#63b8ff" points="268.72,-108.1 273.05,-98.43 263.63,-103.29 268.72,-108.1"/>
</a>
</g>
</g>
<!-- Node17 -->
<g id="Node000017" class="node">
<title>Node17</title>
<g id="a_Node000017"><a xlink:href="_felt_2_i_r_2_attrs_8h_8inc.html" target="_top" xlink:title=" ">
<polygon fill="white" stroke="#666666" points="97.75,-97 0,-97 0,-66.5 97.75,-66.5 97.75,-97"/>
<text text-anchor="start" x="8" y="-83.5" font-family="Helvetica,sans-Serif" font-size="10.00">llzk/Dialect/Felt/IR</text>
<text text-anchor="middle" x="48.88" y="-72.25" font-family="Helvetica,sans-Serif" font-size="10.00">/Attrs.h.inc</text>
</a>
</g>
</g>
<!-- Node14&#45;&gt;Node17 -->
<g id="edge16_Node000014_Node000017" class="edge">
<title>Node14&#45;&gt;Node17</title>
<g id="a_edge16_Node000014_Node000017"><a xlink:title=" ">
<path fill="none" stroke="#63b8ff" d="M186.48,-132.61C160.86,-123.33 127.48,-111.23 100.01,-101.28"/>
<polygon fill="#63b8ff" stroke="#63b8ff" points="101.43,-98.07 90.84,-97.96 99.05,-104.65 101.43,-98.07"/>
</a>
</g>
</g>
<!-- Node18&#45;&gt;Node4 -->
<g id="edge18_Node000018_Node000004" class="edge">
<title>Node18&#45;&gt;Node4</title>
<g id="a_edge18_Node000018_Node000004"><a xlink:title=" ">
<path fill="none" stroke="#63b8ff" d="M692.21,-67.91C694.79,-67.4 697.36,-66.92 699.88,-66.5 885.88,-35.37 1108.98,-22.89 1215.42,-18.44"/>
<polygon fill="#63b8ff" stroke="#63b8ff" points="1215.53,-21.94 1225.38,-18.03 1215.25,-14.94 1215.53,-21.94"/>
</a>
</g>
</g>
<!-- Node19 -->
<g id="Node000019" class="node">
<title>Node19</title>
<g id="a_Node000019"><a xlink:href="_felt_2_i_r_2_dialect_8h_8inc.html" target="_top" xlink:title=" ">
<polygon fill="white" stroke="#666666" points="691.75,-30.5 594,-30.5 594,0 691.75,0 691.75,-30.5"/>
<text text-anchor="start" x="602" y="-17" font-family="Helvetica,sans-Serif" font-size="10.00">llzk/Dialect/Felt/IR</text>
<text text-anchor="middle" x="642.88" y="-5.75" font-family="Helvetica,sans-Serif" font-size="10.00">/Dialect.h.inc</text>
</a>
</g>
</g>
<!-- Node18&#45;&gt;Node19 -->
<g id="edge19_Node000018_Node000019" class="edge">
<title>Node18&#45;&gt;Node19</title>
<g id="a_edge19_Node000018_Node000019"><a xlink:title=" ">
<path fill="none" stroke="#63b8ff" d="M642.88,-66.11C642.88,-59.02 642.88,-50.29 642.88,-42.13"/>
<polygon fill="#63b8ff" stroke="#63b8ff" points="646.38,-42.34 642.88,-32.34 639.38,-42.34 646.38,-42.34"/>
</a>
</g>
</g>
<!-- Node20&#45;&gt;Node18 -->
<g id="edge21_Node000020_Node000018" class="edge">
<title>Node20&#45;&gt;Node18</title>
<g id="a_edge21_Node000020_Node000018"><a xlink:title=" ">
<path fill="none" stroke="#63b8ff" d="M553.2,-132.61C569.07,-123.79 589.5,-112.43 606.85,-102.78"/>
<polygon fill="#63b8ff" stroke="#63b8ff" points="608.3,-105.98 615.33,-98.06 604.89,-99.86 608.3,-105.98"/>
</a>
</g>
</g>
<!-- Node20&#45;&gt;Node21 -->
<g id="edge22_Node000020_Node000021" class="edge">
<title>Node20&#45;&gt;Node21</title>
<g id="a_edge22_Node000020_Node000021"><a xlink:title=" ">
<path fill="none" stroke="#63b8ff" d="M500.55,-132.61C484.68,-123.79 464.25,-112.43 446.9,-102.78"/>
<polygon fill="#63b8ff" stroke="#63b8ff" points="448.86,-99.86 438.42,-98.06 445.45,-105.98 448.86,-99.86"/>
</a>
</g>
</g>
<!-- Node22 -->
<g id="Node000022" class="node">
<title>Node22</title>
<g id="a_Node000022"><a xlink:href="_felt_2_i_r_2_types_8h_8inc.html" target="_top" xlink:title=" ">
<polygon fill="white" stroke="#666666" points="575.75,-97 478,-97 478,-66.5 575.75,-66.5 575.75,-97"/>
<text text-anchor="start" x="486" y="-83.5" font-family="Helvetica,sans-Serif" font-size="10.00">llzk/Dialect/Felt/IR</text>
<text text-anchor="middle" x="526.88" y="-72.25" font-family="Helvetica,sans-Serif" font-size="10.00">/Types.h.inc</text>
</a>
</g>
</g>
<!-- Node20&#45;&gt;Node22 -->
<g id="edge23_Node000020_Node000022" class="edge">
<title>Node20&#45;&gt;Node22</title>
<g id="a_edge23_Node000020_Node000022"><a xlink:title=" ">
<path fill="none" stroke="#63b8ff" d="M526.88,-132.61C526.88,-125.52 526.88,-116.79 526.88,-108.63"/>
<polygon fill="#63b8ff" stroke="#63b8ff" points="530.38,-108.84 526.88,-98.84 523.38,-108.84 530.38,-108.84"/>
</a>
</g>
</g>
<!-- Node24 -->
<g id="Node000024" class="node">
<title>Node24</title>
<g id="a_Node000024"><a xlink:title=" ">
<polygon fill="#e0e0e0" stroke="#999999" points="977.12,-91.38 866.62,-91.38 866.62,-72.12 977.12,-72.12 977.12,-91.38"/>
<text text-anchor="middle" x="921.88" y="-77.88" font-family="Helvetica,sans-Serif" font-size="10.00">mlir/IR/OpDefinition.h</text>
</a>
</g>
</g>
<!-- Node23&#45;&gt;Node24 -->
<g id="edge25_Node000023_Node000024" class="edge">
<title>Node23&#45;&gt;Node24</title>
<g id="a_edge25_Node000023_Node000024"><a xlink:title=" ">
<path fill="none" stroke="#63b8ff" d="M846.89,-132.61C862.38,-122.31 883.09,-108.54 898.81,-98.08"/>
<polygon fill="#63b8ff" stroke="#63b8ff" points="900.68,-101.05 907.07,-92.6 896.8,-95.22 900.68,-101.05"/>
</a>
</g>
</g>
<!-- Node25 -->
<g id="Node000025" class="node">
<title>Node25</title>
<g id="a_Node000025"><a xlink:title=" ">
<polygon fill="#e0e0e0" stroke="#999999" points="1131.12,-91.38 1032.62,-91.38 1032.62,-72.12 1131.12,-72.12 1131.12,-91.38"/>
<text text-anchor="middle" x="1081.88" y="-77.88" font-family="Helvetica,sans-Serif" font-size="10.00">mlir/IR/Operation.h</text>
</a>
</g>
</g>
<!-- Node23&#45;&gt;Node25 -->
<g id="edge26_Node000023_Node000025" class="edge">
<title>Node23&#45;&gt;Node25</title>
<g id="a_edge26_Node000023_Node000025"><a xlink:title=" ">
<path fill="none" stroke="#63b8ff" d="M877.81,-133.96C923.91,-122.4 990.12,-105.78 1034.5,-94.64"/>
<polygon fill="#63b8ff" stroke="#63b8ff" points="1035.25,-98.06 1044.09,-92.23 1033.54,-91.27 1035.25,-98.06"/>
</a>
</g>
</g>
<!-- Node26 -->
<g id="Node000026" class="node">
<title>Node26</title>
<g id="a_Node000026"><a xlink:title=" ">
<polygon fill="#e0e0e0" stroke="#999999" points="848.38,-91.38 709.38,-91.38 709.38,-72.12 848.38,-72.12 848.38,-91.38"/>
<text text-anchor="middle" x="778.88" y="-77.88" font-family="Helvetica,sans-Serif" font-size="10.00">mlir/Support/LogicalResult.h</text>
</a>
</g>
</g>
<!-- Node23&#45;&gt;Node26 -->
<g id="edge27_Node000023_Node000026" class="edge">
<title>Node23&#45;&gt;Node26</title>
<g id="a_edge27_Node000023_Node000026"><a xlink:title=" ">
<path fill="none" stroke="#63b8ff" d="M814.44,-132.61C807.68,-123.14 798.83,-110.73 791.65,-100.66"/>
<polygon fill="#63b8ff" stroke="#63b8ff" points="794.7,-98.91 786.05,-92.8 789,-102.98 794.7,-98.91"/>
</a>
</g>
</g>
<!-- Node28&#45;&gt;Node23 -->
<g id="edge31_Node000028_Node000023" class="edge">
<title>Node28&#45;&gt;Node23</title>
<g id="a_edge31_Node000028_Node000023"><a xlink:title=" ">
<path fill="none" stroke="#63b8ff" d="M1077.99,-204.06C1031.87,-194.66 959.84,-179.77 888.7,-164.1"/>
<polygon fill="#63b8ff" stroke="#63b8ff" points="889.76,-160.75 879.24,-162.01 888.25,-167.58 889.76,-160.75"/>
</a>
</g>
</g>
<!-- Node29 -->
<g id="Node000029" class="node">
<title>Node29</title>
<g id="a_Node000029"><a xlink:href="_global_2_i_r_2_dialect_8h.html" target="_top" xlink:title=" ">
<polygon fill="#fff0f0" stroke="red" points="1234.62,-163.5 1139.12,-163.5 1139.12,-133 1234.62,-133 1234.62,-163.5"/>
<text text-anchor="start" x="1147.12" y="-150" font-family="Helvetica,sans-Serif" font-size="10.00">llzk/Dialect/Global</text>
<text text-anchor="middle" x="1186.88" y="-138.75" font-family="Helvetica,sans-Serif" font-size="10.00">/IR/Dialect.h</text>
</a>
</g>
</g>
<!-- Node28&#45;&gt;Node29 -->
<g id="edge32_Node000028_Node000029" class="edge">
<title>Node28&#45;&gt;Node29</title>
<g id="a_edge32_Node000028_Node000029"><a xlink:title=" ">
<path fill="none" stroke="#63b8ff" d="M1139.72,-199.11C1147.28,-191.11 1156.82,-181.03 1165.33,-172.03"/>
<polygon fill="#63b8ff" stroke="#63b8ff" points="1167.72,-174.6 1172.05,-164.93 1162.63,-169.79 1167.72,-174.6"/>
</a>
</g>
</g>
<!-- Node31 -->
<g id="Node000031" class="node">
<title>Node31</title>
<g id="a_Node000031"><a xlink:href="_symbol_lookup_8h.html" target="_top" xlink:title="This file defines methods symbol lookup across LLZK operations and included files.">
<polygon fill="#fff0f0" stroke="red" points="1377.25,-157.88 1252.5,-157.88 1252.5,-138.62 1377.25,-138.62 1377.25,-157.88"/>
<text text-anchor="middle" x="1314.88" y="-144.38" font-family="Helvetica,sans-Serif" font-size="10.00">llzk/Util/SymbolLookup.h</text>
</a>
</g>
</g>
<!-- Node28&#45;&gt;Node31 -->
<g id="edge34_Node000028_Node000031" class="edge">
<title>Node28&#45;&gt;Node31</title>
<g id="a_edge34_Node000028_Node000031"><a xlink:title=" ">
<path fill="none" stroke="#63b8ff" d="M1168.76,-199.11C1201.45,-187.96 1246.03,-172.75 1277.32,-162.07"/>
<polygon fill="#63b8ff" stroke="#63b8ff" points="1278.43,-165.39 1286.77,-158.84 1276.17,-158.76 1278.43,-165.39"/>
</a>
</g>
</g>
<!-- Node36 -->
<g id="Node000036" class="node">
<title>Node36</title>
<g id="a_Node000036"><a xlink:href="_global_2_i_r_2_ops_8h_8inc.html" target="_top" xlink:title=" ">
<polygon fill="white" stroke="#666666" points="990.62,-163.5 895.12,-163.5 895.12,-133 990.62,-133 990.62,-163.5"/>
<text text-anchor="start" x="903.12" y="-150" font-family="Helvetica,sans-Serif" font-size="10.00">llzk/Dialect/Global</text>
<text text-anchor="middle" x="942.88" y="-138.75" font-family="Helvetica,sans-Serif" font-size="10.00">/IR/Ops.h.inc</text>
</a>
</g>
</g>
<!-- Node28&#45;&gt;Node36 -->
<g id="edge37_Node000028_Node000036" class="edge">
<title>Node28&#45;&gt;Node36</title>
<g id="a_edge37_Node000028_Node000036"><a xlink:title=" ">
<path fill="none" stroke="#63b8ff" d="M1084.35,-199.11C1057.89,-189.79 1023.38,-177.62 995.07,-167.65"/>
<polygon fill="#63b8ff" stroke="#63b8ff" points="996.57,-164.47 985.98,-164.44 994.25,-171.07 996.57,-164.47"/>
</a>
</g>
</g>
<!-- Node37 -->
<g id="Node000037" class="node">
<title>Node37</title>
<g id="a_Node000037"><a xlink:href="_global_2_i_r_2_op_interfaces_8h_8inc.html" target="_top" xlink:title=" ">
<polygon fill="white" stroke="#666666" points="1121.25,-163.5 1008.5,-163.5 1008.5,-133 1121.25,-133 1121.25,-163.5"/>
<text text-anchor="start" x="1016.5" y="-150" font-family="Helvetica,sans-Serif" font-size="10.00">llzk/Dialect/Global</text>
<text text-anchor="middle" x="1064.88" y="-138.75" font-family="Helvetica,sans-Serif" font-size="10.00">/IR/OpInterfaces.h.inc</text>
</a>
</g>
</g>
<!-- Node28&#45;&gt;Node37 -->
<g id="edge38_Node000028_Node000037" class="edge">
<title>Node28&#45;&gt;Node37</title>
<g id="a_edge38_Node000028_Node000037"><a xlink:title=" ">
<path fill="none" stroke="#63b8ff" d="M1112.03,-199.11C1104.47,-191.11 1094.93,-181.03 1086.42,-172.03"/>
<polygon fill="#63b8ff" stroke="#63b8ff" points="1089.12,-169.79 1079.7,-164.93 1084.03,-174.6 1089.12,-169.79"/>
</a>
</g>
</g>
<!-- Node29&#45;&gt;Node4 -->
<g id="edge33_Node000029_Node000004" class="edge">
<title>Node29&#45;&gt;Node4</title>
<g id="a_edge33_Node000029_Node000004"><a xlink:title=" ">
<path fill="none" stroke="#63b8ff" d="M1138.96,-133.97C1092.16,-120.78 1027.45,-101.84 1023.88,-97 1015.82,-86.09 1015.27,-76.97 1023.88,-66.5 1047.68,-37.52 1148.35,-24.97 1215.58,-19.75"/>
<polygon fill="#63b8ff" stroke="#63b8ff" points="1215.66,-23.25 1225.38,-19.02 1215.15,-16.27 1215.66,-23.25"/>
</a>
</g>
</g>
<!-- Node31&#45;&gt;Node25 -->
<g id="edge35_Node000031_Node000025" class="edge">
<title>Node31&#45;&gt;Node25</title>
<g id="a_edge35_Node000031_Node000025"><a xlink:title=" ">
<path fill="none" stroke="#63b8ff" d="M1281.99,-138.15C1241.05,-126.81 1171,-107.42 1125.58,-94.85"/>
<polygon fill="#63b8ff" stroke="#63b8ff" points="1126.63,-91.51 1116.06,-92.21 1124.76,-98.25 1126.63,-91.51"/>
</a>
</g>
</g>
<!-- Node34 -->
<g id="Node000034" class="node">
<title>Node34</title>
<g id="a_Node000034"><a xlink:title=" ">
<polygon fill="#e0e0e0" stroke="#999999" points="1258.75,-91.38 1149,-91.38 1149,-72.12 1258.75,-72.12 1258.75,-91.38"/>
<text text-anchor="middle" x="1203.88" y="-77.88" font-family="Helvetica,sans-Serif" font-size="10.00">llvm/ADT/StringRef.h</text>
</a>
</g>
</g>
<!-- Node31&#45;&gt;Node34 -->
<g id="edge36_Node000031_Node000034" class="edge">
<title>Node31&#45;&gt;Node34</title>
<g id="a_edge36_Node000031_Node000034"><a xlink:title=" ">
<path fill="none" stroke="#63b8ff" d="M1299.44,-138.28C1281.32,-127.75 1250.99,-110.13 1229.36,-97.56"/>
<polygon fill="#63b8ff" stroke="#63b8ff" points="1231.25,-94.61 1220.84,-92.61 1227.73,-100.66 1231.25,-94.61"/>
</a>
</g>
</g>
<!-- Node39 -->
<g id="Node000039" class="node">
<title>Node39</title>
<g id="a_Node000039"><a xlink:href="_string_2_i_r_2_dialect_8h.html" target="_top" xlink:title=" ">
<polygon fill="#fff0f0" stroke="red" points="1861.5,-163.5 1768.25,-163.5 1768.25,-133 1861.5,-133 1861.5,-163.5"/>
<text text-anchor="start" x="1776.25" y="-150" font-family="Helvetica,sans-Serif" font-size="10.00">llzk/Dialect/String</text>
<text text-anchor="middle" x="1814.88" y="-138.75" font-family="Helvetica,sans-Serif" font-size="10.00">/IR/Dialect.h</text>
</a>
</g>
</g>
<!-- Node38&#45;&gt;Node39 -->
<g id="edge40_Node000038_Node000039" class="edge">
<title>Node38&#45;&gt;Node39</title>
<g id="a_edge40_Node000038_Node000039"><a xlink:title=" ">
<path fill="none" stroke="#63b8ff" d="M1842.71,-199.11C1838.52,-191.61 1833.3,-182.27 1828.53,-173.71"/>
<polygon fill="#63b8ff" stroke="#63b8ff" points="1831.68,-172.18 1823.75,-165.15 1825.57,-175.59 1831.68,-172.18"/>
</a>
</g>
</g>
<!-- Node41 -->
<g id="Node000041" class="node">
<title>Node41</title>
<g id="a_Node000041"><a xlink:href="_string_2_i_r_2_ops_8h_8inc.html" target="_top" xlink:title=" ">
<polygon fill="white" stroke="#666666" points="1972.5,-163.5 1879.25,-163.5 1879.25,-133 1972.5,-133 1972.5,-163.5"/>
<text text-anchor="start" x="1887.25" y="-150" font-family="Helvetica,sans-Serif" font-size="10.00">llzk/Dialect/String</text>
<text text-anchor="middle" x="1925.88" y="-138.75" font-family="Helvetica,sans-Serif" font-size="10.00">/IR/Ops.h.inc</text>
</a>
</g>
</g>
<!-- Node38&#45;&gt;Node41 -->
<g id="edge42_Node000038_Node000041" class="edge">
<title>Node38&#45;&gt;Node41</title>
<g id="a_edge42_Node000038_Node000041"><a xlink:title=" ">
<path fill="none" stroke="#63b8ff" d="M1867.89,-199.11C1877.48,-190.87 1889.65,-180.4 1900.36,-171.19"/>
<polygon fill="#63b8ff" stroke="#63b8ff" points="1902.48,-173.99 1907.78,-164.82 1897.91,-168.68 1902.48,-173.99"/>
</a>
</g>
</g>
<!-- Node42 -->
<g id="Node000042" class="node">
<title>Node42</title>
<g id="a_Node000042"><a xlink:href="_string_2_i_r_2_types_8h_8inc.html" target="_top" xlink:title=" ">
<polygon fill="white" stroke="#666666" points="2083.5,-163.5 1990.25,-163.5 1990.25,-133 2083.5,-133 2083.5,-163.5"/>
<text text-anchor="start" x="1998.25" y="-150" font-family="Helvetica,sans-Serif" font-size="10.00">llzk/Dialect/String</text>
<text text-anchor="middle" x="2036.88" y="-138.75" font-family="Helvetica,sans-Serif" font-size="10.00">/IR/Types.h.inc</text>
</a>
</g>
</g>
<!-- Node38&#45;&gt;Node42 -->
<g id="edge43_Node000038_Node000042" class="edge">
<title>Node38&#45;&gt;Node42</title>
<g id="a_edge43_Node000038_Node000042"><a xlink:title=" ">
<path fill="none" stroke="#63b8ff" d="M1893.08,-199.11C1919.98,-189.79 1955.05,-177.62 1983.83,-167.65"/>
<polygon fill="#63b8ff" stroke="#63b8ff" points="1984.78,-171.02 1993.08,-164.44 1982.49,-164.41 1984.78,-171.02"/>
</a>
</g>
</g>
<!-- Node39&#45;&gt;Node4 -->
<g id="edge41_Node000039_Node000004" class="edge">
<title>Node39&#45;&gt;Node4</title>
<g id="a_edge41_Node000039_Node000004"><a xlink:title=" ">
<path fill="none" stroke="#63b8ff" d="M1819.47,-132.54C1824.1,-114.46 1828.45,-84.04 1811.88,-66.5 1780.03,-32.79 1474.43,-21.12 1340.38,-17.6"/>
<polygon fill="#63b8ff" stroke="#63b8ff" points="1340.71,-14.1 1330.62,-17.35 1340.53,-21.1 1340.71,-14.1"/>
</a>
</g>
</g>
<!-- Node44 -->
<g id="Node000044" class="node">
<title>Node44</title>
<g id="a_Node000044"><a xlink:title=" ">
<polygon fill="#e0e0e0" stroke="#999999" points="2413.75,-157.88 2322,-157.88 2322,-138.62 2413.75,-138.62 2413.75,-157.88"/>
<text text-anchor="middle" x="2367.88" y="-144.38" font-family="Helvetica,sans-Serif" font-size="10.00">mlir/IR/Builders.h</text>
</a>
</g>
</g>
<!-- Node43&#45;&gt;Node44 -->
<g id="edge45_Node000043_Node000044" class="edge">
<title>Node43&#45;&gt;Node44</title>
<g id="a_edge45_Node000043_Node000044"><a xlink:title=" ">
<path fill="none" stroke="#63b8ff" d="M2054.52,-204.66C2063.21,-202.87 2072.33,-201.06 2080.88,-199.5 2183.53,-180.79 2210.69,-184.61 2312.88,-163.5 2316.5,-162.75 2320.24,-161.92 2323.99,-161.04"/>
<polygon fill="#63b8ff" stroke="#63b8ff" points="2324.79,-164.44 2333.67,-158.66 2323.12,-157.65 2324.79,-164.44"/>
</a>
</g>
</g>
<!-- Node45 -->
<g id="Node000045" class="node">
<title>Node45</title>
<g id="a_Node000045"><a xlink:title=" ">
<polygon fill="#e0e0e0" stroke="#999999" points="2303.5,-157.88 2210.25,-157.88 2210.25,-138.62 2303.5,-138.62 2303.5,-157.88"/>
<text text-anchor="middle" x="2256.88" y="-144.38" font-family="Helvetica,sans-Serif" font-size="10.00">mlir/IR/Location.h</text>
</a>
</g>
</g>
<!-- Node43&#45;&gt;Node45 -->
<g id="edge46_Node000043_Node000045" class="edge">
<title>Node43&#45;&gt;Node45</title>
<g id="a_edge46_Node000043_Node000045"><a xlink:title=" ">
<path fill="none" stroke="#63b8ff" d="M2047.32,-204.65C2090.37,-193.27 2164.17,-173.76 2211.71,-161.19"/>
<polygon fill="#63b8ff" stroke="#63b8ff" points="2212.37,-164.63 2221.15,-158.69 2210.58,-157.87 2212.37,-164.63"/>
</a>
</g>
</g>
<!-- Node46&#45;&gt;Node31 -->
<g id="edge48_Node000046_Node000031" class="edge">
<title>Node46&#45;&gt;Node31</title>
<g id="a_edge48_Node000046_Node000031"><a xlink:title=" ">
<path fill="none" stroke="#63b8ff" d="M1638.66,-204.65C1570.55,-192.99 1452.65,-172.82 1379.47,-160.3"/>
<polygon fill="#63b8ff" stroke="#63b8ff" points="1380.06,-156.85 1369.62,-158.62 1378.88,-163.75 1380.06,-156.85"/>
</a>
</g>
</g>
<!-- Node47 -->
<g id="Node000047" class="node">
<title>Node47</title>
<g id="a_Node000047"><a xlink:title=" ">
<polygon fill="#e0e0e0" stroke="#999999" points="1687,-157.88 1536.75,-157.88 1536.75,-138.62 1687,-138.62 1687,-157.88"/>
<text text-anchor="middle" x="1611.88" y="-144.38" font-family="Helvetica,sans-Serif" font-size="10.00">mlir/Interfaces/CallInterfaces.h</text>
</a>
</g>
</g>
<!-- Node46&#45;&gt;Node47 -->
<g id="edge49_Node000046_Node000047" class="edge">
<title>Node46&#45;&gt;Node47</title>
<g id="a_edge49_Node000046_Node000047"><a xlink:title=" ">
<path fill="none" stroke="#63b8ff" d="M1680.75,-204.78C1668.17,-194.63 1647.41,-177.9 1631.97,-165.45"/>
<polygon fill="#63b8ff" stroke="#63b8ff" points="1634.32,-162.85 1624.34,-159.3 1629.93,-168.3 1634.32,-162.85"/>
</a>
</g>
</g>
<!-- Node48 -->
<g id="Node000048" class="node">
<title>Node48</title>
<g id="a_Node000048"><a xlink:title=" ">
<polygon fill="#e0e0e0" stroke="#999999" points="1750.5,-157.88 1705.25,-157.88 1705.25,-138.62 1750.5,-138.62 1750.5,-157.88"/>
<text text-anchor="middle" x="1727.88" y="-144.38" font-family="Helvetica,sans-Serif" font-size="10.00">ranges</text>
</a>
</g>
</g>
<!-- Node46&#45;&gt;Node48 -->
<g id="edge50_Node000046_Node000048" class="edge">
<title>Node46&#45;&gt;Node48</title>
<g id="a_edge50_Node000046_Node000048"><a xlink:title=" ">
<path fill="none" stroke="#63b8ff" d="M1696.88,-204.78C1702.15,-195.35 1710.59,-180.22 1717.33,-168.13"/>
<polygon fill="#63b8ff" stroke="#63b8ff" points="1720.36,-169.9 1722.17,-159.46 1714.24,-166.49 1720.36,-169.9"/>
</a>
</g>
</g>
<!-- Node49&#45;&gt;Node6 -->
<g id="edge52_Node000049_Node000006" class="edge">
<title>Node49&#45;&gt;Node6</title>
<g id="a_edge52_Node000049_Node000006"><a xlink:title=" ">
<path fill="none" stroke="#63b8ff" d="M1502,-138.15C1510.49,-136.3 1519.46,-134.47 1527.88,-133 1653.22,-111.15 1685.76,-113.8 1811.88,-97 1823.49,-95.45 1835.85,-93.76 1847.8,-92.11"/>
<polygon fill="#63b8ff" stroke="#63b8ff" points="1848.18,-95.59 1857.61,-90.74 1847.22,-88.65 1848.18,-95.59"/>
</a>
</g>
</g>
<!-- Node49&#45;&gt;Node25 -->
<g id="edge54_Node000049_Node000025" class="edge">
<title>Node49&#45;&gt;Node25</title>
<g id="a_edge54_Node000049_Node000025"><a xlink:title=" ">
<path fill="none" stroke="#63b8ff" d="M1415.66,-138.17C1405.81,-136.39 1395.52,-134.59 1385.88,-133 1276.84,-115.07 1248.32,-118.21 1139.88,-97 1135.82,-96.21 1131.62,-95.32 1127.43,-94.38"/>
<polygon fill="#63b8ff" stroke="#63b8ff" points="1128.42,-91.01 1117.89,-92.15 1126.83,-97.83 1128.42,-91.01"/>
</a>
</g>
</g>
<!-- Node49&#45;&gt;Node34 -->
<g id="edge58_Node000049_Node000034" class="edge">
<title>Node49&#45;&gt;Node34</title>
<g id="a_edge58_Node000049_Node000034"><a xlink:title=" ">
<path fill="none" stroke="#63b8ff" d="M1427.17,-138.15C1381.11,-126.72 1302,-107.09 1251.36,-94.53"/>
<polygon fill="#63b8ff" stroke="#63b8ff" points="1252.41,-91.18 1241.86,-92.17 1250.72,-97.98 1252.41,-91.18"/>
</a>
</g>
</g>
<!-- Node50 -->
<g id="Node000050" class="node">
<title>Node50</title>
<g id="a_Node000050"><a xlink:title=" ">
<polygon fill="#e0e0e0" stroke="#999999" points="1546.88,-91.38 1410.88,-91.38 1410.88,-72.12 1546.88,-72.12 1546.88,-91.38"/>
<text text-anchor="middle" x="1478.88" y="-77.88" font-family="Helvetica,sans-Serif" font-size="10.00">mlir/IR/OpImplementation.h</text>
</a>
</g>
</g>
<!-- Node49&#45;&gt;Node50 -->
<g id="edge53_Node000049_Node000050" class="edge">
<title>Node49&#45;&gt;Node50</title>
<g id="a_edge53_Node000049_Node000050"><a xlink:title=" ">
<path fill="none" stroke="#63b8ff" d="M1465.96,-138.28C1468.09,-129.14 1471.46,-114.64 1474.22,-102.75"/>
<polygon fill="#63b8ff" stroke="#63b8ff" points="1477.61,-103.65 1476.46,-93.12 1470.79,-102.06 1477.61,-103.65"/>
</a>
</g>
</g>
<!-- Node51 -->
<g id="Node000051" class="node">
<title>Node51</title>
<g id="a_Node000051"><a xlink:title=" ">
<polygon fill="#e0e0e0" stroke="#999999" points="1677.25,-91.38 1564.5,-91.38 1564.5,-72.12 1677.25,-72.12 1677.25,-91.38"/>
<text text-anchor="middle" x="1620.88" y="-77.88" font-family="Helvetica,sans-Serif" font-size="10.00">mlir/IR/SymbolTable.h</text>
</a>
</g>
</g>
<!-- Node49&#45;&gt;Node51 -->
<g id="edge55_Node000049_Node000051" class="edge">
<title>Node49&#45;&gt;Node51</title>
<g id="a_edge55_Node000049_Node000051"><a xlink:title=" ">
<path fill="none" stroke="#63b8ff" d="M1486.04,-138.15C1512.69,-127.2 1557.64,-108.73 1588.26,-96.15"/>
<polygon fill="#63b8ff" stroke="#63b8ff" points="1589.51,-99.42 1597.43,-92.38 1586.85,-92.95 1589.51,-99.42"/>
</a>
</g>
</g>
<!-- Node52 -->
<g id="Node000052" class="node">
<title>Node52</title>
<g id="a_Node000052"><a xlink:title=" ">
<polygon fill="#e0e0e0" stroke="#999999" points="1802.62,-91.38 1695.12,-91.38 1695.12,-72.12 1802.62,-72.12 1802.62,-91.38"/>
<text text-anchor="middle" x="1748.88" y="-77.88" font-family="Helvetica,sans-Serif" font-size="10.00">llvm/ADT/ArrayRef.h</text>
</a>
</g>
</g>
<!-- Node49&#45;&gt;Node52 -->
<g id="edge56_Node000049_Node000052" class="edge">
<title>Node49&#45;&gt;Node52</title>
<g id="a_edge56_Node000049_Node000052"><a xlink:title=" ">
<path fill="none" stroke="#63b8ff" d="M1504.1,-138.15C1554.92,-126.65 1642.41,-106.84 1697.87,-94.29"/>
<polygon fill="#63b8ff" stroke="#63b8ff" points="1698.39,-97.76 1707.37,-92.14 1696.85,-90.94 1698.39,-97.76"/>
</a>
</g>
</g>
<!-- Node53 -->
<g id="Node000053" class="node">
<title>Node53</title>
<g id="a_Node000053"><a xlink:title=" ">
<polygon fill="#e0e0e0" stroke="#999999" points="1392.75,-91.38 1277,-91.38 1277,-72.12 1392.75,-72.12 1392.75,-91.38"/>
<text text-anchor="middle" x="1334.88" y="-77.88" font-family="Helvetica,sans-Serif" font-size="10.00">llvm/ADT/DenseMap.h</text>
</a>
</g>
</g>
<!-- Node49&#45;&gt;Node53 -->
<g id="edge57_Node000049_Node000053" class="edge">
<title>Node49&#45;&gt;Node53</title>
<g id="a_edge57_Node000049_Node000053"><a xlink:title=" ">
<path fill="none" stroke="#63b8ff" d="M1445.67,-138.15C1424.15,-127.39 1388.12,-109.37 1363.01,-96.82"/>
<polygon fill="#63b8ff" stroke="#63b8ff" points="1364.85,-93.83 1354.35,-92.49 1361.72,-100.09 1364.85,-93.83"/>
</a>
</g>
</g>
</g>
</svg>
