<?xml version="1.0" encoding="UTF-8" standalone="no"?>
<!DOCTYPE svg PUBLIC "-//W3C//DTD SVG 1.1//EN"
 "http://www.w3.org/Graphics/SVG/1.1/DTD/svg11.dtd">
<!-- Generated by graphviz version 12.2.1 (20241206.2353)
 -->
<!-- Title: include/llzk/Dialect/Include/Util/IncludeHelper.h Pages: 1 -->
<svg width="929pt" height="94pt"
 viewBox="0.00 0.00 929.00 93.75" xmlns="http://www.w3.org/2000/svg" xmlns:xlink="http://www.w3.org/1999/xlink">
<g id="graph0" class="graph" transform="scale(1 1) rotate(0) translate(4 89.75)">
<title>include/llzk/Dialect/Include/Util/IncludeHelper.h</title>
<!-- Node1 -->
<g id="Node000001" class="node">
<title>Node1</title>
<g id="a_Node000001"><a xlink:title=" ">
<polygon fill="#999999" stroke="#666666" points="517.25,-85.75 378.25,-85.75 378.25,-55.25 517.25,-55.25 517.25,-85.75"/>
<text text-anchor="start" x="386.25" y="-72.25" font-family="Helvetica,sans-Serif" font-size="10.00">include/llzk/Dialect</text>
<text text-anchor="middle" x="447.75" y="-61" font-family="Helvetica,sans-Serif" font-size="10.00">/Include/Util/IncludeHelper.h</text>
</a>
</g>
</g>
<!-- Node2 -->
<g id="Node000002" class="node">
<title>Node2</title>
<g id="a_Node000002"><a xlink:title=" ">
<polygon fill="#e0e0e0" stroke="#999999" points="101.5,-19.25 0,-19.25 0,0 101.5,0 101.5,-19.25"/>
<text text-anchor="middle" x="50.75" y="-5.75" font-family="Helvetica,sans-Serif" font-size="10.00">mlir/IR/BuiltinOps.h</text>
</a>
</g>
</g>
<!-- Node1&#45;&gt;Node2 -->
<g id="edge1_Node000001_Node000002" class="edge">
<title>Node1&#45;&gt;Node2</title>
<g id="a_edge1_Node000001_Node000002"><a xlink:title=" ">
<path fill="none" stroke="#63b8ff" d="M378.14,-59.18C303.21,-48.06 185.1,-30.55 113.1,-19.87"/>
<polygon fill="#63b8ff" stroke="#63b8ff" points="113.86,-16.45 103.45,-18.44 112.83,-23.37 113.86,-16.45"/>
</a>
</g>
</g>
<!-- Node3 -->
<g id="Node000003" class="node">
<title>Node3</title>
<g id="a_Node000003"><a xlink:title=" ">
<polygon fill="#e0e0e0" stroke="#999999" points="237.75,-19.25 119.75,-19.25 119.75,0 237.75,0 237.75,-19.25"/>
<text text-anchor="middle" x="178.75" y="-5.75" font-family="Helvetica,sans-Serif" font-size="10.00">mlir/IR/OwningOpRef.h</text>
</a>
</g>
</g>
<!-- Node1&#45;&gt;Node3 -->
<g id="edge2_Node000001_Node000003" class="edge">
<title>Node1&#45;&gt;Node3</title>
<g id="a_edge2_Node000001_Node000003"><a xlink:title=" ">
<path fill="none" stroke="#63b8ff" d="M380.56,-54.8C334.42,-44.7 274.04,-31.48 231.39,-22.15"/>
<polygon fill="#63b8ff" stroke="#63b8ff" points="232.4,-18.78 221.88,-20.06 230.9,-25.62 232.4,-18.78"/>
</a>
</g>
</g>
<!-- Node4 -->
<g id="Node000004" class="node">
<title>Node4</title>
<g id="a_Node000004"><a xlink:title=" ">
<polygon fill="#e0e0e0" stroke="#999999" points="360,-19.25 255.5,-19.25 255.5,0 360,0 360,-19.25"/>
<text text-anchor="middle" x="307.75" y="-5.75" font-family="Helvetica,sans-Serif" font-size="10.00">mlir/Support/LLVM.h</text>
</a>
</g>
</g>
<!-- Node1&#45;&gt;Node4 -->
<g id="edge3_Node000001_Node000004" class="edge">
<title>Node1&#45;&gt;Node4</title>
<g id="a_edge3_Node000001_Node000004"><a xlink:title=" ">
<path fill="none" stroke="#63b8ff" d="M412.78,-54.8C390.34,-45.35 361.41,-33.19 339.6,-24.02"/>
<polygon fill="#63b8ff" stroke="#63b8ff" points="341.19,-20.89 330.62,-20.24 338.48,-27.34 341.19,-20.89"/>
</a>
</g>
</g>
<!-- Node5 -->
<g id="Node000005" class="node">
<title>Node5</title>
<g id="a_Node000005"><a xlink:title=" ">
<polygon fill="#e0e0e0" stroke="#999999" points="517.25,-19.25 378.25,-19.25 378.25,0 517.25,0 517.25,-19.25"/>
<text text-anchor="middle" x="447.75" y="-5.75" font-family="Helvetica,sans-Serif" font-size="10.00">mlir/Support/LogicalResult.h</text>
</a>
</g>
</g>
<!-- Node1&#45;&gt;Node5 -->
<g id="edge4_Node000001_Node000005" class="edge">
<title>Node1&#45;&gt;Node5</title>
<g id="a_edge4_Node000001_Node000005"><a xlink:title=" ">
<path fill="none" stroke="#63b8ff" d="M447.75,-54.95C447.75,-47.71 447.75,-38.84 447.75,-30.94"/>
<polygon fill="#63b8ff" stroke="#63b8ff" points="451.25,-31.21 447.75,-21.21 444.25,-31.21 451.25,-31.21"/>
</a>
</g>
</g>
<!-- Node6 -->
<g id="Node000006" class="node">
<title>Node6</title>
<g id="a_Node000006"><a xlink:title=" ">
<polygon fill="#e0e0e0" stroke="#999999" points="654.12,-19.25 535.38,-19.25 535.38,0 654.12,0 654.12,-19.25"/>
<text text-anchor="middle" x="594.75" y="-5.75" font-family="Helvetica,sans-Serif" font-size="10.00">llvm/ADT/SmallString.h</text>
</a>
</g>
</g>
<!-- Node1&#45;&gt;Node6 -->
<g id="edge5_Node000001_Node000006" class="edge">
<title>Node1&#45;&gt;Node6</title>
<g id="a_edge5_Node000001_Node000006"><a xlink:title=" ">
<path fill="none" stroke="#63b8ff" d="M484.47,-54.8C508.14,-45.31 538.68,-33.08 561.62,-23.89"/>
<polygon fill="#63b8ff" stroke="#63b8ff" points="562.82,-27.18 570.8,-20.22 560.22,-20.69 562.82,-27.18"/>
</a>
</g>
</g>
<!-- Node7 -->
<g id="Node000007" class="node">
<title>Node7</title>
<g id="a_Node000007"><a xlink:title=" ">
<polygon fill="#e0e0e0" stroke="#999999" points="774.88,-19.25 672.62,-19.25 672.62,0 774.88,0 774.88,-19.25"/>
<text text-anchor="middle" x="723.75" y="-5.75" font-family="Helvetica,sans-Serif" font-size="10.00">llvm/Support/Path.h</text>
</a>
</g>
</g>
<!-- Node1&#45;&gt;Node7 -->
<g id="edge6_Node000001_Node000007" class="edge">
<title>Node1&#45;&gt;Node7</title>
<g id="a_edge6_Node000001_Node000007"><a xlink:title=" ">
<path fill="none" stroke="#63b8ff" d="M516.68,-54.8C564.13,-44.68 626.24,-31.42 670.02,-22.09"/>
<polygon fill="#63b8ff" stroke="#63b8ff" points="670.49,-25.57 679.54,-20.06 669.03,-18.72 670.49,-25.57"/>
</a>
</g>
</g>
<!-- Node8 -->
<g id="Node000008" class="node">
<title>Node8</title>
<g id="a_Node000008"><a xlink:title=" ">
<polygon fill="#e0e0e0" stroke="#999999" points="921,-19.25 792.5,-19.25 792.5,0 921,0 921,-19.25"/>
<text text-anchor="middle" x="856.75" y="-5.75" font-family="Helvetica,sans-Serif" font-size="10.00">llvm/Support/SourceMgr.h</text>
</a>
</g>
</g>
<!-- Node1&#45;&gt;Node8 -->
<g id="edge7_Node000001_Node000008" class="edge">
<title>Node1&#45;&gt;Node8</title>
<g id="a_edge7_Node000001_Node000008"><a xlink:title=" ">
<path fill="none" stroke="#63b8ff" d="M517.59,-59.45C591.27,-48.84 706.92,-32.19 782.3,-21.34"/>
<polygon fill="#63b8ff" stroke="#63b8ff" points="782.68,-24.82 792.08,-19.93 781.68,-17.9 782.68,-24.82"/>
</a>
</g>
</g>
</g>
</svg>
