<?xml version="1.0" encoding="UTF-8" standalone="no"?>
<!DOCTYPE svg PUBLIC "-//W3C//DTD SVG 1.1//EN"
 "http://www.w3.org/Graphics/SVG/1.1/DTD/svg11.dtd">
<!-- Generated by graphviz version 12.2.1 (20241206.2353)
 -->
<!-- Title: lib/Dialect/Include/Util/IncludeHelper.cpp Pages: 1 -->
<svg width="2315pt" height="238pt"
 viewBox="0.00 0.00 2314.62 238.00" xmlns="http://www.w3.org/2000/svg" xmlns:xlink="http://www.w3.org/1999/xlink">
<g id="graph0" class="graph" transform="scale(1 1) rotate(0) translate(4 234)">
<title>lib/Dialect/Include/Util/IncludeHelper.cpp</title>
<!-- Node1 -->
<g id="Node000001" class="node">
<title>Node1</title>
<g id="a_Node000001"><a xlink:title="This file contains the implementation for file include helpers.">
<polygon fill="#999999" stroke="#666666" points="1431.12,-230 1316.12,-230 1316.12,-199.5 1431.12,-199.5 1431.12,-230"/>
<text text-anchor="start" x="1324.12" y="-216.5" font-family="Helvetica,sans-Serif" font-size="10.00">lib/Dialect/Include</text>
<text text-anchor="middle" x="1373.62" y="-205.25" font-family="Helvetica,sans-Serif" font-size="10.00">/Util/IncludeHelper.cpp</text>
</a>
</g>
</g>
<!-- Node2 -->
<g id="Node000002" class="node">
<title>Node2</title>
<g id="a_Node000002"><a xlink:href="_include_2_i_r_2_ops_8h.html" target="_top" xlink:title=" ">
<polygon fill="white" stroke="#666666" points="216.25,-163.5 117,-163.5 117,-133 216.25,-133 216.25,-163.5"/>
<text text-anchor="start" x="125" y="-150" font-family="Helvetica,sans-Serif" font-size="10.00">llzk/Dialect/Include</text>
<text text-anchor="middle" x="166.62" y="-138.75" font-family="Helvetica,sans-Serif" font-size="10.00">/IR/Ops.h</text>
</a>
</g>
</g>
<!-- Node1&#45;&gt;Node2 -->
<g id="edge1_Node000001_Node000002" class="edge">
<title>Node1&#45;&gt;Node2</title>
<g id="a_edge1_Node000001_Node000002"><a xlink:title=" ">
<path fill="none" stroke="#63b8ff" d="M1315.82,-210.66C1113.1,-199.83 435.57,-163.62 227.76,-152.52"/>
<polygon fill="#63b8ff" stroke="#63b8ff" points="228.16,-149.03 217.99,-151.99 227.79,-156.02 228.16,-149.03"/>
</a>
</g>
</g>
<!-- Node7 -->
<g id="Node000007" class="node">
<title>Node7</title>
<g id="a_Node000007"><a xlink:href="_include_helper_8h.html" target="_top" xlink:title=" ">
<polygon fill="white" stroke="#666666" points="631.88,-163.5 527.38,-163.5 527.38,-133 631.88,-133 631.88,-163.5"/>
<text text-anchor="start" x="535.38" y="-150" font-family="Helvetica,sans-Serif" font-size="10.00">llzk/Dialect/Include</text>
<text text-anchor="middle" x="579.62" y="-138.75" font-family="Helvetica,sans-Serif" font-size="10.00">/Util/IncludeHelper.h</text>
</a>
</g>
</g>
<!-- Node1&#45;&gt;Node7 -->
<g id="edge6_Node000001_Node000007" class="edge">
<title>Node1&#45;&gt;Node7</title>
<g id="a_edge6_Node000001_Node000007"><a xlink:title=" ">
<path fill="none" stroke="#63b8ff" d="M1315.88,-209.06C1171.28,-197.31 794.43,-166.7 643.5,-154.44"/>
<polygon fill="#63b8ff" stroke="#63b8ff" points="643.93,-150.96 633.68,-153.64 643.36,-157.94 643.93,-150.96"/>
</a>
</g>
</g>
<!-- Node8 -->
<g id="Node000008" class="node">
<title>Node8</title>
<g id="a_Node000008"><a xlink:title=" ">
<polygon fill="#e0e0e0" stroke="#999999" points="1062.62,-24.88 944.62,-24.88 944.62,-5.63 1062.62,-5.63 1062.62,-24.88"/>
<text text-anchor="middle" x="1003.62" y="-11.38" font-family="Helvetica,sans-Serif" font-size="10.00">mlir/IR/OwningOpRef.h</text>
</a>
</g>
</g>
<!-- Node1&#45;&gt;Node8 -->
<g id="edge30_Node000001_Node000008" class="edge">
<title>Node1&#45;&gt;Node8</title>
<g id="a_edge30_Node000001_Node000008"><a xlink:title=" ">
<path fill="none" stroke="#63b8ff" d="M1315.64,-211.61C1233.51,-207.46 1088.77,-195.68 1048.62,-163.5 1009.77,-132.36 1003.64,-68.57 1003.18,-36.14"/>
<polygon fill="#63b8ff" stroke="#63b8ff" points="1006.67,-36.56 1003.22,-26.54 999.67,-36.53 1006.67,-36.56"/>
</a>
</g>
</g>
<!-- Node10 -->
<g id="Node000010" class="node">
<title>Node10</title>
<g id="a_Node000010"><a xlink:title=" ">
<polygon fill="#e0e0e0" stroke="#999999" points="829.12,-91.38 690.12,-91.38 690.12,-72.12 829.12,-72.12 829.12,-91.38"/>
<text text-anchor="middle" x="759.62" y="-77.88" font-family="Helvetica,sans-Serif" font-size="10.00">mlir/Support/LogicalResult.h</text>
</a>
</g>
</g>
<!-- Node1&#45;&gt;Node10 -->
<g id="edge33_Node000001_Node000010" class="edge">
<title>Node1&#45;&gt;Node10</title>
<g id="a_edge33_Node000001_Node000010"><a xlink:title=" ">
<path fill="none" stroke="#63b8ff" d="M1315.65,-212.24C1232.57,-208.89 1075.48,-198.11 946.62,-163.5 886.89,-147.46 821.49,-115.64 786.05,-97.1"/>
<polygon fill="#63b8ff" stroke="#63b8ff" points="787.86,-94.1 777.39,-92.51 784.59,-100.28 787.86,-94.1"/>
</a>
</g>
</g>
<!-- Node13 -->
<g id="Node000013" class="node">
<title>Node13</title>
<g id="a_Node000013"><a xlink:title=" ">
<polygon fill="#e0e0e0" stroke="#999999" points="975.88,-91.38 847.38,-91.38 847.38,-72.12 975.88,-72.12 975.88,-91.38"/>
<text text-anchor="middle" x="911.62" y="-77.88" font-family="Helvetica,sans-Serif" font-size="10.00">llvm/Support/SourceMgr.h</text>
</a>
</g>
</g>
<!-- Node1&#45;&gt;Node13 -->
<g id="edge36_Node000001_Node000013" class="edge">
<title>Node1&#45;&gt;Node13</title>
<g id="a_edge36_Node000001_Node000013"><a xlink:title=" ">
<path fill="none" stroke="#63b8ff" d="M1315.72,-210.84C1222.88,-205.4 1045.47,-191.62 989.62,-163.5 961.13,-149.15 937.18,-120.14 923.62,-101.08"/>
<polygon fill="#63b8ff" stroke="#63b8ff" points="926.58,-99.2 918.05,-92.92 920.8,-103.15 926.58,-99.2"/>
</a>
</g>
</g>
<!-- Node14 -->
<g id="Node000014" class="node">
<title>Node14</title>
<g id="a_Node000014"><a xlink:href="_error_helper_8h.html" target="_top" xlink:title=" ">
<polygon fill="white" stroke="#666666" points="1166.12,-157.88 1057.12,-157.88 1057.12,-138.62 1166.12,-138.62 1166.12,-157.88"/>
<text text-anchor="middle" x="1111.62" y="-144.38" font-family="Helvetica,sans-Serif" font-size="10.00">llzk/Util/ErrorHelper.h</text>
</a>
</g>
</g>
<!-- Node1&#45;&gt;Node14 -->
<g id="edge14_Node000001_Node000014" class="edge">
<title>Node1&#45;&gt;Node14</title>
<g id="a_edge14_Node000001_Node000014"><a xlink:title=" ">
<path fill="none" stroke="#63b8ff" d="M1315.8,-199.52C1268.81,-187.95 1203.31,-171.82 1159.29,-160.98"/>
<polygon fill="#63b8ff" stroke="#63b8ff" points="1160.32,-157.63 1149.78,-158.64 1158.65,-164.43 1160.32,-157.63"/>
</a>
</g>
</g>
<!-- Node18 -->
<g id="Node000018" class="node">
<title>Node18</title>
<g id="a_Node000018"><a xlink:href="_symbol_helper_8h.html" target="_top" xlink:title=" ">
<polygon fill="white" stroke="#666666" points="1305.12,-157.88 1184.12,-157.88 1184.12,-138.62 1305.12,-138.62 1305.12,-157.88"/>
<text text-anchor="middle" x="1244.62" y="-144.38" font-family="Helvetica,sans-Serif" font-size="10.00">llzk/Util/SymbolHelper.h</text>
</a>
</g>
</g>
<!-- Node1&#45;&gt;Node18 -->
<g id="edge18_Node000001_Node000018" class="edge">
<title>Node1&#45;&gt;Node18</title>
<g id="a_edge18_Node000001_Node000018"><a xlink:title=" ">
<path fill="none" stroke="#63b8ff" d="M1344.35,-199.11C1322.96,-188.42 1294.1,-173.99 1272.93,-163.4"/>
<polygon fill="#63b8ff" stroke="#63b8ff" points="1274.51,-160.28 1264,-158.94 1271.38,-166.54 1274.51,-160.28"/>
</a>
</g>
</g>
<!-- Node26 -->
<g id="Node000026" class="node">
<title>Node26</title>
<g id="a_Node000026"><a xlink:title=" ">
<polygon fill="#e0e0e0" stroke="#999999" points="1423.62,-157.88 1323.62,-157.88 1323.62,-138.62 1423.62,-138.62 1423.62,-157.88"/>
<text text-anchor="middle" x="1373.62" y="-144.38" font-family="Helvetica,sans-Serif" font-size="10.00">mlir/IR/AsmState.h</text>
</a>
</g>
</g>
<!-- Node1&#45;&gt;Node26 -->
<g id="edge27_Node000001_Node000026" class="edge">
<title>Node1&#45;&gt;Node26</title>
<g id="a_edge27_Node000001_Node000026"><a xlink:title=" ">
<path fill="none" stroke="#63b8ff" d="M1373.62,-199.11C1373.62,-190.33 1373.62,-179.02 1373.62,-169.4"/>
<polygon fill="#63b8ff" stroke="#63b8ff" points="1377.13,-169.59 1373.63,-159.59 1370.13,-169.59 1377.13,-169.59"/>
</a>
</g>
</g>
<!-- Node27 -->
<g id="Node000027" class="node">
<title>Node27</title>
<g id="a_Node000027"><a xlink:title=" ">
<polygon fill="#e0e0e0" stroke="#999999" points="1549.75,-157.88 1441.5,-157.88 1441.5,-138.62 1549.75,-138.62 1549.75,-157.88"/>
<text text-anchor="middle" x="1495.62" y="-144.38" font-family="Helvetica,sans-Serif" font-size="10.00">mlir/IR/Diagnostics.h</text>
</a>
</g>
</g>
<!-- Node1&#45;&gt;Node27 -->
<g id="edge28_Node000001_Node000027" class="edge">
<title>Node1&#45;&gt;Node27</title>
<g id="a_edge28_Node000001_Node000027"><a xlink:title=" ">
<path fill="none" stroke="#63b8ff" d="M1401.31,-199.11C1421.45,-188.46 1448.58,-174.12 1468.58,-163.55"/>
<polygon fill="#63b8ff" stroke="#63b8ff" points="1470.04,-166.74 1477.25,-158.97 1466.77,-160.55 1470.04,-166.74"/>
</a>
</g>
</g>
<!-- Node28 -->
<g id="Node000028" class="node">
<title>Node28</title>
<g id="a_Node000028"><a xlink:title=" ">
<polygon fill="#e0e0e0" stroke="#999999" points="1683.12,-157.88 1568.12,-157.88 1568.12,-138.62 1683.12,-138.62 1683.12,-157.88"/>
<text text-anchor="middle" x="1625.62" y="-144.38" font-family="Helvetica,sans-Serif" font-size="10.00">mlir/IR/MLIRContext.h</text>
</a>
</g>
</g>
<!-- Node1&#45;&gt;Node28 -->
<g id="edge29_Node000001_Node000028" class="edge">
<title>Node1&#45;&gt;Node28</title>
<g id="a_edge29_Node000001_Node000028"><a xlink:title=" ">
<path fill="none" stroke="#63b8ff" d="M1431.12,-199.03C1475.97,-187.56 1537.44,-171.82 1579.19,-161.14"/>
<polygon fill="#63b8ff" stroke="#63b8ff" points="1579.86,-164.58 1588.68,-158.71 1578.13,-157.79 1579.86,-164.58"/>
</a>
</g>
</g>
<!-- Node29 -->
<g id="Node000029" class="node">
<title>Node29</title>
<g id="a_Node000029"><a xlink:title=" ">
<polygon fill="#e0e0e0" stroke="#999999" points="1816.12,-157.88 1701.12,-157.88 1701.12,-138.62 1816.12,-138.62 1816.12,-157.88"/>
<text text-anchor="middle" x="1758.62" y="-144.38" font-family="Helvetica,sans-Serif" font-size="10.00">mlir/IR/PatternMatch.h</text>
</a>
</g>
</g>
<!-- Node1&#45;&gt;Node29 -->
<g id="edge31_Node000001_Node000029" class="edge">
<title>Node1&#45;&gt;Node29</title>
<g id="a_edge31_Node000001_Node000029"><a xlink:title=" ">
<path fill="none" stroke="#63b8ff" d="M1431.42,-205.65C1495.45,-196.44 1601.69,-180.47 1692.62,-163.5 1697.29,-162.63 1702.13,-161.68 1706.98,-160.69"/>
<polygon fill="#63b8ff" stroke="#63b8ff" points="1707.65,-164.13 1716.73,-158.66 1706.22,-157.27 1707.65,-164.13"/>
</a>
</g>
</g>
<!-- Node30 -->
<g id="Node000030" class="node">
<title>Node30</title>
<g id="a_Node000030"><a xlink:title=" ">
<polygon fill="#e0e0e0" stroke="#999999" points="1936.75,-157.88 1834.5,-157.88 1834.5,-138.62 1936.75,-138.62 1936.75,-157.88"/>
<text text-anchor="middle" x="1885.62" y="-144.38" font-family="Helvetica,sans-Serif" font-size="10.00">mlir/Parser/Parser.h</text>
</a>
</g>
</g>
<!-- Node1&#45;&gt;Node30 -->
<g id="edge32_Node000001_Node000030" class="edge">
<title>Node1&#45;&gt;Node30</title>
<g id="a_edge32_Node000001_Node000030"><a xlink:title=" ">
<path fill="none" stroke="#63b8ff" d="M1431.38,-209.61C1517.64,-202.91 1685.02,-187.92 1825.62,-163.5 1830.19,-162.71 1834.93,-161.77 1839.66,-160.77"/>
<polygon fill="#63b8ff" stroke="#63b8ff" points="1840.08,-164.26 1849.08,-158.67 1838.56,-157.43 1840.08,-164.26"/>
</a>
</g>
</g>
<!-- Node31 -->
<g id="Node000031" class="node">
<title>Node31</title>
<g id="a_Node000031"><a xlink:title=" ">
<polygon fill="#e0e0e0" stroke="#999999" points="2070.5,-157.88 1954.75,-157.88 1954.75,-138.62 2070.5,-138.62 2070.5,-157.88"/>
<text text-anchor="middle" x="2012.62" y="-144.38" font-family="Helvetica,sans-Serif" font-size="10.00">llvm/Support/Casting.h</text>
</a>
</g>
</g>
<!-- Node1&#45;&gt;Node31 -->
<g id="edge34_Node000001_Node000031" class="edge">
<title>Node1&#45;&gt;Node31</title>
<g id="a_edge34_Node000001_Node000031"><a xlink:title=" ">
<path fill="none" stroke="#63b8ff" d="M1431.54,-211C1535.14,-205.56 1758.8,-191.47 1945.62,-163.5 1951.22,-162.66 1957.04,-161.65 1962.82,-160.54"/>
<polygon fill="#63b8ff" stroke="#63b8ff" points="1963.2,-164.04 1972.32,-158.64 1961.82,-157.17 1963.2,-164.04"/>
</a>
</g>
</g>
<!-- Node32 -->
<g id="Node000032" class="node">
<title>Node32</title>
<g id="a_Node000032"><a xlink:title=" ">
<polygon fill="#e0e0e0" stroke="#999999" points="2231,-157.88 2088.25,-157.88 2088.25,-138.62 2231,-138.62 2231,-157.88"/>
<text text-anchor="middle" x="2159.62" y="-144.38" font-family="Helvetica,sans-Serif" font-size="10.00">llvm/Support/MemoryBuffer.h</text>
</a>
</g>
</g>
<!-- Node1&#45;&gt;Node32 -->
<g id="edge35_Node000001_Node000032" class="edge">
<title>Node1&#45;&gt;Node32</title>
<g id="a_edge35_Node000001_Node000032"><a xlink:title=" ">
<path fill="none" stroke="#63b8ff" d="M1431.48,-211.7C1552.28,-206.95 1840.01,-193.28 2079.62,-163.5 2086.88,-162.6 2094.47,-161.48 2101.97,-160.27"/>
<polygon fill="#63b8ff" stroke="#63b8ff" points="2102.45,-163.73 2111.72,-158.62 2101.28,-156.83 2102.45,-163.73"/>
</a>
</g>
</g>
<!-- Node33 -->
<g id="Node000033" class="node">
<title>Node33</title>
<g id="a_Node000033"><a xlink:title=" ">
<polygon fill="#e0e0e0" stroke="#999999" points="2306.62,-157.88 2248.62,-157.88 2248.62,-138.62 2306.62,-138.62 2306.62,-157.88"/>
<text text-anchor="middle" x="2277.62" y="-144.38" font-family="Helvetica,sans-Serif" font-size="10.00">functional</text>
</a>
</g>
</g>
<!-- Node1&#45;&gt;Node33 -->
<g id="edge37_Node000001_Node000033" class="edge">
<title>Node1&#45;&gt;Node33</title>
<g id="a_edge37_Node000001_Node000033"><a xlink:title=" ">
<path fill="none" stroke="#63b8ff" d="M1431.57,-212.65C1599.56,-209.12 2084.64,-196.27 2239.62,-163.5 2241.8,-163.04 2244.01,-162.48 2246.22,-161.85"/>
<polygon fill="#63b8ff" stroke="#63b8ff" points="2247.23,-165.2 2255.62,-158.72 2245.03,-158.56 2247.23,-165.2"/>
</a>
</g>
</g>
<!-- Node3 -->
<g id="Node000003" class="node">
<title>Node3</title>
<g id="a_Node000003"><a xlink:href="_include_2_i_r_2_dialect_8h.html" target="_top" xlink:title=" ">
<polygon fill="white" stroke="#666666" points="99.25,-97 0,-97 0,-66.5 99.25,-66.5 99.25,-97"/>
<text text-anchor="start" x="8" y="-83.5" font-family="Helvetica,sans-Serif" font-size="10.00">llzk/Dialect/Include</text>
<text text-anchor="middle" x="49.62" y="-72.25" font-family="Helvetica,sans-Serif" font-size="10.00">/IR/Dialect.h</text>
</a>
</g>
</g>
<!-- Node2&#45;&gt;Node3 -->
<g id="edge2_Node000002_Node000003" class="edge">
<title>Node2&#45;&gt;Node3</title>
<g id="a_edge2_Node000002_Node000003"><a xlink:title=" ">
<path fill="none" stroke="#63b8ff" d="M140.08,-132.61C124.07,-123.79 103.46,-112.43 85.96,-102.78"/>
<polygon fill="#63b8ff" stroke="#63b8ff" points="87.84,-99.82 77.39,-98.06 84.46,-105.95 87.84,-99.82"/>
</a>
</g>
</g>
<!-- Node6 -->
<g id="Node000006" class="node">
<title>Node6</title>
<g id="a_Node000006"><a xlink:href="_include_2_i_r_2_ops_8h_8inc.html" target="_top" xlink:title=" ">
<polygon fill="white" stroke="#666666" points="216.25,-97 117,-97 117,-66.5 216.25,-66.5 216.25,-97"/>
<text text-anchor="start" x="125" y="-83.5" font-family="Helvetica,sans-Serif" font-size="10.00">llzk/Dialect/Include</text>
<text text-anchor="middle" x="166.62" y="-72.25" font-family="Helvetica,sans-Serif" font-size="10.00">/IR/Ops.h.inc</text>
</a>
</g>
</g>
<!-- Node2&#45;&gt;Node6 -->
<g id="edge5_Node000002_Node000006" class="edge">
<title>Node2&#45;&gt;Node6</title>
<g id="a_edge5_Node000002_Node000006"><a xlink:title=" ">
<path fill="none" stroke="#63b8ff" d="M166.62,-132.61C166.62,-125.52 166.62,-116.79 166.62,-108.63"/>
<polygon fill="#63b8ff" stroke="#63b8ff" points="170.13,-108.84 166.63,-98.84 163.13,-108.84 170.13,-108.84"/>
</a>
</g>
</g>
<!-- Node4 -->
<g id="Node000004" class="node">
<title>Node4</title>
<g id="a_Node000004"><a xlink:title=" ">
<polygon fill="#e0e0e0" stroke="#999999" points="385.38,-24.88 283.88,-24.88 283.88,-5.63 385.38,-5.63 385.38,-24.88"/>
<text text-anchor="middle" x="334.62" y="-11.38" font-family="Helvetica,sans-Serif" font-size="10.00">mlir/IR/BuiltinOps.h</text>
</a>
</g>
</g>
<!-- Node3&#45;&gt;Node4 -->
<g id="edge3_Node000003_Node000004" class="edge">
<title>Node3&#45;&gt;Node4</title>
<g id="a_edge3_Node000003_Node000004"><a xlink:title=" ">
<path fill="none" stroke="#63b8ff" d="M99.59,-68.4C102.31,-67.75 105,-67.11 107.62,-66.5 166.87,-52.67 235.04,-37.7 281.09,-27.74"/>
<polygon fill="#63b8ff" stroke="#63b8ff" points="281.79,-31.17 290.82,-25.63 280.31,-24.32 281.79,-31.17"/>
</a>
</g>
</g>
<!-- Node5 -->
<g id="Node000005" class="node">
<title>Node5</title>
<g id="a_Node000005"><a xlink:href="_include_2_i_r_2_dialect_8h_8inc.html" target="_top" xlink:title=" ">
<polygon fill="white" stroke="#666666" points="99.25,-30.5 0,-30.5 0,0 99.25,0 99.25,-30.5"/>
<text text-anchor="start" x="8" y="-17" font-family="Helvetica,sans-Serif" font-size="10.00">llzk/Dialect/Include</text>
<text text-anchor="middle" x="49.62" y="-5.75" font-family="Helvetica,sans-Serif" font-size="10.00">/IR/Dialect.h.inc</text>
</a>
</g>
</g>
<!-- Node3&#45;&gt;Node5 -->
<g id="edge4_Node000003_Node000005" class="edge">
<title>Node3&#45;&gt;Node5</title>
<g id="a_edge4_Node000003_Node000005"><a xlink:title=" ">
<path fill="none" stroke="#63b8ff" d="M49.62,-66.11C49.62,-59.02 49.62,-50.29 49.62,-42.13"/>
<polygon fill="#63b8ff" stroke="#63b8ff" points="53.13,-42.34 49.63,-32.34 46.13,-42.34 53.13,-42.34"/>
</a>
</g>
</g>
<!-- Node7&#45;&gt;Node4 -->
<g id="edge7_Node000007_Node000004" class="edge">
<title>Node7&#45;&gt;Node4</title>
<g id="a_edge7_Node000007_Node000004"><a xlink:title=" ">
<path fill="none" stroke="#63b8ff" d="M563.6,-132.67C540.8,-112.15 499.83,-76.14 482.62,-66.5 451.87,-49.27 414.22,-36.59 384.59,-28.27"/>
<polygon fill="#63b8ff" stroke="#63b8ff" points="385.69,-24.94 375.12,-25.7 383.85,-31.7 385.69,-24.94"/>
</a>
</g>
</g>
<!-- Node7&#45;&gt;Node8 -->
<g id="edge8_Node000007_Node000008" class="edge">
<title>Node7&#45;&gt;Node8</title>
<g id="a_edge8_Node000007_Node000008"><a xlink:title=" ">
<path fill="none" stroke="#63b8ff" d="M568.76,-132.56C557.04,-114.8 542.12,-84.97 558.62,-66.5 583.09,-39.12 813.76,-24.79 932.99,-19.15"/>
<polygon fill="#63b8ff" stroke="#63b8ff" points="932.83,-22.66 942.66,-18.71 932.51,-15.67 932.83,-22.66"/>
</a>
</g>
</g>
<!-- Node9 -->
<g id="Node000009" class="node">
<title>Node9</title>
<g id="a_Node000009"><a xlink:title=" ">
<polygon fill="#e0e0e0" stroke="#999999" points="671.88,-91.38 567.38,-91.38 567.38,-72.12 671.88,-72.12 671.88,-91.38"/>
<text text-anchor="middle" x="619.62" y="-77.88" font-family="Helvetica,sans-Serif" font-size="10.00">mlir/Support/LLVM.h</text>
</a>
</g>
</g>
<!-- Node7&#45;&gt;Node9 -->
<g id="edge9_Node000007_Node000009" class="edge">
<title>Node7&#45;&gt;Node9</title>
<g id="a_edge9_Node000007_Node000009"><a xlink:title=" ">
<path fill="none" stroke="#63b8ff" d="M588.7,-132.61C594.46,-123.33 601.95,-111.25 608.12,-101.3"/>
<polygon fill="#63b8ff" stroke="#63b8ff" points="611.06,-103.2 613.36,-92.86 605.11,-99.51 611.06,-103.2"/>
</a>
</g>
</g>
<!-- Node7&#45;&gt;Node10 -->
<g id="edge10_Node000007_Node000010" class="edge">
<title>Node7&#45;&gt;Node10</title>
<g id="a_edge10_Node000007_Node000010"><a xlink:title=" ">
<path fill="none" stroke="#63b8ff" d="M620.47,-132.61C651.47,-121.51 693.68,-106.38 723.46,-95.71"/>
<polygon fill="#63b8ff" stroke="#63b8ff" points="724.56,-99.03 732.79,-92.36 722.2,-92.44 724.56,-99.03"/>
</a>
</g>
</g>
<!-- Node11 -->
<g id="Node000011" class="node">
<title>Node11</title>
<g id="a_Node000011"><a xlink:title=" ">
<polygon fill="#e0e0e0" stroke="#999999" points="353,-91.38 234.25,-91.38 234.25,-72.12 353,-72.12 353,-91.38"/>
<text text-anchor="middle" x="293.62" y="-77.88" font-family="Helvetica,sans-Serif" font-size="10.00">llvm/ADT/SmallString.h</text>
</a>
</g>
</g>
<!-- Node7&#45;&gt;Node11 -->
<g id="edge11_Node000007_Node000011" class="edge">
<title>Node7&#45;&gt;Node11</title>
<g id="a_edge11_Node000007_Node000011"><a xlink:title=" ">
<path fill="none" stroke="#63b8ff" d="M527.17,-135.42C475.29,-123.72 396.42,-105.93 344.94,-94.32"/>
<polygon fill="#63b8ff" stroke="#63b8ff" points="345.76,-90.92 335.24,-92.13 344.22,-97.75 345.76,-90.92"/>
</a>
</g>
</g>
<!-- Node12 -->
<g id="Node000012" class="node">
<title>Node12</title>
<g id="a_Node000012"><a xlink:title=" ">
<polygon fill="#e0e0e0" stroke="#999999" points="473.75,-91.38 371.5,-91.38 371.5,-72.12 473.75,-72.12 473.75,-91.38"/>
<text text-anchor="middle" x="422.62" y="-77.88" font-family="Helvetica,sans-Serif" font-size="10.00">llvm/Support/Path.h</text>
</a>
</g>
</g>
<!-- Node7&#45;&gt;Node12 -->
<g id="edge12_Node000007_Node000012" class="edge">
<title>Node7&#45;&gt;Node12</title>
<g id="a_edge12_Node000007_Node000012"><a xlink:title=" ">
<path fill="none" stroke="#63b8ff" d="M544,-132.61C517.24,-121.62 480.9,-106.69 454.97,-96.04"/>
<polygon fill="#63b8ff" stroke="#63b8ff" points="456.54,-92.9 445.96,-92.33 453.88,-99.37 456.54,-92.9"/>
</a>
</g>
</g>
<!-- Node7&#45;&gt;Node13 -->
<g id="edge13_Node000007_Node000013" class="edge">
<title>Node7&#45;&gt;Node13</title>
<g id="a_edge13_Node000007_Node000013"><a xlink:title=" ">
<path fill="none" stroke="#63b8ff" d="M632.21,-137.07C684.54,-126.93 767.14,-110.91 838.62,-97 843.74,-96 849.06,-94.97 854.39,-93.93"/>
<polygon fill="#63b8ff" stroke="#63b8ff" points="854.65,-97.44 863.8,-92.09 853.31,-90.57 854.65,-97.44"/>
</a>
</g>
</g>
<!-- Node15 -->
<g id="Node000015" class="node">
<title>Node15</title>
<g id="a_Node000015"><a xlink:title=" ">
<polygon fill="#e0e0e0" stroke="#999999" points="1191.62,-91.38 1031.62,-91.38 1031.62,-72.12 1191.62,-72.12 1191.62,-91.38"/>
<text text-anchor="middle" x="1111.62" y="-77.88" font-family="Helvetica,sans-Serif" font-size="10.00">llvm/ADT/STLFunctionalExtras.h</text>
</a>
</g>
</g>
<!-- Node14&#45;&gt;Node15 -->
<g id="edge15_Node000014_Node000015" class="edge">
<title>Node14&#45;&gt;Node15</title>
<g id="a_edge15_Node000014_Node000015"><a xlink:title=" ">
<path fill="none" stroke="#63b8ff" d="M1111.62,-138.28C1111.62,-129.23 1111.62,-114.95 1111.62,-103.13"/>
<polygon fill="#63b8ff" stroke="#63b8ff" points="1115.13,-103.16 1111.63,-93.16 1108.13,-103.16 1115.13,-103.16"/>
</a>
</g>
</g>
<!-- Node16 -->
<g id="Node000016" class="node">
<title>Node16</title>
<g id="a_Node000016"><a xlink:title=" ">
<polygon fill="#e0e0e0" stroke="#999999" points="1303.62,-91.38 1209.62,-91.38 1209.62,-72.12 1303.62,-72.12 1303.62,-91.38"/>
<text text-anchor="middle" x="1256.62" y="-77.88" font-family="Helvetica,sans-Serif" font-size="10.00">llvm/ADT/Twine.h</text>
</a>
</g>
</g>
<!-- Node14&#45;&gt;Node16 -->
<g id="edge16_Node000014_Node000016" class="edge">
<title>Node14&#45;&gt;Node16</title>
<g id="a_edge16_Node000014_Node000016"><a xlink:title=" ">
<path fill="none" stroke="#63b8ff" d="M1132.09,-138.15C1156.49,-127.29 1197.5,-109.05 1225.75,-96.48"/>
<polygon fill="#63b8ff" stroke="#63b8ff" points="1227.16,-99.69 1234.88,-92.42 1224.32,-93.29 1227.16,-99.69"/>
</a>
</g>
</g>
<!-- Node17 -->
<g id="Node000017" class="node">
<title>Node17</title>
<g id="a_Node000017"><a xlink:title=" ">
<polygon fill="#e0e0e0" stroke="#999999" points="1463.25,-91.38 1322,-91.38 1322,-72.12 1463.25,-72.12 1463.25,-91.38"/>
<text text-anchor="middle" x="1392.62" y="-77.88" font-family="Helvetica,sans-Serif" font-size="10.00">llvm/Support/ErrorHandling.h</text>
</a>
</g>
</g>
<!-- Node14&#45;&gt;Node17 -->
<g id="edge17_Node000014_Node000017" class="edge">
<title>Node14&#45;&gt;Node17</title>
<g id="a_edge17_Node000014_Node000017"><a xlink:title=" ">
<path fill="none" stroke="#63b8ff" d="M1151.29,-138.15C1201.29,-126.67 1287.29,-106.93 1341.99,-94.37"/>
<polygon fill="#63b8ff" stroke="#63b8ff" points="1342.72,-97.8 1351.69,-92.15 1341.16,-90.97 1342.72,-97.8"/>
</a>
</g>
</g>
<!-- Node19 -->
<g id="Node000019" class="node">
<title>Node19</title>
<g id="a_Node000019"><a xlink:href="_symbol_lookup_8h.html" target="_top" xlink:title="This file defines methods symbol lookup across LLZK operations and included files.">
<polygon fill="white" stroke="#666666" points="1606,-91.38 1481.25,-91.38 1481.25,-72.12 1606,-72.12 1606,-91.38"/>
<text text-anchor="middle" x="1543.62" y="-77.88" font-family="Helvetica,sans-Serif" font-size="10.00">llzk/Util/SymbolLookup.h</text>
</a>
</g>
</g>
<!-- Node18&#45;&gt;Node19 -->
<g id="edge19_Node000018_Node000019" class="edge">
<title>Node18&#45;&gt;Node19</title>
<g id="a_edge19_Node000018_Node000019"><a xlink:title=" ">
<path fill="none" stroke="#63b8ff" d="M1286.83,-138.15C1340.25,-126.62 1432.31,-106.76 1490.48,-94.22"/>
<polygon fill="#63b8ff" stroke="#63b8ff" points="1491.12,-97.66 1500.15,-92.13 1489.64,-90.81 1491.12,-97.66"/>
</a>
</g>
</g>
<!-- Node24 -->
<g id="Node000024" class="node">
<title>Node24</title>
<g id="a_Node000024"><a xlink:title=" ">
<polygon fill="#e0e0e0" stroke="#999999" points="1774.75,-91.38 1624.5,-91.38 1624.5,-72.12 1774.75,-72.12 1774.75,-91.38"/>
<text text-anchor="middle" x="1699.62" y="-77.88" font-family="Helvetica,sans-Serif" font-size="10.00">mlir/Interfaces/CallInterfaces.h</text>
</a>
</g>
</g>
<!-- Node18&#45;&gt;Node24 -->
<g id="edge25_Node000018_Node000024" class="edge">
<title>Node18&#45;&gt;Node24</title>
<g id="a_edge25_Node000018_Node000024"><a xlink:title=" ">
<path fill="none" stroke="#63b8ff" d="M1286.35,-138.18C1295.63,-136.32 1305.44,-134.48 1314.62,-133 1447.2,-111.59 1481.7,-116.11 1614.62,-97 1621.8,-95.97 1629.31,-94.82 1636.77,-93.63"/>
<polygon fill="#63b8ff" stroke="#63b8ff" points="1637.19,-97.1 1646.5,-92.04 1636.07,-90.19 1637.19,-97.1"/>
</a>
</g>
</g>
<!-- Node25 -->
<g id="Node000025" class="node">
<title>Node25</title>
<g id="a_Node000025"><a xlink:title=" ">
<polygon fill="#e0e0e0" stroke="#999999" points="1838.25,-91.38 1793,-91.38 1793,-72.12 1838.25,-72.12 1838.25,-91.38"/>
<text text-anchor="middle" x="1815.62" y="-77.88" font-family="Helvetica,sans-Serif" font-size="10.00">ranges</text>
</a>
</g>
</g>
<!-- Node18&#45;&gt;Node25 -->
<g id="edge26_Node000018_Node000025" class="edge">
<title>Node18&#45;&gt;Node25</title>
<g id="a_edge26_Node000018_Node000025"><a xlink:title=" ">
<path fill="none" stroke="#63b8ff" d="M1284.82,-138.18C1294.54,-136.23 1304.92,-134.35 1314.62,-133 1521.67,-104.09 1580.95,-148.27 1783.62,-97 1784.98,-96.66 1786.36,-96.26 1787.73,-95.82"/>
<polygon fill="#63b8ff" stroke="#63b8ff" points="1788.57,-99.25 1796.66,-92.4 1786.07,-92.71 1788.57,-99.25"/>
</a>
</g>
</g>
<!-- Node19&#45;&gt;Node8 -->
<g id="edge22_Node000019_Node000008" class="edge">
<title>Node19&#45;&gt;Node8</title>
<g id="a_edge22_Node000019_Node000008"><a xlink:title=" ">
<path fill="none" stroke="#63b8ff" d="M1501.69,-71.67C1492.16,-69.8 1482.07,-67.95 1472.62,-66.5 1332.13,-44.92 1166.54,-29.5 1074.48,-21.81"/>
<polygon fill="#63b8ff" stroke="#63b8ff" points="1074.84,-18.33 1064.59,-20.99 1074.26,-25.31 1074.84,-18.33"/>
</a>
</g>
</g>
<!-- Node20 -->
<g id="Node000020" class="node">
<title>Node20</title>
<g id="a_Node000020"><a xlink:href="_constants_8h.html" target="_top" xlink:title=" ">
<polygon fill="white" stroke="#666666" points="1735.25,-24.88 1630,-24.88 1630,-5.63 1735.25,-5.63 1735.25,-24.88"/>
<text text-anchor="middle" x="1682.62" y="-11.38" font-family="Helvetica,sans-Serif" font-size="10.00">llzk/Util/Constants.h</text>
</a>
</g>
</g>
<!-- Node19&#45;&gt;Node20 -->
<g id="edge20_Node000019_Node000020" class="edge">
<title>Node19&#45;&gt;Node20</title>
<g id="a_edge20_Node000019_Node000020"><a xlink:title=" ">
<path fill="none" stroke="#63b8ff" d="M1563.25,-71.65C1586.53,-60.84 1625.6,-42.71 1652.67,-30.15"/>
<polygon fill="#63b8ff" stroke="#63b8ff" points="1654.13,-33.33 1661.73,-25.95 1651.19,-26.98 1654.13,-33.33"/>
</a>
</g>
</g>
<!-- Node21 -->
<g id="Node000021" class="node">
<title>Node21</title>
<g id="a_Node000021"><a xlink:title=" ">
<polygon fill="#e0e0e0" stroke="#999999" points="1423.88,-24.88 1325.38,-24.88 1325.38,-5.63 1423.88,-5.63 1423.88,-24.88"/>
<text text-anchor="middle" x="1374.62" y="-11.38" font-family="Helvetica,sans-Serif" font-size="10.00">mlir/IR/Operation.h</text>
</a>
</g>
</g>
<!-- Node19&#45;&gt;Node21 -->
<g id="edge21_Node000019_Node000021" class="edge">
<title>Node19&#45;&gt;Node21</title>
<g id="a_edge21_Node000019_Node000021"><a xlink:title=" ">
<path fill="none" stroke="#63b8ff" d="M1519.77,-71.65C1490.83,-60.6 1441.84,-41.9 1408.87,-29.32"/>
<polygon fill="#63b8ff" stroke="#63b8ff" points="1410.36,-26.14 1399.77,-25.85 1407.87,-32.68 1410.36,-26.14"/>
</a>
</g>
</g>
<!-- Node22 -->
<g id="Node000022" class="node">
<title>Node22</title>
<g id="a_Node000022"><a xlink:title=" ">
<polygon fill="#e0e0e0" stroke="#999999" points="1551.5,-24.88 1441.75,-24.88 1441.75,-5.63 1551.5,-5.63 1551.5,-24.88"/>
<text text-anchor="middle" x="1496.62" y="-11.38" font-family="Helvetica,sans-Serif" font-size="10.00">llvm/ADT/StringRef.h</text>
</a>
</g>
</g>
<!-- Node19&#45;&gt;Node22 -->
<g id="edge23_Node000019_Node000022" class="edge">
<title>Node19&#45;&gt;Node22</title>
<g id="a_edge23_Node000019_Node000022"><a xlink:title=" ">
<path fill="none" stroke="#63b8ff" d="M1537.09,-71.78C1530.07,-62.15 1518.74,-46.6 1509.85,-34.4"/>
<polygon fill="#63b8ff" stroke="#63b8ff" points="1512.71,-32.39 1504,-26.37 1507.06,-36.51 1512.71,-32.39"/>
</a>
</g>
</g>
<!-- Node23 -->
<g id="Node000023" class="node">
<title>Node23</title>
<g id="a_Node000023"><a xlink:title=" ">
<polygon fill="#e0e0e0" stroke="#999999" points="1612.12,-24.88 1569.12,-24.88 1569.12,-5.63 1612.12,-5.63 1612.12,-24.88"/>
<text text-anchor="middle" x="1590.62" y="-11.38" font-family="Helvetica,sans-Serif" font-size="10.00">vector</text>
</a>
</g>
</g>
<!-- Node19&#45;&gt;Node23 -->
<g id="edge24_Node000019_Node000023" class="edge">
<title>Node19&#45;&gt;Node23</title>
<g id="a_edge24_Node000019_Node000023"><a xlink:title=" ">
<path fill="none" stroke="#63b8ff" d="M1550.16,-71.78C1557.18,-62.15 1568.51,-46.6 1577.4,-34.4"/>
<polygon fill="#63b8ff" stroke="#63b8ff" points="1580.19,-36.51 1583.25,-26.37 1574.54,-32.39 1580.19,-36.51"/>
</a>
</g>
</g>
</g>
</svg>
