<?xml version="1.0" encoding="UTF-8" standalone="no"?>
<!DOCTYPE svg PUBLIC "-//W3C//DTD SVG 1.1//EN"
 "http://www.w3.org/Graphics/SVG/1.1/DTD/svg11.dtd">
<!-- Generated by graphviz version 12.2.1 (20241206.2353)
 -->
<!-- Title: include/llzk/Dialect/InitDialects.h Pages: 1 -->
<svg width="365pt" height="105pt"
 viewBox="0.00 0.00 365.12 105.00" xmlns="http://www.w3.org/2000/svg" xmlns:xlink="http://www.w3.org/1999/xlink">
<g id="graph0" class="graph" transform="scale(1 1) rotate(0) translate(4 101)">
<title>include/llzk/Dialect/InitDialects.h</title>
<!-- Node1 -->
<g id="Node000001" class="node">
<title>Node1</title>
<g id="a_Node000001"><a xlink:title="This file defines llzk::registerAllDialects.">
<polygon fill="#999999" stroke="#666666" points="248.62,-97 150.12,-97 150.12,-66.5 248.62,-66.5 248.62,-97"/>
<text text-anchor="start" x="158.12" y="-83.5" font-family="Helvetica,sans-Serif" font-size="10.00">include/llzk/Dialect</text>
<text text-anchor="middle" x="199.38" y="-72.25" font-family="Helvetica,sans-Serif" font-size="10.00">/InitDialects.h</text>
</a>
</g>
</g>
<!-- Node2 -->
<g id="Node000002" class="node">
<title>Node2</title>
<g id="a_Node000002"><a xlink:href="_init_dialects_8cpp.html" target="_top" xlink:title=" ">
<polygon fill="white" stroke="#666666" points="130.75,-24.88 0,-24.88 0,-5.63 130.75,-5.63 130.75,-24.88"/>
<text text-anchor="middle" x="65.38" y="-11.38" font-family="Helvetica,sans-Serif" font-size="10.00">lib/Dialect/InitDialects.cpp</text>
</a>
</g>
</g>
<!-- Node1&#45;&gt;Node2 -->
<g id="edge1_Node000001_Node000002" class="edge">
<title>Node1&#45;&gt;Node2</title>
<g id="a_edge1_Node000001_Node000002"><a xlink:title=" ">
<path fill="none" stroke="#63b8ff" d="M158.73,-61.19C133.9,-49.24 103.33,-34.52 84.09,-25.26"/>
<polygon fill="#63b8ff" stroke="#63b8ff" points="157.08,-64.27 167.6,-65.46 160.11,-57.97 157.08,-64.27"/>
</a>
</g>
</g>
<!-- Node3 -->
<g id="Node000003" class="node">
<title>Node3</title>
<g id="a_Node000003"><a xlink:href="llzk-lsp-server_8cpp.html" target="_top" xlink:title=" ">
<polygon fill="white" stroke="#666666" points="249.75,-30.5 149,-30.5 149,0 249.75,0 249.75,-30.5"/>
<text text-anchor="start" x="157" y="-17" font-family="Helvetica,sans-Serif" font-size="10.00">tools/llzk&#45;lsp&#45;server</text>
<text text-anchor="middle" x="199.38" y="-5.75" font-family="Helvetica,sans-Serif" font-size="10.00">/llzk&#45;lsp&#45;server.cpp</text>
</a>
</g>
</g>
<!-- Node1&#45;&gt;Node3 -->
<g id="edge2_Node000001_Node000003" class="edge">
<title>Node1&#45;&gt;Node3</title>
<g id="a_edge2_Node000001_Node000003"><a xlink:title=" ">
<path fill="none" stroke="#63b8ff" d="M199.38,-54.81C199.38,-46.64 199.38,-37.91 199.38,-30.83"/>
<polygon fill="#63b8ff" stroke="#63b8ff" points="195.88,-54.6 199.38,-64.6 202.88,-54.6 195.88,-54.6"/>
</a>
</g>
</g>
<!-- Node4 -->
<g id="Node000004" class="node">
<title>Node4</title>
<g id="a_Node000004"><a xlink:href="llzk-opt_8cpp.html" target="_top" xlink:title="This file implements a version of the mlir&#45;opt tool configured for use on LLZK files.">
<polygon fill="white" stroke="#666666" points="357.12,-30.5 267.62,-30.5 267.62,0 357.12,0 357.12,-30.5"/>
<text text-anchor="start" x="275.62" y="-17" font-family="Helvetica,sans-Serif" font-size="10.00">tools/llzk&#45;opt/llzk</text>
<text text-anchor="middle" x="312.38" y="-5.75" font-family="Helvetica,sans-Serif" font-size="10.00">&#45;opt.cpp</text>
</a>
</g>
</g>
<!-- Node1&#45;&gt;Node4 -->
<g id="edge3_Node000001_Node000004" class="edge">
<title>Node1&#45;&gt;Node4</title>
<g id="a_edge3_Node000001_Node000004"><a xlink:title=" ">
<path fill="none" stroke="#63b8ff" d="M234.58,-60.66C251.49,-51 271.4,-39.64 286.84,-30.83"/>
<polygon fill="#63b8ff" stroke="#63b8ff" points="233.28,-57.37 226.33,-65.36 236.75,-63.45 233.28,-57.37"/>
</a>
</g>
</g>
</g>
</svg>
