<?xml version="1.0" encoding="UTF-8" standalone="no"?>
<!DOCTYPE svg PUBLIC "-//W3C//DTD SVG 1.1//EN"
 "http://www.w3.org/Graphics/SVG/1.1/DTD/svg11.dtd">
<!-- Generated by graphviz version 12.2.1 (20241206.2353)
 -->
<!-- Title: build/include/llzk/Dialect/Include/Transforms/InlineIncludesPass.h.inc Pages: 1 -->
<svg width="268pt" height="205pt"
 viewBox="0.00 0.00 267.75 205.25" xmlns="http://www.w3.org/2000/svg" xmlns:xlink="http://www.w3.org/1999/xlink">
<g id="graph0" class="graph" transform="scale(1 1) rotate(0) translate(4 201.25)">
<title>build/include/llzk/Dialect/Include/Transforms/InlineIncludesPass.h.inc</title>
<!-- Node1 -->
<g id="Node000001" class="node">
<title>Node1</title>
<g id="a_Node000001"><a xlink:title=" ">
<polygon fill="#999999" stroke="#666666" points="189.12,-197.25 52.38,-197.25 52.38,-155.5 189.12,-155.5 189.12,-197.25"/>
<text text-anchor="start" x="60.38" y="-183.75" font-family="Helvetica,sans-Serif" font-size="10.00">build/include/llzk</text>
<text text-anchor="start" x="60.38" y="-172.5" font-family="Helvetica,sans-Serif" font-size="10.00">/Dialect/Include/Transforms</text>
<text text-anchor="middle" x="120.75" y="-161.25" font-family="Helvetica,sans-Serif" font-size="10.00">/InlineIncludesPass.h.inc</text>
</a>
</g>
</g>
<!-- Node2 -->
<g id="Node000002" class="node">
<title>Node2</title>
<g id="a_Node000002"><a xlink:href="_inline_includes_pass_8h.html" target="_top" xlink:title=" ">
<polygon fill="white" stroke="#666666" points="259.75,-119.5 93.75,-119.5 93.75,-77.75 259.75,-77.75 259.75,-119.5"/>
<text text-anchor="start" x="101.75" y="-106" font-family="Helvetica,sans-Serif" font-size="10.00">include/llzk/Dialect</text>
<text text-anchor="start" x="101.75" y="-94.75" font-family="Helvetica,sans-Serif" font-size="10.00">/Include/Transforms/InlineIncludes</text>
<text text-anchor="middle" x="176.75" y="-83.5" font-family="Helvetica,sans-Serif" font-size="10.00">Pass.h</text>
</a>
</g>
</g>
<!-- Node1&#45;&gt;Node2 -->
<g id="edge1_Node000001_Node000002" class="edge">
<title>Node1&#45;&gt;Node2</title>
<g id="a_edge1_Node000001_Node000002"><a xlink:title=" ">
<path fill="none" stroke="#63b8ff" d="M142.48,-145.98C148.91,-137.29 155.8,-127.97 161.7,-119.98"/>
<polygon fill="#63b8ff" stroke="#63b8ff" points="139.79,-143.74 136.66,-153.86 145.42,-147.9 139.79,-143.74"/>
</a>
</g>
</g>
<!-- Node3 -->
<g id="Node000003" class="node">
<title>Node3</title>
<g id="a_Node000003"><a xlink:href="_inline_includes_pass_8cpp.html" target="_top" xlink:title="This file implements the &#45;llzk&#45;inline&#45;includes pass.">
<polygon fill="white" stroke="#666666" points="131.5,-41.75 0,-41.75 0,0 131.5,0 131.5,-41.75"/>
<text text-anchor="start" x="8" y="-28.25" font-family="Helvetica,sans-Serif" font-size="10.00">lib/Dialect/Include</text>
<text text-anchor="start" x="8" y="-17" font-family="Helvetica,sans-Serif" font-size="10.00">/Transforms/InlineIncludes</text>
<text text-anchor="middle" x="65.75" y="-5.75" font-family="Helvetica,sans-Serif" font-size="10.00">Pass.cpp</text>
</a>
</g>
</g>
<!-- Node1&#45;&gt;Node3 -->
<g id="edge4_Node000001_Node000003" class="edge">
<title>Node1&#45;&gt;Node3</title>
<g id="a_edge4_Node000001_Node000003"><a xlink:title=" ">
<path fill="none" stroke="#63b8ff" d="M98.71,-145.75C93.47,-137.58 88.36,-128.48 84.75,-119.5 74.44,-93.87 69.6,-62.14 67.41,-41.95"/>
<polygon fill="#63b8ff" stroke="#63b8ff" points="95.73,-147.59 104.23,-153.93 101.54,-143.68 95.73,-147.59"/>
</a>
</g>
</g>
<!-- Node2&#45;&gt;Node3 -->
<g id="edge2_Node000002_Node000003" class="edge">
<title>Node2&#45;&gt;Node3</title>
<g id="a_edge2_Node000002_Node000003"><a xlink:title=" ">
<path fill="none" stroke="#63b8ff" d="M137.71,-70.98C123.87,-61.54 108.53,-51.07 95.58,-42.23"/>
<polygon fill="#63b8ff" stroke="#63b8ff" points="135.52,-73.73 145.75,-76.47 139.47,-67.94 135.52,-73.73"/>
</a>
</g>
</g>
<!-- Node4 -->
<g id="Node000004" class="node">
<title>Node4</title>
<g id="a_Node000004"><a xlink:href="llzk-opt_8cpp.html" target="_top" xlink:title="This file implements a version of the mlir&#45;opt tool configured for use on LLZK files.">
<polygon fill="white" stroke="#666666" points="239.5,-36.12 150,-36.12 150,-5.62 239.5,-5.62 239.5,-36.12"/>
<text text-anchor="start" x="158" y="-22.62" font-family="Helvetica,sans-Serif" font-size="10.00">tools/llzk&#45;opt/llzk</text>
<text text-anchor="middle" x="194.75" y="-11.38" font-family="Helvetica,sans-Serif" font-size="10.00">&#45;opt.cpp</text>
</a>
</g>
</g>
<!-- Node2&#45;&gt;Node4 -->
<g id="edge3_Node000002_Node000004" class="edge">
<title>Node2&#45;&gt;Node4</title>
<g id="a_edge3_Node000002_Node000004"><a xlink:title=" ">
<path fill="none" stroke="#63b8ff" d="M184.17,-66.4C186.66,-55.93 189.31,-44.76 191.34,-36.23"/>
<polygon fill="#63b8ff" stroke="#63b8ff" points="180.83,-65.31 181.92,-75.85 187.64,-66.93 180.83,-65.31"/>
</a>
</g>
</g>
</g>
</svg>
