<?xml version="1.0" encoding="UTF-8" standalone="no"?>
<!DOCTYPE svg PUBLIC "-//W3C//DTD SVG 1.1//EN"
 "http://www.w3.org/Graphics/SVG/1.1/DTD/svg11.dtd">
<!-- Generated by graphviz version 12.2.1 (20241206.2353)
 -->
<!-- Title: include/llzk/Dialect/Include/Transforms/InlineIncludesPass.h Pages: 1 -->
<svg width="1750pt" height="249pt"
 viewBox="0.00 0.00 1749.75 249.25" xmlns="http://www.w3.org/2000/svg" xmlns:xlink="http://www.w3.org/1999/xlink">
<g id="graph0" class="graph" transform="scale(1 1) rotate(0) translate(4 245.25)">
<title>include/llzk/Dialect/Include/Transforms/InlineIncludesPass.h</title>
<!-- Node1 -->
<g id="Node000001" class="node">
<title>Node1</title>
<g id="a_Node000001"><a xlink:title=" ">
<polygon fill="#999999" stroke="#666666" points="917.88,-241.25 751.88,-241.25 751.88,-199.5 917.88,-199.5 917.88,-241.25"/>
<text text-anchor="start" x="759.88" y="-227.75" font-family="Helvetica,sans-Serif" font-size="10.00">include/llzk/Dialect</text>
<text text-anchor="start" x="759.88" y="-216.5" font-family="Helvetica,sans-Serif" font-size="10.00">/Include/Transforms/InlineIncludes</text>
<text text-anchor="middle" x="834.88" y="-205.25" font-family="Helvetica,sans-Serif" font-size="10.00">Pass.h</text>
</a>
</g>
</g>
<!-- Node2 -->
<g id="Node000002" class="node">
<title>Node2</title>
<g id="a_Node000002"><a xlink:href="_polymorphic_2_i_r_2_dialect_8h.html" target="_top" xlink:title=" ">
<polygon fill="white" stroke="#666666" points="121.75,-97 0,-97 0,-66.5 121.75,-66.5 121.75,-97"/>
<text text-anchor="start" x="8" y="-83.5" font-family="Helvetica,sans-Serif" font-size="10.00">llzk/Dialect/Polymorphic</text>
<text text-anchor="middle" x="60.88" y="-72.25" font-family="Helvetica,sans-Serif" font-size="10.00">/IR/Dialect.h</text>
</a>
</g>
</g>
<!-- Node1&#45;&gt;Node2 -->
<g id="edge1_Node000001_Node000002" class="edge">
<title>Node1&#45;&gt;Node2</title>
<g id="a_edge1_Node000001_Node000002"><a xlink:title=" ">
<path fill="none" stroke="#63b8ff" d="M751.56,-205.69C621.78,-184.19 363.23,-140.66 133.22,-97.41"/>
<polygon fill="#63b8ff" stroke="#63b8ff" points="133.9,-93.98 123.43,-95.57 132.6,-100.86 133.9,-93.98"/>
</a>
</g>
</g>
<!-- Node5 -->
<g id="Node000005" class="node">
<title>Node5</title>
<g id="a_Node000005"><a xlink:href="_pass_base_8h.html" target="_top" xlink:title=" ">
<polygon fill="white" stroke="#666666" points="891.25,-157.88 778.5,-157.88 778.5,-138.62 891.25,-138.62 891.25,-157.88"/>
<text text-anchor="middle" x="834.88" y="-144.38" font-family="Helvetica,sans-Serif" font-size="10.00">llzk/Pass/PassBase.h</text>
</a>
</g>
</g>
<!-- Node1&#45;&gt;Node5 -->
<g id="edge4_Node000001_Node000005" class="edge">
<title>Node1&#45;&gt;Node5</title>
<g id="a_edge4_Node000001_Node000005"><a xlink:title=" ">
<path fill="none" stroke="#63b8ff" d="M834.88,-199.09C834.88,-189.75 834.88,-178.69 834.88,-169.37"/>
<polygon fill="#63b8ff" stroke="#63b8ff" points="838.38,-169.57 834.88,-159.57 831.38,-169.57 838.38,-169.57"/>
</a>
</g>
</g>
<!-- Node31 -->
<g id="Node000031" class="node">
<title>Node31</title>
<g id="a_Node000031"><a xlink:href="_inline_includes_pass_8h_8inc.html" target="_top" xlink:title=" ">
<polygon fill="white" stroke="#666666" points="1086.88,-163.5 908.88,-163.5 908.88,-133 1086.88,-133 1086.88,-163.5"/>
<text text-anchor="start" x="916.88" y="-150" font-family="Helvetica,sans-Serif" font-size="10.00">llzk/Dialect/Include</text>
<text text-anchor="middle" x="997.88" y="-138.75" font-family="Helvetica,sans-Serif" font-size="10.00">/Transforms/InlineIncludesPass.h.inc</text>
</a>
</g>
</g>
<!-- Node1&#45;&gt;Node31 -->
<g id="edge42_Node000001_Node000031" class="edge">
<title>Node1&#45;&gt;Node31</title>
<g id="a_edge42_Node000001_Node000031"><a xlink:title=" ">
<path fill="none" stroke="#63b8ff" d="M882.02,-199.09C904.48,-189.43 931.21,-177.93 953.33,-168.42"/>
<polygon fill="#63b8ff" stroke="#63b8ff" points="954.58,-171.69 962.39,-164.52 951.82,-165.25 954.58,-171.69"/>
</a>
</g>
</g>
<!-- Node3 -->
<g id="Node000003" class="node">
<title>Node3</title>
<g id="a_Node000003"><a xlink:title=" ">
<polygon fill="#e0e0e0" stroke="#999999" points="833.62,-24.88 732.12,-24.88 732.12,-5.63 833.62,-5.63 833.62,-24.88"/>
<text text-anchor="middle" x="782.88" y="-11.38" font-family="Helvetica,sans-Serif" font-size="10.00">mlir/IR/BuiltinOps.h</text>
</a>
</g>
</g>
<!-- Node2&#45;&gt;Node3 -->
<g id="edge2_Node000002_Node000003" class="edge">
<title>Node2&#45;&gt;Node3</title>
<g id="a_edge2_Node000002_Node000003"><a xlink:title=" ">
<path fill="none" stroke="#63b8ff" d="M121.87,-67.81C124.91,-67.33 127.92,-66.89 130.88,-66.5 392.22,-32.12 462.12,-69.1 722.88,-30.5 727.83,-29.77 732.99,-28.82 738.1,-27.77"/>
<polygon fill="#63b8ff" stroke="#63b8ff" points="738.63,-31.24 747.64,-25.67 737.12,-24.4 738.63,-31.24"/>
</a>
</g>
</g>
<!-- Node4 -->
<g id="Node000004" class="node">
<title>Node4</title>
<g id="a_Node000004"><a xlink:href="_polymorphic_2_i_r_2_dialect_8h_8inc.html" target="_top" xlink:title=" ">
<polygon fill="white" stroke="#666666" points="121.75,-30.5 0,-30.5 0,0 121.75,0 121.75,-30.5"/>
<text text-anchor="start" x="8" y="-17" font-family="Helvetica,sans-Serif" font-size="10.00">llzk/Dialect/Polymorphic</text>
<text text-anchor="middle" x="60.88" y="-5.75" font-family="Helvetica,sans-Serif" font-size="10.00">/IR/Dialect.h.inc</text>
</a>
</g>
</g>
<!-- Node2&#45;&gt;Node4 -->
<g id="edge3_Node000002_Node000004" class="edge">
<title>Node2&#45;&gt;Node4</title>
<g id="a_edge3_Node000002_Node000004"><a xlink:title=" ">
<path fill="none" stroke="#63b8ff" d="M60.88,-66.11C60.88,-59.02 60.88,-50.29 60.88,-42.13"/>
<polygon fill="#63b8ff" stroke="#63b8ff" points="64.38,-42.34 60.88,-32.34 57.38,-42.34 64.38,-42.34"/>
</a>
</g>
</g>
<!-- Node5&#45;&gt;Node2 -->
<g id="edge29_Node000005_Node000002" class="edge">
<title>Node5&#45;&gt;Node2</title>
<g id="a_edge29_Node000005_Node000002"><a xlink:title=" ">
<path fill="none" stroke="#63b8ff" d="M778.04,-145.69C659.82,-141.91 378.71,-130.1 133.17,-97.19"/>
<polygon fill="#63b8ff" stroke="#63b8ff" points="133.76,-93.73 123.38,-95.86 132.82,-100.67 133.76,-93.73"/>
</a>
</g>
</g>
<!-- Node6 -->
<g id="Node000006" class="node">
<title>Node6</title>
<g id="a_Node000006"><a xlink:href="_array_2_i_r_2_dialect_8h.html" target="_top" xlink:title=" ">
<polygon fill="white" stroke="#666666" points="1495.38,-97 1404.38,-97 1404.38,-66.5 1495.38,-66.5 1495.38,-97"/>
<text text-anchor="start" x="1412.38" y="-83.5" font-family="Helvetica,sans-Serif" font-size="10.00">llzk/Dialect/Array</text>
<text text-anchor="middle" x="1449.88" y="-72.25" font-family="Helvetica,sans-Serif" font-size="10.00">/IR/Dialect.h</text>
</a>
</g>
</g>
<!-- Node5&#45;&gt;Node6 -->
<g id="edge5_Node000005_Node000006" class="edge">
<title>Node5&#45;&gt;Node6</title>
<g id="a_edge5_Node000005_Node000006"><a xlink:title=" ">
<path fill="none" stroke="#63b8ff" d="M871.83,-138.19C880.95,-136.22 890.73,-134.33 899.88,-133 1114.98,-101.78 1175.85,-132.31 1392.92,-97.29"/>
<polygon fill="#63b8ff" stroke="#63b8ff" points="1393.25,-100.79 1402.55,-95.71 1392.12,-93.88 1393.25,-100.79"/>
</a>
</g>
</g>
<!-- Node8 -->
<g id="Node000008" class="node">
<title>Node8</title>
<g id="a_Node000008"><a xlink:href="_bool_2_i_r_2_dialect_8h.html" target="_top" xlink:title=" ">
<polygon fill="white" stroke="#666666" points="1614.25,-97 1513.5,-97 1513.5,-66.5 1614.25,-66.5 1614.25,-97"/>
<text text-anchor="start" x="1521.5" y="-83.5" font-family="Helvetica,sans-Serif" font-size="10.00">llzk/Dialect/Bool/IR</text>
<text text-anchor="middle" x="1563.88" y="-72.25" font-family="Helvetica,sans-Serif" font-size="10.00">/Dialect.h</text>
</a>
</g>
</g>
<!-- Node5&#45;&gt;Node8 -->
<g id="edge8_Node000005_Node000008" class="edge">
<title>Node5&#45;&gt;Node8</title>
<g id="a_edge8_Node000005_Node000008"><a xlink:title=" ">
<path fill="none" stroke="#63b8ff" d="M871.48,-138.18C880.69,-136.18 890.61,-134.28 899.88,-133 1163.04,-96.55 1236.46,-135.68 1501.99,-97.25"/>
<polygon fill="#63b8ff" stroke="#63b8ff" points="1502.26,-100.75 1511.64,-95.83 1501.24,-93.82 1502.26,-100.75"/>
</a>
</g>
</g>
<!-- Node10 -->
<g id="Node000010" class="node">
<title>Node10</title>
<g id="a_Node000010"><a xlink:href="_constrain_2_i_r_2_dialect_8h.html" target="_top" xlink:title=" ">
<polygon fill="white" stroke="#666666" points="1741.75,-97 1632,-97 1632,-66.5 1741.75,-66.5 1741.75,-97"/>
<text text-anchor="start" x="1640" y="-83.5" font-family="Helvetica,sans-Serif" font-size="10.00">llzk/Dialect/Constrain</text>
<text text-anchor="middle" x="1686.88" y="-72.25" font-family="Helvetica,sans-Serif" font-size="10.00">/IR/Dialect.h</text>
</a>
</g>
</g>
<!-- Node5&#45;&gt;Node10 -->
<g id="edge11_Node000005_Node000010" class="edge">
<title>Node5&#45;&gt;Node10</title>
<g id="a_edge11_Node000005_Node000010"><a xlink:title=" ">
<path fill="none" stroke="#63b8ff" d="M871.13,-138.19C880.44,-136.17 890.49,-134.25 899.88,-133 1215.19,-90.88 1302.1,-139.01 1620.87,-97.09"/>
<polygon fill="#63b8ff" stroke="#63b8ff" points="1620.88,-100.62 1630.32,-95.83 1619.95,-93.68 1620.88,-100.62"/>
</a>
</g>
</g>
<!-- Node12 -->
<g id="Node000012" class="node">
<title>Node12</title>
<g id="a_Node000012"><a xlink:href="_felt_2_i_r_2_dialect_8h.html" target="_top" xlink:title=" ">
<polygon fill="white" stroke="#666666" points="237.75,-97 140,-97 140,-66.5 237.75,-66.5 237.75,-97"/>
<text text-anchor="start" x="148" y="-83.5" font-family="Helvetica,sans-Serif" font-size="10.00">llzk/Dialect/Felt/IR</text>
<text text-anchor="middle" x="188.88" y="-72.25" font-family="Helvetica,sans-Serif" font-size="10.00">/Dialect.h</text>
</a>
</g>
</g>
<!-- Node5&#45;&gt;Node12 -->
<g id="edge14_Node000005_Node000012" class="edge">
<title>Node5&#45;&gt;Node12</title>
<g id="a_edge14_Node000005_Node000012"><a xlink:title=" ">
<path fill="none" stroke="#63b8ff" d="M778.16,-145.34C674.81,-141.22 448.81,-129.27 249.41,-97.24"/>
<polygon fill="#63b8ff" stroke="#63b8ff" points="250.05,-93.8 239.62,-95.65 248.93,-100.71 250.05,-93.8"/>
</a>
</g>
</g>
<!-- Node14 -->
<g id="Node000014" class="node">
<title>Node14</title>
<g id="a_Node000014"><a xlink:href="_function_2_i_r_2_dialect_8h.html" target="_top" xlink:title=" ">
<polygon fill="white" stroke="#666666" points="361.5,-97 256.25,-97 256.25,-66.5 361.5,-66.5 361.5,-97"/>
<text text-anchor="start" x="264.25" y="-83.5" font-family="Helvetica,sans-Serif" font-size="10.00">llzk/Dialect/Function</text>
<text text-anchor="middle" x="308.88" y="-72.25" font-family="Helvetica,sans-Serif" font-size="10.00">/IR/Dialect.h</text>
</a>
</g>
</g>
<!-- Node5&#45;&gt;Node14 -->
<g id="edge17_Node000005_Node000014" class="edge">
<title>Node5&#45;&gt;Node14</title>
<g id="a_edge17_Node000005_Node000014"><a xlink:title=" ">
<path fill="none" stroke="#63b8ff" d="M778.02,-143.35C692.23,-136.97 524.41,-122.59 373.03,-97.41"/>
<polygon fill="#63b8ff" stroke="#63b8ff" points="373.63,-93.97 363.19,-95.76 372.47,-100.87 373.63,-93.97"/>
</a>
</g>
</g>
<!-- Node16 -->
<g id="Node000016" class="node">
<title>Node16</title>
<g id="a_Node000016"><a xlink:href="_global_2_i_r_2_dialect_8h.html" target="_top" xlink:title=" ">
<polygon fill="white" stroke="#666666" points="474.62,-97 379.12,-97 379.12,-66.5 474.62,-66.5 474.62,-97"/>
<text text-anchor="start" x="387.12" y="-83.5" font-family="Helvetica,sans-Serif" font-size="10.00">llzk/Dialect/Global</text>
<text text-anchor="middle" x="426.88" y="-72.25" font-family="Helvetica,sans-Serif" font-size="10.00">/IR/Dialect.h</text>
</a>
</g>
</g>
<!-- Node5&#45;&gt;Node16 -->
<g id="edge20_Node000005_Node000016" class="edge">
<title>Node5&#45;&gt;Node16</title>
<g id="a_edge20_Node000005_Node000016"><a xlink:title=" ">
<path fill="none" stroke="#63b8ff" d="M778.17,-141.06C710.66,-133.26 594.32,-118.5 486.17,-97.54"/>
<polygon fill="#63b8ff" stroke="#63b8ff" points="487.04,-94.15 476.55,-95.65 485.69,-101.01 487.04,-94.15"/>
</a>
</g>
</g>
<!-- Node18 -->
<g id="Node000018" class="node">
<title>Node18</title>
<g id="a_Node000018"><a xlink:href="_include_2_i_r_2_dialect_8h.html" target="_top" xlink:title=" ">
<polygon fill="white" stroke="#666666" points="591.5,-97 492.25,-97 492.25,-66.5 591.5,-66.5 591.5,-97"/>
<text text-anchor="start" x="500.25" y="-83.5" font-family="Helvetica,sans-Serif" font-size="10.00">llzk/Dialect/Include</text>
<text text-anchor="middle" x="541.88" y="-72.25" font-family="Helvetica,sans-Serif" font-size="10.00">/IR/Dialect.h</text>
</a>
</g>
</g>
<!-- Node5&#45;&gt;Node18 -->
<g id="edge23_Node000005_Node000018" class="edge">
<title>Node5&#45;&gt;Node18</title>
<g id="a_edge23_Node000005_Node000018"><a xlink:title=" ">
<path fill="none" stroke="#63b8ff" d="M790.81,-138.14C746.02,-128.79 674.34,-113.63 602.77,-97.4"/>
<polygon fill="#63b8ff" stroke="#63b8ff" points="603.75,-94.03 593.22,-95.23 602.2,-100.86 603.75,-94.03"/>
</a>
</g>
</g>
<!-- Node20 -->
<g id="Node000020" class="node">
<title>Node20</title>
<g id="a_Node000020"><a xlink:href="_l_l_z_k_2_i_r_2_dialect_8h.html" target="_top" xlink:title=" ">
<polygon fill="white" stroke="#666666" points="714.12,-97 609.62,-97 609.62,-66.5 714.12,-66.5 714.12,-97"/>
<text text-anchor="start" x="617.62" y="-83.5" font-family="Helvetica,sans-Serif" font-size="10.00">llzk/Dialect/LLZK/IR</text>
<text text-anchor="middle" x="661.88" y="-72.25" font-family="Helvetica,sans-Serif" font-size="10.00">/Dialect.h</text>
</a>
</g>
</g>
<!-- Node5&#45;&gt;Node20 -->
<g id="edge26_Node000005_Node000020" class="edge">
<title>Node5&#45;&gt;Node20</title>
<g id="a_edge26_Node000005_Node000020"><a xlink:title=" ">
<path fill="none" stroke="#63b8ff" d="M810.46,-138.15C784.93,-128.63 744.17,-113.43 711.79,-101.36"/>
<polygon fill="#63b8ff" stroke="#63b8ff" points="713.18,-98.14 702.58,-97.93 710.73,-104.7 713.18,-98.14"/>
</a>
</g>
</g>
<!-- Node22 -->
<g id="Node000022" class="node">
<title>Node22</title>
<g id="a_Node000022"><a xlink:href="_string_2_i_r_2_dialect_8h.html" target="_top" xlink:title=" ">
<polygon fill="white" stroke="#666666" points="825.5,-97 732.25,-97 732.25,-66.5 825.5,-66.5 825.5,-97"/>
<text text-anchor="start" x="740.25" y="-83.5" font-family="Helvetica,sans-Serif" font-size="10.00">llzk/Dialect/String</text>
<text text-anchor="middle" x="778.88" y="-72.25" font-family="Helvetica,sans-Serif" font-size="10.00">/IR/Dialect.h</text>
</a>
</g>
</g>
<!-- Node5&#45;&gt;Node22 -->
<g id="edge30_Node000005_Node000022" class="edge">
<title>Node5&#45;&gt;Node22</title>
<g id="a_edge30_Node000005_Node000022"><a xlink:title=" ">
<path fill="none" stroke="#63b8ff" d="M827.09,-138.28C819.78,-129.87 808.55,-116.93 798.77,-105.66"/>
<polygon fill="#63b8ff" stroke="#63b8ff" points="801.52,-103.49 792.32,-98.24 796.23,-108.08 801.52,-103.49"/>
</a>
</g>
</g>
<!-- Node24 -->
<g id="Node000024" class="node">
<title>Node24</title>
<g id="a_Node000024"><a xlink:href="_struct_2_i_r_2_dialect_8h.html" target="_top" xlink:title=" ">
<polygon fill="white" stroke="#666666" points="937.88,-97 843.88,-97 843.88,-66.5 937.88,-66.5 937.88,-97"/>
<text text-anchor="start" x="851.88" y="-83.5" font-family="Helvetica,sans-Serif" font-size="10.00">llzk/Dialect/Struct</text>
<text text-anchor="middle" x="890.88" y="-72.25" font-family="Helvetica,sans-Serif" font-size="10.00">/IR/Dialect.h</text>
</a>
</g>
</g>
<!-- Node5&#45;&gt;Node24 -->
<g id="edge33_Node000005_Node000024" class="edge">
<title>Node5&#45;&gt;Node24</title>
<g id="a_edge33_Node000005_Node000024"><a xlink:title=" ">
<path fill="none" stroke="#63b8ff" d="M842.66,-138.28C849.97,-129.87 861.2,-116.93 870.98,-105.66"/>
<polygon fill="#63b8ff" stroke="#63b8ff" points="873.52,-108.08 877.43,-98.24 868.23,-103.49 873.52,-108.08"/>
</a>
</g>
</g>
<!-- Node26 -->
<g id="Node000026" class="node">
<title>Node26</title>
<g id="a_Node000026"><a xlink:href="_undef_2_i_r_2_dialect_8h.html" target="_top" xlink:title=" ">
<polygon fill="white" stroke="#666666" points="1049.88,-97 955.88,-97 955.88,-66.5 1049.88,-66.5 1049.88,-97"/>
<text text-anchor="start" x="963.88" y="-83.5" font-family="Helvetica,sans-Serif" font-size="10.00">llzk/Dialect/Undef</text>
<text text-anchor="middle" x="1002.88" y="-72.25" font-family="Helvetica,sans-Serif" font-size="10.00">/IR/Dialect.h</text>
</a>
</g>
</g>
<!-- Node5&#45;&gt;Node26 -->
<g id="edge36_Node000005_Node000026" class="edge">
<title>Node5&#45;&gt;Node26</title>
<g id="a_edge36_Node000005_Node000026"><a xlink:title=" ">
<path fill="none" stroke="#63b8ff" d="M858.59,-138.15C883.27,-128.67 922.61,-113.56 953.99,-101.52"/>
<polygon fill="#63b8ff" stroke="#63b8ff" points="955.23,-104.79 963.31,-97.94 952.72,-98.26 955.23,-104.79"/>
</a>
</g>
</g>
<!-- Node28 -->
<g id="Node000028" class="node">
<title>Node28</title>
<g id="a_Node000028"><a xlink:title=" ">
<polygon fill="#e0e0e0" stroke="#999999" points="1156.25,-97 1067.5,-97 1067.5,-66.5 1156.25,-66.5 1156.25,-97"/>
<text text-anchor="start" x="1075.5" y="-83.5" font-family="Helvetica,sans-Serif" font-size="10.00">mlir/Dialect/Arith</text>
<text text-anchor="middle" x="1111.88" y="-72.25" font-family="Helvetica,sans-Serif" font-size="10.00">/IR/Arith.h</text>
</a>
</g>
</g>
<!-- Node5&#45;&gt;Node28 -->
<g id="edge39_Node000005_Node000028" class="edge">
<title>Node5&#45;&gt;Node28</title>
<g id="a_edge39_Node000005_Node000028"><a xlink:title=" ">
<path fill="none" stroke="#63b8ff" d="M876.38,-138.16C926.8,-127.08 1009.99,-108.68 1055.97,-97.64"/>
<polygon fill="#63b8ff" stroke="#63b8ff" points="1056.73,-101.06 1065.62,-95.29 1055.07,-94.26 1056.73,-101.06"/>
</a>
</g>
</g>
<!-- Node29 -->
<g id="Node000029" class="node">
<title>Node29</title>
<g id="a_Node000029"><a xlink:title=" ">
<polygon fill="#e0e0e0" stroke="#999999" points="1277,-97 1174.75,-97 1174.75,-66.5 1277,-66.5 1277,-97"/>
<text text-anchor="start" x="1182.75" y="-83.5" font-family="Helvetica,sans-Serif" font-size="10.00">mlir/Dialect/SCF/IR</text>
<text text-anchor="middle" x="1225.88" y="-72.25" font-family="Helvetica,sans-Serif" font-size="10.00">/SCF.h</text>
</a>
</g>
</g>
<!-- Node5&#45;&gt;Node29 -->
<g id="edge40_Node000005_Node000029" class="edge">
<title>Node5&#45;&gt;Node29</title>
<g id="a_edge40_Node000005_Node000029"><a xlink:title=" ">
<path fill="none" stroke="#63b8ff" d="M873.96,-138.15C882.47,-136.31 891.46,-134.49 899.88,-133 1013.37,-112.88 1046.02,-118.19 1163.14,-97.19"/>
<polygon fill="#63b8ff" stroke="#63b8ff" points="1163.66,-100.65 1172.87,-95.42 1162.41,-93.77 1163.66,-100.65"/>
</a>
</g>
</g>
<!-- Node30 -->
<g id="Node000030" class="node">
<title>Node30</title>
<g id="a_Node000030"><a xlink:title=" ">
<polygon fill="#e0e0e0" stroke="#999999" points="1386.38,-91.38 1295.38,-91.38 1295.38,-72.12 1386.38,-72.12 1386.38,-91.38"/>
<text text-anchor="middle" x="1340.88" y="-77.88" font-family="Helvetica,sans-Serif" font-size="10.00">mlir/Pass/Pass.h</text>
</a>
</g>
</g>
<!-- Node5&#45;&gt;Node30 -->
<g id="edge41_Node000005_Node000030" class="edge">
<title>Node5&#45;&gt;Node30</title>
<g id="a_edge41_Node000005_Node000030"><a xlink:title=" ">
<path fill="none" stroke="#63b8ff" d="M872.54,-138.17C881.46,-136.25 890.97,-134.39 899.88,-133 1070.13,-106.5 1116.15,-126.7 1285.88,-97 1289.95,-96.29 1294.17,-95.42 1298.38,-94.48"/>
<polygon fill="#63b8ff" stroke="#63b8ff" points="1298.99,-97.93 1307.89,-92.19 1297.35,-91.13 1298.99,-97.93"/>
</a>
</g>
</g>
<!-- Node6&#45;&gt;Node3 -->
<g id="edge6_Node000006_Node000003" class="edge">
<title>Node6&#45;&gt;Node3</title>
<g id="a_edge6_Node000006_Node000003"><a xlink:title=" ">
<path fill="none" stroke="#63b8ff" d="M1404.05,-68.01C1401.29,-67.45 1398.55,-66.94 1395.88,-66.5 1152.34,-26.84 1085.81,-67.6 841.88,-30.5 837,-29.76 831.93,-28.81 826.9,-27.76"/>
<polygon fill="#63b8ff" stroke="#63b8ff" points="828.06,-24.43 817.54,-25.66 826.53,-31.26 828.06,-24.43"/>
</a>
</g>
</g>
<!-- Node7 -->
<g id="Node000007" class="node">
<title>Node7</title>
<g id="a_Node000007"><a xlink:href="_array_2_i_r_2_dialect_8h_8inc.html" target="_top" xlink:title=" ">
<polygon fill="white" stroke="#666666" points="1495.38,-30.5 1404.38,-30.5 1404.38,0 1495.38,0 1495.38,-30.5"/>
<text text-anchor="start" x="1412.38" y="-17" font-family="Helvetica,sans-Serif" font-size="10.00">llzk/Dialect/Array</text>
<text text-anchor="middle" x="1449.88" y="-5.75" font-family="Helvetica,sans-Serif" font-size="10.00">/IR/Dialect.h.inc</text>
</a>
</g>
</g>
<!-- Node6&#45;&gt;Node7 -->
<g id="edge7_Node000006_Node000007" class="edge">
<title>Node6&#45;&gt;Node7</title>
<g id="a_edge7_Node000006_Node000007"><a xlink:title=" ">
<path fill="none" stroke="#63b8ff" d="M1449.88,-66.11C1449.88,-59.02 1449.88,-50.29 1449.88,-42.13"/>
<polygon fill="#63b8ff" stroke="#63b8ff" points="1453.38,-42.34 1449.88,-32.34 1446.38,-42.34 1453.38,-42.34"/>
</a>
</g>
</g>
<!-- Node8&#45;&gt;Node3 -->
<g id="edge9_Node000008_Node000003" class="edge">
<title>Node8&#45;&gt;Node3</title>
<g id="a_edge9_Node000008_Node000003"><a xlink:title=" ">
<path fill="none" stroke="#63b8ff" d="M1513.14,-67.87C1510.35,-67.36 1507.59,-66.9 1504.88,-66.5 1212.9,-23.68 1133.85,-73.32 841.88,-30.5 836.93,-29.78 831.8,-28.83 826.71,-27.77"/>
<polygon fill="#63b8ff" stroke="#63b8ff" points="827.74,-24.42 817.22,-25.64 826.21,-31.25 827.74,-24.42"/>
</a>
</g>
</g>
<!-- Node9 -->
<g id="Node000009" class="node">
<title>Node9</title>
<g id="a_Node000009"><a xlink:href="_bool_2_i_r_2_dialect_8h_8inc.html" target="_top" xlink:title=" ">
<polygon fill="white" stroke="#666666" points="1614.25,-30.5 1513.5,-30.5 1513.5,0 1614.25,0 1614.25,-30.5"/>
<text text-anchor="start" x="1521.5" y="-17" font-family="Helvetica,sans-Serif" font-size="10.00">llzk/Dialect/Bool/IR</text>
<text text-anchor="middle" x="1563.88" y="-5.75" font-family="Helvetica,sans-Serif" font-size="10.00">/Dialect.h.inc</text>
</a>
</g>
</g>
<!-- Node8&#45;&gt;Node9 -->
<g id="edge10_Node000008_Node000009" class="edge">
<title>Node8&#45;&gt;Node9</title>
<g id="a_edge10_Node000008_Node000009"><a xlink:title=" ">
<path fill="none" stroke="#63b8ff" d="M1563.88,-66.11C1563.88,-59.02 1563.88,-50.29 1563.88,-42.13"/>
<polygon fill="#63b8ff" stroke="#63b8ff" points="1567.38,-42.34 1563.88,-32.34 1560.38,-42.34 1567.38,-42.34"/>
</a>
</g>
</g>
<!-- Node10&#45;&gt;Node3 -->
<g id="edge12_Node000010_Node000003" class="edge">
<title>Node10&#45;&gt;Node3</title>
<g id="a_edge12_Node000010_Node000003"><a xlink:title=" ">
<path fill="none" stroke="#63b8ff" d="M1631.83,-67.86C1628.81,-67.35 1625.81,-66.89 1622.88,-66.5 1278.44,-20.57 1185.88,-79.51 841.88,-30.5 836.93,-29.8 831.79,-28.86 826.7,-27.81"/>
<polygon fill="#63b8ff" stroke="#63b8ff" points="827.74,-24.46 817.21,-25.69 826.21,-31.29 827.74,-24.46"/>
</a>
</g>
</g>
<!-- Node11 -->
<g id="Node000011" class="node">
<title>Node11</title>
<g id="a_Node000011"><a xlink:href="_constrain_2_i_r_2_dialect_8h_8inc.html" target="_top" xlink:title=" ">
<polygon fill="white" stroke="#666666" points="1741.75,-30.5 1632,-30.5 1632,0 1741.75,0 1741.75,-30.5"/>
<text text-anchor="start" x="1640" y="-17" font-family="Helvetica,sans-Serif" font-size="10.00">llzk/Dialect/Constrain</text>
<text text-anchor="middle" x="1686.88" y="-5.75" font-family="Helvetica,sans-Serif" font-size="10.00">/IR/Dialect.h.inc</text>
</a>
</g>
</g>
<!-- Node10&#45;&gt;Node11 -->
<g id="edge13_Node000010_Node000011" class="edge">
<title>Node10&#45;&gt;Node11</title>
<g id="a_edge13_Node000010_Node000011"><a xlink:title=" ">
<path fill="none" stroke="#63b8ff" d="M1686.88,-66.11C1686.88,-59.02 1686.88,-50.29 1686.88,-42.13"/>
<polygon fill="#63b8ff" stroke="#63b8ff" points="1690.38,-42.34 1686.88,-32.34 1683.38,-42.34 1690.38,-42.34"/>
</a>
</g>
</g>
<!-- Node12&#45;&gt;Node3 -->
<g id="edge15_Node000012_Node000003" class="edge">
<title>Node12&#45;&gt;Node3</title>
<g id="a_edge15_Node000012_Node000003"><a xlink:title=" ">
<path fill="none" stroke="#63b8ff" d="M238.12,-68.06C241.07,-67.49 244.01,-66.96 246.88,-66.5 456.39,-33.08 513.24,-63.11 722.88,-30.5 727.77,-29.74 732.85,-28.79 737.9,-27.74"/>
<polygon fill="#63b8ff" stroke="#63b8ff" points="738.31,-31.23 747.31,-25.66 736.79,-24.4 738.31,-31.23"/>
</a>
</g>
</g>
<!-- Node13 -->
<g id="Node000013" class="node">
<title>Node13</title>
<g id="a_Node000013"><a xlink:href="_felt_2_i_r_2_dialect_8h_8inc.html" target="_top" xlink:title=" ">
<polygon fill="white" stroke="#666666" points="237.75,-30.5 140,-30.5 140,0 237.75,0 237.75,-30.5"/>
<text text-anchor="start" x="148" y="-17" font-family="Helvetica,sans-Serif" font-size="10.00">llzk/Dialect/Felt/IR</text>
<text text-anchor="middle" x="188.88" y="-5.75" font-family="Helvetica,sans-Serif" font-size="10.00">/Dialect.h.inc</text>
</a>
</g>
</g>
<!-- Node12&#45;&gt;Node13 -->
<g id="edge16_Node000012_Node000013" class="edge">
<title>Node12&#45;&gt;Node13</title>
<g id="a_edge16_Node000012_Node000013"><a xlink:title=" ">
<path fill="none" stroke="#63b8ff" d="M188.88,-66.11C188.88,-59.02 188.88,-50.29 188.88,-42.13"/>
<polygon fill="#63b8ff" stroke="#63b8ff" points="192.38,-42.34 188.88,-32.34 185.38,-42.34 192.38,-42.34"/>
</a>
</g>
</g>
<!-- Node14&#45;&gt;Node3 -->
<g id="edge18_Node000014_Node000003" class="edge">
<title>Node14&#45;&gt;Node3</title>
<g id="a_edge18_Node000014_Node000003"><a xlink:title=" ">
<path fill="none" stroke="#63b8ff" d="M361.69,-67.98C364.45,-67.44 367.19,-66.95 369.88,-66.5 525.42,-40.51 567.38,-56.78 722.88,-30.5 727.51,-29.72 732.31,-28.78 737.1,-27.78"/>
<polygon fill="#63b8ff" stroke="#63b8ff" points="737.66,-31.24 746.66,-25.65 736.13,-24.4 737.66,-31.24"/>
</a>
</g>
</g>
<!-- Node15 -->
<g id="Node000015" class="node">
<title>Node15</title>
<g id="a_Node000015"><a xlink:href="_function_2_i_r_2_dialect_8h_8inc.html" target="_top" xlink:title=" ">
<polygon fill="white" stroke="#666666" points="361.5,-30.5 256.25,-30.5 256.25,0 361.5,0 361.5,-30.5"/>
<text text-anchor="start" x="264.25" y="-17" font-family="Helvetica,sans-Serif" font-size="10.00">llzk/Dialect/Function</text>
<text text-anchor="middle" x="308.88" y="-5.75" font-family="Helvetica,sans-Serif" font-size="10.00">/IR/Dialect.h.inc</text>
</a>
</g>
</g>
<!-- Node14&#45;&gt;Node15 -->
<g id="edge19_Node000014_Node000015" class="edge">
<title>Node14&#45;&gt;Node15</title>
<g id="a_edge19_Node000014_Node000015"><a xlink:title=" ">
<path fill="none" stroke="#63b8ff" d="M308.88,-66.11C308.88,-59.02 308.88,-50.29 308.88,-42.13"/>
<polygon fill="#63b8ff" stroke="#63b8ff" points="312.38,-42.34 308.88,-32.34 305.38,-42.34 312.38,-42.34"/>
</a>
</g>
</g>
<!-- Node16&#45;&gt;Node3 -->
<g id="edge21_Node000016_Node000003" class="edge">
<title>Node16&#45;&gt;Node3</title>
<g id="a_edge21_Node000016_Node000003"><a xlink:title=" ">
<path fill="none" stroke="#63b8ff" d="M475.07,-68.16C477.7,-67.57 480.32,-67.02 482.88,-66.5 588.61,-45.17 616.98,-50.98 722.88,-30.5 727.13,-29.68 731.54,-28.76 735.95,-27.79"/>
<polygon fill="#63b8ff" stroke="#63b8ff" points="736.35,-31.29 745.34,-25.67 734.81,-24.46 736.35,-31.29"/>
</a>
</g>
</g>
<!-- Node17 -->
<g id="Node000017" class="node">
<title>Node17</title>
<g id="a_Node000017"><a xlink:href="_global_2_i_r_2_dialect_8h_8inc.html" target="_top" xlink:title=" ">
<polygon fill="white" stroke="#666666" points="474.62,-30.5 379.12,-30.5 379.12,0 474.62,0 474.62,-30.5"/>
<text text-anchor="start" x="387.12" y="-17" font-family="Helvetica,sans-Serif" font-size="10.00">llzk/Dialect/Global</text>
<text text-anchor="middle" x="426.88" y="-5.75" font-family="Helvetica,sans-Serif" font-size="10.00">/IR/Dialect.h.inc</text>
</a>
</g>
</g>
<!-- Node16&#45;&gt;Node17 -->
<g id="edge22_Node000016_Node000017" class="edge">
<title>Node16&#45;&gt;Node17</title>
<g id="a_edge22_Node000016_Node000017"><a xlink:title=" ">
<path fill="none" stroke="#63b8ff" d="M426.88,-66.11C426.88,-59.02 426.88,-50.29 426.88,-42.13"/>
<polygon fill="#63b8ff" stroke="#63b8ff" points="430.38,-42.34 426.88,-32.34 423.38,-42.34 430.38,-42.34"/>
</a>
</g>
</g>
<!-- Node18&#45;&gt;Node3 -->
<g id="edge24_Node000018_Node000003" class="edge">
<title>Node18&#45;&gt;Node3</title>
<g id="a_edge24_Node000018_Node000003"><a xlink:title=" ">
<path fill="none" stroke="#63b8ff" d="M591.81,-67.39C634.88,-55.86 696.51,-39.36 738.02,-28.25"/>
<polygon fill="#63b8ff" stroke="#63b8ff" points="738.69,-31.7 747.44,-25.73 736.88,-24.94 738.69,-31.7"/>
</a>
</g>
</g>
<!-- Node19 -->
<g id="Node000019" class="node">
<title>Node19</title>
<g id="a_Node000019"><a xlink:href="_include_2_i_r_2_dialect_8h_8inc.html" target="_top" xlink:title=" ">
<polygon fill="white" stroke="#666666" points="591.5,-30.5 492.25,-30.5 492.25,0 591.5,0 591.5,-30.5"/>
<text text-anchor="start" x="500.25" y="-17" font-family="Helvetica,sans-Serif" font-size="10.00">llzk/Dialect/Include</text>
<text text-anchor="middle" x="541.88" y="-5.75" font-family="Helvetica,sans-Serif" font-size="10.00">/IR/Dialect.h.inc</text>
</a>
</g>
</g>
<!-- Node18&#45;&gt;Node19 -->
<g id="edge25_Node000018_Node000019" class="edge">
<title>Node18&#45;&gt;Node19</title>
<g id="a_edge25_Node000018_Node000019"><a xlink:title=" ">
<path fill="none" stroke="#63b8ff" d="M541.88,-66.11C541.88,-59.02 541.88,-50.29 541.88,-42.13"/>
<polygon fill="#63b8ff" stroke="#63b8ff" points="545.38,-42.34 541.88,-32.34 538.38,-42.34 545.38,-42.34"/>
</a>
</g>
</g>
<!-- Node20&#45;&gt;Node3 -->
<g id="edge27_Node000020_Node000003" class="edge">
<title>Node20&#45;&gt;Node3</title>
<g id="a_edge27_Node000020_Node000003"><a xlink:title=" ">
<path fill="none" stroke="#63b8ff" d="M689.33,-66.11C709.31,-55.46 736.22,-41.12 756.05,-30.55"/>
<polygon fill="#63b8ff" stroke="#63b8ff" points="757.46,-33.76 764.64,-25.97 754.17,-27.59 757.46,-33.76"/>
</a>
</g>
</g>
<!-- Node21 -->
<g id="Node000021" class="node">
<title>Node21</title>
<g id="a_Node000021"><a xlink:href="_l_l_z_k_2_i_r_2_dialect_8h_8inc.html" target="_top" xlink:title=" ">
<polygon fill="white" stroke="#666666" points="714.12,-30.5 609.62,-30.5 609.62,0 714.12,0 714.12,-30.5"/>
<text text-anchor="start" x="617.62" y="-17" font-family="Helvetica,sans-Serif" font-size="10.00">llzk/Dialect/LLZK/IR</text>
<text text-anchor="middle" x="661.88" y="-5.75" font-family="Helvetica,sans-Serif" font-size="10.00">/Dialect.h.inc</text>
</a>
</g>
</g>
<!-- Node20&#45;&gt;Node21 -->
<g id="edge28_Node000020_Node000021" class="edge">
<title>Node20&#45;&gt;Node21</title>
<g id="a_edge28_Node000020_Node000021"><a xlink:title=" ">
<path fill="none" stroke="#63b8ff" d="M661.88,-66.11C661.88,-59.02 661.88,-50.29 661.88,-42.13"/>
<polygon fill="#63b8ff" stroke="#63b8ff" points="665.38,-42.34 661.88,-32.34 658.38,-42.34 665.38,-42.34"/>
</a>
</g>
</g>
<!-- Node22&#45;&gt;Node3 -->
<g id="edge31_Node000022_Node000003" class="edge">
<title>Node22&#45;&gt;Node3</title>
<g id="a_edge31_Node000022_Node000003"><a xlink:title=" ">
<path fill="none" stroke="#63b8ff" d="M779.78,-66.11C780.33,-57.33 781.03,-46.02 781.63,-36.4"/>
<polygon fill="#63b8ff" stroke="#63b8ff" points="785.11,-36.78 782.23,-26.58 778.12,-36.35 785.11,-36.78"/>
</a>
</g>
</g>
<!-- Node23 -->
<g id="Node000023" class="node">
<title>Node23</title>
<g id="a_Node000023"><a xlink:href="_string_2_i_r_2_dialect_8h_8inc.html" target="_top" xlink:title=" ">
<polygon fill="white" stroke="#666666" points="944.5,-30.5 851.25,-30.5 851.25,0 944.5,0 944.5,-30.5"/>
<text text-anchor="start" x="859.25" y="-17" font-family="Helvetica,sans-Serif" font-size="10.00">llzk/Dialect/String</text>
<text text-anchor="middle" x="897.88" y="-5.75" font-family="Helvetica,sans-Serif" font-size="10.00">/IR/Dialect.h.inc</text>
</a>
</g>
</g>
<!-- Node22&#45;&gt;Node23 -->
<g id="edge32_Node000022_Node000023" class="edge">
<title>Node22&#45;&gt;Node23</title>
<g id="a_edge32_Node000022_Node000023"><a xlink:title=" ">
<path fill="none" stroke="#63b8ff" d="M805.88,-66.11C822.16,-57.29 843.12,-45.93 860.92,-36.28"/>
<polygon fill="#63b8ff" stroke="#63b8ff" points="862.52,-39.39 869.65,-31.55 859.19,-33.24 862.52,-39.39"/>
</a>
</g>
</g>
<!-- Node24&#45;&gt;Node3 -->
<g id="edge34_Node000024_Node000003" class="edge">
<title>Node24&#45;&gt;Node3</title>
<g id="a_edge34_Node000024_Node000003"><a xlink:title=" ">
<path fill="none" stroke="#63b8ff" d="M866.37,-66.11C848.78,-55.61 825.18,-41.52 807.56,-30.99"/>
<polygon fill="#63b8ff" stroke="#63b8ff" points="809.64,-28.16 799.26,-26.04 806.05,-34.17 809.64,-28.16"/>
</a>
</g>
</g>
<!-- Node25 -->
<g id="Node000025" class="node">
<title>Node25</title>
<g id="a_Node000025"><a xlink:href="_struct_2_i_r_2_dialect_8h_8inc.html" target="_top" xlink:title=" ">
<polygon fill="white" stroke="#666666" points="1056.88,-30.5 962.88,-30.5 962.88,0 1056.88,0 1056.88,-30.5"/>
<text text-anchor="start" x="970.88" y="-17" font-family="Helvetica,sans-Serif" font-size="10.00">llzk/Dialect/Struct</text>
<text text-anchor="middle" x="1009.88" y="-5.75" font-family="Helvetica,sans-Serif" font-size="10.00">/IR/Dialect.h.inc</text>
</a>
</g>
</g>
<!-- Node24&#45;&gt;Node25 -->
<g id="edge35_Node000024_Node000025" class="edge">
<title>Node24&#45;&gt;Node25</title>
<g id="a_edge35_Node000024_Node000025"><a xlink:title=" ">
<path fill="none" stroke="#63b8ff" d="M917.88,-66.11C934.16,-57.29 955.12,-45.93 972.92,-36.28"/>
<polygon fill="#63b8ff" stroke="#63b8ff" points="974.52,-39.39 981.65,-31.55 971.19,-33.24 974.52,-39.39"/>
</a>
</g>
</g>
<!-- Node26&#45;&gt;Node3 -->
<g id="edge37_Node000026_Node000003" class="edge">
<title>Node26&#45;&gt;Node3</title>
<g id="a_edge37_Node000026_Node000003"><a xlink:title=" ">
<path fill="none" stroke="#63b8ff" d="M955.41,-66.83C916.6,-55.46 862.25,-39.52 824.97,-28.59"/>
<polygon fill="#63b8ff" stroke="#63b8ff" points="826.02,-25.25 815.44,-25.8 824.06,-31.97 826.02,-25.25"/>
</a>
</g>
</g>
<!-- Node27 -->
<g id="Node000027" class="node">
<title>Node27</title>
<g id="a_Node000027"><a xlink:href="_undef_2_i_r_2_dialect_8h_8inc.html" target="_top" xlink:title=" ">
<polygon fill="white" stroke="#666666" points="1168.88,-30.5 1074.88,-30.5 1074.88,0 1168.88,0 1168.88,-30.5"/>
<text text-anchor="start" x="1082.88" y="-17" font-family="Helvetica,sans-Serif" font-size="10.00">llzk/Dialect/Undef</text>
<text text-anchor="middle" x="1121.88" y="-5.75" font-family="Helvetica,sans-Serif" font-size="10.00">/IR/Dialect.h.inc</text>
</a>
</g>
</g>
<!-- Node26&#45;&gt;Node27 -->
<g id="edge38_Node000026_Node000027" class="edge">
<title>Node26&#45;&gt;Node27</title>
<g id="a_edge38_Node000026_Node000027"><a xlink:title=" ">
<path fill="none" stroke="#63b8ff" d="M1029.88,-66.11C1046.16,-57.29 1067.12,-45.93 1084.92,-36.28"/>
<polygon fill="#63b8ff" stroke="#63b8ff" points="1086.52,-39.39 1093.65,-31.55 1083.19,-33.24 1086.52,-39.39"/>
</a>
</g>
</g>
</g>
</svg>
