<?xml version="1.0" encoding="UTF-8" standalone="no"?>
<!DOCTYPE svg PUBLIC "-//W3C//DTD SVG 1.1//EN"
 "http://www.w3.org/Graphics/SVG/1.1/DTD/svg11.dtd">
<!-- Generated by graphviz version 12.2.1 (20241206.2353)
 -->
<!-- Title: include/llzk/Dialect/LLZK/IR/Attrs.h Pages: 1 -->
<svg width="2890pt" height="438pt"
 viewBox="0.00 0.00 2890.25 437.50" xmlns="http://www.w3.org/2000/svg" xmlns:xlink="http://www.w3.org/1999/xlink">
<g id="graph0" class="graph" transform="scale(1 1) rotate(0) translate(4 433.5)">
<title>include/llzk/Dialect/LLZK/IR/Attrs.h</title>
<!-- Node1 -->
<g id="Node000001" class="node">
<title>Node1</title>
<g id="a_Node000001"><a xlink:title=" ">
<polygon fill="#999999" stroke="#666666" points="2708.75,-429.5 2610.25,-429.5 2610.25,-399 2708.75,-399 2708.75,-429.5"/>
<text text-anchor="start" x="2618.25" y="-416" font-family="Helvetica,sans-Serif" font-size="10.00">include/llzk/Dialect</text>
<text text-anchor="middle" x="2659.5" y="-404.75" font-family="Helvetica,sans-Serif" font-size="10.00">/LLZK/IR/Attrs.h</text>
</a>
</g>
</g>
<!-- Node2 -->
<g id="Node000002" class="node">
<title>Node2</title>
<g id="a_Node000002"><a xlink:href="_struct_2_i_r_2_ops_8h.html" target="_top" xlink:title=" ">
<polygon fill="white" stroke="#666666" points="892.75,-363 794.25,-363 794.25,-332.5 892.75,-332.5 892.75,-363"/>
<text text-anchor="start" x="802.25" y="-349.5" font-family="Helvetica,sans-Serif" font-size="10.00">include/llzk/Dialect</text>
<text text-anchor="middle" x="843.5" y="-338.25" font-family="Helvetica,sans-Serif" font-size="10.00">/Struct/IR/Ops.h</text>
</a>
</g>
</g>
<!-- Node1&#45;&gt;Node2 -->
<g id="edge1_Node000001_Node000002" class="edge">
<title>Node1&#45;&gt;Node2</title>
<g id="a_edge1_Node000001_Node000002"><a xlink:title=" ">
<path fill="none" stroke="#63b8ff" d="M2598.83,-411.1C2318.17,-401.13 1148.54,-359.58 892.97,-350.51"/>
<polygon fill="#63b8ff" stroke="#63b8ff" points="2598.35,-414.58 2608.47,-411.44 2598.6,-407.58 2598.35,-414.58"/>
</a>
</g>
</g>
<!-- Node29 -->
<g id="Node000029" class="node">
<title>Node29</title>
<g id="a_Node000029"><a xlink:href="_l_l_z_k_2_i_r_2_dialect_8cpp.html" target="_top" xlink:title=" ">
<polygon fill="white" stroke="#666666" points="2709.12,-230 2609.88,-230 2609.88,-199.5 2709.12,-199.5 2709.12,-230"/>
<text text-anchor="start" x="2617.88" y="-216.5" font-family="Helvetica,sans-Serif" font-size="10.00">lib/Dialect/LLZK/IR</text>
<text text-anchor="middle" x="2659.5" y="-205.25" font-family="Helvetica,sans-Serif" font-size="10.00">/Dialect.cpp</text>
</a>
</g>
</g>
<!-- Node1&#45;&gt;Node29 -->
<g id="edge52_Node000001_Node000029" class="edge">
<title>Node1&#45;&gt;Node29</title>
<g id="a_edge52_Node000001_Node000029"><a xlink:title=" ">
<path fill="none" stroke="#63b8ff" d="M2659.5,-387.27C2659.5,-345.19 2659.5,-263.49 2659.5,-230.29"/>
<polygon fill="#63b8ff" stroke="#63b8ff" points="2656,-387.21 2659.5,-397.21 2663,-387.21 2656,-387.21"/>
</a>
</g>
</g>
<!-- Node30 -->
<g id="Node000030" class="node">
<title>Node30</title>
<g id="a_Node000030"><a xlink:href="_flattening_pass_8cpp.html" target="_top" xlink:title="This file implements the &#45;llzk&#45;flatten pass.">
<polygon fill="white" stroke="#666666" points="2882.25,-230 2726.75,-230 2726.75,-199.5 2882.25,-199.5 2882.25,-230"/>
<text text-anchor="start" x="2734.75" y="-216.5" font-family="Helvetica,sans-Serif" font-size="10.00">lib/Dialect/Polymorphic</text>
<text text-anchor="middle" x="2804.5" y="-205.25" font-family="Helvetica,sans-Serif" font-size="10.00">/Transforms/FlatteningPass.cpp</text>
</a>
</g>
</g>
<!-- Node1&#45;&gt;Node30 -->
<g id="edge53_Node000001_Node000030" class="edge">
<title>Node1&#45;&gt;Node30</title>
<g id="a_edge53_Node000001_Node000030"><a xlink:title=" ">
<path fill="none" stroke="#63b8ff" d="M2676.81,-389.67C2707.13,-348.37 2768.98,-264.13 2793.82,-230.29"/>
<polygon fill="#63b8ff" stroke="#63b8ff" points="2674.15,-387.38 2671.06,-397.51 2679.8,-391.52 2674.15,-387.38"/>
</a>
</g>
</g>
<!-- Node3 -->
<g id="Node000003" class="node">
<title>Node3</title>
<g id="a_Node000003"><a xlink:href="_analysis_wrappers_8h.html" target="_top" xlink:title="Convenience classes for a frequent pattern of dataflow analysis used in LLZK, where an analysis is ru...">
<polygon fill="white" stroke="#666666" points="156.5,-230 50.5,-230 50.5,-199.5 156.5,-199.5 156.5,-230"/>
<text text-anchor="start" x="58.5" y="-216.5" font-family="Helvetica,sans-Serif" font-size="10.00">include/llzk/Analysis</text>
<text text-anchor="middle" x="103.5" y="-205.25" font-family="Helvetica,sans-Serif" font-size="10.00">/AnalysisWrappers.h</text>
</a>
</g>
</g>
<!-- Node2&#45;&gt;Node3 -->
<g id="edge2_Node000002_Node000003" class="edge">
<title>Node2&#45;&gt;Node3</title>
<g id="a_edge2_Node000002_Node000003"><a xlink:title=" ">
<path fill="none" stroke="#63b8ff" d="M782.48,-343.28C694.54,-337.54 527.38,-323.89 387.5,-296.5 300.73,-279.51 201.94,-248.75 146.74,-230.49"/>
<polygon fill="#63b8ff" stroke="#63b8ff" points="782.12,-346.76 792.32,-343.91 782.56,-339.78 782.12,-346.76"/>
</a>
</g>
</g>
<!-- Node11 -->
<g id="Node000011" class="node">
<title>Node11</title>
<g id="a_Node000011"><a xlink:href="_constrain_ref_8h.html" target="_top" xlink:title=" ">
<polygon fill="white" stroke="#666666" points="1044.12,-296.5 938.88,-296.5 938.88,-266 1044.12,-266 1044.12,-296.5"/>
<text text-anchor="start" x="946.88" y="-283" font-family="Helvetica,sans-Serif" font-size="10.00">include/llzk/Analysis</text>
<text text-anchor="middle" x="991.5" y="-271.75" font-family="Helvetica,sans-Serif" font-size="10.00">/ConstrainRef.h</text>
</a>
</g>
</g>
<!-- Node2&#45;&gt;Node11 -->
<g id="edge11_Node000002_Node000011" class="edge">
<title>Node2&#45;&gt;Node11</title>
<g id="a_edge11_Node000002_Node000011"><a xlink:title=" ">
<path fill="none" stroke="#63b8ff" d="M887.4,-327.62C909.93,-317.8 936.93,-306.03 957.79,-296.94"/>
<polygon fill="#63b8ff" stroke="#63b8ff" points="886.24,-324.31 878.47,-331.51 889.04,-330.72 886.24,-324.31"/>
</a>
</g>
</g>
<!-- Node14 -->
<g id="Node000014" class="node">
<title>Node14</title>
<g id="a_Node000014"><a xlink:href="_function_2_i_r_2_ops_8h.html" target="_top" xlink:title=" ">
<polygon fill="white" stroke="#666666" points="1636.12,-296.5 1536.88,-296.5 1536.88,-266 1636.12,-266 1636.12,-296.5"/>
<text text-anchor="start" x="1544.88" y="-283" font-family="Helvetica,sans-Serif" font-size="10.00">include/llzk/Dialect</text>
<text text-anchor="middle" x="1586.5" y="-271.75" font-family="Helvetica,sans-Serif" font-size="10.00">/Function/IR/Ops.h</text>
</a>
</g>
</g>
<!-- Node2&#45;&gt;Node14 -->
<g id="edge18_Node000002_Node000014" class="edge">
<title>Node2&#45;&gt;Node14</title>
<g id="a_edge18_Node000002_Node000014"><a xlink:title=" ">
<path fill="none" stroke="#63b8ff" d="M904.29,-341.47C1047.73,-329.02 1405.08,-298 1536.76,-286.57"/>
<polygon fill="#63b8ff" stroke="#63b8ff" points="904.28,-337.96 894.62,-342.31 904.89,-344.93 904.28,-337.96"/>
</a>
</g>
</g>
<!-- Node28 -->
<g id="Node000028" class="node">
<title>Node28</title>
<g id="a_Node000028"><a xlink:href="_function_2_i_r_2_ops_8cpp.html" target="_top" xlink:title=" ">
<polygon fill="white" stroke="#666666" points="2591.5,-230 2491.5,-230 2491.5,-199.5 2591.5,-199.5 2591.5,-230"/>
<text text-anchor="start" x="2499.5" y="-216.5" font-family="Helvetica,sans-Serif" font-size="10.00">lib/Dialect/Function</text>
<text text-anchor="middle" x="2541.5" y="-205.25" font-family="Helvetica,sans-Serif" font-size="10.00">/IR/Ops.cpp</text>
</a>
</g>
</g>
<!-- Node2&#45;&gt;Node28 -->
<g id="edge45_Node000002_Node000028" class="edge">
<title>Node2&#45;&gt;Node28</title>
<g id="a_edge45_Node000002_Node000028"><a xlink:title=" ">
<path fill="none" stroke="#63b8ff" d="M904.54,-346.22C1121.09,-343.54 1872.21,-327.32 2482.5,-230 2485.31,-229.55 2488.18,-229.04 2491.08,-228.48"/>
<polygon fill="#63b8ff" stroke="#63b8ff" points="904.61,-342.72 894.65,-346.34 904.69,-349.72 904.61,-342.72"/>
</a>
</g>
</g>
<!-- Node2&#45;&gt;Node30 -->
<g id="edge47_Node000002_Node000030" class="edge">
<title>Node2&#45;&gt;Node30</title>
<g id="a_edge47_Node000002_Node000030"><a xlink:title=" ">
<path fill="none" stroke="#63b8ff" d="M904.44,-345.73C1085.81,-342.38 1637.9,-329.96 2094.5,-296.5 2372.66,-276.11 2442.14,-267.59 2718.5,-230 2721.05,-229.65 2723.64,-229.29 2726.25,-228.91"/>
<polygon fill="#63b8ff" stroke="#63b8ff" points="904.48,-342.23 894.55,-345.91 904.61,-349.22 904.48,-342.23"/>
</a>
</g>
</g>
<!-- Node31 -->
<g id="Node000031" class="node">
<title>Node31</title>
<g id="a_Node000031"><a xlink:href="_struct_2_i_r_2_ops_8cpp.html" target="_top" xlink:title=" ">
<polygon fill="white" stroke="#666666" points="433.88,-230 345.12,-230 345.12,-199.5 433.88,-199.5 433.88,-230"/>
<text text-anchor="start" x="353.12" y="-216.5" font-family="Helvetica,sans-Serif" font-size="10.00">lib/Dialect/Struct</text>
<text text-anchor="middle" x="389.5" y="-205.25" font-family="Helvetica,sans-Serif" font-size="10.00">/IR/Ops.cpp</text>
</a>
</g>
</g>
<!-- Node2&#45;&gt;Node31 -->
<g id="edge49_Node000002_Node000031" class="edge">
<title>Node2&#45;&gt;Node31</title>
<g id="a_edge49_Node000002_Node000031"><a xlink:title=" ">
<path fill="none" stroke="#63b8ff" d="M782.62,-343.56C669.51,-337.08 435.92,-320.9 408.5,-296.5 389.89,-279.93 387.76,-248.88 388.33,-230.49"/>
<polygon fill="#63b8ff" stroke="#63b8ff" points="782.14,-347.04 792.32,-344.11 782.53,-340.05 782.14,-347.04"/>
</a>
</g>
</g>
<!-- Node35 -->
<g id="Node000035" class="node">
<title>Node35</title>
<g id="a_Node000035"><a xlink:href="_polymorphic_2_i_r_2_ops_8cpp.html" target="_top" xlink:title=" ">
<polygon fill="white" stroke="#666666" points="533.75,-296.5 417.25,-296.5 417.25,-266 533.75,-266 533.75,-296.5"/>
<text text-anchor="start" x="425.25" y="-283" font-family="Helvetica,sans-Serif" font-size="10.00">lib/Dialect/Polymorphic</text>
<text text-anchor="middle" x="475.5" y="-271.75" font-family="Helvetica,sans-Serif" font-size="10.00">/IR/Ops.cpp</text>
</a>
</g>
</g>
<!-- Node2&#45;&gt;Node35 -->
<g id="edge46_Node000002_Node000035" class="edge">
<title>Node2&#45;&gt;Node35</title>
<g id="a_edge46_Node000002_Node000035"><a xlink:title=" ">
<path fill="none" stroke="#63b8ff" d="M782.47,-337.27C721.76,-327.67 626.02,-312.05 543.5,-296.5 540.42,-295.92 537.26,-295.31 534.08,-294.68"/>
<polygon fill="#63b8ff" stroke="#63b8ff" points="781.84,-340.72 792.26,-338.82 782.93,-333.8 781.84,-340.72"/>
</a>
</g>
</g>
<!-- Node36 -->
<g id="Node000036" class="node">
<title>Node36</title>
<g id="a_Node000036"><a xlink:href="_struct_2_i_r_2_dialect_8cpp.html" target="_top" xlink:title=" ">
<polygon fill="white" stroke="#666666" points="640.88,-296.5 552.12,-296.5 552.12,-266 640.88,-266 640.88,-296.5"/>
<text text-anchor="start" x="560.12" y="-283" font-family="Helvetica,sans-Serif" font-size="10.00">lib/Dialect/Struct</text>
<text text-anchor="middle" x="596.5" y="-271.75" font-family="Helvetica,sans-Serif" font-size="10.00">/IR/Dialect.cpp</text>
</a>
</g>
</g>
<!-- Node2&#45;&gt;Node36 -->
<g id="edge48_Node000002_Node000036" class="edge">
<title>Node2&#45;&gt;Node36</title>
<g id="a_edge48_Node000002_Node000036"><a xlink:title=" ">
<path fill="none" stroke="#63b8ff" d="M783.01,-331.05C744.96,-321.17 694.85,-308.13 650.5,-296.5 647.5,-295.71 644.4,-294.9 641.29,-294.08"/>
<polygon fill="#63b8ff" stroke="#63b8ff" points="781.88,-334.38 792.44,-333.5 783.64,-327.6 781.88,-334.38"/>
</a>
</g>
</g>
<!-- Node37 -->
<g id="Node000037" class="node">
<title>Node37</title>
<g id="a_Node000037"><a xlink:href="_struct_2_i_r_2_types_8cpp.html" target="_top" xlink:title=" ">
<polygon fill="white" stroke="#666666" points="747.88,-296.5 659.12,-296.5 659.12,-266 747.88,-266 747.88,-296.5"/>
<text text-anchor="start" x="667.12" y="-283" font-family="Helvetica,sans-Serif" font-size="10.00">lib/Dialect/Struct</text>
<text text-anchor="middle" x="703.5" y="-271.75" font-family="Helvetica,sans-Serif" font-size="10.00">/IR/Types.cpp</text>
</a>
</g>
</g>
<!-- Node2&#45;&gt;Node37 -->
<g id="edge50_Node000002_Node000037" class="edge">
<title>Node2&#45;&gt;Node37</title>
<g id="a_edge50_Node000002_Node000037"><a xlink:title=" ">
<path fill="none" stroke="#63b8ff" d="M801.35,-327.33C780.08,-317.53 754.72,-305.85 735.14,-296.83"/>
<polygon fill="#63b8ff" stroke="#63b8ff" points="799.81,-330.48 810.36,-331.48 802.74,-324.12 799.81,-330.48"/>
</a>
</g>
</g>
<!-- Node38 -->
<g id="Node000038" class="node">
<title>Node38</title>
<g id="a_Node000038"><a xlink:href="_l_l_z_k_unused_declaration_elimination_pass_8cpp.html" target="_top" xlink:title="This file implements the &#45;llzk&#45;unused&#45;declaration&#45;elim pass.">
<polygon fill="white" stroke="#666666" points="920.88,-296.5 766.12,-296.5 766.12,-266 920.88,-266 920.88,-296.5"/>
<text text-anchor="start" x="774.12" y="-283" font-family="Helvetica,sans-Serif" font-size="10.00">lib/Transforms/LLZKUnused</text>
<text text-anchor="middle" x="843.5" y="-271.75" font-family="Helvetica,sans-Serif" font-size="10.00">DeclarationEliminationPass.cpp</text>
</a>
</g>
</g>
<!-- Node2&#45;&gt;Node38 -->
<g id="edge51_Node000002_Node000038" class="edge">
<title>Node2&#45;&gt;Node38</title>
<g id="a_edge51_Node000002_Node000038"><a xlink:title=" ">
<path fill="none" stroke="#63b8ff" d="M843.5,-320.81C843.5,-312.64 843.5,-303.91 843.5,-296.83"/>
<polygon fill="#63b8ff" stroke="#63b8ff" points="840,-320.6 843.5,-330.6 847,-320.6 840,-320.6"/>
</a>
</g>
</g>
<!-- Node4 -->
<g id="Node000004" class="node">
<title>Node4</title>
<g id="a_Node000004"><a xlink:href="_constraint_dependency_graph_8h.html" target="_top" xlink:title=" ">
<polygon fill="white" stroke="#666666" points="316.12,-163.5 162.88,-163.5 162.88,-133 316.12,-133 316.12,-163.5"/>
<text text-anchor="start" x="170.88" y="-150" font-family="Helvetica,sans-Serif" font-size="10.00">include/llzk/Analysis</text>
<text text-anchor="middle" x="239.5" y="-138.75" font-family="Helvetica,sans-Serif" font-size="10.00">/ConstraintDependencyGraph.h</text>
</a>
</g>
</g>
<!-- Node3&#45;&gt;Node4 -->
<g id="edge3_Node000003_Node000004" class="edge">
<title>Node3&#45;&gt;Node4</title>
<g id="a_edge3_Node000003_Node000004"><a xlink:title=" ">
<path fill="none" stroke="#63b8ff" d="M144.73,-194.2C165.33,-184.43 189.83,-172.81 208.76,-163.83"/>
<polygon fill="#63b8ff" stroke="#63b8ff" points="143.26,-191.02 135.73,-198.47 146.26,-197.34 143.26,-191.02"/>
</a>
</g>
</g>
<!-- Node5 -->
<g id="Node000005" class="node">
<title>Node5</title>
<g id="a_Node000005"><a xlink:href="_interval_analysis_8h.html" target="_top" xlink:title=" ">
<polygon fill="white" stroke="#666666" points="292.12,-97 186.88,-97 186.88,-66.5 292.12,-66.5 292.12,-97"/>
<text text-anchor="start" x="194.88" y="-83.5" font-family="Helvetica,sans-Serif" font-size="10.00">include/llzk/Analysis</text>
<text text-anchor="middle" x="239.5" y="-72.25" font-family="Helvetica,sans-Serif" font-size="10.00">/IntervalAnalysis.h</text>
</a>
</g>
</g>
<!-- Node3&#45;&gt;Node5 -->
<g id="edge10_Node000003_Node000005" class="edge">
<title>Node3&#45;&gt;Node5</title>
<g id="a_edge10_Node000003_Node000005"><a xlink:title=" ">
<path fill="none" stroke="#63b8ff" d="M114.67,-189.25C123.42,-172.01 136.88,-149.2 153.5,-133 168.73,-118.15 189.18,-105.97 206.32,-97.32"/>
<polygon fill="#63b8ff" stroke="#63b8ff" points="111.73,-187.27 110.5,-197.8 118.03,-190.34 111.73,-187.27"/>
</a>
</g>
</g>
<!-- Node4&#45;&gt;Node5 -->
<g id="edge4_Node000004_Node000005" class="edge">
<title>Node4&#45;&gt;Node5</title>
<g id="a_edge4_Node000004_Node000005"><a xlink:title=" ">
<path fill="none" stroke="#63b8ff" d="M239.5,-121.31C239.5,-113.14 239.5,-104.41 239.5,-97.33"/>
<polygon fill="#63b8ff" stroke="#63b8ff" points="236,-121.1 239.5,-131.1 243,-121.1 236,-121.1"/>
</a>
</g>
</g>
<!-- Node8 -->
<g id="Node000008" class="node">
<title>Node8</title>
<g id="a_Node000008"><a xlink:href="_constrain_ref_lattice_8cpp.html" target="_top" xlink:title=" ">
<polygon fill="white" stroke="#666666" points="437,-97 310,-97 310,-66.5 437,-66.5 437,-97"/>
<text text-anchor="start" x="318" y="-83.5" font-family="Helvetica,sans-Serif" font-size="10.00">lib/Analysis/ConstrainRef</text>
<text text-anchor="middle" x="373.5" y="-72.25" font-family="Helvetica,sans-Serif" font-size="10.00">Lattice.cpp</text>
</a>
</g>
</g>
<!-- Node4&#45;&gt;Node8 -->
<g id="edge7_Node000004_Node000008" class="edge">
<title>Node4&#45;&gt;Node8</title>
<g id="a_edge7_Node000004_Node000008"><a xlink:title=" ">
<path fill="none" stroke="#63b8ff" d="M280.12,-127.7C300.42,-117.93 324.56,-106.31 343.21,-97.33"/>
<polygon fill="#63b8ff" stroke="#63b8ff" points="278.76,-124.47 271.27,-131.96 281.8,-130.77 278.76,-124.47"/>
</a>
</g>
</g>
<!-- Node9 -->
<g id="Node000009" class="node">
<title>Node9</title>
<g id="a_Node000009"><a xlink:href="_constraint_dependency_graph_8cpp.html" target="_top" xlink:title=" ">
<polygon fill="white" stroke="#666666" points="1598,-97 1429,-97 1429,-66.5 1598,-66.5 1598,-97"/>
<text text-anchor="start" x="1437" y="-83.5" font-family="Helvetica,sans-Serif" font-size="10.00">lib/Analysis/ConstraintDependency</text>
<text text-anchor="middle" x="1513.5" y="-72.25" font-family="Helvetica,sans-Serif" font-size="10.00">Graph.cpp</text>
</a>
</g>
</g>
<!-- Node4&#45;&gt;Node9 -->
<g id="edge8_Node000004_Node000009" class="edge">
<title>Node4&#45;&gt;Node9</title>
<g id="a_edge8_Node000004_Node000009"><a xlink:title=" ">
<path fill="none" stroke="#63b8ff" d="M327.51,-142.79C561.75,-130.94 1198.26,-98.71 1428.74,-87.04"/>
<polygon fill="#63b8ff" stroke="#63b8ff" points="327.65,-139.28 317.84,-143.28 328,-146.27 327.65,-139.28"/>
</a>
</g>
</g>
<!-- Node10 -->
<g id="Node000010" class="node">
<title>Node10</title>
<g id="a_Node000010"><a xlink:href="_constraint_dependency_graph_pass_8cpp.html" target="_top" xlink:title="This file implements the &#45;llzk&#45;print&#45;constraint&#45;dependency&#45;graphs pass.">
<polygon fill="white" stroke="#666666" points="169,-97 0,-97 0,-66.5 169,-66.5 169,-97"/>
<text text-anchor="start" x="8" y="-83.5" font-family="Helvetica,sans-Serif" font-size="10.00">lib/Analysis/ConstraintDependency</text>
<text text-anchor="middle" x="84.5" y="-72.25" font-family="Helvetica,sans-Serif" font-size="10.00">GraphPass.cpp</text>
</a>
</g>
</g>
<!-- Node4&#45;&gt;Node10 -->
<g id="edge9_Node000004_Node000010" class="edge">
<title>Node4&#45;&gt;Node10</title>
<g id="a_edge9_Node000004_Node000010"><a xlink:title=" ">
<path fill="none" stroke="#63b8ff" d="M193.84,-128.25C170.19,-118.41 141.75,-106.57 119.8,-97.44"/>
<polygon fill="#63b8ff" stroke="#63b8ff" points="192.35,-131.42 202.93,-132.03 195.04,-124.96 192.35,-131.42"/>
</a>
</g>
</g>
<!-- Node6 -->
<g id="Node000006" class="node">
<title>Node6</title>
<g id="a_Node000006"><a xlink:href="_interval_analysis_8cpp.html" target="_top" xlink:title=" ">
<polygon fill="white" stroke="#666666" points="235.38,-24.88 77.62,-24.88 77.62,-5.63 235.38,-5.63 235.38,-24.88"/>
<text text-anchor="middle" x="156.5" y="-11.38" font-family="Helvetica,sans-Serif" font-size="10.00">lib/Analysis/IntervalAnalysis.cpp</text>
</a>
</g>
</g>
<!-- Node5&#45;&gt;Node6 -->
<g id="edge5_Node000005_Node000006" class="edge">
<title>Node5&#45;&gt;Node6</title>
<g id="a_edge5_Node000005_Node000006"><a xlink:title=" ">
<path fill="none" stroke="#63b8ff" d="M211.77,-59.2C196.79,-47.56 179.11,-33.82 167.85,-25.07"/>
<polygon fill="#63b8ff" stroke="#63b8ff" points="209.43,-61.81 219.47,-65.19 213.72,-56.29 209.43,-61.81"/>
</a>
</g>
</g>
<!-- Node7 -->
<g id="Node000007" class="node">
<title>Node7</title>
<g id="a_Node000007"><a xlink:href="_interval_analysis_pass_8cpp.html" target="_top" xlink:title="This file implements the &#45;llzk&#45;print&#45;interval&#45;analysis pass.">
<polygon fill="white" stroke="#666666" points="392,-30.5 253,-30.5 253,0 392,0 392,-30.5"/>
<text text-anchor="start" x="261" y="-17" font-family="Helvetica,sans-Serif" font-size="10.00">lib/Analysis/IntervalAnalysis</text>
<text text-anchor="middle" x="322.5" y="-5.75" font-family="Helvetica,sans-Serif" font-size="10.00">Pass.cpp</text>
</a>
</g>
</g>
<!-- Node5&#45;&gt;Node7 -->
<g id="edge6_Node000005_Node000007" class="edge">
<title>Node5&#45;&gt;Node7</title>
<g id="a_edge6_Node000005_Node000007"><a xlink:title=" ">
<path fill="none" stroke="#63b8ff" d="M267.11,-59.29C279.14,-49.94 292.93,-39.23 303.74,-30.83"/>
<polygon fill="#63b8ff" stroke="#63b8ff" points="265.28,-56.29 259.53,-65.19 269.57,-61.81 265.28,-56.29"/>
</a>
</g>
</g>
<!-- Node11&#45;&gt;Node4 -->
<g id="edge16_Node000011_Node000004" class="edge">
<title>Node11&#45;&gt;Node4</title>
<g id="a_edge16_Node000011_Node000004"><a xlink:title=" ">
<path fill="none" stroke="#63b8ff" d="M927.31,-266.27C808.65,-257.16 257.22,-286.45 203.5,-230 185.41,-210.99 207.55,-181.34 224.24,-163.76"/>
<polygon fill="#63b8ff" stroke="#63b8ff" points="926.7,-269.73 937.01,-267.27 927.42,-262.76 926.7,-269.73"/>
</a>
</g>
</g>
<!-- Node12 -->
<g id="Node000012" class="node">
<title>Node12</title>
<g id="a_Node000012"><a xlink:href="_constrain_ref_lattice_8h.html" target="_top" xlink:title=" ">
<polygon fill="white" stroke="#666666" points="326.62,-230 212.38,-230 212.38,-199.5 326.62,-199.5 326.62,-230"/>
<text text-anchor="start" x="220.38" y="-216.5" font-family="Helvetica,sans-Serif" font-size="10.00">include/llzk/Analysis</text>
<text text-anchor="middle" x="269.5" y="-205.25" font-family="Helvetica,sans-Serif" font-size="10.00">/ConstrainRefLattice.h</text>
</a>
</g>
</g>
<!-- Node11&#45;&gt;Node12 -->
<g id="edge12_Node000011_Node000012" class="edge">
<title>Node11&#45;&gt;Node12</title>
<g id="a_edge12_Node000011_Node000012"><a xlink:title=" ">
<path fill="none" stroke="#63b8ff" d="M927.14,-265.85C666.14,-229.34 594.43,-265.06 336.5,-230 333.32,-229.57 330.06,-229.07 326.78,-228.52"/>
<polygon fill="#63b8ff" stroke="#63b8ff" points="926.62,-269.31 937.01,-267.25 927.6,-262.38 926.62,-269.31"/>
</a>
</g>
</g>
<!-- Node13 -->
<g id="Node000013" class="node">
<title>Node13</title>
<g id="a_Node000013"><a xlink:href="_constrain_ref_8cpp.html" target="_top" xlink:title=" ">
<polygon fill="white" stroke="#666666" points="597.38,-224.38 451.62,-224.38 451.62,-205.12 597.38,-205.12 597.38,-224.38"/>
<text text-anchor="middle" x="524.5" y="-210.88" font-family="Helvetica,sans-Serif" font-size="10.00">lib/Analysis/ConstrainRef.cpp</text>
</a>
</g>
</g>
<!-- Node11&#45;&gt;Node13 -->
<g id="edge17_Node000011_Node000013" class="edge">
<title>Node11&#45;&gt;Node13</title>
<g id="a_edge17_Node000011_Node000013"><a xlink:title=" ">
<path fill="none" stroke="#63b8ff" d="M927.33,-265.76C787.36,-242.39 748.82,-249.01 611.5,-230 600.43,-228.47 588.6,-226.65 577.35,-224.84"/>
<polygon fill="#63b8ff" stroke="#63b8ff" points="926.54,-269.18 936.99,-267.4 927.71,-262.27 926.54,-269.18"/>
</a>
</g>
</g>
<!-- Node12&#45;&gt;Node4 -->
<g id="edge13_Node000012_Node000004" class="edge">
<title>Node12&#45;&gt;Node4</title>
<g id="a_edge13_Node000012_Node000004"><a xlink:title=" ">
<path fill="none" stroke="#63b8ff" d="M257.96,-188.94C254.01,-180.46 249.73,-171.24 246.28,-163.83"/>
<polygon fill="#63b8ff" stroke="#63b8ff" points="254.66,-190.15 262.05,-197.74 261.01,-187.2 254.66,-190.15"/>
</a>
</g>
</g>
<!-- Node12&#45;&gt;Node8 -->
<g id="edge14_Node000012_Node000008" class="edge">
<title>Node12&#45;&gt;Node8</title>
<g id="a_edge14_Node000012_Node000008"><a xlink:title=" ">
<path fill="none" stroke="#63b8ff" d="M297,-192.02C306.63,-183.68 317.12,-173.7 325.5,-163.5 342.9,-142.33 358.13,-114.17 366.55,-97.31"/>
<polygon fill="#63b8ff" stroke="#63b8ff" points="295.04,-189.09 289.64,-198.2 299.55,-194.45 295.04,-189.09"/>
</a>
</g>
</g>
<!-- Node12&#45;&gt;Node9 -->
<g id="edge15_Node000012_Node000009" class="edge">
<title>Node12&#45;&gt;Node9</title>
<g id="a_edge15_Node000012_Node000009"><a xlink:title=" ">
<path fill="none" stroke="#63b8ff" d="M338.1,-199.38C751.92,-135.65 1236.02,-100.39 1428.53,-87.94"/>
<polygon fill="#63b8ff" stroke="#63b8ff" points="337.65,-195.91 328.3,-200.89 338.72,-202.82 337.65,-195.91"/>
</a>
</g>
</g>
<!-- Node14&#45;&gt;Node5 -->
<g id="edge23_Node000014_Node000005" class="edge">
<title>Node14&#45;&gt;Node5</title>
<g id="a_edge23_Node000014_Node000005"><a xlink:title=" ">
<path fill="none" stroke="#63b8ff" d="M1525.04,-279.15C1328.95,-275.36 726.31,-261.24 644.5,-230 624.27,-222.27 625.59,-209.73 606.5,-199.5 551.26,-169.88 380.06,-121.02 292.4,-96.99"/>
<polygon fill="#63b8ff" stroke="#63b8ff" points="1524.96,-282.65 1535.02,-279.35 1525.09,-275.65 1524.96,-282.65"/>
</a>
</g>
</g>
<!-- Node14&#45;&gt;Node8 -->
<g id="edge30_Node000014_Node000008" class="edge">
<title>Node14&#45;&gt;Node8</title>
<g id="a_edge30_Node000014_Node000008"><a xlink:title=" ">
<path fill="none" stroke="#63b8ff" d="M1560.89,-258.07C1533.89,-234.78 1494.66,-201.27 1490.5,-199.5 1298.15,-117.78 644.66,-91.05 437.23,-84.52"/>
<polygon fill="#63b8ff" stroke="#63b8ff" points="1558.51,-260.64 1568.37,-264.53 1563.09,-255.34 1558.51,-260.64"/>
</a>
</g>
</g>
<!-- Node14&#45;&gt;Node9 -->
<g id="edge31_Node000014_Node000009" class="edge">
<title>Node14&#45;&gt;Node9</title>
<g id="a_edge31_Node000014_Node000009"><a xlink:title=" ">
<path fill="none" stroke="#63b8ff" d="M1621,-258.65C1630.4,-250.87 1639.38,-241.2 1644.5,-230 1662.41,-190.79 1668.92,-168.53 1644.5,-133 1632.91,-116.14 1614.82,-104.93 1595.75,-97.49"/>
<polygon fill="#63b8ff" stroke="#63b8ff" points="1619.03,-255.75 1613.19,-264.6 1623.27,-261.32 1619.03,-255.75"/>
</a>
</g>
</g>
<!-- Node14&#45;&gt;Node13 -->
<g id="edge29_Node000014_Node000013" class="edge">
<title>Node14&#45;&gt;Node13</title>
<g id="a_edge29_Node000014_Node000013"><a xlink:title=" ">
<path fill="none" stroke="#63b8ff" d="M1525.12,-279.45C1371.04,-276.92 955.6,-266.93 611.5,-230 599.33,-228.69 586.26,-226.81 574.06,-224.84"/>
<polygon fill="#63b8ff" stroke="#63b8ff" points="1525.06,-282.95 1535.11,-279.61 1525.17,-275.95 1525.06,-282.95"/>
</a>
</g>
</g>
<!-- Node15 -->
<g id="Node000015" class="node">
<title>Node15</title>
<g id="a_Node000015"><a xlink:href="_call_graph_analyses_8h.html" target="_top" xlink:title=" ">
<polygon fill="white" stroke="#666666" points="1841.12,-230 1729.88,-230 1729.88,-199.5 1841.12,-199.5 1841.12,-230"/>
<text text-anchor="start" x="1737.88" y="-216.5" font-family="Helvetica,sans-Serif" font-size="10.00">include/llzk/Analysis</text>
<text text-anchor="middle" x="1785.5" y="-205.25" font-family="Helvetica,sans-Serif" font-size="10.00">/CallGraphAnalyses.h</text>
</a>
</g>
</g>
<!-- Node14&#45;&gt;Node15 -->
<g id="edge19_Node000014_Node000015" class="edge">
<title>Node14&#45;&gt;Node15</title>
<g id="a_edge19_Node000014_Node000015"><a xlink:title=" ">
<path fill="none" stroke="#63b8ff" d="M1642.27,-262.17C1673.18,-252.16 1711.11,-239.86 1740.18,-230.44"/>
<polygon fill="#63b8ff" stroke="#63b8ff" points="1641.53,-258.73 1633.1,-265.15 1643.69,-265.39 1641.53,-258.73"/>
</a>
</g>
</g>
<!-- Node16 -->
<g id="Node000016" class="node">
<title>Node16</title>
<g id="a_Node000016"><a xlink:href="_call_graph_analyses_8cpp.html" target="_top" xlink:title=" ">
<polygon fill="white" stroke="#666666" points="2215.5,-157.88 2043.5,-157.88 2043.5,-138.62 2215.5,-138.62 2215.5,-157.88"/>
<text text-anchor="middle" x="2129.5" y="-144.38" font-family="Helvetica,sans-Serif" font-size="10.00">lib/Analysis/CallGraphAnalyses.cpp</text>
</a>
</g>
</g>
<!-- Node14&#45;&gt;Node16 -->
<g id="edge27_Node000014_Node000016" class="edge">
<title>Node14&#45;&gt;Node16</title>
<g id="a_edge27_Node000014_Node000016"><a xlink:title=" ">
<path fill="none" stroke="#63b8ff" d="M1647.72,-277.01C1702.93,-272.17 1785.24,-260.11 1850.5,-230 1870.16,-220.93 1868.92,-208.74 1888.5,-199.5 1920.1,-184.59 2009.64,-168.23 2070.22,-158.35"/>
<polygon fill="#63b8ff" stroke="#63b8ff" points="1647.55,-273.51 1637.87,-277.82 1648.12,-280.49 1647.55,-273.51"/>
</a>
</g>
</g>
<!-- Node17 -->
<g id="Node000017" class="node">
<title>Node17</title>
<g id="a_Node000017"><a xlink:href="_call_graph_passes_8cpp.html" target="_top" xlink:title="This file implements the &#45;llzk&#45;print&#45;call&#45;graph and &#45;llzk&#45;print&#45;call&#45;graph&#45;sccs passes.">
<polygon fill="white" stroke="#666666" points="1855.75,-157.88 1691.25,-157.88 1691.25,-138.62 1855.75,-138.62 1855.75,-157.88"/>
<text text-anchor="middle" x="1773.5" y="-144.38" font-family="Helvetica,sans-Serif" font-size="10.00">lib/Analysis/CallGraphPasses.cpp</text>
</a>
</g>
</g>
<!-- Node14&#45;&gt;Node17 -->
<g id="edge28_Node000014_Node000017" class="edge">
<title>Node14&#45;&gt;Node17</title>
<g id="a_edge28_Node000014_Node000017"><a xlink:title=" ">
<path fill="none" stroke="#63b8ff" d="M1626.25,-260.47C1642.56,-251.8 1661.36,-241.09 1677.5,-230 1711.43,-206.69 1747.58,-173.79 1764.19,-158.16"/>
<polygon fill="#63b8ff" stroke="#63b8ff" points="1625.04,-257.15 1617.8,-264.88 1628.29,-263.35 1625.04,-257.15"/>
</a>
</g>
</g>
<!-- Node19 -->
<g id="Node000019" class="node">
<title>Node19</title>
<g id="a_Node000019"><a xlink:href="_builders_8h.html" target="_top" xlink:title=" ">
<polygon fill="white" stroke="#666666" points="1635.75,-230 1537.25,-230 1537.25,-199.5 1635.75,-199.5 1635.75,-230"/>
<text text-anchor="start" x="1545.25" y="-216.5" font-family="Helvetica,sans-Serif" font-size="10.00">include/llzk/Dialect</text>
<text text-anchor="middle" x="1586.5" y="-205.25" font-family="Helvetica,sans-Serif" font-size="10.00">/Shared/Builders.h</text>
</a>
</g>
</g>
<!-- Node14&#45;&gt;Node19 -->
<g id="edge24_Node000014_Node000019" class="edge">
<title>Node14&#45;&gt;Node19</title>
<g id="a_edge24_Node000014_Node000019"><a xlink:title=" ">
<path fill="none" stroke="#63b8ff" d="M1586.5,-254.31C1586.5,-246.14 1586.5,-237.41 1586.5,-230.33"/>
<polygon fill="#63b8ff" stroke="#63b8ff" points="1583,-254.1 1586.5,-264.1 1590,-254.1 1583,-254.1"/>
</a>
</g>
</g>
<!-- Node21 -->
<g id="Node000021" class="node">
<title>Node21</title>
<g id="a_Node000021"><a xlink:href="_call_graph_8cpp.html" target="_top" xlink:title=" ">
<polygon fill="white" stroke="#666666" points="2029.25,-224.38 1897.75,-224.38 1897.75,-205.12 2029.25,-205.12 2029.25,-224.38"/>
<text text-anchor="middle" x="1963.5" y="-210.88" font-family="Helvetica,sans-Serif" font-size="10.00">lib/Analysis/CallGraph.cpp</text>
</a>
</g>
</g>
<!-- Node14&#45;&gt;Node21 -->
<g id="edge26_Node000014_Node000021" class="edge">
<title>Node14&#45;&gt;Node21</title>
<g id="a_edge26_Node000014_Node000021"><a xlink:title=" ">
<path fill="none" stroke="#63b8ff" d="M1647.62,-270.07C1707.68,-260.02 1801.94,-244.16 1883.5,-230 1892.95,-228.36 1903.03,-226.58 1912.73,-224.86"/>
<polygon fill="#63b8ff" stroke="#63b8ff" points="1647.22,-266.59 1637.94,-271.69 1648.38,-273.49 1647.22,-266.59"/>
</a>
</g>
</g>
<!-- Node22 -->
<g id="Node000022" class="node">
<title>Node22</title>
<g id="a_Node000022"><a xlink:href="_dense_analysis_8cpp.html" target="_top" xlink:title=" ">
<polygon fill="white" stroke="#666666" points="2201.5,-224.38 2047.5,-224.38 2047.5,-205.12 2201.5,-205.12 2201.5,-224.38"/>
<text text-anchor="middle" x="2124.5" y="-210.88" font-family="Helvetica,sans-Serif" font-size="10.00">lib/Analysis/DenseAnalysis.cpp</text>
</a>
</g>
</g>
<!-- Node14&#45;&gt;Node22 -->
<g id="edge32_Node000014_Node000022" class="edge">
<title>Node14&#45;&gt;Node22</title>
<g id="a_edge32_Node000014_Node000022"><a xlink:title=" ">
<path fill="none" stroke="#63b8ff" d="M1647.68,-274.5C1734.69,-266.08 1899.09,-249.28 2038.5,-230 2049.44,-228.49 2061.14,-226.68 2072.27,-224.86"/>
<polygon fill="#63b8ff" stroke="#63b8ff" points="1647.56,-270.99 1637.94,-275.43 1648.23,-277.96 1647.56,-270.99"/>
</a>
</g>
</g>
<!-- Node23 -->
<g id="Node000023" class="node">
<title>Node23</title>
<g id="a_Node000023"><a xlink:href="_array_to_scalar_pass_8cpp.html" target="_top" xlink:title="This file implements the &#45;llzk&#45;array&#45;to&#45;scalar pass.">
<polygon fill="white" stroke="#666666" points="2357.62,-230 2219.38,-230 2219.38,-199.5 2357.62,-199.5 2357.62,-230"/>
<text text-anchor="start" x="2227.38" y="-216.5" font-family="Helvetica,sans-Serif" font-size="10.00">lib/Dialect/Array/Transforms</text>
<text text-anchor="middle" x="2288.5" y="-205.25" font-family="Helvetica,sans-Serif" font-size="10.00">/ArrayToScalarPass.cpp</text>
</a>
</g>
</g>
<!-- Node14&#45;&gt;Node23 -->
<g id="edge33_Node000014_Node000023" class="edge">
<title>Node14&#45;&gt;Node23</title>
<g id="a_edge33_Node000014_Node000023"><a xlink:title=" ">
<path fill="none" stroke="#63b8ff" d="M1647.82,-277.36C1759.9,-271.62 2005.21,-256.95 2210.5,-230 2213.37,-229.62 2216.29,-229.21 2219.23,-228.78"/>
<polygon fill="#63b8ff" stroke="#63b8ff" points="1647.75,-273.86 1637.94,-277.86 1648.1,-280.85 1647.75,-273.86"/>
</a>
</g>
</g>
<!-- Node24 -->
<g id="Node000024" class="node">
<title>Node24</title>
<g id="a_Node000024"><a xlink:href="_cast_2_i_r_2_ops_8cpp.html" target="_top" xlink:title=" ">
<polygon fill="white" stroke="#666666" points="2473,-230 2376,-230 2376,-199.5 2473,-199.5 2473,-230"/>
<text text-anchor="start" x="2384" y="-216.5" font-family="Helvetica,sans-Serif" font-size="10.00">lib/Dialect/Cast/IR</text>
<text text-anchor="middle" x="2424.5" y="-205.25" font-family="Helvetica,sans-Serif" font-size="10.00">/Ops.cpp</text>
</a>
</g>
</g>
<!-- Node14&#45;&gt;Node24 -->
<g id="edge34_Node000014_Node000024" class="edge">
<title>Node14&#45;&gt;Node24</title>
<g id="a_edge34_Node000014_Node000024"><a xlink:title=" ">
<path fill="none" stroke="#63b8ff" d="M1648.02,-279.97C1780.28,-278.55 2101.24,-270.8 2366.5,-230 2369.47,-229.54 2372.51,-229.01 2375.57,-228.41"/>
<polygon fill="#63b8ff" stroke="#63b8ff" points="1648.04,-276.47 1638.08,-280.06 1648.11,-283.47 1648.04,-276.47"/>
</a>
</g>
</g>
<!-- Node25 -->
<g id="Node000025" class="node">
<title>Node25</title>
<g id="a_Node000025"><a xlink:href="_constrain_2_i_r_2_ops_8cpp.html" target="_top" xlink:title=" ">
<polygon fill="white" stroke="#666666" points="757.75,-230 653.25,-230 653.25,-199.5 757.75,-199.5 757.75,-230"/>
<text text-anchor="start" x="661.25" y="-216.5" font-family="Helvetica,sans-Serif" font-size="10.00">lib/Dialect/Constrain</text>
<text text-anchor="middle" x="705.5" y="-205.25" font-family="Helvetica,sans-Serif" font-size="10.00">/IR/Ops.cpp</text>
</a>
</g>
</g>
<!-- Node14&#45;&gt;Node25 -->
<g id="edge35_Node000014_Node000025" class="edge">
<title>Node14&#45;&gt;Node25</title>
<g id="a_edge35_Node000014_Node000025"><a xlink:title=" ">
<path fill="none" stroke="#63b8ff" d="M1525.32,-280.01C1388.55,-278.7 1047.95,-271.2 766.5,-230 763.7,-229.59 760.84,-229.12 757.97,-228.6"/>
<polygon fill="#63b8ff" stroke="#63b8ff" points="1525.21,-283.51 1535.24,-280.09 1525.27,-276.51 1525.21,-283.51"/>
</a>
</g>
</g>
<!-- Node26 -->
<g id="Node000026" class="node">
<title>Node26</title>
<g id="a_Node000026"><a xlink:href="_function_2_i_r_2_dialect_8cpp.html" target="_top" xlink:title=" ">
<polygon fill="white" stroke="#666666" points="875.5,-230 775.5,-230 775.5,-199.5 875.5,-199.5 875.5,-230"/>
<text text-anchor="start" x="783.5" y="-216.5" font-family="Helvetica,sans-Serif" font-size="10.00">lib/Dialect/Function</text>
<text text-anchor="middle" x="825.5" y="-205.25" font-family="Helvetica,sans-Serif" font-size="10.00">/IR/Dialect.cpp</text>
</a>
</g>
</g>
<!-- Node14&#45;&gt;Node26 -->
<g id="edge36_Node000014_Node000026" class="edge">
<title>Node14&#45;&gt;Node26</title>
<g id="a_edge36_Node000014_Node000026"><a xlink:title=" ">
<path fill="none" stroke="#63b8ff" d="M1525.04,-279.26C1402.49,-276.54 1119.3,-266.5 884.5,-230 881.69,-229.56 878.81,-229.06 875.92,-228.51"/>
<polygon fill="#63b8ff" stroke="#63b8ff" points="1524.8,-282.76 1534.88,-279.47 1524.95,-275.76 1524.8,-282.76"/>
</a>
</g>
</g>
<!-- Node27 -->
<g id="Node000027" class="node">
<title>Node27</title>
<g id="a_Node000027"><a xlink:href="_op_traits_8cpp.html" target="_top" xlink:title=" ">
<polygon fill="white" stroke="#666666" points="993.5,-230 893.5,-230 893.5,-199.5 993.5,-199.5 993.5,-230"/>
<text text-anchor="start" x="901.5" y="-216.5" font-family="Helvetica,sans-Serif" font-size="10.00">lib/Dialect/Function</text>
<text text-anchor="middle" x="943.5" y="-205.25" font-family="Helvetica,sans-Serif" font-size="10.00">/IR/OpTraits.cpp</text>
</a>
</g>
</g>
<!-- Node14&#45;&gt;Node27 -->
<g id="edge37_Node000014_Node000027" class="edge">
<title>Node14&#45;&gt;Node27</title>
<g id="a_edge37_Node000014_Node000027"><a xlink:title=" ">
<path fill="none" stroke="#63b8ff" d="M1525.08,-278.02C1418.24,-273.46 1191.52,-260.78 1002.5,-230 999.69,-229.54 996.82,-229.02 993.93,-228.46"/>
<polygon fill="#63b8ff" stroke="#63b8ff" points="1524.93,-281.52 1535.07,-278.44 1525.22,-274.52 1524.93,-281.52"/>
</a>
</g>
</g>
<!-- Node14&#45;&gt;Node28 -->
<g id="edge38_Node000014_Node000028" class="edge">
<title>Node14&#45;&gt;Node28</title>
<g id="a_edge38_Node000014_Node000028"><a xlink:title=" ">
<path fill="none" stroke="#63b8ff" d="M1647.75,-278.26C1822.42,-272.36 2320.83,-253.86 2482.5,-230 2485.31,-229.58 2488.19,-229.1 2491.09,-228.56"/>
<polygon fill="#63b8ff" stroke="#63b8ff" points="1647.86,-274.76 1637.99,-278.59 1648.1,-281.75 1647.86,-274.76"/>
</a>
</g>
</g>
<!-- Node14&#45;&gt;Node29 -->
<g id="edge39_Node000014_Node000029" class="edge">
<title>Node14&#45;&gt;Node29</title>
<g id="a_edge39_Node000014_Node000029"><a xlink:title=" ">
<path fill="none" stroke="#63b8ff" d="M1647.87,-278.72C1837.9,-273.74 2414.99,-256.76 2600.5,-230 2603.42,-229.58 2606.41,-229.08 2609.41,-228.52"/>
<polygon fill="#63b8ff" stroke="#63b8ff" points="1647.86,-275.22 1637.96,-278.98 1648.05,-282.21 1647.86,-275.22"/>
</a>
</g>
</g>
<!-- Node14&#45;&gt;Node30 -->
<g id="edge40_Node000014_Node000030" class="edge">
<title>Node14&#45;&gt;Node30</title>
<g id="a_edge40_Node000014_Node000030"><a xlink:title=" ">
<path fill="none" stroke="#63b8ff" d="M1648.07,-280.1C1818.64,-279.14 2311.56,-272.59 2718.5,-230 2721.06,-229.73 2723.66,-229.44 2726.28,-229.12"/>
<polygon fill="#63b8ff" stroke="#63b8ff" points="1648.09,-276.6 1638.1,-280.16 1648.12,-283.6 1648.09,-276.6"/>
</a>
</g>
</g>
<!-- Node14&#45;&gt;Node31 -->
<g id="edge41_Node000014_Node000031" class="edge">
<title>Node14&#45;&gt;Node31</title>
<g id="a_edge41_Node000014_Node000031"><a xlink:title=" ">
<path fill="none" stroke="#63b8ff" d="M1524.99,-278.34C1302.85,-271.32 549.5,-246.53 442.5,-230 439.77,-229.58 436.98,-229.07 434.17,-228.5"/>
<polygon fill="#63b8ff" stroke="#63b8ff" points="1524.78,-281.83 1534.88,-278.65 1525,-274.83 1524.78,-281.83"/>
</a>
</g>
</g>
<!-- Node32 -->
<g id="Node000032" class="node">
<title>Node32</title>
<g id="a_Node000032"><a xlink:href="_l_l_z_k_redundant_read_and_write_elimination_pass_8cpp.html" target="_top" xlink:title="This file implements the &#45;llzk&#45;duplicate&#45;read&#45;write&#45;elim pass.">
<polygon fill="white" stroke="#666666" points="1179.62,-230 1011.38,-230 1011.38,-199.5 1179.62,-199.5 1179.62,-230"/>
<text text-anchor="start" x="1019.38" y="-216.5" font-family="Helvetica,sans-Serif" font-size="10.00">lib/Transforms/LLZKRedundant</text>
<text text-anchor="middle" x="1095.5" y="-205.25" font-family="Helvetica,sans-Serif" font-size="10.00">ReadAndWriteEliminationPass.cpp</text>
</a>
</g>
</g>
<!-- Node14&#45;&gt;Node32 -->
<g id="edge42_Node000014_Node000032" class="edge">
<title>Node14&#45;&gt;Node32</title>
<g id="a_edge42_Node000014_Node000032"><a xlink:title=" ">
<path fill="none" stroke="#63b8ff" d="M1525.41,-273.05C1447.24,-263.71 1307.66,-246.65 1188.5,-230 1185.59,-229.59 1182.63,-229.17 1179.63,-228.74"/>
<polygon fill="#63b8ff" stroke="#63b8ff" points="1524.65,-276.48 1534.99,-274.19 1525.48,-269.53 1524.65,-276.48"/>
</a>
</g>
</g>
<!-- Node33 -->
<g id="Node000033" class="node">
<title>Node33</title>
<g id="a_Node000033"><a xlink:href="_symbol_helper_8cpp.html" target="_top" xlink:title="This file contains the implementations for symbol helper functions.">
<polygon fill="white" stroke="#666666" points="1323.62,-224.38 1197.38,-224.38 1197.38,-205.12 1323.62,-205.12 1323.62,-224.38"/>
<text text-anchor="middle" x="1260.5" y="-210.88" font-family="Helvetica,sans-Serif" font-size="10.00">lib/Util/SymbolHelper.cpp</text>
</a>
</g>
</g>
<!-- Node14&#45;&gt;Node33 -->
<g id="edge43_Node000014_Node000033" class="edge">
<title>Node14&#45;&gt;Node33</title>
<g id="a_edge43_Node000014_Node000033"><a xlink:title=" ">
<path fill="none" stroke="#63b8ff" d="M1525.57,-268.2C1461.99,-255.62 1363.74,-236.18 1306.41,-224.83"/>
<polygon fill="#63b8ff" stroke="#63b8ff" points="1524.66,-271.58 1535.15,-270.09 1526.02,-264.72 1524.66,-271.58"/>
</a>
</g>
</g>
<!-- Node34 -->
<g id="Node000034" class="node">
<title>Node34</title>
<g id="a_Node000034"><a xlink:href="_l_l_z_k_validation_passes_8cpp.html" target="_top" xlink:title="This file contains the implementation for the &#45;llzk&#45;validate&#45;field&#45;writes pass.">
<polygon fill="white" stroke="#666666" points="1481.38,-230 1341.62,-230 1341.62,-199.5 1481.38,-199.5 1481.38,-230"/>
<text text-anchor="start" x="1349.62" y="-216.5" font-family="Helvetica,sans-Serif" font-size="10.00">lib/Validators/LLZKValidation</text>
<text text-anchor="middle" x="1411.5" y="-205.25" font-family="Helvetica,sans-Serif" font-size="10.00">Passes.cpp</text>
</a>
</g>
</g>
<!-- Node14&#45;&gt;Node34 -->
<g id="edge44_Node000014_Node000034" class="edge">
<title>Node14&#45;&gt;Node34</title>
<g id="a_edge44_Node000014_Node000034"><a xlink:title=" ">
<path fill="none" stroke="#63b8ff" d="M1536.03,-261.65C1509.11,-251.73 1476.47,-239.7 1451.36,-230.44"/>
<polygon fill="#63b8ff" stroke="#63b8ff" points="1534.78,-264.92 1545.37,-265.09 1537.2,-258.35 1534.78,-264.92"/>
</a>
</g>
</g>
<!-- Node15&#45;&gt;Node16 -->
<g id="edge20_Node000015_Node000016" class="edge">
<title>Node15&#45;&gt;Node16</title>
<g id="a_edge20_Node000015_Node000016"><a xlink:title=" ">
<path fill="none" stroke="#63b8ff" d="M1852.44,-200.09C1853.47,-199.89 1854.49,-199.7 1855.5,-199.5 1933.01,-184.5 2023.09,-168.2 2078.19,-158.35"/>
<polygon fill="#63b8ff" stroke="#63b8ff" points="1851.88,-196.64 1842.75,-202 1853.24,-203.5 1851.88,-196.64"/>
</a>
</g>
</g>
<!-- Node15&#45;&gt;Node17 -->
<g id="edge21_Node000015_Node000017" class="edge">
<title>Node15&#45;&gt;Node17</title>
<g id="a_edge21_Node000015_Node000017"><a xlink:title=" ">
<path fill="none" stroke="#63b8ff" d="M1780.68,-187.84C1778.71,-177.26 1776.57,-165.75 1775.14,-158.07"/>
<polygon fill="#63b8ff" stroke="#63b8ff" points="1777.23,-188.43 1782.5,-197.63 1784.11,-187.15 1777.23,-188.43"/>
</a>
</g>
</g>
<!-- Node18 -->
<g id="Node000018" class="node">
<title>Node18</title>
<g id="a_Node000018"><a xlink:href="_l_l_z_k_redundant_operation_elimination_pass_8cpp.html" target="_top" xlink:title="This file implements the &#45;llzk&#45;duplicate&#45;op&#45;elim pass.">
<polygon fill="white" stroke="#666666" points="2025.38,-163.5 1873.62,-163.5 1873.62,-133 2025.38,-133 2025.38,-163.5"/>
<text text-anchor="start" x="1881.62" y="-150" font-family="Helvetica,sans-Serif" font-size="10.00">lib/Transforms/LLZKRedundant</text>
<text text-anchor="middle" x="1949.5" y="-138.75" font-family="Helvetica,sans-Serif" font-size="10.00">OperationEliminationPass.cpp</text>
</a>
</g>
</g>
<!-- Node15&#45;&gt;Node18 -->
<g id="edge22_Node000015_Node000018" class="edge">
<title>Node15&#45;&gt;Node18</title>
<g id="a_edge22_Node000015_Node000018"><a xlink:title=" ">
<path fill="none" stroke="#63b8ff" d="M1833.14,-195.01C1858.3,-185.12 1888.72,-173.15 1912.15,-163.94"/>
<polygon fill="#63b8ff" stroke="#63b8ff" points="1832.15,-191.64 1824.12,-198.56 1834.71,-198.16 1832.15,-191.64"/>
</a>
</g>
</g>
<!-- Node20 -->
<g id="Node000020" class="node">
<title>Node20</title>
<g id="a_Node000020"><a xlink:href="_builders_8cpp.html" target="_top" xlink:title=" ">
<polygon fill="white" stroke="#666666" points="1635.12,-163.5 1541.88,-163.5 1541.88,-133 1635.12,-133 1635.12,-163.5"/>
<text text-anchor="start" x="1549.88" y="-150" font-family="Helvetica,sans-Serif" font-size="10.00">lib/Dialect/Shared</text>
<text text-anchor="middle" x="1588.5" y="-138.75" font-family="Helvetica,sans-Serif" font-size="10.00">/Builders.cpp</text>
</a>
</g>
</g>
<!-- Node19&#45;&gt;Node20 -->
<g id="edge25_Node000019_Node000020" class="edge">
<title>Node19&#45;&gt;Node20</title>
<g id="a_edge25_Node000019_Node000020"><a xlink:title=" ">
<path fill="none" stroke="#63b8ff" d="M1587.3,-187.81C1587.56,-179.64 1587.83,-170.91 1588.05,-163.83"/>
<polygon fill="#63b8ff" stroke="#63b8ff" points="1583.81,-187.5 1587,-197.6 1590.81,-187.71 1583.81,-187.5"/>
</a>
</g>
</g>
</g>
</svg>
