<?xml version="1.0" encoding="UTF-8" standalone="no"?>
<!DOCTYPE svg PUBLIC "-//W3C//DTD SVG 1.1//EN"
 "http://www.w3.org/Graphics/SVG/1.1/DTD/svg11.dtd">
<!-- Generated by graphviz version 12.2.1 (20241206.2353)
 -->
<!-- Title: lib/Bindings/Python/LLZKRegistration.cpp Pages: 1 -->
<svg width="330pt" height="105pt"
 viewBox="0.00 0.00 330.25 105.00" xmlns="http://www.w3.org/2000/svg" xmlns:xlink="http://www.w3.org/1999/xlink">
<g id="graph0" class="graph" transform="scale(1 1) rotate(0) translate(4 101)">
<title>lib/Bindings/Python/LLZKRegistration.cpp</title>
<!-- Node1 -->
<g id="Node000001" class="node">
<title>Node1</title>
<g id="a_Node000001"><a xlink:title="This defines a module that can be used to register the LLZK dialects.">
<polygon fill="#999999" stroke="#666666" points="227.75,-97 114.25,-97 114.25,-66.5 227.75,-66.5 227.75,-97"/>
<text text-anchor="start" x="122.25" y="-83.5" font-family="Helvetica,sans-Serif" font-size="10.00">lib/Bindings/Python</text>
<text text-anchor="middle" x="171" y="-72.25" font-family="Helvetica,sans-Serif" font-size="10.00">/LLZKRegistration.cpp</text>
</a>
</g>
</g>
<!-- Node2 -->
<g id="Node000002" class="node">
<title>Node2</title>
<g id="a_Node000002"><a xlink:title=" ">
<polygon fill="#e0e0e0" stroke="#999999" points="100,-24.88 0,-24.88 0,-5.63 100,-5.63 100,-24.88"/>
<text text-anchor="middle" x="50" y="-11.38" font-family="Helvetica,sans-Serif" font-size="10.00">LLZK/InitDialects.h</text>
</a>
</g>
</g>
<!-- Node1&#45;&gt;Node2 -->
<g id="edge1_Node000001_Node000002" class="edge">
<title>Node1&#45;&gt;Node2</title>
<g id="a_edge1_Node000001_Node000002"><a xlink:title=" ">
<path fill="none" stroke="#63b8ff" d="M143.54,-66.11C123.57,-55.46 96.65,-41.12 76.83,-30.55"/>
<polygon fill="#63b8ff" stroke="#63b8ff" points="78.71,-27.59 68.24,-25.97 75.42,-33.76 78.71,-27.59"/>
</a>
</g>
</g>
<!-- Node3 -->
<g id="Node000003" class="node">
<title>Node3</title>
<g id="a_Node000003"><a xlink:title=" ">
<polygon fill="#e0e0e0" stroke="#999999" points="224,-30.5 118,-30.5 118,0 224,0 224,-30.5"/>
<text text-anchor="start" x="126" y="-17" font-family="Helvetica,sans-Serif" font-size="10.00">mlir/Bindings/Python</text>
<text text-anchor="middle" x="171" y="-5.75" font-family="Helvetica,sans-Serif" font-size="10.00">/PybindAdaptors.h</text>
</a>
</g>
</g>
<!-- Node1&#45;&gt;Node3 -->
<g id="edge2_Node000001_Node000003" class="edge">
<title>Node1&#45;&gt;Node3</title>
<g id="a_edge2_Node000001_Node000003"><a xlink:title=" ">
<path fill="none" stroke="#63b8ff" d="M171,-66.11C171,-59.02 171,-50.29 171,-42.13"/>
<polygon fill="#63b8ff" stroke="#63b8ff" points="174.5,-42.34 171,-32.34 167.5,-42.34 174.5,-42.34"/>
</a>
</g>
</g>
<!-- Node4 -->
<g id="Node000004" class="node">
<title>Node4</title>
<g id="a_Node000004"><a xlink:title=" ">
<polygon fill="#e0e0e0" stroke="#999999" points="322.25,-24.88 241.75,-24.88 241.75,-5.63 322.25,-5.63 322.25,-24.88"/>
<text text-anchor="middle" x="282" y="-11.38" font-family="Helvetica,sans-Serif" font-size="10.00">mlir/CAPI/IR.h</text>
</a>
</g>
</g>
<!-- Node1&#45;&gt;Node4 -->
<g id="edge3_Node000001_Node000004" class="edge">
<title>Node1&#45;&gt;Node4</title>
<g id="a_edge3_Node000001_Node000004"><a xlink:title=" ">
<path fill="none" stroke="#63b8ff" d="M196.19,-66.11C214.26,-55.61 238.52,-41.52 256.63,-30.99"/>
<polygon fill="#63b8ff" stroke="#63b8ff" points="258.3,-34.07 265.19,-26.02 254.78,-28.02 258.3,-34.07"/>
</a>
</g>
</g>
</g>
</svg>
