<?xml version="1.0" encoding="UTF-8" standalone="no"?>
<!DOCTYPE svg PUBLIC "-//W3C//DTD SVG 1.1//EN"
 "http://www.w3.org/Graphics/SVG/1.1/DTD/svg11.dtd">
<!-- Generated by graphviz version 12.2.1 (20241206.2353)
 -->
<!-- Title: include/llzk/Transforms/LLZKTransformationPasses.h Pages: 1 -->
<svg width="1810pt" height="238pt"
 viewBox="0.00 0.00 1809.88 238.00" xmlns="http://www.w3.org/2000/svg" xmlns:xlink="http://www.w3.org/1999/xlink">
<g id="graph0" class="graph" transform="scale(1 1) rotate(0) translate(4 234)">
<title>include/llzk/Transforms/LLZKTransformationPasses.h</title>
<!-- Node1 -->
<g id="Node000001" class="node">
<title>Node1</title>
<g id="a_Node000001"><a xlink:title=" ">
<polygon fill="#999999" stroke="#666666" points="1113.75,-230 965,-230 965,-199.5 1113.75,-199.5 1113.75,-230"/>
<text text-anchor="start" x="973" y="-216.5" font-family="Helvetica,sans-Serif" font-size="10.00">include/llzk/Transforms</text>
<text text-anchor="middle" x="1039.38" y="-205.25" font-family="Helvetica,sans-Serif" font-size="10.00">/LLZKTransformationPasses.h</text>
</a>
</g>
</g>
<!-- Node2 -->
<g id="Node000002" class="node">
<title>Node2</title>
<g id="a_Node000002"><a xlink:href="_pass_base_8h.html" target="_top" xlink:title=" ">
<polygon fill="white" stroke="#666666" points="1014.75,-157.88 902,-157.88 902,-138.62 1014.75,-138.62 1014.75,-157.88"/>
<text text-anchor="middle" x="958.38" y="-144.38" font-family="Helvetica,sans-Serif" font-size="10.00">llzk/Pass/PassBase.h</text>
</a>
</g>
</g>
<!-- Node1&#45;&gt;Node2 -->
<g id="edge1_Node000001_Node000002" class="edge">
<title>Node1&#45;&gt;Node2</title>
<g id="a_edge1_Node000001_Node000002"><a xlink:title=" ">
<path fill="none" stroke="#63b8ff" d="M1020.99,-199.11C1008.22,-188.94 991.22,-175.41 978.16,-165"/>
<polygon fill="#63b8ff" stroke="#63b8ff" points="980.64,-162.51 970.64,-159.02 976.28,-167.98 980.64,-162.51"/>
</a>
</g>
</g>
<!-- Node31 -->
<g id="Node000031" class="node">
<title>Node31</title>
<g id="a_Node000031"><a xlink:href="_l_l_z_k_transformation_passes_8h_8inc.html" target="_top" xlink:title=" ">
<polygon fill="white" stroke="#666666" points="1207.88,-163.5 1032.88,-163.5 1032.88,-133 1207.88,-133 1207.88,-163.5"/>
<text text-anchor="start" x="1040.88" y="-150" font-family="Helvetica,sans-Serif" font-size="10.00">llzk/Transforms/LLZKTransformation</text>
<text text-anchor="middle" x="1120.38" y="-138.75" font-family="Helvetica,sans-Serif" font-size="10.00">Passes.h.inc</text>
</a>
</g>
</g>
<!-- Node1&#45;&gt;Node31 -->
<g id="edge41_Node000001_Node000031" class="edge">
<title>Node1&#45;&gt;Node31</title>
<g id="a_edge41_Node000001_Node000031"><a xlink:title=" ">
<path fill="none" stroke="#63b8ff" d="M1057.76,-199.11C1068.22,-190.78 1081.51,-180.19 1093.16,-170.92"/>
<polygon fill="#63b8ff" stroke="#63b8ff" points="1095.24,-173.74 1100.88,-164.77 1090.88,-168.26 1095.24,-173.74"/>
</a>
</g>
</g>
<!-- Node3 -->
<g id="Node000003" class="node">
<title>Node3</title>
<g id="a_Node000003"><a xlink:href="_array_2_i_r_2_dialect_8h.html" target="_top" xlink:title=" ">
<polygon fill="white" stroke="#666666" points="1464.88,-97 1373.88,-97 1373.88,-66.5 1464.88,-66.5 1464.88,-97"/>
<text text-anchor="start" x="1381.88" y="-83.5" font-family="Helvetica,sans-Serif" font-size="10.00">llzk/Dialect/Array</text>
<text text-anchor="middle" x="1419.38" y="-72.25" font-family="Helvetica,sans-Serif" font-size="10.00">/IR/Dialect.h</text>
</a>
</g>
</g>
<!-- Node2&#45;&gt;Node3 -->
<g id="edge2_Node000002_Node000003" class="edge">
<title>Node2&#45;&gt;Node3</title>
<g id="a_edge2_Node000002_Node000003"><a xlink:title=" ">
<path fill="none" stroke="#63b8ff" d="M996.98,-138.19C1005.94,-136.29 1015.46,-134.43 1024.38,-133 1170.9,-109.49 1212.9,-123.44 1362.6,-97.12"/>
<polygon fill="#63b8ff" stroke="#63b8ff" points="1362.86,-100.63 1372.08,-95.43 1361.62,-93.74 1362.86,-100.63"/>
</a>
</g>
</g>
<!-- Node6 -->
<g id="Node000006" class="node">
<title>Node6</title>
<g id="a_Node000006"><a xlink:href="_bool_2_i_r_2_dialect_8h.html" target="_top" xlink:title=" ">
<polygon fill="white" stroke="#666666" points="159.75,-97 59,-97 59,-66.5 159.75,-66.5 159.75,-97"/>
<text text-anchor="start" x="67" y="-83.5" font-family="Helvetica,sans-Serif" font-size="10.00">llzk/Dialect/Bool/IR</text>
<text text-anchor="middle" x="109.38" y="-72.25" font-family="Helvetica,sans-Serif" font-size="10.00">/Dialect.h</text>
</a>
</g>
</g>
<!-- Node2&#45;&gt;Node6 -->
<g id="edge5_Node000002_Node000006" class="edge">
<title>Node2&#45;&gt;Node6</title>
<g id="a_edge5_Node000002_Node000006"><a xlink:title=" ">
<path fill="none" stroke="#63b8ff" d="M901.98,-147.01C773.63,-145.74 449.84,-138.49 171.25,-97.27"/>
<polygon fill="#63b8ff" stroke="#63b8ff" points="172.02,-93.84 161.61,-95.82 170.98,-100.76 172.02,-93.84"/>
</a>
</g>
</g>
<!-- Node8 -->
<g id="Node000008" class="node">
<title>Node8</title>
<g id="a_Node000008"><a xlink:href="_constrain_2_i_r_2_dialect_8h.html" target="_top" xlink:title=" ">
<polygon fill="white" stroke="#666666" points="287.25,-97 177.5,-97 177.5,-66.5 287.25,-66.5 287.25,-97"/>
<text text-anchor="start" x="185.5" y="-83.5" font-family="Helvetica,sans-Serif" font-size="10.00">llzk/Dialect/Constrain</text>
<text text-anchor="middle" x="232.38" y="-72.25" font-family="Helvetica,sans-Serif" font-size="10.00">/IR/Dialect.h</text>
</a>
</g>
</g>
<!-- Node2&#45;&gt;Node8 -->
<g id="edge8_Node000002_Node000008" class="edge">
<title>Node2&#45;&gt;Node8</title>
<g id="a_edge8_Node000002_Node000008"><a xlink:title=" ">
<path fill="none" stroke="#63b8ff" d="M901.84,-145.69C788.96,-141.98 527.58,-130.44 298.66,-97.19"/>
<polygon fill="#63b8ff" stroke="#63b8ff" points="299.34,-93.75 288.94,-95.76 298.32,-100.68 299.34,-93.75"/>
</a>
</g>
</g>
<!-- Node10 -->
<g id="Node000010" class="node">
<title>Node10</title>
<g id="a_Node000010"><a xlink:href="_felt_2_i_r_2_dialect_8h.html" target="_top" xlink:title=" ">
<polygon fill="white" stroke="#666666" points="403.25,-97 305.5,-97 305.5,-66.5 403.25,-66.5 403.25,-97"/>
<text text-anchor="start" x="313.5" y="-83.5" font-family="Helvetica,sans-Serif" font-size="10.00">llzk/Dialect/Felt/IR</text>
<text text-anchor="middle" x="354.38" y="-72.25" font-family="Helvetica,sans-Serif" font-size="10.00">/Dialect.h</text>
</a>
</g>
</g>
<!-- Node2&#45;&gt;Node10 -->
<g id="edge11_Node000002_Node000010" class="edge">
<title>Node2&#45;&gt;Node10</title>
<g id="a_edge11_Node000002_Node000010"><a xlink:title=" ">
<path fill="none" stroke="#63b8ff" d="M901.82,-144.83C804.28,-140.05 598.04,-127.28 414.83,-97.24"/>
<polygon fill="#63b8ff" stroke="#63b8ff" points="415.56,-93.82 405.12,-95.63 414.42,-100.72 415.56,-93.82"/>
</a>
</g>
</g>
<!-- Node12 -->
<g id="Node000012" class="node">
<title>Node12</title>
<g id="a_Node000012"><a xlink:href="_function_2_i_r_2_dialect_8h.html" target="_top" xlink:title=" ">
<polygon fill="white" stroke="#666666" points="527,-97 421.75,-97 421.75,-66.5 527,-66.5 527,-97"/>
<text text-anchor="start" x="429.75" y="-83.5" font-family="Helvetica,sans-Serif" font-size="10.00">llzk/Dialect/Function</text>
<text text-anchor="middle" x="474.38" y="-72.25" font-family="Helvetica,sans-Serif" font-size="10.00">/IR/Dialect.h</text>
</a>
</g>
</g>
<!-- Node2&#45;&gt;Node12 -->
<g id="edge14_Node000002_Node000012" class="edge">
<title>Node2&#45;&gt;Node12</title>
<g id="a_edge14_Node000002_Node000012"><a xlink:title=" ">
<path fill="none" stroke="#63b8ff" d="M901.64,-142.53C822.33,-135.49 673.68,-120.68 538.18,-97.38"/>
<polygon fill="#63b8ff" stroke="#63b8ff" points="539.15,-94 528.69,-95.73 537.94,-100.89 539.15,-94"/>
</a>
</g>
</g>
<!-- Node14 -->
<g id="Node000014" class="node">
<title>Node14</title>
<g id="a_Node000014"><a xlink:href="_global_2_i_r_2_dialect_8h.html" target="_top" xlink:title=" ">
<polygon fill="white" stroke="#666666" points="640.12,-97 544.62,-97 544.62,-66.5 640.12,-66.5 640.12,-97"/>
<text text-anchor="start" x="552.62" y="-83.5" font-family="Helvetica,sans-Serif" font-size="10.00">llzk/Dialect/Global</text>
<text text-anchor="middle" x="592.38" y="-72.25" font-family="Helvetica,sans-Serif" font-size="10.00">/IR/Dialect.h</text>
</a>
</g>
</g>
<!-- Node2&#45;&gt;Node14 -->
<g id="edge17_Node000002_Node000014" class="edge">
<title>Node2&#45;&gt;Node14</title>
<g id="a_edge17_Node000002_Node000014"><a xlink:title=" ">
<path fill="none" stroke="#63b8ff" d="M901.53,-139.58C841.58,-131.14 744.17,-116.46 651.81,-97.62"/>
<polygon fill="#63b8ff" stroke="#63b8ff" points="652.56,-94.2 642.06,-95.61 651.14,-101.06 652.56,-94.2"/>
</a>
</g>
</g>
<!-- Node16 -->
<g id="Node000016" class="node">
<title>Node16</title>
<g id="a_Node000016"><a xlink:href="_include_2_i_r_2_dialect_8h.html" target="_top" xlink:title=" ">
<polygon fill="white" stroke="#666666" points="757,-97 657.75,-97 657.75,-66.5 757,-66.5 757,-97"/>
<text text-anchor="start" x="665.75" y="-83.5" font-family="Helvetica,sans-Serif" font-size="10.00">llzk/Dialect/Include</text>
<text text-anchor="middle" x="707.38" y="-72.25" font-family="Helvetica,sans-Serif" font-size="10.00">/IR/Dialect.h</text>
</a>
</g>
</g>
<!-- Node2&#45;&gt;Node16 -->
<g id="edge20_Node000002_Node000016" class="edge">
<title>Node2&#45;&gt;Node16</title>
<g id="a_edge20_Node000002_Node000016"><a xlink:title=" ">
<path fill="none" stroke="#63b8ff" d="M922.95,-138.15C882.83,-127.84 816.76,-110.86 768.32,-98.41"/>
<polygon fill="#63b8ff" stroke="#63b8ff" points="769.36,-95.07 758.81,-95.97 767.62,-101.85 769.36,-95.07"/>
</a>
</g>
</g>
<!-- Node18 -->
<g id="Node000018" class="node">
<title>Node18</title>
<g id="a_Node000018"><a xlink:href="_l_l_z_k_2_i_r_2_dialect_8h.html" target="_top" xlink:title=" ">
<polygon fill="white" stroke="#666666" points="879.62,-97 775.12,-97 775.12,-66.5 879.62,-66.5 879.62,-97"/>
<text text-anchor="start" x="783.12" y="-83.5" font-family="Helvetica,sans-Serif" font-size="10.00">llzk/Dialect/LLZK/IR</text>
<text text-anchor="middle" x="827.38" y="-72.25" font-family="Helvetica,sans-Serif" font-size="10.00">/Dialect.h</text>
</a>
</g>
</g>
<!-- Node2&#45;&gt;Node18 -->
<g id="edge23_Node000002_Node000018" class="edge">
<title>Node2&#45;&gt;Node18</title>
<g id="a_edge23_Node000002_Node000018"><a xlink:title=" ">
<path fill="none" stroke="#63b8ff" d="M939.88,-138.15C921.08,-128.89 891.36,-114.26 867.19,-102.35"/>
<polygon fill="#63b8ff" stroke="#63b8ff" points="868.75,-99.22 858.24,-97.94 865.66,-105.5 868.75,-99.22"/>
</a>
</g>
</g>
<!-- Node20 -->
<g id="Node000020" class="node">
<title>Node20</title>
<g id="a_Node000020"><a xlink:href="_polymorphic_2_i_r_2_dialect_8h.html" target="_top" xlink:title=" ">
<polygon fill="white" stroke="#666666" points="1019.25,-97 897.5,-97 897.5,-66.5 1019.25,-66.5 1019.25,-97"/>
<text text-anchor="start" x="905.5" y="-83.5" font-family="Helvetica,sans-Serif" font-size="10.00">llzk/Dialect/Polymorphic</text>
<text text-anchor="middle" x="958.38" y="-72.25" font-family="Helvetica,sans-Serif" font-size="10.00">/IR/Dialect.h</text>
</a>
</g>
</g>
<!-- Node2&#45;&gt;Node20 -->
<g id="edge26_Node000002_Node000020" class="edge">
<title>Node2&#45;&gt;Node20</title>
<g id="a_edge26_Node000002_Node000020"><a xlink:title=" ">
<path fill="none" stroke="#63b8ff" d="M958.38,-138.28C958.38,-130.54 958.38,-118.95 958.38,-108.37"/>
<polygon fill="#63b8ff" stroke="#63b8ff" points="961.88,-108.61 958.38,-98.61 954.88,-108.61 961.88,-108.61"/>
</a>
</g>
</g>
<!-- Node22 -->
<g id="Node000022" class="node">
<title>Node22</title>
<g id="a_Node000022"><a xlink:href="_string_2_i_r_2_dialect_8h.html" target="_top" xlink:title=" ">
<polygon fill="white" stroke="#666666" points="1131,-97 1037.75,-97 1037.75,-66.5 1131,-66.5 1131,-97"/>
<text text-anchor="start" x="1045.75" y="-83.5" font-family="Helvetica,sans-Serif" font-size="10.00">llzk/Dialect/String</text>
<text text-anchor="middle" x="1084.38" y="-72.25" font-family="Helvetica,sans-Serif" font-size="10.00">/IR/Dialect.h</text>
</a>
</g>
</g>
<!-- Node2&#45;&gt;Node22 -->
<g id="edge29_Node000002_Node000022" class="edge">
<title>Node2&#45;&gt;Node22</title>
<g id="a_edge29_Node000002_Node000022"><a xlink:title=" ">
<path fill="none" stroke="#63b8ff" d="M976.16,-138.15C994.16,-128.93 1022.57,-114.39 1045.77,-102.51"/>
<polygon fill="#63b8ff" stroke="#63b8ff" points="1047.34,-105.64 1054.65,-97.97 1044.16,-99.41 1047.34,-105.64"/>
</a>
</g>
</g>
<!-- Node24 -->
<g id="Node000024" class="node">
<title>Node24</title>
<g id="a_Node000024"><a xlink:href="_struct_2_i_r_2_dialect_8h.html" target="_top" xlink:title=" ">
<polygon fill="white" stroke="#666666" points="1243.38,-97 1149.38,-97 1149.38,-66.5 1243.38,-66.5 1243.38,-97"/>
<text text-anchor="start" x="1157.38" y="-83.5" font-family="Helvetica,sans-Serif" font-size="10.00">llzk/Dialect/Struct</text>
<text text-anchor="middle" x="1196.38" y="-72.25" font-family="Helvetica,sans-Serif" font-size="10.00">/IR/Dialect.h</text>
</a>
</g>
</g>
<!-- Node2&#45;&gt;Node24 -->
<g id="edge32_Node000002_Node000024" class="edge">
<title>Node2&#45;&gt;Node24</title>
<g id="a_edge32_Node000002_Node000024"><a xlink:title=" ">
<path fill="none" stroke="#63b8ff" d="M991.97,-138.15C1029.85,-127.88 1092.13,-111 1138.01,-98.57"/>
<polygon fill="#63b8ff" stroke="#63b8ff" points="1138.8,-101.98 1147.54,-95.99 1136.97,-95.22 1138.8,-101.98"/>
</a>
</g>
</g>
<!-- Node26 -->
<g id="Node000026" class="node">
<title>Node26</title>
<g id="a_Node000026"><a xlink:href="_undef_2_i_r_2_dialect_8h.html" target="_top" xlink:title=" ">
<polygon fill="white" stroke="#666666" points="1355.38,-97 1261.38,-97 1261.38,-66.5 1355.38,-66.5 1355.38,-97"/>
<text text-anchor="start" x="1269.38" y="-83.5" font-family="Helvetica,sans-Serif" font-size="10.00">llzk/Dialect/Undef</text>
<text text-anchor="middle" x="1308.38" y="-72.25" font-family="Helvetica,sans-Serif" font-size="10.00">/IR/Dialect.h</text>
</a>
</g>
</g>
<!-- Node2&#45;&gt;Node26 -->
<g id="edge35_Node000002_Node000026" class="edge">
<title>Node2&#45;&gt;Node26</title>
<g id="a_edge35_Node000002_Node000026"><a xlink:title=" ">
<path fill="none" stroke="#63b8ff" d="M998.79,-138.15C1007.23,-136.35 1016.08,-134.55 1024.38,-133 1121.67,-114.83 1149.92,-117.45 1249.87,-97.4"/>
<polygon fill="#63b8ff" stroke="#63b8ff" points="1250.51,-100.84 1259.61,-95.41 1249.11,-93.98 1250.51,-100.84"/>
</a>
</g>
</g>
<!-- Node28 -->
<g id="Node000028" class="node">
<title>Node28</title>
<g id="a_Node000028"><a xlink:title=" ">
<polygon fill="#e0e0e0" stroke="#999999" points="1571.75,-97 1483,-97 1483,-66.5 1571.75,-66.5 1571.75,-97"/>
<text text-anchor="start" x="1491" y="-83.5" font-family="Helvetica,sans-Serif" font-size="10.00">mlir/Dialect/Arith</text>
<text text-anchor="middle" x="1527.38" y="-72.25" font-family="Helvetica,sans-Serif" font-size="10.00">/IR/Arith.h</text>
</a>
</g>
</g>
<!-- Node2&#45;&gt;Node28 -->
<g id="edge38_Node000002_Node000028" class="edge">
<title>Node2&#45;&gt;Node28</title>
<g id="a_edge38_Node000002_Node000028"><a xlink:title=" ">
<path fill="none" stroke="#63b8ff" d="M996.26,-138.17C1005.42,-136.22 1015.21,-134.35 1024.38,-133 1219.19,-104.31 1274.62,-130.19 1471.37,-97.31"/>
<polygon fill="#63b8ff" stroke="#63b8ff" points="1471.92,-100.77 1481.19,-95.64 1470.75,-93.87 1471.92,-100.77"/>
</a>
</g>
</g>
<!-- Node29 -->
<g id="Node000029" class="node">
<title>Node29</title>
<g id="a_Node000029"><a xlink:title=" ">
<polygon fill="#e0e0e0" stroke="#999999" points="1692.5,-97 1590.25,-97 1590.25,-66.5 1692.5,-66.5 1692.5,-97"/>
<text text-anchor="start" x="1598.25" y="-83.5" font-family="Helvetica,sans-Serif" font-size="10.00">mlir/Dialect/SCF/IR</text>
<text text-anchor="middle" x="1641.38" y="-72.25" font-family="Helvetica,sans-Serif" font-size="10.00">/SCF.h</text>
</a>
</g>
</g>
<!-- Node2&#45;&gt;Node29 -->
<g id="edge39_Node000002_Node000029" class="edge">
<title>Node2&#45;&gt;Node29</title>
<g id="a_edge39_Node000002_Node000029"><a xlink:title=" ">
<path fill="none" stroke="#63b8ff" d="M995.9,-138.14C1005.16,-136.17 1015.09,-134.3 1024.38,-133 1266.03,-99.28 1333.45,-132.29 1578.84,-97.02"/>
<polygon fill="#63b8ff" stroke="#63b8ff" points="1579.02,-100.53 1588.41,-95.62 1578.01,-93.61 1579.02,-100.53"/>
</a>
</g>
</g>
<!-- Node30 -->
<g id="Node000030" class="node">
<title>Node30</title>
<g id="a_Node000030"><a xlink:title=" ">
<polygon fill="#e0e0e0" stroke="#999999" points="1801.88,-91.38 1710.88,-91.38 1710.88,-72.12 1801.88,-72.12 1801.88,-91.38"/>
<text text-anchor="middle" x="1756.38" y="-77.88" font-family="Helvetica,sans-Serif" font-size="10.00">mlir/Pass/Pass.h</text>
</a>
</g>
</g>
<!-- Node2&#45;&gt;Node30 -->
<g id="edge40_Node000002_Node000030" class="edge">
<title>Node2&#45;&gt;Node30</title>
<g id="a_edge40_Node000002_Node000030"><a xlink:title=" ">
<path fill="none" stroke="#63b8ff" d="M995.54,-138.14C1004.9,-136.15 1014.96,-134.26 1024.38,-133 1323.03,-93.08 1403.6,-143.02 1701.38,-97 1705.75,-96.32 1710.27,-95.45 1714.77,-94.46"/>
<polygon fill="#63b8ff" stroke="#63b8ff" points="1715.38,-97.92 1724.3,-92.19 1713.76,-91.11 1715.38,-97.92"/>
</a>
</g>
</g>
<!-- Node4 -->
<g id="Node000004" class="node">
<title>Node4</title>
<g id="a_Node000004"><a xlink:title=" ">
<polygon fill="#e0e0e0" stroke="#999999" points="817.12,-24.88 715.62,-24.88 715.62,-5.63 817.12,-5.63 817.12,-24.88"/>
<text text-anchor="middle" x="766.38" y="-11.38" font-family="Helvetica,sans-Serif" font-size="10.00">mlir/IR/BuiltinOps.h</text>
</a>
</g>
</g>
<!-- Node3&#45;&gt;Node4 -->
<g id="edge3_Node000003_Node000004" class="edge">
<title>Node3&#45;&gt;Node4</title>
<g id="a_edge3_Node000003_Node000004"><a xlink:title=" ">
<path fill="none" stroke="#63b8ff" d="M1373.59,-68.21C1370.49,-67.57 1367.39,-66.99 1364.38,-66.5 1127.8,-28.28 1063.33,-66.31 826.38,-30.5 821.42,-29.75 816.27,-28.8 811.16,-27.74"/>
<polygon fill="#63b8ff" stroke="#63b8ff" points="812.13,-24.37 801.61,-25.63 810.62,-31.21 812.13,-24.37"/>
</a>
</g>
</g>
<!-- Node5 -->
<g id="Node000005" class="node">
<title>Node5</title>
<g id="a_Node000005"><a xlink:href="_array_2_i_r_2_dialect_8h_8inc.html" target="_top" xlink:title=" ">
<polygon fill="white" stroke="#666666" points="1524.88,-30.5 1433.88,-30.5 1433.88,0 1524.88,0 1524.88,-30.5"/>
<text text-anchor="start" x="1441.88" y="-17" font-family="Helvetica,sans-Serif" font-size="10.00">llzk/Dialect/Array</text>
<text text-anchor="middle" x="1479.38" y="-5.75" font-family="Helvetica,sans-Serif" font-size="10.00">/IR/Dialect.h.inc</text>
</a>
</g>
</g>
<!-- Node3&#45;&gt;Node5 -->
<g id="edge4_Node000003_Node000005" class="edge">
<title>Node3&#45;&gt;Node5</title>
<g id="a_edge4_Node000003_Node000005"><a xlink:title=" ">
<path fill="none" stroke="#63b8ff" d="M1432.99,-66.11C1440.43,-58.11 1449.81,-48.03 1458.19,-39.03"/>
<polygon fill="#63b8ff" stroke="#63b8ff" points="1460.53,-41.64 1464.78,-31.94 1455.41,-36.87 1460.53,-41.64"/>
</a>
</g>
</g>
<!-- Node6&#45;&gt;Node4 -->
<g id="edge6_Node000006_Node000004" class="edge">
<title>Node6&#45;&gt;Node4</title>
<g id="a_edge6_Node000006_Node000004"><a xlink:title=" ">
<path fill="none" stroke="#63b8ff" d="M160.11,-67.91C162.9,-67.39 165.67,-66.91 168.38,-66.5 405.7,-30.18 470.05,-66.82 707.38,-30.5 712.25,-29.75 717.32,-28.8 722.34,-27.75"/>
<polygon fill="#63b8ff" stroke="#63b8ff" points="722.72,-31.25 731.71,-25.64 721.18,-24.42 722.72,-31.25"/>
</a>
</g>
</g>
<!-- Node7 -->
<g id="Node000007" class="node">
<title>Node7</title>
<g id="a_Node000007"><a xlink:href="_bool_2_i_r_2_dialect_8h_8inc.html" target="_top" xlink:title=" ">
<polygon fill="white" stroke="#666666" points="100.75,-30.5 0,-30.5 0,0 100.75,0 100.75,-30.5"/>
<text text-anchor="start" x="8" y="-17" font-family="Helvetica,sans-Serif" font-size="10.00">llzk/Dialect/Bool/IR</text>
<text text-anchor="middle" x="50.38" y="-5.75" font-family="Helvetica,sans-Serif" font-size="10.00">/Dialect.h.inc</text>
</a>
</g>
</g>
<!-- Node6&#45;&gt;Node7 -->
<g id="edge7_Node000006_Node000007" class="edge">
<title>Node6&#45;&gt;Node7</title>
<g id="a_edge7_Node000006_Node000007"><a xlink:title=" ">
<path fill="none" stroke="#63b8ff" d="M95.99,-66.11C88.75,-58.2 79.63,-48.24 71.46,-39.3"/>
<polygon fill="#63b8ff" stroke="#63b8ff" points="74.06,-36.96 64.73,-31.94 68.9,-41.69 74.06,-36.96"/>
</a>
</g>
</g>
<!-- Node8&#45;&gt;Node4 -->
<g id="edge9_Node000008_Node000004" class="edge">
<title>Node8&#45;&gt;Node4</title>
<g id="a_edge9_Node000008_Node000004"><a xlink:title=" ">
<path fill="none" stroke="#63b8ff" d="M287.45,-68C290.46,-67.46 293.45,-66.95 296.38,-66.5 477.59,-38.51 526.42,-60.11 707.38,-30.5 712,-29.74 716.79,-28.82 721.56,-27.81"/>
<polygon fill="#63b8ff" stroke="#63b8ff" points="722.08,-31.28 731.07,-25.67 720.54,-24.45 722.08,-31.28"/>
</a>
</g>
</g>
<!-- Node9 -->
<g id="Node000009" class="node">
<title>Node9</title>
<g id="a_Node000009"><a xlink:href="_constrain_2_i_r_2_dialect_8h_8inc.html" target="_top" xlink:title=" ">
<polygon fill="white" stroke="#666666" points="228.25,-30.5 118.5,-30.5 118.5,0 228.25,0 228.25,-30.5"/>
<text text-anchor="start" x="126.5" y="-17" font-family="Helvetica,sans-Serif" font-size="10.00">llzk/Dialect/Constrain</text>
<text text-anchor="middle" x="173.38" y="-5.75" font-family="Helvetica,sans-Serif" font-size="10.00">/IR/Dialect.h.inc</text>
</a>
</g>
</g>
<!-- Node8&#45;&gt;Node9 -->
<g id="edge10_Node000008_Node000009" class="edge">
<title>Node8&#45;&gt;Node9</title>
<g id="a_edge10_Node000008_Node000009"><a xlink:title=" ">
<path fill="none" stroke="#63b8ff" d="M218.99,-66.11C211.75,-58.2 202.63,-48.24 194.46,-39.3"/>
<polygon fill="#63b8ff" stroke="#63b8ff" points="197.06,-36.96 187.73,-31.94 191.9,-41.69 197.06,-36.96"/>
</a>
</g>
</g>
<!-- Node10&#45;&gt;Node4 -->
<g id="edge12_Node000010_Node000004" class="edge">
<title>Node10&#45;&gt;Node4</title>
<g id="a_edge12_Node000010_Node000004"><a xlink:title=" ">
<path fill="none" stroke="#63b8ff" d="M403.65,-68.22C406.59,-67.6 409.52,-67.02 412.38,-66.5 542.3,-42.7 577.41,-54.04 707.38,-30.5 711.68,-29.72 716.15,-28.82 720.61,-27.85"/>
<polygon fill="#63b8ff" stroke="#63b8ff" points="721.12,-31.32 730.1,-25.7 719.57,-24.5 721.12,-31.32"/>
</a>
</g>
</g>
<!-- Node11 -->
<g id="Node000011" class="node">
<title>Node11</title>
<g id="a_Node000011"><a xlink:href="_felt_2_i_r_2_dialect_8h_8inc.html" target="_top" xlink:title=" ">
<polygon fill="white" stroke="#666666" points="344.25,-30.5 246.5,-30.5 246.5,0 344.25,0 344.25,-30.5"/>
<text text-anchor="start" x="254.5" y="-17" font-family="Helvetica,sans-Serif" font-size="10.00">llzk/Dialect/Felt/IR</text>
<text text-anchor="middle" x="295.38" y="-5.75" font-family="Helvetica,sans-Serif" font-size="10.00">/Dialect.h.inc</text>
</a>
</g>
</g>
<!-- Node10&#45;&gt;Node11 -->
<g id="edge13_Node000010_Node000011" class="edge">
<title>Node10&#45;&gt;Node11</title>
<g id="a_edge13_Node000010_Node000011"><a xlink:title=" ">
<path fill="none" stroke="#63b8ff" d="M340.99,-66.11C333.75,-58.2 324.63,-48.24 316.46,-39.3"/>
<polygon fill="#63b8ff" stroke="#63b8ff" points="319.06,-36.96 309.73,-31.94 313.9,-41.69 319.06,-36.96"/>
</a>
</g>
</g>
<!-- Node12&#45;&gt;Node4 -->
<g id="edge15_Node000012_Node000004" class="edge">
<title>Node12&#45;&gt;Node4</title>
<g id="a_edge15_Node000012_Node000004"><a xlink:title=" ">
<path fill="none" stroke="#63b8ff" d="M527.26,-68.32C530,-67.7 532.72,-67.09 535.38,-66.5 611.63,-49.62 631.18,-47.67 707.38,-30.5 710.97,-29.69 714.69,-28.83 718.43,-27.96"/>
<polygon fill="#63b8ff" stroke="#63b8ff" points="719.19,-31.38 728.12,-25.67 717.58,-24.56 719.19,-31.38"/>
</a>
</g>
</g>
<!-- Node13 -->
<g id="Node000013" class="node">
<title>Node13</title>
<g id="a_Node000013"><a xlink:href="_function_2_i_r_2_dialect_8h_8inc.html" target="_top" xlink:title=" ">
<polygon fill="white" stroke="#666666" points="468,-30.5 362.75,-30.5 362.75,0 468,0 468,-30.5"/>
<text text-anchor="start" x="370.75" y="-17" font-family="Helvetica,sans-Serif" font-size="10.00">llzk/Dialect/Function</text>
<text text-anchor="middle" x="415.38" y="-5.75" font-family="Helvetica,sans-Serif" font-size="10.00">/IR/Dialect.h.inc</text>
</a>
</g>
</g>
<!-- Node12&#45;&gt;Node13 -->
<g id="edge16_Node000012_Node000013" class="edge">
<title>Node12&#45;&gt;Node13</title>
<g id="a_edge16_Node000012_Node000013"><a xlink:title=" ">
<path fill="none" stroke="#63b8ff" d="M460.99,-66.11C453.75,-58.2 444.63,-48.24 436.46,-39.3"/>
<polygon fill="#63b8ff" stroke="#63b8ff" points="439.06,-36.96 429.73,-31.94 433.9,-41.69 439.06,-36.96"/>
</a>
</g>
</g>
<!-- Node14&#45;&gt;Node4 -->
<g id="edge18_Node000014_Node000004" class="edge">
<title>Node14&#45;&gt;Node4</title>
<g id="a_edge18_Node000014_Node000004"><a xlink:title=" ">
<path fill="none" stroke="#63b8ff" d="M631.86,-66.11C661.69,-55.06 702.27,-40.01 731.04,-29.35"/>
<polygon fill="#63b8ff" stroke="#63b8ff" points="732.24,-32.64 740.4,-25.88 729.8,-26.07 732.24,-32.64"/>
</a>
</g>
</g>
<!-- Node15 -->
<g id="Node000015" class="node">
<title>Node15</title>
<g id="a_Node000015"><a xlink:href="_global_2_i_r_2_dialect_8h_8inc.html" target="_top" xlink:title=" ">
<polygon fill="white" stroke="#666666" points="581.12,-30.5 485.62,-30.5 485.62,0 581.12,0 581.12,-30.5"/>
<text text-anchor="start" x="493.62" y="-17" font-family="Helvetica,sans-Serif" font-size="10.00">llzk/Dialect/Global</text>
<text text-anchor="middle" x="533.38" y="-5.75" font-family="Helvetica,sans-Serif" font-size="10.00">/IR/Dialect.h.inc</text>
</a>
</g>
</g>
<!-- Node14&#45;&gt;Node15 -->
<g id="edge19_Node000014_Node000015" class="edge">
<title>Node14&#45;&gt;Node15</title>
<g id="a_edge19_Node000014_Node000015"><a xlink:title=" ">
<path fill="none" stroke="#63b8ff" d="M578.99,-66.11C571.75,-58.2 562.63,-48.24 554.46,-39.3"/>
<polygon fill="#63b8ff" stroke="#63b8ff" points="557.06,-36.96 547.73,-31.94 551.9,-41.69 557.06,-36.96"/>
</a>
</g>
</g>
<!-- Node16&#45;&gt;Node4 -->
<g id="edge21_Node000016_Node000004" class="edge">
<title>Node16&#45;&gt;Node4</title>
<g id="a_edge21_Node000016_Node000004"><a xlink:title=" ">
<path fill="none" stroke="#63b8ff" d="M720.76,-66.11C729.61,-56.44 741.25,-43.71 750.56,-33.54"/>
<polygon fill="#63b8ff" stroke="#63b8ff" points="753.12,-35.93 757.28,-26.19 747.95,-31.21 753.12,-35.93"/>
</a>
</g>
</g>
<!-- Node17 -->
<g id="Node000017" class="node">
<title>Node17</title>
<g id="a_Node000017"><a xlink:href="_include_2_i_r_2_dialect_8h_8inc.html" target="_top" xlink:title=" ">
<polygon fill="white" stroke="#666666" points="698,-30.5 598.75,-30.5 598.75,0 698,0 698,-30.5"/>
<text text-anchor="start" x="606.75" y="-17" font-family="Helvetica,sans-Serif" font-size="10.00">llzk/Dialect/Include</text>
<text text-anchor="middle" x="648.38" y="-5.75" font-family="Helvetica,sans-Serif" font-size="10.00">/IR/Dialect.h.inc</text>
</a>
</g>
</g>
<!-- Node16&#45;&gt;Node17 -->
<g id="edge22_Node000016_Node000017" class="edge">
<title>Node16&#45;&gt;Node17</title>
<g id="a_edge22_Node000016_Node000017"><a xlink:title=" ">
<path fill="none" stroke="#63b8ff" d="M693.99,-66.11C686.75,-58.2 677.63,-48.24 669.46,-39.3"/>
<polygon fill="#63b8ff" stroke="#63b8ff" points="672.06,-36.96 662.73,-31.94 666.9,-41.69 672.06,-36.96"/>
</a>
</g>
</g>
<!-- Node18&#45;&gt;Node4 -->
<g id="edge24_Node000018_Node000004" class="edge">
<title>Node18&#45;&gt;Node4</title>
<g id="a_edge24_Node000018_Node000004"><a xlink:title=" ">
<path fill="none" stroke="#63b8ff" d="M813.53,-66.11C804.29,-56.34 792.1,-43.45 782.43,-33.23"/>
<polygon fill="#63b8ff" stroke="#63b8ff" points="785.17,-31.03 775.76,-26.17 780.09,-35.84 785.17,-31.03"/>
</a>
</g>
</g>
<!-- Node19 -->
<g id="Node000019" class="node">
<title>Node19</title>
<g id="a_Node000019"><a xlink:href="_l_l_z_k_2_i_r_2_dialect_8h_8inc.html" target="_top" xlink:title=" ">
<polygon fill="white" stroke="#666666" points="939.62,-30.5 835.12,-30.5 835.12,0 939.62,0 939.62,-30.5"/>
<text text-anchor="start" x="843.12" y="-17" font-family="Helvetica,sans-Serif" font-size="10.00">llzk/Dialect/LLZK/IR</text>
<text text-anchor="middle" x="887.38" y="-5.75" font-family="Helvetica,sans-Serif" font-size="10.00">/Dialect.h.inc</text>
</a>
</g>
</g>
<!-- Node18&#45;&gt;Node19 -->
<g id="edge25_Node000018_Node000019" class="edge">
<title>Node18&#45;&gt;Node19</title>
<g id="a_edge25_Node000018_Node000019"><a xlink:title=" ">
<path fill="none" stroke="#63b8ff" d="M840.99,-66.11C848.43,-58.11 857.81,-48.03 866.19,-39.03"/>
<polygon fill="#63b8ff" stroke="#63b8ff" points="868.53,-41.64 872.78,-31.94 863.41,-36.87 868.53,-41.64"/>
</a>
</g>
</g>
<!-- Node20&#45;&gt;Node4 -->
<g id="edge27_Node000020_Node000004" class="edge">
<title>Node20&#45;&gt;Node4</title>
<g id="a_edge27_Node000020_Node000004"><a xlink:title=" ">
<path fill="none" stroke="#63b8ff" d="M914.81,-66.11C881.45,-54.91 835.92,-39.61 804.11,-28.93"/>
<polygon fill="#63b8ff" stroke="#63b8ff" points="805.5,-25.7 794.91,-25.84 803.27,-32.34 805.5,-25.7"/>
</a>
</g>
</g>
<!-- Node21 -->
<g id="Node000021" class="node">
<title>Node21</title>
<g id="a_Node000021"><a xlink:href="_polymorphic_2_i_r_2_dialect_8h_8inc.html" target="_top" xlink:title=" ">
<polygon fill="white" stroke="#666666" points="1079.25,-30.5 957.5,-30.5 957.5,0 1079.25,0 1079.25,-30.5"/>
<text text-anchor="start" x="965.5" y="-17" font-family="Helvetica,sans-Serif" font-size="10.00">llzk/Dialect/Polymorphic</text>
<text text-anchor="middle" x="1018.38" y="-5.75" font-family="Helvetica,sans-Serif" font-size="10.00">/IR/Dialect.h.inc</text>
</a>
</g>
</g>
<!-- Node20&#45;&gt;Node21 -->
<g id="edge28_Node000020_Node000021" class="edge">
<title>Node20&#45;&gt;Node21</title>
<g id="a_edge28_Node000020_Node000021"><a xlink:title=" ">
<path fill="none" stroke="#63b8ff" d="M971.99,-66.11C979.43,-58.11 988.81,-48.03 997.19,-39.03"/>
<polygon fill="#63b8ff" stroke="#63b8ff" points="999.53,-41.64 1003.78,-31.94 994.41,-36.87 999.53,-41.64"/>
</a>
</g>
</g>
<!-- Node22&#45;&gt;Node4 -->
<g id="edge30_Node000022_Node000004" class="edge">
<title>Node22&#45;&gt;Node4</title>
<g id="a_edge30_Node000022_Node000004"><a xlink:title=" ">
<path fill="none" stroke="#63b8ff" d="M1037.38,-68.53C1034.34,-67.82 1031.32,-67.14 1028.38,-66.5 939.24,-47.24 915.66,-49.04 826.38,-30.5 822.37,-29.67 818.21,-28.77 814.05,-27.83"/>
<polygon fill="#63b8ff" stroke="#63b8ff" points="815.11,-24.49 804.58,-25.66 813.55,-31.31 815.11,-24.49"/>
</a>
</g>
</g>
<!-- Node23 -->
<g id="Node000023" class="node">
<title>Node23</title>
<g id="a_Node000023"><a xlink:href="_string_2_i_r_2_dialect_8h_8inc.html" target="_top" xlink:title=" ">
<polygon fill="white" stroke="#666666" points="1191,-30.5 1097.75,-30.5 1097.75,0 1191,0 1191,-30.5"/>
<text text-anchor="start" x="1105.75" y="-17" font-family="Helvetica,sans-Serif" font-size="10.00">llzk/Dialect/String</text>
<text text-anchor="middle" x="1144.38" y="-5.75" font-family="Helvetica,sans-Serif" font-size="10.00">/IR/Dialect.h.inc</text>
</a>
</g>
</g>
<!-- Node22&#45;&gt;Node23 -->
<g id="edge31_Node000022_Node000023" class="edge">
<title>Node22&#45;&gt;Node23</title>
<g id="a_edge31_Node000022_Node000023"><a xlink:title=" ">
<path fill="none" stroke="#63b8ff" d="M1097.99,-66.11C1105.43,-58.11 1114.81,-48.03 1123.19,-39.03"/>
<polygon fill="#63b8ff" stroke="#63b8ff" points="1125.53,-41.64 1129.78,-31.94 1120.41,-36.87 1125.53,-41.64"/>
</a>
</g>
</g>
<!-- Node24&#45;&gt;Node4 -->
<g id="edge33_Node000024_Node000004" class="edge">
<title>Node24&#45;&gt;Node4</title>
<g id="a_edge33_Node000024_Node000004"><a xlink:title=" ">
<path fill="none" stroke="#63b8ff" d="M1149.12,-68.25C1146.17,-67.62 1143.24,-67.03 1140.38,-66.5 1002.22,-41.12 964.73,-54.77 826.38,-30.5 821.81,-29.7 817.07,-28.76 812.35,-27.76"/>
<polygon fill="#63b8ff" stroke="#63b8ff" points="813.45,-24.41 802.92,-25.65 811.92,-31.25 813.45,-24.41"/>
</a>
</g>
</g>
<!-- Node25 -->
<g id="Node000025" class="node">
<title>Node25</title>
<g id="a_Node000025"><a xlink:href="_struct_2_i_r_2_dialect_8h_8inc.html" target="_top" xlink:title=" ">
<polygon fill="white" stroke="#666666" points="1303.38,-30.5 1209.38,-30.5 1209.38,0 1303.38,0 1303.38,-30.5"/>
<text text-anchor="start" x="1217.38" y="-17" font-family="Helvetica,sans-Serif" font-size="10.00">llzk/Dialect/Struct</text>
<text text-anchor="middle" x="1256.38" y="-5.75" font-family="Helvetica,sans-Serif" font-size="10.00">/IR/Dialect.h.inc</text>
</a>
</g>
</g>
<!-- Node24&#45;&gt;Node25 -->
<g id="edge34_Node000024_Node000025" class="edge">
<title>Node24&#45;&gt;Node25</title>
<g id="a_edge34_Node000024_Node000025"><a xlink:title=" ">
<path fill="none" stroke="#63b8ff" d="M1209.99,-66.11C1217.43,-58.11 1226.81,-48.03 1235.19,-39.03"/>
<polygon fill="#63b8ff" stroke="#63b8ff" points="1237.53,-41.64 1241.78,-31.94 1232.41,-36.87 1237.53,-41.64"/>
</a>
</g>
</g>
<!-- Node26&#45;&gt;Node4 -->
<g id="edge36_Node000026_Node000004" class="edge">
<title>Node26&#45;&gt;Node4</title>
<g id="a_edge36_Node000026_Node000004"><a xlink:title=" ">
<path fill="none" stroke="#63b8ff" d="M1261.14,-68.15C1258.18,-67.54 1255.24,-66.98 1252.38,-66.5 1065,-34.96 1013.99,-60.54 826.38,-30.5 821.68,-29.75 816.8,-28.83 811.95,-27.82"/>
<polygon fill="#63b8ff" stroke="#63b8ff" points="812.78,-24.42 802.26,-25.68 811.27,-31.25 812.78,-24.42"/>
</a>
</g>
</g>
<!-- Node27 -->
<g id="Node000027" class="node">
<title>Node27</title>
<g id="a_Node000027"><a xlink:href="_undef_2_i_r_2_dialect_8h_8inc.html" target="_top" xlink:title=" ">
<polygon fill="white" stroke="#666666" points="1415.38,-30.5 1321.38,-30.5 1321.38,0 1415.38,0 1415.38,-30.5"/>
<text text-anchor="start" x="1329.38" y="-17" font-family="Helvetica,sans-Serif" font-size="10.00">llzk/Dialect/Undef</text>
<text text-anchor="middle" x="1368.38" y="-5.75" font-family="Helvetica,sans-Serif" font-size="10.00">/IR/Dialect.h.inc</text>
</a>
</g>
</g>
<!-- Node26&#45;&gt;Node27 -->
<g id="edge37_Node000026_Node000027" class="edge">
<title>Node26&#45;&gt;Node27</title>
<g id="a_edge37_Node000026_Node000027"><a xlink:title=" ">
<path fill="none" stroke="#63b8ff" d="M1321.99,-66.11C1329.43,-58.11 1338.81,-48.03 1347.19,-39.03"/>
<polygon fill="#63b8ff" stroke="#63b8ff" points="1349.53,-41.64 1353.78,-31.94 1344.41,-36.87 1349.53,-41.64"/>
</a>
</g>
</g>
</g>
</svg>
