<?xml version="1.0" encoding="UTF-8" standalone="no"?>
<!DOCTYPE svg PUBLIC "-//W3C//DTD SVG 1.1//EN"
 "http://www.w3.org/Graphics/SVG/1.1/DTD/svg11.dtd">
<!-- Generated by graphviz version 12.2.1 (20241206.2353)
 -->
<!-- Title: build/include/llzk/Transforms/LLZKTransformationPasses.h.inc Pages: 1 -->
<svg width="791pt" height="183pt"
 viewBox="0.00 0.00 791.25 182.75" xmlns="http://www.w3.org/2000/svg" xmlns:xlink="http://www.w3.org/1999/xlink">
<g id="graph0" class="graph" transform="scale(1 1) rotate(0) translate(4 178.75)">
<title>build/include/llzk/Transforms/LLZKTransformationPasses.h.inc</title>
<!-- Node1 -->
<g id="Node000001" class="node">
<title>Node1</title>
<g id="a_Node000001"><a xlink:title=" ">
<polygon fill="#999999" stroke="#666666" points="395.88,-174.75 235.88,-174.75 235.88,-133 395.88,-133 395.88,-174.75"/>
<text text-anchor="start" x="243.88" y="-161.25" font-family="Helvetica,sans-Serif" font-size="10.00">build/include/llzk</text>
<text text-anchor="start" x="243.88" y="-150" font-family="Helvetica,sans-Serif" font-size="10.00">/Transforms/LLZKTransformation</text>
<text text-anchor="middle" x="315.88" y="-138.75" font-family="Helvetica,sans-Serif" font-size="10.00">Passes.h.inc</text>
</a>
</g>
</g>
<!-- Node2 -->
<g id="Node000002" class="node">
<title>Node2</title>
<g id="a_Node000002"><a xlink:href="_l_l_z_k_transformation_passes_8h.html" target="_top" xlink:title=" ">
<polygon fill="white" stroke="#666666" points="463.25,-97 314.5,-97 314.5,-66.5 463.25,-66.5 463.25,-97"/>
<text text-anchor="start" x="322.5" y="-83.5" font-family="Helvetica,sans-Serif" font-size="10.00">include/llzk/Transforms</text>
<text text-anchor="middle" x="388.88" y="-72.25" font-family="Helvetica,sans-Serif" font-size="10.00">/LLZKTransformationPasses.h</text>
</a>
</g>
</g>
<!-- Node1&#45;&gt;Node2 -->
<g id="edge1_Node000001_Node000002" class="edge">
<title>Node1&#45;&gt;Node2</title>
<g id="a_edge1_Node000001_Node000002"><a xlink:title=" ">
<path fill="none" stroke="#63b8ff" d="M345.04,-124.86C354.9,-115.38 365.52,-105.19 373.83,-97.2"/>
<polygon fill="#63b8ff" stroke="#63b8ff" points="342.87,-122.09 338.08,-131.54 347.72,-127.14 342.87,-122.09"/>
</a>
</g>
</g>
<!-- Node3 -->
<g id="Node000003" class="node">
<title>Node3</title>
<g id="a_Node000003"><a xlink:href="_l_l_z_k_redundant_operation_elimination_pass_8cpp.html" target="_top" xlink:title="This file implements the &#45;llzk&#45;duplicate&#45;op&#45;elim pass.">
<polygon fill="white" stroke="#666666" points="151.75,-30.5 0,-30.5 0,0 151.75,0 151.75,-30.5"/>
<text text-anchor="start" x="8" y="-17" font-family="Helvetica,sans-Serif" font-size="10.00">lib/Transforms/LLZKRedundant</text>
<text text-anchor="middle" x="75.88" y="-5.75" font-family="Helvetica,sans-Serif" font-size="10.00">OperationEliminationPass.cpp</text>
</a>
</g>
</g>
<!-- Node1&#45;&gt;Node3 -->
<g id="edge7_Node000001_Node000003" class="edge">
<title>Node1&#45;&gt;Node3</title>
<g id="a_edge7_Node000001_Node000003"><a xlink:title=" ">
<path fill="none" stroke="#63b8ff" d="M270.31,-126.94C220.4,-98.52 142.07,-53.94 101.76,-30.99"/>
<polygon fill="#63b8ff" stroke="#63b8ff" points="268.47,-129.91 278.89,-131.82 271.93,-123.83 268.47,-129.91"/>
</a>
</g>
</g>
<!-- Node4 -->
<g id="Node000004" class="node">
<title>Node4</title>
<g id="a_Node000004"><a xlink:href="_l_l_z_k_redundant_read_and_write_elimination_pass_8cpp.html" target="_top" xlink:title="This file implements the &#45;llzk&#45;duplicate&#45;read&#45;write&#45;elim pass.">
<polygon fill="white" stroke="#666666" points="338,-30.5 169.75,-30.5 169.75,0 338,0 338,-30.5"/>
<text text-anchor="start" x="177.75" y="-17" font-family="Helvetica,sans-Serif" font-size="10.00">lib/Transforms/LLZKRedundant</text>
<text text-anchor="middle" x="253.88" y="-5.75" font-family="Helvetica,sans-Serif" font-size="10.00">ReadAndWriteEliminationPass.cpp</text>
</a>
</g>
</g>
<!-- Node1&#45;&gt;Node4 -->
<g id="edge8_Node000001_Node000004" class="edge">
<title>Node1&#45;&gt;Node4</title>
<g id="a_edge8_Node000001_Node000004"><a xlink:title=" ">
<path fill="none" stroke="#63b8ff" d="M302.07,-122.46C289.1,-93.86 270.24,-52.31 260.4,-30.63"/>
<polygon fill="#63b8ff" stroke="#63b8ff" points="298.78,-123.68 306.1,-131.34 305.16,-120.78 298.78,-123.68"/>
</a>
</g>
</g>
<!-- Node5 -->
<g id="Node000005" class="node">
<title>Node5</title>
<g id="a_Node000005"><a xlink:href="_l_l_z_k_unused_declaration_elimination_pass_8cpp.html" target="_top" xlink:title="This file implements the &#45;llzk&#45;unused&#45;declaration&#45;elim pass.">
<polygon fill="white" stroke="#666666" points="783.25,-30.5 628.5,-30.5 628.5,0 783.25,0 783.25,-30.5"/>
<text text-anchor="start" x="636.5" y="-17" font-family="Helvetica,sans-Serif" font-size="10.00">lib/Transforms/LLZKUnused</text>
<text text-anchor="middle" x="705.88" y="-5.75" font-family="Helvetica,sans-Serif" font-size="10.00">DeclarationEliminationPass.cpp</text>
</a>
</g>
</g>
<!-- Node1&#45;&gt;Node5 -->
<g id="edge9_Node000001_Node000005" class="edge">
<title>Node1&#45;&gt;Node5</title>
<g id="a_edge9_Node000001_Node000005"><a xlink:title=" ">
<path fill="none" stroke="#63b8ff" d="M384.4,-128.87C465.15,-100.58 596.8,-54.46 663.81,-30.99"/>
<polygon fill="#63b8ff" stroke="#63b8ff" points="383.55,-125.46 375.27,-132.07 385.86,-132.06 383.55,-125.46"/>
</a>
</g>
</g>
<!-- Node2&#45;&gt;Node3 -->
<g id="edge2_Node000002_Node000003" class="edge">
<title>Node2&#45;&gt;Node3</title>
<g id="a_edge2_Node000002_Node000003"><a xlink:title=" ">
<path fill="none" stroke="#63b8ff" d="M306.46,-63.77C256.97,-53.57 194.63,-40.72 147.25,-30.96"/>
<polygon fill="#63b8ff" stroke="#63b8ff" points="305.48,-67.14 315.98,-65.73 306.89,-60.28 305.48,-67.14"/>
</a>
</g>
</g>
<!-- Node2&#45;&gt;Node4 -->
<g id="edge3_Node000002_Node000004" class="edge">
<title>Node2&#45;&gt;Node4</title>
<g id="a_edge3_Node000002_Node000004"><a xlink:title=" ">
<path fill="none" stroke="#63b8ff" d="M347.95,-61.2C327.5,-51.43 303.18,-39.81 284.39,-30.83"/>
<polygon fill="#63b8ff" stroke="#63b8ff" points="346.34,-64.31 356.88,-65.46 349.36,-57.99 346.34,-64.31"/>
</a>
</g>
</g>
<!-- Node2&#45;&gt;Node5 -->
<g id="edge4_Node000002_Node000005" class="edge">
<title>Node2&#45;&gt;Node5</title>
<g id="a_edge4_Node000002_Node000005"><a xlink:title=" ">
<path fill="none" stroke="#63b8ff" d="M472.34,-63.77C522.46,-53.57 585.6,-40.72 633.58,-30.96"/>
<polygon fill="#63b8ff" stroke="#63b8ff" points="471.79,-60.31 462.69,-65.73 473.18,-67.17 471.79,-60.31"/>
</a>
</g>
</g>
<!-- Node6 -->
<g id="Node000006" class="node">
<title>Node6</title>
<g id="a_Node000006"><a xlink:href="_transformation_pass_pipelines_8cpp.html" target="_top" xlink:title="This file implements logic for registering the &#45;llzk&#45;remove&#45;unnecessary&#45;ops and &#45;llzk&#45;remove&#45;unnecess...">
<polygon fill="white" stroke="#666666" points="610.12,-30.5 463.62,-30.5 463.62,0 610.12,0 610.12,-30.5"/>
<text text-anchor="start" x="471.62" y="-17" font-family="Helvetica,sans-Serif" font-size="10.00">lib/Transforms/Transformation</text>
<text text-anchor="middle" x="536.88" y="-5.75" font-family="Helvetica,sans-Serif" font-size="10.00">PassPipelines.cpp</text>
</a>
</g>
</g>
<!-- Node2&#45;&gt;Node6 -->
<g id="edge5_Node000002_Node000006" class="edge">
<title>Node2&#45;&gt;Node6</title>
<g id="a_edge5_Node000002_Node000006"><a xlink:title=" ">
<path fill="none" stroke="#63b8ff" d="M432.78,-61.62C455.3,-51.8 482.31,-40.03 503.17,-30.94"/>
<polygon fill="#63b8ff" stroke="#63b8ff" points="431.61,-58.31 423.85,-65.51 434.41,-64.72 431.61,-58.31"/>
</a>
</g>
</g>
<!-- Node7 -->
<g id="Node000007" class="node">
<title>Node7</title>
<g id="a_Node000007"><a xlink:href="llzk-opt_8cpp.html" target="_top" xlink:title="This file implements a version of the mlir&#45;opt tool configured for use on LLZK files.">
<polygon fill="white" stroke="#666666" points="445.62,-30.5 356.12,-30.5 356.12,0 445.62,0 445.62,-30.5"/>
<text text-anchor="start" x="364.12" y="-17" font-family="Helvetica,sans-Serif" font-size="10.00">tools/llzk&#45;opt/llzk</text>
<text text-anchor="middle" x="400.88" y="-5.75" font-family="Helvetica,sans-Serif" font-size="10.00">&#45;opt.cpp</text>
</a>
</g>
</g>
<!-- Node2&#45;&gt;Node7 -->
<g id="edge6_Node000002_Node000007" class="edge">
<title>Node2&#45;&gt;Node7</title>
<g id="a_edge6_Node000002_Node000007"><a xlink:title=" ">
<path fill="none" stroke="#63b8ff" d="M393.7,-54.81C395.22,-46.64 396.84,-37.91 398.16,-30.83"/>
<polygon fill="#63b8ff" stroke="#63b8ff" points="390.26,-54.15 391.87,-64.63 397.14,-55.43 390.26,-54.15"/>
</a>
</g>
</g>
</g>
</svg>
