<?xml version="1.0" encoding="UTF-8" standalone="no"?>
<!DOCTYPE svg PUBLIC "-//W3C//DTD SVG 1.1//EN"
 "http://www.w3.org/Graphics/SVG/1.1/DTD/svg11.dtd">
<!-- Generated by graphviz version 12.2.1 (20241206.2353)
 -->
<!-- Title: lib/Dialect/Function/IR/OpTraits.cpp Pages: 1 -->
<svg width="2014pt" height="426pt"
 viewBox="0.00 0.00 2013.50 426.25" xmlns="http://www.w3.org/2000/svg" xmlns:xlink="http://www.w3.org/1999/xlink">
<g id="graph0" class="graph" transform="scale(1 1) rotate(0) translate(4 422.25)">
<title>lib/Dialect/Function/IR/OpTraits.cpp</title>
<!-- Node1 -->
<g id="Node000001" class="node">
<title>Node1</title>
<g id="a_Node000001"><a xlink:title=" ">
<polygon fill="#999999" stroke="#666666" points="537.5,-418.25 437.5,-418.25 437.5,-387.75 537.5,-387.75 537.5,-418.25"/>
<text text-anchor="start" x="445.5" y="-404.75" font-family="Helvetica,sans-Serif" font-size="10.00">lib/Dialect/Function</text>
<text text-anchor="middle" x="487.5" y="-393.5" font-family="Helvetica,sans-Serif" font-size="10.00">/IR/OpTraits.cpp</text>
</a>
</g>
</g>
<!-- Node2 -->
<g id="Node000002" class="node">
<title>Node2</title>
<g id="a_Node000002"><a xlink:href="_op_traits_8h.html" target="_top" xlink:title=" ">
<polygon fill="white" stroke="#666666" points="540.12,-218.75 434.88,-218.75 434.88,-188.25 540.12,-188.25 540.12,-218.75"/>
<text text-anchor="start" x="442.88" y="-205.25" font-family="Helvetica,sans-Serif" font-size="10.00">llzk/Dialect/Function</text>
<text text-anchor="middle" x="487.5" y="-194" font-family="Helvetica,sans-Serif" font-size="10.00">/IR/OpTraits.h</text>
</a>
</g>
</g>
<!-- Node1&#45;&gt;Node2 -->
<g id="edge1_Node000001_Node000002" class="edge">
<title>Node1&#45;&gt;Node2</title>
<g id="a_edge1_Node000001_Node000002"><a xlink:title=" ">
<path fill="none" stroke="#63b8ff" d="M487.5,-387.48C487.5,-354.31 487.5,-272.6 487.5,-230.5"/>
<polygon fill="#63b8ff" stroke="#63b8ff" points="491,-230.56 487.5,-220.56 484,-230.56 491,-230.56"/>
</a>
</g>
</g>
<!-- Node4 -->
<g id="Node000004" class="node">
<title>Node4</title>
<g id="a_Node000004"><a xlink:title=" ">
<polygon fill="#e0e0e0" stroke="#999999" points="550.75,-80.12 452.25,-80.12 452.25,-60.88 550.75,-60.88 550.75,-80.12"/>
<text text-anchor="middle" x="501.5" y="-66.62" font-family="Helvetica,sans-Serif" font-size="10.00">mlir/IR/Operation.h</text>
</a>
</g>
</g>
<!-- Node1&#45;&gt;Node4 -->
<g id="edge63_Node000001_Node000004" class="edge">
<title>Node1&#45;&gt;Node4</title>
<g id="a_edge63_Node000001_Node000004"><a xlink:title=" ">
<path fill="none" stroke="#63b8ff" d="M437.09,-394.04C373.54,-380.81 272.5,-347.71 272.5,-271 272.5,-271 272.5,-271 272.5,-202.5 272.5,-165.63 265.48,-147.87 291.5,-121.75 312.25,-100.92 386.4,-86.75 440.73,-78.9"/>
<polygon fill="#63b8ff" stroke="#63b8ff" points="441.08,-82.39 450.5,-77.53 440.11,-75.46 441.08,-82.39"/>
</a>
</g>
</g>
<!-- Node6 -->
<g id="Node000006" class="node">
<title>Node6</title>
<g id="a_Node000006"><a xlink:href="_function_2_i_r_2_ops_8h.html" target="_top" xlink:title=" ">
<polygon fill="white" stroke="#666666" points="1115.12,-351.75 1009.88,-351.75 1009.88,-321.25 1115.12,-321.25 1115.12,-351.75"/>
<text text-anchor="start" x="1017.88" y="-338.25" font-family="Helvetica,sans-Serif" font-size="10.00">llzk/Dialect/Function</text>
<text text-anchor="middle" x="1062.5" y="-327" font-family="Helvetica,sans-Serif" font-size="10.00">/IR/Ops.h</text>
</a>
</g>
</g>
<!-- Node1&#45;&gt;Node6 -->
<g id="edge5_Node000001_Node000006" class="edge">
<title>Node1&#45;&gt;Node6</title>
<g id="a_edge5_Node000001_Node000006"><a xlink:title=" ">
<path fill="none" stroke="#63b8ff" d="M537.77,-396.36C642.38,-384.63 883.29,-357.6 998.66,-344.66"/>
<polygon fill="#63b8ff" stroke="#63b8ff" points="998.7,-348.18 1008.25,-343.59 997.92,-341.22 998.7,-348.18"/>
</a>
</g>
</g>
<!-- Node3 -->
<g id="Node000003" class="node">
<title>Node3</title>
<g id="a_Node000003"><a xlink:title=" ">
<polygon fill="#e0e0e0" stroke="#999999" points="410.75,-146.62 300.25,-146.62 300.25,-127.38 410.75,-127.38 410.75,-146.62"/>
<text text-anchor="middle" x="355.5" y="-133.12" font-family="Helvetica,sans-Serif" font-size="10.00">mlir/IR/OpDefinition.h</text>
</a>
</g>
</g>
<!-- Node2&#45;&gt;Node3 -->
<g id="edge2_Node000002_Node000003" class="edge">
<title>Node2&#45;&gt;Node3</title>
<g id="a_edge2_Node000002_Node000003"><a xlink:title=" ">
<path fill="none" stroke="#63b8ff" d="M457.55,-187.86C435.55,-177.12 405.85,-162.61 384.17,-152.01"/>
<polygon fill="#63b8ff" stroke="#63b8ff" points="385.82,-148.92 375.3,-147.67 382.75,-155.21 385.82,-148.92"/>
</a>
</g>
</g>
<!-- Node2&#45;&gt;Node4 -->
<g id="edge3_Node000002_Node000004" class="edge">
<title>Node2&#45;&gt;Node4</title>
<g id="a_edge3_Node000002_Node000004"><a xlink:title=" ">
<path fill="none" stroke="#63b8ff" d="M475.88,-187.88C464.49,-171.69 449.98,-144.8 458.5,-121.75 463.26,-108.85 472.98,-97.03 481.97,-88.09"/>
<polygon fill="#63b8ff" stroke="#63b8ff" points="484.12,-90.87 489.07,-81.5 479.36,-85.74 484.12,-90.87"/>
</a>
</g>
</g>
<!-- Node5 -->
<g id="Node000005" class="node">
<title>Node5</title>
<g id="a_Node000005"><a xlink:title=" ">
<polygon fill="#e0e0e0" stroke="#999999" points="606,-146.62 467,-146.62 467,-127.38 606,-127.38 606,-146.62"/>
<text text-anchor="middle" x="536.5" y="-133.12" font-family="Helvetica,sans-Serif" font-size="10.00">mlir/Support/LogicalResult.h</text>
</a>
</g>
</g>
<!-- Node2&#45;&gt;Node5 -->
<g id="edge4_Node000002_Node000005" class="edge">
<title>Node2&#45;&gt;Node5</title>
<g id="a_edge4_Node000002_Node000005"><a xlink:title=" ">
<path fill="none" stroke="#63b8ff" d="M498.62,-187.86C505.82,-178.39 515.24,-165.98 522.89,-155.91"/>
<polygon fill="#63b8ff" stroke="#63b8ff" points="525.62,-158.11 528.88,-148.03 520.05,-153.87 525.62,-158.11"/>
</a>
</g>
</g>
<!-- Node7 -->
<g id="Node000007" class="node">
<title>Node7</title>
<g id="a_Node000007"><a xlink:href="_function_2_i_r_2_attrs_8h.html" target="_top" xlink:title=" ">
<polygon fill="white" stroke="#666666" points="833.12,-285.25 727.88,-285.25 727.88,-254.75 833.12,-254.75 833.12,-285.25"/>
<text text-anchor="start" x="735.88" y="-271.75" font-family="Helvetica,sans-Serif" font-size="10.00">llzk/Dialect/Function</text>
<text text-anchor="middle" x="780.5" y="-260.5" font-family="Helvetica,sans-Serif" font-size="10.00">/IR/Attrs.h</text>
</a>
</g>
</g>
<!-- Node6&#45;&gt;Node7 -->
<g id="edge6_Node000006_Node000007" class="edge">
<title>Node6&#45;&gt;Node7</title>
<g id="a_edge6_Node000006_Node000007"><a xlink:title=" ">
<path fill="none" stroke="#63b8ff" d="M1009.6,-323.44C967.55,-313.85 906.94,-300.01 844.8,-285.78"/>
<polygon fill="#63b8ff" stroke="#63b8ff" points="845.6,-282.37 835.07,-283.55 844.04,-289.19 845.6,-282.37"/>
</a>
</g>
</g>
<!-- Node10 -->
<g id="Node000010" class="node">
<title>Node10</title>
<g id="a_Node000010"><a xlink:href="_op_helpers_8h.html" target="_top" xlink:title=" ">
<polygon fill="white" stroke="#666666" points="713.75,-218.75 615.25,-218.75 615.25,-188.25 713.75,-188.25 713.75,-218.75"/>
<text text-anchor="start" x="623.25" y="-205.25" font-family="Helvetica,sans-Serif" font-size="10.00">llzk/Dialect/Shared</text>
<text text-anchor="middle" x="664.5" y="-194" font-family="Helvetica,sans-Serif" font-size="10.00">/OpHelpers.h</text>
</a>
</g>
</g>
<!-- Node6&#45;&gt;Node10 -->
<g id="edge9_Node000006_Node000010" class="edge">
<title>Node6&#45;&gt;Node10</title>
<g id="a_edge9_Node000006_Node000010"><a xlink:title=" ">
<path fill="none" stroke="#63b8ff" d="M1009.61,-335.49C917.39,-334.37 732.48,-326.82 685.5,-285.25 670.25,-271.76 665.42,-248.74 664.16,-230.72"/>
<polygon fill="#63b8ff" stroke="#63b8ff" points="667.66,-230.61 663.82,-220.74 660.66,-230.85 667.66,-230.61"/>
</a>
</g>
</g>
<!-- Node13 -->
<g id="Node000013" class="node">
<title>Node13</title>
<g id="a_Node000013"><a xlink:title=" ">
<polygon fill="#e0e0e0" stroke="#999999" points="781.5,-80.12 645.5,-80.12 645.5,-60.88 781.5,-60.88 781.5,-80.12"/>
<text text-anchor="middle" x="713.5" y="-66.62" font-family="Helvetica,sans-Serif" font-size="10.00">mlir/IR/OpImplementation.h</text>
</a>
</g>
</g>
<!-- Node6&#45;&gt;Node13 -->
<g id="edge58_Node000006_Node000013" class="edge">
<title>Node6&#45;&gt;Node13</title>
<g id="a_edge58_Node000006_Node000013"><a xlink:title=" ">
<path fill="none" stroke="#63b8ff" d="M1009.39,-335.82C922.39,-335.09 755.46,-328 718.5,-285.25 689.94,-252.22 750.09,-197.95 760.5,-188.25 785.23,-165.2 810.15,-181.26 827.5,-152.25 834.46,-140.62 834.9,-133.1 827.5,-121.75 815.48,-103.32 795.02,-91.6 774.71,-84.17"/>
<polygon fill="#63b8ff" stroke="#63b8ff" points="775.86,-80.87 765.27,-81.05 773.66,-87.51 775.86,-80.87"/>
</a>
</g>
</g>
<!-- Node16 -->
<g id="Node000016" class="node">
<title>Node16</title>
<g id="a_Node000016"><a xlink:href="_constants_8h.html" target="_top" xlink:title=" ">
<polygon fill="white" stroke="#666666" points="932.12,-80.12 826.88,-80.12 826.88,-60.88 932.12,-60.88 932.12,-80.12"/>
<text text-anchor="middle" x="879.5" y="-66.62" font-family="Helvetica,sans-Serif" font-size="10.00">llzk/Util/Constants.h</text>
</a>
</g>
</g>
<!-- Node6&#45;&gt;Node16 -->
<g id="edge53_Node000006_Node000016" class="edge">
<title>Node6&#45;&gt;Node16</title>
<g id="a_edge53_Node000006_Node000016"><a xlink:title=" ">
<path fill="none" stroke="#63b8ff" d="M1115.62,-331.51C1185.69,-324.24 1295.58,-304.65 1254.5,-254.75 1201.54,-190.42 1135.41,-271 1070.5,-218.75 1033.9,-189.29 1063.07,-153.56 1028.5,-121.75 1013.6,-108.04 965.93,-93.34 928.47,-83.41"/>
<polygon fill="#63b8ff" stroke="#63b8ff" points="929.75,-80.12 919.19,-80.99 927.98,-86.9 929.75,-80.12"/>
</a>
</g>
</g>
<!-- Node19 -->
<g id="Node000019" class="node">
<title>Node19</title>
<g id="a_Node000019"><a xlink:href="_struct_2_i_r_2_ops_8h.html" target="_top" xlink:title=" ">
<polygon fill="white" stroke="#666666" points="1395.5,-285.25 1301.5,-285.25 1301.5,-254.75 1395.5,-254.75 1395.5,-285.25"/>
<text text-anchor="start" x="1309.5" y="-271.75" font-family="Helvetica,sans-Serif" font-size="10.00">llzk/Dialect/Struct</text>
<text text-anchor="middle" x="1348.5" y="-260.5" font-family="Helvetica,sans-Serif" font-size="10.00">/IR/Ops.h</text>
</a>
</g>
</g>
<!-- Node6&#45;&gt;Node19 -->
<g id="edge22_Node000006_Node000019" class="edge">
<title>Node6&#45;&gt;Node19</title>
<g id="a_edge22_Node000006_Node000019"><a xlink:title=" ">
<path fill="none" stroke="#63b8ff" d="M1115.27,-323.87C1160.89,-313.77 1228.58,-298.71 1287.5,-285.25 1288.33,-285.06 1289.18,-284.87 1290.02,-284.67"/>
<polygon fill="#63b8ff" stroke="#63b8ff" points="1290.79,-288.09 1299.75,-282.43 1289.22,-281.27 1290.79,-288.09"/>
</a>
</g>
</g>
<!-- Node40 -->
<g id="Node000040" class="node">
<title>Node40</title>
<g id="a_Node000040"><a xlink:href="_symbol_helper_8h.html" target="_top" xlink:title=" ">
<polygon fill="white" stroke="#666666" points="1673,-279.62 1552,-279.62 1552,-260.38 1673,-260.38 1673,-279.62"/>
<text text-anchor="middle" x="1612.5" y="-266.12" font-family="Helvetica,sans-Serif" font-size="10.00">llzk/Util/SymbolHelper.h</text>
</a>
</g>
</g>
<!-- Node6&#45;&gt;Node40 -->
<g id="edge54_Node000006_Node000040" class="edge">
<title>Node6&#45;&gt;Node40</title>
<g id="a_edge54_Node000006_Node000040"><a xlink:title=" ">
<path fill="none" stroke="#63b8ff" d="M1115.56,-330.1C1199.78,-321.42 1369.21,-303.46 1512.5,-285.25 1521.53,-284.1 1531.01,-282.84 1540.38,-281.54"/>
<polygon fill="#63b8ff" stroke="#63b8ff" points="1540.81,-285.02 1550.23,-280.17 1539.84,-278.08 1540.81,-285.02"/>
</a>
</g>
</g>
<!-- Node41 -->
<g id="Node000041" class="node">
<title>Node41</title>
<g id="a_Node000041"><a xlink:title=" ">
<polygon fill="#e0e0e0" stroke="#999999" points="1636.62,-213.12 1486.38,-213.12 1486.38,-193.88 1636.62,-193.88 1636.62,-213.12"/>
<text text-anchor="middle" x="1561.5" y="-199.62" font-family="Helvetica,sans-Serif" font-size="10.00">mlir/Interfaces/CallInterfaces.h</text>
</a>
</g>
</g>
<!-- Node6&#45;&gt;Node41 -->
<g id="edge59_Node000006_Node000041" class="edge">
<title>Node6&#45;&gt;Node41</title>
<g id="a_edge59_Node000006_Node000041"><a xlink:title=" ">
<path fill="none" stroke="#63b8ff" d="M1115.57,-333.1C1183.86,-328.8 1305.5,-317.01 1404.5,-285.25 1454.89,-269.08 1508.72,-238 1538.43,-219.47"/>
<polygon fill="#63b8ff" stroke="#63b8ff" points="1540.03,-222.6 1546.61,-214.29 1536.29,-216.68 1540.03,-222.6"/>
</a>
</g>
</g>
<!-- Node43 -->
<g id="Node000043" class="node">
<title>Node43</title>
<g id="a_Node000043"><a xlink:title=" ">
<polygon fill="#e0e0e0" stroke="#999999" points="985.38,-285.25 851.62,-285.25 851.62,-254.75 985.38,-254.75 985.38,-285.25"/>
<text text-anchor="start" x="859.62" y="-271.75" font-family="Helvetica,sans-Serif" font-size="10.00">mlir/Interfaces/ControlFlow</text>
<text text-anchor="middle" x="918.5" y="-260.5" font-family="Helvetica,sans-Serif" font-size="10.00">Interfaces.h</text>
</a>
</g>
</g>
<!-- Node6&#45;&gt;Node43 -->
<g id="edge60_Node000006_Node000043" class="edge">
<title>Node6&#45;&gt;Node43</title>
<g id="a_edge60_Node000006_Node000043"><a xlink:title=" ">
<path fill="none" stroke="#63b8ff" d="M1029.82,-320.86C1009.57,-311.79 983.33,-300.04 961.41,-290.22"/>
<polygon fill="#63b8ff" stroke="#63b8ff" points="962.98,-287.09 952.43,-286.2 960.12,-293.48 962.98,-287.09"/>
</a>
</g>
</g>
<!-- Node44 -->
<g id="Node000044" class="node">
<title>Node44</title>
<g id="a_Node000044"><a xlink:title=" ">
<polygon fill="#e0e0e0" stroke="#999999" points="1121.88,-285.25 1003.12,-285.25 1003.12,-254.75 1121.88,-254.75 1121.88,-285.25"/>
<text text-anchor="start" x="1011.12" y="-271.75" font-family="Helvetica,sans-Serif" font-size="10.00">mlir/Interfaces/Function</text>
<text text-anchor="middle" x="1062.5" y="-260.5" font-family="Helvetica,sans-Serif" font-size="10.00">Interfaces.h</text>
</a>
</g>
</g>
<!-- Node6&#45;&gt;Node44 -->
<g id="edge61_Node000006_Node000044" class="edge">
<title>Node6&#45;&gt;Node44</title>
<g id="a_edge61_Node000006_Node000044"><a xlink:title=" ">
<path fill="none" stroke="#63b8ff" d="M1062.5,-320.86C1062.5,-313.77 1062.5,-305.04 1062.5,-296.88"/>
<polygon fill="#63b8ff" stroke="#63b8ff" points="1066,-297.09 1062.5,-287.09 1059,-297.09 1066,-297.09"/>
</a>
</g>
</g>
<!-- Node45 -->
<g id="Node000045" class="node">
<title>Node45</title>
<g id="a_Node000045"><a xlink:href="_function_2_i_r_2_ops_8h_8inc.html" target="_top" xlink:title=" ">
<polygon fill="white" stroke="#666666" points="1245.12,-285.25 1139.88,-285.25 1139.88,-254.75 1245.12,-254.75 1245.12,-285.25"/>
<text text-anchor="start" x="1147.88" y="-271.75" font-family="Helvetica,sans-Serif" font-size="10.00">llzk/Dialect/Function</text>
<text text-anchor="middle" x="1192.5" y="-260.5" font-family="Helvetica,sans-Serif" font-size="10.00">/IR/Ops.h.inc</text>
</a>
</g>
</g>
<!-- Node6&#45;&gt;Node45 -->
<g id="edge62_Node000006_Node000045" class="edge">
<title>Node6&#45;&gt;Node45</title>
<g id="a_edge62_Node000006_Node000045"><a xlink:title=" ">
<path fill="none" stroke="#63b8ff" d="M1092,-320.86C1110.03,-311.92 1133.33,-300.36 1152.95,-290.62"/>
<polygon fill="#63b8ff" stroke="#63b8ff" points="1154.36,-293.83 1161.76,-286.25 1151.25,-287.56 1154.36,-293.83"/>
</a>
</g>
</g>
<!-- Node8 -->
<g id="Node000008" class="node">
<title>Node8</title>
<g id="a_Node000008"><a xlink:title=" ">
<polygon fill="#e0e0e0" stroke="#999999" points="1019.75,-146.62 921.25,-146.62 921.25,-127.38 1019.75,-127.38 1019.75,-146.62"/>
<text text-anchor="middle" x="970.5" y="-133.12" font-family="Helvetica,sans-Serif" font-size="10.00">mlir/IR/Attributes.h</text>
</a>
</g>
</g>
<!-- Node7&#45;&gt;Node8 -->
<g id="edge7_Node000007_Node000008" class="edge">
<title>Node7&#45;&gt;Node8</title>
<g id="a_edge7_Node000007_Node000008"><a xlink:title=" ">
<path fill="none" stroke="#63b8ff" d="M817.61,-254.36C838.16,-245.45 863.68,-233.06 884.5,-218.75 911.81,-199.98 938.95,-172.68 955.23,-155.13"/>
<polygon fill="#63b8ff" stroke="#63b8ff" points="957.53,-157.81 961.67,-148.06 952.35,-153.09 957.53,-157.81"/>
</a>
</g>
</g>
<!-- Node9 -->
<g id="Node000009" class="node">
<title>Node9</title>
<g id="a_Node000009"><a xlink:href="_function_2_i_r_2_attrs_8h_8inc.html" target="_top" xlink:title=" ">
<polygon fill="white" stroke="#666666" points="875.12,-218.75 769.88,-218.75 769.88,-188.25 875.12,-188.25 875.12,-218.75"/>
<text text-anchor="start" x="777.88" y="-205.25" font-family="Helvetica,sans-Serif" font-size="10.00">llzk/Dialect/Function</text>
<text text-anchor="middle" x="822.5" y="-194" font-family="Helvetica,sans-Serif" font-size="10.00">/IR/Attrs.h.inc</text>
</a>
</g>
</g>
<!-- Node7&#45;&gt;Node9 -->
<g id="edge8_Node000007_Node000009" class="edge">
<title>Node7&#45;&gt;Node9</title>
<g id="a_edge8_Node000007_Node000009"><a xlink:title=" ">
<path fill="none" stroke="#63b8ff" d="M790.03,-254.36C794.97,-246.78 801.13,-237.31 806.76,-228.68"/>
<polygon fill="#63b8ff" stroke="#63b8ff" points="809.66,-230.64 812.18,-220.35 803.79,-226.82 809.66,-230.64"/>
</a>
</g>
</g>
<!-- Node10&#45;&gt;Node4 -->
<g id="edge18_Node000010_Node000004" class="edge">
<title>Node10&#45;&gt;Node4</title>
<g id="a_edge18_Node000010_Node000004"><a xlink:title=" ">
<path fill="none" stroke="#63b8ff" d="M658.85,-187.82C651.36,-170.06 636.58,-140.25 615.5,-121.75 595.73,-104.4 569.02,-92.2 546.42,-84.16"/>
<polygon fill="#63b8ff" stroke="#63b8ff" points="547.74,-80.91 537.14,-81.03 545.5,-87.55 547.74,-80.91"/>
</a>
</g>
</g>
<!-- Node10&#45;&gt;Node5 -->
<g id="edge19_Node000010_Node000005" class="edge">
<title>Node10&#45;&gt;Node5</title>
<g id="a_edge19_Node000010_Node000005"><a xlink:title=" ">
<path fill="none" stroke="#63b8ff" d="M635.45,-187.86C614.22,-177.17 585.59,-162.74 564.59,-152.15"/>
<polygon fill="#63b8ff" stroke="#63b8ff" points="566.24,-149.07 555.73,-147.69 563.09,-155.32 566.24,-149.07"/>
</a>
</g>
</g>
<!-- Node11 -->
<g id="Node000011" class="node">
<title>Node11</title>
<g id="a_Node000011"><a xlink:href="_affine_helper_8h.html" target="_top" xlink:title=" ">
<polygon fill="white" stroke="#666666" points="244.25,-146.62 130.75,-146.62 130.75,-127.38 244.25,-127.38 244.25,-146.62"/>
<text text-anchor="middle" x="187.5" y="-133.12" font-family="Helvetica,sans-Serif" font-size="10.00">llzk/Util/AffineHelper.h</text>
</a>
</g>
</g>
<!-- Node10&#45;&gt;Node11 -->
<g id="edge10_Node000010_Node000011" class="edge">
<title>Node10&#45;&gt;Node11</title>
<g id="a_edge10_Node000010_Node000011"><a xlink:title=" ">
<path fill="none" stroke="#63b8ff" d="M615.02,-195.87C543.58,-186.29 407.4,-168 291.5,-152.25 280,-150.69 267.8,-149.02 255.94,-147.4"/>
<polygon fill="#63b8ff" stroke="#63b8ff" points="256.6,-143.96 246.21,-146.07 255.65,-150.89 256.6,-143.96"/>
</a>
</g>
</g>
<!-- Node10&#45;&gt;Node13 -->
<g id="edge17_Node000010_Node000013" class="edge">
<title>Node10&#45;&gt;Node13</title>
<g id="a_edge17_Node000010_Node000013"><a xlink:title=" ">
<path fill="none" stroke="#63b8ff" d="M668.99,-187.77C674.05,-171.48 682.73,-144.51 691.5,-121.75 695.5,-111.38 700.42,-100.02 704.6,-90.73"/>
<polygon fill="#63b8ff" stroke="#63b8ff" points="707.76,-92.22 708.73,-81.67 701.39,-89.31 707.76,-92.22"/>
</a>
</g>
</g>
<!-- Node10&#45;&gt;Node16 -->
<g id="edge16_Node000010_Node000016" class="edge">
<title>Node10&#45;&gt;Node16</title>
<g id="a_edge16_Node000010_Node000016"><a xlink:title=" ">
<path fill="none" stroke="#63b8ff" d="M714.23,-196.33C748.82,-189.98 794.47,-177.3 827.5,-152.25 848.52,-136.3 863.43,-109.22 871.74,-90.85"/>
<polygon fill="#63b8ff" stroke="#63b8ff" points="874.86,-92.45 875.56,-81.88 868.42,-89.71 874.86,-92.45"/>
</a>
</g>
</g>
<!-- Node17 -->
<g id="Node000017" class="node">
<title>Node17</title>
<g id="a_Node000017"><a xlink:title=" ">
<polygon fill="#e0e0e0" stroke="#999999" points="818.88,-146.62 700.12,-146.62 700.12,-127.38 818.88,-127.38 818.88,-146.62"/>
<text text-anchor="middle" x="759.5" y="-133.12" font-family="Helvetica,sans-Serif" font-size="10.00">llvm/ADT/SmallString.h</text>
</a>
</g>
</g>
<!-- Node10&#45;&gt;Node17 -->
<g id="edge20_Node000010_Node000017" class="edge">
<title>Node10&#45;&gt;Node17</title>
<g id="a_edge20_Node000010_Node000017"><a xlink:title=" ">
<path fill="none" stroke="#63b8ff" d="M686.06,-187.86C701.24,-177.56 721.51,-163.79 736.91,-153.33"/>
<polygon fill="#63b8ff" stroke="#63b8ff" points="738.67,-156.37 744.98,-147.86 734.74,-150.58 738.67,-156.37"/>
</a>
</g>
</g>
<!-- Node18 -->
<g id="Node000018" class="node">
<title>Node18</title>
<g id="a_Node000018"><a xlink:title=" ">
<polygon fill="#e0e0e0" stroke="#999999" points="1576.38,-80.12 1466.62,-80.12 1466.62,-60.88 1576.38,-60.88 1576.38,-80.12"/>
<text text-anchor="middle" x="1521.5" y="-66.62" font-family="Helvetica,sans-Serif" font-size="10.00">llvm/ADT/StringRef.h</text>
</a>
</g>
</g>
<!-- Node10&#45;&gt;Node18 -->
<g id="edge21_Node000010_Node000018" class="edge">
<title>Node10&#45;&gt;Node18</title>
<g id="a_edge21_Node000010_Node000018"><a xlink:title=" ">
<path fill="none" stroke="#63b8ff" d="M714.23,-194.31C729.08,-192.09 745.42,-189.85 760.5,-188.25 884.5,-175.08 1204.25,-197.38 1320.5,-152.25 1340.69,-144.41 1339.37,-131.9 1358.5,-121.75 1378.89,-110.94 1434.86,-94.67 1475.54,-83.59"/>
<polygon fill="#63b8ff" stroke="#63b8ff" points="1476.36,-86.99 1485.1,-81.01 1474.53,-80.24 1476.36,-86.99"/>
</a>
</g>
</g>
<!-- Node11&#45;&gt;Node4 -->
<g id="edge13_Node000011_Node000004" class="edge">
<title>Node11&#45;&gt;Node4</title>
<g id="a_edge13_Node000011_Node000004"><a xlink:title=" ">
<path fill="none" stroke="#63b8ff" d="M231.82,-126.9C288.08,-115.34 385.14,-95.4 446.19,-82.86"/>
<polygon fill="#63b8ff" stroke="#63b8ff" points="446.58,-86.36 455.67,-80.91 445.17,-79.5 446.58,-86.36"/>
</a>
</g>
</g>
<!-- Node12 -->
<g id="Node000012" class="node">
<title>Node12</title>
<g id="a_Node000012"><a xlink:title=" ">
<polygon fill="#e0e0e0" stroke="#999999" points="357.38,-80.12 265.62,-80.12 265.62,-60.88 357.38,-60.88 357.38,-80.12"/>
<text text-anchor="middle" x="311.5" y="-66.62" font-family="Helvetica,sans-Serif" font-size="10.00">mlir/IR/Builders.h</text>
</a>
</g>
</g>
<!-- Node11&#45;&gt;Node12 -->
<g id="edge11_Node000011_Node000012" class="edge">
<title>Node11&#45;&gt;Node12</title>
<g id="a_edge11_Node000011_Node000012"><a xlink:title=" ">
<path fill="none" stroke="#63b8ff" d="M205,-126.9C225.59,-116.19 260.01,-98.28 284.13,-85.74"/>
<polygon fill="#63b8ff" stroke="#63b8ff" points="285.49,-88.98 292.74,-81.26 282.26,-82.77 285.49,-88.98"/>
</a>
</g>
</g>
<!-- Node11&#45;&gt;Node13 -->
<g id="edge12_Node000011_Node000013" class="edge">
<title>Node11&#45;&gt;Node13</title>
<g id="a_edge12_Node000011_Node000013"><a xlink:title=" ">
<path fill="none" stroke="#63b8ff" d="M244.69,-127.98C259.9,-125.9 276.32,-123.69 291.5,-121.75 410.62,-106.5 548.86,-90.33 633.75,-80.57"/>
<polygon fill="#63b8ff" stroke="#63b8ff" points="634.07,-84.06 643.61,-79.44 633.28,-77.1 634.07,-84.06"/>
</a>
</g>
</g>
<!-- Node14 -->
<g id="Node000014" class="node">
<title>Node14</title>
<g id="a_Node000014"><a xlink:title=" ">
<polygon fill="#e0e0e0" stroke="#999999" points="109,-80.12 0,-80.12 0,-60.88 109,-60.88 109,-80.12"/>
<text text-anchor="middle" x="54.5" y="-66.62" font-family="Helvetica,sans-Serif" font-size="10.00">mlir/IR/ValueRange.h</text>
</a>
</g>
</g>
<!-- Node11&#45;&gt;Node14 -->
<g id="edge14_Node000011_Node000014" class="edge">
<title>Node11&#45;&gt;Node14</title>
<g id="a_edge14_Node000011_Node000014"><a xlink:title=" ">
<path fill="none" stroke="#63b8ff" d="M168.73,-126.9C146.55,-116.14 109.4,-98.12 83.51,-85.57"/>
<polygon fill="#63b8ff" stroke="#63b8ff" points="85.06,-82.43 74.54,-81.22 82.01,-88.73 85.06,-82.43"/>
</a>
</g>
</g>
<!-- Node15 -->
<g id="Node000015" class="node">
<title>Node15</title>
<g id="a_Node000015"><a xlink:title=" ">
<polygon fill="#e0e0e0" stroke="#999999" points="248,-80.12 127,-80.12 127,-60.88 248,-60.88 248,-80.12"/>
<text text-anchor="middle" x="187.5" y="-66.62" font-family="Helvetica,sans-Serif" font-size="10.00">llvm/ADT/SmallVector.h</text>
</a>
</g>
</g>
<!-- Node11&#45;&gt;Node15 -->
<g id="edge15_Node000011_Node000015" class="edge">
<title>Node11&#45;&gt;Node15</title>
<g id="a_edge15_Node000011_Node000015"><a xlink:title=" ">
<path fill="none" stroke="#63b8ff" d="M187.5,-127.03C187.5,-117.98 187.5,-103.7 187.5,-91.88"/>
<polygon fill="#63b8ff" stroke="#63b8ff" points="191,-91.91 187.5,-81.91 184,-91.91 191,-91.91"/>
</a>
</g>
</g>
<!-- Node19&#45;&gt;Node2 -->
<g id="edge23_Node000019_Node000002" class="edge">
<title>Node19&#45;&gt;Node2</title>
<g id="a_edge23_Node000019_Node000002"><a xlink:title=" ">
<path fill="none" stroke="#63b8ff" d="M1301.27,-260.94C1286.35,-258.64 1269.77,-256.33 1254.5,-254.75 967.58,-225.1 893.84,-243.91 606.5,-218.75 588.73,-217.19 569.52,-215.08 551.82,-212.96"/>
<polygon fill="#63b8ff" stroke="#63b8ff" points="552.3,-209.49 541.95,-211.76 551.45,-216.44 552.3,-209.49"/>
</a>
</g>
</g>
<!-- Node19&#45;&gt;Node10 -->
<g id="edge27_Node000019_Node000010" class="edge">
<title>Node19&#45;&gt;Node10</title>
<g id="a_edge27_Node000019_Node000010"><a xlink:title=" ">
<path fill="none" stroke="#63b8ff" d="M1301.26,-261.1C1286.33,-258.81 1269.75,-256.46 1254.5,-254.75 1035.73,-230.23 979.31,-242.93 760.5,-218.75 749.2,-217.5 737.18,-215.92 725.61,-214.27"/>
<polygon fill="#63b8ff" stroke="#63b8ff" points="726.13,-210.81 715.73,-212.82 725.12,-217.73 726.13,-210.81"/>
</a>
</g>
</g>
<!-- Node20 -->
<g id="Node000020" class="node">
<title>Node20</title>
<g id="a_Node000020"><a xlink:href="_l_l_z_k_2_i_r_2_attrs_8h.html" target="_top" xlink:title=" ">
<polygon fill="white" stroke="#666666" points="1183.75,-218.75 1079.25,-218.75 1079.25,-188.25 1183.75,-188.25 1183.75,-218.75"/>
<text text-anchor="start" x="1087.25" y="-205.25" font-family="Helvetica,sans-Serif" font-size="10.00">llzk/Dialect/LLZK/IR</text>
<text text-anchor="middle" x="1131.5" y="-194" font-family="Helvetica,sans-Serif" font-size="10.00">/Attrs.h</text>
</a>
</g>
</g>
<!-- Node19&#45;&gt;Node20 -->
<g id="edge24_Node000019_Node000020" class="edge">
<title>Node19&#45;&gt;Node20</title>
<g id="a_edge24_Node000019_Node000020"><a xlink:title=" ">
<path fill="none" stroke="#63b8ff" d="M1301.15,-254.92C1269.08,-245.39 1226.42,-232.71 1191.91,-222.46"/>
<polygon fill="#63b8ff" stroke="#63b8ff" points="1193.05,-219.14 1182.46,-219.65 1191.05,-225.85 1193.05,-219.14"/>
</a>
</g>
</g>
<!-- Node22 -->
<g id="Node000022" class="node">
<title>Node22</title>
<g id="a_Node000022"><a xlink:href="_struct_2_i_r_2_types_8h.html" target="_top" xlink:title=" ">
<polygon fill="white" stroke="#666666" points="1468.5,-218.75 1374.5,-218.75 1374.5,-188.25 1468.5,-188.25 1468.5,-218.75"/>
<text text-anchor="start" x="1382.5" y="-205.25" font-family="Helvetica,sans-Serif" font-size="10.00">llzk/Dialect/Struct</text>
<text text-anchor="middle" x="1421.5" y="-194" font-family="Helvetica,sans-Serif" font-size="10.00">/IR/Types.h</text>
</a>
</g>
</g>
<!-- Node19&#45;&gt;Node22 -->
<g id="edge28_Node000019_Node000022" class="edge">
<title>Node19&#45;&gt;Node22</title>
<g id="a_edge28_Node000019_Node000022"><a xlink:title=" ">
<path fill="none" stroke="#63b8ff" d="M1365.06,-254.36C1374.4,-246.12 1386.24,-235.65 1396.66,-226.44"/>
<polygon fill="#63b8ff" stroke="#63b8ff" points="1398.69,-229.32 1403.87,-220.08 1394.06,-224.08 1398.69,-229.32"/>
</a>
</g>
</g>
<!-- Node37 -->
<g id="Node000037" class="node">
<title>Node37</title>
<g id="a_Node000037"><a xlink:href="_struct_2_i_r_2_ops_8h_8inc.html" target="_top" xlink:title=" ">
<polygon fill="white" stroke="#666666" points="1461.5,-152.25 1367.5,-152.25 1367.5,-121.75 1461.5,-121.75 1461.5,-152.25"/>
<text text-anchor="start" x="1375.5" y="-138.75" font-family="Helvetica,sans-Serif" font-size="10.00">llzk/Dialect/Struct</text>
<text text-anchor="middle" x="1414.5" y="-127.5" font-family="Helvetica,sans-Serif" font-size="10.00">/IR/Ops.h.inc</text>
</a>
</g>
</g>
<!-- Node19&#45;&gt;Node37 -->
<g id="edge52_Node000019_Node000037" class="edge">
<title>Node19&#45;&gt;Node37</title>
<g id="a_edge52_Node000019_Node000037"><a xlink:title=" ">
<path fill="none" stroke="#63b8ff" d="M1349.13,-254.46C1350.39,-237.62 1354.17,-209.48 1365.5,-188.25 1371.03,-177.88 1379.36,-168.19 1387.58,-160.13"/>
<polygon fill="#63b8ff" stroke="#63b8ff" points="1389.9,-162.76 1394.88,-153.41 1385.16,-157.61 1389.9,-162.76"/>
</a>
</g>
</g>
<!-- Node39 -->
<g id="Node000039" class="node">
<title>Node39</title>
<g id="a_Node000039"><a xlink:href="_struct_2_i_r_2_op_interfaces_8h_8inc.html" target="_top" xlink:title=" ">
<polygon fill="white" stroke="#666666" points="1318.88,-218.75 1206.12,-218.75 1206.12,-188.25 1318.88,-188.25 1318.88,-218.75"/>
<text text-anchor="start" x="1214.12" y="-205.25" font-family="Helvetica,sans-Serif" font-size="10.00">llzk/Dialect/Struct</text>
<text text-anchor="middle" x="1262.5" y="-194" font-family="Helvetica,sans-Serif" font-size="10.00">/IR/OpInterfaces.h.inc</text>
</a>
</g>
</g>
<!-- Node19&#45;&gt;Node39 -->
<g id="edge51_Node000019_Node000039" class="edge">
<title>Node19&#45;&gt;Node39</title>
<g id="a_edge51_Node000019_Node000039"><a xlink:title=" ">
<path fill="none" stroke="#63b8ff" d="M1328.99,-254.36C1317.77,-245.95 1303.48,-235.23 1291.02,-225.89"/>
<polygon fill="#63b8ff" stroke="#63b8ff" points="1293.25,-223.19 1283.15,-219.99 1289.05,-228.79 1293.25,-223.19"/>
</a>
</g>
</g>
<!-- Node20&#45;&gt;Node8 -->
<g id="edge25_Node000020_Node000008" class="edge">
<title>Node20&#45;&gt;Node8</title>
<g id="a_edge25_Node000020_Node000008"><a xlink:title=" ">
<path fill="none" stroke="#63b8ff" d="M1094.97,-187.86C1067.53,-176.87 1030.26,-161.94 1003.67,-151.29"/>
<polygon fill="#63b8ff" stroke="#63b8ff" points="1004.98,-148.04 994.39,-147.57 1002.38,-154.54 1004.98,-148.04"/>
</a>
</g>
</g>
<!-- Node21 -->
<g id="Node000021" class="node">
<title>Node21</title>
<g id="a_Node000021"><a xlink:href="_l_l_z_k_2_i_r_2_attrs_8h_8inc.html" target="_top" xlink:title=" ">
<polygon fill="white" stroke="#666666" points="1183.75,-152.25 1079.25,-152.25 1079.25,-121.75 1183.75,-121.75 1183.75,-152.25"/>
<text text-anchor="start" x="1087.25" y="-138.75" font-family="Helvetica,sans-Serif" font-size="10.00">llzk/Dialect/LLZK/IR</text>
<text text-anchor="middle" x="1131.5" y="-127.5" font-family="Helvetica,sans-Serif" font-size="10.00">/Attrs.h.inc</text>
</a>
</g>
</g>
<!-- Node20&#45;&gt;Node21 -->
<g id="edge26_Node000020_Node000021" class="edge">
<title>Node20&#45;&gt;Node21</title>
<g id="a_edge26_Node000020_Node000021"><a xlink:title=" ">
<path fill="none" stroke="#63b8ff" d="M1131.5,-187.86C1131.5,-180.77 1131.5,-172.04 1131.5,-163.88"/>
<polygon fill="#63b8ff" stroke="#63b8ff" points="1135,-164.09 1131.5,-154.09 1128,-164.09 1135,-164.09"/>
</a>
</g>
</g>
<!-- Node23 -->
<g id="Node000023" class="node">
<title>Node23</title>
<g id="a_Node000023"><a xlink:href="_struct_2_i_r_2_dialect_8h.html" target="_top" xlink:title=" ">
<polygon fill="white" stroke="#666666" points="1889.5,-152.25 1795.5,-152.25 1795.5,-121.75 1889.5,-121.75 1889.5,-152.25"/>
<text text-anchor="start" x="1803.5" y="-138.75" font-family="Helvetica,sans-Serif" font-size="10.00">llzk/Dialect/Struct</text>
<text text-anchor="middle" x="1842.5" y="-127.5" font-family="Helvetica,sans-Serif" font-size="10.00">/IR/Dialect.h</text>
</a>
</g>
</g>
<!-- Node22&#45;&gt;Node23 -->
<g id="edge29_Node000022_Node000023" class="edge">
<title>Node22&#45;&gt;Node23</title>
<g id="a_edge29_Node000022_Node000023"><a xlink:title=" ">
<path fill="none" stroke="#63b8ff" d="M1468.77,-190.07C1471.72,-189.42 1474.64,-188.81 1477.5,-188.25 1534.8,-177.05 1695.99,-156.27 1783.76,-145.27"/>
<polygon fill="#63b8ff" stroke="#63b8ff" points="1784.13,-148.75 1793.62,-144.04 1783.26,-141.8 1784.13,-148.75"/>
</a>
</g>
</g>
<!-- Node26 -->
<g id="Node000026" class="node">
<title>Node26</title>
<g id="a_Node000026"><a xlink:href="_symbol_lookup_8h.html" target="_top" xlink:title="This file defines methods symbol lookup across LLZK operations and included files.">
<polygon fill="white" stroke="#666666" points="1715.88,-146.62 1591.12,-146.62 1591.12,-127.38 1715.88,-127.38 1715.88,-146.62"/>
<text text-anchor="middle" x="1653.5" y="-133.12" font-family="Helvetica,sans-Serif" font-size="10.00">llzk/Util/SymbolLookup.h</text>
</a>
</g>
</g>
<!-- Node22&#45;&gt;Node26 -->
<g id="edge32_Node000022_Node000026" class="edge">
<title>Node22&#45;&gt;Node26</title>
<g id="a_edge32_Node000022_Node000026"><a xlink:title=" ">
<path fill="none" stroke="#63b8ff" d="M1468.73,-189.37C1510.06,-177.88 1569.61,-161.32 1609.84,-150.14"/>
<polygon fill="#63b8ff" stroke="#63b8ff" points="1610.75,-153.52 1619.44,-147.47 1608.87,-146.77 1610.75,-153.52"/>
</a>
</g>
</g>
<!-- Node29 -->
<g id="Node000029" class="node">
<title>Node29</title>
<g id="a_Node000029"><a xlink:href="_type_helper_8h.html" target="_top" xlink:title=" ">
<polygon fill="white" stroke="#666666" points="1311,-146.62 1202,-146.62 1202,-127.38 1311,-127.38 1311,-146.62"/>
<text text-anchor="middle" x="1256.5" y="-133.12" font-family="Helvetica,sans-Serif" font-size="10.00">llzk/Util/TypeHelper.h</text>
</a>
</g>
</g>
<!-- Node22&#45;&gt;Node29 -->
<g id="edge38_Node000022_Node000029" class="edge">
<title>Node22&#45;&gt;Node29</title>
<g id="a_edge38_Node000022_Node000029"><a xlink:title=" ">
<path fill="none" stroke="#63b8ff" d="M1384.06,-187.86C1355.81,-176.82 1317.4,-161.81 1290.13,-151.15"/>
<polygon fill="#63b8ff" stroke="#63b8ff" points="1291.55,-147.94 1280.96,-147.56 1289,-154.46 1291.55,-147.94"/>
</a>
</g>
</g>
<!-- Node22&#45;&gt;Node37 -->
<g id="edge49_Node000022_Node000037" class="edge">
<title>Node22&#45;&gt;Node37</title>
<g id="a_edge49_Node000022_Node000037"><a xlink:title=" ">
<path fill="none" stroke="#63b8ff" d="M1419.91,-187.86C1419.14,-180.77 1418.19,-172.04 1417.31,-163.88"/>
<polygon fill="#63b8ff" stroke="#63b8ff" points="1420.8,-163.65 1416.25,-154.08 1413.84,-164.4 1420.8,-163.65"/>
</a>
</g>
</g>
<!-- Node38 -->
<g id="Node000038" class="node">
<title>Node38</title>
<g id="a_Node000038"><a xlink:href="_struct_2_i_r_2_types_8h_8inc.html" target="_top" xlink:title=" ">
<polygon fill="white" stroke="#666666" points="1573.5,-152.25 1479.5,-152.25 1479.5,-121.75 1573.5,-121.75 1573.5,-152.25"/>
<text text-anchor="start" x="1487.5" y="-138.75" font-family="Helvetica,sans-Serif" font-size="10.00">llzk/Dialect/Struct</text>
<text text-anchor="middle" x="1526.5" y="-127.5" font-family="Helvetica,sans-Serif" font-size="10.00">/IR/Types.h.inc</text>
</a>
</g>
</g>
<!-- Node22&#45;&gt;Node38 -->
<g id="edge50_Node000022_Node000038" class="edge">
<title>Node22&#45;&gt;Node38</title>
<g id="a_edge50_Node000022_Node000038"><a xlink:title=" ">
<path fill="none" stroke="#63b8ff" d="M1445.33,-187.86C1459.42,-179.2 1477.5,-168.1 1493.01,-158.57"/>
<polygon fill="#63b8ff" stroke="#63b8ff" points="1494.79,-161.59 1501.48,-153.37 1491.13,-155.62 1494.79,-161.59"/>
</a>
</g>
</g>
<!-- Node24 -->
<g id="Node000024" class="node">
<title>Node24</title>
<g id="a_Node000024"><a xlink:title=" ">
<polygon fill="#e0e0e0" stroke="#999999" points="1893.25,-80.12 1791.75,-80.12 1791.75,-60.88 1893.25,-60.88 1893.25,-80.12"/>
<text text-anchor="middle" x="1842.5" y="-66.62" font-family="Helvetica,sans-Serif" font-size="10.00">mlir/IR/BuiltinOps.h</text>
</a>
</g>
</g>
<!-- Node23&#45;&gt;Node24 -->
<g id="edge30_Node000023_Node000024" class="edge">
<title>Node23&#45;&gt;Node24</title>
<g id="a_edge30_Node000023_Node000024"><a xlink:title=" ">
<path fill="none" stroke="#63b8ff" d="M1842.5,-121.36C1842.5,-112.58 1842.5,-101.27 1842.5,-91.65"/>
<polygon fill="#63b8ff" stroke="#63b8ff" points="1846,-91.84 1842.5,-81.84 1839,-91.84 1846,-91.84"/>
</a>
</g>
</g>
<!-- Node25 -->
<g id="Node000025" class="node">
<title>Node25</title>
<g id="a_Node000025"><a xlink:href="_struct_2_i_r_2_dialect_8h_8inc.html" target="_top" xlink:title=" ">
<polygon fill="white" stroke="#666666" points="2005.5,-85.75 1911.5,-85.75 1911.5,-55.25 2005.5,-55.25 2005.5,-85.75"/>
<text text-anchor="start" x="1919.5" y="-72.25" font-family="Helvetica,sans-Serif" font-size="10.00">llzk/Dialect/Struct</text>
<text text-anchor="middle" x="1958.5" y="-61" font-family="Helvetica,sans-Serif" font-size="10.00">/IR/Dialect.h.inc</text>
</a>
</g>
</g>
<!-- Node23&#45;&gt;Node25 -->
<g id="edge31_Node000023_Node000025" class="edge">
<title>Node23&#45;&gt;Node25</title>
<g id="a_edge31_Node000023_Node000025"><a xlink:title=" ">
<path fill="none" stroke="#63b8ff" d="M1868.82,-121.36C1884.69,-112.54 1905.13,-101.18 1922.48,-91.53"/>
<polygon fill="#63b8ff" stroke="#63b8ff" points="1923.92,-94.73 1930.96,-86.81 1920.52,-88.61 1923.92,-94.73"/>
</a>
</g>
</g>
<!-- Node26&#45;&gt;Node4 -->
<g id="edge34_Node000026_Node000004" class="edge">
<title>Node26&#45;&gt;Node4</title>
<g id="a_edge34_Node000026_Node000004"><a xlink:title=" ">
<path fill="none" stroke="#63b8ff" d="M1613.88,-126.88C1603.7,-124.86 1592.74,-122.96 1582.5,-121.75 1164.68,-72.19 1056.17,-115.85 636.5,-85.75 612.27,-84.01 585.66,-81.36 562.52,-78.82"/>
<polygon fill="#63b8ff" stroke="#63b8ff" points="562.95,-75.34 552.62,-77.71 562.17,-82.3 562.95,-75.34"/>
</a>
</g>
</g>
<!-- Node26&#45;&gt;Node16 -->
<g id="edge33_Node000026_Node000016" class="edge">
<title>Node26&#45;&gt;Node16</title>
<g id="a_edge33_Node000026_Node000016"><a xlink:title=" ">
<path fill="none" stroke="#63b8ff" d="M1613.49,-126.94C1603.42,-124.94 1592.6,-123.04 1582.5,-121.75 1299.46,-85.58 1224.01,-125.85 941.5,-85.75 936.24,-85 930.77,-84.03 925.35,-82.95"/>
<polygon fill="#63b8ff" stroke="#63b8ff" points="926.38,-79.59 915.87,-80.93 924.92,-86.44 926.38,-79.59"/>
</a>
</g>
</g>
<!-- Node26&#45;&gt;Node18 -->
<g id="edge36_Node000026_Node000018" class="edge">
<title>Node26&#45;&gt;Node18</title>
<g id="a_edge36_Node000026_Node000018"><a xlink:title=" ">
<path fill="none" stroke="#63b8ff" d="M1634.87,-126.9C1612.85,-116.14 1575.98,-98.12 1550.29,-85.57"/>
<polygon fill="#63b8ff" stroke="#63b8ff" points="1551.92,-82.47 1541.4,-81.22 1548.85,-88.76 1551.92,-82.47"/>
</a>
</g>
</g>
<!-- Node27 -->
<g id="Node000027" class="node">
<title>Node27</title>
<g id="a_Node000027"><a xlink:title=" ">
<polygon fill="#e0e0e0" stroke="#999999" points="1712.5,-80.12 1594.5,-80.12 1594.5,-60.88 1712.5,-60.88 1712.5,-80.12"/>
<text text-anchor="middle" x="1653.5" y="-66.62" font-family="Helvetica,sans-Serif" font-size="10.00">mlir/IR/OwningOpRef.h</text>
</a>
</g>
</g>
<!-- Node26&#45;&gt;Node27 -->
<g id="edge35_Node000026_Node000027" class="edge">
<title>Node26&#45;&gt;Node27</title>
<g id="a_edge35_Node000026_Node000027"><a xlink:title=" ">
<path fill="none" stroke="#63b8ff" d="M1653.5,-127.03C1653.5,-117.98 1653.5,-103.7 1653.5,-91.88"/>
<polygon fill="#63b8ff" stroke="#63b8ff" points="1657,-91.91 1653.5,-81.91 1650,-91.91 1657,-91.91"/>
</a>
</g>
</g>
<!-- Node28 -->
<g id="Node000028" class="node">
<title>Node28</title>
<g id="a_Node000028"><a xlink:title=" ">
<polygon fill="#e0e0e0" stroke="#999999" points="1774,-80.12 1731,-80.12 1731,-60.88 1774,-60.88 1774,-80.12"/>
<text text-anchor="middle" x="1752.5" y="-66.62" font-family="Helvetica,sans-Serif" font-size="10.00">vector</text>
</a>
</g>
</g>
<!-- Node26&#45;&gt;Node28 -->
<g id="edge37_Node000026_Node000028" class="edge">
<title>Node26&#45;&gt;Node28</title>
<g id="a_edge37_Node000026_Node000028"><a xlink:title=" ">
<path fill="none" stroke="#63b8ff" d="M1667.27,-127.03C1683.21,-116.64 1709.74,-99.36 1728.97,-86.83"/>
<polygon fill="#63b8ff" stroke="#63b8ff" points="1730.8,-89.82 1737.26,-81.43 1726.97,-83.95 1730.8,-89.82"/>
</a>
</g>
</g>
<!-- Node29&#45;&gt;Node4 -->
<g id="edge44_Node000029_Node000004" class="edge">
<title>Node29&#45;&gt;Node4</title>
<g id="a_edge44_Node000029_Node000004"><a xlink:title=" ">
<path fill="none" stroke="#63b8ff" d="M1220.13,-126.88C1211.15,-124.91 1201.52,-123.04 1192.5,-121.75 947.36,-86.74 883.24,-106.75 636.5,-85.75 612.29,-83.69 585.69,-80.98 562.55,-78.47"/>
<polygon fill="#63b8ff" stroke="#63b8ff" points="562.97,-75 552.65,-77.39 562.21,-81.96 562.97,-75"/>
</a>
</g>
</g>
<!-- Node29&#45;&gt;Node13 -->
<g id="edge43_Node000029_Node000013" class="edge">
<title>Node29&#45;&gt;Node13</title>
<g id="a_edge43_Node000029_Node000013"><a xlink:title=" ">
<path fill="none" stroke="#63b8ff" d="M1219.42,-126.93C1210.64,-125.01 1201.27,-123.14 1192.5,-121.75 1027.14,-95.51 983.81,-105.12 817.5,-85.75 808.07,-84.65 798.17,-83.41 788.38,-82.13"/>
<polygon fill="#63b8ff" stroke="#63b8ff" points="788.85,-78.66 778.47,-80.81 787.92,-85.6 788.85,-78.66"/>
</a>
</g>
</g>
<!-- Node29&#45;&gt;Node18 -->
<g id="edge48_Node000029_Node000018" class="edge">
<title>Node29&#45;&gt;Node18</title>
<g id="a_edge48_Node000029_Node000018"><a xlink:title=" ">
<path fill="none" stroke="#63b8ff" d="M1293.91,-126.9C1340.86,-115.47 1421.49,-95.84 1473.1,-83.28"/>
<polygon fill="#63b8ff" stroke="#63b8ff" points="1473.93,-86.68 1482.81,-80.92 1472.27,-79.88 1473.93,-86.68"/>
</a>
</g>
</g>
<!-- Node30 -->
<g id="Node000030" class="node">
<title>Node30</title>
<g id="a_Node000030"><a xlink:href="_error_helper_8h.html" target="_top" xlink:title=" ">
<polygon fill="white" stroke="#666666" points="1449,-80.12 1340,-80.12 1340,-60.88 1449,-60.88 1449,-80.12"/>
<text text-anchor="middle" x="1394.5" y="-66.62" font-family="Helvetica,sans-Serif" font-size="10.00">llzk/Util/ErrorHelper.h</text>
</a>
</g>
</g>
<!-- Node29&#45;&gt;Node30 -->
<g id="edge39_Node000029_Node000030" class="edge">
<title>Node29&#45;&gt;Node30</title>
<g id="a_edge39_Node000029_Node000030"><a xlink:title=" ">
<path fill="none" stroke="#63b8ff" d="M1275.98,-126.9C1299.1,-116.09 1337.88,-97.96 1364.76,-85.4"/>
<polygon fill="#63b8ff" stroke="#63b8ff" points="1366.17,-88.6 1373.75,-81.2 1363.21,-82.26 1366.17,-88.6"/>
</a>
</g>
</g>
<!-- Node34 -->
<g id="Node000034" class="node">
<title>Node34</title>
<g id="a_Node000034"><a xlink:title=" ">
<polygon fill="#e0e0e0" stroke="#999999" points="1062.88,-80.12 950.12,-80.12 950.12,-60.88 1062.88,-60.88 1062.88,-80.12"/>
<text text-anchor="middle" x="1006.5" y="-66.62" font-family="Helvetica,sans-Serif" font-size="10.00">mlir/IR/SymbolTable.h</text>
</a>
</g>
</g>
<!-- Node29&#45;&gt;Node34 -->
<g id="edge45_Node000029_Node000034" class="edge">
<title>Node29&#45;&gt;Node34</title>
<g id="a_edge45_Node000029_Node000034"><a xlink:title=" ">
<path fill="none" stroke="#63b8ff" d="M1221.21,-126.9C1177.01,-115.49 1101.17,-95.92 1052.47,-83.36"/>
<polygon fill="#63b8ff" stroke="#63b8ff" points="1053.63,-80.05 1043.07,-80.94 1051.88,-86.82 1053.63,-80.05"/>
</a>
</g>
</g>
<!-- Node35 -->
<g id="Node000035" class="node">
<title>Node35</title>
<g id="a_Node000035"><a xlink:title=" ">
<polygon fill="#e0e0e0" stroke="#999999" points="1188.25,-80.12 1080.75,-80.12 1080.75,-60.88 1188.25,-60.88 1188.25,-80.12"/>
<text text-anchor="middle" x="1134.5" y="-66.62" font-family="Helvetica,sans-Serif" font-size="10.00">llvm/ADT/ArrayRef.h</text>
</a>
</g>
</g>
<!-- Node29&#45;&gt;Node35 -->
<g id="edge46_Node000029_Node000035" class="edge">
<title>Node29&#45;&gt;Node35</title>
<g id="a_edge46_Node000029_Node000035"><a xlink:title=" ">
<path fill="none" stroke="#63b8ff" d="M1239.28,-126.9C1219.12,-116.24 1185.46,-98.44 1161.75,-85.91"/>
<polygon fill="#63b8ff" stroke="#63b8ff" points="1163.45,-82.85 1152.97,-81.27 1160.18,-89.03 1163.45,-82.85"/>
</a>
</g>
</g>
<!-- Node36 -->
<g id="Node000036" class="node">
<title>Node36</title>
<g id="a_Node000036"><a xlink:title=" ">
<polygon fill="#e0e0e0" stroke="#999999" points="1322.38,-80.12 1206.62,-80.12 1206.62,-60.88 1322.38,-60.88 1322.38,-80.12"/>
<text text-anchor="middle" x="1264.5" y="-66.62" font-family="Helvetica,sans-Serif" font-size="10.00">llvm/ADT/DenseMap.h</text>
</a>
</g>
</g>
<!-- Node29&#45;&gt;Node36 -->
<g id="edge47_Node000029_Node000036" class="edge">
<title>Node29&#45;&gt;Node36</title>
<g id="a_edge47_Node000029_Node000036"><a xlink:title=" ">
<path fill="none" stroke="#63b8ff" d="M1257.61,-127.03C1258.75,-117.89 1260.54,-103.39 1262.02,-91.5"/>
<polygon fill="#63b8ff" stroke="#63b8ff" points="1265.45,-92.25 1263.21,-81.89 1258.51,-91.39 1265.45,-92.25"/>
</a>
</g>
</g>
<!-- Node31 -->
<g id="Node000031" class="node">
<title>Node31</title>
<g id="a_Node000031"><a xlink:title=" ">
<polygon fill="#e0e0e0" stroke="#999999" points="1329.5,-19.25 1169.5,-19.25 1169.5,0 1329.5,0 1329.5,-19.25"/>
<text text-anchor="middle" x="1249.5" y="-5.75" font-family="Helvetica,sans-Serif" font-size="10.00">llvm/ADT/STLFunctionalExtras.h</text>
</a>
</g>
</g>
<!-- Node30&#45;&gt;Node31 -->
<g id="edge40_Node000030_Node000031" class="edge">
<title>Node30&#45;&gt;Node31</title>
<g id="a_edge40_Node000030_Node000031"><a xlink:title=" ">
<path fill="none" stroke="#63b8ff" d="M1372.16,-60.43C1348.14,-50.68 1309.72,-35.08 1282.28,-23.93"/>
<polygon fill="#63b8ff" stroke="#63b8ff" points="1283.61,-20.7 1273.03,-20.18 1280.98,-27.18 1283.61,-20.7"/>
</a>
</g>
</g>
<!-- Node32 -->
<g id="Node000032" class="node">
<title>Node32</title>
<g id="a_Node000032"><a xlink:title=" ">
<polygon fill="#e0e0e0" stroke="#999999" points="1441.5,-19.25 1347.5,-19.25 1347.5,0 1441.5,0 1441.5,-19.25"/>
<text text-anchor="middle" x="1394.5" y="-5.75" font-family="Helvetica,sans-Serif" font-size="10.00">llvm/ADT/Twine.h</text>
</a>
</g>
</g>
<!-- Node30&#45;&gt;Node32 -->
<g id="edge41_Node000030_Node000032" class="edge">
<title>Node30&#45;&gt;Node32</title>
<g id="a_edge41_Node000030_Node000032"><a xlink:title=" ">
<path fill="none" stroke="#63b8ff" d="M1394.5,-60.56C1394.5,-52.78 1394.5,-41.2 1394.5,-31.16"/>
<polygon fill="#63b8ff" stroke="#63b8ff" points="1398,-31.16 1394.5,-21.16 1391,-31.16 1398,-31.16"/>
</a>
</g>
</g>
<!-- Node33 -->
<g id="Node000033" class="node">
<title>Node33</title>
<g id="a_Node000033"><a xlink:title=" ">
<polygon fill="#e0e0e0" stroke="#999999" points="1601.12,-19.25 1459.88,-19.25 1459.88,0 1601.12,0 1601.12,-19.25"/>
<text text-anchor="middle" x="1530.5" y="-5.75" font-family="Helvetica,sans-Serif" font-size="10.00">llvm/Support/ErrorHandling.h</text>
</a>
</g>
</g>
<!-- Node30&#45;&gt;Node33 -->
<g id="edge42_Node000030_Node000033" class="edge">
<title>Node30&#45;&gt;Node33</title>
<g id="a_edge42_Node000030_Node000033"><a xlink:title=" ">
<path fill="none" stroke="#63b8ff" d="M1415.45,-60.43C1437.88,-50.72 1473.7,-35.21 1499.41,-24.08"/>
<polygon fill="#63b8ff" stroke="#63b8ff" points="1500.57,-27.39 1508.36,-20.21 1497.79,-20.97 1500.57,-27.39"/>
</a>
</g>
</g>
<!-- Node40&#45;&gt;Node26 -->
<g id="edge55_Node000040_Node000026" class="edge">
<title>Node40&#45;&gt;Node26</title>
<g id="a_edge55_Node000040_Node000026"><a xlink:title=" ">
<path fill="none" stroke="#63b8ff" d="M1620.3,-260.1C1628.15,-250.58 1639.86,-234.69 1645.5,-218.75 1652.54,-198.85 1654.08,-174.59 1654.14,-157.88"/>
<polygon fill="#63b8ff" stroke="#63b8ff" points="1657.65,-158.24 1654,-148.29 1650.65,-158.35 1657.65,-158.24"/>
</a>
</g>
</g>
<!-- Node40&#45;&gt;Node41 -->
<g id="edge56_Node000040_Node000041" class="edge">
<title>Node40&#45;&gt;Node41</title>
<g id="a_edge56_Node000040_Node000041"><a xlink:title=" ">
<path fill="none" stroke="#63b8ff" d="M1605.41,-260.03C1597.72,-250.31 1585.25,-234.54 1575.56,-222.28"/>
<polygon fill="#63b8ff" stroke="#63b8ff" points="1578.42,-220.25 1569.47,-214.58 1572.93,-224.59 1578.42,-220.25"/>
</a>
</g>
</g>
<!-- Node42 -->
<g id="Node000042" class="node">
<title>Node42</title>
<g id="a_Node000042"><a xlink:title=" ">
<polygon fill="#e0e0e0" stroke="#999999" points="1738.12,-213.12 1692.88,-213.12 1692.88,-193.88 1738.12,-193.88 1738.12,-213.12"/>
<text text-anchor="middle" x="1715.5" y="-199.62" font-family="Helvetica,sans-Serif" font-size="10.00">ranges</text>
</a>
</g>
</g>
<!-- Node40&#45;&gt;Node42 -->
<g id="edge57_Node000040_Node000042" class="edge">
<title>Node40&#45;&gt;Node42</title>
<g id="a_edge57_Node000040_Node000042"><a xlink:title=" ">
<path fill="none" stroke="#63b8ff" d="M1626.82,-260.03C1643.48,-249.6 1671.27,-232.2 1691.3,-219.65"/>
<polygon fill="#63b8ff" stroke="#63b8ff" points="1693.07,-222.68 1699.69,-214.4 1689.35,-216.74 1693.07,-222.68"/>
</a>
</g>
</g>
</g>
</svg>
