<?xml version="1.0" encoding="UTF-8" standalone="no"?>
<!DOCTYPE svg PUBLIC "-//W3C//DTD SVG 1.1//EN"
 "http://www.w3.org/Graphics/SVG/1.1/DTD/svg11.dtd">
<!-- Generated by graphviz version 12.2.1 (20241206.2353)
 -->
<!-- Title: include/llzk/Dialect/Polymorphic/IR/Dialect.h Pages: 1 -->
<svg width="2199pt" height="527pt"
 viewBox="0.00 0.00 2199.25 526.50" xmlns="http://www.w3.org/2000/svg" xmlns:xlink="http://www.w3.org/1999/xlink">
<g id="graph0" class="graph" transform="scale(1 1) rotate(0) translate(4 522.5)">
<title>include/llzk/Dialect/Polymorphic/IR/Dialect.h</title>
<!-- Node1 -->
<g id="Node000001" class="node">
<title>Node1</title>
<g id="a_Node000001"><a xlink:title=" ">
<polygon fill="#999999" stroke="#666666" points="1832,-518.5 1703.5,-518.5 1703.5,-488 1832,-488 1832,-518.5"/>
<text text-anchor="start" x="1711.5" y="-505" font-family="Helvetica,sans-Serif" font-size="10.00">include/llzk/Dialect</text>
<text text-anchor="middle" x="1767.75" y="-493.75" font-family="Helvetica,sans-Serif" font-size="10.00">/Polymorphic/IR/Dialect.h</text>
</a>
</g>
</g>
<!-- Node2 -->
<g id="Node000002" class="node">
<title>Node2</title>
<g id="a_Node000002"><a xlink:href="_inline_includes_pass_8h.html" target="_top" xlink:title=" ">
<polygon fill="white" stroke="#666666" points="356.75,-385.5 190.75,-385.5 190.75,-343.75 356.75,-343.75 356.75,-385.5"/>
<text text-anchor="start" x="198.75" y="-372" font-family="Helvetica,sans-Serif" font-size="10.00">include/llzk/Dialect</text>
<text text-anchor="start" x="198.75" y="-360.75" font-family="Helvetica,sans-Serif" font-size="10.00">/Include/Transforms/InlineIncludes</text>
<text text-anchor="middle" x="273.75" y="-349.5" font-family="Helvetica,sans-Serif" font-size="10.00">Pass.h</text>
</a>
</g>
</g>
<!-- Node1&#45;&gt;Node2 -->
<g id="edge1_Node000001_Node000002" class="edge">
<title>Node1&#45;&gt;Node2</title>
<g id="a_edge1_Node000001_Node000002"><a xlink:title=" ">
<path fill="none" stroke="#63b8ff" d="M1691.67,-500.43C1477.03,-495.02 869.5,-477.81 671.75,-452 557.99,-437.16 428.56,-406.43 349.02,-385.92"/>
<polygon fill="#63b8ff" stroke="#63b8ff" points="1691.52,-503.92 1701.6,-500.67 1691.69,-496.93 1691.52,-503.92"/>
</a>
</g>
</g>
<!-- Node5 -->
<g id="Node000005" class="node">
<title>Node5</title>
<g id="a_Node000005"><a xlink:href="_polymorphic_2_i_r_2_ops_8h.html" target="_top" xlink:title=" ">
<polygon fill="white" stroke="#666666" points="1942.62,-379.88 1826.88,-379.88 1826.88,-349.38 1942.62,-349.38 1942.62,-379.88"/>
<text text-anchor="start" x="1834.88" y="-366.38" font-family="Helvetica,sans-Serif" font-size="10.00">include/llzk/Dialect</text>
<text text-anchor="middle" x="1884.75" y="-355.12" font-family="Helvetica,sans-Serif" font-size="10.00">/Polymorphic/IR/Ops.h</text>
</a>
</g>
</g>
<!-- Node1&#45;&gt;Node5 -->
<g id="edge4_Node000001_Node000005" class="edge">
<title>Node1&#45;&gt;Node5</title>
<g id="a_edge4_Node000001_Node000005"><a xlink:title=" ">
<path fill="none" stroke="#63b8ff" d="M1787.53,-479.16C1811.75,-450.87 1852.06,-403.8 1872.32,-380.14"/>
<polygon fill="#63b8ff" stroke="#63b8ff" points="1785.1,-476.61 1781.26,-486.48 1790.42,-481.16 1785.1,-476.61"/>
</a>
</g>
</g>
<!-- Node16 -->
<g id="Node000016" class="node">
<title>Node16</title>
<g id="a_Node000016"><a xlink:href="_polymorphic_2_i_r_2_dialect_8cpp.html" target="_top" xlink:title=" ">
<polygon fill="white" stroke="#666666" points="2109,-302.12 1992.5,-302.12 1992.5,-271.62 2109,-271.62 2109,-302.12"/>
<text text-anchor="start" x="2000.5" y="-288.62" font-family="Helvetica,sans-Serif" font-size="10.00">lib/Dialect/Polymorphic</text>
<text text-anchor="middle" x="2050.75" y="-277.38" font-family="Helvetica,sans-Serif" font-size="10.00">/IR/Dialect.cpp</text>
</a>
</g>
</g>
<!-- Node1&#45;&gt;Node16 -->
<g id="edge54_Node000001_Node000016" class="edge">
<title>Node1&#45;&gt;Node16</title>
<g id="a_edge54_Node000001_Node000016"><a xlink:title=" ">
<path fill="none" stroke="#63b8ff" d="M1819.3,-483.42C1866.78,-464.21 1937.17,-430.79 1986.75,-385.5 2013.54,-361.04 2034.15,-323.05 2044.13,-302.42"/>
<polygon fill="#63b8ff" stroke="#63b8ff" points="1818.06,-480.15 1810.05,-487.09 1820.64,-486.66 1818.06,-480.15"/>
</a>
</g>
</g>
<!-- Node19 -->
<g id="Node000019" class="node">
<title>Node19</title>
<g id="a_Node000019"><a xlink:href="_polymorphic_2_i_r_2_types_8h.html" target="_top" xlink:title=" ">
<polygon fill="white" stroke="#666666" points="1712.75,-452 1588.75,-452 1588.75,-421.5 1712.75,-421.5 1712.75,-452"/>
<text text-anchor="start" x="1596.75" y="-438.5" font-family="Helvetica,sans-Serif" font-size="10.00">include/llzk/Dialect</text>
<text text-anchor="middle" x="1650.75" y="-427.25" font-family="Helvetica,sans-Serif" font-size="10.00">/Polymorphic/IR/Types.h</text>
</a>
</g>
</g>
<!-- Node1&#45;&gt;Node19 -->
<g id="edge22_Node000001_Node000019" class="edge">
<title>Node1&#45;&gt;Node19</title>
<g id="a_edge22_Node000001_Node000019"><a xlink:title=" ">
<path fill="none" stroke="#63b8ff" d="M1731.3,-482.16C1713.79,-472.5 1693.18,-461.14 1677.19,-452.33"/>
<polygon fill="#63b8ff" stroke="#63b8ff" points="1729.43,-485.12 1739.88,-486.88 1732.81,-478.99 1729.43,-485.12"/>
</a>
</g>
</g>
<!-- Node25 -->
<g id="Node000025" class="node">
<title>Node25</title>
<g id="a_Node000025"><a xlink:href="_pass_base_8h.html" target="_top" xlink:title=" ">
<polygon fill="white" stroke="#666666" points="827,-446.38 680.5,-446.38 680.5,-427.12 827,-427.12 827,-446.38"/>
<text text-anchor="middle" x="753.75" y="-432.88" font-family="Helvetica,sans-Serif" font-size="10.00">include/llzk/Pass/PassBase.h</text>
</a>
</g>
</g>
<!-- Node1&#45;&gt;Node25 -->
<g id="edge31_Node000001_Node000025" class="edge">
<title>Node1&#45;&gt;Node25</title>
<g id="a_edge31_Node000001_Node000025"><a xlink:title=" ">
<path fill="none" stroke="#63b8ff" d="M1691.69,-497.41C1502.72,-485.39 1013.68,-454.28 827.34,-442.43"/>
<polygon fill="#63b8ff" stroke="#63b8ff" points="1691.45,-500.9 1701.65,-498.05 1691.9,-493.92 1691.45,-500.9"/>
</a>
</g>
</g>
<!-- Node38 -->
<g id="Node000038" class="node">
<title>Node38</title>
<g id="a_Node000038"><a xlink:href="_init_dialects_8cpp.html" target="_top" xlink:title=" ">
<polygon fill="white" stroke="#666666" points="2167.12,-446.38 2036.38,-446.38 2036.38,-427.12 2167.12,-427.12 2167.12,-446.38"/>
<text text-anchor="middle" x="2101.75" y="-432.88" font-family="Helvetica,sans-Serif" font-size="10.00">lib/Dialect/InitDialects.cpp</text>
</a>
</g>
</g>
<!-- Node1&#45;&gt;Node38 -->
<g id="edge53_Node000001_Node000038" class="edge">
<title>Node1&#45;&gt;Node38</title>
<g id="a_edge53_Node000001_Node000038"><a xlink:title=" ">
<path fill="none" stroke="#63b8ff" d="M1843.12,-487.69C1907.98,-475.17 1999.54,-457.49 2054.53,-446.87"/>
<polygon fill="#63b8ff" stroke="#63b8ff" points="1842.79,-484.19 1833.63,-489.53 1844.12,-491.07 1842.79,-484.19"/>
</a>
</g>
</g>
<!-- Node3 -->
<g id="Node000003" class="node">
<title>Node3</title>
<g id="a_Node000003"><a xlink:href="_inline_includes_pass_8cpp.html" target="_top" xlink:title="This file implements the &#45;llzk&#45;inline&#45;includes pass.">
<polygon fill="white" stroke="#666666" points="131.5,-307.75 0,-307.75 0,-266 131.5,-266 131.5,-307.75"/>
<text text-anchor="start" x="8" y="-294.25" font-family="Helvetica,sans-Serif" font-size="10.00">lib/Dialect/Include</text>
<text text-anchor="start" x="8" y="-283" font-family="Helvetica,sans-Serif" font-size="10.00">/Transforms/InlineIncludes</text>
<text text-anchor="middle" x="65.75" y="-271.75" font-family="Helvetica,sans-Serif" font-size="10.00">Pass.cpp</text>
</a>
</g>
</g>
<!-- Node2&#45;&gt;Node3 -->
<g id="edge2_Node000002_Node000003" class="edge">
<title>Node2&#45;&gt;Node3</title>
<g id="a_edge2_Node000002_Node000003"><a xlink:title=" ">
<path fill="none" stroke="#63b8ff" d="M207.26,-339.41C179.67,-329.36 148.01,-317.83 121.64,-308.23"/>
<polygon fill="#63b8ff" stroke="#63b8ff" points="205.99,-342.67 216.59,-342.81 208.39,-336.1 205.99,-342.67"/>
</a>
</g>
</g>
<!-- Node4 -->
<g id="Node000004" class="node">
<title>Node4</title>
<g id="a_Node000004"><a xlink:href="llzk-opt_8cpp.html" target="_top" xlink:title="This file implements a version of the mlir&#45;opt tool configured for use on LLZK files.">
<polygon fill="white" stroke="#666666" points="653.5,-302.12 564,-302.12 564,-271.62 653.5,-271.62 653.5,-302.12"/>
<text text-anchor="start" x="572" y="-288.62" font-family="Helvetica,sans-Serif" font-size="10.00">tools/llzk&#45;opt/llzk</text>
<text text-anchor="middle" x="608.75" y="-277.38" font-family="Helvetica,sans-Serif" font-size="10.00">&#45;opt.cpp</text>
</a>
</g>
</g>
<!-- Node2&#45;&gt;Node4 -->
<g id="edge3_Node000002_Node000004" class="edge">
<title>Node2&#45;&gt;Node4</title>
<g id="a_edge3_Node000002_Node000004"><a xlink:title=" ">
<path fill="none" stroke="#63b8ff" d="M368.02,-343.34C451.52,-326.99 475.73,-329.66 554.75,-307.75 560.14,-306.26 565.76,-304.46 571.24,-302.58"/>
<polygon fill="#63b8ff" stroke="#63b8ff" points="367.58,-339.86 358.46,-345.25 368.95,-346.73 367.58,-339.86"/>
</a>
</g>
</g>
<!-- Node6 -->
<g id="Node000006" class="node">
<title>Node6</title>
<g id="a_Node000006"><a xlink:href="_constrain_ref_8h.html" target="_top" xlink:title=" ">
<polygon fill="white" stroke="#666666" points="1974.38,-302.12 1869.12,-302.12 1869.12,-271.62 1974.38,-271.62 1974.38,-302.12"/>
<text text-anchor="start" x="1877.12" y="-288.62" font-family="Helvetica,sans-Serif" font-size="10.00">include/llzk/Analysis</text>
<text text-anchor="middle" x="1921.75" y="-277.38" font-family="Helvetica,sans-Serif" font-size="10.00">/ConstrainRef.h</text>
</a>
</g>
</g>
<!-- Node5&#45;&gt;Node6 -->
<g id="edge5_Node000005_Node000006" class="edge">
<title>Node5&#45;&gt;Node6</title>
<g id="a_edge5_Node000005_Node000006"><a xlink:title=" ">
<path fill="none" stroke="#63b8ff" d="M1896.92,-338.7C1902.79,-326.69 1909.63,-312.69 1914.64,-302.44"/>
<polygon fill="#63b8ff" stroke="#63b8ff" points="1893.79,-337.14 1892.55,-347.66 1900.08,-340.21 1893.79,-337.14"/>
</a>
</g>
</g>
<!-- Node9 -->
<g id="Node000009" class="node">
<title>Node9</title>
<g id="a_Node000009"><a xlink:href="_interval_analysis_8h.html" target="_top" xlink:title=" ">
<polygon fill="white" stroke="#666666" points="1859.38,-97 1754.12,-97 1754.12,-66.5 1859.38,-66.5 1859.38,-97"/>
<text text-anchor="start" x="1762.12" y="-83.5" font-family="Helvetica,sans-Serif" font-size="10.00">include/llzk/Analysis</text>
<text text-anchor="middle" x="1806.75" y="-72.25" font-family="Helvetica,sans-Serif" font-size="10.00">/IntervalAnalysis.h</text>
</a>
</g>
</g>
<!-- Node5&#45;&gt;Node9 -->
<g id="edge18_Node000005_Node000009" class="edge">
<title>Node5&#45;&gt;Node9</title>
<g id="a_edge18_Node000005_Node000009"><a xlink:title=" ">
<path fill="none" stroke="#63b8ff" d="M1872.46,-338.86C1868.03,-329.3 1863.27,-318.17 1859.75,-307.75 1833.59,-230.38 1815.53,-133.84 1809.22,-97.5"/>
<polygon fill="#63b8ff" stroke="#63b8ff" points="1869.28,-340.34 1876.74,-347.86 1875.6,-337.32 1869.28,-340.34"/>
</a>
</g>
</g>
<!-- Node5&#45;&gt;Node16 -->
<g id="edge19_Node000005_Node000016" class="edge">
<title>Node5&#45;&gt;Node16</title>
<g id="a_edge19_Node000005_Node000016"><a xlink:title=" ">
<path fill="none" stroke="#63b8ff" d="M1927.21,-344.25C1955.65,-331.27 1992.53,-314.44 2018.56,-302.56"/>
<polygon fill="#63b8ff" stroke="#63b8ff" points="1925.78,-341.06 1918.13,-348.39 1928.68,-347.42 1925.78,-341.06"/>
</a>
</g>
</g>
<!-- Node17 -->
<g id="Node000017" class="node">
<title>Node17</title>
<g id="a_Node000017"><a xlink:href="_polymorphic_2_i_r_2_ops_8cpp.html" target="_top" xlink:title=" ">
<polygon fill="white" stroke="#666666" points="1813,-302.12 1696.5,-302.12 1696.5,-271.62 1813,-271.62 1813,-302.12"/>
<text text-anchor="start" x="1704.5" y="-288.62" font-family="Helvetica,sans-Serif" font-size="10.00">lib/Dialect/Polymorphic</text>
<text text-anchor="middle" x="1754.75" y="-277.38" font-family="Helvetica,sans-Serif" font-size="10.00">/IR/Ops.cpp</text>
</a>
</g>
</g>
<!-- Node5&#45;&gt;Node17 -->
<g id="edge20_Node000005_Node000017" class="edge">
<title>Node5&#45;&gt;Node17</title>
<g id="a_edge20_Node000005_Node000017"><a xlink:title=" ">
<path fill="none" stroke="#63b8ff" d="M1849.99,-343.37C1827.84,-330.47 1799.68,-314.06 1779.74,-302.44"/>
<polygon fill="#63b8ff" stroke="#63b8ff" points="1847.97,-346.25 1858.38,-348.26 1851.5,-340.2 1847.97,-346.25"/>
</a>
</g>
</g>
<!-- Node18 -->
<g id="Node000018" class="node">
<title>Node18</title>
<g id="a_Node000018"><a xlink:href="_flattening_pass_8cpp.html" target="_top" xlink:title="This file implements the &#45;llzk&#45;flatten pass.">
<polygon fill="white" stroke="#666666" points="1678.5,-302.12 1523,-302.12 1523,-271.62 1678.5,-271.62 1678.5,-302.12"/>
<text text-anchor="start" x="1531" y="-288.62" font-family="Helvetica,sans-Serif" font-size="10.00">lib/Dialect/Polymorphic</text>
<text text-anchor="middle" x="1600.75" y="-277.38" font-family="Helvetica,sans-Serif" font-size="10.00">/Transforms/FlatteningPass.cpp</text>
</a>
</g>
</g>
<!-- Node5&#45;&gt;Node18 -->
<g id="edge21_Node000005_Node000018" class="edge">
<title>Node5&#45;&gt;Node18</title>
<g id="a_edge21_Node000005_Node000018"><a xlink:title=" ">
<path fill="none" stroke="#63b8ff" d="M1825.13,-345.82C1822.64,-345.11 1820.17,-344.42 1817.75,-343.75 1764.7,-329.06 1704,-313.54 1660.31,-302.59"/>
<polygon fill="#63b8ff" stroke="#63b8ff" points="1824.11,-349.17 1834.68,-348.56 1826.04,-342.44 1824.11,-349.17"/>
</a>
</g>
</g>
<!-- Node7 -->
<g id="Node000007" class="node">
<title>Node7</title>
<g id="a_Node000007"><a xlink:href="_constrain_ref_lattice_8h.html" target="_top" xlink:title=" ">
<polygon fill="white" stroke="#666666" points="2184.88,-230 2070.62,-230 2070.62,-199.5 2184.88,-199.5 2184.88,-230"/>
<text text-anchor="start" x="2078.62" y="-216.5" font-family="Helvetica,sans-Serif" font-size="10.00">include/llzk/Analysis</text>
<text text-anchor="middle" x="2127.75" y="-205.25" font-family="Helvetica,sans-Serif" font-size="10.00">/ConstrainRefLattice.h</text>
</a>
</g>
</g>
<!-- Node6&#45;&gt;Node7 -->
<g id="edge6_Node000006_Node000007" class="edge">
<title>Node6&#45;&gt;Node7</title>
<g id="a_edge6_Node000006_Node000007"><a xlink:title=" ">
<path fill="none" stroke="#63b8ff" d="M1975.62,-267.54C2009.6,-255.97 2052.91,-241.23 2084.62,-230.43"/>
<polygon fill="#63b8ff" stroke="#63b8ff" points="1974.71,-264.15 1966.37,-270.69 1976.96,-270.78 1974.71,-264.15"/>
</a>
</g>
</g>
<!-- Node8 -->
<g id="Node000008" class="node">
<title>Node8</title>
<g id="a_Node000008"><a xlink:href="_constraint_dependency_graph_8h.html" target="_top" xlink:title=" ">
<polygon fill="white" stroke="#666666" points="2030.38,-163.5 1877.12,-163.5 1877.12,-133 2030.38,-133 2030.38,-163.5"/>
<text text-anchor="start" x="1885.12" y="-150" font-family="Helvetica,sans-Serif" font-size="10.00">include/llzk/Analysis</text>
<text text-anchor="middle" x="1953.75" y="-138.75" font-family="Helvetica,sans-Serif" font-size="10.00">/ConstraintDependencyGraph.h</text>
</a>
</g>
</g>
<!-- Node6&#45;&gt;Node8 -->
<g id="edge16_Node000006_Node000008" class="edge">
<title>Node6&#45;&gt;Node8</title>
<g id="a_edge16_Node000006_Node000008"><a xlink:title=" ">
<path fill="none" stroke="#63b8ff" d="M1906.37,-261.79C1897.13,-244.09 1888.74,-219.7 1897.75,-199.5 1904.3,-184.83 1917.48,-172.65 1929.41,-163.97"/>
<polygon fill="#63b8ff" stroke="#63b8ff" points="1903.07,-263.07 1911.05,-270.04 1909.17,-259.62 1903.07,-263.07"/>
</a>
</g>
</g>
<!-- Node15 -->
<g id="Node000015" class="node">
<title>Node15</title>
<g id="a_Node000015"><a xlink:href="_constrain_ref_8cpp.html" target="_top" xlink:title=" ">
<polygon fill="white" stroke="#666666" points="2052.62,-224.38 1906.88,-224.38 1906.88,-205.12 2052.62,-205.12 2052.62,-224.38"/>
<text text-anchor="middle" x="1979.75" y="-210.88" font-family="Helvetica,sans-Serif" font-size="10.00">lib/Analysis/ConstrainRef.cpp</text>
</a>
</g>
</g>
<!-- Node6&#45;&gt;Node15 -->
<g id="edge17_Node000006_Node000015" class="edge">
<title>Node6&#45;&gt;Node15</title>
<g id="a_edge17_Node000006_Node000015"><a xlink:title=" ">
<path fill="none" stroke="#63b8ff" d="M1940.85,-262.78C1951.69,-249.68 1964.62,-234.04 1972.51,-224.51"/>
<polygon fill="#63b8ff" stroke="#63b8ff" points="1938.41,-260.24 1934.73,-270.18 1943.8,-264.7 1938.41,-260.24"/>
</a>
</g>
</g>
<!-- Node7&#45;&gt;Node8 -->
<g id="edge7_Node000007_Node000008" class="edge">
<title>Node7&#45;&gt;Node8</title>
<g id="a_edge7_Node000007_Node000008"><a xlink:title=" ">
<path fill="none" stroke="#63b8ff" d="M2077.56,-195.15C2050.8,-185.23 2018.35,-173.2 1993.38,-163.94"/>
<polygon fill="#63b8ff" stroke="#63b8ff" points="2076.25,-198.39 2086.85,-198.59 2078.69,-191.83 2076.25,-198.39"/>
</a>
</g>
</g>
<!-- Node12 -->
<g id="Node000012" class="node">
<title>Node12</title>
<g id="a_Node000012"><a xlink:href="_constrain_ref_lattice_8cpp.html" target="_top" xlink:title=" ">
<polygon fill="white" stroke="#666666" points="2191.25,-97 2064.25,-97 2064.25,-66.5 2191.25,-66.5 2191.25,-97"/>
<text text-anchor="start" x="2072.25" y="-83.5" font-family="Helvetica,sans-Serif" font-size="10.00">lib/Analysis/ConstrainRef</text>
<text text-anchor="middle" x="2127.75" y="-72.25" font-family="Helvetica,sans-Serif" font-size="10.00">Lattice.cpp</text>
</a>
</g>
</g>
<!-- Node7&#45;&gt;Node12 -->
<g id="edge14_Node000007_Node000012" class="edge">
<title>Node7&#45;&gt;Node12</title>
<g id="a_edge14_Node000007_Node000012"><a xlink:title=" ">
<path fill="none" stroke="#63b8ff" d="M2127.75,-187.93C2127.75,-160.84 2127.75,-119.21 2127.75,-97.33"/>
<polygon fill="#63b8ff" stroke="#63b8ff" points="2124.25,-187.72 2127.75,-197.72 2131.25,-187.72 2124.25,-187.72"/>
</a>
</g>
</g>
<!-- Node13 -->
<g id="Node000013" class="node">
<title>Node13</title>
<g id="a_Node000013"><a xlink:href="_constraint_dependency_graph_8cpp.html" target="_top" xlink:title=" ">
<polygon fill="white" stroke="#666666" points="2046.25,-97 1877.25,-97 1877.25,-66.5 2046.25,-66.5 2046.25,-97"/>
<text text-anchor="start" x="1885.25" y="-83.5" font-family="Helvetica,sans-Serif" font-size="10.00">lib/Analysis/ConstraintDependency</text>
<text text-anchor="middle" x="1961.75" y="-72.25" font-family="Helvetica,sans-Serif" font-size="10.00">Graph.cpp</text>
</a>
</g>
</g>
<!-- Node7&#45;&gt;Node13 -->
<g id="edge15_Node000007_Node000013" class="edge">
<title>Node7&#45;&gt;Node13</title>
<g id="a_edge15_Node000007_Node000013"><a xlink:title=" ">
<path fill="none" stroke="#63b8ff" d="M2105.66,-191.51C2088.4,-174.64 2063.45,-151.29 2039.75,-133 2022.79,-119.91 2002.4,-106.86 1986.72,-97.34"/>
<polygon fill="#63b8ff" stroke="#63b8ff" points="2102.83,-193.63 2112.4,-198.17 2107.74,-188.65 2102.83,-193.63"/>
</a>
</g>
</g>
<!-- Node8&#45;&gt;Node9 -->
<g id="edge8_Node000008_Node000009" class="edge">
<title>Node8&#45;&gt;Node9</title>
<g id="a_edge8_Node000008_Node000009"><a xlink:title=" ">
<path fill="none" stroke="#63b8ff" d="M1910.14,-128.12C1887.77,-118.3 1860.95,-106.53 1840.23,-97.44"/>
<polygon fill="#63b8ff" stroke="#63b8ff" points="1908.44,-131.19 1919.01,-132.01 1911.26,-124.78 1908.44,-131.19"/>
</a>
</g>
</g>
<!-- Node8&#45;&gt;Node12 -->
<g id="edge11_Node000008_Node000012" class="edge">
<title>Node8&#45;&gt;Node12</title>
<g id="a_edge11_Node000008_Node000012"><a xlink:title=" ">
<path fill="none" stroke="#63b8ff" d="M2003.94,-128.65C2030.7,-118.73 2063.15,-106.7 2088.12,-97.44"/>
<polygon fill="#63b8ff" stroke="#63b8ff" points="2002.81,-125.33 1994.65,-132.09 2005.25,-131.89 2002.81,-125.33"/>
</a>
</g>
</g>
<!-- Node8&#45;&gt;Node13 -->
<g id="edge12_Node000008_Node000013" class="edge">
<title>Node8&#45;&gt;Node13</title>
<g id="a_edge12_Node000008_Node000013"><a xlink:title=" ">
<path fill="none" stroke="#63b8ff" d="M1956.97,-121.31C1957.98,-113.14 1959.06,-104.41 1959.94,-97.33"/>
<polygon fill="#63b8ff" stroke="#63b8ff" points="1953.51,-120.76 1955.75,-131.11 1960.46,-121.62 1953.51,-120.76"/>
</a>
</g>
</g>
<!-- Node14 -->
<g id="Node000014" class="node">
<title>Node14</title>
<g id="a_Node000014"><a xlink:href="_constraint_dependency_graph_pass_8cpp.html" target="_top" xlink:title="This file implements the &#45;llzk&#45;print&#45;constraint&#45;dependency&#45;graphs pass.">
<polygon fill="white" stroke="#666666" points="1125.25,-97 956.25,-97 956.25,-66.5 1125.25,-66.5 1125.25,-97"/>
<text text-anchor="start" x="964.25" y="-83.5" font-family="Helvetica,sans-Serif" font-size="10.00">lib/Analysis/ConstraintDependency</text>
<text text-anchor="middle" x="1040.75" y="-72.25" font-family="Helvetica,sans-Serif" font-size="10.00">GraphPass.cpp</text>
</a>
</g>
</g>
<!-- Node8&#45;&gt;Node14 -->
<g id="edge13_Node000008_Node000014" class="edge">
<title>Node8&#45;&gt;Node14</title>
<g id="a_edge13_Node000008_Node000014"><a xlink:title=" ">
<path fill="none" stroke="#63b8ff" d="M1865.44,-141.01C1689.7,-128.6 1298.26,-100.94 1125.49,-88.74"/>
<polygon fill="#63b8ff" stroke="#63b8ff" points="1864.96,-144.49 1875.19,-141.7 1865.46,-137.5 1864.96,-144.49"/>
</a>
</g>
</g>
<!-- Node10 -->
<g id="Node000010" class="node">
<title>Node10</title>
<g id="a_Node000010"><a xlink:href="_interval_analysis_8cpp.html" target="_top" xlink:title=" ">
<polygon fill="white" stroke="#666666" points="1885.62,-24.88 1727.88,-24.88 1727.88,-5.63 1885.62,-5.63 1885.62,-24.88"/>
<text text-anchor="middle" x="1806.75" y="-11.38" font-family="Helvetica,sans-Serif" font-size="10.00">lib/Analysis/IntervalAnalysis.cpp</text>
</a>
</g>
</g>
<!-- Node9&#45;&gt;Node10 -->
<g id="edge9_Node000009_Node000010" class="edge">
<title>Node9&#45;&gt;Node10</title>
<g id="a_edge9_Node000009_Node000010"><a xlink:title=" ">
<path fill="none" stroke="#63b8ff" d="M1806.75,-54.84C1806.75,-44.26 1806.75,-32.75 1806.75,-25.07"/>
<polygon fill="#63b8ff" stroke="#63b8ff" points="1803.25,-54.6 1806.75,-64.6 1810.25,-54.6 1803.25,-54.6"/>
</a>
</g>
</g>
<!-- Node11 -->
<g id="Node000011" class="node">
<title>Node11</title>
<g id="a_Node000011"><a xlink:href="_interval_analysis_pass_8cpp.html" target="_top" xlink:title="This file implements the &#45;llzk&#45;print&#45;interval&#45;analysis pass.">
<polygon fill="white" stroke="#666666" points="1048.25,-30.5 909.25,-30.5 909.25,0 1048.25,0 1048.25,-30.5"/>
<text text-anchor="start" x="917.25" y="-17" font-family="Helvetica,sans-Serif" font-size="10.00">lib/Analysis/IntervalAnalysis</text>
<text text-anchor="middle" x="978.75" y="-5.75" font-family="Helvetica,sans-Serif" font-size="10.00">Pass.cpp</text>
</a>
</g>
</g>
<!-- Node9&#45;&gt;Node11 -->
<g id="edge10_Node000009_Node000011" class="edge">
<title>Node9&#45;&gt;Node11</title>
<g id="a_edge10_Node000009_Node000011"><a xlink:title=" ">
<path fill="none" stroke="#63b8ff" d="M1742.23,-75.72C1589.49,-63.83 1206.74,-34.01 1048.7,-21.7"/>
<polygon fill="#63b8ff" stroke="#63b8ff" points="1741.94,-79.21 1752.19,-76.5 1742.49,-72.23 1741.94,-79.21"/>
</a>
</g>
</g>
<!-- Node19&#45;&gt;Node5 -->
<g id="edge23_Node000019_Node000005" class="edge">
<title>Node19&#45;&gt;Node5</title>
<g id="a_edge23_Node000019_Node000005"><a xlink:title=" ">
<path fill="none" stroke="#63b8ff" d="M1710.44,-417.86C1749.26,-406.23 1799.27,-391.24 1835.76,-380.31"/>
<polygon fill="#63b8ff" stroke="#63b8ff" points="1709.83,-414.39 1701.25,-420.62 1711.84,-421.1 1709.83,-414.39"/>
</a>
</g>
</g>
<!-- Node19&#45;&gt;Node16 -->
<g id="edge27_Node000019_Node000016" class="edge">
<title>Node19&#45;&gt;Node16</title>
<g id="a_edge27_Node000019_Node000016"><a xlink:title=" ">
<path fill="none" stroke="#63b8ff" d="M1724.74,-435.7C1788.17,-432.86 1880.34,-421.95 1951.75,-385.5 1954.34,-384.18 2009.3,-329.36 2036.19,-302.46"/>
<polygon fill="#63b8ff" stroke="#63b8ff" points="1724.62,-432.2 1714.76,-436.08 1724.88,-439.19 1724.62,-432.2"/>
</a>
</g>
</g>
<!-- Node19&#45;&gt;Node17 -->
<g id="edge28_Node000019_Node000017" class="edge">
<title>Node19&#45;&gt;Node17</title>
<g id="a_edge28_Node000019_Node000017"><a xlink:title=" ">
<path fill="none" stroke="#63b8ff" d="M1617.06,-414.23C1607.74,-406.41 1598.81,-396.71 1593.75,-385.5 1586.11,-368.59 1582.99,-358.87 1593.75,-343.75 1597.26,-338.82 1661.96,-317.4 1708.25,-302.56"/>
<polygon fill="#63b8ff" stroke="#63b8ff" points="1614.74,-416.86 1624.79,-420.2 1619.02,-411.32 1614.74,-416.86"/>
</a>
</g>
</g>
<!-- Node20 -->
<g id="Node000020" class="node">
<title>Node20</title>
<g id="a_Node000020"><a xlink:href="_bool_2_i_r_2_ops_8cpp.html" target="_top" xlink:title=" ">
<polygon fill="white" stroke="#666666" points="1698.5,-379.88 1603,-379.88 1603,-349.38 1698.5,-349.38 1698.5,-379.88"/>
<text text-anchor="start" x="1611" y="-366.38" font-family="Helvetica,sans-Serif" font-size="10.00">lib/Dialect/Bool/IR</text>
<text text-anchor="middle" x="1650.75" y="-355.12" font-family="Helvetica,sans-Serif" font-size="10.00">/Ops.cpp</text>
</a>
</g>
</g>
<!-- Node19&#45;&gt;Node20 -->
<g id="edge24_Node000019_Node000020" class="edge">
<title>Node19&#45;&gt;Node20</title>
<g id="a_edge24_Node000019_Node000020"><a xlink:title=" ">
<path fill="none" stroke="#63b8ff" d="M1650.75,-409.77C1650.75,-399.76 1650.75,-388.69 1650.75,-380.14"/>
<polygon fill="#63b8ff" stroke="#63b8ff" points="1647.25,-409.71 1650.75,-419.71 1654.25,-409.71 1647.25,-409.71"/>
</a>
</g>
</g>
<!-- Node21 -->
<g id="Node000021" class="node">
<title>Node21</title>
<g id="a_Node000021"><a xlink:href="_felt_2_i_r_2_ops_8cpp.html" target="_top" xlink:title=" ">
<polygon fill="white" stroke="#666666" points="1809,-379.88 1716.5,-379.88 1716.5,-349.38 1809,-349.38 1809,-379.88"/>
<text text-anchor="start" x="1724.5" y="-366.38" font-family="Helvetica,sans-Serif" font-size="10.00">lib/Dialect/Felt/IR</text>
<text text-anchor="middle" x="1762.75" y="-355.12" font-family="Helvetica,sans-Serif" font-size="10.00">/Ops.cpp</text>
</a>
</g>
</g>
<!-- Node19&#45;&gt;Node21 -->
<g id="edge25_Node000019_Node000021" class="edge">
<title>Node19&#45;&gt;Node21</title>
<g id="a_edge25_Node000019_Node000021"><a xlink:title=" ">
<path fill="none" stroke="#63b8ff" d="M1683.7,-415.12C1701.55,-403.95 1723.18,-390.4 1739.3,-380.31"/>
<polygon fill="#63b8ff" stroke="#63b8ff" points="1682.13,-411.97 1675.51,-420.25 1685.84,-417.91 1682.13,-411.97"/>
</a>
</g>
</g>
<!-- Node22 -->
<g id="Node000022" class="node">
<title>Node22</title>
<g id="a_Node000022"><a xlink:href="_function_2_i_r_2_ops_8cpp.html" target="_top" xlink:title=" ">
<polygon fill="white" stroke="#666666" points="1270.75,-379.88 1170.75,-379.88 1170.75,-349.38 1270.75,-349.38 1270.75,-379.88"/>
<text text-anchor="start" x="1178.75" y="-366.38" font-family="Helvetica,sans-Serif" font-size="10.00">lib/Dialect/Function</text>
<text text-anchor="middle" x="1220.75" y="-355.12" font-family="Helvetica,sans-Serif" font-size="10.00">/IR/Ops.cpp</text>
</a>
</g>
</g>
<!-- Node19&#45;&gt;Node22 -->
<g id="edge26_Node000019_Node000022" class="edge">
<title>Node19&#45;&gt;Node22</title>
<g id="a_edge26_Node000019_Node000022"><a xlink:title=" ">
<path fill="none" stroke="#63b8ff" d="M1577.14,-429.94C1501.74,-423.02 1381.49,-409.3 1279.75,-385.5 1273.65,-384.07 1267.28,-382.27 1261.08,-380.34"/>
<polygon fill="#63b8ff" stroke="#63b8ff" points="1576.61,-433.41 1586.88,-430.82 1577.23,-426.43 1576.61,-433.41"/>
</a>
</g>
</g>
<!-- Node23 -->
<g id="Node000023" class="node">
<title>Node23</title>
<g id="a_Node000023"><a xlink:href="_symbol_helper_8cpp.html" target="_top" xlink:title="This file contains the implementations for symbol helper functions.">
<polygon fill="white" stroke="#666666" points="1414.88,-374.25 1288.62,-374.25 1288.62,-355 1414.88,-355 1414.88,-374.25"/>
<text text-anchor="middle" x="1351.75" y="-360.75" font-family="Helvetica,sans-Serif" font-size="10.00">lib/Util/SymbolHelper.cpp</text>
</a>
</g>
</g>
<!-- Node19&#45;&gt;Node23 -->
<g id="edge29_Node000019_Node000023" class="edge">
<title>Node19&#45;&gt;Node23</title>
<g id="a_edge29_Node000019_Node000023"><a xlink:title=" ">
<path fill="none" stroke="#63b8ff" d="M1577.38,-420.51C1532.81,-411 1474.85,-398.2 1423.75,-385.5 1410.41,-382.18 1395.77,-378.21 1383.2,-374.68"/>
<polygon fill="#63b8ff" stroke="#63b8ff" points="1576.41,-423.88 1586.92,-422.54 1577.87,-417.04 1576.41,-423.88"/>
</a>
</g>
</g>
<!-- Node24 -->
<g id="Node000024" class="node">
<title>Node24</title>
<g id="a_Node000024"><a xlink:href="_type_helper_8cpp.html" target="_top" xlink:title=" ">
<polygon fill="white" stroke="#666666" points="1546.88,-374.25 1432.62,-374.25 1432.62,-355 1546.88,-355 1546.88,-374.25"/>
<text text-anchor="middle" x="1489.75" y="-360.75" font-family="Helvetica,sans-Serif" font-size="10.00">lib/Util/TypeHelper.cpp</text>
</a>
</g>
</g>
<!-- Node19&#45;&gt;Node24 -->
<g id="edge30_Node000019_Node000024" class="edge">
<title>Node19&#45;&gt;Node24</title>
<g id="a_edge30_Node000019_Node000024"><a xlink:title=" ">
<path fill="none" stroke="#63b8ff" d="M1606.79,-416.6C1575.52,-402.98 1534.92,-385.3 1510.68,-374.74"/>
<polygon fill="#63b8ff" stroke="#63b8ff" points="1605.05,-419.66 1615.61,-420.45 1607.84,-413.24 1605.05,-419.66"/>
</a>
</g>
</g>
<!-- Node25&#45;&gt;Node2 -->
<g id="edge40_Node000025_Node000002" class="edge">
<title>Node25&#45;&gt;Node2</title>
<g id="a_edge40_Node000025_Node000002"><a xlink:title=" ">
<path fill="none" stroke="#63b8ff" d="M668.85,-426.83C590.04,-418.06 469.58,-403.41 365.75,-385.5 362.85,-385 359.91,-384.47 356.93,-383.92"/>
<polygon fill="#63b8ff" stroke="#63b8ff" points="668.35,-430.3 678.67,-427.92 669.11,-423.34 668.35,-430.3"/>
</a>
</g>
</g>
<!-- Node26 -->
<g id="Node000026" class="node">
<title>Node26</title>
<g id="a_Node000026"><a xlink:href="_analysis_passes_8h.html" target="_top" xlink:title=" ">
<polygon fill="white" stroke="#666666" points="661.38,-379.88 556.12,-379.88 556.12,-349.38 661.38,-349.38 661.38,-379.88"/>
<text text-anchor="start" x="564.12" y="-366.38" font-family="Helvetica,sans-Serif" font-size="10.00">include/llzk/Analysis</text>
<text text-anchor="middle" x="608.75" y="-355.12" font-family="Helvetica,sans-Serif" font-size="10.00">/AnalysisPasses.h</text>
</a>
</g>
</g>
<!-- Node25&#45;&gt;Node26 -->
<g id="edge32_Node000025_Node000026" class="edge">
<title>Node25&#45;&gt;Node26</title>
<g id="a_edge32_Node000025_Node000026"><a xlink:title=" ">
<path fill="none" stroke="#63b8ff" d="M724.87,-421.78C700.07,-409.79 664.46,-392.57 639.22,-380.36"/>
<polygon fill="#63b8ff" stroke="#63b8ff" points="723.2,-424.86 733.73,-426.07 726.25,-418.56 723.2,-424.86"/>
</a>
</g>
</g>
<!-- Node28 -->
<g id="Node000028" class="node">
<title>Node28</title>
<g id="a_Node000028"><a xlink:href="_array_2_transforms_2_transformation_passes_8h.html" target="_top" xlink:title=" ">
<polygon fill="white" stroke="#666666" points="538.25,-385.5 375.25,-385.5 375.25,-343.75 538.25,-343.75 538.25,-385.5"/>
<text text-anchor="start" x="383.25" y="-372" font-family="Helvetica,sans-Serif" font-size="10.00">include/llzk/Dialect</text>
<text text-anchor="start" x="383.25" y="-360.75" font-family="Helvetica,sans-Serif" font-size="10.00">/Array/Transforms/Transformation</text>
<text text-anchor="middle" x="456.75" y="-349.5" font-family="Helvetica,sans-Serif" font-size="10.00">Passes.h</text>
</a>
</g>
</g>
<!-- Node25&#45;&gt;Node28 -->
<g id="edge37_Node000025_Node000028" class="edge">
<title>Node25&#45;&gt;Node28</title>
<g id="a_edge37_Node000025_Node000028"><a xlink:title=" ">
<path fill="none" stroke="#63b8ff" d="M704.27,-424.07C659.2,-413.43 591.76,-397.5 538.66,-384.96"/>
<polygon fill="#63b8ff" stroke="#63b8ff" points="703.22,-427.41 713.75,-426.31 704.83,-420.6 703.22,-427.41"/>
</a>
</g>
</g>
<!-- Node30 -->
<g id="Node000030" class="node">
<title>Node30</title>
<g id="a_Node000030"><a xlink:href="_polymorphic_2_transforms_2_transformation_passes_8h.html" target="_top" xlink:title=" ">
<polygon fill="white" stroke="#666666" points="1115.5,-385.5 990,-385.5 990,-343.75 1115.5,-343.75 1115.5,-385.5"/>
<text text-anchor="start" x="998" y="-372" font-family="Helvetica,sans-Serif" font-size="10.00">include/llzk/Dialect</text>
<text text-anchor="start" x="998" y="-360.75" font-family="Helvetica,sans-Serif" font-size="10.00">/Polymorphic/Transforms</text>
<text text-anchor="middle" x="1052.75" y="-349.5" font-family="Helvetica,sans-Serif" font-size="10.00">/TransformationPasses.h</text>
</a>
</g>
</g>
<!-- Node25&#45;&gt;Node30 -->
<g id="edge41_Node000025_Node000030" class="edge">
<title>Node25&#45;&gt;Node30</title>
<g id="a_edge41_Node000025_Node000030"><a xlink:title=" ">
<path fill="none" stroke="#63b8ff" d="M809.09,-424.33C855.17,-414.63 922.43,-399.99 980.75,-385.5 983.64,-384.78 986.6,-384.03 989.58,-383.26"/>
<polygon fill="#63b8ff" stroke="#63b8ff" points="808.4,-420.9 799.33,-426.38 809.84,-427.75 808.4,-420.9"/>
</a>
</g>
</g>
<!-- Node31 -->
<g id="Node000031" class="node">
<title>Node31</title>
<g id="a_Node000031"><a xlink:href="_l_l_z_k_transformation_passes_8h.html" target="_top" xlink:title=" ">
<polygon fill="white" stroke="#666666" points="828.12,-379.88 679.38,-379.88 679.38,-349.38 828.12,-349.38 828.12,-379.88"/>
<text text-anchor="start" x="687.38" y="-366.38" font-family="Helvetica,sans-Serif" font-size="10.00">include/llzk/Transforms</text>
<text text-anchor="middle" x="753.75" y="-355.12" font-family="Helvetica,sans-Serif" font-size="10.00">/LLZKTransformationPasses.h</text>
</a>
</g>
</g>
<!-- Node25&#45;&gt;Node31 -->
<g id="edge44_Node000025_Node000031" class="edge">
<title>Node25&#45;&gt;Node31</title>
<g id="a_edge44_Node000025_Node000031"><a xlink:title=" ">
<path fill="none" stroke="#63b8ff" d="M753.75,-415.54C753.75,-404.28 753.75,-390.51 753.75,-380.29"/>
<polygon fill="#63b8ff" stroke="#63b8ff" points="750.25,-415.36 753.75,-425.36 757.25,-415.36 750.25,-415.36"/>
</a>
</g>
</g>
<!-- Node36 -->
<g id="Node000036" class="node">
<title>Node36</title>
<g id="a_Node000036"><a xlink:href="_l_l_z_k_validation_passes_8h.html" target="_top" xlink:title=" ">
<polygon fill="white" stroke="#666666" points="971.5,-379.88 846,-379.88 846,-349.38 971.5,-349.38 971.5,-379.88"/>
<text text-anchor="start" x="854" y="-366.38" font-family="Helvetica,sans-Serif" font-size="10.00">include/llzk/Validators</text>
<text text-anchor="middle" x="908.75" y="-355.12" font-family="Helvetica,sans-Serif" font-size="10.00">/LLZKValidationPasses.h</text>
</a>
</g>
</g>
<!-- Node25&#45;&gt;Node36 -->
<g id="edge50_Node000025_Node000036" class="edge">
<title>Node25&#45;&gt;Node36</title>
<g id="a_edge50_Node000025_Node000036"><a xlink:title=" ">
<path fill="none" stroke="#63b8ff" d="M783.92,-422.1C810.44,-410.1 848.96,-392.67 876.18,-380.36"/>
<polygon fill="#63b8ff" stroke="#63b8ff" points="782.74,-418.79 775.08,-426.1 785.63,-425.17 782.74,-418.79"/>
</a>
</g>
</g>
<!-- Node26&#45;&gt;Node4 -->
<g id="edge36_Node000026_Node000004" class="edge">
<title>Node26&#45;&gt;Node4</title>
<g id="a_edge36_Node000026_Node000004"><a xlink:title=" ">
<path fill="none" stroke="#63b8ff" d="M608.75,-337.6C608.75,-325.84 608.75,-312.38 608.75,-302.44"/>
<polygon fill="#63b8ff" stroke="#63b8ff" points="605.25,-337.51 608.75,-347.51 612.25,-337.51 605.25,-337.51"/>
</a>
</g>
</g>
<!-- Node26&#45;&gt;Node11 -->
<g id="edge35_Node000026_Node000011" class="edge">
<title>Node26&#45;&gt;Node11</title>
<g id="a_edge35_Node000026_Node000011"><a xlink:title=" ">
<path fill="none" stroke="#63b8ff" d="M554.2,-345.73C551.69,-345.04 549.2,-344.37 546.75,-343.75 463.88,-322.66 425.02,-360.54 357.75,-307.75 322.39,-280 315.75,-260.7 315.75,-215.75 315.75,-215.75 315.75,-215.75 315.75,-147.25 315.75,-27.28 738.83,-15.39 909.05,-15.46"/>
<polygon fill="#63b8ff" stroke="#63b8ff" points="553.22,-349.09 563.79,-348.52 555.17,-342.37 553.22,-349.09"/>
</a>
</g>
</g>
<!-- Node26&#45;&gt;Node14 -->
<g id="edge34_Node000026_Node000014" class="edge">
<title>Node26&#45;&gt;Node14</title>
<g id="a_edge34_Node000026_Node000014"><a xlink:title=" ">
<path fill="none" stroke="#63b8ff" d="M554.05,-345.74C551.59,-345.05 549.15,-344.38 546.75,-343.75 464.83,-322.21 321.39,-333.35 372.75,-266 443.67,-173.01 792.42,-115.54 955.9,-93.3"/>
<polygon fill="#63b8ff" stroke="#63b8ff" points="552.86,-349.04 563.44,-348.5 554.83,-342.32 552.86,-349.04"/>
</a>
</g>
</g>
<!-- Node27 -->
<g id="Node000027" class="node">
<title>Node27</title>
<g id="a_Node000027"><a xlink:href="_call_graph_passes_8cpp.html" target="_top" xlink:title="This file implements the &#45;llzk&#45;print&#45;call&#45;graph and &#45;llzk&#45;print&#45;call&#45;graph&#45;sccs passes.">
<polygon fill="white" stroke="#666666" points="546,-296.5 381.5,-296.5 381.5,-277.25 546,-277.25 546,-296.5"/>
<text text-anchor="middle" x="463.75" y="-283" font-family="Helvetica,sans-Serif" font-size="10.00">lib/Analysis/CallGraphPasses.cpp</text>
</a>
</g>
</g>
<!-- Node26&#45;&gt;Node27 -->
<g id="edge33_Node000026_Node000027" class="edge">
<title>Node26&#45;&gt;Node27</title>
<g id="a_edge33_Node000026_Node000027"><a xlink:title=" ">
<path fill="none" stroke="#63b8ff" d="M570.6,-343.69C541.63,-328.56 503.15,-308.46 481.15,-296.97"/>
<polygon fill="#63b8ff" stroke="#63b8ff" points="568.97,-346.79 579.45,-348.32 572.21,-340.59 568.97,-346.79"/>
</a>
</g>
</g>
<!-- Node28&#45;&gt;Node4 -->
<g id="edge39_Node000028_Node000004" class="edge">
<title>Node28&#45;&gt;Node4</title>
<g id="a_edge39_Node000028_Node000004"><a xlink:title=" ">
<path fill="none" stroke="#63b8ff" d="M507.47,-338.35C531.4,-326.42 559.1,-312.62 579.47,-302.46"/>
<polygon fill="#63b8ff" stroke="#63b8ff" points="506.23,-335.06 498.84,-342.65 509.35,-341.32 506.23,-335.06"/>
</a>
</g>
</g>
<!-- Node29 -->
<g id="Node000029" class="node">
<title>Node29</title>
<g id="a_Node000029"><a xlink:href="_array_to_scalar_pass_8cpp.html" target="_top" xlink:title="This file implements the &#45;llzk&#45;array&#45;to&#45;scalar pass.">
<polygon fill="white" stroke="#666666" points="287.88,-302.12 149.62,-302.12 149.62,-271.62 287.88,-271.62 287.88,-302.12"/>
<text text-anchor="start" x="157.62" y="-288.62" font-family="Helvetica,sans-Serif" font-size="10.00">lib/Dialect/Array/Transforms</text>
<text text-anchor="middle" x="218.75" y="-277.38" font-family="Helvetica,sans-Serif" font-size="10.00">/ArrayToScalarPass.cpp</text>
</a>
</g>
</g>
<!-- Node28&#45;&gt;Node29 -->
<g id="edge38_Node000028_Node000029" class="edge">
<title>Node28&#45;&gt;Node29</title>
<g id="a_edge38_Node000028_Node000029"><a xlink:title=" ">
<path fill="none" stroke="#63b8ff" d="M382.34,-339.94C343.93,-327.72 298.27,-313.18 264.96,-302.58"/>
<polygon fill="#63b8ff" stroke="#63b8ff" points="380.94,-343.17 391.53,-342.87 383.06,-336.5 380.94,-343.17"/>
</a>
</g>
</g>
<!-- Node30&#45;&gt;Node4 -->
<g id="edge43_Node000030_Node000004" class="edge">
<title>Node30&#45;&gt;Node4</title>
<g id="a_edge43_Node000030_Node000004"><a xlink:title=" ">
<path fill="none" stroke="#63b8ff" d="M978.56,-343.51C839.01,-317.92 797.64,-339.72 662.75,-307.75 656.92,-306.37 650.85,-304.54 644.99,-302.56"/>
<polygon fill="#63b8ff" stroke="#63b8ff" points="977.7,-346.91 988.18,-345.33 979,-340.03 977.7,-346.91"/>
</a>
</g>
</g>
<!-- Node30&#45;&gt;Node18 -->
<g id="edge42_Node000030_Node000018" class="edge">
<title>Node30&#45;&gt;Node18</title>
<g id="a_edge42_Node000030_Node000018"><a xlink:title=" ">
<path fill="none" stroke="#63b8ff" d="M1126.8,-349.32C1138.47,-347.29 1150.42,-345.36 1161.75,-343.75 1317.45,-321.63 1358.58,-333.31 1513.75,-307.75 1522.62,-306.29 1531.93,-304.47 1541.04,-302.53"/>
<polygon fill="#63b8ff" stroke="#63b8ff" points="1126.46,-345.82 1117.22,-351.01 1127.67,-352.72 1126.46,-345.82"/>
</a>
</g>
</g>
<!-- Node31&#45;&gt;Node4 -->
<g id="edge49_Node000031_Node000004" class="edge">
<title>Node31&#45;&gt;Node4</title>
<g id="a_edge49_Node000031_Node000004"><a xlink:title=" ">
<path fill="none" stroke="#63b8ff" d="M715.64,-343.72C690.85,-330.76 659.06,-314.16 636.62,-302.44"/>
<polygon fill="#63b8ff" stroke="#63b8ff" points="713.97,-346.79 724.45,-348.32 717.21,-340.59 713.97,-346.79"/>
</a>
</g>
</g>
<!-- Node32 -->
<g id="Node000032" class="node">
<title>Node32</title>
<g id="a_Node000032"><a xlink:href="_l_l_z_k_redundant_operation_elimination_pass_8cpp.html" target="_top" xlink:title="This file implements the &#45;llzk&#45;duplicate&#45;op&#45;elim pass.">
<polygon fill="white" stroke="#666666" points="987.62,-302.12 835.88,-302.12 835.88,-271.62 987.62,-271.62 987.62,-302.12"/>
<text text-anchor="start" x="843.88" y="-288.62" font-family="Helvetica,sans-Serif" font-size="10.00">lib/Transforms/LLZKRedundant</text>
<text text-anchor="middle" x="911.75" y="-277.38" font-family="Helvetica,sans-Serif" font-size="10.00">OperationEliminationPass.cpp</text>
</a>
</g>
</g>
<!-- Node31&#45;&gt;Node32 -->
<g id="edge45_Node000031_Node000032" class="edge">
<title>Node31&#45;&gt;Node32</title>
<g id="a_edge45_Node000031_Node000032"><a xlink:title=" ">
<path fill="none" stroke="#63b8ff" d="M794.52,-344.08C821.55,-331.12 856.44,-314.39 881.11,-302.56"/>
<polygon fill="#63b8ff" stroke="#63b8ff" points="793.08,-340.89 785.58,-348.37 796.11,-347.2 793.08,-340.89"/>
</a>
</g>
</g>
<!-- Node33 -->
<g id="Node000033" class="node">
<title>Node33</title>
<g id="a_Node000033"><a xlink:href="_l_l_z_k_redundant_read_and_write_elimination_pass_8cpp.html" target="_top" xlink:title="This file implements the &#45;llzk&#45;duplicate&#45;read&#45;write&#45;elim pass.">
<polygon fill="white" stroke="#666666" points="1173.88,-302.12 1005.62,-302.12 1005.62,-271.62 1173.88,-271.62 1173.88,-302.12"/>
<text text-anchor="start" x="1013.62" y="-288.62" font-family="Helvetica,sans-Serif" font-size="10.00">lib/Transforms/LLZKRedundant</text>
<text text-anchor="middle" x="1089.75" y="-277.38" font-family="Helvetica,sans-Serif" font-size="10.00">ReadAndWriteEliminationPass.cpp</text>
</a>
</g>
</g>
<!-- Node31&#45;&gt;Node33 -->
<g id="edge46_Node000031_Node000033" class="edge">
<title>Node31&#45;&gt;Node33</title>
<g id="a_edge46_Node000031_Node000033"><a xlink:title=" ">
<path fill="none" stroke="#63b8ff" d="M825.36,-346.39C829.21,-345.49 833.03,-344.61 836.75,-343.75 899.22,-329.37 970.53,-313.69 1021.49,-302.61"/>
<polygon fill="#63b8ff" stroke="#63b8ff" points="824.87,-342.91 815.94,-348.61 826.47,-349.73 824.87,-342.91"/>
</a>
</g>
</g>
<!-- Node34 -->
<g id="Node000034" class="node">
<title>Node34</title>
<g id="a_Node000034"><a xlink:href="_l_l_z_k_unused_declaration_elimination_pass_8cpp.html" target="_top" xlink:title="This file implements the &#45;llzk&#45;unused&#45;declaration&#45;elim pass.">
<polygon fill="white" stroke="#666666" points="1347.12,-302.12 1192.38,-302.12 1192.38,-271.62 1347.12,-271.62 1347.12,-302.12"/>
<text text-anchor="start" x="1200.38" y="-288.62" font-family="Helvetica,sans-Serif" font-size="10.00">lib/Transforms/LLZKUnused</text>
<text text-anchor="middle" x="1269.75" y="-277.38" font-family="Helvetica,sans-Serif" font-size="10.00">DeclarationEliminationPass.cpp</text>
</a>
</g>
</g>
<!-- Node31&#45;&gt;Node34 -->
<g id="edge47_Node000031_Node000034" class="edge">
<title>Node31&#45;&gt;Node34</title>
<g id="a_edge47_Node000031_Node000034"><a xlink:title=" ">
<path fill="none" stroke="#63b8ff" d="M821.76,-346.58C826.81,-345.55 831.85,-344.59 836.75,-343.75 989.15,-317.69 1030.22,-333.01 1182.75,-307.75 1191.46,-306.31 1200.61,-304.52 1209.56,-302.62"/>
<polygon fill="#63b8ff" stroke="#63b8ff" points="821.22,-343.12 812.18,-348.63 822.69,-349.96 821.22,-343.12"/>
</a>
</g>
</g>
<!-- Node35 -->
<g id="Node000035" class="node">
<title>Node35</title>
<g id="a_Node000035"><a xlink:href="_transformation_pass_pipelines_8cpp.html" target="_top" xlink:title="This file implements logic for registering the &#45;llzk&#45;remove&#45;unnecessary&#45;ops and &#45;llzk&#45;remove&#45;unnecess...">
<polygon fill="white" stroke="#666666" points="818,-302.12 671.5,-302.12 671.5,-271.62 818,-271.62 818,-302.12"/>
<text text-anchor="start" x="679.5" y="-288.62" font-family="Helvetica,sans-Serif" font-size="10.00">lib/Transforms/Transformation</text>
<text text-anchor="middle" x="744.75" y="-277.38" font-family="Helvetica,sans-Serif" font-size="10.00">PassPipelines.cpp</text>
</a>
</g>
</g>
<!-- Node31&#45;&gt;Node35 -->
<g id="edge48_Node000031_Node000035" class="edge">
<title>Node31&#45;&gt;Node35</title>
<g id="a_edge48_Node000031_Node000035"><a xlink:title=" ">
<path fill="none" stroke="#63b8ff" d="M750.66,-337.6C749.26,-325.84 747.66,-312.38 746.48,-302.44"/>
<polygon fill="#63b8ff" stroke="#63b8ff" points="747.18,-338 751.84,-347.52 754.13,-337.17 747.18,-338"/>
</a>
</g>
</g>
<!-- Node36&#45;&gt;Node4 -->
<g id="edge52_Node000036_Node000004" class="edge">
<title>Node36&#45;&gt;Node4</title>
<g id="a_edge52_Node000036_Node000004"><a xlink:title=" ">
<path fill="none" stroke="#63b8ff" d="M845.81,-346C842.75,-345.22 839.72,-344.47 836.75,-343.75 759.98,-325.23 738.68,-329.45 662.75,-307.75 657.47,-306.24 651.96,-304.46 646.57,-302.6"/>
<polygon fill="#63b8ff" stroke="#63b8ff" points="844.92,-349.38 855.48,-348.51 846.68,-342.6 844.92,-349.38"/>
</a>
</g>
</g>
<!-- Node37 -->
<g id="Node000037" class="node">
<title>Node37</title>
<g id="a_Node000037"><a xlink:href="_l_l_z_k_validation_passes_8cpp.html" target="_top" xlink:title="This file contains the implementation for the &#45;llzk&#45;validate&#45;field&#45;writes pass.">
<polygon fill="white" stroke="#666666" points="1504.62,-302.12 1364.88,-302.12 1364.88,-271.62 1504.62,-271.62 1504.62,-302.12"/>
<text text-anchor="start" x="1372.88" y="-288.62" font-family="Helvetica,sans-Serif" font-size="10.00">lib/Validators/LLZKValidation</text>
<text text-anchor="middle" x="1434.75" y="-277.38" font-family="Helvetica,sans-Serif" font-size="10.00">Passes.cpp</text>
</a>
</g>
</g>
<!-- Node36&#45;&gt;Node37 -->
<g id="edge51_Node000036_Node000037" class="edge">
<title>Node36&#45;&gt;Node37</title>
<g id="a_edge51_Node000036_Node000037"><a xlink:title=" ">
<path fill="none" stroke="#63b8ff" d="M968.54,-346.28C972.66,-345.34 976.75,-344.49 980.75,-343.75 1145.4,-313.36 1190.76,-336.26 1355.75,-307.75 1363.97,-306.33 1372.6,-304.51 1381.01,-302.55"/>
<polygon fill="#63b8ff" stroke="#63b8ff" points="968.05,-342.79 959.14,-348.54 969.69,-349.6 968.05,-342.79"/>
</a>
</g>
</g>
</g>
</svg>
