<?xml version="1.0" encoding="UTF-8" standalone="no"?>
<!DOCTYPE svg PUBLIC "-//W3C//DTD SVG 1.1//EN"
 "http://www.w3.org/Graphics/SVG/1.1/DTD/svg11.dtd">
<!-- Generated by graphviz version 12.2.1 (20241206.2353)
 -->
<!-- Title: lib/Dialect/Polymorphic/IR/Ops.cpp Pages: 1 -->
<svg width="2460pt" height="360pt"
 viewBox="0.00 0.00 2459.50 359.75" xmlns="http://www.w3.org/2000/svg" xmlns:xlink="http://www.w3.org/1999/xlink">
<g id="graph0" class="graph" transform="scale(1 1) rotate(0) translate(4 355.75)">
<title>lib/Dialect/Polymorphic/IR/Ops.cpp</title>
<!-- Node1 -->
<g id="Node000001" class="node">
<title>Node1</title>
<g id="a_Node000001"><a xlink:title=" ">
<polygon fill="#999999" stroke="#666666" points="2217.12,-351.75 2100.62,-351.75 2100.62,-321.25 2217.12,-321.25 2217.12,-351.75"/>
<text text-anchor="start" x="2108.62" y="-338.25" font-family="Helvetica,sans-Serif" font-size="10.00">lib/Dialect/Polymorphic</text>
<text text-anchor="middle" x="2158.88" y="-327" font-family="Helvetica,sans-Serif" font-size="10.00">/IR/Ops.cpp</text>
</a>
</g>
</g>
<!-- Node2 -->
<g id="Node000002" class="node">
<title>Node2</title>
<g id="a_Node000002"><a xlink:href="_polymorphic_2_i_r_2_ops_8h.html" target="_top" xlink:title=" ">
<polygon fill="white" stroke="#666666" points="2130.75,-285.25 2009,-285.25 2009,-254.75 2130.75,-254.75 2130.75,-285.25"/>
<text text-anchor="start" x="2017" y="-271.75" font-family="Helvetica,sans-Serif" font-size="10.00">llzk/Dialect/Polymorphic</text>
<text text-anchor="middle" x="2069.88" y="-260.5" font-family="Helvetica,sans-Serif" font-size="10.00">/IR/Ops.h</text>
</a>
</g>
</g>
<!-- Node1&#45;&gt;Node2 -->
<g id="edge1_Node000001_Node000002" class="edge">
<title>Node1&#45;&gt;Node2</title>
<g id="a_edge1_Node000001_Node000002"><a xlink:title=" ">
<path fill="none" stroke="#63b8ff" d="M2138.68,-320.86C2126.96,-312.37 2111.99,-301.52 2099.01,-292.12"/>
<polygon fill="#63b8ff" stroke="#63b8ff" points="2101.37,-289.5 2091.22,-286.47 2097.26,-295.17 2101.37,-289.5"/>
</a>
</g>
</g>
<!-- Node6 -->
<g id="Node000006" class="node">
<title>Node6</title>
<g id="a_Node000006"><a xlink:href="_polymorphic_2_i_r_2_types_8h.html" target="_top" xlink:title=" ">
<polygon fill="white" stroke="#666666" points="2219.75,-218.75 2098,-218.75 2098,-188.25 2219.75,-188.25 2219.75,-218.75"/>
<text text-anchor="start" x="2106" y="-205.25" font-family="Helvetica,sans-Serif" font-size="10.00">llzk/Dialect/Polymorphic</text>
<text text-anchor="middle" x="2158.88" y="-194" font-family="Helvetica,sans-Serif" font-size="10.00">/IR/Types.h</text>
</a>
</g>
</g>
<!-- Node1&#45;&gt;Node6 -->
<g id="edge11_Node000001_Node000006" class="edge">
<title>Node1&#45;&gt;Node6</title>
<g id="a_edge11_Node000001_Node000006"><a xlink:title=" ">
<path fill="none" stroke="#63b8ff" d="M2158.88,-320.98C2158.88,-299.14 2158.88,-257.52 2158.88,-230.4"/>
<polygon fill="#63b8ff" stroke="#63b8ff" points="2162.38,-230.6 2158.88,-220.6 2155.38,-230.6 2162.38,-230.6"/>
</a>
</g>
</g>
<!-- Node10 -->
<g id="Node000010" class="node">
<title>Node10</title>
<g id="a_Node000010"><a xlink:href="_struct_2_i_r_2_ops_8h.html" target="_top" xlink:title=" ">
<polygon fill="white" stroke="#666666" points="1338.88,-285.25 1244.88,-285.25 1244.88,-254.75 1338.88,-254.75 1338.88,-285.25"/>
<text text-anchor="start" x="1252.88" y="-271.75" font-family="Helvetica,sans-Serif" font-size="10.00">llzk/Dialect/Struct</text>
<text text-anchor="middle" x="1291.88" y="-260.5" font-family="Helvetica,sans-Serif" font-size="10.00">/IR/Ops.h</text>
</a>
</g>
</g>
<!-- Node1&#45;&gt;Node10 -->
<g id="edge12_Node000001_Node000010" class="edge">
<title>Node1&#45;&gt;Node10</title>
<g id="a_edge12_Node000001_Node000010"><a xlink:title=" ">
<path fill="none" stroke="#63b8ff" d="M2100.3,-331.14C1942.3,-319.39 1508.62,-287.12 1350.52,-275.36"/>
<polygon fill="#63b8ff" stroke="#63b8ff" points="1350.92,-271.88 1340.69,-274.63 1350.4,-278.86 1350.92,-271.88"/>
</a>
</g>
</g>
<!-- Node44 -->
<g id="Node000044" class="node">
<title>Node44</title>
<g id="a_Node000044"><a xlink:href="_symbol_helper_8h.html" target="_top" xlink:title=" ">
<polygon fill="white" stroke="#666666" points="2308.38,-279.62 2187.38,-279.62 2187.38,-260.38 2308.38,-260.38 2308.38,-279.62"/>
<text text-anchor="middle" x="2247.88" y="-266.12" font-family="Helvetica,sans-Serif" font-size="10.00">llzk/Util/SymbolHelper.h</text>
</a>
</g>
</g>
<!-- Node1&#45;&gt;Node44 -->
<g id="edge58_Node000001_Node000044" class="edge">
<title>Node1&#45;&gt;Node44</title>
<g id="a_edge58_Node000001_Node000044"><a xlink:title=" ">
<path fill="none" stroke="#63b8ff" d="M2179.07,-320.86C2193.16,-310.66 2211.93,-297.05 2226.3,-286.63"/>
<polygon fill="#63b8ff" stroke="#63b8ff" points="2228.17,-289.6 2234.22,-280.9 2224.07,-283.93 2228.17,-289.6"/>
</a>
</g>
</g>
<!-- Node47 -->
<g id="Node000047" class="node">
<title>Node47</title>
<g id="a_Node000047"><a xlink:href="_polymorphic_2_i_r_2_ops_8cpp_8inc.html" target="_top" xlink:title=" ">
<polygon fill="white" stroke="#666666" points="2447.75,-285.25 2326,-285.25 2326,-254.75 2447.75,-254.75 2447.75,-285.25"/>
<text text-anchor="start" x="2334" y="-271.75" font-family="Helvetica,sans-Serif" font-size="10.00">llzk/Dialect/Polymorphic</text>
<text text-anchor="middle" x="2386.88" y="-260.5" font-family="Helvetica,sans-Serif" font-size="10.00">/IR/Ops.cpp.inc</text>
</a>
</g>
</g>
<!-- Node1&#45;&gt;Node47 -->
<g id="edge62_Node000001_Node000047" class="edge">
<title>Node1&#45;&gt;Node47</title>
<g id="a_edge62_Node000001_Node000047"><a xlink:title=" ">
<path fill="none" stroke="#63b8ff" d="M2210.9,-320.78C2244.6,-311.25 2288.7,-298.77 2324.32,-288.7"/>
<polygon fill="#63b8ff" stroke="#63b8ff" points="2324.95,-292.16 2333.62,-286.07 2323.04,-285.42 2324.95,-292.16"/>
</a>
</g>
</g>
<!-- Node3 -->
<g id="Node000003" class="node">
<title>Node3</title>
<g id="a_Node000003"><a xlink:href="_polymorphic_2_i_r_2_dialect_8h.html" target="_top" xlink:title=" ">
<polygon fill="white" stroke="#666666" points="2296.75,-152.25 2175,-152.25 2175,-121.75 2296.75,-121.75 2296.75,-152.25"/>
<text text-anchor="start" x="2183" y="-138.75" font-family="Helvetica,sans-Serif" font-size="10.00">llzk/Dialect/Polymorphic</text>
<text text-anchor="middle" x="2235.88" y="-127.5" font-family="Helvetica,sans-Serif" font-size="10.00">/IR/Dialect.h</text>
</a>
</g>
</g>
<!-- Node2&#45;&gt;Node3 -->
<g id="edge2_Node000002_Node000003" class="edge">
<title>Node2&#45;&gt;Node3</title>
<g id="a_edge2_Node000002_Node000003"><a xlink:title=" ">
<path fill="none" stroke="#63b8ff" d="M2069.3,-254.55C2069.38,-236.75 2072.24,-206.61 2088.88,-188.25 2099.66,-176.35 2132.2,-164.66 2163.93,-155.54"/>
<polygon fill="#63b8ff" stroke="#63b8ff" points="2164.48,-159.02 2173.17,-152.96 2162.6,-152.28 2164.48,-159.02"/>
</a>
</g>
</g>
<!-- Node2&#45;&gt;Node6 -->
<g id="edge5_Node000002_Node000006" class="edge">
<title>Node2&#45;&gt;Node6</title>
<g id="a_edge5_Node000002_Node000006"><a xlink:title=" ">
<path fill="none" stroke="#63b8ff" d="M2090.07,-254.36C2101.79,-245.87 2116.76,-235.02 2129.74,-225.62"/>
<polygon fill="#63b8ff" stroke="#63b8ff" points="2131.49,-228.67 2137.53,-219.97 2127.38,-223 2131.49,-228.67"/>
</a>
</g>
</g>
<!-- Node7 -->
<g id="Node000007" class="node">
<title>Node7</title>
<g id="a_Node000007"><a xlink:href="_polymorphic_2_i_r_2_ops_8h_8inc.html" target="_top" xlink:title=" ">
<polygon fill="white" stroke="#666666" points="2156.75,-152.25 2035,-152.25 2035,-121.75 2156.75,-121.75 2156.75,-152.25"/>
<text text-anchor="start" x="2043" y="-138.75" font-family="Helvetica,sans-Serif" font-size="10.00">llzk/Dialect/Polymorphic</text>
<text text-anchor="middle" x="2095.88" y="-127.5" font-family="Helvetica,sans-Serif" font-size="10.00">/IR/Ops.h.inc</text>
</a>
</g>
</g>
<!-- Node2&#45;&gt;Node7 -->
<g id="edge10_Node000002_Node000007" class="edge">
<title>Node2&#45;&gt;Node7</title>
<g id="a_edge10_Node000002_Node000007"><a xlink:title=" ">
<path fill="none" stroke="#63b8ff" d="M2063.01,-254.34C2056.28,-237.88 2048.08,-210.55 2055.88,-188.25 2059.31,-178.41 2065.57,-169.06 2072.13,-161.16"/>
<polygon fill="#63b8ff" stroke="#63b8ff" points="2074.73,-163.5 2078.81,-153.72 2069.52,-158.82 2074.73,-163.5"/>
</a>
</g>
</g>
<!-- Node9 -->
<g id="Node000009" class="node">
<title>Node9</title>
<g id="a_Node000009"><a xlink:title=" ">
<polygon fill="#e0e0e0" stroke="#999999" points="1789.38,-218.75 1680.38,-218.75 1680.38,-188.25 1789.38,-188.25 1789.38,-218.75"/>
<text text-anchor="start" x="1688.38" y="-205.25" font-family="Helvetica,sans-Serif" font-size="10.00">mlir/Dialect/Affine</text>
<text text-anchor="middle" x="1734.88" y="-194" font-family="Helvetica,sans-Serif" font-size="10.00">/IR/AffineValueMap.h</text>
</a>
</g>
</g>
<!-- Node2&#45;&gt;Node9 -->
<g id="edge9_Node000002_Node000009" class="edge">
<title>Node2&#45;&gt;Node9</title>
<g id="a_edge9_Node000002_Node000009"><a xlink:title=" ">
<path fill="none" stroke="#63b8ff" d="M2008.54,-257.72C1954.59,-247.72 1873.95,-232.6 1803.88,-218.75 1802.88,-218.55 1801.87,-218.35 1800.86,-218.15"/>
<polygon fill="#63b8ff" stroke="#63b8ff" points="1801.82,-214.78 1791.33,-216.24 1800.44,-221.64 1801.82,-214.78"/>
</a>
</g>
</g>
<!-- Node4 -->
<g id="Node000004" class="node">
<title>Node4</title>
<g id="a_Node000004"><a xlink:title=" ">
<polygon fill="#e0e0e0" stroke="#999999" points="1992.62,-80.12 1891.12,-80.12 1891.12,-60.88 1992.62,-60.88 1992.62,-80.12"/>
<text text-anchor="middle" x="1941.88" y="-66.62" font-family="Helvetica,sans-Serif" font-size="10.00">mlir/IR/BuiltinOps.h</text>
</a>
</g>
</g>
<!-- Node3&#45;&gt;Node4 -->
<g id="edge3_Node000003_Node000004" class="edge">
<title>Node3&#45;&gt;Node4</title>
<g id="a_edge3_Node000003_Node000004"><a xlink:title=" ">
<path fill="none" stroke="#63b8ff" d="M2174.6,-122.56C2121.25,-110.85 2044.74,-94.07 1994.21,-82.98"/>
<polygon fill="#63b8ff" stroke="#63b8ff" points="1995.21,-79.62 1984.69,-80.89 1993.71,-86.45 1995.21,-79.62"/>
</a>
</g>
</g>
<!-- Node5 -->
<g id="Node000005" class="node">
<title>Node5</title>
<g id="a_Node000005"><a xlink:href="_polymorphic_2_i_r_2_dialect_8h_8inc.html" target="_top" xlink:title=" ">
<polygon fill="white" stroke="#666666" points="2296.75,-85.75 2175,-85.75 2175,-55.25 2296.75,-55.25 2296.75,-85.75"/>
<text text-anchor="start" x="2183" y="-72.25" font-family="Helvetica,sans-Serif" font-size="10.00">llzk/Dialect/Polymorphic</text>
<text text-anchor="middle" x="2235.88" y="-61" font-family="Helvetica,sans-Serif" font-size="10.00">/IR/Dialect.h.inc</text>
</a>
</g>
</g>
<!-- Node3&#45;&gt;Node5 -->
<g id="edge4_Node000003_Node000005" class="edge">
<title>Node3&#45;&gt;Node5</title>
<g id="a_edge4_Node000003_Node000005"><a xlink:title=" ">
<path fill="none" stroke="#63b8ff" d="M2235.88,-121.36C2235.88,-114.27 2235.88,-105.54 2235.88,-97.38"/>
<polygon fill="#63b8ff" stroke="#63b8ff" points="2239.38,-97.59 2235.88,-87.59 2232.38,-97.59 2239.38,-97.59"/>
</a>
</g>
</g>
<!-- Node6&#45;&gt;Node3 -->
<g id="edge6_Node000006_Node000003" class="edge">
<title>Node6&#45;&gt;Node3</title>
<g id="a_edge6_Node000006_Node000003"><a xlink:title=" ">
<path fill="none" stroke="#63b8ff" d="M2176.35,-187.86C2186.19,-179.62 2198.68,-169.15 2209.68,-159.94"/>
<polygon fill="#63b8ff" stroke="#63b8ff" points="2211.89,-162.65 2217.31,-153.55 2207.4,-157.29 2211.89,-162.65"/>
</a>
</g>
</g>
<!-- Node6&#45;&gt;Node7 -->
<g id="edge7_Node000006_Node000007" class="edge">
<title>Node6&#45;&gt;Node7</title>
<g id="a_edge7_Node000006_Node000007"><a xlink:title=" ">
<path fill="none" stroke="#63b8ff" d="M2144.58,-187.86C2136.77,-179.86 2126.92,-169.78 2118.12,-160.78"/>
<polygon fill="#63b8ff" stroke="#63b8ff" points="2120.66,-158.37 2111.17,-153.66 2115.66,-163.26 2120.66,-158.37"/>
</a>
</g>
</g>
<!-- Node8 -->
<g id="Node000008" class="node">
<title>Node8</title>
<g id="a_Node000008"><a xlink:href="_polymorphic_2_i_r_2_types_8h_8inc.html" target="_top" xlink:title=" ">
<polygon fill="white" stroke="#666666" points="2436.75,-152.25 2315,-152.25 2315,-121.75 2436.75,-121.75 2436.75,-152.25"/>
<text text-anchor="start" x="2323" y="-138.75" font-family="Helvetica,sans-Serif" font-size="10.00">llzk/Dialect/Polymorphic</text>
<text text-anchor="middle" x="2375.88" y="-127.5" font-family="Helvetica,sans-Serif" font-size="10.00">/IR/Types.h.inc</text>
</a>
</g>
</g>
<!-- Node6&#45;&gt;Node8 -->
<g id="edge8_Node000006_Node000008" class="edge">
<title>Node6&#45;&gt;Node8</title>
<g id="a_edge8_Node000006_Node000008"><a xlink:title=" ">
<path fill="none" stroke="#63b8ff" d="M2208.39,-187.78C2240.33,-178.29 2282.07,-165.88 2315.9,-155.83"/>
<polygon fill="#63b8ff" stroke="#63b8ff" points="2316.54,-159.29 2325.12,-153.08 2314.54,-152.58 2316.54,-159.29"/>
</a>
</g>
</g>
<!-- Node11 -->
<g id="Node000011" class="node">
<title>Node11</title>
<g id="a_Node000011"><a xlink:href="_op_traits_8h.html" target="_top" xlink:title=" ">
<polygon fill="white" stroke="#666666" points="1462.5,-218.75 1357.25,-218.75 1357.25,-188.25 1462.5,-188.25 1462.5,-218.75"/>
<text text-anchor="start" x="1365.25" y="-205.25" font-family="Helvetica,sans-Serif" font-size="10.00">llzk/Dialect/Function</text>
<text text-anchor="middle" x="1409.88" y="-194" font-family="Helvetica,sans-Serif" font-size="10.00">/IR/OpTraits.h</text>
</a>
</g>
</g>
<!-- Node10&#45;&gt;Node11 -->
<g id="edge13_Node000010_Node000011" class="edge">
<title>Node10&#45;&gt;Node11</title>
<g id="a_edge13_Node000010_Node000011"><a xlink:title=" ">
<path fill="none" stroke="#63b8ff" d="M1318.65,-254.36C1334.79,-245.54 1355.58,-234.18 1373.23,-224.53"/>
<polygon fill="#63b8ff" stroke="#63b8ff" points="1374.78,-227.67 1381.88,-219.8 1371.42,-221.53 1374.78,-227.67"/>
</a>
</g>
</g>
<!-- Node15 -->
<g id="Node000015" class="node">
<title>Node15</title>
<g id="a_Node000015"><a xlink:href="_l_l_z_k_2_i_r_2_attrs_8h.html" target="_top" xlink:title=" ">
<polygon fill="white" stroke="#666666" points="1950.12,-218.75 1845.62,-218.75 1845.62,-188.25 1950.12,-188.25 1950.12,-218.75"/>
<text text-anchor="start" x="1853.62" y="-205.25" font-family="Helvetica,sans-Serif" font-size="10.00">llzk/Dialect/LLZK/IR</text>
<text text-anchor="middle" x="1897.88" y="-194" font-family="Helvetica,sans-Serif" font-size="10.00">/Attrs.h</text>
</a>
</g>
</g>
<!-- Node10&#45;&gt;Node15 -->
<g id="edge17_Node000010_Node000015" class="edge">
<title>Node10&#45;&gt;Node15</title>
<g id="a_edge17_Node000010_Node000015"><a xlink:title=" ">
<path fill="none" stroke="#63b8ff" d="M1339.04,-264.99C1428.59,-257.23 1629.38,-239.11 1797.88,-218.75 1809.55,-217.34 1821.97,-215.69 1833.95,-214.02"/>
<polygon fill="#63b8ff" stroke="#63b8ff" points="1834.34,-217.5 1843.75,-212.64 1833.36,-210.57 1834.34,-217.5"/>
</a>
</g>
</g>
<!-- Node18 -->
<g id="Node000018" class="node">
<title>Node18</title>
<g id="a_Node000018"><a xlink:href="_op_helpers_8h.html" target="_top" xlink:title=" ">
<polygon fill="white" stroke="#666666" points="957.12,-218.75 858.62,-218.75 858.62,-188.25 957.12,-188.25 957.12,-218.75"/>
<text text-anchor="start" x="866.62" y="-205.25" font-family="Helvetica,sans-Serif" font-size="10.00">llzk/Dialect/Shared</text>
<text text-anchor="middle" x="907.88" y="-194" font-family="Helvetica,sans-Serif" font-size="10.00">/OpHelpers.h</text>
</a>
</g>
</g>
<!-- Node10&#45;&gt;Node18 -->
<g id="edge20_Node000010_Node000018" class="edge">
<title>Node10&#45;&gt;Node18</title>
<g id="a_edge20_Node000010_Node000018"><a xlink:title=" ">
<path fill="none" stroke="#63b8ff" d="M1244.4,-261.03C1174.83,-249.34 1045.17,-227.56 968.7,-214.72"/>
<polygon fill="#63b8ff" stroke="#63b8ff" points="969.3,-211.27 958.85,-213.06 968.14,-218.17 969.3,-211.27"/>
</a>
</g>
</g>
<!-- Node27 -->
<g id="Node000027" class="node">
<title>Node27</title>
<g id="a_Node000027"><a xlink:href="_struct_2_i_r_2_types_8h.html" target="_top" xlink:title=" ">
<polygon fill="white" stroke="#666666" points="1338.88,-218.75 1244.88,-218.75 1244.88,-188.25 1338.88,-188.25 1338.88,-218.75"/>
<text text-anchor="start" x="1252.88" y="-205.25" font-family="Helvetica,sans-Serif" font-size="10.00">llzk/Dialect/Struct</text>
<text text-anchor="middle" x="1291.88" y="-194" font-family="Helvetica,sans-Serif" font-size="10.00">/IR/Types.h</text>
</a>
</g>
</g>
<!-- Node10&#45;&gt;Node27 -->
<g id="edge33_Node000010_Node000027" class="edge">
<title>Node10&#45;&gt;Node27</title>
<g id="a_edge33_Node000010_Node000027"><a xlink:title=" ">
<path fill="none" stroke="#63b8ff" d="M1291.88,-254.36C1291.88,-247.27 1291.88,-238.54 1291.88,-230.38"/>
<polygon fill="#63b8ff" stroke="#63b8ff" points="1295.38,-230.59 1291.88,-220.59 1288.38,-230.59 1295.38,-230.59"/>
</a>
</g>
</g>
<!-- Node41 -->
<g id="Node000041" class="node">
<title>Node41</title>
<g id="a_Node000041"><a xlink:href="_struct_2_i_r_2_ops_8h_8inc.html" target="_top" xlink:title=" ">
<polygon fill="white" stroke="#666666" points="1244.88,-152.25 1150.88,-152.25 1150.88,-121.75 1244.88,-121.75 1244.88,-152.25"/>
<text text-anchor="start" x="1158.88" y="-138.75" font-family="Helvetica,sans-Serif" font-size="10.00">llzk/Dialect/Struct</text>
<text text-anchor="middle" x="1197.88" y="-127.5" font-family="Helvetica,sans-Serif" font-size="10.00">/IR/Ops.h.inc</text>
</a>
</g>
</g>
<!-- Node10&#45;&gt;Node41 -->
<g id="edge57_Node000010_Node000041" class="edge">
<title>Node10&#45;&gt;Node41</title>
<g id="a_edge57_Node000010_Node000041"><a xlink:title=" ">
<path fill="none" stroke="#63b8ff" d="M1271.9,-254.37C1260.29,-245.12 1246.01,-232.37 1235.88,-218.75 1223.25,-201.78 1213.29,-179.95 1206.73,-163.27"/>
<polygon fill="#63b8ff" stroke="#63b8ff" points="1210.07,-162.21 1203.28,-154.08 1203.52,-164.67 1210.07,-162.21"/>
</a>
</g>
</g>
<!-- Node43 -->
<g id="Node000043" class="node">
<title>Node43</title>
<g id="a_Node000043"><a xlink:href="_struct_2_i_r_2_op_interfaces_8h_8inc.html" target="_top" xlink:title=" ">
<polygon fill="white" stroke="#666666" points="1189.25,-218.75 1076.5,-218.75 1076.5,-188.25 1189.25,-188.25 1189.25,-218.75"/>
<text text-anchor="start" x="1084.5" y="-205.25" font-family="Helvetica,sans-Serif" font-size="10.00">llzk/Dialect/Struct</text>
<text text-anchor="middle" x="1132.88" y="-194" font-family="Helvetica,sans-Serif" font-size="10.00">/IR/OpInterfaces.h.inc</text>
</a>
</g>
</g>
<!-- Node10&#45;&gt;Node43 -->
<g id="edge56_Node000010_Node000043" class="edge">
<title>Node10&#45;&gt;Node43</title>
<g id="a_edge56_Node000010_Node000043"><a xlink:title=" ">
<path fill="none" stroke="#63b8ff" d="M1255.8,-254.36C1233.21,-245.2 1203.88,-233.3 1179.53,-223.43"/>
<polygon fill="#63b8ff" stroke="#63b8ff" points="1181.07,-220.27 1170.49,-219.76 1178.44,-226.76 1181.07,-220.27"/>
</a>
</g>
</g>
<!-- Node12 -->
<g id="Node000012" class="node">
<title>Node12</title>
<g id="a_Node000012"><a xlink:title=" ">
<polygon fill="#e0e0e0" stroke="#999999" points="1777.12,-146.62 1666.62,-146.62 1666.62,-127.38 1777.12,-127.38 1777.12,-146.62"/>
<text text-anchor="middle" x="1721.88" y="-133.12" font-family="Helvetica,sans-Serif" font-size="10.00">mlir/IR/OpDefinition.h</text>
</a>
</g>
</g>
<!-- Node11&#45;&gt;Node12 -->
<g id="edge14_Node000011_Node000012" class="edge">
<title>Node11&#45;&gt;Node12</title>
<g id="a_edge14_Node000011_Node000012"><a xlink:title=" ">
<path fill="none" stroke="#63b8ff" d="M1462.67,-192.11C1512.92,-182.14 1590.63,-166.55 1657.88,-152.25 1661.96,-151.38 1666.18,-150.47 1670.42,-149.55"/>
<polygon fill="#63b8ff" stroke="#63b8ff" points="1671.12,-152.98 1680.14,-147.41 1669.62,-146.14 1671.12,-152.98"/>
</a>
</g>
</g>
<!-- Node13 -->
<g id="Node000013" class="node">
<title>Node13</title>
<g id="a_Node000013"><a xlink:title=" ">
<polygon fill="#e0e0e0" stroke="#999999" points="1146.12,-80.12 1047.62,-80.12 1047.62,-60.88 1146.12,-60.88 1146.12,-80.12"/>
<text text-anchor="middle" x="1096.88" y="-66.62" font-family="Helvetica,sans-Serif" font-size="10.00">mlir/IR/Operation.h</text>
</a>
</g>
</g>
<!-- Node11&#45;&gt;Node13 -->
<g id="edge15_Node000011_Node000013" class="edge">
<title>Node11&#45;&gt;Node13</title>
<g id="a_edge15_Node000011_Node000013"><a xlink:title=" ">
<path fill="none" stroke="#63b8ff" d="M1406.18,-187.92C1400.68,-169.4 1388.48,-137.9 1365.88,-121.75 1288.47,-66.44 1248.02,-105.11 1154.88,-85.75 1151.05,-84.96 1147.1,-84.09 1143.14,-83.18"/>
<polygon fill="#63b8ff" stroke="#63b8ff" points="1144.06,-79.8 1133.53,-80.92 1142.46,-86.62 1144.06,-79.8"/>
</a>
</g>
</g>
<!-- Node14 -->
<g id="Node000014" class="node">
<title>Node14</title>
<g id="a_Node000014"><a xlink:title=" ">
<polygon fill="#e0e0e0" stroke="#999999" points="1132.38,-146.62 993.38,-146.62 993.38,-127.38 1132.38,-127.38 1132.38,-146.62"/>
<text text-anchor="middle" x="1062.88" y="-133.12" font-family="Helvetica,sans-Serif" font-size="10.00">mlir/Support/LogicalResult.h</text>
</a>
</g>
</g>
<!-- Node11&#45;&gt;Node14 -->
<g id="edge16_Node000011_Node000014" class="edge">
<title>Node11&#45;&gt;Node14</title>
<g id="a_edge16_Node000011_Node000014"><a xlink:title=" ">
<path fill="none" stroke="#63b8ff" d="M1356.82,-190.11C1353.79,-189.47 1350.8,-188.84 1347.88,-188.25 1256.77,-169.83 1233.39,-168.5 1141.88,-152.25 1136.04,-151.21 1129.97,-150.13 1123.9,-149.04"/>
<polygon fill="#63b8ff" stroke="#63b8ff" points="1124.97,-145.68 1114.51,-147.35 1123.73,-152.57 1124.97,-145.68"/>
</a>
</g>
</g>
<!-- Node16 -->
<g id="Node000016" class="node">
<title>Node16</title>
<g id="a_Node000016"><a xlink:title=" ">
<polygon fill="#e0e0e0" stroke="#999999" points="1894.12,-146.62 1795.62,-146.62 1795.62,-127.38 1894.12,-127.38 1894.12,-146.62"/>
<text text-anchor="middle" x="1844.88" y="-133.12" font-family="Helvetica,sans-Serif" font-size="10.00">mlir/IR/Attributes.h</text>
</a>
</g>
</g>
<!-- Node15&#45;&gt;Node16 -->
<g id="edge18_Node000015_Node000016" class="edge">
<title>Node15&#45;&gt;Node16</title>
<g id="a_edge18_Node000015_Node000016"><a xlink:title=" ">
<path fill="none" stroke="#63b8ff" d="M1885.85,-187.86C1877.98,-178.29 1867.65,-165.72 1859.34,-155.6"/>
<polygon fill="#63b8ff" stroke="#63b8ff" points="1862.14,-153.5 1853.09,-147.99 1856.73,-157.94 1862.14,-153.5"/>
</a>
</g>
</g>
<!-- Node17 -->
<g id="Node000017" class="node">
<title>Node17</title>
<g id="a_Node000017"><a xlink:href="_l_l_z_k_2_i_r_2_attrs_8h_8inc.html" target="_top" xlink:title=" ">
<polygon fill="white" stroke="#666666" points="2017.12,-152.25 1912.62,-152.25 1912.62,-121.75 2017.12,-121.75 2017.12,-152.25"/>
<text text-anchor="start" x="1920.62" y="-138.75" font-family="Helvetica,sans-Serif" font-size="10.00">llzk/Dialect/LLZK/IR</text>
<text text-anchor="middle" x="1964.88" y="-127.5" font-family="Helvetica,sans-Serif" font-size="10.00">/Attrs.h.inc</text>
</a>
</g>
</g>
<!-- Node15&#45;&gt;Node17 -->
<g id="edge19_Node000015_Node000017" class="edge">
<title>Node15&#45;&gt;Node17</title>
<g id="a_edge19_Node000015_Node000017"><a xlink:title=" ">
<path fill="none" stroke="#63b8ff" d="M1913.08,-187.86C1921.47,-179.78 1932.08,-169.57 1941.51,-160.5"/>
<polygon fill="#63b8ff" stroke="#63b8ff" points="1943.86,-163.08 1948.64,-153.63 1939.01,-158.04 1943.86,-163.08"/>
</a>
</g>
</g>
<!-- Node18&#45;&gt;Node13 -->
<g id="edge29_Node000018_Node000013" class="edge">
<title>Node18&#45;&gt;Node13</title>
<g id="a_edge29_Node000018_Node000013"><a xlink:title=" ">
<path fill="none" stroke="#63b8ff" d="M904.15,-187.87C900.58,-170.15 897.72,-140.38 912.88,-121.75 915.11,-119 996.76,-97.43 1050.53,-83.46"/>
<polygon fill="#63b8ff" stroke="#63b8ff" points="1051.27,-86.88 1060.07,-80.98 1049.51,-80.1 1051.27,-86.88"/>
</a>
</g>
</g>
<!-- Node18&#45;&gt;Node14 -->
<g id="edge30_Node000018_Node000014" class="edge">
<title>Node18&#45;&gt;Node14</title>
<g id="a_edge30_Node000018_Node000014"><a xlink:title=" ">
<path fill="none" stroke="#63b8ff" d="M943.05,-187.86C969.35,-176.92 1005.02,-162.07 1030.6,-151.43"/>
<polygon fill="#63b8ff" stroke="#63b8ff" points="1031.94,-154.66 1039.83,-147.59 1029.25,-148.2 1031.94,-154.66"/>
</a>
</g>
</g>
<!-- Node19 -->
<g id="Node000019" class="node">
<title>Node19</title>
<g id="a_Node000019"><a xlink:href="_affine_helper_8h.html" target="_top" xlink:title=" ">
<polygon fill="white" stroke="#666666" points="442.62,-146.62 329.12,-146.62 329.12,-127.38 442.62,-127.38 442.62,-146.62"/>
<text text-anchor="middle" x="385.88" y="-133.12" font-family="Helvetica,sans-Serif" font-size="10.00">llzk/Util/AffineHelper.h</text>
</a>
</g>
</g>
<!-- Node18&#45;&gt;Node19 -->
<g id="edge21_Node000018_Node000019" class="edge">
<title>Node18&#45;&gt;Node19</title>
<g id="a_edge21_Node000018_Node000019"><a xlink:title=" ">
<path fill="none" stroke="#63b8ff" d="M858.37,-196.9C779.79,-187.93 621.69,-169.6 487.88,-152.25 476.97,-150.84 465.42,-149.28 454.16,-147.73"/>
<polygon fill="#63b8ff" stroke="#63b8ff" points="454.92,-144.3 444.53,-146.4 453.96,-151.23 454.92,-144.3"/>
</a>
</g>
</g>
<!-- Node21 -->
<g id="Node000021" class="node">
<title>Node21</title>
<g id="a_Node000021"><a xlink:title=" ">
<polygon fill="#e0e0e0" stroke="#999999" points="511.88,-80.12 375.88,-80.12 375.88,-60.88 511.88,-60.88 511.88,-80.12"/>
<text text-anchor="middle" x="443.88" y="-66.62" font-family="Helvetica,sans-Serif" font-size="10.00">mlir/IR/OpImplementation.h</text>
</a>
</g>
</g>
<!-- Node18&#45;&gt;Node21 -->
<g id="edge28_Node000018_Node000021" class="edge">
<title>Node18&#45;&gt;Node21</title>
<g id="a_edge28_Node000018_Node000021"><a xlink:title=" ">
<path fill="none" stroke="#63b8ff" d="M858.16,-198.78C797.42,-193.22 692.08,-180.21 605.88,-152.25 554.27,-135.51 498.59,-104.62 467.8,-86.28"/>
<polygon fill="#63b8ff" stroke="#63b8ff" points="469.66,-83.32 459.29,-81.15 466.04,-89.31 469.66,-83.32"/>
</a>
</g>
</g>
<!-- Node24 -->
<g id="Node000024" class="node">
<title>Node24</title>
<g id="a_Node000024"><a xlink:href="_constants_8h.html" target="_top" xlink:title=" ">
<polygon fill="white" stroke="#666666" points="1397.5,-80.12 1292.25,-80.12 1292.25,-60.88 1397.5,-60.88 1397.5,-80.12"/>
<text text-anchor="middle" x="1344.88" y="-66.62" font-family="Helvetica,sans-Serif" font-size="10.00">llzk/Util/Constants.h</text>
</a>
</g>
</g>
<!-- Node18&#45;&gt;Node24 -->
<g id="edge27_Node000018_Node000024" class="edge">
<title>Node18&#45;&gt;Node24</title>
<g id="a_edge27_Node000018_Node000024"><a xlink:title=" ">
<path fill="none" stroke="#63b8ff" d="M920.65,-187.88C940.17,-165.71 975.97,-125.74 983.88,-121.75 1103.35,-61.4 1151.02,-108.77 1282.88,-85.75 1287.53,-84.94 1292.35,-84 1297.17,-83"/>
<polygon fill="#63b8ff" stroke="#63b8ff" points="1297.78,-86.45 1306.81,-80.91 1296.29,-79.61 1297.78,-86.45"/>
</a>
</g>
</g>
<!-- Node25 -->
<g id="Node000025" class="node">
<title>Node25</title>
<g id="a_Node000025"><a xlink:title=" ">
<polygon fill="#e0e0e0" stroke="#999999" points="733.25,-146.62 614.5,-146.62 614.5,-127.38 733.25,-127.38 733.25,-146.62"/>
<text text-anchor="middle" x="673.88" y="-133.12" font-family="Helvetica,sans-Serif" font-size="10.00">llvm/ADT/SmallString.h</text>
</a>
</g>
</g>
<!-- Node18&#45;&gt;Node25 -->
<g id="edge31_Node000018_Node000025" class="edge">
<title>Node18&#45;&gt;Node25</title>
<g id="a_edge31_Node000018_Node000025"><a xlink:title=" ">
<path fill="none" stroke="#63b8ff" d="M858.25,-188.82C816.65,-177.35 757.8,-161.13 717.86,-150.12"/>
<polygon fill="#63b8ff" stroke="#63b8ff" points="718.9,-146.78 708.33,-147.5 717.04,-153.53 718.9,-146.78"/>
</a>
</g>
</g>
<!-- Node26 -->
<g id="Node000026" class="node">
<title>Node26</title>
<g id="a_Node000026"><a xlink:title=" ">
<polygon fill="#e0e0e0" stroke="#999999" points="1273.75,-80.12 1164,-80.12 1164,-60.88 1273.75,-60.88 1273.75,-80.12"/>
<text text-anchor="middle" x="1218.88" y="-66.62" font-family="Helvetica,sans-Serif" font-size="10.00">llvm/ADT/StringRef.h</text>
</a>
</g>
</g>
<!-- Node18&#45;&gt;Node26 -->
<g id="edge32_Node000018_Node000026" class="edge">
<title>Node18&#45;&gt;Node26</title>
<g id="a_edge32_Node000018_Node000026"><a xlink:title=" ">
<path fill="none" stroke="#63b8ff" d="M911.4,-187.95C916.68,-169.46 928.51,-137.99 950.88,-121.75 1025.37,-67.65 1064.59,-103.76 1154.88,-85.75 1159.21,-84.89 1163.7,-83.96 1168.2,-83"/>
<polygon fill="#63b8ff" stroke="#63b8ff" points="1168.82,-86.45 1177.85,-80.91 1167.34,-79.61 1168.82,-86.45"/>
</a>
</g>
</g>
<!-- Node19&#45;&gt;Node13 -->
<g id="edge24_Node000019_Node000013" class="edge">
<title>Node19&#45;&gt;Node13</title>
<g id="a_edge24_Node000019_Node000013"><a xlink:title=" ">
<path fill="none" stroke="#63b8ff" d="M442.91,-132.15C591.1,-122.07 980.88,-95.04 1038.88,-85.75 1043.48,-85.01 1048.26,-84.09 1053.01,-83.08"/>
<polygon fill="#63b8ff" stroke="#63b8ff" points="1053.5,-86.56 1062.47,-80.92 1051.94,-79.73 1053.5,-86.56"/>
</a>
</g>
</g>
<!-- Node20 -->
<g id="Node000020" class="node">
<title>Node20</title>
<g id="a_Node000020"><a xlink:title=" ">
<polygon fill="#e0e0e0" stroke="#999999" points="91.75,-80.12 0,-80.12 0,-60.88 91.75,-60.88 91.75,-80.12"/>
<text text-anchor="middle" x="45.88" y="-66.62" font-family="Helvetica,sans-Serif" font-size="10.00">mlir/IR/Builders.h</text>
</a>
</g>
</g>
<!-- Node19&#45;&gt;Node20 -->
<g id="edge22_Node000019_Node000020" class="edge">
<title>Node19&#45;&gt;Node20</title>
<g id="a_edge22_Node000019_Node000020"><a xlink:title=" ">
<path fill="none" stroke="#63b8ff" d="M328.89,-127.44C270.97,-118.39 178.79,-103.06 99.88,-85.75 96.53,-85.02 93.07,-84.21 89.61,-83.37"/>
<polygon fill="#63b8ff" stroke="#63b8ff" points="90.63,-80.02 80.08,-80.98 88.92,-86.81 90.63,-80.02"/>
</a>
</g>
</g>
<!-- Node19&#45;&gt;Node21 -->
<g id="edge23_Node000019_Node000021" class="edge">
<title>Node19&#45;&gt;Node21</title>
<g id="a_edge23_Node000019_Node000021"><a xlink:title=" ">
<path fill="none" stroke="#63b8ff" d="M393.94,-127.03C402.77,-117.21 417.15,-101.23 428.21,-88.92"/>
<polygon fill="#63b8ff" stroke="#63b8ff" points="430.78,-91.29 434.87,-81.52 425.58,-86.61 430.78,-91.29"/>
</a>
</g>
</g>
<!-- Node22 -->
<g id="Node000022" class="node">
<title>Node22</title>
<g id="a_Node000022"><a xlink:title=" ">
<polygon fill="#e0e0e0" stroke="#999999" points="218.38,-80.12 109.38,-80.12 109.38,-60.88 218.38,-60.88 218.38,-80.12"/>
<text text-anchor="middle" x="163.88" y="-66.62" font-family="Helvetica,sans-Serif" font-size="10.00">mlir/IR/ValueRange.h</text>
</a>
</g>
</g>
<!-- Node19&#45;&gt;Node22 -->
<g id="edge25_Node000019_Node000022" class="edge">
<title>Node19&#45;&gt;Node22</title>
<g id="a_edge25_Node000019_Node000022"><a xlink:title=" ">
<path fill="none" stroke="#63b8ff" d="M354.54,-126.9C315.7,-115.61 249.36,-96.34 206.07,-83.76"/>
<polygon fill="#63b8ff" stroke="#63b8ff" points="207.08,-80.41 196.51,-80.98 205.13,-87.13 207.08,-80.41"/>
</a>
</g>
</g>
<!-- Node23 -->
<g id="Node000023" class="node">
<title>Node23</title>
<g id="a_Node000023"><a xlink:title=" ">
<polygon fill="#e0e0e0" stroke="#999999" points="357.38,-80.12 236.38,-80.12 236.38,-60.88 357.38,-60.88 357.38,-80.12"/>
<text text-anchor="middle" x="296.88" y="-66.62" font-family="Helvetica,sans-Serif" font-size="10.00">llvm/ADT/SmallVector.h</text>
</a>
</g>
</g>
<!-- Node19&#45;&gt;Node23 -->
<g id="edge26_Node000019_Node000023" class="edge">
<title>Node19&#45;&gt;Node23</title>
<g id="a_edge26_Node000019_Node000023"><a xlink:title=" ">
<path fill="none" stroke="#63b8ff" d="M373.5,-127.03C359.37,-116.79 335.97,-99.84 318.75,-87.35"/>
<polygon fill="#63b8ff" stroke="#63b8ff" points="320.81,-84.52 310.66,-81.49 316.7,-90.19 320.81,-84.52"/>
</a>
</g>
</g>
<!-- Node28 -->
<g id="Node000028" class="node">
<title>Node28</title>
<g id="a_Node000028"><a xlink:href="_struct_2_i_r_2_dialect_8h.html" target="_top" xlink:title=" ">
<polygon fill="white" stroke="#666666" points="1648.88,-152.25 1554.88,-152.25 1554.88,-121.75 1648.88,-121.75 1648.88,-152.25"/>
<text text-anchor="start" x="1562.88" y="-138.75" font-family="Helvetica,sans-Serif" font-size="10.00">llzk/Dialect/Struct</text>
<text text-anchor="middle" x="1601.88" y="-127.5" font-family="Helvetica,sans-Serif" font-size="10.00">/IR/Dialect.h</text>
</a>
</g>
</g>
<!-- Node27&#45;&gt;Node28 -->
<g id="edge34_Node000027_Node000028" class="edge">
<title>Node27&#45;&gt;Node28</title>
<g id="a_edge34_Node000027_Node000028"><a xlink:title=" ">
<path fill="none" stroke="#63b8ff" d="M1339.18,-190.22C1342.12,-189.53 1345.03,-188.87 1347.88,-188.25 1431.77,-169.97 1456.52,-171.16 1543.37,-152.7"/>
<polygon fill="#63b8ff" stroke="#63b8ff" points="1544.06,-156.13 1553.09,-150.6 1542.58,-149.29 1544.06,-156.13"/>
</a>
</g>
</g>
<!-- Node30 -->
<g id="Node000030" class="node">
<title>Node30</title>
<g id="a_Node000030"><a xlink:href="_symbol_lookup_8h.html" target="_top" xlink:title="This file defines methods symbol lookup across LLZK operations and included files.">
<polygon fill="white" stroke="#666666" points="1537.25,-146.62 1412.5,-146.62 1412.5,-127.38 1537.25,-127.38 1537.25,-146.62"/>
<text text-anchor="middle" x="1474.88" y="-133.12" font-family="Helvetica,sans-Serif" font-size="10.00">llzk/Util/SymbolLookup.h</text>
</a>
</g>
</g>
<!-- Node27&#45;&gt;Node30 -->
<g id="edge37_Node000027_Node000030" class="edge">
<title>Node27&#45;&gt;Node30</title>
<g id="a_edge37_Node000027_Node000030"><a xlink:title=" ">
<path fill="none" stroke="#63b8ff" d="M1333.4,-187.86C1365.05,-176.71 1408.21,-161.5 1438.51,-150.82"/>
<polygon fill="#63b8ff" stroke="#63b8ff" points="1439.35,-154.23 1447.62,-147.61 1437.02,-147.63 1439.35,-154.23"/>
</a>
</g>
</g>
<!-- Node33 -->
<g id="Node000033" class="node">
<title>Node33</title>
<g id="a_Node000033"><a xlink:href="_type_helper_8h.html" target="_top" xlink:title=" ">
<polygon fill="white" stroke="#666666" points="860.38,-146.62 751.38,-146.62 751.38,-127.38 860.38,-127.38 860.38,-146.62"/>
<text text-anchor="middle" x="805.88" y="-133.12" font-family="Helvetica,sans-Serif" font-size="10.00">llzk/Util/TypeHelper.h</text>
</a>
</g>
</g>
<!-- Node27&#45;&gt;Node33 -->
<g id="edge43_Node000027_Node000033" class="edge">
<title>Node27&#45;&gt;Node33</title>
<g id="a_edge43_Node000027_Node000033"><a xlink:title=" ">
<path fill="none" stroke="#63b8ff" d="M1244.57,-195.11C1229.64,-192.84 1213.08,-190.38 1197.88,-188.25 1083.4,-172.24 949.83,-155.54 871.88,-145.99"/>
<polygon fill="#63b8ff" stroke="#63b8ff" points="872.64,-142.56 862.29,-144.82 871.79,-149.51 872.64,-142.56"/>
</a>
</g>
</g>
<!-- Node27&#45;&gt;Node41 -->
<g id="edge54_Node000027_Node000041" class="edge">
<title>Node27&#45;&gt;Node41</title>
<g id="a_edge54_Node000027_Node000041"><a xlink:title=" ">
<path fill="none" stroke="#63b8ff" d="M1270.54,-187.86C1258.05,-179.29 1242.05,-168.31 1228.25,-158.84"/>
<polygon fill="#63b8ff" stroke="#63b8ff" points="1230.59,-156.21 1220.37,-153.43 1226.63,-161.98 1230.59,-156.21"/>
</a>
</g>
</g>
<!-- Node42 -->
<g id="Node000042" class="node">
<title>Node42</title>
<g id="a_Node000042"><a xlink:href="_struct_2_i_r_2_types_8h_8inc.html" target="_top" xlink:title=" ">
<polygon fill="white" stroke="#666666" points="1356.88,-152.25 1262.88,-152.25 1262.88,-121.75 1356.88,-121.75 1356.88,-152.25"/>
<text text-anchor="start" x="1270.88" y="-138.75" font-family="Helvetica,sans-Serif" font-size="10.00">llzk/Dialect/Struct</text>
<text text-anchor="middle" x="1309.88" y="-127.5" font-family="Helvetica,sans-Serif" font-size="10.00">/IR/Types.h.inc</text>
</a>
</g>
</g>
<!-- Node27&#45;&gt;Node42 -->
<g id="edge55_Node000027_Node000042" class="edge">
<title>Node27&#45;&gt;Node42</title>
<g id="a_edge55_Node000027_Node000042"><a xlink:title=" ">
<path fill="none" stroke="#63b8ff" d="M1295.96,-187.86C1297.96,-180.69 1300.43,-171.84 1302.73,-163.59"/>
<polygon fill="#63b8ff" stroke="#63b8ff" points="1306.08,-164.61 1305.4,-154.04 1299.34,-162.73 1306.08,-164.61"/>
</a>
</g>
</g>
<!-- Node28&#45;&gt;Node4 -->
<g id="edge35_Node000028_Node000004" class="edge">
<title>Node28&#45;&gt;Node4</title>
<g id="a_edge35_Node000028_Node000004"><a xlink:title=" ">
<path fill="none" stroke="#63b8ff" d="M1649.17,-123.7C1652.11,-123.02 1655.03,-122.36 1657.88,-121.75 1733.82,-105.39 1822.03,-90.4 1879.74,-81.13"/>
<polygon fill="#63b8ff" stroke="#63b8ff" points="1880.05,-84.63 1889.37,-79.6 1878.94,-77.72 1880.05,-84.63"/>
</a>
</g>
</g>
<!-- Node29 -->
<g id="Node000029" class="node">
<title>Node29</title>
<g id="a_Node000029"><a xlink:href="_struct_2_i_r_2_dialect_8h_8inc.html" target="_top" xlink:title=" ">
<polygon fill="white" stroke="#666666" points="1707.88,-85.75 1613.88,-85.75 1613.88,-55.25 1707.88,-55.25 1707.88,-85.75"/>
<text text-anchor="start" x="1621.88" y="-72.25" font-family="Helvetica,sans-Serif" font-size="10.00">llzk/Dialect/Struct</text>
<text text-anchor="middle" x="1660.88" y="-61" font-family="Helvetica,sans-Serif" font-size="10.00">/IR/Dialect.h.inc</text>
</a>
</g>
</g>
<!-- Node28&#45;&gt;Node29 -->
<g id="edge36_Node000028_Node000029" class="edge">
<title>Node28&#45;&gt;Node29</title>
<g id="a_edge36_Node000028_Node000029"><a xlink:title=" ">
<path fill="none" stroke="#63b8ff" d="M1615.26,-121.36C1622.5,-113.45 1631.62,-103.49 1639.79,-94.55"/>
<polygon fill="#63b8ff" stroke="#63b8ff" points="1642.35,-96.94 1646.52,-87.19 1637.19,-92.21 1642.35,-96.94"/>
</a>
</g>
</g>
<!-- Node30&#45;&gt;Node13 -->
<g id="edge39_Node000030_Node000013" class="edge">
<title>Node30&#45;&gt;Node13</title>
<g id="a_edge39_Node000030_Node000013"><a xlink:title=" ">
<path fill="none" stroke="#63b8ff" d="M1427.9,-126.9C1418.31,-125.12 1408.28,-123.32 1398.88,-121.75 1290.76,-103.65 1262.44,-106.85 1154.88,-85.75 1150.82,-84.95 1146.62,-84.06 1142.43,-83.12"/>
<polygon fill="#63b8ff" stroke="#63b8ff" points="1143.42,-79.76 1132.89,-80.9 1141.83,-86.58 1143.42,-79.76"/>
</a>
</g>
</g>
<!-- Node30&#45;&gt;Node24 -->
<g id="edge38_Node000030_Node000024" class="edge">
<title>Node30&#45;&gt;Node24</title>
<g id="a_edge38_Node000030_Node000024"><a xlink:title=" ">
<path fill="none" stroke="#63b8ff" d="M1456.52,-126.9C1434.85,-116.14 1398.53,-98.12 1373.23,-85.57"/>
<polygon fill="#63b8ff" stroke="#63b8ff" points="1375,-82.54 1364.49,-81.23 1371.89,-88.81 1375,-82.54"/>
</a>
</g>
</g>
<!-- Node30&#45;&gt;Node26 -->
<g id="edge41_Node000030_Node000026" class="edge">
<title>Node30&#45;&gt;Node26</title>
<g id="a_edge41_Node000030_Node000026"><a xlink:title=" ">
<path fill="none" stroke="#63b8ff" d="M1438.74,-126.9C1393.48,-115.49 1315.82,-95.92 1265.95,-83.36"/>
<polygon fill="#63b8ff" stroke="#63b8ff" points="1266.85,-79.98 1256.29,-80.93 1265.14,-86.77 1266.85,-79.98"/>
</a>
</g>
</g>
<!-- Node31 -->
<g id="Node000031" class="node">
<title>Node31</title>
<g id="a_Node000031"><a xlink:title=" ">
<polygon fill="#e0e0e0" stroke="#999999" points="1533.88,-80.12 1415.88,-80.12 1415.88,-60.88 1533.88,-60.88 1533.88,-80.12"/>
<text text-anchor="middle" x="1474.88" y="-66.62" font-family="Helvetica,sans-Serif" font-size="10.00">mlir/IR/OwningOpRef.h</text>
</a>
</g>
</g>
<!-- Node30&#45;&gt;Node31 -->
<g id="edge40_Node000030_Node000031" class="edge">
<title>Node30&#45;&gt;Node31</title>
<g id="a_edge40_Node000030_Node000031"><a xlink:title=" ">
<path fill="none" stroke="#63b8ff" d="M1474.88,-127.03C1474.88,-117.98 1474.88,-103.7 1474.88,-91.88"/>
<polygon fill="#63b8ff" stroke="#63b8ff" points="1478.38,-91.91 1474.88,-81.91 1471.38,-91.91 1478.38,-91.91"/>
</a>
</g>
</g>
<!-- Node32 -->
<g id="Node000032" class="node">
<title>Node32</title>
<g id="a_Node000032"><a xlink:title=" ">
<polygon fill="#e0e0e0" stroke="#999999" points="1595.38,-80.12 1552.38,-80.12 1552.38,-60.88 1595.38,-60.88 1595.38,-80.12"/>
<text text-anchor="middle" x="1573.88" y="-66.62" font-family="Helvetica,sans-Serif" font-size="10.00">vector</text>
</a>
</g>
</g>
<!-- Node30&#45;&gt;Node32 -->
<g id="edge42_Node000030_Node000032" class="edge">
<title>Node30&#45;&gt;Node32</title>
<g id="a_edge42_Node000030_Node000032"><a xlink:title=" ">
<path fill="none" stroke="#63b8ff" d="M1488.64,-127.03C1504.58,-116.64 1531.12,-99.36 1550.35,-86.83"/>
<polygon fill="#63b8ff" stroke="#63b8ff" points="1552.17,-89.82 1558.64,-81.43 1548.35,-83.95 1552.17,-89.82"/>
</a>
</g>
</g>
<!-- Node33&#45;&gt;Node13 -->
<g id="edge49_Node000033_Node000013" class="edge">
<title>Node33&#45;&gt;Node13</title>
<g id="a_edge49_Node000033_Node000013"><a xlink:title=" ">
<path fill="none" stroke="#63b8ff" d="M849.76,-126.92C896.66,-117.14 973.15,-100.91 1038.88,-85.75 1042.41,-84.93 1046.06,-84.08 1049.74,-83.2"/>
<polygon fill="#63b8ff" stroke="#63b8ff" points="1050.34,-86.65 1059.24,-80.91 1048.7,-79.85 1050.34,-86.65"/>
</a>
</g>
</g>
<!-- Node33&#45;&gt;Node21 -->
<g id="edge48_Node000033_Node000021" class="edge">
<title>Node33&#45;&gt;Node21</title>
<g id="a_edge48_Node000033_Node000021"><a xlink:title=" ">
<path fill="none" stroke="#63b8ff" d="M766.69,-126.9C758.51,-125.11 749.92,-123.3 741.88,-121.75 644.15,-102.93 618.92,-102.81 520.88,-85.75 515.02,-84.73 508.91,-83.64 502.81,-82.54"/>
<polygon fill="#63b8ff" stroke="#63b8ff" points="503.86,-79.17 493.39,-80.82 502.6,-86.06 503.86,-79.17"/>
</a>
</g>
</g>
<!-- Node33&#45;&gt;Node26 -->
<g id="edge53_Node000033_Node000026" class="edge">
<title>Node33&#45;&gt;Node26</title>
<g id="a_edge53_Node000033_Node000026"><a xlink:title=" ">
<path fill="none" stroke="#63b8ff" d="M860.7,-128.63C944.27,-117.3 1099.63,-95.86 1154.88,-85.75 1159.54,-84.9 1164.37,-83.94 1169.21,-82.95"/>
<polygon fill="#63b8ff" stroke="#63b8ff" points="1169.86,-86.39 1178.91,-80.88 1168.4,-79.54 1169.86,-86.39"/>
</a>
</g>
</g>
<!-- Node34 -->
<g id="Node000034" class="node">
<title>Node34</title>
<g id="a_Node000034"><a xlink:href="_error_helper_8h.html" target="_top" xlink:title=" ">
<polygon fill="white" stroke="#666666" points="639.38,-80.12 530.38,-80.12 530.38,-60.88 639.38,-60.88 639.38,-80.12"/>
<text text-anchor="middle" x="584.88" y="-66.62" font-family="Helvetica,sans-Serif" font-size="10.00">llzk/Util/ErrorHelper.h</text>
</a>
</g>
</g>
<!-- Node33&#45;&gt;Node34 -->
<g id="edge44_Node000033_Node000034" class="edge">
<title>Node33&#45;&gt;Node34</title>
<g id="a_edge44_Node000033_Node000034"><a xlink:title=" ">
<path fill="none" stroke="#63b8ff" d="M774.68,-126.9C736.02,-115.61 669.97,-96.34 626.88,-83.76"/>
<polygon fill="#63b8ff" stroke="#63b8ff" points="627.94,-80.42 617.36,-80.98 625.98,-87.14 627.94,-80.42"/>
</a>
</g>
</g>
<!-- Node38 -->
<g id="Node000038" class="node">
<title>Node38</title>
<g id="a_Node000038"><a xlink:title=" ">
<polygon fill="#e0e0e0" stroke="#999999" points="770.25,-80.12 657.5,-80.12 657.5,-60.88 770.25,-60.88 770.25,-80.12"/>
<text text-anchor="middle" x="713.88" y="-66.62" font-family="Helvetica,sans-Serif" font-size="10.00">mlir/IR/SymbolTable.h</text>
</a>
</g>
</g>
<!-- Node33&#45;&gt;Node38 -->
<g id="edge50_Node000033_Node000038" class="edge">
<title>Node33&#45;&gt;Node38</title>
<g id="a_edge50_Node000033_Node000038"><a xlink:title=" ">
<path fill="none" stroke="#63b8ff" d="M793.08,-127.03C778.4,-116.74 754.06,-99.68 736.23,-87.18"/>
<polygon fill="#63b8ff" stroke="#63b8ff" points="738.29,-84.34 728.09,-81.47 734.27,-90.08 738.29,-84.34"/>
</a>
</g>
</g>
<!-- Node39 -->
<g id="Node000039" class="node">
<title>Node39</title>
<g id="a_Node000039"><a xlink:title=" ">
<polygon fill="#e0e0e0" stroke="#999999" points="895.62,-80.12 788.12,-80.12 788.12,-60.88 895.62,-60.88 895.62,-80.12"/>
<text text-anchor="middle" x="841.88" y="-66.62" font-family="Helvetica,sans-Serif" font-size="10.00">llvm/ADT/ArrayRef.h</text>
</a>
</g>
</g>
<!-- Node33&#45;&gt;Node39 -->
<g id="edge51_Node000033_Node000039" class="edge">
<title>Node33&#45;&gt;Node39</title>
<g id="a_edge51_Node000033_Node000039"><a xlink:title=" ">
<path fill="none" stroke="#63b8ff" d="M810.88,-127.03C816.15,-117.6 824.59,-102.47 831.33,-90.38"/>
<polygon fill="#63b8ff" stroke="#63b8ff" points="834.36,-92.15 836.17,-81.71 828.24,-88.74 834.36,-92.15"/>
</a>
</g>
</g>
<!-- Node40 -->
<g id="Node000040" class="node">
<title>Node40</title>
<g id="a_Node000040"><a xlink:title=" ">
<polygon fill="#e0e0e0" stroke="#999999" points="1029.75,-80.12 914,-80.12 914,-60.88 1029.75,-60.88 1029.75,-80.12"/>
<text text-anchor="middle" x="971.88" y="-66.62" font-family="Helvetica,sans-Serif" font-size="10.00">llvm/ADT/DenseMap.h</text>
</a>
</g>
</g>
<!-- Node33&#45;&gt;Node40 -->
<g id="edge52_Node000033_Node000040" class="edge">
<title>Node33&#45;&gt;Node40</title>
<g id="a_edge52_Node000033_Node000040"><a xlink:title=" ">
<path fill="none" stroke="#63b8ff" d="M829.31,-126.9C857.73,-115.85 905.85,-97.15 938.24,-84.57"/>
<polygon fill="#63b8ff" stroke="#63b8ff" points="939.1,-87.99 947.15,-81.11 936.56,-81.47 939.1,-87.99"/>
</a>
</g>
</g>
<!-- Node35 -->
<g id="Node000035" class="node">
<title>Node35</title>
<g id="a_Node000035"><a xlink:title=" ">
<polygon fill="#e0e0e0" stroke="#999999" points="519.88,-19.25 359.88,-19.25 359.88,0 519.88,0 519.88,-19.25"/>
<text text-anchor="middle" x="439.88" y="-5.75" font-family="Helvetica,sans-Serif" font-size="10.00">llvm/ADT/STLFunctionalExtras.h</text>
</a>
</g>
</g>
<!-- Node34&#45;&gt;Node35 -->
<g id="edge45_Node000034_Node000035" class="edge">
<title>Node34&#45;&gt;Node35</title>
<g id="a_edge45_Node000034_Node000035"><a xlink:title=" ">
<path fill="none" stroke="#63b8ff" d="M562.54,-60.43C538.52,-50.68 500.09,-35.08 472.65,-23.93"/>
<polygon fill="#63b8ff" stroke="#63b8ff" points="473.99,-20.7 463.4,-20.18 471.35,-27.18 473.99,-20.7"/>
</a>
</g>
</g>
<!-- Node36 -->
<g id="Node000036" class="node">
<title>Node36</title>
<g id="a_Node000036"><a xlink:title=" ">
<polygon fill="#e0e0e0" stroke="#999999" points="631.88,-19.25 537.88,-19.25 537.88,0 631.88,0 631.88,-19.25"/>
<text text-anchor="middle" x="584.88" y="-5.75" font-family="Helvetica,sans-Serif" font-size="10.00">llvm/ADT/Twine.h</text>
</a>
</g>
</g>
<!-- Node34&#45;&gt;Node36 -->
<g id="edge46_Node000034_Node000036" class="edge">
<title>Node34&#45;&gt;Node36</title>
<g id="a_edge46_Node000034_Node000036"><a xlink:title=" ">
<path fill="none" stroke="#63b8ff" d="M584.88,-60.56C584.88,-52.78 584.88,-41.2 584.88,-31.16"/>
<polygon fill="#63b8ff" stroke="#63b8ff" points="588.38,-31.16 584.88,-21.16 581.38,-31.16 588.38,-31.16"/>
</a>
</g>
</g>
<!-- Node37 -->
<g id="Node000037" class="node">
<title>Node37</title>
<g id="a_Node000037"><a xlink:title=" ">
<polygon fill="#e0e0e0" stroke="#999999" points="791.5,-19.25 650.25,-19.25 650.25,0 791.5,0 791.5,-19.25"/>
<text text-anchor="middle" x="720.88" y="-5.75" font-family="Helvetica,sans-Serif" font-size="10.00">llvm/Support/ErrorHandling.h</text>
</a>
</g>
</g>
<!-- Node34&#45;&gt;Node37 -->
<g id="edge47_Node000034_Node000037" class="edge">
<title>Node34&#45;&gt;Node37</title>
<g id="a_edge47_Node000034_Node000037"><a xlink:title=" ">
<path fill="none" stroke="#63b8ff" d="M605.83,-60.43C628.25,-50.72 664.07,-35.21 689.79,-24.08"/>
<polygon fill="#63b8ff" stroke="#63b8ff" points="690.95,-27.39 698.73,-20.21 688.17,-20.97 690.95,-27.39"/>
</a>
</g>
</g>
<!-- Node44&#45;&gt;Node30 -->
<g id="edge59_Node000044_Node000030" class="edge">
<title>Node44&#45;&gt;Node30</title>
<g id="a_edge59_Node000044_Node000030"><a xlink:title=" ">
<path fill="none" stroke="#63b8ff" d="M2187.06,-260.84C2171.67,-258.81 2155.17,-256.67 2139.88,-254.75 2005.31,-237.88 1962.25,-270.43 1836.88,-218.75 1816.53,-210.36 1818.12,-196.88 1797.88,-188.25 1693.79,-143.9 1657.38,-171.39 1545.88,-152.25 1540.36,-151.3 1534.62,-150.26 1528.9,-149.17"/>
<polygon fill="#63b8ff" stroke="#63b8ff" points="1529.95,-145.81 1519.47,-147.34 1528.62,-152.68 1529.95,-145.81"/>
</a>
</g>
</g>
<!-- Node45 -->
<g id="Node000045" class="node">
<title>Node45</title>
<g id="a_Node000045"><a xlink:title=" ">
<polygon fill="#e0e0e0" stroke="#999999" points="2388,-213.12 2237.75,-213.12 2237.75,-193.88 2388,-193.88 2388,-213.12"/>
<text text-anchor="middle" x="2312.88" y="-199.62" font-family="Helvetica,sans-Serif" font-size="10.00">mlir/Interfaces/CallInterfaces.h</text>
</a>
</g>
</g>
<!-- Node44&#45;&gt;Node45 -->
<g id="edge60_Node000044_Node000045" class="edge">
<title>Node44&#45;&gt;Node45</title>
<g id="a_edge60_Node000044_Node000045"><a xlink:title=" ">
<path fill="none" stroke="#63b8ff" d="M2256.91,-260.03C2267,-250.02 2283.55,-233.6 2296.04,-221.2"/>
<polygon fill="#63b8ff" stroke="#63b8ff" points="2298.21,-223.99 2302.84,-214.46 2293.28,-219.02 2298.21,-223.99"/>
</a>
</g>
</g>
<!-- Node46 -->
<g id="Node000046" class="node">
<title>Node46</title>
<g id="a_Node000046"><a xlink:title=" ">
<polygon fill="#e0e0e0" stroke="#999999" points="2451.5,-213.12 2406.25,-213.12 2406.25,-193.88 2451.5,-193.88 2451.5,-213.12"/>
<text text-anchor="middle" x="2428.88" y="-199.62" font-family="Helvetica,sans-Serif" font-size="10.00">ranges</text>
</a>
</g>
</g>
<!-- Node44&#45;&gt;Node46 -->
<g id="edge61_Node000044_Node000046" class="edge">
<title>Node44&#45;&gt;Node46</title>
<g id="a_edge61_Node000044_Node000046"><a xlink:title=" ">
<path fill="none" stroke="#63b8ff" d="M2277.57,-259.89C2307.85,-250.39 2356.06,-234.68 2396.88,-218.75 2397.51,-218.5 2398.16,-218.25 2398.8,-217.99"/>
<polygon fill="#63b8ff" stroke="#63b8ff" points="2400.12,-221.23 2407.97,-214.12 2397.4,-214.78 2400.12,-221.23"/>
</a>
</g>
</g>
</g>
</svg>
