<?xml version="1.0" encoding="UTF-8" standalone="no"?>
<!DOCTYPE svg PUBLIC "-//W3C//DTD SVG 1.1//EN"
 "http://www.w3.org/Graphics/SVG/1.1/DTD/svg11.dtd">
<!-- Generated by graphviz version 12.2.1 (20241206.2353)
 -->
<!-- Title: lib/Dialect/Polymorphic/IR/Dialect.cpp Pages: 1 -->
<svg width="1260pt" height="305pt"
 viewBox="0.00 0.00 1259.50 304.50" xmlns="http://www.w3.org/2000/svg" xmlns:xlink="http://www.w3.org/1999/xlink">
<g id="graph0" class="graph" transform="scale(1 1) rotate(0) translate(4 300.5)">
<title>lib/Dialect/Polymorphic/IR/Dialect.cpp</title>
<!-- Node1 -->
<g id="Node000001" class="node">
<title>Node1</title>
<g id="a_Node000001"><a xlink:title=" ">
<polygon fill="#999999" stroke="#666666" points="603.88,-296.5 487.38,-296.5 487.38,-266 603.88,-266 603.88,-296.5"/>
<text text-anchor="start" x="495.38" y="-283" font-family="Helvetica,sans-Serif" font-size="10.00">lib/Dialect/Polymorphic</text>
<text text-anchor="middle" x="545.62" y="-271.75" font-family="Helvetica,sans-Serif" font-size="10.00">/IR/Dialect.cpp</text>
</a>
</g>
</g>
<!-- Node2 -->
<g id="Node000002" class="node">
<title>Node2</title>
<g id="a_Node000002"><a xlink:href="_versioning_8h.html" target="_top" xlink:title=" ">
<polygon fill="white" stroke="#666666" points="172.88,-230 68.38,-230 68.38,-199.5 172.88,-199.5 172.88,-230"/>
<text text-anchor="start" x="76.38" y="-216.5" font-family="Helvetica,sans-Serif" font-size="10.00">llzk/Dialect/LLZK/IR</text>
<text text-anchor="middle" x="120.62" y="-205.25" font-family="Helvetica,sans-Serif" font-size="10.00">/Versioning.h</text>
</a>
</g>
</g>
<!-- Node1&#45;&gt;Node2 -->
<g id="edge1_Node000001_Node000002" class="edge">
<title>Node1&#45;&gt;Node2</title>
<g id="a_edge1_Node000001_Node000002"><a xlink:title=" ">
<path fill="none" stroke="#63b8ff" d="M487.02,-271.67C419.95,-261.81 306.82,-245.05 209.62,-230 201.55,-228.75 193.06,-227.42 184.66,-226.08"/>
<polygon fill="#63b8ff" stroke="#63b8ff" points="185.24,-222.63 174.81,-224.52 184.14,-229.55 185.24,-222.63"/>
</a>
</g>
</g>
<!-- Node4 -->
<g id="Node000004" class="node">
<title>Node4</title>
<g id="a_Node000004"><a xlink:href="_polymorphic_2_i_r_2_dialect_8h.html" target="_top" xlink:title=" ">
<polygon fill="white" stroke="#666666" points="277.5,-97 155.75,-97 155.75,-66.5 277.5,-66.5 277.5,-97"/>
<text text-anchor="start" x="163.75" y="-83.5" font-family="Helvetica,sans-Serif" font-size="10.00">llzk/Dialect/Polymorphic</text>
<text text-anchor="middle" x="216.62" y="-72.25" font-family="Helvetica,sans-Serif" font-size="10.00">/IR/Dialect.h</text>
</a>
</g>
</g>
<!-- Node1&#45;&gt;Node4 -->
<g id="edge3_Node000001_Node000004" class="edge">
<title>Node1&#45;&gt;Node4</title>
<g id="a_edge3_Node000001_Node000004"><a xlink:title=" ">
<path fill="none" stroke="#63b8ff" d="M487.16,-276.31C416.37,-270.41 302.64,-256.97 270.62,-230 234.09,-199.22 222.27,-141.47 218.45,-108.17"/>
<polygon fill="#63b8ff" stroke="#63b8ff" points="221.97,-108.22 217.52,-98.61 215,-108.9 221.97,-108.22"/>
</a>
</g>
</g>
<!-- Node7 -->
<g id="Node000007" class="node">
<title>Node7</title>
<g id="a_Node000007"><a xlink:href="_polymorphic_2_i_r_2_ops_8h.html" target="_top" xlink:title=" ">
<polygon fill="white" stroke="#666666" points="411.5,-230 289.75,-230 289.75,-199.5 411.5,-199.5 411.5,-230"/>
<text text-anchor="start" x="297.75" y="-216.5" font-family="Helvetica,sans-Serif" font-size="10.00">llzk/Dialect/Polymorphic</text>
<text text-anchor="middle" x="350.62" y="-205.25" font-family="Helvetica,sans-Serif" font-size="10.00">/IR/Ops.h</text>
</a>
</g>
</g>
<!-- Node1&#45;&gt;Node7 -->
<g id="edge6_Node000001_Node000007" class="edge">
<title>Node1&#45;&gt;Node7</title>
<g id="a_edge6_Node000001_Node000007"><a xlink:title=" ">
<path fill="none" stroke="#63b8ff" d="M501.38,-265.61C473.05,-256.25 436.08,-244.02 405.84,-234.01"/>
<polygon fill="#63b8ff" stroke="#63b8ff" points="407.07,-230.73 396.47,-230.91 404.87,-237.38 407.07,-230.73"/>
</a>
</g>
</g>
<!-- Node8 -->
<g id="Node000008" class="node">
<title>Node8</title>
<g id="a_Node000008"><a xlink:href="_polymorphic_2_i_r_2_types_8h.html" target="_top" xlink:title=" ">
<polygon fill="white" stroke="#666666" points="411.5,-163.5 289.75,-163.5 289.75,-133 411.5,-133 411.5,-163.5"/>
<text text-anchor="start" x="297.75" y="-150" font-family="Helvetica,sans-Serif" font-size="10.00">llzk/Dialect/Polymorphic</text>
<text text-anchor="middle" x="350.62" y="-138.75" font-family="Helvetica,sans-Serif" font-size="10.00">/IR/Types.h</text>
</a>
</g>
</g>
<!-- Node1&#45;&gt;Node8 -->
<g id="edge14_Node000001_Node000008" class="edge">
<title>Node1&#45;&gt;Node8</title>
<g id="a_edge14_Node000001_Node000008"><a xlink:title=" ">
<path fill="none" stroke="#63b8ff" d="M487.05,-277.59C417.11,-273.04 306.31,-261.02 280.62,-230 263.49,-209.31 288.13,-186.2 312.77,-170.02"/>
<polygon fill="#63b8ff" stroke="#63b8ff" points="314.56,-173.02 321.2,-164.76 310.86,-167.08 314.56,-173.02"/>
</a>
</g>
</g>
<!-- Node12 -->
<g id="Node000012" class="node">
<title>Node12</title>
<g id="a_Node000012"><a xlink:title=" ">
<polygon fill="#e0e0e0" stroke="#999999" points="521.5,-224.38 429.75,-224.38 429.75,-205.12 521.5,-205.12 521.5,-224.38"/>
<text text-anchor="middle" x="475.62" y="-210.88" font-family="Helvetica,sans-Serif" font-size="10.00">mlir/IR/Builders.h</text>
</a>
</g>
</g>
<!-- Node1&#45;&gt;Node12 -->
<g id="edge15_Node000001_Node000012" class="edge">
<title>Node1&#45;&gt;Node12</title>
<g id="a_edge15_Node000001_Node000012"><a xlink:title=" ">
<path fill="none" stroke="#63b8ff" d="M529.74,-265.61C518.92,-255.64 504.58,-242.43 493.38,-232.11"/>
<polygon fill="#63b8ff" stroke="#63b8ff" points="496.04,-229.8 486.31,-225.6 491.3,-234.95 496.04,-229.8"/>
</a>
</g>
</g>
<!-- Node13 -->
<g id="Node000013" class="node">
<title>Node13</title>
<g id="a_Node000013"><a xlink:title=" ">
<polygon fill="#e0e0e0" stroke="#999999" points="693.62,-224.38 539.62,-224.38 539.62,-205.12 693.62,-205.12 693.62,-224.38"/>
<text text-anchor="middle" x="616.62" y="-210.88" font-family="Helvetica,sans-Serif" font-size="10.00">mlir/IR/DialectImplementation.h</text>
</a>
</g>
</g>
<!-- Node1&#45;&gt;Node13 -->
<g id="edge16_Node000001_Node000013" class="edge">
<title>Node1&#45;&gt;Node13</title>
<g id="a_edge16_Node000001_Node000013"><a xlink:title=" ">
<path fill="none" stroke="#63b8ff" d="M561.74,-265.61C572.71,-255.64 587.26,-242.43 598.62,-232.11"/>
<polygon fill="#63b8ff" stroke="#63b8ff" points="600.74,-234.91 605.79,-225.59 596.04,-229.72 600.74,-234.91"/>
</a>
</g>
</g>
<!-- Node14 -->
<g id="Node000014" class="node">
<title>Node14</title>
<g id="a_Node000014"><a xlink:title=" ">
<polygon fill="#e0e0e0" stroke="#999999" points="831.38,-224.38 711.88,-224.38 711.88,-205.12 831.38,-205.12 831.38,-224.38"/>
<text text-anchor="middle" x="771.62" y="-210.88" font-family="Helvetica,sans-Serif" font-size="10.00">llvm/ADT/TypeSwitch.h</text>
</a>
</g>
</g>
<!-- Node1&#45;&gt;Node14 -->
<g id="edge17_Node000001_Node000014" class="edge">
<title>Node1&#45;&gt;Node14</title>
<g id="a_edge17_Node000001_Node000014"><a xlink:title=" ">
<path fill="none" stroke="#63b8ff" d="M597.19,-265.53C636.98,-254.18 691.36,-238.66 728.78,-227.98"/>
<polygon fill="#63b8ff" stroke="#63b8ff" points="729.7,-231.36 738.35,-225.25 727.78,-224.62 729.7,-231.36"/>
</a>
</g>
</g>
<!-- Node15 -->
<g id="Node000015" class="node">
<title>Node15</title>
<g id="a_Node000015"><a xlink:href="_polymorphic_2_i_r_2_dialect_8cpp_8inc.html" target="_top" xlink:title=" ">
<polygon fill="white" stroke="#666666" points="971.5,-230 849.75,-230 849.75,-199.5 971.5,-199.5 971.5,-230"/>
<text text-anchor="start" x="857.75" y="-216.5" font-family="Helvetica,sans-Serif" font-size="10.00">llzk/Dialect/Polymorphic</text>
<text text-anchor="middle" x="910.62" y="-205.25" font-family="Helvetica,sans-Serif" font-size="10.00">/IR/Dialect.cpp.inc</text>
</a>
</g>
</g>
<!-- Node1&#45;&gt;Node15 -->
<g id="edge18_Node000001_Node000015" class="edge">
<title>Node1&#45;&gt;Node15</title>
<g id="a_edge18_Node000001_Node000015"><a xlink:title=" ">
<path fill="none" stroke="#63b8ff" d="M604.21,-270.84C661.37,-261.53 751.06,-246.58 838.38,-230.39"/>
<polygon fill="#63b8ff" stroke="#63b8ff" points="838.89,-233.85 848.08,-228.58 837.6,-226.97 838.89,-233.85"/>
</a>
</g>
</g>
<!-- Node16 -->
<g id="Node000016" class="node">
<title>Node16</title>
<g id="a_Node000016"><a xlink:href="_polymorphic_2_i_r_2_types_8cpp_8inc.html" target="_top" xlink:title=" ">
<polygon fill="white" stroke="#666666" points="1111.5,-230 989.75,-230 989.75,-199.5 1111.5,-199.5 1111.5,-230"/>
<text text-anchor="start" x="997.75" y="-216.5" font-family="Helvetica,sans-Serif" font-size="10.00">llzk/Dialect/Polymorphic</text>
<text text-anchor="middle" x="1050.62" y="-205.25" font-family="Helvetica,sans-Serif" font-size="10.00">/IR/Types.cpp.inc</text>
</a>
</g>
</g>
<!-- Node1&#45;&gt;Node16 -->
<g id="edge19_Node000001_Node000016" class="edge">
<title>Node1&#45;&gt;Node16</title>
<g id="a_edge19_Node000001_Node000016"><a xlink:title=" ">
<path fill="none" stroke="#63b8ff" d="M604.24,-275.09C685.79,-267.56 838.3,-252.18 978.26,-230.29"/>
<polygon fill="#63b8ff" stroke="#63b8ff" points="978.77,-233.75 988.1,-228.73 977.68,-226.84 978.77,-233.75"/>
</a>
</g>
</g>
<!-- Node17 -->
<g id="Node000017" class="node">
<title>Node17</title>
<g id="a_Node000017"><a xlink:href="_polymorphic_2_i_r_2_ops_8cpp_8inc.html" target="_top" xlink:title=" ">
<polygon fill="white" stroke="#666666" points="1251.5,-230 1129.75,-230 1129.75,-199.5 1251.5,-199.5 1251.5,-230"/>
<text text-anchor="start" x="1137.75" y="-216.5" font-family="Helvetica,sans-Serif" font-size="10.00">llzk/Dialect/Polymorphic</text>
<text text-anchor="middle" x="1190.62" y="-205.25" font-family="Helvetica,sans-Serif" font-size="10.00">/IR/Ops.cpp.inc</text>
</a>
</g>
</g>
<!-- Node1&#45;&gt;Node17 -->
<g id="edge20_Node000001_Node000017" class="edge">
<title>Node1&#45;&gt;Node17</title>
<g id="a_edge20_Node000001_Node000017"><a xlink:title=" ">
<path fill="none" stroke="#63b8ff" d="M604.24,-277.33C706.53,-271.76 924.44,-257.76 1118.35,-230.21"/>
<polygon fill="#63b8ff" stroke="#63b8ff" points="1118.71,-233.7 1128.11,-228.81 1117.72,-226.77 1118.71,-233.7"/>
</a>
</g>
</g>
<!-- Node3 -->
<g id="Node000003" class="node">
<title>Node3</title>
<g id="a_Node000003"><a xlink:title=" ">
<polygon fill="#e0e0e0" stroke="#999999" points="195.25,-157.88 0,-157.88 0,-138.62 195.25,-138.62 195.25,-157.88"/>
<text text-anchor="middle" x="97.62" y="-144.38" font-family="Helvetica,sans-Serif" font-size="10.00">mlir/Bytecode/BytecodeImplementation.h</text>
</a>
</g>
</g>
<!-- Node2&#45;&gt;Node3 -->
<g id="edge2_Node000002_Node000003" class="edge">
<title>Node2&#45;&gt;Node3</title>
<g id="a_edge2_Node000002_Node000003"><a xlink:title=" ">
<path fill="none" stroke="#63b8ff" d="M115.41,-199.11C112.2,-190.13 108.06,-178.51 104.58,-168.76"/>
<polygon fill="#63b8ff" stroke="#63b8ff" points="107.93,-167.74 101.28,-159.5 101.34,-170.09 107.93,-167.74"/>
</a>
</g>
</g>
<!-- Node5 -->
<g id="Node000005" class="node">
<title>Node5</title>
<g id="a_Node000005"><a xlink:title=" ">
<polygon fill="#e0e0e0" stroke="#999999" points="202.38,-24.88 100.88,-24.88 100.88,-5.63 202.38,-5.63 202.38,-24.88"/>
<text text-anchor="middle" x="151.62" y="-11.38" font-family="Helvetica,sans-Serif" font-size="10.00">mlir/IR/BuiltinOps.h</text>
</a>
</g>
</g>
<!-- Node4&#45;&gt;Node5 -->
<g id="edge4_Node000004_Node000005" class="edge">
<title>Node4&#45;&gt;Node5</title>
<g id="a_edge4_Node000004_Node000005"><a xlink:title=" ">
<path fill="none" stroke="#63b8ff" d="M201.88,-66.11C191.93,-56.24 178.78,-43.19 168.42,-32.92"/>
<polygon fill="#63b8ff" stroke="#63b8ff" points="171.15,-30.7 161.59,-26.14 166.22,-35.67 171.15,-30.7"/>
</a>
</g>
</g>
<!-- Node6 -->
<g id="Node000006" class="node">
<title>Node6</title>
<g id="a_Node000006"><a xlink:href="_polymorphic_2_i_r_2_dialect_8h_8inc.html" target="_top" xlink:title=" ">
<polygon fill="white" stroke="#666666" points="342.5,-30.5 220.75,-30.5 220.75,0 342.5,0 342.5,-30.5"/>
<text text-anchor="start" x="228.75" y="-17" font-family="Helvetica,sans-Serif" font-size="10.00">llzk/Dialect/Polymorphic</text>
<text text-anchor="middle" x="281.62" y="-5.75" font-family="Helvetica,sans-Serif" font-size="10.00">/IR/Dialect.h.inc</text>
</a>
</g>
</g>
<!-- Node4&#45;&gt;Node6 -->
<g id="edge5_Node000004_Node000006" class="edge">
<title>Node4&#45;&gt;Node6</title>
<g id="a_edge5_Node000004_Node000006"><a xlink:title=" ">
<path fill="none" stroke="#63b8ff" d="M231.37,-66.11C239.52,-58.03 249.81,-47.82 258.95,-38.75"/>
<polygon fill="#63b8ff" stroke="#63b8ff" points="261.23,-41.42 265.86,-31.89 256.3,-36.45 261.23,-41.42"/>
</a>
</g>
</g>
<!-- Node7&#45;&gt;Node4 -->
<g id="edge7_Node000007_Node000004" class="edge">
<title>Node7&#45;&gt;Node4</title>
<g id="a_edge7_Node000007_Node000004"><a xlink:title=" ">
<path fill="none" stroke="#63b8ff" d="M327,-199.18C312.81,-189.87 294.81,-177.02 280.62,-163.5 262.44,-146.16 244.95,-123.55 232.86,-106.66"/>
<polygon fill="#63b8ff" stroke="#63b8ff" points="235.88,-104.88 227.27,-98.7 230.15,-108.9 235.88,-104.88"/>
</a>
</g>
</g>
<!-- Node7&#45;&gt;Node8 -->
<g id="edge8_Node000007_Node000008" class="edge">
<title>Node7&#45;&gt;Node8</title>
<g id="a_edge8_Node000007_Node000008"><a xlink:title=" ">
<path fill="none" stroke="#63b8ff" d="M350.62,-199.11C350.62,-192.02 350.62,-183.29 350.62,-175.13"/>
<polygon fill="#63b8ff" stroke="#63b8ff" points="354.13,-175.34 350.63,-165.34 347.13,-175.34 354.13,-175.34"/>
</a>
</g>
</g>
<!-- Node9 -->
<g id="Node000009" class="node">
<title>Node9</title>
<g id="a_Node000009"><a xlink:href="_polymorphic_2_i_r_2_ops_8h_8inc.html" target="_top" xlink:title=" ">
<polygon fill="white" stroke="#666666" points="557.5,-97 435.75,-97 435.75,-66.5 557.5,-66.5 557.5,-97"/>
<text text-anchor="start" x="443.75" y="-83.5" font-family="Helvetica,sans-Serif" font-size="10.00">llzk/Dialect/Polymorphic</text>
<text text-anchor="middle" x="496.62" y="-72.25" font-family="Helvetica,sans-Serif" font-size="10.00">/IR/Ops.h.inc</text>
</a>
</g>
</g>
<!-- Node7&#45;&gt;Node9 -->
<g id="edge13_Node000007_Node000009" class="edge">
<title>Node7&#45;&gt;Node9</title>
<g id="a_edge13_Node000007_Node000009"><a xlink:title=" ">
<path fill="none" stroke="#63b8ff" d="M373.21,-199.17C387.35,-189.66 405.66,-176.61 420.62,-163.5 441.16,-145.52 462.25,-122.7 476.99,-105.9"/>
<polygon fill="#63b8ff" stroke="#63b8ff" points="479.59,-108.25 483.49,-98.41 474.3,-103.67 479.59,-108.25"/>
</a>
</g>
</g>
<!-- Node11 -->
<g id="Node000011" class="node">
<title>Node11</title>
<g id="a_Node000011"><a xlink:title=" ">
<polygon fill="#e0e0e0" stroke="#999999" points="577.12,-163.5 468.12,-163.5 468.12,-133 577.12,-133 577.12,-163.5"/>
<text text-anchor="start" x="476.12" y="-150" font-family="Helvetica,sans-Serif" font-size="10.00">mlir/Dialect/Affine</text>
<text text-anchor="middle" x="522.62" y="-138.75" font-family="Helvetica,sans-Serif" font-size="10.00">/IR/AffineValueMap.h</text>
</a>
</g>
</g>
<!-- Node7&#45;&gt;Node11 -->
<g id="edge12_Node000007_Node000011" class="edge">
<title>Node7&#45;&gt;Node11</title>
<g id="a_edge12_Node000007_Node000011"><a xlink:title=" ">
<path fill="none" stroke="#63b8ff" d="M389.65,-199.11C414.31,-189.87 446.39,-177.84 472.86,-167.91"/>
<polygon fill="#63b8ff" stroke="#63b8ff" points="473.9,-171.26 482.04,-164.47 471.44,-164.71 473.9,-171.26"/>
</a>
</g>
</g>
<!-- Node8&#45;&gt;Node4 -->
<g id="edge9_Node000008_Node000004" class="edge">
<title>Node8&#45;&gt;Node4</title>
<g id="a_edge9_Node000008_Node000004"><a xlink:title=" ">
<path fill="none" stroke="#63b8ff" d="M320.22,-132.61C301.54,-123.63 277.4,-112 257.12,-102.24"/>
<polygon fill="#63b8ff" stroke="#63b8ff" points="258.8,-99.17 248.28,-97.98 255.77,-105.48 258.8,-99.17"/>
</a>
</g>
</g>
<!-- Node8&#45;&gt;Node9 -->
<g id="edge10_Node000008_Node000009" class="edge">
<title>Node8&#45;&gt;Node9</title>
<g id="a_edge10_Node000008_Node000009"><a xlink:title=" ">
<path fill="none" stroke="#63b8ff" d="M383.75,-132.61C404.22,-123.57 430.71,-111.87 452.88,-102.08"/>
<polygon fill="#63b8ff" stroke="#63b8ff" points="454.26,-105.29 461.99,-98.05 451.43,-98.89 454.26,-105.29"/>
</a>
</g>
</g>
<!-- Node10 -->
<g id="Node000010" class="node">
<title>Node10</title>
<g id="a_Node000010"><a xlink:href="_polymorphic_2_i_r_2_types_8h_8inc.html" target="_top" xlink:title=" ">
<polygon fill="white" stroke="#666666" points="417.5,-97 295.75,-97 295.75,-66.5 417.5,-66.5 417.5,-97"/>
<text text-anchor="start" x="303.75" y="-83.5" font-family="Helvetica,sans-Serif" font-size="10.00">llzk/Dialect/Polymorphic</text>
<text text-anchor="middle" x="356.62" y="-72.25" font-family="Helvetica,sans-Serif" font-size="10.00">/IR/Types.h.inc</text>
</a>
</g>
</g>
<!-- Node8&#45;&gt;Node10 -->
<g id="edge11_Node000008_Node000010" class="edge">
<title>Node8&#45;&gt;Node10</title>
<g id="a_edge11_Node000008_Node000010"><a xlink:title=" ">
<path fill="none" stroke="#63b8ff" d="M351.99,-132.61C352.65,-125.52 353.46,-116.79 354.22,-108.63"/>
<polygon fill="#63b8ff" stroke="#63b8ff" points="357.69,-109.12 355.13,-98.84 350.72,-108.47 357.69,-109.12"/>
</a>
</g>
</g>
</g>
</svg>
