<?xml version="1.0" encoding="UTF-8" standalone="no"?>
<!DOCTYPE svg PUBLIC "-//W3C//DTD SVG 1.1//EN"
 "http://www.w3.org/Graphics/SVG/1.1/DTD/svg11.dtd">
<!-- Generated by graphviz version 12.2.1 (20241206.2353)
 -->
<!-- Title: build/include/llzk/Dialect/Polymorphic/Transforms/TransformationPasses.h.inc Pages: 1 -->
<svg width="272pt" height="194pt"
 viewBox="0.00 0.00 271.50 194.00" xmlns="http://www.w3.org/2000/svg" xmlns:xlink="http://www.w3.org/1999/xlink">
<g id="graph0" class="graph" transform="scale(1 1) rotate(0) translate(4 190)">
<title>build/include/llzk/Dialect/Polymorphic/Transforms/TransformationPasses.h.inc</title>
<!-- Node1 -->
<g id="Node000001" class="node">
<title>Node1</title>
<g id="a_Node000001"><a xlink:title=" ">
<polygon fill="#999999" stroke="#666666" points="219.62,-186 25.88,-186 25.88,-144.25 219.62,-144.25 219.62,-186"/>
<text text-anchor="start" x="33.88" y="-172.5" font-family="Helvetica,sans-Serif" font-size="10.00">build/include/llzk</text>
<text text-anchor="start" x="33.88" y="-161.25" font-family="Helvetica,sans-Serif" font-size="10.00">/Dialect/Polymorphic</text>
<text text-anchor="middle" x="122.75" y="-150" font-family="Helvetica,sans-Serif" font-size="10.00">/Transforms/TransformationPasses.h.inc</text>
</a>
</g>
</g>
<!-- Node2 -->
<g id="Node000002" class="node">
<title>Node2</title>
<g id="a_Node000002"><a xlink:href="_polymorphic_2_transforms_2_transformation_passes_8h.html" target="_top" xlink:title=" ">
<polygon fill="white" stroke="#666666" points="231.5,-108.25 106,-108.25 106,-66.5 231.5,-66.5 231.5,-108.25"/>
<text text-anchor="start" x="114" y="-94.75" font-family="Helvetica,sans-Serif" font-size="10.00">include/llzk/Dialect</text>
<text text-anchor="start" x="114" y="-83.5" font-family="Helvetica,sans-Serif" font-size="10.00">/Polymorphic/Transforms</text>
<text text-anchor="middle" x="168.75" y="-72.25" font-family="Helvetica,sans-Serif" font-size="10.00">/TransformationPasses.h</text>
</a>
</g>
</g>
<!-- Node1&#45;&gt;Node2 -->
<g id="edge1_Node000001_Node000002" class="edge">
<title>Node1&#45;&gt;Node2</title>
<g id="a_edge1_Node000001_Node000002"><a xlink:title=" ">
<path fill="none" stroke="#63b8ff" d="M140.94,-134.18C146.12,-125.64 151.64,-116.55 156.39,-108.73"/>
<polygon fill="#63b8ff" stroke="#63b8ff" points="138.06,-132.17 135.86,-142.53 144.04,-135.8 138.06,-132.17"/>
</a>
</g>
</g>
<!-- Node3 -->
<g id="Node000003" class="node">
<title>Node3</title>
<g id="a_Node000003"><a xlink:href="_flattening_pass_8cpp.html" target="_top" xlink:title="This file implements the &#45;llzk&#45;flatten pass.">
<polygon fill="white" stroke="#666666" points="155.5,-30.5 0,-30.5 0,0 155.5,0 155.5,-30.5"/>
<text text-anchor="start" x="8" y="-17" font-family="Helvetica,sans-Serif" font-size="10.00">lib/Dialect/Polymorphic</text>
<text text-anchor="middle" x="77.75" y="-5.75" font-family="Helvetica,sans-Serif" font-size="10.00">/Transforms/FlatteningPass.cpp</text>
</a>
</g>
</g>
<!-- Node1&#45;&gt;Node3 -->
<g id="edge4_Node000001_Node000003" class="edge">
<title>Node1&#45;&gt;Node3</title>
<g id="a_edge4_Node000001_Node000003"><a xlink:title=" ">
<path fill="none" stroke="#63b8ff" d="M107.06,-133.74C103.29,-125.61 99.55,-116.73 96.75,-108.25 87.94,-81.62 82.39,-49.24 79.7,-30.86"/>
<polygon fill="#63b8ff" stroke="#63b8ff" points="103.8,-135.04 111.29,-142.53 110.11,-132 103.8,-135.04"/>
</a>
</g>
</g>
<!-- Node2&#45;&gt;Node3 -->
<g id="edge2_Node000002_Node000003" class="edge">
<title>Node2&#45;&gt;Node3</title>
<g id="a_edge2_Node000002_Node000003"><a xlink:title=" ">
<path fill="none" stroke="#63b8ff" d="M133.57,-59.26C121.05,-49.62 107.44,-39.13 96.79,-30.92"/>
<polygon fill="#63b8ff" stroke="#63b8ff" points="131.17,-61.84 141.23,-65.17 135.45,-56.29 131.17,-61.84"/>
</a>
</g>
</g>
<!-- Node4 -->
<g id="Node000004" class="node">
<title>Node4</title>
<g id="a_Node000004"><a xlink:href="llzk-opt_8cpp.html" target="_top" xlink:title="This file implements a version of the mlir&#45;opt tool configured for use on LLZK files.">
<polygon fill="white" stroke="#666666" points="263.5,-30.5 174,-30.5 174,0 263.5,0 263.5,-30.5"/>
<text text-anchor="start" x="182" y="-17" font-family="Helvetica,sans-Serif" font-size="10.00">tools/llzk&#45;opt/llzk</text>
<text text-anchor="middle" x="218.75" y="-5.75" font-family="Helvetica,sans-Serif" font-size="10.00">&#45;opt.cpp</text>
</a>
</g>
</g>
<!-- Node2&#45;&gt;Node4 -->
<g id="edge3_Node000002_Node000004" class="edge">
<title>Node2&#45;&gt;Node4</title>
<g id="a_edge3_Node000002_Node000004"><a xlink:title=" ">
<path fill="none" stroke="#63b8ff" d="M189.74,-56.93C196.21,-47.87 203.04,-38.29 208.45,-30.7"/>
<polygon fill="#63b8ff" stroke="#63b8ff" points="187.05,-54.69 184.09,-64.86 192.75,-58.75 187.05,-54.69"/>
</a>
</g>
</g>
</g>
</svg>
