<?xml version="1.0" encoding="UTF-8" standalone="no"?>
<!DOCTYPE svg PUBLIC "-//W3C//DTD SVG 1.1//EN"
 "http://www.w3.org/Graphics/SVG/1.1/DTD/svg11.dtd">
<!-- Generated by graphviz version 12.2.1 (20241206.2353)
 -->
<!-- Title: include/llzk/Dialect/Polymorphic/IR/Types.h Pages: 1 -->
<svg width="1332pt" height="438pt"
 viewBox="0.00 0.00 1331.62 437.50" xmlns="http://www.w3.org/2000/svg" xmlns:xlink="http://www.w3.org/1999/xlink">
<g id="graph0" class="graph" transform="scale(1 1) rotate(0) translate(4 433.5)">
<title>include/llzk/Dialect/Polymorphic/IR/Types.h</title>
<!-- Node1 -->
<g id="Node000001" class="node">
<title>Node1</title>
<g id="a_Node000001"><a xlink:title=" ">
<polygon fill="#999999" stroke="#666666" points="889.5,-429.5 765.5,-429.5 765.5,-399 889.5,-399 889.5,-429.5"/>
<text text-anchor="start" x="773.5" y="-416" font-family="Helvetica,sans-Serif" font-size="10.00">include/llzk/Dialect</text>
<text text-anchor="middle" x="827.5" y="-404.75" font-family="Helvetica,sans-Serif" font-size="10.00">/Polymorphic/IR/Types.h</text>
</a>
</g>
</g>
<!-- Node2 -->
<g id="Node000002" class="node">
<title>Node2</title>
<g id="a_Node000002"><a xlink:href="_polymorphic_2_i_r_2_ops_8h.html" target="_top" xlink:title=" ">
<polygon fill="white" stroke="#666666" points="629.38,-363 513.62,-363 513.62,-332.5 629.38,-332.5 629.38,-363"/>
<text text-anchor="start" x="521.62" y="-349.5" font-family="Helvetica,sans-Serif" font-size="10.00">include/llzk/Dialect</text>
<text text-anchor="middle" x="571.5" y="-338.25" font-family="Helvetica,sans-Serif" font-size="10.00">/Polymorphic/IR/Ops.h</text>
</a>
</g>
</g>
<!-- Node1&#45;&gt;Node2 -->
<g id="edge1_Node000001_Node000002" class="edge">
<title>Node1&#45;&gt;Node2</title>
<g id="a_edge1_Node000001_Node000002"><a xlink:title=" ">
<path fill="none" stroke="#63b8ff" d="M758.03,-395.75C717.81,-385.61 667.78,-373.01 629.66,-363.4"/>
<polygon fill="#63b8ff" stroke="#63b8ff" points="757.07,-399.11 767.62,-398.16 758.78,-392.33 757.07,-399.11"/>
</a>
</g>
</g>
<!-- Node13 -->
<g id="Node000013" class="node">
<title>Node13</title>
<g id="a_Node000013"><a xlink:href="_polymorphic_2_i_r_2_dialect_8cpp.html" target="_top" xlink:title=" ">
<polygon fill="white" stroke="#666666" points="715.75,-296.5 599.25,-296.5 599.25,-266 715.75,-266 715.75,-296.5"/>
<text text-anchor="start" x="607.25" y="-283" font-family="Helvetica,sans-Serif" font-size="10.00">lib/Dialect/Polymorphic</text>
<text text-anchor="middle" x="657.5" y="-271.75" font-family="Helvetica,sans-Serif" font-size="10.00">/IR/Dialect.cpp</text>
</a>
</g>
</g>
<!-- Node1&#45;&gt;Node13 -->
<g id="edge22_Node000001_Node000013" class="edge">
<title>Node1&#45;&gt;Node13</title>
<g id="a_edge22_Node000001_Node000013"><a xlink:title=" ">
<path fill="none" stroke="#63b8ff" d="M760.52,-394.55C741.3,-386.95 721.29,-376.65 705.5,-363 684.27,-344.66 669.9,-314.51 662.76,-296.7"/>
<polygon fill="#63b8ff" stroke="#63b8ff" points="759.08,-397.75 769.67,-397.97 761.53,-391.19 759.08,-397.75"/>
</a>
</g>
</g>
<!-- Node14 -->
<g id="Node000014" class="node">
<title>Node14</title>
<g id="a_Node000014"><a xlink:href="_polymorphic_2_i_r_2_ops_8cpp.html" target="_top" xlink:title=" ">
<polygon fill="white" stroke="#666666" points="850.75,-296.5 734.25,-296.5 734.25,-266 850.75,-266 850.75,-296.5"/>
<text text-anchor="start" x="742.25" y="-283" font-family="Helvetica,sans-Serif" font-size="10.00">lib/Dialect/Polymorphic</text>
<text text-anchor="middle" x="792.5" y="-271.75" font-family="Helvetica,sans-Serif" font-size="10.00">/IR/Ops.cpp</text>
</a>
</g>
</g>
<!-- Node1&#45;&gt;Node14 -->
<g id="edge23_Node000001_Node000014" class="edge">
<title>Node1&#45;&gt;Node14</title>
<g id="a_edge23_Node000001_Node000014"><a xlink:title=" ">
<path fill="none" stroke="#63b8ff" d="M754.69,-395.41C738.84,-388.02 724,-377.62 714.5,-363 707.11,-351.63 708.01,-344.4 714.5,-332.5 723.21,-316.52 739.43,-304.86 754.83,-296.81"/>
<polygon fill="#63b8ff" stroke="#63b8ff" points="753.23,-398.59 763.8,-399.26 755.95,-392.14 753.23,-398.59"/>
</a>
</g>
</g>
<!-- Node16 -->
<g id="Node000016" class="node">
<title>Node16</title>
<g id="a_Node000016"><a xlink:href="_bool_2_i_r_2_ops_8cpp.html" target="_top" xlink:title=" ">
<polygon fill="white" stroke="#666666" points="819.25,-363 723.75,-363 723.75,-332.5 819.25,-332.5 819.25,-363"/>
<text text-anchor="start" x="731.75" y="-349.5" font-family="Helvetica,sans-Serif" font-size="10.00">lib/Dialect/Bool/IR</text>
<text text-anchor="middle" x="771.5" y="-338.25" font-family="Helvetica,sans-Serif" font-size="10.00">/Ops.cpp</text>
</a>
</g>
</g>
<!-- Node1&#45;&gt;Node16 -->
<g id="edge19_Node000001_Node000016" class="edge">
<title>Node1&#45;&gt;Node16</title>
<g id="a_edge19_Node000001_Node000016"><a xlink:title=" ">
<path fill="none" stroke="#63b8ff" d="M807.43,-390.13C799.67,-381.19 791.02,-371.24 784.16,-363.33"/>
<polygon fill="#63b8ff" stroke="#63b8ff" points="804.6,-392.21 813.8,-397.47 809.89,-387.63 804.6,-392.21"/>
</a>
</g>
</g>
<!-- Node17 -->
<g id="Node000017" class="node">
<title>Node17</title>
<g id="a_Node000017"><a xlink:href="_felt_2_i_r_2_ops_8cpp.html" target="_top" xlink:title=" ">
<polygon fill="white" stroke="#666666" points="929.75,-363 837.25,-363 837.25,-332.5 929.75,-332.5 929.75,-363"/>
<text text-anchor="start" x="845.25" y="-349.5" font-family="Helvetica,sans-Serif" font-size="10.00">lib/Dialect/Felt/IR</text>
<text text-anchor="middle" x="883.5" y="-338.25" font-family="Helvetica,sans-Serif" font-size="10.00">/Ops.cpp</text>
</a>
</g>
</g>
<!-- Node1&#45;&gt;Node17 -->
<g id="edge20_Node000001_Node000017" class="edge">
<title>Node1&#45;&gt;Node17</title>
<g id="a_edge20_Node000001_Node000017"><a xlink:title=" ">
<path fill="none" stroke="#63b8ff" d="M847.57,-390.13C855.33,-381.19 863.98,-371.24 870.84,-363.33"/>
<polygon fill="#63b8ff" stroke="#63b8ff" points="845.11,-387.63 841.2,-397.47 850.4,-392.21 845.11,-387.63"/>
</a>
</g>
</g>
<!-- Node18 -->
<g id="Node000018" class="node">
<title>Node18</title>
<g id="a_Node000018"><a xlink:href="_function_2_i_r_2_ops_8cpp.html" target="_top" xlink:title=" ">
<polygon fill="white" stroke="#666666" points="1047.5,-363 947.5,-363 947.5,-332.5 1047.5,-332.5 1047.5,-363"/>
<text text-anchor="start" x="955.5" y="-349.5" font-family="Helvetica,sans-Serif" font-size="10.00">lib/Dialect/Function</text>
<text text-anchor="middle" x="997.5" y="-338.25" font-family="Helvetica,sans-Serif" font-size="10.00">/IR/Ops.cpp</text>
</a>
</g>
</g>
<!-- Node1&#45;&gt;Node18 -->
<g id="edge21_Node000001_Node000018" class="edge">
<title>Node1&#45;&gt;Node18</title>
<g id="a_edge21_Node000001_Node000018"><a xlink:title=" ">
<path fill="none" stroke="#63b8ff" d="M876.53,-394.65C902.68,-384.73 934.39,-372.7 958.78,-363.44"/>
<polygon fill="#63b8ff" stroke="#63b8ff" points="875.6,-391.26 867.49,-398.08 878.08,-397.8 875.6,-391.26"/>
</a>
</g>
</g>
<!-- Node19 -->
<g id="Node000019" class="node">
<title>Node19</title>
<g id="a_Node000019"><a xlink:href="_symbol_helper_8cpp.html" target="_top" xlink:title="This file contains the implementations for symbol helper functions.">
<polygon fill="white" stroke="#666666" points="1191.62,-357.38 1065.38,-357.38 1065.38,-338.12 1191.62,-338.12 1191.62,-357.38"/>
<text text-anchor="middle" x="1128.5" y="-343.88" font-family="Helvetica,sans-Serif" font-size="10.00">lib/Util/SymbolHelper.cpp</text>
</a>
</g>
</g>
<!-- Node1&#45;&gt;Node19 -->
<g id="edge24_Node000001_Node000019" class="edge">
<title>Node1&#45;&gt;Node19</title>
<g id="a_edge24_Node000001_Node000019"><a xlink:title=" ">
<path fill="none" stroke="#63b8ff" d="M900.82,-397.54C958.91,-385.09 1038.04,-368.13 1086.07,-357.84"/>
<polygon fill="#63b8ff" stroke="#63b8ff" points="900.39,-394.05 891.35,-399.57 901.86,-400.9 900.39,-394.05"/>
</a>
</g>
</g>
<!-- Node20 -->
<g id="Node000020" class="node">
<title>Node20</title>
<g id="a_Node000020"><a xlink:href="_type_helper_8cpp.html" target="_top" xlink:title=" ">
<polygon fill="white" stroke="#666666" points="1323.62,-357.38 1209.38,-357.38 1209.38,-338.12 1323.62,-338.12 1323.62,-357.38"/>
<text text-anchor="middle" x="1266.5" y="-343.88" font-family="Helvetica,sans-Serif" font-size="10.00">lib/Util/TypeHelper.cpp</text>
</a>
</g>
</g>
<!-- Node1&#45;&gt;Node20 -->
<g id="edge25_Node000001_Node000020" class="edge">
<title>Node1&#45;&gt;Node20</title>
<g id="a_edge25_Node000001_Node000020"><a xlink:title=" ">
<path fill="none" stroke="#63b8ff" d="M901.02,-405.08C976.44,-396.29 1097.04,-381.11 1200.5,-363 1209.04,-361.5 1218.16,-359.68 1226.81,-357.85"/>
<polygon fill="#63b8ff" stroke="#63b8ff" points="900.8,-401.58 891.27,-406.21 901.61,-408.53 900.8,-401.58"/>
</a>
</g>
</g>
<!-- Node3 -->
<g id="Node000003" class="node">
<title>Node3</title>
<g id="a_Node000003"><a xlink:href="_constrain_ref_8h.html" target="_top" xlink:title=" ">
<polygon fill="white" stroke="#666666" points="370.12,-296.5 264.88,-296.5 264.88,-266 370.12,-266 370.12,-296.5"/>
<text text-anchor="start" x="272.88" y="-283" font-family="Helvetica,sans-Serif" font-size="10.00">include/llzk/Analysis</text>
<text text-anchor="middle" x="317.5" y="-271.75" font-family="Helvetica,sans-Serif" font-size="10.00">/ConstrainRef.h</text>
</a>
</g>
</g>
<!-- Node2&#45;&gt;Node3 -->
<g id="edge2_Node000002_Node000003" class="edge">
<title>Node2&#45;&gt;Node3</title>
<g id="a_edge2_Node000002_Node000003"><a xlink:title=" ">
<path fill="none" stroke="#63b8ff" d="M502.4,-329.2C460.83,-318.65 408.74,-305.42 370.45,-295.69"/>
<polygon fill="#63b8ff" stroke="#63b8ff" points="501.52,-332.59 512.08,-331.66 503.25,-325.81 501.52,-332.59"/>
</a>
</g>
</g>
<!-- Node6 -->
<g id="Node000006" class="node">
<title>Node6</title>
<g id="a_Node000006"><a xlink:href="_interval_analysis_8h.html" target="_top" xlink:title=" ">
<polygon fill="white" stroke="#666666" points="624.12,-97 518.88,-97 518.88,-66.5 624.12,-66.5 624.12,-97"/>
<text text-anchor="start" x="526.88" y="-83.5" font-family="Helvetica,sans-Serif" font-size="10.00">include/llzk/Analysis</text>
<text text-anchor="middle" x="571.5" y="-72.25" font-family="Helvetica,sans-Serif" font-size="10.00">/IntervalAnalysis.h</text>
</a>
</g>
</g>
<!-- Node2&#45;&gt;Node6 -->
<g id="edge15_Node000002_Node000006" class="edge">
<title>Node2&#45;&gt;Node6</title>
<g id="a_edge15_Node000002_Node000006"><a xlink:title=" ">
<path fill="none" stroke="#63b8ff" d="M571.5,-320.73C571.5,-265.91 571.5,-140.04 571.5,-97.27"/>
<polygon fill="#63b8ff" stroke="#63b8ff" points="568,-320.67 571.5,-330.67 575,-320.67 568,-320.67"/>
</a>
</g>
</g>
<!-- Node2&#45;&gt;Node13 -->
<g id="edge16_Node000002_Node000013" class="edge">
<title>Node2&#45;&gt;Node13</title>
<g id="a_edge16_Node000002_Node000013"><a xlink:title=" ">
<path fill="none" stroke="#63b8ff" d="M600.11,-325.29C612.57,-315.94 626.86,-305.23 638.06,-296.83"/>
<polygon fill="#63b8ff" stroke="#63b8ff" points="598.13,-322.41 592.23,-331.21 602.33,-328.01 598.13,-322.41"/>
</a>
</g>
</g>
<!-- Node2&#45;&gt;Node14 -->
<g id="edge17_Node000002_Node000014" class="edge">
<title>Node2&#45;&gt;Node14</title>
<g id="a_edge17_Node000002_Node000014"><a xlink:title=" ">
<path fill="none" stroke="#63b8ff" d="M632.81,-328.85C667.3,-318.79 709.8,-306.39 742.29,-296.9"/>
<polygon fill="#63b8ff" stroke="#63b8ff" points="632,-325.45 623.38,-331.61 633.96,-332.17 632,-325.45"/>
</a>
</g>
</g>
<!-- Node15 -->
<g id="Node000015" class="node">
<title>Node15</title>
<g id="a_Node000015"><a xlink:href="_flattening_pass_8cpp.html" target="_top" xlink:title="This file implements the &#45;llzk&#45;flatten pass.">
<polygon fill="white" stroke="#666666" points="543.25,-296.5 387.75,-296.5 387.75,-266 543.25,-266 543.25,-296.5"/>
<text text-anchor="start" x="395.75" y="-283" font-family="Helvetica,sans-Serif" font-size="10.00">lib/Dialect/Polymorphic</text>
<text text-anchor="middle" x="465.5" y="-271.75" font-family="Helvetica,sans-Serif" font-size="10.00">/Transforms/FlatteningPass.cpp</text>
</a>
</g>
</g>
<!-- Node2&#45;&gt;Node15 -->
<g id="edge18_Node000002_Node000015" class="edge">
<title>Node2&#45;&gt;Node15</title>
<g id="a_edge18_Node000002_Node000015"><a xlink:title=" ">
<path fill="none" stroke="#63b8ff" d="M538.03,-326.39C522.26,-316.79 503.81,-305.56 489.46,-296.83"/>
<polygon fill="#63b8ff" stroke="#63b8ff" points="535.79,-329.12 546.15,-331.33 539.43,-323.14 535.79,-329.12"/>
</a>
</g>
</g>
<!-- Node4 -->
<g id="Node000004" class="node">
<title>Node4</title>
<g id="a_Node000004"><a xlink:href="_constrain_ref_lattice_8h.html" target="_top" xlink:title=" ">
<polygon fill="white" stroke="#666666" points="226.62,-230 112.38,-230 112.38,-199.5 226.62,-199.5 226.62,-230"/>
<text text-anchor="start" x="120.38" y="-216.5" font-family="Helvetica,sans-Serif" font-size="10.00">include/llzk/Analysis</text>
<text text-anchor="middle" x="169.5" y="-205.25" font-family="Helvetica,sans-Serif" font-size="10.00">/ConstrainRefLattice.h</text>
</a>
</g>
</g>
<!-- Node3&#45;&gt;Node4 -->
<g id="edge3_Node000003_Node000004" class="edge">
<title>Node3&#45;&gt;Node4</title>
<g id="a_edge3_Node000003_Node000004"><a xlink:title=" ">
<path fill="none" stroke="#63b8ff" d="M273.6,-261.12C251.07,-251.3 224.07,-239.53 203.21,-230.44"/>
<polygon fill="#63b8ff" stroke="#63b8ff" points="271.96,-264.22 282.53,-265.01 274.76,-257.81 271.96,-264.22"/>
</a>
</g>
</g>
<!-- Node5 -->
<g id="Node000005" class="node">
<title>Node5</title>
<g id="a_Node000005"><a xlink:href="_constraint_dependency_graph_8h.html" target="_top" xlink:title=" ">
<polygon fill="white" stroke="#666666" points="437.12,-163.5 283.88,-163.5 283.88,-133 437.12,-133 437.12,-163.5"/>
<text text-anchor="start" x="291.88" y="-150" font-family="Helvetica,sans-Serif" font-size="10.00">include/llzk/Analysis</text>
<text text-anchor="middle" x="360.5" y="-138.75" font-family="Helvetica,sans-Serif" font-size="10.00">/ConstraintDependencyGraph.h</text>
</a>
</g>
</g>
<!-- Node3&#45;&gt;Node5 -->
<g id="edge13_Node000003_Node000005" class="edge">
<title>Node3&#45;&gt;Node5</title>
<g id="a_edge13_Node000003_Node000005"><a xlink:title=" ">
<path fill="none" stroke="#63b8ff" d="M367.99,-260.19C380.5,-252.67 392.35,-242.76 399.5,-230 412.13,-207.45 391.98,-180.19 376.25,-163.81"/>
<polygon fill="#63b8ff" stroke="#63b8ff" points="366.32,-257.11 359.23,-264.99 369.68,-263.25 366.32,-257.11"/>
</a>
</g>
</g>
<!-- Node12 -->
<g id="Node000012" class="node">
<title>Node12</title>
<g id="a_Node000012"><a xlink:href="_constrain_ref_8cpp.html" target="_top" xlink:title=" ">
<polygon fill="white" stroke="#666666" points="390.38,-224.38 244.62,-224.38 244.62,-205.12 390.38,-205.12 390.38,-224.38"/>
<text text-anchor="middle" x="317.5" y="-210.88" font-family="Helvetica,sans-Serif" font-size="10.00">lib/Analysis/ConstrainRef.cpp</text>
</a>
</g>
</g>
<!-- Node3&#45;&gt;Node12 -->
<g id="edge14_Node000003_Node000012" class="edge">
<title>Node3&#45;&gt;Node12</title>
<g id="a_edge14_Node000003_Node000012"><a xlink:title=" ">
<path fill="none" stroke="#63b8ff" d="M317.5,-254.34C317.5,-243.76 317.5,-232.25 317.5,-224.57"/>
<polygon fill="#63b8ff" stroke="#63b8ff" points="314,-254.1 317.5,-264.1 321,-254.1 314,-254.1"/>
</a>
</g>
</g>
<!-- Node4&#45;&gt;Node5 -->
<g id="edge4_Node000004_Node000005" class="edge">
<title>Node4&#45;&gt;Node5</title>
<g id="a_edge4_Node000004_Node000005"><a xlink:title=" ">
<path fill="none" stroke="#63b8ff" d="M223.42,-195.54C253.01,-185.55 289.23,-173.32 317,-163.94"/>
<polygon fill="#63b8ff" stroke="#63b8ff" points="222.63,-192.11 214.27,-198.63 224.87,-198.75 222.63,-192.11"/>
</a>
</g>
</g>
<!-- Node9 -->
<g id="Node000009" class="node">
<title>Node9</title>
<g id="a_Node000009"><a xlink:href="_constrain_ref_lattice_8cpp.html" target="_top" xlink:title=" ">
<polygon fill="white" stroke="#666666" points="314,-97 187,-97 187,-66.5 314,-66.5 314,-97"/>
<text text-anchor="start" x="195" y="-83.5" font-family="Helvetica,sans-Serif" font-size="10.00">lib/Analysis/ConstrainRef</text>
<text text-anchor="middle" x="250.5" y="-72.25" font-family="Helvetica,sans-Serif" font-size="10.00">Lattice.cpp</text>
</a>
</g>
</g>
<!-- Node4&#45;&gt;Node9 -->
<g id="edge11_Node000004_Node000009" class="edge">
<title>Node4&#45;&gt;Node9</title>
<g id="a_edge11_Node000004_Node000009"><a xlink:title=" ">
<path fill="none" stroke="#63b8ff" d="M184.35,-189.74C201.05,-162.72 227.65,-119.7 241.48,-97.33"/>
<polygon fill="#63b8ff" stroke="#63b8ff" points="181.56,-187.6 179.27,-197.94 187.51,-191.28 181.56,-187.6"/>
</a>
</g>
</g>
<!-- Node10 -->
<g id="Node000010" class="node">
<title>Node10</title>
<g id="a_Node000010"><a xlink:href="_constraint_dependency_graph_8cpp.html" target="_top" xlink:title=" ">
<polygon fill="white" stroke="#666666" points="169,-97 0,-97 0,-66.5 169,-66.5 169,-97"/>
<text text-anchor="start" x="8" y="-83.5" font-family="Helvetica,sans-Serif" font-size="10.00">lib/Analysis/ConstraintDependency</text>
<text text-anchor="middle" x="84.5" y="-72.25" font-family="Helvetica,sans-Serif" font-size="10.00">Graph.cpp</text>
</a>
</g>
</g>
<!-- Node4&#45;&gt;Node10 -->
<g id="edge12_Node000004_Node000010" class="edge">
<title>Node4&#45;&gt;Node10</title>
<g id="a_edge12_Node000004_Node000010"><a xlink:title=" ">
<path fill="none" stroke="#63b8ff" d="M153.92,-189.74C136.39,-162.72 108.48,-119.7 93.96,-97.33"/>
<polygon fill="#63b8ff" stroke="#63b8ff" points="150.88,-191.48 159.25,-197.96 156.75,-187.67 150.88,-191.48"/>
</a>
</g>
</g>
<!-- Node5&#45;&gt;Node6 -->
<g id="edge5_Node000005_Node000006" class="edge">
<title>Node5&#45;&gt;Node6</title>
<g id="a_edge5_Node000005_Node000006"><a xlink:title=" ">
<path fill="none" stroke="#63b8ff" d="M419.47,-129.22C452.31,-119.18 492.68,-106.84 523.56,-97.4"/>
<polygon fill="#63b8ff" stroke="#63b8ff" points="418.63,-125.82 410.09,-132.09 420.68,-132.51 418.63,-125.82"/>
</a>
</g>
</g>
<!-- Node5&#45;&gt;Node9 -->
<g id="edge8_Node000005_Node000009" class="edge">
<title>Node5&#45;&gt;Node9</title>
<g id="a_edge8_Node000005_Node000009"><a xlink:title=" ">
<path fill="none" stroke="#63b8ff" d="M325.77,-126.89C309.4,-117.29 290.25,-106.06 275.36,-97.33"/>
<polygon fill="#63b8ff" stroke="#63b8ff" points="323.84,-129.81 334.23,-131.85 327.38,-123.77 323.84,-129.81"/>
</a>
</g>
</g>
<!-- Node5&#45;&gt;Node10 -->
<g id="edge9_Node000005_Node000010" class="edge">
<title>Node5&#45;&gt;Node10</title>
<g id="a_edge9_Node000005_Node000010"><a xlink:title=" ">
<path fill="none" stroke="#63b8ff" d="M286.43,-129.94C242.94,-119.78 188.57,-107.07 147.2,-97.4"/>
<polygon fill="#63b8ff" stroke="#63b8ff" points="285.52,-133.32 296.05,-132.19 287.11,-126.5 285.52,-133.32"/>
</a>
</g>
</g>
<!-- Node11 -->
<g id="Node000011" class="node">
<title>Node11</title>
<g id="a_Node000011"><a xlink:href="_constraint_dependency_graph_pass_8cpp.html" target="_top" xlink:title="This file implements the &#45;llzk&#45;print&#45;constraint&#45;dependency&#45;graphs pass.">
<polygon fill="white" stroke="#666666" points="501,-97 332,-97 332,-66.5 501,-66.5 501,-97"/>
<text text-anchor="start" x="340" y="-83.5" font-family="Helvetica,sans-Serif" font-size="10.00">lib/Analysis/ConstraintDependency</text>
<text text-anchor="middle" x="416.5" y="-72.25" font-family="Helvetica,sans-Serif" font-size="10.00">GraphPass.cpp</text>
</a>
</g>
</g>
<!-- Node5&#45;&gt;Node11 -->
<g id="edge10_Node000005_Node000011" class="edge">
<title>Node5&#45;&gt;Node11</title>
<g id="a_edge10_Node000005_Node000011"><a xlink:title=" ">
<path fill="none" stroke="#63b8ff" d="M380.57,-124.13C388.33,-115.19 396.98,-105.24 403.84,-97.33"/>
<polygon fill="#63b8ff" stroke="#63b8ff" points="378.11,-121.63 374.2,-131.47 383.4,-126.21 378.11,-121.63"/>
</a>
</g>
</g>
<!-- Node7 -->
<g id="Node000007" class="node">
<title>Node7</title>
<g id="a_Node000007"><a xlink:href="_interval_analysis_8cpp.html" target="_top" xlink:title=" ">
<polygon fill="white" stroke="#666666" points="567.38,-24.88 409.62,-24.88 409.62,-5.63 567.38,-5.63 567.38,-24.88"/>
<text text-anchor="middle" x="488.5" y="-11.38" font-family="Helvetica,sans-Serif" font-size="10.00">lib/Analysis/IntervalAnalysis.cpp</text>
</a>
</g>
</g>
<!-- Node6&#45;&gt;Node7 -->
<g id="edge6_Node000006_Node000007" class="edge">
<title>Node6&#45;&gt;Node7</title>
<g id="a_edge6_Node000006_Node000007"><a xlink:title=" ">
<path fill="none" stroke="#63b8ff" d="M543.77,-59.2C528.79,-47.56 511.11,-33.82 499.85,-25.07"/>
<polygon fill="#63b8ff" stroke="#63b8ff" points="541.43,-61.81 551.47,-65.19 545.72,-56.29 541.43,-61.81"/>
</a>
</g>
</g>
<!-- Node8 -->
<g id="Node000008" class="node">
<title>Node8</title>
<g id="a_Node000008"><a xlink:href="_interval_analysis_pass_8cpp.html" target="_top" xlink:title="This file implements the &#45;llzk&#45;print&#45;interval&#45;analysis pass.">
<polygon fill="white" stroke="#666666" points="724,-30.5 585,-30.5 585,0 724,0 724,-30.5"/>
<text text-anchor="start" x="593" y="-17" font-family="Helvetica,sans-Serif" font-size="10.00">lib/Analysis/IntervalAnalysis</text>
<text text-anchor="middle" x="654.5" y="-5.75" font-family="Helvetica,sans-Serif" font-size="10.00">Pass.cpp</text>
</a>
</g>
</g>
<!-- Node6&#45;&gt;Node8 -->
<g id="edge7_Node000006_Node000008" class="edge">
<title>Node6&#45;&gt;Node8</title>
<g id="a_edge7_Node000006_Node000008"><a xlink:title=" ">
<path fill="none" stroke="#63b8ff" d="M599.11,-59.29C611.14,-49.94 624.93,-39.23 635.74,-30.83"/>
<polygon fill="#63b8ff" stroke="#63b8ff" points="597.28,-56.29 591.53,-65.19 601.57,-61.81 597.28,-56.29"/>
</a>
</g>
</g>
</g>
</svg>
