<?xml version="1.0" encoding="UTF-8" standalone="no"?>
<!DOCTYPE svg PUBLIC "-//W3C//DTD SVG 1.1//EN"
 "http://www.w3.org/Graphics/SVG/1.1/DTD/svg11.dtd">
<!-- Generated by graphviz version 12.2.1 (20241206.2353)
 -->
<!-- Title: include/llzk/Dialect/String/IR/Types.h Pages: 1 -->
<svg width="384pt" height="172pt"
 viewBox="0.00 0.00 384.38 171.50" xmlns="http://www.w3.org/2000/svg" xmlns:xlink="http://www.w3.org/1999/xlink">
<g id="graph0" class="graph" transform="scale(1 1) rotate(0) translate(4 167.5)">
<title>include/llzk/Dialect/String/IR/Types.h</title>
<!-- Node1 -->
<g id="Node000001" class="node">
<title>Node1</title>
<g id="a_Node000001"><a xlink:title=" ">
<polygon fill="#999999" stroke="#666666" points="268,-163.5 169.5,-163.5 169.5,-133 268,-133 268,-163.5"/>
<text text-anchor="start" x="177.5" y="-150" font-family="Helvetica,sans-Serif" font-size="10.00">include/llzk/Dialect</text>
<text text-anchor="middle" x="218.75" y="-138.75" font-family="Helvetica,sans-Serif" font-size="10.00">/String/IR/Types.h</text>
</a>
</g>
</g>
<!-- Node2 -->
<g id="Node000002" class="node">
<title>Node2</title>
<g id="a_Node000002"><a xlink:href="_string_2_i_r_2_dialect_8h.html" target="_top" xlink:title=" ">
<polygon fill="white" stroke="#666666" points="154.38,-97 61.12,-97 61.12,-66.5 154.38,-66.5 154.38,-97"/>
<text text-anchor="start" x="69.12" y="-83.5" font-family="Helvetica,sans-Serif" font-size="10.00">llzk/Dialect/String</text>
<text text-anchor="middle" x="107.75" y="-72.25" font-family="Helvetica,sans-Serif" font-size="10.00">/IR/Dialect.h</text>
</a>
</g>
</g>
<!-- Node1&#45;&gt;Node2 -->
<g id="edge1_Node000001_Node000002" class="edge">
<title>Node1&#45;&gt;Node2</title>
<g id="a_edge1_Node000001_Node000002"><a xlink:title=" ">
<path fill="none" stroke="#63b8ff" d="M193.56,-132.61C178.52,-123.87 159.19,-112.64 142.69,-103.05"/>
<polygon fill="#63b8ff" stroke="#63b8ff" points="144.55,-100.09 134.15,-98.09 141.03,-106.14 144.55,-100.09"/>
</a>
</g>
</g>
<!-- Node5 -->
<g id="Node000005" class="node">
<title>Node5</title>
<g id="a_Node000005"><a xlink:href="_string_2_i_r_2_ops_8h_8inc.html" target="_top" xlink:title=" ">
<polygon fill="white" stroke="#666666" points="265.38,-97 172.12,-97 172.12,-66.5 265.38,-66.5 265.38,-97"/>
<text text-anchor="start" x="180.12" y="-83.5" font-family="Helvetica,sans-Serif" font-size="10.00">llzk/Dialect/String</text>
<text text-anchor="middle" x="218.75" y="-72.25" font-family="Helvetica,sans-Serif" font-size="10.00">/IR/Ops.h.inc</text>
</a>
</g>
</g>
<!-- Node1&#45;&gt;Node5 -->
<g id="edge4_Node000001_Node000005" class="edge">
<title>Node1&#45;&gt;Node5</title>
<g id="a_edge4_Node000001_Node000005"><a xlink:title=" ">
<path fill="none" stroke="#63b8ff" d="M218.75,-132.61C218.75,-125.52 218.75,-116.79 218.75,-108.63"/>
<polygon fill="#63b8ff" stroke="#63b8ff" points="222.25,-108.84 218.75,-98.84 215.25,-108.84 222.25,-108.84"/>
</a>
</g>
</g>
<!-- Node6 -->
<g id="Node000006" class="node">
<title>Node6</title>
<g id="a_Node000006"><a xlink:href="_string_2_i_r_2_types_8h_8inc.html" target="_top" xlink:title=" ">
<polygon fill="white" stroke="#666666" points="376.38,-97 283.12,-97 283.12,-66.5 376.38,-66.5 376.38,-97"/>
<text text-anchor="start" x="291.12" y="-83.5" font-family="Helvetica,sans-Serif" font-size="10.00">llzk/Dialect/String</text>
<text text-anchor="middle" x="329.75" y="-72.25" font-family="Helvetica,sans-Serif" font-size="10.00">/IR/Types.h.inc</text>
</a>
</g>
</g>
<!-- Node1&#45;&gt;Node6 -->
<g id="edge5_Node000001_Node000006" class="edge">
<title>Node1&#45;&gt;Node6</title>
<g id="a_edge5_Node000001_Node000006"><a xlink:title=" ">
<path fill="none" stroke="#63b8ff" d="M243.94,-132.61C258.98,-123.87 278.31,-112.64 294.81,-103.05"/>
<polygon fill="#63b8ff" stroke="#63b8ff" points="296.47,-106.14 303.35,-98.09 292.95,-100.09 296.47,-106.14"/>
</a>
</g>
</g>
<!-- Node3 -->
<g id="Node000003" class="node">
<title>Node3</title>
<g id="a_Node000003"><a xlink:title=" ">
<polygon fill="#e0e0e0" stroke="#999999" points="101.5,-24.88 0,-24.88 0,-5.63 101.5,-5.63 101.5,-24.88"/>
<text text-anchor="middle" x="50.75" y="-11.38" font-family="Helvetica,sans-Serif" font-size="10.00">mlir/IR/BuiltinOps.h</text>
</a>
</g>
</g>
<!-- Node2&#45;&gt;Node3 -->
<g id="edge2_Node000002_Node000003" class="edge">
<title>Node2&#45;&gt;Node3</title>
<g id="a_edge2_Node000002_Node000003"><a xlink:title=" ">
<path fill="none" stroke="#63b8ff" d="M94.82,-66.11C86.27,-56.44 75.02,-43.71 66.03,-33.54"/>
<polygon fill="#63b8ff" stroke="#63b8ff" points="68.79,-31.38 59.55,-26.21 63.55,-36.02 68.79,-31.38"/>
</a>
</g>
</g>
<!-- Node4 -->
<g id="Node000004" class="node">
<title>Node4</title>
<g id="a_Node000004"><a xlink:href="_string_2_i_r_2_dialect_8h_8inc.html" target="_top" xlink:title=" ">
<polygon fill="white" stroke="#666666" points="212.38,-30.5 119.12,-30.5 119.12,0 212.38,0 212.38,-30.5"/>
<text text-anchor="start" x="127.12" y="-17" font-family="Helvetica,sans-Serif" font-size="10.00">llzk/Dialect/String</text>
<text text-anchor="middle" x="165.75" y="-5.75" font-family="Helvetica,sans-Serif" font-size="10.00">/IR/Dialect.h.inc</text>
</a>
</g>
</g>
<!-- Node2&#45;&gt;Node4 -->
<g id="edge3_Node000002_Node000004" class="edge">
<title>Node2&#45;&gt;Node4</title>
<g id="a_edge3_Node000002_Node000004"><a xlink:title=" ">
<path fill="none" stroke="#63b8ff" d="M120.91,-66.11C128.03,-58.2 136.99,-48.24 145.02,-39.3"/>
<polygon fill="#63b8ff" stroke="#63b8ff" points="147.55,-41.73 151.63,-31.95 142.34,-37.05 147.55,-41.73"/>
</a>
</g>
</g>
</g>
</svg>
