<?xml version="1.0" encoding="UTF-8" standalone="no"?>
<!DOCTYPE svg PUBLIC "-//W3C//DTD SVG 1.1//EN"
 "http://www.w3.org/Graphics/SVG/1.1/DTD/svg11.dtd">
<!-- Generated by graphviz version 12.2.1 (20241206.2353)
 -->
<!-- Title: build/include/llzk/Dialect/String/IR/Ops.h.inc Pages: 1 -->
<svg width="572pt" height="238pt"
 viewBox="0.00 0.00 572.12 238.00" xmlns="http://www.w3.org/2000/svg" xmlns:xlink="http://www.w3.org/1999/xlink">
<g id="graph0" class="graph" transform="scale(1 1) rotate(0) translate(4 234)">
<title>build/include/llzk/Dialect/String/IR/Ops.h.inc</title>
<!-- Node1 -->
<g id="Node000001" class="node">
<title>Node1</title>
<g id="a_Node000001"><a xlink:title=" ">
<polygon fill="#999999" stroke="#666666" points="229.38,-230 92.62,-230 92.62,-199.5 229.38,-199.5 229.38,-230"/>
<text text-anchor="start" x="100.62" y="-216.5" font-family="Helvetica,sans-Serif" font-size="10.00">build/include/llzk</text>
<text text-anchor="middle" x="161" y="-205.25" font-family="Helvetica,sans-Serif" font-size="10.00">/Dialect/String/IR/Ops.h.inc</text>
</a>
</g>
</g>
<!-- Node2 -->
<g id="Node000002" class="node">
<title>Node2</title>
<g id="a_Node000002"><a xlink:href="_string_2_i_r_2_ops_8h.html" target="_top" xlink:title=" ">
<polygon fill="white" stroke="#666666" points="122.25,-97 23.75,-97 23.75,-66.5 122.25,-66.5 122.25,-97"/>
<text text-anchor="start" x="31.75" y="-83.5" font-family="Helvetica,sans-Serif" font-size="10.00">include/llzk/Dialect</text>
<text text-anchor="middle" x="73" y="-72.25" font-family="Helvetica,sans-Serif" font-size="10.00">/String/IR/Ops.h</text>
</a>
</g>
</g>
<!-- Node1&#45;&gt;Node2 -->
<g id="edge1_Node000001_Node000002" class="edge">
<title>Node1&#45;&gt;Node2</title>
<g id="a_edge1_Node000001_Node000002"><a xlink:title=" ">
<path fill="none" stroke="#63b8ff" d="M144.87,-189.74C126.72,-162.72 97.82,-119.7 82.8,-97.33"/>
<polygon fill="#63b8ff" stroke="#63b8ff" points="141.92,-191.62 150.4,-197.97 147.73,-187.72 141.92,-191.62"/>
</a>
</g>
</g>
<!-- Node5 -->
<g id="Node000005" class="node">
<title>Node5</title>
<g id="a_Node000005"><a xlink:href="_string_2_i_r_2_types_8h.html" target="_top" xlink:title=" ">
<polygon fill="white" stroke="#666666" points="249.25,-163.5 150.75,-163.5 150.75,-133 249.25,-133 249.25,-163.5"/>
<text text-anchor="start" x="158.75" y="-150" font-family="Helvetica,sans-Serif" font-size="10.00">include/llzk/Dialect</text>
<text text-anchor="middle" x="200" y="-138.75" font-family="Helvetica,sans-Serif" font-size="10.00">/String/IR/Types.h</text>
</a>
</g>
</g>
<!-- Node1&#45;&gt;Node5 -->
<g id="edge4_Node000001_Node000005" class="edge">
<title>Node1&#45;&gt;Node5</title>
<g id="a_edge4_Node000001_Node000005"><a xlink:title=" ">
<path fill="none" stroke="#63b8ff" d="M175.66,-189.51C180.88,-180.87 186.6,-171.41 191.19,-163.83"/>
<polygon fill="#63b8ff" stroke="#63b8ff" points="172.81,-187.45 170.63,-197.82 178.8,-191.07 172.81,-187.45"/>
</a>
</g>
</g>
<!-- Node3 -->
<g id="Node000003" class="node">
<title>Node3</title>
<g id="a_Node000003"><a xlink:href="_string_2_i_r_2_dialect_8cpp.html" target="_top" xlink:title=" ">
<polygon fill="white" stroke="#666666" points="194,-30.5 106,-30.5 106,0 194,0 194,-30.5"/>
<text text-anchor="start" x="114" y="-17" font-family="Helvetica,sans-Serif" font-size="10.00">lib/Dialect/String</text>
<text text-anchor="middle" x="150" y="-5.75" font-family="Helvetica,sans-Serif" font-size="10.00">/IR/Dialect.cpp</text>
</a>
</g>
</g>
<!-- Node2&#45;&gt;Node3 -->
<g id="edge2_Node000002_Node000003" class="edge">
<title>Node2&#45;&gt;Node3</title>
<g id="a_edge2_Node000002_Node000003"><a xlink:title=" ">
<path fill="none" stroke="#63b8ff" d="M99.27,-58.74C110.28,-49.53 122.76,-39.06 132.6,-30.83"/>
<polygon fill="#63b8ff" stroke="#63b8ff" points="97.05,-56.04 91.63,-65.14 101.55,-61.4 97.05,-56.04"/>
</a>
</g>
</g>
<!-- Node4 -->
<g id="Node000004" class="node">
<title>Node4</title>
<g id="a_Node000004"><a xlink:href="_string_2_i_r_2_ops_8cpp.html" target="_top" xlink:title=" ">
<polygon fill="white" stroke="#666666" points="88,-30.5 0,-30.5 0,0 88,0 88,-30.5"/>
<text text-anchor="start" x="8" y="-17" font-family="Helvetica,sans-Serif" font-size="10.00">lib/Dialect/String</text>
<text text-anchor="middle" x="44" y="-5.75" font-family="Helvetica,sans-Serif" font-size="10.00">/IR/Ops.cpp</text>
</a>
</g>
</g>
<!-- Node2&#45;&gt;Node4 -->
<g id="edge3_Node000002_Node000004" class="edge">
<title>Node2&#45;&gt;Node4</title>
<g id="a_edge3_Node000002_Node000004"><a xlink:title=" ">
<path fill="none" stroke="#63b8ff" d="M61.72,-55.66C57.94,-47.25 53.85,-38.16 50.55,-30.83"/>
<polygon fill="#63b8ff" stroke="#63b8ff" points="58.51,-57.05 65.8,-64.73 64.89,-54.18 58.51,-57.05"/>
</a>
</g>
</g>
<!-- Node5&#45;&gt;Node2 -->
<g id="edge5_Node000005_Node000002" class="edge">
<title>Node5&#45;&gt;Node2</title>
<g id="a_edge5_Node000005_Node000002"><a xlink:title=" ">
<path fill="none" stroke="#63b8ff" d="M160.97,-127.43C141.84,-117.71 119.22,-106.22 101.7,-97.33"/>
<polygon fill="#63b8ff" stroke="#63b8ff" points="159.33,-130.52 169.83,-131.93 162.5,-124.28 159.33,-130.52"/>
</a>
</g>
</g>
<!-- Node5&#45;&gt;Node3 -->
<g id="edge8_Node000005_Node000003" class="edge">
<title>Node5&#45;&gt;Node3</title>
<g id="a_edge8_Node000005_Node000003"><a xlink:title=" ">
<path fill="none" stroke="#63b8ff" d="M182.93,-123.1C177.86,-115.09 172.69,-105.93 169,-97 159.87,-74.91 154.59,-47.51 152.01,-30.98"/>
<polygon fill="#63b8ff" stroke="#63b8ff" points="179.89,-124.86 188.33,-131.28 185.73,-121 179.89,-124.86"/>
</a>
</g>
</g>
<!-- Node6 -->
<g id="Node000006" class="node">
<title>Node6</title>
<g id="a_Node000006"><a xlink:href="_constrain_ref_8cpp.html" target="_top" xlink:title=" ">
<polygon fill="white" stroke="#666666" points="323.88,-91.38 178.12,-91.38 178.12,-72.12 323.88,-72.12 323.88,-91.38"/>
<text text-anchor="middle" x="251" y="-77.88" font-family="Helvetica,sans-Serif" font-size="10.00">lib/Analysis/ConstrainRef.cpp</text>
</a>
</g>
</g>
<!-- Node5&#45;&gt;Node6 -->
<g id="edge6_Node000005_Node000006" class="edge">
<title>Node5&#45;&gt;Node6</title>
<g id="a_edge6_Node000005_Node000006"><a xlink:title=" ">
<path fill="none" stroke="#63b8ff" d="M218.62,-123.7C227.46,-112.52 237.5,-99.82 244.02,-91.57"/>
<polygon fill="#63b8ff" stroke="#63b8ff" points="215.97,-121.41 212.51,-131.43 221.46,-125.75 215.97,-121.41"/>
</a>
</g>
</g>
<!-- Node7 -->
<g id="Node000007" class="node">
<title>Node7</title>
<g id="a_Node000007"><a xlink:href="_global_2_i_r_2_ops_8cpp.html" target="_top" xlink:title=" ">
<polygon fill="white" stroke="#666666" points="432.12,-97 341.88,-97 341.88,-66.5 432.12,-66.5 432.12,-97"/>
<text text-anchor="start" x="349.88" y="-83.5" font-family="Helvetica,sans-Serif" font-size="10.00">lib/Dialect/Global</text>
<text text-anchor="middle" x="387" y="-72.25" font-family="Helvetica,sans-Serif" font-size="10.00">/IR/Ops.cpp</text>
</a>
</g>
</g>
<!-- Node5&#45;&gt;Node7 -->
<g id="edge7_Node000005_Node000007" class="edge">
<title>Node5&#45;&gt;Node7</title>
<g id="a_edge7_Node000005_Node000007"><a xlink:title=" ">
<path fill="none" stroke="#63b8ff" d="M253.17,-128.91C282.07,-118.94 317.34,-106.78 344.41,-97.44"/>
<polygon fill="#63b8ff" stroke="#63b8ff" points="252.18,-125.55 243.86,-132.12 254.46,-132.17 252.18,-125.55"/>
</a>
</g>
</g>
<!-- Node8 -->
<g id="Node000008" class="node">
<title>Node8</title>
<g id="a_Node000008"><a xlink:href="_type_helper_8cpp.html" target="_top" xlink:title=" ">
<polygon fill="white" stroke="#666666" points="564.12,-91.38 449.88,-91.38 449.88,-72.12 564.12,-72.12 564.12,-91.38"/>
<text text-anchor="middle" x="507" y="-77.88" font-family="Helvetica,sans-Serif" font-size="10.00">lib/Util/TypeHelper.cpp</text>
</a>
</g>
</g>
<!-- Node5&#45;&gt;Node8 -->
<g id="edge9_Node000005_Node000008" class="edge">
<title>Node5&#45;&gt;Node8</title>
<g id="a_edge9_Node000005_Node000008"><a xlink:title=" ">
<path fill="none" stroke="#63b8ff" d="M260.4,-134.78C309.16,-124.68 379.52,-110.05 441,-97 448.8,-95.35 457.11,-93.56 465.11,-91.84"/>
<polygon fill="#63b8ff" stroke="#63b8ff" points="259.97,-131.29 250.89,-136.75 261.39,-138.15 259.97,-131.29"/>
</a>
</g>
</g>
</g>
</svg>
