<?xml version="1.0" encoding="UTF-8" standalone="no"?>
<!DOCTYPE svg PUBLIC "-//W3C//DTD SVG 1.1//EN"
 "http://www.w3.org/Graphics/SVG/1.1/DTD/svg11.dtd">
<!-- Generated by graphviz version 12.2.1 (20241206.2353)
 -->
<!-- Title: lib/Dialect/Struct/IR/Types.cpp Pages: 1 -->
<svg width="1846pt" height="360pt"
 viewBox="0.00 0.00 1846.25 359.75" xmlns="http://www.w3.org/2000/svg" xmlns:xlink="http://www.w3.org/1999/xlink">
<g id="graph0" class="graph" transform="scale(1 1) rotate(0) translate(4 355.75)">
<title>lib/Dialect/Struct/IR/Types.cpp</title>
<!-- Node1 -->
<g id="Node000001" class="node">
<title>Node1</title>
<g id="a_Node000001"><a xlink:title=" ">
<polygon fill="#999999" stroke="#666666" points="710.38,-351.75 621.62,-351.75 621.62,-321.25 710.38,-321.25 710.38,-351.75"/>
<text text-anchor="start" x="629.62" y="-338.25" font-family="Helvetica,sans-Serif" font-size="10.00">lib/Dialect/Struct</text>
<text text-anchor="middle" x="666" y="-327" font-family="Helvetica,sans-Serif" font-size="10.00">/IR/Types.cpp</text>
</a>
</g>
</g>
<!-- Node2 -->
<g id="Node000002" class="node">
<title>Node2</title>
<g id="a_Node000002"><a xlink:href="_attribute_helper_8h.html" target="_top" xlink:title=" ">
<polygon fill="white" stroke="#666666" points="606.25,-285.25 501.75,-285.25 501.75,-254.75 606.25,-254.75 606.25,-285.25"/>
<text text-anchor="start" x="509.75" y="-271.75" font-family="Helvetica,sans-Serif" font-size="10.00">llzk/Dialect/LLZK/IR</text>
<text text-anchor="middle" x="554" y="-260.5" font-family="Helvetica,sans-Serif" font-size="10.00">/AttributeHelper.h</text>
</a>
</g>
</g>
<!-- Node1&#45;&gt;Node2 -->
<g id="edge1_Node000001_Node000002" class="edge">
<title>Node1&#45;&gt;Node2</title>
<g id="a_edge1_Node000001_Node000002"><a xlink:title=" ">
<path fill="none" stroke="#63b8ff" d="M640.59,-320.86C625.41,-312.12 605.9,-300.89 589.25,-291.3"/>
<polygon fill="#63b8ff" stroke="#63b8ff" points="591.04,-288.29 580.63,-286.33 587.54,-294.36 591.04,-288.29"/>
</a>
</g>
</g>
<!-- Node5 -->
<g id="Node000005" class="node">
<title>Node5</title>
<g id="a_Node000005"><a xlink:href="_struct_2_i_r_2_ops_8h.html" target="_top" xlink:title=" ">
<polygon fill="white" stroke="#666666" points="998,-285.25 904,-285.25 904,-254.75 998,-254.75 998,-285.25"/>
<text text-anchor="start" x="912" y="-271.75" font-family="Helvetica,sans-Serif" font-size="10.00">llzk/Dialect/Struct</text>
<text text-anchor="middle" x="951" y="-260.5" font-family="Helvetica,sans-Serif" font-size="10.00">/IR/Ops.h</text>
</a>
</g>
</g>
<!-- Node1&#45;&gt;Node5 -->
<g id="edge4_Node000001_Node000005" class="edge">
<title>Node1&#45;&gt;Node5</title>
<g id="a_edge4_Node000001_Node000005"><a xlink:title=" ">
<path fill="none" stroke="#63b8ff" d="M710.84,-325.35C759.87,-314.26 838.61,-296.44 892.47,-284.25"/>
<polygon fill="#63b8ff" stroke="#63b8ff" points="893.11,-287.69 902.09,-282.07 891.57,-280.86 893.11,-287.69"/>
</a>
</g>
</g>
<!-- Node22 -->
<g id="Node000022" class="node">
<title>Node22</title>
<g id="a_Node000022"><a xlink:href="_struct_2_i_r_2_types_8h.html" target="_top" xlink:title=" ">
<polygon fill="white" stroke="#666666" points="713,-218.75 619,-218.75 619,-188.25 713,-188.25 713,-218.75"/>
<text text-anchor="start" x="627" y="-205.25" font-family="Helvetica,sans-Serif" font-size="10.00">llzk/Dialect/Struct</text>
<text text-anchor="middle" x="666" y="-194" font-family="Helvetica,sans-Serif" font-size="10.00">/IR/Types.h</text>
</a>
</g>
</g>
<!-- Node1&#45;&gt;Node22 -->
<g id="edge50_Node000001_Node000022" class="edge">
<title>Node1&#45;&gt;Node22</title>
<g id="a_edge50_Node000001_Node000022"><a xlink:title=" ">
<path fill="none" stroke="#63b8ff" d="M666,-320.98C666,-299.14 666,-257.52 666,-230.4"/>
<polygon fill="#63b8ff" stroke="#63b8ff" points="669.5,-230.6 666,-220.6 662.5,-230.6 669.5,-230.6"/>
</a>
</g>
</g>
<!-- Node3 -->
<g id="Node000003" class="node">
<title>Node3</title>
<g id="a_Node000003"><a xlink:title=" ">
<polygon fill="#e0e0e0" stroke="#999999" points="489,-213.12 335,-213.12 335,-193.88 489,-193.88 489,-213.12"/>
<text text-anchor="middle" x="412" y="-199.62" font-family="Helvetica,sans-Serif" font-size="10.00">mlir/IR/DialectImplementation.h</text>
</a>
</g>
</g>
<!-- Node2&#45;&gt;Node3 -->
<g id="edge2_Node000002_Node000003" class="edge">
<title>Node2&#45;&gt;Node3</title>
<g id="a_edge2_Node000002_Node000003"><a xlink:title=" ">
<path fill="none" stroke="#63b8ff" d="M521.78,-254.36C497.9,-243.52 465.59,-228.84 442.2,-218.22"/>
<polygon fill="#63b8ff" stroke="#63b8ff" points="443.77,-215.08 433.21,-214.14 440.87,-221.46 443.77,-215.08"/>
</a>
</g>
</g>
<!-- Node4 -->
<g id="Node000004" class="node">
<title>Node4</title>
<g id="a_Node000004"><a xlink:title=" ">
<polygon fill="#e0e0e0" stroke="#999999" points="600.62,-213.12 507.38,-213.12 507.38,-193.88 600.62,-193.88 600.62,-213.12"/>
<text text-anchor="middle" x="554" y="-199.62" font-family="Helvetica,sans-Serif" font-size="10.00">llvm/ADT/APInt.h</text>
</a>
</g>
</g>
<!-- Node2&#45;&gt;Node4 -->
<g id="edge3_Node000002_Node000004" class="edge">
<title>Node2&#45;&gt;Node4</title>
<g id="a_edge3_Node000002_Node000004"><a xlink:title=" ">
<path fill="none" stroke="#63b8ff" d="M554,-254.36C554,-245.58 554,-234.27 554,-224.65"/>
<polygon fill="#63b8ff" stroke="#63b8ff" points="557.5,-224.84 554,-214.84 550.5,-224.84 557.5,-224.84"/>
</a>
</g>
</g>
<!-- Node6 -->
<g id="Node000006" class="node">
<title>Node6</title>
<g id="a_Node000006"><a xlink:href="_op_traits_8h.html" target="_top" xlink:title=" ">
<polygon fill="white" stroke="#666666" points="1003.62,-218.75 898.38,-218.75 898.38,-188.25 1003.62,-188.25 1003.62,-218.75"/>
<text text-anchor="start" x="906.38" y="-205.25" font-family="Helvetica,sans-Serif" font-size="10.00">llzk/Dialect/Function</text>
<text text-anchor="middle" x="951" y="-194" font-family="Helvetica,sans-Serif" font-size="10.00">/IR/OpTraits.h</text>
</a>
</g>
</g>
<!-- Node5&#45;&gt;Node6 -->
<g id="edge5_Node000005_Node000006" class="edge">
<title>Node5&#45;&gt;Node6</title>
<g id="a_edge5_Node000005_Node000006"><a xlink:title=" ">
<path fill="none" stroke="#63b8ff" d="M951,-254.36C951,-247.27 951,-238.54 951,-230.38"/>
<polygon fill="#63b8ff" stroke="#63b8ff" points="954.5,-230.59 951,-220.59 947.5,-230.59 954.5,-230.59"/>
</a>
</g>
</g>
<!-- Node10 -->
<g id="Node000010" class="node">
<title>Node10</title>
<g id="a_Node000010"><a xlink:href="_l_l_z_k_2_i_r_2_attrs_8h.html" target="_top" xlink:title=" ">
<polygon fill="white" stroke="#666666" points="1721.25,-218.75 1616.75,-218.75 1616.75,-188.25 1721.25,-188.25 1721.25,-218.75"/>
<text text-anchor="start" x="1624.75" y="-205.25" font-family="Helvetica,sans-Serif" font-size="10.00">llzk/Dialect/LLZK/IR</text>
<text text-anchor="middle" x="1669" y="-194" font-family="Helvetica,sans-Serif" font-size="10.00">/Attrs.h</text>
</a>
</g>
</g>
<!-- Node5&#45;&gt;Node10 -->
<g id="edge9_Node000005_Node000010" class="edge">
<title>Node5&#45;&gt;Node10</title>
<g id="a_edge9_Node000005_Node000010"><a xlink:title=" ">
<path fill="none" stroke="#63b8ff" d="M998.39,-264.74C1123.63,-253.49 1463.5,-222.96 1605.41,-210.21"/>
<polygon fill="#63b8ff" stroke="#63b8ff" points="1605.34,-213.73 1614.99,-209.35 1604.72,-206.76 1605.34,-213.73"/>
</a>
</g>
</g>
<!-- Node13 -->
<g id="Node000013" class="node">
<title>Node13</title>
<g id="a_Node000013"><a xlink:href="_op_helpers_8h.html" target="_top" xlink:title=" ">
<polygon fill="white" stroke="#666666" points="1313.25,-218.75 1214.75,-218.75 1214.75,-188.25 1313.25,-188.25 1313.25,-218.75"/>
<text text-anchor="start" x="1222.75" y="-205.25" font-family="Helvetica,sans-Serif" font-size="10.00">llzk/Dialect/Shared</text>
<text text-anchor="middle" x="1264" y="-194" font-family="Helvetica,sans-Serif" font-size="10.00">/OpHelpers.h</text>
</a>
</g>
</g>
<!-- Node5&#45;&gt;Node13 -->
<g id="edge12_Node000005_Node000013" class="edge">
<title>Node5&#45;&gt;Node13</title>
<g id="a_edge12_Node000005_Node000013"><a xlink:title=" ">
<path fill="none" stroke="#63b8ff" d="M998.2,-259.27C1052.91,-248 1143.21,-229.39 1203.15,-217.04"/>
<polygon fill="#63b8ff" stroke="#63b8ff" points="1203.78,-220.48 1212.86,-215.04 1202.36,-213.63 1203.78,-220.48"/>
</a>
</g>
</g>
<!-- Node5&#45;&gt;Node22 -->
<g id="edge25_Node000005_Node000022" class="edge">
<title>Node5&#45;&gt;Node22</title>
<g id="a_edge25_Node000005_Node000022"><a xlink:title=" ">
<path fill="none" stroke="#63b8ff" d="M903.62,-258.28C854.41,-247.14 777.35,-229.7 724.41,-217.72"/>
<polygon fill="#63b8ff" stroke="#63b8ff" points="725.5,-214.38 714.97,-215.58 723.95,-221.2 725.5,-214.38"/>
</a>
</g>
</g>
<!-- Node37 -->
<g id="Node000037" class="node">
<title>Node37</title>
<g id="a_Node000037"><a xlink:href="_struct_2_i_r_2_ops_8h_8inc.html" target="_top" xlink:title=" ">
<polygon fill="white" stroke="#666666" points="713,-152.25 619,-152.25 619,-121.75 713,-121.75 713,-152.25"/>
<text text-anchor="start" x="627" y="-138.75" font-family="Helvetica,sans-Serif" font-size="10.00">llzk/Dialect/Struct</text>
<text text-anchor="middle" x="666" y="-127.5" font-family="Helvetica,sans-Serif" font-size="10.00">/IR/Ops.h.inc</text>
</a>
</g>
</g>
<!-- Node5&#45;&gt;Node37 -->
<g id="edge49_Node000005_Node000037" class="edge">
<title>Node5&#45;&gt;Node37</title>
<g id="a_edge49_Node000005_Node000037"><a xlink:title=" ">
<path fill="none" stroke="#63b8ff" d="M919.14,-254.35C867.45,-230.6 765.33,-183.66 707.85,-157.24"/>
<polygon fill="#63b8ff" stroke="#63b8ff" points="709.58,-154.18 699.03,-153.18 706.66,-160.54 709.58,-154.18"/>
</a>
</g>
</g>
<!-- Node39 -->
<g id="Node000039" class="node">
<title>Node39</title>
<g id="a_Node000039"><a xlink:href="_struct_2_i_r_2_op_interfaces_8h_8inc.html" target="_top" xlink:title=" ">
<polygon fill="white" stroke="#666666" points="1134.38,-218.75 1021.62,-218.75 1021.62,-188.25 1134.38,-188.25 1134.38,-218.75"/>
<text text-anchor="start" x="1029.62" y="-205.25" font-family="Helvetica,sans-Serif" font-size="10.00">llzk/Dialect/Struct</text>
<text text-anchor="middle" x="1078" y="-194" font-family="Helvetica,sans-Serif" font-size="10.00">/IR/OpInterfaces.h.inc</text>
</a>
</g>
</g>
<!-- Node5&#45;&gt;Node39 -->
<g id="edge48_Node000005_Node000039" class="edge">
<title>Node5&#45;&gt;Node39</title>
<g id="a_edge48_Node000005_Node000039"><a xlink:title=" ">
<path fill="none" stroke="#63b8ff" d="M979.82,-254.36C997.36,-245.46 1019.98,-233.97 1039.09,-224.26"/>
<polygon fill="#63b8ff" stroke="#63b8ff" points="1040.62,-227.41 1047.95,-219.76 1037.45,-221.17 1040.62,-227.41"/>
</a>
</g>
</g>
<!-- Node7 -->
<g id="Node000007" class="node">
<title>Node7</title>
<g id="a_Node000007"><a xlink:title=" ">
<polygon fill="#e0e0e0" stroke="#999999" points="841.25,-146.62 730.75,-146.62 730.75,-127.38 841.25,-127.38 841.25,-146.62"/>
<text text-anchor="middle" x="786" y="-133.12" font-family="Helvetica,sans-Serif" font-size="10.00">mlir/IR/OpDefinition.h</text>
</a>
</g>
</g>
<!-- Node6&#45;&gt;Node7 -->
<g id="edge6_Node000006_Node000007" class="edge">
<title>Node6&#45;&gt;Node7</title>
<g id="a_edge6_Node000006_Node000007"><a xlink:title=" ">
<path fill="none" stroke="#63b8ff" d="M913.56,-187.86C885.31,-176.82 846.9,-161.81 819.63,-151.15"/>
<polygon fill="#63b8ff" stroke="#63b8ff" points="821.05,-147.94 810.46,-147.56 818.5,-154.46 821.05,-147.94"/>
</a>
</g>
</g>
<!-- Node8 -->
<g id="Node000008" class="node">
<title>Node8</title>
<g id="a_Node000008"><a xlink:title=" ">
<polygon fill="#e0e0e0" stroke="#999999" points="1296.25,-80.12 1197.75,-80.12 1197.75,-60.88 1296.25,-60.88 1296.25,-80.12"/>
<text text-anchor="middle" x="1247" y="-66.62" font-family="Helvetica,sans-Serif" font-size="10.00">mlir/IR/Operation.h</text>
</a>
</g>
</g>
<!-- Node6&#45;&gt;Node8 -->
<g id="edge7_Node000006_Node000008" class="edge">
<title>Node6&#45;&gt;Node8</title>
<g id="a_edge7_Node000006_Node000008"><a xlink:title=" ">
<path fill="none" stroke="#63b8ff" d="M975.25,-187.92C991.09,-178.19 1012.08,-164.91 1030,-152.25 1047.97,-139.55 1049.38,-131.7 1069,-121.75 1080.92,-115.7 1152.65,-96.26 1201.34,-83.41"/>
<polygon fill="#63b8ff" stroke="#63b8ff" points="1202.01,-86.85 1210.79,-80.92 1200.23,-80.08 1202.01,-86.85"/>
</a>
</g>
</g>
<!-- Node9 -->
<g id="Node000009" class="node">
<title>Node9</title>
<g id="a_Node000009"><a xlink:title=" ">
<polygon fill="#e0e0e0" stroke="#999999" points="1216.5,-146.62 1077.5,-146.62 1077.5,-127.38 1216.5,-127.38 1216.5,-146.62"/>
<text text-anchor="middle" x="1147" y="-133.12" font-family="Helvetica,sans-Serif" font-size="10.00">mlir/Support/LogicalResult.h</text>
</a>
</g>
</g>
<!-- Node6&#45;&gt;Node9 -->
<g id="edge8_Node000006_Node000009" class="edge">
<title>Node6&#45;&gt;Node9</title>
<g id="a_edge8_Node000006_Node000009"><a xlink:title=" ">
<path fill="none" stroke="#63b8ff" d="M995.48,-187.86C1029.52,-176.66 1076.01,-161.36 1108.48,-150.68"/>
<polygon fill="#63b8ff" stroke="#63b8ff" points="1109.49,-154.03 1117.9,-147.58 1107.3,-147.38 1109.49,-154.03"/>
</a>
</g>
</g>
<!-- Node11 -->
<g id="Node000011" class="node">
<title>Node11</title>
<g id="a_Node000011"><a xlink:title=" ">
<polygon fill="#e0e0e0" stroke="#999999" points="1838.25,-146.62 1739.75,-146.62 1739.75,-127.38 1838.25,-127.38 1838.25,-146.62"/>
<text text-anchor="middle" x="1789" y="-133.12" font-family="Helvetica,sans-Serif" font-size="10.00">mlir/IR/Attributes.h</text>
</a>
</g>
</g>
<!-- Node10&#45;&gt;Node11 -->
<g id="edge10_Node000010_Node000011" class="edge">
<title>Node10&#45;&gt;Node11</title>
<g id="a_edge10_Node000010_Node000011"><a xlink:title=" ">
<path fill="none" stroke="#63b8ff" d="M1696.23,-187.86C1715.95,-177.26 1742.48,-163 1762.12,-152.45"/>
<polygon fill="#63b8ff" stroke="#63b8ff" points="1763.75,-155.54 1770.9,-147.73 1760.44,-149.38 1763.75,-155.54"/>
</a>
</g>
</g>
<!-- Node12 -->
<g id="Node000012" class="node">
<title>Node12</title>
<g id="a_Node000012"><a xlink:href="_l_l_z_k_2_i_r_2_attrs_8h_8inc.html" target="_top" xlink:title=" ">
<polygon fill="white" stroke="#666666" points="1721.25,-152.25 1616.75,-152.25 1616.75,-121.75 1721.25,-121.75 1721.25,-152.25"/>
<text text-anchor="start" x="1624.75" y="-138.75" font-family="Helvetica,sans-Serif" font-size="10.00">llzk/Dialect/LLZK/IR</text>
<text text-anchor="middle" x="1669" y="-127.5" font-family="Helvetica,sans-Serif" font-size="10.00">/Attrs.h.inc</text>
</a>
</g>
</g>
<!-- Node10&#45;&gt;Node12 -->
<g id="edge11_Node000010_Node000012" class="edge">
<title>Node10&#45;&gt;Node12</title>
<g id="a_edge11_Node000010_Node000012"><a xlink:title=" ">
<path fill="none" stroke="#63b8ff" d="M1669,-187.86C1669,-180.77 1669,-172.04 1669,-163.88"/>
<polygon fill="#63b8ff" stroke="#63b8ff" points="1672.5,-164.09 1669,-154.09 1665.5,-164.09 1672.5,-164.09"/>
</a>
</g>
</g>
<!-- Node13&#45;&gt;Node8 -->
<g id="edge21_Node000013_Node000008" class="edge">
<title>Node13&#45;&gt;Node8</title>
<g id="a_edge21_Node000013_Node000008"><a xlink:title=" ">
<path fill="none" stroke="#63b8ff" d="M1263.85,-187.83C1263.51,-171.59 1262.42,-144.67 1259,-121.75 1257.49,-111.63 1254.94,-100.54 1252.58,-91.37"/>
<polygon fill="#63b8ff" stroke="#63b8ff" points="1255.97,-90.51 1249.99,-81.77 1249.22,-92.33 1255.97,-90.51"/>
</a>
</g>
</g>
<!-- Node13&#45;&gt;Node9 -->
<g id="edge22_Node000013_Node000009" class="edge">
<title>Node13&#45;&gt;Node9</title>
<g id="a_edge22_Node000013_Node000009"><a xlink:title=" ">
<path fill="none" stroke="#63b8ff" d="M1237.45,-187.86C1218.22,-177.26 1192.35,-163 1173.2,-152.45"/>
<polygon fill="#63b8ff" stroke="#63b8ff" points="1175.12,-149.5 1164.67,-147.74 1171.74,-155.63 1175.12,-149.5"/>
</a>
</g>
</g>
<!-- Node14 -->
<g id="Node000014" class="node">
<title>Node14</title>
<g id="a_Node000014"><a xlink:href="_affine_helper_8h.html" target="_top" xlink:title=" ">
<polygon fill="white" stroke="#666666" points="1598.75,-146.62 1485.25,-146.62 1485.25,-127.38 1598.75,-127.38 1598.75,-146.62"/>
<text text-anchor="middle" x="1542" y="-133.12" font-family="Helvetica,sans-Serif" font-size="10.00">llzk/Util/AffineHelper.h</text>
</a>
</g>
</g>
<!-- Node13&#45;&gt;Node14 -->
<g id="edge13_Node000013_Node000014" class="edge">
<title>Node13&#45;&gt;Node14</title>
<g id="a_edge13_Node000013_Node000014"><a xlink:title=" ">
<path fill="none" stroke="#63b8ff" d="M1313.7,-190.97C1364.08,-179.28 1441.61,-161.29 1492.07,-149.58"/>
<polygon fill="#63b8ff" stroke="#63b8ff" points="1492.61,-153.05 1501.56,-147.38 1491.03,-146.23 1492.61,-153.05"/>
</a>
</g>
</g>
<!-- Node16 -->
<g id="Node000016" class="node">
<title>Node16</title>
<g id="a_Node000016"><a xlink:title=" ">
<polygon fill="#e0e0e0" stroke="#999999" points="1450,-80.12 1314,-80.12 1314,-60.88 1450,-60.88 1450,-80.12"/>
<text text-anchor="middle" x="1382" y="-66.62" font-family="Helvetica,sans-Serif" font-size="10.00">mlir/IR/OpImplementation.h</text>
</a>
</g>
</g>
<!-- Node13&#45;&gt;Node16 -->
<g id="edge20_Node000013_Node000016" class="edge">
<title>Node13&#45;&gt;Node16</title>
<g id="a_edge20_Node000013_Node000016"><a xlink:title=" ">
<path fill="none" stroke="#63b8ff" d="M1277.08,-187.98C1298.88,-163.77 1342.59,-115.26 1366.12,-89.13"/>
<polygon fill="#63b8ff" stroke="#63b8ff" points="1368.7,-91.5 1372.79,-81.73 1363.5,-86.81 1368.7,-91.5"/>
</a>
</g>
</g>
<!-- Node19 -->
<g id="Node000019" class="node">
<title>Node19</title>
<g id="a_Node000019"><a xlink:href="_constants_8h.html" target="_top" xlink:title=" ">
<polygon fill="white" stroke="#666666" points="1179.62,-80.12 1074.38,-80.12 1074.38,-60.88 1179.62,-60.88 1179.62,-80.12"/>
<text text-anchor="middle" x="1127" y="-66.62" font-family="Helvetica,sans-Serif" font-size="10.00">llzk/Util/Constants.h</text>
</a>
</g>
</g>
<!-- Node13&#45;&gt;Node19 -->
<g id="edge19_Node000013_Node000019" class="edge">
<title>Node13&#45;&gt;Node19</title>
<g id="a_edge19_Node000013_Node000019"><a xlink:title=" ">
<path fill="none" stroke="#63b8ff" d="M1260.32,-187.99C1255.21,-170.4 1244.45,-140.76 1226,-121.75 1209.69,-104.95 1186.56,-92.77 1166.76,-84.62"/>
<polygon fill="#63b8ff" stroke="#63b8ff" points="1168.17,-81.41 1157.58,-81.05 1165.63,-87.94 1168.17,-81.41"/>
</a>
</g>
</g>
<!-- Node20 -->
<g id="Node000020" class="node">
<title>Node20</title>
<g id="a_Node000020"><a xlink:title=" ">
<polygon fill="#e0e0e0" stroke="#999999" points="1467.38,-146.62 1348.62,-146.62 1348.62,-127.38 1467.38,-127.38 1467.38,-146.62"/>
<text text-anchor="middle" x="1408" y="-133.12" font-family="Helvetica,sans-Serif" font-size="10.00">llvm/ADT/SmallString.h</text>
</a>
</g>
</g>
<!-- Node13&#45;&gt;Node20 -->
<g id="edge23_Node000013_Node000020" class="edge">
<title>Node13&#45;&gt;Node20</title>
<g id="a_edge23_Node000013_Node000020"><a xlink:title=" ">
<path fill="none" stroke="#63b8ff" d="M1296.68,-187.86C1321,-176.97 1353.96,-162.21 1377.69,-151.58"/>
<polygon fill="#63b8ff" stroke="#63b8ff" points="1378.81,-154.91 1386.5,-147.63 1375.95,-148.52 1378.81,-154.91"/>
</a>
</g>
</g>
<!-- Node21 -->
<g id="Node000021" class="node">
<title>Node21</title>
<g id="a_Node000021"><a xlink:title=" ">
<polygon fill="#e0e0e0" stroke="#999999" points="858.88,-80.12 749.12,-80.12 749.12,-60.88 858.88,-60.88 858.88,-80.12"/>
<text text-anchor="middle" x="804" y="-66.62" font-family="Helvetica,sans-Serif" font-size="10.00">llvm/ADT/StringRef.h</text>
</a>
</g>
</g>
<!-- Node13&#45;&gt;Node21 -->
<g id="edge24_Node000013_Node000021" class="edge">
<title>Node13&#45;&gt;Node21</title>
<g id="a_edge24_Node000013_Node000021"><a xlink:title=" ">
<path fill="none" stroke="#63b8ff" d="M1214.49,-196.71C1115.76,-185.06 902.55,-159.27 888,-152.25 872.21,-144.64 839.29,-110.31 819.68,-88.94"/>
<polygon fill="#63b8ff" stroke="#63b8ff" points="822.28,-86.59 812.96,-81.55 817.1,-91.3 822.28,-86.59"/>
</a>
</g>
</g>
<!-- Node14&#45;&gt;Node8 -->
<g id="edge16_Node000014_Node000008" class="edge">
<title>Node14&#45;&gt;Node8</title>
<g id="a_edge16_Node000014_Node000008"><a xlink:title=" ">
<path fill="none" stroke="#63b8ff" d="M1500.11,-126.92C1492.11,-125.2 1483.8,-123.41 1476,-121.75 1400.04,-105.55 1380.72,-103.02 1305,-85.75 1301.46,-84.94 1297.81,-84.09 1294.13,-83.22"/>
<polygon fill="#63b8ff" stroke="#63b8ff" points="1295.17,-79.87 1284.63,-80.93 1293.53,-86.67 1295.17,-79.87"/>
</a>
</g>
</g>
<!-- Node15 -->
<g id="Node000015" class="node">
<title>Node15</title>
<g id="a_Node000015"><a xlink:title=" ">
<polygon fill="#e0e0e0" stroke="#999999" points="1559.88,-80.12 1468.12,-80.12 1468.12,-60.88 1559.88,-60.88 1559.88,-80.12"/>
<text text-anchor="middle" x="1514" y="-66.62" font-family="Helvetica,sans-Serif" font-size="10.00">mlir/IR/Builders.h</text>
</a>
</g>
</g>
<!-- Node14&#45;&gt;Node15 -->
<g id="edge14_Node000014_Node000015" class="edge">
<title>Node14&#45;&gt;Node15</title>
<g id="a_edge14_Node000014_Node000015"><a xlink:title=" ">
<path fill="none" stroke="#63b8ff" d="M1538.11,-127.03C1534.05,-117.69 1527.58,-102.78 1522.36,-90.76"/>
<polygon fill="#63b8ff" stroke="#63b8ff" points="1525.66,-89.56 1518.46,-81.78 1519.23,-92.35 1525.66,-89.56"/>
</a>
</g>
</g>
<!-- Node14&#45;&gt;Node16 -->
<g id="edge15_Node000014_Node000016" class="edge">
<title>Node14&#45;&gt;Node16</title>
<g id="a_edge15_Node000014_Node000016"><a xlink:title=" ">
<path fill="none" stroke="#63b8ff" d="M1519.42,-126.9C1492.14,-115.9 1446.04,-97.31 1414.83,-84.74"/>
<polygon fill="#63b8ff" stroke="#63b8ff" points="1416.46,-81.62 1405.87,-81.12 1413.84,-88.11 1416.46,-81.62"/>
</a>
</g>
</g>
<!-- Node17 -->
<g id="Node000017" class="node">
<title>Node17</title>
<g id="a_Node000017"><a xlink:title=" ">
<polygon fill="#e0e0e0" stroke="#999999" points="1686.5,-80.12 1577.5,-80.12 1577.5,-60.88 1686.5,-60.88 1686.5,-80.12"/>
<text text-anchor="middle" x="1632" y="-66.62" font-family="Helvetica,sans-Serif" font-size="10.00">mlir/IR/ValueRange.h</text>
</a>
</g>
</g>
<!-- Node14&#45;&gt;Node17 -->
<g id="edge17_Node000014_Node000017" class="edge">
<title>Node14&#45;&gt;Node17</title>
<g id="a_edge17_Node000014_Node000017"><a xlink:title=" ">
<path fill="none" stroke="#63b8ff" d="M1554.51,-127.03C1568.94,-116.69 1592.91,-99.52 1610.37,-87"/>
<polygon fill="#63b8ff" stroke="#63b8ff" points="1611.98,-90.15 1618.07,-81.48 1607.9,-84.46 1611.98,-90.15"/>
</a>
</g>
</g>
<!-- Node18 -->
<g id="Node000018" class="node">
<title>Node18</title>
<g id="a_Node000018"><a xlink:title=" ">
<polygon fill="#e0e0e0" stroke="#999999" points="1825.5,-80.12 1704.5,-80.12 1704.5,-60.88 1825.5,-60.88 1825.5,-80.12"/>
<text text-anchor="middle" x="1765" y="-66.62" font-family="Helvetica,sans-Serif" font-size="10.00">llvm/ADT/SmallVector.h</text>
</a>
</g>
</g>
<!-- Node14&#45;&gt;Node18 -->
<g id="edge18_Node000014_Node000018" class="edge">
<title>Node14&#45;&gt;Node18</title>
<g id="a_edge18_Node000014_Node000018"><a xlink:title=" ">
<path fill="none" stroke="#63b8ff" d="M1573.48,-126.9C1612.57,-115.59 1679.42,-96.25 1722.89,-83.68"/>
<polygon fill="#63b8ff" stroke="#63b8ff" points="1723.59,-87.12 1732.23,-80.98 1721.65,-80.4 1723.59,-87.12"/>
</a>
</g>
</g>
<!-- Node23 -->
<g id="Node000023" class="node">
<title>Node23</title>
<g id="a_Node000023"><a xlink:href="_struct_2_i_r_2_dialect_8h.html" target="_top" xlink:title=" ">
<polygon fill="white" stroke="#666666" points="210,-152.25 116,-152.25 116,-121.75 210,-121.75 210,-152.25"/>
<text text-anchor="start" x="124" y="-138.75" font-family="Helvetica,sans-Serif" font-size="10.00">llzk/Dialect/Struct</text>
<text text-anchor="middle" x="163" y="-127.5" font-family="Helvetica,sans-Serif" font-size="10.00">/IR/Dialect.h</text>
</a>
</g>
</g>
<!-- Node22&#45;&gt;Node23 -->
<g id="edge26_Node000022_Node000023" class="edge">
<title>Node22&#45;&gt;Node23</title>
<g id="a_edge26_Node000022_Node000023"><a xlink:title=" ">
<path fill="none" stroke="#63b8ff" d="M618.74,-189.99C615.79,-189.36 612.86,-188.77 610,-188.25 471.92,-163.04 307.38,-148.46 221.61,-142.01"/>
<polygon fill="#63b8ff" stroke="#63b8ff" points="222.03,-138.53 211.8,-141.28 221.51,-145.51 222.03,-138.53"/>
</a>
</g>
</g>
<!-- Node26 -->
<g id="Node000026" class="node">
<title>Node26</title>
<g id="a_Node000026"><a xlink:href="_symbol_lookup_8h.html" target="_top" xlink:title="This file defines methods symbol lookup across LLZK operations and included files.">
<polygon fill="white" stroke="#666666" points="1021.38,-146.62 896.62,-146.62 896.62,-127.38 1021.38,-127.38 1021.38,-146.62"/>
<text text-anchor="middle" x="959" y="-133.12" font-family="Helvetica,sans-Serif" font-size="10.00">llzk/Util/SymbolLookup.h</text>
</a>
</g>
</g>
<!-- Node22&#45;&gt;Node26 -->
<g id="edge29_Node000022_Node000026" class="edge">
<title>Node22&#45;&gt;Node26</title>
<g id="a_edge29_Node000022_Node000026"><a xlink:title=" ">
<path fill="none" stroke="#63b8ff" d="M713.4,-192.07C766.32,-180.42 851.73,-161.61 906.6,-149.54"/>
<polygon fill="#63b8ff" stroke="#63b8ff" points="907.33,-152.96 916.34,-147.39 905.83,-146.12 907.33,-152.96"/>
</a>
</g>
</g>
<!-- Node29 -->
<g id="Node000029" class="node">
<title>Node29</title>
<g id="a_Node000029"><a xlink:href="_type_helper_8h.html" target="_top" xlink:title=" ">
<polygon fill="white" stroke="#666666" points="600.5,-146.62 491.5,-146.62 491.5,-127.38 600.5,-127.38 600.5,-146.62"/>
<text text-anchor="middle" x="546" y="-133.12" font-family="Helvetica,sans-Serif" font-size="10.00">llzk/Util/TypeHelper.h</text>
</a>
</g>
</g>
<!-- Node22&#45;&gt;Node29 -->
<g id="edge35_Node000022_Node000029" class="edge">
<title>Node22&#45;&gt;Node29</title>
<g id="a_edge35_Node000022_Node000029"><a xlink:title=" ">
<path fill="none" stroke="#63b8ff" d="M638.77,-187.86C619.05,-177.26 592.52,-163 572.88,-152.45"/>
<polygon fill="#63b8ff" stroke="#63b8ff" points="574.56,-149.38 564.1,-147.73 571.25,-155.54 574.56,-149.38"/>
</a>
</g>
</g>
<!-- Node22&#45;&gt;Node37 -->
<g id="edge46_Node000022_Node000037" class="edge">
<title>Node22&#45;&gt;Node37</title>
<g id="a_edge46_Node000022_Node000037"><a xlink:title=" ">
<path fill="none" stroke="#63b8ff" d="M666,-187.86C666,-180.77 666,-172.04 666,-163.88"/>
<polygon fill="#63b8ff" stroke="#63b8ff" points="669.5,-164.09 666,-154.09 662.5,-164.09 669.5,-164.09"/>
</a>
</g>
</g>
<!-- Node38 -->
<g id="Node000038" class="node">
<title>Node38</title>
<g id="a_Node000038"><a xlink:href="_struct_2_i_r_2_types_8h_8inc.html" target="_top" xlink:title=" ">
<polygon fill="white" stroke="#666666" points="473,-152.25 379,-152.25 379,-121.75 473,-121.75 473,-152.25"/>
<text text-anchor="start" x="387" y="-138.75" font-family="Helvetica,sans-Serif" font-size="10.00">llzk/Dialect/Struct</text>
<text text-anchor="middle" x="426" y="-127.5" font-family="Helvetica,sans-Serif" font-size="10.00">/IR/Types.h.inc</text>
</a>
</g>
</g>
<!-- Node22&#45;&gt;Node38 -->
<g id="edge47_Node000022_Node000038" class="edge">
<title>Node22&#45;&gt;Node38</title>
<g id="a_edge47_Node000022_Node000038"><a xlink:title=" ">
<path fill="none" stroke="#63b8ff" d="M618.58,-189.76C580.04,-179.4 525.5,-164.74 484.29,-153.67"/>
<polygon fill="#63b8ff" stroke="#63b8ff" points="485.35,-150.32 474.78,-151.11 483.53,-157.09 485.35,-150.32"/>
</a>
</g>
</g>
<!-- Node24 -->
<g id="Node000024" class="node">
<title>Node24</title>
<g id="a_Node000024"><a xlink:title=" ">
<polygon fill="#e0e0e0" stroke="#999999" points="213.75,-80.12 112.25,-80.12 112.25,-60.88 213.75,-60.88 213.75,-80.12"/>
<text text-anchor="middle" x="163" y="-66.62" font-family="Helvetica,sans-Serif" font-size="10.00">mlir/IR/BuiltinOps.h</text>
</a>
</g>
</g>
<!-- Node23&#45;&gt;Node24 -->
<g id="edge27_Node000023_Node000024" class="edge">
<title>Node23&#45;&gt;Node24</title>
<g id="a_edge27_Node000023_Node000024"><a xlink:title=" ">
<path fill="none" stroke="#63b8ff" d="M163,-121.36C163,-112.58 163,-101.27 163,-91.65"/>
<polygon fill="#63b8ff" stroke="#63b8ff" points="166.5,-91.84 163,-81.84 159.5,-91.84 166.5,-91.84"/>
</a>
</g>
</g>
<!-- Node25 -->
<g id="Node000025" class="node">
<title>Node25</title>
<g id="a_Node000025"><a xlink:href="_struct_2_i_r_2_dialect_8h_8inc.html" target="_top" xlink:title=" ">
<polygon fill="white" stroke="#666666" points="94,-85.75 0,-85.75 0,-55.25 94,-55.25 94,-85.75"/>
<text text-anchor="start" x="8" y="-72.25" font-family="Helvetica,sans-Serif" font-size="10.00">llzk/Dialect/Struct</text>
<text text-anchor="middle" x="47" y="-61" font-family="Helvetica,sans-Serif" font-size="10.00">/IR/Dialect.h.inc</text>
</a>
</g>
</g>
<!-- Node23&#45;&gt;Node25 -->
<g id="edge28_Node000023_Node000025" class="edge">
<title>Node23&#45;&gt;Node25</title>
<g id="a_edge28_Node000023_Node000025"><a xlink:title=" ">
<path fill="none" stroke="#63b8ff" d="M136.68,-121.36C120.81,-112.54 100.37,-101.18 83.02,-91.53"/>
<polygon fill="#63b8ff" stroke="#63b8ff" points="84.98,-88.61 74.54,-86.81 81.58,-94.73 84.98,-88.61"/>
</a>
</g>
</g>
<!-- Node26&#45;&gt;Node8 -->
<g id="edge31_Node000026_Node000008" class="edge">
<title>Node26&#45;&gt;Node8</title>
<g id="a_edge31_Node000026_Node000008"><a xlink:title=" ">
<path fill="none" stroke="#63b8ff" d="M1002.31,-126.89C1048.6,-117.06 1124.1,-100.81 1189,-85.75 1192.38,-84.97 1195.86,-84.14 1199.36,-83.31"/>
<polygon fill="#63b8ff" stroke="#63b8ff" points="1200.15,-86.72 1209.05,-80.97 1198.51,-79.91 1200.15,-86.72"/>
</a>
</g>
</g>
<!-- Node26&#45;&gt;Node19 -->
<g id="edge30_Node000026_Node000019" class="edge">
<title>Node26&#45;&gt;Node19</title>
<g id="a_edge30_Node000026_Node000019"><a xlink:title=" ">
<path fill="none" stroke="#63b8ff" d="M982.71,-126.9C1011.48,-115.85 1060.18,-97.15 1092.96,-84.57"/>
<polygon fill="#63b8ff" stroke="#63b8ff" points="1093.91,-87.95 1101.99,-81.1 1091.4,-81.42 1093.91,-87.95"/>
</a>
</g>
</g>
<!-- Node26&#45;&gt;Node21 -->
<g id="edge33_Node000026_Node000021" class="edge">
<title>Node26&#45;&gt;Node21</title>
<g id="a_edge33_Node000026_Node000021"><a xlink:title=" ">
<path fill="none" stroke="#63b8ff" d="M937.12,-126.9C910.81,-115.95 866.43,-97.48 836.2,-84.9"/>
<polygon fill="#63b8ff" stroke="#63b8ff" points="837.74,-81.75 827.17,-81.14 835.05,-88.21 837.74,-81.75"/>
</a>
</g>
</g>
<!-- Node27 -->
<g id="Node000027" class="node">
<title>Node27</title>
<g id="a_Node000027"><a xlink:title=" ">
<polygon fill="#e0e0e0" stroke="#999999" points="1056,-80.12 938,-80.12 938,-60.88 1056,-60.88 1056,-80.12"/>
<text text-anchor="middle" x="997" y="-66.62" font-family="Helvetica,sans-Serif" font-size="10.00">mlir/IR/OwningOpRef.h</text>
</a>
</g>
</g>
<!-- Node26&#45;&gt;Node27 -->
<g id="edge32_Node000026_Node000027" class="edge">
<title>Node26&#45;&gt;Node27</title>
<g id="a_edge32_Node000026_Node000027"><a xlink:title=" ">
<path fill="none" stroke="#63b8ff" d="M964.28,-127.03C969.9,-117.5 978.94,-102.16 986.09,-90.02"/>
<polygon fill="#63b8ff" stroke="#63b8ff" points="988.93,-92.09 990.99,-81.7 982.9,-88.54 988.93,-92.09"/>
</a>
</g>
</g>
<!-- Node28 -->
<g id="Node000028" class="node">
<title>Node28</title>
<g id="a_Node000028"><a xlink:title=" ">
<polygon fill="#e0e0e0" stroke="#999999" points="919.5,-80.12 876.5,-80.12 876.5,-60.88 919.5,-60.88 919.5,-80.12"/>
<text text-anchor="middle" x="898" y="-66.62" font-family="Helvetica,sans-Serif" font-size="10.00">vector</text>
</a>
</g>
</g>
<!-- Node26&#45;&gt;Node28 -->
<g id="edge34_Node000026_Node000028" class="edge">
<title>Node26&#45;&gt;Node28</title>
<g id="a_edge34_Node000026_Node000028"><a xlink:title=" ">
<path fill="none" stroke="#63b8ff" d="M950.52,-127.03C941.14,-117.12 925.82,-100.91 914.13,-88.56"/>
<polygon fill="#63b8ff" stroke="#63b8ff" points="916.86,-86.35 907.45,-81.49 911.78,-91.16 916.86,-86.35"/>
</a>
</g>
</g>
<!-- Node29&#45;&gt;Node8 -->
<g id="edge41_Node000029_Node000008" class="edge">
<title>Node29&#45;&gt;Node8</title>
<g id="a_edge41_Node000029_Node000008"><a xlink:title=" ">
<path fill="none" stroke="#63b8ff" d="M582.03,-126.94C591.11,-124.94 600.87,-123.04 610,-121.75 865.29,-85.62 934.12,-124.66 1189,-85.75 1193.67,-85.04 1198.52,-84.13 1203.32,-83.11"/>
<polygon fill="#63b8ff" stroke="#63b8ff" points="1203.93,-86.56 1212.91,-80.93 1202.38,-79.74 1203.93,-86.56"/>
</a>
</g>
</g>
<!-- Node29&#45;&gt;Node16 -->
<g id="edge40_Node000029_Node000016" class="edge">
<title>Node29&#45;&gt;Node16</title>
<g id="a_edge40_Node000029_Node000016"><a xlink:title=" ">
<path fill="none" stroke="#63b8ff" d="M581.69,-126.95C590.86,-124.93 600.75,-123.01 610,-121.75 916.47,-79.99 997.83,-121.97 1305,-85.75 1312.26,-84.89 1319.87,-83.77 1327.36,-82.52"/>
<polygon fill="#63b8ff" stroke="#63b8ff" points="1327.84,-85.99 1337.09,-80.83 1326.64,-79.1 1327.84,-85.99"/>
</a>
</g>
</g>
<!-- Node29&#45;&gt;Node21 -->
<g id="edge45_Node000029_Node000021" class="edge">
<title>Node29&#45;&gt;Node21</title>
<g id="a_edge45_Node000029_Node000021"><a xlink:title=" ">
<path fill="none" stroke="#63b8ff" d="M582.42,-126.9C628.13,-115.47 706.63,-95.84 756.88,-83.28"/>
<polygon fill="#63b8ff" stroke="#63b8ff" points="757.45,-86.75 766.3,-80.93 755.75,-79.96 757.45,-86.75"/>
</a>
</g>
</g>
<!-- Node30 -->
<g id="Node000030" class="node">
<title>Node30</title>
<g id="a_Node000030"><a xlink:href="_error_helper_8h.html" target="_top" xlink:title=" ">
<polygon fill="white" stroke="#666666" points="600.5,-80.12 491.5,-80.12 491.5,-60.88 600.5,-60.88 600.5,-80.12"/>
<text text-anchor="middle" x="546" y="-66.62" font-family="Helvetica,sans-Serif" font-size="10.00">llzk/Util/ErrorHelper.h</text>
</a>
</g>
</g>
<!-- Node29&#45;&gt;Node30 -->
<g id="edge36_Node000029_Node000030" class="edge">
<title>Node29&#45;&gt;Node30</title>
<g id="a_edge36_Node000029_Node000030"><a xlink:title=" ">
<path fill="none" stroke="#63b8ff" d="M546,-127.03C546,-117.98 546,-103.7 546,-91.88"/>
<polygon fill="#63b8ff" stroke="#63b8ff" points="549.5,-91.91 546,-81.91 542.5,-91.91 549.5,-91.91"/>
</a>
</g>
</g>
<!-- Node34 -->
<g id="Node000034" class="node">
<title>Node34</title>
<g id="a_Node000034"><a xlink:title=" ">
<polygon fill="#e0e0e0" stroke="#999999" points="731.38,-80.12 618.62,-80.12 618.62,-60.88 731.38,-60.88 731.38,-80.12"/>
<text text-anchor="middle" x="675" y="-66.62" font-family="Helvetica,sans-Serif" font-size="10.00">mlir/IR/SymbolTable.h</text>
</a>
</g>
</g>
<!-- Node29&#45;&gt;Node34 -->
<g id="edge42_Node000029_Node000034" class="edge">
<title>Node29&#45;&gt;Node34</title>
<g id="a_edge42_Node000029_Node000034"><a xlink:title=" ">
<path fill="none" stroke="#63b8ff" d="M564.21,-126.9C585.72,-116.14 621.75,-98.12 646.86,-85.57"/>
<polygon fill="#63b8ff" stroke="#63b8ff" points="648.15,-88.84 655.53,-81.24 645.02,-82.58 648.15,-88.84"/>
</a>
</g>
</g>
<!-- Node35 -->
<g id="Node000035" class="node">
<title>Node35</title>
<g id="a_Node000035"><a xlink:title=" ">
<polygon fill="#e0e0e0" stroke="#999999" points="339.75,-80.12 232.25,-80.12 232.25,-60.88 339.75,-60.88 339.75,-80.12"/>
<text text-anchor="middle" x="286" y="-66.62" font-family="Helvetica,sans-Serif" font-size="10.00">llvm/ADT/ArrayRef.h</text>
</a>
</g>
</g>
<!-- Node29&#45;&gt;Node35 -->
<g id="edge43_Node000029_Node000035" class="edge">
<title>Node29&#45;&gt;Node35</title>
<g id="a_edge43_Node000029_Node000035"><a xlink:title=" ">
<path fill="none" stroke="#63b8ff" d="M509.3,-126.9C463.23,-115.47 384.12,-95.84 333.49,-83.28"/>
<polygon fill="#63b8ff" stroke="#63b8ff" points="334.53,-79.93 323.98,-80.92 332.85,-86.73 334.53,-79.93"/>
</a>
</g>
</g>
<!-- Node36 -->
<g id="Node000036" class="node">
<title>Node36</title>
<g id="a_Node000036"><a xlink:title=" ">
<polygon fill="#e0e0e0" stroke="#999999" points="473.88,-80.12 358.12,-80.12 358.12,-60.88 473.88,-60.88 473.88,-80.12"/>
<text text-anchor="middle" x="416" y="-66.62" font-family="Helvetica,sans-Serif" font-size="10.00">llvm/ADT/DenseMap.h</text>
</a>
</g>
</g>
<!-- Node29&#45;&gt;Node36 -->
<g id="edge44_Node000029_Node000036" class="edge">
<title>Node29&#45;&gt;Node36</title>
<g id="a_edge44_Node000029_Node000036"><a xlink:title=" ">
<path fill="none" stroke="#63b8ff" d="M527.65,-126.9C505.97,-116.14 469.66,-98.12 444.35,-85.57"/>
<polygon fill="#63b8ff" stroke="#63b8ff" points="446.13,-82.54 435.61,-81.23 443.01,-88.81 446.13,-82.54"/>
</a>
</g>
</g>
<!-- Node31 -->
<g id="Node000031" class="node">
<title>Node31</title>
<g id="a_Node000031"><a xlink:title=" ">
<polygon fill="#e0e0e0" stroke="#999999" points="481,-19.25 321,-19.25 321,0 481,0 481,-19.25"/>
<text text-anchor="middle" x="401" y="-5.75" font-family="Helvetica,sans-Serif" font-size="10.00">llvm/ADT/STLFunctionalExtras.h</text>
</a>
</g>
</g>
<!-- Node30&#45;&gt;Node31 -->
<g id="edge37_Node000030_Node000031" class="edge">
<title>Node30&#45;&gt;Node31</title>
<g id="a_edge37_Node000030_Node000031"><a xlink:title=" ">
<path fill="none" stroke="#63b8ff" d="M523.66,-60.43C499.64,-50.68 461.22,-35.08 433.78,-23.93"/>
<polygon fill="#63b8ff" stroke="#63b8ff" points="435.11,-20.7 424.53,-20.18 432.48,-27.18 435.11,-20.7"/>
</a>
</g>
</g>
<!-- Node32 -->
<g id="Node000032" class="node">
<title>Node32</title>
<g id="a_Node000032"><a xlink:title=" ">
<polygon fill="#e0e0e0" stroke="#999999" points="593,-19.25 499,-19.25 499,0 593,0 593,-19.25"/>
<text text-anchor="middle" x="546" y="-5.75" font-family="Helvetica,sans-Serif" font-size="10.00">llvm/ADT/Twine.h</text>
</a>
</g>
</g>
<!-- Node30&#45;&gt;Node32 -->
<g id="edge38_Node000030_Node000032" class="edge">
<title>Node30&#45;&gt;Node32</title>
<g id="a_edge38_Node000030_Node000032"><a xlink:title=" ">
<path fill="none" stroke="#63b8ff" d="M546,-60.56C546,-52.78 546,-41.2 546,-31.16"/>
<polygon fill="#63b8ff" stroke="#63b8ff" points="549.5,-31.16 546,-21.16 542.5,-31.16 549.5,-31.16"/>
</a>
</g>
</g>
<!-- Node33 -->
<g id="Node000033" class="node">
<title>Node33</title>
<g id="a_Node000033"><a xlink:title=" ">
<polygon fill="#e0e0e0" stroke="#999999" points="752.62,-19.25 611.38,-19.25 611.38,0 752.62,0 752.62,-19.25"/>
<text text-anchor="middle" x="682" y="-5.75" font-family="Helvetica,sans-Serif" font-size="10.00">llvm/Support/ErrorHandling.h</text>
</a>
</g>
</g>
<!-- Node30&#45;&gt;Node33 -->
<g id="edge39_Node000030_Node000033" class="edge">
<title>Node30&#45;&gt;Node33</title>
<g id="a_edge39_Node000030_Node000033"><a xlink:title=" ">
<path fill="none" stroke="#63b8ff" d="M566.95,-60.43C589.38,-50.72 625.2,-35.21 650.91,-24.08"/>
<polygon fill="#63b8ff" stroke="#63b8ff" points="652.07,-27.39 659.86,-20.21 649.29,-20.97 652.07,-27.39"/>
</a>
</g>
</g>
</g>
</svg>
