<?xml version="1.0" encoding="UTF-8" standalone="no"?>
<!DOCTYPE svg PUBLIC "-//W3C//DTD SVG 1.1//EN"
 "http://www.w3.org/Graphics/SVG/1.1/DTD/svg11.dtd">
<!-- Generated by graphviz version 12.2.1 (20241206.2353)
 -->
<!-- Title: include/llzk/Dialect/String/IR/Dialect.h Pages: 1 -->
<svg width="2176pt" height="261pt"
 viewBox="0.00 0.00 2175.88 260.50" xmlns="http://www.w3.org/2000/svg" xmlns:xlink="http://www.w3.org/1999/xlink">
<g id="graph0" class="graph" transform="scale(1 1) rotate(0) translate(4 256.5)">
<title>include/llzk/Dialect/String/IR/Dialect.h</title>
<!-- Node1 -->
<g id="Node000001" class="node">
<title>Node1</title>
<g id="a_Node000001"><a xlink:title=" ">
<polygon fill="#999999" stroke="#666666" points="334,-252.5 234,-252.5 234,-222 334,-222 334,-252.5"/>
<text text-anchor="start" x="242" y="-239" font-family="Helvetica,sans-Serif" font-size="10.00">include/llzk/Dialect</text>
<text text-anchor="middle" x="284" y="-227.75" font-family="Helvetica,sans-Serif" font-size="10.00">/String/IR/Dialect.h</text>
</a>
</g>
</g>
<!-- Node2 -->
<g id="Node000002" class="node">
<title>Node2</title>
<g id="a_Node000002"><a xlink:href="_string_2_i_r_2_ops_8h.html" target="_top" xlink:title=" ">
<polygon fill="white" stroke="#666666" points="117.25,-113.88 18.75,-113.88 18.75,-83.38 117.25,-83.38 117.25,-113.88"/>
<text text-anchor="start" x="26.75" y="-100.38" font-family="Helvetica,sans-Serif" font-size="10.00">include/llzk/Dialect</text>
<text text-anchor="middle" x="68" y="-89.12" font-family="Helvetica,sans-Serif" font-size="10.00">/String/IR/Ops.h</text>
</a>
</g>
</g>
<!-- Node1&#45;&gt;Node2 -->
<g id="edge1_Node000001_Node000002" class="edge">
<title>Node1&#45;&gt;Node2</title>
<g id="a_edge1_Node000001_Node000002"><a xlink:title=" ">
<path fill="none" stroke="#63b8ff" d="M222.43,-225.26C192.75,-217.77 157.86,-205.54 131,-186 104.73,-166.89 84.94,-133.54 75.04,-114.36"/>
<polygon fill="#63b8ff" stroke="#63b8ff" points="221.5,-228.64 232.04,-227.56 223.13,-221.83 221.5,-228.64"/>
</a>
</g>
</g>
<!-- Node3 -->
<g id="Node000003" class="node">
<title>Node3</title>
<g id="a_Node000003"><a xlink:href="_string_2_i_r_2_dialect_8cpp.html" target="_top" xlink:title=" ">
<polygon fill="white" stroke="#666666" points="194,-36.12 106,-36.12 106,-5.62 194,-5.62 194,-36.12"/>
<text text-anchor="start" x="114" y="-22.62" font-family="Helvetica,sans-Serif" font-size="10.00">lib/Dialect/String</text>
<text text-anchor="middle" x="150" y="-11.38" font-family="Helvetica,sans-Serif" font-size="10.00">/IR/Dialect.cpp</text>
</a>
</g>
</g>
<!-- Node1&#45;&gt;Node3 -->
<g id="edge35_Node000001_Node000003" class="edge">
<title>Node1&#45;&gt;Node3</title>
<g id="a_edge35_Node000001_Node000003"><a xlink:title=" ">
<path fill="none" stroke="#63b8ff" d="M254.04,-214.79C227.21,-193.77 189.22,-159.19 170,-119.5 156.73,-92.09 152.25,-56.23 150.75,-36.49"/>
<polygon fill="#63b8ff" stroke="#63b8ff" points="251.74,-217.44 261.81,-220.72 255.99,-211.87 251.74,-217.44"/>
</a>
</g>
</g>
<!-- Node5 -->
<g id="Node000005" class="node">
<title>Node5</title>
<g id="a_Node000005"><a xlink:href="_string_2_i_r_2_types_8h.html" target="_top" xlink:title=" ">
<polygon fill="white" stroke="#666666" points="333.25,-186 234.75,-186 234.75,-155.5 333.25,-155.5 333.25,-186"/>
<text text-anchor="start" x="242.75" y="-172.5" font-family="Helvetica,sans-Serif" font-size="10.00">include/llzk/Dialect</text>
<text text-anchor="middle" x="284" y="-161.25" font-family="Helvetica,sans-Serif" font-size="10.00">/String/IR/Types.h</text>
</a>
</g>
</g>
<!-- Node1&#45;&gt;Node5 -->
<g id="edge4_Node000001_Node000005" class="edge">
<title>Node1&#45;&gt;Node5</title>
<g id="a_edge4_Node000001_Node000005"><a xlink:title=" ">
<path fill="none" stroke="#63b8ff" d="M284,-210.31C284,-202.14 284,-193.41 284,-186.33"/>
<polygon fill="#63b8ff" stroke="#63b8ff" points="280.5,-210.1 284,-220.1 287.5,-210.1 280.5,-210.1"/>
</a>
</g>
</g>
<!-- Node9 -->
<g id="Node000009" class="node">
<title>Node9</title>
<g id="a_Node000009"><a xlink:href="_pass_base_8h.html" target="_top" xlink:title=" ">
<polygon fill="white" stroke="#666666" points="984.25,-180.38 837.75,-180.38 837.75,-161.12 984.25,-161.12 984.25,-180.38"/>
<text text-anchor="middle" x="911" y="-166.88" font-family="Helvetica,sans-Serif" font-size="10.00">include/llzk/Pass/PassBase.h</text>
</a>
</g>
</g>
<!-- Node1&#45;&gt;Node9 -->
<g id="edge10_Node000001_Node000009" class="edge">
<title>Node1&#45;&gt;Node9</title>
<g id="a_edge10_Node000001_Node000009"><a xlink:title=" ">
<path fill="none" stroke="#63b8ff" d="M345.38,-229.94C461.39,-218 712.35,-192.19 837.27,-179.33"/>
<polygon fill="#63b8ff" stroke="#63b8ff" points="345.35,-226.42 335.76,-230.93 346.06,-233.38 345.35,-226.42"/>
</a>
</g>
</g>
<!-- Node28 -->
<g id="Node000028" class="node">
<title>Node28</title>
<g id="a_Node000028"><a xlink:href="_init_dialects_8cpp.html" target="_top" xlink:title=" ">
<polygon fill="white" stroke="#666666" points="1133.38,-180.38 1002.62,-180.38 1002.62,-161.12 1133.38,-161.12 1133.38,-180.38"/>
<text text-anchor="middle" x="1068" y="-166.88" font-family="Helvetica,sans-Serif" font-size="10.00">lib/Dialect/InitDialects.cpp</text>
</a>
</g>
</g>
<!-- Node1&#45;&gt;Node28 -->
<g id="edge34_Node000001_Node000028" class="edge">
<title>Node1&#45;&gt;Node28</title>
<g id="a_edge34_Node000001_Node000028"><a xlink:title=" ">
<path fill="none" stroke="#63b8ff" d="M345.93,-234.3C469.45,-229.87 755.02,-216.93 993,-186 1003.38,-184.65 1014.5,-182.78 1024.91,-180.83"/>
<polygon fill="#63b8ff" stroke="#63b8ff" points="345.87,-230.8 336,-234.65 346.12,-237.79 345.87,-230.8"/>
</a>
</g>
</g>
<!-- Node2&#45;&gt;Node3 -->
<g id="edge2_Node000002_Node000003" class="edge">
<title>Node2&#45;&gt;Node3</title>
<g id="a_edge2_Node000002_Node000003"><a xlink:title=" ">
<path fill="none" stroke="#63b8ff" d="M92.22,-75.25C105.8,-62.71 122.34,-47.43 134.24,-36.44"/>
<polygon fill="#63b8ff" stroke="#63b8ff" points="89.89,-72.64 84.92,-81.99 94.64,-77.78 89.89,-72.64"/>
</a>
</g>
</g>
<!-- Node4 -->
<g id="Node000004" class="node">
<title>Node4</title>
<g id="a_Node000004"><a xlink:href="_string_2_i_r_2_ops_8cpp.html" target="_top" xlink:title=" ">
<polygon fill="white" stroke="#666666" points="88,-36.12 0,-36.12 0,-5.62 88,-5.62 88,-36.12"/>
<text text-anchor="start" x="8" y="-22.62" font-family="Helvetica,sans-Serif" font-size="10.00">lib/Dialect/String</text>
<text text-anchor="middle" x="44" y="-11.38" font-family="Helvetica,sans-Serif" font-size="10.00">/IR/Ops.cpp</text>
</a>
</g>
</g>
<!-- Node2&#45;&gt;Node4 -->
<g id="edge3_Node000002_Node000004" class="edge">
<title>Node2&#45;&gt;Node4</title>
<g id="a_edge3_Node000002_Node000004"><a xlink:title=" ">
<path fill="none" stroke="#63b8ff" d="M59.99,-72.34C56.21,-60.4 51.83,-46.59 48.61,-36.44"/>
<polygon fill="#63b8ff" stroke="#63b8ff" points="56.56,-73.1 62.92,-81.58 63.23,-70.99 56.56,-73.1"/>
</a>
</g>
</g>
<!-- Node5&#45;&gt;Node2 -->
<g id="edge5_Node000005_Node000002" class="edge">
<title>Node5&#45;&gt;Node2</title>
<g id="a_edge5_Node000005_Node000002"><a xlink:title=" ">
<path fill="none" stroke="#63b8ff" d="M227.98,-151.56C192.28,-139.97 146.62,-125.15 113.22,-114.31"/>
<polygon fill="#63b8ff" stroke="#63b8ff" points="226.69,-154.82 237.28,-154.58 228.85,-148.17 226.69,-154.82"/>
</a>
</g>
</g>
<!-- Node5&#45;&gt;Node3 -->
<g id="edge8_Node000005_Node000003" class="edge">
<title>Node5&#45;&gt;Node3</title>
<g id="a_edge8_Node000005_Node000003"><a xlink:title=" ">
<path fill="none" stroke="#63b8ff" d="M241.74,-149.61C227.91,-141.61 213.24,-131.43 202,-119.5 178.57,-94.61 162.58,-57.14 155.02,-36.61"/>
<polygon fill="#63b8ff" stroke="#63b8ff" points="239.82,-152.55 250.27,-154.32 243.21,-146.42 239.82,-152.55"/>
</a>
</g>
</g>
<!-- Node6 -->
<g id="Node000006" class="node">
<title>Node6</title>
<g id="a_Node000006"><a xlink:href="_constrain_ref_8cpp.html" target="_top" xlink:title=" ">
<polygon fill="white" stroke="#666666" points="356.88,-108.25 211.12,-108.25 211.12,-89 356.88,-89 356.88,-108.25"/>
<text text-anchor="middle" x="284" y="-94.75" font-family="Helvetica,sans-Serif" font-size="10.00">lib/Analysis/ConstrainRef.cpp</text>
</a>
</g>
</g>
<!-- Node5&#45;&gt;Node6 -->
<g id="edge6_Node000005_Node000006" class="edge">
<title>Node5&#45;&gt;Node6</title>
<g id="a_edge6_Node000005_Node000006"><a xlink:title=" ">
<path fill="none" stroke="#63b8ff" d="M284,-143.98C284,-131.48 284,-117.27 284,-108.38"/>
<polygon fill="#63b8ff" stroke="#63b8ff" points="280.5,-143.71 284,-153.71 287.5,-143.71 280.5,-143.71"/>
</a>
</g>
</g>
<!-- Node7 -->
<g id="Node000007" class="node">
<title>Node7</title>
<g id="a_Node000007"><a xlink:href="_global_2_i_r_2_ops_8cpp.html" target="_top" xlink:title=" ">
<polygon fill="white" stroke="#666666" points="465.12,-113.88 374.88,-113.88 374.88,-83.38 465.12,-83.38 465.12,-113.88"/>
<text text-anchor="start" x="382.88" y="-100.38" font-family="Helvetica,sans-Serif" font-size="10.00">lib/Dialect/Global</text>
<text text-anchor="middle" x="420" y="-89.12" font-family="Helvetica,sans-Serif" font-size="10.00">/IR/Ops.cpp</text>
</a>
</g>
</g>
<!-- Node5&#45;&gt;Node7 -->
<g id="edge7_Node000005_Node000007" class="edge">
<title>Node5&#45;&gt;Node7</title>
<g id="a_edge7_Node000005_Node000007"><a xlink:title=" ">
<path fill="none" stroke="#63b8ff" d="M322.51,-149.89C344.46,-138.57 371.5,-124.63 391.53,-114.31"/>
<polygon fill="#63b8ff" stroke="#63b8ff" points="321.14,-146.66 313.86,-154.36 324.35,-152.88 321.14,-146.66"/>
</a>
</g>
</g>
<!-- Node8 -->
<g id="Node000008" class="node">
<title>Node8</title>
<g id="a_Node000008"><a xlink:href="_type_helper_8cpp.html" target="_top" xlink:title=" ">
<polygon fill="white" stroke="#666666" points="597.12,-108.25 482.88,-108.25 482.88,-89 597.12,-89 597.12,-108.25"/>
<text text-anchor="middle" x="540" y="-94.75" font-family="Helvetica,sans-Serif" font-size="10.00">lib/Util/TypeHelper.cpp</text>
</a>
</g>
</g>
<!-- Node5&#45;&gt;Node8 -->
<g id="edge9_Node000005_Node000008" class="edge">
<title>Node5&#45;&gt;Node8</title>
<g id="a_edge9_Node000005_Node000008"><a xlink:title=" ">
<path fill="none" stroke="#63b8ff" d="M344.45,-154.32C381.86,-144.64 430.82,-131.71 474,-119.5 485.98,-116.11 499.11,-112.2 510.49,-108.74"/>
<polygon fill="#63b8ff" stroke="#63b8ff" points="344,-150.82 335.2,-156.71 345.76,-157.6 344,-150.82"/>
</a>
</g>
</g>
<!-- Node10 -->
<g id="Node000010" class="node">
<title>Node10</title>
<g id="a_Node000010"><a xlink:href="_analysis_passes_8h.html" target="_top" xlink:title=" ">
<polygon fill="white" stroke="#666666" points="720.62,-113.88 615.38,-113.88 615.38,-83.38 720.62,-83.38 720.62,-113.88"/>
<text text-anchor="start" x="623.38" y="-100.38" font-family="Helvetica,sans-Serif" font-size="10.00">include/llzk/Analysis</text>
<text text-anchor="middle" x="668" y="-89.12" font-family="Helvetica,sans-Serif" font-size="10.00">/AnalysisPasses.h</text>
</a>
</g>
</g>
<!-- Node9&#45;&gt;Node10 -->
<g id="edge11_Node000009_Node000010" class="edge">
<title>Node9&#45;&gt;Node10</title>
<g id="a_edge11_Node000009_Node000010"><a xlink:title=" ">
<path fill="none" stroke="#63b8ff" d="M866.02,-157.79C829.31,-147.9 776.16,-133.3 730,-119.5 724.48,-117.85 718.69,-116.07 712.97,-114.27"/>
<polygon fill="#63b8ff" stroke="#63b8ff" points="864.83,-161.1 875.4,-160.31 866.65,-154.34 864.83,-161.1"/>
</a>
</g>
</g>
<!-- Node15 -->
<g id="Node000015" class="node">
<title>Node15</title>
<g id="a_Node000015"><a xlink:href="_array_2_transforms_2_transformation_passes_8h.html" target="_top" xlink:title=" ">
<polygon fill="white" stroke="#666666" points="901.5,-119.5 738.5,-119.5 738.5,-77.75 901.5,-77.75 901.5,-119.5"/>
<text text-anchor="start" x="746.5" y="-106" font-family="Helvetica,sans-Serif" font-size="10.00">include/llzk/Dialect</text>
<text text-anchor="start" x="746.5" y="-94.75" font-family="Helvetica,sans-Serif" font-size="10.00">/Array/Transforms/Transformation</text>
<text text-anchor="middle" x="820" y="-83.5" font-family="Helvetica,sans-Serif" font-size="10.00">Passes.h</text>
</a>
</g>
</g>
<!-- Node9&#45;&gt;Node15 -->
<g id="edge16_Node000009_Node000015" class="edge">
<title>Node9&#45;&gt;Node15</title>
<g id="a_edge16_Node000009_Node000015"><a xlink:title=" ">
<path fill="none" stroke="#63b8ff" d="M890.37,-153.86C877.32,-143.79 860.32,-130.69 846.3,-119.89"/>
<polygon fill="#63b8ff" stroke="#63b8ff" points="888.22,-156.61 898.28,-159.94 892.49,-151.07 888.22,-156.61"/>
</a>
</g>
</g>
<!-- Node17 -->
<g id="Node000017" class="node">
<title>Node17</title>
<g id="a_Node000017"><a xlink:href="_inline_includes_pass_8h.html" target="_top" xlink:title=" ">
<polygon fill="white" stroke="#666666" points="1086,-119.5 920,-119.5 920,-77.75 1086,-77.75 1086,-119.5"/>
<text text-anchor="start" x="928" y="-106" font-family="Helvetica,sans-Serif" font-size="10.00">include/llzk/Dialect</text>
<text text-anchor="start" x="928" y="-94.75" font-family="Helvetica,sans-Serif" font-size="10.00">/Include/Transforms/InlineIncludes</text>
<text text-anchor="middle" x="1003" y="-83.5" font-family="Helvetica,sans-Serif" font-size="10.00">Pass.h</text>
</a>
</g>
</g>
<!-- Node9&#45;&gt;Node17 -->
<g id="edge19_Node000009_Node000017" class="edge">
<title>Node9&#45;&gt;Node17</title>
<g id="a_edge19_Node000009_Node000017"><a xlink:title=" ">
<path fill="none" stroke="#63b8ff" d="M931.47,-154.15C944.71,-144.05 962.1,-130.8 976.41,-119.89"/>
<polygon fill="#63b8ff" stroke="#63b8ff" points="929.69,-151.11 923.86,-159.95 933.93,-156.67 929.69,-151.11"/>
</a>
</g>
</g>
<!-- Node19 -->
<g id="Node000019" class="node">
<title>Node19</title>
<g id="a_Node000019"><a xlink:href="_polymorphic_2_transforms_2_transformation_passes_8h.html" target="_top" xlink:title=" ">
<polygon fill="white" stroke="#666666" points="1229.75,-119.5 1104.25,-119.5 1104.25,-77.75 1229.75,-77.75 1229.75,-119.5"/>
<text text-anchor="start" x="1112.25" y="-106" font-family="Helvetica,sans-Serif" font-size="10.00">include/llzk/Dialect</text>
<text text-anchor="start" x="1112.25" y="-94.75" font-family="Helvetica,sans-Serif" font-size="10.00">/Polymorphic/Transforms</text>
<text text-anchor="middle" x="1167" y="-83.5" font-family="Helvetica,sans-Serif" font-size="10.00">/TransformationPasses.h</text>
</a>
</g>
</g>
<!-- Node9&#45;&gt;Node19 -->
<g id="edge22_Node000009_Node000019" class="edge">
<title>Node9&#45;&gt;Node19</title>
<g id="a_edge22_Node000009_Node000019"><a xlink:title=" ">
<path fill="none" stroke="#63b8ff" d="M955.23,-157.71C992.51,-147.55 1047.25,-132.61 1095,-119.5 1097.88,-118.71 1100.82,-117.9 1103.79,-117.09"/>
<polygon fill="#63b8ff" stroke="#63b8ff" points="954.44,-154.3 945.71,-160.3 956.28,-161.05 954.44,-154.3"/>
</a>
</g>
</g>
<!-- Node21 -->
<g id="Node000021" class="node">
<title>Node21</title>
<g id="a_Node000021"><a xlink:href="_l_l_z_k_transformation_passes_8h.html" target="_top" xlink:title=" ">
<polygon fill="white" stroke="#666666" points="1486.38,-113.88 1337.62,-113.88 1337.62,-83.38 1486.38,-83.38 1486.38,-113.88"/>
<text text-anchor="start" x="1345.62" y="-100.38" font-family="Helvetica,sans-Serif" font-size="10.00">include/llzk/Transforms</text>
<text text-anchor="middle" x="1412" y="-89.12" font-family="Helvetica,sans-Serif" font-size="10.00">/LLZKTransformationPasses.h</text>
</a>
</g>
</g>
<!-- Node9&#45;&gt;Node21 -->
<g id="edge25_Node000009_Node000021" class="edge">
<title>Node9&#45;&gt;Node21</title>
<g id="a_edge25_Node000009_Node000021"><a xlink:title=" ">
<path fill="none" stroke="#63b8ff" d="M973.23,-158.81C980.23,-157.65 987.27,-156.53 994,-155.5 1113.78,-137.22 1253.39,-119.22 1337.13,-108.78"/>
<polygon fill="#63b8ff" stroke="#63b8ff" points="973.09,-155.28 963.8,-160.38 974.24,-162.19 973.09,-155.28"/>
</a>
</g>
</g>
<!-- Node26 -->
<g id="Node000026" class="node">
<title>Node26</title>
<g id="a_Node000026"><a xlink:href="_l_l_z_k_validation_passes_8h.html" target="_top" xlink:title=" ">
<polygon fill="white" stroke="#666666" points="1629.75,-113.88 1504.25,-113.88 1504.25,-83.38 1629.75,-83.38 1629.75,-113.88"/>
<text text-anchor="start" x="1512.25" y="-100.38" font-family="Helvetica,sans-Serif" font-size="10.00">include/llzk/Validators</text>
<text text-anchor="middle" x="1567" y="-89.12" font-family="Helvetica,sans-Serif" font-size="10.00">/LLZKValidationPasses.h</text>
</a>
</g>
</g>
<!-- Node9&#45;&gt;Node26 -->
<g id="edge31_Node000009_Node000026" class="edge">
<title>Node9&#45;&gt;Node26</title>
<g id="a_edge31_Node000009_Node000026"><a xlink:title=" ">
<path fill="none" stroke="#63b8ff" d="M970.28,-158.84C978.24,-157.59 986.31,-156.43 994,-155.5 1215.61,-128.58 1275,-157.39 1495,-119.5 1502.8,-118.16 1510.96,-116.33 1518.88,-114.32"/>
<polygon fill="#63b8ff" stroke="#63b8ff" points="969.96,-155.35 960.65,-160.41 971.09,-162.26 969.96,-155.35"/>
</a>
</g>
</g>
<!-- Node11 -->
<g id="Node000011" class="node">
<title>Node11</title>
<g id="a_Node000011"><a xlink:href="_call_graph_passes_8cpp.html" target="_top" xlink:title="This file implements the &#45;llzk&#45;print&#45;call&#45;graph and &#45;llzk&#45;print&#45;call&#45;graph&#45;sccs passes.">
<polygon fill="white" stroke="#666666" points="384.25,-30.5 219.75,-30.5 219.75,-11.25 384.25,-11.25 384.25,-30.5"/>
<text text-anchor="middle" x="302" y="-17" font-family="Helvetica,sans-Serif" font-size="10.00">lib/Analysis/CallGraphPasses.cpp</text>
</a>
</g>
</g>
<!-- Node10&#45;&gt;Node11 -->
<g id="edge12_Node000010_Node000011" class="edge">
<title>Node10&#45;&gt;Node11</title>
<g id="a_edge12_Node000010_Node000011"><a xlink:title=" ">
<path fill="none" stroke="#63b8ff" d="M613.9,-79.79C611.24,-79.07 608.59,-78.38 606,-77.75 513.15,-55.11 487.84,-59.84 394,-41.75 376.99,-38.47 358.3,-34.5 342.23,-30.97"/>
<polygon fill="#63b8ff" stroke="#63b8ff" points="612.83,-83.13 623.41,-82.52 614.76,-76.4 612.83,-83.13"/>
</a>
</g>
</g>
<!-- Node12 -->
<g id="Node000012" class="node">
<title>Node12</title>
<g id="a_Node000012"><a xlink:href="_constraint_dependency_graph_pass_8cpp.html" target="_top" xlink:title="This file implements the &#45;llzk&#45;print&#45;constraint&#45;dependency&#45;graphs pass.">
<polygon fill="white" stroke="#666666" points="571.5,-36.12 402.5,-36.12 402.5,-5.62 571.5,-5.62 571.5,-36.12"/>
<text text-anchor="start" x="410.5" y="-22.62" font-family="Helvetica,sans-Serif" font-size="10.00">lib/Analysis/ConstraintDependency</text>
<text text-anchor="middle" x="487" y="-11.38" font-family="Helvetica,sans-Serif" font-size="10.00">GraphPass.cpp</text>
</a>
</g>
</g>
<!-- Node10&#45;&gt;Node12 -->
<g id="edge13_Node000010_Node000012" class="edge">
<title>Node10&#45;&gt;Node12</title>
<g id="a_edge13_Node000010_Node000012"><a xlink:title=" ">
<path fill="none" stroke="#63b8ff" d="M622.52,-78.59C591.4,-65.57 550.74,-48.55 522.1,-36.56"/>
<polygon fill="#63b8ff" stroke="#63b8ff" points="621.13,-81.8 631.71,-82.44 623.83,-75.35 621.13,-81.8"/>
</a>
</g>
</g>
<!-- Node13 -->
<g id="Node000013" class="node">
<title>Node13</title>
<g id="a_Node000013"><a xlink:href="_interval_analysis_pass_8cpp.html" target="_top" xlink:title="This file implements the &#45;llzk&#45;print&#45;interval&#45;analysis pass.">
<polygon fill="white" stroke="#666666" points="728.5,-36.12 589.5,-36.12 589.5,-5.62 728.5,-5.62 728.5,-36.12"/>
<text text-anchor="start" x="597.5" y="-22.62" font-family="Helvetica,sans-Serif" font-size="10.00">lib/Analysis/IntervalAnalysis</text>
<text text-anchor="middle" x="659" y="-11.38" font-family="Helvetica,sans-Serif" font-size="10.00">Pass.cpp</text>
</a>
</g>
</g>
<!-- Node10&#45;&gt;Node13 -->
<g id="edge14_Node000010_Node000013" class="edge">
<title>Node10&#45;&gt;Node13</title>
<g id="a_edge14_Node000010_Node000013"><a xlink:title=" ">
<path fill="none" stroke="#63b8ff" d="M664.91,-71.6C663.51,-59.84 661.91,-46.38 660.73,-36.44"/>
<polygon fill="#63b8ff" stroke="#63b8ff" points="661.43,-72 666.09,-81.52 668.38,-71.17 661.43,-72"/>
</a>
</g>
</g>
<!-- Node14 -->
<g id="Node000014" class="node">
<title>Node14</title>
<g id="a_Node000014"><a xlink:href="llzk-opt_8cpp.html" target="_top" xlink:title="This file implements a version of the mlir&#45;opt tool configured for use on LLZK files.">
<polygon fill="white" stroke="#666666" points="1142.75,-36.12 1053.25,-36.12 1053.25,-5.62 1142.75,-5.62 1142.75,-36.12"/>
<text text-anchor="start" x="1061.25" y="-22.62" font-family="Helvetica,sans-Serif" font-size="10.00">tools/llzk&#45;opt/llzk</text>
<text text-anchor="middle" x="1098" y="-11.38" font-family="Helvetica,sans-Serif" font-size="10.00">&#45;opt.cpp</text>
</a>
</g>
</g>
<!-- Node10&#45;&gt;Node14 -->
<g id="edge15_Node000010_Node000014" class="edge">
<title>Node10&#45;&gt;Node14</title>
<g id="a_edge15_Node000010_Node000014"><a xlink:title=" ">
<path fill="none" stroke="#63b8ff" d="M721,-79.89C724.03,-79.11 727.05,-78.39 730,-77.75 867.32,-48.17 907.34,-74.24 1044,-41.75 1049.83,-40.36 1055.9,-38.54 1061.76,-36.55"/>
<polygon fill="#63b8ff" stroke="#63b8ff" points="720.21,-76.47 711.51,-82.52 722.09,-83.22 720.21,-76.47"/>
</a>
</g>
</g>
<!-- Node15&#45;&gt;Node14 -->
<g id="edge18_Node000015_Node000014" class="edge">
<title>Node15&#45;&gt;Node14</title>
<g id="a_edge18_Node000015_Node000014"><a xlink:title=" ">
<path fill="none" stroke="#63b8ff" d="M912.93,-76.83C953.46,-67.14 1001.37,-54.87 1044,-41.75 1049.06,-40.19 1054.34,-38.43 1059.53,-36.61"/>
<polygon fill="#63b8ff" stroke="#63b8ff" points="912.38,-73.36 903.45,-79.07 913.99,-80.17 912.38,-73.36"/>
</a>
</g>
</g>
<!-- Node16 -->
<g id="Node000016" class="node">
<title>Node16</title>
<g id="a_Node000016"><a xlink:href="_array_to_scalar_pass_8cpp.html" target="_top" xlink:title="This file implements the &#45;llzk&#45;array&#45;to&#45;scalar pass.">
<polygon fill="white" stroke="#666666" points="885.12,-36.12 746.88,-36.12 746.88,-5.62 885.12,-5.62 885.12,-36.12"/>
<text text-anchor="start" x="754.88" y="-22.62" font-family="Helvetica,sans-Serif" font-size="10.00">lib/Dialect/Array/Transforms</text>
<text text-anchor="middle" x="816" y="-11.38" font-family="Helvetica,sans-Serif" font-size="10.00">/ArrayToScalarPass.cpp</text>
</a>
</g>
</g>
<!-- Node15&#45;&gt;Node16 -->
<g id="edge17_Node000015_Node000016" class="edge">
<title>Node15&#45;&gt;Node16</title>
<g id="a_edge17_Node000015_Node000016"><a xlink:title=" ">
<path fill="none" stroke="#63b8ff" d="M818.33,-66.06C817.79,-55.69 817.2,-44.67 816.76,-36.23"/>
<polygon fill="#63b8ff" stroke="#63b8ff" points="814.83,-66.01 818.85,-75.81 821.82,-65.64 814.83,-66.01"/>
</a>
</g>
</g>
<!-- Node17&#45;&gt;Node14 -->
<g id="edge21_Node000017_Node000014" class="edge">
<title>Node17&#45;&gt;Node14</title>
<g id="a_edge21_Node000017_Node000014"><a xlink:title=" ">
<path fill="none" stroke="#63b8ff" d="M1037.13,-70.41C1051.5,-58.95 1067.65,-46.08 1079.7,-36.46"/>
<polygon fill="#63b8ff" stroke="#63b8ff" points="1035.28,-67.41 1029.64,-76.38 1039.64,-72.88 1035.28,-67.41"/>
</a>
</g>
</g>
<!-- Node18 -->
<g id="Node000018" class="node">
<title>Node18</title>
<g id="a_Node000018"><a xlink:href="_inline_includes_pass_8cpp.html" target="_top" xlink:title="This file implements the &#45;llzk&#45;inline&#45;includes pass.">
<polygon fill="white" stroke="#666666" points="1034.75,-41.75 903.25,-41.75 903.25,0 1034.75,0 1034.75,-41.75"/>
<text text-anchor="start" x="911.25" y="-28.25" font-family="Helvetica,sans-Serif" font-size="10.00">lib/Dialect/Include</text>
<text text-anchor="start" x="911.25" y="-17" font-family="Helvetica,sans-Serif" font-size="10.00">/Transforms/InlineIncludes</text>
<text text-anchor="middle" x="969" y="-5.75" font-family="Helvetica,sans-Serif" font-size="10.00">Pass.cpp</text>
</a>
</g>
</g>
<!-- Node17&#45;&gt;Node18 -->
<g id="edge20_Node000017_Node000018" class="edge">
<title>Node17&#45;&gt;Node18</title>
<g id="a_edge20_Node000017_Node000018"><a xlink:title=" ">
<path fill="none" stroke="#63b8ff" d="M989.18,-66.84C985.46,-58.55 981.53,-49.79 978.14,-42.23"/>
<polygon fill="#63b8ff" stroke="#63b8ff" points="985.98,-68.25 993.27,-75.94 992.37,-65.39 985.98,-68.25"/>
</a>
</g>
</g>
<!-- Node19&#45;&gt;Node14 -->
<g id="edge24_Node000019_Node000014" class="edge">
<title>Node19&#45;&gt;Node14</title>
<g id="a_edge24_Node000019_Node000014"><a xlink:title=" ">
<path fill="none" stroke="#63b8ff" d="M1140.97,-69.05C1130.77,-57.85 1119.51,-45.49 1111.07,-36.23"/>
<polygon fill="#63b8ff" stroke="#63b8ff" points="1138.17,-71.17 1147.49,-76.21 1143.34,-66.46 1138.17,-71.17"/>
</a>
</g>
</g>
<!-- Node20 -->
<g id="Node000020" class="node">
<title>Node20</title>
<g id="a_Node000020"><a xlink:href="_flattening_pass_8cpp.html" target="_top" xlink:title="This file implements the &#45;llzk&#45;flatten pass.">
<polygon fill="white" stroke="#666666" points="1316.75,-36.12 1161.25,-36.12 1161.25,-5.62 1316.75,-5.62 1316.75,-36.12"/>
<text text-anchor="start" x="1169.25" y="-22.62" font-family="Helvetica,sans-Serif" font-size="10.00">lib/Dialect/Polymorphic</text>
<text text-anchor="middle" x="1239" y="-11.38" font-family="Helvetica,sans-Serif" font-size="10.00">/Transforms/FlatteningPass.cpp</text>
</a>
</g>
</g>
<!-- Node19&#45;&gt;Node20 -->
<g id="edge23_Node000019_Node000020" class="edge">
<title>Node19&#45;&gt;Node20</title>
<g id="a_edge23_Node000019_Node000020"><a xlink:title=" ">
<path fill="none" stroke="#63b8ff" d="M1194.16,-69.05C1204.81,-57.85 1216.56,-45.49 1225.36,-36.23"/>
<polygon fill="#63b8ff" stroke="#63b8ff" points="1191.69,-66.57 1187.34,-76.23 1196.76,-71.39 1191.69,-66.57"/>
</a>
</g>
</g>
<!-- Node21&#45;&gt;Node14 -->
<g id="edge30_Node000021_Node000014" class="edge">
<title>Node21&#45;&gt;Node14</title>
<g id="a_edge30_Node000021_Node000014"><a xlink:title=" ">
<path fill="none" stroke="#63b8ff" d="M1326.35,-82.37C1275.28,-72.5 1209.42,-58.4 1152,-41.75 1146.72,-40.22 1141.22,-38.43 1135.83,-36.56"/>
<polygon fill="#63b8ff" stroke="#63b8ff" points="1325.37,-85.75 1335.85,-84.19 1326.69,-78.88 1325.37,-85.75"/>
</a>
</g>
</g>
<!-- Node22 -->
<g id="Node000022" class="node">
<title>Node22</title>
<g id="a_Node000022"><a xlink:href="_l_l_z_k_redundant_operation_elimination_pass_8cpp.html" target="_top" xlink:title="This file implements the &#45;llzk&#45;duplicate&#45;op&#45;elim pass.">
<polygon fill="white" stroke="#666666" points="1823.88,-36.12 1672.12,-36.12 1672.12,-5.62 1823.88,-5.62 1823.88,-36.12"/>
<text text-anchor="start" x="1680.12" y="-22.62" font-family="Helvetica,sans-Serif" font-size="10.00">lib/Transforms/LLZKRedundant</text>
<text text-anchor="middle" x="1748" y="-11.38" font-family="Helvetica,sans-Serif" font-size="10.00">OperationEliminationPass.cpp</text>
</a>
</g>
</g>
<!-- Node21&#45;&gt;Node22 -->
<g id="edge26_Node000021_Node000022" class="edge">
<title>Node21&#45;&gt;Node22</title>
<g id="a_edge26_Node000021_Node000022"><a xlink:title=" ">
<path fill="none" stroke="#63b8ff" d="M1483.61,-80.36C1487.46,-79.47 1491.27,-78.6 1495,-77.75 1569.47,-60.86 1588.49,-58.44 1663,-41.75 1670.39,-40.09 1678.14,-38.33 1685.82,-36.55"/>
<polygon fill="#63b8ff" stroke="#63b8ff" points="1483.12,-76.88 1474.18,-82.57 1484.71,-83.7 1483.12,-76.88"/>
</a>
</g>
</g>
<!-- Node23 -->
<g id="Node000023" class="node">
<title>Node23</title>
<g id="a_Node000023"><a xlink:href="_l_l_z_k_redundant_read_and_write_elimination_pass_8cpp.html" target="_top" xlink:title="This file implements the &#45;llzk&#45;duplicate&#45;read&#45;write&#45;elim pass.">
<polygon fill="white" stroke="#666666" points="2010.12,-36.12 1841.88,-36.12 1841.88,-5.62 2010.12,-5.62 2010.12,-36.12"/>
<text text-anchor="start" x="1849.88" y="-22.62" font-family="Helvetica,sans-Serif" font-size="10.00">lib/Transforms/LLZKRedundant</text>
<text text-anchor="middle" x="1926" y="-11.38" font-family="Helvetica,sans-Serif" font-size="10.00">ReadAndWriteEliminationPass.cpp</text>
</a>
</g>
</g>
<!-- Node21&#45;&gt;Node23 -->
<g id="edge27_Node000021_Node000023" class="edge">
<title>Node21&#45;&gt;Node23</title>
<g id="a_edge27_Node000021_Node000023"><a xlink:title=" ">
<path fill="none" stroke="#63b8ff" d="M1480.01,-80.59C1485.07,-79.56 1490.1,-78.59 1495,-77.75 1643.88,-52.11 1683.82,-65.57 1833,-41.75 1842.21,-40.28 1851.89,-38.49 1861.37,-36.59"/>
<polygon fill="#63b8ff" stroke="#63b8ff" points="1479.47,-77.13 1470.43,-82.65 1480.94,-83.97 1479.47,-77.13"/>
</a>
</g>
</g>
<!-- Node24 -->
<g id="Node000024" class="node">
<title>Node24</title>
<g id="a_Node000024"><a xlink:href="_l_l_z_k_unused_declaration_elimination_pass_8cpp.html" target="_top" xlink:title="This file implements the &#45;llzk&#45;unused&#45;declaration&#45;elim pass.">
<polygon fill="white" stroke="#666666" points="1489.38,-36.12 1334.62,-36.12 1334.62,-5.62 1489.38,-5.62 1489.38,-36.12"/>
<text text-anchor="start" x="1342.62" y="-22.62" font-family="Helvetica,sans-Serif" font-size="10.00">lib/Transforms/LLZKUnused</text>
<text text-anchor="middle" x="1412" y="-11.38" font-family="Helvetica,sans-Serif" font-size="10.00">DeclarationEliminationPass.cpp</text>
</a>
</g>
</g>
<!-- Node21&#45;&gt;Node24 -->
<g id="edge28_Node000021_Node000024" class="edge">
<title>Node21&#45;&gt;Node24</title>
<g id="a_edge28_Node000021_Node000024"><a xlink:title=" ">
<path fill="none" stroke="#63b8ff" d="M1412,-71.6C1412,-59.84 1412,-46.38 1412,-36.44"/>
<polygon fill="#63b8ff" stroke="#63b8ff" points="1408.5,-71.51 1412,-81.51 1415.5,-71.51 1408.5,-71.51"/>
</a>
</g>
</g>
<!-- Node25 -->
<g id="Node000025" class="node">
<title>Node25</title>
<g id="a_Node000025"><a xlink:href="_transformation_pass_pipelines_8cpp.html" target="_top" xlink:title="This file implements logic for registering the &#45;llzk&#45;remove&#45;unnecessary&#45;ops and &#45;llzk&#45;remove&#45;unnecess...">
<polygon fill="white" stroke="#666666" points="1654.25,-36.12 1507.75,-36.12 1507.75,-5.62 1654.25,-5.62 1654.25,-36.12"/>
<text text-anchor="start" x="1515.75" y="-22.62" font-family="Helvetica,sans-Serif" font-size="10.00">lib/Transforms/Transformation</text>
<text text-anchor="middle" x="1581" y="-11.38" font-family="Helvetica,sans-Serif" font-size="10.00">PassPipelines.cpp</text>
</a>
</g>
</g>
<!-- Node21&#45;&gt;Node25 -->
<g id="edge29_Node000021_Node000025" class="edge">
<title>Node21&#45;&gt;Node25</title>
<g id="a_edge29_Node000021_Node000025"><a xlink:title=" ">
<path fill="none" stroke="#63b8ff" d="M1454.84,-78.42C1483.86,-65.42 1521.61,-48.5 1548.23,-36.56"/>
<polygon fill="#63b8ff" stroke="#63b8ff" points="1453.66,-75.12 1445.97,-82.4 1456.52,-81.5 1453.66,-75.12"/>
</a>
</g>
</g>
<!-- Node26&#45;&gt;Node14 -->
<g id="edge33_Node000026_Node000014" class="edge">
<title>Node26&#45;&gt;Node14</title>
<g id="a_edge33_Node000026_Node000014"><a xlink:title=" ">
<path fill="none" stroke="#63b8ff" d="M1507.2,-80.32C1503.09,-79.37 1498.99,-78.51 1495,-77.75 1344.39,-49.26 1301.29,-76.49 1152,-41.75 1146.16,-40.39 1140.09,-38.58 1134.23,-36.6"/>
<polygon fill="#63b8ff" stroke="#63b8ff" points="1506.05,-83.64 1516.59,-82.6 1507.7,-76.84 1506.05,-83.64"/>
</a>
</g>
</g>
<!-- Node27 -->
<g id="Node000027" class="node">
<title>Node27</title>
<g id="a_Node000027"><a xlink:href="_l_l_z_k_validation_passes_8cpp.html" target="_top" xlink:title="This file contains the implementation for the &#45;llzk&#45;validate&#45;field&#45;writes pass.">
<polygon fill="white" stroke="#666666" points="2167.88,-36.12 2028.12,-36.12 2028.12,-5.62 2167.88,-5.62 2167.88,-36.12"/>
<text text-anchor="start" x="2036.12" y="-22.62" font-family="Helvetica,sans-Serif" font-size="10.00">lib/Validators/LLZKValidation</text>
<text text-anchor="middle" x="2098" y="-11.38" font-family="Helvetica,sans-Serif" font-size="10.00">Passes.cpp</text>
</a>
</g>
</g>
<!-- Node26&#45;&gt;Node27 -->
<g id="edge32_Node000026_Node000027" class="edge">
<title>Node26&#45;&gt;Node27</title>
<g id="a_edge32_Node000026_Node000027"><a xlink:title=" ">
<path fill="none" stroke="#63b8ff" d="M1641.33,-91.28C1731.26,-82.94 1887.02,-66.41 2019,-41.75 2026.92,-40.27 2035.24,-38.46 2043.37,-36.55"/>
<polygon fill="#63b8ff" stroke="#63b8ff" points="1641.04,-87.79 1631.4,-92.19 1641.68,-94.76 1641.04,-87.79"/>
</a>
</g>
</g>
</g>
</svg>
