<?xml version="1.0" encoding="UTF-8" standalone="no"?>
<!DOCTYPE svg PUBLIC "-//W3C//DTD SVG 1.1//EN"
 "http://www.w3.org/Graphics/SVG/1.1/DTD/svg11.dtd">
<!-- Generated by graphviz version 12.2.1 (20241206.2353)
 -->
<!-- Title: build/include/llzk/Dialect/Struct/IR/Ops.cpp.inc Pages: 1 -->
<svg width="204pt" height="105pt"
 viewBox="0.00 0.00 203.75 105.00" xmlns="http://www.w3.org/2000/svg" xmlns:xlink="http://www.w3.org/1999/xlink">
<g id="graph0" class="graph" transform="scale(1 1) rotate(0) translate(4 101)">
<title>build/include/llzk/Dialect/Struct/IR/Ops.cpp.inc</title>
<!-- Node1 -->
<g id="Node000001" class="node">
<title>Node1</title>
<g id="a_Node000001"><a xlink:title=" ">
<polygon fill="#999999" stroke="#666666" points="171.38,-97 23.38,-97 23.38,-66.5 171.38,-66.5 171.38,-97"/>
<text text-anchor="start" x="31.38" y="-83.5" font-family="Helvetica,sans-Serif" font-size="10.00">build/include/llzk</text>
<text text-anchor="middle" x="97.38" y="-72.25" font-family="Helvetica,sans-Serif" font-size="10.00">/Dialect/Struct/IR/Ops.cpp.inc</text>
</a>
</g>
</g>
<!-- Node2 -->
<g id="Node000002" class="node">
<title>Node2</title>
<g id="a_Node000002"><a xlink:href="_struct_2_i_r_2_dialect_8cpp.html" target="_top" xlink:title=" ">
<polygon fill="white" stroke="#666666" points="88.75,-30.5 0,-30.5 0,0 88.75,0 88.75,-30.5"/>
<text text-anchor="start" x="8" y="-17" font-family="Helvetica,sans-Serif" font-size="10.00">lib/Dialect/Struct</text>
<text text-anchor="middle" x="44.38" y="-5.75" font-family="Helvetica,sans-Serif" font-size="10.00">/IR/Dialect.cpp</text>
</a>
</g>
</g>
<!-- Node1&#45;&gt;Node2 -->
<g id="edge1_Node000001_Node000002" class="edge">
<title>Node1&#45;&gt;Node2</title>
<g id="a_edge1_Node000001_Node000002"><a xlink:title=" ">
<path fill="none" stroke="#63b8ff" d="M78.15,-57.35C70.86,-48.48 62.78,-38.65 56.35,-30.83"/>
<polygon fill="#63b8ff" stroke="#63b8ff" points="75.33,-59.44 84.39,-64.94 80.74,-55 75.33,-59.44"/>
</a>
</g>
</g>
<!-- Node3 -->
<g id="Node000003" class="node">
<title>Node3</title>
<g id="a_Node000003"><a xlink:href="_struct_2_i_r_2_ops_8cpp.html" target="_top" xlink:title=" ">
<polygon fill="white" stroke="#666666" points="195.75,-30.5 107,-30.5 107,0 195.75,0 195.75,-30.5"/>
<text text-anchor="start" x="115" y="-17" font-family="Helvetica,sans-Serif" font-size="10.00">lib/Dialect/Struct</text>
<text text-anchor="middle" x="151.38" y="-5.75" font-family="Helvetica,sans-Serif" font-size="10.00">/IR/Ops.cpp</text>
</a>
</g>
</g>
<!-- Node1&#45;&gt;Node3 -->
<g id="edge2_Node000001_Node000003" class="edge">
<title>Node1&#45;&gt;Node3</title>
<g id="a_edge2_Node000001_Node000003"><a xlink:title=" ">
<path fill="none" stroke="#63b8ff" d="M116.97,-57.35C124.39,-48.48 132.62,-38.65 139.17,-30.83"/>
<polygon fill="#63b8ff" stroke="#63b8ff" points="114.34,-55.04 110.6,-64.95 119.7,-59.53 114.34,-55.04"/>
</a>
</g>
</g>
</g>
</svg>
