<?xml version="1.0" encoding="UTF-8" standalone="no"?>
<!DOCTYPE svg PUBLIC "-//W3C//DTD SVG 1.1//EN"
 "http://www.w3.org/Graphics/SVG/1.1/DTD/svg11.dtd">
<!-- Generated by graphviz version 12.2.1 (20241206.2353)
 -->
<!-- Title: include/llzk/Dialect/Struct/IR/OpInterfaces.h Pages: 1 -->
<svg width="1610pt" height="293pt"
 viewBox="0.00 0.00 1610.38 293.25" xmlns="http://www.w3.org/2000/svg" xmlns:xlink="http://www.w3.org/1999/xlink">
<g id="graph0" class="graph" transform="scale(1 1) rotate(0) translate(4 289.25)">
<title>include/llzk/Dialect/Struct/IR/OpInterfaces.h</title>
<!-- Node1 -->
<g id="Node000001" class="node">
<title>Node1</title>
<g id="a_Node000001"><a xlink:title=" ">
<polygon fill="#999999" stroke="#666666" points="988.88,-285.25 862.62,-285.25 862.62,-254.75 988.88,-254.75 988.88,-285.25"/>
<text text-anchor="start" x="870.62" y="-271.75" font-family="Helvetica,sans-Serif" font-size="10.00">include/llzk/Dialect</text>
<text text-anchor="middle" x="925.75" y="-260.5" font-family="Helvetica,sans-Serif" font-size="10.00">/Struct/IR/OpInterfaces.h</text>
</a>
</g>
</g>
<!-- Node2 -->
<g id="Node000002" class="node">
<title>Node2</title>
<g id="a_Node000002"><a xlink:href="_struct_2_i_r_2_types_8h.html" target="_top" xlink:title=" ">
<polygon fill="white" stroke="#666666" points="912.75,-218.75 818.75,-218.75 818.75,-188.25 912.75,-188.25 912.75,-218.75"/>
<text text-anchor="start" x="826.75" y="-205.25" font-family="Helvetica,sans-Serif" font-size="10.00">llzk/Dialect/Struct</text>
<text text-anchor="middle" x="865.75" y="-194" font-family="Helvetica,sans-Serif" font-size="10.00">/IR/Types.h</text>
</a>
</g>
</g>
<!-- Node1&#45;&gt;Node2 -->
<g id="edge1_Node000001_Node000002" class="edge">
<title>Node1&#45;&gt;Node2</title>
<g id="a_edge1_Node000001_Node000002"><a xlink:title=" ">
<path fill="none" stroke="#63b8ff" d="M912.14,-254.36C904.69,-246.36 895.31,-236.28 886.94,-227.28"/>
<polygon fill="#63b8ff" stroke="#63b8ff" points="889.72,-225.12 880.34,-220.19 884.59,-229.89 889.72,-225.12"/>
</a>
</g>
</g>
<!-- Node23 -->
<g id="Node000023" class="node">
<title>Node23</title>
<g id="a_Node000023"><a xlink:href="_struct_2_i_r_2_op_interfaces_8h_8inc.html" target="_top" xlink:title=" ">
<polygon fill="white" stroke="#666666" points="1043.12,-218.75 930.38,-218.75 930.38,-188.25 1043.12,-188.25 1043.12,-218.75"/>
<text text-anchor="start" x="938.38" y="-205.25" font-family="Helvetica,sans-Serif" font-size="10.00">llzk/Dialect/Struct</text>
<text text-anchor="middle" x="986.75" y="-194" font-family="Helvetica,sans-Serif" font-size="10.00">/IR/OpInterfaces.h.inc</text>
</a>
</g>
</g>
<!-- Node1&#45;&gt;Node23 -->
<g id="edge24_Node000001_Node000023" class="edge">
<title>Node1&#45;&gt;Node23</title>
<g id="a_edge24_Node000001_Node000023"><a xlink:title=" ">
<path fill="none" stroke="#63b8ff" d="M939.59,-254.36C947.16,-246.36 956.69,-236.28 965.21,-227.28"/>
<polygon fill="#63b8ff" stroke="#63b8ff" points="967.59,-229.85 971.92,-220.18 962.51,-225.04 967.59,-229.85"/>
</a>
</g>
</g>
<!-- Node3 -->
<g id="Node000003" class="node">
<title>Node3</title>
<g id="a_Node000003"><a xlink:href="_struct_2_i_r_2_dialect_8h.html" target="_top" xlink:title=" ">
<polygon fill="white" stroke="#666666" points="213.75,-152.25 119.75,-152.25 119.75,-121.75 213.75,-121.75 213.75,-152.25"/>
<text text-anchor="start" x="127.75" y="-138.75" font-family="Helvetica,sans-Serif" font-size="10.00">llzk/Dialect/Struct</text>
<text text-anchor="middle" x="166.75" y="-127.5" font-family="Helvetica,sans-Serif" font-size="10.00">/IR/Dialect.h</text>
</a>
</g>
</g>
<!-- Node2&#45;&gt;Node3 -->
<g id="edge2_Node000002_Node000003" class="edge">
<title>Node2&#45;&gt;Node3</title>
<g id="a_edge2_Node000002_Node000003"><a xlink:title=" ">
<path fill="none" stroke="#63b8ff" d="M818.25,-198.12C694.2,-186.67 360.68,-155.9 225.18,-143.39"/>
<polygon fill="#63b8ff" stroke="#63b8ff" points="225.64,-139.92 215.36,-142.49 224.99,-146.89 225.64,-139.92"/>
</a>
</g>
</g>
<!-- Node6 -->
<g id="Node000006" class="node">
<title>Node6</title>
<g id="a_Node000006"><a xlink:href="_symbol_lookup_8h.html" target="_top" xlink:title="This file defines methods symbol lookup across LLZK operations and included files.">
<polygon fill="white" stroke="#666666" points="620.12,-146.62 495.38,-146.62 495.38,-127.38 620.12,-127.38 620.12,-146.62"/>
<text text-anchor="middle" x="557.75" y="-133.12" font-family="Helvetica,sans-Serif" font-size="10.00">llzk/Util/SymbolLookup.h</text>
</a>
</g>
</g>
<!-- Node2&#45;&gt;Node6 -->
<g id="edge5_Node000002_Node000006" class="edge">
<title>Node2&#45;&gt;Node6</title>
<g id="a_edge5_Node000002_Node000006"><a xlink:title=" ">
<path fill="none" stroke="#63b8ff" d="M818.3,-192.56C762.77,-180.94 671,-161.72 612.5,-149.47"/>
<polygon fill="#63b8ff" stroke="#63b8ff" points="613.25,-146.05 602.75,-147.42 611.82,-152.9 613.25,-146.05"/>
</a>
</g>
</g>
<!-- Node12 -->
<g id="Node000012" class="node">
<title>Node12</title>
<g id="a_Node000012"><a xlink:href="_type_helper_8h.html" target="_top" xlink:title=" ">
<polygon fill="white" stroke="#666666" points="920.25,-146.62 811.25,-146.62 811.25,-127.38 920.25,-127.38 920.25,-146.62"/>
<text text-anchor="middle" x="865.75" y="-133.12" font-family="Helvetica,sans-Serif" font-size="10.00">llzk/Util/TypeHelper.h</text>
</a>
</g>
</g>
<!-- Node2&#45;&gt;Node12 -->
<g id="edge11_Node000002_Node000012" class="edge">
<title>Node2&#45;&gt;Node12</title>
<g id="a_edge11_Node000002_Node000012"><a xlink:title=" ">
<path fill="none" stroke="#63b8ff" d="M865.75,-187.86C865.75,-179.08 865.75,-167.77 865.75,-158.15"/>
<polygon fill="#63b8ff" stroke="#63b8ff" points="869.25,-158.34 865.75,-148.34 862.25,-158.34 869.25,-158.34"/>
</a>
</g>
</g>
<!-- Node21 -->
<g id="Node000021" class="node">
<title>Node21</title>
<g id="a_Node000021"><a xlink:href="_struct_2_i_r_2_ops_8h_8inc.html" target="_top" xlink:title=" ">
<polygon fill="white" stroke="#666666" points="1032.75,-152.25 938.75,-152.25 938.75,-121.75 1032.75,-121.75 1032.75,-152.25"/>
<text text-anchor="start" x="946.75" y="-138.75" font-family="Helvetica,sans-Serif" font-size="10.00">llzk/Dialect/Struct</text>
<text text-anchor="middle" x="985.75" y="-127.5" font-family="Helvetica,sans-Serif" font-size="10.00">/IR/Ops.h.inc</text>
</a>
</g>
</g>
<!-- Node2&#45;&gt;Node21 -->
<g id="edge22_Node000002_Node000021" class="edge">
<title>Node2&#45;&gt;Node21</title>
<g id="a_edge22_Node000002_Node000021"><a xlink:title=" ">
<path fill="none" stroke="#63b8ff" d="M892.98,-187.86C909.47,-179 930.73,-167.57 948.74,-157.89"/>
<polygon fill="#63b8ff" stroke="#63b8ff" points="950.14,-161.11 957.29,-153.29 946.83,-154.95 950.14,-161.11"/>
</a>
</g>
</g>
<!-- Node22 -->
<g id="Node000022" class="node">
<title>Node22</title>
<g id="a_Node000022"><a xlink:href="_struct_2_i_r_2_types_8h_8inc.html" target="_top" xlink:title=" ">
<polygon fill="white" stroke="#666666" points="1144.75,-152.25 1050.75,-152.25 1050.75,-121.75 1144.75,-121.75 1144.75,-152.25"/>
<text text-anchor="start" x="1058.75" y="-138.75" font-family="Helvetica,sans-Serif" font-size="10.00">llzk/Dialect/Struct</text>
<text text-anchor="middle" x="1097.75" y="-127.5" font-family="Helvetica,sans-Serif" font-size="10.00">/IR/Types.h.inc</text>
</a>
</g>
</g>
<!-- Node2&#45;&gt;Node22 -->
<g id="edge23_Node000002_Node000022" class="edge">
<title>Node2&#45;&gt;Node22</title>
<g id="a_edge23_Node000002_Node000022"><a xlink:title=" ">
<path fill="none" stroke="#63b8ff" d="M912.98,-189.37C949.59,-179.19 1000.52,-165.03 1039.63,-154.16"/>
<polygon fill="#63b8ff" stroke="#63b8ff" points="1040.43,-157.57 1049.13,-151.52 1038.56,-150.82 1040.43,-157.57"/>
</a>
</g>
</g>
<!-- Node4 -->
<g id="Node000004" class="node">
<title>Node4</title>
<g id="a_Node000004"><a xlink:title=" ">
<polygon fill="#e0e0e0" stroke="#999999" points="101.5,-80.12 0,-80.12 0,-60.88 101.5,-60.88 101.5,-80.12"/>
<text text-anchor="middle" x="50.75" y="-66.62" font-family="Helvetica,sans-Serif" font-size="10.00">mlir/IR/BuiltinOps.h</text>
</a>
</g>
</g>
<!-- Node3&#45;&gt;Node4 -->
<g id="edge3_Node000003_Node000004" class="edge">
<title>Node3&#45;&gt;Node4</title>
<g id="a_edge3_Node000003_Node000004"><a xlink:title=" ">
<path fill="none" stroke="#63b8ff" d="M140.43,-121.36C121.45,-110.81 95.95,-96.63 76.99,-86.09"/>
<polygon fill="#63b8ff" stroke="#63b8ff" points="78.72,-83.05 68.28,-81.25 75.32,-89.16 78.72,-83.05"/>
</a>
</g>
</g>
<!-- Node5 -->
<g id="Node000005" class="node">
<title>Node5</title>
<g id="a_Node000005"><a xlink:href="_struct_2_i_r_2_dialect_8h_8inc.html" target="_top" xlink:title=" ">
<polygon fill="white" stroke="#666666" points="213.75,-85.75 119.75,-85.75 119.75,-55.25 213.75,-55.25 213.75,-85.75"/>
<text text-anchor="start" x="127.75" y="-72.25" font-family="Helvetica,sans-Serif" font-size="10.00">llzk/Dialect/Struct</text>
<text text-anchor="middle" x="166.75" y="-61" font-family="Helvetica,sans-Serif" font-size="10.00">/IR/Dialect.h.inc</text>
</a>
</g>
</g>
<!-- Node3&#45;&gt;Node5 -->
<g id="edge4_Node000003_Node000005" class="edge">
<title>Node3&#45;&gt;Node5</title>
<g id="a_edge4_Node000003_Node000005"><a xlink:title=" ">
<path fill="none" stroke="#63b8ff" d="M166.75,-121.36C166.75,-114.27 166.75,-105.54 166.75,-97.38"/>
<polygon fill="#63b8ff" stroke="#63b8ff" points="170.25,-97.59 166.75,-87.59 163.25,-97.59 170.25,-97.59"/>
</a>
</g>
</g>
<!-- Node7 -->
<g id="Node000007" class="node">
<title>Node7</title>
<g id="a_Node000007"><a xlink:href="_constants_8h.html" target="_top" xlink:title=" ">
<polygon fill="white" stroke="#666666" points="337.38,-80.12 232.12,-80.12 232.12,-60.88 337.38,-60.88 337.38,-80.12"/>
<text text-anchor="middle" x="284.75" y="-66.62" font-family="Helvetica,sans-Serif" font-size="10.00">llzk/Util/Constants.h</text>
</a>
</g>
</g>
<!-- Node6&#45;&gt;Node7 -->
<g id="edge6_Node000006_Node000007" class="edge">
<title>Node6&#45;&gt;Node7</title>
<g id="a_edge6_Node000006_Node000007"><a xlink:title=" ">
<path fill="none" stroke="#63b8ff" d="M519.21,-126.9C470.74,-115.44 387.43,-95.76 334.28,-83.2"/>
<polygon fill="#63b8ff" stroke="#63b8ff" points="335.1,-79.8 324.56,-80.91 333.49,-86.61 335.1,-79.8"/>
</a>
</g>
</g>
<!-- Node8 -->
<g id="Node000008" class="node">
<title>Node8</title>
<g id="a_Node000008"><a xlink:title=" ">
<polygon fill="#e0e0e0" stroke="#999999" points="652,-80.12 553.5,-80.12 553.5,-60.88 652,-60.88 652,-80.12"/>
<text text-anchor="middle" x="602.75" y="-66.62" font-family="Helvetica,sans-Serif" font-size="10.00">mlir/IR/Operation.h</text>
</a>
</g>
</g>
<!-- Node6&#45;&gt;Node8 -->
<g id="edge7_Node000006_Node000008" class="edge">
<title>Node6&#45;&gt;Node8</title>
<g id="a_edge7_Node000006_Node000008"><a xlink:title=" ">
<path fill="none" stroke="#63b8ff" d="M564.01,-127.03C570.72,-117.4 581.58,-101.85 590.09,-89.65"/>
<polygon fill="#63b8ff" stroke="#63b8ff" points="592.83,-91.84 595.68,-81.63 587.09,-87.83 592.83,-91.84"/>
</a>
</g>
</g>
<!-- Node9 -->
<g id="Node000009" class="node">
<title>Node9</title>
<g id="a_Node000009"><a xlink:title=" ">
<polygon fill="#e0e0e0" stroke="#999999" points="473.75,-80.12 355.75,-80.12 355.75,-60.88 473.75,-60.88 473.75,-80.12"/>
<text text-anchor="middle" x="414.75" y="-66.62" font-family="Helvetica,sans-Serif" font-size="10.00">mlir/IR/OwningOpRef.h</text>
</a>
</g>
</g>
<!-- Node6&#45;&gt;Node9 -->
<g id="edge8_Node000006_Node000009" class="edge">
<title>Node6&#45;&gt;Node9</title>
<g id="a_edge8_Node000006_Node000009"><a xlink:title=" ">
<path fill="none" stroke="#63b8ff" d="M537.56,-126.9C513.5,-116.04 473.06,-97.8 445.2,-85.23"/>
<polygon fill="#63b8ff" stroke="#63b8ff" points="446.77,-82.1 436.21,-81.18 443.89,-88.48 446.77,-82.1"/>
</a>
</g>
</g>
<!-- Node10 -->
<g id="Node000010" class="node">
<title>Node10</title>
<g id="a_Node000010"><a xlink:title=" ">
<polygon fill="#e0e0e0" stroke="#999999" points="779.62,-80.12 669.88,-80.12 669.88,-60.88 779.62,-60.88 779.62,-80.12"/>
<text text-anchor="middle" x="724.75" y="-66.62" font-family="Helvetica,sans-Serif" font-size="10.00">llvm/ADT/StringRef.h</text>
</a>
</g>
</g>
<!-- Node6&#45;&gt;Node10 -->
<g id="edge9_Node000006_Node000010" class="edge">
<title>Node6&#45;&gt;Node10</title>
<g id="a_edge9_Node000006_Node000010"><a xlink:title=" ">
<path fill="none" stroke="#63b8ff" d="M581.32,-126.9C609.92,-115.85 658.33,-97.15 690.91,-84.57"/>
<polygon fill="#63b8ff" stroke="#63b8ff" points="691.82,-87.97 699.89,-81.1 689.3,-81.44 691.82,-87.97"/>
</a>
</g>
</g>
<!-- Node11 -->
<g id="Node000011" class="node">
<title>Node11</title>
<g id="a_Node000011"><a xlink:title=" ">
<polygon fill="#e0e0e0" stroke="#999999" points="535.25,-80.12 492.25,-80.12 492.25,-60.88 535.25,-60.88 535.25,-80.12"/>
<text text-anchor="middle" x="513.75" y="-66.62" font-family="Helvetica,sans-Serif" font-size="10.00">vector</text>
</a>
</g>
</g>
<!-- Node6&#45;&gt;Node11 -->
<g id="edge10_Node000006_Node000011" class="edge">
<title>Node6&#45;&gt;Node11</title>
<g id="a_edge10_Node000006_Node000011"><a xlink:title=" ">
<path fill="none" stroke="#63b8ff" d="M551.63,-127.03C545.06,-117.4 534.45,-101.85 526.13,-89.65"/>
<polygon fill="#63b8ff" stroke="#63b8ff" points="529.2,-87.93 520.67,-81.64 523.41,-91.88 529.2,-87.93"/>
</a>
</g>
</g>
<!-- Node12&#45;&gt;Node8 -->
<g id="edge17_Node000012_Node000008" class="edge">
<title>Node12&#45;&gt;Node8</title>
<g id="a_edge17_Node000012_Node000008"><a xlink:title=" ">
<path fill="none" stroke="#63b8ff" d="M828.71,-126.93C787.66,-116.87 719.47,-100.16 660.75,-85.75 657.43,-84.94 654.01,-84.1 650.56,-83.25"/>
<polygon fill="#63b8ff" stroke="#63b8ff" points="651.58,-79.9 641.04,-80.91 649.91,-86.69 651.58,-79.9"/>
</a>
</g>
</g>
<!-- Node12&#45;&gt;Node10 -->
<g id="edge21_Node000012_Node000010" class="edge">
<title>Node12&#45;&gt;Node10</title>
<g id="a_edge21_Node000012_Node000010"><a xlink:title=" ">
<path fill="none" stroke="#63b8ff" d="M845.85,-126.9C822.12,-116.04 782.24,-97.8 754.77,-85.23"/>
<polygon fill="#63b8ff" stroke="#63b8ff" points="756.48,-82.16 745.93,-81.19 753.57,-88.53 756.48,-82.16"/>
</a>
</g>
</g>
<!-- Node13 -->
<g id="Node000013" class="node">
<title>Node13</title>
<g id="a_Node000013"><a xlink:href="_error_helper_8h.html" target="_top" xlink:title=" ">
<polygon fill="white" stroke="#666666" points="1450.25,-80.12 1341.25,-80.12 1341.25,-60.88 1450.25,-60.88 1450.25,-80.12"/>
<text text-anchor="middle" x="1395.75" y="-66.62" font-family="Helvetica,sans-Serif" font-size="10.00">llzk/Util/ErrorHelper.h</text>
</a>
</g>
</g>
<!-- Node12&#45;&gt;Node13 -->
<g id="edge12_Node000012_Node000013" class="edge">
<title>Node12&#45;&gt;Node13</title>
<g id="a_edge12_Node000012_Node000013"><a xlink:title=" ">
<path fill="none" stroke="#63b8ff" d="M902.82,-126.89C911.61,-124.97 920.98,-123.11 929.75,-121.75 1107.44,-94.15 1155.1,-113.65 1332.75,-85.75 1337.75,-84.97 1342.94,-84.02 1348.1,-82.98"/>
<polygon fill="#63b8ff" stroke="#63b8ff" points="1348.72,-86.43 1357.78,-80.93 1347.28,-79.58 1348.72,-86.43"/>
</a>
</g>
</g>
<!-- Node17 -->
<g id="Node000017" class="node">
<title>Node17</title>
<g id="a_Node000017"><a xlink:title=" ">
<polygon fill="#e0e0e0" stroke="#999999" points="933.75,-80.12 797.75,-80.12 797.75,-60.88 933.75,-60.88 933.75,-80.12"/>
<text text-anchor="middle" x="865.75" y="-66.62" font-family="Helvetica,sans-Serif" font-size="10.00">mlir/IR/OpImplementation.h</text>
</a>
</g>
</g>
<!-- Node12&#45;&gt;Node17 -->
<g id="edge16_Node000012_Node000017" class="edge">
<title>Node12&#45;&gt;Node17</title>
<g id="a_edge16_Node000012_Node000017"><a xlink:title=" ">
<path fill="none" stroke="#63b8ff" d="M865.75,-127.03C865.75,-117.98 865.75,-103.7 865.75,-91.88"/>
<polygon fill="#63b8ff" stroke="#63b8ff" points="869.25,-91.91 865.75,-81.91 862.25,-91.91 869.25,-91.91"/>
</a>
</g>
</g>
<!-- Node18 -->
<g id="Node000018" class="node">
<title>Node18</title>
<g id="a_Node000018"><a xlink:title=" ">
<polygon fill="#e0e0e0" stroke="#999999" points="1064.12,-80.12 951.38,-80.12 951.38,-60.88 1064.12,-60.88 1064.12,-80.12"/>
<text text-anchor="middle" x="1007.75" y="-66.62" font-family="Helvetica,sans-Serif" font-size="10.00">mlir/IR/SymbolTable.h</text>
</a>
</g>
</g>
<!-- Node12&#45;&gt;Node18 -->
<g id="edge18_Node000012_Node000018" class="edge">
<title>Node12&#45;&gt;Node18</title>
<g id="a_edge18_Node000012_Node000018"><a xlink:title=" ">
<path fill="none" stroke="#63b8ff" d="M885.79,-126.9C909.69,-116.04 949.85,-97.8 977.52,-85.23"/>
<polygon fill="#63b8ff" stroke="#63b8ff" points="978.77,-88.51 986.43,-81.18 975.88,-82.13 978.77,-88.51"/>
</a>
</g>
</g>
<!-- Node19 -->
<g id="Node000019" class="node">
<title>Node19</title>
<g id="a_Node000019"><a xlink:title=" ">
<polygon fill="#e0e0e0" stroke="#999999" points="1189.5,-80.12 1082,-80.12 1082,-60.88 1189.5,-60.88 1189.5,-80.12"/>
<text text-anchor="middle" x="1135.75" y="-66.62" font-family="Helvetica,sans-Serif" font-size="10.00">llvm/ADT/ArrayRef.h</text>
</a>
</g>
</g>
<!-- Node12&#45;&gt;Node19 -->
<g id="edge19_Node000012_Node000019" class="edge">
<title>Node12&#45;&gt;Node19</title>
<g id="a_edge19_Node000012_Node000019"><a xlink:title=" ">
<path fill="none" stroke="#63b8ff" d="M903.86,-126.9C951.8,-115.44 1034.2,-95.76 1086.77,-83.2"/>
<polygon fill="#63b8ff" stroke="#63b8ff" points="1087.45,-86.64 1096.36,-80.91 1085.82,-79.83 1087.45,-86.64"/>
</a>
</g>
</g>
<!-- Node20 -->
<g id="Node000020" class="node">
<title>Node20</title>
<g id="a_Node000020"><a xlink:title=" ">
<polygon fill="#e0e0e0" stroke="#999999" points="1323.62,-80.12 1207.88,-80.12 1207.88,-60.88 1323.62,-60.88 1323.62,-80.12"/>
<text text-anchor="middle" x="1265.75" y="-66.62" font-family="Helvetica,sans-Serif" font-size="10.00">llvm/ADT/DenseMap.h</text>
</a>
</g>
</g>
<!-- Node12&#45;&gt;Node20 -->
<g id="edge20_Node000012_Node000020" class="edge">
<title>Node12&#45;&gt;Node20</title>
<g id="a_edge20_Node000012_Node000020"><a xlink:title=" ">
<path fill="none" stroke="#63b8ff" d="M903.88,-126.95C912.37,-125.09 921.34,-123.25 929.75,-121.75 1048.51,-100.62 1079.89,-106.31 1198.75,-85.75 1203.9,-84.86 1209.25,-83.85 1214.59,-82.8"/>
<polygon fill="#63b8ff" stroke="#63b8ff" points="1214.87,-86.32 1223.97,-80.89 1213.48,-79.46 1214.87,-86.32"/>
</a>
</g>
</g>
<!-- Node14 -->
<g id="Node000014" class="node">
<title>Node14</title>
<g id="a_Node000014"><a xlink:title=" ">
<polygon fill="#e0e0e0" stroke="#999999" points="1330.75,-19.25 1170.75,-19.25 1170.75,0 1330.75,0 1330.75,-19.25"/>
<text text-anchor="middle" x="1250.75" y="-5.75" font-family="Helvetica,sans-Serif" font-size="10.00">llvm/ADT/STLFunctionalExtras.h</text>
</a>
</g>
</g>
<!-- Node13&#45;&gt;Node14 -->
<g id="edge13_Node000013_Node000014" class="edge">
<title>Node13&#45;&gt;Node14</title>
<g id="a_edge13_Node000013_Node000014"><a xlink:title=" ">
<path fill="none" stroke="#63b8ff" d="M1373.41,-60.43C1349.39,-50.68 1310.97,-35.08 1283.53,-23.93"/>
<polygon fill="#63b8ff" stroke="#63b8ff" points="1284.86,-20.7 1274.28,-20.18 1282.23,-27.18 1284.86,-20.7"/>
</a>
</g>
</g>
<!-- Node15 -->
<g id="Node000015" class="node">
<title>Node15</title>
<g id="a_Node000015"><a xlink:title=" ">
<polygon fill="#e0e0e0" stroke="#999999" points="1442.75,-19.25 1348.75,-19.25 1348.75,0 1442.75,0 1442.75,-19.25"/>
<text text-anchor="middle" x="1395.75" y="-5.75" font-family="Helvetica,sans-Serif" font-size="10.00">llvm/ADT/Twine.h</text>
</a>
</g>
</g>
<!-- Node13&#45;&gt;Node15 -->
<g id="edge14_Node000013_Node000015" class="edge">
<title>Node13&#45;&gt;Node15</title>
<g id="a_edge14_Node000013_Node000015"><a xlink:title=" ">
<path fill="none" stroke="#63b8ff" d="M1395.75,-60.56C1395.75,-52.78 1395.75,-41.2 1395.75,-31.16"/>
<polygon fill="#63b8ff" stroke="#63b8ff" points="1399.25,-31.16 1395.75,-21.16 1392.25,-31.16 1399.25,-31.16"/>
</a>
</g>
</g>
<!-- Node16 -->
<g id="Node000016" class="node">
<title>Node16</title>
<g id="a_Node000016"><a xlink:title=" ">
<polygon fill="#e0e0e0" stroke="#999999" points="1602.38,-19.25 1461.12,-19.25 1461.12,0 1602.38,0 1602.38,-19.25"/>
<text text-anchor="middle" x="1531.75" y="-5.75" font-family="Helvetica,sans-Serif" font-size="10.00">llvm/Support/ErrorHandling.h</text>
</a>
</g>
</g>
<!-- Node13&#45;&gt;Node16 -->
<g id="edge15_Node000013_Node000016" class="edge">
<title>Node13&#45;&gt;Node16</title>
<g id="a_edge15_Node000013_Node000016"><a xlink:title=" ">
<path fill="none" stroke="#63b8ff" d="M1416.7,-60.43C1439.13,-50.72 1474.95,-35.21 1500.66,-24.08"/>
<polygon fill="#63b8ff" stroke="#63b8ff" points="1501.82,-27.39 1509.61,-20.21 1499.04,-20.97 1501.82,-27.39"/>
</a>
</g>
</g>
</g>
</svg>
