<?xml version="1.0" encoding="UTF-8" standalone="no"?>
<!DOCTYPE svg PUBLIC "-//W3C//DTD SVG 1.1//EN"
 "http://www.w3.org/Graphics/SVG/1.1/DTD/svg11.dtd">
<!-- Generated by graphviz version 12.2.1 (20241206.2353)
 -->
<!-- Title: include/llzk/Dialect/String/IR/Types.h Pages: 1 -->
<svg width="582pt" height="172pt"
 viewBox="0.00 0.00 582.12 171.50" xmlns="http://www.w3.org/2000/svg" xmlns:xlink="http://www.w3.org/1999/xlink">
<g id="graph0" class="graph" transform="scale(1 1) rotate(0) translate(4 167.5)">
<title>include/llzk/Dialect/String/IR/Types.h</title>
<!-- Node1 -->
<g id="Node000001" class="node">
<title>Node1</title>
<g id="a_Node000001"><a xlink:title=" ">
<polygon fill="#999999" stroke="#666666" points="310.25,-163.5 211.75,-163.5 211.75,-133 310.25,-133 310.25,-163.5"/>
<text text-anchor="start" x="219.75" y="-150" font-family="Helvetica,sans-Serif" font-size="10.00">include/llzk/Dialect</text>
<text text-anchor="middle" x="261" y="-138.75" font-family="Helvetica,sans-Serif" font-size="10.00">/String/IR/Types.h</text>
</a>
</g>
</g>
<!-- Node2 -->
<g id="Node000002" class="node">
<title>Node2</title>
<g id="a_Node000002"><a xlink:href="_string_2_i_r_2_ops_8h.html" target="_top" xlink:title=" ">
<polygon fill="white" stroke="#666666" points="170.25,-97 71.75,-97 71.75,-66.5 170.25,-66.5 170.25,-97"/>
<text text-anchor="start" x="79.75" y="-83.5" font-family="Helvetica,sans-Serif" font-size="10.00">include/llzk/Dialect</text>
<text text-anchor="middle" x="121" y="-72.25" font-family="Helvetica,sans-Serif" font-size="10.00">/String/IR/Ops.h</text>
</a>
</g>
</g>
<!-- Node1&#45;&gt;Node2 -->
<g id="edge1_Node000001_Node000002" class="edge">
<title>Node1&#45;&gt;Node2</title>
<g id="a_edge1_Node000001_Node000002"><a xlink:title=" ">
<path fill="none" stroke="#63b8ff" d="M218.85,-127.83C197.58,-118.03 172.22,-106.35 152.64,-97.33"/>
<polygon fill="#63b8ff" stroke="#63b8ff" points="217.31,-130.98 227.86,-131.98 220.24,-124.62 217.31,-130.98"/>
</a>
</g>
</g>
<!-- Node3 -->
<g id="Node000003" class="node">
<title>Node3</title>
<g id="a_Node000003"><a xlink:href="_string_2_i_r_2_dialect_8cpp.html" target="_top" xlink:title=" ">
<polygon fill="white" stroke="#666666" points="88,-30.5 0,-30.5 0,0 88,0 88,-30.5"/>
<text text-anchor="start" x="8" y="-17" font-family="Helvetica,sans-Serif" font-size="10.00">lib/Dialect/String</text>
<text text-anchor="middle" x="44" y="-5.75" font-family="Helvetica,sans-Serif" font-size="10.00">/IR/Dialect.cpp</text>
</a>
</g>
</g>
<!-- Node1&#45;&gt;Node3 -->
<g id="edge6_Node000001_Node000003" class="edge">
<title>Node1&#45;&gt;Node3</title>
<g id="a_edge6_Node000001_Node000003"><a xlink:title=" ">
<path fill="none" stroke="#63b8ff" d="M200.27,-138.85C149.38,-130.59 82.07,-116.4 63,-97 45.64,-79.33 43.03,-48.95 43.19,-30.92"/>
<polygon fill="#63b8ff" stroke="#63b8ff" points="199.59,-142.29 210.01,-140.39 200.68,-135.38 199.59,-142.29"/>
</a>
</g>
</g>
<!-- Node5 -->
<g id="Node000005" class="node">
<title>Node5</title>
<g id="a_Node000005"><a xlink:href="_constrain_ref_8cpp.html" target="_top" xlink:title=" ">
<polygon fill="white" stroke="#666666" points="333.88,-91.38 188.12,-91.38 188.12,-72.12 333.88,-72.12 333.88,-91.38"/>
<text text-anchor="middle" x="261" y="-77.88" font-family="Helvetica,sans-Serif" font-size="10.00">lib/Analysis/ConstrainRef.cpp</text>
</a>
</g>
</g>
<!-- Node1&#45;&gt;Node5 -->
<g id="edge4_Node000001_Node000005" class="edge">
<title>Node1&#45;&gt;Node5</title>
<g id="a_edge4_Node000001_Node000005"><a xlink:title=" ">
<path fill="none" stroke="#63b8ff" d="M261,-121.34C261,-110.76 261,-99.25 261,-91.57"/>
<polygon fill="#63b8ff" stroke="#63b8ff" points="257.5,-121.1 261,-131.1 264.5,-121.1 257.5,-121.1"/>
</a>
</g>
</g>
<!-- Node6 -->
<g id="Node000006" class="node">
<title>Node6</title>
<g id="a_Node000006"><a xlink:href="_global_2_i_r_2_ops_8cpp.html" target="_top" xlink:title=" ">
<polygon fill="white" stroke="#666666" points="442.12,-97 351.88,-97 351.88,-66.5 442.12,-66.5 442.12,-97"/>
<text text-anchor="start" x="359.88" y="-83.5" font-family="Helvetica,sans-Serif" font-size="10.00">lib/Dialect/Global</text>
<text text-anchor="middle" x="397" y="-72.25" font-family="Helvetica,sans-Serif" font-size="10.00">/IR/Ops.cpp</text>
</a>
</g>
</g>
<!-- Node1&#45;&gt;Node6 -->
<g id="edge5_Node000001_Node000006" class="edge">
<title>Node1&#45;&gt;Node6</title>
<g id="a_edge5_Node000001_Node000006"><a xlink:title=" ">
<path fill="none" stroke="#63b8ff" d="M302.23,-127.7C322.83,-117.93 347.33,-106.31 366.26,-97.33"/>
<polygon fill="#63b8ff" stroke="#63b8ff" points="300.76,-124.52 293.23,-131.97 303.76,-130.84 300.76,-124.52"/>
</a>
</g>
</g>
<!-- Node7 -->
<g id="Node000007" class="node">
<title>Node7</title>
<g id="a_Node000007"><a xlink:href="_type_helper_8cpp.html" target="_top" xlink:title=" ">
<polygon fill="white" stroke="#666666" points="574.12,-91.38 459.88,-91.38 459.88,-72.12 574.12,-72.12 574.12,-91.38"/>
<text text-anchor="middle" x="517" y="-77.88" font-family="Helvetica,sans-Serif" font-size="10.00">lib/Util/TypeHelper.cpp</text>
</a>
</g>
</g>
<!-- Node1&#45;&gt;Node7 -->
<g id="edge7_Node000001_Node000007" class="edge">
<title>Node1&#45;&gt;Node7</title>
<g id="a_edge7_Node000001_Node000007"><a xlink:title=" ">
<path fill="none" stroke="#63b8ff" d="M321.58,-131.99C371.21,-119.48 439.76,-102.21 481.09,-91.8"/>
<polygon fill="#63b8ff" stroke="#63b8ff" points="320.97,-128.53 312.13,-134.37 322.68,-135.32 320.97,-128.53"/>
</a>
</g>
</g>
<!-- Node2&#45;&gt;Node3 -->
<g id="edge2_Node000002_Node000003" class="edge">
<title>Node2&#45;&gt;Node3</title>
<g id="a_edge2_Node000002_Node000003"><a xlink:title=" ">
<path fill="none" stroke="#63b8ff" d="M94.73,-58.74C83.72,-49.53 71.24,-39.06 61.4,-30.83"/>
<polygon fill="#63b8ff" stroke="#63b8ff" points="92.45,-61.4 102.37,-65.14 96.95,-56.04 92.45,-61.4"/>
</a>
</g>
</g>
<!-- Node4 -->
<g id="Node000004" class="node">
<title>Node4</title>
<g id="a_Node000004"><a xlink:href="_string_2_i_r_2_ops_8cpp.html" target="_top" xlink:title=" ">
<polygon fill="white" stroke="#666666" points="194,-30.5 106,-30.5 106,0 194,0 194,-30.5"/>
<text text-anchor="start" x="114" y="-17" font-family="Helvetica,sans-Serif" font-size="10.00">lib/Dialect/String</text>
<text text-anchor="middle" x="150" y="-5.75" font-family="Helvetica,sans-Serif" font-size="10.00">/IR/Ops.cpp</text>
</a>
</g>
</g>
<!-- Node2&#45;&gt;Node4 -->
<g id="edge3_Node000002_Node000004" class="edge">
<title>Node2&#45;&gt;Node4</title>
<g id="a_edge3_Node000002_Node000004"><a xlink:title=" ">
<path fill="none" stroke="#63b8ff" d="M132.28,-55.66C136.06,-47.25 140.15,-38.16 143.45,-30.83"/>
<polygon fill="#63b8ff" stroke="#63b8ff" points="129.11,-54.18 128.2,-64.73 135.49,-57.05 129.11,-54.18"/>
</a>
</g>
</g>
</g>
</svg>
