<?xml version="1.0" encoding="UTF-8" standalone="no"?>
<!DOCTYPE svg PUBLIC "-//W3C//DTD SVG 1.1//EN"
 "http://www.w3.org/Graphics/SVG/1.1/DTD/svg11.dtd">
<!-- Generated by graphviz version 12.2.1 (20241206.2353)
 -->
<!-- Title: build/include/llzk/Dialect/Struct/IR/Types.h.inc Pages: 1 -->
<svg width="2945pt" height="504pt"
 viewBox="0.00 0.00 2945.25 504.00" xmlns="http://www.w3.org/2000/svg" xmlns:xlink="http://www.w3.org/1999/xlink">
<g id="graph0" class="graph" transform="scale(1 1) rotate(0) translate(4 500)">
<title>build/include/llzk/Dialect/Struct/IR/Types.h.inc</title>
<!-- Node1 -->
<g id="Node000001" class="node">
<title>Node1</title>
<g id="a_Node000001"><a xlink:title=" ">
<polygon fill="#999999" stroke="#666666" points="2524.75,-496 2379,-496 2379,-465.5 2524.75,-465.5 2524.75,-496"/>
<text text-anchor="start" x="2387" y="-482.5" font-family="Helvetica,sans-Serif" font-size="10.00">build/include/llzk</text>
<text text-anchor="middle" x="2451.88" y="-471.25" font-family="Helvetica,sans-Serif" font-size="10.00">/Dialect/Struct/IR/Types.h.inc</text>
</a>
</g>
</g>
<!-- Node2 -->
<g id="Node000002" class="node">
<title>Node2</title>
<g id="a_Node000002"><a xlink:href="_struct_2_i_r_2_types_8h.html" target="_top" xlink:title=" ">
<polygon fill="white" stroke="#666666" points="2501.12,-429.5 2402.62,-429.5 2402.62,-399 2501.12,-399 2501.12,-429.5"/>
<text text-anchor="start" x="2410.62" y="-416" font-family="Helvetica,sans-Serif" font-size="10.00">include/llzk/Dialect</text>
<text text-anchor="middle" x="2451.88" y="-404.75" font-family="Helvetica,sans-Serif" font-size="10.00">/Struct/IR/Types.h</text>
</a>
</g>
</g>
<!-- Node1&#45;&gt;Node2 -->
<g id="edge1_Node000001_Node000002" class="edge">
<title>Node1&#45;&gt;Node2</title>
<g id="a_edge1_Node000001_Node000002"><a xlink:title=" ">
<path fill="none" stroke="#63b8ff" d="M2451.88,-453.81C2451.88,-445.64 2451.88,-436.91 2451.88,-429.83"/>
<polygon fill="#63b8ff" stroke="#63b8ff" points="2448.38,-453.6 2451.88,-463.6 2455.38,-453.6 2448.38,-453.6"/>
</a>
</g>
</g>
<!-- Node3 -->
<g id="Node000003" class="node">
<title>Node3</title>
<g id="a_Node000003"><a xlink:href="_struct_2_i_r_2_op_interfaces_8h.html" target="_top" xlink:title=" ">
<polygon fill="white" stroke="#666666" points="2157,-363 2030.75,-363 2030.75,-332.5 2157,-332.5 2157,-363"/>
<text text-anchor="start" x="2038.75" y="-349.5" font-family="Helvetica,sans-Serif" font-size="10.00">include/llzk/Dialect</text>
<text text-anchor="middle" x="2093.88" y="-338.25" font-family="Helvetica,sans-Serif" font-size="10.00">/Struct/IR/OpInterfaces.h</text>
</a>
</g>
</g>
<!-- Node2&#45;&gt;Node3 -->
<g id="edge2_Node000002_Node000003" class="edge">
<title>Node2&#45;&gt;Node3</title>
<g id="a_edge2_Node000002_Node000003"><a xlink:title=" ">
<path fill="none" stroke="#63b8ff" d="M2391.06,-402.95C2333.12,-393.05 2243.46,-377.49 2165.88,-363 2163.12,-362.49 2160.31,-361.95 2157.46,-361.41"/>
<polygon fill="#63b8ff" stroke="#63b8ff" points="2390.28,-406.37 2400.72,-404.6 2391.46,-399.47 2390.28,-406.37"/>
</a>
</g>
</g>
<!-- Node4 -->
<g id="Node000004" class="node">
<title>Node4</title>
<g id="a_Node000004"><a xlink:href="_struct_2_i_r_2_ops_8h.html" target="_top" xlink:title=" ">
<polygon fill="white" stroke="#666666" points="2273.12,-363 2174.62,-363 2174.62,-332.5 2273.12,-332.5 2273.12,-363"/>
<text text-anchor="start" x="2182.62" y="-349.5" font-family="Helvetica,sans-Serif" font-size="10.00">include/llzk/Dialect</text>
<text text-anchor="middle" x="2223.88" y="-338.25" font-family="Helvetica,sans-Serif" font-size="10.00">/Struct/IR/Ops.h</text>
</a>
</g>
</g>
<!-- Node2&#45;&gt;Node4 -->
<g id="edge3_Node000002_Node000004" class="edge">
<title>Node2&#45;&gt;Node4</title>
<g id="a_edge3_Node000002_Node000004"><a xlink:title=" ">
<path fill="none" stroke="#63b8ff" d="M2391.77,-396.25C2354.81,-385.79 2308.04,-372.56 2273.25,-362.72"/>
<polygon fill="#63b8ff" stroke="#63b8ff" points="2390.37,-399.49 2400.95,-398.84 2392.28,-392.75 2390.37,-399.49"/>
</a>
</g>
</g>
<!-- Node38 -->
<g id="Node000038" class="node">
<title>Node38</title>
<g id="a_Node000038"><a xlink:href="_struct_2_i_r_2_dialect_8cpp.html" target="_top" xlink:title=" ">
<polygon fill="white" stroke="#666666" points="2605.25,-296.5 2516.5,-296.5 2516.5,-266 2605.25,-266 2605.25,-296.5"/>
<text text-anchor="start" x="2524.5" y="-283" font-family="Helvetica,sans-Serif" font-size="10.00">lib/Dialect/Struct</text>
<text text-anchor="middle" x="2560.88" y="-271.75" font-family="Helvetica,sans-Serif" font-size="10.00">/IR/Dialect.cpp</text>
</a>
</g>
</g>
<!-- Node2&#45;&gt;Node38 -->
<g id="edge54_Node000002_Node000038" class="edge">
<title>Node2&#45;&gt;Node38</title>
<g id="a_edge54_Node000002_Node000038"><a xlink:title=" ">
<path fill="none" stroke="#63b8ff" d="M2454.63,-387.29C2457.56,-370.24 2463.56,-348.27 2475.88,-332.5 2488.11,-316.83 2506.71,-305.04 2523.4,-296.83"/>
<polygon fill="#63b8ff" stroke="#63b8ff" points="2451.17,-386.78 2453.22,-397.17 2458.1,-387.77 2451.17,-386.78"/>
</a>
</g>
</g>
<!-- Node39 -->
<g id="Node000039" class="node">
<title>Node39</title>
<g id="a_Node000039"><a xlink:href="_struct_2_i_r_2_types_8cpp.html" target="_top" xlink:title=" ">
<polygon fill="white" stroke="#666666" points="2712.25,-296.5 2623.5,-296.5 2623.5,-266 2712.25,-266 2712.25,-296.5"/>
<text text-anchor="start" x="2631.5" y="-283" font-family="Helvetica,sans-Serif" font-size="10.00">lib/Dialect/Struct</text>
<text text-anchor="middle" x="2667.88" y="-271.75" font-family="Helvetica,sans-Serif" font-size="10.00">/IR/Types.cpp</text>
</a>
</g>
</g>
<!-- Node2&#45;&gt;Node39 -->
<g id="edge55_Node000002_Node000039" class="edge">
<title>Node2&#45;&gt;Node39</title>
<g id="a_edge55_Node000002_Node000039"><a xlink:title=" ">
<path fill="none" stroke="#63b8ff" d="M2463.62,-388.76C2473.4,-370.79 2488.93,-347.07 2508.88,-332.5 2518.34,-325.58 2579.5,-307.3 2623.13,-294.8"/>
<polygon fill="#63b8ff" stroke="#63b8ff" points="2460.59,-386.98 2459.1,-397.47 2466.81,-390.2 2460.59,-386.98"/>
</a>
</g>
</g>
<!-- Node41 -->
<g id="Node000041" class="node">
<title>Node41</title>
<g id="a_Node000041"><a xlink:href="_type_helper_8cpp.html" target="_top" xlink:title=" ">
<polygon fill="white" stroke="#666666" points="2632,-357.38 2517.75,-357.38 2517.75,-338.12 2632,-338.12 2632,-357.38"/>
<text text-anchor="middle" x="2574.88" y="-343.88" font-family="Helvetica,sans-Serif" font-size="10.00">lib/Util/TypeHelper.cpp</text>
</a>
</g>
</g>
<!-- Node2&#45;&gt;Node41 -->
<g id="edge56_Node000002_Node000041" class="edge">
<title>Node2&#45;&gt;Node41</title>
<g id="a_edge56_Node000002_Node000041"><a xlink:title=" ">
<path fill="none" stroke="#63b8ff" d="M2489.8,-393.36C2512.47,-381.47 2540.19,-366.94 2557.69,-357.76"/>
<polygon fill="#63b8ff" stroke="#63b8ff" points="2488.36,-390.17 2481.13,-397.91 2491.61,-396.37 2488.36,-390.17"/>
</a>
</g>
</g>
<!-- Node5 -->
<g id="Node000005" class="node">
<title>Node5</title>
<g id="a_Node000005"><a xlink:href="_analysis_wrappers_8h.html" target="_top" xlink:title="Convenience classes for a frequent pattern of dataflow analysis used in LLZK, where an analysis is ru...">
<polygon fill="white" stroke="#666666" points="210.88,-230 104.88,-230 104.88,-199.5 210.88,-199.5 210.88,-230"/>
<text text-anchor="start" x="112.88" y="-216.5" font-family="Helvetica,sans-Serif" font-size="10.00">include/llzk/Analysis</text>
<text text-anchor="middle" x="157.88" y="-205.25" font-family="Helvetica,sans-Serif" font-size="10.00">/AnalysisWrappers.h</text>
</a>
</g>
</g>
<!-- Node4&#45;&gt;Node5 -->
<g id="edge4_Node000004_Node000005" class="edge">
<title>Node4&#45;&gt;Node5</title>
<g id="a_edge4_Node000004_Node000005"><a xlink:title=" ">
<path fill="none" stroke="#63b8ff" d="M2163.13,-332.4C1747.74,-281.86 742.88,-378.67 351.88,-296.5 288.86,-283.26 220.52,-249.89 184.15,-230.44"/>
<polygon fill="#63b8ff" stroke="#63b8ff" points="2162.48,-335.84 2172.84,-333.63 2163.36,-328.9 2162.48,-335.84"/>
</a>
</g>
</g>
<!-- Node13 -->
<g id="Node000013" class="node">
<title>Node13</title>
<g id="a_Node000013"><a xlink:href="_constrain_ref_8h.html" target="_top" xlink:title=" ">
<polygon fill="white" stroke="#666666" points="466.5,-296.5 361.25,-296.5 361.25,-266 466.5,-266 466.5,-296.5"/>
<text text-anchor="start" x="369.25" y="-283" font-family="Helvetica,sans-Serif" font-size="10.00">include/llzk/Analysis</text>
<text text-anchor="middle" x="413.88" y="-271.75" font-family="Helvetica,sans-Serif" font-size="10.00">/ConstrainRef.h</text>
</a>
</g>
</g>
<!-- Node4&#45;&gt;Node13 -->
<g id="edge13_Node000004_Node000013" class="edge">
<title>Node4&#45;&gt;Node13</title>
<g id="a_edge13_Node000004_Node000013"><a xlink:title=" ">
<path fill="none" stroke="#63b8ff" d="M2163.21,-332.48C1948.03,-308.42 736.23,-287.51 466.9,-283.1"/>
<polygon fill="#63b8ff" stroke="#63b8ff" points="2162.48,-335.91 2172.83,-333.66 2163.33,-328.97 2162.48,-335.91"/>
</a>
</g>
</g>
<!-- Node16 -->
<g id="Node000016" class="node">
<title>Node16</title>
<g id="a_Node000016"><a xlink:href="_function_2_i_r_2_ops_8h.html" target="_top" xlink:title=" ">
<polygon fill="white" stroke="#666666" points="1575.5,-296.5 1476.25,-296.5 1476.25,-266 1575.5,-266 1575.5,-296.5"/>
<text text-anchor="start" x="1484.25" y="-283" font-family="Helvetica,sans-Serif" font-size="10.00">include/llzk/Dialect</text>
<text text-anchor="middle" x="1525.88" y="-271.75" font-family="Helvetica,sans-Serif" font-size="10.00">/Function/IR/Ops.h</text>
</a>
</g>
</g>
<!-- Node4&#45;&gt;Node16 -->
<g id="edge20_Node000004_Node000016" class="edge">
<title>Node4&#45;&gt;Node16</title>
<g id="a_edge20_Node000004_Node000016"><a xlink:title=" ">
<path fill="none" stroke="#63b8ff" d="M2163.01,-332.21C1939.29,-297.06 1682.5,-286.49 1575.99,-283.42"/>
<polygon fill="#63b8ff" stroke="#63b8ff" points="2162.39,-335.65 2172.81,-333.77 2163.49,-328.74 2162.39,-335.65"/>
</a>
</g>
</g>
<!-- Node30 -->
<g id="Node000030" class="node">
<title>Node30</title>
<g id="a_Node000030"><a xlink:href="_function_2_i_r_2_ops_8cpp.html" target="_top" xlink:title=" ">
<polygon fill="white" stroke="#666666" points="2656.88,-230 2556.88,-230 2556.88,-199.5 2656.88,-199.5 2656.88,-230"/>
<text text-anchor="start" x="2564.88" y="-216.5" font-family="Helvetica,sans-Serif" font-size="10.00">lib/Dialect/Function</text>
<text text-anchor="middle" x="2606.88" y="-205.25" font-family="Helvetica,sans-Serif" font-size="10.00">/IR/Ops.cpp</text>
</a>
</g>
</g>
<!-- Node4&#45;&gt;Node30 -->
<g id="edge47_Node000004_Node000030" class="edge">
<title>Node4&#45;&gt;Node30</title>
<g id="a_edge47_Node000004_Node000030"><a xlink:title=" ">
<path fill="none" stroke="#63b8ff" d="M2174.12,-327.56C2141.16,-312.1 2107.59,-289.2 2128.88,-266 2160.47,-231.57 2501.75,-237.51 2547.88,-230 2550.68,-229.54 2553.56,-229.02 2556.45,-228.46"/>
<polygon fill="#63b8ff" stroke="#63b8ff" points="2172.33,-330.59 2182.89,-331.49 2175.2,-324.2 2172.33,-330.59"/>
</a>
</g>
</g>
<!-- Node32 -->
<g id="Node000032" class="node">
<title>Node32</title>
<g id="a_Node000032"><a xlink:href="_flattening_pass_8cpp.html" target="_top" xlink:title="This file implements the &#45;llzk&#45;flatten pass.">
<polygon fill="white" stroke="#666666" points="2830.62,-230 2675.12,-230 2675.12,-199.5 2830.62,-199.5 2830.62,-230"/>
<text text-anchor="start" x="2683.12" y="-216.5" font-family="Helvetica,sans-Serif" font-size="10.00">lib/Dialect/Polymorphic</text>
<text text-anchor="middle" x="2752.88" y="-205.25" font-family="Helvetica,sans-Serif" font-size="10.00">/Transforms/FlatteningPass.cpp</text>
</a>
</g>
</g>
<!-- Node4&#45;&gt;Node32 -->
<g id="edge49_Node000004_Node000032" class="edge">
<title>Node4&#45;&gt;Node32</title>
<g id="a_edge49_Node000004_Node000032"><a xlink:title=" ">
<path fill="none" stroke="#63b8ff" d="M2192.33,-325.34C2171.04,-308.35 2149.69,-284.47 2166.88,-266 2204.74,-225.3 2610.67,-236.5 2665.88,-230 2668.76,-229.66 2671.7,-229.29 2674.67,-228.9"/>
<polygon fill="#63b8ff" stroke="#63b8ff" points="2190.05,-328 2200.13,-331.25 2194.27,-322.42 2190.05,-328"/>
</a>
</g>
</g>
<!-- Node33 -->
<g id="Node000033" class="node">
<title>Node33</title>
<g id="a_Node000033"><a xlink:href="_struct_2_i_r_2_ops_8cpp.html" target="_top" xlink:title=" ">
<polygon fill="white" stroke="#666666" points="2937.25,-230 2848.5,-230 2848.5,-199.5 2937.25,-199.5 2937.25,-230"/>
<text text-anchor="start" x="2856.5" y="-216.5" font-family="Helvetica,sans-Serif" font-size="10.00">lib/Dialect/Struct</text>
<text text-anchor="middle" x="2892.88" y="-205.25" font-family="Helvetica,sans-Serif" font-size="10.00">/IR/Ops.cpp</text>
</a>
</g>
</g>
<!-- Node4&#45;&gt;Node33 -->
<g id="edge51_Node000004_Node000033" class="edge">
<title>Node4&#45;&gt;Node33</title>
<g id="a_edge51_Node000004_Node000033"><a xlink:title=" ">
<path fill="none" stroke="#63b8ff" d="M2206.06,-323.11C2194.96,-305.31 2185.29,-281.42 2199.88,-266 2248.8,-214.24 2769.55,-241.31 2839.88,-230 2842.6,-229.56 2845.39,-229.04 2848.2,-228.46"/>
<polygon fill="#63b8ff" stroke="#63b8ff" points="2202.9,-324.68 2211.39,-331.02 2208.71,-320.77 2202.9,-324.68"/>
</a>
</g>
</g>
<!-- Node37 -->
<g id="Node000037" class="node">
<title>Node37</title>
<g id="a_Node000037"><a xlink:href="_polymorphic_2_i_r_2_ops_8cpp.html" target="_top" xlink:title=" ">
<polygon fill="white" stroke="#666666" points="2325.12,-296.5 2208.62,-296.5 2208.62,-266 2325.12,-266 2325.12,-296.5"/>
<text text-anchor="start" x="2216.62" y="-283" font-family="Helvetica,sans-Serif" font-size="10.00">lib/Dialect/Polymorphic</text>
<text text-anchor="middle" x="2266.88" y="-271.75" font-family="Helvetica,sans-Serif" font-size="10.00">/IR/Ops.cpp</text>
</a>
</g>
</g>
<!-- Node4&#45;&gt;Node37 -->
<g id="edge48_Node000004_Node000037" class="edge">
<title>Node4&#45;&gt;Node37</title>
<g id="a_edge48_Node000004_Node000037"><a xlink:title=" ">
<path fill="none" stroke="#63b8ff" d="M2239.85,-322.79C2245.66,-314.07 2252.05,-304.49 2257.16,-296.83"/>
<polygon fill="#63b8ff" stroke="#63b8ff" points="2237.11,-320.59 2234.47,-330.85 2242.93,-324.48 2237.11,-320.59"/>
</a>
</g>
</g>
<!-- Node4&#45;&gt;Node38 -->
<g id="edge50_Node000004_Node000038" class="edge">
<title>Node4&#45;&gt;Node38</title>
<g id="a_edge50_Node000004_Node000038"><a xlink:title=" ">
<path fill="none" stroke="#63b8ff" d="M2284.52,-337.46C2342.02,-328.31 2430.69,-313.29 2506.88,-296.5 2509.91,-295.83 2513.02,-295.11 2516.15,-294.35"/>
<polygon fill="#63b8ff" stroke="#63b8ff" points="2284.28,-333.96 2274.95,-338.98 2285.37,-340.87 2284.28,-333.96"/>
</a>
</g>
</g>
<!-- Node4&#45;&gt;Node39 -->
<g id="edge52_Node000004_Node000039" class="edge">
<title>Node4&#45;&gt;Node39</title>
<g id="a_edge52_Node000004_Node000039"><a xlink:title=" ">
<path fill="none" stroke="#63b8ff" d="M2284.85,-341.37C2361.94,-334 2498.53,-319.05 2613.88,-296.5 2616.92,-295.9 2620.05,-295.24 2623.19,-294.52"/>
<polygon fill="#63b8ff" stroke="#63b8ff" points="2284.59,-337.88 2274.96,-342.3 2285.25,-344.85 2284.59,-337.88"/>
</a>
</g>
</g>
<!-- Node40 -->
<g id="Node000040" class="node">
<title>Node40</title>
<g id="a_Node000040"><a xlink:href="_l_l_z_k_unused_declaration_elimination_pass_8cpp.html" target="_top" xlink:title="This file implements the &#45;llzk&#45;unused&#45;declaration&#45;elim pass.">
<polygon fill="white" stroke="#666666" points="2498.25,-296.5 2343.5,-296.5 2343.5,-266 2498.25,-266 2498.25,-296.5"/>
<text text-anchor="start" x="2351.5" y="-283" font-family="Helvetica,sans-Serif" font-size="10.00">lib/Transforms/LLZKUnused</text>
<text text-anchor="middle" x="2420.88" y="-271.75" font-family="Helvetica,sans-Serif" font-size="10.00">DeclarationEliminationPass.cpp</text>
</a>
</g>
</g>
<!-- Node4&#45;&gt;Node40 -->
<g id="edge53_Node000004_Node000040" class="edge">
<title>Node4&#45;&gt;Node40</title>
<g id="a_edge53_Node000004_Node000040"><a xlink:title=" ">
<path fill="none" stroke="#63b8ff" d="M2279.49,-328.54C2310.01,-318.55 2347.36,-306.32 2376.01,-296.94"/>
<polygon fill="#63b8ff" stroke="#63b8ff" points="2278.43,-325.21 2270.02,-331.64 2280.61,-331.86 2278.43,-325.21"/>
</a>
</g>
</g>
<!-- Node6 -->
<g id="Node000006" class="node">
<title>Node6</title>
<g id="a_Node000006"><a xlink:href="_constraint_dependency_graph_8h.html" target="_top" xlink:title=" ">
<polygon fill="white" stroke="#666666" points="393.5,-163.5 240.25,-163.5 240.25,-133 393.5,-133 393.5,-163.5"/>
<text text-anchor="start" x="248.25" y="-150" font-family="Helvetica,sans-Serif" font-size="10.00">include/llzk/Analysis</text>
<text text-anchor="middle" x="316.88" y="-138.75" font-family="Helvetica,sans-Serif" font-size="10.00">/ConstraintDependencyGraph.h</text>
</a>
</g>
</g>
<!-- Node5&#45;&gt;Node6 -->
<g id="edge5_Node000005_Node000006" class="edge">
<title>Node5&#45;&gt;Node6</title>
<g id="a_edge5_Node000005_Node000006"><a xlink:title=" ">
<path fill="none" stroke="#63b8ff" d="M204.39,-194.88C228.71,-185.01 258.05,-173.11 280.66,-163.94"/>
<polygon fill="#63b8ff" stroke="#63b8ff" points="203.31,-191.54 195.36,-198.54 205.94,-198.03 203.31,-191.54"/>
</a>
</g>
</g>
<!-- Node7 -->
<g id="Node000007" class="node">
<title>Node7</title>
<g id="a_Node000007"><a xlink:href="_interval_analysis_8h.html" target="_top" xlink:title=" ">
<polygon fill="white" stroke="#666666" points="214.5,-97 109.25,-97 109.25,-66.5 214.5,-66.5 214.5,-97"/>
<text text-anchor="start" x="117.25" y="-83.5" font-family="Helvetica,sans-Serif" font-size="10.00">include/llzk/Analysis</text>
<text text-anchor="middle" x="161.88" y="-72.25" font-family="Helvetica,sans-Serif" font-size="10.00">/IntervalAnalysis.h</text>
</a>
</g>
</g>
<!-- Node5&#45;&gt;Node7 -->
<g id="edge12_Node000005_Node000007" class="edge">
<title>Node5&#45;&gt;Node7</title>
<g id="a_edge12_Node000005_Node000007"><a xlink:title=" ">
<path fill="none" stroke="#63b8ff" d="M158.66,-187.93C159.49,-160.84 160.76,-119.21 161.43,-97.33"/>
<polygon fill="#63b8ff" stroke="#63b8ff" points="155.17,-187.62 158.36,-197.72 162.17,-187.83 155.17,-187.62"/>
</a>
</g>
</g>
<!-- Node6&#45;&gt;Node7 -->
<g id="edge6_Node000006_Node000007" class="edge">
<title>Node6&#45;&gt;Node7</title>
<g id="a_edge6_Node000006_Node000007"><a xlink:title=" ">
<path fill="none" stroke="#63b8ff" d="M271.21,-128.25C247.56,-118.41 219.12,-106.57 197.18,-97.44"/>
<polygon fill="#63b8ff" stroke="#63b8ff" points="269.73,-131.42 280.31,-132.03 272.42,-124.96 269.73,-131.42"/>
</a>
</g>
</g>
<!-- Node10 -->
<g id="Node000010" class="node">
<title>Node10</title>
<g id="a_Node000010"><a xlink:href="_constrain_ref_lattice_8cpp.html" target="_top" xlink:title=" ">
<polygon fill="white" stroke="#666666" points="546.38,-97 419.38,-97 419.38,-66.5 546.38,-66.5 546.38,-97"/>
<text text-anchor="start" x="427.38" y="-83.5" font-family="Helvetica,sans-Serif" font-size="10.00">lib/Analysis/ConstrainRef</text>
<text text-anchor="middle" x="482.88" y="-72.25" font-family="Helvetica,sans-Serif" font-size="10.00">Lattice.cpp</text>
</a>
</g>
</g>
<!-- Node6&#45;&gt;Node10 -->
<g id="edge9_Node000006_Node000010" class="edge">
<title>Node6&#45;&gt;Node10</title>
<g id="a_edge9_Node000006_Node000010"><a xlink:title=" ">
<path fill="none" stroke="#63b8ff" d="M365.09,-128.51C390.56,-118.62 421.35,-106.65 445.07,-97.44"/>
<polygon fill="#63b8ff" stroke="#63b8ff" points="364.01,-125.18 355.95,-132.07 366.54,-131.71 364.01,-125.18"/>
</a>
</g>
</g>
<!-- Node11 -->
<g id="Node000011" class="node">
<title>Node11</title>
<g id="a_Node000011"><a xlink:href="_constraint_dependency_graph_8cpp.html" target="_top" xlink:title=" ">
<polygon fill="white" stroke="#666666" points="733.38,-97 564.38,-97 564.38,-66.5 733.38,-66.5 733.38,-97"/>
<text text-anchor="start" x="572.38" y="-83.5" font-family="Helvetica,sans-Serif" font-size="10.00">lib/Analysis/ConstraintDependency</text>
<text text-anchor="middle" x="648.88" y="-72.25" font-family="Helvetica,sans-Serif" font-size="10.00">Graph.cpp</text>
</a>
</g>
</g>
<!-- Node6&#45;&gt;Node11 -->
<g id="edge10_Node000006_Node000011" class="edge">
<title>Node6&#45;&gt;Node11</title>
<g id="a_edge10_Node000006_Node000011"><a xlink:title=" ">
<path fill="none" stroke="#63b8ff" d="M403.63,-130.4C456.23,-120.18 522.7,-107.26 573.16,-97.46"/>
<polygon fill="#63b8ff" stroke="#63b8ff" points="403.26,-126.9 394.11,-132.24 404.6,-133.77 403.26,-126.9"/>
</a>
</g>
</g>
<!-- Node12 -->
<g id="Node000012" class="node">
<title>Node12</title>
<g id="a_Node000012"><a xlink:href="_constraint_dependency_graph_pass_8cpp.html" target="_top" xlink:title="This file implements the &#45;llzk&#45;print&#45;constraint&#45;dependency&#45;graphs pass.">
<polygon fill="white" stroke="#666666" points="401.38,-97 232.38,-97 232.38,-66.5 401.38,-66.5 401.38,-97"/>
<text text-anchor="start" x="240.38" y="-83.5" font-family="Helvetica,sans-Serif" font-size="10.00">lib/Analysis/ConstraintDependency</text>
<text text-anchor="middle" x="316.88" y="-72.25" font-family="Helvetica,sans-Serif" font-size="10.00">GraphPass.cpp</text>
</a>
</g>
</g>
<!-- Node6&#45;&gt;Node12 -->
<g id="edge11_Node000006_Node000012" class="edge">
<title>Node6&#45;&gt;Node12</title>
<g id="a_edge11_Node000006_Node000012"><a xlink:title=" ">
<path fill="none" stroke="#63b8ff" d="M316.88,-121.31C316.88,-113.14 316.88,-104.41 316.88,-97.33"/>
<polygon fill="#63b8ff" stroke="#63b8ff" points="313.38,-121.1 316.88,-131.1 320.38,-121.1 313.38,-121.1"/>
</a>
</g>
</g>
<!-- Node8 -->
<g id="Node000008" class="node">
<title>Node8</title>
<g id="a_Node000008"><a xlink:href="_interval_analysis_8cpp.html" target="_top" xlink:title=" ">
<polygon fill="white" stroke="#666666" points="157.75,-24.88 0,-24.88 0,-5.63 157.75,-5.63 157.75,-24.88"/>
<text text-anchor="middle" x="78.88" y="-11.38" font-family="Helvetica,sans-Serif" font-size="10.00">lib/Analysis/IntervalAnalysis.cpp</text>
</a>
</g>
</g>
<!-- Node7&#45;&gt;Node8 -->
<g id="edge7_Node000007_Node000008" class="edge">
<title>Node7&#45;&gt;Node8</title>
<g id="a_edge7_Node000007_Node000008"><a xlink:title=" ">
<path fill="none" stroke="#63b8ff" d="M134.14,-59.2C119.16,-47.56 101.48,-33.82 90.23,-25.07"/>
<polygon fill="#63b8ff" stroke="#63b8ff" points="131.8,-61.81 141.85,-65.19 136.1,-56.29 131.8,-61.81"/>
</a>
</g>
</g>
<!-- Node9 -->
<g id="Node000009" class="node">
<title>Node9</title>
<g id="a_Node000009"><a xlink:href="_interval_analysis_pass_8cpp.html" target="_top" xlink:title="This file implements the &#45;llzk&#45;print&#45;interval&#45;analysis pass.">
<polygon fill="white" stroke="#666666" points="314.38,-30.5 175.38,-30.5 175.38,0 314.38,0 314.38,-30.5"/>
<text text-anchor="start" x="183.38" y="-17" font-family="Helvetica,sans-Serif" font-size="10.00">lib/Analysis/IntervalAnalysis</text>
<text text-anchor="middle" x="244.88" y="-5.75" font-family="Helvetica,sans-Serif" font-size="10.00">Pass.cpp</text>
</a>
</g>
</g>
<!-- Node7&#45;&gt;Node9 -->
<g id="edge8_Node000007_Node000009" class="edge">
<title>Node7&#45;&gt;Node9</title>
<g id="a_edge8_Node000007_Node000009"><a xlink:title=" ">
<path fill="none" stroke="#63b8ff" d="M189.49,-59.29C201.52,-49.94 215.3,-39.23 226.12,-30.83"/>
<polygon fill="#63b8ff" stroke="#63b8ff" points="187.65,-56.29 181.9,-65.19 191.95,-61.81 187.65,-56.29"/>
</a>
</g>
</g>
<!-- Node13&#45;&gt;Node6 -->
<g id="edge18_Node000013_Node000006" class="edge">
<title>Node13&#45;&gt;Node6</title>
<g id="a_edge18_Node000013_Node000006"><a xlink:title=" ">
<path fill="none" stroke="#63b8ff" d="M349.85,-276.87C316.7,-271.47 278.87,-258.82 257.88,-230 241.01,-206.84 270.39,-179.99 293.42,-163.83"/>
<polygon fill="#63b8ff" stroke="#63b8ff" points="348.99,-280.28 359.38,-278.22 349.97,-273.35 348.99,-280.28"/>
</a>
</g>
</g>
<!-- Node14 -->
<g id="Node000014" class="node">
<title>Node14</title>
<g id="a_Node000014"><a xlink:href="_constrain_ref_lattice_8h.html" target="_top" xlink:title=" ">
<polygon fill="white" stroke="#666666" points="381,-230 266.75,-230 266.75,-199.5 381,-199.5 381,-230"/>
<text text-anchor="start" x="274.75" y="-216.5" font-family="Helvetica,sans-Serif" font-size="10.00">include/llzk/Analysis</text>
<text text-anchor="middle" x="323.88" y="-205.25" font-family="Helvetica,sans-Serif" font-size="10.00">/ConstrainRefLattice.h</text>
</a>
</g>
</g>
<!-- Node13&#45;&gt;Node14 -->
<g id="edge14_Node000013_Node000014" class="edge">
<title>Node13&#45;&gt;Node14</title>
<g id="a_edge14_Node000013_Node000014"><a xlink:title=" ">
<path fill="none" stroke="#63b8ff" d="M384.32,-259.07C371.18,-249.66 356.05,-238.81 344.22,-230.33"/>
<polygon fill="#63b8ff" stroke="#63b8ff" points="382.06,-261.75 392.22,-264.73 386.13,-256.06 382.06,-261.75"/>
</a>
</g>
</g>
<!-- Node15 -->
<g id="Node000015" class="node">
<title>Node15</title>
<g id="a_Node000015"><a xlink:href="_constrain_ref_8cpp.html" target="_top" xlink:title=" ">
<polygon fill="white" stroke="#666666" points="544.75,-224.38 399,-224.38 399,-205.12 544.75,-205.12 544.75,-224.38"/>
<text text-anchor="middle" x="471.88" y="-210.88" font-family="Helvetica,sans-Serif" font-size="10.00">lib/Analysis/ConstrainRef.cpp</text>
</a>
</g>
</g>
<!-- Node13&#45;&gt;Node15 -->
<g id="edge19_Node000013_Node000015" class="edge">
<title>Node13&#45;&gt;Node15</title>
<g id="a_edge19_Node000013_Node000015"><a xlink:title=" ">
<path fill="none" stroke="#63b8ff" d="M434.45,-257.37C444.65,-246.03 456.37,-232.99 463.94,-224.57"/>
<polygon fill="#63b8ff" stroke="#63b8ff" points="432.13,-254.71 428.05,-264.49 437.34,-259.39 432.13,-254.71"/>
</a>
</g>
</g>
<!-- Node14&#45;&gt;Node6 -->
<g id="edge15_Node000014_Node000006" class="edge">
<title>Node14&#45;&gt;Node6</title>
<g id="a_edge15_Node000014_Node000006"><a xlink:title=" ">
<path fill="none" stroke="#63b8ff" d="M321.06,-187.81C320.17,-179.64 319.23,-170.91 318.46,-163.83"/>
<polygon fill="#63b8ff" stroke="#63b8ff" points="317.56,-188.05 322.12,-197.61 324.52,-187.29 317.56,-188.05"/>
</a>
</g>
</g>
<!-- Node14&#45;&gt;Node10 -->
<g id="edge16_Node000014_Node000010" class="edge">
<title>Node14&#45;&gt;Node10</title>
<g id="a_edge16_Node000014_Node000010"><a xlink:title=" ">
<path fill="none" stroke="#63b8ff" d="M359.87,-193.2C373.78,-184.67 389.53,-174.25 402.88,-163.5 428.69,-142.7 455.08,-114.42 470.17,-97.44"/>
<polygon fill="#63b8ff" stroke="#63b8ff" points="358.19,-190.13 351.42,-198.28 361.8,-196.13 358.19,-190.13"/>
</a>
</g>
</g>
<!-- Node14&#45;&gt;Node11 -->
<g id="edge17_Node000014_Node000011" class="edge">
<title>Node14&#45;&gt;Node11</title>
<g id="a_edge17_Node000014_Node000011"><a xlink:title=" ">
<path fill="none" stroke="#63b8ff" d="M370.64,-194.9C436.09,-168.52 553.62,-121.15 612.77,-97.3"/>
<polygon fill="#63b8ff" stroke="#63b8ff" points="369.58,-191.55 361.61,-198.54 372.2,-198.05 369.58,-191.55"/>
</a>
</g>
</g>
<!-- Node16&#45;&gt;Node7 -->
<g id="edge25_Node000016_Node000007" class="edge">
<title>Node16&#45;&gt;Node7</title>
<g id="a_edge25_Node000016_Node000007"><a xlink:title=" ">
<path fill="none" stroke="#63b8ff" d="M1464.62,-280.65C1285.83,-281.24 767.18,-278.58 605.88,-230 580.22,-222.27 577.73,-211.7 553.88,-199.5 488.58,-166.12 472.8,-155.1 402.88,-133 325.08,-108.41 302.61,-114.28 222.88,-97 220.22,-96.42 217.5,-95.82 214.75,-95.21"/>
<polygon fill="#63b8ff" stroke="#63b8ff" points="1464.39,-284.15 1474.38,-280.61 1464.37,-277.15 1464.39,-284.15"/>
</a>
</g>
</g>
<!-- Node16&#45;&gt;Node10 -->
<g id="edge32_Node000016_Node000010" class="edge">
<title>Node16&#45;&gt;Node10</title>
<g id="a_edge32_Node000016_Node000010"><a xlink:title=" ">
<path fill="none" stroke="#63b8ff" d="M1464.58,-278.81C1280.52,-274.19 740.73,-258.36 666.88,-230 590.87,-200.81 521.84,-128.02 494.87,-97.06"/>
<polygon fill="#63b8ff" stroke="#63b8ff" points="1464.33,-282.31 1474.41,-279.06 1464.5,-275.31 1464.33,-282.31"/>
</a>
</g>
</g>
<!-- Node16&#45;&gt;Node11 -->
<g id="edge33_Node000016_Node000011" class="edge">
<title>Node16&#45;&gt;Node11</title>
<g id="a_edge33_Node000016_Node000011"><a xlink:title=" ">
<path fill="none" stroke="#63b8ff" d="M1464.33,-280.22C1282.75,-279.63 758.08,-274.07 695.88,-230 652.52,-199.28 648.11,-128 648.34,-97.27"/>
<polygon fill="#63b8ff" stroke="#63b8ff" points="1464.26,-283.72 1474.27,-280.25 1464.28,-276.72 1464.26,-283.72"/>
</a>
</g>
</g>
<!-- Node16&#45;&gt;Node15 -->
<g id="edge31_Node000016_Node000015" class="edge">
<title>Node16&#45;&gt;Node15</title>
<g id="a_edge31_Node000016_Node000015"><a xlink:title=" ">
<path fill="none" stroke="#63b8ff" d="M1464.45,-279.41C1311.2,-276.8 899.74,-266.66 558.88,-230 546.7,-228.69 533.64,-226.81 521.43,-224.84"/>
<polygon fill="#63b8ff" stroke="#63b8ff" points="1464.33,-282.91 1474.39,-279.57 1464.44,-275.91 1464.33,-282.91"/>
</a>
</g>
</g>
<!-- Node17 -->
<g id="Node000017" class="node">
<title>Node17</title>
<g id="a_Node000017"><a xlink:href="_call_graph_analyses_8h.html" target="_top" xlink:title=" ">
<polygon fill="white" stroke="#666666" points="826.5,-230 715.25,-230 715.25,-199.5 826.5,-199.5 826.5,-230"/>
<text text-anchor="start" x="723.25" y="-216.5" font-family="Helvetica,sans-Serif" font-size="10.00">include/llzk/Analysis</text>
<text text-anchor="middle" x="770.88" y="-205.25" font-family="Helvetica,sans-Serif" font-size="10.00">/CallGraphAnalyses.h</text>
</a>
</g>
</g>
<!-- Node16&#45;&gt;Node17 -->
<g id="edge21_Node000016_Node000017" class="edge">
<title>Node16&#45;&gt;Node17</title>
<g id="a_edge21_Node000016_Node000017"><a xlink:title=" ">
<path fill="none" stroke="#63b8ff" d="M1464.3,-278.37C1343.99,-274.11 1069.51,-261.53 840.88,-230 836.33,-229.37 831.64,-228.63 826.93,-227.82"/>
<polygon fill="#63b8ff" stroke="#63b8ff" points="1464.17,-281.86 1474.28,-278.71 1464.41,-274.87 1464.17,-281.86"/>
</a>
</g>
</g>
<!-- Node18 -->
<g id="Node000018" class="node">
<title>Node18</title>
<g id="a_Node000018"><a xlink:href="_call_graph_analyses_8cpp.html" target="_top" xlink:title=" ">
<polygon fill="white" stroke="#666666" points="848.88,-157.88 676.88,-157.88 676.88,-138.62 848.88,-138.62 848.88,-157.88"/>
<text text-anchor="middle" x="762.88" y="-144.38" font-family="Helvetica,sans-Serif" font-size="10.00">lib/Analysis/CallGraphAnalyses.cpp</text>
</a>
</g>
</g>
<!-- Node16&#45;&gt;Node18 -->
<g id="edge29_Node000016_Node000018" class="edge">
<title>Node16&#45;&gt;Node18</title>
<g id="a_edge29_Node000016_Node000018"><a xlink:title=" ">
<path fill="none" stroke="#63b8ff" d="M1464.35,-278.76C1278.15,-273.96 731.8,-257.56 705.88,-230 683.77,-206.5 724.87,-173.97 748.27,-158.34"/>
<polygon fill="#63b8ff" stroke="#63b8ff" points="1464.23,-282.26 1474.31,-279.01 1464.4,-275.26 1464.23,-282.26"/>
</a>
</g>
</g>
<!-- Node19 -->
<g id="Node000019" class="node">
<title>Node19</title>
<g id="a_Node000019"><a xlink:href="_call_graph_passes_8cpp.html" target="_top" xlink:title="This file implements the &#45;llzk&#45;print&#45;call&#45;graph and &#45;llzk&#45;print&#45;call&#45;graph&#45;sccs passes.">
<polygon fill="white" stroke="#666666" points="1201.12,-157.88 1036.62,-157.88 1036.62,-138.62 1201.12,-138.62 1201.12,-157.88"/>
<text text-anchor="middle" x="1118.88" y="-144.38" font-family="Helvetica,sans-Serif" font-size="10.00">lib/Analysis/CallGraphPasses.cpp</text>
</a>
</g>
</g>
<!-- Node16&#45;&gt;Node19 -->
<g id="edge30_Node000016_Node000019" class="edge">
<title>Node16&#45;&gt;Node19</title>
<g id="a_edge30_Node000016_Node000019"><a xlink:title=" ">
<path fill="none" stroke="#63b8ff" d="M1464.63,-280.15C1310.05,-279.27 913.52,-272.82 873.88,-230 864.67,-220.05 865.31,-210 873.88,-199.5 879.97,-192.02 995.72,-170.7 1065.91,-158.37"/>
<polygon fill="#63b8ff" stroke="#63b8ff" points="1464.24,-283.65 1474.26,-280.2 1464.28,-276.65 1464.24,-283.65"/>
</a>
</g>
</g>
<!-- Node21 -->
<g id="Node000021" class="node">
<title>Node21</title>
<g id="a_Node000021"><a xlink:href="_builders_8h.html" target="_top" xlink:title=" ">
<polygon fill="white" stroke="#666666" points="981.12,-230 882.62,-230 882.62,-199.5 981.12,-199.5 981.12,-230"/>
<text text-anchor="start" x="890.62" y="-216.5" font-family="Helvetica,sans-Serif" font-size="10.00">include/llzk/Dialect</text>
<text text-anchor="middle" x="931.88" y="-205.25" font-family="Helvetica,sans-Serif" font-size="10.00">/Shared/Builders.h</text>
</a>
</g>
</g>
<!-- Node16&#45;&gt;Node21 -->
<g id="edge26_Node000016_Node000021" class="edge">
<title>Node16&#45;&gt;Node21</title>
<g id="a_edge26_Node000016_Node000021"><a xlink:title=" ">
<path fill="none" stroke="#63b8ff" d="M1464.67,-277.45C1364.74,-272.23 1160.53,-258.8 989.88,-230 987.11,-229.53 984.29,-229.01 981.45,-228.44"/>
<polygon fill="#63b8ff" stroke="#63b8ff" points="1464.37,-280.94 1474.53,-277.96 1464.73,-273.95 1464.37,-280.94"/>
</a>
</g>
</g>
<!-- Node23 -->
<g id="Node000023" class="node">
<title>Node23</title>
<g id="a_Node000023"><a xlink:href="_call_graph_8cpp.html" target="_top" xlink:title=" ">
<polygon fill="white" stroke="#666666" points="1130.62,-224.38 999.12,-224.38 999.12,-205.12 1130.62,-205.12 1130.62,-224.38"/>
<text text-anchor="middle" x="1064.88" y="-210.88" font-family="Helvetica,sans-Serif" font-size="10.00">lib/Analysis/CallGraph.cpp</text>
</a>
</g>
</g>
<!-- Node16&#45;&gt;Node23 -->
<g id="edge28_Node000016_Node000023" class="edge">
<title>Node16&#45;&gt;Node23</title>
<g id="a_edge28_Node000016_Node000023"><a xlink:title=" ">
<path fill="none" stroke="#63b8ff" d="M1464.49,-273.38C1388.21,-264.58 1254.13,-248.27 1139.88,-230 1130.32,-228.47 1120.12,-226.66 1110.41,-224.84"/>
<polygon fill="#63b8ff" stroke="#63b8ff" points="1463.94,-276.84 1474.27,-274.5 1464.73,-269.88 1463.94,-276.84"/>
</a>
</g>
</g>
<!-- Node24 -->
<g id="Node000024" class="node">
<title>Node24</title>
<g id="a_Node000024"><a xlink:href="_dense_analysis_8cpp.html" target="_top" xlink:title=" ">
<polygon fill="white" stroke="#666666" points="1302.88,-224.38 1148.88,-224.38 1148.88,-205.12 1302.88,-205.12 1302.88,-224.38"/>
<text text-anchor="middle" x="1225.88" y="-210.88" font-family="Helvetica,sans-Serif" font-size="10.00">lib/Analysis/DenseAnalysis.cpp</text>
</a>
</g>
</g>
<!-- Node16&#45;&gt;Node24 -->
<g id="edge34_Node000016_Node000024" class="edge">
<title>Node16&#45;&gt;Node24</title>
<g id="a_edge34_Node000016_Node000024"><a xlink:title=" ">
<path fill="none" stroke="#63b8ff" d="M1465.05,-267.17C1406.48,-254.58 1319.45,-235.87 1268.11,-224.83"/>
<polygon fill="#63b8ff" stroke="#63b8ff" points="1464.01,-270.53 1474.52,-269.21 1465.48,-263.68 1464.01,-270.53"/>
</a>
</g>
</g>
<!-- Node25 -->
<g id="Node000025" class="node">
<title>Node25</title>
<g id="a_Node000025"><a xlink:href="_array_to_scalar_pass_8cpp.html" target="_top" xlink:title="This file implements the &#45;llzk&#45;array&#45;to&#45;scalar pass.">
<polygon fill="white" stroke="#666666" points="1459,-230 1320.75,-230 1320.75,-199.5 1459,-199.5 1459,-230"/>
<text text-anchor="start" x="1328.75" y="-216.5" font-family="Helvetica,sans-Serif" font-size="10.00">lib/Dialect/Array/Transforms</text>
<text text-anchor="middle" x="1389.88" y="-205.25" font-family="Helvetica,sans-Serif" font-size="10.00">/ArrayToScalarPass.cpp</text>
</a>
</g>
</g>
<!-- Node16&#45;&gt;Node25 -->
<g id="edge35_Node000016_Node000025" class="edge">
<title>Node16&#45;&gt;Node25</title>
<g id="a_edge35_Node000016_Node000025"><a xlink:title=" ">
<path fill="none" stroke="#63b8ff" d="M1484.65,-260.7C1464.05,-250.93 1439.54,-239.31 1420.61,-230.33"/>
<polygon fill="#63b8ff" stroke="#63b8ff" points="1483.11,-263.84 1493.65,-264.97 1486.11,-257.52 1483.11,-263.84"/>
</a>
</g>
</g>
<!-- Node26 -->
<g id="Node000026" class="node">
<title>Node26</title>
<g id="a_Node000026"><a xlink:href="_cast_2_i_r_2_ops_8cpp.html" target="_top" xlink:title=" ">
<polygon fill="white" stroke="#666666" points="1574.38,-230 1477.38,-230 1477.38,-199.5 1574.38,-199.5 1574.38,-230"/>
<text text-anchor="start" x="1485.38" y="-216.5" font-family="Helvetica,sans-Serif" font-size="10.00">lib/Dialect/Cast/IR</text>
<text text-anchor="middle" x="1525.88" y="-205.25" font-family="Helvetica,sans-Serif" font-size="10.00">/Ops.cpp</text>
</a>
</g>
</g>
<!-- Node16&#45;&gt;Node26 -->
<g id="edge36_Node000016_Node000026" class="edge">
<title>Node16&#45;&gt;Node26</title>
<g id="a_edge36_Node000016_Node000026"><a xlink:title=" ">
<path fill="none" stroke="#63b8ff" d="M1525.88,-254.31C1525.88,-246.14 1525.88,-237.41 1525.88,-230.33"/>
<polygon fill="#63b8ff" stroke="#63b8ff" points="1522.38,-254.1 1525.88,-264.1 1529.38,-254.1 1522.38,-254.1"/>
</a>
</g>
</g>
<!-- Node27 -->
<g id="Node000027" class="node">
<title>Node27</title>
<g id="a_Node000027"><a xlink:href="_constrain_2_i_r_2_ops_8cpp.html" target="_top" xlink:title=" ">
<polygon fill="white" stroke="#666666" points="1697.12,-230 1592.62,-230 1592.62,-199.5 1697.12,-199.5 1697.12,-230"/>
<text text-anchor="start" x="1600.62" y="-216.5" font-family="Helvetica,sans-Serif" font-size="10.00">lib/Dialect/Constrain</text>
<text text-anchor="middle" x="1644.88" y="-205.25" font-family="Helvetica,sans-Serif" font-size="10.00">/IR/Ops.cpp</text>
</a>
</g>
</g>
<!-- Node16&#45;&gt;Node27 -->
<g id="edge37_Node000016_Node000027" class="edge">
<title>Node16&#45;&gt;Node27</title>
<g id="a_edge37_Node000016_Node000027"><a xlink:title=" ">
<path fill="none" stroke="#63b8ff" d="M1562.95,-260.16C1580.76,-250.5 1601.72,-239.14 1617.98,-230.33"/>
<polygon fill="#63b8ff" stroke="#63b8ff" points="1561.33,-257.05 1554.21,-264.89 1564.67,-263.2 1561.33,-257.05"/>
</a>
</g>
</g>
<!-- Node28 -->
<g id="Node000028" class="node">
<title>Node28</title>
<g id="a_Node000028"><a xlink:href="_function_2_i_r_2_dialect_8cpp.html" target="_top" xlink:title=" ">
<polygon fill="white" stroke="#666666" points="1814.88,-230 1714.88,-230 1714.88,-199.5 1814.88,-199.5 1814.88,-230"/>
<text text-anchor="start" x="1722.88" y="-216.5" font-family="Helvetica,sans-Serif" font-size="10.00">lib/Dialect/Function</text>
<text text-anchor="middle" x="1764.88" y="-205.25" font-family="Helvetica,sans-Serif" font-size="10.00">/IR/Dialect.cpp</text>
</a>
</g>
</g>
<!-- Node16&#45;&gt;Node28 -->
<g id="edge38_Node000016_Node000028" class="edge">
<title>Node16&#45;&gt;Node28</title>
<g id="a_edge38_Node000016_Node000028"><a xlink:title=" ">
<path fill="none" stroke="#63b8ff" d="M1587.05,-263.74C1626.53,-253.08 1677.26,-239.39 1714.43,-229.36"/>
<polygon fill="#63b8ff" stroke="#63b8ff" points="1586.18,-260.35 1577.44,-266.33 1588.01,-267.11 1586.18,-260.35"/>
</a>
</g>
</g>
<!-- Node29 -->
<g id="Node000029" class="node">
<title>Node29</title>
<g id="a_Node000029"><a xlink:href="_op_traits_8cpp.html" target="_top" xlink:title=" ">
<polygon fill="white" stroke="#666666" points="1932.88,-230 1832.88,-230 1832.88,-199.5 1932.88,-199.5 1932.88,-230"/>
<text text-anchor="start" x="1840.88" y="-216.5" font-family="Helvetica,sans-Serif" font-size="10.00">lib/Dialect/Function</text>
<text text-anchor="middle" x="1882.88" y="-205.25" font-family="Helvetica,sans-Serif" font-size="10.00">/IR/OpTraits.cpp</text>
</a>
</g>
</g>
<!-- Node16&#45;&gt;Node29 -->
<g id="edge39_Node000016_Node000029" class="edge">
<title>Node16&#45;&gt;Node29</title>
<g id="a_edge39_Node000016_Node000029"><a xlink:title=" ">
<path fill="none" stroke="#63b8ff" d="M1587.14,-271.2C1647.55,-261.98 1742.39,-246.69 1823.88,-230 1826.66,-229.43 1829.52,-228.82 1832.4,-228.19"/>
<polygon fill="#63b8ff" stroke="#63b8ff" points="1586.76,-267.72 1577.4,-272.68 1587.81,-274.64 1586.76,-267.72"/>
</a>
</g>
</g>
<!-- Node16&#45;&gt;Node30 -->
<g id="edge40_Node000016_Node000030" class="edge">
<title>Node16&#45;&gt;Node30</title>
<g id="a_edge40_Node000016_Node000030"><a xlink:title=" ">
<path fill="none" stroke="#63b8ff" d="M1587.39,-278.74C1778.59,-273.82 2360.8,-256.95 2547.88,-230 2550.69,-229.59 2553.57,-229.12 2556.47,-228.58"/>
<polygon fill="#63b8ff" stroke="#63b8ff" points="1587.33,-275.24 1577.42,-279 1587.51,-282.24 1587.33,-275.24"/>
</a>
</g>
</g>
<!-- Node31 -->
<g id="Node000031" class="node">
<title>Node31</title>
<g id="a_Node000031"><a xlink:href="_l_l_z_k_2_i_r_2_dialect_8cpp.html" target="_top" xlink:title=" ">
<polygon fill="white" stroke="#666666" points="2050.5,-230 1951.25,-230 1951.25,-199.5 2050.5,-199.5 2050.5,-230"/>
<text text-anchor="start" x="1959.25" y="-216.5" font-family="Helvetica,sans-Serif" font-size="10.00">lib/Dialect/LLZK/IR</text>
<text text-anchor="middle" x="2000.88" y="-205.25" font-family="Helvetica,sans-Serif" font-size="10.00">/Dialect.cpp</text>
</a>
</g>
</g>
<!-- Node16&#45;&gt;Node31 -->
<g id="edge41_Node000016_Node000031" class="edge">
<title>Node16&#45;&gt;Node31</title>
<g id="a_edge41_Node000016_Node000031"><a xlink:title=" ">
<path fill="none" stroke="#63b8ff" d="M1586.81,-275.14C1668.17,-267.8 1816.58,-252.62 1941.88,-230 1944.88,-229.46 1947.97,-228.85 1951.07,-228.21"/>
<polygon fill="#63b8ff" stroke="#63b8ff" points="1586.94,-271.61 1577.29,-275.99 1587.56,-278.58 1586.94,-271.61"/>
</a>
</g>
</g>
<!-- Node16&#45;&gt;Node32 -->
<g id="edge42_Node000016_Node000032" class="edge">
<title>Node16&#45;&gt;Node32</title>
<g id="a_edge42_Node000016_Node000032"><a xlink:title=" ">
<path fill="none" stroke="#63b8ff" d="M1587.36,-278.5C1792.72,-272.51 2453.85,-251.96 2665.88,-230 2668.77,-229.7 2671.71,-229.37 2674.68,-229.01"/>
<polygon fill="#63b8ff" stroke="#63b8ff" points="1587.33,-275 1577.44,-278.79 1587.54,-282 1587.33,-275"/>
</a>
</g>
</g>
<!-- Node16&#45;&gt;Node33 -->
<g id="edge43_Node000016_Node000033" class="edge">
<title>Node16&#45;&gt;Node33</title>
<g id="a_edge43_Node000016_Node000033"><a xlink:title=" ">
<path fill="none" stroke="#63b8ff" d="M1587.04,-278.72C1829.43,-272.54 2715.37,-248.87 2839.88,-230 2842.61,-229.59 2845.4,-229.08 2848.21,-228.52"/>
<polygon fill="#63b8ff" stroke="#63b8ff" points="1587.08,-275.22 1577.17,-278.97 1587.26,-282.21 1587.08,-275.22"/>
</a>
</g>
</g>
<!-- Node34 -->
<g id="Node000034" class="node">
<title>Node34</title>
<g id="a_Node000034"><a xlink:href="_l_l_z_k_redundant_read_and_write_elimination_pass_8cpp.html" target="_top" xlink:title="This file implements the &#45;llzk&#45;duplicate&#45;read&#45;write&#45;elim pass.">
<polygon fill="white" stroke="#666666" points="2237,-230 2068.75,-230 2068.75,-199.5 2237,-199.5 2237,-230"/>
<text text-anchor="start" x="2076.75" y="-216.5" font-family="Helvetica,sans-Serif" font-size="10.00">lib/Transforms/LLZKRedundant</text>
<text text-anchor="middle" x="2152.88" y="-205.25" font-family="Helvetica,sans-Serif" font-size="10.00">ReadAndWriteEliminationPass.cpp</text>
</a>
</g>
</g>
<!-- Node16&#45;&gt;Node34 -->
<g id="edge44_Node000016_Node000034" class="edge">
<title>Node16&#45;&gt;Node34</title>
<g id="a_edge44_Node000016_Node000034"><a xlink:title=" ">
<path fill="none" stroke="#63b8ff" d="M1586.98,-275.66C1686.33,-267.95 1888.97,-251.12 2059.88,-230 2062.63,-229.66 2065.43,-229.3 2068.26,-228.93"/>
<polygon fill="#63b8ff" stroke="#63b8ff" points="1586.88,-272.16 1577.18,-276.42 1587.42,-279.14 1586.88,-272.16"/>
</a>
</g>
</g>
<!-- Node35 -->
<g id="Node000035" class="node">
<title>Node35</title>
<g id="a_Node000035"><a xlink:href="_symbol_helper_8cpp.html" target="_top" xlink:title="This file contains the implementations for symbol helper functions.">
<polygon fill="white" stroke="#666666" points="2381,-224.38 2254.75,-224.38 2254.75,-205.12 2381,-205.12 2381,-224.38"/>
<text text-anchor="middle" x="2317.88" y="-210.88" font-family="Helvetica,sans-Serif" font-size="10.00">lib/Util/SymbolHelper.cpp</text>
</a>
</g>
</g>
<!-- Node16&#45;&gt;Node35 -->
<g id="edge45_Node000016_Node000035" class="edge">
<title>Node16&#45;&gt;Node35</title>
<g id="a_edge45_Node000016_Node000035"><a xlink:title=" ">
<path fill="none" stroke="#63b8ff" d="M1587.01,-278.57C1711.5,-274.59 2003.18,-262.36 2245.88,-230 2255.85,-228.67 2266.53,-226.8 2276.52,-224.86"/>
<polygon fill="#63b8ff" stroke="#63b8ff" points="1587.25,-275.07 1577.36,-278.88 1587.47,-282.06 1587.25,-275.07"/>
</a>
</g>
</g>
<!-- Node36 -->
<g id="Node000036" class="node">
<title>Node36</title>
<g id="a_Node000036"><a xlink:href="_l_l_z_k_validation_passes_8cpp.html" target="_top" xlink:title="This file contains the implementation for the &#45;llzk&#45;validate&#45;field&#45;writes pass.">
<polygon fill="white" stroke="#666666" points="2538.75,-230 2399,-230 2399,-199.5 2538.75,-199.5 2538.75,-230"/>
<text text-anchor="start" x="2407" y="-216.5" font-family="Helvetica,sans-Serif" font-size="10.00">lib/Validators/LLZKValidation</text>
<text text-anchor="middle" x="2468.88" y="-205.25" font-family="Helvetica,sans-Serif" font-size="10.00">Passes.cpp</text>
</a>
</g>
</g>
<!-- Node16&#45;&gt;Node36 -->
<g id="edge46_Node000016_Node000036" class="edge">
<title>Node16&#45;&gt;Node36</title>
<g id="a_edge46_Node000016_Node000036"><a xlink:title=" ">
<path fill="none" stroke="#63b8ff" d="M1587.16,-279.22C1728.91,-276.28 2090.19,-265.61 2389.88,-230 2392.78,-229.65 2395.74,-229.27 2398.73,-228.86"/>
<polygon fill="#63b8ff" stroke="#63b8ff" points="1587.17,-275.72 1577.25,-279.42 1587.32,-282.71 1587.17,-275.72"/>
</a>
</g>
</g>
<!-- Node17&#45;&gt;Node18 -->
<g id="edge22_Node000017_Node000018" class="edge">
<title>Node17&#45;&gt;Node18</title>
<g id="a_edge22_Node000017_Node000018"><a xlink:title=" ">
<path fill="none" stroke="#63b8ff" d="M767.66,-187.84C766.35,-177.26 764.92,-165.75 763.97,-158.07"/>
<polygon fill="#63b8ff" stroke="#63b8ff" points="764.17,-188.12 768.87,-197.61 771.12,-187.26 764.17,-188.12"/>
</a>
</g>
</g>
<!-- Node17&#45;&gt;Node19 -->
<g id="edge23_Node000017_Node000019" class="edge">
<title>Node17&#45;&gt;Node19</title>
<g id="a_edge23_Node000017_Node000019"><a xlink:title=" ">
<path fill="none" stroke="#63b8ff" d="M837.82,-200.09C838.84,-199.89 839.86,-199.69 840.88,-199.5 919.38,-184.42 1010.62,-168.17 1066.55,-158.35"/>
<polygon fill="#63b8ff" stroke="#63b8ff" points="837.26,-196.63 828.12,-201.99 838.61,-203.5 837.26,-196.63"/>
</a>
</g>
</g>
<!-- Node20 -->
<g id="Node000020" class="node">
<title>Node20</title>
<g id="a_Node000020"><a xlink:href="_l_l_z_k_redundant_operation_elimination_pass_8cpp.html" target="_top" xlink:title="This file implements the &#45;llzk&#45;duplicate&#45;op&#45;elim pass.">
<polygon fill="white" stroke="#666666" points="1018.75,-163.5 867,-163.5 867,-133 1018.75,-133 1018.75,-163.5"/>
<text text-anchor="start" x="875" y="-150" font-family="Helvetica,sans-Serif" font-size="10.00">lib/Transforms/LLZKRedundant</text>
<text text-anchor="middle" x="942.88" y="-138.75" font-family="Helvetica,sans-Serif" font-size="10.00">OperationEliminationPass.cpp</text>
</a>
</g>
</g>
<!-- Node17&#45;&gt;Node20 -->
<g id="edge24_Node000017_Node000020" class="edge">
<title>Node17&#45;&gt;Node20</title>
<g id="a_edge24_Node000017_Node000020"><a xlink:title=" ">
<path fill="none" stroke="#63b8ff" d="M820.48,-195.15C846.94,-185.23 879.02,-173.2 903.7,-163.94"/>
<polygon fill="#63b8ff" stroke="#63b8ff" points="819.46,-191.79 811.32,-198.58 821.91,-198.35 819.46,-191.79"/>
</a>
</g>
</g>
<!-- Node22 -->
<g id="Node000022" class="node">
<title>Node22</title>
<g id="a_Node000022"><a xlink:href="_builders_8cpp.html" target="_top" xlink:title=" ">
<polygon fill="white" stroke="#666666" points="1312.5,-163.5 1219.25,-163.5 1219.25,-133 1312.5,-133 1312.5,-163.5"/>
<text text-anchor="start" x="1227.25" y="-150" font-family="Helvetica,sans-Serif" font-size="10.00">lib/Dialect/Shared</text>
<text text-anchor="middle" x="1265.88" y="-138.75" font-family="Helvetica,sans-Serif" font-size="10.00">/Builders.cpp</text>
</a>
</g>
</g>
<!-- Node21&#45;&gt;Node22 -->
<g id="edge27_Node000021_Node000022" class="edge">
<title>Node21&#45;&gt;Node22</title>
<g id="a_edge27_Node000021_Node000022"><a xlink:title=" ">
<path fill="none" stroke="#63b8ff" d="M992.62,-199.04C1088.91,-179.93 1116.39,-183 1209.88,-163.5 1212.82,-162.89 1215.85,-162.22 1218.89,-161.52"/>
<polygon fill="#63b8ff" stroke="#63b8ff" points="992.08,-195.58 982.97,-200.99 993.47,-202.44 992.08,-195.58"/>
</a>
</g>
</g>
</g>
</svg>
