<?xml version="1.0" encoding="UTF-8" standalone="no"?>
<!DOCTYPE svg PUBLIC "-//W3C//DTD SVG 1.1//EN"
 "http://www.w3.org/Graphics/SVG/1.1/DTD/svg11.dtd">
<!-- Generated by graphviz version 12.2.1 (20241206.2353)
 -->
<!-- Title: lib/Util/SymbolLookup.cpp Pages: 1 -->
<svg width="792pt" height="227pt"
 viewBox="0.00 0.00 791.75 226.75" xmlns="http://www.w3.org/2000/svg" xmlns:xlink="http://www.w3.org/1999/xlink">
<g id="graph0" class="graph" transform="scale(1 1) rotate(0) translate(4 222.75)">
<title>lib/Util/SymbolLookup.cpp</title>
<!-- Node1 -->
<g id="Node000001" class="node">
<title>Node1</title>
<g id="a_Node000001"><a xlink:title="This file contains the implementations for symbol lookup helper functions.">
<polygon fill="#999999" stroke="#666666" points="463.75,-218.75 333.75,-218.75 333.75,-199.5 463.75,-199.5 463.75,-218.75"/>
<text text-anchor="middle" x="398.75" y="-205.25" font-family="Helvetica,sans-Serif" font-size="10.00">lib/Util/SymbolLookup.cpp</text>
</a>
</g>
</g>
<!-- Node2 -->
<g id="Node000002" class="node">
<title>Node2</title>
<g id="a_Node000002"><a xlink:href="_include_2_i_r_2_ops_8h.html" target="_top" xlink:title=" ">
<polygon fill="white" stroke="#666666" points="325.38,-163.5 226.12,-163.5 226.12,-133 325.38,-133 325.38,-163.5"/>
<text text-anchor="start" x="234.12" y="-150" font-family="Helvetica,sans-Serif" font-size="10.00">llzk/Dialect/Include</text>
<text text-anchor="middle" x="275.75" y="-138.75" font-family="Helvetica,sans-Serif" font-size="10.00">/IR/Ops.h</text>
</a>
</g>
</g>
<!-- Node1&#45;&gt;Node2 -->
<g id="edge1_Node000001_Node000002" class="edge">
<title>Node1&#45;&gt;Node2</title>
<g id="a_edge1_Node000001_Node000002"><a xlink:title=" ">
<path fill="none" stroke="#63b8ff" d="M379.8,-199.05C363.01,-191.02 337.91,-179 316.57,-168.79"/>
<polygon fill="#63b8ff" stroke="#63b8ff" points="318.35,-165.76 307.81,-164.6 315.32,-172.07 318.35,-165.76"/>
</a>
</g>
</g>
<!-- Node4 -->
<g id="Node000004" class="node">
<title>Node4</title>
<g id="a_Node000004"><a xlink:title=" ">
<polygon fill="#e0e0e0" stroke="#999999" points="101.5,-24.88 0,-24.88 0,-5.63 101.5,-5.63 101.5,-24.88"/>
<text text-anchor="middle" x="50.75" y="-11.38" font-family="Helvetica,sans-Serif" font-size="10.00">mlir/IR/BuiltinOps.h</text>
</a>
</g>
</g>
<!-- Node1&#45;&gt;Node4 -->
<g id="edge16_Node000001_Node000004" class="edge">
<title>Node1&#45;&gt;Node4</title>
<g id="a_edge16_Node000001_Node000004"><a xlink:title=" ">
<path fill="none" stroke="#63b8ff" d="M333.44,-199.47C266.73,-187.42 164.09,-159.52 99.75,-97 81.51,-79.27 67.38,-53.38 59.08,-35.73"/>
<polygon fill="#63b8ff" stroke="#63b8ff" points="62.29,-34.33 55.01,-26.64 55.9,-37.19 62.29,-34.33"/>
</a>
</g>
</g>
<!-- Node7 -->
<g id="Node000007" class="node">
<title>Node7</title>
<g id="a_Node000007"><a xlink:href="_symbol_helper_8h.html" target="_top" xlink:title=" ">
<polygon fill="white" stroke="#666666" points="690.25,-157.88 569.25,-157.88 569.25,-138.62 690.25,-138.62 690.25,-157.88"/>
<text text-anchor="middle" x="629.75" y="-144.38" font-family="Helvetica,sans-Serif" font-size="10.00">llzk/Util/SymbolHelper.h</text>
</a>
</g>
</g>
<!-- Node1&#45;&gt;Node7 -->
<g id="edge6_Node000001_Node000007" class="edge">
<title>Node1&#45;&gt;Node7</title>
<g id="a_edge6_Node000001_Node000007"><a xlink:title=" ">
<path fill="none" stroke="#63b8ff" d="M434.34,-199.05C474.27,-188.88 539.2,-172.33 583.15,-161.13"/>
<polygon fill="#63b8ff" stroke="#63b8ff" points="583.83,-164.57 592.66,-158.7 582.1,-157.78 583.83,-164.57"/>
</a>
</g>
</g>
<!-- Node8 -->
<g id="Node000008" class="node">
<title>Node8</title>
<g id="a_Node000008"><a xlink:href="_symbol_lookup_8h.html" target="_top" xlink:title="This file defines methods symbol lookup across LLZK operations and included files.">
<polygon fill="white" stroke="#666666" points="506.12,-91.38 381.38,-91.38 381.38,-72.12 506.12,-72.12 506.12,-91.38"/>
<text text-anchor="middle" x="443.75" y="-77.88" font-family="Helvetica,sans-Serif" font-size="10.00">llzk/Util/SymbolLookup.h</text>
</a>
</g>
</g>
<!-- Node1&#45;&gt;Node8 -->
<g id="edge15_Node000001_Node000008" class="edge">
<title>Node1&#45;&gt;Node8</title>
<g id="a_edge15_Node000001_Node000008"><a xlink:title=" ">
<path fill="none" stroke="#63b8ff" d="M401.99,-199.11C409.22,-178.96 426.83,-129.88 436.72,-102.34"/>
<polygon fill="#63b8ff" stroke="#63b8ff" points="439.95,-103.7 440.03,-93.11 433.36,-101.34 439.95,-103.7"/>
</a>
</g>
</g>
<!-- Node10 -->
<g id="Node000010" class="node">
<title>Node10</title>
<g id="a_Node000010"><a xlink:title=" ">
<polygon fill="#e0e0e0" stroke="#999999" points="335,-24.88 236.5,-24.88 236.5,-5.63 335,-5.63 335,-24.88"/>
<text text-anchor="middle" x="285.75" y="-11.38" font-family="Helvetica,sans-Serif" font-size="10.00">mlir/IR/Operation.h</text>
</a>
</g>
</g>
<!-- Node1&#45;&gt;Node10 -->
<g id="edge17_Node000001_Node000010" class="edge">
<title>Node1&#45;&gt;Node10</title>
<g id="a_edge17_Node000001_Node000010"><a xlink:title=" ">
<path fill="none" stroke="#63b8ff" d="M395.96,-199.28C388.43,-176.14 366.07,-112.42 334.75,-66.5 326.34,-54.17 314.76,-42.13 304.97,-32.93"/>
<polygon fill="#63b8ff" stroke="#63b8ff" points="307.5,-30.5 297.74,-26.37 302.79,-35.69 307.5,-30.5"/>
</a>
</g>
</g>
<!-- Node11 -->
<g id="Node000011" class="node">
<title>Node11</title>
<g id="a_Node000011"><a xlink:title=" ">
<polygon fill="#e0e0e0" stroke="#999999" points="783.75,-24.88 665.75,-24.88 665.75,-5.63 783.75,-5.63 783.75,-24.88"/>
<text text-anchor="middle" x="724.75" y="-11.38" font-family="Helvetica,sans-Serif" font-size="10.00">mlir/IR/OwningOpRef.h</text>
</a>
</g>
</g>
<!-- Node1&#45;&gt;Node11 -->
<g id="edge18_Node000001_Node000011" class="edge">
<title>Node1&#45;&gt;Node11</title>
<g id="a_edge18_Node000001_Node000011"><a xlink:title=" ">
<path fill="none" stroke="#63b8ff" d="M408.03,-199.13C438.68,-169.47 535.75,-76.1 552.75,-66.5 573.7,-54.67 632.13,-38.79 675.09,-28.08"/>
<polygon fill="#63b8ff" stroke="#63b8ff" points="675.86,-31.49 684.73,-25.7 674.19,-24.69 675.86,-31.49"/>
</a>
</g>
</g>
<!-- Node3 -->
<g id="Node000003" class="node">
<title>Node3</title>
<g id="a_Node000003"><a xlink:href="_include_2_i_r_2_dialect_8h.html" target="_top" xlink:title=" ">
<polygon fill="white" stroke="#666666" points="208.38,-97 109.12,-97 109.12,-66.5 208.38,-66.5 208.38,-97"/>
<text text-anchor="start" x="117.12" y="-83.5" font-family="Helvetica,sans-Serif" font-size="10.00">llzk/Dialect/Include</text>
<text text-anchor="middle" x="158.75" y="-72.25" font-family="Helvetica,sans-Serif" font-size="10.00">/IR/Dialect.h</text>
</a>
</g>
</g>
<!-- Node2&#45;&gt;Node3 -->
<g id="edge2_Node000002_Node000003" class="edge">
<title>Node2&#45;&gt;Node3</title>
<g id="a_edge2_Node000002_Node000003"><a xlink:title=" ">
<path fill="none" stroke="#63b8ff" d="M249.2,-132.61C233.19,-123.79 212.58,-112.43 195.08,-102.78"/>
<polygon fill="#63b8ff" stroke="#63b8ff" points="196.97,-99.82 186.52,-98.06 193.59,-105.95 196.97,-99.82"/>
</a>
</g>
</g>
<!-- Node6 -->
<g id="Node000006" class="node">
<title>Node6</title>
<g id="a_Node000006"><a xlink:href="_include_2_i_r_2_ops_8h_8inc.html" target="_top" xlink:title=" ">
<polygon fill="white" stroke="#666666" points="325.38,-97 226.12,-97 226.12,-66.5 325.38,-66.5 325.38,-97"/>
<text text-anchor="start" x="234.12" y="-83.5" font-family="Helvetica,sans-Serif" font-size="10.00">llzk/Dialect/Include</text>
<text text-anchor="middle" x="275.75" y="-72.25" font-family="Helvetica,sans-Serif" font-size="10.00">/IR/Ops.h.inc</text>
</a>
</g>
</g>
<!-- Node2&#45;&gt;Node6 -->
<g id="edge5_Node000002_Node000006" class="edge">
<title>Node2&#45;&gt;Node6</title>
<g id="a_edge5_Node000002_Node000006"><a xlink:title=" ">
<path fill="none" stroke="#63b8ff" d="M275.75,-132.61C275.75,-125.52 275.75,-116.79 275.75,-108.63"/>
<polygon fill="#63b8ff" stroke="#63b8ff" points="279.25,-108.84 275.75,-98.84 272.25,-108.84 279.25,-108.84"/>
</a>
</g>
</g>
<!-- Node3&#45;&gt;Node4 -->
<g id="edge3_Node000003_Node000004" class="edge">
<title>Node3&#45;&gt;Node4</title>
<g id="a_edge3_Node000003_Node000004"><a xlink:title=" ">
<path fill="none" stroke="#63b8ff" d="M134.24,-66.11C116.66,-55.61 93.06,-41.52 75.43,-30.99"/>
<polygon fill="#63b8ff" stroke="#63b8ff" points="77.52,-28.16 67.14,-26.04 73.93,-34.17 77.52,-28.16"/>
</a>
</g>
</g>
<!-- Node5 -->
<g id="Node000005" class="node">
<title>Node5</title>
<g id="a_Node000005"><a xlink:href="_include_2_i_r_2_dialect_8h_8inc.html" target="_top" xlink:title=" ">
<polygon fill="white" stroke="#666666" points="218.38,-30.5 119.12,-30.5 119.12,0 218.38,0 218.38,-30.5"/>
<text text-anchor="start" x="127.12" y="-17" font-family="Helvetica,sans-Serif" font-size="10.00">llzk/Dialect/Include</text>
<text text-anchor="middle" x="168.75" y="-5.75" font-family="Helvetica,sans-Serif" font-size="10.00">/IR/Dialect.h.inc</text>
</a>
</g>
</g>
<!-- Node3&#45;&gt;Node5 -->
<g id="edge4_Node000003_Node000005" class="edge">
<title>Node3&#45;&gt;Node5</title>
<g id="a_edge4_Node000003_Node000005"><a xlink:title=" ">
<path fill="none" stroke="#63b8ff" d="M161.02,-66.11C162.12,-59.02 163.47,-50.29 164.74,-42.13"/>
<polygon fill="#63b8ff" stroke="#63b8ff" points="168.18,-42.74 166.26,-32.32 161.27,-41.67 168.18,-42.74"/>
</a>
</g>
</g>
<!-- Node7&#45;&gt;Node8 -->
<g id="edge7_Node000007_Node000008" class="edge">
<title>Node7&#45;&gt;Node8</title>
<g id="a_edge7_Node000007_Node000008"><a xlink:title=" ">
<path fill="none" stroke="#63b8ff" d="M603.5,-138.15C571.37,-127.01 516.79,-108.08 480.5,-95.49"/>
<polygon fill="#63b8ff" stroke="#63b8ff" points="481.9,-92.27 471.3,-92.3 479.6,-98.89 481.9,-92.27"/>
</a>
</g>
</g>
<!-- Node14 -->
<g id="Node000014" class="node">
<title>Node14</title>
<g id="a_Node000014"><a xlink:title=" ">
<polygon fill="#e0e0e0" stroke="#999999" points="711.88,-91.38 561.62,-91.38 561.62,-72.12 711.88,-72.12 711.88,-91.38"/>
<text text-anchor="middle" x="636.75" y="-77.88" font-family="Helvetica,sans-Serif" font-size="10.00">mlir/Interfaces/CallInterfaces.h</text>
</a>
</g>
</g>
<!-- Node7&#45;&gt;Node14 -->
<g id="edge13_Node000007_Node000014" class="edge">
<title>Node7&#45;&gt;Node14</title>
<g id="a_edge13_Node000007_Node000014"><a xlink:title=" ">
<path fill="none" stroke="#63b8ff" d="M630.72,-138.28C631.72,-129.14 633.29,-114.64 634.58,-102.75"/>
<polygon fill="#63b8ff" stroke="#63b8ff" points="638.02,-103.47 635.62,-93.15 631.06,-102.71 638.02,-103.47"/>
</a>
</g>
</g>
<!-- Node15 -->
<g id="Node000015" class="node">
<title>Node15</title>
<g id="a_Node000015"><a xlink:title=" ">
<polygon fill="#e0e0e0" stroke="#999999" points="775.38,-91.38 730.12,-91.38 730.12,-72.12 775.38,-72.12 775.38,-91.38"/>
<text text-anchor="middle" x="752.75" y="-77.88" font-family="Helvetica,sans-Serif" font-size="10.00">ranges</text>
</a>
</g>
</g>
<!-- Node7&#45;&gt;Node15 -->
<g id="edge14_Node000007_Node000015" class="edge">
<title>Node7&#45;&gt;Node15</title>
<g id="a_edge14_Node000007_Node000015"><a xlink:title=" ">
<path fill="none" stroke="#63b8ff" d="M647.11,-138.15C667.44,-127.49 701.37,-109.69 725.28,-97.16"/>
<polygon fill="#63b8ff" stroke="#63b8ff" points="726.91,-100.25 734.14,-92.51 723.65,-94.06 726.91,-100.25"/>
</a>
</g>
</g>
<!-- Node9 -->
<g id="Node000009" class="node">
<title>Node9</title>
<g id="a_Node000009"><a xlink:href="_constants_8h.html" target="_top" xlink:title=" ">
<polygon fill="white" stroke="#666666" points="458.38,-24.88 353.12,-24.88 353.12,-5.63 458.38,-5.63 458.38,-24.88"/>
<text text-anchor="middle" x="405.75" y="-11.38" font-family="Helvetica,sans-Serif" font-size="10.00">llzk/Util/Constants.h</text>
</a>
</g>
</g>
<!-- Node8&#45;&gt;Node9 -->
<g id="edge8_Node000008_Node000009" class="edge">
<title>Node8&#45;&gt;Node9</title>
<g id="a_edge8_Node000008_Node000009"><a xlink:title=" ">
<path fill="none" stroke="#63b8ff" d="M438.47,-71.78C432.85,-62.25 423.81,-46.91 416.66,-34.77"/>
<polygon fill="#63b8ff" stroke="#63b8ff" points="419.85,-33.29 411.76,-26.45 413.82,-36.84 419.85,-33.29"/>
</a>
</g>
</g>
<!-- Node8&#45;&gt;Node10 -->
<g id="edge9_Node000008_Node000010" class="edge">
<title>Node8&#45;&gt;Node10</title>
<g id="a_edge9_Node000008_Node000010"><a xlink:title=" ">
<path fill="none" stroke="#63b8ff" d="M421.45,-71.65C394.63,-60.7 349.38,-42.23 318.58,-29.65"/>
<polygon fill="#63b8ff" stroke="#63b8ff" points="319.92,-26.42 309.34,-25.88 317.28,-32.9 319.92,-26.42"/>
</a>
</g>
</g>
<!-- Node8&#45;&gt;Node11 -->
<g id="edge10_Node000008_Node000011" class="edge">
<title>Node8&#45;&gt;Node11</title>
<g id="a_edge10_Node000008_Node000011"><a xlink:title=" ">
<path fill="none" stroke="#63b8ff" d="M483.41,-71.65C533.41,-60.17 619.42,-40.43 674.12,-27.87"/>
<polygon fill="#63b8ff" stroke="#63b8ff" points="674.85,-31.3 683.81,-25.65 673.28,-24.47 674.85,-31.3"/>
</a>
</g>
</g>
<!-- Node12 -->
<g id="Node000012" class="node">
<title>Node12</title>
<g id="a_Node000012"><a xlink:title=" ">
<polygon fill="#e0e0e0" stroke="#999999" points="586.62,-24.88 476.88,-24.88 476.88,-5.63 586.62,-5.63 586.62,-24.88"/>
<text text-anchor="middle" x="531.75" y="-11.38" font-family="Helvetica,sans-Serif" font-size="10.00">llvm/ADT/StringRef.h</text>
</a>
</g>
</g>
<!-- Node8&#45;&gt;Node12 -->
<g id="edge11_Node000008_Node000012" class="edge">
<title>Node8&#45;&gt;Node12</title>
<g id="a_edge11_Node000008_Node000012"><a xlink:title=" ">
<path fill="none" stroke="#63b8ff" d="M455.99,-71.78C469.96,-61.54 493.09,-44.59 510.12,-32.1"/>
<polygon fill="#63b8ff" stroke="#63b8ff" points="512.12,-34.98 518.11,-26.24 507.98,-29.33 512.12,-34.98"/>
</a>
</g>
</g>
<!-- Node13 -->
<g id="Node000013" class="node">
<title>Node13</title>
<g id="a_Node000013"><a xlink:title=" ">
<polygon fill="#e0e0e0" stroke="#999999" points="647.25,-24.88 604.25,-24.88 604.25,-5.63 647.25,-5.63 647.25,-24.88"/>
<text text-anchor="middle" x="625.75" y="-11.38" font-family="Helvetica,sans-Serif" font-size="10.00">vector</text>
</a>
</g>
</g>
<!-- Node8&#45;&gt;Node13 -->
<g id="edge12_Node000008_Node000013" class="edge">
<title>Node8&#45;&gt;Node13</title>
<g id="a_edge12_Node000008_Node000013"><a xlink:title=" ">
<path fill="none" stroke="#63b8ff" d="M475.01,-71.66C506.03,-62.35 554.73,-46.95 595.75,-30.5 596.23,-30.31 596.72,-30.11 597.2,-29.91"/>
<polygon fill="#63b8ff" stroke="#63b8ff" points="598.39,-33.21 606.12,-25.97 595.56,-26.81 598.39,-33.21"/>
</a>
</g>
</g>
</g>
</svg>
