<?xml version="1.0" encoding="UTF-8" standalone="no"?>
<!DOCTYPE svg PUBLIC "-//W3C//DTD SVG 1.1//EN"
 "http://www.w3.org/Graphics/SVG/1.1/DTD/svg11.dtd">
<!-- Generated by graphviz version 12.2.1 (20241206.2353)
 -->
<!-- Title: include/llzk/Util/SymbolHelper.h Pages: 1 -->
<svg width="3574pt" height="305pt"
 viewBox="0.00 0.00 3573.62 304.50" xmlns="http://www.w3.org/2000/svg" xmlns:xlink="http://www.w3.org/1999/xlink">
<g id="graph0" class="graph" transform="scale(1 1) rotate(0) translate(4 300.5)">
<title>include/llzk/Util/SymbolHelper.h</title>
<!-- Node1 -->
<g id="Node000001" class="node">
<title>Node1</title>
<g id="a_Node000001"><a xlink:title=" ">
<polygon fill="#999999" stroke="#666666" points="2534.88,-296.5 2416.12,-296.5 2416.12,-266 2534.88,-266 2534.88,-296.5"/>
<text text-anchor="start" x="2424.12" y="-283" font-family="Helvetica,sans-Serif" font-size="10.00">include/llzk/Util/Symbol</text>
<text text-anchor="middle" x="2475.5" y="-271.75" font-family="Helvetica,sans-Serif" font-size="10.00">Helper.h</text>
</a>
</g>
</g>
<!-- Node2 -->
<g id="Node000002" class="node">
<title>Node2</title>
<g id="a_Node000002"><a xlink:href="_analysis_wrappers_8h.html" target="_top" xlink:title="Convenience classes for a frequent pattern of dataflow analysis used in LLZK, where an analysis is ru...">
<polygon fill="white" stroke="#666666" points="376.5,-230 270.5,-230 270.5,-199.5 376.5,-199.5 376.5,-230"/>
<text text-anchor="start" x="278.5" y="-216.5" font-family="Helvetica,sans-Serif" font-size="10.00">include/llzk/Analysis</text>
<text text-anchor="middle" x="323.5" y="-205.25" font-family="Helvetica,sans-Serif" font-size="10.00">/AnalysisWrappers.h</text>
</a>
</g>
</g>
<!-- Node1&#45;&gt;Node2 -->
<g id="edge1_Node000001_Node000002" class="edge">
<title>Node1&#45;&gt;Node2</title>
<g id="a_edge1_Node000001_Node000002"><a xlink:title=" ">
<path fill="none" stroke="#63b8ff" d="M2404.54,-279.77C2089.24,-277.44 813.28,-265.93 414.5,-230 402.24,-228.9 389.12,-227.17 376.77,-225.29"/>
<polygon fill="#63b8ff" stroke="#63b8ff" points="2404.25,-283.27 2414.27,-279.84 2404.3,-276.27 2404.25,-283.27"/>
</a>
</g>
</g>
<!-- Node6 -->
<g id="Node000006" class="node">
<title>Node6</title>
<g id="a_Node000006"><a xlink:href="_interval_analysis_pass_8cpp.html" target="_top" xlink:title="This file implements the &#45;llzk&#45;print&#45;interval&#45;analysis pass.">
<polygon fill="white" stroke="#666666" points="139,-30.5 0,-30.5 0,0 139,0 139,-30.5"/>
<text text-anchor="start" x="8" y="-17" font-family="Helvetica,sans-Serif" font-size="10.00">lib/Analysis/IntervalAnalysis</text>
<text text-anchor="middle" x="69.5" y="-5.75" font-family="Helvetica,sans-Serif" font-size="10.00">Pass.cpp</text>
</a>
</g>
</g>
<!-- Node1&#45;&gt;Node6 -->
<g id="edge43_Node000001_Node000006" class="edge">
<title>Node1&#45;&gt;Node6</title>
<g id="a_edge43_Node000001_Node000006"><a xlink:title=" ">
<path fill="none" stroke="#63b8ff" d="M2404.43,-279.9C2032.08,-277.91 319.28,-266.78 213.5,-230 120.89,-197.8 81.19,-184.77 37.5,-97 26.35,-74.59 43.11,-47.29 56.28,-30.86"/>
<polygon fill="#63b8ff" stroke="#63b8ff" points="2404.29,-283.4 2414.31,-279.95 2404.33,-276.4 2404.29,-283.4"/>
</a>
</g>
</g>
<!-- Node7 -->
<g id="Node000007" class="node">
<title>Node7</title>
<g id="a_Node000007"><a xlink:href="_constrain_ref_lattice_8cpp.html" target="_top" xlink:title=" ">
<polygon fill="white" stroke="#666666" points="484,-97 357,-97 357,-66.5 484,-66.5 484,-97"/>
<text text-anchor="start" x="365" y="-83.5" font-family="Helvetica,sans-Serif" font-size="10.00">lib/Analysis/ConstrainRef</text>
<text text-anchor="middle" x="420.5" y="-72.25" font-family="Helvetica,sans-Serif" font-size="10.00">Lattice.cpp</text>
</a>
</g>
</g>
<!-- Node1&#45;&gt;Node7 -->
<g id="edge39_Node000001_Node000007" class="edge">
<title>Node1&#45;&gt;Node7</title>
<g id="a_edge39_Node000001_Node000007"><a xlink:title=" ">
<path fill="none" stroke="#63b8ff" d="M2404.2,-280.29C2061.68,-280.25 598.25,-277.3 514.5,-230 462.21,-200.47 434.58,-128.53 424.74,-97.45"/>
<polygon fill="#63b8ff" stroke="#63b8ff" points="2404.16,-283.79 2414.16,-280.29 2404.16,-276.79 2404.16,-283.79"/>
</a>
</g>
</g>
<!-- Node8 -->
<g id="Node000008" class="node">
<title>Node8</title>
<g id="a_Node000008"><a xlink:href="_constraint_dependency_graph_8cpp.html" target="_top" xlink:title=" ">
<polygon fill="white" stroke="#666666" points="671,-97 502,-97 502,-66.5 671,-66.5 671,-97"/>
<text text-anchor="start" x="510" y="-83.5" font-family="Helvetica,sans-Serif" font-size="10.00">lib/Analysis/ConstraintDependency</text>
<text text-anchor="middle" x="586.5" y="-72.25" font-family="Helvetica,sans-Serif" font-size="10.00">Graph.cpp</text>
</a>
</g>
</g>
<!-- Node1&#45;&gt;Node8 -->
<g id="edge40_Node000001_Node000008" class="edge">
<title>Node1&#45;&gt;Node8</title>
<g id="a_edge40_Node000001_Node000008"><a xlink:title=" ">
<path fill="none" stroke="#63b8ff" d="M2404.61,-280.22C2067.42,-279.85 638.73,-275.59 556.5,-230 515.1,-207.05 490.34,-174.83 512.5,-133 520.86,-117.22 536.64,-105.48 551.49,-97.33"/>
<polygon fill="#63b8ff" stroke="#63b8ff" points="2404.16,-283.72 2414.16,-280.23 2404.16,-276.72 2404.16,-283.72"/>
</a>
</g>
</g>
<!-- Node9 -->
<g id="Node000009" class="node">
<title>Node9</title>
<g id="a_Node000009"><a xlink:href="_constraint_dependency_graph_pass_8cpp.html" target="_top" xlink:title="This file implements the &#45;llzk&#45;print&#45;constraint&#45;dependency&#45;graphs pass.">
<polygon fill="white" stroke="#666666" points="216,-97 47,-97 47,-66.5 216,-66.5 216,-97"/>
<text text-anchor="start" x="55" y="-83.5" font-family="Helvetica,sans-Serif" font-size="10.00">lib/Analysis/ConstraintDependency</text>
<text text-anchor="middle" x="131.5" y="-72.25" font-family="Helvetica,sans-Serif" font-size="10.00">GraphPass.cpp</text>
</a>
</g>
</g>
<!-- Node1&#45;&gt;Node9 -->
<g id="edge41_Node000001_Node000009" class="edge">
<title>Node1&#45;&gt;Node9</title>
<g id="a_edge41_Node000001_Node000009"><a xlink:title=" ">
<path fill="none" stroke="#63b8ff" d="M2404.6,-280.24C2036.95,-279.96 360.79,-276.15 261.5,-230 199.96,-201.4 155.54,-128.28 138.81,-97.15"/>
<polygon fill="#63b8ff" stroke="#63b8ff" points="2404.34,-283.73 2414.34,-280.24 2404.34,-276.73 2404.34,-283.73"/>
</a>
</g>
</g>
<!-- Node10 -->
<g id="Node000010" class="node">
<title>Node10</title>
<g id="a_Node000010"><a xlink:href="_function_2_i_r_2_ops_8h.html" target="_top" xlink:title=" ">
<polygon fill="white" stroke="#666666" points="1614.12,-230 1514.88,-230 1514.88,-199.5 1614.12,-199.5 1614.12,-230"/>
<text text-anchor="start" x="1522.88" y="-216.5" font-family="Helvetica,sans-Serif" font-size="10.00">include/llzk/Dialect</text>
<text text-anchor="middle" x="1564.5" y="-205.25" font-family="Helvetica,sans-Serif" font-size="10.00">/Function/IR/Ops.h</text>
</a>
</g>
</g>
<!-- Node1&#45;&gt;Node10 -->
<g id="edge10_Node000001_Node000010" class="edge">
<title>Node1&#45;&gt;Node10</title>
<g id="a_edge10_Node000001_Node000010"><a xlink:title=" ">
<path fill="none" stroke="#63b8ff" d="M2404.44,-275.22C2226.85,-262.65 1767,-230.09 1614.48,-219.29"/>
<polygon fill="#63b8ff" stroke="#63b8ff" points="2403.99,-278.7 2414.22,-275.91 2404.49,-271.71 2403.99,-278.7"/>
</a>
</g>
</g>
<!-- Node14 -->
<g id="Node000014" class="node">
<title>Node14</title>
<g id="a_Node000014"><a xlink:href="_l_l_z_k_redundant_operation_elimination_pass_8cpp.html" target="_top" xlink:title="This file implements the &#45;llzk&#45;duplicate&#45;op&#45;elim pass.">
<polygon fill="white" stroke="#666666" points="840.38,-97 688.62,-97 688.62,-66.5 840.38,-66.5 840.38,-97"/>
<text text-anchor="start" x="696.62" y="-83.5" font-family="Helvetica,sans-Serif" font-size="10.00">lib/Transforms/LLZKRedundant</text>
<text text-anchor="middle" x="764.5" y="-72.25" font-family="Helvetica,sans-Serif" font-size="10.00">OperationEliminationPass.cpp</text>
</a>
</g>
</g>
<!-- Node1&#45;&gt;Node14 -->
<g id="edge52_Node000001_Node000014" class="edge">
<title>Node1&#45;&gt;Node14</title>
<g id="a_edge52_Node000001_Node000014"><a xlink:title=" ">
<path fill="none" stroke="#63b8ff" d="M2404.4,-280.37C2192.08,-280.19 1544.25,-275.63 1009.5,-230 792.28,-211.46 666.83,-327.78 523.5,-163.5 514.59,-153.29 514.95,-143.52 523.5,-133 528.83,-126.44 619.67,-108.79 688.25,-96.26"/>
<polygon fill="#63b8ff" stroke="#63b8ff" points="2404.16,-283.87 2414.16,-280.38 2404.16,-276.87 2404.16,-283.87"/>
</a>
</g>
</g>
<!-- Node16 -->
<g id="Node000016" class="node">
<title>Node16</title>
<g id="a_Node000016"><a xlink:href="_builders_8cpp.html" target="_top" xlink:title=" ">
<polygon fill="white" stroke="#666666" points="2668.12,-97 2574.88,-97 2574.88,-66.5 2668.12,-66.5 2668.12,-97"/>
<text text-anchor="start" x="2582.88" y="-83.5" font-family="Helvetica,sans-Serif" font-size="10.00">lib/Dialect/Shared</text>
<text text-anchor="middle" x="2621.5" y="-72.25" font-family="Helvetica,sans-Serif" font-size="10.00">/Builders.cpp</text>
</a>
</g>
</g>
<!-- Node1&#45;&gt;Node16 -->
<g id="edge50_Node000001_Node000016" class="edge">
<title>Node1&#45;&gt;Node16</title>
<g id="a_edge50_Node000001_Node000016"><a xlink:title=" ">
<path fill="none" stroke="#63b8ff" d="M2525.4,-261.18C2545.56,-252.68 2568.69,-241.9 2588.5,-230 2607.36,-218.67 2607,-207.49 2627.5,-199.5 2721.6,-162.84 3011.98,-237.68 3080.5,-163.5 3089.7,-153.54 3089.55,-143.09 3080.5,-133 3053.31,-102.67 2779.96,-88.83 2668.47,-84.41"/>
<polygon fill="#63b8ff" stroke="#63b8ff" points="2524.16,-257.9 2516.26,-264.95 2526.84,-264.37 2524.16,-257.9"/>
</a>
</g>
</g>
<!-- Node17 -->
<g id="Node000017" class="node">
<title>Node17</title>
<g id="a_Node000017"><a xlink:href="_call_graph_8cpp.html" target="_top" xlink:title=" ">
<polygon fill="white" stroke="#666666" points="664.25,-157.88 532.75,-157.88 532.75,-138.62 664.25,-138.62 664.25,-157.88"/>
<text text-anchor="middle" x="598.5" y="-144.38" font-family="Helvetica,sans-Serif" font-size="10.00">lib/Analysis/CallGraph.cpp</text>
</a>
</g>
</g>
<!-- Node1&#45;&gt;Node17 -->
<g id="edge37_Node000001_Node000017" class="edge">
<title>Node1&#45;&gt;Node17</title>
<g id="a_edge37_Node000001_Node000017"><a xlink:title=" ">
<path fill="none" stroke="#63b8ff" d="M2404.45,-279.44C2161.23,-275.85 1340,-257.12 669.5,-163.5 659.79,-162.14 649.4,-160.29 639.66,-158.37"/>
<polygon fill="#63b8ff" stroke="#63b8ff" points="2404.37,-282.94 2414.42,-279.58 2404.47,-275.94 2404.37,-282.94"/>
</a>
</g>
</g>
<!-- Node18 -->
<g id="Node000018" class="node">
<title>Node18</title>
<g id="a_Node000018"><a xlink:href="_constrain_ref_8cpp.html" target="_top" xlink:title=" ">
<polygon fill="white" stroke="#666666" points="2356.38,-157.88 2210.62,-157.88 2210.62,-138.62 2356.38,-138.62 2356.38,-157.88"/>
<text text-anchor="middle" x="2283.5" y="-144.38" font-family="Helvetica,sans-Serif" font-size="10.00">lib/Analysis/ConstrainRef.cpp</text>
</a>
</g>
</g>
<!-- Node1&#45;&gt;Node18 -->
<g id="edge38_Node000001_Node000018" class="edge">
<title>Node1&#45;&gt;Node18</title>
<g id="a_edge38_Node000001_Node000018"><a xlink:title=" ">
<path fill="none" stroke="#63b8ff" d="M2444.92,-259.38C2402.41,-230.38 2327.26,-179.11 2296.84,-158.35"/>
<polygon fill="#63b8ff" stroke="#63b8ff" points="2442.74,-262.13 2452.97,-264.88 2446.68,-256.35 2442.74,-262.13"/>
</a>
</g>
</g>
<!-- Node19 -->
<g id="Node000019" class="node">
<title>Node19</title>
<g id="a_Node000019"><a xlink:href="_dense_analysis_8cpp.html" target="_top" xlink:title=" ">
<polygon fill="white" stroke="#666666" points="2528.5,-157.88 2374.5,-157.88 2374.5,-138.62 2528.5,-138.62 2528.5,-157.88"/>
<text text-anchor="middle" x="2451.5" y="-144.38" font-family="Helvetica,sans-Serif" font-size="10.00">lib/Analysis/DenseAnalysis.cpp</text>
</a>
</g>
</g>
<!-- Node1&#45;&gt;Node19 -->
<g id="edge42_Node000001_Node000019" class="edge">
<title>Node1&#45;&gt;Node19</title>
<g id="a_edge42_Node000001_Node000019"><a xlink:title=" ">
<path fill="none" stroke="#63b8ff" d="M2455.75,-256.34C2450.38,-248.44 2445.27,-239.28 2442.5,-230 2434.9,-204.59 2443.32,-172.95 2448.32,-157.94"/>
<polygon fill="#63b8ff" stroke="#63b8ff" points="2452.91,-258.39 2461.65,-264.37 2458.55,-254.24 2452.91,-258.39"/>
</a>
</g>
</g>
<!-- Node25 -->
<g id="Node000025" class="node">
<title>Node25</title>
<g id="a_Node000025"><a xlink:href="_function_2_i_r_2_ops_8cpp.html" target="_top" xlink:title=" ">
<polygon fill="white" stroke="#666666" points="2646.5,-163.5 2546.5,-163.5 2546.5,-133 2646.5,-133 2646.5,-163.5"/>
<text text-anchor="start" x="2554.5" y="-150" font-family="Helvetica,sans-Serif" font-size="10.00">lib/Dialect/Function</text>
<text text-anchor="middle" x="2596.5" y="-138.75" font-family="Helvetica,sans-Serif" font-size="10.00">/IR/Ops.cpp</text>
</a>
</g>
</g>
<!-- Node1&#45;&gt;Node25 -->
<g id="edge45_Node000001_Node000025" class="edge">
<title>Node1&#45;&gt;Node25</title>
<g id="a_edge45_Node000001_Node000025"><a xlink:title=" ">
<path fill="none" stroke="#63b8ff" d="M2470.56,-254.26C2468.79,-237.2 2469.46,-215.23 2480.5,-199.5 2489.07,-187.28 2521.28,-173.87 2549.58,-163.97"/>
<polygon fill="#63b8ff" stroke="#63b8ff" points="2467.1,-254.74 2471.96,-264.15 2474.03,-253.76 2467.1,-254.74"/>
</a>
</g>
</g>
<!-- Node27 -->
<g id="Node000027" class="node">
<title>Node27</title>
<g id="a_Node000027"><a xlink:href="_flattening_pass_8cpp.html" target="_top" xlink:title="This file implements the &#45;llzk&#45;flatten pass.">
<polygon fill="white" stroke="#666666" points="2820.25,-163.5 2664.75,-163.5 2664.75,-133 2820.25,-133 2820.25,-163.5"/>
<text text-anchor="start" x="2672.75" y="-150" font-family="Helvetica,sans-Serif" font-size="10.00">lib/Dialect/Polymorphic</text>
<text text-anchor="middle" x="2742.5" y="-138.75" font-family="Helvetica,sans-Serif" font-size="10.00">/Transforms/FlatteningPass.cpp</text>
</a>
</g>
</g>
<!-- Node1&#45;&gt;Node27 -->
<g id="edge49_Node000001_Node000027" class="edge">
<title>Node1&#45;&gt;Node27</title>
<g id="a_edge49_Node000001_Node000027"><a xlink:title=" ">
<path fill="none" stroke="#63b8ff" d="M2482.73,-254.83C2489.2,-236.71 2500.49,-213.23 2518.5,-199.5 2530.33,-190.49 2604.5,-174.9 2664.3,-163.47"/>
<polygon fill="#63b8ff" stroke="#63b8ff" points="2479.48,-253.51 2479.71,-264.1 2486.14,-255.68 2479.48,-253.51"/>
</a>
</g>
</g>
<!-- Node28 -->
<g id="Node000028" class="node">
<title>Node28</title>
<g id="a_Node000028"><a xlink:href="_struct_2_i_r_2_ops_8cpp.html" target="_top" xlink:title=" ">
<polygon fill="white" stroke="#666666" points="2926.88,-163.5 2838.12,-163.5 2838.12,-133 2926.88,-133 2926.88,-163.5"/>
<text text-anchor="start" x="2846.12" y="-150" font-family="Helvetica,sans-Serif" font-size="10.00">lib/Dialect/Struct</text>
<text text-anchor="middle" x="2882.5" y="-138.75" font-family="Helvetica,sans-Serif" font-size="10.00">/IR/Ops.cpp</text>
</a>
</g>
</g>
<!-- Node1&#45;&gt;Node28 -->
<g id="edge51_Node000001_Node000028" class="edge">
<title>Node1&#45;&gt;Node28</title>
<g id="a_edge51_Node000001_Node000028"><a xlink:title=" ">
<path fill="none" stroke="#63b8ff" d="M2495.7,-257.01C2514.74,-235.7 2542.39,-206.45 2556.5,-199.5 2666.3,-145.44 2709.48,-187.44 2829.5,-163.5 2832.21,-162.96 2834.99,-162.36 2837.78,-161.72"/>
<polygon fill="#63b8ff" stroke="#63b8ff" points="2493.14,-254.62 2489.13,-264.43 2498.38,-259.26 2493.14,-254.62"/>
</a>
</g>
</g>
<!-- Node30 -->
<g id="Node000030" class="node">
<title>Node30</title>
<g id="a_Node000030"><a xlink:href="_symbol_helper_8cpp.html" target="_top" xlink:title="This file contains the implementations for symbol helper functions.">
<polygon fill="white" stroke="#666666" points="3071.62,-157.88 2945.38,-157.88 2945.38,-138.62 3071.62,-138.62 3071.62,-157.88"/>
<text text-anchor="middle" x="3008.5" y="-144.38" font-family="Helvetica,sans-Serif" font-size="10.00">lib/Util/SymbolHelper.cpp</text>
</a>
</g>
</g>
<!-- Node1&#45;&gt;Node30 -->
<g id="edge54_Node000001_Node000030" class="edge">
<title>Node1&#45;&gt;Node30</title>
<g id="a_edge54_Node000001_Node000030"><a xlink:title=" ">
<path fill="none" stroke="#63b8ff" d="M2508.68,-259.57C2522.65,-250.68 2539.01,-240.04 2553.5,-230 2572.17,-217.06 2573.35,-207.76 2594.5,-199.5 2736.45,-144.05 2784.79,-186.12 2935.5,-163.5 2945.21,-162.04 2955.58,-160.2 2965.38,-158.32"/>
<polygon fill="#63b8ff" stroke="#63b8ff" points="2506.84,-256.59 2500.26,-264.89 2510.58,-262.51 2506.84,-256.59"/>
</a>
</g>
</g>
<!-- Node32 -->
<g id="Node000032" class="node">
<title>Node32</title>
<g id="a_Node000032"><a xlink:href="_array_2_i_r_2_ops_8cpp.html" target="_top" xlink:title=" ">
<polygon fill="white" stroke="#666666" points="2736.12,-230 2636.88,-230 2636.88,-199.5 2736.12,-199.5 2736.12,-230"/>
<text text-anchor="start" x="2644.88" y="-216.5" font-family="Helvetica,sans-Serif" font-size="10.00">lib/Dialect/Array/IR</text>
<text text-anchor="middle" x="2686.5" y="-205.25" font-family="Helvetica,sans-Serif" font-size="10.00">/Ops.cpp</text>
</a>
</g>
</g>
<!-- Node1&#45;&gt;Node32 -->
<g id="edge44_Node000001_Node000032" class="edge">
<title>Node1&#45;&gt;Node32</title>
<g id="a_edge44_Node000001_Node000032"><a xlink:title=" ">
<path fill="none" stroke="#63b8ff" d="M2534.47,-262.22C2567.31,-252.18 2607.68,-239.84 2638.56,-230.4"/>
<polygon fill="#63b8ff" stroke="#63b8ff" points="2533.63,-258.82 2525.09,-265.09 2535.68,-265.51 2533.63,-258.82"/>
</a>
</g>
</g>
<!-- Node33 -->
<g id="Node000033" class="node">
<title>Node33</title>
<g id="a_Node000033"><a xlink:href="_global_2_i_r_2_ops_8cpp.html" target="_top" xlink:title=" ">
<polygon fill="white" stroke="#666666" points="2844.62,-230 2754.38,-230 2754.38,-199.5 2844.62,-199.5 2844.62,-230"/>
<text text-anchor="start" x="2762.38" y="-216.5" font-family="Helvetica,sans-Serif" font-size="10.00">lib/Dialect/Global</text>
<text text-anchor="middle" x="2799.5" y="-205.25" font-family="Helvetica,sans-Serif" font-size="10.00">/IR/Ops.cpp</text>
</a>
</g>
</g>
<!-- Node1&#45;&gt;Node33 -->
<g id="edge46_Node000001_Node000033" class="edge">
<title>Node1&#45;&gt;Node33</title>
<g id="a_edge46_Node000001_Node000033"><a xlink:title=" ">
<path fill="none" stroke="#63b8ff" d="M2546.58,-268.5C2601.2,-259.12 2678.4,-245.08 2745.5,-230 2748.24,-229.38 2751.06,-228.72 2753.89,-228.04"/>
<polygon fill="#63b8ff" stroke="#63b8ff" points="2546.04,-265.04 2536.77,-270.18 2547.22,-271.94 2546.04,-265.04"/>
</a>
</g>
</g>
<!-- Node34 -->
<g id="Node000034" class="node">
<title>Node34</title>
<g id="a_Node000034"><a xlink:href="_include_helper_8cpp.html" target="_top" xlink:title="This file contains the implementation for file include helpers.">
<polygon fill="white" stroke="#666666" points="2978,-230 2863,-230 2863,-199.5 2978,-199.5 2978,-230"/>
<text text-anchor="start" x="2871" y="-216.5" font-family="Helvetica,sans-Serif" font-size="10.00">lib/Dialect/Include</text>
<text text-anchor="middle" x="2920.5" y="-205.25" font-family="Helvetica,sans-Serif" font-size="10.00">/Util/IncludeHelper.cpp</text>
</a>
</g>
</g>
<!-- Node1&#45;&gt;Node34 -->
<g id="edge47_Node000001_Node000034" class="edge">
<title>Node1&#45;&gt;Node34</title>
<g id="a_edge47_Node000001_Node000034"><a xlink:title=" ">
<path fill="none" stroke="#63b8ff" d="M2546.63,-272.46C2622.8,-263.73 2747.08,-248.36 2853.5,-230 2856.55,-229.47 2859.67,-228.91 2862.81,-228.32"/>
<polygon fill="#63b8ff" stroke="#63b8ff" points="2546.34,-268.97 2536.8,-273.58 2547.13,-275.92 2546.34,-268.97"/>
</a>
</g>
</g>
<!-- Node35 -->
<g id="Node000035" class="node">
<title>Node35</title>
<g id="a_Node000035"><a xlink:href="_polymorphic_2_i_r_2_ops_8cpp.html" target="_top" xlink:title=" ">
<polygon fill="white" stroke="#666666" points="3112.75,-230 2996.25,-230 2996.25,-199.5 3112.75,-199.5 3112.75,-230"/>
<text text-anchor="start" x="3004.25" y="-216.5" font-family="Helvetica,sans-Serif" font-size="10.00">lib/Dialect/Polymorphic</text>
<text text-anchor="middle" x="3054.5" y="-205.25" font-family="Helvetica,sans-Serif" font-size="10.00">/IR/Ops.cpp</text>
</a>
</g>
</g>
<!-- Node1&#45;&gt;Node35 -->
<g id="edge48_Node000001_Node000035" class="edge">
<title>Node1&#45;&gt;Node35</title>
<g id="a_edge48_Node000001_Node000035"><a xlink:title=" ">
<path fill="none" stroke="#63b8ff" d="M2546.66,-275.79C2645.84,-269 2831.07,-254.23 2987.5,-230 2990.32,-229.56 2993.2,-229.08 2996.11,-228.57"/>
<polygon fill="#63b8ff" stroke="#63b8ff" points="2546.54,-272.29 2536.8,-276.46 2547.01,-279.27 2546.54,-272.29"/>
</a>
</g>
</g>
<!-- Node36 -->
<g id="Node000036" class="node">
<title>Node36</title>
<g id="a_Node000036"><a xlink:href="_l_l_z_k_unused_declaration_elimination_pass_8cpp.html" target="_top" xlink:title="This file implements the &#45;llzk&#45;unused&#45;declaration&#45;elim pass.">
<polygon fill="white" stroke="#666666" points="3285.88,-230 3131.12,-230 3131.12,-199.5 3285.88,-199.5 3285.88,-230"/>
<text text-anchor="start" x="3139.12" y="-216.5" font-family="Helvetica,sans-Serif" font-size="10.00">lib/Transforms/LLZKUnused</text>
<text text-anchor="middle" x="3208.5" y="-205.25" font-family="Helvetica,sans-Serif" font-size="10.00">DeclarationEliminationPass.cpp</text>
</a>
</g>
</g>
<!-- Node1&#45;&gt;Node36 -->
<g id="edge53_Node000001_Node000036" class="edge">
<title>Node1&#45;&gt;Node36</title>
<g id="a_edge53_Node000001_Node000036"><a xlink:title=" ">
<path fill="none" stroke="#63b8ff" d="M2546.82,-276.68C2666.09,-270.27 2913.44,-255.09 3121.5,-230 3124.54,-229.63 3127.63,-229.24 3130.76,-228.82"/>
<polygon fill="#63b8ff" stroke="#63b8ff" points="2546.65,-273.19 2536.85,-277.21 2547.02,-280.18 2546.65,-273.19"/>
</a>
</g>
</g>
<!-- Node37 -->
<g id="Node000037" class="node">
<title>Node37</title>
<g id="a_Node000037"><a xlink:href="_symbol_lookup_8cpp.html" target="_top" xlink:title="This file contains the implementations for symbol lookup helper functions.">
<polygon fill="white" stroke="#666666" points="3433.5,-224.38 3303.5,-224.38 3303.5,-205.12 3433.5,-205.12 3433.5,-224.38"/>
<text text-anchor="middle" x="3368.5" y="-210.88" font-family="Helvetica,sans-Serif" font-size="10.00">lib/Util/SymbolLookup.cpp</text>
</a>
</g>
</g>
<!-- Node1&#45;&gt;Node37 -->
<g id="edge55_Node000001_Node000037" class="edge">
<title>Node1&#45;&gt;Node37</title>
<g id="a_edge55_Node000001_Node000037"><a xlink:title=" ">
<path fill="none" stroke="#63b8ff" d="M2546.5,-278.97C2688.89,-275.73 3019.29,-264.79 3294.5,-230 3304.88,-228.69 3316,-226.8 3326.39,-224.83"/>
<polygon fill="#63b8ff" stroke="#63b8ff" points="2546.78,-275.46 2536.86,-279.18 2546.94,-282.46 2546.78,-275.46"/>
</a>
</g>
</g>
<!-- Node38 -->
<g id="Node000038" class="node">
<title>Node38</title>
<g id="a_Node000038"><a xlink:href="_type_helper_8cpp.html" target="_top" xlink:title=" ">
<polygon fill="white" stroke="#666666" points="3565.62,-224.38 3451.38,-224.38 3451.38,-205.12 3565.62,-205.12 3565.62,-224.38"/>
<text text-anchor="middle" x="3508.5" y="-210.88" font-family="Helvetica,sans-Serif" font-size="10.00">lib/Util/TypeHelper.cpp</text>
</a>
</g>
</g>
<!-- Node1&#45;&gt;Node38 -->
<g id="edge56_Node000001_Node000038" class="edge">
<title>Node1&#45;&gt;Node38</title>
<g id="a_edge56_Node000001_Node000038"><a xlink:title=" ">
<path fill="none" stroke="#63b8ff" d="M2546.35,-280.45C2706.68,-280.07 3109.3,-274.33 3442.5,-230 3451.91,-228.75 3461.98,-226.86 3471.34,-224.87"/>
<polygon fill="#63b8ff" stroke="#63b8ff" points="2546.73,-276.95 2536.74,-280.47 2546.75,-283.95 2546.73,-276.95"/>
</a>
</g>
</g>
<!-- Node3 -->
<g id="Node000003" class="node">
<title>Node3</title>
<g id="a_Node000003"><a xlink:href="_constraint_dependency_graph_8h.html" target="_top" xlink:title=" ">
<polygon fill="white" stroke="#666666" points="400.12,-163.5 246.88,-163.5 246.88,-133 400.12,-133 400.12,-163.5"/>
<text text-anchor="start" x="254.88" y="-150" font-family="Helvetica,sans-Serif" font-size="10.00">include/llzk/Analysis</text>
<text text-anchor="middle" x="323.5" y="-138.75" font-family="Helvetica,sans-Serif" font-size="10.00">/ConstraintDependencyGraph.h</text>
</a>
</g>
</g>
<!-- Node2&#45;&gt;Node3 -->
<g id="edge2_Node000002_Node000003" class="edge">
<title>Node2&#45;&gt;Node3</title>
<g id="a_edge2_Node000002_Node000003"><a xlink:title=" ">
<path fill="none" stroke="#63b8ff" d="M323.5,-187.81C323.5,-179.64 323.5,-170.91 323.5,-163.83"/>
<polygon fill="#63b8ff" stroke="#63b8ff" points="320,-187.6 323.5,-197.6 327,-187.6 320,-187.6"/>
</a>
</g>
</g>
<!-- Node4 -->
<g id="Node000004" class="node">
<title>Node4</title>
<g id="a_Node000004"><a xlink:href="_interval_analysis_8h.html" target="_top" xlink:title=" ">
<polygon fill="white" stroke="#666666" points="339.12,-97 233.88,-97 233.88,-66.5 339.12,-66.5 339.12,-97"/>
<text text-anchor="start" x="241.88" y="-83.5" font-family="Helvetica,sans-Serif" font-size="10.00">include/llzk/Analysis</text>
<text text-anchor="middle" x="286.5" y="-72.25" font-family="Helvetica,sans-Serif" font-size="10.00">/IntervalAnalysis.h</text>
</a>
</g>
</g>
<!-- Node2&#45;&gt;Node4 -->
<g id="edge9_Node000002_Node000004" class="edge">
<title>Node2&#45;&gt;Node4</title>
<g id="a_edge9_Node000002_Node000004"><a xlink:title=" ">
<path fill="none" stroke="#63b8ff" d="M269.92,-193.78C257.05,-186.32 244.91,-176.41 237.5,-163.5 224.03,-140.03 248.28,-113.27 267.22,-97.21"/>
<polygon fill="#63b8ff" stroke="#63b8ff" points="268.01,-196.73 278.49,-198.32 271.29,-190.55 268.01,-196.73"/>
</a>
</g>
</g>
<!-- Node3&#45;&gt;Node4 -->
<g id="edge3_Node000003_Node000004" class="edge">
<title>Node3&#45;&gt;Node4</title>
<g id="a_edge3_Node000003_Node000004"><a xlink:title=" ">
<path fill="none" stroke="#63b8ff" d="M309.43,-122.73C304.52,-114.16 299.16,-104.82 294.86,-97.33"/>
<polygon fill="#63b8ff" stroke="#63b8ff" points="306.34,-124.37 314.35,-131.3 312.41,-120.89 306.34,-124.37"/>
</a>
</g>
</g>
<!-- Node3&#45;&gt;Node7 -->
<g id="edge6_Node000003_Node000007" class="edge">
<title>Node3&#45;&gt;Node7</title>
<g id="a_edge6_Node000003_Node000007"><a xlink:title=" ">
<path fill="none" stroke="#63b8ff" d="M354.94,-126.34C369.19,-116.87 385.69,-105.89 398.58,-97.33"/>
<polygon fill="#63b8ff" stroke="#63b8ff" points="353.16,-123.32 346.77,-131.78 357.04,-129.15 353.16,-123.32"/>
</a>
</g>
</g>
<!-- Node3&#45;&gt;Node8 -->
<g id="edge7_Node000003_Node000008" class="edge">
<title>Node3&#45;&gt;Node8</title>
<g id="a_edge7_Node000003_Node000008"><a xlink:title=" ">
<path fill="none" stroke="#63b8ff" d="M394.61,-129.81C435.97,-119.67 487.5,-107.03 526.75,-97.4"/>
<polygon fill="#63b8ff" stroke="#63b8ff" points="393.86,-126.39 384.98,-132.17 395.52,-133.19 393.86,-126.39"/>
</a>
</g>
</g>
<!-- Node3&#45;&gt;Node9 -->
<g id="edge8_Node000003_Node000009" class="edge">
<title>Node3&#45;&gt;Node9</title>
<g id="a_edge8_Node000003_Node000009"><a xlink:title=" ">
<path fill="none" stroke="#63b8ff" d="M269.3,-129.04C239.55,-119.05 203.15,-106.82 175.23,-97.44"/>
<polygon fill="#63b8ff" stroke="#63b8ff" points="267.9,-132.27 278.5,-132.13 270.13,-125.63 267.9,-132.27"/>
</a>
</g>
</g>
<!-- Node5 -->
<g id="Node000005" class="node">
<title>Node5</title>
<g id="a_Node000005"><a xlink:href="_interval_analysis_8cpp.html" target="_top" xlink:title=" ">
<polygon fill="white" stroke="#666666" points="365.38,-24.88 207.62,-24.88 207.62,-5.63 365.38,-5.63 365.38,-24.88"/>
<text text-anchor="middle" x="286.5" y="-11.38" font-family="Helvetica,sans-Serif" font-size="10.00">lib/Analysis/IntervalAnalysis.cpp</text>
</a>
</g>
</g>
<!-- Node4&#45;&gt;Node5 -->
<g id="edge4_Node000004_Node000005" class="edge">
<title>Node4&#45;&gt;Node5</title>
<g id="a_edge4_Node000004_Node000005"><a xlink:title=" ">
<path fill="none" stroke="#63b8ff" d="M286.5,-54.84C286.5,-44.26 286.5,-32.75 286.5,-25.07"/>
<polygon fill="#63b8ff" stroke="#63b8ff" points="283,-54.6 286.5,-64.6 290,-54.6 283,-54.6"/>
</a>
</g>
</g>
<!-- Node4&#45;&gt;Node6 -->
<g id="edge5_Node000004_Node000006" class="edge">
<title>Node4&#45;&gt;Node6</title>
<g id="a_edge5_Node000004_Node000006"><a xlink:title=" ">
<path fill="none" stroke="#63b8ff" d="M226.29,-62.85C192.44,-52.79 150.7,-40.39 118.8,-30.9"/>
<polygon fill="#63b8ff" stroke="#63b8ff" points="224.95,-66.11 235.54,-65.6 226.95,-59.4 224.95,-66.11"/>
</a>
</g>
</g>
<!-- Node10&#45;&gt;Node4 -->
<g id="edge15_Node000010_Node000004" class="edge">
<title>Node10&#45;&gt;Node4</title>
<g id="a_edge15_Node000010_Node000004"><a xlink:title=" ">
<path fill="none" stroke="#63b8ff" d="M1503.19,-212.54C1319.07,-208.58 779.21,-194.44 706.5,-163.5 688.12,-155.68 691.67,-141.29 673.5,-133 541.29,-72.66 491.78,-121.32 348.5,-97 345.56,-96.5 342.55,-95.95 339.52,-95.36"/>
<polygon fill="#63b8ff" stroke="#63b8ff" points="1502.95,-216.04 1513.02,-212.75 1503.1,-209.04 1502.95,-216.04"/>
</a>
</g>
</g>
<!-- Node10&#45;&gt;Node7 -->
<g id="edge22_Node000010_Node000007" class="edge">
<title>Node10&#45;&gt;Node7</title>
<g id="a_edge22_Node000010_Node000007"><a xlink:title=" ">
<path fill="none" stroke="#63b8ff" d="M1503.26,-212.13C1325.01,-207.13 814.59,-190.59 744.5,-163.5 724.3,-155.69 726.26,-141.87 706.5,-133 618.91,-93.69 587.96,-114.2 493.5,-97 490.45,-96.44 487.33,-95.87 484.18,-95.28"/>
<polygon fill="#63b8ff" stroke="#63b8ff" points="1502.91,-215.63 1513,-212.4 1503.1,-208.63 1502.91,-215.63"/>
</a>
</g>
</g>
<!-- Node10&#45;&gt;Node8 -->
<g id="edge23_Node000010_Node000008" class="edge">
<title>Node10&#45;&gt;Node8</title>
<g id="a_edge23_Node000010_Node000008"><a xlink:title=" ">
<path fill="none" stroke="#63b8ff" d="M1503.06,-211.7C1331.27,-205.72 854.17,-187.14 787.5,-163.5 765.42,-155.67 765.47,-143.45 744.5,-133 713.97,-117.78 677.85,-105.89 647.86,-97.5"/>
<polygon fill="#63b8ff" stroke="#63b8ff" points="1502.78,-215.2 1512.89,-212.05 1503.02,-208.2 1502.78,-215.2"/>
</a>
</g>
</g>
<!-- Node11 -->
<g id="Node000011" class="node">
<title>Node11</title>
<g id="a_Node000011"><a xlink:href="_call_graph_analyses_8h.html" target="_top" xlink:title=" ">
<polygon fill="white" stroke="#666666" points="908.12,-163.5 796.88,-163.5 796.88,-133 908.12,-133 908.12,-163.5"/>
<text text-anchor="start" x="804.88" y="-150" font-family="Helvetica,sans-Serif" font-size="10.00">include/llzk/Analysis</text>
<text text-anchor="middle" x="852.5" y="-138.75" font-family="Helvetica,sans-Serif" font-size="10.00">/CallGraphAnalyses.h</text>
</a>
</g>
</g>
<!-- Node10&#45;&gt;Node11 -->
<g id="edge11_Node000010_Node000011" class="edge">
<title>Node10&#45;&gt;Node11</title>
<g id="a_edge11_Node000010_Node000011"><a xlink:title=" ">
<path fill="none" stroke="#63b8ff" d="M1503.45,-211.47C1389.03,-206.64 1134.7,-193.29 922.5,-163.5 917.96,-162.86 913.26,-162.11 908.56,-161.29"/>
<polygon fill="#63b8ff" stroke="#63b8ff" points="1503.09,-214.96 1513.22,-211.87 1503.38,-207.96 1503.09,-214.96"/>
</a>
</g>
</g>
<!-- Node12 -->
<g id="Node000012" class="node">
<title>Node12</title>
<g id="a_Node000012"><a xlink:href="_call_graph_analyses_8cpp.html" target="_top" xlink:title=" ">
<polygon fill="white" stroke="#666666" points="1030.5,-91.38 858.5,-91.38 858.5,-72.12 1030.5,-72.12 1030.5,-91.38"/>
<text text-anchor="middle" x="944.5" y="-77.88" font-family="Helvetica,sans-Serif" font-size="10.00">lib/Analysis/CallGraphAnalyses.cpp</text>
</a>
</g>
</g>
<!-- Node10&#45;&gt;Node12 -->
<g id="edge19_Node000010_Node000012" class="edge">
<title>Node10&#45;&gt;Node12</title>
<g id="a_edge19_Node000010_Node000012"><a xlink:title=" ">
<path fill="none" stroke="#63b8ff" d="M1503.37,-211.93C1362.42,-207.26 1023.46,-193.05 981.5,-163.5 957.04,-146.27 948.4,-108.78 945.66,-91.63"/>
<polygon fill="#63b8ff" stroke="#63b8ff" points="1503.15,-215.43 1513.26,-212.26 1503.38,-208.43 1503.15,-215.43"/>
</a>
</g>
</g>
<!-- Node13 -->
<g id="Node000013" class="node">
<title>Node13</title>
<g id="a_Node000013"><a xlink:href="_call_graph_passes_8cpp.html" target="_top" xlink:title="This file implements the &#45;llzk&#45;print&#45;call&#45;graph and &#45;llzk&#45;print&#45;call&#45;graph&#45;sccs passes.">
<polygon fill="white" stroke="#666666" points="1212.75,-91.38 1048.25,-91.38 1048.25,-72.12 1212.75,-72.12 1212.75,-91.38"/>
<text text-anchor="middle" x="1130.5" y="-77.88" font-family="Helvetica,sans-Serif" font-size="10.00">lib/Analysis/CallGraphPasses.cpp</text>
</a>
</g>
</g>
<!-- Node10&#45;&gt;Node13 -->
<g id="edge20_Node000010_Node000013" class="edge">
<title>Node10&#45;&gt;Node13</title>
<g id="a_edge20_Node000010_Node000013"><a xlink:title=" ">
<path fill="none" stroke="#63b8ff" d="M1503.17,-212.93C1362.76,-210.4 1027.41,-200.53 993.5,-163.5 961.43,-128.48 1034.3,-104.07 1085.57,-91.82"/>
<polygon fill="#63b8ff" stroke="#63b8ff" points="1502.96,-216.42 1513.02,-213.1 1503.08,-209.42 1502.96,-216.42"/>
</a>
</g>
</g>
<!-- Node15 -->
<g id="Node000015" class="node">
<title>Node15</title>
<g id="a_Node000015"><a xlink:href="_builders_8h.html" target="_top" xlink:title=" ">
<polygon fill="white" stroke="#666666" points="2192.75,-163.5 2094.25,-163.5 2094.25,-133 2192.75,-133 2192.75,-163.5"/>
<text text-anchor="start" x="2102.25" y="-150" font-family="Helvetica,sans-Serif" font-size="10.00">include/llzk/Dialect</text>
<text text-anchor="middle" x="2143.5" y="-138.75" font-family="Helvetica,sans-Serif" font-size="10.00">/Shared/Builders.h</text>
</a>
</g>
</g>
<!-- Node10&#45;&gt;Node15 -->
<g id="edge16_Node000010_Node000015" class="edge">
<title>Node10&#45;&gt;Node15</title>
<g id="a_edge16_Node000010_Node000015"><a xlink:title=" ">
<path fill="none" stroke="#63b8ff" d="M1625.81,-210.72C1723.59,-205.24 1920.65,-191.55 2085.5,-163.5 2088.26,-163.03 2091.08,-162.5 2093.92,-161.93"/>
<polygon fill="#63b8ff" stroke="#63b8ff" points="1625.69,-207.22 1615.89,-211.26 1626.07,-214.21 1625.69,-207.22"/>
</a>
</g>
</g>
<!-- Node10&#45;&gt;Node17 -->
<g id="edge18_Node000010_Node000017" class="edge">
<title>Node10&#45;&gt;Node17</title>
<g id="a_edge18_Node000010_Node000017"><a xlink:title=" ">
<path fill="none" stroke="#63b8ff" d="M1503.67,-212.8C1359.75,-210.02 987.28,-199.63 678.5,-163.5 667.29,-162.19 655.27,-160.31 644.05,-158.34"/>
<polygon fill="#63b8ff" stroke="#63b8ff" points="1503.27,-216.3 1513.34,-212.99 1503.4,-209.3 1503.27,-216.3"/>
</a>
</g>
</g>
<!-- Node10&#45;&gt;Node18 -->
<g id="edge21_Node000010_Node000018" class="edge">
<title>Node10&#45;&gt;Node18</title>
<g id="a_edge21_Node000010_Node000018"><a xlink:title=" ">
<path fill="none" stroke="#63b8ff" d="M1625.43,-210.84C1739.04,-204.99 1990.81,-190.06 2201.5,-163.5 2212.54,-162.11 2224.36,-160.26 2235.48,-158.37"/>
<polygon fill="#63b8ff" stroke="#63b8ff" points="1625.54,-207.33 1615.73,-211.33 1625.89,-214.32 1625.54,-207.33"/>
</a>
</g>
</g>
<!-- Node10&#45;&gt;Node19 -->
<g id="edge24_Node000010_Node000019" class="edge">
<title>Node10&#45;&gt;Node19</title>
<g id="a_edge24_Node000010_Node000019"><a xlink:title=" ">
<path fill="none" stroke="#63b8ff" d="M1625.56,-212.03C1759.77,-207.8 2090.41,-194.84 2365.5,-163.5 2377.38,-162.15 2390.12,-160.27 2402.05,-158.33"/>
<polygon fill="#63b8ff" stroke="#63b8ff" points="1625.73,-208.53 1615.85,-212.34 1625.95,-215.52 1625.73,-208.53"/>
</a>
</g>
</g>
<!-- Node20 -->
<g id="Node000020" class="node">
<title>Node20</title>
<g id="a_Node000020"><a xlink:href="_array_to_scalar_pass_8cpp.html" target="_top" xlink:title="This file implements the &#45;llzk&#45;array&#45;to&#45;scalar pass.">
<polygon fill="white" stroke="#666666" points="1140.62,-163.5 1002.38,-163.5 1002.38,-133 1140.62,-133 1140.62,-163.5"/>
<text text-anchor="start" x="1010.38" y="-150" font-family="Helvetica,sans-Serif" font-size="10.00">lib/Dialect/Array/Transforms</text>
<text text-anchor="middle" x="1071.5" y="-138.75" font-family="Helvetica,sans-Serif" font-size="10.00">/ArrayToScalarPass.cpp</text>
</a>
</g>
</g>
<!-- Node10&#45;&gt;Node20 -->
<g id="edge25_Node000010_Node000020" class="edge">
<title>Node10&#45;&gt;Node20</title>
<g id="a_edge25_Node000010_Node000020"><a xlink:title=" ">
<path fill="none" stroke="#63b8ff" d="M1503.71,-207.48C1422.87,-198.89 1275.63,-182.36 1150.5,-163.5 1147.33,-163.02 1144.09,-162.52 1140.82,-161.99"/>
<polygon fill="#63b8ff" stroke="#63b8ff" points="1502.85,-210.91 1513.16,-208.48 1503.59,-203.95 1502.85,-210.91"/>
</a>
</g>
</g>
<!-- Node21 -->
<g id="Node000021" class="node">
<title>Node21</title>
<g id="a_Node000021"><a xlink:href="_cast_2_i_r_2_ops_8cpp.html" target="_top" xlink:title=" ">
<polygon fill="white" stroke="#666666" points="1256,-163.5 1159,-163.5 1159,-133 1256,-133 1256,-163.5"/>
<text text-anchor="start" x="1167" y="-150" font-family="Helvetica,sans-Serif" font-size="10.00">lib/Dialect/Cast/IR</text>
<text text-anchor="middle" x="1207.5" y="-138.75" font-family="Helvetica,sans-Serif" font-size="10.00">/Ops.cpp</text>
</a>
</g>
</g>
<!-- Node10&#45;&gt;Node21 -->
<g id="edge26_Node000010_Node000021" class="edge">
<title>Node10&#45;&gt;Node21</title>
<g id="a_edge26_Node000010_Node000021"><a xlink:title=" ">
<path fill="none" stroke="#63b8ff" d="M1503.29,-204.83C1442.68,-195.67 1347.34,-180.41 1265.5,-163.5 1262.56,-162.89 1259.53,-162.24 1256.49,-161.56"/>
<polygon fill="#63b8ff" stroke="#63b8ff" points="1502.65,-208.27 1513.06,-206.29 1503.69,-201.35 1502.65,-208.27"/>
</a>
</g>
</g>
<!-- Node22 -->
<g id="Node000022" class="node">
<title>Node22</title>
<g id="a_Node000022"><a xlink:href="_constrain_2_i_r_2_ops_8cpp.html" target="_top" xlink:title=" ">
<polygon fill="white" stroke="#666666" points="1378.75,-163.5 1274.25,-163.5 1274.25,-133 1378.75,-133 1378.75,-163.5"/>
<text text-anchor="start" x="1282.25" y="-150" font-family="Helvetica,sans-Serif" font-size="10.00">lib/Dialect/Constrain</text>
<text text-anchor="middle" x="1326.5" y="-138.75" font-family="Helvetica,sans-Serif" font-size="10.00">/IR/Ops.cpp</text>
</a>
</g>
</g>
<!-- Node10&#45;&gt;Node22 -->
<g id="edge27_Node000010_Node000022" class="edge">
<title>Node10&#45;&gt;Node22</title>
<g id="a_edge27_Node000010_Node000022"><a xlink:title=" ">
<path fill="none" stroke="#63b8ff" d="M1503.56,-197.23C1465.12,-186.82 1415.97,-173.5 1379.21,-163.54"/>
<polygon fill="#63b8ff" stroke="#63b8ff" points="1502.58,-200.6 1513.15,-199.83 1504.41,-193.84 1502.58,-200.6"/>
</a>
</g>
</g>
<!-- Node23 -->
<g id="Node000023" class="node">
<title>Node23</title>
<g id="a_Node000023"><a xlink:href="_function_2_i_r_2_dialect_8cpp.html" target="_top" xlink:title=" ">
<polygon fill="white" stroke="#666666" points="1496.5,-163.5 1396.5,-163.5 1396.5,-133 1496.5,-133 1496.5,-163.5"/>
<text text-anchor="start" x="1404.5" y="-150" font-family="Helvetica,sans-Serif" font-size="10.00">lib/Dialect/Function</text>
<text text-anchor="middle" x="1446.5" y="-138.75" font-family="Helvetica,sans-Serif" font-size="10.00">/IR/Dialect.cpp</text>
</a>
</g>
</g>
<!-- Node10&#45;&gt;Node23 -->
<g id="edge28_Node000010_Node000023" class="edge">
<title>Node10&#45;&gt;Node23</title>
<g id="a_edge28_Node000010_Node000023"><a xlink:title=" ">
<path fill="none" stroke="#63b8ff" d="M1527.74,-193.66C1510.08,-184 1489.29,-172.64 1473.17,-163.83"/>
<polygon fill="#63b8ff" stroke="#63b8ff" points="1525.94,-196.66 1536.4,-198.39 1529.3,-190.52 1525.94,-196.66"/>
</a>
</g>
</g>
<!-- Node24 -->
<g id="Node000024" class="node">
<title>Node24</title>
<g id="a_Node000024"><a xlink:href="_op_traits_8cpp.html" target="_top" xlink:title=" ">
<polygon fill="white" stroke="#666666" points="1614.5,-163.5 1514.5,-163.5 1514.5,-133 1614.5,-133 1614.5,-163.5"/>
<text text-anchor="start" x="1522.5" y="-150" font-family="Helvetica,sans-Serif" font-size="10.00">lib/Dialect/Function</text>
<text text-anchor="middle" x="1564.5" y="-138.75" font-family="Helvetica,sans-Serif" font-size="10.00">/IR/OpTraits.cpp</text>
</a>
</g>
</g>
<!-- Node10&#45;&gt;Node24 -->
<g id="edge29_Node000010_Node000024" class="edge">
<title>Node10&#45;&gt;Node24</title>
<g id="a_edge29_Node000010_Node000024"><a xlink:title=" ">
<path fill="none" stroke="#63b8ff" d="M1564.5,-187.81C1564.5,-179.64 1564.5,-170.91 1564.5,-163.83"/>
<polygon fill="#63b8ff" stroke="#63b8ff" points="1561,-187.6 1564.5,-197.6 1568,-187.6 1561,-187.6"/>
</a>
</g>
</g>
<!-- Node10&#45;&gt;Node25 -->
<g id="edge30_Node000010_Node000025" class="edge">
<title>Node10&#45;&gt;Node25</title>
<g id="a_edge30_Node000010_Node000025"><a xlink:title=" ">
<path fill="none" stroke="#63b8ff" d="M1625.49,-214.51C1779.34,-215.58 2195.38,-213.21 2537.5,-163.5 2540.32,-163.09 2543.19,-162.61 2546.09,-162.08"/>
<polygon fill="#63b8ff" stroke="#63b8ff" points="1625.98,-211.01 1615.95,-214.43 1625.92,-218.01 1625.98,-211.01"/>
</a>
</g>
</g>
<!-- Node26 -->
<g id="Node000026" class="node">
<title>Node26</title>
<g id="a_Node000026"><a xlink:href="_l_l_z_k_2_i_r_2_dialect_8cpp.html" target="_top" xlink:title=" ">
<polygon fill="white" stroke="#666666" points="1732.12,-163.5 1632.88,-163.5 1632.88,-133 1732.12,-133 1732.12,-163.5"/>
<text text-anchor="start" x="1640.88" y="-150" font-family="Helvetica,sans-Serif" font-size="10.00">lib/Dialect/LLZK/IR</text>
<text text-anchor="middle" x="1682.5" y="-138.75" font-family="Helvetica,sans-Serif" font-size="10.00">/Dialect.cpp</text>
</a>
</g>
</g>
<!-- Node10&#45;&gt;Node26 -->
<g id="edge31_Node000010_Node000026" class="edge">
<title>Node10&#45;&gt;Node26</title>
<g id="a_edge31_Node000010_Node000026"><a xlink:title=" ">
<path fill="none" stroke="#63b8ff" d="M1601.26,-193.66C1618.92,-184 1639.71,-172.64 1655.83,-163.83"/>
<polygon fill="#63b8ff" stroke="#63b8ff" points="1599.7,-190.52 1592.6,-198.39 1603.06,-196.66 1599.7,-190.52"/>
</a>
</g>
</g>
<!-- Node10&#45;&gt;Node27 -->
<g id="edge32_Node000010_Node000027" class="edge">
<title>Node10&#45;&gt;Node27</title>
<g id="a_edge32_Node000010_Node000027"><a xlink:title=" ">
<path fill="none" stroke="#63b8ff" d="M1625.84,-213.42C1792.04,-211.99 2264.85,-204.35 2655.5,-163.5 2658.39,-163.2 2661.33,-162.86 2664.3,-162.5"/>
<polygon fill="#63b8ff" stroke="#63b8ff" points="1625.89,-209.92 1615.92,-213.5 1625.95,-216.92 1625.89,-209.92"/>
</a>
</g>
</g>
<!-- Node10&#45;&gt;Node28 -->
<g id="edge33_Node000010_Node000028" class="edge">
<title>Node10&#45;&gt;Node28</title>
<g id="a_edge33_Node000010_Node000028"><a xlink:title=" ">
<path fill="none" stroke="#63b8ff" d="M1625.74,-213.12C1845.42,-210.6 2593.22,-199.5 2829.5,-163.5 2832.23,-163.08 2835.02,-162.58 2837.83,-162.01"/>
<polygon fill="#63b8ff" stroke="#63b8ff" points="1625.94,-209.62 1615.98,-213.23 1626.02,-216.62 1625.94,-209.62"/>
</a>
</g>
</g>
<!-- Node29 -->
<g id="Node000029" class="node">
<title>Node29</title>
<g id="a_Node000029"><a xlink:href="_l_l_z_k_redundant_read_and_write_elimination_pass_8cpp.html" target="_top" xlink:title="This file implements the &#45;llzk&#45;duplicate&#45;read&#45;write&#45;elim pass.">
<polygon fill="white" stroke="#666666" points="1918.62,-163.5 1750.38,-163.5 1750.38,-133 1918.62,-133 1918.62,-163.5"/>
<text text-anchor="start" x="1758.38" y="-150" font-family="Helvetica,sans-Serif" font-size="10.00">lib/Transforms/LLZKRedundant</text>
<text text-anchor="middle" x="1834.5" y="-138.75" font-family="Helvetica,sans-Serif" font-size="10.00">ReadAndWriteEliminationPass.cpp</text>
</a>
</g>
</g>
<!-- Node10&#45;&gt;Node29 -->
<g id="edge34_Node000010_Node000029" class="edge">
<title>Node10&#45;&gt;Node29</title>
<g id="a_edge34_Node000010_Node000029"><a xlink:title=" ">
<path fill="none" stroke="#63b8ff" d="M1625.49,-199.18C1669.58,-188.65 1728.93,-174.47 1773.11,-163.91"/>
<polygon fill="#63b8ff" stroke="#63b8ff" points="1624.72,-195.77 1615.81,-201.49 1626.35,-202.57 1624.72,-195.77"/>
</a>
</g>
</g>
<!-- Node10&#45;&gt;Node30 -->
<g id="edge35_Node000010_Node000030" class="edge">
<title>Node10&#45;&gt;Node30</title>
<g id="a_edge35_Node000010_Node000030"><a xlink:title=" ">
<path fill="none" stroke="#63b8ff" d="M1625.74,-212.78C1856.88,-208.91 2676.34,-193.36 2935.5,-163.5 2946.02,-162.29 2957.29,-160.39 2967.75,-158.37"/>
<polygon fill="#63b8ff" stroke="#63b8ff" points="1625.99,-209.27 1616.05,-212.94 1626.11,-216.27 1625.99,-209.27"/>
</a>
</g>
</g>
<!-- Node31 -->
<g id="Node000031" class="node">
<title>Node31</title>
<g id="a_Node000031"><a xlink:href="_l_l_z_k_validation_passes_8cpp.html" target="_top" xlink:title="This file contains the implementation for the &#45;llzk&#45;validate&#45;field&#45;writes pass.">
<polygon fill="white" stroke="#666666" points="2076.38,-163.5 1936.62,-163.5 1936.62,-133 2076.38,-133 2076.38,-163.5"/>
<text text-anchor="start" x="1944.62" y="-150" font-family="Helvetica,sans-Serif" font-size="10.00">lib/Validators/LLZKValidation</text>
<text text-anchor="middle" x="2006.5" y="-138.75" font-family="Helvetica,sans-Serif" font-size="10.00">Passes.cpp</text>
</a>
</g>
</g>
<!-- Node10&#45;&gt;Node31 -->
<g id="edge36_Node000010_Node000031" class="edge">
<title>Node10&#45;&gt;Node31</title>
<g id="a_edge36_Node000010_Node000031"><a xlink:title=" ">
<path fill="none" stroke="#63b8ff" d="M1625.65,-206.06C1697.89,-196.8 1821.64,-180.37 1927.5,-163.5 1930.39,-163.04 1933.34,-162.56 1936.31,-162.06"/>
<polygon fill="#63b8ff" stroke="#63b8ff" points="1625.48,-202.55 1616.01,-207.29 1626.37,-209.5 1625.48,-202.55"/>
</a>
</g>
</g>
<!-- Node11&#45;&gt;Node12 -->
<g id="edge12_Node000011_Node000012" class="edge">
<title>Node11&#45;&gt;Node12</title>
<g id="a_edge12_Node000011_Node000012"><a xlink:title=" ">
<path fill="none" stroke="#63b8ff" d="M882.71,-126.07C899.31,-114.43 919.03,-100.61 931.65,-91.76"/>
<polygon fill="#63b8ff" stroke="#63b8ff" points="880.79,-123.14 874.62,-131.75 884.81,-128.87 880.79,-123.14"/>
</a>
</g>
</g>
<!-- Node11&#45;&gt;Node13 -->
<g id="edge13_Node000011_Node000013" class="edge">
<title>Node11&#45;&gt;Node13</title>
<g id="a_edge13_Node000011_Node000013"><a xlink:title=" ">
<path fill="none" stroke="#63b8ff" d="M919.56,-131.69C973.24,-119.24 1046.69,-102.2 1091.24,-91.86"/>
<polygon fill="#63b8ff" stroke="#63b8ff" points="918.85,-128.26 909.9,-133.93 920.43,-135.08 918.85,-128.26"/>
</a>
</g>
</g>
<!-- Node11&#45;&gt;Node14 -->
<g id="edge14_Node000011_Node000014" class="edge">
<title>Node11&#45;&gt;Node14</title>
<g id="a_edge14_Node000011_Node000014"><a xlink:title=" ">
<path fill="none" stroke="#63b8ff" d="M823.6,-126.07C810.76,-116.66 795.96,-105.81 784.39,-97.33"/>
<polygon fill="#63b8ff" stroke="#63b8ff" points="821.18,-128.63 831.31,-131.72 825.31,-122.98 821.18,-128.63"/>
</a>
</g>
</g>
<!-- Node15&#45;&gt;Node16 -->
<g id="edge17_Node000015_Node000016" class="edge">
<title>Node15&#45;&gt;Node16</title>
<g id="a_edge17_Node000015_Node000016"><a xlink:title=" ">
<path fill="none" stroke="#63b8ff" d="M2204,-132.68C2344,-107.77 2498.69,-92.93 2574.61,-86.48"/>
<polygon fill="#63b8ff" stroke="#63b8ff" points="2203.8,-129.16 2194.58,-134.38 2205.04,-136.05 2203.8,-129.16"/>
</a>
</g>
</g>
</g>
</svg>
