<?xml version="1.0" encoding="UTF-8" standalone="no"?>
<!DOCTYPE svg PUBLIC "-//W3C//DTD SVG 1.1//EN"
 "http://www.w3.org/Graphics/SVG/1.1/DTD/svg11.dtd">
<!-- Generated by graphviz version 12.2.1 (20241206.2353)
 -->
<!-- Title: include/llzk/Util/SymbolHelper.h Pages: 1 -->
<svg width="601pt" height="149pt"
 viewBox="0.00 0.00 601.25 149.00" xmlns="http://www.w3.org/2000/svg" xmlns:xlink="http://www.w3.org/1999/xlink">
<g id="graph0" class="graph" transform="scale(1 1) rotate(0) translate(4 145)">
<title>include/llzk/Util/SymbolHelper.h</title>
<!-- Node1 -->
<g id="Node000001" class="node">
<title>Node1</title>
<g id="a_Node000001"><a xlink:title=" ">
<polygon fill="#999999" stroke="#666666" points="514,-141 395.25,-141 395.25,-110.5 514,-110.5 514,-141"/>
<text text-anchor="start" x="403.25" y="-127.5" font-family="Helvetica,sans-Serif" font-size="10.00">include/llzk/Util/Symbol</text>
<text text-anchor="middle" x="454.62" y="-116.25" font-family="Helvetica,sans-Serif" font-size="10.00">Helper.h</text>
</a>
</g>
</g>
<!-- Node2 -->
<g id="Node000002" class="node">
<title>Node2</title>
<g id="a_Node000002"><a xlink:href="_symbol_lookup_8h.html" target="_top" xlink:title="This file defines methods symbol lookup across LLZK operations and included files.">
<polygon fill="white" stroke="#666666" points="361,-74.5 236.25,-74.5 236.25,-55.25 361,-55.25 361,-74.5"/>
<text text-anchor="middle" x="298.62" y="-61" font-family="Helvetica,sans-Serif" font-size="10.00">llzk/Util/SymbolLookup.h</text>
</a>
</g>
</g>
<!-- Node1&#45;&gt;Node2 -->
<g id="edge1_Node000001_Node000002" class="edge">
<title>Node1&#45;&gt;Node2</title>
<g id="a_edge1_Node000001_Node000002"><a xlink:title=" ">
<path fill="none" stroke="#63b8ff" d="M415.66,-110.05C390.31,-100.48 357.53,-88.11 333.12,-78.89"/>
<polygon fill="#63b8ff" stroke="#63b8ff" points="334.56,-75.69 323.97,-75.44 332.09,-82.24 334.56,-75.69"/>
</a>
</g>
</g>
<!-- Node8 -->
<g id="Node000008" class="node">
<title>Node8</title>
<g id="a_Node000008"><a xlink:title=" ">
<polygon fill="#e0e0e0" stroke="#999999" points="529.75,-74.5 379.5,-74.5 379.5,-55.25 529.75,-55.25 529.75,-74.5"/>
<text text-anchor="middle" x="454.62" y="-61" font-family="Helvetica,sans-Serif" font-size="10.00">mlir/Interfaces/CallInterfaces.h</text>
</a>
</g>
</g>
<!-- Node1&#45;&gt;Node8 -->
<g id="edge7_Node000001_Node000008" class="edge">
<title>Node1&#45;&gt;Node8</title>
<g id="a_edge7_Node000001_Node000008"><a xlink:title=" ">
<path fill="none" stroke="#63b8ff" d="M454.62,-110.2C454.62,-102.96 454.62,-94.09 454.62,-86.19"/>
<polygon fill="#63b8ff" stroke="#63b8ff" points="458.13,-86.46 454.63,-76.46 451.13,-86.46 458.13,-86.46"/>
</a>
</g>
</g>
<!-- Node9 -->
<g id="Node000009" class="node">
<title>Node9</title>
<g id="a_Node000009"><a xlink:title=" ">
<polygon fill="#e0e0e0" stroke="#999999" points="593.25,-74.5 548,-74.5 548,-55.25 593.25,-55.25 593.25,-74.5"/>
<text text-anchor="middle" x="570.62" y="-61" font-family="Helvetica,sans-Serif" font-size="10.00">ranges</text>
</a>
</g>
</g>
<!-- Node1&#45;&gt;Node9 -->
<g id="edge8_Node000001_Node000009" class="edge">
<title>Node1&#45;&gt;Node9</title>
<g id="a_edge8_Node000001_Node000009"><a xlink:title=" ">
<path fill="none" stroke="#63b8ff" d="M483.6,-110.05C501.69,-100.86 524.85,-89.11 542.74,-80.03"/>
<polygon fill="#63b8ff" stroke="#63b8ff" points="544.15,-83.24 551.49,-75.59 540.98,-76.99 544.15,-83.24"/>
</a>
</g>
</g>
<!-- Node3 -->
<g id="Node000003" class="node">
<title>Node3</title>
<g id="a_Node000003"><a xlink:href="_constants_8h.html" target="_top" xlink:title=" ">
<polygon fill="white" stroke="#666666" points="105.25,-19.25 0,-19.25 0,0 105.25,0 105.25,-19.25"/>
<text text-anchor="middle" x="52.62" y="-5.75" font-family="Helvetica,sans-Serif" font-size="10.00">llzk/Util/Constants.h</text>
</a>
</g>
</g>
<!-- Node2&#45;&gt;Node3 -->
<g id="edge2_Node000002_Node000003" class="edge">
<title>Node2&#45;&gt;Node3</title>
<g id="a_edge2_Node000002_Node000003"><a xlink:title=" ">
<path fill="none" stroke="#63b8ff" d="M256.62,-54.78C214.87,-45.74 150.71,-31.86 105.52,-22.07"/>
<polygon fill="#63b8ff" stroke="#63b8ff" points="106.45,-18.7 95.94,-20 104.97,-25.54 106.45,-18.7"/>
</a>
</g>
</g>
<!-- Node4 -->
<g id="Node000004" class="node">
<title>Node4</title>
<g id="a_Node000004"><a xlink:title=" ">
<polygon fill="#e0e0e0" stroke="#999999" points="221.88,-19.25 123.38,-19.25 123.38,0 221.88,0 221.88,-19.25"/>
<text text-anchor="middle" x="172.62" y="-5.75" font-family="Helvetica,sans-Serif" font-size="10.00">mlir/IR/Operation.h</text>
</a>
</g>
</g>
<!-- Node2&#45;&gt;Node4 -->
<g id="edge3_Node000002_Node000004" class="edge">
<title>Node2&#45;&gt;Node4</title>
<g id="a_edge3_Node000002_Node000004"><a xlink:title=" ">
<path fill="none" stroke="#63b8ff" d="M277.25,-54.84C257.34,-46.43 227.39,-33.77 204.62,-24.15"/>
<polygon fill="#63b8ff" stroke="#63b8ff" points="206.07,-20.96 195.5,-20.29 203.35,-27.41 206.07,-20.96"/>
</a>
</g>
</g>
<!-- Node5 -->
<g id="Node000005" class="node">
<title>Node5</title>
<g id="a_Node000005"><a xlink:title=" ">
<polygon fill="#e0e0e0" stroke="#999999" points="357.62,-19.25 239.62,-19.25 239.62,0 357.62,0 357.62,-19.25"/>
<text text-anchor="middle" x="298.62" y="-5.75" font-family="Helvetica,sans-Serif" font-size="10.00">mlir/IR/OwningOpRef.h</text>
</a>
</g>
</g>
<!-- Node2&#45;&gt;Node5 -->
<g id="edge4_Node000002_Node000005" class="edge">
<title>Node2&#45;&gt;Node5</title>
<g id="a_edge4_Node000002_Node000005"><a xlink:title=" ">
<path fill="none" stroke="#63b8ff" d="M298.62,-55.08C298.62,-48.57 298.62,-39.42 298.62,-31.12"/>
<polygon fill="#63b8ff" stroke="#63b8ff" points="302.13,-31.12 298.63,-21.12 295.13,-31.12 302.13,-31.12"/>
</a>
</g>
</g>
<!-- Node6 -->
<g id="Node000006" class="node">
<title>Node6</title>
<g id="a_Node000006"><a xlink:title=" ">
<polygon fill="#e0e0e0" stroke="#999999" points="485.5,-19.25 375.75,-19.25 375.75,0 485.5,0 485.5,-19.25"/>
<text text-anchor="middle" x="430.62" y="-5.75" font-family="Helvetica,sans-Serif" font-size="10.00">llvm/ADT/StringRef.h</text>
</a>
</g>
</g>
<!-- Node2&#45;&gt;Node6 -->
<g id="edge5_Node000002_Node000006" class="edge">
<title>Node2&#45;&gt;Node6</title>
<g id="a_edge5_Node000002_Node000006"><a xlink:title=" ">
<path fill="none" stroke="#63b8ff" d="M321.02,-54.84C342.07,-46.35 373.83,-33.54 397.75,-23.89"/>
<polygon fill="#63b8ff" stroke="#63b8ff" points="398.76,-27.26 406.72,-20.27 396.14,-20.76 398.76,-27.26"/>
</a>
</g>
</g>
<!-- Node7 -->
<g id="Node000007" class="node">
<title>Node7</title>
<g id="a_Node000007"><a xlink:title=" ">
<polygon fill="#e0e0e0" stroke="#999999" points="546.12,-19.25 503.12,-19.25 503.12,0 546.12,0 546.12,-19.25"/>
<text text-anchor="middle" x="524.62" y="-5.75" font-family="Helvetica,sans-Serif" font-size="10.00">vector</text>
</a>
</g>
</g>
<!-- Node2&#45;&gt;Node7 -->
<g id="edge6_Node000002_Node000007" class="edge">
<title>Node2&#45;&gt;Node7</title>
<g id="a_edge6_Node000002_Node000007"><a xlink:title=" ">
<path fill="none" stroke="#63b8ff" d="M341.61,-54.81C379.03,-46.77 434.95,-34.35 491.73,-19.9"/>
<polygon fill="#63b8ff" stroke="#63b8ff" points="492.43,-23.33 501.24,-17.46 490.69,-16.55 492.43,-23.33"/>
</a>
</g>
</g>
</g>
</svg>
