<?xml version="1.0" encoding="UTF-8" standalone="no"?>
<!DOCTYPE svg PUBLIC "-//W3C//DTD SVG 1.1//EN"
 "http://www.w3.org/Graphics/SVG/1.1/DTD/svg11.dtd">
<!-- Generated by graphviz version 12.2.1 (20241206.2353)
 -->
<!-- Title: lib/Util/TypeHelper.cpp Pages: 1 -->
<svg width="2888pt" height="282pt"
 viewBox="0.00 0.00 2888.12 282.00" xmlns="http://www.w3.org/2000/svg" xmlns:xlink="http://www.w3.org/1999/xlink">
<g id="graph0" class="graph" transform="scale(1 1) rotate(0) translate(4 278)">
<title>lib/Util/TypeHelper.cpp</title>
<!-- Node1 -->
<g id="Node000001" class="node">
<title>Node1</title>
<g id="a_Node000001"><a xlink:title=" ">
<polygon fill="#999999" stroke="#666666" points="1605.62,-274 1491.38,-274 1491.38,-254.75 1605.62,-254.75 1605.62,-274"/>
<text text-anchor="middle" x="1548.5" y="-260.5" font-family="Helvetica,sans-Serif" font-size="10.00">lib/Util/TypeHelper.cpp</text>
</a>
</g>
</g>
<!-- Node2 -->
<g id="Node000002" class="node">
<title>Node2</title>
<g id="a_Node000002"><a xlink:href="_array_2_i_r_2_types_8h.html" target="_top" xlink:title=" ">
<polygon fill="white" stroke="#666666" points="374,-218.75 283,-218.75 283,-188.25 374,-188.25 374,-218.75"/>
<text text-anchor="start" x="291" y="-205.25" font-family="Helvetica,sans-Serif" font-size="10.00">llzk/Dialect/Array</text>
<text text-anchor="middle" x="328.5" y="-194" font-family="Helvetica,sans-Serif" font-size="10.00">/IR/Types.h</text>
</a>
</g>
</g>
<!-- Node1&#45;&gt;Node2 -->
<g id="edge1_Node000001_Node000002" class="edge">
<title>Node1&#45;&gt;Node2</title>
<g id="a_edge1_Node000001_Node000002"><a xlink:title=" ">
<path fill="none" stroke="#63b8ff" d="M1490.89,-260.59C1285.52,-250.68 590.65,-217.15 385.79,-207.26"/>
<polygon fill="#63b8ff" stroke="#63b8ff" points="386.09,-203.78 375.93,-206.79 385.75,-210.77 386.09,-203.78"/>
</a>
</g>
</g>
<!-- Node13 -->
<g id="Node000013" class="node">
<title>Node13</title>
<g id="a_Node000013"><a xlink:href="_felt_2_i_r_2_types_8h.html" target="_top" xlink:title=" ">
<polygon fill="white" stroke="#666666" points="788.38,-218.75 690.62,-218.75 690.62,-188.25 788.38,-188.25 788.38,-218.75"/>
<text text-anchor="start" x="698.62" y="-205.25" font-family="Helvetica,sans-Serif" font-size="10.00">llzk/Dialect/Felt/IR</text>
<text text-anchor="middle" x="739.5" y="-194" font-family="Helvetica,sans-Serif" font-size="10.00">/Types.h</text>
</a>
</g>
</g>
<!-- Node1&#45;&gt;Node13 -->
<g id="edge12_Node000001_Node000013" class="edge">
<title>Node1&#45;&gt;Node13</title>
<g id="a_edge12_Node000001_Node000013"><a xlink:title=" ">
<path fill="none" stroke="#63b8ff" d="M1490.97,-259.19C1343.12,-248.43 950.92,-219.89 799.93,-208.9"/>
<polygon fill="#63b8ff" stroke="#63b8ff" points="800.37,-205.42 790.14,-208.19 799.86,-212.4 800.37,-205.42"/>
</a>
</g>
</g>
<!-- Node18 -->
<g id="Node000018" class="node">
<title>Node18</title>
<g id="a_Node000018"><a xlink:href="_attribute_helper_8h.html" target="_top" xlink:title=" ">
<polygon fill="white" stroke="#666666" points="1135.75,-218.75 1031.25,-218.75 1031.25,-188.25 1135.75,-188.25 1135.75,-218.75"/>
<text text-anchor="start" x="1039.25" y="-205.25" font-family="Helvetica,sans-Serif" font-size="10.00">llzk/Dialect/LLZK/IR</text>
<text text-anchor="middle" x="1083.5" y="-194" font-family="Helvetica,sans-Serif" font-size="10.00">/AttributeHelper.h</text>
</a>
</g>
</g>
<!-- Node1&#45;&gt;Node18 -->
<g id="edge18_Node000001_Node000018" class="edge">
<title>Node1&#45;&gt;Node18</title>
<g id="a_edge18_Node000001_Node000018"><a xlink:title=" ">
<path fill="none" stroke="#63b8ff" d="M1491.02,-256.1C1403.75,-245.05 1238.4,-224.11 1147.45,-212.6"/>
<polygon fill="#63b8ff" stroke="#63b8ff" points="1148.06,-209.15 1137.7,-211.36 1147.18,-216.09 1148.06,-209.15"/>
</a>
</g>
</g>
<!-- Node21 -->
<g id="Node000021" class="node">
<title>Node21</title>
<g id="a_Node000021"><a xlink:href="_polymorphic_2_i_r_2_types_8h.html" target="_top" xlink:title=" ">
<polygon fill="white" stroke="#666666" points="1476.38,-218.75 1354.62,-218.75 1354.62,-188.25 1476.38,-188.25 1476.38,-218.75"/>
<text text-anchor="start" x="1362.62" y="-205.25" font-family="Helvetica,sans-Serif" font-size="10.00">llzk/Dialect/Polymorphic</text>
<text text-anchor="middle" x="1415.5" y="-194" font-family="Helvetica,sans-Serif" font-size="10.00">/IR/Types.h</text>
</a>
</g>
</g>
<!-- Node1&#45;&gt;Node21 -->
<g id="edge21_Node000001_Node000021" class="edge">
<title>Node1&#45;&gt;Node21</title>
<g id="a_edge21_Node000001_Node000021"><a xlink:title=" ">
<path fill="none" stroke="#63b8ff" d="M1528.01,-254.3C1509.69,-246.19 1482.22,-234.03 1459.01,-223.76"/>
<polygon fill="#63b8ff" stroke="#63b8ff" points="1460.64,-220.65 1450.08,-219.81 1457.81,-227.06 1460.64,-220.65"/>
</a>
</g>
</g>
<!-- Node26 -->
<g id="Node000026" class="node">
<title>Node26</title>
<g id="a_Node000026"><a xlink:href="_string_2_i_r_2_types_8h.html" target="_top" xlink:title=" ">
<polygon fill="white" stroke="#666666" points="1717.12,-218.75 1623.88,-218.75 1623.88,-188.25 1717.12,-188.25 1717.12,-218.75"/>
<text text-anchor="start" x="1631.88" y="-205.25" font-family="Helvetica,sans-Serif" font-size="10.00">llzk/Dialect/String</text>
<text text-anchor="middle" x="1670.5" y="-194" font-family="Helvetica,sans-Serif" font-size="10.00">/IR/Types.h</text>
</a>
</g>
</g>
<!-- Node1&#45;&gt;Node26 -->
<g id="edge27_Node000001_Node000026" class="edge">
<title>Node1&#45;&gt;Node26</title>
<g id="a_edge27_Node000001_Node000026"><a xlink:title=" ">
<path fill="none" stroke="#63b8ff" d="M1567.3,-254.3C1583.88,-246.3 1608.62,-234.36 1629.72,-224.18"/>
<polygon fill="#63b8ff" stroke="#63b8ff" points="1631.2,-227.35 1638.69,-219.85 1628.16,-221.05 1631.2,-227.35"/>
</a>
</g>
</g>
<!-- Node31 -->
<g id="Node000031" class="node">
<title>Node31</title>
<g id="a_Node000031"><a xlink:href="_struct_2_i_r_2_types_8h.html" target="_top" xlink:title=" ">
<polygon fill="white" stroke="#666666" points="2168.5,-218.75 2074.5,-218.75 2074.5,-188.25 2168.5,-188.25 2168.5,-218.75"/>
<text text-anchor="start" x="2082.5" y="-205.25" font-family="Helvetica,sans-Serif" font-size="10.00">llzk/Dialect/Struct</text>
<text text-anchor="middle" x="2121.5" y="-194" font-family="Helvetica,sans-Serif" font-size="10.00">/IR/Types.h</text>
</a>
</g>
</g>
<!-- Node1&#45;&gt;Node31 -->
<g id="edge33_Node000001_Node000031" class="edge">
<title>Node1&#45;&gt;Node31</title>
<g id="a_edge33_Node000001_Node000031"><a xlink:title=" ">
<path fill="none" stroke="#63b8ff" d="M1606.06,-257.46C1715.57,-246.21 1952.75,-221.84 2062.99,-210.51"/>
<polygon fill="#63b8ff" stroke="#63b8ff" points="2063.11,-214.02 2072.7,-209.51 2062.39,-207.06 2063.11,-214.02"/>
</a>
</g>
</g>
<!-- Node47 -->
<g id="Node000047" class="node">
<title>Node47</title>
<g id="a_Node000047"><a xlink:href="_stream_helper_8h.html" target="_top" xlink:title=" ">
<polygon fill="white" stroke="#666666" points="2371.25,-213.12 2251.75,-213.12 2251.75,-193.88 2371.25,-193.88 2371.25,-213.12"/>
<text text-anchor="middle" x="2311.5" y="-199.62" font-family="Helvetica,sans-Serif" font-size="10.00">llzk/Util/StreamHelper.h</text>
</a>
</g>
</g>
<!-- Node1&#45;&gt;Node47 -->
<g id="edge52_Node000001_Node000047" class="edge">
<title>Node1&#45;&gt;Node47</title>
<g id="a_edge52_Node000001_Node000047"><a xlink:title=" ">
<path fill="none" stroke="#63b8ff" d="M1605.79,-259.99C1716.4,-253.29 1967.04,-237.4 2177.5,-218.75 2197.85,-216.95 2219.92,-214.71 2240.16,-212.56"/>
<polygon fill="#63b8ff" stroke="#63b8ff" points="2240.44,-216.05 2250,-211.5 2239.69,-209.09 2240.44,-216.05"/>
</a>
</g>
</g>
<!-- Node49 -->
<g id="Node000049" class="node">
<title>Node49</title>
<g id="a_Node000049"><a xlink:href="_symbol_helper_8h.html" target="_top" xlink:title=" ">
<polygon fill="white" stroke="#666666" points="2724,-213.12 2603,-213.12 2603,-193.88 2724,-193.88 2724,-213.12"/>
<text text-anchor="middle" x="2663.5" y="-199.62" font-family="Helvetica,sans-Serif" font-size="10.00">llzk/Util/SymbolHelper.h</text>
</a>
</g>
</g>
<!-- Node1&#45;&gt;Node49 -->
<g id="edge54_Node000001_Node000049" class="edge">
<title>Node1&#45;&gt;Node49</title>
<g id="a_edge54_Node000001_Node000049"><a xlink:title=" ">
<path fill="none" stroke="#63b8ff" d="M1606.1,-260.33C1793.31,-250.45 2384.42,-219.24 2591.21,-208.32"/>
<polygon fill="#63b8ff" stroke="#63b8ff" points="2591.21,-211.82 2601.01,-207.8 2590.84,-204.83 2591.21,-211.82"/>
</a>
</g>
</g>
<!-- Node3 -->
<g id="Node000003" class="node">
<title>Node3</title>
<g id="a_Node000003"><a xlink:href="_array_2_i_r_2_dialect_8h.html" target="_top" xlink:title=" ">
<polygon fill="white" stroke="#666666" points="309,-152.25 218,-152.25 218,-121.75 309,-121.75 309,-152.25"/>
<text text-anchor="start" x="226" y="-138.75" font-family="Helvetica,sans-Serif" font-size="10.00">llzk/Dialect/Array</text>
<text text-anchor="middle" x="263.5" y="-127.5" font-family="Helvetica,sans-Serif" font-size="10.00">/IR/Dialect.h</text>
</a>
</g>
</g>
<!-- Node2&#45;&gt;Node3 -->
<g id="edge2_Node000002_Node000003" class="edge">
<title>Node2&#45;&gt;Node3</title>
<g id="a_edge2_Node000002_Node000003"><a xlink:title=" ">
<path fill="none" stroke="#63b8ff" d="M313.75,-187.86C305.61,-179.78 295.32,-169.57 286.17,-160.5"/>
<polygon fill="#63b8ff" stroke="#63b8ff" points="288.83,-158.2 279.27,-153.64 283.9,-163.17 288.83,-158.2"/>
</a>
</g>
</g>
<!-- Node6 -->
<g id="Node000006" class="node">
<title>Node6</title>
<g id="a_Node000006"><a xlink:href="_error_helper_8h.html" target="_top" xlink:title=" ">
<polygon fill="white" stroke="#666666" points="1768,-80.12 1659,-80.12 1659,-60.88 1768,-60.88 1768,-80.12"/>
<text text-anchor="middle" x="1713.5" y="-66.62" font-family="Helvetica,sans-Serif" font-size="10.00">llzk/Util/ErrorHelper.h</text>
</a>
</g>
</g>
<!-- Node2&#45;&gt;Node6 -->
<g id="edge5_Node000002_Node000006" class="edge">
<title>Node2&#45;&gt;Node6</title>
<g id="a_edge5_Node000002_Node000006"><a xlink:title=" ">
<path fill="none" stroke="#63b8ff" d="M374.17,-200.17C427.19,-196.01 516.23,-184.42 585.5,-152.25 605.14,-143.13 603.2,-129.29 623.5,-121.75 730.53,-81.99 1537.26,-100.41 1650.5,-85.75 1656.12,-85.02 1661.99,-84.03 1667.77,-82.89"/>
<polygon fill="#63b8ff" stroke="#63b8ff" points="1668.17,-86.39 1677.24,-80.9 1666.73,-79.54 1668.17,-86.39"/>
</a>
</g>
</g>
<!-- Node10 -->
<g id="Node000010" class="node">
<title>Node10</title>
<g id="a_Node000010"><a xlink:title=" ">
<polygon fill="#e0e0e0" stroke="#999999" points="460.38,-152.25 326.62,-152.25 326.62,-121.75 460.38,-121.75 460.38,-152.25"/>
<text text-anchor="start" x="334.62" y="-138.75" font-family="Helvetica,sans-Serif" font-size="10.00">mlir/Interfaces/MemorySlot</text>
<text text-anchor="middle" x="393.5" y="-127.5" font-family="Helvetica,sans-Serif" font-size="10.00">Interfaces.h</text>
</a>
</g>
</g>
<!-- Node2&#45;&gt;Node10 -->
<g id="edge9_Node000002_Node000010" class="edge">
<title>Node2&#45;&gt;Node10</title>
<g id="a_edge9_Node000002_Node000010"><a xlink:title=" ">
<path fill="none" stroke="#63b8ff" d="M343.25,-187.86C351.39,-179.78 361.68,-169.57 370.83,-160.5"/>
<polygon fill="#63b8ff" stroke="#63b8ff" points="373.1,-163.17 377.73,-153.64 368.17,-158.2 373.1,-163.17"/>
</a>
</g>
</g>
<!-- Node11 -->
<g id="Node000011" class="node">
<title>Node11</title>
<g id="a_Node000011"><a xlink:href="_array_2_i_r_2_ops_8h_8inc.html" target="_top" xlink:title=" ">
<polygon fill="white" stroke="#666666" points="91,-152.25 0,-152.25 0,-121.75 91,-121.75 91,-152.25"/>
<text text-anchor="start" x="8" y="-138.75" font-family="Helvetica,sans-Serif" font-size="10.00">llzk/Dialect/Array</text>
<text text-anchor="middle" x="45.5" y="-127.5" font-family="Helvetica,sans-Serif" font-size="10.00">/IR/Ops.h.inc</text>
</a>
</g>
</g>
<!-- Node2&#45;&gt;Node11 -->
<g id="edge10_Node000002_Node000011" class="edge">
<title>Node2&#45;&gt;Node11</title>
<g id="a_edge10_Node000002_Node000011"><a xlink:title=" ">
<path fill="none" stroke="#63b8ff" d="M282.75,-193.05C238.78,-183.84 170.21,-169.13 102.31,-152.88"/>
<polygon fill="#63b8ff" stroke="#63b8ff" points="103.44,-149.55 92.9,-150.61 101.8,-156.36 103.44,-149.55"/>
</a>
</g>
</g>
<!-- Node12 -->
<g id="Node000012" class="node">
<title>Node12</title>
<g id="a_Node000012"><a xlink:href="_array_2_i_r_2_types_8h_8inc.html" target="_top" xlink:title=" ">
<polygon fill="white" stroke="#666666" points="200,-152.25 109,-152.25 109,-121.75 200,-121.75 200,-152.25"/>
<text text-anchor="start" x="117" y="-138.75" font-family="Helvetica,sans-Serif" font-size="10.00">llzk/Dialect/Array</text>
<text text-anchor="middle" x="154.5" y="-127.5" font-family="Helvetica,sans-Serif" font-size="10.00">/IR/Types.h.inc</text>
</a>
</g>
</g>
<!-- Node2&#45;&gt;Node12 -->
<g id="edge11_Node000002_Node000012" class="edge">
<title>Node2&#45;&gt;Node12</title>
<g id="a_edge11_Node000002_Node000012"><a xlink:title=" ">
<path fill="none" stroke="#63b8ff" d="M289.02,-187.86C264.08,-178.62 231.62,-166.59 204.84,-156.66"/>
<polygon fill="#63b8ff" stroke="#63b8ff" points="206.14,-153.41 195.55,-153.22 203.71,-159.97 206.14,-153.41"/>
</a>
</g>
</g>
<!-- Node4 -->
<g id="Node000004" class="node">
<title>Node4</title>
<g id="a_Node000004"><a xlink:title=" ">
<polygon fill="#e0e0e0" stroke="#999999" points="1195.25,-80.12 1093.75,-80.12 1093.75,-60.88 1195.25,-60.88 1195.25,-80.12"/>
<text text-anchor="middle" x="1144.5" y="-66.62" font-family="Helvetica,sans-Serif" font-size="10.00">mlir/IR/BuiltinOps.h</text>
</a>
</g>
</g>
<!-- Node3&#45;&gt;Node4 -->
<g id="edge3_Node000003_Node000004" class="edge">
<title>Node3&#45;&gt;Node4</title>
<g id="a_edge3_Node000003_Node000004"><a xlink:title=" ">
<path fill="none" stroke="#63b8ff" d="M309.32,-123.25C312.08,-122.69 314.82,-122.18 317.5,-121.75 600.33,-76.3 943.6,-71.15 1082.11,-71.11"/>
<polygon fill="#63b8ff" stroke="#63b8ff" points="1081.78,-74.61 1091.79,-71.12 1081.79,-67.61 1081.78,-74.61"/>
</a>
</g>
</g>
<!-- Node5 -->
<g id="Node000005" class="node">
<title>Node5</title>
<g id="a_Node000005"><a xlink:href="_array_2_i_r_2_dialect_8h_8inc.html" target="_top" xlink:title=" ">
<polygon fill="white" stroke="#666666" points="309,-85.75 218,-85.75 218,-55.25 309,-55.25 309,-85.75"/>
<text text-anchor="start" x="226" y="-72.25" font-family="Helvetica,sans-Serif" font-size="10.00">llzk/Dialect/Array</text>
<text text-anchor="middle" x="263.5" y="-61" font-family="Helvetica,sans-Serif" font-size="10.00">/IR/Dialect.h.inc</text>
</a>
</g>
</g>
<!-- Node3&#45;&gt;Node5 -->
<g id="edge4_Node000003_Node000005" class="edge">
<title>Node3&#45;&gt;Node5</title>
<g id="a_edge4_Node000003_Node000005"><a xlink:title=" ">
<path fill="none" stroke="#63b8ff" d="M263.5,-121.36C263.5,-114.27 263.5,-105.54 263.5,-97.38"/>
<polygon fill="#63b8ff" stroke="#63b8ff" points="267,-97.59 263.5,-87.59 260,-97.59 267,-97.59"/>
</a>
</g>
</g>
<!-- Node7 -->
<g id="Node000007" class="node">
<title>Node7</title>
<g id="a_Node000007"><a xlink:title=" ">
<polygon fill="#e0e0e0" stroke="#999999" points="1648.5,-19.25 1488.5,-19.25 1488.5,0 1648.5,0 1648.5,-19.25"/>
<text text-anchor="middle" x="1568.5" y="-5.75" font-family="Helvetica,sans-Serif" font-size="10.00">llvm/ADT/STLFunctionalExtras.h</text>
</a>
</g>
</g>
<!-- Node6&#45;&gt;Node7 -->
<g id="edge6_Node000006_Node000007" class="edge">
<title>Node6&#45;&gt;Node7</title>
<g id="a_edge6_Node000006_Node000007"><a xlink:title=" ">
<path fill="none" stroke="#63b8ff" d="M1691.16,-60.43C1667.14,-50.68 1628.72,-35.08 1601.28,-23.93"/>
<polygon fill="#63b8ff" stroke="#63b8ff" points="1602.61,-20.7 1592.03,-20.18 1599.98,-27.18 1602.61,-20.7"/>
</a>
</g>
</g>
<!-- Node8 -->
<g id="Node000008" class="node">
<title>Node8</title>
<g id="a_Node000008"><a xlink:title=" ">
<polygon fill="#e0e0e0" stroke="#999999" points="1760.5,-19.25 1666.5,-19.25 1666.5,0 1760.5,0 1760.5,-19.25"/>
<text text-anchor="middle" x="1713.5" y="-5.75" font-family="Helvetica,sans-Serif" font-size="10.00">llvm/ADT/Twine.h</text>
</a>
</g>
</g>
<!-- Node6&#45;&gt;Node8 -->
<g id="edge7_Node000006_Node000008" class="edge">
<title>Node6&#45;&gt;Node8</title>
<g id="a_edge7_Node000006_Node000008"><a xlink:title=" ">
<path fill="none" stroke="#63b8ff" d="M1713.5,-60.56C1713.5,-52.78 1713.5,-41.2 1713.5,-31.16"/>
<polygon fill="#63b8ff" stroke="#63b8ff" points="1717,-31.16 1713.5,-21.16 1710,-31.16 1717,-31.16"/>
</a>
</g>
</g>
<!-- Node9 -->
<g id="Node000009" class="node">
<title>Node9</title>
<g id="a_Node000009"><a xlink:title=" ">
<polygon fill="#e0e0e0" stroke="#999999" points="1920.12,-19.25 1778.88,-19.25 1778.88,0 1920.12,0 1920.12,-19.25"/>
<text text-anchor="middle" x="1849.5" y="-5.75" font-family="Helvetica,sans-Serif" font-size="10.00">llvm/Support/ErrorHandling.h</text>
</a>
</g>
</g>
<!-- Node6&#45;&gt;Node9 -->
<g id="edge8_Node000006_Node000009" class="edge">
<title>Node6&#45;&gt;Node9</title>
<g id="a_edge8_Node000006_Node000009"><a xlink:title=" ">
<path fill="none" stroke="#63b8ff" d="M1734.45,-60.43C1756.88,-50.72 1792.7,-35.21 1818.41,-24.08"/>
<polygon fill="#63b8ff" stroke="#63b8ff" points="1819.57,-27.39 1827.36,-20.21 1816.79,-20.97 1819.57,-27.39"/>
</a>
</g>
</g>
<!-- Node14 -->
<g id="Node000014" class="node">
<title>Node14</title>
<g id="a_Node000014"><a xlink:href="_felt_2_i_r_2_dialect_8h.html" target="_top" xlink:title=" ">
<polygon fill="white" stroke="#666666" points="576.38,-152.25 478.62,-152.25 478.62,-121.75 576.38,-121.75 576.38,-152.25"/>
<text text-anchor="start" x="486.62" y="-138.75" font-family="Helvetica,sans-Serif" font-size="10.00">llzk/Dialect/Felt/IR</text>
<text text-anchor="middle" x="527.5" y="-127.5" font-family="Helvetica,sans-Serif" font-size="10.00">/Dialect.h</text>
</a>
</g>
</g>
<!-- Node13&#45;&gt;Node14 -->
<g id="edge13_Node000013_Node000014" class="edge">
<title>Node13&#45;&gt;Node14</title>
<g id="a_edge13_Node000013_Node000014"><a xlink:title=" ">
<path fill="none" stroke="#63b8ff" d="M691.13,-187.78C660.06,-178.33 619.49,-165.99 586.53,-155.96"/>
<polygon fill="#63b8ff" stroke="#63b8ff" points="587.7,-152.66 577.11,-153.09 585.66,-159.35 587.7,-152.66"/>
</a>
</g>
</g>
<!-- Node16 -->
<g id="Node000016" class="node">
<title>Node16</title>
<g id="a_Node000016"><a xlink:href="_felt_2_i_r_2_ops_8h_8inc.html" target="_top" xlink:title=" ">
<polygon fill="white" stroke="#666666" points="730.38,-152.25 632.62,-152.25 632.62,-121.75 730.38,-121.75 730.38,-152.25"/>
<text text-anchor="start" x="640.62" y="-138.75" font-family="Helvetica,sans-Serif" font-size="10.00">llzk/Dialect/Felt/IR</text>
<text text-anchor="middle" x="681.5" y="-127.5" font-family="Helvetica,sans-Serif" font-size="10.00">/Ops.h.inc</text>
</a>
</g>
</g>
<!-- Node13&#45;&gt;Node16 -->
<g id="edge16_Node000013_Node000016" class="edge">
<title>Node13&#45;&gt;Node16</title>
<g id="a_edge16_Node000013_Node000016"><a xlink:title=" ">
<path fill="none" stroke="#63b8ff" d="M726.34,-187.86C719.22,-179.95 710.26,-169.99 702.23,-161.05"/>
<polygon fill="#63b8ff" stroke="#63b8ff" points="704.91,-158.8 695.62,-153.7 699.7,-163.48 704.91,-158.8"/>
</a>
</g>
</g>
<!-- Node17 -->
<g id="Node000017" class="node">
<title>Node17</title>
<g id="a_Node000017"><a xlink:href="_felt_2_i_r_2_types_8h_8inc.html" target="_top" xlink:title=" ">
<polygon fill="white" stroke="#666666" points="846.38,-152.25 748.62,-152.25 748.62,-121.75 846.38,-121.75 846.38,-152.25"/>
<text text-anchor="start" x="756.62" y="-138.75" font-family="Helvetica,sans-Serif" font-size="10.00">llzk/Dialect/Felt/IR</text>
<text text-anchor="middle" x="797.5" y="-127.5" font-family="Helvetica,sans-Serif" font-size="10.00">/Types.h.inc</text>
</a>
</g>
</g>
<!-- Node13&#45;&gt;Node17 -->
<g id="edge17_Node000013_Node000017" class="edge">
<title>Node13&#45;&gt;Node17</title>
<g id="a_edge17_Node000013_Node000017"><a xlink:title=" ">
<path fill="none" stroke="#63b8ff" d="M752.66,-187.86C759.78,-179.95 768.74,-169.99 776.77,-161.05"/>
<polygon fill="#63b8ff" stroke="#63b8ff" points="779.3,-163.48 783.38,-153.7 774.09,-158.8 779.3,-163.48"/>
</a>
</g>
</g>
<!-- Node14&#45;&gt;Node4 -->
<g id="edge14_Node000014_Node000004" class="edge">
<title>Node14&#45;&gt;Node4</title>
<g id="a_edge14_Node000014_Node000004"><a xlink:title=" ">
<path fill="none" stroke="#63b8ff" d="M576.56,-124.25C581.26,-123.32 585.96,-122.47 590.5,-121.75 767.55,-93.82 979.07,-79.98 1082.02,-74.47"/>
<polygon fill="#63b8ff" stroke="#63b8ff" points="1082.12,-77.97 1091.92,-73.95 1081.75,-70.98 1082.12,-77.97"/>
</a>
</g>
</g>
<!-- Node15 -->
<g id="Node000015" class="node">
<title>Node15</title>
<g id="a_Node000015"><a xlink:href="_felt_2_i_r_2_dialect_8h_8inc.html" target="_top" xlink:title=" ">
<polygon fill="white" stroke="#666666" points="576.38,-85.75 478.62,-85.75 478.62,-55.25 576.38,-55.25 576.38,-85.75"/>
<text text-anchor="start" x="486.62" y="-72.25" font-family="Helvetica,sans-Serif" font-size="10.00">llzk/Dialect/Felt/IR</text>
<text text-anchor="middle" x="527.5" y="-61" font-family="Helvetica,sans-Serif" font-size="10.00">/Dialect.h.inc</text>
</a>
</g>
</g>
<!-- Node14&#45;&gt;Node15 -->
<g id="edge15_Node000014_Node000015" class="edge">
<title>Node14&#45;&gt;Node15</title>
<g id="a_edge15_Node000014_Node000015"><a xlink:title=" ">
<path fill="none" stroke="#63b8ff" d="M527.5,-121.36C527.5,-114.27 527.5,-105.54 527.5,-97.38"/>
<polygon fill="#63b8ff" stroke="#63b8ff" points="531,-97.59 527.5,-87.59 524,-97.59 531,-97.59"/>
</a>
</g>
</g>
<!-- Node19 -->
<g id="Node000019" class="node">
<title>Node19</title>
<g id="a_Node000019"><a xlink:title=" ">
<polygon fill="#e0e0e0" stroke="#999999" points="1018.5,-146.62 864.5,-146.62 864.5,-127.38 1018.5,-127.38 1018.5,-146.62"/>
<text text-anchor="middle" x="941.5" y="-133.12" font-family="Helvetica,sans-Serif" font-size="10.00">mlir/IR/DialectImplementation.h</text>
</a>
</g>
</g>
<!-- Node18&#45;&gt;Node19 -->
<g id="edge19_Node000018_Node000019" class="edge">
<title>Node18&#45;&gt;Node19</title>
<g id="a_edge19_Node000018_Node000019"><a xlink:title=" ">
<path fill="none" stroke="#63b8ff" d="M1051.28,-187.86C1027.4,-177.02 995.09,-162.34 971.7,-151.72"/>
<polygon fill="#63b8ff" stroke="#63b8ff" points="973.27,-148.58 962.71,-147.64 970.37,-154.96 973.27,-148.58"/>
</a>
</g>
</g>
<!-- Node20 -->
<g id="Node000020" class="node">
<title>Node20</title>
<g id="a_Node000020"><a xlink:title=" ">
<polygon fill="#e0e0e0" stroke="#999999" points="1130.12,-146.62 1036.88,-146.62 1036.88,-127.38 1130.12,-127.38 1130.12,-146.62"/>
<text text-anchor="middle" x="1083.5" y="-133.12" font-family="Helvetica,sans-Serif" font-size="10.00">llvm/ADT/APInt.h</text>
</a>
</g>
</g>
<!-- Node18&#45;&gt;Node20 -->
<g id="edge20_Node000018_Node000020" class="edge">
<title>Node18&#45;&gt;Node20</title>
<g id="a_edge20_Node000018_Node000020"><a xlink:title=" ">
<path fill="none" stroke="#63b8ff" d="M1083.5,-187.86C1083.5,-179.08 1083.5,-167.77 1083.5,-158.15"/>
<polygon fill="#63b8ff" stroke="#63b8ff" points="1087,-158.34 1083.5,-148.34 1080,-158.34 1087,-158.34"/>
</a>
</g>
</g>
<!-- Node22 -->
<g id="Node000022" class="node">
<title>Node22</title>
<g id="a_Node000022"><a xlink:href="_polymorphic_2_i_r_2_dialect_8h.html" target="_top" xlink:title=" ">
<polygon fill="white" stroke="#666666" points="1270.38,-152.25 1148.62,-152.25 1148.62,-121.75 1270.38,-121.75 1270.38,-152.25"/>
<text text-anchor="start" x="1156.62" y="-138.75" font-family="Helvetica,sans-Serif" font-size="10.00">llzk/Dialect/Polymorphic</text>
<text text-anchor="middle" x="1209.5" y="-127.5" font-family="Helvetica,sans-Serif" font-size="10.00">/IR/Dialect.h</text>
</a>
</g>
</g>
<!-- Node21&#45;&gt;Node22 -->
<g id="edge22_Node000021_Node000022" class="edge">
<title>Node21&#45;&gt;Node22</title>
<g id="a_edge22_Node000021_Node000022"><a xlink:title=" ">
<path fill="none" stroke="#63b8ff" d="M1368.5,-187.78C1338.44,-178.37 1299.23,-166.1 1267.27,-156.09"/>
<polygon fill="#63b8ff" stroke="#63b8ff" points="1268.33,-152.75 1257.74,-153.11 1266.24,-159.43 1268.33,-152.75"/>
</a>
</g>
</g>
<!-- Node24 -->
<g id="Node000024" class="node">
<title>Node24</title>
<g id="a_Node000024"><a xlink:href="_polymorphic_2_i_r_2_ops_8h_8inc.html" target="_top" xlink:title=" ">
<polygon fill="white" stroke="#666666" points="1410.38,-152.25 1288.62,-152.25 1288.62,-121.75 1410.38,-121.75 1410.38,-152.25"/>
<text text-anchor="start" x="1296.62" y="-138.75" font-family="Helvetica,sans-Serif" font-size="10.00">llzk/Dialect/Polymorphic</text>
<text text-anchor="middle" x="1349.5" y="-127.5" font-family="Helvetica,sans-Serif" font-size="10.00">/IR/Ops.h.inc</text>
</a>
</g>
</g>
<!-- Node21&#45;&gt;Node24 -->
<g id="edge25_Node000021_Node000024" class="edge">
<title>Node21&#45;&gt;Node24</title>
<g id="a_edge25_Node000021_Node000024"><a xlink:title=" ">
<path fill="none" stroke="#63b8ff" d="M1400.52,-187.86C1392.25,-179.78 1381.81,-169.57 1372.52,-160.5"/>
<polygon fill="#63b8ff" stroke="#63b8ff" points="1375.1,-158.12 1365.5,-153.64 1370.21,-163.13 1375.1,-158.12"/>
</a>
</g>
</g>
<!-- Node25 -->
<g id="Node000025" class="node">
<title>Node25</title>
<g id="a_Node000025"><a xlink:href="_polymorphic_2_i_r_2_types_8h_8inc.html" target="_top" xlink:title=" ">
<polygon fill="white" stroke="#666666" points="1550.38,-152.25 1428.62,-152.25 1428.62,-121.75 1550.38,-121.75 1550.38,-152.25"/>
<text text-anchor="start" x="1436.62" y="-138.75" font-family="Helvetica,sans-Serif" font-size="10.00">llzk/Dialect/Polymorphic</text>
<text text-anchor="middle" x="1489.5" y="-127.5" font-family="Helvetica,sans-Serif" font-size="10.00">/IR/Types.h.inc</text>
</a>
</g>
</g>
<!-- Node21&#45;&gt;Node25 -->
<g id="edge26_Node000021_Node000025" class="edge">
<title>Node21&#45;&gt;Node25</title>
<g id="a_edge26_Node000021_Node000025"><a xlink:title=" ">
<path fill="none" stroke="#63b8ff" d="M1432.29,-187.86C1441.75,-179.62 1453.76,-169.15 1464.32,-159.94"/>
<polygon fill="#63b8ff" stroke="#63b8ff" points="1466.4,-162.78 1471.63,-153.57 1461.8,-157.5 1466.4,-162.78"/>
</a>
</g>
</g>
<!-- Node22&#45;&gt;Node4 -->
<g id="edge23_Node000022_Node000004" class="edge">
<title>Node22&#45;&gt;Node4</title>
<g id="a_edge23_Node000022_Node000004"><a xlink:title=" ">
<path fill="none" stroke="#63b8ff" d="M1194.75,-121.36C1184.8,-111.49 1171.65,-98.44 1161.3,-88.17"/>
<polygon fill="#63b8ff" stroke="#63b8ff" points="1164.03,-85.95 1154.47,-81.39 1159.1,-90.92 1164.03,-85.95"/>
</a>
</g>
</g>
<!-- Node23 -->
<g id="Node000023" class="node">
<title>Node23</title>
<g id="a_Node000023"><a xlink:href="_polymorphic_2_i_r_2_dialect_8h_8inc.html" target="_top" xlink:title=" ">
<polygon fill="white" stroke="#666666" points="1335.38,-85.75 1213.62,-85.75 1213.62,-55.25 1335.38,-55.25 1335.38,-85.75"/>
<text text-anchor="start" x="1221.62" y="-72.25" font-family="Helvetica,sans-Serif" font-size="10.00">llzk/Dialect/Polymorphic</text>
<text text-anchor="middle" x="1274.5" y="-61" font-family="Helvetica,sans-Serif" font-size="10.00">/IR/Dialect.h.inc</text>
</a>
</g>
</g>
<!-- Node22&#45;&gt;Node23 -->
<g id="edge24_Node000022_Node000023" class="edge">
<title>Node22&#45;&gt;Node23</title>
<g id="a_edge24_Node000022_Node000023"><a xlink:title=" ">
<path fill="none" stroke="#63b8ff" d="M1224.25,-121.36C1232.39,-113.28 1242.68,-103.07 1251.83,-94"/>
<polygon fill="#63b8ff" stroke="#63b8ff" points="1254.1,-96.67 1258.73,-87.14 1249.17,-91.7 1254.1,-96.67"/>
</a>
</g>
</g>
<!-- Node27 -->
<g id="Node000027" class="node">
<title>Node27</title>
<g id="a_Node000027"><a xlink:href="_string_2_i_r_2_dialect_8h.html" target="_top" xlink:title=" ">
<polygon fill="white" stroke="#666666" points="1662.12,-152.25 1568.88,-152.25 1568.88,-121.75 1662.12,-121.75 1662.12,-152.25"/>
<text text-anchor="start" x="1576.88" y="-138.75" font-family="Helvetica,sans-Serif" font-size="10.00">llzk/Dialect/String</text>
<text text-anchor="middle" x="1615.5" y="-127.5" font-family="Helvetica,sans-Serif" font-size="10.00">/IR/Dialect.h</text>
</a>
</g>
</g>
<!-- Node26&#45;&gt;Node27 -->
<g id="edge28_Node000026_Node000027" class="edge">
<title>Node26&#45;&gt;Node27</title>
<g id="a_edge28_Node000026_Node000027"><a xlink:title=" ">
<path fill="none" stroke="#63b8ff" d="M1658.02,-187.86C1651.34,-180.03 1642.95,-170.19 1635.4,-161.33"/>
<polygon fill="#63b8ff" stroke="#63b8ff" points="1638.06,-159.07 1628.91,-153.73 1632.74,-163.61 1638.06,-159.07"/>
</a>
</g>
</g>
<!-- Node29 -->
<g id="Node000029" class="node">
<title>Node29</title>
<g id="a_Node000029"><a xlink:href="_string_2_i_r_2_ops_8h_8inc.html" target="_top" xlink:title=" ">
<polygon fill="white" stroke="#666666" points="1773.12,-152.25 1679.88,-152.25 1679.88,-121.75 1773.12,-121.75 1773.12,-152.25"/>
<text text-anchor="start" x="1687.88" y="-138.75" font-family="Helvetica,sans-Serif" font-size="10.00">llzk/Dialect/String</text>
<text text-anchor="middle" x="1726.5" y="-127.5" font-family="Helvetica,sans-Serif" font-size="10.00">/IR/Ops.h.inc</text>
</a>
</g>
</g>
<!-- Node26&#45;&gt;Node29 -->
<g id="edge31_Node000026_Node000029" class="edge">
<title>Node26&#45;&gt;Node29</title>
<g id="a_edge31_Node000026_Node000029"><a xlink:title=" ">
<path fill="none" stroke="#63b8ff" d="M1683.21,-187.86C1690.08,-179.95 1698.73,-169.99 1706.48,-161.05"/>
<polygon fill="#63b8ff" stroke="#63b8ff" points="1708.94,-163.57 1712.85,-153.72 1703.65,-158.98 1708.94,-163.57"/>
</a>
</g>
</g>
<!-- Node30 -->
<g id="Node000030" class="node">
<title>Node30</title>
<g id="a_Node000030"><a xlink:href="_string_2_i_r_2_types_8h_8inc.html" target="_top" xlink:title=" ">
<polygon fill="white" stroke="#666666" points="1884.12,-152.25 1790.88,-152.25 1790.88,-121.75 1884.12,-121.75 1884.12,-152.25"/>
<text text-anchor="start" x="1798.88" y="-138.75" font-family="Helvetica,sans-Serif" font-size="10.00">llzk/Dialect/String</text>
<text text-anchor="middle" x="1837.5" y="-127.5" font-family="Helvetica,sans-Serif" font-size="10.00">/IR/Types.h.inc</text>
</a>
</g>
</g>
<!-- Node26&#45;&gt;Node30 -->
<g id="edge32_Node000026_Node000030" class="edge">
<title>Node26&#45;&gt;Node30</title>
<g id="a_edge32_Node000026_Node000030"><a xlink:title=" ">
<path fill="none" stroke="#63b8ff" d="M1708.39,-187.86C1732.22,-178.66 1763.2,-166.7 1788.84,-156.79"/>
<polygon fill="#63b8ff" stroke="#63b8ff" points="1789.99,-160.1 1798.05,-153.23 1787.47,-153.57 1789.99,-160.1"/>
</a>
</g>
</g>
<!-- Node27&#45;&gt;Node4 -->
<g id="edge29_Node000027_Node000004" class="edge">
<title>Node27&#45;&gt;Node4</title>
<g id="a_edge29_Node000027_Node000004"><a xlink:title=" ">
<path fill="none" stroke="#63b8ff" d="M1568.56,-123.52C1565.5,-122.87 1562.46,-122.27 1559.5,-121.75 1403.34,-94.12 1360.88,-112.13 1204.5,-85.75 1199.87,-84.97 1195.06,-84.04 1190.28,-83.03"/>
<polygon fill="#63b8ff" stroke="#63b8ff" points="1191.24,-79.66 1180.72,-80.9 1189.72,-86.49 1191.24,-79.66"/>
</a>
</g>
</g>
<!-- Node28 -->
<g id="Node000028" class="node">
<title>Node28</title>
<g id="a_Node000028"><a xlink:href="_string_2_i_r_2_dialect_8h_8inc.html" target="_top" xlink:title=" ">
<polygon fill="white" stroke="#666666" points="1641.12,-85.75 1547.88,-85.75 1547.88,-55.25 1641.12,-55.25 1641.12,-85.75"/>
<text text-anchor="start" x="1555.88" y="-72.25" font-family="Helvetica,sans-Serif" font-size="10.00">llzk/Dialect/String</text>
<text text-anchor="middle" x="1594.5" y="-61" font-family="Helvetica,sans-Serif" font-size="10.00">/IR/Dialect.h.inc</text>
</a>
</g>
</g>
<!-- Node27&#45;&gt;Node28 -->
<g id="edge30_Node000027_Node000028" class="edge">
<title>Node27&#45;&gt;Node28</title>
<g id="a_edge30_Node000027_Node000028"><a xlink:title=" ">
<path fill="none" stroke="#63b8ff" d="M1610.73,-121.36C1608.37,-114.11 1605.45,-105.13 1602.74,-96.81"/>
<polygon fill="#63b8ff" stroke="#63b8ff" points="1606.14,-95.94 1599.71,-87.52 1599.48,-98.11 1606.14,-95.94"/>
</a>
</g>
</g>
<!-- Node32 -->
<g id="Node000032" class="node">
<title>Node32</title>
<g id="a_Node000032"><a xlink:href="_struct_2_i_r_2_dialect_8h.html" target="_top" xlink:title=" ">
<polygon fill="white" stroke="#666666" points="2108.5,-152.25 2014.5,-152.25 2014.5,-121.75 2108.5,-121.75 2108.5,-152.25"/>
<text text-anchor="start" x="2022.5" y="-138.75" font-family="Helvetica,sans-Serif" font-size="10.00">llzk/Dialect/Struct</text>
<text text-anchor="middle" x="2061.5" y="-127.5" font-family="Helvetica,sans-Serif" font-size="10.00">/IR/Dialect.h</text>
</a>
</g>
</g>
<!-- Node31&#45;&gt;Node32 -->
<g id="edge34_Node000031_Node000032" class="edge">
<title>Node31&#45;&gt;Node32</title>
<g id="a_edge34_Node000031_Node000032"><a xlink:title=" ">
<path fill="none" stroke="#63b8ff" d="M2107.89,-187.86C2100.44,-179.86 2091.06,-169.78 2082.69,-160.78"/>
<polygon fill="#63b8ff" stroke="#63b8ff" points="2085.47,-158.62 2076.09,-153.69 2080.34,-163.39 2085.47,-158.62"/>
</a>
</g>
</g>
<!-- Node34 -->
<g id="Node000034" class="node">
<title>Node34</title>
<g id="a_Node000034"><a xlink:href="_symbol_lookup_8h.html" target="_top" xlink:title="This file defines methods symbol lookup across LLZK operations and included files.">
<polygon fill="white" stroke="#666666" points="2647.88,-146.62 2523.12,-146.62 2523.12,-127.38 2647.88,-127.38 2647.88,-146.62"/>
<text text-anchor="middle" x="2585.5" y="-133.12" font-family="Helvetica,sans-Serif" font-size="10.00">llzk/Util/SymbolLookup.h</text>
</a>
</g>
</g>
<!-- Node31&#45;&gt;Node34 -->
<g id="edge37_Node000031_Node000034" class="edge">
<title>Node31&#45;&gt;Node34</title>
<g id="a_edge37_Node000031_Node000034"><a xlink:title=" ">
<path fill="none" stroke="#63b8ff" d="M2168.82,-196.84C2258.04,-186.11 2448.07,-162.91 2513.5,-152.25 2519.17,-151.33 2525.08,-150.29 2530.96,-149.2"/>
<polygon fill="#63b8ff" stroke="#63b8ff" points="2531.52,-152.65 2540.7,-147.35 2530.22,-145.78 2531.52,-152.65"/>
</a>
</g>
</g>
<!-- Node40 -->
<g id="Node000040" class="node">
<title>Node40</title>
<g id="a_Node000040"><a xlink:href="_type_helper_8h.html" target="_top" xlink:title=" ">
<polygon fill="#fff0f0" stroke="red" points="2236,-146.62 2127,-146.62 2127,-127.38 2236,-127.38 2236,-146.62"/>
<text text-anchor="middle" x="2181.5" y="-133.12" font-family="Helvetica,sans-Serif" font-size="10.00">llzk/Util/TypeHelper.h</text>
</a>
</g>
</g>
<!-- Node31&#45;&gt;Node40 -->
<g id="edge43_Node000031_Node000040" class="edge">
<title>Node31&#45;&gt;Node40</title>
<g id="a_edge43_Node000031_Node000040"><a xlink:title=" ">
<path fill="none" stroke="#63b8ff" d="M2135.11,-187.86C2144.21,-178.09 2156.2,-165.2 2165.71,-154.98"/>
<polygon fill="#63b8ff" stroke="#63b8ff" points="2168.01,-157.64 2172.26,-147.93 2162.89,-152.87 2168.01,-157.64"/>
</a>
</g>
</g>
<!-- Node45 -->
<g id="Node000045" class="node">
<title>Node45</title>
<g id="a_Node000045"><a xlink:href="_struct_2_i_r_2_ops_8h_8inc.html" target="_top" xlink:title=" ">
<polygon fill="white" stroke="#666666" points="2348.5,-152.25 2254.5,-152.25 2254.5,-121.75 2348.5,-121.75 2348.5,-152.25"/>
<text text-anchor="start" x="2262.5" y="-138.75" font-family="Helvetica,sans-Serif" font-size="10.00">llzk/Dialect/Struct</text>
<text text-anchor="middle" x="2301.5" y="-127.5" font-family="Helvetica,sans-Serif" font-size="10.00">/IR/Ops.h.inc</text>
</a>
</g>
</g>
<!-- Node31&#45;&gt;Node45 -->
<g id="edge50_Node000031_Node000045" class="edge">
<title>Node31&#45;&gt;Node45</title>
<g id="a_edge50_Node000031_Node000045"><a xlink:title=" ">
<path fill="none" stroke="#63b8ff" d="M2162.34,-187.86C2188.26,-178.58 2222.02,-166.48 2249.79,-156.53"/>
<polygon fill="#63b8ff" stroke="#63b8ff" points="2250.85,-159.87 2259.08,-153.2 2248.49,-153.28 2250.85,-159.87"/>
</a>
</g>
</g>
<!-- Node46 -->
<g id="Node000046" class="node">
<title>Node46</title>
<g id="a_Node000046"><a xlink:href="_struct_2_i_r_2_types_8h_8inc.html" target="_top" xlink:title=" ">
<polygon fill="white" stroke="#666666" points="1996.5,-152.25 1902.5,-152.25 1902.5,-121.75 1996.5,-121.75 1996.5,-152.25"/>
<text text-anchor="start" x="1910.5" y="-138.75" font-family="Helvetica,sans-Serif" font-size="10.00">llzk/Dialect/Struct</text>
<text text-anchor="middle" x="1949.5" y="-127.5" font-family="Helvetica,sans-Serif" font-size="10.00">/IR/Types.h.inc</text>
</a>
</g>
</g>
<!-- Node31&#45;&gt;Node46 -->
<g id="edge51_Node000031_Node000046" class="edge">
<title>Node31&#45;&gt;Node46</title>
<g id="a_edge51_Node000031_Node000046"><a xlink:title=" ">
<path fill="none" stroke="#63b8ff" d="M2082.47,-187.86C2057.82,-178.62 2025.74,-166.59 1999.26,-156.66"/>
<polygon fill="#63b8ff" stroke="#63b8ff" points="2000.68,-153.46 1990.09,-153.22 1998.22,-160.01 2000.68,-153.46"/>
</a>
</g>
</g>
<!-- Node32&#45;&gt;Node4 -->
<g id="edge35_Node000032_Node000004" class="edge">
<title>Node32&#45;&gt;Node4</title>
<g id="a_edge35_Node000032_Node000004"><a xlink:title=" ">
<path fill="none" stroke="#63b8ff" d="M2014.28,-123.26C2011.32,-122.69 2008.38,-122.18 2005.5,-121.75 1652.99,-69.54 1557.42,-135.14 1204.5,-85.75 1199.47,-85.05 1194.25,-84.11 1189.08,-83.06"/>
<polygon fill="#63b8ff" stroke="#63b8ff" points="1189.92,-79.67 1179.4,-80.94 1188.42,-86.5 1189.92,-79.67"/>
</a>
</g>
</g>
<!-- Node33 -->
<g id="Node000033" class="node">
<title>Node33</title>
<g id="a_Node000033"><a xlink:href="_struct_2_i_r_2_dialect_8h_8inc.html" target="_top" xlink:title=" ">
<polygon fill="white" stroke="#666666" points="1880.5,-85.75 1786.5,-85.75 1786.5,-55.25 1880.5,-55.25 1880.5,-85.75"/>
<text text-anchor="start" x="1794.5" y="-72.25" font-family="Helvetica,sans-Serif" font-size="10.00">llzk/Dialect/Struct</text>
<text text-anchor="middle" x="1833.5" y="-61" font-family="Helvetica,sans-Serif" font-size="10.00">/IR/Dialect.h.inc</text>
</a>
</g>
</g>
<!-- Node32&#45;&gt;Node33 -->
<g id="edge36_Node000032_Node000033" class="edge">
<title>Node32&#45;&gt;Node33</title>
<g id="a_edge36_Node000032_Node000033"><a xlink:title=" ">
<path fill="none" stroke="#63b8ff" d="M2014.26,-122.64C1978.64,-112.56 1929.61,-98.69 1891.59,-87.93"/>
<polygon fill="#63b8ff" stroke="#63b8ff" points="1892.71,-84.61 1882.14,-85.26 1890.81,-91.35 1892.71,-84.61"/>
</a>
</g>
</g>
<!-- Node35 -->
<g id="Node000035" class="node">
<title>Node35</title>
<g id="a_Node000035"><a xlink:href="_constants_8h.html" target="_top" xlink:title=" ">
<polygon fill="white" stroke="#666666" points="2658.12,-80.12 2552.88,-80.12 2552.88,-60.88 2658.12,-60.88 2658.12,-80.12"/>
<text text-anchor="middle" x="2605.5" y="-66.62" font-family="Helvetica,sans-Serif" font-size="10.00">llzk/Util/Constants.h</text>
</a>
</g>
</g>
<!-- Node34&#45;&gt;Node35 -->
<g id="edge38_Node000034_Node000035" class="edge">
<title>Node34&#45;&gt;Node35</title>
<g id="a_edge38_Node000034_Node000035"><a xlink:title=" ">
<path fill="none" stroke="#63b8ff" d="M2588.28,-127.03C2591.15,-117.79 2595.71,-103.08 2599.41,-91.13"/>
<polygon fill="#63b8ff" stroke="#63b8ff" points="2602.68,-92.43 2602.29,-81.84 2595.99,-90.35 2602.68,-92.43"/>
</a>
</g>
</g>
<!-- Node36 -->
<g id="Node000036" class="node">
<title>Node36</title>
<g id="a_Node000036"><a xlink:title=" ">
<polygon fill="#e0e0e0" stroke="#999999" points="2534.75,-80.12 2436.25,-80.12 2436.25,-60.88 2534.75,-60.88 2534.75,-80.12"/>
<text text-anchor="middle" x="2485.5" y="-66.62" font-family="Helvetica,sans-Serif" font-size="10.00">mlir/IR/Operation.h</text>
</a>
</g>
</g>
<!-- Node34&#45;&gt;Node36 -->
<g id="edge39_Node000034_Node000036" class="edge">
<title>Node34&#45;&gt;Node36</title>
<g id="a_edge39_Node000034_Node000036"><a xlink:title=" ">
<path fill="none" stroke="#63b8ff" d="M2571.6,-127.03C2555.49,-116.64 2528.69,-99.36 2509.26,-86.83"/>
<polygon fill="#63b8ff" stroke="#63b8ff" points="2511.18,-83.9 2500.88,-81.42 2507.39,-89.78 2511.18,-83.9"/>
</a>
</g>
</g>
<!-- Node37 -->
<g id="Node000037" class="node">
<title>Node37</title>
<g id="a_Node000037"><a xlink:title=" ">
<polygon fill="#e0e0e0" stroke="#999999" points="2794.5,-80.12 2676.5,-80.12 2676.5,-60.88 2794.5,-60.88 2794.5,-80.12"/>
<text text-anchor="middle" x="2735.5" y="-66.62" font-family="Helvetica,sans-Serif" font-size="10.00">mlir/IR/OwningOpRef.h</text>
</a>
</g>
</g>
<!-- Node34&#45;&gt;Node37 -->
<g id="edge40_Node000034_Node000037" class="edge">
<title>Node34&#45;&gt;Node37</title>
<g id="a_edge40_Node000034_Node000037"><a xlink:title=" ">
<path fill="none" stroke="#63b8ff" d="M2606.67,-126.9C2632.02,-116 2674.71,-97.64 2703.95,-85.07"/>
<polygon fill="#63b8ff" stroke="#63b8ff" points="2705.24,-88.32 2713.04,-81.16 2702.47,-81.89 2705.24,-88.32"/>
</a>
</g>
</g>
<!-- Node38 -->
<g id="Node000038" class="node">
<title>Node38</title>
<g id="a_Node000038"><a xlink:title=" ">
<polygon fill="#e0e0e0" stroke="#999999" points="2418.38,-80.12 2308.62,-80.12 2308.62,-60.88 2418.38,-60.88 2418.38,-80.12"/>
<text text-anchor="middle" x="2363.5" y="-66.62" font-family="Helvetica,sans-Serif" font-size="10.00">llvm/ADT/StringRef.h</text>
</a>
</g>
</g>
<!-- Node34&#45;&gt;Node38 -->
<g id="edge41_Node000034_Node000038" class="edge">
<title>Node34&#45;&gt;Node38</title>
<g id="a_edge41_Node000034_Node000038"><a xlink:title=" ">
<path fill="none" stroke="#63b8ff" d="M2554.16,-126.9C2515.32,-115.61 2448.98,-96.34 2405.69,-83.76"/>
<polygon fill="#63b8ff" stroke="#63b8ff" points="2406.71,-80.41 2396.13,-80.98 2404.76,-87.13 2406.71,-80.41"/>
</a>
</g>
</g>
<!-- Node39 -->
<g id="Node000039" class="node">
<title>Node39</title>
<g id="a_Node000039"><a xlink:title=" ">
<polygon fill="#e0e0e0" stroke="#999999" points="2856,-80.12 2813,-80.12 2813,-60.88 2856,-60.88 2856,-80.12"/>
<text text-anchor="middle" x="2834.5" y="-66.62" font-family="Helvetica,sans-Serif" font-size="10.00">vector</text>
</a>
</g>
</g>
<!-- Node34&#45;&gt;Node39 -->
<g id="edge42_Node000034_Node000039" class="edge">
<title>Node34&#45;&gt;Node39</title>
<g id="a_edge42_Node000034_Node000039"><a xlink:title=" ">
<path fill="none" stroke="#63b8ff" d="M2629.83,-126.9C2683.84,-115.62 2771.79,-96.56 2803.5,-85.75 2804.3,-85.48 2805.1,-85.19 2805.91,-84.89"/>
<polygon fill="#63b8ff" stroke="#63b8ff" points="2807.08,-88.2 2814.99,-81.15 2804.42,-81.73 2807.08,-88.2"/>
</a>
</g>
</g>
<!-- Node40&#45;&gt;Node6 -->
<g id="edge44_Node000040_Node000006" class="edge">
<title>Node40&#45;&gt;Node6</title>
<g id="a_edge44_Node000040_Node000006"><a xlink:title=" ">
<path fill="none" stroke="#63b8ff" d="M2144.07,-126.92C2135.39,-125.02 2126.15,-123.17 2117.5,-121.75 1967.54,-97.2 1927.46,-110.3 1777.5,-85.75 1772.5,-84.93 1767.3,-83.97 1762.13,-82.93"/>
<polygon fill="#63b8ff" stroke="#63b8ff" points="1762.91,-79.52 1752.41,-80.89 1761.48,-86.37 1762.91,-79.52"/>
</a>
</g>
</g>
<!-- Node40&#45;&gt;Node36 -->
<g id="edge46_Node000040_Node000036" class="edge">
<title>Node40&#45;&gt;Node36</title>
<g id="a_edge46_Node000040_Node000036"><a xlink:title=" ">
<path fill="none" stroke="#63b8ff" d="M2221.75,-126.88C2229.62,-125.15 2237.81,-123.37 2245.5,-121.75 2326.19,-104.79 2347,-103.59 2427.5,-85.75 2431.09,-84.95 2434.81,-84.1 2438.54,-83.23"/>
<polygon fill="#63b8ff" stroke="#63b8ff" points="2439.28,-86.65 2448.2,-80.93 2437.66,-79.84 2439.28,-86.65"/>
</a>
</g>
</g>
<!-- Node40&#45;&gt;Node38 -->
<g id="edge49_Node000040_Node000038" class="edge">
<title>Node40&#45;&gt;Node38</title>
<g id="a_edge49_Node000040_Node000038"><a xlink:title=" ">
<path fill="none" stroke="#63b8ff" d="M2207.19,-126.9C2238.63,-115.76 2292.04,-96.83 2327.54,-84.24"/>
<polygon fill="#63b8ff" stroke="#63b8ff" points="2328.26,-87.7 2336.51,-81.06 2325.92,-81.11 2328.26,-87.7"/>
</a>
</g>
</g>
<!-- Node41 -->
<g id="Node000041" class="node">
<title>Node41</title>
<g id="a_Node000041"><a xlink:title=" ">
<polygon fill="#e0e0e0" stroke="#999999" points="2290.5,-80.12 2154.5,-80.12 2154.5,-60.88 2290.5,-60.88 2290.5,-80.12"/>
<text text-anchor="middle" x="2222.5" y="-66.62" font-family="Helvetica,sans-Serif" font-size="10.00">mlir/IR/OpImplementation.h</text>
</a>
</g>
</g>
<!-- Node40&#45;&gt;Node41 -->
<g id="edge45_Node000040_Node000041" class="edge">
<title>Node40&#45;&gt;Node41</title>
<g id="a_edge45_Node000040_Node000041"><a xlink:title=" ">
<path fill="none" stroke="#63b8ff" d="M2187.2,-127.03C2193.26,-117.5 2203.01,-102.16 2210.73,-90.02"/>
<polygon fill="#63b8ff" stroke="#63b8ff" points="2213.62,-91.99 2216.04,-81.67 2207.72,-88.23 2213.62,-91.99"/>
</a>
</g>
</g>
<!-- Node42 -->
<g id="Node000042" class="node">
<title>Node42</title>
<g id="a_Node000042"><a xlink:title=" ">
<polygon fill="#e0e0e0" stroke="#999999" points="2010.88,-80.12 1898.12,-80.12 1898.12,-60.88 2010.88,-60.88 2010.88,-80.12"/>
<text text-anchor="middle" x="1954.5" y="-66.62" font-family="Helvetica,sans-Serif" font-size="10.00">mlir/IR/SymbolTable.h</text>
</a>
</g>
</g>
<!-- Node40&#45;&gt;Node42 -->
<g id="edge47_Node000040_Node000042" class="edge">
<title>Node40&#45;&gt;Node42</title>
<g id="a_edge47_Node000040_Node000042"><a xlink:title=" ">
<path fill="none" stroke="#63b8ff" d="M2149.46,-126.9C2109.66,-115.59 2041.62,-96.25 1997.36,-83.68"/>
<polygon fill="#63b8ff" stroke="#63b8ff" points="1998.41,-80.34 1987.84,-80.97 1996.5,-87.07 1998.41,-80.34"/>
</a>
</g>
</g>
<!-- Node43 -->
<g id="Node000043" class="node">
<title>Node43</title>
<g id="a_Node000043"><a xlink:title=" ">
<polygon fill="#e0e0e0" stroke="#999999" points="2136.25,-80.12 2028.75,-80.12 2028.75,-60.88 2136.25,-60.88 2136.25,-80.12"/>
<text text-anchor="middle" x="2082.5" y="-66.62" font-family="Helvetica,sans-Serif" font-size="10.00">llvm/ADT/ArrayRef.h</text>
</a>
</g>
</g>
<!-- Node40&#45;&gt;Node43 -->
<g id="edge48_Node000040_Node000043" class="edge">
<title>Node40&#45;&gt;Node43</title>
<g id="a_edge48_Node000040_Node000043"><a xlink:title=" ">
<path fill="none" stroke="#63b8ff" d="M2167.73,-127.03C2151.79,-116.64 2125.26,-99.36 2106.03,-86.83"/>
<polygon fill="#63b8ff" stroke="#63b8ff" points="2108.03,-83.95 2097.74,-81.43 2104.2,-89.82 2108.03,-83.95"/>
</a>
</g>
</g>
<!-- Node48 -->
<g id="Node000048" class="node">
<title>Node48</title>
<g id="a_Node000048"><a xlink:title=" ">
<polygon fill="#e0e0e0" stroke="#999999" points="2504.62,-146.62 2366.38,-146.62 2366.38,-127.38 2504.62,-127.38 2504.62,-146.62"/>
<text text-anchor="middle" x="2435.5" y="-133.12" font-family="Helvetica,sans-Serif" font-size="10.00">llvm/Support/raw_ostream.h</text>
</a>
</g>
</g>
<!-- Node47&#45;&gt;Node48 -->
<g id="edge53_Node000047_Node000048" class="edge">
<title>Node47&#45;&gt;Node48</title>
<g id="a_edge53_Node000047_Node000048"><a xlink:title=" ">
<path fill="none" stroke="#63b8ff" d="M2329,-193.4C2349.59,-182.69 2384.01,-164.78 2408.13,-152.24"/>
<polygon fill="#63b8ff" stroke="#63b8ff" points="2409.49,-155.48 2416.74,-147.76 2406.26,-149.27 2409.49,-155.48"/>
</a>
</g>
</g>
<!-- Node49&#45;&gt;Node34 -->
<g id="edge55_Node000049_Node000034" class="edge">
<title>Node49&#45;&gt;Node34</title>
<g id="a_edge55_Node000049_Node000034"><a xlink:title=" ">
<path fill="none" stroke="#63b8ff" d="M2652.65,-193.53C2640.31,-183.33 2619.92,-166.46 2604.84,-153.99"/>
<polygon fill="#63b8ff" stroke="#63b8ff" points="2607.36,-151.53 2597.42,-147.86 2602.9,-156.93 2607.36,-151.53"/>
</a>
</g>
</g>
<!-- Node50 -->
<g id="Node000050" class="node">
<title>Node50</title>
<g id="a_Node000050"><a xlink:title=" ">
<polygon fill="#e0e0e0" stroke="#999999" points="2816.62,-146.62 2666.38,-146.62 2666.38,-127.38 2816.62,-127.38 2816.62,-146.62"/>
<text text-anchor="middle" x="2741.5" y="-133.12" font-family="Helvetica,sans-Serif" font-size="10.00">mlir/Interfaces/CallInterfaces.h</text>
</a>
</g>
</g>
<!-- Node49&#45;&gt;Node50 -->
<g id="edge56_Node000049_Node000050" class="edge">
<title>Node49&#45;&gt;Node50</title>
<g id="a_edge56_Node000049_Node000050"><a xlink:title=" ">
<path fill="none" stroke="#63b8ff" d="M2674.35,-193.53C2686.69,-183.33 2707.08,-166.46 2722.16,-153.99"/>
<polygon fill="#63b8ff" stroke="#63b8ff" points="2724.1,-156.93 2729.58,-147.86 2719.64,-151.53 2724.1,-156.93"/>
</a>
</g>
</g>
<!-- Node51 -->
<g id="Node000051" class="node">
<title>Node51</title>
<g id="a_Node000051"><a xlink:title=" ">
<polygon fill="#e0e0e0" stroke="#999999" points="2880.12,-146.62 2834.88,-146.62 2834.88,-127.38 2880.12,-127.38 2880.12,-146.62"/>
<text text-anchor="middle" x="2857.5" y="-133.12" font-family="Helvetica,sans-Serif" font-size="10.00">ranges</text>
</a>
</g>
</g>
<!-- Node49&#45;&gt;Node51 -->
<g id="edge57_Node000049_Node000051" class="edge">
<title>Node49&#45;&gt;Node51</title>
<g id="a_edge57_Node000049_Node000051"><a xlink:title=" ">
<path fill="none" stroke="#63b8ff" d="M2696.78,-193.43C2729.8,-184.13 2781.68,-168.74 2825.5,-152.25 2826.14,-152.01 2826.79,-151.76 2827.44,-151.51"/>
<polygon fill="#63b8ff" stroke="#63b8ff" points="2828.73,-154.76 2836.62,-147.69 2826.05,-148.3 2828.73,-154.76"/>
</a>
</g>
</g>
</g>
</svg>
