<?xml version="1.0" encoding="UTF-8" standalone="no"?>
<!DOCTYPE svg PUBLIC "-//W3C//DTD SVG 1.1//EN"
 "http://www.w3.org/Graphics/SVG/1.1/DTD/svg11.dtd">
<!-- Generated by graphviz version 12.2.1 (20241206.2353)
 -->
<!-- Title: include/llzk/Util/TypeHelper.h Pages: 1 -->
<svg width="1077pt" height="138pt"
 viewBox="0.00 0.00 1076.88 137.75" xmlns="http://www.w3.org/2000/svg" xmlns:xlink="http://www.w3.org/1999/xlink">
<g id="graph0" class="graph" transform="scale(1 1) rotate(0) translate(4 133.75)">
<title>include/llzk/Util/TypeHelper.h</title>
<!-- Node1 -->
<g id="Node000001" class="node">
<title>Node1</title>
<g id="a_Node000001"><a xlink:title=" ">
<polygon fill="#999999" stroke="#666666" points="696.38,-129.75 553.62,-129.75 553.62,-110.5 696.38,-110.5 696.38,-129.75"/>
<text text-anchor="middle" x="625" y="-116.25" font-family="Helvetica,sans-Serif" font-size="10.00">include/llzk/Util/TypeHelper.h</text>
</a>
</g>
</g>
<!-- Node2 -->
<g id="Node000002" class="node">
<title>Node2</title>
<g id="a_Node000002"><a xlink:href="_error_helper_8h.html" target="_top" xlink:title=" ">
<polygon fill="white" stroke="#666666" points="279.5,-74.5 170.5,-74.5 170.5,-55.25 279.5,-55.25 279.5,-74.5"/>
<text text-anchor="middle" x="225" y="-61" font-family="Helvetica,sans-Serif" font-size="10.00">llzk/Util/ErrorHelper.h</text>
</a>
</g>
</g>
<!-- Node1&#45;&gt;Node2 -->
<g id="edge1_Node000001_Node000002" class="edge">
<title>Node1&#45;&gt;Node2</title>
<g id="a_edge1_Node000001_Node000002"><a xlink:title=" ">
<path fill="none" stroke="#63b8ff" d="M556.14,-110.02C490.74,-101.36 389.32,-87.91 291.15,-74.78"/>
<polygon fill="#63b8ff" stroke="#63b8ff" points="291.69,-71.33 281.31,-73.47 290.76,-78.26 291.69,-71.33"/>
</a>
</g>
</g>
<!-- Node6 -->
<g id="Node000006" class="node">
<title>Node6</title>
<g id="a_Node000006"><a xlink:title=" ">
<polygon fill="#e0e0e0" stroke="#999999" points="434,-74.5 298,-74.5 298,-55.25 434,-55.25 434,-74.5"/>
<text text-anchor="middle" x="366" y="-61" font-family="Helvetica,sans-Serif" font-size="10.00">mlir/IR/OpImplementation.h</text>
</a>
</g>
</g>
<!-- Node1&#45;&gt;Node6 -->
<g id="edge5_Node000001_Node000006" class="edge">
<title>Node1&#45;&gt;Node6</title>
<g id="a_edge5_Node000001_Node000006"><a xlink:title=" ">
<path fill="none" stroke="#63b8ff" d="M580.77,-110.03C536.63,-100.96 468.7,-86.99 421.08,-77.2"/>
<polygon fill="#63b8ff" stroke="#63b8ff" points="422.03,-73.82 411.53,-75.24 420.62,-80.68 422.03,-73.82"/>
</a>
</g>
</g>
<!-- Node7 -->
<g id="Node000007" class="node">
<title>Node7</title>
<g id="a_Node000007"><a xlink:title=" ">
<polygon fill="#e0e0e0" stroke="#999999" points="550.25,-74.5 451.75,-74.5 451.75,-55.25 550.25,-55.25 550.25,-74.5"/>
<text text-anchor="middle" x="501" y="-61" font-family="Helvetica,sans-Serif" font-size="10.00">mlir/IR/Operation.h</text>
</a>
</g>
</g>
<!-- Node1&#45;&gt;Node7 -->
<g id="edge6_Node000001_Node000007" class="edge">
<title>Node1&#45;&gt;Node7</title>
<g id="a_edge6_Node000001_Node000007"><a xlink:title=" ">
<path fill="none" stroke="#63b8ff" d="M603.97,-110.09C584.37,-101.68 554.89,-89.02 532.49,-79.4"/>
<polygon fill="#63b8ff" stroke="#63b8ff" points="534.1,-76.28 523.53,-75.55 531.34,-82.71 534.1,-76.28"/>
</a>
</g>
</g>
<!-- Node8 -->
<g id="Node000008" class="node">
<title>Node8</title>
<g id="a_Node000008"><a xlink:title=" ">
<polygon fill="#e0e0e0" stroke="#999999" points="681.38,-74.5 568.62,-74.5 568.62,-55.25 681.38,-55.25 681.38,-74.5"/>
<text text-anchor="middle" x="625" y="-61" font-family="Helvetica,sans-Serif" font-size="10.00">mlir/IR/SymbolTable.h</text>
</a>
</g>
</g>
<!-- Node1&#45;&gt;Node8 -->
<g id="edge7_Node000001_Node000008" class="edge">
<title>Node1&#45;&gt;Node8</title>
<g id="a_edge7_Node000001_Node000008"><a xlink:title=" ">
<path fill="none" stroke="#63b8ff" d="M625,-110.33C625,-103.82 625,-94.67 625,-86.37"/>
<polygon fill="#63b8ff" stroke="#63b8ff" points="628.5,-86.37 625,-76.37 621.5,-86.37 628.5,-86.37"/>
</a>
</g>
</g>
<!-- Node9 -->
<g id="Node000009" class="node">
<title>Node9</title>
<g id="a_Node000009"><a xlink:title=" ">
<polygon fill="#e0e0e0" stroke="#999999" points="806.75,-74.5 699.25,-74.5 699.25,-55.25 806.75,-55.25 806.75,-74.5"/>
<text text-anchor="middle" x="753" y="-61" font-family="Helvetica,sans-Serif" font-size="10.00">llvm/ADT/ArrayRef.h</text>
</a>
</g>
</g>
<!-- Node1&#45;&gt;Node9 -->
<g id="edge8_Node000001_Node000009" class="edge">
<title>Node1&#45;&gt;Node9</title>
<g id="a_edge8_Node000001_Node000009"><a xlink:title=" ">
<path fill="none" stroke="#63b8ff" d="M646.71,-110.09C667.03,-101.64 697.65,-88.9 720.81,-79.27"/>
<polygon fill="#63b8ff" stroke="#63b8ff" points="721.89,-82.61 729.78,-75.53 719.21,-76.14 721.89,-82.61"/>
</a>
</g>
</g>
<!-- Node10 -->
<g id="Node000010" class="node">
<title>Node10</title>
<g id="a_Node000010"><a xlink:title=" ">
<polygon fill="#e0e0e0" stroke="#999999" points="940.88,-74.5 825.12,-74.5 825.12,-55.25 940.88,-55.25 940.88,-74.5"/>
<text text-anchor="middle" x="883" y="-61" font-family="Helvetica,sans-Serif" font-size="10.00">llvm/ADT/DenseMap.h</text>
</a>
</g>
</g>
<!-- Node1&#45;&gt;Node10 -->
<g id="edge9_Node000001_Node000010" class="edge">
<title>Node1&#45;&gt;Node10</title>
<g id="a_edge9_Node000001_Node000010"><a xlink:title=" ">
<path fill="none" stroke="#63b8ff" d="M669.06,-110.03C713.03,-100.96 780.7,-86.99 828.13,-77.2"/>
<polygon fill="#63b8ff" stroke="#63b8ff" points="828.55,-80.69 837.64,-75.24 827.14,-73.83 828.55,-80.69"/>
</a>
</g>
</g>
<!-- Node11 -->
<g id="Node000011" class="node">
<title>Node11</title>
<g id="a_Node000011"><a xlink:title=" ">
<polygon fill="#e0e0e0" stroke="#999999" points="1068.88,-74.5 959.12,-74.5 959.12,-55.25 1068.88,-55.25 1068.88,-74.5"/>
<text text-anchor="middle" x="1014" y="-61" font-family="Helvetica,sans-Serif" font-size="10.00">llvm/ADT/StringRef.h</text>
</a>
</g>
</g>
<!-- Node1&#45;&gt;Node11 -->
<g id="edge10_Node000001_Node000011" class="edge">
<title>Node1&#45;&gt;Node11</title>
<g id="a_edge10_Node000001_Node000011"><a xlink:title=" ">
<path fill="none" stroke="#63b8ff" d="M691.43,-110.03C763.01,-100.23 876.24,-84.73 947.75,-74.94"/>
<polygon fill="#63b8ff" stroke="#63b8ff" points="947.92,-78.45 957.36,-73.63 946.97,-71.52 947.92,-78.45"/>
</a>
</g>
</g>
<!-- Node3 -->
<g id="Node000003" class="node">
<title>Node3</title>
<g id="a_Node000003"><a xlink:title=" ">
<polygon fill="#e0e0e0" stroke="#999999" points="160,-19.25 0,-19.25 0,0 160,0 160,-19.25"/>
<text text-anchor="middle" x="80" y="-5.75" font-family="Helvetica,sans-Serif" font-size="10.00">llvm/ADT/STLFunctionalExtras.h</text>
</a>
</g>
</g>
<!-- Node2&#45;&gt;Node3 -->
<g id="edge2_Node000002_Node000003" class="edge">
<title>Node2&#45;&gt;Node3</title>
<g id="a_edge2_Node000002_Node000003"><a xlink:title=" ">
<path fill="none" stroke="#63b8ff" d="M200.4,-54.84C177.07,-46.27 141.76,-33.31 115.4,-23.63"/>
<polygon fill="#63b8ff" stroke="#63b8ff" points="116.73,-20.39 106.14,-20.22 114.32,-26.96 116.73,-20.39"/>
</a>
</g>
</g>
<!-- Node4 -->
<g id="Node000004" class="node">
<title>Node4</title>
<g id="a_Node000004"><a xlink:title=" ">
<polygon fill="#e0e0e0" stroke="#999999" points="272,-19.25 178,-19.25 178,0 272,0 272,-19.25"/>
<text text-anchor="middle" x="225" y="-5.75" font-family="Helvetica,sans-Serif" font-size="10.00">llvm/ADT/Twine.h</text>
</a>
</g>
</g>
<!-- Node2&#45;&gt;Node4 -->
<g id="edge3_Node000002_Node000004" class="edge">
<title>Node2&#45;&gt;Node4</title>
<g id="a_edge3_Node000002_Node000004"><a xlink:title=" ">
<path fill="none" stroke="#63b8ff" d="M225,-55.08C225,-48.57 225,-39.42 225,-31.12"/>
<polygon fill="#63b8ff" stroke="#63b8ff" points="228.5,-31.12 225,-21.12 221.5,-31.12 228.5,-31.12"/>
</a>
</g>
</g>
<!-- Node5 -->
<g id="Node000005" class="node">
<title>Node5</title>
<g id="a_Node000005"><a xlink:title=" ">
<polygon fill="#e0e0e0" stroke="#999999" points="431.62,-19.25 290.38,-19.25 290.38,0 431.62,0 431.62,-19.25"/>
<text text-anchor="middle" x="361" y="-5.75" font-family="Helvetica,sans-Serif" font-size="10.00">llvm/Support/ErrorHandling.h</text>
</a>
</g>
</g>
<!-- Node2&#45;&gt;Node5 -->
<g id="edge4_Node000002_Node000005" class="edge">
<title>Node2&#45;&gt;Node5</title>
<g id="a_edge4_Node000002_Node000005"><a xlink:title=" ">
<path fill="none" stroke="#63b8ff" d="M248.07,-54.84C269.76,-46.35 302.48,-33.54 327.13,-23.89"/>
<polygon fill="#63b8ff" stroke="#63b8ff" points="328.37,-27.16 336.41,-20.25 325.82,-20.64 328.37,-27.16"/>
</a>
</g>
</g>
</g>
</svg>
