<?xml version="1.0" encoding="UTF-8" standalone="no"?>
<!DOCTYPE svg PUBLIC "-//W3C//DTD SVG 1.1//EN"
 "http://www.w3.org/Graphics/SVG/1.1/DTD/svg11.dtd">
<!-- Generated by graphviz version 12.2.1 (20241206.2353)
 -->
<!-- Title: include/llzk/Dialect/Undef/IR/Ops.h Pages: 1 -->
<svg width="348pt" height="105pt"
 viewBox="0.00 0.00 347.75 105.00" xmlns="http://www.w3.org/2000/svg" xmlns:xlink="http://www.w3.org/1999/xlink">
<g id="graph0" class="graph" transform="scale(1 1) rotate(0) translate(4 101)">
<title>include/llzk/Dialect/Undef/IR/Ops.h</title>
<!-- Node1 -->
<g id="Node000001" class="node">
<title>Node1</title>
<g id="a_Node000001"><a xlink:title=" ">
<polygon fill="#999999" stroke="#666666" points="217.88,-97 119.38,-97 119.38,-66.5 217.88,-66.5 217.88,-97"/>
<text text-anchor="start" x="127.38" y="-83.5" font-family="Helvetica,sans-Serif" font-size="10.00">include/llzk/Dialect</text>
<text text-anchor="middle" x="168.62" y="-72.25" font-family="Helvetica,sans-Serif" font-size="10.00">/Undef/IR/Ops.h</text>
</a>
</g>
</g>
<!-- Node2 -->
<g id="Node000002" class="node">
<title>Node2</title>
<g id="a_Node000002"><a xlink:href="_array_2_i_r_2_ops_8cpp.html" target="_top" xlink:title=" ">
<polygon fill="white" stroke="#666666" points="99.25,-30.5 0,-30.5 0,0 99.25,0 99.25,-30.5"/>
<text text-anchor="start" x="8" y="-17" font-family="Helvetica,sans-Serif" font-size="10.00">lib/Dialect/Array/IR</text>
<text text-anchor="middle" x="49.62" y="-5.75" font-family="Helvetica,sans-Serif" font-size="10.00">/Ops.cpp</text>
</a>
</g>
</g>
<!-- Node1&#45;&gt;Node2 -->
<g id="edge1_Node000001_Node000002" class="edge">
<title>Node1&#45;&gt;Node2</title>
<g id="a_edge1_Node000001_Node000002"><a xlink:title=" ">
<path fill="none" stroke="#63b8ff" d="M131.55,-60.66C113.74,-51 92.78,-39.64 76.52,-30.83"/>
<polygon fill="#63b8ff" stroke="#63b8ff" points="129.83,-63.7 140.29,-65.39 133.17,-57.55 129.83,-63.7"/>
</a>
</g>
</g>
<!-- Node3 -->
<g id="Node000003" class="node">
<title>Node3</title>
<g id="a_Node000003"><a xlink:href="_undef_2_i_r_2_dialect_8cpp.html" target="_top" xlink:title=" ">
<polygon fill="white" stroke="#666666" points="219.75,-30.5 117.5,-30.5 117.5,0 219.75,0 219.75,-30.5"/>
<text text-anchor="start" x="125.5" y="-17" font-family="Helvetica,sans-Serif" font-size="10.00">lib/Dialect/Undef/IR</text>
<text text-anchor="middle" x="168.62" y="-5.75" font-family="Helvetica,sans-Serif" font-size="10.00">/Dialect.cpp</text>
</a>
</g>
</g>
<!-- Node1&#45;&gt;Node3 -->
<g id="edge2_Node000001_Node000003" class="edge">
<title>Node1&#45;&gt;Node3</title>
<g id="a_edge2_Node000001_Node000003"><a xlink:title=" ">
<path fill="none" stroke="#63b8ff" d="M168.62,-54.81C168.62,-46.64 168.62,-37.91 168.62,-30.83"/>
<polygon fill="#63b8ff" stroke="#63b8ff" points="165.13,-54.6 168.63,-64.6 172.13,-54.6 165.13,-54.6"/>
</a>
</g>
</g>
<!-- Node4 -->
<g id="Node000004" class="node">
<title>Node4</title>
<g id="a_Node000004"><a xlink:href="_undef_2_i_r_2_ops_8cpp.html" target="_top" xlink:title=" ">
<polygon fill="white" stroke="#666666" points="339.75,-30.5 237.5,-30.5 237.5,0 339.75,0 339.75,-30.5"/>
<text text-anchor="start" x="245.5" y="-17" font-family="Helvetica,sans-Serif" font-size="10.00">lib/Dialect/Undef/IR</text>
<text text-anchor="middle" x="288.62" y="-5.75" font-family="Helvetica,sans-Serif" font-size="10.00">/Ops.cpp</text>
</a>
</g>
</g>
<!-- Node1&#45;&gt;Node4 -->
<g id="edge3_Node000001_Node000004" class="edge">
<title>Node1&#45;&gt;Node4</title>
<g id="a_edge3_Node000001_Node000004"><a xlink:title=" ">
<path fill="none" stroke="#63b8ff" d="M205.75,-60.79C223.77,-51.11 245.03,-39.68 261.5,-30.83"/>
<polygon fill="#63b8ff" stroke="#63b8ff" points="204.34,-57.58 197.19,-65.4 207.65,-63.75 204.34,-57.58"/>
</a>
</g>
</g>
</g>
</svg>
