<?xml version="1.0" encoding="UTF-8" standalone="no"?>
<!DOCTYPE svg PUBLIC "-//W3C//DTD SVG 1.1//EN"
 "http://www.w3.org/Graphics/SVG/1.1/DTD/svg11.dtd">
<!-- Generated by graphviz version 12.2.1 (20241206.2353)
 -->
<!-- Title: lib/Dialect/Undef/IR/Dialect.cpp Pages: 1 -->
<svg width="581pt" height="238pt"
 viewBox="0.00 0.00 580.62 238.00" xmlns="http://www.w3.org/2000/svg" xmlns:xlink="http://www.w3.org/1999/xlink">
<g id="graph0" class="graph" transform="scale(1 1) rotate(0) translate(4 234)">
<title>lib/Dialect/Undef/IR/Dialect.cpp</title>
<!-- Node1 -->
<g id="Node000001" class="node">
<title>Node1</title>
<g id="a_Node000001"><a xlink:title=" ">
<polygon fill="#999999" stroke="#666666" points="348.75,-230 246.5,-230 246.5,-199.5 348.75,-199.5 348.75,-230"/>
<text text-anchor="start" x="254.5" y="-216.5" font-family="Helvetica,sans-Serif" font-size="10.00">lib/Dialect/Undef/IR</text>
<text text-anchor="middle" x="297.62" y="-205.25" font-family="Helvetica,sans-Serif" font-size="10.00">/Dialect.cpp</text>
</a>
</g>
</g>
<!-- Node2 -->
<g id="Node000002" class="node">
<title>Node2</title>
<g id="a_Node000002"><a xlink:href="_versioning_8h.html" target="_top" xlink:title=" ">
<polygon fill="white" stroke="#666666" points="190.88,-163.5 86.38,-163.5 86.38,-133 190.88,-133 190.88,-163.5"/>
<text text-anchor="start" x="94.38" y="-150" font-family="Helvetica,sans-Serif" font-size="10.00">llzk/Dialect/LLZK/IR</text>
<text text-anchor="middle" x="138.62" y="-138.75" font-family="Helvetica,sans-Serif" font-size="10.00">/Versioning.h</text>
</a>
</g>
</g>
<!-- Node1&#45;&gt;Node2 -->
<g id="edge1_Node000001_Node000002" class="edge">
<title>Node1&#45;&gt;Node2</title>
<g id="a_edge1_Node000001_Node000002"><a xlink:title=" ">
<path fill="none" stroke="#63b8ff" d="M261.55,-199.11C238.96,-189.95 209.63,-178.05 185.28,-168.18"/>
<polygon fill="#63b8ff" stroke="#63b8ff" points="186.82,-165.02 176.24,-164.51 184.19,-171.51 186.82,-165.02"/>
</a>
</g>
</g>
<!-- Node4 -->
<g id="Node000004" class="node">
<title>Node4</title>
<g id="a_Node000004"><a xlink:href="_undef_2_i_r_2_dialect_8h.html" target="_top" xlink:title=" ">
<polygon fill="white" stroke="#666666" points="307.62,-97 213.62,-97 213.62,-66.5 307.62,-66.5 307.62,-97"/>
<text text-anchor="start" x="221.62" y="-83.5" font-family="Helvetica,sans-Serif" font-size="10.00">llzk/Dialect/Undef</text>
<text text-anchor="middle" x="260.62" y="-72.25" font-family="Helvetica,sans-Serif" font-size="10.00">/IR/Dialect.h</text>
</a>
</g>
</g>
<!-- Node1&#45;&gt;Node4 -->
<g id="edge3_Node000001_Node000004" class="edge">
<title>Node1&#45;&gt;Node4</title>
<g id="a_edge3_Node000001_Node000004"><a xlink:title=" ">
<path fill="none" stroke="#63b8ff" d="M273.29,-199.03C261.36,-190.35 248.17,-178.17 241.62,-163.5 233.58,-145.48 239.59,-123.63 246.91,-107.2"/>
<polygon fill="#63b8ff" stroke="#63b8ff" points="249.85,-109.16 251.11,-98.64 243.56,-106.07 249.85,-109.16"/>
</a>
</g>
</g>
<!-- Node7 -->
<g id="Node000007" class="node">
<title>Node7</title>
<g id="a_Node000007"><a xlink:href="_undef_2_i_r_2_ops_8h.html" target="_top" xlink:title=" ">
<polygon fill="white" stroke="#666666" points="344.62,-163.5 250.62,-163.5 250.62,-133 344.62,-133 344.62,-163.5"/>
<text text-anchor="start" x="258.62" y="-150" font-family="Helvetica,sans-Serif" font-size="10.00">llzk/Dialect/Undef</text>
<text text-anchor="middle" x="297.62" y="-138.75" font-family="Helvetica,sans-Serif" font-size="10.00">/IR/Ops.h</text>
</a>
</g>
</g>
<!-- Node1&#45;&gt;Node7 -->
<g id="edge6_Node000001_Node000007" class="edge">
<title>Node1&#45;&gt;Node7</title>
<g id="a_edge6_Node000001_Node000007"><a xlink:title=" ">
<path fill="none" stroke="#63b8ff" d="M297.62,-199.11C297.62,-192.02 297.62,-183.29 297.62,-175.13"/>
<polygon fill="#63b8ff" stroke="#63b8ff" points="301.13,-175.34 297.63,-165.34 294.13,-175.34 301.13,-175.34"/>
</a>
</g>
</g>
<!-- Node9 -->
<g id="Node000009" class="node">
<title>Node9</title>
<g id="a_Node000009"><a xlink:href="_undef_2_i_r_2_dialect_8cpp_8inc.html" target="_top" xlink:title=" ">
<polygon fill="white" stroke="#666666" points="460.5,-163.5 362.75,-163.5 362.75,-133 460.5,-133 460.5,-163.5"/>
<text text-anchor="start" x="370.75" y="-150" font-family="Helvetica,sans-Serif" font-size="10.00">llzk/Dialect/Undef</text>
<text text-anchor="middle" x="411.62" y="-138.75" font-family="Helvetica,sans-Serif" font-size="10.00">/IR/Dialect.cpp.inc</text>
</a>
</g>
</g>
<!-- Node1&#45;&gt;Node9 -->
<g id="edge9_Node000001_Node000009" class="edge">
<title>Node1&#45;&gt;Node9</title>
<g id="a_edge9_Node000001_Node000009"><a xlink:title=" ">
<path fill="none" stroke="#63b8ff" d="M323.49,-199.11C339.09,-190.29 359.17,-178.93 376.22,-169.28"/>
<polygon fill="#63b8ff" stroke="#63b8ff" points="377.56,-172.54 384.54,-164.57 374.11,-166.45 377.56,-172.54"/>
</a>
</g>
</g>
<!-- Node10 -->
<g id="Node000010" class="node">
<title>Node10</title>
<g id="a_Node000010"><a xlink:href="_undef_2_i_r_2_ops_8cpp_8inc.html" target="_top" xlink:title=" ">
<polygon fill="white" stroke="#666666" points="572.62,-163.5 478.62,-163.5 478.62,-133 572.62,-133 572.62,-163.5"/>
<text text-anchor="start" x="486.62" y="-150" font-family="Helvetica,sans-Serif" font-size="10.00">llzk/Dialect/Undef</text>
<text text-anchor="middle" x="525.62" y="-138.75" font-family="Helvetica,sans-Serif" font-size="10.00">/IR/Ops.cpp.inc</text>
</a>
</g>
</g>
<!-- Node1&#45;&gt;Node10 -->
<g id="edge10_Node000001_Node000010" class="edge">
<title>Node1&#45;&gt;Node10</title>
<g id="a_edge10_Node000001_Node000010"><a xlink:title=" ">
<path fill="none" stroke="#63b8ff" d="M349.08,-199.19C384.19,-189.26 430.77,-176.08 467.27,-165.76"/>
<polygon fill="#63b8ff" stroke="#63b8ff" points="468.12,-169.16 476.79,-163.07 466.21,-162.42 468.12,-169.16"/>
</a>
</g>
</g>
<!-- Node3 -->
<g id="Node000003" class="node">
<title>Node3</title>
<g id="a_Node000003"><a xlink:title=" ">
<polygon fill="#e0e0e0" stroke="#999999" points="195.25,-91.38 0,-91.38 0,-72.12 195.25,-72.12 195.25,-91.38"/>
<text text-anchor="middle" x="97.62" y="-77.88" font-family="Helvetica,sans-Serif" font-size="10.00">mlir/Bytecode/BytecodeImplementation.h</text>
</a>
</g>
</g>
<!-- Node2&#45;&gt;Node3 -->
<g id="edge2_Node000002_Node000003" class="edge">
<title>Node2&#45;&gt;Node3</title>
<g id="a_edge2_Node000002_Node000003"><a xlink:title=" ">
<path fill="none" stroke="#63b8ff" d="M129.32,-132.61C123.36,-123.23 115.57,-110.99 109.21,-100.98"/>
<polygon fill="#63b8ff" stroke="#63b8ff" points="112.36,-99.41 104.05,-92.85 106.46,-103.17 112.36,-99.41"/>
</a>
</g>
</g>
<!-- Node5 -->
<g id="Node000005" class="node">
<title>Node5</title>
<g id="a_Node000005"><a xlink:title=" ">
<polygon fill="#e0e0e0" stroke="#999999" points="253.38,-24.88 151.88,-24.88 151.88,-5.63 253.38,-5.63 253.38,-24.88"/>
<text text-anchor="middle" x="202.62" y="-11.38" font-family="Helvetica,sans-Serif" font-size="10.00">mlir/IR/BuiltinOps.h</text>
</a>
</g>
</g>
<!-- Node4&#45;&gt;Node5 -->
<g id="edge4_Node000004_Node000005" class="edge">
<title>Node4&#45;&gt;Node5</title>
<g id="a_edge4_Node000004_Node000005"><a xlink:title=" ">
<path fill="none" stroke="#63b8ff" d="M247.46,-66.11C238.76,-56.44 227.32,-43.71 218.17,-33.54"/>
<polygon fill="#63b8ff" stroke="#63b8ff" points="220.86,-31.29 211.57,-26.2 215.65,-35.97 220.86,-31.29"/>
</a>
</g>
</g>
<!-- Node6 -->
<g id="Node000006" class="node">
<title>Node6</title>
<g id="a_Node000006"><a xlink:href="_undef_2_i_r_2_dialect_8h_8inc.html" target="_top" xlink:title=" ">
<polygon fill="white" stroke="#666666" points="365.62,-30.5 271.62,-30.5 271.62,0 365.62,0 365.62,-30.5"/>
<text text-anchor="start" x="279.62" y="-17" font-family="Helvetica,sans-Serif" font-size="10.00">llzk/Dialect/Undef</text>
<text text-anchor="middle" x="318.62" y="-5.75" font-family="Helvetica,sans-Serif" font-size="10.00">/IR/Dialect.h.inc</text>
</a>
</g>
</g>
<!-- Node4&#45;&gt;Node6 -->
<g id="edge5_Node000004_Node000006" class="edge">
<title>Node4&#45;&gt;Node6</title>
<g id="a_edge5_Node000004_Node000006"><a xlink:title=" ">
<path fill="none" stroke="#63b8ff" d="M273.79,-66.11C280.91,-58.2 289.86,-48.24 297.89,-39.3"/>
<polygon fill="#63b8ff" stroke="#63b8ff" points="300.42,-41.73 304.5,-31.95 295.21,-37.05 300.42,-41.73"/>
</a>
</g>
</g>
<!-- Node7&#45;&gt;Node4 -->
<g id="edge7_Node000007_Node000004" class="edge">
<title>Node7&#45;&gt;Node4</title>
<g id="a_edge7_Node000007_Node000004"><a xlink:title=" ">
<path fill="none" stroke="#63b8ff" d="M289.23,-132.61C284.92,-125.11 279.57,-115.77 274.66,-107.21"/>
<polygon fill="#63b8ff" stroke="#63b8ff" points="277.75,-105.57 269.74,-98.64 271.68,-109.06 277.75,-105.57"/>
</a>
</g>
</g>
<!-- Node8 -->
<g id="Node000008" class="node">
<title>Node8</title>
<g id="a_Node000008"><a xlink:href="_undef_2_i_r_2_ops_8h_8inc.html" target="_top" xlink:title=" ">
<polygon fill="white" stroke="#666666" points="419.62,-97 325.62,-97 325.62,-66.5 419.62,-66.5 419.62,-97"/>
<text text-anchor="start" x="333.62" y="-83.5" font-family="Helvetica,sans-Serif" font-size="10.00">llzk/Dialect/Undef</text>
<text text-anchor="middle" x="372.62" y="-72.25" font-family="Helvetica,sans-Serif" font-size="10.00">/IR/Ops.h.inc</text>
</a>
</g>
</g>
<!-- Node7&#45;&gt;Node8 -->
<g id="edge8_Node000007_Node000008" class="edge">
<title>Node7&#45;&gt;Node8</title>
<g id="a_edge8_Node000007_Node000008"><a xlink:title=" ">
<path fill="none" stroke="#63b8ff" d="M314.64,-132.61C324.23,-124.37 336.4,-113.9 347.11,-104.69"/>
<polygon fill="#63b8ff" stroke="#63b8ff" points="349.23,-107.49 354.53,-98.32 344.66,-102.18 349.23,-107.49"/>
</a>
</g>
</g>
</g>
</svg>
