<?xml version="1.0" encoding="UTF-8" standalone="no"?>
<!DOCTYPE svg PUBLIC "-//W3C//DTD SVG 1.1//EN"
 "http://www.w3.org/Graphics/SVG/1.1/DTD/svg11.dtd">
<!-- Generated by graphviz version 12.2.1 (20241206.2353)
 -->
<!-- Title: include/llzk/Dialect/Undef/IR/Dialect.h Pages: 1 -->
<svg width="222pt" height="105pt"
 viewBox="0.00 0.00 221.75 105.00" xmlns="http://www.w3.org/2000/svg" xmlns:xlink="http://www.w3.org/1999/xlink">
<g id="graph0" class="graph" transform="scale(1 1) rotate(0) translate(4 101)">
<title>include/llzk/Dialect/Undef/IR/Dialect.h</title>
<!-- Node1 -->
<g id="Node000001" class="node">
<title>Node1</title>
<g id="a_Node000001"><a xlink:title=" ">
<polygon fill="#999999" stroke="#666666" points="159.12,-97 58.38,-97 58.38,-66.5 159.12,-66.5 159.12,-97"/>
<text text-anchor="start" x="66.38" y="-83.5" font-family="Helvetica,sans-Serif" font-size="10.00">include/llzk/Dialect</text>
<text text-anchor="middle" x="108.75" y="-72.25" font-family="Helvetica,sans-Serif" font-size="10.00">/Undef/IR/Dialect.h</text>
</a>
</g>
</g>
<!-- Node2 -->
<g id="Node000002" class="node">
<title>Node2</title>
<g id="a_Node000002"><a xlink:title=" ">
<polygon fill="#e0e0e0" stroke="#999999" points="101.5,-24.88 0,-24.88 0,-5.63 101.5,-5.63 101.5,-24.88"/>
<text text-anchor="middle" x="50.75" y="-11.38" font-family="Helvetica,sans-Serif" font-size="10.00">mlir/IR/BuiltinOps.h</text>
</a>
</g>
</g>
<!-- Node1&#45;&gt;Node2 -->
<g id="edge1_Node000001_Node000002" class="edge">
<title>Node1&#45;&gt;Node2</title>
<g id="a_edge1_Node000001_Node000002"><a xlink:title=" ">
<path fill="none" stroke="#63b8ff" d="M95.59,-66.11C86.89,-56.44 75.44,-43.71 66.3,-33.54"/>
<polygon fill="#63b8ff" stroke="#63b8ff" points="68.98,-31.29 59.7,-26.2 63.78,-35.97 68.98,-31.29"/>
</a>
</g>
</g>
<!-- Node3 -->
<g id="Node000003" class="node">
<title>Node3</title>
<g id="a_Node000003"><a xlink:href="_undef_2_i_r_2_dialect_8h_8inc.html" target="_top" xlink:title=" ">
<polygon fill="white" stroke="#666666" points="213.75,-30.5 119.75,-30.5 119.75,0 213.75,0 213.75,-30.5"/>
<text text-anchor="start" x="127.75" y="-17" font-family="Helvetica,sans-Serif" font-size="10.00">llzk/Dialect/Undef</text>
<text text-anchor="middle" x="166.75" y="-5.75" font-family="Helvetica,sans-Serif" font-size="10.00">/IR/Dialect.h.inc</text>
</a>
</g>
</g>
<!-- Node1&#45;&gt;Node3 -->
<g id="edge2_Node000001_Node000003" class="edge">
<title>Node1&#45;&gt;Node3</title>
<g id="a_edge2_Node000001_Node000003"><a xlink:title=" ">
<path fill="none" stroke="#63b8ff" d="M121.91,-66.11C129.03,-58.2 137.99,-48.24 146.02,-39.3"/>
<polygon fill="#63b8ff" stroke="#63b8ff" points="148.55,-41.73 152.63,-31.95 143.34,-37.05 148.55,-41.73"/>
</a>
</g>
</g>
</g>
</svg>
