<?xml version="1.0" encoding="UTF-8" standalone="no"?>
<!DOCTYPE svg PUBLIC "-//W3C//DTD SVG 1.1//EN"
 "http://www.w3.org/Graphics/SVG/1.1/DTD/svg11.dtd">
<!-- Generated by graphviz version 12.2.1 (20241206.2353)
 -->
<!-- Title: build/include/llzk/Dialect/Undef/IR/Dialect.h.inc Pages: 1 -->
<svg width="1956pt" height="327pt"
 viewBox="0.00 0.00 1956.38 327.00" xmlns="http://www.w3.org/2000/svg" xmlns:xlink="http://www.w3.org/1999/xlink">
<g id="graph0" class="graph" transform="scale(1 1) rotate(0) translate(4 323)">
<title>build/include/llzk/Dialect/Undef/IR/Dialect.h.inc</title>
<!-- Node1 -->
<g id="Node000001" class="node">
<title>Node1</title>
<g id="a_Node000001"><a xlink:title=" ">
<polygon fill="#999999" stroke="#666666" points="621.62,-319 471.38,-319 471.38,-288.5 621.62,-288.5 621.62,-319"/>
<text text-anchor="start" x="479.38" y="-305.5" font-family="Helvetica,sans-Serif" font-size="10.00">build/include/llzk</text>
<text text-anchor="middle" x="546.5" y="-294.25" font-family="Helvetica,sans-Serif" font-size="10.00">/Dialect/Undef/IR/Dialect.h.inc</text>
</a>
</g>
</g>
<!-- Node2 -->
<g id="Node000002" class="node">
<title>Node2</title>
<g id="a_Node000002"><a xlink:href="_undef_2_i_r_2_dialect_8h.html" target="_top" xlink:title=" ">
<polygon fill="white" stroke="#666666" points="596.88,-252.5 496.12,-252.5 496.12,-222 596.88,-222 596.88,-252.5"/>
<text text-anchor="start" x="504.12" y="-239" font-family="Helvetica,sans-Serif" font-size="10.00">include/llzk/Dialect</text>
<text text-anchor="middle" x="546.5" y="-227.75" font-family="Helvetica,sans-Serif" font-size="10.00">/Undef/IR/Dialect.h</text>
</a>
</g>
</g>
<!-- Node1&#45;&gt;Node2 -->
<g id="edge1_Node000001_Node000002" class="edge">
<title>Node1&#45;&gt;Node2</title>
<g id="a_edge1_Node000001_Node000002"><a xlink:title=" ">
<path fill="none" stroke="#63b8ff" d="M546.5,-276.81C546.5,-268.64 546.5,-259.91 546.5,-252.83"/>
<polygon fill="#63b8ff" stroke="#63b8ff" points="543,-276.6 546.5,-286.6 550,-276.6 543,-276.6"/>
</a>
</g>
</g>
<!-- Node3 -->
<g id="Node000003" class="node">
<title>Node3</title>
<g id="a_Node000003"><a xlink:href="_undef_2_i_r_2_ops_8h.html" target="_top" xlink:title=" ">
<polygon fill="white" stroke="#666666" points="360.75,-186 262.25,-186 262.25,-155.5 360.75,-155.5 360.75,-186"/>
<text text-anchor="start" x="270.25" y="-172.5" font-family="Helvetica,sans-Serif" font-size="10.00">include/llzk/Dialect</text>
<text text-anchor="middle" x="311.5" y="-161.25" font-family="Helvetica,sans-Serif" font-size="10.00">/Undef/IR/Ops.h</text>
</a>
</g>
</g>
<!-- Node2&#45;&gt;Node3 -->
<g id="edge2_Node000002_Node000003" class="edge">
<title>Node2&#45;&gt;Node3</title>
<g id="a_edge2_Node000002_Node000003"><a xlink:title=" ">
<path fill="none" stroke="#63b8ff" d="M485.18,-219.42C446.46,-208.79 397.1,-195.24 360.9,-185.31"/>
<polygon fill="#63b8ff" stroke="#63b8ff" points="483.77,-222.66 494.34,-221.93 485.62,-215.91 483.77,-222.66"/>
</a>
</g>
</g>
<!-- Node5 -->
<g id="Node000005" class="node">
<title>Node5</title>
<g id="a_Node000005"><a xlink:href="_undef_2_i_r_2_dialect_8cpp.html" target="_top" xlink:title=" ">
<polygon fill="white" stroke="#666666" points="411.62,-113.88 309.38,-113.88 309.38,-83.38 411.62,-83.38 411.62,-113.88"/>
<text text-anchor="start" x="317.38" y="-100.38" font-family="Helvetica,sans-Serif" font-size="10.00">lib/Dialect/Undef/IR</text>
<text text-anchor="middle" x="360.5" y="-89.12" font-family="Helvetica,sans-Serif" font-size="10.00">/Dialect.cpp</text>
</a>
</g>
</g>
<!-- Node2&#45;&gt;Node5 -->
<g id="edge31_Node000002_Node000005" class="edge">
<title>Node2&#45;&gt;Node5</title>
<g id="a_edge31_Node000002_Node000005"><a xlink:title=" ">
<path fill="none" stroke="#63b8ff" d="M517.55,-214.99C479.48,-187.02 413.55,-138.59 380.54,-114.35"/>
<polygon fill="#63b8ff" stroke="#63b8ff" points="515.24,-217.63 525.37,-220.73 519.39,-211.99 515.24,-217.63"/>
</a>
</g>
</g>
<!-- Node7 -->
<g id="Node000007" class="node">
<title>Node7</title>
<g id="a_Node000007"><a xlink:href="_pass_base_8h.html" target="_top" xlink:title=" ">
<polygon fill="white" stroke="#666666" points="798.75,-180.38 652.25,-180.38 652.25,-161.12 798.75,-161.12 798.75,-180.38"/>
<text text-anchor="middle" x="725.5" y="-166.88" font-family="Helvetica,sans-Serif" font-size="10.00">include/llzk/Pass/PassBase.h</text>
</a>
</g>
</g>
<!-- Node2&#45;&gt;Node7 -->
<g id="edge6_Node000002_Node000007" class="edge">
<title>Node2&#45;&gt;Node7</title>
<g id="a_edge6_Node000002_Node000007"><a xlink:title=" ">
<path fill="none" stroke="#63b8ff" d="M597.68,-217.81C631.25,-205.71 673.7,-190.41 700.23,-180.85"/>
<polygon fill="#63b8ff" stroke="#63b8ff" points="596.76,-214.42 588.54,-221.1 599.14,-221 596.76,-214.42"/>
</a>
</g>
</g>
<!-- Node26 -->
<g id="Node000026" class="node">
<title>Node26</title>
<g id="a_Node000026"><a xlink:href="_init_dialects_8cpp.html" target="_top" xlink:title=" ">
<polygon fill="white" stroke="#666666" points="947.88,-180.38 817.12,-180.38 817.12,-161.12 947.88,-161.12 947.88,-180.38"/>
<text text-anchor="middle" x="882.5" y="-166.88" font-family="Helvetica,sans-Serif" font-size="10.00">lib/Dialect/InitDialects.cpp</text>
</a>
</g>
</g>
<!-- Node2&#45;&gt;Node26 -->
<g id="edge30_Node000002_Node000026" class="edge">
<title>Node2&#45;&gt;Node26</title>
<g id="a_edge30_Node000002_Node000026"><a xlink:title=" ">
<path fill="none" stroke="#63b8ff" d="M608.15,-224.41C673.66,-211.84 775.8,-192.23 835.23,-180.82"/>
<polygon fill="#63b8ff" stroke="#63b8ff" points="607.81,-220.92 598.65,-226.24 609.13,-227.79 607.81,-220.92"/>
</a>
</g>
</g>
<!-- Node4 -->
<g id="Node000004" class="node">
<title>Node4</title>
<g id="a_Node000004"><a xlink:href="_array_2_i_r_2_ops_8cpp.html" target="_top" xlink:title=" ">
<polygon fill="white" stroke="#666666" points="171.12,-113.88 71.88,-113.88 71.88,-83.38 171.12,-83.38 171.12,-113.88"/>
<text text-anchor="start" x="79.88" y="-100.38" font-family="Helvetica,sans-Serif" font-size="10.00">lib/Dialect/Array/IR</text>
<text text-anchor="middle" x="121.5" y="-89.12" font-family="Helvetica,sans-Serif" font-size="10.00">/Ops.cpp</text>
</a>
</g>
</g>
<!-- Node3&#45;&gt;Node4 -->
<g id="edge3_Node000003_Node000004" class="edge">
<title>Node3&#45;&gt;Node4</title>
<g id="a_edge3_Node000003_Node000004"><a xlink:title=" ">
<path fill="none" stroke="#63b8ff" d="M261,-151.11C229.78,-139.59 190.27,-125.01 161.28,-114.31"/>
<polygon fill="#63b8ff" stroke="#63b8ff" points="259.66,-154.35 270.25,-154.53 262.08,-147.78 259.66,-154.35"/>
</a>
</g>
</g>
<!-- Node3&#45;&gt;Node5 -->
<g id="edge4_Node000003_Node000005" class="edge">
<title>Node3&#45;&gt;Node5</title>
<g id="a_edge4_Node000003_Node000005"><a xlink:title=" ">
<path fill="none" stroke="#63b8ff" d="M328.05,-146.06C335.45,-135.48 343.92,-123.35 350.36,-114.14"/>
<polygon fill="#63b8ff" stroke="#63b8ff" points="325.38,-143.78 322.52,-153.98 331.12,-147.79 325.38,-143.78"/>
</a>
</g>
</g>
<!-- Node6 -->
<g id="Node000006" class="node">
<title>Node6</title>
<g id="a_Node000006"><a xlink:href="_undef_2_i_r_2_ops_8cpp.html" target="_top" xlink:title=" ">
<polygon fill="white" stroke="#666666" points="291.62,-113.88 189.38,-113.88 189.38,-83.38 291.62,-83.38 291.62,-113.88"/>
<text text-anchor="start" x="197.38" y="-100.38" font-family="Helvetica,sans-Serif" font-size="10.00">lib/Dialect/Undef/IR</text>
<text text-anchor="middle" x="240.5" y="-89.12" font-family="Helvetica,sans-Serif" font-size="10.00">/Ops.cpp</text>
</a>
</g>
</g>
<!-- Node3&#45;&gt;Node6 -->
<g id="edge5_Node000003_Node000006" class="edge">
<title>Node3&#45;&gt;Node6</title>
<g id="a_edge5_Node000003_Node000006"><a xlink:title=" ">
<path fill="none" stroke="#63b8ff" d="M288.82,-147.35C277.81,-136.48 264.9,-123.72 255.19,-114.14"/>
<polygon fill="#63b8ff" stroke="#63b8ff" points="286.14,-149.62 295.71,-154.16 291.06,-144.64 286.14,-149.62"/>
</a>
</g>
</g>
<!-- Node8 -->
<g id="Node000008" class="node">
<title>Node8</title>
<g id="a_Node000008"><a xlink:href="_analysis_passes_8h.html" target="_top" xlink:title=" ">
<polygon fill="white" stroke="#666666" points="535.12,-113.88 429.88,-113.88 429.88,-83.38 535.12,-83.38 535.12,-113.88"/>
<text text-anchor="start" x="437.88" y="-100.38" font-family="Helvetica,sans-Serif" font-size="10.00">include/llzk/Analysis</text>
<text text-anchor="middle" x="482.5" y="-89.12" font-family="Helvetica,sans-Serif" font-size="10.00">/AnalysisPasses.h</text>
</a>
</g>
</g>
<!-- Node7&#45;&gt;Node8 -->
<g id="edge7_Node000007_Node000008" class="edge">
<title>Node7&#45;&gt;Node8</title>
<g id="a_edge7_Node000007_Node000008"><a xlink:title=" ">
<path fill="none" stroke="#63b8ff" d="M680.52,-157.79C643.81,-147.9 590.66,-133.3 544.5,-119.5 538.98,-117.85 533.19,-116.07 527.47,-114.27"/>
<polygon fill="#63b8ff" stroke="#63b8ff" points="679.33,-161.1 689.9,-160.31 681.15,-154.34 679.33,-161.1"/>
</a>
</g>
</g>
<!-- Node13 -->
<g id="Node000013" class="node">
<title>Node13</title>
<g id="a_Node000013"><a xlink:href="_array_2_transforms_2_transformation_passes_8h.html" target="_top" xlink:title=" ">
<polygon fill="white" stroke="#666666" points="716,-119.5 553,-119.5 553,-77.75 716,-77.75 716,-119.5"/>
<text text-anchor="start" x="561" y="-106" font-family="Helvetica,sans-Serif" font-size="10.00">include/llzk/Dialect</text>
<text text-anchor="start" x="561" y="-94.75" font-family="Helvetica,sans-Serif" font-size="10.00">/Array/Transforms/Transformation</text>
<text text-anchor="middle" x="634.5" y="-83.5" font-family="Helvetica,sans-Serif" font-size="10.00">Passes.h</text>
</a>
</g>
</g>
<!-- Node7&#45;&gt;Node13 -->
<g id="edge12_Node000007_Node000013" class="edge">
<title>Node7&#45;&gt;Node13</title>
<g id="a_edge12_Node000007_Node000013"><a xlink:title=" ">
<path fill="none" stroke="#63b8ff" d="M704.87,-153.86C691.82,-143.79 674.82,-130.69 660.8,-119.89"/>
<polygon fill="#63b8ff" stroke="#63b8ff" points="702.72,-156.61 712.78,-159.94 706.99,-151.07 702.72,-156.61"/>
</a>
</g>
</g>
<!-- Node15 -->
<g id="Node000015" class="node">
<title>Node15</title>
<g id="a_Node000015"><a xlink:href="_inline_includes_pass_8h.html" target="_top" xlink:title=" ">
<polygon fill="white" stroke="#666666" points="900.5,-119.5 734.5,-119.5 734.5,-77.75 900.5,-77.75 900.5,-119.5"/>
<text text-anchor="start" x="742.5" y="-106" font-family="Helvetica,sans-Serif" font-size="10.00">include/llzk/Dialect</text>
<text text-anchor="start" x="742.5" y="-94.75" font-family="Helvetica,sans-Serif" font-size="10.00">/Include/Transforms/InlineIncludes</text>
<text text-anchor="middle" x="817.5" y="-83.5" font-family="Helvetica,sans-Serif" font-size="10.00">Pass.h</text>
</a>
</g>
</g>
<!-- Node7&#45;&gt;Node15 -->
<g id="edge15_Node000007_Node000015" class="edge">
<title>Node7&#45;&gt;Node15</title>
<g id="a_edge15_Node000007_Node000015"><a xlink:title=" ">
<path fill="none" stroke="#63b8ff" d="M745.97,-154.15C759.21,-144.05 776.6,-130.8 790.91,-119.89"/>
<polygon fill="#63b8ff" stroke="#63b8ff" points="744.19,-151.11 738.36,-159.95 748.43,-156.67 744.19,-151.11"/>
</a>
</g>
</g>
<!-- Node17 -->
<g id="Node000017" class="node">
<title>Node17</title>
<g id="a_Node000017"><a xlink:href="_polymorphic_2_transforms_2_transformation_passes_8h.html" target="_top" xlink:title=" ">
<polygon fill="white" stroke="#666666" points="1044.25,-119.5 918.75,-119.5 918.75,-77.75 1044.25,-77.75 1044.25,-119.5"/>
<text text-anchor="start" x="926.75" y="-106" font-family="Helvetica,sans-Serif" font-size="10.00">include/llzk/Dialect</text>
<text text-anchor="start" x="926.75" y="-94.75" font-family="Helvetica,sans-Serif" font-size="10.00">/Polymorphic/Transforms</text>
<text text-anchor="middle" x="981.5" y="-83.5" font-family="Helvetica,sans-Serif" font-size="10.00">/TransformationPasses.h</text>
</a>
</g>
</g>
<!-- Node7&#45;&gt;Node17 -->
<g id="edge18_Node000007_Node000017" class="edge">
<title>Node7&#45;&gt;Node17</title>
<g id="a_edge18_Node000007_Node000017"><a xlink:title=" ">
<path fill="none" stroke="#63b8ff" d="M769.73,-157.71C807.01,-147.55 861.75,-132.61 909.5,-119.5 912.38,-118.71 915.32,-117.9 918.29,-117.09"/>
<polygon fill="#63b8ff" stroke="#63b8ff" points="768.94,-154.3 760.21,-160.3 770.78,-161.05 768.94,-154.3"/>
</a>
</g>
</g>
<!-- Node19 -->
<g id="Node000019" class="node">
<title>Node19</title>
<g id="a_Node000019"><a xlink:href="_l_l_z_k_transformation_passes_8h.html" target="_top" xlink:title=" ">
<polygon fill="white" stroke="#666666" points="1266.88,-113.88 1118.12,-113.88 1118.12,-83.38 1266.88,-83.38 1266.88,-113.88"/>
<text text-anchor="start" x="1126.12" y="-100.38" font-family="Helvetica,sans-Serif" font-size="10.00">include/llzk/Transforms</text>
<text text-anchor="middle" x="1192.5" y="-89.12" font-family="Helvetica,sans-Serif" font-size="10.00">/LLZKTransformationPasses.h</text>
</a>
</g>
</g>
<!-- Node7&#45;&gt;Node19 -->
<g id="edge21_Node000007_Node000019" class="edge">
<title>Node7&#45;&gt;Node19</title>
<g id="a_edge21_Node000007_Node000019"><a xlink:title=" ">
<path fill="none" stroke="#63b8ff" d="M788.54,-158.75C795.27,-157.63 802.02,-156.53 808.5,-155.5 838.32,-150.77 1014.64,-125.27 1117.69,-110.41"/>
<polygon fill="#63b8ff" stroke="#63b8ff" points="788.04,-155.29 778.76,-160.4 789.2,-162.19 788.04,-155.29"/>
</a>
</g>
</g>
<!-- Node24 -->
<g id="Node000024" class="node">
<title>Node24</title>
<g id="a_Node000024"><a xlink:href="_l_l_z_k_validation_passes_8h.html" target="_top" xlink:title=" ">
<polygon fill="white" stroke="#666666" points="1410.25,-113.88 1284.75,-113.88 1284.75,-83.38 1410.25,-83.38 1410.25,-113.88"/>
<text text-anchor="start" x="1292.75" y="-100.38" font-family="Helvetica,sans-Serif" font-size="10.00">include/llzk/Validators</text>
<text text-anchor="middle" x="1347.5" y="-89.12" font-family="Helvetica,sans-Serif" font-size="10.00">/LLZKValidationPasses.h</text>
</a>
</g>
</g>
<!-- Node7&#45;&gt;Node24 -->
<g id="edge27_Node000007_Node000024" class="edge">
<title>Node7&#45;&gt;Node24</title>
<g id="a_edge27_Node000007_Node000024"><a xlink:title=" ">
<path fill="none" stroke="#63b8ff" d="M785.36,-158.79C793.13,-157.57 800.99,-156.43 808.5,-155.5 1015.09,-129.86 1070.44,-155.36 1275.5,-119.5 1283.29,-118.14 1291.46,-116.3 1299.38,-114.28"/>
<polygon fill="#63b8ff" stroke="#63b8ff" points="784.9,-155.32 775.6,-160.38 786.03,-162.23 784.9,-155.32"/>
</a>
</g>
</g>
<!-- Node9 -->
<g id="Node000009" class="node">
<title>Node9</title>
<g id="a_Node000009"><a xlink:href="_call_graph_passes_8cpp.html" target="_top" xlink:title="This file implements the &#45;llzk&#45;print&#45;call&#45;graph and &#45;llzk&#45;print&#45;call&#45;graph&#45;sccs passes.">
<polygon fill="white" stroke="#666666" points="321.75,-30.5 157.25,-30.5 157.25,-11.25 321.75,-11.25 321.75,-30.5"/>
<text text-anchor="middle" x="239.5" y="-17" font-family="Helvetica,sans-Serif" font-size="10.00">lib/Analysis/CallGraphPasses.cpp</text>
</a>
</g>
</g>
<!-- Node8&#45;&gt;Node9 -->
<g id="edge8_Node000008_Node000009" class="edge">
<title>Node8&#45;&gt;Node9</title>
<g id="a_edge8_Node000008_Node000009"><a xlink:title=" ">
<path fill="none" stroke="#63b8ff" d="M426.02,-79.49C424.16,-78.9 422.32,-78.32 420.5,-77.75 367.33,-61.02 305.22,-41.95 269.32,-30.97"/>
<polygon fill="#63b8ff" stroke="#63b8ff" points="424.78,-82.77 435.37,-82.46 426.89,-76.1 424.78,-82.77"/>
</a>
</g>
</g>
<!-- Node10 -->
<g id="Node000010" class="node">
<title>Node10</title>
<g id="a_Node000010"><a xlink:href="_constraint_dependency_graph_pass_8cpp.html" target="_top" xlink:title="This file implements the &#45;llzk&#45;print&#45;constraint&#45;dependency&#45;graphs pass.">
<polygon fill="white" stroke="#666666" points="509,-36.12 340,-36.12 340,-5.62 509,-5.62 509,-36.12"/>
<text text-anchor="start" x="348" y="-22.62" font-family="Helvetica,sans-Serif" font-size="10.00">lib/Analysis/ConstraintDependency</text>
<text text-anchor="middle" x="424.5" y="-11.38" font-family="Helvetica,sans-Serif" font-size="10.00">GraphPass.cpp</text>
</a>
</g>
</g>
<!-- Node8&#45;&gt;Node10 -->
<g id="edge9_Node000008_Node000010" class="edge">
<title>Node8&#45;&gt;Node10</title>
<g id="a_edge9_Node000008_Node000010"><a xlink:title=" ">
<path fill="none" stroke="#63b8ff" d="M464.54,-74.17C455.1,-61.84 443.82,-47.11 435.65,-36.44"/>
<polygon fill="#63b8ff" stroke="#63b8ff" points="461.54,-76.01 470.4,-81.82 467.1,-71.75 461.54,-76.01"/>
</a>
</g>
</g>
<!-- Node11 -->
<g id="Node000011" class="node">
<title>Node11</title>
<g id="a_Node000011"><a xlink:href="_interval_analysis_pass_8cpp.html" target="_top" xlink:title="This file implements the &#45;llzk&#45;print&#45;interval&#45;analysis pass.">
<polygon fill="white" stroke="#666666" points="139,-36.12 0,-36.12 0,-5.62 139,-5.62 139,-36.12"/>
<text text-anchor="start" x="8" y="-22.62" font-family="Helvetica,sans-Serif" font-size="10.00">lib/Analysis/IntervalAnalysis</text>
<text text-anchor="middle" x="69.5" y="-11.38" font-family="Helvetica,sans-Serif" font-size="10.00">Pass.cpp</text>
</a>
</g>
</g>
<!-- Node8&#45;&gt;Node11 -->
<g id="edge10_Node000008_Node000011" class="edge">
<title>Node8&#45;&gt;Node11</title>
<g id="a_edge10_Node000008_Node000011"><a xlink:title=" ">
<path fill="none" stroke="#63b8ff" d="M429.02,-79.83C426.15,-79.08 423.3,-78.38 420.5,-77.75 301.52,-51.03 268.27,-64.66 148.5,-41.75 140.72,-40.26 132.57,-38.47 124.57,-36.59"/>
<polygon fill="#63b8ff" stroke="#63b8ff" points="428.05,-83.19 438.63,-82.52 429.94,-76.45 428.05,-83.19"/>
</a>
</g>
</g>
<!-- Node12 -->
<g id="Node000012" class="node">
<title>Node12</title>
<g id="a_Node000012"><a xlink:href="llzk-opt_8cpp.html" target="_top" xlink:title="This file implements a version of the mlir&#45;opt tool configured for use on LLZK files.">
<polygon fill="white" stroke="#666666" points="923.25,-36.12 833.75,-36.12 833.75,-5.62 923.25,-5.62 923.25,-36.12"/>
<text text-anchor="start" x="841.75" y="-22.62" font-family="Helvetica,sans-Serif" font-size="10.00">tools/llzk&#45;opt/llzk</text>
<text text-anchor="middle" x="878.5" y="-11.38" font-family="Helvetica,sans-Serif" font-size="10.00">&#45;opt.cpp</text>
</a>
</g>
</g>
<!-- Node8&#45;&gt;Node12 -->
<g id="edge11_Node000008_Node000012" class="edge">
<title>Node8&#45;&gt;Node12</title>
<g id="a_edge11_Node000008_Node000012"><a xlink:title=" ">
<path fill="none" stroke="#63b8ff" d="M535.98,-79.81C538.85,-79.07 541.7,-78.37 544.5,-77.75 666.97,-50.49 702.64,-71.61 824.5,-41.75 830.22,-40.35 836.18,-38.54 841.95,-36.58"/>
<polygon fill="#63b8ff" stroke="#63b8ff" points="535.06,-76.44 526.37,-82.5 536.94,-83.18 535.06,-76.44"/>
</a>
</g>
</g>
<!-- Node13&#45;&gt;Node12 -->
<g id="edge14_Node000013_Node000012" class="edge">
<title>Node13&#45;&gt;Node12</title>
<g id="a_edge14_Node000013_Node000012"><a xlink:title=" ">
<path fill="none" stroke="#63b8ff" d="M718.94,-74.1C752.02,-64.55 790.18,-53.1 824.5,-41.75 829.34,-40.15 834.39,-38.4 839.38,-36.62"/>
<polygon fill="#63b8ff" stroke="#63b8ff" points="718.03,-70.72 709.39,-76.85 719.97,-77.45 718.03,-70.72"/>
</a>
</g>
</g>
<!-- Node14 -->
<g id="Node000014" class="node">
<title>Node14</title>
<g id="a_Node000014"><a xlink:href="_array_to_scalar_pass_8cpp.html" target="_top" xlink:title="This file implements the &#45;llzk&#45;array&#45;to&#45;scalar pass.">
<polygon fill="white" stroke="#666666" points="665.62,-36.12 527.38,-36.12 527.38,-5.62 665.62,-5.62 665.62,-36.12"/>
<text text-anchor="start" x="535.38" y="-22.62" font-family="Helvetica,sans-Serif" font-size="10.00">lib/Dialect/Array/Transforms</text>
<text text-anchor="middle" x="596.5" y="-11.38" font-family="Helvetica,sans-Serif" font-size="10.00">/ArrayToScalarPass.cpp</text>
</a>
</g>
</g>
<!-- Node13&#45;&gt;Node14 -->
<g id="edge13_Node000013_Node000014" class="edge">
<title>Node13&#45;&gt;Node14</title>
<g id="a_edge13_Node000013_Node000014"><a xlink:title=" ">
<path fill="none" stroke="#63b8ff" d="M619.17,-67.07C613.82,-56.41 608.07,-44.94 603.7,-36.23"/>
<polygon fill="#63b8ff" stroke="#63b8ff" points="616.03,-68.6 623.64,-75.97 622.28,-65.46 616.03,-68.6"/>
</a>
</g>
</g>
<!-- Node15&#45;&gt;Node12 -->
<g id="edge17_Node000015_Node000012" class="edge">
<title>Node15&#45;&gt;Node12</title>
<g id="a_edge17_Node000015_Node000012"><a xlink:title=" ">
<path fill="none" stroke="#63b8ff" d="M841.04,-68.39C849.92,-57.37 859.63,-45.31 866.94,-36.23"/>
<polygon fill="#63b8ff" stroke="#63b8ff" points="838.34,-66.16 834.8,-76.15 843.79,-70.55 838.34,-66.16"/>
</a>
</g>
</g>
<!-- Node16 -->
<g id="Node000016" class="node">
<title>Node16</title>
<g id="a_Node000016"><a xlink:href="_inline_includes_pass_8cpp.html" target="_top" xlink:title="This file implements the &#45;llzk&#45;inline&#45;includes pass.">
<polygon fill="white" stroke="#666666" points="815.25,-41.75 683.75,-41.75 683.75,0 815.25,0 815.25,-41.75"/>
<text text-anchor="start" x="691.75" y="-28.25" font-family="Helvetica,sans-Serif" font-size="10.00">lib/Dialect/Include</text>
<text text-anchor="start" x="691.75" y="-17" font-family="Helvetica,sans-Serif" font-size="10.00">/Transforms/InlineIncludes</text>
<text text-anchor="middle" x="749.5" y="-5.75" font-family="Helvetica,sans-Serif" font-size="10.00">Pass.cpp</text>
</a>
</g>
</g>
<!-- Node15&#45;&gt;Node16 -->
<g id="edge16_Node000015_Node000016" class="edge">
<title>Node15&#45;&gt;Node16</title>
<g id="a_edge16_Node000015_Node000016"><a xlink:title=" ">
<path fill="none" stroke="#63b8ff" d="M791.61,-68.79C783.67,-59.94 775.1,-50.39 767.77,-42.23"/>
<polygon fill="#63b8ff" stroke="#63b8ff" points="788.98,-71.1 798.27,-76.2 794.19,-66.42 788.98,-71.1"/>
</a>
</g>
</g>
<!-- Node17&#45;&gt;Node12 -->
<g id="edge20_Node000017_Node000012" class="edge">
<title>Node17&#45;&gt;Node12</title>
<g id="a_edge20_Node000017_Node000012"><a xlink:title=" ">
<path fill="none" stroke="#63b8ff" d="M944.94,-70.74C929.25,-59.2 911.53,-46.17 898.34,-36.46"/>
<polygon fill="#63b8ff" stroke="#63b8ff" points="942.55,-73.32 952.68,-76.43 946.7,-67.68 942.55,-73.32"/>
</a>
</g>
</g>
<!-- Node18 -->
<g id="Node000018" class="node">
<title>Node18</title>
<g id="a_Node000018"><a xlink:href="_flattening_pass_8cpp.html" target="_top" xlink:title="This file implements the &#45;llzk&#45;flatten pass.">
<polygon fill="white" stroke="#666666" points="1097.25,-36.12 941.75,-36.12 941.75,-5.62 1097.25,-5.62 1097.25,-36.12"/>
<text text-anchor="start" x="949.75" y="-22.62" font-family="Helvetica,sans-Serif" font-size="10.00">lib/Dialect/Polymorphic</text>
<text text-anchor="middle" x="1019.5" y="-11.38" font-family="Helvetica,sans-Serif" font-size="10.00">/Transforms/FlatteningPass.cpp</text>
</a>
</g>
</g>
<!-- Node17&#45;&gt;Node18 -->
<g id="edge19_Node000017_Node000018" class="edge">
<title>Node17&#45;&gt;Node18</title>
<g id="a_edge19_Node000017_Node000018"><a xlink:title=" ">
<path fill="none" stroke="#63b8ff" d="M996.83,-67.07C1002.18,-56.41 1007.93,-44.94 1012.3,-36.23"/>
<polygon fill="#63b8ff" stroke="#63b8ff" points="993.72,-65.46 992.36,-75.97 999.97,-68.6 993.72,-65.46"/>
</a>
</g>
</g>
<!-- Node19&#45;&gt;Node12 -->
<g id="edge26_Node000019_Node000012" class="edge">
<title>Node19&#45;&gt;Node12</title>
<g id="a_edge26_Node000019_Node000012"><a xlink:title=" ">
<path fill="none" stroke="#63b8ff" d="M1106.85,-82.37C1055.78,-72.5 989.92,-58.4 932.5,-41.75 927.22,-40.22 921.72,-38.43 916.33,-36.56"/>
<polygon fill="#63b8ff" stroke="#63b8ff" points="1105.87,-85.75 1116.35,-84.19 1107.19,-78.88 1105.87,-85.75"/>
</a>
</g>
</g>
<!-- Node20 -->
<g id="Node000020" class="node">
<title>Node20</title>
<g id="a_Node000020"><a xlink:href="_l_l_z_k_redundant_operation_elimination_pass_8cpp.html" target="_top" xlink:title="This file implements the &#45;llzk&#45;duplicate&#45;op&#45;elim pass.">
<polygon fill="white" stroke="#666666" points="1604.38,-36.12 1452.62,-36.12 1452.62,-5.62 1604.38,-5.62 1604.38,-36.12"/>
<text text-anchor="start" x="1460.62" y="-22.62" font-family="Helvetica,sans-Serif" font-size="10.00">lib/Transforms/LLZKRedundant</text>
<text text-anchor="middle" x="1528.5" y="-11.38" font-family="Helvetica,sans-Serif" font-size="10.00">OperationEliminationPass.cpp</text>
</a>
</g>
</g>
<!-- Node19&#45;&gt;Node20 -->
<g id="edge22_Node000019_Node000020" class="edge">
<title>Node19&#45;&gt;Node20</title>
<g id="a_edge22_Node000019_Node000020"><a xlink:title=" ">
<path fill="none" stroke="#63b8ff" d="M1264.11,-80.36C1267.96,-79.47 1271.77,-78.6 1275.5,-77.75 1349.97,-60.86 1368.99,-58.44 1443.5,-41.75 1450.89,-40.09 1458.64,-38.33 1466.32,-36.55"/>
<polygon fill="#63b8ff" stroke="#63b8ff" points="1263.62,-76.88 1254.68,-82.57 1265.21,-83.7 1263.62,-76.88"/>
</a>
</g>
</g>
<!-- Node21 -->
<g id="Node000021" class="node">
<title>Node21</title>
<g id="a_Node000021"><a xlink:href="_l_l_z_k_redundant_read_and_write_elimination_pass_8cpp.html" target="_top" xlink:title="This file implements the &#45;llzk&#45;duplicate&#45;read&#45;write&#45;elim pass.">
<polygon fill="white" stroke="#666666" points="1790.62,-36.12 1622.38,-36.12 1622.38,-5.62 1790.62,-5.62 1790.62,-36.12"/>
<text text-anchor="start" x="1630.38" y="-22.62" font-family="Helvetica,sans-Serif" font-size="10.00">lib/Transforms/LLZKRedundant</text>
<text text-anchor="middle" x="1706.5" y="-11.38" font-family="Helvetica,sans-Serif" font-size="10.00">ReadAndWriteEliminationPass.cpp</text>
</a>
</g>
</g>
<!-- Node19&#45;&gt;Node21 -->
<g id="edge23_Node000019_Node000021" class="edge">
<title>Node19&#45;&gt;Node21</title>
<g id="a_edge23_Node000019_Node000021"><a xlink:title=" ">
<path fill="none" stroke="#63b8ff" d="M1260.51,-80.59C1265.57,-79.56 1270.6,-78.59 1275.5,-77.75 1424.38,-52.11 1464.32,-65.57 1613.5,-41.75 1622.71,-40.28 1632.39,-38.49 1641.87,-36.59"/>
<polygon fill="#63b8ff" stroke="#63b8ff" points="1259.97,-77.13 1250.93,-82.65 1261.44,-83.97 1259.97,-77.13"/>
</a>
</g>
</g>
<!-- Node22 -->
<g id="Node000022" class="node">
<title>Node22</title>
<g id="a_Node000022"><a xlink:href="_l_l_z_k_unused_declaration_elimination_pass_8cpp.html" target="_top" xlink:title="This file implements the &#45;llzk&#45;unused&#45;declaration&#45;elim pass.">
<polygon fill="white" stroke="#666666" points="1269.88,-36.12 1115.12,-36.12 1115.12,-5.62 1269.88,-5.62 1269.88,-36.12"/>
<text text-anchor="start" x="1123.12" y="-22.62" font-family="Helvetica,sans-Serif" font-size="10.00">lib/Transforms/LLZKUnused</text>
<text text-anchor="middle" x="1192.5" y="-11.38" font-family="Helvetica,sans-Serif" font-size="10.00">DeclarationEliminationPass.cpp</text>
</a>
</g>
</g>
<!-- Node19&#45;&gt;Node22 -->
<g id="edge24_Node000019_Node000022" class="edge">
<title>Node19&#45;&gt;Node22</title>
<g id="a_edge24_Node000019_Node000022"><a xlink:title=" ">
<path fill="none" stroke="#63b8ff" d="M1192.5,-71.6C1192.5,-59.84 1192.5,-46.38 1192.5,-36.44"/>
<polygon fill="#63b8ff" stroke="#63b8ff" points="1189,-71.51 1192.5,-81.51 1196,-71.51 1189,-71.51"/>
</a>
</g>
</g>
<!-- Node23 -->
<g id="Node000023" class="node">
<title>Node23</title>
<g id="a_Node000023"><a xlink:href="_transformation_pass_pipelines_8cpp.html" target="_top" xlink:title="This file implements logic for registering the &#45;llzk&#45;remove&#45;unnecessary&#45;ops and &#45;llzk&#45;remove&#45;unnecess...">
<polygon fill="white" stroke="#666666" points="1434.75,-36.12 1288.25,-36.12 1288.25,-5.62 1434.75,-5.62 1434.75,-36.12"/>
<text text-anchor="start" x="1296.25" y="-22.62" font-family="Helvetica,sans-Serif" font-size="10.00">lib/Transforms/Transformation</text>
<text text-anchor="middle" x="1361.5" y="-11.38" font-family="Helvetica,sans-Serif" font-size="10.00">PassPipelines.cpp</text>
</a>
</g>
</g>
<!-- Node19&#45;&gt;Node23 -->
<g id="edge25_Node000019_Node000023" class="edge">
<title>Node19&#45;&gt;Node23</title>
<g id="a_edge25_Node000019_Node000023"><a xlink:title=" ">
<path fill="none" stroke="#63b8ff" d="M1235.34,-78.42C1264.36,-65.42 1302.11,-48.5 1328.73,-36.56"/>
<polygon fill="#63b8ff" stroke="#63b8ff" points="1234.16,-75.12 1226.47,-82.4 1237.02,-81.5 1234.16,-75.12"/>
</a>
</g>
</g>
<!-- Node24&#45;&gt;Node12 -->
<g id="edge29_Node000024_Node000012" class="edge">
<title>Node24&#45;&gt;Node12</title>
<g id="a_edge29_Node000024_Node000012"><a xlink:title=" ">
<path fill="none" stroke="#63b8ff" d="M1287.7,-80.32C1283.59,-79.37 1279.49,-78.51 1275.5,-77.75 1124.89,-49.26 1081.79,-76.49 932.5,-41.75 926.66,-40.39 920.59,-38.58 914.73,-36.6"/>
<polygon fill="#63b8ff" stroke="#63b8ff" points="1286.55,-83.64 1297.09,-82.6 1288.2,-76.84 1286.55,-83.64"/>
</a>
</g>
</g>
<!-- Node25 -->
<g id="Node000025" class="node">
<title>Node25</title>
<g id="a_Node000025"><a xlink:href="_l_l_z_k_validation_passes_8cpp.html" target="_top" xlink:title="This file contains the implementation for the &#45;llzk&#45;validate&#45;field&#45;writes pass.">
<polygon fill="white" stroke="#666666" points="1948.38,-36.12 1808.62,-36.12 1808.62,-5.62 1948.38,-5.62 1948.38,-36.12"/>
<text text-anchor="start" x="1816.62" y="-22.62" font-family="Helvetica,sans-Serif" font-size="10.00">lib/Validators/LLZKValidation</text>
<text text-anchor="middle" x="1878.5" y="-11.38" font-family="Helvetica,sans-Serif" font-size="10.00">Passes.cpp</text>
</a>
</g>
</g>
<!-- Node24&#45;&gt;Node25 -->
<g id="edge28_Node000024_Node000025" class="edge">
<title>Node24&#45;&gt;Node25</title>
<g id="a_edge28_Node000024_Node000025"><a xlink:title=" ">
<path fill="none" stroke="#63b8ff" d="M1421.83,-91.28C1511.76,-82.94 1667.52,-66.41 1799.5,-41.75 1807.42,-40.27 1815.74,-38.46 1823.87,-36.55"/>
<polygon fill="#63b8ff" stroke="#63b8ff" points="1421.54,-87.79 1411.9,-92.19 1422.18,-94.76 1421.54,-87.79"/>
</a>
</g>
</g>
</g>
</svg>
