<?xml version="1.0" encoding="UTF-8" standalone="no"?>
<!DOCTYPE svg PUBLIC "-//W3C//DTD SVG 1.1//EN"
 "http://www.w3.org/Graphics/SVG/1.1/DTD/svg11.dtd">
<!-- Generated by graphviz version 12.2.1 (20241206.2353)
 -->
<!-- Title: include/llzk/Dialect/LLZK/IR/Versioning.h Pages: 1 -->
<svg width="1609pt" height="105pt"
 viewBox="0.00 0.00 1608.75 105.00" xmlns="http://www.w3.org/2000/svg" xmlns:xlink="http://www.w3.org/1999/xlink">
<g id="graph0" class="graph" transform="scale(1 1) rotate(0) translate(4 101)">
<title>include/llzk/Dialect/LLZK/IR/Versioning.h</title>
<!-- Node1 -->
<g id="Node000001" class="node">
<title>Node1</title>
<g id="a_Node000001"><a xlink:title=" ">
<polygon fill="#999999" stroke="#666666" points="853,-97 740.25,-97 740.25,-66.5 853,-66.5 853,-97"/>
<text text-anchor="start" x="748.25" y="-83.5" font-family="Helvetica,sans-Serif" font-size="10.00">include/llzk/Dialect</text>
<text text-anchor="middle" x="796.62" y="-72.25" font-family="Helvetica,sans-Serif" font-size="10.00">/LLZK/IR/Versioning.h</text>
</a>
</g>
</g>
<!-- Node2 -->
<g id="Node000002" class="node">
<title>Node2</title>
<g id="a_Node000002"><a xlink:href="_array_2_i_r_2_dialect_8cpp.html" target="_top" xlink:title=" ">
<polygon fill="white" stroke="#666666" points="99.25,-30.5 0,-30.5 0,0 99.25,0 99.25,-30.5"/>
<text text-anchor="start" x="8" y="-17" font-family="Helvetica,sans-Serif" font-size="10.00">lib/Dialect/Array/IR</text>
<text text-anchor="middle" x="49.62" y="-5.75" font-family="Helvetica,sans-Serif" font-size="10.00">/Dialect.cpp</text>
</a>
</g>
</g>
<!-- Node1&#45;&gt;Node2 -->
<g id="edge1_Node000001_Node000002" class="edge">
<title>Node1&#45;&gt;Node2</title>
<g id="a_edge1_Node000001_Node000002"><a xlink:title=" ">
<path fill="none" stroke="#63b8ff" d="M728.81,-79.58C604.78,-76.6 333.36,-66.2 107.62,-30.5 104.96,-30.08 102.24,-29.6 99.5,-29.07"/>
<polygon fill="#63b8ff" stroke="#63b8ff" points="728.4,-83.07 738.48,-79.8 728.56,-76.07 728.4,-83.07"/>
</a>
</g>
</g>
<!-- Node3 -->
<g id="Node000003" class="node">
<title>Node3</title>
<g id="a_Node000003"><a xlink:href="_bool_2_i_r_2_dialect_8cpp.html" target="_top" xlink:title=" ">
<polygon fill="white" stroke="#666666" points="212.38,-30.5 116.88,-30.5 116.88,0 212.38,0 212.38,-30.5"/>
<text text-anchor="start" x="124.88" y="-17" font-family="Helvetica,sans-Serif" font-size="10.00">lib/Dialect/Bool/IR</text>
<text text-anchor="middle" x="164.62" y="-5.75" font-family="Helvetica,sans-Serif" font-size="10.00">/Dialect.cpp</text>
</a>
</g>
</g>
<!-- Node1&#45;&gt;Node3 -->
<g id="edge2_Node000001_Node000003" class="edge">
<title>Node1&#45;&gt;Node3</title>
<g id="a_edge2_Node000001_Node000003"><a xlink:title=" ">
<path fill="none" stroke="#63b8ff" d="M728.43,-78.38C620.15,-73.81 402.53,-61.37 220.62,-30.5 218.05,-30.06 215.43,-29.57 212.78,-29.03"/>
<polygon fill="#63b8ff" stroke="#63b8ff" points="728.18,-81.87 738.31,-78.79 728.46,-74.88 728.18,-81.87"/>
</a>
</g>
</g>
<!-- Node4 -->
<g id="Node000004" class="node">
<title>Node4</title>
<g id="a_Node000004"><a xlink:href="_cast_2_i_r_2_dialect_8cpp.html" target="_top" xlink:title=" ">
<polygon fill="white" stroke="#666666" points="327.12,-30.5 230.12,-30.5 230.12,0 327.12,0 327.12,-30.5"/>
<text text-anchor="start" x="238.12" y="-17" font-family="Helvetica,sans-Serif" font-size="10.00">lib/Dialect/Cast/IR</text>
<text text-anchor="middle" x="278.62" y="-5.75" font-family="Helvetica,sans-Serif" font-size="10.00">/Dialect.cpp</text>
</a>
</g>
</g>
<!-- Node1&#45;&gt;Node4 -->
<g id="edge3_Node000001_Node000004" class="edge">
<title>Node1&#45;&gt;Node4</title>
<g id="a_edge3_Node000001_Node000004"><a xlink:title=" ">
<path fill="none" stroke="#63b8ff" d="M728.57,-76.14C638.44,-69.39 474.75,-54.9 336.62,-30.5 333.66,-29.98 330.63,-29.39 327.58,-28.76"/>
<polygon fill="#63b8ff" stroke="#63b8ff" points="728.25,-79.63 738.48,-76.87 728.76,-72.65 728.25,-79.63"/>
</a>
</g>
</g>
<!-- Node5 -->
<g id="Node000005" class="node">
<title>Node5</title>
<g id="a_Node000005"><a xlink:href="_constrain_2_i_r_2_dialect_8cpp.html" target="_top" xlink:title=" ">
<polygon fill="white" stroke="#666666" points="449.88,-30.5 345.38,-30.5 345.38,0 449.88,0 449.88,-30.5"/>
<text text-anchor="start" x="353.38" y="-17" font-family="Helvetica,sans-Serif" font-size="10.00">lib/Dialect/Constrain</text>
<text text-anchor="middle" x="397.62" y="-5.75" font-family="Helvetica,sans-Serif" font-size="10.00">/IR/Dialect.cpp</text>
</a>
</g>
</g>
<!-- Node1&#45;&gt;Node5 -->
<g id="edge4_Node000001_Node000005" class="edge">
<title>Node1&#45;&gt;Node5</title>
<g id="a_edge4_Node000001_Node000005"><a xlink:title=" ">
<path fill="none" stroke="#63b8ff" d="M728.73,-72.21C660.49,-63.25 552.4,-48.05 459.62,-30.5 456.59,-29.93 453.47,-29.31 450.33,-28.66"/>
<polygon fill="#63b8ff" stroke="#63b8ff" points="727.88,-75.63 738.25,-73.45 728.79,-68.68 727.88,-75.63"/>
</a>
</g>
</g>
<!-- Node6 -->
<g id="Node000006" class="node">
<title>Node6</title>
<g id="a_Node000006"><a xlink:href="_felt_2_i_r_2_dialect_8cpp.html" target="_top" xlink:title=" ">
<polygon fill="white" stroke="#666666" points="560.88,-30.5 468.38,-30.5 468.38,0 560.88,0 560.88,-30.5"/>
<text text-anchor="start" x="476.38" y="-17" font-family="Helvetica,sans-Serif" font-size="10.00">lib/Dialect/Felt/IR</text>
<text text-anchor="middle" x="514.62" y="-5.75" font-family="Helvetica,sans-Serif" font-size="10.00">/Dialect.cpp</text>
</a>
</g>
</g>
<!-- Node1&#45;&gt;Node6 -->
<g id="edge5_Node000001_Node000006" class="edge">
<title>Node1&#45;&gt;Node6</title>
<g id="a_edge5_Node000001_Node000006"><a xlink:title=" ">
<path fill="none" stroke="#63b8ff" d="M728.91,-66.42C683.71,-56.69 622.99,-43.32 569.62,-30.5 566.84,-29.83 563.99,-29.13 561.11,-28.42"/>
<polygon fill="#63b8ff" stroke="#63b8ff" points="728.07,-69.82 738.58,-68.5 729.53,-62.98 728.07,-69.82"/>
</a>
</g>
</g>
<!-- Node7 -->
<g id="Node000007" class="node">
<title>Node7</title>
<g id="a_Node000007"><a xlink:href="_function_2_i_r_2_dialect_8cpp.html" target="_top" xlink:title=" ">
<polygon fill="white" stroke="#666666" points="678.62,-30.5 578.62,-30.5 578.62,0 678.62,0 678.62,-30.5"/>
<text text-anchor="start" x="586.62" y="-17" font-family="Helvetica,sans-Serif" font-size="10.00">lib/Dialect/Function</text>
<text text-anchor="middle" x="628.62" y="-5.75" font-family="Helvetica,sans-Serif" font-size="10.00">/IR/Dialect.cpp</text>
</a>
</g>
</g>
<!-- Node1&#45;&gt;Node7 -->
<g id="edge6_Node000001_Node000007" class="edge">
<title>Node1&#45;&gt;Node7</title>
<g id="a_edge6_Node000001_Node000007"><a xlink:title=" ">
<path fill="none" stroke="#63b8ff" d="M747.83,-62.01C722.05,-52.12 690.89,-40.15 666.89,-30.94"/>
<polygon fill="#63b8ff" stroke="#63b8ff" points="746.5,-65.25 757.09,-65.57 749.01,-58.72 746.5,-65.25"/>
</a>
</g>
</g>
<!-- Node8 -->
<g id="Node000008" class="node">
<title>Node8</title>
<g id="a_Node000008"><a xlink:href="_global_2_i_r_2_dialect_8cpp.html" target="_top" xlink:title=" ">
<polygon fill="white" stroke="#666666" points="786.75,-30.5 696.5,-30.5 696.5,0 786.75,0 786.75,-30.5"/>
<text text-anchor="start" x="704.5" y="-17" font-family="Helvetica,sans-Serif" font-size="10.00">lib/Dialect/Global</text>
<text text-anchor="middle" x="741.62" y="-5.75" font-family="Helvetica,sans-Serif" font-size="10.00">/IR/Dialect.cpp</text>
</a>
</g>
</g>
<!-- Node1&#45;&gt;Node8 -->
<g id="edge7_Node000001_Node000008" class="edge">
<title>Node1&#45;&gt;Node8</title>
<g id="a_edge7_Node000001_Node000008"><a xlink:title=" ">
<path fill="none" stroke="#63b8ff" d="M776.91,-57.63C769.29,-48.69 760.8,-38.74 754.06,-30.83"/>
<polygon fill="#63b8ff" stroke="#63b8ff" points="774.01,-59.62 783.16,-64.96 779.34,-55.08 774.01,-59.62"/>
</a>
</g>
</g>
<!-- Node9 -->
<g id="Node000009" class="node">
<title>Node9</title>
<g id="a_Node000009"><a xlink:href="_include_2_i_r_2_dialect_8cpp.html" target="_top" xlink:title=" ">
<polygon fill="white" stroke="#666666" points="898.62,-30.5 804.62,-30.5 804.62,0 898.62,0 898.62,-30.5"/>
<text text-anchor="start" x="812.62" y="-17" font-family="Helvetica,sans-Serif" font-size="10.00">lib/Dialect/Include</text>
<text text-anchor="middle" x="851.62" y="-5.75" font-family="Helvetica,sans-Serif" font-size="10.00">/IR/Dialect.cpp</text>
</a>
</g>
</g>
<!-- Node1&#45;&gt;Node9 -->
<g id="edge8_Node000001_Node000009" class="edge">
<title>Node1&#45;&gt;Node9</title>
<g id="a_edge8_Node000001_Node000009"><a xlink:title=" ">
<path fill="none" stroke="#63b8ff" d="M816.34,-57.63C823.96,-48.69 832.45,-38.74 839.19,-30.83"/>
<polygon fill="#63b8ff" stroke="#63b8ff" points="813.91,-55.08 810.09,-64.96 819.24,-59.62 813.91,-55.08"/>
</a>
</g>
</g>
<!-- Node10 -->
<g id="Node000010" class="node">
<title>Node10</title>
<g id="a_Node000010"><a xlink:href="_l_l_z_k_2_i_r_2_dialect_8cpp.html" target="_top" xlink:title=" ">
<polygon fill="white" stroke="#666666" points="1016.25,-30.5 917,-30.5 917,0 1016.25,0 1016.25,-30.5"/>
<text text-anchor="start" x="925" y="-17" font-family="Helvetica,sans-Serif" font-size="10.00">lib/Dialect/LLZK/IR</text>
<text text-anchor="middle" x="966.62" y="-5.75" font-family="Helvetica,sans-Serif" font-size="10.00">/Dialect.cpp</text>
</a>
</g>
</g>
<!-- Node1&#45;&gt;Node10 -->
<g id="edge9_Node000001_Node000010" class="edge">
<title>Node1&#45;&gt;Node10</title>
<g id="a_edge9_Node000001_Node000010"><a xlink:title=" ">
<path fill="none" stroke="#63b8ff" d="M845.66,-62.15C871.8,-52.23 903.51,-40.2 927.91,-30.94"/>
<polygon fill="#63b8ff" stroke="#63b8ff" points="844.72,-58.76 836.62,-65.58 847.21,-65.3 844.72,-58.76"/>
</a>
</g>
</g>
<!-- Node11 -->
<g id="Node000011" class="node">
<title>Node11</title>
<g id="a_Node000011"><a xlink:href="_versioning_8cpp.html" target="_top" xlink:title=" ">
<polygon fill="white" stroke="#666666" points="1133.25,-30.5 1034,-30.5 1034,0 1133.25,0 1133.25,-30.5"/>
<text text-anchor="start" x="1042" y="-17" font-family="Helvetica,sans-Serif" font-size="10.00">lib/Dialect/LLZK/IR</text>
<text text-anchor="middle" x="1083.62" y="-5.75" font-family="Helvetica,sans-Serif" font-size="10.00">/Versioning.cpp</text>
</a>
</g>
</g>
<!-- Node1&#45;&gt;Node11 -->
<g id="edge10_Node000001_Node000011" class="edge">
<title>Node1&#45;&gt;Node11</title>
<g id="a_edge10_Node000001_Node000011"><a xlink:title=" ">
<path fill="none" stroke="#63b8ff" d="M864.42,-66.34C910.05,-56.52 971.53,-43.08 1025.62,-30.5 1028.25,-29.89 1030.94,-29.26 1033.66,-28.61"/>
<polygon fill="#63b8ff" stroke="#63b8ff" points="863.7,-62.91 854.66,-68.43 865.17,-69.76 863.7,-62.91"/>
</a>
</g>
</g>
<!-- Node12 -->
<g id="Node000012" class="node">
<title>Node12</title>
<g id="a_Node000012"><a xlink:href="_polymorphic_2_i_r_2_dialect_8cpp.html" target="_top" xlink:title=" ">
<polygon fill="white" stroke="#666666" points="1267.88,-30.5 1151.38,-30.5 1151.38,0 1267.88,0 1267.88,-30.5"/>
<text text-anchor="start" x="1159.38" y="-17" font-family="Helvetica,sans-Serif" font-size="10.00">lib/Dialect/Polymorphic</text>
<text text-anchor="middle" x="1209.62" y="-5.75" font-family="Helvetica,sans-Serif" font-size="10.00">/IR/Dialect.cpp</text>
</a>
</g>
</g>
<!-- Node1&#45;&gt;Node12 -->
<g id="edge11_Node000001_Node000012" class="edge">
<title>Node1&#45;&gt;Node12</title>
<g id="a_edge11_Node000001_Node000012"><a xlink:title=" ">
<path fill="none" stroke="#63b8ff" d="M864.72,-72.2C934.66,-63.1 1046.54,-47.68 1142.62,-30.5 1145.43,-30 1148.31,-29.46 1151.2,-28.91"/>
<polygon fill="#63b8ff" stroke="#63b8ff" points="864.41,-68.71 854.95,-73.46 865.31,-75.65 864.41,-68.71"/>
</a>
</g>
</g>
<!-- Node13 -->
<g id="Node000013" class="node">
<title>Node13</title>
<g id="a_Node000013"><a xlink:href="_string_2_i_r_2_dialect_8cpp.html" target="_top" xlink:title=" ">
<polygon fill="white" stroke="#666666" points="1373.62,-30.5 1285.62,-30.5 1285.62,0 1373.62,0 1373.62,-30.5"/>
<text text-anchor="start" x="1293.62" y="-17" font-family="Helvetica,sans-Serif" font-size="10.00">lib/Dialect/String</text>
<text text-anchor="middle" x="1329.62" y="-5.75" font-family="Helvetica,sans-Serif" font-size="10.00">/IR/Dialect.cpp</text>
</a>
</g>
</g>
<!-- Node1&#45;&gt;Node13 -->
<g id="edge12_Node000001_Node000013" class="edge">
<title>Node1&#45;&gt;Node13</title>
<g id="a_edge12_Node000001_Node000013"><a xlink:title=" ">
<path fill="none" stroke="#63b8ff" d="M864.47,-77.04C957.89,-71.17 1131.11,-57.5 1276.62,-30.5 1279.44,-29.98 1282.32,-29.38 1285.21,-28.74"/>
<polygon fill="#63b8ff" stroke="#63b8ff" points="864.48,-73.53 854.71,-77.64 864.91,-80.52 864.48,-73.53"/>
</a>
</g>
</g>
<!-- Node14 -->
<g id="Node000014" class="node">
<title>Node14</title>
<g id="a_Node000014"><a xlink:href="_struct_2_i_r_2_dialect_8cpp.html" target="_top" xlink:title=" ">
<polygon fill="white" stroke="#666666" points="1480,-30.5 1391.25,-30.5 1391.25,0 1480,0 1480,-30.5"/>
<text text-anchor="start" x="1399.25" y="-17" font-family="Helvetica,sans-Serif" font-size="10.00">lib/Dialect/Struct</text>
<text text-anchor="middle" x="1435.62" y="-5.75" font-family="Helvetica,sans-Serif" font-size="10.00">/IR/Dialect.cpp</text>
</a>
</g>
</g>
<!-- Node1&#45;&gt;Node14 -->
<g id="edge13_Node000001_Node000014" class="edge">
<title>Node1&#45;&gt;Node14</title>
<g id="a_edge13_Node000001_Node000014"><a xlink:title=" ">
<path fill="none" stroke="#63b8ff" d="M864.43,-78.83C974.09,-74.86 1196.87,-63.17 1382.62,-30.5 1385.35,-30.02 1388.13,-29.47 1390.93,-28.86"/>
<polygon fill="#63b8ff" stroke="#63b8ff" points="864.6,-75.32 854.73,-79.17 864.84,-82.32 864.6,-75.32"/>
</a>
</g>
</g>
<!-- Node15 -->
<g id="Node000015" class="node">
<title>Node15</title>
<g id="a_Node000015"><a xlink:href="_undef_2_i_r_2_dialect_8cpp.html" target="_top" xlink:title=" ">
<polygon fill="white" stroke="#666666" points="1600.75,-30.5 1498.5,-30.5 1498.5,0 1600.75,0 1600.75,-30.5"/>
<text text-anchor="start" x="1506.5" y="-17" font-family="Helvetica,sans-Serif" font-size="10.00">lib/Dialect/Undef/IR</text>
<text text-anchor="middle" x="1549.62" y="-5.75" font-family="Helvetica,sans-Serif" font-size="10.00">/Dialect.cpp</text>
</a>
</g>
</g>
<!-- Node1&#45;&gt;Node15 -->
<g id="edge14_Node000001_Node000015" class="edge">
<title>Node1&#45;&gt;Node15</title>
<g id="a_edge14_Node000001_Node000015"><a xlink:title=" ">
<path fill="none" stroke="#63b8ff" d="M864.69,-79.35C989.2,-75.99 1261.71,-65.02 1488.62,-30.5 1491.74,-30.03 1494.94,-29.48 1498.15,-28.87"/>
<polygon fill="#63b8ff" stroke="#63b8ff" points="864.89,-75.84 854.98,-79.6 865.07,-82.84 864.89,-75.84"/>
</a>
</g>
</g>
</g>
</svg>
