<?xml version="1.0" encoding="UTF-8" standalone="no"?>
<!DOCTYPE svg PUBLIC "-//W3C//DTD SVG 1.1//EN"
 "http://www.w3.org/Graphics/SVG/1.1/DTD/svg11.dtd">
<!-- Generated by graphviz version 12.2.1 (20241206.2353)
 -->
<!-- Title: llzk::felt::detail::InvFeltOpGenericAdaptorBase Pages: 1 -->
<svg width="513pt" height="147pt"
 viewBox="0.00 0.00 512.75 147.12" xmlns="http://www.w3.org/2000/svg" xmlns:xlink="http://www.w3.org/1999/xlink">
<g id="graph0" class="graph" transform="scale(1 1) rotate(0) translate(4 143.12)">
<title>llzk::felt::detail::InvFeltOpGenericAdaptorBase</title>
<!-- Node1 -->
<g id="Node000001" class="node">
<title>Node1</title>
<g id="a_Node000001"><a xlink:title=" ">
<polygon fill="#999999" stroke="#666666" points="154.75,-79.5 0,-79.5 0,-49 154.75,-49 154.75,-79.5"/>
<text text-anchor="start" x="8" y="-66" font-family="Helvetica,sans-Serif" font-size="10.00">llzk::felt::detail</text>
<text text-anchor="middle" x="77.38" y="-54.75" font-family="Helvetica,sans-Serif" font-size="10.00">::InvFeltOpGenericAdaptorBase</text>
</a>
</g>
</g>
<!-- Node2 -->
<g id="Node000002" class="node">
<title>Node2</title>
<g id="a_Node000002"><a xlink:href="classllzk_1_1felt_1_1_inv_felt_op_generic_adaptor.html" target="_top" xlink:title=" ">
<polygon fill="white" stroke="#666666" points="329.75,-139.12 196.75,-139.12 196.75,-97.38 329.75,-97.38 329.75,-139.12"/>
<text text-anchor="start" x="204.75" y="-125.62" font-family="Helvetica,sans-Serif" font-size="10.00">llzk::felt::InvFeltOpGeneric</text>
<text text-anchor="start" x="204.75" y="-114.38" font-family="Helvetica,sans-Serif" font-size="10.00">Adaptor&lt;::llvm::ArrayRef</text>
<text text-anchor="middle" x="263.25" y="-103.12" font-family="Helvetica,sans-Serif" font-size="10.00">&lt;::mlir::Attribute &gt; &gt;</text>
</a>
</g>
</g>
<!-- Node1&#45;&gt;Node2 -->
<g id="edge1_Node000001_Node000002" class="edge">
<title>Node1&#45;&gt;Node2</title>
<g id="a_edge1_Node000001_Node000002"><a xlink:title=" ">
<path fill="none" stroke="#63b8ff" d="M142.25,-83.01C159.78,-88.16 178.81,-93.75 196.44,-98.92"/>
<polygon fill="#63b8ff" stroke="#63b8ff" points="143.59,-79.76 133.01,-80.3 141.62,-86.47 143.59,-79.76"/>
</a>
</g>
</g>
<!-- Node3 -->
<g id="Node000003" class="node">
<title>Node3</title>
<g id="a_Node000003"><a xlink:href="classllzk_1_1felt_1_1_inv_felt_op_generic_adaptor.html" target="_top" xlink:title=" ">
<polygon fill="white" stroke="#666666" points="335.75,-79.5 190.75,-79.5 190.75,-49 335.75,-49 335.75,-79.5"/>
<text text-anchor="start" x="198.75" y="-66" font-family="Helvetica,sans-Serif" font-size="10.00">llzk::felt::InvFeltOpGeneric</text>
<text text-anchor="middle" x="263.25" y="-54.75" font-family="Helvetica,sans-Serif" font-size="10.00">Adaptor&lt;::mlir::ValueRange &gt;</text>
</a>
</g>
</g>
<!-- Node1&#45;&gt;Node3 -->
<g id="edge2_Node000001_Node000003" class="edge">
<title>Node1&#45;&gt;Node3</title>
<g id="a_edge2_Node000001_Node000003"><a xlink:title=" ">
<path fill="none" stroke="#63b8ff" d="M166.37,-64.25C174.43,-64.25 182.54,-64.25 190.43,-64.25"/>
<polygon fill="#63b8ff" stroke="#63b8ff" points="166.54,-60.75 156.54,-64.25 166.54,-67.75 166.54,-60.75"/>
</a>
</g>
</g>
<!-- Node5 -->
<g id="Node000005" class="node">
<title>Node5</title>
<g id="a_Node000005"><a xlink:href="classllzk_1_1felt_1_1_inv_felt_op_generic_adaptor.html" target="_top" xlink:title=" ">
<polygon fill="white" stroke="#666666" points="329.75,-30.5 196.75,-30.5 196.75,0 329.75,0 329.75,-30.5"/>
<text text-anchor="start" x="204.75" y="-17" font-family="Helvetica,sans-Serif" font-size="10.00">llzk::felt::InvFeltOpGeneric</text>
<text text-anchor="middle" x="263.25" y="-5.75" font-family="Helvetica,sans-Serif" font-size="10.00">Adaptor&lt; RangeT &gt;</text>
</a>
</g>
</g>
<!-- Node1&#45;&gt;Node5 -->
<g id="edge4_Node000001_Node000005" class="edge">
<title>Node1&#45;&gt;Node5</title>
<g id="a_edge4_Node000001_Node000005"><a xlink:title=" ">
<path fill="none" stroke="#63b8ff" d="M148.41,-45.59C166.53,-40.76 185.85,-35.61 203.33,-30.95"/>
<polygon fill="#63b8ff" stroke="#63b8ff" points="147.54,-42.2 138.78,-48.15 149.34,-48.96 147.54,-42.2"/>
</a>
</g>
</g>
<!-- Node4 -->
<g id="Node000004" class="node">
<title>Node4</title>
<g id="a_Node000004"><a xlink:href="classllzk_1_1felt_1_1_inv_felt_op_adaptor.html" target="_top" xlink:title=" ">
<polygon fill="white" stroke="#666666" points="504.75,-73.88 371.75,-73.88 371.75,-54.62 504.75,-54.62 504.75,-73.88"/>
<text text-anchor="middle" x="438.25" y="-60.38" font-family="Helvetica,sans-Serif" font-size="10.00">llzk::felt::InvFeltOpAdaptor</text>
</a>
</g>
</g>
<!-- Node3&#45;&gt;Node4 -->
<g id="edge3_Node000003_Node000004" class="edge">
<title>Node3&#45;&gt;Node4</title>
<g id="a_edge3_Node000003_Node000004"><a xlink:title=" ">
<path fill="none" stroke="#63b8ff" d="M347.44,-64.25C355.49,-64.25 363.57,-64.25 371.42,-64.25"/>
<polygon fill="#63b8ff" stroke="#63b8ff" points="347.63,-60.75 337.63,-64.25 347.63,-67.75 347.63,-60.75"/>
</a>
</g>
</g>
</g>
</svg>
