<?xml version="1.0" encoding="UTF-8" standalone="no"?>
<!DOCTYPE svg PUBLIC "-//W3C//DTD SVG 1.1//EN"
 "http://www.w3.org/Graphics/SVG/1.1/DTD/svg11.dtd">
<!-- Generated by graphviz version 12.2.1 (20241206.2353)
 -->
<!-- Title: llzk::polymorphic::detail::UnifiableCastOpGenericAdaptorBase Pages: 1 -->
<svg width="508pt" height="180pt"
 viewBox="0.00 0.00 508.25 180.38" xmlns="http://www.w3.org/2000/svg" xmlns:xlink="http://www.w3.org/1999/xlink">
<g id="graph0" class="graph" transform="scale(1 1) rotate(0) translate(4 176.38)">
<title>llzk::polymorphic::detail::UnifiableCastOpGenericAdaptorBase</title>
<!-- Node1 -->
<g id="Node000001" class="node">
<title>Node1</title>
<g id="a_Node000001"><a xlink:title=" ">
<polygon fill="#999999" stroke="#666666" points="151,-101.75 0,-101.75 0,-60 151,-60 151,-101.75"/>
<text text-anchor="start" x="8" y="-88.25" font-family="Helvetica,sans-Serif" font-size="10.00">llzk::polymorphic::</text>
<text text-anchor="start" x="8" y="-77" font-family="Helvetica,sans-Serif" font-size="10.00">detail::UnifiableCastOpGeneric</text>
<text text-anchor="middle" x="75.5" y="-65.75" font-family="Helvetica,sans-Serif" font-size="10.00">AdaptorBase</text>
</a>
</g>
</g>
<!-- Node2 -->
<g id="Node000002" class="node">
<title>Node2</title>
<g id="a_Node000002"><a xlink:href="classllzk_1_1polymorphic_1_1_unifiable_cast_op_generic_adaptor.html" target="_top" xlink:title=" ">
<polygon fill="white" stroke="#666666" points="342.5,-172.38 187,-172.38 187,-119.38 342.5,-119.38 342.5,-172.38"/>
<text text-anchor="start" x="195" y="-158.88" font-family="Helvetica,sans-Serif" font-size="10.00">llzk::polymorphic::</text>
<text text-anchor="start" x="195" y="-147.62" font-family="Helvetica,sans-Serif" font-size="10.00">UnifiableCastOpGenericAdaptor</text>
<text text-anchor="start" x="195" y="-136.38" font-family="Helvetica,sans-Serif" font-size="10.00">&lt;::llvm::ArrayRef&lt;::mlir::</text>
<text text-anchor="middle" x="264.75" y="-125.12" font-family="Helvetica,sans-Serif" font-size="10.00">Attribute &gt; &gt;</text>
</a>
</g>
</g>
<!-- Node1&#45;&gt;Node2 -->
<g id="edge1_Node000001_Node000002" class="edge">
<title>Node1&#45;&gt;Node2</title>
<g id="a_edge1_Node000001_Node000002"><a xlink:title=" ">
<path fill="none" stroke="#63b8ff" d="M148.83,-105.98C161.26,-110.3 174.22,-114.8 186.76,-119.15"/>
<polygon fill="#63b8ff" stroke="#63b8ff" points="150.1,-102.72 139.5,-102.74 147.8,-109.33 150.1,-102.72"/>
</a>
</g>
</g>
<!-- Node3 -->
<g id="Node000003" class="node">
<title>Node3</title>
<g id="a_Node000003"><a xlink:href="classllzk_1_1polymorphic_1_1_unifiable_cast_op_generic_adaptor.html" target="_top" xlink:title=" ">
<polygon fill="white" stroke="#666666" points="342.5,-101.75 187,-101.75 187,-60 342.5,-60 342.5,-101.75"/>
<text text-anchor="start" x="195" y="-88.25" font-family="Helvetica,sans-Serif" font-size="10.00">llzk::polymorphic::</text>
<text text-anchor="start" x="195" y="-77" font-family="Helvetica,sans-Serif" font-size="10.00">UnifiableCastOpGenericAdaptor</text>
<text text-anchor="middle" x="264.75" y="-65.75" font-family="Helvetica,sans-Serif" font-size="10.00">&lt;::mlir::ValueRange &gt;</text>
</a>
</g>
</g>
<!-- Node1&#45;&gt;Node3 -->
<g id="edge2_Node000001_Node000003" class="edge">
<title>Node1&#45;&gt;Node3</title>
<g id="a_edge2_Node000001_Node000003"><a xlink:title=" ">
<path fill="none" stroke="#63b8ff" d="M162.57,-80.88C170.59,-80.88 178.68,-80.88 186.61,-80.88"/>
<polygon fill="#63b8ff" stroke="#63b8ff" points="162.83,-77.38 152.83,-80.88 162.83,-84.38 162.83,-77.38"/>
</a>
</g>
</g>
<!-- Node5 -->
<g id="Node000005" class="node">
<title>Node5</title>
<g id="a_Node000005"><a xlink:href="classllzk_1_1polymorphic_1_1_unifiable_cast_op_generic_adaptor.html" target="_top" xlink:title=" ">
<polygon fill="white" stroke="#666666" points="342.5,-41.75 187,-41.75 187,0 342.5,0 342.5,-41.75"/>
<text text-anchor="start" x="195" y="-28.25" font-family="Helvetica,sans-Serif" font-size="10.00">llzk::polymorphic::</text>
<text text-anchor="start" x="195" y="-17" font-family="Helvetica,sans-Serif" font-size="10.00">UnifiableCastOpGenericAdaptor</text>
<text text-anchor="middle" x="264.75" y="-5.75" font-family="Helvetica,sans-Serif" font-size="10.00">&lt; RangeT &gt;</text>
</a>
</g>
</g>
<!-- Node1&#45;&gt;Node5 -->
<g id="edge4_Node000001_Node000005" class="edge">
<title>Node1&#45;&gt;Node5</title>
<g id="a_edge4_Node000001_Node000005"><a xlink:title=" ">
<path fill="none" stroke="#63b8ff" d="M153.89,-56.08C168.24,-51.48 183.11,-46.71 197.1,-42.23"/>
<polygon fill="#63b8ff" stroke="#63b8ff" points="152.94,-52.71 144.49,-59.09 155.08,-59.37 152.94,-52.71"/>
</a>
</g>
</g>
<!-- Node4 -->
<g id="Node000004" class="node">
<title>Node4</title>
<g id="a_Node000004"><a xlink:href="classllzk_1_1polymorphic_1_1_unifiable_cast_op_adaptor.html" target="_top" xlink:title=" ">
<polygon fill="white" stroke="#666666" points="500.25,-96.12 378.5,-96.12 378.5,-65.62 500.25,-65.62 500.25,-96.12"/>
<text text-anchor="start" x="386.5" y="-82.62" font-family="Helvetica,sans-Serif" font-size="10.00">llzk::polymorphic::</text>
<text text-anchor="middle" x="439.38" y="-71.38" font-family="Helvetica,sans-Serif" font-size="10.00">UnifiableCastOpAdaptor</text>
</a>
</g>
</g>
<!-- Node3&#45;&gt;Node4 -->
<g id="edge3_Node000003_Node000004" class="edge">
<title>Node3&#45;&gt;Node4</title>
<g id="a_edge3_Node000003_Node000004"><a xlink:title=" ">
<path fill="none" stroke="#63b8ff" d="M354.32,-80.88C362.35,-80.88 370.35,-80.88 378.05,-80.88"/>
<polygon fill="#63b8ff" stroke="#63b8ff" points="354.49,-77.38 344.49,-80.88 354.49,-84.38 354.49,-77.38"/>
</a>
</g>
</g>
</g>
</svg>
