<?xml version="1.0" encoding="UTF-8" standalone="no"?>
<!DOCTYPE svg PUBLIC "-//W3C//DTD SVG 1.1//EN"
 "http://www.w3.org/Graphics/SVG/1.1/DTD/svg11.dtd">
<!-- Generated by graphviz version 12.2.1 (20241206.2353)
 -->
<!-- Title: llzk::global::GlobalReadOpAdaptor Pages: 1 -->
<svg width="184pt" height="274pt"
 viewBox="0.00 0.00 183.75 273.75" xmlns="http://www.w3.org/2000/svg" xmlns:xlink="http://www.w3.org/1999/xlink">
<g id="graph0" class="graph" transform="scale(1 1) rotate(0) translate(4 269.75)">
<title>llzk::global::GlobalReadOpAdaptor</title>
<!-- Node1 -->
<g id="Node000001" class="node">
<title>Node1</title>
<g id="a_Node000001"><a xlink:title=" ">
<polygon fill="#999999" stroke="#666666" points="147.62,-30.5 28.13,-30.5 28.13,0 147.62,0 147.62,-30.5"/>
<text text-anchor="start" x="36.12" y="-17" font-family="Helvetica,sans-Serif" font-size="10.00">llzk::global::GlobalRead</text>
<text text-anchor="middle" x="87.88" y="-5.75" font-family="Helvetica,sans-Serif" font-size="10.00">OpAdaptor</text>
</a>
</g>
</g>
<!-- Node2 -->
<g id="Node000002" class="node">
<title>Node2</title>
<g id="a_Node000002"><a xlink:href="classllzk_1_1global_1_1_global_read_op_generic_adaptor.html" target="_top" xlink:title=" ">
<polygon fill="white" stroke="#666666" points="149.88,-109.25 25.88,-109.25 25.88,-67.5 149.88,-67.5 149.88,-109.25"/>
<text text-anchor="start" x="33.88" y="-95.75" font-family="Helvetica,sans-Serif" font-size="10.00">llzk::global::GlobalRead</text>
<text text-anchor="start" x="33.88" y="-84.5" font-family="Helvetica,sans-Serif" font-size="10.00">OpGenericAdaptor&lt;::mlir</text>
<text text-anchor="middle" x="87.88" y="-73.25" font-family="Helvetica,sans-Serif" font-size="10.00">::ValueRange &gt;</text>
</a>
</g>
</g>
<!-- Node2&#45;&gt;Node1 -->
<g id="edge1_Node000001_Node000002" class="edge">
<title>Node2&#45;&gt;Node1</title>
<g id="a_edge1_Node000001_Node000002"><a xlink:title=" ">
<path fill="none" stroke="#63b8ff" d="M87.88,-55.95C87.88,-47.11 87.88,-37.92 87.88,-30.62"/>
<polygon fill="#63b8ff" stroke="#63b8ff" points="84.38,-55.67 87.88,-65.67 91.38,-55.67 84.38,-55.67"/>
</a>
</g>
</g>
<!-- Node3 -->
<g id="Node000003" class="node">
<title>Node3</title>
<g id="a_Node000003"><a xlink:href="classllzk_1_1global_1_1detail_1_1_global_read_op_generic_adaptor_base.html" target="_top" xlink:title=" ">
<polygon fill="white" stroke="#666666" points="175.75,-176.75 0,-176.75 0,-146.25 175.75,-146.25 175.75,-176.75"/>
<text text-anchor="start" x="8" y="-163.25" font-family="Helvetica,sans-Serif" font-size="10.00">llzk::global::detail</text>
<text text-anchor="middle" x="87.88" y="-152" font-family="Helvetica,sans-Serif" font-size="10.00">::GlobalReadOpGenericAdaptorBase</text>
</a>
</g>
</g>
<!-- Node3&#45;&gt;Node2 -->
<g id="edge2_Node000002_Node000003" class="edge">
<title>Node3&#45;&gt;Node2</title>
<g id="a_edge2_Node000002_Node000003"><a xlink:title=" ">
<path fill="none" stroke="#63b8ff" d="M87.88,-134.45C87.88,-126.21 87.88,-117.24 87.88,-109.49"/>
<polygon fill="#63b8ff" stroke="#63b8ff" points="84.38,-134.25 87.88,-144.25 91.38,-134.25 84.38,-134.25"/>
</a>
</g>
</g>
<!-- Node4 -->
<g id="Node000004" class="node">
<title>Node4</title>
<g id="a_Node000004"><a xlink:href="structllzk_1_1global_1_1detail_1_1_global_read_op_generic_adaptor_base_1_1_properties.html" target="_top" xlink:title=" ">
<polygon fill="white" stroke="#666666" points="164.5,-265.75 11.25,-265.75 11.25,-224 164.5,-224 164.5,-265.75"/>
<text text-anchor="start" x="19.25" y="-252.25" font-family="Helvetica,sans-Serif" font-size="10.00">llzk::global::detail</text>
<text text-anchor="start" x="19.25" y="-241" font-family="Helvetica,sans-Serif" font-size="10.00">::GlobalReadOpGenericAdaptor</text>
<text text-anchor="middle" x="87.88" y="-229.75" font-family="Helvetica,sans-Serif" font-size="10.00">Base::Properties</text>
</a>
</g>
</g>
<!-- Node4&#45;&gt;Node3 -->
<g id="edge3_Node000003_Node000004" class="edge">
<title>Node4&#45;&gt;Node3</title>
<g id="a_edge3_Node000003_Node000004"><a xlink:title=" ">
<path fill="none" stroke="#9a32cd" stroke-dasharray="5,2" d="M87.88,-212.55C87.88,-200.32 87.88,-186.89 87.88,-177.02"/>
<polygon fill="#9a32cd" stroke="#9a32cd" points="84.38,-212.25 87.88,-222.25 91.38,-212.25 84.38,-212.25"/>
</a>
</g>
<text text-anchor="middle" x="110.75" y="-196.5" font-family="Helvetica,sans-Serif" font-size="10.00" fill="grey"> properties</text>
</g>
</g>
</svg>
