<?xml version="1.0" encoding="UTF-8" standalone="no"?>
<!DOCTYPE svg PUBLIC "-//W3C//DTD SVG 1.1//EN"
 "http://www.w3.org/Graphics/SVG/1.1/DTD/svg11.dtd">
<!-- Generated by graphviz version 12.2.1 (20241206.2353)
 -->
<!-- Title: llzk::component::detail::FieldRefOpInterfaceInterfaceTraits::ExternalModel&lt; ConcreteModel, ConcreteOp &gt; Pages: 1 -->
<svg width="1054pt" height="61pt"
 viewBox="0.00 0.00 1054.00 61.00" xmlns="http://www.w3.org/2000/svg" xmlns:xlink="http://www.w3.org/1999/xlink">
<g id="graph0" class="graph" transform="scale(1 1) rotate(0) translate(4 57)">
<title>llzk::component::detail::FieldRefOpInterfaceInterfaceTraits::ExternalModel&lt; ConcreteModel, ConcreteOp &gt;</title>
<!-- Node1 -->
<g id="Node000001" class="node">
<title>Node1</title>
<g id="a_Node000001"><a xlink:title=" ">
<polygon fill="#999999" stroke="#666666" points="1046,-53 859,-53 859,0 1046,0 1046,-53"/>
<text text-anchor="start" x="867" y="-39.5" font-family="Helvetica,sans-Serif" font-size="10.00">llzk::component::detail</text>
<text text-anchor="start" x="867" y="-28.25" font-family="Helvetica,sans-Serif" font-size="10.00">::FieldRefOpInterfaceInterface</text>
<text text-anchor="start" x="867" y="-17" font-family="Helvetica,sans-Serif" font-size="10.00">Traits::ExternalModel&lt; ConcreteModel,</text>
<text text-anchor="middle" x="952.5" y="-5.75" font-family="Helvetica,sans-Serif" font-size="10.00"> ConcreteOp &gt;</text>
</a>
</g>
</g>
<!-- Node2 -->
<g id="Node000002" class="node">
<title>Node2</title>
<g id="a_Node000002"><a xlink:href="classllzk_1_1component_1_1detail_1_1_field_ref_op_interface_interface_traits_1_1_fallback_model.html" target="_top" xlink:title=" ">
<polygon fill="white" stroke="#666666" points="822,-47.38 628.25,-47.38 628.25,-5.62 822,-5.62 822,-47.38"/>
<text text-anchor="start" x="636.25" y="-33.88" font-family="Helvetica,sans-Serif" font-size="10.00">llzk::component::detail</text>
<text text-anchor="start" x="636.25" y="-22.62" font-family="Helvetica,sans-Serif" font-size="10.00">::FieldRefOpInterfaceInterface</text>
<text text-anchor="middle" x="725.12" y="-11.38" font-family="Helvetica,sans-Serif" font-size="10.00">Traits::FallbackModel&lt; ConcreteModel &gt;</text>
</a>
</g>
</g>
<!-- Node2&#45;&gt;Node1 -->
<g id="edge1_Node000001_Node000002" class="edge">
<title>Node2&#45;&gt;Node1</title>
<g id="a_edge1_Node000001_Node000002"><a xlink:title=" ">
<path fill="none" stroke="#63b8ff" d="M833.74,-26.5C842.12,-26.5 850.54,-26.5 858.81,-26.5"/>
<polygon fill="#63b8ff" stroke="#63b8ff" points="833.87,-23 823.87,-26.5 833.87,-30 833.87,-23"/>
</a>
</g>
</g>
<!-- Node3 -->
<g id="Node000003" class="node">
<title>Node3</title>
<g id="a_Node000003"><a xlink:href="structllzk_1_1component_1_1detail_1_1_field_ref_op_interface_interface_traits_1_1_concept.html" target="_top" xlink:title=" ">
<polygon fill="white" stroke="#666666" points="591.25,-47.38 443.25,-47.38 443.25,-5.62 591.25,-5.62 591.25,-47.38"/>
<text text-anchor="start" x="451.25" y="-33.88" font-family="Helvetica,sans-Serif" font-size="10.00">llzk::component::detail</text>
<text text-anchor="start" x="451.25" y="-22.62" font-family="Helvetica,sans-Serif" font-size="10.00">::FieldRefOpInterfaceInterface</text>
<text text-anchor="middle" x="517.25" y="-11.38" font-family="Helvetica,sans-Serif" font-size="10.00">Traits::Concept</text>
</a>
</g>
</g>
<!-- Node3&#45;&gt;Node2 -->
<g id="edge2_Node000002_Node000003" class="edge">
<title>Node3&#45;&gt;Node2</title>
<g id="a_edge2_Node000002_Node000003"><a xlink:title=" ">
<path fill="none" stroke="#63b8ff" d="M603.17,-26.5C611.38,-26.5 619.74,-26.5 628.04,-26.5"/>
<polygon fill="#63b8ff" stroke="#63b8ff" points="603.22,-23 593.22,-26.5 603.22,-30 603.22,-23"/>
</a>
</g>
</g>
<!-- Node4 -->
<g id="Node000004" class="node">
<title>Node4</title>
<g id="a_Node000004"><a xlink:href="classllzk_1_1component_1_1_struct_type.html" target="_top" xlink:title=" ">
<polygon fill="white" stroke="#666666" points="343.5,-36.12 205.25,-36.12 205.25,-16.88 343.5,-16.88 343.5,-36.12"/>
<text text-anchor="middle" x="274.38" y="-22.62" font-family="Helvetica,sans-Serif" font-size="10.00">llzk::component::StructType</text>
</a>
</g>
</g>
<!-- Node4&#45;&gt;Node3 -->
<g id="edge3_Node000003_Node000004" class="edge">
<title>Node4&#45;&gt;Node3</title>
<g id="a_edge3_Node000003_Node000004"><a xlink:title=" ">
<path fill="none" stroke="#9a32cd" stroke-dasharray="5,2" d="M355.26,-26.5C383.59,-26.5 415.32,-26.5 443.07,-26.5"/>
<polygon fill="#9a32cd" stroke="#9a32cd" points="355.27,-23 345.27,-26.5 355.27,-30 355.27,-23"/>
</a>
</g>
<text text-anchor="middle" x="393.38" y="-28.25" font-family="Helvetica,sans-Serif" font-size="10.00" fill="grey"> getStructType</text>
</g>
<!-- Node5 -->
<g id="Node000005" class="node">
<title>Node5</title>
<g id="a_Node000005"><a xlink:title=" ">
<polygon fill="white" stroke="#666666" points="168.25,-47.38 0,-47.38 0,-5.62 168.25,-5.62 168.25,-47.38"/>
<text text-anchor="start" x="8" y="-33.88" font-family="Helvetica,sans-Serif" font-size="10.00">mlir::Type::TypeBase</text>
<text text-anchor="start" x="8" y="-22.62" font-family="Helvetica,sans-Serif" font-size="10.00">&lt; StructType, ::mlir</text>
<text text-anchor="middle" x="84.12" y="-11.38" font-family="Helvetica,sans-Serif" font-size="10.00">::Type, detail::StructTypeStorage &gt;</text>
</a>
</g>
</g>
<!-- Node5&#45;&gt;Node4 -->
<g id="edge4_Node000004_Node000005" class="edge">
<title>Node5&#45;&gt;Node4</title>
<g id="a_edge4_Node000004_Node000005"><a xlink:title=" ">
<path fill="none" stroke="#63b8ff" d="M179.99,-26.5C188.43,-26.5 196.85,-26.5 205,-26.5"/>
<polygon fill="#63b8ff" stroke="#63b8ff" points="180.03,-23 170.03,-26.5 180.03,-30 180.03,-23"/>
</a>
</g>
</g>
</g>
</svg>
