<?xml version="1.0" encoding="UTF-8" standalone="no"?>
<!DOCTYPE svg PUBLIC "-//W3C//DTD SVG 1.1//EN"
 "http://www.w3.org/Graphics/SVG/1.1/DTD/svg11.dtd">
<!-- Generated by graphviz version 12.2.1 (20241206.2353)
 -->
<!-- Title: llzk::undef::detail::UndefOpGenericAdaptorBase Pages: 1 -->
<svg width="516pt" height="147pt"
 viewBox="0.00 0.00 515.75 147.12" xmlns="http://www.w3.org/2000/svg" xmlns:xlink="http://www.w3.org/1999/xlink">
<g id="graph0" class="graph" transform="scale(1 1) rotate(0) translate(4 143.12)">
<title>llzk::undef::detail::UndefOpGenericAdaptorBase</title>
<!-- Node1 -->
<g id="Node000001" class="node">
<title>Node1</title>
<g id="a_Node000001"><a xlink:title=" ">
<polygon fill="#999999" stroke="#666666" points="151,-79.5 0,-79.5 0,-49 151,-49 151,-79.5"/>
<text text-anchor="start" x="8" y="-66" font-family="Helvetica,sans-Serif" font-size="10.00">llzk::undef::detail</text>
<text text-anchor="middle" x="75.5" y="-54.75" font-family="Helvetica,sans-Serif" font-size="10.00">::UndefOpGenericAdaptorBase</text>
</a>
</g>
</g>
<!-- Node2 -->
<g id="Node000002" class="node">
<title>Node2</title>
<g id="a_Node000002"><a xlink:href="classllzk_1_1undef_1_1_undef_op_generic_adaptor.html" target="_top" xlink:title=" ">
<polygon fill="white" stroke="#666666" points="329.38,-139.12 189.62,-139.12 189.62,-97.38 329.38,-97.38 329.38,-139.12"/>
<text text-anchor="start" x="197.62" y="-125.62" font-family="Helvetica,sans-Serif" font-size="10.00">llzk::undef::UndefOpGeneric</text>
<text text-anchor="start" x="197.62" y="-114.38" font-family="Helvetica,sans-Serif" font-size="10.00">Adaptor&lt;::llvm::ArrayRef</text>
<text text-anchor="middle" x="259.5" y="-103.12" font-family="Helvetica,sans-Serif" font-size="10.00">&lt;::mlir::Attribute &gt; &gt;</text>
</a>
</g>
</g>
<!-- Node1&#45;&gt;Node2 -->
<g id="edge1_Node000001_Node000002" class="edge">
<title>Node1&#45;&gt;Node2</title>
<g id="a_edge1_Node000001_Node000002"><a xlink:title=" ">
<path fill="none" stroke="#63b8ff" d="M139.97,-83.08C155.93,-87.82 173.14,-92.92 189.37,-97.74"/>
<polygon fill="#63b8ff" stroke="#63b8ff" points="141.18,-79.79 130.59,-80.3 139.18,-86.5 141.18,-79.79"/>
</a>
</g>
</g>
<!-- Node3 -->
<g id="Node000003" class="node">
<title>Node3</title>
<g id="a_Node000003"><a xlink:href="classllzk_1_1undef_1_1_undef_op_generic_adaptor.html" target="_top" xlink:title=" ">
<polygon fill="white" stroke="#666666" points="332,-79.5 187,-79.5 187,-49 332,-49 332,-79.5"/>
<text text-anchor="start" x="195" y="-66" font-family="Helvetica,sans-Serif" font-size="10.00">llzk::undef::UndefOpGeneric</text>
<text text-anchor="middle" x="259.5" y="-54.75" font-family="Helvetica,sans-Serif" font-size="10.00">Adaptor&lt;::mlir::ValueRange &gt;</text>
</a>
</g>
</g>
<!-- Node1&#45;&gt;Node3 -->
<g id="edge2_Node000001_Node000003" class="edge">
<title>Node1&#45;&gt;Node3</title>
<g id="a_edge2_Node000001_Node000003"><a xlink:title=" ">
<path fill="none" stroke="#63b8ff" d="M162.61,-64.25C170.65,-64.25 178.73,-64.25 186.62,-64.25"/>
<polygon fill="#63b8ff" stroke="#63b8ff" points="162.83,-60.75 152.83,-64.25 162.83,-67.75 162.83,-60.75"/>
</a>
</g>
</g>
<!-- Node5 -->
<g id="Node000005" class="node">
<title>Node5</title>
<g id="a_Node000005"><a xlink:href="classllzk_1_1undef_1_1_undef_op_generic_adaptor.html" target="_top" xlink:title=" ">
<polygon fill="white" stroke="#666666" points="329.38,-30.5 189.62,-30.5 189.62,0 329.38,0 329.38,-30.5"/>
<text text-anchor="start" x="197.62" y="-17" font-family="Helvetica,sans-Serif" font-size="10.00">llzk::undef::UndefOpGeneric</text>
<text text-anchor="middle" x="259.5" y="-5.75" font-family="Helvetica,sans-Serif" font-size="10.00">Adaptor&lt; RangeT &gt;</text>
</a>
</g>
</g>
<!-- Node1&#45;&gt;Node5 -->
<g id="edge4_Node000001_Node000005" class="edge">
<title>Node1&#45;&gt;Node5</title>
<g id="a_edge4_Node000001_Node000005"><a xlink:title=" ">
<path fill="none" stroke="#63b8ff" d="M145.82,-45.59C163.75,-40.76 182.88,-35.61 200.18,-30.95"/>
<polygon fill="#63b8ff" stroke="#63b8ff" points="145.04,-42.17 136.3,-48.15 146.86,-48.93 145.04,-42.17"/>
</a>
</g>
</g>
<!-- Node4 -->
<g id="Node000004" class="node">
<title>Node4</title>
<g id="a_Node000004"><a xlink:href="classllzk_1_1undef_1_1_undef_op_adaptor.html" target="_top" xlink:title=" ">
<polygon fill="white" stroke="#666666" points="507.75,-73.88 368,-73.88 368,-54.62 507.75,-54.62 507.75,-73.88"/>
<text text-anchor="middle" x="437.88" y="-60.38" font-family="Helvetica,sans-Serif" font-size="10.00">llzk::undef::UndefOpAdaptor</text>
</a>
</g>
</g>
<!-- Node3&#45;&gt;Node4 -->
<g id="edge3_Node000003_Node000004" class="edge">
<title>Node3&#45;&gt;Node4</title>
<g id="a_edge3_Node000003_Node000004"><a xlink:title=" ">
<path fill="none" stroke="#63b8ff" d="M343.75,-64.25C351.76,-64.25 359.82,-64.25 367.68,-64.25"/>
<polygon fill="#63b8ff" stroke="#63b8ff" points="344.01,-60.75 334.01,-64.25 344.01,-67.75 344.01,-60.75"/>
</a>
</g>
</g>
</g>
</svg>
