<?xml version="1.0" encoding="UTF-8" standalone="no"?>
<!DOCTYPE svg PUBLIC "-//W3C//DTD SVG 1.1//EN"
 "http://www.w3.org/Graphics/SVG/1.1/DTD/svg11.dtd">
<!-- Generated by graphviz version 12.2.1 (20241206.2353)
 -->
<!-- Title: llzk::component::FieldDefOpAdaptor Pages: 1 -->
<svg width="170pt" height="274pt"
 viewBox="0.00 0.00 169.50 273.75" xmlns="http://www.w3.org/2000/svg" xmlns:xlink="http://www.w3.org/1999/xlink">
<g id="graph0" class="graph" transform="scale(1 1) rotate(0) translate(4 269.75)">
<title>llzk::component::FieldDefOpAdaptor</title>
<!-- Node1 -->
<g id="Node000001" class="node">
<title>Node1</title>
<g id="a_Node000001"><a xlink:title=" ">
<polygon fill="#999999" stroke="#666666" points="144.62,-30.5 16.88,-30.5 16.88,0 144.62,0 144.62,-30.5"/>
<text text-anchor="start" x="24.88" y="-17" font-family="Helvetica,sans-Serif" font-size="10.00">llzk::component::FieldDef</text>
<text text-anchor="middle" x="80.75" y="-5.75" font-family="Helvetica,sans-Serif" font-size="10.00">OpAdaptor</text>
</a>
</g>
</g>
<!-- Node2 -->
<g id="Node000002" class="node">
<title>Node2</title>
<g id="a_Node000002"><a xlink:href="classllzk_1_1component_1_1_field_def_op_generic_adaptor.html" target="_top" xlink:title=" ">
<polygon fill="white" stroke="#666666" points="144.62,-109.25 16.88,-109.25 16.88,-67.5 144.62,-67.5 144.62,-109.25"/>
<text text-anchor="start" x="24.88" y="-95.75" font-family="Helvetica,sans-Serif" font-size="10.00">llzk::component::FieldDef</text>
<text text-anchor="start" x="24.88" y="-84.5" font-family="Helvetica,sans-Serif" font-size="10.00">OpGenericAdaptor&lt;::mlir</text>
<text text-anchor="middle" x="80.75" y="-73.25" font-family="Helvetica,sans-Serif" font-size="10.00">::ValueRange &gt;</text>
</a>
</g>
</g>
<!-- Node2&#45;&gt;Node1 -->
<g id="edge1_Node000001_Node000002" class="edge">
<title>Node2&#45;&gt;Node1</title>
<g id="a_edge1_Node000001_Node000002"><a xlink:title=" ">
<path fill="none" stroke="#63b8ff" d="M80.75,-55.95C80.75,-47.11 80.75,-37.92 80.75,-30.62"/>
<polygon fill="#63b8ff" stroke="#63b8ff" points="77.25,-55.67 80.75,-65.67 84.25,-55.67 77.25,-55.67"/>
</a>
</g>
</g>
<!-- Node3 -->
<g id="Node000003" class="node">
<title>Node3</title>
<g id="a_Node000003"><a xlink:href="classllzk_1_1component_1_1detail_1_1_field_def_op_generic_adaptor_base.html" target="_top" xlink:title=" ">
<polygon fill="white" stroke="#666666" points="161.5,-176.75 0,-176.75 0,-146.25 161.5,-146.25 161.5,-176.75"/>
<text text-anchor="start" x="8" y="-163.25" font-family="Helvetica,sans-Serif" font-size="10.00">llzk::component::detail</text>
<text text-anchor="middle" x="80.75" y="-152" font-family="Helvetica,sans-Serif" font-size="10.00">::FieldDefOpGenericAdaptorBase</text>
</a>
</g>
</g>
<!-- Node3&#45;&gt;Node2 -->
<g id="edge2_Node000002_Node000003" class="edge">
<title>Node3&#45;&gt;Node2</title>
<g id="a_edge2_Node000002_Node000003"><a xlink:title=" ">
<path fill="none" stroke="#63b8ff" d="M80.75,-134.45C80.75,-126.21 80.75,-117.24 80.75,-109.49"/>
<polygon fill="#63b8ff" stroke="#63b8ff" points="77.25,-134.25 80.75,-144.25 84.25,-134.25 77.25,-134.25"/>
</a>
</g>
</g>
<!-- Node4 -->
<g id="Node000004" class="node">
<title>Node4</title>
<g id="a_Node000004"><a xlink:href="structllzk_1_1component_1_1detail_1_1_field_def_op_generic_adaptor_base_1_1_properties.html" target="_top" xlink:title=" ">
<polygon fill="white" stroke="#666666" points="161.5,-265.75 0,-265.75 0,-224 161.5,-224 161.5,-265.75"/>
<text text-anchor="start" x="8" y="-252.25" font-family="Helvetica,sans-Serif" font-size="10.00">llzk::component::detail</text>
<text text-anchor="start" x="8" y="-241" font-family="Helvetica,sans-Serif" font-size="10.00">::FieldDefOpGenericAdaptorBase</text>
<text text-anchor="middle" x="80.75" y="-229.75" font-family="Helvetica,sans-Serif" font-size="10.00">::Properties</text>
</a>
</g>
</g>
<!-- Node4&#45;&gt;Node3 -->
<g id="edge3_Node000003_Node000004" class="edge">
<title>Node4&#45;&gt;Node3</title>
<g id="a_edge3_Node000003_Node000004"><a xlink:title=" ">
<path fill="none" stroke="#9a32cd" stroke-dasharray="5,2" d="M80.75,-212.55C80.75,-200.32 80.75,-186.89 80.75,-177.02"/>
<polygon fill="#9a32cd" stroke="#9a32cd" points="77.25,-212.25 80.75,-222.25 84.25,-212.25 77.25,-212.25"/>
</a>
</g>
<text text-anchor="middle" x="103.62" y="-196.5" font-family="Helvetica,sans-Serif" font-size="10.00" fill="grey"> properties</text>
</g>
</g>
</svg>
