<?xml version="1.0" encoding="UTF-8" standalone="no"?>
<!DOCTYPE svg PUBLIC "-//W3C//DTD SVG 1.1//EN"
 "http://www.w3.org/Graphics/SVG/1.1/DTD/svg11.dtd">
<!-- Generated by graphviz version 12.2.1 (20241206.2353)
 -->
<!-- Title: llzk::array::ExtractArrayOpAdaptor Pages: 1 -->
<svg width="188pt" height="183pt"
 viewBox="0.00 0.00 187.50 182.75" xmlns="http://www.w3.org/2000/svg" xmlns:xlink="http://www.w3.org/1999/xlink">
<g id="graph0" class="graph" transform="scale(1 1) rotate(0) translate(4 178.75)">
<title>llzk::array::ExtractArrayOpAdaptor</title>
<!-- Node1 -->
<g id="Node000001" class="node">
<title>Node1</title>
<g id="a_Node000001"><a xlink:title=" ">
<polygon fill="#999999" stroke="#666666" points="149.5,-30.5 30,-30.5 30,0 149.5,0 149.5,-30.5"/>
<text text-anchor="start" x="38" y="-17" font-family="Helvetica,sans-Serif" font-size="10.00">llzk::array::ExtractArray</text>
<text text-anchor="middle" x="89.75" y="-5.75" font-family="Helvetica,sans-Serif" font-size="10.00">OpAdaptor</text>
</a>
</g>
</g>
<!-- Node2 -->
<g id="Node000002" class="node">
<title>Node2</title>
<g id="a_Node000002"><a xlink:href="classllzk_1_1array_1_1_extract_array_op_generic_adaptor.html" target="_top" xlink:title=" ">
<polygon fill="white" stroke="#666666" points="151.75,-108.25 27.75,-108.25 27.75,-66.5 151.75,-66.5 151.75,-108.25"/>
<text text-anchor="start" x="35.75" y="-94.75" font-family="Helvetica,sans-Serif" font-size="10.00">llzk::array::ExtractArray</text>
<text text-anchor="start" x="35.75" y="-83.5" font-family="Helvetica,sans-Serif" font-size="10.00">OpGenericAdaptor&lt;::mlir</text>
<text text-anchor="middle" x="89.75" y="-72.25" font-family="Helvetica,sans-Serif" font-size="10.00">::ValueRange &gt;</text>
</a>
</g>
</g>
<!-- Node2&#45;&gt;Node1 -->
<g id="edge1_Node000001_Node000002" class="edge">
<title>Node2&#45;&gt;Node1</title>
<g id="a_edge1_Node000001_Node000002"><a xlink:title=" ">
<path fill="none" stroke="#63b8ff" d="M89.75,-54.63C89.75,-46.27 89.75,-37.65 89.75,-30.7"/>
<polygon fill="#63b8ff" stroke="#63b8ff" points="86.25,-54.58 89.75,-64.58 93.25,-54.58 86.25,-54.58"/>
</a>
</g>
</g>
<!-- Node3 -->
<g id="Node000003" class="node">
<title>Node3</title>
<g id="a_Node000003"><a xlink:href="classllzk_1_1array_1_1detail_1_1_extract_array_op_generic_adaptor_base.html" target="_top" xlink:title=" ">
<polygon fill="white" stroke="#666666" points="179.5,-174.75 0,-174.75 0,-144.25 179.5,-144.25 179.5,-174.75"/>
<text text-anchor="start" x="8" y="-161.25" font-family="Helvetica,sans-Serif" font-size="10.00">llzk::array::detail</text>
<text text-anchor="middle" x="89.75" y="-150" font-family="Helvetica,sans-Serif" font-size="10.00">::ExtractArrayOpGenericAdaptorBase</text>
</a>
</g>
</g>
<!-- Node3&#45;&gt;Node2 -->
<g id="edge2_Node000002_Node000003" class="edge">
<title>Node3&#45;&gt;Node2</title>
<g id="a_edge2_Node000002_Node000003"><a xlink:title=" ">
<path fill="none" stroke="#63b8ff" d="M89.75,-132.72C89.75,-124.81 89.75,-116.23 89.75,-108.74"/>
<polygon fill="#63b8ff" stroke="#63b8ff" points="86.25,-132.46 89.75,-142.46 93.25,-132.46 86.25,-132.46"/>
</a>
</g>
</g>
</g>
</svg>
