<?xml version="1.0" encoding="UTF-8" standalone="no"?>
<!DOCTYPE svg PUBLIC "-//W3C//DTD SVG 1.1//EN"
 "http://www.w3.org/Graphics/SVG/1.1/DTD/svg11.dtd">
<!-- Generated by graphviz version 12.2.1 (20241206.2353)
 -->
<!-- Title: llzk::IntervalDataFlowAnalysis Pages: 1 -->
<svg width="182pt" height="227pt"
 viewBox="0.00 0.00 182.25 226.75" xmlns="http://www.w3.org/2000/svg" xmlns:xlink="http://www.w3.org/1999/xlink">
<g id="graph0" class="graph" transform="scale(1 1) rotate(0) translate(4 222.75)">
<title>llzk::IntervalDataFlowAnalysis</title>
<!-- Node1 -->
<g id="Node000001" class="node">
<title>Node1</title>
<g id="a_Node000001"><a xlink:title=" ">
<polygon fill="#999999" stroke="#666666" points="161.5,-19.25 12.75,-19.25 12.75,0 161.5,0 161.5,-19.25"/>
<text text-anchor="middle" x="87.12" y="-5.75" font-family="Helvetica,sans-Serif" font-size="10.00">llzk::IntervalDataFlowAnalysis</text>
</a>
</g>
</g>
<!-- Node2 -->
<g id="Node000002" class="node">
<title>Node2</title>
<g id="a_Node000002"><a xlink:href="classllzk_1_1dataflow_1_1_dense_forward_data_flow_analysis.html" target="_top" xlink:title=" ">
<polygon fill="white" stroke="#666666" points="174.25,-97 0,-97 0,-55.25 174.25,-55.25 174.25,-97"/>
<text text-anchor="start" x="8" y="-83.5" font-family="Helvetica,sans-Serif" font-size="10.00">llzk::dataflow::DenseForward</text>
<text text-anchor="start" x="8" y="-72.25" font-family="Helvetica,sans-Serif" font-size="10.00">DataFlowAnalysis&lt; IntervalAnalysis</text>
<text text-anchor="middle" x="87.12" y="-61" font-family="Helvetica,sans-Serif" font-size="10.00">Lattice &gt;</text>
</a>
</g>
</g>
<!-- Node2&#45;&gt;Node1 -->
<g id="edge1_Node000001_Node000002" class="edge">
<title>Node2&#45;&gt;Node1</title>
<g id="a_edge1_Node000001_Node000002"><a xlink:title=" ">
<path fill="none" stroke="#63b8ff" d="M87.12,-43.76C87.12,-34.95 87.12,-26.05 87.12,-19.7"/>
<polygon fill="#63b8ff" stroke="#63b8ff" points="83.63,-43.56 87.13,-53.56 90.63,-43.56 83.63,-43.56"/>
</a>
</g>
</g>
<!-- Node3 -->
<g id="Node000003" class="node">
<title>Node3</title>
<g id="a_Node000003"><a xlink:href="classllzk_1_1dataflow_1_1_abstract_dense_forward_data_flow_analysis.html" target="_top" xlink:title="LLZK: This class has been ported from the MLIR DenseAnalysis utilities to allow for the use of custom...">
<polygon fill="white" stroke="#666666" points="166.75,-163.5 7.5,-163.5 7.5,-133 166.75,-133 166.75,-163.5"/>
<text text-anchor="start" x="15.5" y="-150" font-family="Helvetica,sans-Serif" font-size="10.00">llzk::dataflow::Abstract</text>
<text text-anchor="middle" x="87.12" y="-138.75" font-family="Helvetica,sans-Serif" font-size="10.00">DenseForwardDataFlowAnalysis</text>
</a>
</g>
</g>
<!-- Node3&#45;&gt;Node2 -->
<g id="edge2_Node000002_Node000003" class="edge">
<title>Node3&#45;&gt;Node2</title>
<g id="a_edge2_Node000002_Node000003"><a xlink:title=" ">
<path fill="none" stroke="#63b8ff" d="M87.12,-121.47C87.12,-113.56 87.12,-104.98 87.12,-97.49"/>
<polygon fill="#63b8ff" stroke="#63b8ff" points="83.63,-121.21 87.13,-131.21 90.63,-121.21 83.63,-121.21"/>
</a>
</g>
</g>
<!-- Node4 -->
<g id="Node000004" class="node">
<title>Node4</title>
<g id="a_Node000004"><a xlink:title=" ">
<polygon fill="white" stroke="#666666" points="145.75,-218.75 28.5,-218.75 28.5,-199.5 145.75,-199.5 145.75,-218.75"/>
<text text-anchor="middle" x="87.12" y="-205.25" font-family="Helvetica,sans-Serif" font-size="10.00">mlir::DataFlowAnalysis</text>
</a>
</g>
</g>
<!-- Node4&#45;&gt;Node3 -->
<g id="edge3_Node000003_Node000004" class="edge">
<title>Node4&#45;&gt;Node3</title>
<g id="a_edge3_Node000003_Node000004"><a xlink:title=" ">
<path fill="none" stroke="#63b8ff" d="M87.12,-187.92C87.12,-179.99 87.12,-171.06 87.12,-163.78"/>
<polygon fill="#63b8ff" stroke="#63b8ff" points="83.63,-187.67 87.13,-197.67 90.63,-187.67 83.63,-187.67"/>
</a>
</g>
</g>
</g>
</svg>
