<?xml version="1.0" encoding="UTF-8" standalone="no"?>
<!DOCTYPE svg PUBLIC "-//W3C//DTD SVG 1.1//EN"
 "http://www.w3.org/Graphics/SVG/1.1/DTD/svg11.dtd">
<!-- Generated by graphviz version 12.2.1 (20241206.2353)
 -->
<!-- Title: llzk::polymorphic::detail::ConstReadOpGenericAdaptorBase Pages: 1 -->
<svg width="479pt" height="180pt"
 viewBox="0.00 0.00 479.00 180.38" xmlns="http://www.w3.org/2000/svg" xmlns:xlink="http://www.w3.org/1999/xlink">
<g id="graph0" class="graph" transform="scale(1 1) rotate(0) translate(4 176.38)">
<title>llzk::polymorphic::detail::ConstReadOpGenericAdaptorBase</title>
<!-- Node1 -->
<g id="Node000001" class="node">
<title>Node1</title>
<g id="a_Node000001"><a xlink:title=" ">
<polygon fill="#999999" stroke="#666666" points="141.25,-101.75 0,-101.75 0,-60 141.25,-60 141.25,-101.75"/>
<text text-anchor="start" x="8" y="-88.25" font-family="Helvetica,sans-Serif" font-size="10.00">llzk::polymorphic::</text>
<text text-anchor="start" x="8" y="-77" font-family="Helvetica,sans-Serif" font-size="10.00">detail::ConstReadOpGeneric</text>
<text text-anchor="middle" x="70.62" y="-65.75" font-family="Helvetica,sans-Serif" font-size="10.00">AdaptorBase</text>
</a>
</g>
</g>
<!-- Node2 -->
<g id="Node000002" class="node">
<title>Node2</title>
<g id="a_Node000002"><a xlink:href="classllzk_1_1polymorphic_1_1_const_read_op_generic_adaptor.html" target="_top" xlink:title=" ">
<polygon fill="white" stroke="#666666" points="323,-172.38 177.25,-172.38 177.25,-119.38 323,-119.38 323,-172.38"/>
<text text-anchor="start" x="185.25" y="-158.88" font-family="Helvetica,sans-Serif" font-size="10.00">llzk::polymorphic::</text>
<text text-anchor="start" x="185.25" y="-147.62" font-family="Helvetica,sans-Serif" font-size="10.00">ConstReadOpGenericAdaptor</text>
<text text-anchor="start" x="185.25" y="-136.38" font-family="Helvetica,sans-Serif" font-size="10.00">&lt;::llvm::ArrayRef&lt;::mlir</text>
<text text-anchor="middle" x="250.12" y="-125.12" font-family="Helvetica,sans-Serif" font-size="10.00">::Attribute &gt; &gt;</text>
</a>
</g>
</g>
<!-- Node1&#45;&gt;Node2 -->
<g id="edge1_Node000001_Node000002" class="edge">
<title>Node1&#45;&gt;Node2</title>
<g id="a_edge1_Node000001_Node000002"><a xlink:title=" ">
<path fill="none" stroke="#63b8ff" d="M140.53,-106.11C152.46,-110.48 164.89,-115.03 176.91,-119.43"/>
<polygon fill="#63b8ff" stroke="#63b8ff" points="141.76,-102.83 131.17,-102.68 139.35,-109.4 141.76,-102.83"/>
</a>
</g>
</g>
<!-- Node3 -->
<g id="Node000003" class="node">
<title>Node3</title>
<g id="a_Node000003"><a xlink:href="classllzk_1_1polymorphic_1_1_const_read_op_generic_adaptor.html" target="_top" xlink:title=" ">
<polygon fill="white" stroke="#666666" points="323,-101.75 177.25,-101.75 177.25,-60 323,-60 323,-101.75"/>
<text text-anchor="start" x="185.25" y="-88.25" font-family="Helvetica,sans-Serif" font-size="10.00">llzk::polymorphic::</text>
<text text-anchor="start" x="185.25" y="-77" font-family="Helvetica,sans-Serif" font-size="10.00">ConstReadOpGenericAdaptor</text>
<text text-anchor="middle" x="250.12" y="-65.75" font-family="Helvetica,sans-Serif" font-size="10.00">&lt;::mlir::ValueRange &gt;</text>
</a>
</g>
</g>
<!-- Node1&#45;&gt;Node3 -->
<g id="edge2_Node000001_Node000003" class="edge">
<title>Node1&#45;&gt;Node3</title>
<g id="a_edge2_Node000001_Node000003"><a xlink:title=" ">
<path fill="none" stroke="#63b8ff" d="M152.82,-80.88C160.87,-80.88 169.01,-80.88 176.96,-80.88"/>
<polygon fill="#63b8ff" stroke="#63b8ff" points="153.04,-77.38 143.04,-80.88 153.04,-84.38 153.04,-77.38"/>
</a>
</g>
</g>
<!-- Node5 -->
<g id="Node000005" class="node">
<title>Node5</title>
<g id="a_Node000005"><a xlink:href="classllzk_1_1polymorphic_1_1_const_read_op_generic_adaptor.html" target="_top" xlink:title=" ">
<polygon fill="white" stroke="#666666" points="323,-41.75 177.25,-41.75 177.25,0 323,0 323,-41.75"/>
<text text-anchor="start" x="185.25" y="-28.25" font-family="Helvetica,sans-Serif" font-size="10.00">llzk::polymorphic::</text>
<text text-anchor="start" x="185.25" y="-17" font-family="Helvetica,sans-Serif" font-size="10.00">ConstReadOpGenericAdaptor</text>
<text text-anchor="middle" x="250.12" y="-5.75" font-family="Helvetica,sans-Serif" font-size="10.00">&lt; RangeT &gt;</text>
</a>
</g>
</g>
<!-- Node1&#45;&gt;Node5 -->
<g id="edge4_Node000001_Node000005" class="edge">
<title>Node1&#45;&gt;Node5</title>
<g id="a_edge4_Node000001_Node000005"><a xlink:title=" ">
<path fill="none" stroke="#63b8ff" d="M145.39,-55.94C158.86,-51.39 172.81,-46.67 185.95,-42.23"/>
<polygon fill="#63b8ff" stroke="#63b8ff" points="144.49,-52.55 136.14,-59.07 146.73,-59.18 144.49,-52.55"/>
</a>
</g>
</g>
<!-- Node4 -->
<g id="Node000004" class="node">
<title>Node4</title>
<g id="a_Node000004"><a xlink:href="classllzk_1_1polymorphic_1_1_const_read_op_adaptor.html" target="_top" xlink:title=" ">
<polygon fill="white" stroke="#666666" points="471,-96.12 359,-96.12 359,-65.62 471,-65.62 471,-96.12"/>
<text text-anchor="start" x="367" y="-82.62" font-family="Helvetica,sans-Serif" font-size="10.00">llzk::polymorphic::</text>
<text text-anchor="middle" x="415" y="-71.38" font-family="Helvetica,sans-Serif" font-size="10.00">ConstReadOpAdaptor</text>
</a>
</g>
</g>
<!-- Node3&#45;&gt;Node4 -->
<g id="edge3_Node000003_Node000004" class="edge">
<title>Node3&#45;&gt;Node4</title>
<g id="a_edge3_Node000003_Node000004"><a xlink:title=" ">
<path fill="none" stroke="#63b8ff" d="M334.27,-80.88C342.52,-80.88 350.75,-80.88 358.62,-80.88"/>
<polygon fill="#63b8ff" stroke="#63b8ff" points="334.55,-77.38 324.55,-80.88 334.55,-84.38 334.55,-77.38"/>
</a>
</g>
</g>
</g>
</svg>
