<?xml version="1.0" encoding="UTF-8" standalone="no"?>
<!DOCTYPE svg PUBLIC "-//W3C//DTD SVG 1.1//EN"
 "http://www.w3.org/Graphics/SVG/1.1/DTD/svg11.dtd">
<!-- Generated by graphviz version 12.2.1 (20241206.2353)
 -->
<!-- Title: llzk::global::GlobalDefOpAdaptor Pages: 1 -->
<svg width="176pt" height="274pt"
 viewBox="0.00 0.00 176.25 273.75" xmlns="http://www.w3.org/2000/svg" xmlns:xlink="http://www.w3.org/1999/xlink">
<g id="graph0" class="graph" transform="scale(1 1) rotate(0) translate(4 269.75)">
<title>llzk::global::GlobalDefOpAdaptor</title>
<!-- Node1 -->
<g id="Node000001" class="node">
<title>Node1</title>
<g id="a_Node000001"><a xlink:title=" ">
<polygon fill="#999999" stroke="#666666" points="146.5,-30.5 21.75,-30.5 21.75,0 146.5,0 146.5,-30.5"/>
<text text-anchor="start" x="29.75" y="-17" font-family="Helvetica,sans-Serif" font-size="10.00">llzk::global::GlobalDefOp</text>
<text text-anchor="middle" x="84.12" y="-5.75" font-family="Helvetica,sans-Serif" font-size="10.00">Adaptor</text>
</a>
</g>
</g>
<!-- Node2 -->
<g id="Node000002" class="node">
<title>Node2</title>
<g id="a_Node000002"><a xlink:href="classllzk_1_1global_1_1_global_def_op_generic_adaptor.html" target="_top" xlink:title=" ">
<polygon fill="white" stroke="#666666" points="146.5,-109.25 21.75,-109.25 21.75,-67.5 146.5,-67.5 146.5,-109.25"/>
<text text-anchor="start" x="29.75" y="-95.75" font-family="Helvetica,sans-Serif" font-size="10.00">llzk::global::GlobalDefOp</text>
<text text-anchor="start" x="29.75" y="-84.5" font-family="Helvetica,sans-Serif" font-size="10.00">GenericAdaptor&lt;::mlir::</text>
<text text-anchor="middle" x="84.12" y="-73.25" font-family="Helvetica,sans-Serif" font-size="10.00">ValueRange &gt;</text>
</a>
</g>
</g>
<!-- Node2&#45;&gt;Node1 -->
<g id="edge1_Node000001_Node000002" class="edge">
<title>Node2&#45;&gt;Node1</title>
<g id="a_edge1_Node000001_Node000002"><a xlink:title=" ">
<path fill="none" stroke="#63b8ff" d="M84.12,-55.95C84.12,-47.11 84.12,-37.92 84.12,-30.62"/>
<polygon fill="#63b8ff" stroke="#63b8ff" points="80.63,-55.67 84.13,-65.67 87.63,-55.67 80.63,-55.67"/>
</a>
</g>
</g>
<!-- Node3 -->
<g id="Node000003" class="node">
<title>Node3</title>
<g id="a_Node000003"><a xlink:href="classllzk_1_1global_1_1detail_1_1_global_def_op_generic_adaptor_base.html" target="_top" xlink:title=" ">
<polygon fill="white" stroke="#666666" points="168.25,-176.75 0,-176.75 0,-146.25 168.25,-146.25 168.25,-176.75"/>
<text text-anchor="start" x="8" y="-163.25" font-family="Helvetica,sans-Serif" font-size="10.00">llzk::global::detail</text>
<text text-anchor="middle" x="84.12" y="-152" font-family="Helvetica,sans-Serif" font-size="10.00">::GlobalDefOpGenericAdaptorBase</text>
</a>
</g>
</g>
<!-- Node3&#45;&gt;Node2 -->
<g id="edge2_Node000002_Node000003" class="edge">
<title>Node3&#45;&gt;Node2</title>
<g id="a_edge2_Node000002_Node000003"><a xlink:title=" ">
<path fill="none" stroke="#63b8ff" d="M84.12,-134.45C84.12,-126.21 84.12,-117.24 84.12,-109.49"/>
<polygon fill="#63b8ff" stroke="#63b8ff" points="80.63,-134.25 84.13,-144.25 87.63,-134.25 80.63,-134.25"/>
</a>
</g>
</g>
<!-- Node4 -->
<g id="Node000004" class="node">
<title>Node4</title>
<g id="a_Node000004"><a xlink:href="structllzk_1_1global_1_1detail_1_1_global_def_op_generic_adaptor_base_1_1_properties.html" target="_top" xlink:title=" ">
<polygon fill="white" stroke="#666666" points="157,-265.75 11.25,-265.75 11.25,-224 157,-224 157,-265.75"/>
<text text-anchor="start" x="19.25" y="-252.25" font-family="Helvetica,sans-Serif" font-size="10.00">llzk::global::detail</text>
<text text-anchor="start" x="19.25" y="-241" font-family="Helvetica,sans-Serif" font-size="10.00">::GlobalDefOpGenericAdaptor</text>
<text text-anchor="middle" x="84.12" y="-229.75" font-family="Helvetica,sans-Serif" font-size="10.00">Base::Properties</text>
</a>
</g>
</g>
<!-- Node4&#45;&gt;Node3 -->
<g id="edge3_Node000003_Node000004" class="edge">
<title>Node4&#45;&gt;Node3</title>
<g id="a_edge3_Node000003_Node000004"><a xlink:title=" ">
<path fill="none" stroke="#9a32cd" stroke-dasharray="5,2" d="M84.12,-212.55C84.12,-200.32 84.12,-186.89 84.12,-177.02"/>
<polygon fill="#9a32cd" stroke="#9a32cd" points="80.63,-212.25 84.13,-222.25 87.63,-212.25 80.63,-212.25"/>
</a>
</g>
<text text-anchor="middle" x="107" y="-196.5" font-family="Helvetica,sans-Serif" font-size="10.00" fill="grey"> properties</text>
</g>
</g>
</svg>
