<?xml version="1.0" encoding="UTF-8" standalone="no"?>
<!DOCTYPE svg PUBLIC "-//W3C//DTD SVG 1.1//EN"
 "http://www.w3.org/Graphics/SVG/1.1/DTD/svg11.dtd">
<!-- Generated by graphviz version 12.2.1 (20241206.2353)
 -->
<!-- Title: llzk::array::detail::InsertArrayOpGenericAdaptorBase Pages: 1 -->
<svg width="515pt" height="158pt"
 viewBox="0.00 0.00 515.00 158.12" xmlns="http://www.w3.org/2000/svg" xmlns:xlink="http://www.w3.org/1999/xlink">
<g id="graph0" class="graph" transform="scale(1 1) rotate(0) translate(4 154.12)">
<title>llzk::array::detail::InsertArrayOpGenericAdaptorBase</title>
<!-- Node1 -->
<g id="Node000001" class="node">
<title>Node1</title>
<g id="a_Node000001"><a xlink:title=" ">
<polygon fill="#999999" stroke="#666666" points="172.75,-84.5 0,-84.5 0,-54 172.75,-54 172.75,-84.5"/>
<text text-anchor="start" x="8" y="-71" font-family="Helvetica,sans-Serif" font-size="10.00">llzk::array::detail</text>
<text text-anchor="middle" x="86.38" y="-59.75" font-family="Helvetica,sans-Serif" font-size="10.00">::InsertArrayOpGenericAdaptorBase</text>
</a>
</g>
</g>
<!-- Node2 -->
<g id="Node000002" class="node">
<title>Node2</title>
<g id="a_Node000002"><a xlink:href="classllzk_1_1array_1_1_insert_array_op_generic_adaptor.html" target="_top" xlink:title=" ">
<polygon fill="white" stroke="#666666" points="358.25,-150.12 208.75,-150.12 208.75,-108.38 358.25,-108.38 358.25,-150.12"/>
<text text-anchor="start" x="216.75" y="-136.62" font-family="Helvetica,sans-Serif" font-size="10.00">llzk::array::InsertArray</text>
<text text-anchor="start" x="216.75" y="-125.38" font-family="Helvetica,sans-Serif" font-size="10.00">OpGenericAdaptor&lt;::llvm</text>
<text text-anchor="middle" x="283.5" y="-114.12" font-family="Helvetica,sans-Serif" font-size="10.00">::ArrayRef&lt;::mlir::Attribute &gt; &gt;</text>
</a>
</g>
</g>
<!-- Node1&#45;&gt;Node2 -->
<g id="edge1_Node000001_Node000002" class="edge">
<title>Node1&#45;&gt;Node2</title>
<g id="a_edge1_Node000001_Node000002"><a xlink:title=" ">
<path fill="none" stroke="#63b8ff" d="M149.38,-88.32C169.65,-94.55 192.29,-101.51 213.07,-107.9"/>
<polygon fill="#63b8ff" stroke="#63b8ff" points="150.42,-84.97 139.83,-85.38 148.36,-91.67 150.42,-84.97"/>
</a>
</g>
</g>
<!-- Node3 -->
<g id="Node000003" class="node">
<title>Node3</title>
<g id="a_Node000003"><a xlink:href="classllzk_1_1array_1_1_insert_array_op_generic_adaptor.html" target="_top" xlink:title=" ">
<polygon fill="white" stroke="#666666" points="345.5,-90.12 221.5,-90.12 221.5,-48.38 345.5,-48.38 345.5,-90.12"/>
<text text-anchor="start" x="229.5" y="-76.62" font-family="Helvetica,sans-Serif" font-size="10.00">llzk::array::InsertArray</text>
<text text-anchor="start" x="229.5" y="-65.38" font-family="Helvetica,sans-Serif" font-size="10.00">OpGenericAdaptor&lt;::mlir</text>
<text text-anchor="middle" x="283.5" y="-54.12" font-family="Helvetica,sans-Serif" font-size="10.00">::ValueRange &gt;</text>
</a>
</g>
</g>
<!-- Node1&#45;&gt;Node3 -->
<g id="edge2_Node000001_Node000003" class="edge">
<title>Node1&#45;&gt;Node3</title>
<g id="a_edge2_Node000001_Node000003"><a xlink:title=" ">
<path fill="none" stroke="#63b8ff" d="M184.65,-69.25C197.1,-69.25 209.55,-69.25 221.2,-69.25"/>
<polygon fill="#63b8ff" stroke="#63b8ff" points="184.76,-65.75 174.76,-69.25 184.76,-72.75 184.76,-65.75"/>
</a>
</g>
</g>
<!-- Node5 -->
<g id="Node000005" class="node">
<title>Node5</title>
<g id="a_Node000005"><a xlink:href="classllzk_1_1array_1_1_insert_array_op_generic_adaptor.html" target="_top" xlink:title=" ">
<polygon fill="white" stroke="#666666" points="357.88,-30.5 209.12,-30.5 209.12,0 357.88,0 357.88,-30.5"/>
<text text-anchor="start" x="217.12" y="-17" font-family="Helvetica,sans-Serif" font-size="10.00">llzk::array::InsertArray</text>
<text text-anchor="middle" x="283.5" y="-5.75" font-family="Helvetica,sans-Serif" font-size="10.00">OpGenericAdaptor&lt; RangeT &gt;</text>
</a>
</g>
</g>
<!-- Node1&#45;&gt;Node5 -->
<g id="edge4_Node000001_Node000005" class="edge">
<title>Node1&#45;&gt;Node5</title>
<g id="a_edge4_Node000001_Node000005"><a xlink:title=" ">
<path fill="none" stroke="#63b8ff" d="M155.15,-50.49C178.15,-44.13 203.6,-37.09 225.66,-30.98"/>
<polygon fill="#63b8ff" stroke="#63b8ff" points="154.24,-47.11 145.53,-53.15 156.11,-53.86 154.24,-47.11"/>
</a>
</g>
</g>
<!-- Node4 -->
<g id="Node000004" class="node">
<title>Node4</title>
<g id="a_Node000004"><a xlink:href="classllzk_1_1array_1_1_insert_array_op_adaptor.html" target="_top" xlink:title=" ">
<polygon fill="white" stroke="#666666" points="507,-84.5 394.25,-84.5 394.25,-54 507,-54 507,-84.5"/>
<text text-anchor="start" x="402.25" y="-71" font-family="Helvetica,sans-Serif" font-size="10.00">llzk::array::InsertArray</text>
<text text-anchor="middle" x="450.62" y="-59.75" font-family="Helvetica,sans-Serif" font-size="10.00">OpAdaptor</text>
</a>
</g>
</g>
<!-- Node3&#45;&gt;Node4 -->
<g id="edge3_Node000003_Node000004" class="edge">
<title>Node3&#45;&gt;Node4</title>
<g id="a_edge3_Node000003_Node000004"><a xlink:title=" ">
<path fill="none" stroke="#63b8ff" d="M357.16,-69.25C369.45,-69.25 382.04,-69.25 393.81,-69.25"/>
<polygon fill="#63b8ff" stroke="#63b8ff" points="357.5,-65.75 347.5,-69.25 357.5,-72.75 357.5,-65.75"/>
</a>
</g>
</g>
</g>
</svg>
