<?xml version="1.0" encoding="UTF-8" standalone="no"?>
<!DOCTYPE svg PUBLIC "-//W3C//DTD SVG 1.1//EN"
 "http://www.w3.org/Graphics/SVG/1.1/DTD/svg11.dtd">
<!-- Generated by graphviz version 12.2.1 (20241206.2353)
 -->
<!-- Title: llzk::felt::detail::XorFeltOpGenericAdaptorBase Pages: 1 -->
<svg width="516pt" height="147pt"
 viewBox="0.00 0.00 515.75 147.12" xmlns="http://www.w3.org/2000/svg" xmlns:xlink="http://www.w3.org/1999/xlink">
<g id="graph0" class="graph" transform="scale(1 1) rotate(0) translate(4 143.12)">
<title>llzk::felt::detail::XorFeltOpGenericAdaptorBase</title>
<!-- Node1 -->
<g id="Node000001" class="node">
<title>Node1</title>
<g id="a_Node000001"><a xlink:title=" ">
<polygon fill="#999999" stroke="#666666" points="156.25,-79.5 0,-79.5 0,-49 156.25,-49 156.25,-79.5"/>
<text text-anchor="start" x="8" y="-66" font-family="Helvetica,sans-Serif" font-size="10.00">llzk::felt::detail</text>
<text text-anchor="middle" x="78.12" y="-54.75" font-family="Helvetica,sans-Serif" font-size="10.00">::XorFeltOpGenericAdaptorBase</text>
</a>
</g>
</g>
<!-- Node2 -->
<g id="Node000002" class="node">
<title>Node2</title>
<g id="a_Node000002"><a xlink:href="classllzk_1_1felt_1_1_xor_felt_op_generic_adaptor.html" target="_top" xlink:title=" ">
<polygon fill="white" stroke="#666666" points="332,-139.12 197.5,-139.12 197.5,-97.38 332,-97.38 332,-139.12"/>
<text text-anchor="start" x="205.5" y="-125.62" font-family="Helvetica,sans-Serif" font-size="10.00">llzk::felt::XorFeltOpGeneric</text>
<text text-anchor="start" x="205.5" y="-114.38" font-family="Helvetica,sans-Serif" font-size="10.00">Adaptor&lt;::llvm::ArrayRef</text>
<text text-anchor="middle" x="264.75" y="-103.12" font-family="Helvetica,sans-Serif" font-size="10.00">&lt;::mlir::Attribute &gt; &gt;</text>
</a>
</g>
</g>
<!-- Node1&#45;&gt;Node2 -->
<g id="edge1_Node000001_Node000002" class="edge">
<title>Node1&#45;&gt;Node2</title>
<g id="a_edge1_Node000001_Node000002"><a xlink:title=" ">
<path fill="none" stroke="#63b8ff" d="M143.15,-82.98C160.55,-88.07 179.45,-93.59 197,-98.73"/>
<polygon fill="#63b8ff" stroke="#63b8ff" points="144.56,-79.74 133.98,-80.29 142.59,-86.46 144.56,-79.74"/>
</a>
</g>
</g>
<!-- Node3 -->
<g id="Node000003" class="node">
<title>Node3</title>
<g id="a_Node000003"><a xlink:href="classllzk_1_1felt_1_1_xor_felt_op_generic_adaptor.html" target="_top" xlink:title=" ">
<polygon fill="white" stroke="#666666" points="337.25,-79.5 192.25,-79.5 192.25,-49 337.25,-49 337.25,-79.5"/>
<text text-anchor="start" x="200.25" y="-66" font-family="Helvetica,sans-Serif" font-size="10.00">llzk::felt::XorFeltOpGeneric</text>
<text text-anchor="middle" x="264.75" y="-54.75" font-family="Helvetica,sans-Serif" font-size="10.00">Adaptor&lt;::mlir::ValueRange &gt;</text>
</a>
</g>
</g>
<!-- Node1&#45;&gt;Node3 -->
<g id="edge2_Node000001_Node000003" class="edge">
<title>Node1&#45;&gt;Node3</title>
<g id="a_edge2_Node000001_Node000003"><a xlink:title=" ">
<path fill="none" stroke="#63b8ff" d="M167.88,-64.25C175.89,-64.25 183.92,-64.25 191.75,-64.25"/>
<polygon fill="#63b8ff" stroke="#63b8ff" points="168.13,-60.75 158.13,-64.25 168.13,-67.75 168.13,-60.75"/>
</a>
</g>
</g>
<!-- Node5 -->
<g id="Node000005" class="node">
<title>Node5</title>
<g id="a_Node000005"><a xlink:href="classllzk_1_1felt_1_1_xor_felt_op_generic_adaptor.html" target="_top" xlink:title=" ">
<polygon fill="white" stroke="#666666" points="332,-30.5 197.5,-30.5 197.5,0 332,0 332,-30.5"/>
<text text-anchor="start" x="205.5" y="-17" font-family="Helvetica,sans-Serif" font-size="10.00">llzk::felt::XorFeltOpGeneric</text>
<text text-anchor="middle" x="264.75" y="-5.75" font-family="Helvetica,sans-Serif" font-size="10.00">Adaptor&lt; RangeT &gt;</text>
</a>
</g>
</g>
<!-- Node1&#45;&gt;Node5 -->
<g id="edge4_Node000001_Node000005" class="edge">
<title>Node1&#45;&gt;Node5</title>
<g id="a_edge4_Node000001_Node000005"><a xlink:title=" ">
<path fill="none" stroke="#63b8ff" d="M149.19,-45.66C167.45,-40.81 186.95,-35.63 204.59,-30.95"/>
<polygon fill="#63b8ff" stroke="#63b8ff" points="148.53,-42.21 139.77,-48.16 150.33,-48.97 148.53,-42.21"/>
</a>
</g>
</g>
<!-- Node4 -->
<g id="Node000004" class="node">
<title>Node4</title>
<g id="a_Node000004"><a xlink:href="classllzk_1_1felt_1_1_xor_felt_op_adaptor.html" target="_top" xlink:title=" ">
<polygon fill="white" stroke="#666666" points="507.75,-73.88 373.25,-73.88 373.25,-54.62 507.75,-54.62 507.75,-73.88"/>
<text text-anchor="middle" x="440.5" y="-60.38" font-family="Helvetica,sans-Serif" font-size="10.00">llzk::felt::XorFeltOpAdaptor</text>
</a>
</g>
</g>
<!-- Node3&#45;&gt;Node4 -->
<g id="edge3_Node000003_Node000004" class="edge">
<title>Node3&#45;&gt;Node4</title>
<g id="a_edge3_Node000003_Node000004"><a xlink:title=" ">
<path fill="none" stroke="#63b8ff" d="M348.97,-64.25C357.01,-64.25 365.08,-64.25 372.92,-64.25"/>
<polygon fill="#63b8ff" stroke="#63b8ff" points="349.19,-60.75 339.19,-64.25 349.19,-67.75 349.19,-60.75"/>
</a>
</g>
</g>
</g>
</svg>
