<?xml version="1.0" encoding="UTF-8" standalone="no"?>
<!DOCTYPE svg PUBLIC "-//W3C//DTD SVG 1.1//EN"
 "http://www.w3.org/Graphics/SVG/1.1/DTD/svg11.dtd">
<!-- Generated by graphviz version 12.2.1 (20241206.2353)
 -->
<!-- Title: llzk::array::CreateArrayOpGenericAdaptor&lt; RangeT &gt; Pages: 1 -->
<svg width="185pt" height="195pt"
 viewBox="0.00 0.00 185.25 195.00" xmlns="http://www.w3.org/2000/svg" xmlns:xlink="http://www.w3.org/1999/xlink">
<g id="graph0" class="graph" transform="scale(1 1) rotate(0) translate(4 191)">
<title>llzk::array::CreateArrayOpGenericAdaptor&lt; RangeT &gt;</title>
<!-- Node1 -->
<g id="Node000001" class="node">
<title>Node1</title>
<g id="a_Node000001"><a xlink:title=" ">
<polygon fill="#999999" stroke="#666666" points="163,-30.5 14.25,-30.5 14.25,0 163,0 163,-30.5"/>
<text text-anchor="start" x="22.25" y="-17" font-family="Helvetica,sans-Serif" font-size="10.00">llzk::array::CreateArray</text>
<text text-anchor="middle" x="88.62" y="-5.75" font-family="Helvetica,sans-Serif" font-size="10.00">OpGenericAdaptor&lt; RangeT &gt;</text>
</a>
</g>
</g>
<!-- Node2 -->
<g id="Node000002" class="node">
<title>Node2</title>
<g id="a_Node000002"><a xlink:href="classllzk_1_1array_1_1detail_1_1_create_array_op_generic_adaptor_base.html" target="_top" xlink:title=" ">
<polygon fill="white" stroke="#666666" points="177.25,-98 0,-98 0,-67.5 177.25,-67.5 177.25,-98"/>
<text text-anchor="start" x="8" y="-84.5" font-family="Helvetica,sans-Serif" font-size="10.00">llzk::array::detail</text>
<text text-anchor="middle" x="88.62" y="-73.25" font-family="Helvetica,sans-Serif" font-size="10.00">::CreateArrayOpGenericAdaptorBase</text>
</a>
</g>
</g>
<!-- Node2&#45;&gt;Node1 -->
<g id="edge1_Node000001_Node000002" class="edge">
<title>Node2&#45;&gt;Node1</title>
<g id="a_edge1_Node000001_Node000002"><a xlink:title=" ">
<path fill="none" stroke="#63b8ff" d="M88.62,-55.84C88.62,-47.3 88.62,-38.12 88.62,-30.75"/>
<polygon fill="#63b8ff" stroke="#63b8ff" points="85.13,-55.7 88.63,-65.7 92.13,-55.7 85.13,-55.7"/>
</a>
</g>
</g>
<!-- Node3 -->
<g id="Node000003" class="node">
<title>Node3</title>
<g id="a_Node000003"><a xlink:href="structllzk_1_1array_1_1detail_1_1_create_array_op_generic_adaptor_base_1_1_properties.html" target="_top" xlink:title=" ">
<polygon fill="white" stroke="#666666" points="166,-187 11.25,-187 11.25,-145.25 166,-145.25 166,-187"/>
<text text-anchor="start" x="19.25" y="-173.5" font-family="Helvetica,sans-Serif" font-size="10.00">llzk::array::detail</text>
<text text-anchor="start" x="19.25" y="-162.25" font-family="Helvetica,sans-Serif" font-size="10.00">::CreateArrayOpGenericAdaptor</text>
<text text-anchor="middle" x="88.62" y="-151" font-family="Helvetica,sans-Serif" font-size="10.00">Base::Properties</text>
</a>
</g>
</g>
<!-- Node3&#45;&gt;Node2 -->
<g id="edge2_Node000002_Node000003" class="edge">
<title>Node3&#45;&gt;Node2</title>
<g id="a_edge2_Node000002_Node000003"><a xlink:title=" ">
<path fill="none" stroke="#9a32cd" stroke-dasharray="5,2" d="M88.62,-133.8C88.62,-121.57 88.62,-108.14 88.62,-98.27"/>
<polygon fill="#9a32cd" stroke="#9a32cd" points="85.13,-133.5 88.63,-143.5 92.13,-133.5 85.13,-133.5"/>
</a>
</g>
<text text-anchor="middle" x="111.5" y="-117.75" font-family="Helvetica,sans-Serif" font-size="10.00" fill="grey"> properties</text>
</g>
</g>
</svg>
