<?xml version="1.0" encoding="UTF-8" standalone="no"?>
<!DOCTYPE svg PUBLIC "-//W3C//DTD SVG 1.1//EN"
 "http://www.w3.org/Graphics/SVG/1.1/DTD/svg11.dtd">
<!-- Generated by graphviz version 12.2.1 (20241206.2353)
 -->
<!-- Title: llzk::function::FuncDefOpAdaptor Pages: 1 -->
<svg width="170pt" height="274pt"
 viewBox="0.00 0.00 170.25 273.75" xmlns="http://www.w3.org/2000/svg" xmlns:xlink="http://www.w3.org/1999/xlink">
<g id="graph0" class="graph" transform="scale(1 1) rotate(0) translate(4 269.75)">
<title>llzk::function::FuncDefOpAdaptor</title>
<!-- Node1 -->
<g id="Node000001" class="node">
<title>Node1</title>
<g id="a_Node000001"><a xlink:title=" ">
<polygon fill="#999999" stroke="#666666" points="145,-30.5 17.25,-30.5 17.25,0 145,0 145,-30.5"/>
<text text-anchor="start" x="25.25" y="-17" font-family="Helvetica,sans-Serif" font-size="10.00">llzk::function::FuncDefOp</text>
<text text-anchor="middle" x="81.12" y="-5.75" font-family="Helvetica,sans-Serif" font-size="10.00">Adaptor</text>
</a>
</g>
</g>
<!-- Node2 -->
<g id="Node000002" class="node">
<title>Node2</title>
<g id="a_Node000002"><a xlink:href="classllzk_1_1function_1_1_func_def_op_generic_adaptor.html" target="_top" xlink:title=" ">
<polygon fill="white" stroke="#666666" points="145,-109.25 17.25,-109.25 17.25,-67.5 145,-67.5 145,-109.25"/>
<text text-anchor="start" x="25.25" y="-95.75" font-family="Helvetica,sans-Serif" font-size="10.00">llzk::function::FuncDefOp</text>
<text text-anchor="start" x="25.25" y="-84.5" font-family="Helvetica,sans-Serif" font-size="10.00">GenericAdaptor&lt;::mlir::</text>
<text text-anchor="middle" x="81.12" y="-73.25" font-family="Helvetica,sans-Serif" font-size="10.00">ValueRange &gt;</text>
</a>
</g>
</g>
<!-- Node2&#45;&gt;Node1 -->
<g id="edge1_Node000001_Node000002" class="edge">
<title>Node2&#45;&gt;Node1</title>
<g id="a_edge1_Node000001_Node000002"><a xlink:title=" ">
<path fill="none" stroke="#63b8ff" d="M81.12,-55.95C81.12,-47.11 81.12,-37.92 81.12,-30.62"/>
<polygon fill="#63b8ff" stroke="#63b8ff" points="77.63,-55.67 81.13,-65.67 84.63,-55.67 77.63,-55.67"/>
</a>
</g>
</g>
<!-- Node3 -->
<g id="Node000003" class="node">
<title>Node3</title>
<g id="a_Node000003"><a xlink:href="classllzk_1_1function_1_1detail_1_1_func_def_op_generic_adaptor_base.html" target="_top" xlink:title=" ">
<polygon fill="white" stroke="#666666" points="162.25,-176.75 0,-176.75 0,-146.25 162.25,-146.25 162.25,-176.75"/>
<text text-anchor="start" x="8" y="-163.25" font-family="Helvetica,sans-Serif" font-size="10.00">llzk::function::detail</text>
<text text-anchor="middle" x="81.12" y="-152" font-family="Helvetica,sans-Serif" font-size="10.00">::FuncDefOpGenericAdaptorBase</text>
</a>
</g>
</g>
<!-- Node3&#45;&gt;Node2 -->
<g id="edge2_Node000002_Node000003" class="edge">
<title>Node3&#45;&gt;Node2</title>
<g id="a_edge2_Node000002_Node000003"><a xlink:title=" ">
<path fill="none" stroke="#63b8ff" d="M81.12,-134.45C81.12,-126.21 81.12,-117.24 81.12,-109.49"/>
<polygon fill="#63b8ff" stroke="#63b8ff" points="77.63,-134.25 81.13,-144.25 84.63,-134.25 77.63,-134.25"/>
</a>
</g>
</g>
<!-- Node4 -->
<g id="Node000004" class="node">
<title>Node4</title>
<g id="a_Node000004"><a xlink:href="structllzk_1_1function_1_1detail_1_1_func_def_op_generic_adaptor_base_1_1_properties.html" target="_top" xlink:title=" ">
<polygon fill="white" stroke="#666666" points="162.25,-265.75 0,-265.75 0,-224 162.25,-224 162.25,-265.75"/>
<text text-anchor="start" x="8" y="-252.25" font-family="Helvetica,sans-Serif" font-size="10.00">llzk::function::detail</text>
<text text-anchor="start" x="8" y="-241" font-family="Helvetica,sans-Serif" font-size="10.00">::FuncDefOpGenericAdaptorBase</text>
<text text-anchor="middle" x="81.12" y="-229.75" font-family="Helvetica,sans-Serif" font-size="10.00">::Properties</text>
</a>
</g>
</g>
<!-- Node4&#45;&gt;Node3 -->
<g id="edge3_Node000003_Node000004" class="edge">
<title>Node4&#45;&gt;Node3</title>
<g id="a_edge3_Node000003_Node000004"><a xlink:title=" ">
<path fill="none" stroke="#9a32cd" stroke-dasharray="5,2" d="M81.12,-212.55C81.12,-200.32 81.12,-186.89 81.12,-177.02"/>
<polygon fill="#9a32cd" stroke="#9a32cd" points="77.63,-212.25 81.13,-222.25 84.63,-212.25 77.63,-212.25"/>
</a>
</g>
<text text-anchor="middle" x="104" y="-196.5" font-family="Helvetica,sans-Serif" font-size="10.00" fill="grey"> properties</text>
</g>
</g>
</svg>
