<?xml version="1.0" encoding="UTF-8" standalone="no"?>
<!DOCTYPE svg PUBLIC "-//W3C//DTD SVG 1.1//EN"
 "http://www.w3.org/Graphics/SVG/1.1/DTD/svg11.dtd">
<!-- Generated by graphviz version 12.2.1 (20241206.2353)
 -->
<!-- Title: llzk::component::detail::CreateStructOpGenericAdaptorBase Pages: 1 -->
<svg width="556pt" height="158pt"
 viewBox="0.00 0.00 555.50 158.12" xmlns="http://www.w3.org/2000/svg" xmlns:xlink="http://www.w3.org/1999/xlink">
<g id="graph0" class="graph" transform="scale(1 1) rotate(0) translate(4 154.12)">
<title>llzk::component::detail::CreateStructOpGenericAdaptorBase</title>
<!-- Node1 -->
<g id="Node000001" class="node">
<title>Node1</title>
<g id="a_Node000001"><a xlink:title=" ">
<polygon fill="#999999" stroke="#666666" points="180.25,-84.5 0,-84.5 0,-54 180.25,-54 180.25,-84.5"/>
<text text-anchor="start" x="8" y="-71" font-family="Helvetica,sans-Serif" font-size="10.00">llzk::component::detail</text>
<text text-anchor="middle" x="90.12" y="-59.75" font-family="Helvetica,sans-Serif" font-size="10.00">::CreateStructOpGenericAdaptorBase</text>
</a>
</g>
</g>
<!-- Node2 -->
<g id="Node000002" class="node">
<title>Node2</title>
<g id="a_Node000002"><a xlink:href="classllzk_1_1component_1_1_create_struct_op_generic_adaptor.html" target="_top" xlink:title=" ">
<polygon fill="white" stroke="#666666" points="363.88,-150.12 217.38,-150.12 217.38,-108.38 363.88,-108.38 363.88,-150.12"/>
<text text-anchor="start" x="225.38" y="-136.62" font-family="Helvetica,sans-Serif" font-size="10.00">llzk::component::CreateStruct</text>
<text text-anchor="start" x="225.38" y="-125.38" font-family="Helvetica,sans-Serif" font-size="10.00">OpGenericAdaptor&lt;::llvm::</text>
<text text-anchor="middle" x="290.62" y="-114.12" font-family="Helvetica,sans-Serif" font-size="10.00">ArrayRef&lt;::mlir::Attribute &gt; &gt;</text>
</a>
</g>
</g>
<!-- Node1&#45;&gt;Node2 -->
<g id="edge1_Node000001_Node000002" class="edge">
<title>Node1&#45;&gt;Node2</title>
<g id="a_edge1_Node000001_Node000002"><a xlink:title=" ">
<path fill="none" stroke="#63b8ff" d="M153.91,-88.23C174.61,-94.48 197.75,-101.48 218.99,-107.9"/>
<polygon fill="#63b8ff" stroke="#63b8ff" points="155.05,-84.92 144.47,-85.37 153.03,-91.62 155.05,-84.92"/>
</a>
</g>
</g>
<!-- Node3 -->
<g id="Node000003" class="node">
<title>Node3</title>
<g id="a_Node000003"><a xlink:href="classllzk_1_1component_1_1_create_struct_op_generic_adaptor.html" target="_top" xlink:title=" ">
<polygon fill="white" stroke="#666666" points="363.88,-90.12 217.38,-90.12 217.38,-48.38 363.88,-48.38 363.88,-90.12"/>
<text text-anchor="start" x="225.38" y="-76.62" font-family="Helvetica,sans-Serif" font-size="10.00">llzk::component::CreateStruct</text>
<text text-anchor="start" x="225.38" y="-65.38" font-family="Helvetica,sans-Serif" font-size="10.00">OpGenericAdaptor&lt;::mlir::</text>
<text text-anchor="middle" x="290.62" y="-54.12" font-family="Helvetica,sans-Serif" font-size="10.00">ValueRange &gt;</text>
</a>
</g>
</g>
<!-- Node1&#45;&gt;Node3 -->
<g id="edge2_Node000001_Node000003" class="edge">
<title>Node1&#45;&gt;Node3</title>
<g id="a_edge2_Node000001_Node000003"><a xlink:title=" ">
<path fill="none" stroke="#63b8ff" d="M191.73,-69.25C200.28,-69.25 208.82,-69.25 217.09,-69.25"/>
<polygon fill="#63b8ff" stroke="#63b8ff" points="192.02,-65.75 182.02,-69.25 192.02,-72.75 192.02,-65.75"/>
</a>
</g>
</g>
<!-- Node5 -->
<g id="Node000005" class="node">
<title>Node5</title>
<g id="a_Node000005"><a xlink:href="classllzk_1_1component_1_1_create_struct_op_generic_adaptor.html" target="_top" xlink:title=" ">
<polygon fill="white" stroke="#666666" points="365,-30.5 216.25,-30.5 216.25,0 365,0 365,-30.5"/>
<text text-anchor="start" x="224.25" y="-17" font-family="Helvetica,sans-Serif" font-size="10.00">llzk::component::CreateStruct</text>
<text text-anchor="middle" x="290.62" y="-5.75" font-family="Helvetica,sans-Serif" font-size="10.00">OpGenericAdaptor&lt; RangeT &gt;</text>
</a>
</g>
</g>
<!-- Node1&#45;&gt;Node5 -->
<g id="edge4_Node000001_Node000005" class="edge">
<title>Node1&#45;&gt;Node5</title>
<g id="a_edge4_Node000001_Node000005"><a xlink:title=" ">
<path fill="none" stroke="#63b8ff" d="M159.75,-50.58C183.23,-44.19 209.25,-37.11 231.8,-30.98"/>
<polygon fill="#63b8ff" stroke="#63b8ff" points="159,-47.16 150.27,-53.16 160.83,-53.91 159,-47.16"/>
</a>
</g>
</g>
<!-- Node4 -->
<g id="Node000004" class="node">
<title>Node4</title>
<g id="a_Node000004"><a xlink:href="classllzk_1_1component_1_1_create_struct_op_adaptor.html" target="_top" xlink:title=" ">
<polygon fill="white" stroke="#666666" points="547.5,-84.5 401,-84.5 401,-54 547.5,-54 547.5,-84.5"/>
<text text-anchor="start" x="409" y="-71" font-family="Helvetica,sans-Serif" font-size="10.00">llzk::component::CreateStruct</text>
<text text-anchor="middle" x="474.25" y="-59.75" font-family="Helvetica,sans-Serif" font-size="10.00">OpAdaptor</text>
</a>
</g>
</g>
<!-- Node3&#45;&gt;Node4 -->
<g id="edge3_Node000003_Node000004" class="edge">
<title>Node3&#45;&gt;Node4</title>
<g id="a_edge3_Node000003_Node000004"><a xlink:title=" ">
<path fill="none" stroke="#63b8ff" d="M375.5,-69.25C383.85,-69.25 392.28,-69.25 400.5,-69.25"/>
<polygon fill="#63b8ff" stroke="#63b8ff" points="375.7,-65.75 365.7,-69.25 375.7,-72.75 375.7,-65.75"/>
</a>
</g>
</g>
</g>
</svg>
