<?xml version="1.0" encoding="UTF-8" standalone="no"?>
<!DOCTYPE svg PUBLIC "-//W3C//DTD SVG 1.1//EN"
 "http://www.w3.org/Graphics/SVG/1.1/DTD/svg11.dtd">
<!-- Generated by graphviz version 12.2.1 (20241206.2353)
 -->
<!-- Title: llzk::felt::detail::ShlFeltOpGenericAdaptorBase Pages: 1 -->
<svg width="514pt" height="147pt"
 viewBox="0.00 0.00 514.25 147.12" xmlns="http://www.w3.org/2000/svg" xmlns:xlink="http://www.w3.org/1999/xlink">
<g id="graph0" class="graph" transform="scale(1 1) rotate(0) translate(4 143.12)">
<title>llzk::felt::detail::ShlFeltOpGenericAdaptorBase</title>
<!-- Node1 -->
<g id="Node000001" class="node">
<title>Node1</title>
<g id="a_Node000001"><a xlink:title=" ">
<polygon fill="#999999" stroke="#666666" points="155.5,-79.5 0,-79.5 0,-49 155.5,-49 155.5,-79.5"/>
<text text-anchor="start" x="8" y="-66" font-family="Helvetica,sans-Serif" font-size="10.00">llzk::felt::detail</text>
<text text-anchor="middle" x="77.75" y="-54.75" font-family="Helvetica,sans-Serif" font-size="10.00">::ShlFeltOpGenericAdaptorBase</text>
</a>
</g>
</g>
<!-- Node2 -->
<g id="Node000002" class="node">
<title>Node2</title>
<g id="a_Node000002"><a xlink:href="classllzk_1_1felt_1_1_shl_felt_op_generic_adaptor.html" target="_top" xlink:title=" ">
<polygon fill="white" stroke="#666666" points="330.88,-139.12 197.12,-139.12 197.12,-97.38 330.88,-97.38 330.88,-139.12"/>
<text text-anchor="start" x="205.12" y="-125.62" font-family="Helvetica,sans-Serif" font-size="10.00">llzk::felt::ShlFeltOpGeneric</text>
<text text-anchor="start" x="205.12" y="-114.38" font-family="Helvetica,sans-Serif" font-size="10.00">Adaptor&lt;::llvm::ArrayRef</text>
<text text-anchor="middle" x="264" y="-103.12" font-family="Helvetica,sans-Serif" font-size="10.00">&lt;::mlir::Attribute &gt; &gt;</text>
</a>
</g>
</g>
<!-- Node1&#45;&gt;Node2 -->
<g id="edge1_Node000001_Node000002" class="edge">
<title>Node1&#45;&gt;Node2</title>
<g id="a_edge1_Node000001_Node000002"><a xlink:title=" ">
<path fill="none" stroke="#63b8ff" d="M142.7,-82.99C160.17,-88.11 179.13,-93.67 196.72,-98.83"/>
<polygon fill="#63b8ff" stroke="#63b8ff" points="144.08,-79.75 133.5,-80.29 142.11,-86.47 144.08,-79.75"/>
</a>
</g>
</g>
<!-- Node3 -->
<g id="Node000003" class="node">
<title>Node3</title>
<g id="a_Node000003"><a xlink:href="classllzk_1_1felt_1_1_shl_felt_op_generic_adaptor.html" target="_top" xlink:title=" ">
<polygon fill="white" stroke="#666666" points="336.5,-79.5 191.5,-79.5 191.5,-49 336.5,-49 336.5,-79.5"/>
<text text-anchor="start" x="199.5" y="-66" font-family="Helvetica,sans-Serif" font-size="10.00">llzk::felt::ShlFeltOpGeneric</text>
<text text-anchor="middle" x="264" y="-54.75" font-family="Helvetica,sans-Serif" font-size="10.00">Adaptor&lt;::mlir::ValueRange &gt;</text>
</a>
</g>
</g>
<!-- Node1&#45;&gt;Node3 -->
<g id="edge2_Node000001_Node000003" class="edge">
<title>Node1&#45;&gt;Node3</title>
<g id="a_edge2_Node000001_Node000003"><a xlink:title=" ">
<path fill="none" stroke="#63b8ff" d="M167.17,-64.25C175.24,-64.25 183.35,-64.25 191.24,-64.25"/>
<polygon fill="#63b8ff" stroke="#63b8ff" points="167.33,-60.75 157.33,-64.25 167.33,-67.75 167.33,-60.75"/>
</a>
</g>
</g>
<!-- Node5 -->
<g id="Node000005" class="node">
<title>Node5</title>
<g id="a_Node000005"><a xlink:href="classllzk_1_1felt_1_1_shl_felt_op_generic_adaptor.html" target="_top" xlink:title=" ">
<polygon fill="white" stroke="#666666" points="330.88,-30.5 197.12,-30.5 197.12,0 330.88,0 330.88,-30.5"/>
<text text-anchor="start" x="205.12" y="-17" font-family="Helvetica,sans-Serif" font-size="10.00">llzk::felt::ShlFeltOpGeneric</text>
<text text-anchor="middle" x="264" y="-5.75" font-family="Helvetica,sans-Serif" font-size="10.00">Adaptor&lt; RangeT &gt;</text>
</a>
</g>
</g>
<!-- Node1&#45;&gt;Node5 -->
<g id="edge4_Node000001_Node000005" class="edge">
<title>Node1&#45;&gt;Node5</title>
<g id="a_edge4_Node000001_Node000005"><a xlink:title=" ">
<path fill="none" stroke="#63b8ff" d="M148.93,-45.59C167.08,-40.76 186.44,-35.61 203.96,-30.95"/>
<polygon fill="#63b8ff" stroke="#63b8ff" points="148.04,-42.2 139.27,-48.15 149.83,-48.97 148.04,-42.2"/>
</a>
</g>
</g>
<!-- Node4 -->
<g id="Node000004" class="node">
<title>Node4</title>
<g id="a_Node000004"><a xlink:href="classllzk_1_1felt_1_1_shl_felt_op_adaptor.html" target="_top" xlink:title=" ">
<polygon fill="white" stroke="#666666" points="506.25,-73.88 372.5,-73.88 372.5,-54.62 506.25,-54.62 506.25,-73.88"/>
<text text-anchor="middle" x="439.38" y="-60.38" font-family="Helvetica,sans-Serif" font-size="10.00">llzk::felt::ShlFeltOpAdaptor</text>
</a>
</g>
</g>
<!-- Node3&#45;&gt;Node4 -->
<g id="edge3_Node000003_Node000004" class="edge">
<title>Node3&#45;&gt;Node4</title>
<g id="a_edge3_Node000003_Node000004"><a xlink:title=" ">
<path fill="none" stroke="#63b8ff" d="M348.14,-64.25C356.21,-64.25 364.34,-64.25 372.22,-64.25"/>
<polygon fill="#63b8ff" stroke="#63b8ff" points="348.28,-60.75 338.28,-64.25 348.28,-67.75 348.28,-60.75"/>
</a>
</g>
</g>
</g>
</svg>
