<?xml version="1.0" encoding="UTF-8" standalone="no"?>
<!DOCTYPE svg PUBLIC "-//W3C//DTD SVG 1.1//EN"
 "http://www.w3.org/Graphics/SVG/1.1/DTD/svg11.dtd">
<!-- Generated by graphviz version 12.2.1 (20241206.2353)
 -->
<!-- Title: llzk::felt::detail::FeltConstantOpGenericAdaptorBase Pages: 1 -->
<svg width="523pt" height="158pt"
 viewBox="0.00 0.00 523.25 158.12" xmlns="http://www.w3.org/2000/svg" xmlns:xlink="http://www.w3.org/1999/xlink">
<g id="graph0" class="graph" transform="scale(1 1) rotate(0) translate(4 154.12)">
<title>llzk::felt::detail::FeltConstantOpGenericAdaptorBase</title>
<!-- Node1 -->
<g id="Node000001" class="node">
<title>Node1</title>
<g id="a_Node000001"><a xlink:title=" ">
<polygon fill="#999999" stroke="#666666" points="181,-84.5 0,-84.5 0,-54 181,-54 181,-84.5"/>
<text text-anchor="start" x="8" y="-71" font-family="Helvetica,sans-Serif" font-size="10.00">llzk::felt::detail</text>
<text text-anchor="middle" x="90.5" y="-59.75" font-family="Helvetica,sans-Serif" font-size="10.00">::FeltConstantOpGenericAdaptorBase</text>
</a>
</g>
</g>
<!-- Node2 -->
<g id="Node000002" class="node">
<title>Node2</title>
<g id="a_Node000002"><a xlink:href="classllzk_1_1felt_1_1_felt_constant_op_generic_adaptor.html" target="_top" xlink:title=" ">
<polygon fill="white" stroke="#666666" points="366.5,-150.12 217,-150.12 217,-108.38 366.5,-108.38 366.5,-150.12"/>
<text text-anchor="start" x="225" y="-136.62" font-family="Helvetica,sans-Serif" font-size="10.00">llzk::felt::FeltConstant</text>
<text text-anchor="start" x="225" y="-125.38" font-family="Helvetica,sans-Serif" font-size="10.00">OpGenericAdaptor&lt;::llvm</text>
<text text-anchor="middle" x="291.75" y="-114.12" font-family="Helvetica,sans-Serif" font-size="10.00">::ArrayRef&lt;::mlir::Attribute &gt; &gt;</text>
</a>
</g>
</g>
<!-- Node1&#45;&gt;Node2 -->
<g id="edge1_Node000001_Node000002" class="edge">
<title>Node1&#45;&gt;Node2</title>
<g id="a_edge1_Node000001_Node000002"><a xlink:title=" ">
<path fill="none" stroke="#63b8ff" d="M154.53,-88.23C175.3,-94.48 198.53,-101.48 219.85,-107.9"/>
<polygon fill="#63b8ff" stroke="#63b8ff" points="155.62,-84.9 145.04,-85.37 153.61,-91.61 155.62,-84.9"/>
</a>
</g>
</g>
<!-- Node3 -->
<g id="Node000003" class="node">
<title>Node3</title>
<g id="a_Node000003"><a xlink:href="classllzk_1_1felt_1_1_felt_constant_op_generic_adaptor.html" target="_top" xlink:title=" ">
<polygon fill="white" stroke="#666666" points="353.75,-90.12 229.75,-90.12 229.75,-48.38 353.75,-48.38 353.75,-90.12"/>
<text text-anchor="start" x="237.75" y="-76.62" font-family="Helvetica,sans-Serif" font-size="10.00">llzk::felt::FeltConstant</text>
<text text-anchor="start" x="237.75" y="-65.38" font-family="Helvetica,sans-Serif" font-size="10.00">OpGenericAdaptor&lt;::mlir</text>
<text text-anchor="middle" x="291.75" y="-54.12" font-family="Helvetica,sans-Serif" font-size="10.00">::ValueRange &gt;</text>
</a>
</g>
</g>
<!-- Node1&#45;&gt;Node3 -->
<g id="edge2_Node000001_Node000003" class="edge">
<title>Node1&#45;&gt;Node3</title>
<g id="a_edge2_Node000001_Node000003"><a xlink:title=" ">
<path fill="none" stroke="#63b8ff" d="M192.73,-69.25C205.28,-69.25 217.79,-69.25 229.48,-69.25"/>
<polygon fill="#63b8ff" stroke="#63b8ff" points="192.73,-65.75 182.73,-69.25 192.73,-72.75 192.73,-65.75"/>
</a>
</g>
</g>
<!-- Node5 -->
<g id="Node000005" class="node">
<title>Node5</title>
<g id="a_Node000005"><a xlink:href="classllzk_1_1felt_1_1_felt_constant_op_generic_adaptor.html" target="_top" xlink:title=" ">
<polygon fill="white" stroke="#666666" points="366.12,-30.5 217.38,-30.5 217.38,0 366.12,0 366.12,-30.5"/>
<text text-anchor="start" x="225.38" y="-17" font-family="Helvetica,sans-Serif" font-size="10.00">llzk::felt::FeltConstant</text>
<text text-anchor="middle" x="291.75" y="-5.75" font-family="Helvetica,sans-Serif" font-size="10.00">OpGenericAdaptor&lt; RangeT &gt;</text>
</a>
</g>
</g>
<!-- Node1&#45;&gt;Node5 -->
<g id="edge4_Node000001_Node000005" class="edge">
<title>Node1&#45;&gt;Node5</title>
<g id="a_edge4_Node000001_Node000005"><a xlink:title=" ">
<path fill="none" stroke="#63b8ff" d="M160.38,-50.58C183.96,-44.19 210.08,-37.11 232.71,-30.98"/>
<polygon fill="#63b8ff" stroke="#63b8ff" points="159.6,-47.17 150.86,-53.16 161.43,-53.92 159.6,-47.17"/>
</a>
</g>
</g>
<!-- Node4 -->
<g id="Node000004" class="node">
<title>Node4</title>
<g id="a_Node000004"><a xlink:href="classllzk_1_1felt_1_1_felt_constant_op_adaptor.html" target="_top" xlink:title=" ">
<polygon fill="white" stroke="#666666" points="515.25,-84.5 402.5,-84.5 402.5,-54 515.25,-54 515.25,-84.5"/>
<text text-anchor="start" x="410.5" y="-71" font-family="Helvetica,sans-Serif" font-size="10.00">llzk::felt::FeltConstant</text>
<text text-anchor="middle" x="458.88" y="-59.75" font-family="Helvetica,sans-Serif" font-size="10.00">OpAdaptor</text>
</a>
</g>
</g>
<!-- Node3&#45;&gt;Node4 -->
<g id="edge3_Node000003_Node000004" class="edge">
<title>Node3&#45;&gt;Node4</title>
<g id="a_edge3_Node000003_Node000004"><a xlink:title=" ">
<path fill="none" stroke="#63b8ff" d="M365.41,-69.25C377.7,-69.25 390.29,-69.25 402.06,-69.25"/>
<polygon fill="#63b8ff" stroke="#63b8ff" points="365.75,-65.75 355.75,-69.25 365.75,-72.75 365.75,-65.75"/>
</a>
</g>
</g>
</g>
</svg>
