<?xml version="1.0" encoding="UTF-8" standalone="no"?>
<!DOCTYPE svg PUBLIC "-//W3C//DTD SVG 1.1//EN"
 "http://www.w3.org/Graphics/SVG/1.1/DTD/svg11.dtd">
<!-- Generated by graphviz version 12.2.1 (20241206.2353)
 -->
<!-- Title: llzk::dataflow::AbstractDenseForwardDataFlowAnalysis Pages: 1 -->
<svg width="742pt" height="147pt"
 viewBox="0.00 0.00 741.75 147.12" xmlns="http://www.w3.org/2000/svg" xmlns:xlink="http://www.w3.org/1999/xlink">
<g id="graph0" class="graph" transform="scale(1 1) rotate(0) translate(4 143.12)">
<title>llzk::dataflow::AbstractDenseForwardDataFlowAnalysis</title>
<!-- Node1 -->
<g id="Node000001" class="node">
<title>Node1</title>
<g id="a_Node000001"><a xlink:title="LLZK: This class has been ported from the MLIR DenseAnalysis utilities to allow for the use of custom...">
<polygon fill="#999999" stroke="#666666" points="312.5,-79.5 153.25,-79.5 153.25,-49 312.5,-49 312.5,-79.5"/>
<text text-anchor="start" x="161.25" y="-66" font-family="Helvetica,sans-Serif" font-size="10.00">llzk::dataflow::Abstract</text>
<text text-anchor="middle" x="232.88" y="-54.75" font-family="Helvetica,sans-Serif" font-size="10.00">DenseForwardDataFlowAnalysis</text>
</a>
</g>
</g>
<!-- Node3 -->
<g id="Node000003" class="node">
<title>Node3</title>
<g id="a_Node000003"><a xlink:href="classllzk_1_1dataflow_1_1_dense_forward_data_flow_analysis.html" target="_top" xlink:title=" ">
<polygon fill="white" stroke="#666666" points="535.88,-139.12 361.62,-139.12 361.62,-97.38 535.88,-97.38 535.88,-139.12"/>
<text text-anchor="start" x="369.62" y="-125.62" font-family="Helvetica,sans-Serif" font-size="10.00">llzk::dataflow::DenseForward</text>
<text text-anchor="start" x="369.62" y="-114.38" font-family="Helvetica,sans-Serif" font-size="10.00">DataFlowAnalysis&lt; IntervalAnalysis</text>
<text text-anchor="middle" x="448.75" y="-103.12" font-family="Helvetica,sans-Serif" font-size="10.00">Lattice &gt;</text>
</a>
</g>
</g>
<!-- Node1&#45;&gt;Node3 -->
<g id="edge2_Node000001_Node000003" class="edge">
<title>Node1&#45;&gt;Node3</title>
<g id="a_edge2_Node000001_Node000003"><a xlink:title=" ">
<path fill="none" stroke="#63b8ff" d="M307.06,-82.73C325.12,-87.29 344.61,-92.21 363.16,-96.89"/>
<polygon fill="#63b8ff" stroke="#63b8ff" points="308.04,-79.37 297.49,-80.31 306.33,-86.15 308.04,-79.37"/>
</a>
</g>
</g>
<!-- Node5 -->
<g id="Node000005" class="node">
<title>Node5</title>
<g id="a_Node000005"><a xlink:href="classllzk_1_1dataflow_1_1_dense_forward_data_flow_analysis.html" target="_top" xlink:title=" ">
<polygon fill="white" stroke="#666666" points="549,-79.5 348.5,-79.5 348.5,-49 549,-49 549,-79.5"/>
<text text-anchor="start" x="356.5" y="-66" font-family="Helvetica,sans-Serif" font-size="10.00">llzk::dataflow::DenseForward</text>
<text text-anchor="middle" x="448.75" y="-54.75" font-family="Helvetica,sans-Serif" font-size="10.00">DataFlowAnalysis&lt; ConstrainRefLattice &gt;</text>
</a>
</g>
</g>
<!-- Node1&#45;&gt;Node5 -->
<g id="edge4_Node000001_Node000005" class="edge">
<title>Node1&#45;&gt;Node5</title>
<g id="a_edge4_Node000001_Node000005"><a xlink:title=" ">
<path fill="none" stroke="#63b8ff" d="M324.4,-64.25C332.32,-64.25 340.36,-64.25 348.34,-64.25"/>
<polygon fill="#63b8ff" stroke="#63b8ff" points="324.42,-60.75 314.42,-64.25 324.42,-67.75 324.42,-60.75"/>
</a>
</g>
</g>
<!-- Node7 -->
<g id="Node000007" class="node">
<title>Node7</title>
<g id="a_Node000007"><a xlink:href="classllzk_1_1dataflow_1_1_dense_forward_data_flow_analysis.html" target="_top" xlink:title="LLZK: This class has been ported so that it can inherit from our port of the AbstractDenseForwardData...">
<polygon fill="white" stroke="#666666" points="523.12,-30.5 374.38,-30.5 374.38,0 523.12,0 523.12,-30.5"/>
<text text-anchor="start" x="382.38" y="-17" font-family="Helvetica,sans-Serif" font-size="10.00">llzk::dataflow::DenseForward</text>
<text text-anchor="middle" x="448.75" y="-5.75" font-family="Helvetica,sans-Serif" font-size="10.00">DataFlowAnalysis&lt; LatticeT &gt;</text>
</a>
</g>
</g>
<!-- Node1&#45;&gt;Node7 -->
<g id="edge6_Node000001_Node000007" class="edge">
<title>Node1&#45;&gt;Node7</title>
<g id="a_edge6_Node000001_Node000007"><a xlink:title=" ">
<path fill="none" stroke="#63b8ff" d="M313.55,-46C335.13,-41.05 358.31,-35.74 379.22,-30.95"/>
<polygon fill="#63b8ff" stroke="#63b8ff" points="312.87,-42.56 303.9,-48.21 314.43,-49.38 312.87,-42.56"/>
</a>
</g>
</g>
<!-- Node2 -->
<g id="Node000002" class="node">
<title>Node2</title>
<g id="a_Node000002"><a xlink:title=" ">
<polygon fill="white" stroke="#666666" points="117.25,-73.88 0,-73.88 0,-54.62 117.25,-54.62 117.25,-73.88"/>
<text text-anchor="middle" x="58.62" y="-60.38" font-family="Helvetica,sans-Serif" font-size="10.00">mlir::DataFlowAnalysis</text>
</a>
</g>
</g>
<!-- Node2&#45;&gt;Node1 -->
<g id="edge1_Node000001_Node000002" class="edge">
<title>Node2&#45;&gt;Node1</title>
<g id="a_edge1_Node000001_Node000002"><a xlink:title=" ">
<path fill="none" stroke="#63b8ff" d="M128.83,-64.25C136.7,-64.25 144.77,-64.25 152.76,-64.25"/>
<polygon fill="#63b8ff" stroke="#63b8ff" points="128.97,-60.75 118.97,-64.25 128.97,-67.75 128.97,-60.75"/>
</a>
</g>
</g>
<!-- Node4 -->
<g id="Node000004" class="node">
<title>Node4</title>
<g id="a_Node000004"><a xlink:href="classllzk_1_1_interval_data_flow_analysis.html" target="_top" xlink:title=" ">
<polygon fill="white" stroke="#666666" points="733.75,-127.88 585,-127.88 585,-108.62 733.75,-108.62 733.75,-127.88"/>
<text text-anchor="middle" x="659.38" y="-114.38" font-family="Helvetica,sans-Serif" font-size="10.00">llzk::IntervalDataFlowAnalysis</text>
</a>
</g>
</g>
<!-- Node3&#45;&gt;Node4 -->
<g id="edge3_Node000003_Node000004" class="edge">
<title>Node3&#45;&gt;Node4</title>
<g id="a_edge3_Node000003_Node000004"><a xlink:title=" ">
<path fill="none" stroke="#63b8ff" d="M547.54,-118.25C560.04,-118.25 572.67,-118.25 584.7,-118.25"/>
<polygon fill="#63b8ff" stroke="#63b8ff" points="547.63,-114.75 537.63,-118.25 547.63,-121.75 547.63,-114.75"/>
</a>
</g>
</g>
<!-- Node6 -->
<g id="Node000006" class="node">
<title>Node6</title>
<g id="a_Node000006"><a xlink:href="classllzk_1_1_constrain_ref_analysis.html" target="_top" xlink:title="The dataflow analysis that computes the set of references that LLZK operations use and produce.">
<polygon fill="white" stroke="#666666" points="725.5,-73.88 593.25,-73.88 593.25,-54.62 725.5,-54.62 725.5,-73.88"/>
<text text-anchor="middle" x="659.38" y="-60.38" font-family="Helvetica,sans-Serif" font-size="10.00">llzk::ConstrainRefAnalysis</text>
</a>
</g>
</g>
<!-- Node5&#45;&gt;Node6 -->
<g id="edge5_Node000005_Node000006" class="edge">
<title>Node5&#45;&gt;Node6</title>
<g id="a_edge5_Node000005_Node000006"><a xlink:title=" ">
<path fill="none" stroke="#63b8ff" d="M560.91,-64.25C571.86,-64.25 582.71,-64.25 592.97,-64.25"/>
<polygon fill="#63b8ff" stroke="#63b8ff" points="560.99,-60.75 550.99,-64.25 560.99,-67.75 560.99,-60.75"/>
</a>
</g>
</g>
</g>
</svg>
