<?xml version="1.0" encoding="UTF-8" standalone="no"?>
<!DOCTYPE svg PUBLIC "-//W3C//DTD SVG 1.1//EN"
 "http://www.w3.org/Graphics/SVG/1.1/DTD/svg11.dtd">
<!-- Generated by graphviz version 12.2.1 (20241206.2353)
 -->
<!-- Title: llzk::felt::FeltConstantOpAdaptor Pages: 1 -->
<svg width="189pt" height="183pt"
 viewBox="0.00 0.00 189.00 182.75" xmlns="http://www.w3.org/2000/svg" xmlns:xlink="http://www.w3.org/1999/xlink">
<g id="graph0" class="graph" transform="scale(1 1) rotate(0) translate(4 178.75)">
<title>llzk::felt::FeltConstantOpAdaptor</title>
<!-- Node1 -->
<g id="Node000001" class="node">
<title>Node1</title>
<g id="a_Node000001"><a xlink:title=" ">
<polygon fill="#999999" stroke="#666666" points="146.88,-30.5 34.12,-30.5 34.12,0 146.88,0 146.88,-30.5"/>
<text text-anchor="start" x="42.12" y="-17" font-family="Helvetica,sans-Serif" font-size="10.00">llzk::felt::FeltConstant</text>
<text text-anchor="middle" x="90.5" y="-5.75" font-family="Helvetica,sans-Serif" font-size="10.00">OpAdaptor</text>
</a>
</g>
</g>
<!-- Node2 -->
<g id="Node000002" class="node">
<title>Node2</title>
<g id="a_Node000002"><a xlink:href="classllzk_1_1felt_1_1_felt_constant_op_generic_adaptor.html" target="_top" xlink:title=" ">
<polygon fill="white" stroke="#666666" points="152.5,-108.25 28.5,-108.25 28.5,-66.5 152.5,-66.5 152.5,-108.25"/>
<text text-anchor="start" x="36.5" y="-94.75" font-family="Helvetica,sans-Serif" font-size="10.00">llzk::felt::FeltConstant</text>
<text text-anchor="start" x="36.5" y="-83.5" font-family="Helvetica,sans-Serif" font-size="10.00">OpGenericAdaptor&lt;::mlir</text>
<text text-anchor="middle" x="90.5" y="-72.25" font-family="Helvetica,sans-Serif" font-size="10.00">::ValueRange &gt;</text>
</a>
</g>
</g>
<!-- Node2&#45;&gt;Node1 -->
<g id="edge1_Node000001_Node000002" class="edge">
<title>Node2&#45;&gt;Node1</title>
<g id="a_edge1_Node000001_Node000002"><a xlink:title=" ">
<path fill="none" stroke="#63b8ff" d="M90.5,-54.63C90.5,-46.27 90.5,-37.65 90.5,-30.7"/>
<polygon fill="#63b8ff" stroke="#63b8ff" points="87,-54.58 90.5,-64.58 94,-54.58 87,-54.58"/>
</a>
</g>
</g>
<!-- Node3 -->
<g id="Node000003" class="node">
<title>Node3</title>
<g id="a_Node000003"><a xlink:href="classllzk_1_1felt_1_1detail_1_1_felt_constant_op_generic_adaptor_base.html" target="_top" xlink:title=" ">
<polygon fill="white" stroke="#666666" points="181,-174.75 0,-174.75 0,-144.25 181,-144.25 181,-174.75"/>
<text text-anchor="start" x="8" y="-161.25" font-family="Helvetica,sans-Serif" font-size="10.00">llzk::felt::detail</text>
<text text-anchor="middle" x="90.5" y="-150" font-family="Helvetica,sans-Serif" font-size="10.00">::FeltConstantOpGenericAdaptorBase</text>
</a>
</g>
</g>
<!-- Node3&#45;&gt;Node2 -->
<g id="edge2_Node000002_Node000003" class="edge">
<title>Node3&#45;&gt;Node2</title>
<g id="a_edge2_Node000002_Node000003"><a xlink:title=" ">
<path fill="none" stroke="#63b8ff" d="M90.5,-132.72C90.5,-124.81 90.5,-116.23 90.5,-108.74"/>
<polygon fill="#63b8ff" stroke="#63b8ff" points="87,-132.46 90.5,-142.46 94,-132.46 87,-132.46"/>
</a>
</g>
</g>
</g>
</svg>
