<?xml version="1.0" encoding="UTF-8" standalone="no"?>
<!DOCTYPE svg PUBLIC "-//W3C//DTD SVG 1.1//EN"
 "http://www.w3.org/Graphics/SVG/1.1/DTD/svg11.dtd">
<!-- Generated by graphviz version 12.2.1 (20241206.2353)
 -->
<!-- Title: llzk::boolean::XorBoolOpAdaptor Pages: 1 -->
<svg width="167pt" height="183pt"
 viewBox="0.00 0.00 167.25 182.75" xmlns="http://www.w3.org/2000/svg" xmlns:xlink="http://www.w3.org/1999/xlink">
<g id="graph0" class="graph" transform="scale(1 1) rotate(0) translate(4 178.75)">
<title>llzk::boolean::XorBoolOpAdaptor</title>
<!-- Node1 -->
<g id="Node000001" class="node">
<title>Node1</title>
<g id="a_Node000001"><a xlink:title=" ">
<polygon fill="#999999" stroke="#666666" points="141.62,-30.5 17.62,-30.5 17.62,0 141.62,0 141.62,-30.5"/>
<text text-anchor="start" x="25.62" y="-17" font-family="Helvetica,sans-Serif" font-size="10.00">llzk::boolean::XorBoolOp</text>
<text text-anchor="middle" x="79.62" y="-5.75" font-family="Helvetica,sans-Serif" font-size="10.00">Adaptor</text>
</a>
</g>
</g>
<!-- Node2 -->
<g id="Node000002" class="node">
<title>Node2</title>
<g id="a_Node000002"><a xlink:href="classllzk_1_1boolean_1_1_xor_bool_op_generic_adaptor.html" target="_top" xlink:title=" ">
<polygon fill="white" stroke="#666666" points="141.62,-108.25 17.62,-108.25 17.62,-66.5 141.62,-66.5 141.62,-108.25"/>
<text text-anchor="start" x="25.62" y="-94.75" font-family="Helvetica,sans-Serif" font-size="10.00">llzk::boolean::XorBoolOp</text>
<text text-anchor="start" x="25.62" y="-83.5" font-family="Helvetica,sans-Serif" font-size="10.00">GenericAdaptor&lt;::mlir</text>
<text text-anchor="middle" x="79.62" y="-72.25" font-family="Helvetica,sans-Serif" font-size="10.00">::ValueRange &gt;</text>
</a>
</g>
</g>
<!-- Node2&#45;&gt;Node1 -->
<g id="edge1_Node000001_Node000002" class="edge">
<title>Node2&#45;&gt;Node1</title>
<g id="a_edge1_Node000001_Node000002"><a xlink:title=" ">
<path fill="none" stroke="#63b8ff" d="M79.62,-54.63C79.62,-46.27 79.62,-37.65 79.62,-30.7"/>
<polygon fill="#63b8ff" stroke="#63b8ff" points="76.13,-54.58 79.63,-64.58 83.13,-54.58 76.13,-54.58"/>
</a>
</g>
</g>
<!-- Node3 -->
<g id="Node000003" class="node">
<title>Node3</title>
<g id="a_Node000003"><a xlink:href="classllzk_1_1boolean_1_1detail_1_1_xor_bool_op_generic_adaptor_base.html" target="_top" xlink:title=" ">
<polygon fill="white" stroke="#666666" points="159.25,-174.75 0,-174.75 0,-144.25 159.25,-144.25 159.25,-174.75"/>
<text text-anchor="start" x="8" y="-161.25" font-family="Helvetica,sans-Serif" font-size="10.00">llzk::boolean::detail</text>
<text text-anchor="middle" x="79.62" y="-150" font-family="Helvetica,sans-Serif" font-size="10.00">::XorBoolOpGenericAdaptorBase</text>
</a>
</g>
</g>
<!-- Node3&#45;&gt;Node2 -->
<g id="edge2_Node000002_Node000003" class="edge">
<title>Node3&#45;&gt;Node2</title>
<g id="a_edge2_Node000002_Node000003"><a xlink:title=" ">
<path fill="none" stroke="#63b8ff" d="M79.62,-132.72C79.62,-124.81 79.62,-116.23 79.62,-108.74"/>
<polygon fill="#63b8ff" stroke="#63b8ff" points="76.13,-132.46 79.63,-142.46 83.13,-132.46 76.13,-132.46"/>
</a>
</g>
</g>
</g>
</svg>
