<?xml version="1.0" encoding="UTF-8" standalone="no"?>
<!DOCTYPE svg PUBLIC "-//W3C//DTD SVG 1.1//EN"
 "http://www.w3.org/Graphics/SVG/1.1/DTD/svg11.dtd">
<!-- Generated by graphviz version 12.2.1 (20241206.2353)
 -->
<!-- Title: llzk::component::detail::StructDefOpGenericAdaptorBase Pages: 1 -->
<svg width="529pt" height="158pt"
 viewBox="0.00 0.00 529.25 158.12" xmlns="http://www.w3.org/2000/svg" xmlns:xlink="http://www.w3.org/1999/xlink">
<g id="graph0" class="graph" transform="scale(1 1) rotate(0) translate(4 154.12)">
<title>llzk::component::detail::StructDefOpGenericAdaptorBase</title>
<!-- Node1 -->
<g id="Node000001" class="node">
<title>Node1</title>
<g id="a_Node000001"><a xlink:title=" ">
<polygon fill="#999999" stroke="#666666" points="166.75,-84.5 0,-84.5 0,-54 166.75,-54 166.75,-84.5"/>
<text text-anchor="start" x="8" y="-71" font-family="Helvetica,sans-Serif" font-size="10.00">llzk::component::detail</text>
<text text-anchor="middle" x="83.38" y="-59.75" font-family="Helvetica,sans-Serif" font-size="10.00">::StructDefOpGenericAdaptorBase</text>
</a>
</g>
</g>
<!-- Node2 -->
<g id="Node000002" class="node">
<title>Node2</title>
<g id="a_Node000002"><a xlink:href="classllzk_1_1component_1_1_struct_def_op_generic_adaptor.html" target="_top" xlink:title=" ">
<polygon fill="white" stroke="#666666" points="352.25,-150.12 202.75,-150.12 202.75,-108.38 352.25,-108.38 352.25,-150.12"/>
<text text-anchor="start" x="210.75" y="-136.62" font-family="Helvetica,sans-Serif" font-size="10.00">llzk::component::StructDef</text>
<text text-anchor="start" x="210.75" y="-125.38" font-family="Helvetica,sans-Serif" font-size="10.00">OpGenericAdaptor&lt;::llvm</text>
<text text-anchor="middle" x="277.5" y="-114.12" font-family="Helvetica,sans-Serif" font-size="10.00">::ArrayRef&lt;::mlir::Attribute &gt; &gt;</text>
</a>
</g>
</g>
<!-- Node1&#45;&gt;Node2 -->
<g id="edge1_Node000001_Node000002" class="edge">
<title>Node1&#45;&gt;Node2</title>
<g id="a_edge1_Node000001_Node000002"><a xlink:title=" ">
<path fill="none" stroke="#63b8ff" d="M145.42,-88.32C165.38,-94.55 187.67,-101.51 208.14,-107.9"/>
<polygon fill="#63b8ff" stroke="#63b8ff" points="146.64,-85.03 136.05,-85.39 144.55,-91.71 146.64,-85.03"/>
</a>
</g>
</g>
<!-- Node3 -->
<g id="Node000003" class="node">
<title>Node3</title>
<g id="a_Node000003"><a xlink:href="classllzk_1_1component_1_1_struct_def_op_generic_adaptor.html" target="_top" xlink:title=" ">
<polygon fill="white" stroke="#666666" points="344,-90.12 211,-90.12 211,-48.38 344,-48.38 344,-90.12"/>
<text text-anchor="start" x="219" y="-76.62" font-family="Helvetica,sans-Serif" font-size="10.00">llzk::component::StructDef</text>
<text text-anchor="start" x="219" y="-65.38" font-family="Helvetica,sans-Serif" font-size="10.00">OpGenericAdaptor&lt;::mlir</text>
<text text-anchor="middle" x="277.5" y="-54.12" font-family="Helvetica,sans-Serif" font-size="10.00">::ValueRange &gt;</text>
</a>
</g>
</g>
<!-- Node1&#45;&gt;Node3 -->
<g id="edge2_Node000001_Node000003" class="edge">
<title>Node1&#45;&gt;Node3</title>
<g id="a_edge2_Node000001_Node000003"><a xlink:title=" ">
<path fill="none" stroke="#63b8ff" d="M178.54,-69.25C189.41,-69.25 200.31,-69.25 210.68,-69.25"/>
<polygon fill="#63b8ff" stroke="#63b8ff" points="178.76,-65.75 168.76,-69.25 178.76,-72.75 178.76,-65.75"/>
</a>
</g>
</g>
<!-- Node5 -->
<g id="Node000005" class="node">
<title>Node5</title>
<g id="a_Node000005"><a xlink:href="classllzk_1_1component_1_1_struct_def_op_generic_adaptor.html" target="_top" xlink:title=" ">
<polygon fill="white" stroke="#666666" points="351.88,-30.5 203.12,-30.5 203.12,0 351.88,0 351.88,-30.5"/>
<text text-anchor="start" x="211.12" y="-17" font-family="Helvetica,sans-Serif" font-size="10.00">llzk::component::StructDef</text>
<text text-anchor="middle" x="277.5" y="-5.75" font-family="Helvetica,sans-Serif" font-size="10.00">OpGenericAdaptor&lt; RangeT &gt;</text>
</a>
</g>
</g>
<!-- Node1&#45;&gt;Node5 -->
<g id="edge4_Node000001_Node000005" class="edge">
<title>Node1&#45;&gt;Node5</title>
<g id="a_edge4_Node000001_Node000005"><a xlink:title=" ">
<path fill="none" stroke="#63b8ff" d="M151.1,-50.49C173.75,-44.13 198.81,-37.09 220.53,-30.98"/>
<polygon fill="#63b8ff" stroke="#63b8ff" points="150.34,-47.07 141.66,-53.15 152.23,-53.81 150.34,-47.07"/>
</a>
</g>
</g>
<!-- Node4 -->
<g id="Node000004" class="node">
<title>Node4</title>
<g id="a_Node000004"><a xlink:href="classllzk_1_1component_1_1_struct_def_op_adaptor.html" target="_top" xlink:title=" ">
<polygon fill="white" stroke="#666666" points="521.25,-84.5 388.25,-84.5 388.25,-54 521.25,-54 521.25,-84.5"/>
<text text-anchor="start" x="396.25" y="-71" font-family="Helvetica,sans-Serif" font-size="10.00">llzk::component::StructDef</text>
<text text-anchor="middle" x="454.75" y="-59.75" font-family="Helvetica,sans-Serif" font-size="10.00">OpAdaptor</text>
</a>
</g>
</g>
<!-- Node3&#45;&gt;Node4 -->
<g id="edge3_Node000003_Node000004" class="edge">
<title>Node3&#45;&gt;Node4</title>
<g id="a_edge3_Node000003_Node000004"><a xlink:title=" ">
<path fill="none" stroke="#63b8ff" d="M355.43,-69.25C366.27,-69.25 377.32,-69.25 387.92,-69.25"/>
<polygon fill="#63b8ff" stroke="#63b8ff" points="355.77,-65.75 345.77,-69.25 355.77,-72.75 355.77,-65.75"/>
</a>
</g>
</g>
</g>
</svg>
