<?xml version="1.0" encoding="UTF-8" standalone="no"?>
<!DOCTYPE svg PUBLIC "-//W3C//DTD SVG 1.1//EN"
 "http://www.w3.org/Graphics/SVG/1.1/DTD/svg11.dtd">
<!-- Generated by graphviz version 12.2.1 (20241206.2353)
 -->
<!-- Title: llzk::felt::FeltConstantOpAdaptor Pages: 1 -->
<svg width="189pt" height="274pt"
 viewBox="0.00 0.00 189.00 273.75" xmlns="http://www.w3.org/2000/svg" xmlns:xlink="http://www.w3.org/1999/xlink">
<g id="graph0" class="graph" transform="scale(1 1) rotate(0) translate(4 269.75)">
<title>llzk::felt::FeltConstantOpAdaptor</title>
<!-- Node1 -->
<g id="Node000001" class="node">
<title>Node1</title>
<g id="a_Node000001"><a xlink:title=" ">
<polygon fill="#999999" stroke="#666666" points="146.88,-30.5 34.12,-30.5 34.12,0 146.88,0 146.88,-30.5"/>
<text text-anchor="start" x="42.12" y="-17" font-family="Helvetica,sans-Serif" font-size="10.00">llzk::felt::FeltConstant</text>
<text text-anchor="middle" x="90.5" y="-5.75" font-family="Helvetica,sans-Serif" font-size="10.00">OpAdaptor</text>
</a>
</g>
</g>
<!-- Node2 -->
<g id="Node000002" class="node">
<title>Node2</title>
<g id="a_Node000002"><a xlink:href="classllzk_1_1felt_1_1_felt_constant_op_generic_adaptor.html" target="_top" xlink:title=" ">
<polygon fill="white" stroke="#666666" points="152.5,-109.25 28.5,-109.25 28.5,-67.5 152.5,-67.5 152.5,-109.25"/>
<text text-anchor="start" x="36.5" y="-95.75" font-family="Helvetica,sans-Serif" font-size="10.00">llzk::felt::FeltConstant</text>
<text text-anchor="start" x="36.5" y="-84.5" font-family="Helvetica,sans-Serif" font-size="10.00">OpGenericAdaptor&lt;::mlir</text>
<text text-anchor="middle" x="90.5" y="-73.25" font-family="Helvetica,sans-Serif" font-size="10.00">::ValueRange &gt;</text>
</a>
</g>
</g>
<!-- Node2&#45;&gt;Node1 -->
<g id="edge1_Node000001_Node000002" class="edge">
<title>Node2&#45;&gt;Node1</title>
<g id="a_edge1_Node000001_Node000002"><a xlink:title=" ">
<path fill="none" stroke="#63b8ff" d="M90.5,-55.95C90.5,-47.11 90.5,-37.92 90.5,-30.62"/>
<polygon fill="#63b8ff" stroke="#63b8ff" points="87,-55.67 90.5,-65.67 94,-55.67 87,-55.67"/>
</a>
</g>
</g>
<!-- Node3 -->
<g id="Node000003" class="node">
<title>Node3</title>
<g id="a_Node000003"><a xlink:href="classllzk_1_1felt_1_1detail_1_1_felt_constant_op_generic_adaptor_base.html" target="_top" xlink:title=" ">
<polygon fill="white" stroke="#666666" points="181,-176.75 0,-176.75 0,-146.25 181,-146.25 181,-176.75"/>
<text text-anchor="start" x="8" y="-163.25" font-family="Helvetica,sans-Serif" font-size="10.00">llzk::felt::detail</text>
<text text-anchor="middle" x="90.5" y="-152" font-family="Helvetica,sans-Serif" font-size="10.00">::FeltConstantOpGenericAdaptorBase</text>
</a>
</g>
</g>
<!-- Node3&#45;&gt;Node2 -->
<g id="edge2_Node000002_Node000003" class="edge">
<title>Node3&#45;&gt;Node2</title>
<g id="a_edge2_Node000002_Node000003"><a xlink:title=" ">
<path fill="none" stroke="#63b8ff" d="M90.5,-134.45C90.5,-126.21 90.5,-117.24 90.5,-109.49"/>
<polygon fill="#63b8ff" stroke="#63b8ff" points="87,-134.25 90.5,-144.25 94,-134.25 87,-134.25"/>
</a>
</g>
</g>
<!-- Node4 -->
<g id="Node000004" class="node">
<title>Node4</title>
<g id="a_Node000004"><a xlink:href="structllzk_1_1felt_1_1detail_1_1_felt_constant_op_generic_adaptor_base_1_1_properties.html" target="_top" xlink:title=" ">
<polygon fill="white" stroke="#666666" points="169.75,-265.75 11.25,-265.75 11.25,-224 169.75,-224 169.75,-265.75"/>
<text text-anchor="start" x="19.25" y="-252.25" font-family="Helvetica,sans-Serif" font-size="10.00">llzk::felt::detail</text>
<text text-anchor="start" x="19.25" y="-241" font-family="Helvetica,sans-Serif" font-size="10.00">::FeltConstantOpGenericAdaptor</text>
<text text-anchor="middle" x="90.5" y="-229.75" font-family="Helvetica,sans-Serif" font-size="10.00">Base::Properties</text>
</a>
</g>
</g>
<!-- Node4&#45;&gt;Node3 -->
<g id="edge3_Node000003_Node000004" class="edge">
<title>Node4&#45;&gt;Node3</title>
<g id="a_edge3_Node000003_Node000004"><a xlink:title=" ">
<path fill="none" stroke="#9a32cd" stroke-dasharray="5,2" d="M90.5,-212.55C90.5,-200.32 90.5,-186.89 90.5,-177.02"/>
<polygon fill="#9a32cd" stroke="#9a32cd" points="87,-212.25 90.5,-222.25 94,-212.25 87,-212.25"/>
</a>
</g>
<text text-anchor="middle" x="113.38" y="-196.5" font-family="Helvetica,sans-Serif" font-size="10.00" fill="grey"> properties</text>
</g>
</g>
</svg>
