<?xml version="1.0" encoding="UTF-8" standalone="no"?>
<!DOCTYPE svg PUBLIC "-//W3C//DTD SVG 1.1//EN"
 "http://www.w3.org/Graphics/SVG/1.1/DTD/svg11.dtd">
<!-- Generated by graphviz version 12.2.1 (20241206.2353)
 -->
<!-- Title: llzk::boolean::CmpOpAdaptor Pages: 1 -->
<svg width="154pt" height="251pt"
 viewBox="0.00 0.00 153.75 251.25" xmlns="http://www.w3.org/2000/svg" xmlns:xlink="http://www.w3.org/1999/xlink">
<g id="graph0" class="graph" transform="scale(1 1) rotate(0) translate(4 247.25)">
<title>llzk::boolean::CmpOpAdaptor</title>
<!-- Node1 -->
<g id="Node000001" class="node">
<title>Node1</title>
<g id="a_Node000001"><a xlink:title=" ">
<polygon fill="#999999" stroke="#666666" points="145,-19.25 0.75,-19.25 0.75,0 145,0 145,-19.25"/>
<text text-anchor="middle" x="72.88" y="-5.75" font-family="Helvetica,sans-Serif" font-size="10.00">llzk::boolean::CmpOpAdaptor</text>
</a>
</g>
</g>
<!-- Node2 -->
<g id="Node000002" class="node">
<title>Node2</title>
<g id="a_Node000002"><a xlink:href="classllzk_1_1boolean_1_1_cmp_op_generic_adaptor.html" target="_top" xlink:title=" ">
<polygon fill="white" stroke="#666666" points="145.38,-86.75 0.38,-86.75 0.38,-56.25 145.38,-56.25 145.38,-86.75"/>
<text text-anchor="start" x="8.38" y="-73.25" font-family="Helvetica,sans-Serif" font-size="10.00">llzk::boolean::CmpOpGeneric</text>
<text text-anchor="middle" x="72.88" y="-62" font-family="Helvetica,sans-Serif" font-size="10.00">Adaptor&lt;::mlir::ValueRange &gt;</text>
</a>
</g>
</g>
<!-- Node2&#45;&gt;Node1 -->
<g id="edge1_Node000001_Node000002" class="edge">
<title>Node2&#45;&gt;Node1</title>
<g id="a_edge1_Node000001_Node000002"><a xlink:title=" ">
<path fill="none" stroke="#63b8ff" d="M72.88,-44.77C72.88,-35.79 72.88,-26.29 72.88,-19.6"/>
<polygon fill="#63b8ff" stroke="#63b8ff" points="69.38,-44.49 72.88,-54.49 76.38,-44.49 69.38,-44.49"/>
</a>
</g>
</g>
<!-- Node3 -->
<g id="Node000003" class="node">
<title>Node3</title>
<g id="a_Node000003"><a xlink:href="classllzk_1_1boolean_1_1detail_1_1_cmp_op_generic_adaptor_base.html" target="_top" xlink:title=" ">
<polygon fill="white" stroke="#666666" points="145.75,-154.25 0,-154.25 0,-123.75 145.75,-123.75 145.75,-154.25"/>
<text text-anchor="start" x="8" y="-140.75" font-family="Helvetica,sans-Serif" font-size="10.00">llzk::boolean::detail</text>
<text text-anchor="middle" x="72.88" y="-129.5" font-family="Helvetica,sans-Serif" font-size="10.00">::CmpOpGenericAdaptorBase</text>
</a>
</g>
</g>
<!-- Node3&#45;&gt;Node2 -->
<g id="edge2_Node000002_Node000003" class="edge">
<title>Node3&#45;&gt;Node2</title>
<g id="a_edge2_Node000002_Node000003"><a xlink:title=" ">
<path fill="none" stroke="#63b8ff" d="M72.88,-112.09C72.88,-103.55 72.88,-94.37 72.88,-87"/>
<polygon fill="#63b8ff" stroke="#63b8ff" points="69.38,-111.95 72.88,-121.95 76.38,-111.95 69.38,-111.95"/>
</a>
</g>
</g>
<!-- Node4 -->
<g id="Node000004" class="node">
<title>Node4</title>
<g id="a_Node000004"><a xlink:href="structllzk_1_1boolean_1_1detail_1_1_cmp_op_generic_adaptor_base_1_1_properties.html" target="_top" xlink:title=" ">
<polygon fill="white" stroke="#666666" points="145.75,-243.25 0,-243.25 0,-201.5 145.75,-201.5 145.75,-243.25"/>
<text text-anchor="start" x="8" y="-229.75" font-family="Helvetica,sans-Serif" font-size="10.00">llzk::boolean::detail</text>
<text text-anchor="start" x="8" y="-218.5" font-family="Helvetica,sans-Serif" font-size="10.00">::CmpOpGenericAdaptorBase</text>
<text text-anchor="middle" x="72.88" y="-207.25" font-family="Helvetica,sans-Serif" font-size="10.00">::Properties</text>
</a>
</g>
</g>
<!-- Node4&#45;&gt;Node3 -->
<g id="edge3_Node000003_Node000004" class="edge">
<title>Node4&#45;&gt;Node3</title>
<g id="a_edge3_Node000003_Node000004"><a xlink:title=" ">
<path fill="none" stroke="#9a32cd" stroke-dasharray="5,2" d="M72.88,-190.05C72.88,-177.82 72.88,-164.39 72.88,-154.52"/>
<polygon fill="#9a32cd" stroke="#9a32cd" points="69.38,-189.75 72.88,-199.75 76.38,-189.75 69.38,-189.75"/>
</a>
</g>
<text text-anchor="middle" x="95.75" y="-174" font-family="Helvetica,sans-Serif" font-size="10.00" fill="grey"> properties</text>
</g>
</g>
</svg>
