<?xml version="1.0" encoding="UTF-8" standalone="no"?>
<!DOCTYPE svg PUBLIC "-//W3C//DTD SVG 1.1//EN"
 "http://www.w3.org/Graphics/SVG/1.1/DTD/svg11.dtd">
<!-- Generated by graphviz version 12.2.1 (20241206.2353)
 -->
<!-- Title: include/llzk Pages: 1 -->
<svg width="338pt" height="205pt"
 viewBox="0.00 0.00 338.12 205.00" xmlns="http://www.w3.org/2000/svg" xmlns:xlink="http://www.w3.org/1999/xlink">
<g id="graph0" class="graph" transform="scale(1 1) rotate(0) translate(4 201)">
<title>include/llzk</title>
<g id="clust1" class="cluster">
<title>clusterdir_d44c64559bbebec7f509842c48db8b23</title>
<g id="a_clust1"><a xlink:href="dir_d44c64559bbebec7f509842c48db8b23.html" target="_top" xlink:title="include">
<polygon fill="#edf0f7" stroke="#404040" stroke-dasharray="5,2" points="8,-8 8,-189 286,-189 286,-8 8,-8"/>
<text text-anchor="middle" x="147" y="-175.5" font-family="Helvetica,sans-Serif" font-size="10.00">include</text>
</a>
</g>
</g>
<g id="clust2" class="cluster">
<title>clusterdir_5804947f485dbfa35f1b2a5b6cdecd1f</title>
<g id="a_clust2"><a xlink:href="dir_5804947f485dbfa35f1b2a5b6cdecd1f.html" target="_top">
<polygon fill="#edf0f7" stroke="#404040" stroke-width="2" points="16,-16 16,-161.75 278,-161.75 278,-16 16,-16"/>
</a>
</g>
</g>
<!-- dir_5804947f485dbfa35f1b2a5b6cdecd1f -->
<g id="node1" class="node">
<title>dir_5804947f485dbfa35f1b2a5b6cdecd1f</title>
<text text-anchor="middle" x="44" y="-140.25" font-family="Helvetica,sans-Serif" font-size="10.00">llzk</text>
</g>
<!-- dir_65cd0a6beb1707f32c23cd7936ccf072 -->
<g id="node2" class="node">
<title>dir_65cd0a6beb1707f32c23cd7936ccf072</title>
<g id="a_node2"><a xlink:href="dir_65cd0a6beb1707f32c23cd7936ccf072.html" target="_top" xlink:title="Analysis">
<polygon fill="#a2b4d6" stroke="#404040" points="132.75,-153.75 79.25,-153.75 79.25,-134.5 132.75,-134.5 132.75,-153.75"/>
<text text-anchor="middle" x="106" y="-140.25" font-family="Helvetica,sans-Serif" font-size="10.00">Analysis</text>
</a>
</g>
</g>
<!-- dir_961f7ef292a3987e3723514feaf3f181 -->
<g id="node3" class="node">
<title>dir_961f7ef292a3987e3723514feaf3f181</title>
<g id="a_node3"><a xlink:href="dir_961f7ef292a3987e3723514feaf3f181.html" target="_top" xlink:title="Dialect">
<polygon fill="#a2b4d6" stroke="#404040" points="90.38,-98.5 43.62,-98.5 43.62,-79.25 90.38,-79.25 90.38,-98.5"/>
<text text-anchor="middle" x="67" y="-85" font-family="Helvetica,sans-Serif" font-size="10.00">Dialect</text>
</a>
</g>
</g>
<!-- dir_65cd0a6beb1707f32c23cd7936ccf072&#45;&gt;dir_961f7ef292a3987e3723514feaf3f181 -->
<g id="edge4" class="edge">
<title>dir_65cd0a6beb1707f32c23cd7936ccf072&#45;&gt;dir_961f7ef292a3987e3723514feaf3f181</title>
<g id="a_edge4"><a xlink:href="dir_000001_000019.html" target="_top">
<path fill="none" stroke="#63b8ff" d="M99.56,-134.33C94.34,-127.21 86.81,-116.93 80.31,-108.05"/>
<polygon fill="#63b8ff" stroke="#63b8ff" points="83.21,-106.08 74.47,-100.08 77.56,-110.22 83.21,-106.08"/>
</a>
</g>
<g id="a_edge4&#45;headlabel"><a xlink:href="dir_000001_000019.html" target="_top" xlink:title="14">
<text text-anchor="middle" x="86.73" y="-102.21" font-family="Helvetica,sans-Serif" font-size="10.00" fill="#63b8ff">14</text>
</a>
</g>
</g>
<!-- dir_459833b041acece43aa610615f5ca5a8 -->
<g id="node4" class="node">
<title>dir_459833b041acece43aa610615f5ca5a8</title>
<g id="a_node4"><a xlink:href="dir_459833b041acece43aa610615f5ca5a8.html" target="_top" xlink:title="Pass">
<polygon fill="#a2b4d6" stroke="#404040" points="128.25,-43.25 89.75,-43.25 89.75,-24 128.25,-24 128.25,-43.25"/>
<text text-anchor="middle" x="109" y="-29.75" font-family="Helvetica,sans-Serif" font-size="10.00">Pass</text>
</a>
</g>
</g>
<!-- dir_65cd0a6beb1707f32c23cd7936ccf072&#45;&gt;dir_459833b041acece43aa610615f5ca5a8 -->
<g id="edge1" class="edge">
<title>dir_65cd0a6beb1707f32c23cd7936ccf072&#45;&gt;dir_459833b041acece43aa610615f5ca5a8</title>
<g id="a_edge1"><a xlink:href="dir_000001_000085.html" target="_top">
<path fill="none" stroke="#63b8ff" d="M106.25,-134.25C106.72,-117 107.78,-78.58 108.44,-54.81"/>
<polygon fill="#63b8ff" stroke="#63b8ff" points="111.93,-55.23 108.71,-45.14 104.93,-55.04 111.93,-55.23"/>
</a>
</g>
<g id="a_edge1&#45;headlabel"><a xlink:href="dir_000001_000085.html" target="_top" xlink:title="1">
<text text-anchor="middle" x="114.71" y="-53.52" font-family="Helvetica,sans-Serif" font-size="10.00" fill="#63b8ff">1</text>
</a>
</g>
</g>
<!-- dir_7093d9bec9e6df023c20339d9b6c0d59 -->
<g id="node6" class="node">
<title>dir_7093d9bec9e6df023c20339d9b6c0d59</title>
<g id="a_node6"><a xlink:href="dir_7093d9bec9e6df023c20339d9b6c0d59.html" target="_top" xlink:title="Util">
<polygon fill="#a2b4d6" stroke="#404040" points="63.5,-43.25 32.5,-43.25 32.5,-24 63.5,-24 63.5,-43.25"/>
<text text-anchor="middle" x="48" y="-29.75" font-family="Helvetica,sans-Serif" font-size="10.00">Util</text>
</a>
</g>
</g>
<!-- dir_65cd0a6beb1707f32c23cd7936ccf072&#45;&gt;dir_7093d9bec9e6df023c20339d9b6c0d59 -->
<g id="edge3" class="edge">
<title>dir_65cd0a6beb1707f32c23cd7936ccf072&#45;&gt;dir_7093d9bec9e6df023c20339d9b6c0d59</title>
<g id="a_edge3"><a xlink:href="dir_000001_000117.html" target="_top">
<path fill="none" stroke="#63b8ff" d="M79.42,-134.01C63.45,-127 44.44,-115.58 35,-98.5 27.38,-84.71 31.89,-67.03 37.6,-53.77"/>
<polygon fill="#63b8ff" stroke="#63b8ff" points="40.72,-55.34 41.97,-44.82 34.43,-52.26 40.72,-55.34"/>
</a>
</g>
<g id="a_edge3&#45;headlabel"><a xlink:href="dir_000001_000117.html" target="_top" xlink:title="10">
<text text-anchor="middle" x="42.36" y="-54.58" font-family="Helvetica,sans-Serif" font-size="10.00" fill="#63b8ff">10</text>
</a>
</g>
</g>
<!-- dir_4fef79e7177ba769987a8da36c892c5f -->
<g id="node8" class="node">
<title>dir_4fef79e7177ba769987a8da36c892c5f</title>
<g id="a_node8"><a xlink:href="dir_4fef79e7177ba769987a8da36c892c5f.html" target="_top" xlink:title="build">
<polygon fill="#edf0f7" stroke="red" points="330.12,-43.25 293.88,-43.25 293.88,-24 330.12,-24 330.12,-43.25"/>
<text text-anchor="middle" x="312" y="-29.75" font-family="Helvetica,sans-Serif" font-size="10.00">build</text>
</a>
</g>
</g>
<!-- dir_65cd0a6beb1707f32c23cd7936ccf072&#45;&gt;dir_4fef79e7177ba769987a8da36c892c5f -->
<g id="edge2" class="edge">
<title>dir_65cd0a6beb1707f32c23cd7936ccf072&#45;&gt;dir_4fef79e7177ba769987a8da36c892c5f</title>
<g id="a_edge2"><a xlink:href="dir_000001_000010.html" target="_top">
<path fill="none" stroke="#63b8ff" d="M132.99,-142.78C169.81,-140.96 236.08,-132.73 279,-98.5 293.03,-87.31 301.71,-68.55 306.62,-54.25"/>
<polygon fill="#63b8ff" stroke="#63b8ff" points="309.87,-55.58 309.46,-44.99 303.18,-53.53 309.87,-55.58"/>
</a>
</g>
<g id="a_edge2&#45;headlabel"><a xlink:href="dir_000001_000010.html" target="_top" xlink:title="1">
<text text-anchor="middle" x="311.98" y="-54.52" font-family="Helvetica,sans-Serif" font-size="10.00" fill="#63b8ff">1</text>
</a>
</g>
</g>
<!-- dir_961f7ef292a3987e3723514feaf3f181&#45;&gt;dir_459833b041acece43aa610615f5ca5a8 -->
<g id="edge7" class="edge">
<title>dir_961f7ef292a3987e3723514feaf3f181&#45;&gt;dir_459833b041acece43aa610615f5ca5a8</title>
<g id="a_edge7"><a xlink:href="dir_000019_000085.html" target="_top">
<path fill="none" stroke="#63b8ff" d="M68.77,-79.08C73,-71.73 81.05,-61.01 88.97,-51.94"/>
<polygon fill="#63b8ff" stroke="#63b8ff" points="91.44,-54.43 95.68,-44.72 86.31,-49.67 91.44,-54.43"/>
</a>
</g>
<g id="a_edge7&#45;headlabel"><a xlink:href="dir_000019_000085.html" target="_top" xlink:title="3">
<text text-anchor="middle" x="92.1" y="-54.01" font-family="Helvetica,sans-Serif" font-size="10.00" fill="#63b8ff">3</text>
</a>
</g>
</g>
<!-- dir_961f7ef292a3987e3723514feaf3f181&#45;&gt;dir_7093d9bec9e6df023c20339d9b6c0d59 -->
<g id="edge6" class="edge">
<title>dir_961f7ef292a3987e3723514feaf3f181&#45;&gt;dir_7093d9bec9e6df023c20339d9b6c0d59</title>
<g id="a_edge6"><a xlink:href="dir_000019_000117.html" target="_top">
<path fill="none" stroke="#63b8ff" d="M63.86,-79.08C61.46,-72.34 58.04,-62.77 55,-54.24"/>
<polygon fill="#63b8ff" stroke="#63b8ff" points="58.37,-53.28 51.71,-45.03 51.78,-55.63 58.37,-53.28"/>
</a>
</g>
<g id="a_edge6&#45;headlabel"><a xlink:href="dir_000019_000117.html" target="_top" xlink:title="9">
<text text-anchor="middle" x="61.74" y="-50.41" font-family="Helvetica,sans-Serif" font-size="10.00" fill="#63b8ff">9</text>
</a>
</g>
</g>
<!-- dir_961f7ef292a3987e3723514feaf3f181&#45;&gt;dir_4fef79e7177ba769987a8da36c892c5f -->
<g id="edge5" class="edge">
<title>dir_961f7ef292a3987e3723514feaf3f181&#45;&gt;dir_4fef79e7177ba769987a8da36c892c5f</title>
<g id="a_edge5"><a xlink:href="dir_000019_000010.html" target="_top">
<path fill="none" stroke="#63b8ff" d="M90.67,-83.57C130.42,-76.2 212.98,-60.31 282,-43.25 282.24,-43.19 282.47,-43.13 282.71,-43.07"/>
<polygon fill="#63b8ff" stroke="#63b8ff" points="283.44,-46.5 292.19,-40.53 281.63,-39.74 283.44,-46.5"/>
</a>
</g>
<g id="a_edge5&#45;headlabel"><a xlink:href="dir_000019_000010.html" target="_top" xlink:title="48">
<text text-anchor="middle" x="282.17" y="-45.91" font-family="Helvetica,sans-Serif" font-size="10.00" fill="#63b8ff">48</text>
</a>
</g>
</g>
<!-- dir_459833b041acece43aa610615f5ca5a8&#45;&gt;dir_961f7ef292a3987e3723514feaf3f181 -->
<g id="edge8" class="edge">
<title>dir_459833b041acece43aa610615f5ca5a8&#45;&gt;dir_961f7ef292a3987e3723514feaf3f181</title>
<g id="a_edge8"><a xlink:href="dir_000085_000019.html" target="_top">
<path fill="none" stroke="#63b8ff" d="M107.12,-43.61C102.83,-51.02 94.74,-61.75 86.82,-70.79"/>
<polygon fill="#63b8ff" stroke="#63b8ff" points="84.39,-68.27 80.13,-77.97 89.51,-73.04 84.39,-68.27"/>
</a>
</g>
<g id="a_edge8&#45;headlabel"><a xlink:href="dir_000085_000019.html" target="_top" xlink:title="12">
<text text-anchor="middle" x="83.73" y="-60.94" font-family="Helvetica,sans-Serif" font-size="10.00" fill="#63b8ff">12</text>
</a>
</g>
</g>
<!-- dir_8c19de2196b4b9037b2ef87455b6f2bd -->
<g id="node5" class="node">
<title>dir_8c19de2196b4b9037b2ef87455b6f2bd</title>
<g id="a_node5"><a xlink:href="dir_8c19de2196b4b9037b2ef87455b6f2bd.html" target="_top" xlink:title="Transforms">
<polygon fill="#a2b4d6" stroke="#404040" points="193.75,-98.5 128.25,-98.5 128.25,-79.25 193.75,-79.25 193.75,-98.5"/>
<text text-anchor="middle" x="161" y="-85" font-family="Helvetica,sans-Serif" font-size="10.00">Transforms</text>
</a>
</g>
</g>
<!-- dir_8c19de2196b4b9037b2ef87455b6f2bd&#45;&gt;dir_459833b041acece43aa610615f5ca5a8 -->
<g id="edge9" class="edge">
<title>dir_8c19de2196b4b9037b2ef87455b6f2bd&#45;&gt;dir_459833b041acece43aa610615f5ca5a8</title>
<g id="a_edge9"><a xlink:href="dir_000107_000085.html" target="_top">
<path fill="none" stroke="#63b8ff" d="M152.41,-79.08C145.16,-71.65 134.55,-60.79 125.63,-51.66"/>
<polygon fill="#63b8ff" stroke="#63b8ff" points="128.32,-49.4 118.83,-44.69 123.31,-54.29 128.32,-49.4"/>
</a>
</g>
<g id="a_edge9&#45;headlabel"><a xlink:href="dir_000107_000085.html" target="_top" xlink:title="1">
<text text-anchor="middle" x="131.81" y="-45.03" font-family="Helvetica,sans-Serif" font-size="10.00" fill="#63b8ff">1</text>
</a>
</g>
</g>
<!-- dir_8c19de2196b4b9037b2ef87455b6f2bd&#45;&gt;dir_4fef79e7177ba769987a8da36c892c5f -->
<g id="edge10" class="edge">
<title>dir_8c19de2196b4b9037b2ef87455b6f2bd&#45;&gt;dir_4fef79e7177ba769987a8da36c892c5f</title>
<g id="a_edge10"><a xlink:href="dir_000107_000010.html" target="_top">
<path fill="none" stroke="#63b8ff" d="M186.62,-78.84C213.24,-69.45 254.84,-54.78 282.74,-44.94"/>
<polygon fill="#63b8ff" stroke="#63b8ff" points="283.72,-48.31 291.99,-41.68 281.4,-41.71 283.72,-48.31"/>
</a>
</g>
<g id="a_edge10&#45;headlabel"><a xlink:href="dir_000107_000010.html" target="_top" xlink:title="1">
<text text-anchor="middle" x="282.71" y="-47.8" font-family="Helvetica,sans-Serif" font-size="10.00" fill="#63b8ff">1</text>
</a>
</g>
</g>
<!-- dir_006f948be47a2a3cfc802ecb2004dee0 -->
<g id="node7" class="node">
<title>dir_006f948be47a2a3cfc802ecb2004dee0</title>
<g id="a_node7"><a xlink:href="dir_006f948be47a2a3cfc802ecb2004dee0.html" target="_top" xlink:title="Validators">
<polygon fill="#a2b4d6" stroke="#404040" points="270.38,-98.5 211.62,-98.5 211.62,-79.25 270.38,-79.25 270.38,-98.5"/>
<text text-anchor="middle" x="241" y="-85" font-family="Helvetica,sans-Serif" font-size="10.00">Validators</text>
</a>
</g>
</g>
<!-- dir_006f948be47a2a3cfc802ecb2004dee0&#45;&gt;dir_459833b041acece43aa610615f5ca5a8 -->
<g id="edge11" class="edge">
<title>dir_006f948be47a2a3cfc802ecb2004dee0&#45;&gt;dir_459833b041acece43aa610615f5ca5a8</title>
<g id="a_edge11"><a xlink:href="dir_000122_000085.html" target="_top">
<path fill="none" stroke="#63b8ff" d="M218.61,-78.84C196.67,-69.99 163.08,-56.44 138.87,-46.68"/>
<polygon fill="#63b8ff" stroke="#63b8ff" points="140.47,-43.55 129.89,-43.05 137.85,-50.04 140.47,-43.55"/>
</a>
</g>
<g id="a_edge11&#45;headlabel"><a xlink:href="dir_000122_000085.html" target="_top" xlink:title="1">
<text text-anchor="middle" x="143.46" y="-37.82" font-family="Helvetica,sans-Serif" font-size="10.00" fill="#63b8ff">1</text>
</a>
</g>
</g>
<!-- dir_006f948be47a2a3cfc802ecb2004dee0&#45;&gt;dir_4fef79e7177ba769987a8da36c892c5f -->
<g id="edge12" class="edge">
<title>dir_006f948be47a2a3cfc802ecb2004dee0&#45;&gt;dir_4fef79e7177ba769987a8da36c892c5f</title>
<g id="a_edge12"><a xlink:href="dir_000122_000010.html" target="_top">
<path fill="none" stroke="#63b8ff" d="M253.04,-78.84C263.41,-71.07 278.6,-59.67 290.97,-50.4"/>
<polygon fill="#63b8ff" stroke="#63b8ff" points="293.02,-53.23 298.92,-44.43 288.82,-47.63 293.02,-53.23"/>
</a>
</g>
<g id="a_edge12&#45;headlabel"><a xlink:href="dir_000122_000010.html" target="_top" xlink:title="1">
<text text-anchor="middle" x="293.06" y="-52.88" font-family="Helvetica,sans-Serif" font-size="10.00" fill="#63b8ff">1</text>
</a>
</g>
</g>
</g>
</svg>
