<?xml version="1.0" encoding="UTF-8" standalone="no"?>
<!DOCTYPE svg PUBLIC "-//W3C//DTD SVG 1.1//EN"
 "http://www.w3.org/Graphics/SVG/1.1/DTD/svg11.dtd">
<!-- Generated by graphviz version 12.2.1 (20241206.2353)
 -->
<!-- Title: lib/Dialect Pages: 1 -->
<svg width="985pt" height="127pt"
 viewBox="0.00 0.00 985.00 127.03" xmlns="http://www.w3.org/2000/svg" xmlns:xlink="http://www.w3.org/1999/xlink">
<g id="graph0" class="graph" transform="scale(1 1) rotate(0) translate(4 123.03)">
<title>lib/Dialect</title>
<g id="clust1" class="cluster">
<title>clusterdir_97aefd0d527b934f1d99a682da8fe6a9</title>
<g id="a_clust1"><a xlink:href="dir_97aefd0d527b934f1d99a682da8fe6a9.html" target="_top" xlink:title="lib">
<polygon fill="#edf0f7" stroke="#404040" stroke-dasharray="5,2" points="8,-40.53 8,-111.03 969,-111.03 969,-40.53 8,-40.53"/>
<text text-anchor="middle" x="488.5" y="-97.53" font-family="Helvetica,sans-Serif" font-size="10.00">lib</text>
</a>
</g>
</g>
<g id="clust2" class="cluster">
<title>clusterdir_1a25ec519b6c1121408b67cc33ce3f15</title>
<g id="a_clust2"><a xlink:href="dir_1a25ec519b6c1121408b67cc33ce3f15.html" target="_top">
<polygon fill="#edf0f7" stroke="#404040" stroke-width="2" points="16,-48.53 16,-83.78 961,-83.78 961,-48.53 16,-48.53"/>
</a>
</g>
</g>
<!-- dir_1a25ec519b6c1121408b67cc33ce3f15 -->
<g id="node1" class="node">
<title>dir_1a25ec519b6c1121408b67cc33ce3f15</title>
<text text-anchor="middle" x="112" y="-62.28" font-family="Helvetica,sans-Serif" font-size="10.00">Dialect</text>
</g>
<!-- dir_d44c64559bbebec7f509842c48db8b23 -->
<g id="node16" class="node">
<title>dir_d44c64559bbebec7f509842c48db8b23</title>
<g id="a_node16"><a xlink:href="dir_d44c64559bbebec7f509842c48db8b23.html" target="_top" xlink:title="include">
<polygon fill="#edf0f7" stroke="red" points="505.38,-20.53 458.62,-20.53 458.62,-1.28 505.38,-1.28 505.38,-20.53"/>
<text text-anchor="middle" x="482" y="-7.03" font-family="Helvetica,sans-Serif" font-size="10.00">include</text>
</a>
</g>
</g>
<!-- dir_1a25ec519b6c1121408b67cc33ce3f15&#45;&gt;dir_d44c64559bbebec7f509842c48db8b23 -->
<g id="edge1" class="edge">
<title>dir_1a25ec519b6c1121408b67cc33ce3f15&#45;&gt;dir_d44c64559bbebec7f509842c48db8b23</title>
<g id="a_edge1"><a xlink:href="dir_000020_000036.html" target="_top">
<path fill="none" stroke="#63b8ff" d="M120.12,-56.76C126.14,-51.11 134.85,-44.08 144,-40.53 198.59,-19.34 372.32,-13.8 447.16,-12.38"/>
<polygon fill="#63b8ff" stroke="#63b8ff" points="446.84,-15.89 456.77,-12.21 446.72,-8.89 446.84,-15.89"/>
</a>
</g>
<g id="a_edge1&#45;headlabel"><a xlink:href="dir_000020_000036.html" target="_top" xlink:title="158">
<text text-anchor="middle" x="444.81" y="-14.89" font-family="Helvetica,sans-Serif" font-size="10.00" fill="#63b8ff">158</text>
</a>
</g>
</g>
<!-- dir_bd2062b8c4ad1f43d1e921ef361eb9b3 -->
<g id="node2" class="node">
<title>dir_bd2062b8c4ad1f43d1e921ef361eb9b3</title>
<g id="a_node2"><a xlink:href="dir_bd2062b8c4ad1f43d1e921ef361eb9b3.html" target="_top" xlink:title="Array">
<polygon fill="#a2b4d6" stroke="#404040" points="952.62,-75.78 913.38,-75.78 913.38,-56.53 952.62,-56.53 952.62,-75.78"/>
<text text-anchor="middle" x="933" y="-62.28" font-family="Helvetica,sans-Serif" font-size="10.00">Array</text>
</a>
</g>
</g>
<!-- dir_bd2062b8c4ad1f43d1e921ef361eb9b3&#45;&gt;dir_d44c64559bbebec7f509842c48db8b23 -->
<g id="edge2" class="edge">
<title>dir_bd2062b8c4ad1f43d1e921ef361eb9b3&#45;&gt;dir_d44c64559bbebec7f509842c48db8b23</title>
<g id="a_edge2"><a xlink:href="dir_000005_000036.html" target="_top">
<path fill="none" stroke="#63b8ff" d="M925.36,-56.18C920.01,-50.59 912.35,-43.84 904,-40.53 824.38,-8.92 603.83,-32.52 519,-20.53 518.33,-20.43 517.65,-20.33 516.96,-20.23"/>
<polygon fill="#63b8ff" stroke="#63b8ff" points="517.73,-16.81 507.25,-18.38 516.43,-23.69 517.73,-16.81"/>
</a>
</g>
<g id="a_edge2&#45;headlabel"><a xlink:href="dir_000005_000036.html" target="_top" xlink:title="22">
<text text-anchor="middle" x="520.31" y="-10.53" font-family="Helvetica,sans-Serif" font-size="10.00" fill="#63b8ff">22</text>
</a>
</g>
</g>
<!-- dir_4fef79e7177ba769987a8da36c892c5f -->
<g id="node17" class="node">
<title>dir_4fef79e7177ba769987a8da36c892c5f</title>
<g id="a_node17"><a xlink:href="dir_4fef79e7177ba769987a8da36c892c5f.html" target="_top" xlink:title="build">
<polygon fill="#edf0f7" stroke="red" points="564.12,-20.53 527.88,-20.53 527.88,-1.28 564.12,-1.28 564.12,-20.53"/>
<text text-anchor="middle" x="546" y="-7.03" font-family="Helvetica,sans-Serif" font-size="10.00">build</text>
</a>
</g>
</g>
<!-- dir_bd2062b8c4ad1f43d1e921ef361eb9b3&#45;&gt;dir_4fef79e7177ba769987a8da36c892c5f -->
<g id="edge3" class="edge">
<title>dir_bd2062b8c4ad1f43d1e921ef361eb9b3&#45;&gt;dir_4fef79e7177ba769987a8da36c892c5f</title>
<g id="a_edge3"><a xlink:href="dir_000005_000010.html" target="_top">
<path fill="none" stroke="#63b8ff" d="M925.33,-56.26C919.97,-50.7 912.3,-43.96 904,-40.53 844.91,-16.11 650.74,-12.45 575.84,-11.95"/>
<polygon fill="#63b8ff" stroke="#63b8ff" points="576.01,-8.45 566,-11.9 575.98,-15.45 576.01,-8.45"/>
</a>
</g>
<g id="a_edge3&#45;headlabel"><a xlink:href="dir_000005_000010.html" target="_top" xlink:title="6">
<text text-anchor="middle" x="578.11" y="-1.75" font-family="Helvetica,sans-Serif" font-size="10.00" fill="#63b8ff">6</text>
</a>
</g>
</g>
<!-- dir_4dbf26eca751fbd2e4173c3c5908866b -->
<g id="node3" class="node">
<title>dir_4dbf26eca751fbd2e4173c3c5908866b</title>
<g id="a_node3"><a xlink:href="dir_4dbf26eca751fbd2e4173c3c5908866b.html" target="_top" xlink:title="Bool">
<polygon fill="#a2b4d6" stroke="#404040" points="188.75,-75.78 153.25,-75.78 153.25,-56.53 188.75,-56.53 188.75,-75.78"/>
<text text-anchor="middle" x="171" y="-62.28" font-family="Helvetica,sans-Serif" font-size="10.00">Bool</text>
</a>
</g>
</g>
<!-- dir_4dbf26eca751fbd2e4173c3c5908866b&#45;&gt;dir_d44c64559bbebec7f509842c48db8b23 -->
<g id="edge4" class="edge">
<title>dir_4dbf26eca751fbd2e4173c3c5908866b&#45;&gt;dir_d44c64559bbebec7f509842c48db8b23</title>
<g id="a_edge4"><a xlink:href="dir_000009_000036.html" target="_top">
<path fill="none" stroke="#63b8ff" d="M178.04,-56.31C182.99,-50.78 190.12,-44.05 198,-40.53 241.66,-21.03 380.89,-14.66 446.79,-12.71"/>
<polygon fill="#63b8ff" stroke="#63b8ff" points="446.79,-16.21 456.69,-12.44 446.59,-9.21 446.79,-16.21"/>
</a>
</g>
<g id="a_edge4&#45;headlabel"><a xlink:href="dir_000009_000036.html" target="_top" xlink:title="8">
<text text-anchor="middle" x="444.78" y="-15.23" font-family="Helvetica,sans-Serif" font-size="10.00" fill="#63b8ff">8</text>
</a>
</g>
</g>
<!-- dir_4dbf26eca751fbd2e4173c3c5908866b&#45;&gt;dir_4fef79e7177ba769987a8da36c892c5f -->
<g id="edge5" class="edge">
<title>dir_4dbf26eca751fbd2e4173c3c5908866b&#45;&gt;dir_4fef79e7177ba769987a8da36c892c5f</title>
<g id="a_edge5"><a xlink:href="dir_000009_000010.html" target="_top">
<path fill="none" stroke="#63b8ff" d="M178,-56.22C182.93,-50.64 190.06,-43.9 198,-40.53 262.77,-13.04 444.57,-31.96 514,-20.53 514.83,-20.39 515.67,-20.24 516.52,-20.08"/>
<polygon fill="#63b8ff" stroke="#63b8ff" points="517.09,-23.54 526.05,-17.9 515.52,-16.72 517.09,-23.54"/>
</a>
</g>
<g id="a_edge5&#45;headlabel"><a xlink:href="dir_000009_000010.html" target="_top" xlink:title="5">
<text text-anchor="middle" x="515.69" y="-22.9" font-family="Helvetica,sans-Serif" font-size="10.00" fill="#63b8ff">5</text>
</a>
</g>
</g>
<!-- dir_0505d867013fed46ab4974dca6496acd -->
<g id="node4" class="node">
<title>dir_0505d867013fed46ab4974dca6496acd</title>
<g id="a_node4"><a xlink:href="dir_0505d867013fed46ab4974dca6496acd.html" target="_top" xlink:title="Cast">
<polygon fill="#a2b4d6" stroke="#404040" points="243.5,-75.78 206.5,-75.78 206.5,-56.53 243.5,-56.53 243.5,-75.78"/>
<text text-anchor="middle" x="225" y="-62.28" font-family="Helvetica,sans-Serif" font-size="10.00">Cast</text>
</a>
</g>
</g>
<!-- dir_0505d867013fed46ab4974dca6496acd&#45;&gt;dir_d44c64559bbebec7f509842c48db8b23 -->
<g id="edge6" class="edge">
<title>dir_0505d867013fed46ab4974dca6496acd&#45;&gt;dir_d44c64559bbebec7f509842c48db8b23</title>
<g id="a_edge6"><a xlink:href="dir_000013_000036.html" target="_top">
<path fill="none" stroke="#63b8ff" d="M232.4,-56.38C237.57,-50.87 244.97,-44.14 253,-40.53 286.87,-25.29 391.79,-17.11 447.08,-13.76"/>
<polygon fill="#63b8ff" stroke="#63b8ff" points="447.11,-17.26 456.89,-13.19 446.71,-10.27 447.11,-17.26"/>
</a>
</g>
<g id="a_edge6&#45;headlabel"><a xlink:href="dir_000013_000036.html" target="_top" xlink:title="6">
<text text-anchor="middle" x="445.2" y="-16.34" font-family="Helvetica,sans-Serif" font-size="10.00" fill="#63b8ff">6</text>
</a>
</g>
</g>
<!-- dir_0505d867013fed46ab4974dca6496acd&#45;&gt;dir_4fef79e7177ba769987a8da36c892c5f -->
<g id="edge7" class="edge">
<title>dir_0505d867013fed46ab4974dca6496acd&#45;&gt;dir_4fef79e7177ba769987a8da36c892c5f</title>
<g id="a_edge7"><a xlink:href="dir_000013_000010.html" target="_top">
<path fill="none" stroke="#63b8ff" d="M232.34,-56.25C237.49,-50.69 244.89,-43.95 253,-40.53 306.6,-17.94 456.67,-30.36 514,-20.53 514.83,-20.39 515.67,-20.23 516.51,-20.07"/>
<polygon fill="#63b8ff" stroke="#63b8ff" points="517.09,-23.53 526.04,-17.86 515.51,-16.71 517.09,-23.53"/>
</a>
</g>
<g id="a_edge7&#45;headlabel"><a xlink:href="dir_000013_000010.html" target="_top" xlink:title="3">
<text text-anchor="middle" x="515.71" y="-22.89" font-family="Helvetica,sans-Serif" font-size="10.00" fill="#63b8ff">3</text>
</a>
</g>
</g>
<!-- dir_de74d209c7b6d8175fe41883c961ccd5 -->
<g id="node5" class="node">
<title>dir_de74d209c7b6d8175fe41883c961ccd5</title>
<g id="a_node5"><a xlink:href="dir_de74d209c7b6d8175fe41883c961ccd5.html" target="_top" xlink:title="Constrain">
<polygon fill="#a2b4d6" stroke="#404040" points="320,-75.78 262,-75.78 262,-56.53 320,-56.53 320,-75.78"/>
<text text-anchor="middle" x="291" y="-62.28" font-family="Helvetica,sans-Serif" font-size="10.00">Constrain</text>
</a>
</g>
</g>
<!-- dir_de74d209c7b6d8175fe41883c961ccd5&#45;&gt;dir_d44c64559bbebec7f509842c48db8b23 -->
<g id="edge8" class="edge">
<title>dir_de74d209c7b6d8175fe41883c961ccd5&#45;&gt;dir_d44c64559bbebec7f509842c48db8b23</title>
<g id="a_edge8"><a xlink:href="dir_000017_000036.html" target="_top">
<path fill="none" stroke="#63b8ff" d="M302.33,-56.13C309.56,-50.81 319.36,-44.38 329,-40.53 367.61,-25.11 415.07,-17.89 446.8,-14.58"/>
<polygon fill="#63b8ff" stroke="#63b8ff" points="447.01,-18.07 456.63,-13.63 446.34,-11.1 447.01,-18.07"/>
</a>
</g>
<g id="a_edge8&#45;headlabel"><a xlink:href="dir_000017_000036.html" target="_top" xlink:title="8">
<text text-anchor="middle" x="445.21" y="-17.22" font-family="Helvetica,sans-Serif" font-size="10.00" fill="#63b8ff">8</text>
</a>
</g>
</g>
<!-- dir_de74d209c7b6d8175fe41883c961ccd5&#45;&gt;dir_4fef79e7177ba769987a8da36c892c5f -->
<g id="edge9" class="edge">
<title>dir_de74d209c7b6d8175fe41883c961ccd5&#45;&gt;dir_4fef79e7177ba769987a8da36c892c5f</title>
<g id="a_edge9"><a xlink:href="dir_000017_000010.html" target="_top">
<path fill="none" stroke="#63b8ff" d="M301.9,-56.11C309.13,-50.64 319.07,-44.06 329,-40.53 406.93,-12.85 432.72,-35.78 514,-20.53 514.83,-20.37 515.66,-20.21 516.51,-20.03"/>
<polygon fill="#63b8ff" stroke="#63b8ff" points="517.11,-23.49 526.03,-17.77 515.49,-16.68 517.11,-23.49"/>
</a>
</g>
<g id="a_edge9&#45;headlabel"><a xlink:href="dir_000017_000010.html" target="_top" xlink:title="3">
<text text-anchor="middle" x="515.74" y="-22.86" font-family="Helvetica,sans-Serif" font-size="10.00" fill="#63b8ff">3</text>
</a>
</g>
</g>
<!-- dir_fbb5839660df89f0c7872b7fe52b5d6c -->
<g id="node6" class="node">
<title>dir_fbb5839660df89f0c7872b7fe52b5d6c</title>
<g id="a_node6"><a xlink:href="dir_fbb5839660df89f0c7872b7fe52b5d6c.html" target="_top" xlink:title="Felt">
<polygon fill="#a2b4d6" stroke="#404040" points="370.25,-75.78 337.75,-75.78 337.75,-56.53 370.25,-56.53 370.25,-75.78"/>
<text text-anchor="middle" x="354" y="-62.28" font-family="Helvetica,sans-Serif" font-size="10.00">Felt</text>
</a>
</g>
</g>
<!-- dir_fbb5839660df89f0c7872b7fe52b5d6c&#45;&gt;dir_d44c64559bbebec7f509842c48db8b23 -->
<g id="edge10" class="edge">
<title>dir_fbb5839660df89f0c7872b7fe52b5d6c&#45;&gt;dir_d44c64559bbebec7f509842c48db8b23</title>
<g id="a_edge10"><a xlink:href="dir_000025_000036.html" target="_top">
<path fill="none" stroke="#63b8ff" d="M361.01,-56.25C365.61,-50.98 372.04,-44.56 379,-40.53 399.91,-28.43 426.19,-21.24 446.97,-17.08"/>
<polygon fill="#63b8ff" stroke="#63b8ff" points="447.49,-20.55 456.69,-15.3 446.23,-13.66 447.49,-20.55"/>
</a>
</g>
<g id="a_edge10&#45;headlabel"><a xlink:href="dir_000025_000036.html" target="_top" xlink:title="11">
<text text-anchor="middle" x="445.95" y="-19.84" font-family="Helvetica,sans-Serif" font-size="10.00" fill="#63b8ff">11</text>
</a>
</g>
</g>
<!-- dir_fbb5839660df89f0c7872b7fe52b5d6c&#45;&gt;dir_4fef79e7177ba769987a8da36c892c5f -->
<g id="edge11" class="edge">
<title>dir_fbb5839660df89f0c7872b7fe52b5d6c&#45;&gt;dir_4fef79e7177ba769987a8da36c892c5f</title>
<g id="a_edge11"><a xlink:href="dir_000025_000010.html" target="_top">
<path fill="none" stroke="#63b8ff" d="M360.44,-56.43C364.99,-50.94 371.58,-44.23 379,-40.53 433.28,-13.47 454.62,-32.89 514,-20.53 514.82,-20.36 515.66,-20.18 516.5,-19.99"/>
<polygon fill="#63b8ff" stroke="#63b8ff" points="517.13,-23.44 526,-17.65 515.46,-16.64 517.13,-23.44"/>
</a>
</g>
<g id="a_edge11&#45;headlabel"><a xlink:href="dir_000025_000010.html" target="_top" xlink:title="5">
<text text-anchor="middle" x="515.79" y="-22.82" font-family="Helvetica,sans-Serif" font-size="10.00" fill="#63b8ff">5</text>
</a>
</g>
</g>
<!-- dir_4a8940de4e1d9e046cff05088174c6f2 -->
<g id="node7" class="node">
<title>dir_4a8940de4e1d9e046cff05088174c6f2</title>
<g id="a_node7"><a xlink:href="dir_4a8940de4e1d9e046cff05088174c6f2.html" target="_top" xlink:title="Function">
<polygon fill="#a2b4d6" stroke="#404040" points="441.75,-75.78 388.25,-75.78 388.25,-56.53 441.75,-56.53 441.75,-75.78"/>
<text text-anchor="middle" x="415" y="-62.28" font-family="Helvetica,sans-Serif" font-size="10.00">Function</text>
</a>
</g>
</g>
<!-- dir_4a8940de4e1d9e046cff05088174c6f2&#45;&gt;dir_d44c64559bbebec7f509842c48db8b23 -->
<g id="edge12" class="edge">
<title>dir_4a8940de4e1d9e046cff05088174c6f2&#45;&gt;dir_d44c64559bbebec7f509842c48db8b23</title>
<g id="a_edge12"><a xlink:href="dir_000028_000036.html" target="_top">
<path fill="none" stroke="#63b8ff" d="M426.37,-56.12C436.05,-48.43 450.2,-37.18 461.81,-27.95"/>
<polygon fill="#63b8ff" stroke="#63b8ff" points="463.97,-30.71 469.62,-21.75 459.61,-25.23 463.97,-30.71"/>
</a>
</g>
<g id="a_edge12&#45;headlabel"><a xlink:href="dir_000028_000036.html" target="_top" xlink:title="13">
<text text-anchor="middle" x="464.1" y="-30.35" font-family="Helvetica,sans-Serif" font-size="10.00" fill="#63b8ff">13</text>
</a>
</g>
</g>
<!-- dir_4a8940de4e1d9e046cff05088174c6f2&#45;&gt;dir_4fef79e7177ba769987a8da36c892c5f -->
<g id="edge13" class="edge">
<title>dir_4a8940de4e1d9e046cff05088174c6f2&#45;&gt;dir_4fef79e7177ba769987a8da36c892c5f</title>
<g id="a_edge13"><a xlink:href="dir_000028_000010.html" target="_top">
<path fill="none" stroke="#63b8ff" d="M426.12,-56.22C432.98,-51.06 442.12,-44.78 451,-40.53 457.06,-37.63 491.05,-27.62 516.66,-20.26"/>
<polygon fill="#63b8ff" stroke="#63b8ff" points="517.6,-23.63 526.25,-17.51 515.67,-16.9 517.6,-23.63"/>
</a>
</g>
<g id="a_edge13&#45;headlabel"><a xlink:href="dir_000028_000010.html" target="_top" xlink:title="4">
<text text-anchor="middle" x="516.38" y="-23.05" font-family="Helvetica,sans-Serif" font-size="10.00" fill="#63b8ff">4</text>
</a>
</g>
</g>
<!-- dir_fb315d91a34cbf3080d3279b2d582048 -->
<g id="node8" class="node">
<title>dir_fb315d91a34cbf3080d3279b2d582048</title>
<g id="a_node8"><a xlink:href="dir_fb315d91a34cbf3080d3279b2d582048.html" target="_top" xlink:title="Global">
<polygon fill="#a2b4d6" stroke="#404040" points="503.88,-75.78 460.12,-75.78 460.12,-56.53 503.88,-56.53 503.88,-75.78"/>
<text text-anchor="middle" x="482" y="-62.28" font-family="Helvetica,sans-Serif" font-size="10.00">Global</text>
</a>
</g>
</g>
<!-- dir_fb315d91a34cbf3080d3279b2d582048&#45;&gt;dir_d44c64559bbebec7f509842c48db8b23 -->
<g id="edge14" class="edge">
<title>dir_fb315d91a34cbf3080d3279b2d582048&#45;&gt;dir_d44c64559bbebec7f509842c48db8b23</title>
<g id="a_edge14"><a xlink:href="dir_000031_000036.html" target="_top">
<path fill="none" stroke="#63b8ff" d="M482,-56.36C482,-49.85 482,-40.7 482,-32.4"/>
<polygon fill="#63b8ff" stroke="#63b8ff" points="485.5,-32.4 482,-22.4 478.5,-32.4 485.5,-32.4"/>
</a>
</g>
<g id="a_edge14&#45;headlabel"><a xlink:href="dir_000031_000036.html" target="_top" xlink:title="10">
<text text-anchor="middle" x="488.34" y="-30.61" font-family="Helvetica,sans-Serif" font-size="10.00" fill="#63b8ff">10</text>
</a>
</g>
</g>
<!-- dir_fb315d91a34cbf3080d3279b2d582048&#45;&gt;dir_4fef79e7177ba769987a8da36c892c5f -->
<g id="edge15" class="edge">
<title>dir_fb315d91a34cbf3080d3279b2d582048&#45;&gt;dir_4fef79e7177ba769987a8da36c892c5f</title>
<g id="a_edge15"><a xlink:href="dir_000031_000010.html" target="_top">
<path fill="none" stroke="#63b8ff" d="M492.86,-56.12C502.11,-48.43 515.62,-37.18 526.71,-27.95"/>
<polygon fill="#63b8ff" stroke="#63b8ff" points="528.69,-30.86 534.14,-21.77 524.21,-25.48 528.69,-30.86"/>
</a>
</g>
<g id="a_edge15&#45;headlabel"><a xlink:href="dir_000031_000010.html" target="_top" xlink:title="4">
<text text-anchor="middle" x="528.91" y="-30.5" font-family="Helvetica,sans-Serif" font-size="10.00" fill="#63b8ff">4</text>
</a>
</g>
</g>
<!-- dir_3ce307b37744c07b966eaee77d2f4223 -->
<g id="node9" class="node">
<title>dir_3ce307b37744c07b966eaee77d2f4223</title>
<g id="a_node9"><a xlink:href="dir_3ce307b37744c07b966eaee77d2f4223.html" target="_top" xlink:title="Include">
<polygon fill="#a2b4d6" stroke="#404040" points="569.75,-75.78 522.25,-75.78 522.25,-56.53 569.75,-56.53 569.75,-75.78"/>
<text text-anchor="middle" x="546" y="-62.28" font-family="Helvetica,sans-Serif" font-size="10.00">Include</text>
</a>
</g>
</g>
<!-- dir_3ce307b37744c07b966eaee77d2f4223&#45;&gt;dir_d44c64559bbebec7f509842c48db8b23 -->
<g id="edge16" class="edge">
<title>dir_3ce307b37744c07b966eaee77d2f4223&#45;&gt;dir_d44c64559bbebec7f509842c48db8b23</title>
<g id="a_edge16"><a xlink:href="dir_000034_000036.html" target="_top">
<path fill="none" stroke="#63b8ff" d="M535.14,-56.12C525.89,-48.43 512.38,-37.18 501.29,-27.95"/>
<polygon fill="#63b8ff" stroke="#63b8ff" points="503.79,-25.48 493.86,-21.77 499.31,-30.86 503.79,-25.48"/>
</a>
</g>
<g id="a_edge16&#45;headlabel"><a xlink:href="dir_000034_000036.html" target="_top" xlink:title="12">
<text text-anchor="middle" x="507.2" y="-20.75" font-family="Helvetica,sans-Serif" font-size="10.00" fill="#63b8ff">12</text>
</a>
</g>
</g>
<!-- dir_3ce307b37744c07b966eaee77d2f4223&#45;&gt;dir_4fef79e7177ba769987a8da36c892c5f -->
<g id="edge17" class="edge">
<title>dir_3ce307b37744c07b966eaee77d2f4223&#45;&gt;dir_4fef79e7177ba769987a8da36c892c5f</title>
<g id="a_edge17"><a xlink:href="dir_000034_000010.html" target="_top">
<path fill="none" stroke="#63b8ff" d="M546,-56.36C546,-49.85 546,-40.7 546,-32.4"/>
<polygon fill="#63b8ff" stroke="#63b8ff" points="549.5,-32.4 546,-22.4 542.5,-32.4 549.5,-32.4"/>
</a>
</g>
<g id="a_edge17&#45;headlabel"><a xlink:href="dir_000034_000010.html" target="_top" xlink:title="4">
<text text-anchor="middle" x="552.34" y="-30.61" font-family="Helvetica,sans-Serif" font-size="10.00" fill="#63b8ff">4</text>
</a>
</g>
</g>
<!-- dir_4d10f4490b960d2e71e500e5b338ad63 -->
<g id="node10" class="node">
<title>dir_4d10f4490b960d2e71e500e5b338ad63</title>
<g id="a_node10"><a xlink:href="dir_4d10f4490b960d2e71e500e5b338ad63.html" target="_top" xlink:title="LLZK">
<polygon fill="#a2b4d6" stroke="#404040" points="626.62,-75.78 587.38,-75.78 587.38,-56.53 626.62,-56.53 626.62,-75.78"/>
<text text-anchor="middle" x="607" y="-62.28" font-family="Helvetica,sans-Serif" font-size="10.00">LLZK</text>
</a>
</g>
</g>
<!-- dir_4d10f4490b960d2e71e500e5b338ad63&#45;&gt;dir_d44c64559bbebec7f509842c48db8b23 -->
<g id="edge19" class="edge">
<title>dir_4d10f4490b960d2e71e500e5b338ad63&#45;&gt;dir_d44c64559bbebec7f509842c48db8b23</title>
<g id="a_edge19"><a xlink:href="dir_000080_000036.html" target="_top">
<path fill="none" stroke="#63b8ff" d="M598.92,-56.32C593.69,-51.08 586.48,-44.66 579,-40.53 568.17,-34.55 539.86,-26.48 516.61,-20.43"/>
<polygon fill="#63b8ff" stroke="#63b8ff" points="517.72,-17.1 507.16,-18.02 515.98,-23.89 517.72,-17.1"/>
</a>
</g>
<g id="a_edge19&#45;headlabel"><a xlink:href="dir_000080_000036.html" target="_top" xlink:title="9">
<text text-anchor="middle" x="520.44" y="-10.99" font-family="Helvetica,sans-Serif" font-size="10.00" fill="#63b8ff">9</text>
</a>
</g>
</g>
<!-- dir_4d10f4490b960d2e71e500e5b338ad63&#45;&gt;dir_4fef79e7177ba769987a8da36c892c5f -->
<g id="edge18" class="edge">
<title>dir_4d10f4490b960d2e71e500e5b338ad63&#45;&gt;dir_4fef79e7177ba769987a8da36c892c5f</title>
<g id="a_edge18"><a xlink:href="dir_000080_000010.html" target="_top">
<path fill="none" stroke="#63b8ff" d="M596.91,-56.25C591.59,-51.56 584.95,-45.72 579,-40.53 574.41,-36.52 569.44,-32.2 564.79,-28.17"/>
<polygon fill="#63b8ff" stroke="#63b8ff" points="567.41,-25.81 557.56,-21.9 562.83,-31.1 567.41,-25.81"/>
</a>
</g>
<g id="a_edge18&#45;headlabel"><a xlink:href="dir_000080_000010.html" target="_top" xlink:title="4">
<text text-anchor="middle" x="570.84" y="-21.15" font-family="Helvetica,sans-Serif" font-size="10.00" fill="#63b8ff">4</text>
</a>
</g>
</g>
<!-- dir_85c338a369c289f6d40b1416a55396c6 -->
<g id="node11" class="node">
<title>dir_85c338a369c289f6d40b1416a55396c6</title>
<g id="a_node11"><a xlink:href="dir_85c338a369c289f6d40b1416a55396c6.html" target="_top" xlink:title="Polymorphic">
<polygon fill="#a2b4d6" stroke="#404040" points="715,-75.78 645,-75.78 645,-56.53 715,-56.53 715,-75.78"/>
<text text-anchor="middle" x="680" y="-62.28" font-family="Helvetica,sans-Serif" font-size="10.00">Polymorphic</text>
</a>
</g>
</g>
<!-- dir_85c338a369c289f6d40b1416a55396c6&#45;&gt;dir_d44c64559bbebec7f509842c48db8b23 -->
<g id="edge21" class="edge">
<title>dir_85c338a369c289f6d40b1416a55396c6&#45;&gt;dir_d44c64559bbebec7f509842c48db8b23</title>
<g id="a_edge21"><a xlink:href="dir_000088_000036.html" target="_top">
<path fill="none" stroke="#63b8ff" d="M666.7,-56.13C658.25,-50.81 646.89,-44.38 636,-40.53 586.26,-22.95 570.71,-30.97 519,-20.53 518.33,-20.39 517.66,-20.26 516.98,-20.12"/>
<polygon fill="#63b8ff" stroke="#63b8ff" points="517.83,-16.72 507.32,-18.01 516.34,-23.56 517.83,-16.72"/>
</a>
</g>
<g id="a_edge21&#45;headlabel"><a xlink:href="dir_000088_000036.html" target="_top" xlink:title="19">
<text text-anchor="middle" x="520.47" y="-10.52" font-family="Helvetica,sans-Serif" font-size="10.00" fill="#63b8ff">19</text>
</a>
</g>
</g>
<!-- dir_85c338a369c289f6d40b1416a55396c6&#45;&gt;dir_4fef79e7177ba769987a8da36c892c5f -->
<g id="edge20" class="edge">
<title>dir_85c338a369c289f6d40b1416a55396c6&#45;&gt;dir_4fef79e7177ba769987a8da36c892c5f</title>
<g id="a_edge20"><a xlink:href="dir_000088_000010.html" target="_top">
<path fill="none" stroke="#63b8ff" d="M665.71,-56.18C657.28,-51.14 646.28,-44.99 636,-40.53 616.26,-31.97 593.1,-24.66 575.22,-19.57"/>
<polygon fill="#63b8ff" stroke="#63b8ff" points="576.35,-16.26 565.78,-16.96 574.49,-23 576.35,-16.26"/>
</a>
</g>
<g id="a_edge20&#45;headlabel"><a xlink:href="dir_000088_000010.html" target="_top" xlink:title="5">
<text text-anchor="middle" x="579.11" y="-10.2" font-family="Helvetica,sans-Serif" font-size="10.00" fill="#63b8ff">5</text>
</a>
</g>
</g>
<!-- dir_f16d4d7e899fbab47b4b7b1d6d737e7f -->
<g id="node12" class="node">
<title>dir_f16d4d7e899fbab47b4b7b1d6d737e7f</title>
<g id="a_node12"><a xlink:href="dir_f16d4d7e899fbab47b4b7b1d6d737e7f.html" target="_top" xlink:title="Shared">
<polygon fill="#a2b4d6" stroke="#404040" points="70.38,-75.78 23.62,-75.78 23.62,-56.53 70.38,-56.53 70.38,-75.78"/>
<text text-anchor="middle" x="47" y="-62.28" font-family="Helvetica,sans-Serif" font-size="10.00">Shared</text>
</a>
</g>
</g>
<!-- dir_f16d4d7e899fbab47b4b7b1d6d737e7f&#45;&gt;dir_d44c64559bbebec7f509842c48db8b23 -->
<g id="edge22" class="edge">
<title>dir_f16d4d7e899fbab47b4b7b1d6d737e7f&#45;&gt;dir_d44c64559bbebec7f509842c48db8b23</title>
<g id="a_edge22"><a xlink:href="dir_000091_000036.html" target="_top">
<path fill="none" stroke="#63b8ff" d="M55.95,-56.23C62.14,-50.66 70.89,-43.92 80,-40.53 146.79,-15.69 361.82,-12.26 446.88,-11.89"/>
<polygon fill="#63b8ff" stroke="#63b8ff" points="446.73,-15.39 456.71,-11.86 446.7,-8.39 446.73,-15.39"/>
</a>
</g>
<g id="a_edge22&#45;headlabel"><a xlink:href="dir_000091_000036.html" target="_top" xlink:title="3">
<text text-anchor="middle" x="444.65" y="-14.36" font-family="Helvetica,sans-Serif" font-size="10.00" fill="#63b8ff">3</text>
</a>
</g>
</g>
<!-- dir_7cd65e7901416fd0d2f87c71ddc27dff -->
<g id="node13" class="node">
<title>dir_7cd65e7901416fd0d2f87c71ddc27dff</title>
<g id="a_node13"><a xlink:href="dir_7cd65e7901416fd0d2f87c71ddc27dff.html" target="_top" xlink:title="String">
<polygon fill="#a2b4d6" stroke="#404040" points="774.75,-75.78 733.25,-75.78 733.25,-56.53 774.75,-56.53 774.75,-75.78"/>
<text text-anchor="middle" x="754" y="-62.28" font-family="Helvetica,sans-Serif" font-size="10.00">String</text>
</a>
</g>
</g>
<!-- dir_7cd65e7901416fd0d2f87c71ddc27dff&#45;&gt;dir_d44c64559bbebec7f509842c48db8b23 -->
<g id="edge24" class="edge">
<title>dir_7cd65e7901416fd0d2f87c71ddc27dff&#45;&gt;dir_d44c64559bbebec7f509842c48db8b23</title>
<g id="a_edge24"><a xlink:href="dir_000094_000036.html" target="_top">
<path fill="none" stroke="#63b8ff" d="M745.99,-56.3C740.41,-50.76 732.47,-44.03 724,-40.53 639.41,-5.53 609.33,-35.4 519,-20.53 518.33,-20.42 517.65,-20.3 516.97,-20.18"/>
<polygon fill="#63b8ff" stroke="#63b8ff" points="517.77,-16.77 507.28,-18.24 516.39,-23.64 517.77,-16.77"/>
</a>
</g>
<g id="a_edge24&#45;headlabel"><a xlink:href="dir_000094_000036.html" target="_top" xlink:title="5">
<text text-anchor="middle" x="520.37" y="-10.53" font-family="Helvetica,sans-Serif" font-size="10.00" fill="#63b8ff">5</text>
</a>
</g>
</g>
<!-- dir_7cd65e7901416fd0d2f87c71ddc27dff&#45;&gt;dir_4fef79e7177ba769987a8da36c892c5f -->
<g id="edge23" class="edge">
<title>dir_7cd65e7901416fd0d2f87c71ddc27dff&#45;&gt;dir_4fef79e7177ba769987a8da36c892c5f</title>
<g id="a_edge23"><a xlink:href="dir_000094_000010.html" target="_top">
<path fill="none" stroke="#63b8ff" d="M745.66,-56.23C740.07,-50.81 732.23,-44.24 724,-40.53 675.29,-18.58 612.39,-13.17 575.89,-12.01"/>
<polygon fill="#63b8ff" stroke="#63b8ff" points="576.17,-8.51 566.09,-11.79 576.02,-15.51 576.17,-8.51"/>
</a>
</g>
<g id="a_edge23&#45;headlabel"><a xlink:href="dir_000094_000010.html" target="_top" xlink:title="4">
<text text-anchor="middle" x="578.31" y="-1.85" font-family="Helvetica,sans-Serif" font-size="10.00" fill="#63b8ff">4</text>
</a>
</g>
</g>
<!-- dir_f63655cd686fcee5469c99e34fd78084 -->
<g id="node14" class="node">
<title>dir_f63655cd686fcee5469c99e34fd78084</title>
<g id="a_node14"><a xlink:href="dir_f63655cd686fcee5469c99e34fd78084.html" target="_top" xlink:title="Struct">
<polygon fill="#a2b4d6" stroke="#404040" points="835.12,-75.78 792.88,-75.78 792.88,-56.53 835.12,-56.53 835.12,-75.78"/>
<text text-anchor="middle" x="814" y="-62.28" font-family="Helvetica,sans-Serif" font-size="10.00">Struct</text>
</a>
</g>
</g>
<!-- dir_f63655cd686fcee5469c99e34fd78084&#45;&gt;dir_d44c64559bbebec7f509842c48db8b23 -->
<g id="edge26" class="edge">
<title>dir_f63655cd686fcee5469c99e34fd78084&#45;&gt;dir_d44c64559bbebec7f509842c48db8b23</title>
<g id="a_edge26"><a xlink:href="dir_000097_000036.html" target="_top">
<path fill="none" stroke="#63b8ff" d="M806.01,-56.24C800.44,-50.68 792.51,-43.94 784,-40.53 729.19,-18.55 577.37,-29.48 519,-20.53 518.33,-20.43 517.65,-20.32 516.97,-20.2"/>
<polygon fill="#63b8ff" stroke="#63b8ff" points="517.75,-16.79 507.26,-18.31 516.41,-23.66 517.75,-16.79"/>
</a>
</g>
<g id="a_edge26&#45;headlabel"><a xlink:href="dir_000097_000036.html" target="_top" xlink:title="13">
<text text-anchor="middle" x="520.34" y="-10.53" font-family="Helvetica,sans-Serif" font-size="10.00" fill="#63b8ff">13</text>
</a>
</g>
</g>
<!-- dir_f63655cd686fcee5469c99e34fd78084&#45;&gt;dir_4fef79e7177ba769987a8da36c892c5f -->
<g id="edge25" class="edge">
<title>dir_f63655cd686fcee5469c99e34fd78084&#45;&gt;dir_4fef79e7177ba769987a8da36c892c5f</title>
<g id="a_edge25"><a xlink:href="dir_000097_000010.html" target="_top">
<path fill="none" stroke="#63b8ff" d="M805.96,-56.37C800.37,-50.85 792.43,-44.13 784,-40.53 747.17,-24.81 631.22,-16.55 575.91,-13.41"/>
<polygon fill="#63b8ff" stroke="#63b8ff" points="576.15,-9.92 565.98,-12.87 575.77,-16.91 576.15,-9.92"/>
</a>
</g>
<g id="a_edge25&#45;headlabel"><a xlink:href="dir_000097_000010.html" target="_top" xlink:title="5">
<text text-anchor="middle" x="578.39" y="-3.33" font-family="Helvetica,sans-Serif" font-size="10.00" fill="#63b8ff">5</text>
</a>
</g>
</g>
<!-- dir_ac2c4ad5f213fa08e8a743291295cba9 -->
<g id="node15" class="node">
<title>dir_ac2c4ad5f213fa08e8a743291295cba9</title>
<g id="a_node15"><a xlink:href="dir_ac2c4ad5f213fa08e8a743291295cba9.html" target="_top" xlink:title="Undef">
<polygon fill="#a2b4d6" stroke="#404040" points="895.12,-75.78 852.88,-75.78 852.88,-56.53 895.12,-56.53 895.12,-75.78"/>
<text text-anchor="middle" x="874" y="-62.28" font-family="Helvetica,sans-Serif" font-size="10.00">Undef</text>
</a>
</g>
</g>
<!-- dir_ac2c4ad5f213fa08e8a743291295cba9&#45;&gt;dir_d44c64559bbebec7f509842c48db8b23 -->
<g id="edge28" class="edge">
<title>dir_ac2c4ad5f213fa08e8a743291295cba9&#45;&gt;dir_d44c64559bbebec7f509842c48db8b23</title>
<g id="a_edge28"><a xlink:href="dir_000114_000036.html" target="_top">
<path fill="none" stroke="#63b8ff" d="M866.03,-56.2C860.46,-50.62 852.53,-43.88 844,-40.53 776.65,-14.07 590.6,-31 519,-20.53 518.33,-20.43 517.65,-20.33 516.97,-20.22"/>
<polygon fill="#63b8ff" stroke="#63b8ff" points="517.74,-16.8 507.26,-18.35 516.42,-23.68 517.74,-16.8"/>
</a>
</g>
<g id="a_edge28&#45;headlabel"><a xlink:href="dir_000114_000036.html" target="_top" xlink:title="5">
<text text-anchor="middle" x="520.32" y="-10.53" font-family="Helvetica,sans-Serif" font-size="10.00" fill="#63b8ff">5</text>
</a>
</g>
</g>
<!-- dir_ac2c4ad5f213fa08e8a743291295cba9&#45;&gt;dir_4fef79e7177ba769987a8da36c892c5f -->
<g id="edge27" class="edge">
<title>dir_ac2c4ad5f213fa08e8a743291295cba9&#45;&gt;dir_4fef79e7177ba769987a8da36c892c5f</title>
<g id="a_edge27"><a xlink:href="dir_000114_000010.html" target="_top">
<path fill="none" stroke="#63b8ff" d="M865.99,-56.3C860.41,-50.76 852.47,-44.03 844,-40.53 795.95,-20.69 641.02,-14.38 575.6,-12.57"/>
<polygon fill="#63b8ff" stroke="#63b8ff" points="576.07,-9.08 565.98,-12.32 575.89,-16.07 576.07,-9.08"/>
</a>
</g>
<g id="a_edge27&#45;headlabel"><a xlink:href="dir_000114_000010.html" target="_top" xlink:title="3">
<text text-anchor="middle" x="578.22" y="-2.42" font-family="Helvetica,sans-Serif" font-size="10.00" fill="#63b8ff">3</text>
</a>
</g>
</g>
</g>
</svg>
