<?xml version="1.0" encoding="UTF-8" standalone="no"?>
<!DOCTYPE svg PUBLIC "-//W3C//DTD SVG 1.1//EN"
 "http://www.w3.org/Graphics/SVG/1.1/DTD/svg11.dtd">
<!-- Generated by graphviz version 12.2.1 (20241206.2353)
 -->
<!-- Title: lib Pages: 1 -->
<svg width="486pt" height="99pt"
 viewBox="0.00 0.00 486.00 98.50" xmlns="http://www.w3.org/2000/svg" xmlns:xlink="http://www.w3.org/1999/xlink">
<g id="graph0" class="graph" transform="scale(1 1) rotate(0) translate(4 94.5)">
<title>lib</title>
<g id="clust1" class="cluster">
<title>clusterdir_97aefd0d527b934f1d99a682da8fe6a9</title>
<g id="a_clust1"><a xlink:href="dir_97aefd0d527b934f1d99a682da8fe6a9.html" target="_top">
<polygon fill="#edf0f7" stroke="#404040" stroke-width="2" points="8,-47.25 8,-82.5 470,-82.5 470,-47.25 8,-47.25"/>
</a>
</g>
</g>
<!-- dir_97aefd0d527b934f1d99a682da8fe6a9 -->
<g id="node1" class="node">
<title>dir_97aefd0d527b934f1d99a682da8fe6a9</title>
<text text-anchor="middle" x="30" y="-61" font-family="Helvetica,sans-Serif" font-size="10.00">lib</text>
</g>
<!-- dir_a25db018342d3ae6c7e6779086c18378 -->
<g id="node2" class="node">
<title>dir_a25db018342d3ae6c7e6779086c18378</title>
<g id="a_node2"><a xlink:href="dir_a25db018342d3ae6c7e6779086c18378.html" target="_top" xlink:title="Analysis">
<polygon fill="#a2b4d6" stroke="#404040" points="252.75,-74.5 199.25,-74.5 199.25,-55.25 252.75,-55.25 252.75,-74.5"/>
<text text-anchor="middle" x="226" y="-61" font-family="Helvetica,sans-Serif" font-size="10.00">Analysis</text>
</a>
</g>
</g>
<!-- dir_4fef79e7177ba769987a8da36c892c5f -->
<g id="node8" class="node">
<title>dir_4fef79e7177ba769987a8da36c892c5f</title>
<g id="a_node8"><a xlink:href="dir_4fef79e7177ba769987a8da36c892c5f.html" target="_top" xlink:title="build">
<polygon fill="#edf0f7" stroke="red" points="251.12,-19.25 214.88,-19.25 214.88,0 251.12,0 251.12,-19.25"/>
<text text-anchor="middle" x="233" y="-5.75" font-family="Helvetica,sans-Serif" font-size="10.00">build</text>
</a>
</g>
</g>
<!-- dir_a25db018342d3ae6c7e6779086c18378&#45;&gt;dir_4fef79e7177ba769987a8da36c892c5f -->
<g id="edge1" class="edge">
<title>dir_a25db018342d3ae6c7e6779086c18378&#45;&gt;dir_4fef79e7177ba769987a8da36c892c5f</title>
<g id="a_edge1"><a xlink:href="dir_000002_000010.html" target="_top">
<path fill="none" stroke="#63b8ff" d="M227.16,-55.08C228.02,-48.49 229.24,-39.21 230.34,-30.82"/>
<polygon fill="#63b8ff" stroke="#63b8ff" points="233.79,-31.48 231.62,-21.11 226.85,-30.57 233.79,-31.48"/>
</a>
</g>
<g id="a_edge1&#45;headlabel"><a xlink:href="dir_000002_000010.html" target="_top" xlink:title="3">
<text text-anchor="middle" x="236.33" y="-30.04" font-family="Helvetica,sans-Serif" font-size="10.00" fill="#63b8ff">3</text>
</a>
</g>
</g>
<!-- dir_d44c64559bbebec7f509842c48db8b23 -->
<g id="node9" class="node">
<title>dir_d44c64559bbebec7f509842c48db8b23</title>
<g id="a_node9"><a xlink:href="dir_d44c64559bbebec7f509842c48db8b23.html" target="_top" xlink:title="include">
<polygon fill="#edf0f7" stroke="red" points="323.38,-19.25 276.62,-19.25 276.62,0 323.38,0 323.38,-19.25"/>
<text text-anchor="middle" x="300" y="-5.75" font-family="Helvetica,sans-Serif" font-size="10.00">include</text>
</a>
</g>
</g>
<!-- dir_a25db018342d3ae6c7e6779086c18378&#45;&gt;dir_d44c64559bbebec7f509842c48db8b23 -->
<g id="edge2" class="edge">
<title>dir_a25db018342d3ae6c7e6779086c18378&#45;&gt;dir_d44c64559bbebec7f509842c48db8b23</title>
<g id="a_edge2"><a xlink:href="dir_000002_000036.html" target="_top">
<path fill="none" stroke="#63b8ff" d="M238.55,-54.84C249.46,-46.99 265.5,-35.45 278.46,-26.12"/>
<polygon fill="#63b8ff" stroke="#63b8ff" points="280.33,-29.09 286.4,-20.41 276.24,-23.41 280.33,-29.09"/>
</a>
</g>
<g id="a_edge2&#45;headlabel"><a xlink:href="dir_000002_000036.html" target="_top" xlink:title="46">
<text text-anchor="middle" x="280.3" y="-28.74" font-family="Helvetica,sans-Serif" font-size="10.00" fill="#63b8ff">46</text>
</a>
</g>
</g>
<!-- dir_9f56ffaf3d8f8de92886e7fdaecbdb83 -->
<g id="node3" class="node">
<title>dir_9f56ffaf3d8f8de92886e7fdaecbdb83</title>
<g id="a_node3"><a xlink:href="dir_9f56ffaf3d8f8de92886e7fdaecbdb83.html" target="_top" xlink:title="Bindings">
<polygon fill="#a2b4d6" stroke="#404040" points="180.75,-74.5 127.25,-74.5 127.25,-55.25 180.75,-55.25 180.75,-74.5"/>
<text text-anchor="middle" x="154" y="-61" font-family="Helvetica,sans-Serif" font-size="10.00">Bindings</text>
</a>
</g>
</g>
<!-- dir_1a25ec519b6c1121408b67cc33ce3f15 -->
<g id="node4" class="node">
<title>dir_1a25ec519b6c1121408b67cc33ce3f15</title>
<g id="a_node4"><a xlink:href="dir_1a25ec519b6c1121408b67cc33ce3f15.html" target="_top" xlink:title="Dialect">
<polygon fill="#a2b4d6" stroke="#404040" points="109.38,-74.5 62.62,-74.5 62.62,-55.25 109.38,-55.25 109.38,-74.5"/>
<text text-anchor="middle" x="86" y="-61" font-family="Helvetica,sans-Serif" font-size="10.00">Dialect</text>
</a>
</g>
</g>
<!-- dir_1a25ec519b6c1121408b67cc33ce3f15&#45;&gt;dir_4fef79e7177ba769987a8da36c892c5f -->
<g id="edge4" class="edge">
<title>dir_1a25ec519b6c1121408b67cc33ce3f15&#45;&gt;dir_4fef79e7177ba769987a8da36c892c5f</title>
<g id="a_edge4"><a xlink:href="dir_000020_000010.html" target="_top">
<path fill="none" stroke="#63b8ff" d="M102.02,-54.87C107.05,-52.23 112.68,-49.46 118,-47.25 146.47,-35.42 180.21,-25.09 203.75,-18.44"/>
<polygon fill="#63b8ff" stroke="#63b8ff" points="204.57,-21.85 213.27,-15.81 202.7,-15.1 204.57,-21.85"/>
</a>
</g>
<g id="a_edge4&#45;headlabel"><a xlink:href="dir_000020_000010.html" target="_top" xlink:title="55">
<text text-anchor="middle" x="203.32" y="-21.26" font-family="Helvetica,sans-Serif" font-size="10.00" fill="#63b8ff">55</text>
</a>
</g>
</g>
<!-- dir_1a25ec519b6c1121408b67cc33ce3f15&#45;&gt;dir_d44c64559bbebec7f509842c48db8b23 -->
<g id="edge3" class="edge">
<title>dir_1a25ec519b6c1121408b67cc33ce3f15&#45;&gt;dir_d44c64559bbebec7f509842c48db8b23</title>
<g id="a_edge3"><a xlink:href="dir_000020_000036.html" target="_top">
<path fill="none" stroke="#63b8ff" d="M101.23,-54.84C106.41,-52.07 112.33,-49.24 118,-47.25 178.71,-25.99 197,-32.25 260,-19.25 261.74,-18.89 263.51,-18.52 265.31,-18.15"/>
<polygon fill="#63b8ff" stroke="#63b8ff" points="265.79,-21.62 274.84,-16.12 264.34,-14.77 265.79,-21.62"/>
</a>
</g>
<g id="a_edge3&#45;headlabel"><a xlink:href="dir_000020_000036.html" target="_top" xlink:title="158">
<text text-anchor="middle" x="264.35" y="-20.96" font-family="Helvetica,sans-Serif" font-size="10.00" fill="#63b8ff">158</text>
</a>
</g>
</g>
<!-- dir_a72932e0778af28115095468f6286ff8 -->
<g id="node5" class="node">
<title>dir_a72932e0778af28115095468f6286ff8</title>
<g id="a_node5"><a xlink:href="dir_a72932e0778af28115095468f6286ff8.html" target="_top" xlink:title="Transforms">
<polygon fill="#a2b4d6" stroke="#404040" points="412.75,-74.5 347.25,-74.5 347.25,-55.25 412.75,-55.25 412.75,-74.5"/>
<text text-anchor="middle" x="380" y="-61" font-family="Helvetica,sans-Serif" font-size="10.00">Transforms</text>
</a>
</g>
</g>
<!-- dir_a72932e0778af28115095468f6286ff8&#45;&gt;dir_4fef79e7177ba769987a8da36c892c5f -->
<g id="edge5" class="edge">
<title>dir_a72932e0778af28115095468f6286ff8&#45;&gt;dir_4fef79e7177ba769987a8da36c892c5f</title>
<g id="a_edge5"><a xlink:href="dir_000111_000010.html" target="_top">
<path fill="none" stroke="#63b8ff" d="M357.83,-54.9C351.45,-52.37 344.47,-49.66 338,-47.25 312.5,-37.76 283.26,-27.62 262.13,-20.42"/>
<polygon fill="#63b8ff" stroke="#63b8ff" points="263.32,-17.13 252.73,-17.24 261.07,-23.76 263.32,-17.13"/>
</a>
</g>
<g id="a_edge5&#45;headlabel"><a xlink:href="dir_000111_000010.html" target="_top" xlink:title="3">
<text text-anchor="middle" x="266.2" y="-11.24" font-family="Helvetica,sans-Serif" font-size="10.00" fill="#63b8ff">3</text>
</a>
</g>
</g>
<!-- dir_a72932e0778af28115095468f6286ff8&#45;&gt;dir_d44c64559bbebec7f509842c48db8b23 -->
<g id="edge6" class="edge">
<title>dir_a72932e0778af28115095468f6286ff8&#45;&gt;dir_d44c64559bbebec7f509842c48db8b23</title>
<g id="a_edge6"><a xlink:href="dir_000111_000036.html" target="_top">
<path fill="none" stroke="#63b8ff" d="M366.43,-54.84C354.59,-46.96 337.16,-35.36 323.13,-26.02"/>
<polygon fill="#63b8ff" stroke="#63b8ff" points="325.16,-23.17 314.9,-20.54 321.28,-29 325.16,-23.17"/>
</a>
</g>
<g id="a_edge6&#45;headlabel"><a xlink:href="dir_000111_000036.html" target="_top" xlink:title="15">
<text text-anchor="middle" x="328.47" y="-18.08" font-family="Helvetica,sans-Serif" font-size="10.00" fill="#63b8ff">15</text>
</a>
</g>
</g>
<!-- dir_862d3276083eaac55caed79b9120bf29 -->
<g id="node6" class="node">
<title>dir_862d3276083eaac55caed79b9120bf29</title>
<g id="a_node6"><a xlink:href="dir_862d3276083eaac55caed79b9120bf29.html" target="_top" xlink:title="Util">
<polygon fill="#a2b4d6" stroke="#404040" points="461.5,-74.5 430.5,-74.5 430.5,-55.25 461.5,-55.25 461.5,-74.5"/>
<text text-anchor="middle" x="446" y="-61" font-family="Helvetica,sans-Serif" font-size="10.00">Util</text>
</a>
</g>
</g>
<!-- dir_862d3276083eaac55caed79b9120bf29&#45;&gt;dir_d44c64559bbebec7f509842c48db8b23 -->
<g id="edge7" class="edge">
<title>dir_862d3276083eaac55caed79b9120bf29&#45;&gt;dir_d44c64559bbebec7f509842c48db8b23</title>
<g id="a_edge7"><a xlink:href="dir_000120_000036.html" target="_top">
<path fill="none" stroke="#63b8ff" d="M434.73,-54.98C430.86,-52.23 426.38,-49.36 422,-47.25 393.96,-33.75 359.89,-24.03 334.88,-18"/>
<polygon fill="#63b8ff" stroke="#63b8ff" points="335.75,-14.61 325.22,-15.76 334.17,-21.43 335.75,-14.61"/>
</a>
</g>
<g id="a_edge7&#45;headlabel"><a xlink:href="dir_000120_000036.html" target="_top" xlink:title="19">
<text text-anchor="middle" x="338.42" y="-8.44" font-family="Helvetica,sans-Serif" font-size="10.00" fill="#63b8ff">19</text>
</a>
</g>
</g>
<!-- dir_1c45e0468e85d64cc0db703544d53718 -->
<g id="node7" class="node">
<title>dir_1c45e0468e85d64cc0db703544d53718</title>
<g id="a_node7"><a xlink:href="dir_1c45e0468e85d64cc0db703544d53718.html" target="_top" xlink:title="Validators">
<polygon fill="#a2b4d6" stroke="#404040" points="329.38,-74.5 270.62,-74.5 270.62,-55.25 329.38,-55.25 329.38,-74.5"/>
<text text-anchor="middle" x="300" y="-61" font-family="Helvetica,sans-Serif" font-size="10.00">Validators</text>
</a>
</g>
</g>
<!-- dir_1c45e0468e85d64cc0db703544d53718&#45;&gt;dir_4fef79e7177ba769987a8da36c892c5f -->
<g id="edge8" class="edge">
<title>dir_1c45e0468e85d64cc0db703544d53718&#45;&gt;dir_4fef79e7177ba769987a8da36c892c5f</title>
<g id="a_edge8"><a xlink:href="dir_000123_000010.html" target="_top">
<path fill="none" stroke="#63b8ff" d="M288.63,-54.84C278.95,-47.15 264.8,-35.9 253.19,-26.68"/>
<polygon fill="#63b8ff" stroke="#63b8ff" points="255.39,-23.95 245.38,-20.47 251.03,-29.43 255.39,-23.95"/>
</a>
</g>
<g id="a_edge8&#45;headlabel"><a xlink:href="dir_000123_000010.html" target="_top" xlink:title="1">
<text text-anchor="middle" x="258.78" y="-19.15" font-family="Helvetica,sans-Serif" font-size="10.00" fill="#63b8ff">1</text>
</a>
</g>
</g>
<!-- dir_1c45e0468e85d64cc0db703544d53718&#45;&gt;dir_d44c64559bbebec7f509842c48db8b23 -->
<g id="edge9" class="edge">
<title>dir_1c45e0468e85d64cc0db703544d53718&#45;&gt;dir_d44c64559bbebec7f509842c48db8b23</title>
<g id="a_edge9"><a xlink:href="dir_000123_000036.html" target="_top">
<path fill="none" stroke="#63b8ff" d="M300,-55.08C300,-48.57 300,-39.42 300,-31.12"/>
<polygon fill="#63b8ff" stroke="#63b8ff" points="303.5,-31.12 300,-21.12 296.5,-31.12 303.5,-31.12"/>
</a>
</g>
<g id="a_edge9&#45;headlabel"><a xlink:href="dir_000123_000036.html" target="_top" xlink:title="2">
<text text-anchor="middle" x="306.34" y="-29.33" font-family="Helvetica,sans-Serif" font-size="10.00" fill="#63b8ff">2</text>
</a>
</g>
</g>
</g>
</svg>
