<?xml version="1.0" encoding="UTF-8" standalone="no"?>
<!DOCTYPE svg PUBLIC "-//W3C//DTD SVG 1.1//EN"
 "http://www.w3.org/Graphics/SVG/1.1/DTD/svg11.dtd">
<!-- Generated by graphviz version 12.2.1 (20241206.2353)
 -->
<!-- Title: include/llzk/Dialect/Include Pages: 1 -->
<svg width="376pt" height="142pt"
 viewBox="0.00 0.00 376.12 141.75" xmlns="http://www.w3.org/2000/svg" xmlns:xlink="http://www.w3.org/1999/xlink">
<g id="graph0" class="graph" transform="scale(1 1) rotate(0) translate(4 137.75)">
<title>include/llzk/Dialect/Include</title>
<g id="clust1" class="cluster">
<title>clusterdir_961f7ef292a3987e3723514feaf3f181</title>
<g id="a_clust1"><a xlink:href="dir_961f7ef292a3987e3723514feaf3f181.html" target="_top" xlink:title="Dialect">
<polygon fill="#edf0f7" stroke="#7f7f7f" stroke-dasharray="5,2" points="8,-8 8,-125.75 268,-125.75 268,-8 8,-8"/>
<text text-anchor="middle" x="138" y="-112.25" font-family="Helvetica,sans-Serif" font-size="10.00">Dialect</text>
</a>
</g>
</g>
<g id="clust2" class="cluster">
<title>clusterdir_320ed45e53e1983f926a8351355dbd89</title>
<g id="a_clust2"><a xlink:href="dir_320ed45e53e1983f926a8351355dbd89.html" target="_top">
<polygon fill="#edf0f7" stroke="#404040" stroke-width="2" points="16,-63.25 16,-98.5 260,-98.5 260,-63.25 16,-63.25"/>
</a>
</g>
</g>
<!-- dir_c9ffcee501422a82310fdc6fcd6a1257 -->
<g id="node1" class="node">
<title>dir_c9ffcee501422a82310fdc6fcd6a1257</title>
<g id="a_node1"><a xlink:href="dir_c9ffcee501422a82310fdc6fcd6a1257.html" target="_top" xlink:title="Polymorphic">
<polygon fill="#a2b4d6" stroke="red" points="158,-35.25 88,-35.25 88,-16 158,-16 158,-35.25"/>
<text text-anchor="middle" x="123" y="-21.75" font-family="Helvetica,sans-Serif" font-size="10.00">Polymorphic</text>
</a>
</g>
</g>
<!-- dir_320ed45e53e1983f926a8351355dbd89 -->
<g id="node2" class="node">
<title>dir_320ed45e53e1983f926a8351355dbd89</title>
<text text-anchor="middle" x="48" y="-77" font-family="Helvetica,sans-Serif" font-size="10.00">Include</text>
</g>
<!-- dir_1270980e1d655487b8d28dd5790afd88 -->
<g id="node3" class="node">
<title>dir_1270980e1d655487b8d28dd5790afd88</title>
<g id="a_node3"><a xlink:href="dir_1270980e1d655487b8d28dd5790afd88.html" target="_top" xlink:title="IR">
<polygon fill="#a2b4d6" stroke="#404040" points="202.4,-90.5 173.6,-90.5 173.6,-71.25 202.4,-71.25 202.4,-90.5"/>
<text text-anchor="middle" x="188" y="-77" font-family="Helvetica,sans-Serif" font-size="10.00">IR</text>
</a>
</g>
</g>
<!-- dir_4fef79e7177ba769987a8da36c892c5f -->
<g id="node6" class="node">
<title>dir_4fef79e7177ba769987a8da36c892c5f</title>
<g id="a_node6"><a xlink:href="dir_4fef79e7177ba769987a8da36c892c5f.html" target="_top" xlink:title="build">
<polygon fill="#edf0f7" stroke="red" points="368.12,-35.25 331.88,-35.25 331.88,-16 368.12,-16 368.12,-35.25"/>
<text text-anchor="middle" x="350" y="-21.75" font-family="Helvetica,sans-Serif" font-size="10.00">build</text>
</a>
</g>
</g>
<!-- dir_1270980e1d655487b8d28dd5790afd88&#45;&gt;dir_4fef79e7177ba769987a8da36c892c5f -->
<g id="edge1" class="edge">
<title>dir_1270980e1d655487b8d28dd5790afd88&#45;&gt;dir_4fef79e7177ba769987a8da36c892c5f</title>
<g id="a_edge1"><a xlink:href="dir_000058_000010.html" target="_top">
<path fill="none" stroke="#63b8ff" d="M199.21,-70.87C203.09,-68.1 207.57,-65.26 212,-63.25 255.25,-43.6 271.85,-48.41 320.55,-35.71"/>
<polygon fill="#63b8ff" stroke="#63b8ff" points="321.28,-39.14 330,-33.12 319.43,-32.39 321.28,-39.14"/>
</a>
</g>
<g id="a_edge1&#45;headlabel"><a xlink:href="dir_000058_000010.html" target="_top" xlink:title="2">
<text text-anchor="middle" x="320.02" y="-38.55" font-family="Helvetica,sans-Serif" font-size="10.00" fill="#63b8ff">2</text>
</a>
</g>
</g>
<!-- dir_5aba0f86741750b83fd02547c059473b -->
<g id="node4" class="node">
<title>dir_5aba0f86741750b83fd02547c059473b</title>
<g id="a_node4"><a xlink:href="dir_5aba0f86741750b83fd02547c059473b.html" target="_top" xlink:title="Transforms">
<polygon fill="#a2b4d6" stroke="#404040" points="155.75,-90.5 90.25,-90.5 90.25,-71.25 155.75,-71.25 155.75,-90.5"/>
<text text-anchor="middle" x="123" y="-77" font-family="Helvetica,sans-Serif" font-size="10.00">Transforms</text>
</a>
</g>
</g>
<!-- dir_5aba0f86741750b83fd02547c059473b&#45;&gt;dir_c9ffcee501422a82310fdc6fcd6a1257 -->
<g id="edge4" class="edge">
<title>dir_5aba0f86741750b83fd02547c059473b&#45;&gt;dir_c9ffcee501422a82310fdc6fcd6a1257</title>
<g id="a_edge4"><a xlink:href="dir_000105_000087.html" target="_top">
<path fill="none" stroke="#63b8ff" d="M123,-71.08C123,-64.57 123,-55.42 123,-47.12"/>
<polygon fill="#63b8ff" stroke="#63b8ff" points="126.5,-47.12 123,-37.12 119.5,-47.12 126.5,-47.12"/>
</a>
</g>
<g id="a_edge4&#45;headlabel"><a xlink:href="dir_000105_000087.html" target="_top" xlink:title="1">
<text text-anchor="middle" x="129.34" y="-45.33" font-family="Helvetica,sans-Serif" font-size="10.00" fill="#63b8ff">1</text>
</a>
</g>
</g>
<!-- dir_5aba0f86741750b83fd02547c059473b&#45;&gt;dir_4fef79e7177ba769987a8da36c892c5f -->
<g id="edge3" class="edge">
<title>dir_5aba0f86741750b83fd02547c059473b&#45;&gt;dir_4fef79e7177ba769987a8da36c892c5f</title>
<g id="a_edge3"><a xlink:href="dir_000105_000010.html" target="_top">
<path fill="none" stroke="#63b8ff" d="M143.22,-70.92C150.04,-68.15 157.76,-65.3 165,-63.25 230.26,-44.75 251.68,-51.59 320.51,-35.55"/>
<polygon fill="#63b8ff" stroke="#63b8ff" points="321.13,-39 330.03,-33.25 319.49,-32.2 321.13,-39"/>
</a>
</g>
<g id="a_edge3&#45;headlabel"><a xlink:href="dir_000105_000010.html" target="_top" xlink:title="1">
<text text-anchor="middle" x="319.78" y="-38.38" font-family="Helvetica,sans-Serif" font-size="10.00" fill="#63b8ff">1</text>
</a>
</g>
</g>
<!-- dir_459833b041acece43aa610615f5ca5a8 -->
<g id="node7" class="node">
<title>dir_459833b041acece43aa610615f5ca5a8</title>
<g id="a_node7"><a xlink:href="dir_459833b041acece43aa610615f5ca5a8.html" target="_top" xlink:title="Pass">
<polygon fill="#edf0f7" stroke="#7f7f7f" points="314.25,-35.25 275.75,-35.25 275.75,-16 314.25,-16 314.25,-35.25"/>
<text text-anchor="middle" x="295" y="-21.75" font-family="Helvetica,sans-Serif" font-size="10.00">Pass</text>
</a>
</g>
</g>
<!-- dir_5aba0f86741750b83fd02547c059473b&#45;&gt;dir_459833b041acece43aa610615f5ca5a8 -->
<g id="edge2" class="edge">
<title>dir_5aba0f86741750b83fd02547c059473b&#45;&gt;dir_459833b041acece43aa610615f5ca5a8</title>
<g id="a_edge2"><a xlink:href="dir_000105_000085.html" target="_top">
<path fill="none" stroke="#63b8ff" d="M144.18,-70.91C150.79,-68.27 158.14,-65.5 165,-63.25 208.16,-49.12 222.91,-49.89 264.58,-37.46"/>
<polygon fill="#63b8ff" stroke="#63b8ff" points="265.5,-40.84 274.03,-34.55 263.44,-34.15 265.5,-40.84"/>
</a>
</g>
<g id="a_edge2&#45;headlabel"><a xlink:href="dir_000105_000085.html" target="_top" xlink:title="1">
<text text-anchor="middle" x="264.35" y="-40.29" font-family="Helvetica,sans-Serif" font-size="10.00" fill="#63b8ff">1</text>
</a>
</g>
</g>
<!-- dir_10c47a7c5d54e3cf864f5c9140990351 -->
<g id="node5" class="node">
<title>dir_10c47a7c5d54e3cf864f5c9140990351</title>
<g id="a_node5"><a xlink:href="dir_10c47a7c5d54e3cf864f5c9140990351.html" target="_top" xlink:title="Util">
<polygon fill="#a2b4d6" stroke="#404040" points="251.5,-90.5 220.5,-90.5 220.5,-71.25 251.5,-71.25 251.5,-90.5"/>
<text text-anchor="middle" x="236" y="-77" font-family="Helvetica,sans-Serif" font-size="10.00">Util</text>
</a>
</g>
</g>
</g>
</svg>
