<?xml version="1.0" encoding="UTF-8" standalone="no"?>
<!DOCTYPE svg PUBLIC "-//W3C//DTD SVG 1.1//EN"
 "http://www.w3.org/Graphics/SVG/1.1/DTD/svg11.dtd">
<!-- Generated by graphviz version 12.2.1 (20241206.2353)
 -->
<!-- Title: include/llzk/Dialect/Array Pages: 1 -->
<svg width="362pt" height="197pt"
 viewBox="0.00 0.00 362.12 197.00" xmlns="http://www.w3.org/2000/svg" xmlns:xlink="http://www.w3.org/1999/xlink">
<g id="graph0" class="graph" transform="scale(1 1) rotate(0) translate(4 193)">
<title>include/llzk/Dialect/Array</title>
<g id="clust1" class="cluster">
<title>clusterdir_961f7ef292a3987e3723514feaf3f181</title>
<g id="a_clust1"><a xlink:href="dir_961f7ef292a3987e3723514feaf3f181.html" target="_top" xlink:title="Dialect">
<polygon fill="#edf0f7" stroke="#7f7f7f" stroke-dasharray="5,2" points="8,-8 8,-181 260,-181 260,-8 8,-8"/>
<text text-anchor="middle" x="134" y="-167.5" font-family="Helvetica,sans-Serif" font-size="10.00">Dialect</text>
</a>
</g>
</g>
<g id="clust2" class="cluster">
<title>clusterdir_b57964f09af826cfffee4b0782785e82</title>
<g id="a_clust2"><a xlink:href="dir_b57964f09af826cfffee4b0782785e82.html" target="_top">
<polygon fill="#edf0f7" stroke="#404040" stroke-width="2" points="16,-63.25 16,-153.75 204,-153.75 204,-63.25 16,-63.25"/>
</a>
</g>
</g>
<!-- dir_b9e6121c35254505209e91f4816784f6 -->
<g id="node1" class="node">
<title>dir_b9e6121c35254505209e91f4816784f6</title>
<g id="a_node1"><a xlink:href="dir_b9e6121c35254505209e91f4816784f6.html" target="_top" xlink:title="Shared">
<polygon fill="#a2b4d6" stroke="#404040" points="203.38,-35.25 156.62,-35.25 156.62,-16 203.38,-16 203.38,-35.25"/>
<text text-anchor="middle" x="180" y="-21.75" font-family="Helvetica,sans-Serif" font-size="10.00">Shared</text>
</a>
</g>
</g>
<!-- dir_ab86c770cc1b90d5a9908a326f6abfa8 -->
<g id="node2" class="node">
<title>dir_ab86c770cc1b90d5a9908a326f6abfa8</title>
<g id="a_node2"><a xlink:href="dir_ab86c770cc1b90d5a9908a326f6abfa8.html" target="_top" xlink:title="LLZK">
<polygon fill="#a2b4d6" stroke="red" points="251.62,-90.5 212.38,-90.5 212.38,-71.25 251.62,-71.25 251.62,-90.5"/>
<text text-anchor="middle" x="232" y="-77" font-family="Helvetica,sans-Serif" font-size="10.00">LLZK</text>
</a>
</g>
</g>
<!-- dir_b57964f09af826cfffee4b0782785e82 -->
<g id="node3" class="node">
<title>dir_b57964f09af826cfffee4b0782785e82</title>
<text text-anchor="middle" x="44" y="-132.25" font-family="Helvetica,sans-Serif" font-size="10.00">Array</text>
</g>
<!-- dir_3d1ebd1b0eacfcfa371ae694602b6eea -->
<g id="node4" class="node">
<title>dir_3d1ebd1b0eacfcfa371ae694602b6eea</title>
<g id="a_node4"><a xlink:href="dir_3d1ebd1b0eacfcfa371ae694602b6eea.html" target="_top" xlink:title="IR">
<polygon fill="#a2b4d6" stroke="#404040" points="194.4,-90.5 165.6,-90.5 165.6,-71.25 194.4,-71.25 194.4,-90.5"/>
<text text-anchor="middle" x="180" y="-77" font-family="Helvetica,sans-Serif" font-size="10.00">IR</text>
</a>
</g>
</g>
<!-- dir_3d1ebd1b0eacfcfa371ae694602b6eea&#45;&gt;dir_b9e6121c35254505209e91f4816784f6 -->
<g id="edge3" class="edge">
<title>dir_3d1ebd1b0eacfcfa371ae694602b6eea&#45;&gt;dir_b9e6121c35254505209e91f4816784f6</title>
<g id="a_edge3"><a xlink:href="dir_000051_000090.html" target="_top">
<path fill="none" stroke="#63b8ff" d="M180,-71.08C180,-64.57 180,-55.42 180,-47.12"/>
<polygon fill="#63b8ff" stroke="#63b8ff" points="183.5,-47.12 180,-37.12 176.5,-47.12 183.5,-47.12"/>
</a>
</g>
<g id="a_edge3&#45;headlabel"><a xlink:href="dir_000051_000090.html" target="_top" xlink:title="1">
<text text-anchor="middle" x="186.34" y="-45.33" font-family="Helvetica,sans-Serif" font-size="10.00" fill="#63b8ff">1</text>
</a>
</g>
</g>
<!-- dir_4fef79e7177ba769987a8da36c892c5f -->
<g id="node7" class="node">
<title>dir_4fef79e7177ba769987a8da36c892c5f</title>
<g id="a_node7"><a xlink:href="dir_4fef79e7177ba769987a8da36c892c5f.html" target="_top" xlink:title="build">
<polygon fill="#edf0f7" stroke="red" points="354.12,-35.25 317.88,-35.25 317.88,-16 354.12,-16 354.12,-35.25"/>
<text text-anchor="middle" x="336" y="-21.75" font-family="Helvetica,sans-Serif" font-size="10.00">build</text>
</a>
</g>
</g>
<!-- dir_3d1ebd1b0eacfcfa371ae694602b6eea&#45;&gt;dir_4fef79e7177ba769987a8da36c892c5f -->
<g id="edge1" class="edge">
<title>dir_3d1ebd1b0eacfcfa371ae694602b6eea&#45;&gt;dir_4fef79e7177ba769987a8da36c892c5f</title>
<g id="a_edge1"><a xlink:href="dir_000051_000010.html" target="_top">
<path fill="none" stroke="#63b8ff" d="M188.1,-70.79C190.98,-68.02 194.41,-65.19 198,-63.25 239.77,-40.63 257.65,-48.02 306.53,-35.67"/>
<polygon fill="#63b8ff" stroke="#63b8ff" points="307.25,-39.1 315.99,-33.11 305.43,-32.34 307.25,-39.1"/>
</a>
</g>
<g id="a_edge1&#45;headlabel"><a xlink:href="dir_000051_000010.html" target="_top" xlink:title="5">
<text text-anchor="middle" x="305.99" y="-38.51" font-family="Helvetica,sans-Serif" font-size="10.00" fill="#63b8ff">5</text>
</a>
</g>
</g>
<!-- dir_7093d9bec9e6df023c20339d9b6c0d59 -->
<g id="node8" class="node">
<title>dir_7093d9bec9e6df023c20339d9b6c0d59</title>
<g id="a_node8"><a xlink:href="dir_7093d9bec9e6df023c20339d9b6c0d59.html" target="_top" xlink:title="Util">
<polygon fill="#edf0f7" stroke="#7f7f7f" points="299.5,-35.25 268.5,-35.25 268.5,-16 299.5,-16 299.5,-35.25"/>
<text text-anchor="middle" x="284" y="-21.75" font-family="Helvetica,sans-Serif" font-size="10.00">Util</text>
</a>
</g>
</g>
<!-- dir_3d1ebd1b0eacfcfa371ae694602b6eea&#45;&gt;dir_7093d9bec9e6df023c20339d9b6c0d59 -->
<g id="edge2" class="edge">
<title>dir_3d1ebd1b0eacfcfa371ae694602b6eea&#45;&gt;dir_7093d9bec9e6df023c20339d9b6c0d59</title>
<g id="a_edge2"><a xlink:href="dir_000051_000117.html" target="_top">
<path fill="none" stroke="#63b8ff" d="M188.65,-70.76C191.46,-68.12 194.71,-65.37 198,-63.25 221.73,-47.92 232.24,-47.61 257.72,-37.72"/>
<polygon fill="#63b8ff" stroke="#63b8ff" points="258.95,-41.01 266.88,-33.99 256.3,-34.52 258.95,-41.01"/>
</a>
</g>
<g id="a_edge2&#45;headlabel"><a xlink:href="dir_000051_000117.html" target="_top" xlink:title="2">
<text text-anchor="middle" x="258.09" y="-40.55" font-family="Helvetica,sans-Serif" font-size="10.00" fill="#63b8ff">2</text>
</a>
</g>
</g>
<!-- dir_58dbe0ab2bddf8311469efdbbe11a037 -->
<g id="node5" class="node">
<title>dir_58dbe0ab2bddf8311469efdbbe11a037</title>
<g id="a_node5"><a xlink:href="dir_58dbe0ab2bddf8311469efdbbe11a037.html" target="_top" xlink:title="Transforms">
<polygon fill="#a2b4d6" stroke="#404040" points="195.75,-145.75 130.25,-145.75 130.25,-126.5 195.75,-126.5 195.75,-145.75"/>
<text text-anchor="middle" x="163" y="-132.25" font-family="Helvetica,sans-Serif" font-size="10.00">Transforms</text>
</a>
</g>
</g>
<!-- dir_58dbe0ab2bddf8311469efdbbe11a037&#45;&gt;dir_4fef79e7177ba769987a8da36c892c5f -->
<g id="edge5" class="edge">
<title>dir_58dbe0ab2bddf8311469efdbbe11a037&#45;&gt;dir_4fef79e7177ba769987a8da36c892c5f</title>
<g id="a_edge5"><a xlink:href="dir_000104_000010.html" target="_top">
<path fill="none" stroke="#63b8ff" d="M189.44,-126.03C210.51,-118.18 240.29,-105.73 264,-90.5 275.31,-83.23 300.86,-59.86 318.27,-43.5"/>
<polygon fill="#63b8ff" stroke="#63b8ff" points="320.55,-46.16 325.42,-36.75 315.74,-41.07 320.55,-46.16"/>
</a>
</g>
<g id="a_edge5&#45;headlabel"><a xlink:href="dir_000104_000010.html" target="_top" xlink:title="1">
<text text-anchor="middle" x="320.99" y="-45.78" font-family="Helvetica,sans-Serif" font-size="10.00" fill="#63b8ff">1</text>
</a>
</g>
</g>
<!-- dir_459833b041acece43aa610615f5ca5a8 -->
<g id="node9" class="node">
<title>dir_459833b041acece43aa610615f5ca5a8</title>
<g id="a_node9"><a xlink:href="dir_459833b041acece43aa610615f5ca5a8.html" target="_top" xlink:title="Pass">
<polygon fill="#edf0f7" stroke="#7f7f7f" points="346.25,-90.5 307.75,-90.5 307.75,-71.25 346.25,-71.25 346.25,-90.5"/>
<text text-anchor="middle" x="327" y="-77" font-family="Helvetica,sans-Serif" font-size="10.00">Pass</text>
</a>
</g>
</g>
<!-- dir_58dbe0ab2bddf8311469efdbbe11a037&#45;&gt;dir_459833b041acece43aa610615f5ca5a8 -->
<g id="edge4" class="edge">
<title>dir_58dbe0ab2bddf8311469efdbbe11a037&#45;&gt;dir_459833b041acece43aa610615f5ca5a8</title>
<g id="a_edge4"><a xlink:href="dir_000104_000085.html" target="_top">
<path fill="none" stroke="#63b8ff" d="M190.82,-126.09C220.15,-116.57 266.23,-101.61 296.53,-91.77"/>
<polygon fill="#63b8ff" stroke="#63b8ff" points="297.43,-95.16 305.86,-88.74 295.27,-88.5 297.43,-95.16"/>
</a>
</g>
<g id="a_edge4&#45;headlabel"><a xlink:href="dir_000104_000085.html" target="_top" xlink:title="1">
<text text-anchor="middle" x="296.33" y="-94.62" font-family="Helvetica,sans-Serif" font-size="10.00" fill="#63b8ff">1</text>
</a>
</g>
</g>
<!-- dir_d8b7245be51b87a010bd3a4e7efe394a -->
<g id="node6" class="node">
<title>dir_d8b7245be51b87a010bd3a4e7efe394a</title>
<g id="a_node6"><a xlink:href="dir_d8b7245be51b87a010bd3a4e7efe394a.html" target="_top" xlink:title="Util">
<polygon fill="#a2b4d6" stroke="#404040" points="112.5,-145.75 81.5,-145.75 81.5,-126.5 112.5,-126.5 112.5,-145.75"/>
<text text-anchor="middle" x="97" y="-132.25" font-family="Helvetica,sans-Serif" font-size="10.00">Util</text>
</a>
</g>
</g>
<!-- dir_d8b7245be51b87a010bd3a4e7efe394a&#45;&gt;dir_ab86c770cc1b90d5a9908a326f6abfa8 -->
<g id="edge7" class="edge">
<title>dir_d8b7245be51b87a010bd3a4e7efe394a&#45;&gt;dir_ab86c770cc1b90d5a9908a326f6abfa8</title>
<g id="a_edge7"><a xlink:href="dir_000115_000079.html" target="_top">
<path fill="none" stroke="#63b8ff" d="M112.75,-128.91C134.39,-120.38 173.77,-104.84 201.33,-93.97"/>
<polygon fill="#63b8ff" stroke="#63b8ff" points="202.55,-97.25 210.57,-90.33 199.98,-90.74 202.55,-97.25"/>
</a>
</g>
<g id="a_edge7&#45;headlabel"><a xlink:href="dir_000115_000079.html" target="_top" xlink:title="1">
<text text-anchor="middle" x="201.65" y="-96.78" font-family="Helvetica,sans-Serif" font-size="10.00" fill="#63b8ff">1</text>
</a>
</g>
</g>
<!-- dir_d8b7245be51b87a010bd3a4e7efe394a&#45;&gt;dir_3d1ebd1b0eacfcfa371ae694602b6eea -->
<g id="edge6" class="edge">
<title>dir_d8b7245be51b87a010bd3a4e7efe394a&#45;&gt;dir_3d1ebd1b0eacfcfa371ae694602b6eea</title>
<g id="a_edge6"><a xlink:href="dir_000115_000051.html" target="_top">
<path fill="none" stroke="#63b8ff" d="M111.08,-126.09C123.48,-118.14 141.79,-106.39 156.43,-97"/>
<polygon fill="#63b8ff" stroke="#63b8ff" points="158.05,-100.12 164.58,-91.77 154.27,-94.22 158.05,-100.12"/>
</a>
</g>
<g id="a_edge6&#45;headlabel"><a xlink:href="dir_000115_000051.html" target="_top" xlink:title="1">
<text text-anchor="middle" x="157.83" y="-99.75" font-family="Helvetica,sans-Serif" font-size="10.00" fill="#63b8ff">1</text>
</a>
</g>
</g>
</g>
</svg>
