<?xml version="1.0" encoding="UTF-8" standalone="no"?>
<!DOCTYPE svg PUBLIC "-//W3C//DTD SVG 1.1//EN"
 "http://www.w3.org/Graphics/SVG/1.1/DTD/svg11.dtd">
<!-- Generated by graphviz version 12.2.1 (20241206.2353)
 -->
<!-- Title: Graphical Class Hierarchy Pages: 1 -->
<svg width="520pt" height="147pt"
 viewBox="0.00 0.00 520.25 147.12" xmlns="http://www.w3.org/2000/svg" xmlns:xlink="http://www.w3.org/1999/xlink">
<g id="graph0" class="graph" transform="scale(1 1) rotate(0) translate(4 143.12)">
<title>Graphical Class Hierarchy</title>
<!-- Node0 -->
<g id="Node000000" class="node">
<title>Node0</title>
<g id="a_Node000000"><a xlink:href="classllzk_1_1felt_1_1detail_1_1_sub_felt_op_generic_adaptor_base.html" target="_top" xlink:title=" ">
<polygon fill="white" stroke="#666666" points="158.5,-79.5 0,-79.5 0,-49 158.5,-49 158.5,-79.5"/>
<text text-anchor="start" x="8" y="-66" font-family="Helvetica,sans-Serif" font-size="10.00">llzk::felt::detail</text>
<text text-anchor="middle" x="79.25" y="-54.75" font-family="Helvetica,sans-Serif" font-size="10.00">::SubFeltOpGenericAdaptorBase</text>
</a>
</g>
</g>
<!-- Node1 -->
<g id="Node000001" class="node">
<title>Node1</title>
<g id="a_Node000001"><a xlink:href="classllzk_1_1felt_1_1_sub_felt_op_generic_adaptor.html" target="_top" xlink:title=" ">
<polygon fill="white" stroke="#666666" points="335.38,-139.12 198.62,-139.12 198.62,-97.38 335.38,-97.38 335.38,-139.12"/>
<text text-anchor="start" x="206.62" y="-125.62" font-family="Helvetica,sans-Serif" font-size="10.00">llzk::felt::SubFeltOpGeneric</text>
<text text-anchor="start" x="206.62" y="-114.38" font-family="Helvetica,sans-Serif" font-size="10.00">Adaptor&lt;::llvm::ArrayRef</text>
<text text-anchor="middle" x="267" y="-103.12" font-family="Helvetica,sans-Serif" font-size="10.00">&lt;::mlir::Attribute &gt; &gt;</text>
</a>
</g>
</g>
<!-- Node0&#45;&gt;Node1 -->
<g id="edge159_Node000000_Node000001" class="edge">
<title>Node0&#45;&gt;Node1</title>
<g id="a_edge159_Node000000_Node000001"><a xlink:title=" ">
<path fill="none" stroke="#63b8ff" d="M144.55,-82.94C161.87,-87.98 180.66,-93.44 198.17,-98.53"/>
<polygon fill="#63b8ff" stroke="#63b8ff" points="146.01,-79.72 135.43,-80.29 144.06,-86.44 146.01,-79.72"/>
</a>
</g>
</g>
<!-- Node2 -->
<g id="Node000002" class="node">
<title>Node2</title>
<g id="a_Node000002"><a xlink:href="classllzk_1_1felt_1_1_sub_felt_op_generic_adaptor.html" target="_top" xlink:title=" ">
<polygon fill="white" stroke="#666666" points="339.5,-79.5 194.5,-79.5 194.5,-49 339.5,-49 339.5,-79.5"/>
<text text-anchor="start" x="202.5" y="-66" font-family="Helvetica,sans-Serif" font-size="10.00">llzk::felt::SubFeltOpGeneric</text>
<text text-anchor="middle" x="267" y="-54.75" font-family="Helvetica,sans-Serif" font-size="10.00">Adaptor&lt;::mlir::ValueRange &gt;</text>
</a>
</g>
</g>
<!-- Node0&#45;&gt;Node2 -->
<g id="edge160_Node000000_Node000002" class="edge">
<title>Node0&#45;&gt;Node2</title>
<g id="a_edge160_Node000000_Node000002"><a xlink:title=" ">
<path fill="none" stroke="#63b8ff" d="M170.15,-64.25C178.24,-64.25 186.36,-64.25 194.27,-64.25"/>
<polygon fill="#63b8ff" stroke="#63b8ff" points="170.27,-60.75 160.27,-64.25 170.27,-67.75 170.27,-60.75"/>
</a>
</g>
</g>
<!-- Node4 -->
<g id="Node000004" class="node">
<title>Node4</title>
<g id="a_Node000004"><a xlink:href="classllzk_1_1felt_1_1_sub_felt_op_generic_adaptor.html" target="_top" xlink:title=" ">
<polygon fill="white" stroke="#666666" points="335.38,-30.5 198.62,-30.5 198.62,0 335.38,0 335.38,-30.5"/>
<text text-anchor="start" x="206.62" y="-17" font-family="Helvetica,sans-Serif" font-size="10.00">llzk::felt::SubFeltOpGeneric</text>
<text text-anchor="middle" x="267" y="-5.75" font-family="Helvetica,sans-Serif" font-size="10.00">Adaptor&lt; RangeT &gt;</text>
</a>
</g>
</g>
<!-- Node0&#45;&gt;Node4 -->
<g id="edge162_Node000000_Node000004" class="edge">
<title>Node0&#45;&gt;Node4</title>
<g id="a_edge162_Node000000_Node000004"><a xlink:title=" ">
<path fill="none" stroke="#63b8ff" d="M150.74,-45.66C169.12,-40.81 188.73,-35.63 206.48,-30.95"/>
<polygon fill="#63b8ff" stroke="#63b8ff" points="150.03,-42.22 141.25,-48.16 151.81,-48.99 150.03,-42.22"/>
</a>
</g>
</g>
<!-- Node3 -->
<g id="Node000003" class="node">
<title>Node3</title>
<g id="a_Node000003"><a xlink:href="classllzk_1_1felt_1_1_sub_felt_op_adaptor.html" target="_top" xlink:title=" ">
<polygon fill="white" stroke="#666666" points="512.25,-73.88 375.5,-73.88 375.5,-54.62 512.25,-54.62 512.25,-73.88"/>
<text text-anchor="middle" x="443.88" y="-60.38" font-family="Helvetica,sans-Serif" font-size="10.00">llzk::felt::SubFeltOpAdaptor</text>
</a>
</g>
</g>
<!-- Node2&#45;&gt;Node3 -->
<g id="edge161_Node000002_Node000003" class="edge">
<title>Node2&#45;&gt;Node3</title>
<g id="a_edge161_Node000002_Node000003"><a xlink:title=" ">
<path fill="none" stroke="#63b8ff" d="M351.2,-64.25C359.25,-64.25 367.34,-64.25 375.21,-64.25"/>
<polygon fill="#63b8ff" stroke="#63b8ff" points="351.4,-60.75 341.4,-64.25 351.4,-67.75 351.4,-60.75"/>
</a>
</g>
</g>
</g>
</svg>
