<?xml version="1.0" encoding="UTF-8" standalone="no"?>
<!DOCTYPE svg PUBLIC "-//W3C//DTD SVG 1.1//EN"
 "http://www.w3.org/Graphics/SVG/1.1/DTD/svg11.dtd">
<!-- Generated by graphviz version 12.2.1 (20241206.2353)
 -->
<!-- Title: Graphical Class Hierarchy Pages: 1 -->
<svg width="507pt" height="147pt"
 viewBox="0.00 0.00 506.75 147.12" xmlns="http://www.w3.org/2000/svg" xmlns:xlink="http://www.w3.org/1999/xlink">
<g id="graph0" class="graph" transform="scale(1 1) rotate(0) translate(4 143.12)">
<title>Graphical Class Hierarchy</title>
<!-- Node0 -->
<g id="Node000000" class="node">
<title>Node0</title>
<g id="a_Node000000"><a xlink:href="classllzk_1_1felt_1_1detail_1_1_or_felt_op_generic_adaptor_base.html" target="_top" xlink:title=" ">
<polygon fill="white" stroke="#666666" points="151.75,-79.5 0,-79.5 0,-49 151.75,-49 151.75,-79.5"/>
<text text-anchor="start" x="8" y="-66" font-family="Helvetica,sans-Serif" font-size="10.00">llzk::felt::detail</text>
<text text-anchor="middle" x="75.88" y="-54.75" font-family="Helvetica,sans-Serif" font-size="10.00">::OrFeltOpGenericAdaptorBase</text>
</a>
</g>
</g>
<!-- Node1 -->
<g id="Node000001" class="node">
<title>Node1</title>
<g id="a_Node000001"><a xlink:href="classllzk_1_1felt_1_1_or_felt_op_generic_adaptor.html" target="_top" xlink:title=" ">
<polygon fill="white" stroke="#666666" points="325.25,-139.12 195.25,-139.12 195.25,-97.38 325.25,-97.38 325.25,-139.12"/>
<text text-anchor="start" x="203.25" y="-125.62" font-family="Helvetica,sans-Serif" font-size="10.00">llzk::felt::OrFeltOpGeneric</text>
<text text-anchor="start" x="203.25" y="-114.38" font-family="Helvetica,sans-Serif" font-size="10.00">Adaptor&lt;::llvm::ArrayRef</text>
<text text-anchor="middle" x="260.25" y="-103.12" font-family="Helvetica,sans-Serif" font-size="10.00">&lt;::mlir::Attribute &gt; &gt;</text>
</a>
</g>
</g>
<!-- Node0&#45;&gt;Node1 -->
<g id="edge147_Node000000_Node000001" class="edge">
<title>Node0&#45;&gt;Node1</title>
<g id="a_edge147_Node000000_Node000001"><a xlink:title=" ">
<path fill="none" stroke="#63b8ff" d="M140.65,-83.13C158.25,-88.34 177.35,-94 194.97,-99.22"/>
<polygon fill="#63b8ff" stroke="#63b8ff" points="141.66,-79.78 131.08,-80.3 139.67,-86.49 141.66,-79.78"/>
</a>
</g>
</g>
<!-- Node2 -->
<g id="Node000002" class="node">
<title>Node2</title>
<g id="a_Node000002"><a xlink:href="classllzk_1_1felt_1_1_or_felt_op_generic_adaptor.html" target="_top" xlink:title=" ">
<polygon fill="white" stroke="#666666" points="332.75,-79.5 187.75,-79.5 187.75,-49 332.75,-49 332.75,-79.5"/>
<text text-anchor="start" x="195.75" y="-66" font-family="Helvetica,sans-Serif" font-size="10.00">llzk::felt::OrFeltOpGeneric</text>
<text text-anchor="middle" x="260.25" y="-54.75" font-family="Helvetica,sans-Serif" font-size="10.00">Adaptor&lt;::mlir::ValueRange &gt;</text>
</a>
</g>
</g>
<!-- Node0&#45;&gt;Node2 -->
<g id="edge148_Node000000_Node000002" class="edge">
<title>Node0&#45;&gt;Node2</title>
<g id="a_edge148_Node000000_Node000002"><a xlink:title=" ">
<path fill="none" stroke="#63b8ff" d="M163.41,-64.25C171.45,-64.25 179.53,-64.25 187.42,-64.25"/>
<polygon fill="#63b8ff" stroke="#63b8ff" points="163.62,-60.75 153.62,-64.25 163.62,-67.75 163.62,-60.75"/>
</a>
</g>
</g>
<!-- Node4 -->
<g id="Node000004" class="node">
<title>Node4</title>
<g id="a_Node000004"><a xlink:href="classllzk_1_1felt_1_1_or_felt_op_generic_adaptor.html" target="_top" xlink:title=" ">
<polygon fill="white" stroke="#666666" points="325.25,-30.5 195.25,-30.5 195.25,0 325.25,0 325.25,-30.5"/>
<text text-anchor="start" x="203.25" y="-17" font-family="Helvetica,sans-Serif" font-size="10.00">llzk::felt::OrFeltOpGeneric</text>
<text text-anchor="middle" x="260.25" y="-5.75" font-family="Helvetica,sans-Serif" font-size="10.00">Adaptor&lt; RangeT &gt;</text>
</a>
</g>
</g>
<!-- Node0&#45;&gt;Node4 -->
<g id="edge150_Node000000_Node000004" class="edge">
<title>Node0&#45;&gt;Node4</title>
<g id="a_edge150_Node000000_Node000004"><a xlink:title=" ">
<path fill="none" stroke="#63b8ff" d="M146.34,-45.59C164.31,-40.76 183.47,-35.61 200.81,-30.95"/>
<polygon fill="#63b8ff" stroke="#63b8ff" points="145.54,-42.18 136.79,-48.15 147.36,-48.94 145.54,-42.18"/>
</a>
</g>
</g>
<!-- Node3 -->
<g id="Node000003" class="node">
<title>Node3</title>
<g id="a_Node000003"><a xlink:href="classllzk_1_1felt_1_1_or_felt_op_adaptor.html" target="_top" xlink:title=" ">
<polygon fill="white" stroke="#666666" points="498.75,-73.88 368.75,-73.88 368.75,-54.62 498.75,-54.62 498.75,-73.88"/>
<text text-anchor="middle" x="433.75" y="-60.38" font-family="Helvetica,sans-Serif" font-size="10.00">llzk::felt::OrFeltOpAdaptor</text>
</a>
</g>
</g>
<!-- Node2&#45;&gt;Node3 -->
<g id="edge149_Node000002_Node000003" class="edge">
<title>Node2&#45;&gt;Node3</title>
<g id="a_edge149_Node000002_Node000003"><a xlink:title=" ">
<path fill="none" stroke="#63b8ff" d="M344.36,-64.25C352.44,-64.25 360.55,-64.25 368.4,-64.25"/>
<polygon fill="#63b8ff" stroke="#63b8ff" points="344.5,-60.75 334.5,-64.25 344.5,-67.75 344.5,-60.75"/>
</a>
</g>
</g>
</g>
</svg>
