<?xml version="1.0" encoding="UTF-8" standalone="no"?>
<!DOCTYPE svg PUBLIC "-//W3C//DTD SVG 1.1//EN"
 "http://www.w3.org/Graphics/SVG/1.1/DTD/svg11.dtd">
<!-- Generated by graphviz version 12.2.1 (20241206.2353)
 -->
<!-- Title: Graphical Class Hierarchy Pages: 1 -->
<svg width="272pt" height="137pt"
 viewBox="0.00 0.00 271.75 136.50" xmlns="http://www.w3.org/2000/svg" xmlns:xlink="http://www.w3.org/1999/xlink">
<g id="graph0" class="graph" transform="scale(1 1) rotate(0) translate(4 132.5)">
<title>Graphical Class Hierarchy</title>
<!-- Node0 -->
<g id="Node000000" class="node">
<title>Node0</title>
<g id="a_Node000000"><a xlink:title=" ">
<polygon fill="#e0e0e0" stroke="#999999" points="92.5,-73.88 0,-73.88 0,-54.62 92.5,-54.62 92.5,-73.88"/>
<text text-anchor="middle" x="46.25" y="-60.38" font-family="Helvetica,sans-Serif" font-size="10.00">mlir::TypeStorage</text>
</a>
</g>
</g>
<!-- Node1 -->
<g id="Node000001" class="node">
<title>Node1</title>
<g id="a_Node000001"><a xlink:href="structllzk_1_1array_1_1detail_1_1_array_type_storage.html" target="_top" xlink:title=" ">
<polygon fill="white" stroke="#666666" points="246.12,-128.5 146.12,-128.5 146.12,-98 246.12,-98 246.12,-128.5"/>
<text text-anchor="start" x="154.12" y="-115" font-family="Helvetica,sans-Serif" font-size="10.00">llzk::array::detail</text>
<text text-anchor="middle" x="196.12" y="-103.75" font-family="Helvetica,sans-Serif" font-size="10.00">::ArrayTypeStorage</text>
</a>
</g>
</g>
<!-- Node0&#45;&gt;Node1 -->
<g id="edge336_Node000000_Node000001" class="edge">
<title>Node0&#45;&gt;Node1</title>
<g id="a_edge336_Node000000_Node000001"><a xlink:title=" ">
<path fill="none" stroke="#63b8ff" d="M88.23,-77.83C106.67,-83.94 128.56,-91.19 147.7,-97.54"/>
<polygon fill="#63b8ff" stroke="#63b8ff" points="89.56,-74.58 78.97,-74.76 87.36,-81.23 89.56,-74.58"/>
</a>
</g>
</g>
<!-- Node2 -->
<g id="Node000002" class="node">
<title>Node2</title>
<g id="a_Node000002"><a xlink:href="structllzk_1_1component_1_1detail_1_1_struct_type_storage.html" target="_top" xlink:title=" ">
<polygon fill="white" stroke="#666666" points="253.25,-79.5 139,-79.5 139,-49 253.25,-49 253.25,-79.5"/>
<text text-anchor="start" x="147" y="-66" font-family="Helvetica,sans-Serif" font-size="10.00">llzk::component::detail</text>
<text text-anchor="middle" x="196.12" y="-54.75" font-family="Helvetica,sans-Serif" font-size="10.00">::StructTypeStorage</text>
</a>
</g>
</g>
<!-- Node0&#45;&gt;Node2 -->
<g id="edge337_Node000000_Node000002" class="edge">
<title>Node0&#45;&gt;Node2</title>
<g id="a_edge337_Node000000_Node000002"><a xlink:title=" ">
<path fill="none" stroke="#63b8ff" d="M103.99,-64.25C115.38,-64.25 127.36,-64.25 138.75,-64.25"/>
<polygon fill="#63b8ff" stroke="#63b8ff" points="104.34,-60.75 94.34,-64.25 104.34,-67.75 104.34,-60.75"/>
</a>
</g>
</g>
<!-- Node3 -->
<g id="Node000003" class="node">
<title>Node3</title>
<g id="a_Node000003"><a xlink:href="structllzk_1_1polymorphic_1_1detail_1_1_type_var_type_storage.html" target="_top" xlink:title=" ">
<polygon fill="white" stroke="#666666" points="263.75,-30.5 128.5,-30.5 128.5,0 263.75,0 263.75,-30.5"/>
<text text-anchor="start" x="136.5" y="-17" font-family="Helvetica,sans-Serif" font-size="10.00">llzk::polymorphic::</text>
<text text-anchor="middle" x="196.12" y="-5.75" font-family="Helvetica,sans-Serif" font-size="10.00">detail::TypeVarTypeStorage</text>
</a>
</g>
</g>
<!-- Node0&#45;&gt;Node3 -->
<g id="edge338_Node000000_Node000003" class="edge">
<title>Node0&#45;&gt;Node3</title>
<g id="a_edge338_Node000000_Node000003"><a xlink:title=" ">
<path fill="none" stroke="#63b8ff" d="M88.23,-50.67C106.67,-44.56 128.56,-37.31 147.7,-30.96"/>
<polygon fill="#63b8ff" stroke="#63b8ff" points="87.36,-47.27 78.97,-53.74 89.56,-53.92 87.36,-47.27"/>
</a>
</g>
</g>
</g>
</svg>
