<?xml version="1.0" encoding="UTF-8" standalone="no"?>
<!DOCTYPE svg PUBLIC "-//W3C//DTD SVG 1.1//EN"
 "http://www.w3.org/Graphics/SVG/1.1/DTD/svg11.dtd">
<!-- Generated by graphviz version 12.2.1 (20241206.2353)
 -->
<!-- Title: Graphical Class Hierarchy Pages: 1 -->
<svg width="523pt" height="147pt"
 viewBox="0.00 0.00 523.25 147.12" xmlns="http://www.w3.org/2000/svg" xmlns:xlink="http://www.w3.org/1999/xlink">
<g id="graph0" class="graph" transform="scale(1 1) rotate(0) translate(4 143.12)">
<title>Graphical Class Hierarchy</title>
<!-- Node0 -->
<g id="Node000000" class="node">
<title>Node0</title>
<g id="a_Node000000"><a xlink:href="classllzk_1_1felt_1_1detail_1_1_mod_felt_op_generic_adaptor_base.html" target="_top" xlink:title=" ">
<polygon fill="white" stroke="#666666" points="160,-79.5 0,-79.5 0,-49 160,-49 160,-79.5"/>
<text text-anchor="start" x="8" y="-66" font-family="Helvetica,sans-Serif" font-size="10.00">llzk::felt::detail</text>
<text text-anchor="middle" x="80" y="-54.75" font-family="Helvetica,sans-Serif" font-size="10.00">::ModFeltOpGenericAdaptorBase</text>
</a>
</g>
</g>
<!-- Node1 -->
<g id="Node000001" class="node">
<title>Node1</title>
<g id="a_Node000001"><a xlink:href="classllzk_1_1felt_1_1_mod_felt_op_generic_adaptor.html" target="_top" xlink:title=" ">
<polygon fill="white" stroke="#666666" points="337.62,-139.12 199.38,-139.12 199.38,-97.38 337.62,-97.38 337.62,-139.12"/>
<text text-anchor="start" x="207.38" y="-125.62" font-family="Helvetica,sans-Serif" font-size="10.00">llzk::felt::ModFeltOpGeneric</text>
<text text-anchor="start" x="207.38" y="-114.38" font-family="Helvetica,sans-Serif" font-size="10.00">Adaptor&lt;::llvm::ArrayRef</text>
<text text-anchor="middle" x="268.5" y="-103.12" font-family="Helvetica,sans-Serif" font-size="10.00">&lt;::mlir::Attribute &gt; &gt;</text>
</a>
</g>
</g>
<!-- Node0&#45;&gt;Node1 -->
<g id="edge131_Node000000_Node000001" class="edge">
<title>Node0&#45;&gt;Node1</title>
<g id="a_edge131_Node000000_Node000001"><a xlink:title=" ">
<path fill="none" stroke="#63b8ff" d="M146.17,-83.12C163.22,-88.06 181.66,-93.39 198.88,-98.38"/>
<polygon fill="#63b8ff" stroke="#63b8ff" points="147.23,-79.78 136.65,-80.36 145.28,-86.51 147.23,-79.78"/>
</a>
</g>
</g>
<!-- Node2 -->
<g id="Node000002" class="node">
<title>Node2</title>
<g id="a_Node000002"><a xlink:href="classllzk_1_1felt_1_1_mod_felt_op_generic_adaptor.html" target="_top" xlink:title=" ">
<polygon fill="white" stroke="#666666" points="341,-79.5 196,-79.5 196,-49 341,-49 341,-79.5"/>
<text text-anchor="start" x="204" y="-66" font-family="Helvetica,sans-Serif" font-size="10.00">llzk::felt::ModFeltOpGeneric</text>
<text text-anchor="middle" x="268.5" y="-54.75" font-family="Helvetica,sans-Serif" font-size="10.00">Adaptor&lt;::mlir::ValueRange &gt;</text>
</a>
</g>
</g>
<!-- Node0&#45;&gt;Node2 -->
<g id="edge132_Node000000_Node000002" class="edge">
<title>Node0&#45;&gt;Node2</title>
<g id="a_edge132_Node000000_Node000002"><a xlink:title=" ">
<path fill="none" stroke="#63b8ff" d="M171.67,-64.25C179.7,-64.25 187.75,-64.25 195.6,-64.25"/>
<polygon fill="#63b8ff" stroke="#63b8ff" points="171.88,-60.75 161.88,-64.25 171.88,-67.75 171.88,-60.75"/>
</a>
</g>
</g>
<!-- Node4 -->
<g id="Node000004" class="node">
<title>Node4</title>
<g id="a_Node000004"><a xlink:href="classllzk_1_1felt_1_1_mod_felt_op_generic_adaptor.html" target="_top" xlink:title=" ">
<polygon fill="white" stroke="#666666" points="337.62,-30.5 199.38,-30.5 199.38,0 337.62,0 337.62,-30.5"/>
<text text-anchor="start" x="207.38" y="-17" font-family="Helvetica,sans-Serif" font-size="10.00">llzk::felt::ModFeltOpGeneric</text>
<text text-anchor="middle" x="268.5" y="-5.75" font-family="Helvetica,sans-Serif" font-size="10.00">Adaptor&lt; RangeT &gt;</text>
</a>
</g>
</g>
<!-- Node0&#45;&gt;Node4 -->
<g id="edge134_Node000000_Node000004" class="edge">
<title>Node0&#45;&gt;Node4</title>
<g id="a_edge134_Node000000_Node000004"><a xlink:title=" ">
<path fill="none" stroke="#63b8ff" d="M151.77,-45.66C170.22,-40.81 189.92,-35.63 207.74,-30.95"/>
<polygon fill="#63b8ff" stroke="#63b8ff" points="151.03,-42.23 142.24,-48.16 152.8,-49 151.03,-42.23"/>
</a>
</g>
</g>
<!-- Node3 -->
<g id="Node000003" class="node">
<title>Node3</title>
<g id="a_Node000003"><a xlink:href="classllzk_1_1felt_1_1_mod_felt_op_adaptor.html" target="_top" xlink:title=" ">
<polygon fill="white" stroke="#666666" points="515.25,-73.88 377,-73.88 377,-54.62 515.25,-54.62 515.25,-73.88"/>
<text text-anchor="middle" x="446.12" y="-60.38" font-family="Helvetica,sans-Serif" font-size="10.00">llzk::felt::ModFeltOpAdaptor</text>
</a>
</g>
</g>
<!-- Node2&#45;&gt;Node3 -->
<g id="edge133_Node000002_Node000003" class="edge">
<title>Node2&#45;&gt;Node3</title>
<g id="a_edge133_Node000002_Node000003"><a xlink:title=" ">
<path fill="none" stroke="#63b8ff" d="M352.73,-64.25C360.75,-64.25 368.83,-64.25 376.69,-64.25"/>
<polygon fill="#63b8ff" stroke="#63b8ff" points="352.95,-60.75 342.95,-64.25 352.95,-67.75 352.95,-60.75"/>
</a>
</g>
</g>
</g>
</svg>
