<?xml version="1.0" encoding="UTF-8" standalone="no"?>
<!DOCTYPE svg PUBLIC "-//W3C//DTD SVG 1.1//EN"
 "http://www.w3.org/Graphics/SVG/1.1/DTD/svg11.dtd">
<!-- Generated by graphviz version 12.2.1 (20241206.2353)
 -->
<!-- Title: Graphical Class Hierarchy Pages: 1 -->
<svg width="487pt" height="290pt"
 viewBox="0.00 0.00 486.50 289.75" xmlns="http://www.w3.org/2000/svg" xmlns:xlink="http://www.w3.org/1999/xlink">
<g id="graph0" class="graph" transform="scale(1 1) rotate(0) translate(4 285.75)">
<title>Graphical Class Hierarchy</title>
<!-- Node0 -->
<g id="Node000000" class="node">
<title>Node0</title>
<g id="a_Node000000"><a xlink:title=" ">
<polygon fill="#e0e0e0" stroke="#999999" points="94.75,-156.12 0,-156.12 0,-125.62 94.75,-125.62 94.75,-156.12"/>
<text text-anchor="start" x="8" y="-142.62" font-family="Helvetica,sans-Serif" font-size="10.00">mlir::OpInterface::</text>
<text text-anchor="middle" x="47.38" y="-131.38" font-family="Helvetica,sans-Serif" font-size="10.00">Trait</text>
</a>
</g>
</g>
<!-- Node1 -->
<g id="Node000001" class="node">
<title>Node1</title>
<g id="a_Node000001"><a xlink:href="structllzk_1_1array_1_1detail_1_1_array_access_op_interface_trait.html" target="_top" xlink:title=" ">
<polygon fill="white" stroke="#666666" points="279.5,-281.75 130.75,-281.75 130.75,-240 279.5,-240 279.5,-281.75"/>
<text text-anchor="start" x="138.75" y="-268.25" font-family="Helvetica,sans-Serif" font-size="10.00">llzk::array::detail</text>
<text text-anchor="start" x="138.75" y="-257" font-family="Helvetica,sans-Serif" font-size="10.00">::ArrayAccessOpInterfaceTrait</text>
<text text-anchor="middle" x="205.12" y="-245.75" font-family="Helvetica,sans-Serif" font-size="10.00">&lt; ConcreteOp &gt;</text>
</a>
</g>
</g>
<!-- Node0&#45;&gt;Node1 -->
<g id="edge316_Node000000_Node000001" class="edge">
<title>Node0&#45;&gt;Node1</title>
<g id="a_edge316_Node000000_Node000001"><a xlink:title=" ">
<path fill="none" stroke="#63b8ff" d="M66.05,-165.57C81.31,-185.42 104.92,-212.86 130.75,-230.88 135.27,-234.02 140.16,-236.92 145.21,-239.57"/>
<polygon fill="#63b8ff" stroke="#63b8ff" points="68.97,-163.63 60.17,-157.72 63.36,-167.82 68.97,-163.63"/>
</a>
</g>
</g>
<!-- Node3 -->
<g id="Node000003" class="node">
<title>Node3</title>
<g id="a_Node000003"><a xlink:href="structllzk_1_1array_1_1detail_1_1_array_ref_op_interface_trait.html" target="_top" xlink:title=" ">
<polygon fill="white" stroke="#666666" points="270.88,-221.75 139.38,-221.75 139.38,-180 270.88,-180 270.88,-221.75"/>
<text text-anchor="start" x="147.38" y="-208.25" font-family="Helvetica,sans-Serif" font-size="10.00">llzk::array::detail</text>
<text text-anchor="start" x="147.38" y="-197" font-family="Helvetica,sans-Serif" font-size="10.00">::ArrayRefOpInterfaceTrait</text>
<text text-anchor="middle" x="205.12" y="-185.75" font-family="Helvetica,sans-Serif" font-size="10.00">&lt; ConcreteOp &gt;</text>
</a>
</g>
</g>
<!-- Node0&#45;&gt;Node3 -->
<g id="edge318_Node000000_Node000003" class="edge">
<title>Node0&#45;&gt;Node3</title>
<g id="a_edge318_Node000000_Node000003"><a xlink:title=" ">
<path fill="none" stroke="#63b8ff" d="M99.52,-160.58C115.33,-166.67 132.8,-173.4 148.86,-179.59"/>
<polygon fill="#63b8ff" stroke="#63b8ff" points="100.89,-157.36 90.3,-157.03 98.38,-163.89 100.89,-157.36"/>
</a>
</g>
</g>
<!-- Node5 -->
<g id="Node000005" class="node">
<title>Node5</title>
<g id="a_Node000005"><a xlink:href="structllzk_1_1component_1_1detail_1_1_field_ref_op_interface_trait.html" target="_top" xlink:title=" ">
<polygon fill="white" stroke="#666666" points="269.75,-161.75 140.5,-161.75 140.5,-120 269.75,-120 269.75,-161.75"/>
<text text-anchor="start" x="148.5" y="-148.25" font-family="Helvetica,sans-Serif" font-size="10.00">llzk::component::detail</text>
<text text-anchor="start" x="148.5" y="-137" font-family="Helvetica,sans-Serif" font-size="10.00">::FieldRefOpInterfaceTrait</text>
<text text-anchor="middle" x="205.12" y="-125.75" font-family="Helvetica,sans-Serif" font-size="10.00">&lt; ConcreteOp &gt;</text>
</a>
</g>
</g>
<!-- Node0&#45;&gt;Node5 -->
<g id="edge320_Node000000_Node000005" class="edge">
<title>Node0&#45;&gt;Node5</title>
<g id="a_edge320_Node000000_Node000005"><a xlink:title=" ">
<path fill="none" stroke="#63b8ff" d="M106.34,-140.88C117.36,-140.88 128.95,-140.88 140.15,-140.88"/>
<polygon fill="#63b8ff" stroke="#63b8ff" points="106.62,-137.38 96.62,-140.88 106.62,-144.38 106.62,-137.38"/>
</a>
</g>
</g>
<!-- Node7 -->
<g id="Node000007" class="node">
<title>Node7</title>
<g id="a_Node000007"><a xlink:href="structllzk_1_1constrain_1_1detail_1_1_constraint_op_interface_trait.html" target="_top" xlink:title=" ">
<polygon fill="white" stroke="#666666" points="273.88,-101.75 136.38,-101.75 136.38,-60 273.88,-60 273.88,-101.75"/>
<text text-anchor="start" x="144.38" y="-88.25" font-family="Helvetica,sans-Serif" font-size="10.00">llzk::constrain::detail</text>
<text text-anchor="start" x="144.38" y="-77" font-family="Helvetica,sans-Serif" font-size="10.00">::ConstraintOpInterfaceTrait</text>
<text text-anchor="middle" x="205.12" y="-65.75" font-family="Helvetica,sans-Serif" font-size="10.00">&lt; ConcreteOp &gt;</text>
</a>
</g>
</g>
<!-- Node0&#45;&gt;Node7 -->
<g id="edge322_Node000000_Node000007" class="edge">
<title>Node0&#45;&gt;Node7</title>
<g id="a_edge322_Node000000_Node000007"><a xlink:title=" ">
<path fill="none" stroke="#63b8ff" d="M99.52,-121.17C115.33,-115.08 132.8,-108.35 148.86,-102.16"/>
<polygon fill="#63b8ff" stroke="#63b8ff" points="98.38,-117.86 90.3,-124.72 100.89,-124.39 98.38,-117.86"/>
</a>
</g>
</g>
<!-- Node9 -->
<g id="Node000009" class="node">
<title>Node9</title>
<g id="a_Node000009"><a xlink:href="structllzk_1_1global_1_1detail_1_1_global_ref_op_interface_trait.html" target="_top" xlink:title=" ">
<polygon fill="white" stroke="#666666" points="273.12,-41.75 137.12,-41.75 137.12,0 273.12,0 273.12,-41.75"/>
<text text-anchor="start" x="145.12" y="-28.25" font-family="Helvetica,sans-Serif" font-size="10.00">llzk::global::detail</text>
<text text-anchor="start" x="145.12" y="-17" font-family="Helvetica,sans-Serif" font-size="10.00">::GlobalRefOpInterfaceTrait</text>
<text text-anchor="middle" x="205.12" y="-5.75" font-family="Helvetica,sans-Serif" font-size="10.00">&lt; ConcreteOp &gt;</text>
</a>
</g>
</g>
<!-- Node0&#45;&gt;Node9 -->
<g id="edge324_Node000000_Node000009" class="edge">
<title>Node0&#45;&gt;Node9</title>
<g id="a_edge324_Node000000_Node000009"><a xlink:title=" ">
<path fill="none" stroke="#63b8ff" d="M66.05,-116.18C81.31,-96.33 104.92,-68.89 130.75,-50.88 135.27,-47.73 140.16,-44.83 145.21,-42.18"/>
<polygon fill="#63b8ff" stroke="#63b8ff" points="63.36,-113.93 60.17,-124.03 68.97,-118.12 63.36,-113.93"/>
</a>
</g>
</g>
<!-- Node2 -->
<g id="Node000002" class="node">
<title>Node2</title>
<g id="a_Node000002"><a xlink:href="structllzk_1_1array_1_1_array_access_op_interface_1_1_trait.html" target="_top" xlink:title=" ">
<polygon fill="white" stroke="#666666" points="478.5,-276.12 315.5,-276.12 315.5,-245.62 478.5,-245.62 478.5,-276.12"/>
<text text-anchor="start" x="323.5" y="-262.62" font-family="Helvetica,sans-Serif" font-size="10.00">llzk::array::ArrayAccess</text>
<text text-anchor="middle" x="397" y="-251.38" font-family="Helvetica,sans-Serif" font-size="10.00">OpInterface::Trait&lt; ConcreteOp &gt;</text>
</a>
</g>
</g>
<!-- Node1&#45;&gt;Node2 -->
<g id="edge317_Node000001_Node000002" class="edge">
<title>Node1&#45;&gt;Node2</title>
<g id="a_edge317_Node000001_Node000002"><a xlink:title=" ">
<path fill="none" stroke="#63b8ff" d="M291.32,-260.88C299.23,-260.88 307.24,-260.88 315.12,-260.88"/>
<polygon fill="#63b8ff" stroke="#63b8ff" points="291.32,-257.38 281.32,-260.88 291.32,-264.38 291.32,-257.38"/>
</a>
</g>
</g>
<!-- Node4 -->
<g id="Node000004" class="node">
<title>Node4</title>
<g id="a_Node000004"><a xlink:href="structllzk_1_1array_1_1_array_ref_op_interface_1_1_trait.html" target="_top" xlink:title=" ">
<polygon fill="white" stroke="#666666" points="474.38,-216.12 319.62,-216.12 319.62,-185.62 474.38,-185.62 474.38,-216.12"/>
<text text-anchor="start" x="327.62" y="-202.62" font-family="Helvetica,sans-Serif" font-size="10.00">llzk::array::ArrayRefOpInterface</text>
<text text-anchor="middle" x="397" y="-191.38" font-family="Helvetica,sans-Serif" font-size="10.00">::Trait&lt; ConcreteOp &gt;</text>
</a>
</g>
</g>
<!-- Node3&#45;&gt;Node4 -->
<g id="edge319_Node000003_Node000004" class="edge">
<title>Node3&#45;&gt;Node4</title>
<g id="a_edge319_Node000003_Node000004"><a xlink:title=" ">
<path fill="none" stroke="#63b8ff" d="M282.62,-200.88C294.68,-200.88 307.15,-200.88 319.22,-200.88"/>
<polygon fill="#63b8ff" stroke="#63b8ff" points="282.72,-197.38 272.72,-200.88 282.72,-204.38 282.72,-197.38"/>
</a>
</g>
</g>
<!-- Node6 -->
<g id="Node000006" class="node">
<title>Node6</title>
<g id="a_Node000006"><a xlink:href="structllzk_1_1component_1_1_field_ref_op_interface_1_1_trait.html" target="_top" xlink:title=" ">
<polygon fill="white" stroke="#666666" points="478.5,-156.12 315.5,-156.12 315.5,-125.62 478.5,-125.62 478.5,-156.12"/>
<text text-anchor="start" x="323.5" y="-142.62" font-family="Helvetica,sans-Serif" font-size="10.00">llzk::component::FieldRef</text>
<text text-anchor="middle" x="397" y="-131.38" font-family="Helvetica,sans-Serif" font-size="10.00">OpInterface::Trait&lt; ConcreteOp &gt;</text>
</a>
</g>
</g>
<!-- Node5&#45;&gt;Node6 -->
<g id="edge321_Node000005_Node000006" class="edge">
<title>Node5&#45;&gt;Node6</title>
<g id="a_edge321_Node000005_Node000006"><a xlink:title=" ">
<path fill="none" stroke="#63b8ff" d="M281.49,-140.88C292.53,-140.88 303.94,-140.88 315.08,-140.88"/>
<polygon fill="#63b8ff" stroke="#63b8ff" points="281.66,-137.38 271.66,-140.88 281.66,-144.38 281.66,-137.38"/>
</a>
</g>
</g>
<!-- Node8 -->
<g id="Node000008" class="node">
<title>Node8</title>
<g id="a_Node000008"><a xlink:href="structllzk_1_1constrain_1_1_constraint_op_interface_1_1_trait.html" target="_top" xlink:title=" ">
<polygon fill="white" stroke="#666666" points="478.5,-96.12 315.5,-96.12 315.5,-65.62 478.5,-65.62 478.5,-96.12"/>
<text text-anchor="start" x="323.5" y="-82.62" font-family="Helvetica,sans-Serif" font-size="10.00">llzk::constrain::Constraint</text>
<text text-anchor="middle" x="397" y="-71.38" font-family="Helvetica,sans-Serif" font-size="10.00">OpInterface::Trait&lt; ConcreteOp &gt;</text>
</a>
</g>
</g>
<!-- Node7&#45;&gt;Node8 -->
<g id="edge323_Node000007_Node000008" class="edge">
<title>Node7&#45;&gt;Node8</title>
<g id="a_edge323_Node000007_Node000008"><a xlink:title=" ">
<path fill="none" stroke="#63b8ff" d="M285.52,-80.88C295.32,-80.88 305.35,-80.88 315.18,-80.88"/>
<polygon fill="#63b8ff" stroke="#63b8ff" points="285.65,-77.38 275.65,-80.88 285.65,-84.38 285.65,-77.38"/>
</a>
</g>
</g>
<!-- Node10 -->
<g id="Node000010" class="node">
<title>Node10</title>
<g id="a_Node000010"><a xlink:href="structllzk_1_1global_1_1_global_ref_op_interface_1_1_trait.html" target="_top" xlink:title=" ">
<polygon fill="white" stroke="#666666" points="472.12,-36.12 321.88,-36.12 321.88,-5.62 472.12,-5.62 472.12,-36.12"/>
<text text-anchor="start" x="329.88" y="-22.62" font-family="Helvetica,sans-Serif" font-size="10.00">llzk::global::GlobalRefOp</text>
<text text-anchor="middle" x="397" y="-11.38" font-family="Helvetica,sans-Serif" font-size="10.00">Interface::Trait&lt; ConcreteOp &gt;</text>
</a>
</g>
</g>
<!-- Node9&#45;&gt;Node10 -->
<g id="edge325_Node000009_Node000010" class="edge">
<title>Node9&#45;&gt;Node10</title>
<g id="a_edge325_Node000009_Node000010"><a xlink:title=" ">
<path fill="none" stroke="#63b8ff" d="M285.07,-20.88C297.18,-20.88 309.64,-20.88 321.64,-20.88"/>
<polygon fill="#63b8ff" stroke="#63b8ff" points="285.12,-17.38 275.12,-20.88 285.12,-24.38 285.12,-17.38"/>
</a>
</g>
</g>
</g>
</svg>
