<?xml version="1.0" encoding="UTF-8" standalone="no"?>
<!DOCTYPE svg PUBLIC "-//W3C//DTD SVG 1.1//EN"
 "http://www.w3.org/Graphics/SVG/1.1/DTD/svg11.dtd">
<!-- Generated by graphviz version 12.2.1 (20241206.2353)
 -->
<!-- Title: Graphical Class Hierarchy Pages: 1 -->
<svg width="616pt" height="175pt"
 viewBox="0.00 0.00 615.50 175.38" xmlns="http://www.w3.org/2000/svg" xmlns:xlink="http://www.w3.org/1999/xlink">
<g id="graph0" class="graph" transform="scale(1 1) rotate(0) translate(4 171.38)">
<title>Graphical Class Hierarchy</title>
<!-- Node0 -->
<g id="Node000000" class="node">
<title>Node0</title>
<g id="a_Node000000"><a xlink:href="structllzk_1_1global_1_1detail_1_1_global_ref_op_interface_interface_traits_1_1_concept.html" target="_top" xlink:title=" ">
<polygon fill="white" stroke="#666666" points="154.75,-101.75 0,-101.75 0,-60 154.75,-60 154.75,-101.75"/>
<text text-anchor="start" x="8" y="-88.25" font-family="Helvetica,sans-Serif" font-size="10.00">llzk::global::detail</text>
<text text-anchor="start" x="8" y="-77" font-family="Helvetica,sans-Serif" font-size="10.00">::GlobalRefOpInterfaceInterface</text>
<text text-anchor="middle" x="77.38" y="-65.75" font-family="Helvetica,sans-Serif" font-size="10.00">Traits::Concept</text>
</a>
</g>
</g>
<!-- Node1 -->
<g id="Node000001" class="node">
<title>Node1</title>
<g id="a_Node000001"><a xlink:href="classllzk_1_1global_1_1detail_1_1_global_ref_op_interface_interface_traits_1_1_fallback_model.html" target="_top" xlink:title=" ">
<polygon fill="white" stroke="#666666" points="384.5,-161.75 190.75,-161.75 190.75,-120 384.5,-120 384.5,-161.75"/>
<text text-anchor="start" x="198.75" y="-148.25" font-family="Helvetica,sans-Serif" font-size="10.00">llzk::global::detail</text>
<text text-anchor="start" x="198.75" y="-137" font-family="Helvetica,sans-Serif" font-size="10.00">::GlobalRefOpInterfaceInterface</text>
<text text-anchor="middle" x="287.62" y="-125.75" font-family="Helvetica,sans-Serif" font-size="10.00">Traits::FallbackModel&lt; ConcreteModel &gt;</text>
</a>
</g>
</g>
<!-- Node0&#45;&gt;Node1 -->
<g id="edge187_Node000000_Node000001" class="edge">
<title>Node0&#45;&gt;Node1</title>
<g id="a_edge187_Node000000_Node000001"><a xlink:title=" ">
<path fill="none" stroke="#63b8ff" d="M163.04,-105.27C179.43,-109.99 196.48,-114.9 212.51,-119.52"/>
<polygon fill="#63b8ff" stroke="#63b8ff" points="164.42,-102.02 153.84,-102.62 162.48,-108.75 164.42,-102.02"/>
</a>
</g>
</g>
<!-- Node3 -->
<g id="Node000003" class="node">
<title>Node3</title>
<g id="a_Node000003"><a xlink:href="classllzk_1_1global_1_1detail_1_1_global_ref_op_interface_interface_traits_1_1_fallback_model.html" target="_top" xlink:title=" ">
<polygon fill="white" stroke="#666666" points="377.75,-101.75 197.5,-101.75 197.5,-60 377.75,-60 377.75,-101.75"/>
<text text-anchor="start" x="205.5" y="-88.25" font-family="Helvetica,sans-Serif" font-size="10.00">llzk::global::detail</text>
<text text-anchor="start" x="205.5" y="-77" font-family="Helvetica,sans-Serif" font-size="10.00">::GlobalRefOpInterfaceInterface</text>
<text text-anchor="middle" x="287.62" y="-65.75" font-family="Helvetica,sans-Serif" font-size="10.00">Traits::FallbackModel&lt; ConcreteOp &gt;</text>
</a>
</g>
</g>
<!-- Node0&#45;&gt;Node3 -->
<g id="edge189_Node000000_Node000003" class="edge">
<title>Node0&#45;&gt;Node3</title>
<g id="a_edge189_Node000000_Node000003"><a xlink:title=" ">
<path fill="none" stroke="#63b8ff" d="M166.39,-80.88C176.55,-80.88 186.91,-80.88 197.09,-80.88"/>
<polygon fill="#63b8ff" stroke="#63b8ff" points="166.55,-77.38 156.55,-80.88 166.55,-84.38 166.55,-77.38"/>
</a>
</g>
</g>
<!-- Node4 -->
<g id="Node000004" class="node">
<title>Node4</title>
<g id="a_Node000004"><a xlink:href="classllzk_1_1global_1_1detail_1_1_global_ref_op_interface_interface_traits_1_1_model.html" target="_top" xlink:title=" ">
<polygon fill="white" stroke="#666666" points="365,-41.75 210.25,-41.75 210.25,0 365,0 365,-41.75"/>
<text text-anchor="start" x="218.25" y="-28.25" font-family="Helvetica,sans-Serif" font-size="10.00">llzk::global::detail</text>
<text text-anchor="start" x="218.25" y="-17" font-family="Helvetica,sans-Serif" font-size="10.00">::GlobalRefOpInterfaceInterface</text>
<text text-anchor="middle" x="287.62" y="-5.75" font-family="Helvetica,sans-Serif" font-size="10.00">Traits::Model&lt; ConcreteOp &gt;</text>
</a>
</g>
</g>
<!-- Node0&#45;&gt;Node4 -->
<g id="edge190_Node000000_Node000004" class="edge">
<title>Node0&#45;&gt;Node4</title>
<g id="a_edge190_Node000000_Node000004"><a xlink:title=" ">
<path fill="none" stroke="#63b8ff" d="M163.04,-56.48C179.43,-51.76 196.48,-46.85 212.51,-42.23"/>
<polygon fill="#63b8ff" stroke="#63b8ff" points="162.48,-53 153.84,-59.13 164.42,-59.73 162.48,-53"/>
</a>
</g>
</g>
<!-- Node2 -->
<g id="Node000002" class="node">
<title>Node2</title>
<g id="a_Node000002"><a xlink:href="classllzk_1_1global_1_1detail_1_1_global_ref_op_interface_interface_traits_1_1_external_model.html" target="_top" xlink:title=" ">
<polygon fill="white" stroke="#666666" points="607.5,-167.38 420.5,-167.38 420.5,-114.38 607.5,-114.38 607.5,-167.38"/>
<text text-anchor="start" x="428.5" y="-153.88" font-family="Helvetica,sans-Serif" font-size="10.00">llzk::global::detail</text>
<text text-anchor="start" x="428.5" y="-142.62" font-family="Helvetica,sans-Serif" font-size="10.00">::GlobalRefOpInterfaceInterface</text>
<text text-anchor="start" x="428.5" y="-131.38" font-family="Helvetica,sans-Serif" font-size="10.00">Traits::ExternalModel&lt; ConcreteModel,</text>
<text text-anchor="middle" x="514" y="-120.12" font-family="Helvetica,sans-Serif" font-size="10.00"> ConcreteOp &gt;</text>
</a>
</g>
</g>
<!-- Node1&#45;&gt;Node2 -->
<g id="edge188_Node000001_Node000002" class="edge">
<title>Node1&#45;&gt;Node2</title>
<g id="a_edge188_Node000001_Node000002"><a xlink:title=" ">
<path fill="none" stroke="#63b8ff" d="M396.13,-140.88C404.2,-140.88 412.3,-140.88 420.27,-140.88"/>
<polygon fill="#63b8ff" stroke="#63b8ff" points="396.27,-137.38 386.27,-140.88 396.27,-144.38 396.27,-137.38"/>
</a>
</g>
</g>
</g>
</svg>
