<?xml version="1.0" encoding="UTF-8" standalone="no"?>
<!DOCTYPE svg PUBLIC "-//W3C//DTD SVG 1.1//EN"
 "http://www.w3.org/Graphics/SVG/1.1/DTD/svg11.dtd">
<!-- Generated by graphviz version 12.2.1 (20241206.2353)
 -->
<!-- Title: Graphical Class Hierarchy Pages: 1 -->
<svg width="534pt" height="158pt"
 viewBox="0.00 0.00 533.75 158.12" xmlns="http://www.w3.org/2000/svg" xmlns:xlink="http://www.w3.org/1999/xlink">
<g id="graph0" class="graph" transform="scale(1 1) rotate(0) translate(4 154.12)">
<title>Graphical Class Hierarchy</title>
<!-- Node0 -->
<g id="Node000000" class="node">
<title>Node0</title>
<g id="a_Node000000"><a xlink:href="classllzk_1_1component_1_1detail_1_1_field_read_op_generic_adaptor_base.html" target="_top" xlink:title=" ">
<polygon fill="white" stroke="#666666" points="169,-84.5 0,-84.5 0,-54 169,-54 169,-84.5"/>
<text text-anchor="start" x="8" y="-71" font-family="Helvetica,sans-Serif" font-size="10.00">llzk::component::detail</text>
<text text-anchor="middle" x="84.5" y="-59.75" font-family="Helvetica,sans-Serif" font-size="10.00">::FieldReadOpGenericAdaptorBase</text>
</a>
</g>
</g>
<!-- Node1 -->
<g id="Node000001" class="node">
<title>Node1</title>
<g id="a_Node000001"><a xlink:href="classllzk_1_1component_1_1_field_read_op_generic_adaptor.html" target="_top" xlink:title=" ">
<polygon fill="white" stroke="#666666" points="354.5,-150.12 205,-150.12 205,-108.38 354.5,-108.38 354.5,-150.12"/>
<text text-anchor="start" x="213" y="-136.62" font-family="Helvetica,sans-Serif" font-size="10.00">llzk::component::FieldRead</text>
<text text-anchor="start" x="213" y="-125.38" font-family="Helvetica,sans-Serif" font-size="10.00">OpGenericAdaptor&lt;::llvm</text>
<text text-anchor="middle" x="279.75" y="-114.12" font-family="Helvetica,sans-Serif" font-size="10.00">::ArrayRef&lt;::mlir::Attribute &gt; &gt;</text>
</a>
</g>
</g>
<!-- Node0&#45;&gt;Node1 -->
<g id="edge77_Node000000_Node000001" class="edge">
<title>Node0&#45;&gt;Node1</title>
<g id="a_edge77_Node000000_Node000001"><a xlink:title=" ">
<path fill="none" stroke="#63b8ff" d="M146.91,-88.32C166.98,-94.55 189.4,-101.51 209.98,-107.9"/>
<polygon fill="#63b8ff" stroke="#63b8ff" points="148.06,-85.01 137.47,-85.38 145.98,-91.69 148.06,-85.01"/>
</a>
</g>
</g>
<!-- Node2 -->
<g id="Node000002" class="node">
<title>Node2</title>
<g id="a_Node000002"><a xlink:href="classllzk_1_1component_1_1_field_read_op_generic_adaptor.html" target="_top" xlink:title=" ">
<polygon fill="white" stroke="#666666" points="347.38,-90.12 212.12,-90.12 212.12,-48.38 347.38,-48.38 347.38,-90.12"/>
<text text-anchor="start" x="220.12" y="-76.62" font-family="Helvetica,sans-Serif" font-size="10.00">llzk::component::FieldRead</text>
<text text-anchor="start" x="220.12" y="-65.38" font-family="Helvetica,sans-Serif" font-size="10.00">OpGenericAdaptor&lt;::mlir</text>
<text text-anchor="middle" x="279.75" y="-54.12" font-family="Helvetica,sans-Serif" font-size="10.00">::ValueRange &gt;</text>
</a>
</g>
</g>
<!-- Node0&#45;&gt;Node2 -->
<g id="edge78_Node000000_Node000002" class="edge">
<title>Node0&#45;&gt;Node2</title>
<g id="a_edge78_Node000000_Node000002"><a xlink:title=" ">
<path fill="none" stroke="#63b8ff" d="M180.76,-69.25C191.23,-69.25 201.73,-69.25 211.76,-69.25"/>
<polygon fill="#63b8ff" stroke="#63b8ff" points="180.93,-65.75 170.93,-69.25 180.93,-72.75 180.93,-65.75"/>
</a>
</g>
</g>
<!-- Node4 -->
<g id="Node000004" class="node">
<title>Node4</title>
<g id="a_Node000004"><a xlink:href="classllzk_1_1component_1_1_field_read_op_generic_adaptor.html" target="_top" xlink:title=" ">
<polygon fill="white" stroke="#666666" points="354.12,-30.5 205.38,-30.5 205.38,0 354.12,0 354.12,-30.5"/>
<text text-anchor="start" x="213.38" y="-17" font-family="Helvetica,sans-Serif" font-size="10.00">llzk::component::FieldRead</text>
<text text-anchor="middle" x="279.75" y="-5.75" font-family="Helvetica,sans-Serif" font-size="10.00">OpGenericAdaptor&lt; RangeT &gt;</text>
</a>
</g>
</g>
<!-- Node0&#45;&gt;Node4 -->
<g id="edge80_Node000000_Node000004" class="edge">
<title>Node0&#45;&gt;Node4</title>
<g id="a_edge80_Node000000_Node000004"><a xlink:title=" ">
<path fill="none" stroke="#63b8ff" d="M152.62,-50.49C175.4,-44.13 200.6,-37.09 222.45,-30.98"/>
<polygon fill="#63b8ff" stroke="#63b8ff" points="151.8,-47.09 143.11,-53.15 153.69,-53.83 151.8,-47.09"/>
</a>
</g>
</g>
<!-- Node3 -->
<g id="Node000003" class="node">
<title>Node3</title>
<g id="a_Node000003"><a xlink:href="classllzk_1_1component_1_1_field_read_op_adaptor.html" target="_top" xlink:title=" ">
<polygon fill="white" stroke="#666666" points="525.75,-84.5 390.5,-84.5 390.5,-54 525.75,-54 525.75,-84.5"/>
<text text-anchor="start" x="398.5" y="-71" font-family="Helvetica,sans-Serif" font-size="10.00">llzk::component::FieldRead</text>
<text text-anchor="middle" x="458.12" y="-59.75" font-family="Helvetica,sans-Serif" font-size="10.00">OpAdaptor</text>
</a>
</g>
</g>
<!-- Node2&#45;&gt;Node3 -->
<g id="edge79_Node000002_Node000003" class="edge">
<title>Node2&#45;&gt;Node3</title>
<g id="a_edge79_Node000002_Node000003"><a xlink:title=" ">
<path fill="none" stroke="#63b8ff" d="M358.92,-69.25C369.37,-69.25 380.01,-69.25 390.24,-69.25"/>
<polygon fill="#63b8ff" stroke="#63b8ff" points="359.19,-65.75 349.19,-69.25 359.19,-72.75 359.19,-65.75"/>
</a>
</g>
</g>
</g>
</svg>
