<?xml version="1.0" encoding="UTF-8" standalone="no"?>
<!DOCTYPE svg PUBLIC "-//W3C//DTD SVG 1.1//EN"
 "http://www.w3.org/Graphics/SVG/1.1/DTD/svg11.dtd">
<!-- Generated by graphviz version 12.2.1 (20241206.2353)
 -->
<!-- Title: Graphical Class Hierarchy Pages: 1 -->
<svg width="517pt" height="180pt"
 viewBox="0.00 0.00 517.25 180.38" xmlns="http://www.w3.org/2000/svg" xmlns:xlink="http://www.w3.org/1999/xlink">
<g id="graph0" class="graph" transform="scale(1 1) rotate(0) translate(4 176.38)">
<title>Graphical Class Hierarchy</title>
<!-- Node0 -->
<g id="Node000000" class="node">
<title>Node0</title>
<g id="a_Node000000"><a xlink:href="classllzk_1_1polymorphic_1_1detail_1_1_apply_map_op_generic_adaptor_base.html" target="_top" xlink:title=" ">
<polygon fill="white" stroke="#666666" points="191.5,-96.12 0,-96.12 0,-65.62 191.5,-65.62 191.5,-96.12"/>
<text text-anchor="start" x="8" y="-82.62" font-family="Helvetica,sans-Serif" font-size="10.00">llzk::polymorphic::</text>
<text text-anchor="middle" x="95.75" y="-71.38" font-family="Helvetica,sans-Serif" font-size="10.00">detail::ApplyMapOpGenericAdaptorBase</text>
</a>
</g>
</g>
<!-- Node1 -->
<g id="Node000001" class="node">
<title>Node1</title>
<g id="a_Node000001"><a xlink:href="classllzk_1_1polymorphic_1_1_apply_map_op_generic_adaptor.html" target="_top" xlink:title=" ">
<polygon fill="white" stroke="#666666" points="367.25,-172.38 227.5,-172.38 227.5,-119.38 367.25,-119.38 367.25,-172.38"/>
<text text-anchor="start" x="235.5" y="-158.88" font-family="Helvetica,sans-Serif" font-size="10.00">llzk::polymorphic::</text>
<text text-anchor="start" x="235.5" y="-147.62" font-family="Helvetica,sans-Serif" font-size="10.00">ApplyMapOpGenericAdaptor</text>
<text text-anchor="start" x="235.5" y="-136.38" font-family="Helvetica,sans-Serif" font-size="10.00">&lt;::llvm::ArrayRef&lt;::mlir</text>
<text text-anchor="middle" x="297.38" y="-125.12" font-family="Helvetica,sans-Serif" font-size="10.00">::Attribute &gt; &gt;</text>
</a>
</g>
</g>
<!-- Node0&#45;&gt;Node1 -->
<g id="edge201_Node000000_Node000001" class="edge">
<title>Node0&#45;&gt;Node1</title>
<g id="a_edge201_Node000000_Node000001"><a xlink:title=" ">
<path fill="none" stroke="#63b8ff" d="M155.81,-100.11C178.27,-107.42 204.06,-115.82 227.37,-123.41"/>
<polygon fill="#63b8ff" stroke="#63b8ff" points="157.11,-96.85 146.51,-97.08 154.94,-103.5 157.11,-96.85"/>
</a>
</g>
</g>
<!-- Node2 -->
<g id="Node000002" class="node">
<title>Node2</title>
<g id="a_Node000002"><a xlink:href="classllzk_1_1polymorphic_1_1_apply_map_op_generic_adaptor.html" target="_top" xlink:title=" ">
<polygon fill="white" stroke="#666666" points="367.25,-101.75 227.5,-101.75 227.5,-60 367.25,-60 367.25,-101.75"/>
<text text-anchor="start" x="235.5" y="-88.25" font-family="Helvetica,sans-Serif" font-size="10.00">llzk::polymorphic::</text>
<text text-anchor="start" x="235.5" y="-77" font-family="Helvetica,sans-Serif" font-size="10.00">ApplyMapOpGenericAdaptor</text>
<text text-anchor="middle" x="297.38" y="-65.75" font-family="Helvetica,sans-Serif" font-size="10.00">&lt;::mlir::ValueRange &gt;</text>
</a>
</g>
</g>
<!-- Node0&#45;&gt;Node2 -->
<g id="edge202_Node000000_Node000002" class="edge">
<title>Node0&#45;&gt;Node2</title>
<g id="a_edge202_Node000000_Node000002"><a xlink:title=" ">
<path fill="none" stroke="#63b8ff" d="M203.28,-80.88C211.32,-80.88 219.31,-80.88 227.03,-80.88"/>
<polygon fill="#63b8ff" stroke="#63b8ff" points="203.4,-77.38 193.4,-80.88 203.4,-84.38 203.4,-77.38"/>
</a>
</g>
</g>
<!-- Node4 -->
<g id="Node000004" class="node">
<title>Node4</title>
<g id="a_Node000004"><a xlink:href="classllzk_1_1polymorphic_1_1_apply_map_op_generic_adaptor.html" target="_top" xlink:title=" ">
<polygon fill="white" stroke="#666666" points="367.25,-41.75 227.5,-41.75 227.5,0 367.25,0 367.25,-41.75"/>
<text text-anchor="start" x="235.5" y="-28.25" font-family="Helvetica,sans-Serif" font-size="10.00">llzk::polymorphic::</text>
<text text-anchor="start" x="235.5" y="-17" font-family="Helvetica,sans-Serif" font-size="10.00">ApplyMapOpGenericAdaptor</text>
<text text-anchor="middle" x="297.38" y="-5.75" font-family="Helvetica,sans-Serif" font-size="10.00">&lt; RangeT &gt;</text>
</a>
</g>
</g>
<!-- Node0&#45;&gt;Node4 -->
<g id="edge204_Node000000_Node000004" class="edge">
<title>Node0&#45;&gt;Node4</title>
<g id="a_edge204_Node000000_Node000004"><a xlink:title=" ">
<path fill="none" stroke="#63b8ff" d="M159.88,-61.9C181.3,-55.46 205.34,-48.24 227.21,-41.66"/>
<polygon fill="#63b8ff" stroke="#63b8ff" points="158.96,-58.52 150.39,-64.75 160.97,-65.23 158.96,-58.52"/>
</a>
</g>
</g>
<!-- Node3 -->
<g id="Node000003" class="node">
<title>Node3</title>
<g id="a_Node000003"><a xlink:href="classllzk_1_1polymorphic_1_1_apply_map_op_adaptor.html" target="_top" xlink:title=" ">
<polygon fill="white" stroke="#666666" points="509.25,-96.12 403.25,-96.12 403.25,-65.62 509.25,-65.62 509.25,-96.12"/>
<text text-anchor="start" x="411.25" y="-82.62" font-family="Helvetica,sans-Serif" font-size="10.00">llzk::polymorphic::</text>
<text text-anchor="middle" x="456.25" y="-71.38" font-family="Helvetica,sans-Serif" font-size="10.00">ApplyMapOpAdaptor</text>
</a>
</g>
</g>
<!-- Node2&#45;&gt;Node3 -->
<g id="edge203_Node000002_Node000003" class="edge">
<title>Node2&#45;&gt;Node3</title>
<g id="a_edge203_Node000002_Node000003"><a xlink:title=" ">
<path fill="none" stroke="#63b8ff" d="M379.05,-80.88C387.13,-80.88 395.18,-80.88 402.85,-80.88"/>
<polygon fill="#63b8ff" stroke="#63b8ff" points="379.15,-77.38 369.15,-80.88 379.15,-84.38 379.15,-77.38"/>
</a>
</g>
</g>
</g>
</svg>
