<?xml version="1.0" encoding="UTF-8" standalone="no"?>
<!DOCTYPE svg PUBLIC "-//W3C//DTD SVG 1.1//EN"
 "http://www.w3.org/Graphics/SVG/1.1/DTD/svg11.dtd">
<!-- Generated by graphviz version 12.2.1 (20241206.2353)
 -->
<!-- Title: Graphical Class Hierarchy Pages: 1 -->
<svg width="565pt" height="799pt"
 viewBox="0.00 0.00 565.25 799.12" xmlns="http://www.w3.org/2000/svg" xmlns:xlink="http://www.w3.org/1999/xlink">
<g id="graph0" class="graph" transform="scale(1 1) rotate(0) translate(4 795.12)">
<title>Graphical Class Hierarchy</title>
<!-- Node0 -->
<g id="Node000000" class="node">
<title>Node0</title>
<g id="a_Node000000"><a xlink:title=" ">
<polygon fill="#e0e0e0" stroke="#999999" points="102.25,-399.5 0,-399.5 0,-380.25 102.25,-380.25 102.25,-399.5"/>
<text text-anchor="middle" x="51.12" y="-386" font-family="Helvetica,sans-Serif" font-size="10.00">mlir::OperationPass</text>
</a>
</g>
</g>
<!-- Node1 -->
<g id="Node000001" class="node">
<title>Node1</title>
<g id="a_Node000001"><a xlink:href="classllzk_1_1impl_1_1_call_graph_printer_pass_base.html" target="_top" xlink:title=" ">
<polygon fill="white" stroke="#666666" points="337.25,-791.12 163.75,-791.12 163.75,-760.62 337.25,-760.62 337.25,-791.12"/>
<text text-anchor="start" x="171.75" y="-777.62" font-family="Helvetica,sans-Serif" font-size="10.00">llzk::impl::CallGraphPrinter</text>
<text text-anchor="middle" x="250.5" y="-766.38" font-family="Helvetica,sans-Serif" font-size="10.00">PassBase&lt; CallGraphPrinterPass &gt;</text>
</a>
</g>
</g>
<!-- Node0&#45;&gt;Node1 -->
<g id="edge292_Node000000_Node000001" class="edge">
<title>Node0&#45;&gt;Node1</title>
<g id="a_edge292_Node000000_Node000001"><a xlink:title=" ">
<path fill="none" stroke="#63b8ff" d="M54.21,-410.91C61.58,-480.75 88.6,-703.26 138.25,-751.88 145.38,-758.86 154.03,-764.02 163.31,-767.8"/>
<polygon fill="#63b8ff" stroke="#63b8ff" points="57.72,-410.82 53.22,-401.23 50.76,-411.53 57.72,-410.82"/>
</a>
</g>
</g>
<!-- Node3 -->
<g id="Node000003" class="node">
<title>Node3</title>
<g id="a_Node000003"><a xlink:href="classllzk_1_1impl_1_1_call_graph_s_c_cs_printer_pass_base.html" target="_top" xlink:title=" ">
<polygon fill="white" stroke="#666666" points="335,-742.75 166,-742.75 166,-701 335,-701 335,-742.75"/>
<text text-anchor="start" x="174" y="-729.25" font-family="Helvetica,sans-Serif" font-size="10.00">llzk::impl::CallGraphSCCs</text>
<text text-anchor="start" x="174" y="-718" font-family="Helvetica,sans-Serif" font-size="10.00">PrinterPassBase&lt; CallGraphSCCs</text>
<text text-anchor="middle" x="250.5" y="-706.75" font-family="Helvetica,sans-Serif" font-size="10.00">PrinterPass &gt;</text>
</a>
</g>
</g>
<!-- Node0&#45;&gt;Node3 -->
<g id="edge294_Node000000_Node000003" class="edge">
<title>Node0&#45;&gt;Node3</title>
<g id="a_edge294_Node000000_Node000003"><a xlink:title=" ">
<path fill="none" stroke="#63b8ff" d="M51.54,-411.29C51.27,-466.21 58.45,-613.21 138.25,-691.88 146.01,-699.53 155.51,-705.28 165.66,-709.6"/>
<polygon fill="#63b8ff" stroke="#63b8ff" points="55.04,-411.51 51.69,-401.46 48.04,-411.4 55.04,-411.51"/>
</a>
</g>
</g>
<!-- Node5 -->
<g id="Node000005" class="node">
<title>Node5</title>
<g id="a_Node000005"><a xlink:href="classllzk_1_1impl_1_1_constraint_dependency_graph_printer_pass_base.html" target="_top" xlink:title=" ">
<polygon fill="white" stroke="#666666" points="362.75,-682.75 138.25,-682.75 138.25,-641 362.75,-641 362.75,-682.75"/>
<text text-anchor="start" x="146.25" y="-669.25" font-family="Helvetica,sans-Serif" font-size="10.00">llzk::impl::ConstraintDependency</text>
<text text-anchor="start" x="146.25" y="-658" font-family="Helvetica,sans-Serif" font-size="10.00">GraphPrinterPassBase&lt; ConstraintDependency</text>
<text text-anchor="middle" x="250.5" y="-646.75" font-family="Helvetica,sans-Serif" font-size="10.00">GraphPrinterPass &gt;</text>
</a>
</g>
</g>
<!-- Node0&#45;&gt;Node5 -->
<g id="edge296_Node000000_Node000005" class="edge">
<title>Node0&#45;&gt;Node5</title>
<g id="a_edge296_Node000000_Node000005"><a xlink:title=" ">
<path fill="none" stroke="#63b8ff" d="M53.33,-411.38C57.15,-458.52 73,-571.55 138.25,-631.88 141.78,-635.13 145.62,-638.05 149.69,-640.65"/>
<polygon fill="#63b8ff" stroke="#63b8ff" points="56.82,-411.17 52.64,-401.44 49.84,-411.65 56.82,-411.17"/>
</a>
</g>
</g>
<!-- Node7 -->
<g id="Node000007" class="node">
<title>Node7</title>
<g id="a_Node000007"><a xlink:href="classllzk_1_1impl_1_1_interval_analysis_printer_pass_base.html" target="_top" xlink:title=" ">
<polygon fill="white" stroke="#666666" points="334.62,-622.75 166.38,-622.75 166.38,-581 334.62,-581 334.62,-622.75"/>
<text text-anchor="start" x="174.38" y="-609.25" font-family="Helvetica,sans-Serif" font-size="10.00">llzk::impl::IntervalAnalysis</text>
<text text-anchor="start" x="174.38" y="-598" font-family="Helvetica,sans-Serif" font-size="10.00">PrinterPassBase&lt; IntervalAnalysis</text>
<text text-anchor="middle" x="250.5" y="-586.75" font-family="Helvetica,sans-Serif" font-size="10.00">PrinterPass &gt;</text>
</a>
</g>
</g>
<!-- Node0&#45;&gt;Node7 -->
<g id="edge298_Node000000_Node000007" class="edge">
<title>Node0&#45;&gt;Node7</title>
<g id="a_edge298_Node000000_Node000007"><a xlink:title=" ">
<path fill="none" stroke="#63b8ff" d="M56.12,-411.15C64.42,-449.27 87.16,-529.18 138.25,-571.88 146.39,-578.67 155.92,-583.94 165.93,-588.02"/>
<polygon fill="#63b8ff" stroke="#63b8ff" points="59.57,-410.53 54.15,-401.43 52.71,-411.92 59.57,-410.53"/>
</a>
</g>
</g>
<!-- Node9 -->
<g id="Node000009" class="node">
<title>Node9</title>
<g id="a_Node000009"><a xlink:href="classllzk_1_1array_1_1impl_1_1_array_to_scalar_pass_base.html" target="_top" xlink:title=" ">
<polygon fill="white" stroke="#666666" points="311.75,-562.75 189.25,-562.75 189.25,-521 311.75,-521 311.75,-562.75"/>
<text text-anchor="start" x="197.25" y="-549.25" font-family="Helvetica,sans-Serif" font-size="10.00">llzk::array::impl::</text>
<text text-anchor="start" x="197.25" y="-538" font-family="Helvetica,sans-Serif" font-size="10.00">ArrayToScalarPassBase</text>
<text text-anchor="middle" x="250.5" y="-526.75" font-family="Helvetica,sans-Serif" font-size="10.00">&lt; DerivedT &gt;</text>
</a>
</g>
</g>
<!-- Node0&#45;&gt;Node9 -->
<g id="edge300_Node000000_Node000009" class="edge">
<title>Node0&#45;&gt;Node9</title>
<g id="a_edge300_Node000000_Node000009"><a xlink:title=" ">
<path fill="none" stroke="#63b8ff" d="M60.98,-410.17C73.94,-437.47 100.68,-485.63 138.25,-511.88 153.17,-522.3 171.54,-529.1 189.03,-533.54"/>
<polygon fill="#63b8ff" stroke="#63b8ff" points="64.24,-408.89 56.9,-401.24 57.87,-411.79 64.24,-408.89"/>
</a>
</g>
</g>
<!-- Node10 -->
<g id="Node000010" class="node">
<title>Node10</title>
<g id="a_Node000010"><a xlink:href="classllzk_1_1impl_1_1_call_graph_printer_pass_base.html" target="_top" xlink:title=" ">
<polygon fill="white" stroke="#666666" points="317,-503.12 184,-503.12 184,-472.62 317,-472.62 317,-503.12"/>
<text text-anchor="start" x="192" y="-489.62" font-family="Helvetica,sans-Serif" font-size="10.00">llzk::impl::CallGraphPrinter</text>
<text text-anchor="middle" x="250.5" y="-478.38" font-family="Helvetica,sans-Serif" font-size="10.00">PassBase&lt; DerivedT &gt;</text>
</a>
</g>
</g>
<!-- Node0&#45;&gt;Node10 -->
<g id="edge301_Node000000_Node000010" class="edge">
<title>Node0&#45;&gt;Node10</title>
<g id="a_edge301_Node000000_Node000010"><a xlink:title=" ">
<path fill="none" stroke="#63b8ff" d="M68.28,-407.86C84.37,-424.64 110.61,-449.11 138.25,-462.88 152.25,-469.85 168.2,-474.9 183.57,-478.55"/>
<polygon fill="#63b8ff" stroke="#63b8ff" points="71.25,-405.91 61.87,-400.98 66.13,-410.68 71.25,-405.91"/>
</a>
</g>
</g>
<!-- Node11 -->
<g id="Node000011" class="node">
<title>Node11</title>
<g id="a_Node000011"><a xlink:href="classllzk_1_1impl_1_1_call_graph_s_c_cs_printer_pass_base.html" target="_top" xlink:title=" ">
<polygon fill="white" stroke="#666666" points="324.12,-454.12 176.88,-454.12 176.88,-423.62 324.12,-423.62 324.12,-454.12"/>
<text text-anchor="start" x="184.88" y="-440.62" font-family="Helvetica,sans-Serif" font-size="10.00">llzk::impl::CallGraphSCCs</text>
<text text-anchor="middle" x="250.5" y="-429.38" font-family="Helvetica,sans-Serif" font-size="10.00">PrinterPassBase&lt; DerivedT &gt;</text>
</a>
</g>
</g>
<!-- Node0&#45;&gt;Node11 -->
<g id="edge302_Node000000_Node000011" class="edge">
<title>Node0&#45;&gt;Node11</title>
<g id="a_edge302_Node000000_Node000011"><a xlink:title=" ">
<path fill="none" stroke="#63b8ff" d="M97.87,-403.09C110.88,-406.72 125.09,-410.57 138.25,-413.88 150.73,-417.01 164.04,-420.17 176.96,-423.13"/>
<polygon fill="#63b8ff" stroke="#63b8ff" points="98.83,-399.72 88.26,-400.38 96.93,-406.46 98.83,-399.72"/>
</a>
</g>
</g>
<!-- Node12 -->
<g id="Node000012" class="node">
<title>Node12</title>
<g id="a_Node000012"><a xlink:href="classllzk_1_1impl_1_1_constraint_dependency_graph_printer_pass_base.html" target="_top" xlink:title=" ">
<polygon fill="white" stroke="#666666" points="337.25,-405.12 163.75,-405.12 163.75,-374.62 337.25,-374.62 337.25,-405.12"/>
<text text-anchor="start" x="171.75" y="-391.62" font-family="Helvetica,sans-Serif" font-size="10.00">llzk::impl::ConstraintDependency</text>
<text text-anchor="middle" x="250.5" y="-380.38" font-family="Helvetica,sans-Serif" font-size="10.00">GraphPrinterPassBase&lt; DerivedT &gt;</text>
</a>
</g>
</g>
<!-- Node0&#45;&gt;Node12 -->
<g id="edge303_Node000000_Node000012" class="edge">
<title>Node0&#45;&gt;Node12</title>
<g id="a_edge303_Node000000_Node000012"><a xlink:title=" ">
<path fill="none" stroke="#63b8ff" d="M113.85,-389.88C129.57,-389.88 146.74,-389.88 163.43,-389.88"/>
<polygon fill="#63b8ff" stroke="#63b8ff" points="114.21,-386.38 104.21,-389.88 114.21,-393.38 114.21,-386.38"/>
</a>
</g>
</g>
<!-- Node13 -->
<g id="Node000013" class="node">
<title>Node13</title>
<g id="a_Node000013"><a xlink:href="classllzk_1_1impl_1_1_field_write_validator_pass_base.html" target="_top" xlink:title=" ">
<polygon fill="white" stroke="#666666" points="321.5,-356.12 179.5,-356.12 179.5,-325.62 321.5,-325.62 321.5,-356.12"/>
<text text-anchor="start" x="187.5" y="-342.62" font-family="Helvetica,sans-Serif" font-size="10.00">llzk::impl::FieldWriteValidator</text>
<text text-anchor="middle" x="250.5" y="-331.38" font-family="Helvetica,sans-Serif" font-size="10.00">PassBase&lt; DerivedT &gt;</text>
</a>
</g>
</g>
<!-- Node0&#45;&gt;Node13 -->
<g id="edge304_Node000000_Node000013" class="edge">
<title>Node0&#45;&gt;Node13</title>
<g id="a_edge304_Node000000_Node000013"><a xlink:title=" ">
<path fill="none" stroke="#63b8ff" d="M97.87,-376.66C110.88,-373.03 125.09,-369.18 138.25,-365.88 151.4,-362.57 165.48,-359.24 179.05,-356.14"/>
<polygon fill="#63b8ff" stroke="#63b8ff" points="96.93,-373.29 88.26,-379.37 98.83,-380.03 96.93,-373.29"/>
</a>
</g>
</g>
<!-- Node14 -->
<g id="Node000014" class="node">
<title>Node14</title>
<g id="a_Node000014"><a xlink:href="classllzk_1_1impl_1_1_interval_analysis_printer_pass_base.html" target="_top" xlink:title=" ">
<polygon fill="white" stroke="#666666" points="324.12,-307.12 176.88,-307.12 176.88,-276.62 324.12,-276.62 324.12,-307.12"/>
<text text-anchor="start" x="184.88" y="-293.62" font-family="Helvetica,sans-Serif" font-size="10.00">llzk::impl::IntervalAnalysis</text>
<text text-anchor="middle" x="250.5" y="-282.38" font-family="Helvetica,sans-Serif" font-size="10.00">PrinterPassBase&lt; DerivedT &gt;</text>
</a>
</g>
</g>
<!-- Node0&#45;&gt;Node14 -->
<g id="edge305_Node000000_Node000014" class="edge">
<title>Node0&#45;&gt;Node14</title>
<g id="a_edge305_Node000000_Node000014"><a xlink:title=" ">
<path fill="none" stroke="#63b8ff" d="M68.28,-371.89C84.37,-355.11 110.61,-330.64 138.25,-316.88 150.12,-310.96 163.4,-306.43 176.54,-302.97"/>
<polygon fill="#63b8ff" stroke="#63b8ff" points="66.13,-369.07 61.87,-378.77 71.25,-373.84 66.13,-369.07"/>
</a>
</g>
</g>
<!-- Node15 -->
<g id="Node000015" class="node">
<title>Node15</title>
<g id="a_Node000015"><a xlink:href="classllzk_1_1impl_1_1_redundant_operation_elimination_pass_base.html" target="_top" xlink:title=" ">
<polygon fill="white" stroke="#666666" points="333.88,-258.12 167.12,-258.12 167.12,-227.62 333.88,-227.62 333.88,-258.12"/>
<text text-anchor="start" x="175.12" y="-244.62" font-family="Helvetica,sans-Serif" font-size="10.00">llzk::impl::RedundantOperation</text>
<text text-anchor="middle" x="250.5" y="-233.38" font-family="Helvetica,sans-Serif" font-size="10.00">EliminationPassBase&lt; DerivedT &gt;</text>
</a>
</g>
</g>
<!-- Node0&#45;&gt;Node15 -->
<g id="edge306_Node000000_Node000015" class="edge">
<title>Node0&#45;&gt;Node15</title>
<g id="a_edge306_Node000000_Node000015"><a xlink:title=" ">
<path fill="none" stroke="#63b8ff" d="M60.82,-369.35C73.6,-341.78 100.14,-293.32 138.25,-267.88 146.89,-262.11 156.67,-257.65 166.75,-254.21"/>
<polygon fill="#63b8ff" stroke="#63b8ff" points="57.67,-367.82 56.81,-378.38 64.07,-370.66 57.67,-367.82"/>
</a>
</g>
</g>
<!-- Node16 -->
<g id="Node000016" class="node">
<title>Node16</title>
<g id="a_Node000016"><a xlink:href="classllzk_1_1impl_1_1_redundant_read_and_write_elimination_pass_base.html" target="_top" xlink:title=" ">
<polygon fill="white" stroke="#666666" points="324.88,-209.75 176.12,-209.75 176.12,-168 324.88,-168 324.88,-209.75"/>
<text text-anchor="start" x="184.12" y="-196.25" font-family="Helvetica,sans-Serif" font-size="10.00">llzk::impl::RedundantRead</text>
<text text-anchor="start" x="184.12" y="-185" font-family="Helvetica,sans-Serif" font-size="10.00">AndWriteEliminationPassBase</text>
<text text-anchor="middle" x="250.5" y="-173.75" font-family="Helvetica,sans-Serif" font-size="10.00">&lt; DerivedT &gt;</text>
</a>
</g>
</g>
<!-- Node0&#45;&gt;Node16 -->
<g id="edge307_Node000000_Node000016" class="edge">
<title>Node0&#45;&gt;Node16</title>
<g id="a_edge307_Node000000_Node000016"><a xlink:title=" ">
<path fill="none" stroke="#63b8ff" d="M56.76,-368.88C65.88,-332.66 89.62,-258.51 138.25,-218.88 149.1,-210.03 162.34,-203.78 175.85,-199.36"/>
<polygon fill="#63b8ff" stroke="#63b8ff" points="53.38,-367.98 54.48,-378.52 60.19,-369.59 53.38,-367.98"/>
</a>
</g>
</g>
<!-- Node17 -->
<g id="Node000017" class="node">
<title>Node17</title>
<g id="a_Node000017"><a xlink:href="classllzk_1_1impl_1_1_unused_declaration_elimination_pass_base.html" target="_top" xlink:title=" ">
<polygon fill="white" stroke="#666666" points="333.88,-150.12 167.12,-150.12 167.12,-119.62 333.88,-119.62 333.88,-150.12"/>
<text text-anchor="start" x="175.12" y="-136.62" font-family="Helvetica,sans-Serif" font-size="10.00">llzk::impl::UnusedDeclaration</text>
<text text-anchor="middle" x="250.5" y="-125.38" font-family="Helvetica,sans-Serif" font-size="10.00">EliminationPassBase&lt; DerivedT &gt;</text>
</a>
</g>
</g>
<!-- Node0&#45;&gt;Node17 -->
<g id="edge308_Node000000_Node000017" class="edge">
<title>Node0&#45;&gt;Node17</title>
<g id="a_edge308_Node000000_Node000017"><a xlink:title=" ">
<path fill="none" stroke="#63b8ff" d="M53.46,-368.8C57.55,-323.1 73.89,-214.56 138.25,-158.88 146.47,-151.77 156.29,-146.6 166.65,-142.88"/>
<polygon fill="#63b8ff" stroke="#63b8ff" points="49.98,-368.4 52.71,-378.64 56.96,-368.94 49.98,-368.4"/>
</a>
</g>
</g>
<!-- Node18 -->
<g id="Node000018" class="node">
<title>Node18</title>
<g id="a_Node000018"><a xlink:href="classllzk_1_1include_1_1impl_1_1_inline_includes_pass_base.html" target="_top" xlink:title=" ">
<polygon fill="white" stroke="#666666" points="314,-101.75 187,-101.75 187,-60 314,-60 314,-101.75"/>
<text text-anchor="start" x="195" y="-88.25" font-family="Helvetica,sans-Serif" font-size="10.00">llzk::include::impl</text>
<text text-anchor="start" x="195" y="-77" font-family="Helvetica,sans-Serif" font-size="10.00">::InlineIncludesPassBase</text>
<text text-anchor="middle" x="250.5" y="-65.75" font-family="Helvetica,sans-Serif" font-size="10.00">&lt; DerivedT &gt;</text>
</a>
</g>
</g>
<!-- Node0&#45;&gt;Node18 -->
<g id="edge309_Node000000_Node000018" class="edge">
<title>Node0&#45;&gt;Node18</title>
<g id="a_edge309_Node000000_Node000018"><a xlink:title=" ">
<path fill="none" stroke="#63b8ff" d="M52.13,-368.7C53.35,-316.86 63.92,-182.58 138.25,-110.88 151.35,-98.24 169.2,-90.79 186.76,-86.45"/>
<polygon fill="#63b8ff" stroke="#63b8ff" points="48.64,-368.46 52.01,-378.5 55.64,-368.55 48.64,-368.46"/>
</a>
</g>
</g>
<!-- Node19 -->
<g id="Node000019" class="node">
<title>Node19</title>
<g id="a_Node000019"><a xlink:href="classllzk_1_1polymorphic_1_1impl_1_1_flattening_pass_base.html" target="_top" xlink:title=" ">
<polygon fill="white" stroke="#666666" points="314.38,-41.75 186.62,-41.75 186.62,0 314.38,0 314.38,-41.75"/>
<text text-anchor="start" x="194.62" y="-28.25" font-family="Helvetica,sans-Serif" font-size="10.00">llzk::polymorphic::</text>
<text text-anchor="start" x="194.62" y="-17" font-family="Helvetica,sans-Serif" font-size="10.00">impl::FlatteningPassBase</text>
<text text-anchor="middle" x="250.5" y="-5.75" font-family="Helvetica,sans-Serif" font-size="10.00">&lt; DerivedT &gt;</text>
</a>
</g>
</g>
<!-- Node0&#45;&gt;Node19 -->
<g id="edge310_Node000000_Node000019" class="edge">
<title>Node0&#45;&gt;Node19</title>
<g id="a_edge310_Node000000_Node000019"><a xlink:title=" ">
<path fill="none" stroke="#63b8ff" d="M54.67,-368.98C63.18,-302.42 92.7,-97.09 138.25,-50.88 151.03,-37.91 168.78,-30.37 186.35,-26.04"/>
<polygon fill="#63b8ff" stroke="#63b8ff" points="51.24,-368.18 53.47,-378.53 58.19,-369.04 51.24,-368.18"/>
</a>
</g>
</g>
<!-- Node2 -->
<g id="Node000002" class="node">
<title>Node2</title>
<g id="a_Node000002"><a xlink:href="classllzk_1_1_call_graph_printer_pass.html" target="_top" xlink:title=" ">
<polygon fill="white" stroke="#666666" points="543.75,-785.5 412.25,-785.5 412.25,-766.25 543.75,-766.25 543.75,-785.5"/>
<text text-anchor="middle" x="478" y="-772" font-family="Helvetica,sans-Serif" font-size="10.00">llzk::CallGraphPrinterPass</text>
</a>
</g>
</g>
<!-- Node1&#45;&gt;Node2 -->
<g id="edge293_Node000001_Node000002" class="edge">
<title>Node1&#45;&gt;Node2</title>
<g id="a_edge293_Node000001_Node000002"><a xlink:title=" ">
<path fill="none" stroke="#63b8ff" d="M349.08,-775.88C370.31,-775.88 392.27,-775.88 411.87,-775.88"/>
<polygon fill="#63b8ff" stroke="#63b8ff" points="349.23,-772.38 339.23,-775.88 349.23,-779.38 349.23,-772.38"/>
</a>
</g>
</g>
<!-- Node4 -->
<g id="Node000004" class="node">
<title>Node4</title>
<g id="a_Node000004"><a xlink:href="classllzk_1_1_call_graph_s_c_cs_printer_pass.html" target="_top" xlink:title=" ">
<polygon fill="white" stroke="#666666" points="557.25,-731.5 398.75,-731.5 398.75,-712.25 557.25,-712.25 557.25,-731.5"/>
<text text-anchor="middle" x="478" y="-718" font-family="Helvetica,sans-Serif" font-size="10.00">llzk::CallGraphSCCsPrinterPass</text>
</a>
</g>
</g>
<!-- Node3&#45;&gt;Node4 -->
<g id="edge295_Node000003_Node000004" class="edge">
<title>Node3&#45;&gt;Node4</title>
<g id="a_edge295_Node000003_Node000004"><a xlink:title=" ">
<path fill="none" stroke="#63b8ff" d="M346.72,-721.88C364,-721.88 381.84,-721.88 398.56,-721.88"/>
<polygon fill="#63b8ff" stroke="#63b8ff" points="346.98,-718.38 336.98,-721.88 346.98,-725.38 346.98,-718.38"/>
</a>
</g>
</g>
<!-- Node6 -->
<g id="Node000006" class="node">
<title>Node6</title>
<g id="a_Node000006"><a xlink:href="classllzk_1_1_constraint_dependency_graph_printer_pass.html" target="_top" xlink:title=" ">
<polygon fill="white" stroke="#666666" points="546.38,-677.12 409.62,-677.12 409.62,-646.62 546.38,-646.62 546.38,-677.12"/>
<text text-anchor="start" x="417.62" y="-663.62" font-family="Helvetica,sans-Serif" font-size="10.00">llzk::ConstraintDependency</text>
<text text-anchor="middle" x="478" y="-652.38" font-family="Helvetica,sans-Serif" font-size="10.00">GraphPrinterPass</text>
</a>
</g>
</g>
<!-- Node5&#45;&gt;Node6 -->
<g id="edge297_Node000005_Node000006" class="edge">
<title>Node5&#45;&gt;Node6</title>
<g id="a_edge297_Node000005_Node000006"><a xlink:title=" ">
<path fill="none" stroke="#63b8ff" d="M374.08,-661.88C386.18,-661.88 398.14,-661.88 409.38,-661.88"/>
<polygon fill="#63b8ff" stroke="#63b8ff" points="374.44,-658.38 364.44,-661.88 374.44,-665.38 374.44,-658.38"/>
</a>
</g>
</g>
<!-- Node8 -->
<g id="Node000008" class="node">
<title>Node8</title>
<g id="a_Node000008"><a xlink:href="classllzk_1_1_interval_analysis_printer_pass.html" target="_top" xlink:title=" ">
<polygon fill="white" stroke="#666666" points="556.88,-611.5 399.12,-611.5 399.12,-592.25 556.88,-592.25 556.88,-611.5"/>
<text text-anchor="middle" x="478" y="-598" font-family="Helvetica,sans-Serif" font-size="10.00">llzk::IntervalAnalysisPrinterPass</text>
</a>
</g>
</g>
<!-- Node7&#45;&gt;Node8 -->
<g id="edge299_Node000007_Node000008" class="edge">
<title>Node7&#45;&gt;Node8</title>
<g id="a_edge299_Node000007_Node000008"><a xlink:title=" ">
<path fill="none" stroke="#63b8ff" d="M346.24,-601.88C363.78,-601.88 381.91,-601.88 398.88,-601.88"/>
<polygon fill="#63b8ff" stroke="#63b8ff" points="346.34,-598.38 336.34,-601.88 346.34,-605.38 346.34,-598.38"/>
</a>
</g>
</g>
</g>
</svg>
