<?xml version="1.0" encoding="UTF-8" standalone="no"?>
<!DOCTYPE svg PUBLIC "-//W3C//DTD SVG 1.1//EN"
 "http://www.w3.org/Graphics/SVG/1.1/DTD/svg11.dtd">
<!-- Generated by graphviz version 12.2.1 (20241206.2353)
 -->
<!-- Title: Graphical Class Hierarchy Pages: 1 -->
<svg width="524pt" height="158pt"
 viewBox="0.00 0.00 524.00 158.12" xmlns="http://www.w3.org/2000/svg" xmlns:xlink="http://www.w3.org/1999/xlink">
<g id="graph0" class="graph" transform="scale(1 1) rotate(0) translate(4 154.12)">
<title>Graphical Class Hierarchy</title>
<!-- Node0 -->
<g id="Node000000" class="node">
<title>Node0</title>
<g id="a_Node000000"><a xlink:href="classllzk_1_1array_1_1detail_1_1_create_array_op_generic_adaptor_base.html" target="_top" xlink:title=" ">
<polygon fill="white" stroke="#666666" points="177.25,-84.5 0,-84.5 0,-54 177.25,-54 177.25,-84.5"/>
<text text-anchor="start" x="8" y="-71" font-family="Helvetica,sans-Serif" font-size="10.00">llzk::array::detail</text>
<text text-anchor="middle" x="88.62" y="-59.75" font-family="Helvetica,sans-Serif" font-size="10.00">::CreateArrayOpGenericAdaptorBase</text>
</a>
</g>
</g>
<!-- Node1 -->
<g id="Node000001" class="node">
<title>Node1</title>
<g id="a_Node000001"><a xlink:href="classllzk_1_1array_1_1_create_array_op_generic_adaptor.html" target="_top" xlink:title=" ">
<polygon fill="white" stroke="#666666" points="362.75,-150.12 213.25,-150.12 213.25,-108.38 362.75,-108.38 362.75,-150.12"/>
<text text-anchor="start" x="221.25" y="-136.62" font-family="Helvetica,sans-Serif" font-size="10.00">llzk::array::CreateArray</text>
<text text-anchor="start" x="221.25" y="-125.38" font-family="Helvetica,sans-Serif" font-size="10.00">OpGenericAdaptor&lt;::llvm</text>
<text text-anchor="middle" x="288" y="-114.12" font-family="Helvetica,sans-Serif" font-size="10.00">::ArrayRef&lt;::mlir::Attribute &gt; &gt;</text>
</a>
</g>
</g>
<!-- Node0&#45;&gt;Node1 -->
<g id="edge17_Node000000_Node000001" class="edge">
<title>Node0&#45;&gt;Node1</title>
<g id="a_edge17_Node000000_Node000001"><a xlink:title=" ">
<path fill="none" stroke="#63b8ff" d="M152.06,-88.23C172.63,-94.48 195.65,-101.48 216.77,-107.9"/>
<polygon fill="#63b8ff" stroke="#63b8ff" points="153.26,-84.94 142.67,-85.38 151.22,-91.63 153.26,-84.94"/>
</a>
</g>
</g>
<!-- Node2 -->
<g id="Node000002" class="node">
<title>Node2</title>
<g id="a_Node000002"><a xlink:href="classllzk_1_1array_1_1_create_array_op_generic_adaptor.html" target="_top" xlink:title=" ">
<polygon fill="white" stroke="#666666" points="350,-90.12 226,-90.12 226,-48.38 350,-48.38 350,-90.12"/>
<text text-anchor="start" x="234" y="-76.62" font-family="Helvetica,sans-Serif" font-size="10.00">llzk::array::CreateArray</text>
<text text-anchor="start" x="234" y="-65.38" font-family="Helvetica,sans-Serif" font-size="10.00">OpGenericAdaptor&lt;::mlir</text>
<text text-anchor="middle" x="288" y="-54.12" font-family="Helvetica,sans-Serif" font-size="10.00">::ValueRange &gt;</text>
</a>
</g>
</g>
<!-- Node0&#45;&gt;Node2 -->
<g id="edge18_Node000000_Node000002" class="edge">
<title>Node0&#45;&gt;Node2</title>
<g id="a_edge18_Node000000_Node000002"><a xlink:title=" ">
<path fill="none" stroke="#63b8ff" d="M189.1,-69.25C201.6,-69.25 214.08,-69.25 225.74,-69.25"/>
<polygon fill="#63b8ff" stroke="#63b8ff" points="189.15,-65.75 179.15,-69.25 189.15,-72.75 189.15,-65.75"/>
</a>
</g>
</g>
<!-- Node4 -->
<g id="Node000004" class="node">
<title>Node4</title>
<g id="a_Node000004"><a xlink:href="classllzk_1_1array_1_1_create_array_op_generic_adaptor.html" target="_top" xlink:title=" ">
<polygon fill="white" stroke="#666666" points="362.38,-30.5 213.62,-30.5 213.62,0 362.38,0 362.38,-30.5"/>
<text text-anchor="start" x="221.62" y="-17" font-family="Helvetica,sans-Serif" font-size="10.00">llzk::array::CreateArray</text>
<text text-anchor="middle" x="288" y="-5.75" font-family="Helvetica,sans-Serif" font-size="10.00">OpGenericAdaptor&lt; RangeT &gt;</text>
</a>
</g>
</g>
<!-- Node0&#45;&gt;Node4 -->
<g id="edge20_Node000000_Node000004" class="edge">
<title>Node0&#45;&gt;Node4</title>
<g id="a_edge20_Node000000_Node000004"><a xlink:title=" ">
<path fill="none" stroke="#63b8ff" d="M157.86,-50.58C181.21,-44.19 207.09,-37.11 229.5,-30.98"/>
<polygon fill="#63b8ff" stroke="#63b8ff" points="157.16,-47.14 148.44,-53.16 159.01,-53.9 157.16,-47.14"/>
</a>
</g>
</g>
<!-- Node3 -->
<g id="Node000003" class="node">
<title>Node3</title>
<g id="a_Node000003"><a xlink:href="classllzk_1_1array_1_1_create_array_op_adaptor.html" target="_top" xlink:title=" ">
<polygon fill="white" stroke="#666666" points="516,-84.5 398.75,-84.5 398.75,-54 516,-54 516,-84.5"/>
<text text-anchor="start" x="406.75" y="-71" font-family="Helvetica,sans-Serif" font-size="10.00">llzk::array::CreateArray</text>
<text text-anchor="middle" x="457.38" y="-59.75" font-family="Helvetica,sans-Serif" font-size="10.00">OpAdaptor</text>
</a>
</g>
</g>
<!-- Node2&#45;&gt;Node3 -->
<g id="edge19_Node000002_Node000003" class="edge">
<title>Node2&#45;&gt;Node3</title>
<g id="a_edge19_Node000002_Node000003"><a xlink:title=" ">
<path fill="none" stroke="#63b8ff" d="M361.55,-69.25C373.85,-69.25 386.48,-69.25 398.35,-69.25"/>
<polygon fill="#63b8ff" stroke="#63b8ff" points="361.89,-65.75 351.89,-69.25 361.89,-72.75 361.89,-65.75"/>
</a>
</g>
</g>
</g>
</svg>
