<?xml version="1.0" encoding="UTF-8" standalone="no"?>
<!DOCTYPE svg PUBLIC "-//W3C//DTD SVG 1.1//EN"
 "http://www.w3.org/Graphics/SVG/1.1/DTD/svg11.dtd">
<!-- Generated by graphviz version 12.2.1 (20241206.2353)
 -->
<!-- Title: Graphical Class Hierarchy Pages: 1 -->
<svg width="333pt" height="64pt"
 viewBox="0.00 0.00 333.25 64.25" xmlns="http://www.w3.org/2000/svg" xmlns:xlink="http://www.w3.org/1999/xlink">
<g id="graph0" class="graph" transform="scale(1 1) rotate(0) translate(4 60.25)">
<title>Graphical Class Hierarchy</title>
<!-- Node0 -->
<g id="Node000000" class="node">
<title>Node0</title>
<g id="a_Node000000"><a xlink:title=" ">
<polygon fill="#e0e0e0" stroke="#999999" points="153.25,-37.25 0,-37.25 0,-18 153.25,-18 153.25,-37.25"/>
<text text-anchor="middle" x="76.62" y="-23.75" font-family="Helvetica,sans-Serif" font-size="10.00">dataflow::AbstractDenseLattice</text>
</a>
</g>
</g>
<!-- Node1 -->
<g id="Node000001" class="node">
<title>Node1</title>
<g id="a_Node000001"><a xlink:href="classllzk_1_1_constrain_ref_lattice.html" target="_top" xlink:title="A lattice for use in dense analysis.">
<polygon fill="white" stroke="#666666" points="319.25,-56.25 195.25,-56.25 195.25,-37 319.25,-37 319.25,-56.25"/>
<text text-anchor="middle" x="257.25" y="-42.75" font-family="Helvetica,sans-Serif" font-size="10.00">llzk::ConstrainRefLattice</text>
</a>
</g>
</g>
<!-- Node0&#45;&gt;Node1 -->
<g id="edge1_Node000000_Node000001" class="edge">
<title>Node0&#45;&gt;Node1</title>
<g id="a_edge1_Node000000_Node000001"><a xlink:title=" ">
<path fill="none" stroke="#63b8ff" d="M165,-36.92C175.1,-37.99 185.24,-39.07 194.89,-40.1"/>
<polygon fill="#63b8ff" stroke="#63b8ff" points="165.46,-33.45 155.14,-35.87 164.72,-40.41 165.46,-33.45"/>
</a>
</g>
</g>
<!-- Node2 -->
<g id="Node000002" class="node">
<title>Node2</title>
<g id="a_Node000002"><a xlink:href="classllzk_1_1_interval_analysis_lattice.html" target="_top" xlink:title="Maps mlir::Values to LatticeValues.">
<polygon fill="white" stroke="#666666" points="325.25,-19.25 189.25,-19.25 189.25,0 325.25,0 325.25,-19.25"/>
<text text-anchor="middle" x="257.25" y="-5.75" font-family="Helvetica,sans-Serif" font-size="10.00">llzk::IntervalAnalysisLattice</text>
</a>
</g>
</g>
<!-- Node0&#45;&gt;Node2 -->
<g id="edge2_Node000000_Node000002" class="edge">
<title>Node0&#45;&gt;Node2</title>
<g id="a_edge2_Node000000_Node000002"><a xlink:title=" ">
<path fill="none" stroke="#63b8ff" d="M164.93,-18.83C172.95,-18.02 180.98,-17.21 188.78,-16.42"/>
<polygon fill="#63b8ff" stroke="#63b8ff" points="164.74,-15.33 155.14,-19.81 165.44,-22.29 164.74,-15.33"/>
</a>
</g>
</g>
</g>
</svg>
