<?xml version="1.0" encoding="UTF-8" standalone="no"?>
<!DOCTYPE svg PUBLIC "-//W3C//DTD SVG 1.1//EN"
 "http://www.w3.org/Graphics/SVG/1.1/DTD/svg11.dtd">
<!-- Generated by graphviz version 12.2.1 (20241206.2353)
 -->
<!-- Title: Graphical Class Hierarchy Pages: 1 -->
<svg width="288pt" height="223pt"
 viewBox="0.00 0.00 287.50 222.50" xmlns="http://www.w3.org/2000/svg" xmlns:xlink="http://www.w3.org/1999/xlink">
<g id="graph0" class="graph" transform="scale(1 1) rotate(0) translate(4 218.5)">
<title>Graphical Class Hierarchy</title>
<!-- Node0 -->
<g id="Node000000" class="node">
<title>Node0</title>
<g id="a_Node000000"><a xlink:title=" ">
<polygon fill="#e0e0e0" stroke="#999999" points="88.75,-122.88 0,-122.88 0,-103.62 88.75,-103.62 88.75,-122.88"/>
<text text-anchor="middle" x="44.38" y="-109.38" font-family="Helvetica,sans-Serif" font-size="10.00">mlir::OpInterface</text>
</a>
</g>
</g>
<!-- Node1 -->
<g id="Node000001" class="node">
<title>Node1</title>
<g id="a_Node000001"><a xlink:href="classllzk_1_1array_1_1_array_access_op_interface.html" target="_top" xlink:title=" ">
<polygon fill="white" stroke="#666666" points="262.62,-214.5 141.62,-214.5 141.62,-184 262.62,-184 262.62,-214.5"/>
<text text-anchor="start" x="149.62" y="-201" font-family="Helvetica,sans-Serif" font-size="10.00">llzk::array::ArrayAccess</text>
<text text-anchor="middle" x="202.12" y="-189.75" font-family="Helvetica,sans-Serif" font-size="10.00">OpInterface</text>
</a>
</g>
</g>
<!-- Node0&#45;&gt;Node1 -->
<g id="edge311_Node000000_Node000001" class="edge">
<title>Node0&#45;&gt;Node1</title>
<g id="a_edge311_Node000000_Node000001"><a xlink:title=" ">
<path fill="none" stroke="#63b8ff" d="M63.36,-130.39C78.64,-144.17 101.72,-163.15 124.75,-175.25 130.66,-178.35 137.03,-181.14 143.49,-183.61"/>
<polygon fill="#63b8ff" stroke="#63b8ff" points="66.15,-128.21 56.43,-124 61.41,-133.36 66.15,-128.21"/>
</a>
</g>
</g>
<!-- Node2 -->
<g id="Node000002" class="node">
<title>Node2</title>
<g id="a_Node000002"><a xlink:href="classllzk_1_1array_1_1_array_ref_op_interface.html" target="_top" xlink:title=" ">
<polygon fill="white" stroke="#666666" points="279.5,-165.88 124.75,-165.88 124.75,-146.62 279.5,-146.62 279.5,-165.88"/>
<text text-anchor="middle" x="202.12" y="-152.38" font-family="Helvetica,sans-Serif" font-size="10.00">llzk::array::ArrayRefOpInterface</text>
</a>
</g>
</g>
<!-- Node0&#45;&gt;Node2 -->
<g id="edge312_Node000000_Node000002" class="edge">
<title>Node0&#45;&gt;Node2</title>
<g id="a_edge312_Node000000_Node000002"><a xlink:title=" ">
<path fill="none" stroke="#63b8ff" d="M88.26,-126.64C100.05,-130.21 112.86,-133.98 124.75,-137.25 135.82,-140.3 147.84,-143.39 159.01,-146.17"/>
<polygon fill="#63b8ff" stroke="#63b8ff" points="89.36,-123.32 78.77,-123.75 87.32,-130.01 89.36,-123.32"/>
</a>
</g>
</g>
<!-- Node3 -->
<g id="Node000003" class="node">
<title>Node3</title>
<g id="a_Node000003"><a xlink:href="classllzk_1_1component_1_1_field_ref_op_interface.html" target="_top" xlink:title=" ">
<polygon fill="white" stroke="#666666" points="266,-128.5 138.25,-128.5 138.25,-98 266,-98 266,-128.5"/>
<text text-anchor="start" x="146.25" y="-115" font-family="Helvetica,sans-Serif" font-size="10.00">llzk::component::FieldRef</text>
<text text-anchor="middle" x="202.12" y="-103.75" font-family="Helvetica,sans-Serif" font-size="10.00">OpInterface</text>
</a>
</g>
</g>
<!-- Node0&#45;&gt;Node3 -->
<g id="edge313_Node000000_Node000003" class="edge">
<title>Node0&#45;&gt;Node3</title>
<g id="a_edge313_Node000000_Node000003"><a xlink:title=" ">
<path fill="none" stroke="#63b8ff" d="M100.49,-113.25C112.59,-113.25 125.5,-113.25 137.89,-113.25"/>
<polygon fill="#63b8ff" stroke="#63b8ff" points="100.69,-109.75 90.69,-113.25 100.69,-116.75 100.69,-109.75"/>
</a>
</g>
</g>
<!-- Node4 -->
<g id="Node000004" class="node">
<title>Node4</title>
<g id="a_Node000004"><a xlink:href="classllzk_1_1constrain_1_1_constraint_op_interface.html" target="_top" xlink:title=" ">
<polygon fill="white" stroke="#666666" points="266,-79.5 138.25,-79.5 138.25,-49 266,-49 266,-79.5"/>
<text text-anchor="start" x="146.25" y="-66" font-family="Helvetica,sans-Serif" font-size="10.00">llzk::constrain::Constraint</text>
<text text-anchor="middle" x="202.12" y="-54.75" font-family="Helvetica,sans-Serif" font-size="10.00">OpInterface</text>
</a>
</g>
</g>
<!-- Node0&#45;&gt;Node4 -->
<g id="edge314_Node000000_Node000004" class="edge">
<title>Node0&#45;&gt;Node4</title>
<g id="a_edge314_Node000000_Node000004"><a xlink:title=" ">
<path fill="none" stroke="#63b8ff" d="M87.99,-99.84C107.53,-93.7 130.82,-86.37 151.18,-79.96"/>
<polygon fill="#63b8ff" stroke="#63b8ff" points="87.2,-96.42 78.71,-102.76 89.3,-103.1 87.2,-96.42"/>
</a>
</g>
</g>
<!-- Node5 -->
<g id="Node000005" class="node">
<title>Node5</title>
<g id="a_Node000005"><a xlink:href="classllzk_1_1global_1_1_global_ref_op_interface.html" target="_top" xlink:title=" ">
<polygon fill="white" stroke="#666666" points="264.5,-30.5 139.75,-30.5 139.75,0 264.5,0 264.5,-30.5"/>
<text text-anchor="start" x="147.75" y="-17" font-family="Helvetica,sans-Serif" font-size="10.00">llzk::global::GlobalRefOp</text>
<text text-anchor="middle" x="202.12" y="-5.75" font-family="Helvetica,sans-Serif" font-size="10.00">Interface</text>
</a>
</g>
</g>
<!-- Node0&#45;&gt;Node5 -->
<g id="edge315_Node000000_Node000005" class="edge">
<title>Node0&#45;&gt;Node5</title>
<g id="a_edge315_Node000000_Node000005"><a xlink:title=" ">
<path fill="none" stroke="#63b8ff" d="M60.93,-95.06C75.82,-78.66 99.67,-54.94 124.75,-40.25 130.77,-36.72 137.35,-33.62 144.04,-30.91"/>
<polygon fill="#63b8ff" stroke="#63b8ff" points="58.64,-92.37 54.63,-102.17 63.88,-97 58.64,-92.37"/>
</a>
</g>
</g>
</g>
</svg>
