<?xml version="1.0" encoding="UTF-8" standalone="no"?>
<!DOCTYPE svg PUBLIC "-//W3C//DTD SVG 1.1//EN"
 "http://www.w3.org/Graphics/SVG/1.1/DTD/svg11.dtd">
<!-- Generated by graphviz version 12.2.1 (20241206.2353)
 -->
<!-- Title: Graphical Class Hierarchy Pages: 1 -->
<svg width="517pt" height="147pt"
 viewBox="0.00 0.00 517.25 147.12" xmlns="http://www.w3.org/2000/svg" xmlns:xlink="http://www.w3.org/1999/xlink">
<g id="graph0" class="graph" transform="scale(1 1) rotate(0) translate(4 143.12)">
<title>Graphical Class Hierarchy</title>
<!-- Node0 -->
<g id="Node000000" class="node">
<title>Node0</title>
<g id="a_Node000000"><a xlink:href="classllzk_1_1felt_1_1detail_1_1_not_felt_op_generic_adaptor_base.html" target="_top" xlink:title=" ">
<polygon fill="white" stroke="#666666" points="157,-79.5 0,-79.5 0,-49 157,-49 157,-79.5"/>
<text text-anchor="start" x="8" y="-66" font-family="Helvetica,sans-Serif" font-size="10.00">llzk::felt::detail</text>
<text text-anchor="middle" x="78.5" y="-54.75" font-family="Helvetica,sans-Serif" font-size="10.00">::NotFeltOpGenericAdaptorBase</text>
</a>
</g>
</g>
<!-- Node1 -->
<g id="Node000001" class="node">
<title>Node1</title>
<g id="a_Node000001"><a xlink:href="classllzk_1_1felt_1_1_not_felt_op_generic_adaptor.html" target="_top" xlink:title=" ">
<polygon fill="white" stroke="#666666" points="333.12,-139.12 197.88,-139.12 197.88,-97.38 333.12,-97.38 333.12,-139.12"/>
<text text-anchor="start" x="205.88" y="-125.62" font-family="Helvetica,sans-Serif" font-size="10.00">llzk::felt::NotFeltOpGeneric</text>
<text text-anchor="start" x="205.88" y="-114.38" font-family="Helvetica,sans-Serif" font-size="10.00">Adaptor&lt;::llvm::ArrayRef</text>
<text text-anchor="middle" x="265.5" y="-103.12" font-family="Helvetica,sans-Serif" font-size="10.00">&lt;::mlir::Attribute &gt; &gt;</text>
</a>
</g>
</g>
<!-- Node0&#45;&gt;Node1 -->
<g id="edge143_Node000000_Node000001" class="edge">
<title>Node0&#45;&gt;Node1</title>
<g id="a_edge143_Node000000_Node000001"><a xlink:title=" ">
<path fill="none" stroke="#63b8ff" d="M143.65,-82.98C161.09,-88.07 180.03,-93.59 197.61,-98.73"/>
<polygon fill="#63b8ff" stroke="#63b8ff" points="145.04,-79.74 134.46,-80.29 143.08,-86.45 145.04,-79.74"/>
</a>
</g>
</g>
<!-- Node2 -->
<g id="Node000002" class="node">
<title>Node2</title>
<g id="a_Node000002"><a xlink:href="classllzk_1_1felt_1_1_not_felt_op_generic_adaptor.html" target="_top" xlink:title=" ">
<polygon fill="white" stroke="#666666" points="338,-79.5 193,-79.5 193,-49 338,-49 338,-79.5"/>
<text text-anchor="start" x="201" y="-66" font-family="Helvetica,sans-Serif" font-size="10.00">llzk::felt::NotFeltOpGeneric</text>
<text text-anchor="middle" x="265.5" y="-54.75" font-family="Helvetica,sans-Serif" font-size="10.00">Adaptor&lt;::mlir::ValueRange &gt;</text>
</a>
</g>
</g>
<!-- Node0&#45;&gt;Node2 -->
<g id="edge144_Node000000_Node000002" class="edge">
<title>Node0&#45;&gt;Node2</title>
<g id="a_edge144_Node000000_Node000002"><a xlink:title=" ">
<path fill="none" stroke="#63b8ff" d="M168.69,-64.25C176.69,-64.25 184.73,-64.25 192.56,-64.25"/>
<polygon fill="#63b8ff" stroke="#63b8ff" points="168.93,-60.75 158.93,-64.25 168.93,-67.75 168.93,-60.75"/>
</a>
</g>
</g>
<!-- Node4 -->
<g id="Node000004" class="node">
<title>Node4</title>
<g id="a_Node000004"><a xlink:href="classllzk_1_1felt_1_1_not_felt_op_generic_adaptor.html" target="_top" xlink:title=" ">
<polygon fill="white" stroke="#666666" points="333.12,-30.5 197.88,-30.5 197.88,0 333.12,0 333.12,-30.5"/>
<text text-anchor="start" x="205.88" y="-17" font-family="Helvetica,sans-Serif" font-size="10.00">llzk::felt::NotFeltOpGeneric</text>
<text text-anchor="middle" x="265.5" y="-5.75" font-family="Helvetica,sans-Serif" font-size="10.00">Adaptor&lt; RangeT &gt;</text>
</a>
</g>
</g>
<!-- Node0&#45;&gt;Node4 -->
<g id="edge146_Node000000_Node000004" class="edge">
<title>Node0&#45;&gt;Node4</title>
<g id="a_edge146_Node000000_Node000004"><a xlink:title=" ">
<path fill="none" stroke="#63b8ff" d="M149.71,-45.66C168.01,-40.81 187.55,-35.63 205.22,-30.95"/>
<polygon fill="#63b8ff" stroke="#63b8ff" points="149.03,-42.21 140.26,-48.16 150.82,-48.98 149.03,-42.21"/>
</a>
</g>
</g>
<!-- Node3 -->
<g id="Node000003" class="node">
<title>Node3</title>
<g id="a_Node000003"><a xlink:href="classllzk_1_1felt_1_1_not_felt_op_adaptor.html" target="_top" xlink:title=" ">
<polygon fill="white" stroke="#666666" points="509.25,-73.88 374,-73.88 374,-54.62 509.25,-54.62 509.25,-73.88"/>
<text text-anchor="middle" x="441.62" y="-60.38" font-family="Helvetica,sans-Serif" font-size="10.00">llzk::felt::NotFeltOpAdaptor</text>
</a>
</g>
</g>
<!-- Node2&#45;&gt;Node3 -->
<g id="edge145_Node000002_Node000003" class="edge">
<title>Node2&#45;&gt;Node3</title>
<g id="a_edge145_Node000002_Node000003"><a xlink:title=" ">
<path fill="none" stroke="#63b8ff" d="M349.67,-64.25C357.73,-64.25 365.84,-64.25 373.71,-64.25"/>
<polygon fill="#63b8ff" stroke="#63b8ff" points="349.84,-60.75 339.84,-64.25 349.84,-67.75 349.84,-60.75"/>
</a>
</g>
</g>
</g>
</svg>
