<?xml version="1.0" encoding="UTF-8" standalone="no"?>
<!DOCTYPE svg PUBLIC "-//W3C//DTD SVG 1.1//EN"
 "http://www.w3.org/Graphics/SVG/1.1/DTD/svg11.dtd">
<!-- Generated by graphviz version 12.2.1 (20241206.2353)
 -->
<!-- Title: Graphical Class Hierarchy Pages: 1 -->
<svg width="514pt" height="158pt"
 viewBox="0.00 0.00 513.50 158.12" xmlns="http://www.w3.org/2000/svg" xmlns:xlink="http://www.w3.org/1999/xlink">
<g id="graph0" class="graph" transform="scale(1 1) rotate(0) translate(4 154.12)">
<title>Graphical Class Hierarchy</title>
<!-- Node0 -->
<g id="Node000000" class="node">
<title>Node0</title>
<g id="a_Node000000"><a xlink:href="classllzk_1_1function_1_1detail_1_1_func_def_op_generic_adaptor_base.html" target="_top" xlink:title=" ">
<polygon fill="white" stroke="#666666" points="162.25,-84.5 0,-84.5 0,-54 162.25,-54 162.25,-84.5"/>
<text text-anchor="start" x="8" y="-71" font-family="Helvetica,sans-Serif" font-size="10.00">llzk::function::detail</text>
<text text-anchor="middle" x="81.12" y="-59.75" font-family="Helvetica,sans-Serif" font-size="10.00">::FuncDefOpGenericAdaptorBase</text>
</a>
</g>
</g>
<!-- Node1 -->
<g id="Node000001" class="node">
<title>Node1</title>
<g id="a_Node000001"><a xlink:href="classllzk_1_1function_1_1_func_def_op_generic_adaptor.html" target="_top" xlink:title=" ">
<polygon fill="white" stroke="#666666" points="341.75,-150.12 198.25,-150.12 198.25,-108.38 341.75,-108.38 341.75,-150.12"/>
<text text-anchor="start" x="206.25" y="-136.62" font-family="Helvetica,sans-Serif" font-size="10.00">llzk::function::FuncDefOp</text>
<text text-anchor="start" x="206.25" y="-125.38" font-family="Helvetica,sans-Serif" font-size="10.00">GenericAdaptor&lt;::llvm::</text>
<text text-anchor="middle" x="270" y="-114.12" font-family="Helvetica,sans-Serif" font-size="10.00">ArrayRef&lt;::mlir::Attribute &gt; &gt;</text>
</a>
</g>
</g>
<!-- Node0&#45;&gt;Node1 -->
<g id="edge171_Node000000_Node000001" class="edge">
<title>Node0&#45;&gt;Node1</title>
<g id="a_edge171_Node000000_Node000001"><a xlink:title=" ">
<path fill="none" stroke="#63b8ff" d="M141.59,-88.34C161.04,-94.59 182.77,-101.56 202.69,-107.96"/>
<polygon fill="#63b8ff" stroke="#63b8ff" points="142.77,-85.04 132.18,-85.32 140.63,-91.71 142.77,-85.04"/>
</a>
</g>
</g>
<!-- Node2 -->
<g id="Node000002" class="node">
<title>Node2</title>
<g id="a_Node000002"><a xlink:href="classllzk_1_1function_1_1_func_def_op_generic_adaptor.html" target="_top" xlink:title=" ">
<polygon fill="white" stroke="#666666" points="333.88,-90.12 206.12,-90.12 206.12,-48.38 333.88,-48.38 333.88,-90.12"/>
<text text-anchor="start" x="214.12" y="-76.62" font-family="Helvetica,sans-Serif" font-size="10.00">llzk::function::FuncDefOp</text>
<text text-anchor="start" x="214.12" y="-65.38" font-family="Helvetica,sans-Serif" font-size="10.00">GenericAdaptor&lt;::mlir::</text>
<text text-anchor="middle" x="270" y="-54.12" font-family="Helvetica,sans-Serif" font-size="10.00">ValueRange &gt;</text>
</a>
</g>
</g>
<!-- Node0&#45;&gt;Node2 -->
<g id="edge172_Node000000_Node000002" class="edge">
<title>Node0&#45;&gt;Node2</title>
<g id="a_edge172_Node000000_Node000002"><a xlink:title=" ">
<path fill="none" stroke="#63b8ff" d="M173.95,-69.25C184.74,-69.25 195.56,-69.25 205.84,-69.25"/>
<polygon fill="#63b8ff" stroke="#63b8ff" points="174.25,-65.75 164.25,-69.25 174.25,-72.75 174.25,-65.75"/>
</a>
</g>
</g>
<!-- Node4 -->
<g id="Node000004" class="node">
<title>Node4</title>
<g id="a_Node000004"><a xlink:href="classllzk_1_1function_1_1_func_def_op_generic_adaptor.html" target="_top" xlink:title=" ">
<polygon fill="white" stroke="#666666" points="338,-30.5 202,-30.5 202,0 338,0 338,-30.5"/>
<text text-anchor="start" x="210" y="-17" font-family="Helvetica,sans-Serif" font-size="10.00">llzk::function::FuncDefOp</text>
<text text-anchor="middle" x="270" y="-5.75" font-family="Helvetica,sans-Serif" font-size="10.00">GenericAdaptor&lt; RangeT &gt;</text>
</a>
</g>
</g>
<!-- Node0&#45;&gt;Node4 -->
<g id="edge174_Node000000_Node000004" class="edge">
<title>Node0&#45;&gt;Node4</title>
<g id="a_edge174_Node000000_Node000004"><a xlink:title=" ">
<path fill="none" stroke="#63b8ff" d="M147.33,-50.41C169.28,-44.06 193.53,-37.06 214.56,-30.98"/>
<polygon fill="#63b8ff" stroke="#63b8ff" points="146.52,-47 137.88,-53.14 148.46,-53.72 146.52,-47"/>
</a>
</g>
</g>
<!-- Node3 -->
<g id="Node000003" class="node">
<title>Node3</title>
<g id="a_Node000003"><a xlink:href="classllzk_1_1function_1_1_func_def_op_adaptor.html" target="_top" xlink:title=" ">
<polygon fill="white" stroke="#666666" points="505.5,-84.5 377.75,-84.5 377.75,-54 505.5,-54 505.5,-84.5"/>
<text text-anchor="start" x="385.75" y="-71" font-family="Helvetica,sans-Serif" font-size="10.00">llzk::function::FuncDefOp</text>
<text text-anchor="middle" x="441.62" y="-59.75" font-family="Helvetica,sans-Serif" font-size="10.00">Adaptor</text>
</a>
</g>
</g>
<!-- Node2&#45;&gt;Node3 -->
<g id="edge173_Node000002_Node000003" class="edge">
<title>Node2&#45;&gt;Node3</title>
<g id="a_edge173_Node000002_Node000003"><a xlink:title=" ">
<path fill="none" stroke="#63b8ff" d="M345.57,-69.25C356.19,-69.25 367.03,-69.25 377.41,-69.25"/>
<polygon fill="#63b8ff" stroke="#63b8ff" points="345.68,-65.75 335.68,-69.25 345.68,-72.75 345.68,-65.75"/>
</a>
</g>
</g>
</g>
</svg>
