<?xml version="1.0" encoding="UTF-8" standalone="no"?>
<!DOCTYPE svg PUBLIC "-//W3C//DTD SVG 1.1//EN"
 "http://www.w3.org/Graphics/SVG/1.1/DTD/svg11.dtd">
<!-- Generated by graphviz version 12.2.1 (20241206.2353)
 -->
<!-- Title: Graphical Class Hierarchy Pages: 1 -->
<svg width="524pt" height="158pt"
 viewBox="0.00 0.00 524.00 158.12" xmlns="http://www.w3.org/2000/svg" xmlns:xlink="http://www.w3.org/1999/xlink">
<g id="graph0" class="graph" transform="scale(1 1) rotate(0) translate(4 154.12)">
<title>Graphical Class Hierarchy</title>
<!-- Node0 -->
<g id="Node000000" class="node">
<title>Node0</title>
<g id="a_Node000000"><a xlink:href="classllzk_1_1felt_1_1detail_1_1_felt_non_det_op_generic_adaptor_base.html" target="_top" xlink:title=" ">
<polygon fill="white" stroke="#666666" points="175,-84.5 0,-84.5 0,-54 175,-54 175,-84.5"/>
<text text-anchor="start" x="8" y="-71" font-family="Helvetica,sans-Serif" font-size="10.00">llzk::felt::detail</text>
<text text-anchor="middle" x="87.5" y="-59.75" font-family="Helvetica,sans-Serif" font-size="10.00">::FeltNonDetOpGenericAdaptorBase</text>
</a>
</g>
</g>
<!-- Node1 -->
<g id="Node000001" class="node">
<title>Node1</title>
<g id="a_Node000001"><a xlink:href="classllzk_1_1felt_1_1_felt_non_det_op_generic_adaptor.html" target="_top" xlink:title=" ">
<polygon fill="white" stroke="#666666" points="360.5,-150.12 211,-150.12 211,-108.38 360.5,-108.38 360.5,-150.12"/>
<text text-anchor="start" x="219" y="-136.62" font-family="Helvetica,sans-Serif" font-size="10.00">llzk::felt::FeltNonDetOp</text>
<text text-anchor="start" x="219" y="-125.38" font-family="Helvetica,sans-Serif" font-size="10.00">GenericAdaptor&lt;::llvm</text>
<text text-anchor="middle" x="285.75" y="-114.12" font-family="Helvetica,sans-Serif" font-size="10.00">::ArrayRef&lt;::mlir::Attribute &gt; &gt;</text>
</a>
</g>
</g>
<!-- Node0&#45;&gt;Node1 -->
<g id="edge123_Node000000_Node000001" class="edge">
<title>Node0&#45;&gt;Node1</title>
<g id="a_edge123_Node000000_Node000001"><a xlink:title=" ">
<path fill="none" stroke="#63b8ff" d="M150.58,-88.23C171.03,-94.48 193.92,-101.48 214.92,-107.9"/>
<polygon fill="#63b8ff" stroke="#63b8ff" points="151.84,-84.96 141.25,-85.38 149.79,-91.65 151.84,-84.96"/>
</a>
</g>
</g>
<!-- Node2 -->
<g id="Node000002" class="node">
<title>Node2</title>
<g id="a_Node000002"><a xlink:href="classllzk_1_1felt_1_1_felt_non_det_op_generic_adaptor.html" target="_top" xlink:title=" ">
<polygon fill="white" stroke="#666666" points="345.5,-90.12 226,-90.12 226,-48.38 345.5,-48.38 345.5,-90.12"/>
<text text-anchor="start" x="234" y="-76.62" font-family="Helvetica,sans-Serif" font-size="10.00">llzk::felt::FeltNonDetOp</text>
<text text-anchor="start" x="234" y="-65.38" font-family="Helvetica,sans-Serif" font-size="10.00">GenericAdaptor&lt;::mlir</text>
<text text-anchor="middle" x="285.75" y="-54.12" font-family="Helvetica,sans-Serif" font-size="10.00">::ValueRange &gt;</text>
</a>
</g>
</g>
<!-- Node0&#45;&gt;Node2 -->
<g id="edge124_Node000000_Node000002" class="edge">
<title>Node0&#45;&gt;Node2</title>
<g id="a_edge124_Node000000_Node000002"><a xlink:title=" ">
<path fill="none" stroke="#63b8ff" d="M186.65,-69.25C200.02,-69.25 213.39,-69.25 225.77,-69.25"/>
<polygon fill="#63b8ff" stroke="#63b8ff" points="186.95,-65.75 176.95,-69.25 186.95,-72.75 186.95,-65.75"/>
</a>
</g>
</g>
<!-- Node4 -->
<g id="Node000004" class="node">
<title>Node4</title>
<g id="a_Node000004"><a xlink:href="classllzk_1_1felt_1_1_felt_non_det_op_generic_adaptor.html" target="_top" xlink:title=" ">
<polygon fill="white" stroke="#666666" points="353.75,-30.5 217.75,-30.5 217.75,0 353.75,0 353.75,-30.5"/>
<text text-anchor="start" x="225.75" y="-17" font-family="Helvetica,sans-Serif" font-size="10.00">llzk::felt::FeltNonDetOp</text>
<text text-anchor="middle" x="285.75" y="-5.75" font-family="Helvetica,sans-Serif" font-size="10.00">GenericAdaptor&lt; RangeT &gt;</text>
</a>
</g>
</g>
<!-- Node0&#45;&gt;Node4 -->
<g id="edge126_Node000000_Node000004" class="edge">
<title>Node0&#45;&gt;Node4</title>
<g id="a_edge126_Node000000_Node000004"><a xlink:title=" ">
<path fill="none" stroke="#63b8ff" d="M156.35,-50.58C179.56,-44.19 205.29,-37.11 227.58,-30.98"/>
<polygon fill="#63b8ff" stroke="#63b8ff" points="155.7,-47.13 146.99,-53.16 157.56,-53.88 155.7,-47.13"/>
</a>
</g>
</g>
<!-- Node3 -->
<g id="Node000003" class="node">
<title>Node3</title>
<g id="a_Node000003"><a xlink:href="classllzk_1_1felt_1_1_felt_non_det_op_adaptor.html" target="_top" xlink:title=" ">
<polygon fill="white" stroke="#666666" points="516,-84.5 396.5,-84.5 396.5,-54 516,-54 516,-84.5"/>
<text text-anchor="start" x="404.5" y="-71" font-family="Helvetica,sans-Serif" font-size="10.00">llzk::felt::FeltNonDetOp</text>
<text text-anchor="middle" x="456.25" y="-59.75" font-family="Helvetica,sans-Serif" font-size="10.00">Adaptor</text>
</a>
</g>
</g>
<!-- Node2&#45;&gt;Node3 -->
<g id="edge125_Node000002_Node000003" class="edge">
<title>Node2&#45;&gt;Node3</title>
<g id="a_edge125_Node000002_Node000003"><a xlink:title=" ">
<path fill="none" stroke="#63b8ff" d="M356.96,-69.25C369.97,-69.25 383.43,-69.25 396.07,-69.25"/>
<polygon fill="#63b8ff" stroke="#63b8ff" points="357.2,-65.75 347.2,-69.25 357.2,-72.75 357.2,-65.75"/>
</a>
</g>
</g>
</g>
</svg>
