<?xml version="1.0" encoding="UTF-8" standalone="no"?>
<!DOCTYPE svg PUBLIC "-//W3C//DTD SVG 1.1//EN"
 "http://www.w3.org/Graphics/SVG/1.1/DTD/svg11.dtd">
<!-- Generated by graphviz version 12.2.1 (20241206.2353)
 -->
<!-- Title: Graphical Class Hierarchy Pages: 1 -->
<svg width="541pt" height="147pt"
 viewBox="0.00 0.00 541.25 147.12" xmlns="http://www.w3.org/2000/svg" xmlns:xlink="http://www.w3.org/1999/xlink">
<g id="graph0" class="graph" transform="scale(1 1) rotate(0) translate(4 143.12)">
<title>Graphical Class Hierarchy</title>
<!-- Node0 -->
<g id="Node000000" class="node">
<title>Node0</title>
<g id="a_Node000000"><a xlink:href="classllzk_1_1boolean_1_1detail_1_1_or_bool_op_generic_adaptor_base.html" target="_top" xlink:title=" ">
<polygon fill="white" stroke="#666666" points="154.75,-79.5 0,-79.5 0,-49 154.75,-49 154.75,-79.5"/>
<text text-anchor="start" x="8" y="-66" font-family="Helvetica,sans-Serif" font-size="10.00">llzk::boolean::detail</text>
<text text-anchor="middle" x="77.38" y="-54.75" font-family="Helvetica,sans-Serif" font-size="10.00">::OrBoolOpGenericAdaptorBase</text>
</a>
</g>
</g>
<!-- Node1 -->
<g id="Node000001" class="node">
<title>Node1</title>
<g id="a_Node000001"><a xlink:href="classllzk_1_1boolean_1_1_or_bool_op_generic_adaptor.html" target="_top" xlink:title=" ">
<polygon fill="white" stroke="#666666" points="344,-139.12 190.75,-139.12 190.75,-97.38 344,-97.38 344,-139.12"/>
<text text-anchor="start" x="198.75" y="-125.62" font-family="Helvetica,sans-Serif" font-size="10.00">llzk::boolean::OrBoolOpGeneric</text>
<text text-anchor="start" x="198.75" y="-114.38" font-family="Helvetica,sans-Serif" font-size="10.00">Adaptor&lt;::llvm::ArrayRef</text>
<text text-anchor="middle" x="267.38" y="-103.12" font-family="Helvetica,sans-Serif" font-size="10.00">&lt;::mlir::Attribute &gt; &gt;</text>
</a>
</g>
</g>
<!-- Node0&#45;&gt;Node1 -->
<g id="edge53_Node000000_Node000001" class="edge">
<title>Node0&#45;&gt;Node1</title>
<g id="a_edge53_Node000000_Node000001"><a xlink:title=" ">
<path fill="none" stroke="#63b8ff" d="M144.06,-83.12C159.55,-87.57 176.18,-92.34 192.02,-96.89"/>
<polygon fill="#63b8ff" stroke="#63b8ff" points="145.04,-79.76 134.46,-80.36 143.1,-86.48 145.04,-79.76"/>
</a>
</g>
</g>
<!-- Node2 -->
<g id="Node000002" class="node">
<title>Node2</title>
<g id="a_Node000002"><a xlink:href="classllzk_1_1boolean_1_1_or_bool_op_generic_adaptor.html" target="_top" xlink:title=" ">
<polygon fill="white" stroke="#666666" points="344,-79.5 190.75,-79.5 190.75,-49 344,-49 344,-79.5"/>
<text text-anchor="start" x="198.75" y="-66" font-family="Helvetica,sans-Serif" font-size="10.00">llzk::boolean::OrBoolOpGeneric</text>
<text text-anchor="middle" x="267.38" y="-54.75" font-family="Helvetica,sans-Serif" font-size="10.00">Adaptor&lt;::mlir::ValueRange &gt;</text>
</a>
</g>
</g>
<!-- Node0&#45;&gt;Node2 -->
<g id="edge54_Node000000_Node000002" class="edge">
<title>Node0&#45;&gt;Node2</title>
<g id="a_edge54_Node000000_Node000002"><a xlink:title=" ">
<path fill="none" stroke="#63b8ff" d="M166.42,-64.25C174.47,-64.25 182.57,-64.25 190.49,-64.25"/>
<polygon fill="#63b8ff" stroke="#63b8ff" points="166.63,-60.75 156.63,-64.25 166.63,-67.75 166.63,-60.75"/>
</a>
</g>
</g>
<!-- Node4 -->
<g id="Node000004" class="node">
<title>Node4</title>
<g id="a_Node000004"><a xlink:href="classllzk_1_1boolean_1_1_or_bool_op_generic_adaptor.html" target="_top" xlink:title=" ">
<polygon fill="white" stroke="#666666" points="344,-30.5 190.75,-30.5 190.75,0 344,0 344,-30.5"/>
<text text-anchor="start" x="198.75" y="-17" font-family="Helvetica,sans-Serif" font-size="10.00">llzk::boolean::OrBoolOpGeneric</text>
<text text-anchor="middle" x="267.38" y="-5.75" font-family="Helvetica,sans-Serif" font-size="10.00">Adaptor&lt; RangeT &gt;</text>
</a>
</g>
</g>
<!-- Node0&#45;&gt;Node4 -->
<g id="edge56_Node000000_Node000004" class="edge">
<title>Node0&#45;&gt;Node4</title>
<g id="a_edge56_Node000000_Node000004"><a xlink:title=" ">
<path fill="none" stroke="#63b8ff" d="M149.72,-45.66C168.32,-40.81 188.17,-35.63 206.13,-30.95"/>
<polygon fill="#63b8ff" stroke="#63b8ff" points="148.89,-42.25 140.1,-48.16 150.66,-49.03 148.89,-42.25"/>
</a>
</g>
</g>
<!-- Node3 -->
<g id="Node000003" class="node">
<title>Node3</title>
<g id="a_Node000003"><a xlink:href="classllzk_1_1boolean_1_1_or_bool_op_adaptor.html" target="_top" xlink:title=" ">
<polygon fill="white" stroke="#666666" points="533.25,-73.88 380,-73.88 380,-54.62 533.25,-54.62 533.25,-73.88"/>
<text text-anchor="middle" x="456.62" y="-60.38" font-family="Helvetica,sans-Serif" font-size="10.00">llzk::boolean::OrBoolOpAdaptor</text>
</a>
</g>
</g>
<!-- Node2&#45;&gt;Node3 -->
<g id="edge55_Node000002_Node000003" class="edge">
<title>Node2&#45;&gt;Node3</title>
<g id="a_edge55_Node000002_Node000003"><a xlink:title=" ">
<path fill="none" stroke="#63b8ff" d="M355.56,-64.25C363.6,-64.25 371.7,-64.25 379.63,-64.25"/>
<polygon fill="#63b8ff" stroke="#63b8ff" points="355.78,-60.75 345.78,-64.25 355.78,-67.75 355.78,-60.75"/>
</a>
</g>
</g>
</g>
</svg>
