<?xml version="1.0" encoding="UTF-8" standalone="no"?>
<!DOCTYPE svg PUBLIC "-//W3C//DTD SVG 1.1//EN"
 "http://www.w3.org/Graphics/SVG/1.1/DTD/svg11.dtd">
<!-- Generated by graphviz version 12.2.1 (20241206.2353)
 -->
<!-- Title: llzk::component::detail::FieldRefOpInterfaceInterfaceTraits::Concept Pages: 1 -->
<svg width="609pt" height="175pt"
 viewBox="0.00 0.00 608.75 175.38" xmlns="http://www.w3.org/2000/svg" xmlns:xlink="http://www.w3.org/1999/xlink">
<g id="graph0" class="graph" transform="scale(1 1) rotate(0) translate(4 171.38)">
<title>llzk::component::detail::FieldRefOpInterfaceInterfaceTraits::Concept</title>
<!-- Node1 -->
<g id="Node000001" class="node">
<title>Node1</title>
<g id="a_Node000001"><a xlink:title=" ">
<polygon fill="#999999" stroke="#666666" points="148,-101.75 0,-101.75 0,-60 148,-60 148,-101.75"/>
<text text-anchor="start" x="8" y="-88.25" font-family="Helvetica,sans-Serif" font-size="10.00">llzk::component::detail</text>
<text text-anchor="start" x="8" y="-77" font-family="Helvetica,sans-Serif" font-size="10.00">::FieldRefOpInterfaceInterface</text>
<text text-anchor="middle" x="74" y="-65.75" font-family="Helvetica,sans-Serif" font-size="10.00">Traits::Concept</text>
</a>
</g>
</g>
<!-- Node2 -->
<g id="Node000002" class="node">
<title>Node2</title>
<g id="a_Node000002"><a xlink:href="classllzk_1_1component_1_1detail_1_1_field_ref_op_interface_interface_traits_1_1_fallback_model.html" target="_top" xlink:title=" ">
<polygon fill="white" stroke="#666666" points="377.75,-161.75 184,-161.75 184,-120 377.75,-120 377.75,-161.75"/>
<text text-anchor="start" x="192" y="-148.25" font-family="Helvetica,sans-Serif" font-size="10.00">llzk::component::detail</text>
<text text-anchor="start" x="192" y="-137" font-family="Helvetica,sans-Serif" font-size="10.00">::FieldRefOpInterfaceInterface</text>
<text text-anchor="middle" x="280.88" y="-125.75" font-family="Helvetica,sans-Serif" font-size="10.00">Traits::FallbackModel&lt; ConcreteModel &gt;</text>
</a>
</g>
</g>
<!-- Node1&#45;&gt;Node2 -->
<g id="edge1_Node000001_Node000002" class="edge">
<title>Node1&#45;&gt;Node2</title>
<g id="a_edge1_Node000001_Node000002"><a xlink:title=" ">
<path fill="none" stroke="#63b8ff" d="M158.75,-105.4C174.74,-110.08 191.35,-114.95 206.96,-119.52"/>
<polygon fill="#63b8ff" stroke="#63b8ff" points="159.84,-102.07 149.26,-102.62 157.87,-108.79 159.84,-102.07"/>
</a>
</g>
</g>
<!-- Node4 -->
<g id="Node000004" class="node">
<title>Node4</title>
<g id="a_Node000004"><a xlink:href="classllzk_1_1component_1_1detail_1_1_field_ref_op_interface_interface_traits_1_1_fallback_model.html" target="_top" xlink:title=" ">
<polygon fill="white" stroke="#666666" points="371,-101.75 190.75,-101.75 190.75,-60 371,-60 371,-101.75"/>
<text text-anchor="start" x="198.75" y="-88.25" font-family="Helvetica,sans-Serif" font-size="10.00">llzk::component::detail</text>
<text text-anchor="start" x="198.75" y="-77" font-family="Helvetica,sans-Serif" font-size="10.00">::FieldRefOpInterfaceInterface</text>
<text text-anchor="middle" x="280.88" y="-65.75" font-family="Helvetica,sans-Serif" font-size="10.00">Traits::FallbackModel&lt; ConcreteOp &gt;</text>
</a>
</g>
</g>
<!-- Node1&#45;&gt;Node4 -->
<g id="edge3_Node000001_Node000004" class="edge">
<title>Node1&#45;&gt;Node4</title>
<g id="a_edge3_Node000001_Node000004"><a xlink:title=" ">
<path fill="none" stroke="#63b8ff" d="M159.74,-80.88C169.91,-80.88 180.31,-80.88 190.54,-80.88"/>
<polygon fill="#63b8ff" stroke="#63b8ff" points="159.9,-77.38 149.9,-80.88 159.9,-84.38 159.9,-77.38"/>
</a>
</g>
</g>
<!-- Node5 -->
<g id="Node000005" class="node">
<title>Node5</title>
<g id="a_Node000005"><a xlink:href="classllzk_1_1component_1_1detail_1_1_field_ref_op_interface_interface_traits_1_1_model.html" target="_top" xlink:title=" ">
<polygon fill="white" stroke="#666666" points="354.88,-41.75 206.88,-41.75 206.88,0 354.88,0 354.88,-41.75"/>
<text text-anchor="start" x="214.88" y="-28.25" font-family="Helvetica,sans-Serif" font-size="10.00">llzk::component::detail</text>
<text text-anchor="start" x="214.88" y="-17" font-family="Helvetica,sans-Serif" font-size="10.00">::FieldRefOpInterfaceInterface</text>
<text text-anchor="middle" x="280.88" y="-5.75" font-family="Helvetica,sans-Serif" font-size="10.00">Traits::Model&lt; ConcreteOp &gt;</text>
</a>
</g>
</g>
<!-- Node1&#45;&gt;Node5 -->
<g id="edge4_Node000001_Node000005" class="edge">
<title>Node1&#45;&gt;Node5</title>
<g id="a_edge4_Node000001_Node000005"><a xlink:title=" ">
<path fill="none" stroke="#63b8ff" d="M158.75,-56.35C174.74,-51.67 191.35,-46.8 206.96,-42.23"/>
<polygon fill="#63b8ff" stroke="#63b8ff" points="157.87,-52.96 149.26,-59.13 159.84,-59.68 157.87,-52.96"/>
</a>
</g>
</g>
<!-- Node3 -->
<g id="Node000003" class="node">
<title>Node3</title>
<g id="a_Node000003"><a xlink:href="classllzk_1_1component_1_1detail_1_1_field_ref_op_interface_interface_traits_1_1_external_model.html" target="_top" xlink:title=" ">
<polygon fill="white" stroke="#666666" points="600.75,-167.38 413.75,-167.38 413.75,-114.38 600.75,-114.38 600.75,-167.38"/>
<text text-anchor="start" x="421.75" y="-153.88" font-family="Helvetica,sans-Serif" font-size="10.00">llzk::component::detail</text>
<text text-anchor="start" x="421.75" y="-142.62" font-family="Helvetica,sans-Serif" font-size="10.00">::FieldRefOpInterfaceInterface</text>
<text text-anchor="start" x="421.75" y="-131.38" font-family="Helvetica,sans-Serif" font-size="10.00">Traits::ExternalModel&lt; ConcreteModel,</text>
<text text-anchor="middle" x="507.25" y="-120.12" font-family="Helvetica,sans-Serif" font-size="10.00"> ConcreteOp &gt;</text>
</a>
</g>
</g>
<!-- Node2&#45;&gt;Node3 -->
<g id="edge2_Node000002_Node000003" class="edge">
<title>Node2&#45;&gt;Node3</title>
<g id="a_edge2_Node000002_Node000003"><a xlink:title=" ">
<path fill="none" stroke="#63b8ff" d="M389.38,-140.88C397.45,-140.88 405.55,-140.88 413.52,-140.88"/>
<polygon fill="#63b8ff" stroke="#63b8ff" points="389.52,-137.38 379.52,-140.88 389.52,-144.38 389.52,-137.38"/>
</a>
</g>
</g>
</g>
</svg>
