<?xml version="1.0" encoding="UTF-8" standalone="no"?>
<!DOCTYPE svg PUBLIC "-//W3C//DTD SVG 1.1//EN"
 "http://www.w3.org/Graphics/SVG/1.1/DTD/svg11.dtd">
<!-- Generated by graphviz version 12.2.1 (20241206.2353)
 -->
<!-- Title: llzk::component::detail::FieldRefOpInterfaceInterfaceTraits::Concept Pages: 1 -->
<svg width="176pt" height="195pt"
 viewBox="0.00 0.00 176.25 195.00" xmlns="http://www.w3.org/2000/svg" xmlns:xlink="http://www.w3.org/1999/xlink">
<g id="graph0" class="graph" transform="scale(1 1) rotate(0) translate(4 191)">
<title>llzk::component::detail::FieldRefOpInterfaceInterfaceTraits::Concept</title>
<!-- Node1 -->
<g id="Node000001" class="node">
<title>Node1</title>
<g id="a_Node000001"><a xlink:title=" ">
<polygon fill="#999999" stroke="#666666" points="158.12,-41.75 10.12,-41.75 10.12,0 158.12,0 158.12,-41.75"/>
<text text-anchor="start" x="18.12" y="-28.25" font-family="Helvetica,sans-Serif" font-size="10.00">llzk::component::detail</text>
<text text-anchor="start" x="18.12" y="-17" font-family="Helvetica,sans-Serif" font-size="10.00">::FieldRefOpInterfaceInterface</text>
<text text-anchor="middle" x="84.12" y="-5.75" font-family="Helvetica,sans-Serif" font-size="10.00">Traits::Concept</text>
</a>
</g>
</g>
<!-- Node2 -->
<g id="Node000002" class="node">
<title>Node2</title>
<g id="a_Node000002"><a xlink:href="classllzk_1_1component_1_1_struct_type.html" target="_top" xlink:title=" ">
<polygon fill="white" stroke="#666666" points="153.25,-108.25 15,-108.25 15,-89 153.25,-89 153.25,-108.25"/>
<text text-anchor="middle" x="84.12" y="-94.75" font-family="Helvetica,sans-Serif" font-size="10.00">llzk::component::StructType</text>
</a>
</g>
</g>
<!-- Node2&#45;&gt;Node1 -->
<g id="edge1_Node000001_Node000002" class="edge">
<title>Node2&#45;&gt;Node1</title>
<g id="a_edge1_Node000001_Node000002"><a xlink:title=" ">
<path fill="none" stroke="#9a32cd" stroke-dasharray="5,2" d="M84.12,-77.32C84.12,-66.45 84.12,-53.11 84.12,-42.24"/>
<polygon fill="#9a32cd" stroke="#9a32cd" points="80.63,-77.12 84.13,-87.12 87.63,-77.12 80.63,-77.12"/>
</a>
</g>
<text text-anchor="middle" x="116" y="-61.5" font-family="Helvetica,sans-Serif" font-size="10.00" fill="grey"> getStructType</text>
</g>
<!-- Node3 -->
<g id="Node000003" class="node">
<title>Node3</title>
<g id="a_Node000003"><a xlink:title=" ">
<polygon fill="white" stroke="#666666" points="168.25,-187 0,-187 0,-145.25 168.25,-145.25 168.25,-187"/>
<text text-anchor="start" x="8" y="-173.5" font-family="Helvetica,sans-Serif" font-size="10.00">mlir::Type::TypeBase</text>
<text text-anchor="start" x="8" y="-162.25" font-family="Helvetica,sans-Serif" font-size="10.00">&lt; StructType, ::mlir</text>
<text text-anchor="middle" x="84.12" y="-151" font-family="Helvetica,sans-Serif" font-size="10.00">::Type, detail::StructTypeStorage &gt;</text>
</a>
</g>
</g>
<!-- Node3&#45;&gt;Node2 -->
<g id="edge2_Node000002_Node000003" class="edge">
<title>Node3&#45;&gt;Node2</title>
<g id="a_edge2_Node000002_Node000003"><a xlink:title=" ">
<path fill="none" stroke="#63b8ff" d="M84.12,-133.43C84.12,-124.27 84.12,-115 84.12,-108.49"/>
<polygon fill="#63b8ff" stroke="#63b8ff" points="80.63,-133.25 84.13,-143.25 87.63,-133.25 80.63,-133.25"/>
</a>
</g>
</g>
</g>
</svg>
