<?xml version="1.0" encoding="UTF-8" standalone="no"?>
<!DOCTYPE svg PUBLIC "-//W3C//DTD SVG 1.1//EN"
 "http://www.w3.org/Graphics/SVG/1.1/DTD/svg11.dtd">
<!-- Generated by graphviz version 12.2.1 (20241206.2353)
 -->
<!-- Title: llzk::array::ArrayRefOpInterface::Trait&lt; ConcreteOp &gt; Pages: 1 -->
<svg width="163pt" height="183pt"
 viewBox="0.00 0.00 162.75 182.75" xmlns="http://www.w3.org/2000/svg" xmlns:xlink="http://www.w3.org/1999/xlink">
<g id="graph0" class="graph" transform="scale(1 1) rotate(0) translate(4 178.75)">
<title>llzk::array::ArrayRefOpInterface::Trait&lt; ConcreteOp &gt;</title>
<!-- Node1 -->
<g id="Node000001" class="node">
<title>Node1</title>
<g id="a_Node000001"><a xlink:title=" ">
<polygon fill="#999999" stroke="#666666" points="154.75,-30.5 0,-30.5 0,0 154.75,0 154.75,-30.5"/>
<text text-anchor="start" x="8" y="-17" font-family="Helvetica,sans-Serif" font-size="10.00">llzk::array::ArrayRefOpInterface</text>
<text text-anchor="middle" x="77.38" y="-5.75" font-family="Helvetica,sans-Serif" font-size="10.00">::Trait&lt; ConcreteOp &gt;</text>
</a>
</g>
</g>
<!-- Node2 -->
<g id="Node000002" class="node">
<title>Node2</title>
<g id="a_Node000002"><a xlink:href="structllzk_1_1array_1_1detail_1_1_array_ref_op_interface_trait.html" target="_top" xlink:title=" ">
<polygon fill="white" stroke="#666666" points="143.12,-108.25 11.62,-108.25 11.62,-66.5 143.12,-66.5 143.12,-108.25"/>
<text text-anchor="start" x="19.62" y="-94.75" font-family="Helvetica,sans-Serif" font-size="10.00">llzk::array::detail</text>
<text text-anchor="start" x="19.62" y="-83.5" font-family="Helvetica,sans-Serif" font-size="10.00">::ArrayRefOpInterfaceTrait</text>
<text text-anchor="middle" x="77.38" y="-72.25" font-family="Helvetica,sans-Serif" font-size="10.00">&lt; ConcreteOp &gt;</text>
</a>
</g>
</g>
<!-- Node2&#45;&gt;Node1 -->
<g id="edge1_Node000001_Node000002" class="edge">
<title>Node2&#45;&gt;Node1</title>
<g id="a_edge1_Node000001_Node000002"><a xlink:title=" ">
<path fill="none" stroke="#63b8ff" d="M77.38,-54.63C77.38,-46.27 77.38,-37.65 77.38,-30.7"/>
<polygon fill="#63b8ff" stroke="#63b8ff" points="73.88,-54.58 77.38,-64.58 80.88,-54.58 73.88,-54.58"/>
</a>
</g>
</g>
<!-- Node3 -->
<g id="Node000003" class="node">
<title>Node3</title>
<g id="a_Node000003"><a xlink:title=" ">
<polygon fill="white" stroke="#666666" points="130.38,-174.75 24.38,-174.75 24.38,-144.25 130.38,-144.25 130.38,-174.75"/>
<text text-anchor="start" x="32.38" y="-161.25" font-family="Helvetica,sans-Serif" font-size="10.00">mlir::OpInterface::</text>
<text text-anchor="middle" x="77.38" y="-150" font-family="Helvetica,sans-Serif" font-size="10.00">Trait&lt; ConcreteOp &gt;</text>
</a>
</g>
</g>
<!-- Node3&#45;&gt;Node2 -->
<g id="edge2_Node000002_Node000003" class="edge">
<title>Node3&#45;&gt;Node2</title>
<g id="a_edge2_Node000002_Node000003"><a xlink:title=" ">
<path fill="none" stroke="#63b8ff" d="M77.38,-132.72C77.38,-124.81 77.38,-116.23 77.38,-108.74"/>
<polygon fill="#63b8ff" stroke="#63b8ff" points="73.88,-132.46 77.38,-142.46 80.88,-132.46 73.88,-132.46"/>
</a>
</g>
</g>
</g>
</svg>
