<?xml version="1.0" encoding="UTF-8" standalone="no"?>
<!DOCTYPE svg PUBLIC "-//W3C//DTD SVG 1.1//EN"
 "http://www.w3.org/Graphics/SVG/1.1/DTD/svg11.dtd">
<!-- Generated by graphviz version 12.2.1 (20241206.2353)
 -->
<!-- Title: llzk::constrain::detail::ConstraintOpInterfaceInterfaceTraits::Concept Pages: 1 -->
<svg width="617pt" height="175pt"
 viewBox="0.00 0.00 617.00 175.38" xmlns="http://www.w3.org/2000/svg" xmlns:xlink="http://www.w3.org/1999/xlink">
<g id="graph0" class="graph" transform="scale(1 1) rotate(0) translate(4 171.38)">
<title>llzk::constrain::detail::ConstraintOpInterfaceInterfaceTraits::Concept</title>
<!-- Node1 -->
<g id="Node000001" class="node">
<title>Node1</title>
<g id="a_Node000001"><a xlink:title=" ">
<polygon fill="#999999" stroke="#666666" points="156.25,-101.75 0,-101.75 0,-60 156.25,-60 156.25,-101.75"/>
<text text-anchor="start" x="8" y="-88.25" font-family="Helvetica,sans-Serif" font-size="10.00">llzk::constrain::detail</text>
<text text-anchor="start" x="8" y="-77" font-family="Helvetica,sans-Serif" font-size="10.00">::ConstraintOpInterfaceInterface</text>
<text text-anchor="middle" x="78.12" y="-65.75" font-family="Helvetica,sans-Serif" font-size="10.00">Traits::Concept</text>
</a>
</g>
</g>
<!-- Node2 -->
<g id="Node000002" class="node">
<title>Node2</title>
<g id="a_Node000002"><a xlink:href="classllzk_1_1constrain_1_1detail_1_1_constraint_op_interface_interface_traits_1_1_fallback_model.html" target="_top" xlink:title=" ">
<polygon fill="white" stroke="#666666" points="386,-161.75 192.25,-161.75 192.25,-120 386,-120 386,-161.75"/>
<text text-anchor="start" x="200.25" y="-148.25" font-family="Helvetica,sans-Serif" font-size="10.00">llzk::constrain::detail</text>
<text text-anchor="start" x="200.25" y="-137" font-family="Helvetica,sans-Serif" font-size="10.00">::ConstraintOpInterfaceInterface</text>
<text text-anchor="middle" x="289.12" y="-125.75" font-family="Helvetica,sans-Serif" font-size="10.00">Traits::FallbackModel&lt; ConcreteModel &gt;</text>
</a>
</g>
</g>
<!-- Node1&#45;&gt;Node2 -->
<g id="edge1_Node000001_Node000002" class="edge">
<title>Node1&#45;&gt;Node2</title>
<g id="a_edge1_Node000001_Node000002"><a xlink:title=" ">
<path fill="none" stroke="#63b8ff" d="M164.09,-105.27C180.54,-109.99 197.66,-114.9 213.74,-119.52"/>
<polygon fill="#63b8ff" stroke="#63b8ff" points="165.43,-102.01 154.85,-102.62 163.5,-108.74 165.43,-102.01"/>
</a>
</g>
</g>
<!-- Node4 -->
<g id="Node000004" class="node">
<title>Node4</title>
<g id="a_Node000004"><a xlink:href="classllzk_1_1constrain_1_1detail_1_1_constraint_op_interface_interface_traits_1_1_fallback_model.html" target="_top" xlink:title=" ">
<polygon fill="white" stroke="#666666" points="379.25,-101.75 199,-101.75 199,-60 379.25,-60 379.25,-101.75"/>
<text text-anchor="start" x="207" y="-88.25" font-family="Helvetica,sans-Serif" font-size="10.00">llzk::constrain::detail</text>
<text text-anchor="start" x="207" y="-77" font-family="Helvetica,sans-Serif" font-size="10.00">::ConstraintOpInterfaceInterface</text>
<text text-anchor="middle" x="289.12" y="-65.75" font-family="Helvetica,sans-Serif" font-size="10.00">Traits::FallbackModel&lt; ConcreteOp &gt;</text>
</a>
</g>
</g>
<!-- Node1&#45;&gt;Node4 -->
<g id="edge3_Node000001_Node000004" class="edge">
<title>Node1&#45;&gt;Node4</title>
<g id="a_edge3_Node000001_Node000004"><a xlink:title=" ">
<path fill="none" stroke="#63b8ff" d="M168.02,-80.88C178.19,-80.88 188.56,-80.88 198.74,-80.88"/>
<polygon fill="#63b8ff" stroke="#63b8ff" points="168.17,-77.38 158.17,-80.88 168.17,-84.38 168.17,-77.38"/>
</a>
</g>
</g>
<!-- Node5 -->
<g id="Node000005" class="node">
<title>Node5</title>
<g id="a_Node000005"><a xlink:href="classllzk_1_1constrain_1_1detail_1_1_constraint_op_interface_interface_traits_1_1_model.html" target="_top" xlink:title=" ">
<polygon fill="white" stroke="#666666" points="367.25,-41.75 211,-41.75 211,0 367.25,0 367.25,-41.75"/>
<text text-anchor="start" x="219" y="-28.25" font-family="Helvetica,sans-Serif" font-size="10.00">llzk::constrain::detail</text>
<text text-anchor="start" x="219" y="-17" font-family="Helvetica,sans-Serif" font-size="10.00">::ConstraintOpInterfaceInterface</text>
<text text-anchor="middle" x="289.12" y="-5.75" font-family="Helvetica,sans-Serif" font-size="10.00">Traits::Model&lt; ConcreteOp &gt;</text>
</a>
</g>
</g>
<!-- Node1&#45;&gt;Node5 -->
<g id="edge4_Node000001_Node000005" class="edge">
<title>Node1&#45;&gt;Node5</title>
<g id="a_edge4_Node000001_Node000005"><a xlink:title=" ">
<path fill="none" stroke="#63b8ff" d="M164.09,-56.48C180.54,-51.76 197.66,-46.85 213.74,-42.23"/>
<polygon fill="#63b8ff" stroke="#63b8ff" points="163.5,-53.01 154.85,-59.13 165.43,-59.74 163.5,-53.01"/>
</a>
</g>
</g>
<!-- Node3 -->
<g id="Node000003" class="node">
<title>Node3</title>
<g id="a_Node000003"><a xlink:href="classllzk_1_1constrain_1_1detail_1_1_constraint_op_interface_interface_traits_1_1_external_model.html" target="_top" xlink:title=" ">
<polygon fill="white" stroke="#666666" points="609,-167.38 422,-167.38 422,-114.38 609,-114.38 609,-167.38"/>
<text text-anchor="start" x="430" y="-153.88" font-family="Helvetica,sans-Serif" font-size="10.00">llzk::constrain::detail</text>
<text text-anchor="start" x="430" y="-142.62" font-family="Helvetica,sans-Serif" font-size="10.00">::ConstraintOpInterfaceInterface</text>
<text text-anchor="start" x="430" y="-131.38" font-family="Helvetica,sans-Serif" font-size="10.00">Traits::ExternalModel&lt; ConcreteModel,</text>
<text text-anchor="middle" x="515.5" y="-120.12" font-family="Helvetica,sans-Serif" font-size="10.00"> ConcreteOp &gt;</text>
</a>
</g>
</g>
<!-- Node2&#45;&gt;Node3 -->
<g id="edge2_Node000002_Node000003" class="edge">
<title>Node2&#45;&gt;Node3</title>
<g id="a_edge2_Node000002_Node000003"><a xlink:title=" ">
<path fill="none" stroke="#63b8ff" d="M397.63,-140.88C405.7,-140.88 413.8,-140.88 421.77,-140.88"/>
<polygon fill="#63b8ff" stroke="#63b8ff" points="397.77,-137.38 387.77,-140.88 397.77,-144.38 397.77,-137.38"/>
</a>
</g>
</g>
</g>
</svg>
