<?xml version="1.0" encoding="UTF-8" standalone="no"?>
<!DOCTYPE svg PUBLIC "-//W3C//DTD SVG 1.1//EN"
 "http://www.w3.org/Graphics/SVG/1.1/DTD/svg11.dtd">
<!-- Generated by graphviz version 12.2.1 (20241206.2353)
 -->
<!-- Title: tools/include/tools/config.h Pages: 1 -->
<svg width="216pt" height="105pt"
 viewBox="0.00 0.00 216.12 105.00" xmlns="http://www.w3.org/2000/svg" xmlns:xlink="http://www.w3.org/1999/xlink">
<g id="graph0" class="graph" transform="scale(1 1) rotate(0) translate(4 101)">
<title>tools/include/tools/config.h</title>
<!-- Node1 -->
<g id="Node000001" class="node">
<title>Node1</title>
<g id="a_Node000001"><a xlink:title=" ">
<polygon fill="#999999" stroke="#666666" points="153.75,-97 59,-97 59,-66.5 153.75,-66.5 153.75,-97"/>
<text text-anchor="start" x="67" y="-83.5" font-family="Helvetica,sans-Serif" font-size="10.00">tools/include/tools</text>
<text text-anchor="middle" x="106.38" y="-72.25" font-family="Helvetica,sans-Serif" font-size="10.00">/config.h</text>
</a>
</g>
</g>
<!-- Node2 -->
<g id="Node000002" class="node">
<title>Node2</title>
<g id="a_Node000002"><a xlink:href="llzk-lsp-server_8cpp.html" target="_top" xlink:title=" ">
<polygon fill="white" stroke="#666666" points="100.75,-30.5 0,-30.5 0,0 100.75,0 100.75,-30.5"/>
<text text-anchor="start" x="8" y="-17" font-family="Helvetica,sans-Serif" font-size="10.00">tools/llzk&#45;lsp&#45;server</text>
<text text-anchor="middle" x="50.38" y="-5.75" font-family="Helvetica,sans-Serif" font-size="10.00">/llzk&#45;lsp&#45;server.cpp</text>
</a>
</g>
</g>
<!-- Node1&#45;&gt;Node2 -->
<g id="edge1_Node000001_Node000002" class="edge">
<title>Node1&#45;&gt;Node2</title>
<g id="a_edge1_Node000001_Node000002"><a xlink:title=" ">
<path fill="none" stroke="#63b8ff" d="M86.3,-57.63C78.54,-48.69 69.9,-38.74 63.03,-30.83"/>
<polygon fill="#63b8ff" stroke="#63b8ff" points="83.48,-59.71 92.68,-64.97 88.76,-55.13 83.48,-59.71"/>
</a>
</g>
</g>
<!-- Node3 -->
<g id="Node000003" class="node">
<title>Node3</title>
<g id="a_Node000003"><a xlink:href="llzk-opt_8cpp.html" target="_top" xlink:title="This file implements a version of the mlir&#45;opt tool configured for use on LLZK files.">
<polygon fill="white" stroke="#666666" points="208.12,-30.5 118.62,-30.5 118.62,0 208.12,0 208.12,-30.5"/>
<text text-anchor="start" x="126.62" y="-17" font-family="Helvetica,sans-Serif" font-size="10.00">tools/llzk&#45;opt/llzk</text>
<text text-anchor="middle" x="163.38" y="-5.75" font-family="Helvetica,sans-Serif" font-size="10.00">&#45;opt.cpp</text>
</a>
</g>
</g>
<!-- Node1&#45;&gt;Node3 -->
<g id="edge2_Node000001_Node000003" class="edge">
<title>Node1&#45;&gt;Node3</title>
<g id="a_edge2_Node000001_Node000003"><a xlink:title=" ">
<path fill="none" stroke="#63b8ff" d="M126.81,-57.63C134.71,-48.69 143.5,-38.74 150.49,-30.83"/>
<polygon fill="#63b8ff" stroke="#63b8ff" points="124.31,-55.17 120.31,-64.98 129.56,-59.8 124.31,-55.17"/>
</a>
</g>
</g>
</g>
</svg>
