<?xml version="1.0" encoding="UTF-8" standalone="no"?>
<!DOCTYPE svg PUBLIC "-//W3C//DTD SVG 1.1//EN"
 "http://www.w3.org/Graphics/SVG/1.1/DTD/svg11.dtd">
<!-- Generated by graphviz version 12.2.1 (0)
 -->
<!-- Title: include/llzk/Util/APIntHelper.h Pages: 1 -->
<svg width="357pt" height="160pt"
 viewBox="0.00 0.00 356.88 160.25" xmlns="http://www.w3.org/2000/svg" xmlns:xlink="http://www.w3.org/1999/xlink">
<g id="graph0" class="graph" transform="scale(1 1) rotate(0) translate(4 156.25)">
<title>include/llzk/Util/APIntHelper.h</title>
<!-- Node1 -->
<g id="Node000001" class="node">
<title>Node1</title>
<g id="a_Node000001"><a xlink:title="This file defines helpers for manipulating APInts/APSInts for large numbers and operations over those...">
<polygon fill="#999999" stroke="#666666" points="233.12,-152.25 86.62,-152.25 86.62,-133 233.12,-133 233.12,-152.25"/>
<text text-anchor="middle" x="159.88" y="-138.75" font-family="Helvetica,sans-Serif" font-size="10.00">include/llzk/Util/APIntHelper.h</text>
</a>
</g>
</g>
<!-- Node2 -->
<g id="Node000002" class="node">
<title>Node2</title>
<g id="a_Node000002"><a xlink:href="_interval_analysis_8h.html" target="_top" xlink:title=" ">
<polygon fill="white" stroke="#666666" points="212.5,-97 107.25,-97 107.25,-66.5 212.5,-66.5 212.5,-97"/>
<text text-anchor="start" x="115.25" y="-83.5" font-family="Helvetica,sans-Serif" font-size="10.00">include/llzk/Analysis</text>
<text text-anchor="middle" x="159.88" y="-72.25" font-family="Helvetica,sans-Serif" font-size="10.00">/IntervalAnalysis.h</text>
</a>
</g>
</g>
<!-- Node1&#45;&gt;Node2 -->
<g id="edge1_Node000001_Node000002" class="edge">
<title>Node1&#45;&gt;Node2</title>
<g id="a_edge1_Node000001_Node000002"><a xlink:title=" ">
<path fill="none" stroke="#63b8ff" d="M159.88,-121.42C159.88,-113.49 159.88,-104.56 159.88,-97.28"/>
<polygon fill="#63b8ff" stroke="#63b8ff" points="156.38,-121.17 159.88,-131.17 163.38,-121.17 156.38,-121.17"/>
</a>
</g>
</g>
<!-- Node3 -->
<g id="Node000003" class="node">
<title>Node3</title>
<g id="a_Node000003"><a xlink:href="_interval_analysis_8cpp.html" target="_top" xlink:title=" ">
<polygon fill="white" stroke="#666666" points="157.75,-24.88 0,-24.88 0,-5.63 157.75,-5.63 157.75,-24.88"/>
<text text-anchor="middle" x="78.88" y="-11.38" font-family="Helvetica,sans-Serif" font-size="10.00">lib/Analysis/IntervalAnalysis.cpp</text>
</a>
</g>
</g>
<!-- Node1&#45;&gt;Node3 -->
<g id="edge4_Node000001_Node000003" class="edge">
<title>Node1&#45;&gt;Node3</title>
<g id="a_edge4_Node000001_Node000003"><a xlink:title=" ">
<path fill="none" stroke="#63b8ff" d="M131.08,-126.97C119.14,-119.53 106.16,-109.41 97.88,-97 82.75,-74.37 79.6,-41.14 78.99,-25.3"/>
<polygon fill="#63b8ff" stroke="#63b8ff" points="129.04,-129.83 139.44,-131.83 132.55,-123.78 129.04,-129.83"/>
</a>
</g>
</g>
<!-- Node5 -->
<g id="Node000005" class="node">
<title>Node5</title>
<g id="a_Node000005"><a xlink:href="_a_p_int_helper_8cpp.html" target="_top" xlink:title=" ">
<polygon fill="white" stroke="#666666" points="348.88,-91.38 230.88,-91.38 230.88,-72.12 348.88,-72.12 348.88,-91.38"/>
<text text-anchor="middle" x="289.88" y="-77.88" font-family="Helvetica,sans-Serif" font-size="10.00">lib/Util/APIntHelper.cpp</text>
</a>
</g>
</g>
<!-- Node1&#45;&gt;Node5 -->
<g id="edge5_Node000001_Node000005" class="edge">
<title>Node1&#45;&gt;Node5</title>
<g id="a_edge5_Node000001_Node000005"><a xlink:title=" ">
<path fill="none" stroke="#63b8ff" d="M190.14,-127.92C214.75,-116.77 248.77,-101.37 270.04,-91.73"/>
<polygon fill="#63b8ff" stroke="#63b8ff" points="188.95,-124.62 181.28,-131.93 191.83,-130.99 188.95,-124.62"/>
</a>
</g>
</g>
<!-- Node2&#45;&gt;Node3 -->
<g id="edge2_Node000002_Node000003" class="edge">
<title>Node2&#45;&gt;Node3</title>
<g id="a_edge2_Node000002_Node000003"><a xlink:title=" ">
<path fill="none" stroke="#63b8ff" d="M132.81,-59.2C118.19,-47.56 100.94,-33.82 89.95,-25.07"/>
<polygon fill="#63b8ff" stroke="#63b8ff" points="130.31,-61.68 140.31,-65.17 134.67,-56.2 130.31,-61.68"/>
</a>
</g>
</g>
<!-- Node4 -->
<g id="Node000004" class="node">
<title>Node4</title>
<g id="a_Node000004"><a xlink:href="_interval_analysis_pass_8cpp.html" target="_top" xlink:title="This file implements the &#45;llzk&#45;print&#45;interval&#45;analysis pass.">
<polygon fill="white" stroke="#666666" points="314.38,-30.5 175.38,-30.5 175.38,0 314.38,0 314.38,-30.5"/>
<text text-anchor="start" x="183.38" y="-17" font-family="Helvetica,sans-Serif" font-size="10.00">lib/Analysis/IntervalAnalysis</text>
<text text-anchor="middle" x="244.88" y="-5.75" font-family="Helvetica,sans-Serif" font-size="10.00">Pass.cpp</text>
</a>
</g>
</g>
<!-- Node2&#45;&gt;Node4 -->
<g id="edge3_Node000002_Node000004" class="edge">
<title>Node2&#45;&gt;Node4</title>
<g id="a_edge3_Node000002_Node000004"><a xlink:title=" ">
<path fill="none" stroke="#63b8ff" d="M188.15,-59.29C200.47,-49.94 214.59,-39.23 225.66,-30.83"/>
<polygon fill="#63b8ff" stroke="#63b8ff" points="186.22,-56.37 180.37,-65.2 190.45,-61.94 186.22,-56.37"/>
</a>
</g>
</g>
</g>
</svg>
