<?xml version="1.0" encoding="UTF-8" standalone="no"?>
<!DOCTYPE svg PUBLIC "-//W3C//DTD SVG 1.1//EN"
 "http://www.w3.org/Graphics/SVG/1.1/DTD/svg11.dtd">
<!-- Generated by graphviz version 12.2.1 (0)
 -->
<!-- Title: build/include/llzk/Dialect/Array/IR/Ops.h.inc Pages: 1 -->
<svg width="2019pt" height="305pt"
 viewBox="0.00 0.00 2019.12 304.50" xmlns="http://www.w3.org/2000/svg" xmlns:xlink="http://www.w3.org/1999/xlink">
<g id="graph0" class="graph" transform="scale(1 1) rotate(0) translate(4 300.5)">
<title>build/include/llzk/Dialect/Array/IR/Ops.h.inc</title>
<!-- Node1 -->
<g id="Node000001" class="node">
<title>Node1</title>
<g id="a_Node000001"><a xlink:title=" ">
<polygon fill="#999999" stroke="#666666" points="1413.5,-296.5 1279,-296.5 1279,-266 1413.5,-266 1413.5,-296.5"/>
<text text-anchor="start" x="1287" y="-283" font-family="Helvetica,sans-Serif" font-size="10.00">build/include/llzk</text>
<text text-anchor="middle" x="1346.25" y="-271.75" font-family="Helvetica,sans-Serif" font-size="10.00">/Dialect/Array/IR/Ops.h.inc</text>
</a>
</g>
</g>
<!-- Node2 -->
<g id="Node000002" class="node">
<title>Node2</title>
<g id="a_Node000002"><a xlink:href="_array_2_i_r_2_ops_8h.html" target="_top" xlink:title=" ">
<polygon fill="white" stroke="#666666" points="1328.5,-163.5 1230,-163.5 1230,-133 1328.5,-133 1328.5,-163.5"/>
<text text-anchor="start" x="1238" y="-150" font-family="Helvetica,sans-Serif" font-size="10.00">include/llzk/Dialect</text>
<text text-anchor="middle" x="1279.25" y="-138.75" font-family="Helvetica,sans-Serif" font-size="10.00">/Array/IR/Ops.h</text>
</a>
</g>
</g>
<!-- Node1&#45;&gt;Node2 -->
<g id="edge1_Node000001_Node000002" class="edge">
<title>Node1&#45;&gt;Node2</title>
<g id="a_edge1_Node000001_Node000002"><a xlink:title=" ">
<path fill="none" stroke="#63b8ff" d="M1333.6,-255.52C1319.76,-228.46 1298.05,-186.01 1286.71,-163.83"/>
<polygon fill="#63b8ff" stroke="#63b8ff" points="1330.46,-257.07 1338.13,-264.38 1336.7,-253.89 1330.46,-257.07"/>
</a>
</g>
</g>
<!-- Node15 -->
<g id="Node000015" class="node">
<title>Node15</title>
<g id="a_Node000015"><a xlink:href="_array_2_i_r_2_types_8h.html" target="_top" xlink:title=" ">
<polygon fill="white" stroke="#666666" points="1449.5,-230 1351,-230 1351,-199.5 1449.5,-199.5 1449.5,-230"/>
<text text-anchor="start" x="1359" y="-216.5" font-family="Helvetica,sans-Serif" font-size="10.00">include/llzk/Dialect</text>
<text text-anchor="middle" x="1400.25" y="-205.25" font-family="Helvetica,sans-Serif" font-size="10.00">/Array/IR/Types.h</text>
</a>
</g>
</g>
<!-- Node1&#45;&gt;Node15 -->
<g id="edge14_Node000001_Node000015" class="edge">
<title>Node1&#45;&gt;Node15</title>
<g id="a_edge14_Node000001_Node000015"><a xlink:title=" ">
<path fill="none" stroke="#63b8ff" d="M1365.84,-256.85C1373.26,-247.98 1381.49,-238.15 1388.05,-230.33"/>
<polygon fill="#63b8ff" stroke="#63b8ff" points="1363.21,-254.54 1359.48,-264.45 1368.58,-259.03 1363.21,-254.54"/>
</a>
</g>
</g>
<!-- Node3 -->
<g id="Node000003" class="node">
<title>Node3</title>
<g id="a_Node000003"><a xlink:href="_interval_analysis_8h.html" target="_top" xlink:title=" ">
<polygon fill="white" stroke="#666666" points="520.88,-97 415.62,-97 415.62,-66.5 520.88,-66.5 520.88,-97"/>
<text text-anchor="start" x="423.62" y="-83.5" font-family="Helvetica,sans-Serif" font-size="10.00">include/llzk/Analysis</text>
<text text-anchor="middle" x="468.25" y="-72.25" font-family="Helvetica,sans-Serif" font-size="10.00">/IntervalAnalysis.h</text>
</a>
</g>
</g>
<!-- Node2&#45;&gt;Node3 -->
<g id="edge2_Node000002_Node000003" class="edge">
<title>Node2&#45;&gt;Node3</title>
<g id="a_edge2_Node000002_Node000003"><a xlink:title=" ">
<path fill="none" stroke="#63b8ff" d="M1218.33,-146.52C1090.13,-144.24 783.33,-134.93 529.25,-97 526.56,-96.6 523.82,-96.14 521.05,-95.64"/>
<polygon fill="#63b8ff" stroke="#63b8ff" points="1218.24,-150.02 1228.3,-146.68 1218.36,-143.02 1218.24,-150.02"/>
</a>
</g>
</g>
<!-- Node6 -->
<g id="Node000006" class="node">
<title>Node6</title>
<g id="a_Node000006"><a xlink:href="_constrain_ref_8cpp.html" target="_top" xlink:title=" ">
<polygon fill="white" stroke="#666666" points="1162.12,-91.38 1016.38,-91.38 1016.38,-72.12 1162.12,-72.12 1162.12,-91.38"/>
<text text-anchor="middle" x="1089.25" y="-77.88" font-family="Helvetica,sans-Serif" font-size="10.00">lib/Analysis/ConstrainRef.cpp</text>
</a>
</g>
</g>
<!-- Node2&#45;&gt;Node6 -->
<g id="edge5_Node000002_Node000006" class="edge">
<title>Node2&#45;&gt;Node6</title>
<g id="a_edge5_Node000002_Node000006"><a xlink:title=" ">
<path fill="none" stroke="#63b8ff" d="M1225.39,-128.97C1189.68,-116.84 1144.35,-101.46 1116.07,-91.85"/>
<polygon fill="#63b8ff" stroke="#63b8ff" points="1224.11,-132.23 1234.7,-132.13 1226.36,-125.6 1224.11,-132.23"/>
</a>
</g>
</g>
<!-- Node7 -->
<g id="Node000007" class="node">
<title>Node7</title>
<g id="a_Node000007"><a xlink:href="_constraint_dependency_graph_8cpp.html" target="_top" xlink:title=" ">
<polygon fill="white" stroke="#666666" points="707.75,-97 538.75,-97 538.75,-66.5 707.75,-66.5 707.75,-97"/>
<text text-anchor="start" x="546.75" y="-83.5" font-family="Helvetica,sans-Serif" font-size="10.00">lib/Analysis/ConstraintDependency</text>
<text text-anchor="middle" x="623.25" y="-72.25" font-family="Helvetica,sans-Serif" font-size="10.00">Graph.cpp</text>
</a>
</g>
</g>
<!-- Node2&#45;&gt;Node7 -->
<g id="edge6_Node000002_Node000007" class="edge">
<title>Node2&#45;&gt;Node7</title>
<g id="a_edge6_Node000002_Node000007"><a xlink:title=" ">
<path fill="none" stroke="#63b8ff" d="M1218.37,-143.08C1114.96,-135.71 898.47,-119.07 716.25,-97 713.49,-96.67 710.69,-96.31 707.87,-95.95"/>
<polygon fill="#63b8ff" stroke="#63b8ff" points="1218.08,-146.57 1228.3,-143.78 1218.58,-139.59 1218.08,-146.57"/>
</a>
</g>
</g>
<!-- Node8 -->
<g id="Node000008" class="node">
<title>Node8</title>
<g id="a_Node000008"><a xlink:href="_array_2_i_r_2_dialect_8cpp.html" target="_top" xlink:title=" ">
<polygon fill="white" stroke="#666666" points="997.88,-97 898.62,-97 898.62,-66.5 997.88,-66.5 997.88,-97"/>
<text text-anchor="start" x="906.62" y="-83.5" font-family="Helvetica,sans-Serif" font-size="10.00">lib/Dialect/Array/IR</text>
<text text-anchor="middle" x="948.25" y="-72.25" font-family="Helvetica,sans-Serif" font-size="10.00">/Dialect.cpp</text>
</a>
</g>
</g>
<!-- Node2&#45;&gt;Node8 -->
<g id="edge7_Node000002_Node000008" class="edge">
<title>Node2&#45;&gt;Node8</title>
<g id="a_edge7_Node000002_Node000008"><a xlink:title=" ">
<path fill="none" stroke="#63b8ff" d="M1218.61,-137.02C1163.37,-127.47 1079.6,-112.41 1007.25,-97 1004.26,-96.36 1001.19,-95.69 998.1,-94.99"/>
<polygon fill="#63b8ff" stroke="#63b8ff" points="1218.01,-140.47 1228.46,-138.72 1219.2,-133.57 1218.01,-140.47"/>
</a>
</g>
</g>
<!-- Node9 -->
<g id="Node000009" class="node">
<title>Node9</title>
<g id="a_Node000009"><a xlink:href="_array_2_i_r_2_ops_8cpp.html" target="_top" xlink:title=" ">
<polygon fill="white" stroke="#666666" points="1726.88,-97 1627.62,-97 1627.62,-66.5 1726.88,-66.5 1726.88,-97"/>
<text text-anchor="start" x="1635.62" y="-83.5" font-family="Helvetica,sans-Serif" font-size="10.00">lib/Dialect/Array/IR</text>
<text text-anchor="middle" x="1677.25" y="-72.25" font-family="Helvetica,sans-Serif" font-size="10.00">/Ops.cpp</text>
</a>
</g>
</g>
<!-- Node2&#45;&gt;Node9 -->
<g id="edge8_Node000002_Node000009" class="edge">
<title>Node2&#45;&gt;Node9</title>
<g id="a_edge8_Node000002_Node000009"><a xlink:title=" ">
<path fill="none" stroke="#63b8ff" d="M1340.14,-140.01C1408.41,-131.48 1522.25,-116.04 1619.25,-97 1621.9,-96.48 1624.6,-95.92 1627.33,-95.33"/>
<polygon fill="#63b8ff" stroke="#63b8ff" points="1339.76,-136.53 1330.27,-141.23 1340.62,-143.47 1339.76,-136.53"/>
</a>
</g>
</g>
<!-- Node10 -->
<g id="Node000010" class="node">
<title>Node10</title>
<g id="a_Node000010"><a xlink:href="_array_2_i_r_2_types_8cpp.html" target="_top" xlink:title=" ">
<polygon fill="white" stroke="#666666" points="1609.88,-97 1510.62,-97 1510.62,-66.5 1609.88,-66.5 1609.88,-97"/>
<text text-anchor="start" x="1518.62" y="-83.5" font-family="Helvetica,sans-Serif" font-size="10.00">lib/Dialect/Array/IR</text>
<text text-anchor="middle" x="1560.25" y="-72.25" font-family="Helvetica,sans-Serif" font-size="10.00">/Types.cpp</text>
</a>
</g>
</g>
<!-- Node2&#45;&gt;Node10 -->
<g id="edge9_Node000002_Node000010" class="edge">
<title>Node2&#45;&gt;Node10</title>
<g id="a_edge9_Node000002_Node000010"><a xlink:title=" ">
<path fill="none" stroke="#63b8ff" d="M1339.64,-133.83C1384.31,-123.84 1446.62,-109.78 1501.25,-97 1504.23,-96.3 1507.28,-95.58 1510.37,-94.85"/>
<polygon fill="#63b8ff" stroke="#63b8ff" points="1339.15,-130.35 1330.15,-135.95 1340.67,-137.18 1339.15,-130.35"/>
</a>
</g>
</g>
<!-- Node11 -->
<g id="Node000011" class="node">
<title>Node11</title>
<g id="a_Node000011"><a xlink:href="_array_to_scalar_pass_8cpp.html" target="_top" xlink:title="This file implements the &#45;llzk&#45;array&#45;to&#45;scalar pass.">
<polygon fill="white" stroke="#666666" points="1883.38,-97 1745.12,-97 1745.12,-66.5 1883.38,-66.5 1883.38,-97"/>
<text text-anchor="start" x="1753.12" y="-83.5" font-family="Helvetica,sans-Serif" font-size="10.00">lib/Dialect/Array/Transforms</text>
<text text-anchor="middle" x="1814.25" y="-72.25" font-family="Helvetica,sans-Serif" font-size="10.00">/ArrayToScalarPass.cpp</text>
</a>
</g>
</g>
<!-- Node2&#45;&gt;Node11 -->
<g id="edge10_Node000002_Node000011" class="edge">
<title>Node2&#45;&gt;Node11</title>
<g id="a_edge10_Node000002_Node000011"><a xlink:title=" ">
<path fill="none" stroke="#63b8ff" d="M1340.09,-141.95C1427.84,-133.99 1594.9,-117.66 1736.25,-97 1739.11,-96.58 1742.03,-96.14 1744.97,-95.67"/>
<polygon fill="#63b8ff" stroke="#63b8ff" points="1339.92,-138.45 1330.27,-142.83 1340.55,-145.42 1339.92,-138.45"/>
</a>
</g>
</g>
<!-- Node12 -->
<g id="Node000012" class="node">
<title>Node12</title>
<g id="a_Node000012"><a xlink:href="_flattening_pass_8cpp.html" target="_top" xlink:title="This file implements the &#45;llzk&#45;flatten pass.">
<polygon fill="white" stroke="#666666" points="881,-97 725.5,-97 725.5,-66.5 881,-66.5 881,-97"/>
<text text-anchor="start" x="733.5" y="-83.5" font-family="Helvetica,sans-Serif" font-size="10.00">lib/Dialect/Polymorphic</text>
<text text-anchor="middle" x="803.25" y="-72.25" font-family="Helvetica,sans-Serif" font-size="10.00">/Transforms/FlatteningPass.cpp</text>
</a>
</g>
</g>
<!-- Node2&#45;&gt;Node12 -->
<g id="edge11_Node000002_Node000012" class="edge">
<title>Node2&#45;&gt;Node12</title>
<g id="a_edge11_Node000002_Node000012"><a xlink:title=" ">
<path fill="none" stroke="#63b8ff" d="M1218.26,-140.08C1141.42,-130.89 1005.37,-114.1 889.25,-97 886.55,-96.6 883.81,-96.19 881.05,-95.77"/>
<polygon fill="#63b8ff" stroke="#63b8ff" points="1217.77,-143.55 1228.11,-141.26 1218.59,-136.6 1217.77,-143.55"/>
</a>
</g>
</g>
<!-- Node13 -->
<g id="Node000013" class="node">
<title>Node13</title>
<g id="a_Node000013"><a xlink:href="_l_l_z_k_redundant_read_and_write_elimination_pass_8cpp.html" target="_top" xlink:title="This file implements the &#45;llzk&#45;duplicate&#45;read&#45;write&#45;elim pass.">
<polygon fill="white" stroke="#666666" points="1348.38,-97 1180.12,-97 1180.12,-66.5 1348.38,-66.5 1348.38,-97"/>
<text text-anchor="start" x="1188.12" y="-83.5" font-family="Helvetica,sans-Serif" font-size="10.00">lib/Transforms/LLZKRedundant</text>
<text text-anchor="middle" x="1264.25" y="-72.25" font-family="Helvetica,sans-Serif" font-size="10.00">ReadAndWriteEliminationPass.cpp</text>
</a>
</g>
</g>
<!-- Node2&#45;&gt;Node13 -->
<g id="edge12_Node000002_Node000013" class="edge">
<title>Node2&#45;&gt;Node13</title>
<g id="a_edge12_Node000002_Node000013"><a xlink:title=" ">
<path fill="none" stroke="#63b8ff" d="M1273.28,-121.59C1271.36,-113.34 1269.31,-104.49 1267.64,-97.33"/>
<polygon fill="#63b8ff" stroke="#63b8ff" points="1269.83,-122.19 1275.5,-131.14 1276.65,-120.61 1269.83,-122.19"/>
</a>
</g>
</g>
<!-- Node14 -->
<g id="Node000014" class="node">
<title>Node14</title>
<g id="a_Node000014"><a xlink:href="_symbol_helper_8cpp.html" target="_top" xlink:title="This file contains the implementations for symbol helper functions.">
<polygon fill="white" stroke="#666666" points="1492.38,-91.38 1366.12,-91.38 1366.12,-72.12 1492.38,-72.12 1492.38,-91.38"/>
<text text-anchor="middle" x="1429.25" y="-77.88" font-family="Helvetica,sans-Serif" font-size="10.00">lib/Util/SymbolHelper.cpp</text>
</a>
</g>
</g>
<!-- Node2&#45;&gt;Node14 -->
<g id="edge13_Node000002_Node000014" class="edge">
<title>Node2&#45;&gt;Node14</title>
<g id="a_edge13_Node000002_Node000014"><a xlink:title=" ">
<path fill="none" stroke="#63b8ff" d="M1323.64,-128.16C1351.62,-116.13 1386.47,-101.15 1408.3,-91.76"/>
<polygon fill="#63b8ff" stroke="#63b8ff" points="1322.48,-124.85 1314.68,-132.02 1325.25,-131.28 1322.48,-124.85"/>
</a>
</g>
</g>
<!-- Node4 -->
<g id="Node000004" class="node">
<title>Node4</title>
<g id="a_Node000004"><a xlink:href="_interval_analysis_8cpp.html" target="_top" xlink:title=" ">
<polygon fill="white" stroke="#666666" points="464.12,-24.88 306.38,-24.88 306.38,-5.63 464.12,-5.63 464.12,-24.88"/>
<text text-anchor="middle" x="385.25" y="-11.38" font-family="Helvetica,sans-Serif" font-size="10.00">lib/Analysis/IntervalAnalysis.cpp</text>
</a>
</g>
</g>
<!-- Node3&#45;&gt;Node4 -->
<g id="edge3_Node000003_Node000004" class="edge">
<title>Node3&#45;&gt;Node4</title>
<g id="a_edge3_Node000003_Node000004"><a xlink:title=" ">
<path fill="none" stroke="#63b8ff" d="M440.52,-59.2C425.54,-47.56 407.86,-33.82 396.6,-25.07"/>
<polygon fill="#63b8ff" stroke="#63b8ff" points="438.18,-61.81 448.22,-65.19 442.47,-56.29 438.18,-61.81"/>
</a>
</g>
</g>
<!-- Node5 -->
<g id="Node000005" class="node">
<title>Node5</title>
<g id="a_Node000005"><a xlink:href="_interval_analysis_pass_8cpp.html" target="_top" xlink:title="This file implements the &#45;llzk&#45;print&#45;interval&#45;analysis pass.">
<polygon fill="white" stroke="#666666" points="620.75,-30.5 481.75,-30.5 481.75,0 620.75,0 620.75,-30.5"/>
<text text-anchor="start" x="489.75" y="-17" font-family="Helvetica,sans-Serif" font-size="10.00">lib/Analysis/IntervalAnalysis</text>
<text text-anchor="middle" x="551.25" y="-5.75" font-family="Helvetica,sans-Serif" font-size="10.00">Pass.cpp</text>
</a>
</g>
</g>
<!-- Node3&#45;&gt;Node5 -->
<g id="edge4_Node000003_Node000005" class="edge">
<title>Node3&#45;&gt;Node5</title>
<g id="a_edge4_Node000003_Node000005"><a xlink:title=" ">
<path fill="none" stroke="#63b8ff" d="M495.86,-59.29C507.89,-49.94 521.68,-39.23 532.49,-30.83"/>
<polygon fill="#63b8ff" stroke="#63b8ff" points="494.03,-56.29 488.28,-65.19 498.32,-61.81 494.03,-56.29"/>
</a>
</g>
</g>
<!-- Node15&#45;&gt;Node2 -->
<g id="edge15_Node000015_Node000002" class="edge">
<title>Node15&#45;&gt;Node2</title>
<g id="a_edge15_Node000015_Node000002"><a xlink:title=" ">
<path fill="none" stroke="#63b8ff" d="M1362.81,-193.79C1344.64,-184.11 1323.21,-172.68 1306.6,-163.83"/>
<polygon fill="#63b8ff" stroke="#63b8ff" points="1360.99,-196.79 1371.46,-198.4 1364.28,-190.61 1360.99,-196.79"/>
</a>
</g>
</g>
<!-- Node15&#45;&gt;Node8 -->
<g id="edge28_Node000015_Node000008" class="edge">
<title>Node15&#45;&gt;Node8</title>
<g id="a_edge28_Node000015_Node000008"><a xlink:title=" ">
<path fill="none" stroke="#63b8ff" d="M1339.9,-197.03C1305.16,-187.35 1260.71,-174.87 1221.25,-163.5 1142.65,-140.84 1051.58,-113.73 997.01,-97.4"/>
<polygon fill="#63b8ff" stroke="#63b8ff" points="1338.78,-200.36 1349.35,-199.66 1340.66,-193.61 1338.78,-200.36"/>
</a>
</g>
</g>
<!-- Node15&#45;&gt;Node10 -->
<g id="edge29_Node000015_Node000010" class="edge">
<title>Node15&#45;&gt;Node10</title>
<g id="a_edge29_Node000015_Node000010"><a xlink:title=" ">
<path fill="none" stroke="#63b8ff" d="M1415.35,-189.65C1427.1,-172.31 1444.67,-149.21 1464.25,-133 1482.07,-118.25 1504.93,-106.07 1523.87,-97.4"/>
<polygon fill="#63b8ff" stroke="#63b8ff" points="1412.54,-187.56 1409.97,-197.83 1418.39,-191.4 1412.54,-187.56"/>
</a>
</g>
</g>
<!-- Node16 -->
<g id="Node000016" class="node">
<title>Node16</title>
<g id="a_Node000016"><a xlink:href="_array_type_helper_8h.html" target="_top" xlink:title=" ">
<polygon fill="white" stroke="#666666" points="1617,-163.5 1473.5,-163.5 1473.5,-133 1617,-133 1617,-163.5"/>
<text text-anchor="start" x="1481.5" y="-150" font-family="Helvetica,sans-Serif" font-size="10.00">include/llzk/Dialect</text>
<text text-anchor="middle" x="1545.25" y="-138.75" font-family="Helvetica,sans-Serif" font-size="10.00">/Array/Util/ArrayTypeHelper.h</text>
</a>
</g>
</g>
<!-- Node15&#45;&gt;Node16 -->
<g id="edge16_Node000015_Node000016" class="edge">
<title>Node15&#45;&gt;Node16</title>
<g id="a_edge16_Node000015_Node000016"><a xlink:title=" ">
<path fill="none" stroke="#63b8ff" d="M1443.56,-194.48C1465.57,-184.69 1491.88,-172.99 1512.23,-163.94"/>
<polygon fill="#63b8ff" stroke="#63b8ff" points="1442.25,-191.24 1434.54,-198.5 1445.09,-197.63 1442.25,-191.24"/>
</a>
</g>
</g>
<!-- Node18 -->
<g id="Node000018" class="node">
<title>Node18</title>
<g id="a_Node000018"><a xlink:href="_constrain_2_i_r_2_ops_8h.html" target="_top" xlink:title=" ">
<polygon fill="white" stroke="#666666" points="520.12,-163.5 416.38,-163.5 416.38,-133 520.12,-133 520.12,-163.5"/>
<text text-anchor="start" x="424.38" y="-150" font-family="Helvetica,sans-Serif" font-size="10.00">include/llzk/Dialect</text>
<text text-anchor="middle" x="468.25" y="-138.75" font-family="Helvetica,sans-Serif" font-size="10.00">/Constrain/IR/Ops.h</text>
</a>
</g>
</g>
<!-- Node15&#45;&gt;Node18 -->
<g id="edge21_Node000015_Node000018" class="edge">
<title>Node15&#45;&gt;Node18</title>
<g id="a_edge21_Node000015_Node000018"><a xlink:title=" ">
<path fill="none" stroke="#63b8ff" d="M1339.47,-209.54C1167.76,-197.66 681.1,-163.98 520.44,-152.86"/>
<polygon fill="#63b8ff" stroke="#63b8ff" points="1339.07,-213.02 1349.29,-210.22 1339.56,-206.04 1339.07,-213.02"/>
</a>
</g>
</g>
<!-- Node20 -->
<g id="Node000020" class="node">
<title>Node20</title>
<g id="a_Node000020"><a xlink:href="_constrain_2_i_r_2_ops_8cpp.html" target="_top" xlink:title=" ">
<polygon fill="white" stroke="#666666" points="104.5,-97 0,-97 0,-66.5 104.5,-66.5 104.5,-97"/>
<text text-anchor="start" x="8" y="-83.5" font-family="Helvetica,sans-Serif" font-size="10.00">lib/Dialect/Constrain</text>
<text text-anchor="middle" x="52.25" y="-72.25" font-family="Helvetica,sans-Serif" font-size="10.00">/IR/Ops.cpp</text>
</a>
</g>
</g>
<!-- Node15&#45;&gt;Node20 -->
<g id="edge30_Node000015_Node000020" class="edge">
<title>Node15&#45;&gt;Node20</title>
<g id="a_edge30_Node000015_Node000020"><a xlink:title=" ">
<path fill="none" stroke="#63b8ff" d="M1339.45,-214.31C1183.67,-214.96 757.8,-211.78 407.25,-163.5 297.83,-148.43 172.38,-116.31 103.76,-97.43"/>
<polygon fill="#63b8ff" stroke="#63b8ff" points="1339.14,-217.81 1349.12,-214.26 1339.1,-210.81 1339.14,-217.81"/>
</a>
</g>
</g>
<!-- Node22 -->
<g id="Node000022" class="node">
<title>Node22</title>
<g id="a_Node000022"><a xlink:href="_global_2_i_r_2_ops_8cpp.html" target="_top" xlink:title=" ">
<polygon fill="white" stroke="#666666" points="1725.38,-163.5 1635.12,-163.5 1635.12,-133 1725.38,-133 1725.38,-163.5"/>
<text text-anchor="start" x="1643.12" y="-150" font-family="Helvetica,sans-Serif" font-size="10.00">lib/Dialect/Global</text>
<text text-anchor="middle" x="1680.25" y="-138.75" font-family="Helvetica,sans-Serif" font-size="10.00">/IR/Ops.cpp</text>
</a>
</g>
</g>
<!-- Node15&#45;&gt;Node22 -->
<g id="edge31_Node000015_Node000022" class="edge">
<title>Node15&#45;&gt;Node22</title>
<g id="a_edge31_Node000015_Node000022"><a xlink:title=" ">
<path fill="none" stroke="#63b8ff" d="M1460.94,-200.93C1506.52,-191.14 1570.44,-177.06 1626.25,-163.5 1629.08,-162.81 1631.98,-162.09 1634.91,-161.35"/>
<polygon fill="#63b8ff" stroke="#63b8ff" points="1460.28,-197.49 1451.24,-203.01 1461.75,-204.34 1460.28,-197.49"/>
</a>
</g>
</g>
<!-- Node23 -->
<g id="Node000023" class="node">
<title>Node23</title>
<g id="a_Node000023"><a xlink:href="_struct_2_i_r_2_ops_8cpp.html" target="_top" xlink:title=" ">
<polygon fill="white" stroke="#666666" points="1832.62,-163.5 1743.88,-163.5 1743.88,-133 1832.62,-133 1832.62,-163.5"/>
<text text-anchor="start" x="1751.88" y="-150" font-family="Helvetica,sans-Serif" font-size="10.00">lib/Dialect/Struct</text>
<text text-anchor="middle" x="1788.25" y="-138.75" font-family="Helvetica,sans-Serif" font-size="10.00">/IR/Ops.cpp</text>
</a>
</g>
</g>
<!-- Node15&#45;&gt;Node23 -->
<g id="edge32_Node000015_Node000023" class="edge">
<title>Node15&#45;&gt;Node23</title>
<g id="a_edge32_Node000015_Node000023"><a xlink:title=" ">
<path fill="none" stroke="#63b8ff" d="M1460.99,-206.63C1528.19,-198.28 1639.52,-183.06 1734.25,-163.5 1737.29,-162.87 1740.41,-162.18 1743.55,-161.45"/>
<polygon fill="#63b8ff" stroke="#63b8ff" points="1460.78,-203.13 1451.28,-207.82 1461.64,-210.07 1460.78,-203.13"/>
</a>
</g>
</g>
<!-- Node24 -->
<g id="Node000024" class="node">
<title>Node24</title>
<g id="a_Node000024"><a xlink:href="_type_helper_8cpp.html" target="_top" xlink:title=" ">
<polygon fill="white" stroke="#666666" points="1965.38,-157.88 1851.12,-157.88 1851.12,-138.62 1965.38,-138.62 1965.38,-157.88"/>
<text text-anchor="middle" x="1908.25" y="-144.38" font-family="Helvetica,sans-Serif" font-size="10.00">lib/Util/TypeHelper.cpp</text>
</a>
</g>
</g>
<!-- Node15&#45;&gt;Node24 -->
<g id="edge33_Node000015_Node000024" class="edge">
<title>Node15&#45;&gt;Node24</title>
<g id="a_edge33_Node000015_Node000024"><a xlink:title=" ">
<path fill="none" stroke="#63b8ff" d="M1461.01,-208.69C1546.29,-201.16 1706.19,-185.51 1841.25,-163.5 1850.17,-162.05 1859.7,-160.2 1868.69,-158.32"/>
<polygon fill="#63b8ff" stroke="#63b8ff" points="1460.9,-205.18 1451.24,-209.54 1461.51,-212.16 1460.9,-205.18"/>
</a>
</g>
</g>
<!-- Node16&#45;&gt;Node9 -->
<g id="edge17_Node000016_Node000009" class="edge">
<title>Node16&#45;&gt;Node9</title>
<g id="a_edge17_Node000016_Node000009"><a xlink:title=" ">
<path fill="none" stroke="#63b8ff" d="M1585.54,-127.56C1605.48,-117.82 1629.13,-106.26 1647.42,-97.33"/>
<polygon fill="#63b8ff" stroke="#63b8ff" points="1584.01,-124.41 1576.56,-131.95 1587.08,-130.7 1584.01,-124.41"/>
</a>
</g>
</g>
<!-- Node16&#45;&gt;Node10 -->
<g id="edge18_Node000016_Node000010" class="edge">
<title>Node16&#45;&gt;Node10</title>
<g id="a_edge18_Node000016_Node000010"><a xlink:title=" ">
<path fill="none" stroke="#63b8ff" d="M1551.22,-121.59C1553.14,-113.34 1555.19,-104.49 1556.86,-97.33"/>
<polygon fill="#63b8ff" stroke="#63b8ff" points="1547.85,-120.61 1549,-131.14 1554.67,-122.19 1547.85,-120.61"/>
</a>
</g>
</g>
<!-- Node16&#45;&gt;Node11 -->
<g id="edge19_Node000016_Node000011" class="edge">
<title>Node16&#45;&gt;Node11</title>
<g id="a_edge19_Node000016_Node000011"><a xlink:title=" ">
<path fill="none" stroke="#63b8ff" d="M1617.71,-129.88C1660.06,-119.72 1712.91,-107.05 1753.14,-97.4"/>
<polygon fill="#63b8ff" stroke="#63b8ff" points="1617.01,-126.45 1608.1,-132.18 1618.64,-133.25 1617.01,-126.45"/>
</a>
</g>
</g>
<!-- Node17 -->
<g id="Node000017" class="node">
<title>Node17</title>
<g id="a_Node000017"><a xlink:href="_array_type_helper_8cpp.html" target="_top" xlink:title="This file contains the implementation for array type helpers.">
<polygon fill="white" stroke="#666666" points="2011.12,-97 1901.38,-97 1901.38,-66.5 2011.12,-66.5 2011.12,-97"/>
<text text-anchor="start" x="1909.38" y="-83.5" font-family="Helvetica,sans-Serif" font-size="10.00">lib/Dialect/Array/Util</text>
<text text-anchor="middle" x="1956.25" y="-72.25" font-family="Helvetica,sans-Serif" font-size="10.00">/ArrayTypeHelper.cpp</text>
</a>
</g>
</g>
<!-- Node16&#45;&gt;Node17 -->
<g id="edge20_Node000016_Node000017" class="edge">
<title>Node16&#45;&gt;Node17</title>
<g id="a_edge20_Node000016_Node000017"><a xlink:title=" ">
<path fill="none" stroke="#63b8ff" d="M1628.48,-132.7C1746.07,-114.84 1778.37,-117.35 1892.25,-97 1895.16,-96.48 1898.15,-95.92 1901.15,-95.33"/>
<polygon fill="#63b8ff" stroke="#63b8ff" points="1628.06,-129.23 1618.71,-134.21 1629.13,-136.15 1628.06,-129.23"/>
</a>
</g>
</g>
<!-- Node18&#45;&gt;Node3 -->
<g id="edge22_Node000018_Node000003" class="edge">
<title>Node18&#45;&gt;Node3</title>
<g id="a_edge22_Node000018_Node000003"><a xlink:title=" ">
<path fill="none" stroke="#63b8ff" d="M468.25,-121.31C468.25,-113.14 468.25,-104.41 468.25,-97.33"/>
<polygon fill="#63b8ff" stroke="#63b8ff" points="464.75,-121.1 468.25,-131.1 471.75,-121.1 464.75,-121.1"/>
</a>
</g>
</g>
<!-- Node18&#45;&gt;Node7 -->
<g id="edge23_Node000018_Node000007" class="edge">
<title>Node18&#45;&gt;Node7</title>
<g id="a_edge23_Node000018_Node000007"><a xlink:title=" ">
<path fill="none" stroke="#63b8ff" d="M513.91,-128.25C537.56,-118.41 566,-106.57 587.95,-97.44"/>
<polygon fill="#63b8ff" stroke="#63b8ff" points="512.71,-124.96 504.82,-132.03 515.4,-131.42 512.71,-124.96"/>
</a>
</g>
</g>
<!-- Node18&#45;&gt;Node12 -->
<g id="edge26_Node000018_Node000012" class="edge">
<title>Node18&#45;&gt;Node12</title>
<g id="a_edge26_Node000018_Node000012"><a xlink:title=" ">
<path fill="none" stroke="#63b8ff" d="M531.68,-135.04C587.1,-124.37 667.71,-108.85 726.71,-97.49"/>
<polygon fill="#63b8ff" stroke="#63b8ff" points="531.24,-131.56 522.08,-136.89 532.56,-138.43 531.24,-131.56"/>
</a>
</g>
</g>
<!-- Node19 -->
<g id="Node000019" class="node">
<title>Node19</title>
<g id="a_Node000019"><a xlink:href="_constrain_2_i_r_2_dialect_8cpp.html" target="_top" xlink:title=" ">
<polygon fill="white" stroke="#666666" points="227.5,-97 123,-97 123,-66.5 227.5,-66.5 227.5,-97"/>
<text text-anchor="start" x="131" y="-83.5" font-family="Helvetica,sans-Serif" font-size="10.00">lib/Dialect/Constrain</text>
<text text-anchor="middle" x="175.25" y="-72.25" font-family="Helvetica,sans-Serif" font-size="10.00">/IR/Dialect.cpp</text>
</a>
</g>
</g>
<!-- Node18&#45;&gt;Node19 -->
<g id="edge24_Node000018_Node000019" class="edge">
<title>Node18&#45;&gt;Node19</title>
<g id="a_edge24_Node000018_Node000019"><a xlink:title=" ">
<path fill="none" stroke="#63b8ff" d="M404.98,-133.84C358.3,-123.87 293.26,-109.83 236.25,-97 233.49,-96.38 230.66,-95.74 227.81,-95.09"/>
<polygon fill="#63b8ff" stroke="#63b8ff" points="404.15,-137.24 414.66,-135.9 405.61,-130.39 404.15,-137.24"/>
</a>
</g>
</g>
<!-- Node18&#45;&gt;Node20 -->
<g id="edge25_Node000018_Node000020" class="edge">
<title>Node18&#45;&gt;Node20</title>
<g id="a_edge25_Node000018_Node000020"><a xlink:title=" ">
<path fill="none" stroke="#63b8ff" d="M404.72,-139.88C333.67,-131.26 215.28,-115.75 114.25,-97 111.21,-96.44 108.09,-95.82 104.95,-95.18"/>
<polygon fill="#63b8ff" stroke="#63b8ff" points="404.29,-143.36 414.64,-141.08 405.13,-136.41 404.29,-143.36"/>
</a>
</g>
</g>
<!-- Node21 -->
<g id="Node000021" class="node">
<title>Node21</title>
<g id="a_Node000021"><a xlink:href="_l_l_z_k_redundant_operation_elimination_pass_8cpp.html" target="_top" xlink:title="This file implements the &#45;llzk&#45;duplicate&#45;op&#45;elim pass.">
<polygon fill="white" stroke="#666666" points="397.12,-97 245.38,-97 245.38,-66.5 397.12,-66.5 397.12,-97"/>
<text text-anchor="start" x="253.38" y="-83.5" font-family="Helvetica,sans-Serif" font-size="10.00">lib/Transforms/LLZKRedundant</text>
<text text-anchor="middle" x="321.25" y="-72.25" font-family="Helvetica,sans-Serif" font-size="10.00">OperationEliminationPass.cpp</text>
</a>
</g>
</g>
<!-- Node18&#45;&gt;Node21 -->
<g id="edge27_Node000018_Node000021" class="edge">
<title>Node18&#45;&gt;Node21</title>
<g id="a_edge27_Node000018_Node000021"><a xlink:title=" ">
<path fill="none" stroke="#63b8ff" d="M424.64,-128.12C402.27,-118.3 375.45,-106.53 354.73,-97.44"/>
<polygon fill="#63b8ff" stroke="#63b8ff" points="422.94,-131.19 433.51,-132.01 425.76,-124.78 422.94,-131.19"/>
</a>
</g>
</g>
</g>
</svg>
