<?xml version="1.0" encoding="UTF-8" standalone="no"?>
<!DOCTYPE svg PUBLIC "-//W3C//DTD SVG 1.1//EN"
 "http://www.w3.org/Graphics/SVG/1.1/DTD/svg11.dtd">
<!-- Generated by graphviz version 12.2.1 (0)
 -->
<!-- Title: build/include/llzk/Dialect/Array/Transforms/TransformationPasses.h.inc Pages: 1 -->
<svg width="269pt" height="194pt"
 viewBox="0.00 0.00 268.62 194.00" xmlns="http://www.w3.org/2000/svg" xmlns:xlink="http://www.w3.org/1999/xlink">
<g id="graph0" class="graph" transform="scale(1 1) rotate(0) translate(4 190)">
<title>build/include/llzk/Dialect/Array/Transforms/TransformationPasses.h.inc</title>
<!-- Node1 -->
<g id="Node000001" class="node">
<title>Node1</title>
<g id="a_Node000001"><a xlink:title=" ">
<polygon fill="#999999" stroke="#666666" points="194.75,-186 53.5,-186 53.5,-144.25 194.75,-144.25 194.75,-186"/>
<text text-anchor="start" x="61.5" y="-172.5" font-family="Helvetica,sans-Serif" font-size="10.00">build/include/llzk</text>
<text text-anchor="start" x="61.5" y="-161.25" font-family="Helvetica,sans-Serif" font-size="10.00">/Dialect/Array/Transforms</text>
<text text-anchor="middle" x="124.12" y="-150" font-family="Helvetica,sans-Serif" font-size="10.00">/TransformationPasses.h.inc</text>
</a>
</g>
</g>
<!-- Node2 -->
<g id="Node000002" class="node">
<title>Node2</title>
<g id="a_Node000002"><a xlink:href="_array_2_transforms_2_transformation_passes_8h.html" target="_top" xlink:title=" ">
<polygon fill="white" stroke="#666666" points="260.62,-108.25 97.62,-108.25 97.62,-66.5 260.62,-66.5 260.62,-108.25"/>
<text text-anchor="start" x="105.62" y="-94.75" font-family="Helvetica,sans-Serif" font-size="10.00">include/llzk/Dialect</text>
<text text-anchor="start" x="105.62" y="-83.5" font-family="Helvetica,sans-Serif" font-size="10.00">/Array/Transforms/Transformation</text>
<text text-anchor="middle" x="179.12" y="-72.25" font-family="Helvetica,sans-Serif" font-size="10.00">Passes.h</text>
</a>
</g>
</g>
<!-- Node1&#45;&gt;Node2 -->
<g id="edge1_Node000001_Node000002" class="edge">
<title>Node1&#45;&gt;Node2</title>
<g id="a_edge1_Node000001_Node000002"><a xlink:title=" ">
<path fill="none" stroke="#63b8ff" d="M145.47,-134.73C151.78,-126.04 158.55,-116.72 164.35,-108.73"/>
<polygon fill="#63b8ff" stroke="#63b8ff" points="142.8,-132.45 139.75,-142.6 148.46,-136.57 142.8,-132.45"/>
</a>
</g>
</g>
<!-- Node3 -->
<g id="Node000003" class="node">
<title>Node3</title>
<g id="a_Node000003"><a xlink:href="_array_to_scalar_pass_8cpp.html" target="_top" xlink:title="This file implements the &#45;llzk&#45;array&#45;to&#45;scalar pass.">
<polygon fill="white" stroke="#666666" points="138.25,-30.5 0,-30.5 0,0 138.25,0 138.25,-30.5"/>
<text text-anchor="start" x="8" y="-17" font-family="Helvetica,sans-Serif" font-size="10.00">lib/Dialect/Array/Transforms</text>
<text text-anchor="middle" x="69.12" y="-5.75" font-family="Helvetica,sans-Serif" font-size="10.00">/ArrayToScalarPass.cpp</text>
</a>
</g>
</g>
<!-- Node1&#45;&gt;Node3 -->
<g id="edge4_Node000001_Node000003" class="edge">
<title>Node1&#45;&gt;Node3</title>
<g id="a_edge4_Node000001_Node000003"><a xlink:title=" ">
<path fill="none" stroke="#63b8ff" d="M102.85,-134.38C97.75,-126.21 92.75,-117.14 89.12,-108.25 78.46,-82.06 73.07,-49.25 70.7,-30.73"/>
<polygon fill="#63b8ff" stroke="#63b8ff" points="99.79,-136.1 108.19,-142.56 105.65,-132.27 99.79,-136.1"/>
</a>
</g>
</g>
<!-- Node2&#45;&gt;Node3 -->
<g id="edge2_Node000002_Node000003" class="edge">
<title>Node2&#45;&gt;Node3</title>
<g id="a_edge2_Node000002_Node000003"><a xlink:title=" ">
<path fill="none" stroke="#63b8ff" d="M137.92,-60.1C122.43,-50.23 105.39,-39.37 92.14,-30.92"/>
<polygon fill="#63b8ff" stroke="#63b8ff" points="135.72,-62.85 146.03,-65.28 139.48,-56.95 135.72,-62.85"/>
</a>
</g>
</g>
<!-- Node4 -->
<g id="Node000004" class="node">
<title>Node4</title>
<g id="a_Node000004"><a xlink:href="llzk-opt_8cpp.html" target="_top" xlink:title="This file implements a version of the mlir&#45;opt tool configured for use on LLZK files.">
<polygon fill="white" stroke="#666666" points="245.88,-30.5 156.38,-30.5 156.38,0 245.88,0 245.88,-30.5"/>
<text text-anchor="start" x="164.38" y="-17" font-family="Helvetica,sans-Serif" font-size="10.00">tools/llzk&#45;opt/llzk</text>
<text text-anchor="middle" x="201.12" y="-5.75" font-family="Helvetica,sans-Serif" font-size="10.00">&#45;opt.cpp</text>
</a>
</g>
</g>
<!-- Node2&#45;&gt;Node4 -->
<g id="edge3_Node000002_Node000004" class="edge">
<title>Node2&#45;&gt;Node4</title>
<g id="a_edge3_Node000002_Node000004"><a xlink:title=" ">
<path fill="none" stroke="#63b8ff" d="M188.9,-55.21C191.58,-46.67 194.36,-37.81 196.59,-30.7"/>
<polygon fill="#63b8ff" stroke="#63b8ff" points="185.6,-54.06 185.94,-64.65 192.27,-56.15 185.6,-54.06"/>
</a>
</g>
</g>
</g>
</svg>
