<?xml version="1.0" encoding="UTF-8" standalone="no"?>
<!DOCTYPE svg PUBLIC "-//W3C//DTD SVG 1.1//EN"
 "http://www.w3.org/Graphics/SVG/1.1/DTD/svg11.dtd">
<!-- Generated by graphviz version 12.2.1 (0)
 -->
<!-- Title: include/llzk/Dialect/Array/Util/ArrayTypeHelper.h Pages: 1 -->
<svg width="509pt" height="105pt"
 viewBox="0.00 0.00 508.50 105.00" xmlns="http://www.w3.org/2000/svg" xmlns:xlink="http://www.w3.org/1999/xlink">
<g id="graph0" class="graph" transform="scale(1 1) rotate(0) translate(4 101)">
<title>include/llzk/Dialect/Array/Util/ArrayTypeHelper.h</title>
<!-- Node1 -->
<g id="Node000001" class="node">
<title>Node1</title>
<g id="a_Node000001"><a xlink:title=" ">
<polygon fill="#999999" stroke="#666666" points="306.38,-97 162.88,-97 162.88,-66.5 306.38,-66.5 306.38,-97"/>
<text text-anchor="start" x="170.88" y="-83.5" font-family="Helvetica,sans-Serif" font-size="10.00">include/llzk/Dialect</text>
<text text-anchor="middle" x="234.62" y="-72.25" font-family="Helvetica,sans-Serif" font-size="10.00">/Array/Util/ArrayTypeHelper.h</text>
</a>
</g>
</g>
<!-- Node2 -->
<g id="Node000002" class="node">
<title>Node2</title>
<g id="a_Node000002"><a xlink:href="_array_2_i_r_2_ops_8cpp.html" target="_top" xlink:title=" ">
<polygon fill="white" stroke="#666666" points="99.25,-30.5 0,-30.5 0,0 99.25,0 99.25,-30.5"/>
<text text-anchor="start" x="8" y="-17" font-family="Helvetica,sans-Serif" font-size="10.00">lib/Dialect/Array/IR</text>
<text text-anchor="middle" x="49.62" y="-5.75" font-family="Helvetica,sans-Serif" font-size="10.00">/Ops.cpp</text>
</a>
</g>
</g>
<!-- Node1&#45;&gt;Node2 -->
<g id="edge1_Node000001_Node000002" class="edge">
<title>Node1&#45;&gt;Node2</title>
<g id="a_edge1_Node000001_Node000002"><a xlink:title=" ">
<path fill="none" stroke="#63b8ff" d="M182.02,-62.41C153.43,-52.44 118.54,-40.28 91.76,-30.94"/>
<polygon fill="#63b8ff" stroke="#63b8ff" points="180.62,-65.63 191.22,-65.62 182.93,-59.02 180.62,-65.63"/>
</a>
</g>
</g>
<!-- Node3 -->
<g id="Node000003" class="node">
<title>Node3</title>
<g id="a_Node000003"><a xlink:href="_array_2_i_r_2_types_8cpp.html" target="_top" xlink:title=" ">
<polygon fill="white" stroke="#666666" points="216.25,-30.5 117,-30.5 117,0 216.25,0 216.25,-30.5"/>
<text text-anchor="start" x="125" y="-17" font-family="Helvetica,sans-Serif" font-size="10.00">lib/Dialect/Array/IR</text>
<text text-anchor="middle" x="166.62" y="-5.75" font-family="Helvetica,sans-Serif" font-size="10.00">/Types.cpp</text>
</a>
</g>
</g>
<!-- Node1&#45;&gt;Node3 -->
<g id="edge2_Node000001_Node000003" class="edge">
<title>Node1&#45;&gt;Node3</title>
<g id="a_edge2_Node000001_Node000003"><a xlink:title=" ">
<path fill="none" stroke="#63b8ff" d="M211.13,-58.46C201.49,-49.32 190.59,-38.98 181.99,-30.83"/>
<polygon fill="#63b8ff" stroke="#63b8ff" points="208.43,-60.73 218.1,-65.07 213.25,-55.65 208.43,-60.73"/>
</a>
</g>
</g>
<!-- Node4 -->
<g id="Node000004" class="node">
<title>Node4</title>
<g id="a_Node000004"><a xlink:href="_array_to_scalar_pass_8cpp.html" target="_top" xlink:title="This file implements the &#45;llzk&#45;array&#45;to&#45;scalar pass.">
<polygon fill="white" stroke="#666666" points="372.75,-30.5 234.5,-30.5 234.5,0 372.75,0 372.75,-30.5"/>
<text text-anchor="start" x="242.5" y="-17" font-family="Helvetica,sans-Serif" font-size="10.00">lib/Dialect/Array/Transforms</text>
<text text-anchor="middle" x="303.62" y="-5.75" font-family="Helvetica,sans-Serif" font-size="10.00">/ArrayToScalarPass.cpp</text>
</a>
</g>
</g>
<!-- Node1&#45;&gt;Node4 -->
<g id="edge3_Node000001_Node000004" class="edge">
<title>Node1&#45;&gt;Node4</title>
<g id="a_edge3_Node000001_Node000004"><a xlink:title=" ">
<path fill="none" stroke="#63b8ff" d="M258.47,-58.46C268.25,-49.32 279.31,-38.98 288.03,-30.83"/>
<polygon fill="#63b8ff" stroke="#63b8ff" points="256.3,-55.69 251.39,-65.08 261.08,-60.81 256.3,-55.69"/>
</a>
</g>
</g>
<!-- Node5 -->
<g id="Node000005" class="node">
<title>Node5</title>
<g id="a_Node000005"><a xlink:href="_array_type_helper_8cpp.html" target="_top" xlink:title="This file contains the implementation for array type helpers.">
<polygon fill="white" stroke="#666666" points="500.5,-30.5 390.75,-30.5 390.75,0 500.5,0 500.5,-30.5"/>
<text text-anchor="start" x="398.75" y="-17" font-family="Helvetica,sans-Serif" font-size="10.00">lib/Dialect/Array/Util</text>
<text text-anchor="middle" x="445.62" y="-5.75" font-family="Helvetica,sans-Serif" font-size="10.00">/ArrayTypeHelper.cpp</text>
</a>
</g>
</g>
<!-- Node1&#45;&gt;Node5 -->
<g id="edge4_Node000001_Node000005" class="edge">
<title>Node1&#45;&gt;Node5</title>
<g id="a_edge4_Node000001_Node000005"><a xlink:title=" ">
<path fill="none" stroke="#63b8ff" d="M293.59,-62.72C326.44,-52.68 366.81,-40.34 397.69,-30.9"/>
<polygon fill="#63b8ff" stroke="#63b8ff" points="292.76,-59.32 284.22,-65.59 294.8,-66.01 292.76,-59.32"/>
</a>
</g>
</g>
</g>
</svg>
