<?xml version="1.0" encoding="UTF-8" standalone="no"?>
<!DOCTYPE svg PUBLIC "-//W3C//DTD SVG 1.1//EN"
 "http://www.w3.org/Graphics/SVG/1.1/DTD/svg11.dtd">
<!-- Generated by graphviz version 12.2.1 (0)
 -->
<!-- Title: include/llzk/Dialect/Array/IR/Dialect.h Pages: 1 -->
<svg width="3166pt" height="327pt"
 viewBox="0.00 0.00 3166.08 327.00" xmlns="http://www.w3.org/2000/svg" xmlns:xlink="http://www.w3.org/1999/xlink">
<g id="graph0" class="graph" transform="scale(1 1) rotate(0) translate(4 323)">
<title>include/llzk/Dialect/Array/IR/Dialect.h</title>
<!-- Node1 -->
<g id="Node000001" class="node">
<title>Node1</title>
<g id="a_Node000001"><a xlink:title=" ">
<polygon fill="#999999" stroke="#666666" points="1233.88,-319 1135.38,-319 1135.38,-288.5 1233.88,-288.5 1233.88,-319"/>
<text text-anchor="start" x="1143.38" y="-305.5" font-family="Helvetica,sans-Serif" font-size="10.00">include/llzk/Dialect</text>
<text text-anchor="middle" x="1184.62" y="-294.25" font-family="Helvetica,sans-Serif" font-size="10.00">/Array/IR/Dialect.h</text>
</a>
</g>
</g>
<!-- Node2 -->
<g id="Node000002" class="node">
<title>Node2</title>
<g id="a_Node000002"><a xlink:href="_array_2_i_r_2_ops_8h.html" target="_top" xlink:title=" ">
<polygon fill="white" stroke="#666666" points="992.88,-180.38 894.38,-180.38 894.38,-149.88 992.88,-149.88 992.88,-180.38"/>
<text text-anchor="start" x="902.38" y="-166.88" font-family="Helvetica,sans-Serif" font-size="10.00">include/llzk/Dialect</text>
<text text-anchor="middle" x="943.62" y="-155.62" font-family="Helvetica,sans-Serif" font-size="10.00">/Array/IR/Ops.h</text>
</a>
</g>
</g>
<!-- Node1&#45;&gt;Node2 -->
<g id="edge1_Node000001_Node000002" class="edge">
<title>Node1&#45;&gt;Node2</title>
<g id="a_edge1_Node000001_Node000002"><a xlink:title=" ">
<path fill="none" stroke="#63b8ff" d="M1148.98,-282.54C1099.96,-254.75 1012.91,-205.4 969.6,-180.85"/>
<polygon fill="#63b8ff" stroke="#63b8ff" points="1147.09,-285.5 1157.52,-287.38 1150.54,-279.41 1147.09,-285.5"/>
</a>
</g>
</g>
<!-- Node8 -->
<g id="Node000008" class="node">
<title>Node8</title>
<g id="a_Node000008"><a xlink:href="_array_2_i_r_2_dialect_8cpp.html" target="_top" xlink:title=" ">
<polygon fill="white" stroke="#666666" points="99.25,-102.62 0,-102.62 0,-72.12 99.25,-72.12 99.25,-102.62"/>
<text text-anchor="start" x="8" y="-89.12" font-family="Helvetica,sans-Serif" font-size="10.00">lib/Dialect/Array/IR</text>
<text text-anchor="middle" x="49.62" y="-77.88" font-family="Helvetica,sans-Serif" font-size="10.00">/Dialect.cpp</text>
</a>
</g>
</g>
<!-- Node1&#45;&gt;Node8 -->
<g id="edge58_Node000001_Node000008" class="edge">
<title>Node1&#45;&gt;Node8</title>
<g id="a_edge58_Node000001_Node000008"><a xlink:title=" ">
<path fill="none" stroke="#63b8ff" d="M1123.63,-301.43C927.39,-296.35 314.97,-273.67 140.62,-186 102.74,-166.95 72.52,-125.25 58.36,-103.02"/>
<polygon fill="#63b8ff" stroke="#63b8ff" points="1123.53,-304.93 1133.62,-301.68 1123.71,-297.93 1123.53,-304.93"/>
</a>
</g>
</g>
<!-- Node15 -->
<g id="Node000015" class="node">
<title>Node15</title>
<g id="a_Node000015"><a xlink:href="_array_2_i_r_2_types_8h.html" target="_top" xlink:title=" ">
<polygon fill="white" stroke="#666666" points="1233.88,-252.5 1135.38,-252.5 1135.38,-222 1233.88,-222 1233.88,-252.5"/>
<text text-anchor="start" x="1143.38" y="-239" font-family="Helvetica,sans-Serif" font-size="10.00">include/llzk/Dialect</text>
<text text-anchor="middle" x="1184.62" y="-227.75" font-family="Helvetica,sans-Serif" font-size="10.00">/Array/IR/Types.h</text>
</a>
</g>
</g>
<!-- Node1&#45;&gt;Node15 -->
<g id="edge14_Node000001_Node000015" class="edge">
<title>Node1&#45;&gt;Node15</title>
<g id="a_edge14_Node000001_Node000015"><a xlink:title=" ">
<path fill="none" stroke="#63b8ff" d="M1184.62,-276.81C1184.62,-268.64 1184.62,-259.91 1184.62,-252.83"/>
<polygon fill="#63b8ff" stroke="#63b8ff" points="1181.13,-276.6 1184.63,-286.6 1188.13,-276.6 1181.13,-276.6"/>
</a>
</g>
</g>
<!-- Node25 -->
<g id="Node000025" class="node">
<title>Node25</title>
<g id="a_Node000025"><a xlink:href="_pass_base_8h.html" target="_top" xlink:title=" ">
<polygon fill="white" stroke="#666666" points="2063.88,-246.88 1917.38,-246.88 1917.38,-227.62 2063.88,-227.62 2063.88,-246.88"/>
<text text-anchor="middle" x="1990.62" y="-233.38" font-family="Helvetica,sans-Serif" font-size="10.00">include/llzk/Pass/PassBase.h</text>
</a>
</g>
</g>
<!-- Node1&#45;&gt;Node25 -->
<g id="edge34_Node000001_Node000025" class="edge">
<title>Node1&#45;&gt;Node25</title>
<g id="a_edge34_Node000001_Node000025"><a xlink:title=" ">
<path fill="none" stroke="#63b8ff" d="M1245.46,-297.88C1391.05,-286.23 1759.11,-256.78 1916.92,-244.15"/>
<polygon fill="#63b8ff" stroke="#63b8ff" points="1245.33,-294.38 1235.64,-298.67 1245.89,-301.36 1245.33,-294.38"/>
</a>
</g>
</g>
<!-- Node39 -->
<g id="Node000039" class="node">
<title>Node39</title>
<g id="a_Node000039"><a xlink:href="_init_dialects_8cpp.html" target="_top" xlink:title=" ">
<polygon fill="white" stroke="#666666" points="2213,-246.88 2082.25,-246.88 2082.25,-227.62 2213,-227.62 2213,-246.88"/>
<text text-anchor="middle" x="2147.62" y="-233.38" font-family="Helvetica,sans-Serif" font-size="10.00">lib/Dialect/InitDialects.cpp</text>
</a>
</g>
</g>
<!-- Node1&#45;&gt;Node39 -->
<g id="edge59_Node000001_Node000039" class="edge">
<title>Node1&#45;&gt;Node39</title>
<g id="a_edge59_Node000001_Node000039"><a xlink:title=" ">
<path fill="none" stroke="#63b8ff" d="M1245.1,-302.06C1389.02,-299.82 1762.99,-290.51 2072.62,-252.5 2083.15,-251.21 2094.42,-249.33 2104.94,-247.36"/>
<polygon fill="#63b8ff" stroke="#63b8ff" points="1245.38,-298.55 1235.44,-302.2 1245.49,-305.55 1245.38,-298.55"/>
</a>
</g>
</g>
<!-- Node3 -->
<g id="Node000003" class="node">
<title>Node3</title>
<g id="a_Node000003"><a xlink:href="_interval_analysis_8h.html" target="_top" xlink:title=" ">
<polygon fill="white" stroke="#666666" points="1237.25,-102.62 1132,-102.62 1132,-72.12 1237.25,-72.12 1237.25,-102.62"/>
<text text-anchor="start" x="1140" y="-89.12" font-family="Helvetica,sans-Serif" font-size="10.00">include/llzk/Analysis</text>
<text text-anchor="middle" x="1184.62" y="-77.88" font-family="Helvetica,sans-Serif" font-size="10.00">/IntervalAnalysis.h</text>
</a>
</g>
</g>
<!-- Node2&#45;&gt;Node3 -->
<g id="edge2_Node000002_Node000003" class="edge">
<title>Node2&#45;&gt;Node3</title>
<g id="a_edge2_Node000002_Node000003"><a xlink:title=" ">
<path fill="none" stroke="#63b8ff" d="M1002.02,-146.22C1037.27,-135.36 1083.07,-121.15 1123.62,-108.25 1128.83,-106.6 1134.27,-104.85 1139.68,-103.1"/>
<polygon fill="#63b8ff" stroke="#63b8ff" points="1001.41,-142.75 992.88,-149.04 1003.47,-149.44 1001.41,-142.75"/>
</a>
</g>
</g>
<!-- Node6 -->
<g id="Node000006" class="node">
<title>Node6</title>
<g id="a_Node000006"><a xlink:href="_constrain_ref_8cpp.html" target="_top" xlink:title=" ">
<polygon fill="white" stroke="#666666" points="626.5,-97 480.75,-97 480.75,-77.75 626.5,-77.75 626.5,-97"/>
<text text-anchor="middle" x="553.62" y="-83.5" font-family="Helvetica,sans-Serif" font-size="10.00">lib/Analysis/ConstrainRef.cpp</text>
</a>
</g>
</g>
<!-- Node2&#45;&gt;Node6 -->
<g id="edge5_Node000002_Node000006" class="edge">
<title>Node2&#45;&gt;Node6</title>
<g id="a_edge5_Node000002_Node000006"><a xlink:title=" ">
<path fill="none" stroke="#63b8ff" d="M882.93,-154.19C820.66,-143.74 721.09,-126.34 635.62,-108.25 620.29,-105 603.45,-101 589.04,-97.44"/>
<polygon fill="#63b8ff" stroke="#63b8ff" points="882.18,-157.61 892.62,-155.81 883.33,-150.71 882.18,-157.61"/>
</a>
</g>
</g>
<!-- Node7 -->
<g id="Node000007" class="node">
<title>Node7</title>
<g id="a_Node000007"><a xlink:href="_constraint_dependency_graph_8cpp.html" target="_top" xlink:title=" ">
<polygon fill="white" stroke="#666666" points="1114.12,-102.62 945.12,-102.62 945.12,-72.12 1114.12,-72.12 1114.12,-102.62"/>
<text text-anchor="start" x="953.12" y="-89.12" font-family="Helvetica,sans-Serif" font-size="10.00">lib/Analysis/ConstraintDependency</text>
<text text-anchor="middle" x="1029.62" y="-77.88" font-family="Helvetica,sans-Serif" font-size="10.00">Graph.cpp</text>
</a>
</g>
</g>
<!-- Node2&#45;&gt;Node7 -->
<g id="edge6_Node000002_Node000007" class="edge">
<title>Node2&#45;&gt;Node7</title>
<g id="a_edge6_Node000002_Node000007"><a xlink:title=" ">
<path fill="none" stroke="#63b8ff" d="M968.63,-142.1C982.94,-129.5 1000.5,-114.03 1013.09,-102.94"/>
<polygon fill="#63b8ff" stroke="#63b8ff" points="966.53,-139.28 961.34,-148.52 971.16,-144.54 966.53,-139.28"/>
</a>
</g>
</g>
<!-- Node2&#45;&gt;Node8 -->
<g id="edge7_Node000002_Node000008" class="edge">
<title>Node2&#45;&gt;Node8</title>
<g id="a_edge7_Node000002_Node000008"><a xlink:title=" ">
<path fill="none" stroke="#63b8ff" d="M882.79,-160.99C703.16,-151.59 182.94,-123.39 107.62,-108.25 101.16,-106.95 94.42,-105.11 87.92,-103.08"/>
<polygon fill="#63b8ff" stroke="#63b8ff" points="882.44,-164.47 892.61,-161.5 882.81,-157.48 882.44,-164.47"/>
</a>
</g>
</g>
<!-- Node9 -->
<g id="Node000009" class="node">
<title>Node9</title>
<g id="a_Node000009"><a xlink:href="_array_2_i_r_2_ops_8cpp.html" target="_top" xlink:title=" ">
<polygon fill="white" stroke="#666666" points="462.25,-102.62 363,-102.62 363,-72.12 462.25,-72.12 462.25,-102.62"/>
<text text-anchor="start" x="371" y="-89.12" font-family="Helvetica,sans-Serif" font-size="10.00">lib/Dialect/Array/IR</text>
<text text-anchor="middle" x="412.62" y="-77.88" font-family="Helvetica,sans-Serif" font-size="10.00">/Ops.cpp</text>
</a>
</g>
</g>
<!-- Node2&#45;&gt;Node9 -->
<g id="edge8_Node000002_Node000009" class="edge">
<title>Node2&#45;&gt;Node9</title>
<g id="a_edge8_Node000002_Node000009"><a xlink:title=" ">
<path fill="none" stroke="#63b8ff" d="M882.72,-160.95C792.15,-155.33 617,-140.97 471.62,-108.25 465.4,-106.85 458.92,-105.04 452.62,-103.08"/>
<polygon fill="#63b8ff" stroke="#63b8ff" points="882.43,-164.44 892.62,-161.55 882.85,-157.45 882.43,-164.44"/>
</a>
</g>
</g>
<!-- Node10 -->
<g id="Node000010" class="node">
<title>Node10</title>
<g id="a_Node000010"><a xlink:href="_array_2_i_r_2_types_8cpp.html" target="_top" xlink:title=" ">
<polygon fill="white" stroke="#666666" points="216.25,-102.62 117,-102.62 117,-72.12 216.25,-72.12 216.25,-102.62"/>
<text text-anchor="start" x="125" y="-89.12" font-family="Helvetica,sans-Serif" font-size="10.00">lib/Dialect/Array/IR</text>
<text text-anchor="middle" x="166.62" y="-77.88" font-family="Helvetica,sans-Serif" font-size="10.00">/Types.cpp</text>
</a>
</g>
</g>
<!-- Node2&#45;&gt;Node10 -->
<g id="edge9_Node000002_Node000010" class="edge">
<title>Node2&#45;&gt;Node10</title>
<g id="a_edge9_Node000002_Node000010"><a xlink:title=" ">
<path fill="none" stroke="#63b8ff" d="M882.92,-161.33C733.46,-154.15 350.77,-133.79 225.62,-108.25 219.16,-106.93 212.43,-105.11 205.93,-103.11"/>
<polygon fill="#63b8ff" stroke="#63b8ff" points="882.45,-164.82 892.6,-161.8 882.78,-157.82 882.45,-164.82"/>
</a>
</g>
</g>
<!-- Node11 -->
<g id="Node000011" class="node">
<title>Node11</title>
<g id="a_Node000011"><a xlink:href="_array_to_scalar_pass_8cpp.html" target="_top" xlink:title="This file implements the &#45;llzk&#45;array&#45;to&#45;scalar pass.">
<polygon fill="white" stroke="#666666" points="926.75,-102.62 788.5,-102.62 788.5,-72.12 926.75,-72.12 926.75,-102.62"/>
<text text-anchor="start" x="796.5" y="-89.12" font-family="Helvetica,sans-Serif" font-size="10.00">lib/Dialect/Array/Transforms</text>
<text text-anchor="middle" x="857.62" y="-77.88" font-family="Helvetica,sans-Serif" font-size="10.00">/ArrayToScalarPass.cpp</text>
</a>
</g>
</g>
<!-- Node2&#45;&gt;Node11 -->
<g id="edge10_Node000002_Node000011" class="edge">
<title>Node2&#45;&gt;Node11</title>
<g id="a_edge10_Node000002_Node000011"><a xlink:title=" ">
<path fill="none" stroke="#63b8ff" d="M918.62,-142.1C904.31,-129.5 886.75,-114.03 874.16,-102.94"/>
<polygon fill="#63b8ff" stroke="#63b8ff" points="916.09,-144.54 925.91,-148.52 920.72,-139.28 916.09,-144.54"/>
</a>
</g>
</g>
<!-- Node12 -->
<g id="Node000012" class="node">
<title>Node12</title>
<g id="a_Node000012"><a xlink:href="_flattening_pass_8cpp.html" target="_top" xlink:title="This file implements the &#45;llzk&#45;flatten pass.">
<polygon fill="white" stroke="#666666" points="1410.38,-102.62 1254.88,-102.62 1254.88,-72.12 1410.38,-72.12 1410.38,-102.62"/>
<text text-anchor="start" x="1262.88" y="-89.12" font-family="Helvetica,sans-Serif" font-size="10.00">lib/Dialect/Polymorphic</text>
<text text-anchor="middle" x="1332.62" y="-77.88" font-family="Helvetica,sans-Serif" font-size="10.00">/Transforms/FlatteningPass.cpp</text>
</a>
</g>
</g>
<!-- Node2&#45;&gt;Node12 -->
<g id="edge11_Node000002_Node000012" class="edge">
<title>Node2&#45;&gt;Node12</title>
<g id="a_edge11_Node000002_Node000012"><a xlink:title=" ">
<path fill="none" stroke="#63b8ff" d="M1004.37,-153.75C1065.66,-143.08 1162.93,-125.63 1246.62,-108.25 1254.43,-106.63 1262.61,-104.85 1270.69,-103.04"/>
<polygon fill="#63b8ff" stroke="#63b8ff" points="1004.1,-150.24 994.85,-155.4 1005.3,-157.14 1004.1,-150.24"/>
</a>
</g>
</g>
<!-- Node13 -->
<g id="Node000013" class="node">
<title>Node13</title>
<g id="a_Node000013"><a xlink:href="_l_l_z_k_redundant_read_and_write_elimination_pass_8cpp.html" target="_top" xlink:title="This file implements the &#45;llzk&#45;duplicate&#45;read&#45;write&#45;elim pass.">
<polygon fill="white" stroke="#666666" points="1841.75,-102.62 1673.5,-102.62 1673.5,-72.12 1841.75,-72.12 1841.75,-102.62"/>
<text text-anchor="start" x="1681.5" y="-89.12" font-family="Helvetica,sans-Serif" font-size="10.00">lib/Transforms/LLZKRedundant</text>
<text text-anchor="middle" x="1757.62" y="-77.88" font-family="Helvetica,sans-Serif" font-size="10.00">ReadAndWriteEliminationPass.cpp</text>
</a>
</g>
</g>
<!-- Node2&#45;&gt;Node13 -->
<g id="edge12_Node000002_Node000013" class="edge">
<title>Node2&#45;&gt;Node13</title>
<g id="a_edge12_Node000002_Node000013"><a xlink:title=" ">
<path fill="none" stroke="#63b8ff" d="M1004.65,-156.72C1039.47,-152.66 1083.95,-147.76 1123.62,-144.25 1363.66,-123.02 1425.96,-141.52 1664.62,-108.25 1674.44,-106.88 1684.76,-105.06 1694.81,-103.08"/>
<polygon fill="#63b8ff" stroke="#63b8ff" points="1004.26,-153.24 994.73,-157.88 1005.07,-160.19 1004.26,-153.24"/>
</a>
</g>
</g>
<!-- Node14 -->
<g id="Node000014" class="node">
<title>Node14</title>
<g id="a_Node000014"><a xlink:href="_symbol_helper_8cpp.html" target="_top" xlink:title="This file contains the implementations for symbol helper functions.">
<polygon fill="white" stroke="#666666" points="770.75,-97 644.5,-97 644.5,-77.75 770.75,-77.75 770.75,-97"/>
<text text-anchor="middle" x="707.62" y="-83.5" font-family="Helvetica,sans-Serif" font-size="10.00">lib/Util/SymbolHelper.cpp</text>
</a>
</g>
</g>
<!-- Node2&#45;&gt;Node14 -->
<g id="edge13_Node000002_Node000014" class="edge">
<title>Node2&#45;&gt;Node14</title>
<g id="a_edge13_Node000002_Node000014"><a xlink:title=" ">
<path fill="none" stroke="#63b8ff" d="M887.06,-145.97C839.35,-130.66 773.08,-109.38 735.88,-97.44"/>
<polygon fill="#63b8ff" stroke="#63b8ff" points="885.81,-149.24 896.4,-148.97 887.95,-142.58 885.81,-149.24"/>
</a>
</g>
</g>
<!-- Node4 -->
<g id="Node000004" class="node">
<title>Node4</title>
<g id="a_Node000004"><a xlink:href="_interval_analysis_8cpp.html" target="_top" xlink:title=" ">
<polygon fill="white" stroke="#666666" points="1263.5,-24.88 1105.75,-24.88 1105.75,-5.63 1263.5,-5.63 1263.5,-24.88"/>
<text text-anchor="middle" x="1184.62" y="-11.38" font-family="Helvetica,sans-Serif" font-size="10.00">lib/Analysis/IntervalAnalysis.cpp</text>
</a>
</g>
</g>
<!-- Node3&#45;&gt;Node4 -->
<g id="edge3_Node000003_Node000004" class="edge">
<title>Node3&#45;&gt;Node4</title>
<g id="a_edge3_Node000003_Node000004"><a xlink:title=" ">
<path fill="none" stroke="#63b8ff" d="M1184.62,-60.61C1184.62,-48.1 1184.62,-33.9 1184.62,-25.01"/>
<polygon fill="#63b8ff" stroke="#63b8ff" points="1181.13,-60.33 1184.63,-70.33 1188.13,-60.33 1181.13,-60.33"/>
</a>
</g>
</g>
<!-- Node5 -->
<g id="Node000005" class="node">
<title>Node5</title>
<g id="a_Node000005"><a xlink:href="_interval_analysis_pass_8cpp.html" target="_top" xlink:title="This file implements the &#45;llzk&#45;print&#45;interval&#45;analysis pass.">
<polygon fill="white" stroke="#666666" points="2326.12,-30.5 2187.12,-30.5 2187.12,0 2326.12,0 2326.12,-30.5"/>
<text text-anchor="start" x="2195.12" y="-17" font-family="Helvetica,sans-Serif" font-size="10.00">lib/Analysis/IntervalAnalysis</text>
<text text-anchor="middle" x="2256.62" y="-5.75" font-family="Helvetica,sans-Serif" font-size="10.00">Pass.cpp</text>
</a>
</g>
</g>
<!-- Node3&#45;&gt;Node5 -->
<g id="edge4_Node000003_Node000005" class="edge">
<title>Node3&#45;&gt;Node5</title>
<g id="a_edge4_Node000003_Node000005"><a xlink:title=" ">
<path fill="none" stroke="#63b8ff" d="M1235.45,-68.71C1238.87,-67.87 1242.28,-67.12 1245.62,-66.5 1426.77,-33.1 1989.14,-20.71 2186.95,-17.31"/>
<polygon fill="#63b8ff" stroke="#63b8ff" points="1234.77,-65.27 1226.05,-71.29 1236.62,-72.02 1234.77,-65.27"/>
</a>
</g>
</g>
<!-- Node15&#45;&gt;Node2 -->
<g id="edge15_Node000015_Node000002" class="edge">
<title>Node15&#45;&gt;Node2</title>
<g id="a_edge15_Node000015_Node000002"><a xlink:title=" ">
<path fill="none" stroke="#63b8ff" d="M1124.19,-218.66C1083.74,-206.9 1031.18,-191.6 993.2,-180.55"/>
<polygon fill="#63b8ff" stroke="#63b8ff" points="1122.95,-221.95 1133.53,-221.38 1124.9,-215.23 1122.95,-221.95"/>
</a>
</g>
</g>
<!-- Node15&#45;&gt;Node8 -->
<g id="edge28_Node000015_Node000008" class="edge">
<title>Node15&#45;&gt;Node8</title>
<g id="a_edge28_Node000015_Node000008"><a xlink:title=" ">
<path fill="none" stroke="#63b8ff" d="M1123.62,-236.27C942.44,-235.81 409.75,-230.6 242.62,-186 175.87,-168.18 105.37,-125.55 71,-102.97"/>
<polygon fill="#63b8ff" stroke="#63b8ff" points="1123.52,-239.77 1133.53,-236.29 1123.54,-232.77 1123.52,-239.77"/>
</a>
</g>
</g>
<!-- Node15&#45;&gt;Node10 -->
<g id="edge29_Node000015_Node000010" class="edge">
<title>Node15&#45;&gt;Node10</title>
<g id="a_edge29_Node000015_Node000010"><a xlink:title=" ">
<path fill="none" stroke="#63b8ff" d="M1123.54,-236.37C953.9,-236.12 479.77,-231.27 331.62,-186 273.06,-168.1 213.44,-125.5 184.54,-102.95"/>
<polygon fill="#63b8ff" stroke="#63b8ff" points="1123.47,-239.87 1133.47,-236.38 1123.47,-232.87 1123.47,-239.87"/>
</a>
</g>
</g>
<!-- Node16 -->
<g id="Node000016" class="node">
<title>Node16</title>
<g id="a_Node000016"><a xlink:href="_array_type_helper_8h.html" target="_top" xlink:title=" ">
<polygon fill="white" stroke="#666666" points="484.38,-180.38 340.88,-180.38 340.88,-149.88 484.38,-149.88 484.38,-180.38"/>
<text text-anchor="start" x="348.88" y="-166.88" font-family="Helvetica,sans-Serif" font-size="10.00">include/llzk/Dialect</text>
<text text-anchor="middle" x="412.62" y="-155.62" font-family="Helvetica,sans-Serif" font-size="10.00">/Array/Util/ArrayTypeHelper.h</text>
</a>
</g>
</g>
<!-- Node15&#45;&gt;Node16 -->
<g id="edge16_Node000015_Node000016" class="edge">
<title>Node15&#45;&gt;Node16</title>
<g id="a_edge16_Node000015_Node000016"><a xlink:title=" ">
<path fill="none" stroke="#63b8ff" d="M1123.79,-230.72C983.11,-217.95 635.79,-186.4 484.73,-172.67"/>
<polygon fill="#63b8ff" stroke="#63b8ff" points="1123.38,-234.2 1133.65,-231.62 1124.01,-227.23 1123.38,-234.2"/>
</a>
</g>
</g>
<!-- Node18 -->
<g id="Node000018" class="node">
<title>Node18</title>
<g id="a_Node000018"><a xlink:href="_constrain_2_i_r_2_ops_8h.html" target="_top" xlink:title=" ">
<polygon fill="white" stroke="#666666" points="1236.5,-180.38 1132.75,-180.38 1132.75,-149.88 1236.5,-149.88 1236.5,-180.38"/>
<text text-anchor="start" x="1140.75" y="-166.88" font-family="Helvetica,sans-Serif" font-size="10.00">include/llzk/Dialect</text>
<text text-anchor="middle" x="1184.62" y="-155.62" font-family="Helvetica,sans-Serif" font-size="10.00">/Constrain/IR/Ops.h</text>
</a>
</g>
</g>
<!-- Node15&#45;&gt;Node18 -->
<g id="edge21_Node000015_Node000018" class="edge">
<title>Node15&#45;&gt;Node18</title>
<g id="a_edge21_Node000015_Node000018"><a xlink:title=" ">
<path fill="none" stroke="#63b8ff" d="M1184.62,-210.27C1184.62,-200.26 1184.62,-189.19 1184.62,-180.64"/>
<polygon fill="#63b8ff" stroke="#63b8ff" points="1181.13,-210.21 1184.63,-220.21 1188.13,-210.21 1181.13,-210.21"/>
</a>
</g>
</g>
<!-- Node20 -->
<g id="Node000020" class="node">
<title>Node20</title>
<g id="a_Node000020"><a xlink:href="_constrain_2_i_r_2_ops_8cpp.html" target="_top" xlink:title=" ">
<polygon fill="white" stroke="#666666" points="1655.88,-102.62 1551.38,-102.62 1551.38,-72.12 1655.88,-72.12 1655.88,-102.62"/>
<text text-anchor="start" x="1559.38" y="-89.12" font-family="Helvetica,sans-Serif" font-size="10.00">lib/Dialect/Constrain</text>
<text text-anchor="middle" x="1603.62" y="-77.88" font-family="Helvetica,sans-Serif" font-size="10.00">/IR/Ops.cpp</text>
</a>
</g>
</g>
<!-- Node15&#45;&gt;Node20 -->
<g id="edge30_Node000015_Node000020" class="edge">
<title>Node15&#45;&gt;Node20</title>
<g id="a_edge30_Node000015_Node000020"><a xlink:title=" ">
<path fill="none" stroke="#63b8ff" d="M1212.78,-214.46C1223.37,-205.91 1235.32,-195.8 1245.62,-186 1263.8,-168.7 1261.43,-155.96 1283.62,-144.25 1386.02,-90.22 1428.75,-134.02 1541.62,-108.25 1548.02,-106.79 1554.69,-104.97 1561.2,-103.03"/>
<polygon fill="#63b8ff" stroke="#63b8ff" points="1210.73,-211.61 1205.09,-220.58 1215.09,-217.09 1210.73,-211.61"/>
</a>
</g>
</g>
<!-- Node22 -->
<g id="Node000022" class="node">
<title>Node22</title>
<g id="a_Node000022"><a xlink:href="_global_2_i_r_2_ops_8cpp.html" target="_top" xlink:title=" ">
<polygon fill="white" stroke="#666666" points="1382.75,-180.38 1292.5,-180.38 1292.5,-149.88 1382.75,-149.88 1382.75,-180.38"/>
<text text-anchor="start" x="1300.5" y="-166.88" font-family="Helvetica,sans-Serif" font-size="10.00">lib/Dialect/Global</text>
<text text-anchor="middle" x="1337.62" y="-155.62" font-family="Helvetica,sans-Serif" font-size="10.00">/IR/Ops.cpp</text>
</a>
</g>
</g>
<!-- Node15&#45;&gt;Node22 -->
<g id="edge31_Node000015_Node000022" class="edge">
<title>Node15&#45;&gt;Node22</title>
<g id="a_edge31_Node000015_Node000022"><a xlink:title=" ">
<path fill="none" stroke="#63b8ff" d="M1226.95,-216.85C1251.82,-205.45 1282.75,-191.27 1305.59,-180.81"/>
<polygon fill="#63b8ff" stroke="#63b8ff" points="1225.71,-213.57 1218.07,-220.92 1228.62,-219.93 1225.71,-213.57"/>
</a>
</g>
</g>
<!-- Node23 -->
<g id="Node000023" class="node">
<title>Node23</title>
<g id="a_Node000023"><a xlink:href="_struct_2_i_r_2_ops_8cpp.html" target="_top" xlink:title=" ">
<polygon fill="white" stroke="#666666" points="1490,-180.38 1401.25,-180.38 1401.25,-149.88 1490,-149.88 1490,-180.38"/>
<text text-anchor="start" x="1409.25" y="-166.88" font-family="Helvetica,sans-Serif" font-size="10.00">lib/Dialect/Struct</text>
<text text-anchor="middle" x="1445.62" y="-155.62" font-family="Helvetica,sans-Serif" font-size="10.00">/IR/Ops.cpp</text>
</a>
</g>
</g>
<!-- Node15&#45;&gt;Node23 -->
<g id="edge32_Node000015_Node000023" class="edge">
<title>Node15&#45;&gt;Node23</title>
<g id="a_edge32_Node000015_Node000023"><a xlink:title=" ">
<path fill="none" stroke="#63b8ff" d="M1245.03,-223.51C1286.58,-214.27 1342.85,-200.84 1391.62,-186 1396.79,-184.43 1402.17,-182.64 1407.46,-180.79"/>
<polygon fill="#63b8ff" stroke="#63b8ff" points="1244.48,-220.04 1235.47,-225.61 1245.98,-226.88 1244.48,-220.04"/>
</a>
</g>
</g>
<!-- Node24 -->
<g id="Node000024" class="node">
<title>Node24</title>
<g id="a_Node000024"><a xlink:href="_type_helper_8cpp.html" target="_top" xlink:title=" ">
<polygon fill="white" stroke="#666666" points="1622.75,-174.75 1508.5,-174.75 1508.5,-155.5 1622.75,-155.5 1622.75,-174.75"/>
<text text-anchor="middle" x="1565.62" y="-161.25" font-family="Helvetica,sans-Serif" font-size="10.00">lib/Util/TypeHelper.cpp</text>
</a>
</g>
</g>
<!-- Node15&#45;&gt;Node24 -->
<g id="edge33_Node000015_Node000024" class="edge">
<title>Node15&#45;&gt;Node24</title>
<g id="a_edge33_Node000015_Node000024"><a xlink:title=" ">
<path fill="none" stroke="#63b8ff" d="M1245.64,-228.87C1309.23,-220.62 1411.58,-205.79 1498.62,-186 1511.76,-183.01 1526.1,-178.88 1538.13,-175.16"/>
<polygon fill="#63b8ff" stroke="#63b8ff" points="1245.2,-225.4 1235.73,-230.14 1246.09,-232.34 1245.2,-225.4"/>
</a>
</g>
</g>
<!-- Node16&#45;&gt;Node9 -->
<g id="edge17_Node000016_Node000009" class="edge">
<title>Node16&#45;&gt;Node9</title>
<g id="a_edge17_Node000016_Node000009"><a xlink:title=" ">
<path fill="none" stroke="#63b8ff" d="M412.62,-138.1C412.62,-126.34 412.62,-112.88 412.62,-102.94"/>
<polygon fill="#63b8ff" stroke="#63b8ff" points="409.13,-138.01 412.63,-148.01 416.13,-138.01 409.13,-138.01"/>
</a>
</g>
</g>
<!-- Node16&#45;&gt;Node10 -->
<g id="edge18_Node000016_Node000010" class="edge">
<title>Node16&#45;&gt;Node10</title>
<g id="a_edge18_Node000016_Node000010"><a xlink:title=" ">
<path fill="none" stroke="#63b8ff" d="M350.71,-146.21C314.21,-135.5 267.18,-121.45 225.62,-108.25 220.47,-106.61 215.09,-104.86 209.75,-103.09"/>
<polygon fill="#63b8ff" stroke="#63b8ff" points="349.65,-149.55 360.23,-149 351.62,-142.83 349.65,-149.55"/>
</a>
</g>
</g>
<!-- Node16&#45;&gt;Node11 -->
<g id="edge19_Node000016_Node000011" class="edge">
<title>Node16&#45;&gt;Node11</title>
<g id="a_edge19_Node000016_Node000011"><a xlink:title=" ">
<path fill="none" stroke="#63b8ff" d="M495.92,-153.82C570.57,-144.02 682.9,-127.89 779.62,-108.25 787.16,-106.72 795.05,-104.93 802.81,-103.06"/>
<polygon fill="#63b8ff" stroke="#63b8ff" points="495.69,-150.32 486.22,-155.09 496.59,-157.26 495.69,-150.32"/>
</a>
</g>
</g>
<!-- Node17 -->
<g id="Node000017" class="node">
<title>Node17</title>
<g id="a_Node000017"><a xlink:href="_array_type_helper_8cpp.html" target="_top" xlink:title="This file contains the implementation for array type helpers.">
<polygon fill="white" stroke="#666666" points="344.5,-102.62 234.75,-102.62 234.75,-72.12 344.5,-72.12 344.5,-102.62"/>
<text text-anchor="start" x="242.75" y="-89.12" font-family="Helvetica,sans-Serif" font-size="10.00">lib/Dialect/Array/Util</text>
<text text-anchor="middle" x="289.62" y="-77.88" font-family="Helvetica,sans-Serif" font-size="10.00">/ArrayTypeHelper.cpp</text>
</a>
</g>
</g>
<!-- Node16&#45;&gt;Node17 -->
<g id="edge20_Node000016_Node000017" class="edge">
<title>Node16&#45;&gt;Node17</title>
<g id="a_edge20_Node000016_Node000017"><a xlink:title=" ">
<path fill="none" stroke="#63b8ff" d="M379.17,-143.52C358.3,-130.67 331.97,-114.45 313.27,-102.94"/>
<polygon fill="#63b8ff" stroke="#63b8ff" points="377.27,-146.46 387.62,-148.73 380.94,-140.5 377.27,-146.46"/>
</a>
</g>
</g>
<!-- Node18&#45;&gt;Node3 -->
<g id="edge22_Node000018_Node000003" class="edge">
<title>Node18&#45;&gt;Node3</title>
<g id="a_edge22_Node000018_Node000003"><a xlink:title=" ">
<path fill="none" stroke="#63b8ff" d="M1184.62,-138.1C1184.62,-126.34 1184.62,-112.88 1184.62,-102.94"/>
<polygon fill="#63b8ff" stroke="#63b8ff" points="1181.13,-138.01 1184.63,-148.01 1188.13,-138.01 1181.13,-138.01"/>
</a>
</g>
</g>
<!-- Node18&#45;&gt;Node7 -->
<g id="edge23_Node000018_Node000007" class="edge">
<title>Node18&#45;&gt;Node7</title>
<g id="a_edge23_Node000018_Node000007"><a xlink:title=" ">
<path fill="none" stroke="#63b8ff" d="M1144.63,-144.58C1118.12,-131.62 1083.88,-114.89 1059.68,-103.06"/>
<polygon fill="#63b8ff" stroke="#63b8ff" points="1142.86,-147.61 1153.38,-148.86 1145.93,-141.32 1142.86,-147.61"/>
</a>
</g>
</g>
<!-- Node18&#45;&gt;Node12 -->
<g id="edge26_Node000018_Node000012" class="edge">
<title>Node18&#45;&gt;Node12</title>
<g id="a_edge26_Node000018_Node000012"><a xlink:title=" ">
<path fill="none" stroke="#63b8ff" d="M1223.15,-144.41C1248.42,-131.47 1280.92,-114.84 1303.92,-103.06"/>
<polygon fill="#63b8ff" stroke="#63b8ff" points="1221.82,-141.16 1214.51,-148.83 1225,-147.39 1221.82,-141.16"/>
</a>
</g>
</g>
<!-- Node19 -->
<g id="Node000019" class="node">
<title>Node19</title>
<g id="a_Node000019"><a xlink:href="_constrain_2_i_r_2_dialect_8cpp.html" target="_top" xlink:title=" ">
<polygon fill="white" stroke="#666666" points="1532.88,-102.62 1428.38,-102.62 1428.38,-72.12 1532.88,-72.12 1532.88,-102.62"/>
<text text-anchor="start" x="1436.38" y="-89.12" font-family="Helvetica,sans-Serif" font-size="10.00">lib/Dialect/Constrain</text>
<text text-anchor="middle" x="1480.62" y="-77.88" font-family="Helvetica,sans-Serif" font-size="10.00">/IR/Dialect.cpp</text>
</a>
</g>
</g>
<!-- Node18&#45;&gt;Node19 -->
<g id="edge24_Node000018_Node000019" class="edge">
<title>Node18&#45;&gt;Node19</title>
<g id="a_edge24_Node000018_Node000019"><a xlink:title=" ">
<path fill="none" stroke="#63b8ff" d="M1242.73,-146.34C1245.39,-145.62 1248.03,-144.92 1250.62,-144.25 1325.01,-125.16 1345.46,-128.17 1419.62,-108.25 1425.43,-106.69 1431.51,-104.9 1437.47,-103.06"/>
<polygon fill="#63b8ff" stroke="#63b8ff" points="1241.86,-142.95 1233.18,-149.02 1243.75,-149.69 1241.86,-142.95"/>
</a>
</g>
</g>
<!-- Node18&#45;&gt;Node20 -->
<g id="edge25_Node000018_Node000020" class="edge">
<title>Node18&#45;&gt;Node20</title>
<g id="a_edge25_Node000018_Node000020"><a xlink:title=" ">
<path fill="none" stroke="#63b8ff" d="M1240.92,-146.48C1244.19,-145.67 1247.44,-144.92 1250.62,-144.25 1378.14,-117.37 1414.35,-136.26 1541.62,-108.25 1548.03,-106.84 1554.71,-105.05 1561.22,-103.12"/>
<polygon fill="#63b8ff" stroke="#63b8ff" points="1240.05,-143.09 1231.27,-149.03 1241.83,-149.86 1240.05,-143.09"/>
</a>
</g>
</g>
<!-- Node21 -->
<g id="Node000021" class="node">
<title>Node21</title>
<g id="a_Node000021"><a xlink:href="_l_l_z_k_redundant_operation_elimination_pass_8cpp.html" target="_top" xlink:title="This file implements the &#45;llzk&#45;duplicate&#45;op&#45;elim pass.">
<polygon fill="white" stroke="#666666" points="2011.5,-102.62 1859.75,-102.62 1859.75,-72.12 2011.5,-72.12 2011.5,-102.62"/>
<text text-anchor="start" x="1867.75" y="-89.12" font-family="Helvetica,sans-Serif" font-size="10.00">lib/Transforms/LLZKRedundant</text>
<text text-anchor="middle" x="1935.62" y="-77.88" font-family="Helvetica,sans-Serif" font-size="10.00">OperationEliminationPass.cpp</text>
</a>
</g>
</g>
<!-- Node18&#45;&gt;Node21 -->
<g id="edge27_Node000018_Node000021" class="edge">
<title>Node18&#45;&gt;Node21</title>
<g id="a_edge27_Node000018_Node000021"><a xlink:title=" ">
<path fill="none" stroke="#63b8ff" d="M1247.96,-150.09C1259.76,-147.85 1272.03,-145.77 1283.62,-144.25 1533.98,-111.32 1600.82,-145.12 1850.62,-108.25 1859.77,-106.9 1869.38,-105.06 1878.72,-103.05"/>
<polygon fill="#63b8ff" stroke="#63b8ff" points="1247.44,-146.63 1238.3,-151.99 1248.78,-153.5 1247.44,-146.63"/>
</a>
</g>
</g>
<!-- Node26 -->
<g id="Node000026" class="node">
<title>Node26</title>
<g id="a_Node000026"><a xlink:href="_analysis_passes_8h.html" target="_top" xlink:title=" ">
<polygon fill="white" stroke="#666666" points="2917.25,-180.38 2812,-180.38 2812,-149.88 2917.25,-149.88 2917.25,-180.38"/>
<text text-anchor="start" x="2820" y="-166.88" font-family="Helvetica,sans-Serif" font-size="10.00">include/llzk/Analysis</text>
<text text-anchor="middle" x="2864.62" y="-155.62" font-family="Helvetica,sans-Serif" font-size="10.00">/AnalysisPasses.h</text>
</a>
</g>
</g>
<!-- Node25&#45;&gt;Node26 -->
<g id="edge35_Node000025_Node000026" class="edge">
<title>Node25&#45;&gt;Node26</title>
<g id="a_edge35_Node000025_Node000026"><a xlink:title=" ">
<path fill="none" stroke="#63b8ff" d="M2049.91,-225.33C2057.86,-224.09 2065.93,-222.93 2073.62,-222 2217.3,-204.64 2658.52,-178.1 2811.63,-169.18"/>
<polygon fill="#63b8ff" stroke="#63b8ff" points="2049.58,-221.84 2040.28,-226.9 2050.71,-228.75 2049.58,-221.84"/>
</a>
</g>
</g>
<!-- Node30 -->
<g id="Node000030" class="node">
<title>Node30</title>
<g id="a_Node000030"><a xlink:href="_array_2_transforms_2_transformation_passes_8h.html" target="_top" xlink:title=" ">
<polygon fill="white" stroke="#666666" points="1828.12,-186 1665.12,-186 1665.12,-144.25 1828.12,-144.25 1828.12,-186"/>
<text text-anchor="start" x="1673.12" y="-172.5" font-family="Helvetica,sans-Serif" font-size="10.00">include/llzk/Dialect</text>
<text text-anchor="start" x="1673.12" y="-161.25" font-family="Helvetica,sans-Serif" font-size="10.00">/Array/Transforms/Transformation</text>
<text text-anchor="middle" x="1746.62" y="-150" font-family="Helvetica,sans-Serif" font-size="10.00">Passes.h</text>
</a>
</g>
</g>
<!-- Node25&#45;&gt;Node30 -->
<g id="edge40_Node000025_Node000030" class="edge">
<title>Node25&#45;&gt;Node30</title>
<g id="a_edge40_Node000025_Node000030"><a xlink:title=" ">
<path fill="none" stroke="#63b8ff" d="M1948.6,-224.17C1912.56,-213.81 1859.87,-198.67 1817.34,-186.45"/>
<polygon fill="#63b8ff" stroke="#63b8ff" points="1947.19,-227.41 1957.77,-226.81 1949.13,-220.68 1947.19,-227.41"/>
</a>
</g>
</g>
<!-- Node31 -->
<g id="Node000031" class="node">
<title>Node31</title>
<g id="a_Node000031"><a xlink:href="_inline_includes_pass_8h.html" target="_top" xlink:title=" ">
<polygon fill="white" stroke="#666666" points="2155.62,-186 1989.62,-186 1989.62,-144.25 2155.62,-144.25 2155.62,-186"/>
<text text-anchor="start" x="1997.62" y="-172.5" font-family="Helvetica,sans-Serif" font-size="10.00">include/llzk/Dialect</text>
<text text-anchor="start" x="1997.62" y="-161.25" font-family="Helvetica,sans-Serif" font-size="10.00">/Include/Transforms/InlineIncludes</text>
<text text-anchor="middle" x="2072.62" y="-150" font-family="Helvetica,sans-Serif" font-size="10.00">Pass.h</text>
</a>
</g>
</g>
<!-- Node25&#45;&gt;Node31 -->
<g id="edge43_Node000025_Node000031" class="edge">
<title>Node25&#45;&gt;Node31</title>
<g id="a_edge43_Node000025_Node000031"><a xlink:title=" ">
<path fill="none" stroke="#63b8ff" d="M2009.56,-220.06C2021.28,-210.04 2036.42,-197.09 2048.93,-186.39"/>
<polygon fill="#63b8ff" stroke="#63b8ff" points="2007.49,-217.23 2002.16,-226.38 2012.04,-222.55 2007.49,-217.23"/>
</a>
</g>
</g>
<!-- Node33 -->
<g id="Node000033" class="node">
<title>Node33</title>
<g id="a_Node000033"><a xlink:href="_polymorphic_2_transforms_2_transformation_passes_8h.html" target="_top" xlink:title=" ">
<polygon fill="white" stroke="#666666" points="1971.38,-186 1845.88,-186 1845.88,-144.25 1971.38,-144.25 1971.38,-186"/>
<text text-anchor="start" x="1853.88" y="-172.5" font-family="Helvetica,sans-Serif" font-size="10.00">include/llzk/Dialect</text>
<text text-anchor="start" x="1853.88" y="-161.25" font-family="Helvetica,sans-Serif" font-size="10.00">/Polymorphic/Transforms</text>
<text text-anchor="middle" x="1908.62" y="-150" font-family="Helvetica,sans-Serif" font-size="10.00">/TransformationPasses.h</text>
</a>
</g>
</g>
<!-- Node25&#45;&gt;Node33 -->
<g id="edge46_Node000025_Node000033" class="edge">
<title>Node25&#45;&gt;Node33</title>
<g id="a_edge46_Node000025_Node000033"><a xlink:title=" ">
<path fill="none" stroke="#63b8ff" d="M1971.69,-220.06C1959.97,-210.04 1944.83,-197.09 1932.32,-186.39"/>
<polygon fill="#63b8ff" stroke="#63b8ff" points="1969.21,-222.55 1979.09,-226.38 1973.76,-217.23 1969.21,-222.55"/>
</a>
</g>
</g>
<!-- Node34 -->
<g id="Node000034" class="node">
<title>Node34</title>
<g id="a_Node000034"><a xlink:href="_l_l_z_k_transformation_passes_8h.html" target="_top" xlink:title=" ">
<polygon fill="white" stroke="#666666" points="2322,-180.38 2173.25,-180.38 2173.25,-149.88 2322,-149.88 2322,-180.38"/>
<text text-anchor="start" x="2181.25" y="-166.88" font-family="Helvetica,sans-Serif" font-size="10.00">include/llzk/Transforms</text>
<text text-anchor="middle" x="2247.62" y="-155.62" font-family="Helvetica,sans-Serif" font-size="10.00">/LLZKTransformationPasses.h</text>
</a>
</g>
</g>
<!-- Node25&#45;&gt;Node34 -->
<g id="edge49_Node000025_Node000034" class="edge">
<title>Node25&#45;&gt;Node34</title>
<g id="a_edge49_Node000025_Node000034"><a xlink:title=" ">
<path fill="none" stroke="#63b8ff" d="M2034.9,-224.17C2078.95,-212.15 2146.6,-193.69 2193.74,-180.83"/>
<polygon fill="#63b8ff" stroke="#63b8ff" points="2034.15,-220.75 2025.42,-226.76 2035.99,-227.5 2034.15,-220.75"/>
</a>
</g>
</g>
<!-- Node37 -->
<g id="Node000037" class="node">
<title>Node37</title>
<g id="a_Node000037"><a xlink:href="_l_l_z_k_validation_passes_8h.html" target="_top" xlink:title=" ">
<polygon fill="white" stroke="#666666" points="2465.38,-180.38 2339.88,-180.38 2339.88,-149.88 2465.38,-149.88 2465.38,-180.38"/>
<text text-anchor="start" x="2347.88" y="-166.88" font-family="Helvetica,sans-Serif" font-size="10.00">include/llzk/Validators</text>
<text text-anchor="middle" x="2402.62" y="-155.62" font-family="Helvetica,sans-Serif" font-size="10.00">/LLZKValidationPasses.h</text>
</a>
</g>
</g>
<!-- Node25&#45;&gt;Node37 -->
<g id="edge55_Node000025_Node000037" class="edge">
<title>Node25&#45;&gt;Node37</title>
<g id="a_edge55_Node000025_Node000037"><a xlink:title=" ">
<path fill="none" stroke="#63b8ff" d="M2052.87,-225.35C2059.86,-224.19 2066.89,-223.05 2073.62,-222 2187.59,-204.24 2217.69,-209.39 2330.62,-186 2337.74,-184.53 2345.18,-182.75 2352.47,-180.87"/>
<polygon fill="#63b8ff" stroke="#63b8ff" points="2052.72,-221.83 2043.44,-226.93 2053.88,-228.73 2052.72,-221.83"/>
</a>
</g>
</g>
<!-- Node26&#45;&gt;Node5 -->
<g id="edge38_Node000026_Node000005" class="edge">
<title>Node26&#45;&gt;Node5</title>
<g id="a_edge38_Node000026_Node000005"><a xlink:title=" ">
<path fill="none" stroke="#63b8ff" d="M2928.8,-161.88C3030.2,-156.2 3209.55,-136.26 3143.62,-66.5 3115.68,-36.93 2531.23,-21.97 2326.62,-17.62"/>
<polygon fill="#63b8ff" stroke="#63b8ff" points="2928.76,-158.37 2918.95,-162.39 2929.12,-165.36 2928.76,-158.37"/>
</a>
</g>
</g>
<!-- Node27 -->
<g id="Node000027" class="node">
<title>Node27</title>
<g id="a_Node000027"><a xlink:href="_call_graph_passes_8cpp.html" target="_top" xlink:title="This file implements the &#45;llzk&#45;print&#45;call&#45;graph and &#45;llzk&#45;print&#45;call&#45;graph&#45;sccs passes.">
<polygon fill="white" stroke="#666666" points="2946.88,-97 2782.38,-97 2782.38,-77.75 2946.88,-77.75 2946.88,-97"/>
<text text-anchor="middle" x="2864.62" y="-83.5" font-family="Helvetica,sans-Serif" font-size="10.00">lib/Analysis/CallGraphPasses.cpp</text>
</a>
</g>
</g>
<!-- Node26&#45;&gt;Node27 -->
<g id="edge36_Node000026_Node000027" class="edge">
<title>Node26&#45;&gt;Node27</title>
<g id="a_edge36_Node000026_Node000027"><a xlink:title=" ">
<path fill="none" stroke="#63b8ff" d="M2864.62,-138.35C2864.62,-124.1 2864.62,-107.29 2864.62,-97.25"/>
<polygon fill="#63b8ff" stroke="#63b8ff" points="2861.13,-138.01 2864.63,-148.01 2868.13,-138.01 2861.13,-138.01"/>
</a>
</g>
</g>
<!-- Node28 -->
<g id="Node000028" class="node">
<title>Node28</title>
<g id="a_Node000028"><a xlink:href="_constraint_dependency_graph_pass_8cpp.html" target="_top" xlink:title="This file implements the &#45;llzk&#45;print&#45;constraint&#45;dependency&#45;graphs pass.">
<polygon fill="white" stroke="#666666" points="3134.12,-102.62 2965.12,-102.62 2965.12,-72.12 3134.12,-72.12 3134.12,-102.62"/>
<text text-anchor="start" x="2973.12" y="-89.12" font-family="Helvetica,sans-Serif" font-size="10.00">lib/Analysis/ConstraintDependency</text>
<text text-anchor="middle" x="3049.62" y="-77.88" font-family="Helvetica,sans-Serif" font-size="10.00">GraphPass.cpp</text>
</a>
</g>
</g>
<!-- Node26&#45;&gt;Node28 -->
<g id="edge37_Node000026_Node000028" class="edge">
<title>Node26&#45;&gt;Node28</title>
<g id="a_edge37_Node000026_Node000028"><a xlink:title=" ">
<path fill="none" stroke="#63b8ff" d="M2910.69,-145.26C2942.56,-132.21 2984.35,-115.1 3013.75,-103.06"/>
<polygon fill="#63b8ff" stroke="#63b8ff" points="2909.62,-141.92 2901.7,-148.95 2912.28,-148.4 2909.62,-141.92"/>
</a>
</g>
</g>
<!-- Node29 -->
<g id="Node000029" class="node">
<title>Node29</title>
<g id="a_Node000029"><a xlink:href="llzk-opt_8cpp.html" target="_top" xlink:title="This file implements a version of the mlir&#45;opt tool configured for use on LLZK files.">
<polygon fill="white" stroke="#666666" points="2269.38,-102.62 2179.88,-102.62 2179.88,-72.12 2269.38,-72.12 2269.38,-102.62"/>
<text text-anchor="start" x="2187.88" y="-89.12" font-family="Helvetica,sans-Serif" font-size="10.00">tools/llzk&#45;opt/llzk</text>
<text text-anchor="middle" x="2224.62" y="-77.88" font-family="Helvetica,sans-Serif" font-size="10.00">&#45;opt.cpp</text>
</a>
</g>
</g>
<!-- Node26&#45;&gt;Node29 -->
<g id="edge39_Node000026_Node000029" class="edge">
<title>Node26&#45;&gt;Node29</title>
<g id="a_edge39_Node000026_Node000029"><a xlink:title=" ">
<path fill="none" stroke="#63b8ff" d="M2800.36,-163.38C2691.61,-160.93 2464.9,-150.66 2278.62,-108.25 2272.68,-106.9 2266.51,-105.06 2260.55,-103.05"/>
<polygon fill="#63b8ff" stroke="#63b8ff" points="2800.19,-166.88 2810.26,-163.59 2800.34,-159.88 2800.19,-166.88"/>
</a>
</g>
</g>
<!-- Node30&#45;&gt;Node11 -->
<g id="edge41_Node000030_Node000011" class="edge">
<title>Node30&#45;&gt;Node11</title>
<g id="a_edge41_Node000030_Node000011"><a xlink:title=" ">
<path fill="none" stroke="#63b8ff" d="M1653.57,-147.07C1646.16,-146.01 1638.78,-145.05 1631.62,-144.25 1324.24,-109.85 1242.5,-154.2 936.62,-108.25 927.95,-106.95 918.85,-105.11 910.03,-103.07"/>
<polygon fill="#63b8ff" stroke="#63b8ff" points="1652.91,-150.51 1663.32,-148.53 1653.95,-143.59 1652.91,-150.51"/>
</a>
</g>
</g>
<!-- Node30&#45;&gt;Node29 -->
<g id="edge42_Node000030_Node000029" class="edge">
<title>Node30&#45;&gt;Node29</title>
<g id="a_edge42_Node000030_Node000029"><a xlink:title=" ">
<path fill="none" stroke="#63b8ff" d="M1839.66,-143.86C1986.04,-121.16 2028.8,-141.46 2170.62,-108.25 2176.46,-106.88 2182.53,-105.07 2188.4,-103.08"/>
<polygon fill="#63b8ff" stroke="#63b8ff" points="1839.29,-140.38 1829.96,-145.41 1840.39,-147.29 1839.29,-140.38"/>
</a>
</g>
</g>
<!-- Node31&#45;&gt;Node29 -->
<g id="edge45_Node000031_Node000029" class="edge">
<title>Node31&#45;&gt;Node29</title>
<g id="a_edge45_Node000031_Node000029"><a xlink:title=" ">
<path fill="none" stroke="#63b8ff" d="M2123.35,-138.85C2147.28,-126.92 2174.97,-113.12 2195.35,-102.96"/>
<polygon fill="#63b8ff" stroke="#63b8ff" points="2122.1,-135.56 2114.71,-143.15 2125.22,-141.82 2122.1,-135.56"/>
</a>
</g>
</g>
<!-- Node32 -->
<g id="Node000032" class="node">
<title>Node32</title>
<g id="a_Node000032"><a xlink:href="_inline_includes_pass_8cpp.html" target="_top" xlink:title="This file implements the &#45;llzk&#45;inline&#45;includes pass.">
<polygon fill="white" stroke="#666666" points="2161.38,-108.25 2029.88,-108.25 2029.88,-66.5 2161.38,-66.5 2161.38,-108.25"/>
<text text-anchor="start" x="2037.88" y="-94.75" font-family="Helvetica,sans-Serif" font-size="10.00">lib/Dialect/Include</text>
<text text-anchor="start" x="2037.88" y="-83.5" font-family="Helvetica,sans-Serif" font-size="10.00">/Transforms/InlineIncludes</text>
<text text-anchor="middle" x="2095.62" y="-72.25" font-family="Helvetica,sans-Serif" font-size="10.00">Pass.cpp</text>
</a>
</g>
</g>
<!-- Node31&#45;&gt;Node32 -->
<g id="edge44_Node000031_Node000032" class="edge">
<title>Node31&#45;&gt;Node32</title>
<g id="a_edge44_Node000031_Node000032"><a xlink:title=" ">
<path fill="none" stroke="#63b8ff" d="M2082.06,-133.06C2084.55,-124.86 2087.17,-116.21 2089.44,-108.73"/>
<polygon fill="#63b8ff" stroke="#63b8ff" points="2078.78,-131.79 2079.23,-142.38 2085.48,-133.83 2078.78,-131.79"/>
</a>
</g>
</g>
<!-- Node33&#45;&gt;Node12 -->
<g id="edge47_Node000033_Node000012" class="edge">
<title>Node33&#45;&gt;Node12</title>
<g id="a_edge47_Node000033_Node000012"><a xlink:title=" ">
<path fill="none" stroke="#63b8ff" d="M1834.33,-143.82C1652.09,-112 1600.16,-136.51 1419.62,-108.25 1410.59,-106.84 1401.1,-105.02 1391.85,-103.06"/>
<polygon fill="#63b8ff" stroke="#63b8ff" points="1833.72,-147.27 1844.18,-145.58 1834.95,-140.37 1833.72,-147.27"/>
</a>
</g>
</g>
<!-- Node33&#45;&gt;Node29 -->
<g id="edge48_Node000033_Node000029" class="edge">
<title>Node33&#45;&gt;Node29</title>
<g id="a_edge48_Node000033_Node000029"><a xlink:title=" ">
<path fill="none" stroke="#63b8ff" d="M1982.82,-143.86C2066.37,-125.27 2091.19,-130.23 2170.62,-108.25 2176.02,-106.76 2181.63,-104.97 2187.12,-103.08"/>
<polygon fill="#63b8ff" stroke="#63b8ff" points="1982.21,-140.41 1973.24,-146.04 1983.77,-147.23 1982.21,-140.41"/>
</a>
</g>
</g>
<!-- Node34&#45;&gt;Node13 -->
<g id="edge51_Node000034_Node000013" class="edge">
<title>Node34&#45;&gt;Node13</title>
<g id="a_edge51_Node000034_Node000013"><a xlink:title=" ">
<path fill="none" stroke="#63b8ff" d="M2179.35,-147.08C2174.38,-146.06 2169.43,-145.1 2164.62,-144.25 2026.29,-119.85 1989.25,-130.95 1850.62,-108.25 1841.5,-106.76 1831.92,-104.96 1822.51,-103.08"/>
<polygon fill="#63b8ff" stroke="#63b8ff" points="2178.22,-150.42 2188.74,-149.11 2179.7,-143.58 2178.22,-150.42"/>
</a>
</g>
</g>
<!-- Node34&#45;&gt;Node21 -->
<g id="edge50_Node000034_Node000021" class="edge">
<title>Node34&#45;&gt;Node21</title>
<g id="a_edge50_Node000034_Node000021"><a xlink:title=" ">
<path fill="none" stroke="#63b8ff" d="M2176.15,-146.77C2121.77,-133.57 2047.75,-115.6 1996.25,-103.09"/>
<polygon fill="#63b8ff" stroke="#63b8ff" points="2175.08,-150.11 2185.63,-149.07 2176.74,-143.31 2175.08,-150.11"/>
</a>
</g>
</g>
<!-- Node34&#45;&gt;Node29 -->
<g id="edge54_Node000034_Node000029" class="edge">
<title>Node34&#45;&gt;Node29</title>
<g id="a_edge54_Node000034_Node000029"><a xlink:title=" ">
<path fill="none" stroke="#63b8ff" d="M2239.95,-138.84C2236.32,-126.9 2232.13,-113.09 2229.05,-102.94"/>
<polygon fill="#63b8ff" stroke="#63b8ff" points="2236.5,-139.52 2242.75,-148.07 2243.19,-137.49 2236.5,-139.52"/>
</a>
</g>
</g>
<!-- Node35 -->
<g id="Node000035" class="node">
<title>Node35</title>
<g id="a_Node000035"><a xlink:href="_l_l_z_k_unused_declaration_elimination_pass_8cpp.html" target="_top" xlink:title="This file implements the &#45;llzk&#45;unused&#45;declaration&#45;elim pass.">
<polygon fill="white" stroke="#666666" points="2442,-102.62 2287.25,-102.62 2287.25,-72.12 2442,-72.12 2442,-102.62"/>
<text text-anchor="start" x="2295.25" y="-89.12" font-family="Helvetica,sans-Serif" font-size="10.00">lib/Transforms/LLZKUnused</text>
<text text-anchor="middle" x="2364.62" y="-77.88" font-family="Helvetica,sans-Serif" font-size="10.00">DeclarationEliminationPass.cpp</text>
</a>
</g>
</g>
<!-- Node34&#45;&gt;Node35 -->
<g id="edge52_Node000034_Node000035" class="edge">
<title>Node34&#45;&gt;Node35</title>
<g id="a_edge52_Node000034_Node000035"><a xlink:title=" ">
<path fill="none" stroke="#63b8ff" d="M2279.72,-143.34C2299.52,-130.52 2324.43,-114.4 2342.14,-102.94"/>
<polygon fill="#63b8ff" stroke="#63b8ff" points="2277.95,-140.32 2271.45,-148.7 2281.75,-146.2 2277.95,-140.32"/>
</a>
</g>
</g>
<!-- Node36 -->
<g id="Node000036" class="node">
<title>Node36</title>
<g id="a_Node000036"><a xlink:href="_transformation_pass_pipelines_8cpp.html" target="_top" xlink:title="This file implements logic for registering the &#45;llzk&#45;remove&#45;unnecessary&#45;ops and &#45;llzk&#45;remove&#45;unnecess...">
<polygon fill="white" stroke="#666666" points="2606.88,-102.62 2460.38,-102.62 2460.38,-72.12 2606.88,-72.12 2606.88,-102.62"/>
<text text-anchor="start" x="2468.38" y="-89.12" font-family="Helvetica,sans-Serif" font-size="10.00">lib/Transforms/Transformation</text>
<text text-anchor="middle" x="2533.62" y="-77.88" font-family="Helvetica,sans-Serif" font-size="10.00">PassPipelines.cpp</text>
</a>
</g>
</g>
<!-- Node34&#45;&gt;Node36 -->
<g id="edge53_Node000034_Node000036" class="edge">
<title>Node34&#45;&gt;Node36</title>
<g id="a_edge53_Node000034_Node000036"><a xlink:title=" ">
<path fill="none" stroke="#63b8ff" d="M2314.1,-146.52C2363.94,-133.32 2431.37,-115.46 2478.3,-103.03"/>
<polygon fill="#63b8ff" stroke="#63b8ff" points="2313.34,-143.1 2304.57,-149.04 2315.13,-149.87 2313.34,-143.1"/>
</a>
</g>
</g>
<!-- Node37&#45;&gt;Node29 -->
<g id="edge57_Node000037_Node000029" class="edge">
<title>Node37&#45;&gt;Node29</title>
<g id="a_edge57_Node000037_Node000029"><a xlink:title=" ">
<path fill="none" stroke="#63b8ff" d="M2357.9,-145.09C2327.29,-132.07 2287.3,-115.05 2259.14,-103.06"/>
<polygon fill="#63b8ff" stroke="#63b8ff" points="2356.34,-148.23 2366.91,-148.93 2359.08,-141.79 2356.34,-148.23"/>
</a>
</g>
</g>
<!-- Node38 -->
<g id="Node000038" class="node">
<title>Node38</title>
<g id="a_Node000038"><a xlink:href="_l_l_z_k_validation_passes_8cpp.html" target="_top" xlink:title="This file contains the implementation for the &#45;llzk&#45;validate&#45;field&#45;writes pass.">
<polygon fill="white" stroke="#666666" points="2764.5,-102.62 2624.75,-102.62 2624.75,-72.12 2764.5,-72.12 2764.5,-102.62"/>
<text text-anchor="start" x="2632.75" y="-89.12" font-family="Helvetica,sans-Serif" font-size="10.00">lib/Validators/LLZKValidation</text>
<text text-anchor="middle" x="2694.62" y="-77.88" font-family="Helvetica,sans-Serif" font-size="10.00">Passes.cpp</text>
</a>
</g>
</g>
<!-- Node37&#45;&gt;Node38 -->
<g id="edge56_Node000037_Node000038" class="edge">
<title>Node37&#45;&gt;Node38</title>
<g id="a_edge56_Node000037_Node000038"><a xlink:title=" ">
<path fill="none" stroke="#63b8ff" d="M2470.17,-146.6C2521.1,-133.39 2590.13,-115.48 2638.14,-103.03"/>
<polygon fill="#63b8ff" stroke="#63b8ff" points="2469.54,-143.15 2460.74,-149.05 2471.3,-149.93 2469.54,-143.15"/>
</a>
</g>
</g>
</g>
</svg>
