<?xml version="1.0" encoding="UTF-8" standalone="no"?>
<!DOCTYPE svg PUBLIC "-//W3C//DTD SVG 1.1//EN"
 "http://www.w3.org/Graphics/SVG/1.1/DTD/svg11.dtd">
<!-- Generated by graphviz version 12.2.1 (0)
 -->
<!-- Title: lib/Dialect/Array/IR/Dialect.cpp Pages: 1 -->
<svg width="1895pt" height="305pt"
 viewBox="0.00 0.00 1895.25 304.50" xmlns="http://www.w3.org/2000/svg" xmlns:xlink="http://www.w3.org/1999/xlink">
<g id="graph0" class="graph" transform="scale(1 1) rotate(0) translate(4 300.5)">
<title>lib/Dialect/Array/IR/Dialect.cpp</title>
<!-- Node1 -->
<g id="Node000001" class="node">
<title>Node1</title>
<g id="a_Node000001"><a xlink:title=" ">
<polygon fill="#999999" stroke="#666666" points="1068.38,-296.5 969.12,-296.5 969.12,-266 1068.38,-266 1068.38,-296.5"/>
<text text-anchor="start" x="977.12" y="-283" font-family="Helvetica,sans-Serif" font-size="10.00">lib/Dialect/Array/IR</text>
<text text-anchor="middle" x="1018.75" y="-271.75" font-family="Helvetica,sans-Serif" font-size="10.00">/Dialect.cpp</text>
</a>
</g>
</g>
<!-- Node2 -->
<g id="Node000002" class="node">
<title>Node2</title>
<g id="a_Node000002"><a xlink:href="_array_2_i_r_2_dialect_8h.html" target="_top" xlink:title=" ">
<polygon fill="white" stroke="#666666" points="153.25,-97 62.25,-97 62.25,-66.5 153.25,-66.5 153.25,-97"/>
<text text-anchor="start" x="70.25" y="-83.5" font-family="Helvetica,sans-Serif" font-size="10.00">llzk/Dialect/Array</text>
<text text-anchor="middle" x="107.75" y="-72.25" font-family="Helvetica,sans-Serif" font-size="10.00">/IR/Dialect.h</text>
</a>
</g>
</g>
<!-- Node1&#45;&gt;Node2 -->
<g id="edge1_Node000001_Node000002" class="edge">
<title>Node1&#45;&gt;Node2</title>
<g id="a_edge1_Node000001_Node000002"><a xlink:title=" ">
<path fill="none" stroke="#63b8ff" d="M969.05,-277.49C849.62,-269.74 538.13,-242.91 291.75,-163.5 240.07,-146.85 183.22,-120.6 146.59,-102.57"/>
<polygon fill="#63b8ff" stroke="#63b8ff" points="148.23,-99.48 137.71,-98.17 145.11,-105.75 148.23,-99.48"/>
</a>
</g>
</g>
<!-- Node5 -->
<g id="Node000005" class="node">
<title>Node5</title>
<g id="a_Node000005"><a xlink:href="_array_2_i_r_2_ops_8h.html" target="_top" xlink:title=" ">
<polygon fill="white" stroke="#666666" points="801.25,-230 710.25,-230 710.25,-199.5 801.25,-199.5 801.25,-230"/>
<text text-anchor="start" x="718.25" y="-216.5" font-family="Helvetica,sans-Serif" font-size="10.00">llzk/Dialect/Array</text>
<text text-anchor="middle" x="755.75" y="-205.25" font-family="Helvetica,sans-Serif" font-size="10.00">/IR/Ops.h</text>
</a>
</g>
</g>
<!-- Node1&#45;&gt;Node5 -->
<g id="edge4_Node000001_Node000005" class="edge">
<title>Node1&#45;&gt;Node5</title>
<g id="a_edge4_Node000001_Node000005"><a xlink:title=" ">
<path fill="none" stroke="#63b8ff" d="M968.68,-268.4C928.98,-258.95 871.81,-245.21 812.71,-230.47"/>
<polygon fill="#63b8ff" stroke="#63b8ff" points="813.67,-227.1 803.12,-228.07 811.97,-233.89 813.67,-227.1"/>
</a>
</g>
</g>
<!-- Node6 -->
<g id="Node000006" class="node">
<title>Node6</title>
<g id="a_Node000006"><a xlink:href="_array_2_i_r_2_types_8h.html" target="_top" xlink:title=" ">
<polygon fill="white" stroke="#666666" points="522.25,-163.5 431.25,-163.5 431.25,-133 522.25,-133 522.25,-163.5"/>
<text text-anchor="start" x="439.25" y="-150" font-family="Helvetica,sans-Serif" font-size="10.00">llzk/Dialect/Array</text>
<text text-anchor="middle" x="476.75" y="-138.75" font-family="Helvetica,sans-Serif" font-size="10.00">/IR/Types.h</text>
</a>
</g>
</g>
<!-- Node1&#45;&gt;Node6 -->
<g id="edge39_Node000001_Node000006" class="edge">
<title>Node1&#45;&gt;Node6</title>
<g id="a_edge39_Node000001_Node000006"><a xlink:title=" ">
<path fill="none" stroke="#63b8ff" d="M968.74,-275.26C905.78,-268.3 794.59,-253.79 701.75,-230 637.87,-213.63 566.6,-186.47 521.73,-168.22"/>
<polygon fill="#63b8ff" stroke="#63b8ff" points="523.17,-165.03 512.59,-164.48 520.52,-171.51 523.17,-165.03"/>
</a>
</g>
</g>
<!-- Node31 -->
<g id="Node000031" class="node">
<title>Node31</title>
<g id="a_Node000031"><a xlink:href="_versioning_8h.html" target="_top" xlink:title=" ">
<polygon fill="white" stroke="#666666" points="924,-230 819.5,-230 819.5,-199.5 924,-199.5 924,-230"/>
<text text-anchor="start" x="827.5" y="-216.5" font-family="Helvetica,sans-Serif" font-size="10.00">llzk/Dialect/LLZK/IR</text>
<text text-anchor="middle" x="871.75" y="-205.25" font-family="Helvetica,sans-Serif" font-size="10.00">/Versioning.h</text>
</a>
</g>
</g>
<!-- Node1&#45;&gt;Node31 -->
<g id="edge40_Node000001_Node000031" class="edge">
<title>Node1&#45;&gt;Node31</title>
<g id="a_edge40_Node000001_Node000031"><a xlink:title=" ">
<path fill="none" stroke="#63b8ff" d="M985.39,-265.61C964.7,-256.53 937.88,-244.77 915.49,-234.94"/>
<polygon fill="#63b8ff" stroke="#63b8ff" points="917.18,-231.86 906.61,-231.05 914.37,-238.27 917.18,-231.86"/>
</a>
</g>
</g>
<!-- Node33 -->
<g id="Node000033" class="node">
<title>Node33</title>
<g id="a_Node000033"><a xlink:title=" ">
<polygon fill="#e0e0e0" stroke="#999999" points="1095.75,-224.38 941.75,-224.38 941.75,-205.12 1095.75,-205.12 1095.75,-224.38"/>
<text text-anchor="middle" x="1018.75" y="-210.88" font-family="Helvetica,sans-Serif" font-size="10.00">mlir/IR/DialectImplementation.h</text>
</a>
</g>
</g>
<!-- Node1&#45;&gt;Node33 -->
<g id="edge42_Node000001_Node000033" class="edge">
<title>Node1&#45;&gt;Node33</title>
<g id="a_edge42_Node000001_Node000033"><a xlink:title=" ">
<path fill="none" stroke="#63b8ff" d="M1018.75,-265.61C1018.75,-256.83 1018.75,-245.52 1018.75,-235.9"/>
<polygon fill="#63b8ff" stroke="#63b8ff" points="1022.25,-236.09 1018.75,-226.09 1015.25,-236.09 1022.25,-236.09"/>
</a>
</g>
</g>
<!-- Node34 -->
<g id="Node000034" class="node">
<title>Node34</title>
<g id="a_Node000034"><a xlink:title=" ">
<polygon fill="#e0e0e0" stroke="#999999" points="1233.5,-224.38 1114,-224.38 1114,-205.12 1233.5,-205.12 1233.5,-224.38"/>
<text text-anchor="middle" x="1173.75" y="-210.88" font-family="Helvetica,sans-Serif" font-size="10.00">llvm/ADT/TypeSwitch.h</text>
</a>
</g>
</g>
<!-- Node1&#45;&gt;Node34 -->
<g id="edge43_Node000001_Node000034" class="edge">
<title>Node1&#45;&gt;Node34</title>
<g id="a_edge43_Node000001_Node000034"><a xlink:title=" ">
<path fill="none" stroke="#63b8ff" d="M1053.92,-265.61C1080.22,-254.67 1115.9,-239.82 1141.47,-229.18"/>
<polygon fill="#63b8ff" stroke="#63b8ff" points="1142.81,-232.41 1150.7,-225.34 1140.12,-225.95 1142.81,-232.41"/>
</a>
</g>
</g>
<!-- Node35 -->
<g id="Node000035" class="node">
<title>Node35</title>
<g id="a_Node000035"><a xlink:href="_array_2_i_r_2_dialect_8cpp_8inc.html" target="_top" xlink:title=" ">
<polygon fill="white" stroke="#666666" points="1349.62,-230 1251.88,-230 1251.88,-199.5 1349.62,-199.5 1349.62,-230"/>
<text text-anchor="start" x="1259.88" y="-216.5" font-family="Helvetica,sans-Serif" font-size="10.00">llzk/Dialect/Array</text>
<text text-anchor="middle" x="1300.75" y="-205.25" font-family="Helvetica,sans-Serif" font-size="10.00">/IR/Dialect.cpp.inc</text>
</a>
</g>
</g>
<!-- Node1&#45;&gt;Node35 -->
<g id="edge44_Node000001_Node000035" class="edge">
<title>Node1&#45;&gt;Node35</title>
<g id="a_edge44_Node000001_Node000035"><a xlink:title=" ">
<path fill="none" stroke="#63b8ff" d="M1068.64,-269.36C1111.68,-259.9 1175.8,-245.64 1240.58,-230.48"/>
<polygon fill="#63b8ff" stroke="#63b8ff" points="1241,-233.98 1249.93,-228.29 1239.4,-227.17 1241,-233.98"/>
</a>
</g>
</g>
<!-- Node36 -->
<g id="Node000036" class="node">
<title>Node36</title>
<g id="a_Node000036"><a xlink:href="_array_2_i_r_2_types_8cpp_8inc.html" target="_top" xlink:title=" ">
<polygon fill="white" stroke="#666666" points="1461.38,-230 1368.12,-230 1368.12,-199.5 1461.38,-199.5 1461.38,-230"/>
<text text-anchor="start" x="1376.12" y="-216.5" font-family="Helvetica,sans-Serif" font-size="10.00">llzk/Dialect/Array</text>
<text text-anchor="middle" x="1414.75" y="-205.25" font-family="Helvetica,sans-Serif" font-size="10.00">/IR/Types.cpp.inc</text>
</a>
</g>
</g>
<!-- Node1&#45;&gt;Node36 -->
<g id="edge45_Node000001_Node000036" class="edge">
<title>Node1&#45;&gt;Node36</title>
<g id="a_edge45_Node000001_Node000036"><a xlink:title=" ">
<path fill="none" stroke="#63b8ff" d="M1068.86,-274.47C1133.22,-266.7 1248.53,-251.56 1356.66,-230.29"/>
<polygon fill="#63b8ff" stroke="#63b8ff" points="1357.17,-233.76 1366.29,-228.37 1355.8,-226.89 1357.17,-233.76"/>
</a>
</g>
</g>
<!-- Node37 -->
<g id="Node000037" class="node">
<title>Node37</title>
<g id="a_Node000037"><a xlink:href="_array_2_i_r_2_ops_8cpp_8inc.html" target="_top" xlink:title=" ">
<polygon fill="white" stroke="#666666" points="1570.25,-230 1479.25,-230 1479.25,-199.5 1570.25,-199.5 1570.25,-230"/>
<text text-anchor="start" x="1487.25" y="-216.5" font-family="Helvetica,sans-Serif" font-size="10.00">llzk/Dialect/Array</text>
<text text-anchor="middle" x="1524.75" y="-205.25" font-family="Helvetica,sans-Serif" font-size="10.00">/IR/Ops.cpp.inc</text>
</a>
</g>
</g>
<!-- Node1&#45;&gt;Node37 -->
<g id="edge46_Node000001_Node000037" class="edge">
<title>Node1&#45;&gt;Node37</title>
<g id="a_edge46_Node000001_Node000037"><a xlink:title=" ">
<path fill="none" stroke="#63b8ff" d="M1068.6,-277.12C1150.22,-271.47 1317.56,-257.69 1467.66,-230.41"/>
<polygon fill="#63b8ff" stroke="#63b8ff" points="1468.21,-233.87 1477.41,-228.62 1466.94,-226.99 1468.21,-233.87"/>
</a>
</g>
</g>
<!-- Node3 -->
<g id="Node000003" class="node">
<title>Node3</title>
<g id="a_Node000003"><a xlink:title=" ">
<polygon fill="#e0e0e0" stroke="#999999" points="101.5,-24.88 0,-24.88 0,-5.63 101.5,-5.63 101.5,-24.88"/>
<text text-anchor="middle" x="50.75" y="-11.38" font-family="Helvetica,sans-Serif" font-size="10.00">mlir/IR/BuiltinOps.h</text>
</a>
</g>
</g>
<!-- Node2&#45;&gt;Node3 -->
<g id="edge2_Node000002_Node000003" class="edge">
<title>Node2&#45;&gt;Node3</title>
<g id="a_edge2_Node000002_Node000003"><a xlink:title=" ">
<path fill="none" stroke="#63b8ff" d="M94.82,-66.11C86.27,-56.44 75.02,-43.71 66.03,-33.54"/>
<polygon fill="#63b8ff" stroke="#63b8ff" points="68.79,-31.38 59.55,-26.21 63.55,-36.02 68.79,-31.38"/>
</a>
</g>
</g>
<!-- Node4 -->
<g id="Node000004" class="node">
<title>Node4</title>
<g id="a_Node000004"><a xlink:href="_array_2_i_r_2_dialect_8h_8inc.html" target="_top" xlink:title=" ">
<polygon fill="white" stroke="#666666" points="210.25,-30.5 119.25,-30.5 119.25,0 210.25,0 210.25,-30.5"/>
<text text-anchor="start" x="127.25" y="-17" font-family="Helvetica,sans-Serif" font-size="10.00">llzk/Dialect/Array</text>
<text text-anchor="middle" x="164.75" y="-5.75" font-family="Helvetica,sans-Serif" font-size="10.00">/IR/Dialect.h.inc</text>
</a>
</g>
</g>
<!-- Node2&#45;&gt;Node4 -->
<g id="edge3_Node000002_Node000004" class="edge">
<title>Node2&#45;&gt;Node4</title>
<g id="a_edge3_Node000002_Node000004"><a xlink:title=" ">
<path fill="none" stroke="#63b8ff" d="M120.68,-66.11C127.68,-58.2 136.48,-48.24 144.38,-39.3"/>
<polygon fill="#63b8ff" stroke="#63b8ff" points="146.87,-41.77 150.86,-31.96 141.62,-37.14 146.87,-41.77"/>
</a>
</g>
</g>
<!-- Node5&#45;&gt;Node2 -->
<g id="edge5_Node000005_Node000002" class="edge">
<title>Node5&#45;&gt;Node2</title>
<g id="a_edge5_Node000005_Node000002"><a xlink:title=" ">
<path fill="none" stroke="#63b8ff" d="M709.84,-208.34C645.22,-200.38 523.91,-184.19 421.75,-163.5 308.39,-140.54 278.95,-127.78 164.66,-97.76"/>
<polygon fill="#63b8ff" stroke="#63b8ff" points="165.72,-94.43 155.16,-95.28 163.96,-101.2 165.72,-94.43"/>
</a>
</g>
</g>
<!-- Node5&#45;&gt;Node6 -->
<g id="edge6_Node000005_Node000006" class="edge">
<title>Node5&#45;&gt;Node6</title>
<g id="a_edge6_Node000005_Node000006"><a xlink:title=" ">
<path fill="none" stroke="#63b8ff" d="M709.99,-203.17C661.74,-192.02 585.65,-174.43 533.59,-162.39"/>
<polygon fill="#63b8ff" stroke="#63b8ff" points="534.54,-159.02 524.01,-160.18 532.96,-165.84 534.54,-159.02"/>
</a>
</g>
</g>
<!-- Node12 -->
<g id="Node000012" class="node">
<title>Node12</title>
<g id="a_Node000012"><a xlink:href="_array_2_i_r_2_ops_8h_8inc.html" target="_top" xlink:title=" ">
<polygon fill="white" stroke="#666666" points="522.25,-97 431.25,-97 431.25,-66.5 522.25,-66.5 522.25,-97"/>
<text text-anchor="start" x="439.25" y="-83.5" font-family="Helvetica,sans-Serif" font-size="10.00">llzk/Dialect/Array</text>
<text text-anchor="middle" x="476.75" y="-72.25" font-family="Helvetica,sans-Serif" font-size="10.00">/IR/Ops.h.inc</text>
</a>
</g>
</g>
<!-- Node5&#45;&gt;Node12 -->
<g id="edge38_Node000005_Node000012" class="edge">
<title>Node5&#45;&gt;Node12</title>
<g id="a_edge38_Node000005_Node000012"><a xlink:title=" ">
<path fill="none" stroke="#63b8ff" d="M724.56,-199.1C674.06,-175.39 574.4,-128.6 518.07,-102.15"/>
<polygon fill="#63b8ff" stroke="#63b8ff" points="519.65,-99.03 509.11,-97.95 516.68,-105.36 519.65,-99.03"/>
</a>
</g>
</g>
<!-- Node14 -->
<g id="Node000014" class="node">
<title>Node14</title>
<g id="a_Node000014"><a xlink:href="_op_helpers_8h.html" target="_top" xlink:title=" ">
<polygon fill="white" stroke="#666666" points="1321,-163.5 1222.5,-163.5 1222.5,-133 1321,-133 1321,-163.5"/>
<text text-anchor="start" x="1230.5" y="-150" font-family="Helvetica,sans-Serif" font-size="10.00">llzk/Dialect/Shared</text>
<text text-anchor="middle" x="1271.75" y="-138.75" font-family="Helvetica,sans-Serif" font-size="10.00">/OpHelpers.h</text>
</a>
</g>
</g>
<!-- Node5&#45;&gt;Node14 -->
<g id="edge15_Node000005_Node000014" class="edge">
<title>Node5&#45;&gt;Node14</title>
<g id="a_edge15_Node000005_Node000014"><a xlink:title=" ">
<path fill="none" stroke="#63b8ff" d="M801.56,-201.35C804.66,-200.68 807.74,-200.05 810.75,-199.5 952.86,-173.49 1122.25,-159.25 1210.85,-153.06"/>
<polygon fill="#63b8ff" stroke="#63b8ff" points="1211.04,-156.56 1220.78,-152.38 1210.56,-149.58 1211.04,-156.56"/>
</a>
</g>
</g>
<!-- Node25 -->
<g id="Node000025" class="node">
<title>Node25</title>
<g id="a_Node000025"><a xlink:href="_type_helper_8h.html" target="_top" xlink:title=" ">
<polygon fill="white" stroke="#666666" points="947.25,-157.88 838.25,-157.88 838.25,-138.62 947.25,-138.62 947.25,-157.88"/>
<text text-anchor="middle" x="892.75" y="-144.38" font-family="Helvetica,sans-Serif" font-size="10.00">llzk/Util/TypeHelper.h</text>
</a>
</g>
</g>
<!-- Node5&#45;&gt;Node25 -->
<g id="edge28_Node000005_Node000025" class="edge">
<title>Node5&#45;&gt;Node25</title>
<g id="a_edge28_Node000005_Node000025"><a xlink:title=" ">
<path fill="none" stroke="#63b8ff" d="M786.84,-199.11C809.77,-188.32 840.77,-173.72 863.3,-163.11"/>
<polygon fill="#63b8ff" stroke="#63b8ff" points="864.69,-166.33 872.24,-158.9 861.71,-160 864.69,-166.33"/>
</a>
</g>
</g>
<!-- Node29 -->
<g id="Node000029" class="node">
<title>Node29</title>
<g id="a_Node000029"><a xlink:title=" ">
<polygon fill="#e0e0e0" stroke="#999999" points="1460.62,-163.5 1338.88,-163.5 1338.88,-133 1460.62,-133 1460.62,-163.5"/>
<text text-anchor="start" x="1346.88" y="-150" font-family="Helvetica,sans-Serif" font-size="10.00">mlir/Interfaces/InferType</text>
<text text-anchor="middle" x="1399.75" y="-138.75" font-family="Helvetica,sans-Serif" font-size="10.00">OpInterface.h</text>
</a>
</g>
</g>
<!-- Node5&#45;&gt;Node29 -->
<g id="edge36_Node000005_Node000029" class="edge">
<title>Node5&#45;&gt;Node29</title>
<g id="a_edge36_Node000005_Node000029"><a xlink:title=" ">
<path fill="none" stroke="#63b8ff" d="M801.53,-201.21C804.64,-200.57 807.73,-199.99 810.75,-199.5 1035.29,-162.94 1098.6,-193.61 1327.37,-163.68"/>
<polygon fill="#63b8ff" stroke="#63b8ff" points="1327.8,-167.15 1337.25,-162.36 1326.87,-160.22 1327.8,-167.15"/>
</a>
</g>
</g>
<!-- Node30 -->
<g id="Node000030" class="node">
<title>Node30</title>
<g id="a_Node000030"><a xlink:href="_array_2_i_r_2_op_interfaces_8h_8inc.html" target="_top" xlink:title=" ">
<polygon fill="white" stroke="#666666" points="1591.12,-163.5 1478.38,-163.5 1478.38,-133 1591.12,-133 1591.12,-163.5"/>
<text text-anchor="start" x="1486.38" y="-150" font-family="Helvetica,sans-Serif" font-size="10.00">llzk/Dialect/Array</text>
<text text-anchor="middle" x="1534.75" y="-138.75" font-family="Helvetica,sans-Serif" font-size="10.00">/IR/OpInterfaces.h.inc</text>
</a>
</g>
</g>
<!-- Node5&#45;&gt;Node30 -->
<g id="edge37_Node000005_Node000030" class="edge">
<title>Node5&#45;&gt;Node30</title>
<g id="a_edge37_Node000005_Node000030"><a xlink:title=" ">
<path fill="none" stroke="#63b8ff" d="M801.52,-201.16C804.63,-200.53 807.73,-199.97 810.75,-199.5 1096.92,-155.06 1177.07,-201.82 1466.84,-163.74"/>
<polygon fill="#63b8ff" stroke="#63b8ff" points="1467.18,-167.22 1476.63,-162.43 1466.25,-160.29 1467.18,-167.22"/>
</a>
</g>
</g>
<!-- Node6&#45;&gt;Node2 -->
<g id="edge7_Node000006_Node000002" class="edge">
<title>Node6&#45;&gt;Node2</title>
<g id="a_edge7_Node000006_Node000002"><a xlink:title=" ">
<path fill="none" stroke="#63b8ff" d="M430.84,-141.39C371.5,-133.49 264.78,-118.21 164.84,-97.54"/>
<polygon fill="#63b8ff" stroke="#63b8ff" points="165.62,-94.13 155.11,-95.5 164.18,-100.98 165.62,-94.13"/>
</a>
</g>
</g>
<!-- Node7 -->
<g id="Node000007" class="node">
<title>Node7</title>
<g id="a_Node000007"><a xlink:href="_error_helper_8h.html" target="_top" xlink:title=" ">
<polygon fill="white" stroke="#666666" points="649.25,-91.38 540.25,-91.38 540.25,-72.12 649.25,-72.12 649.25,-91.38"/>
<text text-anchor="middle" x="594.75" y="-77.88" font-family="Helvetica,sans-Serif" font-size="10.00">llzk/Util/ErrorHelper.h</text>
</a>
</g>
</g>
<!-- Node6&#45;&gt;Node7 -->
<g id="edge8_Node000006_Node000007" class="edge">
<title>Node6&#45;&gt;Node7</title>
<g id="a_edge8_Node000006_Node000007"><a xlink:title=" ">
<path fill="none" stroke="#63b8ff" d="M503.53,-132.61C522.92,-122.01 549.01,-107.75 568.32,-97.2"/>
<polygon fill="#63b8ff" stroke="#63b8ff" points="569.84,-100.35 576.94,-92.49 566.49,-94.21 569.84,-100.35"/>
</a>
</g>
</g>
<!-- Node11 -->
<g id="Node000011" class="node">
<title>Node11</title>
<g id="a_Node000011"><a xlink:title=" ">
<polygon fill="#e0e0e0" stroke="#999999" points="304.62,-97 170.88,-97 170.88,-66.5 304.62,-66.5 304.62,-97"/>
<text text-anchor="start" x="178.88" y="-83.5" font-family="Helvetica,sans-Serif" font-size="10.00">mlir/Interfaces/MemorySlot</text>
<text text-anchor="middle" x="237.75" y="-72.25" font-family="Helvetica,sans-Serif" font-size="10.00">Interfaces.h</text>
</a>
</g>
</g>
<!-- Node6&#45;&gt;Node11 -->
<g id="edge12_Node000006_Node000011" class="edge">
<title>Node6&#45;&gt;Node11</title>
<g id="a_edge12_Node000006_Node000011"><a xlink:title=" ">
<path fill="none" stroke="#63b8ff" d="M430.95,-134.89C394.7,-125.11 343.59,-111.31 303.05,-100.37"/>
<polygon fill="#63b8ff" stroke="#63b8ff" points="304.21,-97.06 293.65,-97.84 302.39,-103.82 304.21,-97.06"/>
</a>
</g>
</g>
<!-- Node6&#45;&gt;Node12 -->
<g id="edge13_Node000006_Node000012" class="edge">
<title>Node6&#45;&gt;Node12</title>
<g id="a_edge13_Node000006_Node000012"><a xlink:title=" ">
<path fill="none" stroke="#63b8ff" d="M476.75,-132.61C476.75,-125.52 476.75,-116.79 476.75,-108.63"/>
<polygon fill="#63b8ff" stroke="#63b8ff" points="480.25,-108.84 476.75,-98.84 473.25,-108.84 480.25,-108.84"/>
</a>
</g>
</g>
<!-- Node13 -->
<g id="Node000013" class="node">
<title>Node13</title>
<g id="a_Node000013"><a xlink:href="_array_2_i_r_2_types_8h_8inc.html" target="_top" xlink:title=" ">
<polygon fill="white" stroke="#666666" points="413.25,-97 322.25,-97 322.25,-66.5 413.25,-66.5 413.25,-97"/>
<text text-anchor="start" x="330.25" y="-83.5" font-family="Helvetica,sans-Serif" font-size="10.00">llzk/Dialect/Array</text>
<text text-anchor="middle" x="367.75" y="-72.25" font-family="Helvetica,sans-Serif" font-size="10.00">/IR/Types.h.inc</text>
</a>
</g>
</g>
<!-- Node6&#45;&gt;Node13 -->
<g id="edge14_Node000006_Node000013" class="edge">
<title>Node6&#45;&gt;Node13</title>
<g id="a_edge14_Node000006_Node000013"><a xlink:title=" ">
<path fill="none" stroke="#63b8ff" d="M452.02,-132.61C437.24,-123.87 418.26,-112.64 402.06,-103.05"/>
<polygon fill="#63b8ff" stroke="#63b8ff" points="404.08,-100.18 393.69,-98.1 400.51,-106.2 404.08,-100.18"/>
</a>
</g>
</g>
<!-- Node8 -->
<g id="Node000008" class="node">
<title>Node8</title>
<g id="a_Node000008"><a xlink:title=" ">
<polygon fill="#e0e0e0" stroke="#999999" points="674.75,-24.88 514.75,-24.88 514.75,-5.63 674.75,-5.63 674.75,-24.88"/>
<text text-anchor="middle" x="594.75" y="-11.38" font-family="Helvetica,sans-Serif" font-size="10.00">llvm/ADT/STLFunctionalExtras.h</text>
</a>
</g>
</g>
<!-- Node7&#45;&gt;Node8 -->
<g id="edge9_Node000007_Node000008" class="edge">
<title>Node7&#45;&gt;Node8</title>
<g id="a_edge9_Node000007_Node000008"><a xlink:title=" ">
<path fill="none" stroke="#63b8ff" d="M594.75,-71.78C594.75,-62.73 594.75,-48.45 594.75,-36.63"/>
<polygon fill="#63b8ff" stroke="#63b8ff" points="598.25,-36.66 594.75,-26.66 591.25,-36.66 598.25,-36.66"/>
</a>
</g>
</g>
<!-- Node9 -->
<g id="Node000009" class="node">
<title>Node9</title>
<g id="a_Node000009"><a xlink:title=" ">
<polygon fill="#e0e0e0" stroke="#999999" points="786.75,-24.88 692.75,-24.88 692.75,-5.63 786.75,-5.63 786.75,-24.88"/>
<text text-anchor="middle" x="739.75" y="-11.38" font-family="Helvetica,sans-Serif" font-size="10.00">llvm/ADT/Twine.h</text>
</a>
</g>
</g>
<!-- Node7&#45;&gt;Node9 -->
<g id="edge10_Node000007_Node000009" class="edge">
<title>Node7&#45;&gt;Node9</title>
<g id="a_edge10_Node000007_Node000009"><a xlink:title=" ">
<path fill="none" stroke="#63b8ff" d="M615.22,-71.65C639.61,-60.79 680.62,-42.55 708.88,-29.98"/>
<polygon fill="#63b8ff" stroke="#63b8ff" points="710.29,-33.19 718,-25.92 707.44,-26.79 710.29,-33.19"/>
</a>
</g>
</g>
<!-- Node10 -->
<g id="Node000010" class="node">
<title>Node10</title>
<g id="a_Node000010"><a xlink:title=" ">
<polygon fill="#e0e0e0" stroke="#999999" points="496.38,-24.88 355.12,-24.88 355.12,-5.63 496.38,-5.63 496.38,-24.88"/>
<text text-anchor="middle" x="425.75" y="-11.38" font-family="Helvetica,sans-Serif" font-size="10.00">llvm/Support/ErrorHandling.h</text>
</a>
</g>
</g>
<!-- Node7&#45;&gt;Node10 -->
<g id="edge11_Node000007_Node000010" class="edge">
<title>Node7&#45;&gt;Node10</title>
<g id="a_edge11_Node000007_Node000010"><a xlink:title=" ">
<path fill="none" stroke="#63b8ff" d="M570.89,-71.65C541.96,-60.6 492.96,-41.9 460,-29.32"/>
<polygon fill="#63b8ff" stroke="#63b8ff" points="461.49,-26.14 450.9,-25.85 458.99,-32.68 461.49,-26.14"/>
</a>
</g>
</g>
<!-- Node15 -->
<g id="Node000015" class="node">
<title>Node15</title>
<g id="a_Node000015"><a xlink:href="_affine_helper_8h.html" target="_top" xlink:title=" ">
<polygon fill="white" stroke="#666666" points="1745.5,-91.38 1632,-91.38 1632,-72.12 1745.5,-72.12 1745.5,-91.38"/>
<text text-anchor="middle" x="1688.75" y="-77.88" font-family="Helvetica,sans-Serif" font-size="10.00">llzk/Util/AffineHelper.h</text>
</a>
</g>
</g>
<!-- Node14&#45;&gt;Node15 -->
<g id="edge16_Node000014_Node000015" class="edge">
<title>Node14&#45;&gt;Node15</title>
<g id="a_edge16_Node000014_Node000015"><a xlink:title=" ">
<path fill="none" stroke="#63b8ff" d="M1321.34,-134.66C1324.18,-134.06 1327,-133.51 1329.75,-133 1458.79,-109.31 1493.38,-118.87 1622.75,-97 1627.76,-96.15 1632.97,-95.18 1638.16,-94.16"/>
<polygon fill="#63b8ff" stroke="#63b8ff" points="1638.85,-97.59 1647.94,-92.15 1637.44,-90.73 1638.85,-97.59"/>
</a>
</g>
</g>
<!-- Node17 -->
<g id="Node000017" class="node">
<title>Node17</title>
<g id="a_Node000017"><a xlink:title=" ">
<polygon fill="#e0e0e0" stroke="#999999" points="1339.75,-24.88 1203.75,-24.88 1203.75,-5.63 1339.75,-5.63 1339.75,-24.88"/>
<text text-anchor="middle" x="1271.75" y="-11.38" font-family="Helvetica,sans-Serif" font-size="10.00">mlir/IR/OpImplementation.h</text>
</a>
</g>
</g>
<!-- Node14&#45;&gt;Node17 -->
<g id="edge23_Node000014_Node000017" class="edge">
<title>Node14&#45;&gt;Node17</title>
<g id="a_edge23_Node000014_Node000017"><a xlink:title=" ">
<path fill="none" stroke="#63b8ff" d="M1271.75,-132.73C1271.75,-109.37 1271.75,-63.38 1271.75,-36.71"/>
<polygon fill="#63b8ff" stroke="#63b8ff" points="1275.25,-36.86 1271.75,-26.86 1268.25,-36.86 1275.25,-36.86"/>
</a>
</g>
</g>
<!-- Node18 -->
<g id="Node000018" class="node">
<title>Node18</title>
<g id="a_Node000018"><a xlink:title=" ">
<polygon fill="#e0e0e0" stroke="#999999" points="1512,-24.88 1413.5,-24.88 1413.5,-5.63 1512,-5.63 1512,-24.88"/>
<text text-anchor="middle" x="1462.75" y="-11.38" font-family="Helvetica,sans-Serif" font-size="10.00">mlir/IR/Operation.h</text>
</a>
</g>
</g>
<!-- Node14&#45;&gt;Node18 -->
<g id="edge24_Node000014_Node000018" class="edge">
<title>Node14&#45;&gt;Node18</title>
<g id="a_edge24_Node000014_Node000018"><a xlink:title=" ">
<path fill="none" stroke="#63b8ff" d="M1321.27,-134.57C1372.09,-121.36 1444.34,-101.9 1448.75,-97 1463.45,-80.67 1465.51,-54.65 1464.83,-36.58"/>
<polygon fill="#63b8ff" stroke="#63b8ff" points="1468.34,-36.55 1464.13,-26.83 1461.35,-37.05 1468.34,-36.55"/>
</a>
</g>
</g>
<!-- Node21 -->
<g id="Node000021" class="node">
<title>Node21</title>
<g id="a_Node000021"><a xlink:href="_constants_8h.html" target="_top" xlink:title=" ">
<polygon fill="white" stroke="#666666" points="1868.38,-91.38 1763.12,-91.38 1763.12,-72.12 1868.38,-72.12 1868.38,-91.38"/>
<text text-anchor="middle" x="1815.75" y="-77.88" font-family="Helvetica,sans-Serif" font-size="10.00">llzk/Util/Constants.h</text>
</a>
</g>
</g>
<!-- Node14&#45;&gt;Node21 -->
<g id="edge22_Node000014_Node000021" class="edge">
<title>Node14&#45;&gt;Node21</title>
<g id="a_edge22_Node000014_Node000021"><a xlink:title=" ">
<path fill="none" stroke="#63b8ff" d="M1321.32,-134.53C1324.16,-133.97 1326.99,-133.45 1329.75,-133 1516.81,-102.29 1567.52,-126.64 1754.75,-97 1759.66,-96.22 1764.75,-95.27 1769.82,-94.23"/>
<polygon fill="#63b8ff" stroke="#63b8ff" points="1770.26,-97.71 1779.28,-92.16 1768.77,-90.88 1770.26,-97.71"/>
</a>
</g>
</g>
<!-- Node22 -->
<g id="Node000022" class="node">
<title>Node22</title>
<g id="a_Node000022"><a xlink:title=" ">
<polygon fill="#e0e0e0" stroke="#999999" points="1439.25,-91.38 1300.25,-91.38 1300.25,-72.12 1439.25,-72.12 1439.25,-91.38"/>
<text text-anchor="middle" x="1369.75" y="-77.88" font-family="Helvetica,sans-Serif" font-size="10.00">mlir/Support/LogicalResult.h</text>
</a>
</g>
</g>
<!-- Node14&#45;&gt;Node22 -->
<g id="edge25_Node000014_Node000022" class="edge">
<title>Node14&#45;&gt;Node22</title>
<g id="a_edge25_Node000014_Node000022"><a xlink:title=" ">
<path fill="none" stroke="#63b8ff" d="M1293.99,-132.61C1309.65,-122.31 1330.56,-108.54 1346.45,-98.08"/>
<polygon fill="#63b8ff" stroke="#63b8ff" points="1348.37,-101.01 1354.8,-92.59 1344.52,-95.17 1348.37,-101.01"/>
</a>
</g>
</g>
<!-- Node23 -->
<g id="Node000023" class="node">
<title>Node23</title>
<g id="a_Node000023"><a xlink:title=" ">
<polygon fill="#e0e0e0" stroke="#999999" points="1614.12,-91.38 1495.38,-91.38 1495.38,-72.12 1614.12,-72.12 1614.12,-91.38"/>
<text text-anchor="middle" x="1554.75" y="-77.88" font-family="Helvetica,sans-Serif" font-size="10.00">llvm/ADT/SmallString.h</text>
</a>
</g>
</g>
<!-- Node14&#45;&gt;Node23 -->
<g id="edge26_Node000014_Node000023" class="edge">
<title>Node14&#45;&gt;Node23</title>
<g id="a_edge26_Node000014_Node000023"><a xlink:title=" ">
<path fill="none" stroke="#63b8ff" d="M1321.41,-134.98C1324.23,-134.3 1327.02,-133.64 1329.75,-133 1388.48,-119.23 1456.05,-104.25 1501.69,-94.27"/>
<polygon fill="#63b8ff" stroke="#63b8ff" points="1502.31,-97.72 1511.33,-92.16 1500.81,-90.88 1502.31,-97.72"/>
</a>
</g>
</g>
<!-- Node24 -->
<g id="Node000024" class="node">
<title>Node24</title>
<g id="a_Node000024"><a xlink:title=" ">
<polygon fill="#e0e0e0" stroke="#999999" points="1243.62,-91.38 1133.88,-91.38 1133.88,-72.12 1243.62,-72.12 1243.62,-91.38"/>
<text text-anchor="middle" x="1188.75" y="-77.88" font-family="Helvetica,sans-Serif" font-size="10.00">llvm/ADT/StringRef.h</text>
</a>
</g>
</g>
<!-- Node14&#45;&gt;Node24 -->
<g id="edge27_Node000014_Node000024" class="edge">
<title>Node14&#45;&gt;Node24</title>
<g id="a_edge27_Node000014_Node000024"><a xlink:title=" ">
<path fill="none" stroke="#63b8ff" d="M1252.92,-132.61C1239.83,-122.44 1222.41,-108.91 1209.02,-98.5"/>
<polygon fill="#63b8ff" stroke="#63b8ff" points="1211.34,-95.87 1201.3,-92.5 1207.05,-101.4 1211.34,-95.87"/>
</a>
</g>
</g>
<!-- Node16 -->
<g id="Node000016" class="node">
<title>Node16</title>
<g id="a_Node000016"><a xlink:title=" ">
<polygon fill="#e0e0e0" stroke="#999999" points="1621.62,-24.88 1529.88,-24.88 1529.88,-5.63 1621.62,-5.63 1621.62,-24.88"/>
<text text-anchor="middle" x="1575.75" y="-11.38" font-family="Helvetica,sans-Serif" font-size="10.00">mlir/IR/Builders.h</text>
</a>
</g>
</g>
<!-- Node15&#45;&gt;Node16 -->
<g id="edge17_Node000015_Node000016" class="edge">
<title>Node15&#45;&gt;Node16</title>
<g id="a_edge17_Node000015_Node000016"><a xlink:title=" ">
<path fill="none" stroke="#63b8ff" d="M1673.04,-71.78C1654.51,-61.2 1623.44,-43.47 1601.4,-30.89"/>
<polygon fill="#63b8ff" stroke="#63b8ff" points="1603.43,-28.02 1593.01,-26.1 1599.96,-34.1 1603.43,-28.02"/>
</a>
</g>
</g>
<!-- Node15&#45;&gt;Node17 -->
<g id="edge18_Node000015_Node000017" class="edge">
<title>Node15&#45;&gt;Node17</title>
<g id="a_edge18_Node000015_Node000017"><a xlink:title=" ">
<path fill="none" stroke="#63b8ff" d="M1648.7,-71.63C1640.16,-69.82 1631.17,-68.01 1622.75,-66.5 1529.86,-49.84 1422.36,-35.12 1351.05,-25.98"/>
<polygon fill="#63b8ff" stroke="#63b8ff" points="1351.79,-22.55 1341.42,-24.76 1350.9,-29.49 1351.79,-22.55"/>
</a>
</g>
</g>
<!-- Node15&#45;&gt;Node18 -->
<g id="edge19_Node000015_Node000018" class="edge">
<title>Node15&#45;&gt;Node18</title>
<g id="a_edge19_Node000015_Node000018"><a xlink:title=" ">
<path fill="none" stroke="#63b8ff" d="M1656.85,-71.65C1617.23,-60.34 1549.48,-41 1505.42,-28.43"/>
<polygon fill="#63b8ff" stroke="#63b8ff" points="1506.52,-25.1 1495.94,-25.72 1504.6,-31.83 1506.52,-25.1"/>
</a>
</g>
</g>
<!-- Node19 -->
<g id="Node000019" class="node">
<title>Node19</title>
<g id="a_Node000019"><a xlink:title=" ">
<polygon fill="#e0e0e0" stroke="#999999" points="1748.25,-24.88 1639.25,-24.88 1639.25,-5.63 1748.25,-5.63 1748.25,-24.88"/>
<text text-anchor="middle" x="1693.75" y="-11.38" font-family="Helvetica,sans-Serif" font-size="10.00">mlir/IR/ValueRange.h</text>
</a>
</g>
</g>
<!-- Node15&#45;&gt;Node19 -->
<g id="edge20_Node000015_Node000019" class="edge">
<title>Node15&#45;&gt;Node19</title>
<g id="a_edge20_Node000015_Node000019"><a xlink:title=" ">
<path fill="none" stroke="#63b8ff" d="M1689.45,-71.78C1690.15,-62.64 1691.28,-48.14 1692.2,-36.25"/>
<polygon fill="#63b8ff" stroke="#63b8ff" points="1695.66,-36.89 1692.94,-26.65 1688.68,-36.35 1695.66,-36.89"/>
</a>
</g>
</g>
<!-- Node20 -->
<g id="Node000020" class="node">
<title>Node20</title>
<g id="a_Node000020"><a xlink:title=" ">
<polygon fill="#e0e0e0" stroke="#999999" points="1887.25,-24.88 1766.25,-24.88 1766.25,-5.63 1887.25,-5.63 1887.25,-24.88"/>
<text text-anchor="middle" x="1826.75" y="-11.38" font-family="Helvetica,sans-Serif" font-size="10.00">llvm/ADT/SmallVector.h</text>
</a>
</g>
</g>
<!-- Node15&#45;&gt;Node20 -->
<g id="edge21_Node000015_Node000020" class="edge">
<title>Node15&#45;&gt;Node20</title>
<g id="a_edge21_Node000015_Node000020"><a xlink:title=" ">
<path fill="none" stroke="#63b8ff" d="M1708.23,-71.65C1731.35,-60.84 1770.13,-42.71 1797.01,-30.15"/>
<polygon fill="#63b8ff" stroke="#63b8ff" points="1798.42,-33.35 1806,-25.95 1795.46,-27.01 1798.42,-33.35"/>
</a>
</g>
</g>
<!-- Node25&#45;&gt;Node7 -->
<g id="edge29_Node000025_Node000007" class="edge">
<title>Node25&#45;&gt;Node7</title>
<g id="a_edge29_Node000025_Node000007"><a xlink:title=" ">
<path fill="none" stroke="#63b8ff" d="M850.03,-138.18C803.1,-128.19 725.52,-111.6 658.75,-97 654.73,-96.12 650.57,-95.21 646.4,-94.28"/>
<polygon fill="#63b8ff" stroke="#63b8ff" points="647.37,-90.91 636.85,-92.17 645.85,-97.75 647.37,-90.91"/>
</a>
</g>
</g>
<!-- Node25&#45;&gt;Node17 -->
<g id="edge30_Node000025_Node000017" class="edge">
<title>Node25&#45;&gt;Node17</title>
<g id="a_edge30_Node000025_Node000017"><a xlink:title=" ">
<path fill="none" stroke="#63b8ff" d="M896.62,-138.16C904.45,-120.98 923.91,-83.95 952.75,-66.5 991.98,-42.77 1111.29,-28.85 1192.35,-21.89"/>
<polygon fill="#63b8ff" stroke="#63b8ff" points="1192.34,-25.41 1202.01,-21.08 1191.75,-18.43 1192.34,-25.41"/>
</a>
</g>
</g>
<!-- Node25&#45;&gt;Node18 -->
<g id="edge31_Node000025_Node000018" class="edge">
<title>Node25&#45;&gt;Node18</title>
<g id="a_edge31_Node000025_Node000018"><a xlink:title=" ">
<path fill="none" stroke="#63b8ff" d="M947.63,-139.41C987.73,-132.19 1042.59,-119.15 1086.75,-97 1106.11,-87.29 1104.91,-75.17 1124.75,-66.5 1137.31,-61.01 1307.85,-37.26 1401.76,-24.48"/>
<polygon fill="#63b8ff" stroke="#63b8ff" points="1402.16,-27.96 1411.59,-23.14 1401.21,-21.02 1402.16,-27.96"/>
</a>
</g>
</g>
<!-- Node25&#45;&gt;Node24 -->
<g id="edge35_Node000025_Node000024" class="edge">
<title>Node25&#45;&gt;Node24</title>
<g id="a_edge35_Node000025_Node000024"><a xlink:title=" ">
<path fill="none" stroke="#63b8ff" d="M934.53,-138.15C987.42,-126.62 1078.56,-106.76 1136.13,-94.22"/>
<polygon fill="#63b8ff" stroke="#63b8ff" points="1136.68,-97.68 1145.7,-92.13 1135.19,-90.84 1136.68,-97.68"/>
</a>
</g>
</g>
<!-- Node26 -->
<g id="Node000026" class="node">
<title>Node26</title>
<g id="a_Node000026"><a xlink:title=" ">
<polygon fill="#e0e0e0" stroke="#999999" points="780.12,-91.38 667.38,-91.38 667.38,-72.12 780.12,-72.12 780.12,-91.38"/>
<text text-anchor="middle" x="723.75" y="-77.88" font-family="Helvetica,sans-Serif" font-size="10.00">mlir/IR/SymbolTable.h</text>
</a>
</g>
</g>
<!-- Node25&#45;&gt;Node26 -->
<g id="edge32_Node000025_Node000026" class="edge">
<title>Node25&#45;&gt;Node26</title>
<g id="a_edge32_Node000025_Node000026"><a xlink:title=" ">
<path fill="none" stroke="#63b8ff" d="M868.89,-138.15C839.96,-127.1 790.96,-108.4 758,-95.82"/>
<polygon fill="#63b8ff" stroke="#63b8ff" points="759.49,-92.64 748.9,-92.35 756.99,-99.18 759.49,-92.64"/>
</a>
</g>
</g>
<!-- Node27 -->
<g id="Node000027" class="node">
<title>Node27</title>
<g id="a_Node000027"><a xlink:title=" ">
<polygon fill="#e0e0e0" stroke="#999999" points="905.5,-91.38 798,-91.38 798,-72.12 905.5,-72.12 905.5,-91.38"/>
<text text-anchor="middle" x="851.75" y="-77.88" font-family="Helvetica,sans-Serif" font-size="10.00">llvm/ADT/ArrayRef.h</text>
</a>
</g>
</g>
<!-- Node25&#45;&gt;Node27 -->
<g id="edge33_Node000025_Node000027" class="edge">
<title>Node25&#45;&gt;Node27</title>
<g id="a_edge33_Node000025_Node000027"><a xlink:title=" ">
<path fill="none" stroke="#63b8ff" d="M887.05,-138.28C880.99,-128.75 871.24,-113.41 863.52,-101.27"/>
<polygon fill="#63b8ff" stroke="#63b8ff" points="866.53,-99.48 858.21,-92.92 860.63,-103.24 866.53,-99.48"/>
</a>
</g>
</g>
<!-- Node28 -->
<g id="Node000028" class="node">
<title>Node28</title>
<g id="a_Node000028"><a xlink:title=" ">
<polygon fill="#e0e0e0" stroke="#999999" points="1077.62,-91.38 961.88,-91.38 961.88,-72.12 1077.62,-72.12 1077.62,-91.38"/>
<text text-anchor="middle" x="1019.75" y="-77.88" font-family="Helvetica,sans-Serif" font-size="10.00">llvm/ADT/DenseMap.h</text>
</a>
</g>
</g>
<!-- Node25&#45;&gt;Node28 -->
<g id="edge34_Node000025_Node000028" class="edge">
<title>Node25&#45;&gt;Node28</title>
<g id="a_edge34_Node000025_Node000028"><a xlink:title=" ">
<path fill="none" stroke="#63b8ff" d="M910.68,-138.15C931.76,-127.44 967.01,-109.53 991.72,-96.99"/>
<polygon fill="#63b8ff" stroke="#63b8ff" points="993.23,-100.14 1000.57,-92.49 990.06,-93.9 993.23,-100.14"/>
</a>
</g>
</g>
<!-- Node32 -->
<g id="Node000032" class="node">
<title>Node32</title>
<g id="a_Node000032"><a xlink:title=" ">
<polygon fill="#e0e0e0" stroke="#999999" points="1804.38,-157.88 1609.12,-157.88 1609.12,-138.62 1804.38,-138.62 1804.38,-157.88"/>
<text text-anchor="middle" x="1706.75" y="-144.38" font-family="Helvetica,sans-Serif" font-size="10.00">mlir/Bytecode/BytecodeImplementation.h</text>
</a>
</g>
</g>
<!-- Node31&#45;&gt;Node32 -->
<g id="edge41_Node000031_Node000032" class="edge">
<title>Node31&#45;&gt;Node32</title>
<g id="a_edge41_Node000031_Node000032"><a xlink:title=" ">
<path fill="none" stroke="#63b8ff" d="M924.21,-200.88C927.09,-200.36 929.95,-199.9 932.75,-199.5 1226.65,-157.57 1304.16,-191.12 1599.75,-163.5 1610.67,-162.48 1622.18,-161.18 1633.45,-159.79"/>
<polygon fill="#63b8ff" stroke="#63b8ff" points="1633.63,-163.29 1643.1,-158.56 1632.74,-156.35 1633.63,-163.29"/>
</a>
</g>
</g>
</g>
</svg>
