<?xml version="1.0" encoding="UTF-8" standalone="no"?>
<!DOCTYPE svg PUBLIC "-//W3C//DTD SVG 1.1//EN"
 "http://www.w3.org/Graphics/SVG/1.1/DTD/svg11.dtd">
<!-- Generated by graphviz version 12.2.1 (0)
 -->
<!-- Title: lib/Dialect/LLZK/IR/AttributeHelper.cpp Pages: 1 -->
<svg width="1190pt" height="216pt"
 viewBox="0.00 0.00 1189.88 215.50" xmlns="http://www.w3.org/2000/svg" xmlns:xlink="http://www.w3.org/1999/xlink">
<g id="graph0" class="graph" transform="scale(1 1) rotate(0) translate(4 211.5)">
<title>lib/Dialect/LLZK/IR/AttributeHelper.cpp</title>
<!-- Node1 -->
<g id="Node000001" class="node">
<title>Node1</title>
<g id="a_Node000001"><a xlink:title=" ">
<polygon fill="#999999" stroke="#666666" points="467.12,-207.5 364.88,-207.5 364.88,-177 467.12,-177 467.12,-207.5"/>
<text text-anchor="start" x="372.88" y="-194" font-family="Helvetica,sans-Serif" font-size="10.00">lib/Dialect/LLZK/IR</text>
<text text-anchor="middle" x="416" y="-182.75" font-family="Helvetica,sans-Serif" font-size="10.00">/AttributeHelper.cpp</text>
</a>
</g>
</g>
<!-- Node2 -->
<g id="Node000002" class="node">
<title>Node2</title>
<g id="a_Node000002"><a xlink:href="_attribute_helper_8h.html" target="_top" xlink:title=" ">
<polygon fill="white" stroke="#666666" points="271.25,-141 166.75,-141 166.75,-110.5 271.25,-110.5 271.25,-141"/>
<text text-anchor="start" x="174.75" y="-127.5" font-family="Helvetica,sans-Serif" font-size="10.00">llzk/Dialect/LLZK/IR</text>
<text text-anchor="middle" x="219" y="-116.25" font-family="Helvetica,sans-Serif" font-size="10.00">/AttributeHelper.h</text>
</a>
</g>
</g>
<!-- Node1&#45;&gt;Node2 -->
<g id="edge1_Node000001_Node000002" class="edge">
<title>Node1&#45;&gt;Node2</title>
<g id="a_edge1_Node000001_Node000002"><a xlink:title=" ">
<path fill="none" stroke="#63b8ff" d="M371.3,-176.61C342.68,-167.25 305.34,-155.02 274.78,-145.01"/>
<polygon fill="#63b8ff" stroke="#63b8ff" points="275.9,-141.7 265.3,-141.91 273.72,-148.35 275.9,-141.7"/>
</a>
</g>
</g>
<!-- Node5 -->
<g id="Node000005" class="node">
<title>Node5</title>
<g id="a_Node000005"><a xlink:href="_type_helper_8h.html" target="_top" xlink:title=" ">
<polygon fill="white" stroke="#666666" points="730.5,-135.38 621.5,-135.38 621.5,-116.12 730.5,-116.12 730.5,-135.38"/>
<text text-anchor="middle" x="676" y="-121.88" font-family="Helvetica,sans-Serif" font-size="10.00">llzk/Util/TypeHelper.h</text>
</a>
</g>
</g>
<!-- Node1&#45;&gt;Node5 -->
<g id="edge4_Node000001_Node000005" class="edge">
<title>Node1&#45;&gt;Node5</title>
<g id="a_edge4_Node000001_Node000005"><a xlink:title=" ">
<path fill="none" stroke="#63b8ff" d="M467.37,-178.51C514.16,-166.9 582.73,-149.89 628.33,-138.57"/>
<polygon fill="#63b8ff" stroke="#63b8ff" points="629.07,-142 637.94,-136.19 627.39,-135.2 629.07,-142"/>
</a>
</g>
</g>
<!-- Node3 -->
<g id="Node000003" class="node">
<title>Node3</title>
<g id="a_Node000003"><a xlink:title=" ">
<polygon fill="#e0e0e0" stroke="#999999" points="154,-74.5 0,-74.5 0,-55.25 154,-55.25 154,-74.5"/>
<text text-anchor="middle" x="77" y="-61" font-family="Helvetica,sans-Serif" font-size="10.00">mlir/IR/DialectImplementation.h</text>
</a>
</g>
</g>
<!-- Node2&#45;&gt;Node3 -->
<g id="edge2_Node000002_Node000003" class="edge">
<title>Node2&#45;&gt;Node3</title>
<g id="a_edge2_Node000002_Node000003"><a xlink:title=" ">
<path fill="none" stroke="#63b8ff" d="M183.53,-110.05C160.76,-100.6 131.43,-88.44 109.31,-79.27"/>
<polygon fill="#63b8ff" stroke="#63b8ff" points="110.75,-76.08 100.18,-75.48 108.07,-82.55 110.75,-76.08"/>
</a>
</g>
</g>
<!-- Node4 -->
<g id="Node000004" class="node">
<title>Node4</title>
<g id="a_Node000004"><a xlink:title=" ">
<polygon fill="#e0e0e0" stroke="#999999" points="265.62,-74.5 172.38,-74.5 172.38,-55.25 265.62,-55.25 265.62,-74.5"/>
<text text-anchor="middle" x="219" y="-61" font-family="Helvetica,sans-Serif" font-size="10.00">llvm/ADT/APInt.h</text>
</a>
</g>
</g>
<!-- Node2&#45;&gt;Node4 -->
<g id="edge3_Node000002_Node000004" class="edge">
<title>Node2&#45;&gt;Node4</title>
<g id="a_edge3_Node000002_Node000004"><a xlink:title=" ">
<path fill="none" stroke="#63b8ff" d="M219,-110.2C219,-102.96 219,-94.09 219,-86.19"/>
<polygon fill="#63b8ff" stroke="#63b8ff" points="222.5,-86.46 219,-76.46 215.5,-86.46 222.5,-86.46"/>
</a>
</g>
</g>
<!-- Node6 -->
<g id="Node000006" class="node">
<title>Node6</title>
<g id="a_Node000006"><a xlink:href="_error_helper_8h.html" target="_top" xlink:title=" ">
<polygon fill="white" stroke="#666666" points="392.5,-74.5 283.5,-74.5 283.5,-55.25 392.5,-55.25 392.5,-74.5"/>
<text text-anchor="middle" x="338" y="-61" font-family="Helvetica,sans-Serif" font-size="10.00">llzk/Util/ErrorHelper.h</text>
</a>
</g>
</g>
<!-- Node5&#45;&gt;Node6 -->
<g id="edge5_Node000005_Node000006" class="edge">
<title>Node5&#45;&gt;Node6</title>
<g id="a_edge5_Node000005_Node000006"><a xlink:title=" ">
<path fill="none" stroke="#63b8ff" d="M623.93,-115.68C564.01,-105.24 465.63,-88.11 401.33,-76.91"/>
<polygon fill="#63b8ff" stroke="#63b8ff" points="402.07,-73.48 391.62,-75.22 400.87,-80.38 402.07,-73.48"/>
</a>
</g>
</g>
<!-- Node10 -->
<g id="Node000010" class="node">
<title>Node10</title>
<g id="a_Node000010"><a xlink:title=" ">
<polygon fill="#e0e0e0" stroke="#999999" points="547,-74.5 411,-74.5 411,-55.25 547,-55.25 547,-74.5"/>
<text text-anchor="middle" x="479" y="-61" font-family="Helvetica,sans-Serif" font-size="10.00">mlir/IR/OpImplementation.h</text>
</a>
</g>
</g>
<!-- Node5&#45;&gt;Node10 -->
<g id="edge9_Node000005_Node000010" class="edge">
<title>Node5&#45;&gt;Node10</title>
<g id="a_edge9_Node000005_Node000010"><a xlink:title=" ">
<path fill="none" stroke="#63b8ff" d="M645.65,-115.68C611.96,-105.61 557.39,-89.3 519.94,-78.11"/>
<polygon fill="#63b8ff" stroke="#63b8ff" points="521.42,-74.9 510.83,-75.39 519.41,-81.61 521.42,-74.9"/>
</a>
</g>
</g>
<!-- Node11 -->
<g id="Node000011" class="node">
<title>Node11</title>
<g id="a_Node000011"><a xlink:title=" ">
<polygon fill="#e0e0e0" stroke="#999999" points="663.25,-74.5 564.75,-74.5 564.75,-55.25 663.25,-55.25 663.25,-74.5"/>
<text text-anchor="middle" x="614" y="-61" font-family="Helvetica,sans-Serif" font-size="10.00">mlir/IR/Operation.h</text>
</a>
</g>
</g>
<!-- Node5&#45;&gt;Node11 -->
<g id="edge10_Node000005_Node000011" class="edge">
<title>Node5&#45;&gt;Node11</title>
<g id="a_edge10_Node000005_Node000011"><a xlink:title=" ">
<path fill="none" stroke="#63b8ff" d="M666.58,-115.81C657.39,-107.08 643.16,-93.57 631.83,-82.8"/>
<polygon fill="#63b8ff" stroke="#63b8ff" points="634.26,-80.29 624.6,-75.94 629.44,-85.37 634.26,-80.29"/>
</a>
</g>
</g>
<!-- Node12 -->
<g id="Node000012" class="node">
<title>Node12</title>
<g id="a_Node000012"><a xlink:title=" ">
<polygon fill="#e0e0e0" stroke="#999999" points="794.38,-74.5 681.62,-74.5 681.62,-55.25 794.38,-55.25 794.38,-74.5"/>
<text text-anchor="middle" x="738" y="-61" font-family="Helvetica,sans-Serif" font-size="10.00">mlir/IR/SymbolTable.h</text>
</a>
</g>
</g>
<!-- Node5&#45;&gt;Node12 -->
<g id="edge11_Node000005_Node000012" class="edge">
<title>Node5&#45;&gt;Node12</title>
<g id="a_edge11_Node000005_Node000012"><a xlink:title=" ">
<path fill="none" stroke="#63b8ff" d="M685.42,-115.81C694.61,-107.08 708.84,-93.57 720.17,-82.8"/>
<polygon fill="#63b8ff" stroke="#63b8ff" points="722.56,-85.37 727.4,-75.94 717.74,-80.29 722.56,-85.37"/>
</a>
</g>
</g>
<!-- Node13 -->
<g id="Node000013" class="node">
<title>Node13</title>
<g id="a_Node000013"><a xlink:title=" ">
<polygon fill="#e0e0e0" stroke="#999999" points="919.75,-74.5 812.25,-74.5 812.25,-55.25 919.75,-55.25 919.75,-74.5"/>
<text text-anchor="middle" x="866" y="-61" font-family="Helvetica,sans-Serif" font-size="10.00">llvm/ADT/ArrayRef.h</text>
</a>
</g>
</g>
<!-- Node5&#45;&gt;Node13 -->
<g id="edge12_Node000005_Node000013" class="edge">
<title>Node5&#45;&gt;Node13</title>
<g id="a_edge12_Node000005_Node000013"><a xlink:title=" ">
<path fill="none" stroke="#63b8ff" d="M705.27,-115.68C737.63,-105.65 789.94,-89.44 826.05,-78.25"/>
<polygon fill="#63b8ff" stroke="#63b8ff" points="826.73,-81.71 835.25,-75.4 824.66,-75.02 826.73,-81.71"/>
</a>
</g>
</g>
<!-- Node14 -->
<g id="Node000014" class="node">
<title>Node14</title>
<g id="a_Node000014"><a xlink:title=" ">
<polygon fill="#e0e0e0" stroke="#999999" points="1053.88,-74.5 938.12,-74.5 938.12,-55.25 1053.88,-55.25 1053.88,-74.5"/>
<text text-anchor="middle" x="996" y="-61" font-family="Helvetica,sans-Serif" font-size="10.00">llvm/ADT/DenseMap.h</text>
</a>
</g>
</g>
<!-- Node5&#45;&gt;Node14 -->
<g id="edge13_Node000005_Node000014" class="edge">
<title>Node5&#45;&gt;Node14</title>
<g id="a_edge13_Node000005_Node000014"><a xlink:title=" ">
<path fill="none" stroke="#63b8ff" d="M725.3,-115.68C781.91,-105.26 874.78,-88.18 935.67,-76.98"/>
<polygon fill="#63b8ff" stroke="#63b8ff" points="935.96,-80.48 945.16,-75.23 934.69,-73.6 935.96,-80.48"/>
</a>
</g>
</g>
<!-- Node15 -->
<g id="Node000015" class="node">
<title>Node15</title>
<g id="a_Node000015"><a xlink:title=" ">
<polygon fill="#e0e0e0" stroke="#999999" points="1181.88,-74.5 1072.12,-74.5 1072.12,-55.25 1181.88,-55.25 1181.88,-74.5"/>
<text text-anchor="middle" x="1127" y="-61" font-family="Helvetica,sans-Serif" font-size="10.00">llvm/ADT/StringRef.h</text>
</a>
</g>
</g>
<!-- Node5&#45;&gt;Node15 -->
<g id="edge14_Node000005_Node000015" class="edge">
<title>Node5&#45;&gt;Node15</title>
<g id="a_edge14_Node000005_Node000015"><a xlink:title=" ">
<path fill="none" stroke="#63b8ff" d="M730.81,-117.72C803.61,-108.36 936.54,-91.2 1060.63,-74.81"/>
<polygon fill="#63b8ff" stroke="#63b8ff" points="1060.89,-78.3 1070.34,-73.52 1059.97,-71.36 1060.89,-78.3"/>
</a>
</g>
</g>
<!-- Node7 -->
<g id="Node000007" class="node">
<title>Node7</title>
<g id="a_Node000007"><a xlink:title=" ">
<polygon fill="#e0e0e0" stroke="#999999" points="273,-19.25 113,-19.25 113,0 273,0 273,-19.25"/>
<text text-anchor="middle" x="193" y="-5.75" font-family="Helvetica,sans-Serif" font-size="10.00">llvm/ADT/STLFunctionalExtras.h</text>
</a>
</g>
</g>
<!-- Node6&#45;&gt;Node7 -->
<g id="edge6_Node000006_Node000007" class="edge">
<title>Node6&#45;&gt;Node7</title>
<g id="a_edge6_Node000006_Node000007"><a xlink:title=" ">
<path fill="none" stroke="#63b8ff" d="M313.4,-54.84C290.07,-46.27 254.76,-33.31 228.4,-23.63"/>
<polygon fill="#63b8ff" stroke="#63b8ff" points="229.73,-20.39 219.14,-20.22 227.32,-26.96 229.73,-20.39"/>
</a>
</g>
</g>
<!-- Node8 -->
<g id="Node000008" class="node">
<title>Node8</title>
<g id="a_Node000008"><a xlink:title=" ">
<polygon fill="#e0e0e0" stroke="#999999" points="385,-19.25 291,-19.25 291,0 385,0 385,-19.25"/>
<text text-anchor="middle" x="338" y="-5.75" font-family="Helvetica,sans-Serif" font-size="10.00">llvm/ADT/Twine.h</text>
</a>
</g>
</g>
<!-- Node6&#45;&gt;Node8 -->
<g id="edge7_Node000006_Node000008" class="edge">
<title>Node6&#45;&gt;Node8</title>
<g id="a_edge7_Node000006_Node000008"><a xlink:title=" ">
<path fill="none" stroke="#63b8ff" d="M338,-55.08C338,-48.57 338,-39.42 338,-31.12"/>
<polygon fill="#63b8ff" stroke="#63b8ff" points="341.5,-31.12 338,-21.12 334.5,-31.12 341.5,-31.12"/>
</a>
</g>
</g>
<!-- Node9 -->
<g id="Node000009" class="node">
<title>Node9</title>
<g id="a_Node000009"><a xlink:title=" ">
<polygon fill="#e0e0e0" stroke="#999999" points="544.62,-19.25 403.38,-19.25 403.38,0 544.62,0 544.62,-19.25"/>
<text text-anchor="middle" x="474" y="-5.75" font-family="Helvetica,sans-Serif" font-size="10.00">llvm/Support/ErrorHandling.h</text>
</a>
</g>
</g>
<!-- Node6&#45;&gt;Node9 -->
<g id="edge8_Node000006_Node000009" class="edge">
<title>Node6&#45;&gt;Node9</title>
<g id="a_edge8_Node000006_Node000009"><a xlink:title=" ">
<path fill="none" stroke="#63b8ff" d="M361.07,-54.84C382.76,-46.35 415.48,-33.54 440.13,-23.89"/>
<polygon fill="#63b8ff" stroke="#63b8ff" points="441.37,-27.16 449.41,-20.25 438.82,-20.64 441.37,-27.16"/>
</a>
</g>
</g>
</g>
</svg>
