<?xml version="1.0" encoding="UTF-8" standalone="no"?>
<!DOCTYPE svg PUBLIC "-//W3C//DTD SVG 1.1//EN"
 "http://www.w3.org/Graphics/SVG/1.1/DTD/svg11.dtd">
<!-- Generated by graphviz version 12.2.1 (0)
 -->
<!-- Title: include/llzk/Dialect/LLZK/IR/AttributeHelper.h Pages: 1 -->
<svg width="2151pt" height="371pt"
 viewBox="0.00 0.00 2151.00 371.00" xmlns="http://www.w3.org/2000/svg" xmlns:xlink="http://www.w3.org/1999/xlink">
<g id="graph0" class="graph" transform="scale(1 1) rotate(0) translate(4 367)">
<title>include/llzk/Dialect/LLZK/IR/AttributeHelper.h</title>
<!-- Node1 -->
<g id="Node000001" class="node">
<title>Node1</title>
<g id="a_Node000001"><a xlink:title=" ">
<polygon fill="#999999" stroke="#666666" points="1520.62,-363 1389.12,-363 1389.12,-332.5 1520.62,-332.5 1520.62,-363"/>
<text text-anchor="start" x="1397.12" y="-349.5" font-family="Helvetica,sans-Serif" font-size="10.00">include/llzk/Dialect</text>
<text text-anchor="middle" x="1454.88" y="-338.25" font-family="Helvetica,sans-Serif" font-size="10.00">/LLZK/IR/AttributeHelper.h</text>
</a>
</g>
</g>
<!-- Node2 -->
<g id="Node000002" class="node">
<title>Node2</title>
<g id="a_Node000002"><a xlink:href="_constrain_ref_8h.html" target="_top" xlink:title=" ">
<polygon fill="white" stroke="#666666" points="636.5,-296.5 531.25,-296.5 531.25,-266 636.5,-266 636.5,-296.5"/>
<text text-anchor="start" x="539.25" y="-283" font-family="Helvetica,sans-Serif" font-size="10.00">include/llzk/Analysis</text>
<text text-anchor="middle" x="583.88" y="-271.75" font-family="Helvetica,sans-Serif" font-size="10.00">/ConstrainRef.h</text>
</a>
</g>
</g>
<!-- Node1&#45;&gt;Node2 -->
<g id="edge1_Node000001_Node000002" class="edge">
<title>Node1&#45;&gt;Node2</title>
<g id="a_edge1_Node000001_Node000002"><a xlink:title=" ">
<path fill="none" stroke="#63b8ff" d="M1377.33,-341.01C1203.22,-328.11 784.91,-297.14 636.88,-286.18"/>
<polygon fill="#63b8ff" stroke="#63b8ff" points="1376.95,-344.49 1387.18,-341.74 1377.47,-337.51 1376.95,-344.49"/>
</a>
</g>
</g>
<!-- Node12 -->
<g id="Node000012" class="node">
<title>Node12</title>
<g id="a_Node000012"><a xlink:href="_array_type_helper_8h.html" target="_top" xlink:title=" ">
<polygon fill="white" stroke="#666666" points="1007.62,-296.5 864.12,-296.5 864.12,-266 1007.62,-266 1007.62,-296.5"/>
<text text-anchor="start" x="872.12" y="-283" font-family="Helvetica,sans-Serif" font-size="10.00">include/llzk/Dialect</text>
<text text-anchor="middle" x="935.88" y="-271.75" font-family="Helvetica,sans-Serif" font-size="10.00">/Array/Util/ArrayTypeHelper.h</text>
</a>
</g>
</g>
<!-- Node1&#45;&gt;Node12 -->
<g id="edge14_Node000001_Node000012" class="edge">
<title>Node1&#45;&gt;Node12</title>
<g id="a_edge14_Node000001_Node000012"><a xlink:title=" ">
<path fill="none" stroke="#63b8ff" d="M1377.23,-339.26C1289.53,-330.47 1142.65,-314.76 1016.88,-296.5 1013.91,-296.07 1010.88,-295.61 1007.83,-295.14"/>
<polygon fill="#63b8ff" stroke="#63b8ff" points="1376.87,-342.74 1387.17,-340.25 1377.56,-335.78 1376.87,-342.74"/>
</a>
</g>
</g>
<!-- Node17 -->
<g id="Node000017" class="node">
<title>Node17</title>
<g id="a_Node000017"><a xlink:href="_call_graph_8cpp.html" target="_top" xlink:title=" ">
<polygon fill="white" stroke="#666666" points="1157.62,-290.88 1026.12,-290.88 1026.12,-271.62 1157.62,-271.62 1157.62,-290.88"/>
<text text-anchor="middle" x="1091.88" y="-277.38" font-family="Helvetica,sans-Serif" font-size="10.00">lib/Analysis/CallGraph.cpp</text>
</a>
</g>
</g>
<!-- Node1&#45;&gt;Node17 -->
<g id="edge19_Node000001_Node000017" class="edge">
<title>Node1&#45;&gt;Node17</title>
<g id="a_edge19_Node000001_Node000017"><a xlink:title=" ">
<path fill="none" stroke="#63b8ff" d="M1377.49,-333.57C1319.47,-323.61 1238.15,-309.49 1166.88,-296.5 1157.88,-294.86 1148.28,-293.07 1139.06,-291.33"/>
<polygon fill="#63b8ff" stroke="#63b8ff" points="1376.83,-337.01 1387.28,-335.25 1378.01,-330.11 1376.83,-337.01"/>
</a>
</g>
</g>
<!-- Node18 -->
<g id="Node000018" class="node">
<title>Node18</title>
<g id="a_Node000018"><a xlink:href="_felt_2_i_r_2_dialect_8cpp.html" target="_top" xlink:title=" ">
<polygon fill="white" stroke="#666666" points="1268.12,-296.5 1175.62,-296.5 1175.62,-266 1268.12,-266 1268.12,-296.5"/>
<text text-anchor="start" x="1183.62" y="-283" font-family="Helvetica,sans-Serif" font-size="10.00">lib/Dialect/Felt/IR</text>
<text text-anchor="middle" x="1221.88" y="-271.75" font-family="Helvetica,sans-Serif" font-size="10.00">/Dialect.cpp</text>
</a>
</g>
</g>
<!-- Node1&#45;&gt;Node18 -->
<g id="edge20_Node000001_Node000018" class="edge">
<title>Node1&#45;&gt;Node18</title>
<g id="a_edge20_Node000001_Node000018"><a xlink:title=" ">
<path fill="none" stroke="#63b8ff" d="M1391.06,-329.08C1352.29,-318.35 1303.66,-304.89 1268.5,-295.16"/>
<polygon fill="#63b8ff" stroke="#63b8ff" points="1389.68,-332.33 1400.25,-331.63 1391.55,-325.59 1389.68,-332.33"/>
</a>
</g>
</g>
<!-- Node19 -->
<g id="Node000019" class="node">
<title>Node19</title>
<g id="a_Node000019"><a xlink:href="_function_2_i_r_2_ops_8cpp.html" target="_top" xlink:title=" ">
<polygon fill="white" stroke="#666666" points="1385.88,-296.5 1285.88,-296.5 1285.88,-266 1385.88,-266 1385.88,-296.5"/>
<text text-anchor="start" x="1293.88" y="-283" font-family="Helvetica,sans-Serif" font-size="10.00">lib/Dialect/Function</text>
<text text-anchor="middle" x="1335.88" y="-271.75" font-family="Helvetica,sans-Serif" font-size="10.00">/IR/Ops.cpp</text>
</a>
</g>
</g>
<!-- Node1&#45;&gt;Node19 -->
<g id="edge21_Node000001_Node000019" class="edge">
<title>Node1&#45;&gt;Node19</title>
<g id="a_edge21_Node000001_Node000019"><a xlink:title=" ">
<path fill="none" stroke="#63b8ff" d="M1417.8,-326.66C1399.99,-317 1379.03,-305.64 1362.77,-296.83"/>
<polygon fill="#63b8ff" stroke="#63b8ff" points="1416.08,-329.7 1426.54,-331.39 1419.42,-323.55 1416.08,-329.7"/>
</a>
</g>
</g>
<!-- Node20 -->
<g id="Node000020" class="node">
<title>Node20</title>
<g id="a_Node000020"><a xlink:href="_attribute_helper_8cpp.html" target="_top" xlink:title=" ">
<polygon fill="white" stroke="#666666" points="1506,-296.5 1403.75,-296.5 1403.75,-266 1506,-266 1506,-296.5"/>
<text text-anchor="start" x="1411.75" y="-283" font-family="Helvetica,sans-Serif" font-size="10.00">lib/Dialect/LLZK/IR</text>
<text text-anchor="middle" x="1454.88" y="-271.75" font-family="Helvetica,sans-Serif" font-size="10.00">/AttributeHelper.cpp</text>
</a>
</g>
</g>
<!-- Node1&#45;&gt;Node20 -->
<g id="edge22_Node000001_Node000020" class="edge">
<title>Node1&#45;&gt;Node20</title>
<g id="a_edge22_Node000001_Node000020"><a xlink:title=" ">
<path fill="none" stroke="#63b8ff" d="M1454.88,-320.81C1454.88,-312.64 1454.88,-303.91 1454.88,-296.83"/>
<polygon fill="#63b8ff" stroke="#63b8ff" points="1451.38,-320.6 1454.88,-330.6 1458.38,-320.6 1451.38,-320.6"/>
</a>
</g>
</g>
<!-- Node21 -->
<g id="Node000021" class="node">
<title>Node21</title>
<g id="a_Node000021"><a xlink:href="_l_l_z_k_2_i_r_2_dialect_8cpp.html" target="_top" xlink:title=" ">
<polygon fill="white" stroke="#666666" points="1623.5,-296.5 1524.25,-296.5 1524.25,-266 1623.5,-266 1623.5,-296.5"/>
<text text-anchor="start" x="1532.25" y="-283" font-family="Helvetica,sans-Serif" font-size="10.00">lib/Dialect/LLZK/IR</text>
<text text-anchor="middle" x="1573.88" y="-271.75" font-family="Helvetica,sans-Serif" font-size="10.00">/Dialect.cpp</text>
</a>
</g>
</g>
<!-- Node1&#45;&gt;Node21 -->
<g id="edge23_Node000001_Node000021" class="edge">
<title>Node1&#45;&gt;Node21</title>
<g id="a_edge23_Node000001_Node000021"><a xlink:title=" ">
<path fill="none" stroke="#63b8ff" d="M1491.95,-326.66C1509.76,-317 1530.72,-305.64 1546.98,-296.83"/>
<polygon fill="#63b8ff" stroke="#63b8ff" points="1490.33,-323.55 1483.21,-331.39 1493.67,-329.7 1490.33,-323.55"/>
</a>
</g>
</g>
<!-- Node22 -->
<g id="Node000022" class="node">
<title>Node22</title>
<g id="a_Node000022"><a xlink:href="_flattening_pass_8cpp.html" target="_top" xlink:title="This file implements the &#45;llzk&#45;flatten pass.">
<polygon fill="white" stroke="#666666" points="1796.62,-296.5 1641.12,-296.5 1641.12,-266 1796.62,-266 1796.62,-296.5"/>
<text text-anchor="start" x="1649.12" y="-283" font-family="Helvetica,sans-Serif" font-size="10.00">lib/Dialect/Polymorphic</text>
<text text-anchor="middle" x="1718.88" y="-271.75" font-family="Helvetica,sans-Serif" font-size="10.00">/Transforms/FlatteningPass.cpp</text>
</a>
</g>
</g>
<!-- Node1&#45;&gt;Node22 -->
<g id="edge24_Node000001_Node000022" class="edge">
<title>Node1&#45;&gt;Node22</title>
<g id="a_edge24_Node000001_Node000022"><a xlink:title=" ">
<path fill="none" stroke="#63b8ff" d="M1526.25,-329.31C1567.77,-319.17 1619.5,-306.53 1658.9,-296.9"/>
<polygon fill="#63b8ff" stroke="#63b8ff" points="1525.46,-325.9 1516.58,-331.67 1527.13,-332.7 1525.46,-325.9"/>
</a>
</g>
</g>
<!-- Node23 -->
<g id="Node000023" class="node">
<title>Node23</title>
<g id="a_Node000023"><a xlink:href="_struct_2_i_r_2_ops_8cpp.html" target="_top" xlink:title=" ">
<polygon fill="white" stroke="#666666" points="1903.25,-296.5 1814.5,-296.5 1814.5,-266 1903.25,-266 1903.25,-296.5"/>
<text text-anchor="start" x="1822.5" y="-283" font-family="Helvetica,sans-Serif" font-size="10.00">lib/Dialect/Struct</text>
<text text-anchor="middle" x="1858.88" y="-271.75" font-family="Helvetica,sans-Serif" font-size="10.00">/IR/Ops.cpp</text>
</a>
</g>
</g>
<!-- Node1&#45;&gt;Node23 -->
<g id="edge25_Node000001_Node000023" class="edge">
<title>Node1&#45;&gt;Node23</title>
<g id="a_edge25_Node000001_Node000023"><a xlink:title=" ">
<path fill="none" stroke="#63b8ff" d="M1532.08,-338.41C1603.51,-330.05 1712.43,-315.68 1805.88,-296.5 1808.58,-295.94 1811.36,-295.33 1814.15,-294.68"/>
<polygon fill="#63b8ff" stroke="#63b8ff" points="1531.98,-334.9 1522.45,-339.52 1532.78,-341.85 1531.98,-334.9"/>
</a>
</g>
</g>
<!-- Node24 -->
<g id="Node000024" class="node">
<title>Node24</title>
<g id="a_Node000024"><a xlink:href="_struct_2_i_r_2_types_8cpp.html" target="_top" xlink:title=" ">
<polygon fill="white" stroke="#666666" points="2010.25,-296.5 1921.5,-296.5 1921.5,-266 2010.25,-266 2010.25,-296.5"/>
<text text-anchor="start" x="1929.5" y="-283" font-family="Helvetica,sans-Serif" font-size="10.00">lib/Dialect/Struct</text>
<text text-anchor="middle" x="1965.88" y="-271.75" font-family="Helvetica,sans-Serif" font-size="10.00">/IR/Types.cpp</text>
</a>
</g>
</g>
<!-- Node1&#45;&gt;Node24 -->
<g id="edge26_Node000001_Node000024" class="edge">
<title>Node1&#45;&gt;Node24</title>
<g id="a_edge26_Node000001_Node000024"><a xlink:title=" ">
<path fill="none" stroke="#63b8ff" d="M1532.14,-341.77C1623.42,-335.08 1779.61,-321.08 1911.88,-296.5 1914.93,-295.93 1918.06,-295.29 1921.2,-294.59"/>
<polygon fill="#63b8ff" stroke="#63b8ff" points="1532.02,-338.27 1522.3,-342.48 1532.52,-345.25 1532.02,-338.27"/>
</a>
</g>
</g>
<!-- Node25 -->
<g id="Node000025" class="node">
<title>Node25</title>
<g id="a_Node000025"><a xlink:href="_type_helper_8cpp.html" target="_top" xlink:title=" ">
<polygon fill="white" stroke="#666666" points="2143,-290.88 2028.75,-290.88 2028.75,-271.62 2143,-271.62 2143,-290.88"/>
<text text-anchor="middle" x="2085.88" y="-277.38" font-family="Helvetica,sans-Serif" font-size="10.00">lib/Util/TypeHelper.cpp</text>
</a>
</g>
</g>
<!-- Node1&#45;&gt;Node25 -->
<g id="edge27_Node000001_Node000025" class="edge">
<title>Node1&#45;&gt;Node25</title>
<g id="a_edge27_Node000001_Node000025"><a xlink:title=" ">
<path fill="none" stroke="#63b8ff" d="M1531.94,-342.84C1640.87,-336.64 1845.88,-322.51 2018.88,-296.5 2028.05,-295.12 2037.85,-293.26 2047.05,-291.34"/>
<polygon fill="#63b8ff" stroke="#63b8ff" points="1532.04,-339.33 1522.25,-343.38 1532.43,-346.32 1532.04,-339.33"/>
</a>
</g>
</g>
<!-- Node3 -->
<g id="Node000003" class="node">
<title>Node3</title>
<g id="a_Node000003"><a xlink:href="_constrain_ref_lattice_8h.html" target="_top" xlink:title=" ">
<polygon fill="white" stroke="#666666" points="567,-230 452.75,-230 452.75,-199.5 567,-199.5 567,-230"/>
<text text-anchor="start" x="460.75" y="-216.5" font-family="Helvetica,sans-Serif" font-size="10.00">include/llzk/Analysis</text>
<text text-anchor="middle" x="509.88" y="-205.25" font-family="Helvetica,sans-Serif" font-size="10.00">/ConstrainRefLattice.h</text>
</a>
</g>
</g>
<!-- Node2&#45;&gt;Node3 -->
<g id="edge2_Node000002_Node000003" class="edge">
<title>Node2&#45;&gt;Node3</title>
<g id="a_edge2_Node000002_Node000003"><a xlink:title=" ">
<path fill="none" stroke="#63b8ff" d="M558.62,-258.24C548.05,-249.03 536.05,-238.56 526.6,-230.33"/>
<polygon fill="#63b8ff" stroke="#63b8ff" points="556.1,-260.69 565.94,-264.62 560.7,-255.41 556.1,-260.69"/>
</a>
</g>
</g>
<!-- Node4 -->
<g id="Node000004" class="node">
<title>Node4</title>
<g id="a_Node000004"><a xlink:href="_constraint_dependency_graph_8h.html" target="_top" xlink:title=" ">
<polygon fill="white" stroke="#666666" points="486.5,-163.5 333.25,-163.5 333.25,-133 486.5,-133 486.5,-163.5"/>
<text text-anchor="start" x="341.25" y="-150" font-family="Helvetica,sans-Serif" font-size="10.00">include/llzk/Analysis</text>
<text text-anchor="middle" x="409.88" y="-138.75" font-family="Helvetica,sans-Serif" font-size="10.00">/ConstraintDependencyGraph.h</text>
</a>
</g>
</g>
<!-- Node2&#45;&gt;Node4 -->
<g id="edge12_Node000002_Node000004" class="edge">
<title>Node2&#45;&gt;Node4</title>
<g id="a_edge12_Node000002_Node000004"><a xlink:title=" ">
<path fill="none" stroke="#63b8ff" d="M519.82,-269.06C493.6,-261.71 464.62,-249.66 443.88,-230 424.88,-212.01 416.06,-181.74 412.32,-163.81"/>
<polygon fill="#63b8ff" stroke="#63b8ff" points="518.83,-272.42 529.38,-271.55 520.59,-265.65 518.83,-272.42"/>
</a>
</g>
</g>
<!-- Node11 -->
<g id="Node000011" class="node">
<title>Node11</title>
<g id="a_Node000011"><a xlink:href="_constrain_ref_8cpp.html" target="_top" xlink:title=" ">
<polygon fill="white" stroke="#666666" points="730.75,-224.38 585,-224.38 585,-205.12 730.75,-205.12 730.75,-224.38"/>
<text text-anchor="middle" x="657.88" y="-210.88" font-family="Helvetica,sans-Serif" font-size="10.00">lib/Analysis/ConstrainRef.cpp</text>
</a>
</g>
</g>
<!-- Node2&#45;&gt;Node11 -->
<g id="edge13_Node000002_Node000011" class="edge">
<title>Node2&#45;&gt;Node11</title>
<g id="a_edge13_Node000002_Node000011"><a xlink:title=" ">
<path fill="none" stroke="#63b8ff" d="M608.98,-258.37C622.25,-246.8 637.81,-233.24 647.75,-224.57"/>
<polygon fill="#63b8ff" stroke="#63b8ff" points="607.05,-255.41 601.81,-264.62 611.65,-260.69 607.05,-255.41"/>
</a>
</g>
</g>
<!-- Node3&#45;&gt;Node4 -->
<g id="edge3_Node000003_Node000004" class="edge">
<title>Node3&#45;&gt;Node4</title>
<g id="a_edge3_Node000003_Node000004"><a xlink:title=" ">
<path fill="none" stroke="#63b8ff" d="M477.88,-193.11C463.1,-183.58 445.88,-172.48 432.48,-163.83"/>
<polygon fill="#63b8ff" stroke="#63b8ff" points="475.61,-195.81 485.91,-198.29 479.41,-189.93 475.61,-195.81"/>
</a>
</g>
</g>
<!-- Node8 -->
<g id="Node000008" class="node">
<title>Node8</title>
<g id="a_Node000008"><a xlink:href="_constrain_ref_lattice_8cpp.html" target="_top" xlink:title=" ">
<polygon fill="white" stroke="#666666" points="546.38,-97 419.38,-97 419.38,-66.5 546.38,-66.5 546.38,-97"/>
<text text-anchor="start" x="427.38" y="-83.5" font-family="Helvetica,sans-Serif" font-size="10.00">lib/Analysis/ConstrainRef</text>
<text text-anchor="middle" x="482.88" y="-72.25" font-family="Helvetica,sans-Serif" font-size="10.00">Lattice.cpp</text>
</a>
</g>
</g>
<!-- Node3&#45;&gt;Node8 -->
<g id="edge10_Node000003_Node000008" class="edge">
<title>Node3&#45;&gt;Node8</title>
<g id="a_edge10_Node000003_Node000008"><a xlink:title=" ">
<path fill="none" stroke="#63b8ff" d="M505.96,-188C503.4,-172.09 499.82,-151.29 495.88,-133 493.25,-120.84 489.68,-107.19 486.94,-97.19"/>
<polygon fill="#63b8ff" stroke="#63b8ff" points="502.46,-188.26 507.47,-197.6 509.37,-187.18 502.46,-188.26"/>
</a>
</g>
</g>
<!-- Node9 -->
<g id="Node000009" class="node">
<title>Node9</title>
<g id="a_Node000009"><a xlink:href="_constraint_dependency_graph_8cpp.html" target="_top" xlink:title=" ">
<polygon fill="white" stroke="#666666" points="733.38,-97 564.38,-97 564.38,-66.5 733.38,-66.5 733.38,-97"/>
<text text-anchor="start" x="572.38" y="-83.5" font-family="Helvetica,sans-Serif" font-size="10.00">lib/Analysis/ConstraintDependency</text>
<text text-anchor="middle" x="648.88" y="-72.25" font-family="Helvetica,sans-Serif" font-size="10.00">Graph.cpp</text>
</a>
</g>
</g>
<!-- Node3&#45;&gt;Node9 -->
<g id="edge11_Node000003_Node000009" class="edge">
<title>Node3&#45;&gt;Node9</title>
<g id="a_edge11_Node000003_Node000009"><a xlink:title=" ">
<path fill="none" stroke="#63b8ff" d="M533.49,-191.5C562,-164.63 609.14,-120.2 633.4,-97.33"/>
<polygon fill="#63b8ff" stroke="#63b8ff" points="531.26,-188.79 526.38,-198.19 536.06,-193.88 531.26,-188.79"/>
</a>
</g>
</g>
<!-- Node5 -->
<g id="Node000005" class="node">
<title>Node5</title>
<g id="a_Node000005"><a xlink:href="_interval_analysis_8h.html" target="_top" xlink:title=" ">
<polygon fill="white" stroke="#666666" points="214.5,-97 109.25,-97 109.25,-66.5 214.5,-66.5 214.5,-97"/>
<text text-anchor="start" x="117.25" y="-83.5" font-family="Helvetica,sans-Serif" font-size="10.00">include/llzk/Analysis</text>
<text text-anchor="middle" x="161.88" y="-72.25" font-family="Helvetica,sans-Serif" font-size="10.00">/IntervalAnalysis.h</text>
</a>
</g>
</g>
<!-- Node4&#45;&gt;Node5 -->
<g id="edge4_Node000004_Node000005" class="edge">
<title>Node4&#45;&gt;Node5</title>
<g id="a_edge4_Node000004_Node000005"><a xlink:title=" ">
<path fill="none" stroke="#63b8ff" d="M342.26,-129.66C302.15,-119.23 252.04,-106.2 214.82,-96.52"/>
<polygon fill="#63b8ff" stroke="#63b8ff" points="341.27,-133.02 351.82,-132.15 343.03,-126.25 341.27,-133.02"/>
</a>
</g>
</g>
<!-- Node4&#45;&gt;Node8 -->
<g id="edge7_Node000004_Node000008" class="edge">
<title>Node4&#45;&gt;Node8</title>
<g id="a_edge7_Node000004_Node000008"><a xlink:title=" ">
<path fill="none" stroke="#63b8ff" d="M434.78,-125.24C445.21,-116.03 457.05,-105.56 466.38,-97.33"/>
<polygon fill="#63b8ff" stroke="#63b8ff" points="432.75,-122.37 427.57,-131.61 437.39,-127.61 432.75,-122.37"/>
</a>
</g>
</g>
<!-- Node4&#45;&gt;Node9 -->
<g id="edge8_Node000004_Node000009" class="edge">
<title>Node4&#45;&gt;Node9</title>
<g id="a_edge8_Node000004_Node000009"><a xlink:title=" ">
<path fill="none" stroke="#63b8ff" d="M475.22,-129.62C512.68,-119.51 559.14,-106.97 594.58,-97.4"/>
<polygon fill="#63b8ff" stroke="#63b8ff" points="474.61,-126.15 465.87,-132.14 476.43,-132.91 474.61,-126.15"/>
</a>
</g>
</g>
<!-- Node10 -->
<g id="Node000010" class="node">
<title>Node10</title>
<g id="a_Node000010"><a xlink:href="_constraint_dependency_graph_pass_8cpp.html" target="_top" xlink:title="This file implements the &#45;llzk&#45;print&#45;constraint&#45;dependency&#45;graphs pass.">
<polygon fill="white" stroke="#666666" points="401.38,-97 232.38,-97 232.38,-66.5 401.38,-66.5 401.38,-97"/>
<text text-anchor="start" x="240.38" y="-83.5" font-family="Helvetica,sans-Serif" font-size="10.00">lib/Analysis/ConstraintDependency</text>
<text text-anchor="middle" x="316.88" y="-72.25" font-family="Helvetica,sans-Serif" font-size="10.00">GraphPass.cpp</text>
</a>
</g>
</g>
<!-- Node4&#45;&gt;Node10 -->
<g id="edge9_Node000004_Node000010" class="edge">
<title>Node4&#45;&gt;Node10</title>
<g id="a_edge9_Node000004_Node000010"><a xlink:title=" ">
<path fill="none" stroke="#63b8ff" d="M379.33,-126.07C365.76,-116.66 350.13,-105.81 337.89,-97.33"/>
<polygon fill="#63b8ff" stroke="#63b8ff" points="377.32,-128.93 387.53,-131.75 381.31,-123.18 377.32,-128.93"/>
</a>
</g>
</g>
<!-- Node6 -->
<g id="Node000006" class="node">
<title>Node6</title>
<g id="a_Node000006"><a xlink:href="_interval_analysis_8cpp.html" target="_top" xlink:title=" ">
<polygon fill="white" stroke="#666666" points="157.75,-24.88 0,-24.88 0,-5.63 157.75,-5.63 157.75,-24.88"/>
<text text-anchor="middle" x="78.88" y="-11.38" font-family="Helvetica,sans-Serif" font-size="10.00">lib/Analysis/IntervalAnalysis.cpp</text>
</a>
</g>
</g>
<!-- Node5&#45;&gt;Node6 -->
<g id="edge5_Node000005_Node000006" class="edge">
<title>Node5&#45;&gt;Node6</title>
<g id="a_edge5_Node000005_Node000006"><a xlink:title=" ">
<path fill="none" stroke="#63b8ff" d="M134.14,-59.2C119.16,-47.56 101.48,-33.82 90.23,-25.07"/>
<polygon fill="#63b8ff" stroke="#63b8ff" points="131.8,-61.81 141.85,-65.19 136.1,-56.29 131.8,-61.81"/>
</a>
</g>
</g>
<!-- Node7 -->
<g id="Node000007" class="node">
<title>Node7</title>
<g id="a_Node000007"><a xlink:href="_interval_analysis_pass_8cpp.html" target="_top" xlink:title="This file implements the &#45;llzk&#45;print&#45;interval&#45;analysis pass.">
<polygon fill="white" stroke="#666666" points="314.38,-30.5 175.38,-30.5 175.38,0 314.38,0 314.38,-30.5"/>
<text text-anchor="start" x="183.38" y="-17" font-family="Helvetica,sans-Serif" font-size="10.00">lib/Analysis/IntervalAnalysis</text>
<text text-anchor="middle" x="244.88" y="-5.75" font-family="Helvetica,sans-Serif" font-size="10.00">Pass.cpp</text>
</a>
</g>
</g>
<!-- Node5&#45;&gt;Node7 -->
<g id="edge6_Node000005_Node000007" class="edge">
<title>Node5&#45;&gt;Node7</title>
<g id="a_edge6_Node000005_Node000007"><a xlink:title=" ">
<path fill="none" stroke="#63b8ff" d="M189.49,-59.29C201.52,-49.94 215.3,-39.23 226.12,-30.83"/>
<polygon fill="#63b8ff" stroke="#63b8ff" points="187.65,-56.29 181.9,-65.19 191.95,-61.81 187.65,-56.29"/>
</a>
</g>
</g>
<!-- Node13 -->
<g id="Node000013" class="node">
<title>Node13</title>
<g id="a_Node000013"><a xlink:href="_array_2_i_r_2_ops_8cpp.html" target="_top" xlink:title=" ">
<polygon fill="white" stroke="#666666" points="1250.5,-230 1151.25,-230 1151.25,-199.5 1250.5,-199.5 1250.5,-230"/>
<text text-anchor="start" x="1159.25" y="-216.5" font-family="Helvetica,sans-Serif" font-size="10.00">lib/Dialect/Array/IR</text>
<text text-anchor="middle" x="1200.88" y="-205.25" font-family="Helvetica,sans-Serif" font-size="10.00">/Ops.cpp</text>
</a>
</g>
</g>
<!-- Node12&#45;&gt;Node13 -->
<g id="edge15_Node000012_Node000013" class="edge">
<title>Node12&#45;&gt;Node13</title>
<g id="a_edge15_Node000012_Node000013"><a xlink:title=" ">
<path fill="none" stroke="#63b8ff" d="M1007.3,-262.86C1052.71,-251.81 1110.35,-237.78 1150.89,-227.92"/>
<polygon fill="#63b8ff" stroke="#63b8ff" points="1006.7,-259.41 997.81,-265.18 1008.35,-266.21 1006.7,-259.41"/>
</a>
</g>
</g>
<!-- Node14 -->
<g id="Node000014" class="node">
<title>Node14</title>
<g id="a_Node000014"><a xlink:href="_array_2_i_r_2_types_8cpp.html" target="_top" xlink:title=" ">
<polygon fill="white" stroke="#666666" points="848.5,-230 749.25,-230 749.25,-199.5 848.5,-199.5 848.5,-230"/>
<text text-anchor="start" x="757.25" y="-216.5" font-family="Helvetica,sans-Serif" font-size="10.00">lib/Dialect/Array/IR</text>
<text text-anchor="middle" x="798.88" y="-205.25" font-family="Helvetica,sans-Serif" font-size="10.00">/Types.cpp</text>
</a>
</g>
</g>
<!-- Node12&#45;&gt;Node14 -->
<g id="edge16_Node000012_Node000014" class="edge">
<title>Node12&#45;&gt;Node14</title>
<g id="a_edge16_Node000012_Node000014"><a xlink:title=" ">
<path fill="none" stroke="#63b8ff" d="M894.63,-260.83C873.82,-251.03 849,-239.35 829.84,-230.33"/>
<polygon fill="#63b8ff" stroke="#63b8ff" points="892.88,-263.88 903.42,-264.97 895.86,-257.54 892.88,-263.88"/>
</a>
</g>
</g>
<!-- Node15 -->
<g id="Node000015" class="node">
<title>Node15</title>
<g id="a_Node000015"><a xlink:href="_array_to_scalar_pass_8cpp.html" target="_top" xlink:title="This file implements the &#45;llzk&#45;array&#45;to&#45;scalar pass.">
<polygon fill="white" stroke="#666666" points="1005,-230 866.75,-230 866.75,-199.5 1005,-199.5 1005,-230"/>
<text text-anchor="start" x="874.75" y="-216.5" font-family="Helvetica,sans-Serif" font-size="10.00">lib/Dialect/Array/Transforms</text>
<text text-anchor="middle" x="935.88" y="-205.25" font-family="Helvetica,sans-Serif" font-size="10.00">/ArrayToScalarPass.cpp</text>
</a>
</g>
</g>
<!-- Node12&#45;&gt;Node15 -->
<g id="edge17_Node000012_Node000015" class="edge">
<title>Node12&#45;&gt;Node15</title>
<g id="a_edge17_Node000012_Node000015"><a xlink:title=" ">
<path fill="none" stroke="#63b8ff" d="M935.88,-254.31C935.88,-246.14 935.88,-237.41 935.88,-230.33"/>
<polygon fill="#63b8ff" stroke="#63b8ff" points="932.38,-254.1 935.88,-264.1 939.38,-254.1 932.38,-254.1"/>
</a>
</g>
</g>
<!-- Node16 -->
<g id="Node000016" class="node">
<title>Node16</title>
<g id="a_Node000016"><a xlink:href="_array_type_helper_8cpp.html" target="_top" xlink:title="This file contains the implementation for array type helpers.">
<polygon fill="white" stroke="#666666" points="1132.75,-230 1023,-230 1023,-199.5 1132.75,-199.5 1132.75,-230"/>
<text text-anchor="start" x="1031" y="-216.5" font-family="Helvetica,sans-Serif" font-size="10.00">lib/Dialect/Array/Util</text>
<text text-anchor="middle" x="1077.88" y="-205.25" font-family="Helvetica,sans-Serif" font-size="10.00">/ArrayTypeHelper.cpp</text>
</a>
</g>
</g>
<!-- Node12&#45;&gt;Node16 -->
<g id="edge18_Node000012_Node000016" class="edge">
<title>Node12&#45;&gt;Node16</title>
<g id="a_edge18_Node000012_Node000016"><a xlink:title=" ">
<path fill="none" stroke="#63b8ff" d="M978.33,-260.97C999.96,-251.14 1025.83,-239.39 1045.78,-230.33"/>
<polygon fill="#63b8ff" stroke="#63b8ff" points="977.13,-257.67 969.48,-264.99 980.03,-264.04 977.13,-257.67"/>
</a>
</g>
</g>
</g>
</svg>
