<?xml version="1.0" encoding="UTF-8" standalone="no"?>
<!DOCTYPE svg PUBLIC "-//W3C//DTD SVG 1.1//EN"
 "http://www.w3.org/Graphics/SVG/1.1/DTD/svg11.dtd">
<!-- Generated by graphviz version 12.2.1 (0)
 -->
<!-- Title: include/llzk/Dialect/Bool/IR/Ops.h Pages: 1 -->
<svg width="1539pt" height="238pt"
 viewBox="0.00 0.00 1538.62 238.00" xmlns="http://www.w3.org/2000/svg" xmlns:xlink="http://www.w3.org/1999/xlink">
<g id="graph0" class="graph" transform="scale(1 1) rotate(0) translate(4 234)">
<title>include/llzk/Dialect/Bool/IR/Ops.h</title>
<!-- Node1 -->
<g id="Node000001" class="node">
<title>Node1</title>
<g id="a_Node000001"><a xlink:title=" ">
<polygon fill="#999999" stroke="#666666" points="1101.38,-230 1002.88,-230 1002.88,-199.5 1101.38,-199.5 1101.38,-230"/>
<text text-anchor="start" x="1010.88" y="-216.5" font-family="Helvetica,sans-Serif" font-size="10.00">include/llzk/Dialect</text>
<text text-anchor="middle" x="1052.12" y="-205.25" font-family="Helvetica,sans-Serif" font-size="10.00">/Bool/IR/Ops.h</text>
</a>
</g>
</g>
<!-- Node1&#45;&gt;Node1 -->
<g id="edge13_Node000001_Node000001" class="edge">
<title>Node1&#45;&gt;Node1</title>
<g id="a_edge13_Node000001_Node000001"><a xlink:title=" ">
<path fill="none" stroke="#63b8ff" d="M1101.69,-226.78C1111.98,-225.51 1119.38,-221.5 1119.38,-214.75 1119.38,-210.74 1116.77,-207.7 1112.49,-205.62"/>
<polygon fill="#63b8ff" stroke="#63b8ff" points="1113.71,-202.33 1103.15,-203.11 1111.9,-209.09 1113.71,-202.33"/>
</a>
</g>
</g>
<!-- Node2 -->
<g id="Node000002" class="node">
<title>Node2</title>
<g id="a_Node000002"><a xlink:href="_bool_2_i_r_2_attrs_8h.html" target="_top" xlink:title=" ">
<polygon fill="white" stroke="#666666" points="564.5,-163.5 463.75,-163.5 463.75,-133 564.5,-133 564.5,-163.5"/>
<text text-anchor="start" x="471.75" y="-150" font-family="Helvetica,sans-Serif" font-size="10.00">llzk/Dialect/Bool/IR</text>
<text text-anchor="middle" x="514.12" y="-138.75" font-family="Helvetica,sans-Serif" font-size="10.00">/Attrs.h</text>
</a>
</g>
</g>
<!-- Node1&#45;&gt;Node2 -->
<g id="edge1_Node000001_Node000002" class="edge">
<title>Node1&#45;&gt;Node2</title>
<g id="a_edge1_Node000001_Node000002"><a xlink:title=" ">
<path fill="none" stroke="#63b8ff" d="M1002.48,-207.8C903.96,-195.99 684.01,-169.62 576.16,-156.69"/>
<polygon fill="#63b8ff" stroke="#63b8ff" points="576.68,-153.22 566.33,-155.51 575.84,-160.17 576.68,-153.22"/>
</a>
</g>
</g>
<!-- Node11 -->
<g id="Node000011" class="node">
<title>Node11</title>
<g id="a_Node000011"><a xlink:href="_bool_2_i_r_2_dialect_8h.html" target="_top" xlink:title=" ">
<polygon fill="white" stroke="#666666" points="780.5,-163.5 679.75,-163.5 679.75,-133 780.5,-133 780.5,-163.5"/>
<text text-anchor="start" x="687.75" y="-150" font-family="Helvetica,sans-Serif" font-size="10.00">llzk/Dialect/Bool/IR</text>
<text text-anchor="middle" x="730.12" y="-138.75" font-family="Helvetica,sans-Serif" font-size="10.00">/Dialect.h</text>
</a>
</g>
</g>
<!-- Node1&#45;&gt;Node11 -->
<g id="edge10_Node000001_Node000011" class="edge">
<title>Node1&#45;&gt;Node11</title>
<g id="a_edge10_Node000001_Node000011"><a xlink:title=" ">
<path fill="none" stroke="#63b8ff" d="M1002.52,-203.81C945.89,-192.47 853.19,-173.9 791.91,-161.63"/>
<polygon fill="#63b8ff" stroke="#63b8ff" points="792.83,-158.24 782.34,-159.71 791.45,-165.1 792.83,-158.24"/>
</a>
</g>
</g>
<!-- Node14 -->
<g id="Node000014" class="node">
<title>Node14</title>
<g id="a_Node000014"><a xlink:href="_felt_2_i_r_2_types_8h.html" target="_top" xlink:title=" ">
<polygon fill="white" stroke="#666666" points="1041,-163.5 943.25,-163.5 943.25,-133 1041,-133 1041,-163.5"/>
<text text-anchor="start" x="951.25" y="-150" font-family="Helvetica,sans-Serif" font-size="10.00">llzk/Dialect/Felt/IR</text>
<text text-anchor="middle" x="992.12" y="-138.75" font-family="Helvetica,sans-Serif" font-size="10.00">/Types.h</text>
</a>
</g>
</g>
<!-- Node1&#45;&gt;Node14 -->
<g id="edge14_Node000001_Node000014" class="edge">
<title>Node1&#45;&gt;Node14</title>
<g id="a_edge14_Node000001_Node000014"><a xlink:title=" ">
<path fill="none" stroke="#63b8ff" d="M1038.51,-199.11C1031.07,-191.11 1021.69,-181.03 1013.31,-172.03"/>
<polygon fill="#63b8ff" stroke="#63b8ff" points="1016.09,-169.87 1006.72,-164.94 1010.97,-174.64 1016.09,-169.87"/>
</a>
</g>
</g>
<!-- Node19 -->
<g id="Node000019" class="node">
<title>Node19</title>
<g id="a_Node000019"><a xlink:href="_op_traits_8h.html" target="_top" xlink:title=" ">
<polygon fill="white" stroke="#666666" points="1223.75,-163.5 1118.5,-163.5 1118.5,-133 1223.75,-133 1223.75,-163.5"/>
<text text-anchor="start" x="1126.5" y="-150" font-family="Helvetica,sans-Serif" font-size="10.00">llzk/Dialect/Function</text>
<text text-anchor="middle" x="1171.12" y="-138.75" font-family="Helvetica,sans-Serif" font-size="10.00">/IR/OpTraits.h</text>
</a>
</g>
</g>
<!-- Node1&#45;&gt;Node19 -->
<g id="edge20_Node000001_Node000019" class="edge">
<title>Node1&#45;&gt;Node19</title>
<g id="a_edge20_Node000001_Node000019"><a xlink:title=" ">
<path fill="none" stroke="#63b8ff" d="M1079.13,-199.11C1095.41,-190.29 1116.37,-178.93 1134.17,-169.28"/>
<polygon fill="#63b8ff" stroke="#63b8ff" points="1135.77,-172.39 1142.9,-164.55 1132.44,-166.24 1135.77,-172.39"/>
</a>
</g>
</g>
<!-- Node23 -->
<g id="Node000023" class="node">
<title>Node23</title>
<g id="a_Node000023"><a xlink:title=" ">
<polygon fill="#e0e0e0" stroke="#999999" points="1364,-163.5 1242.25,-163.5 1242.25,-133 1364,-133 1364,-163.5"/>
<text text-anchor="start" x="1250.25" y="-150" font-family="Helvetica,sans-Serif" font-size="10.00">mlir/Interfaces/InferType</text>
<text text-anchor="middle" x="1303.12" y="-138.75" font-family="Helvetica,sans-Serif" font-size="10.00">OpInterface.h</text>
</a>
</g>
</g>
<!-- Node1&#45;&gt;Node23 -->
<g id="edge24_Node000001_Node000023" class="edge">
<title>Node1&#45;&gt;Node23</title>
<g id="a_edge24_Node000001_Node000023"><a xlink:title=" ">
<path fill="none" stroke="#63b8ff" d="M1101.71,-201.01C1139.75,-191.23 1192.68,-177.63 1234.74,-166.82"/>
<polygon fill="#63b8ff" stroke="#63b8ff" points="1235.45,-170.25 1244.27,-164.38 1233.71,-163.47 1235.45,-170.25"/>
</a>
</g>
</g>
<!-- Node24 -->
<g id="Node000024" class="node">
<title>Node24</title>
<g id="a_Node000024"><a xlink:href="_bool_2_i_r_2_ops_8h_8inc.html" target="_top" xlink:title=" ">
<polygon fill="white" stroke="#666666" points="1482.5,-163.5 1381.75,-163.5 1381.75,-133 1482.5,-133 1482.5,-163.5"/>
<text text-anchor="start" x="1389.75" y="-150" font-family="Helvetica,sans-Serif" font-size="10.00">llzk/Dialect/Bool/IR</text>
<text text-anchor="middle" x="1432.12" y="-138.75" font-family="Helvetica,sans-Serif" font-size="10.00">/Ops.h.inc</text>
</a>
</g>
</g>
<!-- Node1&#45;&gt;Node24 -->
<g id="edge25_Node000001_Node000024" class="edge">
<title>Node1&#45;&gt;Node24</title>
<g id="a_edge25_Node000001_Node000024"><a xlink:title=" ">
<path fill="none" stroke="#63b8ff" d="M1101.84,-207.25C1162.83,-199 1269.62,-183.62 1370.07,-164.02"/>
<polygon fill="#63b8ff" stroke="#63b8ff" points="1370.72,-167.46 1379.85,-162.09 1369.36,-160.59 1370.72,-167.46"/>
</a>
</g>
</g>
<!-- Node3 -->
<g id="Node000003" class="node">
<title>Node3</title>
<g id="a_Node000003"><a xlink:href="_enums_8h.html" target="_top" xlink:title=" ">
<polygon fill="white" stroke="#666666" points="385.5,-97 284.75,-97 284.75,-66.5 385.5,-66.5 385.5,-97"/>
<text text-anchor="start" x="292.75" y="-83.5" font-family="Helvetica,sans-Serif" font-size="10.00">llzk/Dialect/Bool/IR</text>
<text text-anchor="middle" x="335.12" y="-72.25" font-family="Helvetica,sans-Serif" font-size="10.00">/Enums.h</text>
</a>
</g>
</g>
<!-- Node2&#45;&gt;Node3 -->
<g id="edge2_Node000002_Node000003" class="edge">
<title>Node2&#45;&gt;Node3</title>
<g id="a_edge2_Node000002_Node000003"><a xlink:title=" ">
<path fill="none" stroke="#63b8ff" d="M473.51,-132.61C447.74,-123.33 414.17,-111.23 386.54,-101.28"/>
<polygon fill="#63b8ff" stroke="#63b8ff" points="387.91,-98.05 377.32,-97.95 385.54,-104.64 387.91,-98.05"/>
</a>
</g>
</g>
<!-- Node9 -->
<g id="Node000009" class="node">
<title>Node9</title>
<g id="a_Node000009"><a xlink:title=" ">
<polygon fill="#e0e0e0" stroke="#999999" points="504.38,-91.38 405.88,-91.38 405.88,-72.12 504.38,-72.12 504.38,-91.38"/>
<text text-anchor="middle" x="455.12" y="-77.88" font-family="Helvetica,sans-Serif" font-size="10.00">mlir/IR/Attributes.h</text>
</a>
</g>
</g>
<!-- Node2&#45;&gt;Node9 -->
<g id="edge8_Node000002_Node000009" class="edge">
<title>Node2&#45;&gt;Node9</title>
<g id="a_edge8_Node000002_Node000009"><a xlink:title=" ">
<path fill="none" stroke="#63b8ff" d="M500.74,-132.61C491.89,-122.94 480.25,-110.21 470.94,-100.04"/>
<polygon fill="#63b8ff" stroke="#63b8ff" points="473.55,-97.71 464.22,-92.69 468.38,-102.43 473.55,-97.71"/>
</a>
</g>
</g>
<!-- Node10 -->
<g id="Node000010" class="node">
<title>Node10</title>
<g id="a_Node000010"><a xlink:href="_bool_2_i_r_2_attrs_8h_8inc.html" target="_top" xlink:title=" ">
<polygon fill="white" stroke="#666666" points="623.5,-97 522.75,-97 522.75,-66.5 623.5,-66.5 623.5,-97"/>
<text text-anchor="start" x="530.75" y="-83.5" font-family="Helvetica,sans-Serif" font-size="10.00">llzk/Dialect/Bool/IR</text>
<text text-anchor="middle" x="573.12" y="-72.25" font-family="Helvetica,sans-Serif" font-size="10.00">/Attrs.h.inc</text>
</a>
</g>
</g>
<!-- Node2&#45;&gt;Node10 -->
<g id="edge9_Node000002_Node000010" class="edge">
<title>Node2&#45;&gt;Node10</title>
<g id="a_edge9_Node000002_Node000010"><a xlink:title=" ">
<path fill="none" stroke="#63b8ff" d="M527.51,-132.61C534.75,-124.7 543.87,-114.74 552.04,-105.8"/>
<polygon fill="#63b8ff" stroke="#63b8ff" points="554.6,-108.19 558.77,-98.44 549.44,-103.46 554.6,-108.19"/>
</a>
</g>
</g>
<!-- Node4 -->
<g id="Node000004" class="node">
<title>Node4</title>
<g id="a_Node000004"><a xlink:title=" ">
<polygon fill="#e0e0e0" stroke="#999999" points="108.25,-24.88 0,-24.88 0,-5.63 108.25,-5.63 108.25,-24.88"/>
<text text-anchor="middle" x="54.12" y="-11.38" font-family="Helvetica,sans-Serif" font-size="10.00">mlir/IR/Diagnostics.h</text>
</a>
</g>
</g>
<!-- Node3&#45;&gt;Node4 -->
<g id="edge3_Node000003_Node000004" class="edge">
<title>Node3&#45;&gt;Node4</title>
<g id="a_edge3_Node000003_Node000004"><a xlink:title=" ">
<path fill="none" stroke="#63b8ff" d="M284.56,-69.14C233.74,-57.48 155.82,-39.59 104.91,-27.91"/>
<polygon fill="#63b8ff" stroke="#63b8ff" points="105.85,-24.53 95.32,-25.71 104.29,-31.35 105.85,-24.53"/>
</a>
</g>
</g>
<!-- Node5 -->
<g id="Node000005" class="node">
<title>Node5</title>
<g id="a_Node000005"><a xlink:title=" ">
<polygon fill="#e0e0e0" stroke="#999999" points="258.25,-24.88 126,-24.88 126,-5.63 258.25,-5.63 258.25,-24.88"/>
<text text-anchor="middle" x="192.12" y="-11.38" font-family="Helvetica,sans-Serif" font-size="10.00">llvm/ADT/DenseMapInfo.h</text>
</a>
</g>
</g>
<!-- Node3&#45;&gt;Node5 -->
<g id="edge4_Node000003_Node000005" class="edge">
<title>Node3&#45;&gt;Node5</title>
<g id="a_edge4_Node000003_Node000005"><a xlink:title=" ">
<path fill="none" stroke="#63b8ff" d="M302.68,-66.11C278.63,-55.27 246.09,-40.59 222.54,-29.97"/>
<polygon fill="#63b8ff" stroke="#63b8ff" points="224.03,-26.8 213.48,-25.88 221.16,-33.18 224.03,-26.8"/>
</a>
</g>
</g>
<!-- Node6 -->
<g id="Node000006" class="node">
<title>Node6</title>
<g id="a_Node000006"><a xlink:title=" ">
<polygon fill="#e0e0e0" stroke="#999999" points="386,-24.88 276.25,-24.88 276.25,-5.63 386,-5.63 386,-24.88"/>
<text text-anchor="middle" x="331.12" y="-11.38" font-family="Helvetica,sans-Serif" font-size="10.00">llvm/ADT/StringRef.h</text>
</a>
</g>
</g>
<!-- Node3&#45;&gt;Node6 -->
<g id="edge5_Node000003_Node000006" class="edge">
<title>Node3&#45;&gt;Node6</title>
<g id="a_edge5_Node000003_Node000006"><a xlink:title=" ">
<path fill="none" stroke="#63b8ff" d="M334.22,-66.11C333.67,-57.33 332.97,-46.02 332.37,-36.4"/>
<polygon fill="#63b8ff" stroke="#63b8ff" points="335.88,-36.35 331.77,-26.58 328.89,-36.78 335.88,-36.35"/>
</a>
</g>
</g>
<!-- Node7 -->
<g id="Node000007" class="node">
<title>Node7</title>
<g id="a_Node000007"><a xlink:title=" ">
<polygon fill="#e0e0e0" stroke="#999999" points="542.25,-24.88 404,-24.88 404,-5.63 542.25,-5.63 542.25,-24.88"/>
<text text-anchor="middle" x="473.12" y="-11.38" font-family="Helvetica,sans-Serif" font-size="10.00">llvm/Support/raw_ostream.h</text>
</a>
</g>
</g>
<!-- Node3&#45;&gt;Node7 -->
<g id="edge6_Node000003_Node000007" class="edge">
<title>Node3&#45;&gt;Node7</title>
<g id="a_edge6_Node000003_Node000007"><a xlink:title=" ">
<path fill="none" stroke="#63b8ff" d="M366.44,-66.11C389.54,-55.32 420.77,-40.72 443.46,-30.11"/>
<polygon fill="#63b8ff" stroke="#63b8ff" points="444.9,-33.31 452.48,-25.9 441.94,-26.96 444.9,-33.31"/>
</a>
</g>
</g>
<!-- Node8 -->
<g id="Node000008" class="node">
<title>Node8</title>
<g id="a_Node000008"><a xlink:href="_enums_8h_8inc.html" target="_top" xlink:title=" ">
<polygon fill="white" stroke="#666666" points="661.5,-30.5 560.75,-30.5 560.75,0 661.5,0 661.5,-30.5"/>
<text text-anchor="start" x="568.75" y="-17" font-family="Helvetica,sans-Serif" font-size="10.00">llzk/Dialect/Bool/IR</text>
<text text-anchor="middle" x="611.12" y="-5.75" font-family="Helvetica,sans-Serif" font-size="10.00">/Enums.h.inc</text>
</a>
</g>
</g>
<!-- Node3&#45;&gt;Node8 -->
<g id="edge7_Node000003_Node000008" class="edge">
<title>Node3&#45;&gt;Node8</title>
<g id="a_edge7_Node000003_Node000008"><a xlink:title=" ">
<path fill="none" stroke="#63b8ff" d="M385.77,-69.04C427.07,-59.47 487.24,-45.5 549.21,-30.94"/>
<polygon fill="#63b8ff" stroke="#63b8ff" points="549.98,-34.36 558.92,-28.66 548.38,-27.54 549.98,-34.36"/>
</a>
</g>
</g>
<!-- Node12 -->
<g id="Node000012" class="node">
<title>Node12</title>
<g id="a_Node000012"><a xlink:title=" ">
<polygon fill="#e0e0e0" stroke="#999999" points="780.88,-24.88 679.38,-24.88 679.38,-5.63 780.88,-5.63 780.88,-24.88"/>
<text text-anchor="middle" x="730.12" y="-11.38" font-family="Helvetica,sans-Serif" font-size="10.00">mlir/IR/BuiltinOps.h</text>
</a>
</g>
</g>
<!-- Node11&#45;&gt;Node12 -->
<g id="edge11_Node000011_Node000012" class="edge">
<title>Node11&#45;&gt;Node12</title>
<g id="a_edge11_Node000011_Node000012"><a xlink:title=" ">
<path fill="none" stroke="#63b8ff" d="M704.21,-132.61C691.73,-124.01 678.01,-111.9 671.12,-97 665.44,-84.69 665.44,-78.81 671.12,-66.5 677.85,-51.95 691.09,-40.05 703.33,-31.5"/>
<polygon fill="#63b8ff" stroke="#63b8ff" points="705.03,-34.57 711.52,-26.19 701.23,-28.69 705.03,-34.57"/>
</a>
</g>
</g>
<!-- Node13 -->
<g id="Node000013" class="node">
<title>Node13</title>
<g id="a_Node000013"><a xlink:href="_bool_2_i_r_2_dialect_8h_8inc.html" target="_top" xlink:title=" ">
<polygon fill="white" stroke="#666666" points="780.5,-97 679.75,-97 679.75,-66.5 780.5,-66.5 780.5,-97"/>
<text text-anchor="start" x="687.75" y="-83.5" font-family="Helvetica,sans-Serif" font-size="10.00">llzk/Dialect/Bool/IR</text>
<text text-anchor="middle" x="730.12" y="-72.25" font-family="Helvetica,sans-Serif" font-size="10.00">/Dialect.h.inc</text>
</a>
</g>
</g>
<!-- Node11&#45;&gt;Node13 -->
<g id="edge12_Node000011_Node000013" class="edge">
<title>Node11&#45;&gt;Node13</title>
<g id="a_edge12_Node000011_Node000013"><a xlink:title=" ">
<path fill="none" stroke="#63b8ff" d="M730.12,-132.61C730.12,-125.52 730.12,-116.79 730.12,-108.63"/>
<polygon fill="#63b8ff" stroke="#63b8ff" points="733.63,-108.84 730.13,-98.84 726.63,-108.84 733.63,-108.84"/>
</a>
</g>
</g>
<!-- Node15 -->
<g id="Node000015" class="node">
<title>Node15</title>
<g id="a_Node000015"><a xlink:href="_felt_2_i_r_2_dialect_8h.html" target="_top" xlink:title=" ">
<polygon fill="white" stroke="#666666" points="896,-97 798.25,-97 798.25,-66.5 896,-66.5 896,-97"/>
<text text-anchor="start" x="806.25" y="-83.5" font-family="Helvetica,sans-Serif" font-size="10.00">llzk/Dialect/Felt/IR</text>
<text text-anchor="middle" x="847.12" y="-72.25" font-family="Helvetica,sans-Serif" font-size="10.00">/Dialect.h</text>
</a>
</g>
</g>
<!-- Node14&#45;&gt;Node15 -->
<g id="edge15_Node000014_Node000015" class="edge">
<title>Node14&#45;&gt;Node15</title>
<g id="a_edge15_Node000014_Node000015"><a xlink:title=" ">
<path fill="none" stroke="#63b8ff" d="M959.22,-132.61C938.9,-123.57 912.59,-111.87 890.57,-102.08"/>
<polygon fill="#63b8ff" stroke="#63b8ff" points="892.09,-98.92 881.53,-98.05 889.25,-105.32 892.09,-98.92"/>
</a>
</g>
</g>
<!-- Node17 -->
<g id="Node000017" class="node">
<title>Node17</title>
<g id="a_Node000017"><a xlink:href="_felt_2_i_r_2_ops_8h_8inc.html" target="_top" xlink:title=" ">
<polygon fill="white" stroke="#666666" points="1012,-97 914.25,-97 914.25,-66.5 1012,-66.5 1012,-97"/>
<text text-anchor="start" x="922.25" y="-83.5" font-family="Helvetica,sans-Serif" font-size="10.00">llzk/Dialect/Felt/IR</text>
<text text-anchor="middle" x="963.12" y="-72.25" font-family="Helvetica,sans-Serif" font-size="10.00">/Ops.h.inc</text>
</a>
</g>
</g>
<!-- Node14&#45;&gt;Node17 -->
<g id="edge18_Node000014_Node000017" class="edge">
<title>Node14&#45;&gt;Node17</title>
<g id="a_edge18_Node000014_Node000017"><a xlink:title=" ">
<path fill="none" stroke="#63b8ff" d="M985.54,-132.61C982.24,-125.27 978.16,-116.18 974.38,-107.77"/>
<polygon fill="#63b8ff" stroke="#63b8ff" points="977.59,-106.39 970.3,-98.71 971.21,-109.26 977.59,-106.39"/>
</a>
</g>
</g>
<!-- Node18 -->
<g id="Node000018" class="node">
<title>Node18</title>
<g id="a_Node000018"><a xlink:href="_felt_2_i_r_2_types_8h_8inc.html" target="_top" xlink:title=" ">
<polygon fill="white" stroke="#666666" points="1128,-97 1030.25,-97 1030.25,-66.5 1128,-66.5 1128,-97"/>
<text text-anchor="start" x="1038.25" y="-83.5" font-family="Helvetica,sans-Serif" font-size="10.00">llzk/Dialect/Felt/IR</text>
<text text-anchor="middle" x="1079.12" y="-72.25" font-family="Helvetica,sans-Serif" font-size="10.00">/Types.h.inc</text>
</a>
</g>
</g>
<!-- Node14&#45;&gt;Node18 -->
<g id="edge19_Node000014_Node000018" class="edge">
<title>Node14&#45;&gt;Node18</title>
<g id="a_edge19_Node000014_Node000018"><a xlink:title=" ">
<path fill="none" stroke="#63b8ff" d="M1011.87,-132.61C1023.21,-124.2 1037.67,-113.48 1050.27,-104.14"/>
<polygon fill="#63b8ff" stroke="#63b8ff" points="1052.3,-107 1058.25,-98.23 1048.13,-101.37 1052.3,-107"/>
</a>
</g>
</g>
<!-- Node15&#45;&gt;Node12 -->
<g id="edge16_Node000015_Node000012" class="edge">
<title>Node15&#45;&gt;Node12</title>
<g id="a_edge16_Node000015_Node000012"><a xlink:title=" ">
<path fill="none" stroke="#63b8ff" d="M820.58,-66.11C801.35,-55.51 775.48,-41.25 756.33,-30.7"/>
<polygon fill="#63b8ff" stroke="#63b8ff" points="758.24,-27.75 747.79,-25.99 754.86,-33.88 758.24,-27.75"/>
</a>
</g>
</g>
<!-- Node16 -->
<g id="Node000016" class="node">
<title>Node16</title>
<g id="a_Node000016"><a xlink:href="_felt_2_i_r_2_dialect_8h_8inc.html" target="_top" xlink:title=" ">
<polygon fill="white" stroke="#666666" points="897,-30.5 799.25,-30.5 799.25,0 897,0 897,-30.5"/>
<text text-anchor="start" x="807.25" y="-17" font-family="Helvetica,sans-Serif" font-size="10.00">llzk/Dialect/Felt/IR</text>
<text text-anchor="middle" x="848.12" y="-5.75" font-family="Helvetica,sans-Serif" font-size="10.00">/Dialect.h.inc</text>
</a>
</g>
</g>
<!-- Node15&#45;&gt;Node16 -->
<g id="edge17_Node000015_Node000016" class="edge">
<title>Node15&#45;&gt;Node16</title>
<g id="a_edge17_Node000015_Node000016"><a xlink:title=" ">
<path fill="none" stroke="#63b8ff" d="M847.35,-66.11C847.46,-59.02 847.6,-50.29 847.72,-42.13"/>
<polygon fill="#63b8ff" stroke="#63b8ff" points="851.22,-42.39 847.88,-32.34 844.22,-42.29 851.22,-42.39"/>
</a>
</g>
</g>
<!-- Node20 -->
<g id="Node000020" class="node">
<title>Node20</title>
<g id="a_Node000020"><a xlink:title=" ">
<polygon fill="#e0e0e0" stroke="#999999" points="1256.38,-91.38 1145.88,-91.38 1145.88,-72.12 1256.38,-72.12 1256.38,-91.38"/>
<text text-anchor="middle" x="1201.12" y="-77.88" font-family="Helvetica,sans-Serif" font-size="10.00">mlir/IR/OpDefinition.h</text>
</a>
</g>
</g>
<!-- Node19&#45;&gt;Node20 -->
<g id="edge21_Node000019_Node000020" class="edge">
<title>Node19&#45;&gt;Node20</title>
<g id="a_edge21_Node000019_Node000020"><a xlink:title=" ">
<path fill="none" stroke="#63b8ff" d="M1177.93,-132.61C1182.16,-123.53 1187.63,-111.76 1192.2,-101.93"/>
<polygon fill="#63b8ff" stroke="#63b8ff" points="1195.34,-103.49 1196.38,-92.95 1188.99,-100.54 1195.34,-103.49"/>
</a>
</g>
</g>
<!-- Node21 -->
<g id="Node000021" class="node">
<title>Node21</title>
<g id="a_Node000021"><a xlink:title=" ">
<polygon fill="#e0e0e0" stroke="#999999" points="1373.38,-91.38 1274.88,-91.38 1274.88,-72.12 1373.38,-72.12 1373.38,-91.38"/>
<text text-anchor="middle" x="1324.12" y="-77.88" font-family="Helvetica,sans-Serif" font-size="10.00">mlir/IR/Operation.h</text>
</a>
</g>
</g>
<!-- Node19&#45;&gt;Node21 -->
<g id="edge22_Node000019_Node000021" class="edge">
<title>Node19&#45;&gt;Node21</title>
<g id="a_edge22_Node000019_Node000021"><a xlink:title=" ">
<path fill="none" stroke="#63b8ff" d="M1205.84,-132.61C1231.8,-121.67 1267.02,-106.82 1292.26,-96.18"/>
<polygon fill="#63b8ff" stroke="#63b8ff" points="1293.5,-99.46 1301.36,-92.35 1290.78,-93.01 1293.5,-99.46"/>
</a>
</g>
</g>
<!-- Node22 -->
<g id="Node000022" class="node">
<title>Node22</title>
<g id="a_Node000022"><a xlink:title=" ">
<polygon fill="#e0e0e0" stroke="#999999" points="1530.62,-91.38 1391.62,-91.38 1391.62,-72.12 1530.62,-72.12 1530.62,-91.38"/>
<text text-anchor="middle" x="1461.12" y="-77.88" font-family="Helvetica,sans-Serif" font-size="10.00">mlir/Support/LogicalResult.h</text>
</a>
</g>
</g>
<!-- Node19&#45;&gt;Node22 -->
<g id="edge23_Node000019_Node000022" class="edge">
<title>Node19&#45;&gt;Node22</title>
<g id="a_edge23_Node000019_Node000022"><a xlink:title=" ">
<path fill="none" stroke="#63b8ff" d="M1224.22,-135.01C1227.23,-134.33 1230.22,-133.65 1233.12,-133 1293.09,-119.5 1362.02,-104.36 1408.25,-94.26"/>
<polygon fill="#63b8ff" stroke="#63b8ff" points="1408.99,-97.68 1418.02,-92.13 1407.5,-90.84 1408.99,-97.68"/>
</a>
</g>
</g>
</g>
</svg>
