<?xml version="1.0" encoding="UTF-8" standalone="no"?>
<!DOCTYPE svg PUBLIC "-//W3C//DTD SVG 1.1//EN"
 "http://www.w3.org/Graphics/SVG/1.1/DTD/svg11.dtd">
<!-- Generated by graphviz version 12.2.1 (0)
 -->
<!-- Title: include/llzk/Dialect/Bool/IR/Dialect.h Pages: 1 -->
<svg width="2132pt" height="261pt"
 viewBox="0.00 0.00 2131.62 260.50" xmlns="http://www.w3.org/2000/svg" xmlns:xlink="http://www.w3.org/1999/xlink">
<g id="graph0" class="graph" transform="scale(1 1) rotate(0) translate(4 256.5)">
<title>include/llzk/Dialect/Bool/IR/Dialect.h</title>
<!-- Node1 -->
<g id="Node000001" class="node">
<title>Node1</title>
<g id="a_Node000001"><a xlink:title=" ">
<polygon fill="#999999" stroke="#666666" points="1894,-252.5 1795.5,-252.5 1795.5,-222 1894,-222 1894,-252.5"/>
<text text-anchor="start" x="1803.5" y="-239" font-family="Helvetica,sans-Serif" font-size="10.00">include/llzk/Dialect</text>
<text text-anchor="middle" x="1844.75" y="-227.75" font-family="Helvetica,sans-Serif" font-size="10.00">/Bool/IR/Dialect.h</text>
</a>
</g>
</g>
<!-- Node2 -->
<g id="Node000002" class="node">
<title>Node2</title>
<g id="a_Node000002"><a xlink:href="_bool_2_i_r_2_ops_8h.html" target="_top" xlink:title=" ">
<polygon fill="white" stroke="#666666" points="1847,-186 1748.5,-186 1748.5,-155.5 1847,-155.5 1847,-186"/>
<text text-anchor="start" x="1756.5" y="-172.5" font-family="Helvetica,sans-Serif" font-size="10.00">include/llzk/Dialect</text>
<text text-anchor="middle" x="1797.75" y="-161.25" font-family="Helvetica,sans-Serif" font-size="10.00">/Bool/IR/Ops.h</text>
</a>
</g>
</g>
<!-- Node1&#45;&gt;Node2 -->
<g id="edge1_Node000001_Node000002" class="edge">
<title>Node1&#45;&gt;Node2</title>
<g id="a_edge1_Node000001_Node000002"><a xlink:title=" ">
<path fill="none" stroke="#63b8ff" d="M1827.49,-212.57C1821.09,-203.78 1814.01,-194.07 1808.37,-186.33"/>
<polygon fill="#63b8ff" stroke="#63b8ff" points="1824.48,-214.37 1833.19,-220.39 1830.13,-210.25 1824.48,-214.37"/>
</a>
</g>
</g>
<!-- Node6 -->
<g id="Node000006" class="node">
<title>Node6</title>
<g id="a_Node000006"><a xlink:href="_bool_2_i_r_2_dialect_8cpp.html" target="_top" xlink:title=" ">
<polygon fill="white" stroke="#666666" points="2044.5,-113.88 1949,-113.88 1949,-83.38 2044.5,-83.38 2044.5,-113.88"/>
<text text-anchor="start" x="1957" y="-100.38" font-family="Helvetica,sans-Serif" font-size="10.00">lib/Dialect/Bool/IR</text>
<text text-anchor="middle" x="1996.75" y="-89.12" font-family="Helvetica,sans-Serif" font-size="10.00">/Dialect.cpp</text>
</a>
</g>
</g>
<!-- Node1&#45;&gt;Node6 -->
<g id="edge34_Node000001_Node000006" class="edge">
<title>Node1&#45;&gt;Node6</title>
<g id="a_edge34_Node000001_Node000006"><a xlink:title=" ">
<path fill="none" stroke="#63b8ff" d="M1861.5,-212.47C1874.16,-195.47 1892.57,-172.66 1911.75,-155.5 1929.78,-139.37 1952.86,-124.5 1970.41,-114.16"/>
<polygon fill="#63b8ff" stroke="#63b8ff" points="1858.71,-210.36 1855.65,-220.5 1864.37,-214.48 1858.71,-210.36"/>
</a>
</g>
</g>
<!-- Node9 -->
<g id="Node000009" class="node">
<title>Node9</title>
<g id="a_Node000009"><a xlink:href="_pass_base_8h.html" target="_top" xlink:title=" ">
<polygon fill="white" stroke="#666666" points="1106,-180.38 959.5,-180.38 959.5,-161.12 1106,-161.12 1106,-180.38"/>
<text text-anchor="middle" x="1032.75" y="-166.88" font-family="Helvetica,sans-Serif" font-size="10.00">include/llzk/Pass/PassBase.h</text>
</a>
</g>
</g>
<!-- Node1&#45;&gt;Node9 -->
<g id="edge10_Node000001_Node000009" class="edge">
<title>Node1&#45;&gt;Node9</title>
<g id="a_edge10_Node000001_Node000009"><a xlink:title=" ">
<path fill="none" stroke="#63b8ff" d="M1783.77,-231.41C1637.15,-219.76 1265.27,-190.22 1106.47,-177.61"/>
<polygon fill="#63b8ff" stroke="#63b8ff" points="1783.42,-234.89 1793.67,-232.19 1783.98,-227.91 1783.42,-234.89"/>
</a>
</g>
</g>
<!-- Node26 -->
<g id="Node000026" class="node">
<title>Node26</title>
<g id="a_Node000026"><a xlink:href="_init_dialects_8cpp.html" target="_top" xlink:title=" ">
<polygon fill="white" stroke="#666666" points="2051.12,-180.38 1920.38,-180.38 1920.38,-161.12 2051.12,-161.12 2051.12,-180.38"/>
<text text-anchor="middle" x="1985.75" y="-166.88" font-family="Helvetica,sans-Serif" font-size="10.00">lib/Dialect/InitDialects.cpp</text>
</a>
</g>
</g>
<!-- Node1&#45;&gt;Node26 -->
<g id="edge35_Node000001_Node000026" class="edge">
<title>Node1&#45;&gt;Node26</title>
<g id="a_edge35_Node000001_Node000026"><a xlink:title=" ">
<path fill="none" stroke="#63b8ff" d="M1887.17,-216.85C1913.35,-204.87 1945.72,-190.06 1966.05,-180.76"/>
<polygon fill="#63b8ff" stroke="#63b8ff" points="1885.76,-213.64 1878.12,-220.98 1888.67,-220.01 1885.76,-213.64"/>
</a>
</g>
</g>
<!-- Node2&#45;&gt;Node2 -->
<g id="edge5_Node000002_Node000002" class="edge">
<title>Node2&#45;&gt;Node2</title>
<g id="a_edge5_Node000002_Node000002"><a xlink:title=" ">
<path fill="none" stroke="#63b8ff" d="M1858.12,-179.88C1862.39,-177.8 1865,-174.76 1865,-170.75 1865,-164 1857.6,-159.99 1847.31,-158.72"/>
<polygon fill="#63b8ff" stroke="#63b8ff" points="1857.52,-176.41 1848.77,-182.39 1859.34,-183.17 1857.52,-176.41"/>
</a>
</g>
</g>
<!-- Node3 -->
<g id="Node000003" class="node">
<title>Node3</title>
<g id="a_Node000003"><a xlink:href="_interval_analysis_8h.html" target="_top" xlink:title=" ">
<polygon fill="white" stroke="#666666" points="1931.38,-113.88 1826.12,-113.88 1826.12,-83.38 1931.38,-83.38 1931.38,-113.88"/>
<text text-anchor="start" x="1834.12" y="-100.38" font-family="Helvetica,sans-Serif" font-size="10.00">include/llzk/Analysis</text>
<text text-anchor="middle" x="1878.75" y="-89.12" font-family="Helvetica,sans-Serif" font-size="10.00">/IntervalAnalysis.h</text>
</a>
</g>
</g>
<!-- Node2&#45;&gt;Node3 -->
<g id="edge2_Node000002_Node000003" class="edge">
<title>Node2&#45;&gt;Node3</title>
<g id="a_edge2_Node000002_Node000003"><a xlink:title=" ">
<path fill="none" stroke="#63b8ff" d="M1822.88,-147.99C1835.6,-136.98 1850.7,-123.91 1861.99,-114.14"/>
<polygon fill="#63b8ff" stroke="#63b8ff" points="1820.95,-145.04 1815.68,-154.23 1825.53,-150.33 1820.95,-145.04"/>
</a>
</g>
</g>
<!-- Node5 -->
<g id="Node000005" class="node">
<title>Node5</title>
<g id="a_Node000005"><a xlink:href="_interval_analysis_pass_8cpp.html" target="_top" xlink:title="This file implements the &#45;llzk&#45;print&#45;interval&#45;analysis pass.">
<polygon fill="white" stroke="#666666" points="1948.25,-36.12 1809.25,-36.12 1809.25,-5.62 1948.25,-5.62 1948.25,-36.12"/>
<text text-anchor="start" x="1817.25" y="-22.62" font-family="Helvetica,sans-Serif" font-size="10.00">lib/Analysis/IntervalAnalysis</text>
<text text-anchor="middle" x="1878.75" y="-11.38" font-family="Helvetica,sans-Serif" font-size="10.00">Pass.cpp</text>
</a>
</g>
</g>
<!-- Node2&#45;&gt;Node5 -->
<g id="edge6_Node000002_Node000005" class="edge">
<title>Node2&#45;&gt;Node5</title>
<g id="a_edge6_Node000002_Node000005"><a xlink:title=" ">
<path fill="none" stroke="#63b8ff" d="M1798.79,-143.79C1800.56,-124.47 1805.12,-98.04 1816.75,-77.75 1826.33,-61.03 1842.69,-46.6 1856.2,-36.6"/>
<polygon fill="#63b8ff" stroke="#63b8ff" points="1795.32,-143.33 1798.11,-153.55 1802.3,-143.82 1795.32,-143.33"/>
</a>
</g>
</g>
<!-- Node2&#45;&gt;Node6 -->
<g id="edge7_Node000002_Node000006" class="edge">
<title>Node2&#45;&gt;Node6</title>
<g id="a_edge7_Node000002_Node000006"><a xlink:title=" ">
<path fill="none" stroke="#63b8ff" d="M1850.46,-151.27C1877.47,-141.79 1910.87,-130.05 1940.75,-119.5 1945.52,-117.82 1950.51,-116.05 1955.47,-114.29"/>
<polygon fill="#63b8ff" stroke="#63b8ff" points="1849.39,-147.94 1841.11,-154.55 1851.71,-154.54 1849.39,-147.94"/>
</a>
</g>
</g>
<!-- Node7 -->
<g id="Node000007" class="node">
<title>Node7</title>
<g id="a_Node000007"><a xlink:href="_bool_2_i_r_2_ops_8cpp.html" target="_top" xlink:title=" ">
<polygon fill="white" stroke="#666666" points="1769.5,-113.88 1674,-113.88 1674,-83.38 1769.5,-83.38 1769.5,-113.88"/>
<text text-anchor="start" x="1682" y="-100.38" font-family="Helvetica,sans-Serif" font-size="10.00">lib/Dialect/Bool/IR</text>
<text text-anchor="middle" x="1721.75" y="-89.12" font-family="Helvetica,sans-Serif" font-size="10.00">/Ops.cpp</text>
</a>
</g>
</g>
<!-- Node2&#45;&gt;Node7 -->
<g id="edge8_Node000002_Node000007" class="edge">
<title>Node2&#45;&gt;Node7</title>
<g id="a_edge8_Node000002_Node000007"><a xlink:title=" ">
<path fill="none" stroke="#63b8ff" d="M1773.82,-147.67C1761.96,-136.73 1747.97,-123.82 1737.48,-114.14"/>
<polygon fill="#63b8ff" stroke="#63b8ff" points="1771.17,-149.98 1780.89,-154.19 1775.91,-144.84 1771.17,-149.98"/>
</a>
</g>
</g>
<!-- Node8 -->
<g id="Node000008" class="node">
<title>Node8</title>
<g id="a_Node000008"><a xlink:href="_l_l_z_k_redundant_operation_elimination_pass_8cpp.html" target="_top" xlink:title="This file implements the &#45;llzk&#45;duplicate&#45;op&#45;elim pass.">
<polygon fill="white" stroke="#666666" points="1271.62,-36.12 1119.88,-36.12 1119.88,-5.62 1271.62,-5.62 1271.62,-36.12"/>
<text text-anchor="start" x="1127.88" y="-22.62" font-family="Helvetica,sans-Serif" font-size="10.00">lib/Transforms/LLZKRedundant</text>
<text text-anchor="middle" x="1195.75" y="-11.38" font-family="Helvetica,sans-Serif" font-size="10.00">OperationEliminationPass.cpp</text>
</a>
</g>
</g>
<!-- Node2&#45;&gt;Node8 -->
<g id="edge9_Node000002_Node000008" class="edge">
<title>Node2&#45;&gt;Node8</title>
<g id="a_edge9_Node000002_Node000008"><a xlink:title=" ">
<path fill="none" stroke="#63b8ff" d="M1736.84,-164.4C1668.95,-157.57 1556.29,-143.65 1461.75,-119.5 1375.72,-97.52 1278.77,-58 1229.06,-36.61"/>
<polygon fill="#63b8ff" stroke="#63b8ff" points="1736.36,-167.87 1746.65,-165.37 1737.04,-160.9 1736.36,-167.87"/>
</a>
</g>
</g>
<!-- Node4 -->
<g id="Node000004" class="node">
<title>Node4</title>
<g id="a_Node000004"><a xlink:href="_interval_analysis_8cpp.html" target="_top" xlink:title=" ">
<polygon fill="white" stroke="#666666" points="2123.62,-30.5 1965.88,-30.5 1965.88,-11.25 2123.62,-11.25 2123.62,-30.5"/>
<text text-anchor="middle" x="2044.75" y="-17" font-family="Helvetica,sans-Serif" font-size="10.00">lib/Analysis/IntervalAnalysis.cpp</text>
</a>
</g>
</g>
<!-- Node3&#45;&gt;Node4 -->
<g id="edge3_Node000003_Node000004" class="edge">
<title>Node3&#45;&gt;Node4</title>
<g id="a_edge3_Node000003_Node000004"><a xlink:title=" ">
<path fill="none" stroke="#63b8ff" d="M1921.12,-78.29C1954.43,-63.09 1999.32,-42.61 2024.83,-30.97"/>
<polygon fill="#63b8ff" stroke="#63b8ff" points="1919.78,-75.06 1912.13,-82.39 1922.68,-81.42 1919.78,-75.06"/>
</a>
</g>
</g>
<!-- Node3&#45;&gt;Node5 -->
<g id="edge4_Node000003_Node000005" class="edge">
<title>Node3&#45;&gt;Node5</title>
<g id="a_edge4_Node000003_Node000005"><a xlink:title=" ">
<path fill="none" stroke="#63b8ff" d="M1878.75,-71.6C1878.75,-59.84 1878.75,-46.38 1878.75,-36.44"/>
<polygon fill="#63b8ff" stroke="#63b8ff" points="1875.25,-71.51 1878.75,-81.51 1882.25,-71.51 1875.25,-71.51"/>
</a>
</g>
</g>
<!-- Node10 -->
<g id="Node000010" class="node">
<title>Node10</title>
<g id="a_Node000010"><a xlink:href="_analysis_passes_8h.html" target="_top" xlink:title=" ">
<polygon fill="white" stroke="#666666" points="1576.38,-113.88 1471.12,-113.88 1471.12,-83.38 1576.38,-83.38 1576.38,-113.88"/>
<text text-anchor="start" x="1479.12" y="-100.38" font-family="Helvetica,sans-Serif" font-size="10.00">include/llzk/Analysis</text>
<text text-anchor="middle" x="1523.75" y="-89.12" font-family="Helvetica,sans-Serif" font-size="10.00">/AnalysisPasses.h</text>
</a>
</g>
</g>
<!-- Node9&#45;&gt;Node10 -->
<g id="edge11_Node000009_Node000010" class="edge">
<title>Node9&#45;&gt;Node10</title>
<g id="a_edge11_Node000009_Node000010"><a xlink:title=" ">
<path fill="none" stroke="#63b8ff" d="M1107.68,-159.05C1207.89,-144.74 1383.08,-119.72 1470.69,-107.2"/>
<polygon fill="#63b8ff" stroke="#63b8ff" points="1107.34,-155.56 1097.93,-160.44 1108.33,-162.49 1107.34,-155.56"/>
</a>
</g>
</g>
<!-- Node14 -->
<g id="Node000014" class="node">
<title>Node14</title>
<g id="a_Node000014"><a xlink:href="_array_2_transforms_2_transformation_passes_8h.html" target="_top" xlink:title=" ">
<polygon fill="white" stroke="#666666" points="1114.25,-119.5 951.25,-119.5 951.25,-77.75 1114.25,-77.75 1114.25,-119.5"/>
<text text-anchor="start" x="959.25" y="-106" font-family="Helvetica,sans-Serif" font-size="10.00">include/llzk/Dialect</text>
<text text-anchor="start" x="959.25" y="-94.75" font-family="Helvetica,sans-Serif" font-size="10.00">/Array/Transforms/Transformation</text>
<text text-anchor="middle" x="1032.75" y="-83.5" font-family="Helvetica,sans-Serif" font-size="10.00">Passes.h</text>
</a>
</g>
</g>
<!-- Node9&#45;&gt;Node14 -->
<g id="edge16_Node000009_Node000014" class="edge">
<title>Node9&#45;&gt;Node14</title>
<g id="a_edge16_Node000009_Node000014"><a xlink:title=" ">
<path fill="none" stroke="#63b8ff" d="M1032.75,-149.56C1032.75,-140.24 1032.75,-129.21 1032.75,-119.89"/>
<polygon fill="#63b8ff" stroke="#63b8ff" points="1029.25,-149.36 1032.75,-159.36 1036.25,-149.36 1029.25,-149.36"/>
</a>
</g>
</g>
<!-- Node16 -->
<g id="Node000016" class="node">
<title>Node16</title>
<g id="a_Node000016"><a xlink:href="_inline_includes_pass_8h.html" target="_top" xlink:title=" ">
<polygon fill="white" stroke="#666666" points="1298.75,-119.5 1132.75,-119.5 1132.75,-77.75 1298.75,-77.75 1298.75,-119.5"/>
<text text-anchor="start" x="1140.75" y="-106" font-family="Helvetica,sans-Serif" font-size="10.00">include/llzk/Dialect</text>
<text text-anchor="start" x="1140.75" y="-94.75" font-family="Helvetica,sans-Serif" font-size="10.00">/Include/Transforms/InlineIncludes</text>
<text text-anchor="middle" x="1215.75" y="-83.5" font-family="Helvetica,sans-Serif" font-size="10.00">Pass.h</text>
</a>
</g>
</g>
<!-- Node9&#45;&gt;Node16 -->
<g id="edge19_Node000009_Node000016" class="edge">
<title>Node9&#45;&gt;Node16</title>
<g id="a_edge19_Node000009_Node000016"><a xlink:title=" ">
<path fill="none" stroke="#63b8ff" d="M1066.75,-156.72C1093.68,-146.4 1131.78,-131.8 1162.71,-119.95"/>
<polygon fill="#63b8ff" stroke="#63b8ff" points="1065.8,-153.34 1057.71,-160.18 1068.3,-159.87 1065.8,-153.34"/>
</a>
</g>
</g>
<!-- Node18 -->
<g id="Node000018" class="node">
<title>Node18</title>
<g id="a_Node000018"><a xlink:href="_polymorphic_2_transforms_2_transformation_passes_8h.html" target="_top" xlink:title=" ">
<polygon fill="white" stroke="#666666" points="623.5,-119.5 498,-119.5 498,-77.75 623.5,-77.75 623.5,-119.5"/>
<text text-anchor="start" x="506" y="-106" font-family="Helvetica,sans-Serif" font-size="10.00">include/llzk/Dialect</text>
<text text-anchor="start" x="506" y="-94.75" font-family="Helvetica,sans-Serif" font-size="10.00">/Polymorphic/Transforms</text>
<text text-anchor="middle" x="560.75" y="-83.5" font-family="Helvetica,sans-Serif" font-size="10.00">/TransformationPasses.h</text>
</a>
</g>
</g>
<!-- Node9&#45;&gt;Node18 -->
<g id="edge22_Node000009_Node000018" class="edge">
<title>Node9&#45;&gt;Node18</title>
<g id="a_edge22_Node000009_Node000018"><a xlink:title=" ">
<path fill="none" stroke="#63b8ff" d="M948.07,-162.69C866.72,-155.07 740.58,-141.04 632.75,-119.5 629.83,-118.92 626.84,-118.28 623.84,-117.6"/>
<polygon fill="#63b8ff" stroke="#63b8ff" points="947.46,-166.15 957.74,-163.58 948.11,-159.18 947.46,-166.15"/>
</a>
</g>
</g>
<!-- Node20 -->
<g id="Node000020" class="node">
<title>Node20</title>
<g id="a_Node000020"><a xlink:href="_l_l_z_k_transformation_passes_8h.html" target="_top" xlink:title=" ">
<polygon fill="white" stroke="#666666" points="790.12,-113.88 641.38,-113.88 641.38,-83.38 790.12,-83.38 790.12,-113.88"/>
<text text-anchor="start" x="649.38" y="-100.38" font-family="Helvetica,sans-Serif" font-size="10.00">include/llzk/Transforms</text>
<text text-anchor="middle" x="715.75" y="-89.12" font-family="Helvetica,sans-Serif" font-size="10.00">/LLZKTransformationPasses.h</text>
</a>
</g>
</g>
<!-- Node9&#45;&gt;Node20 -->
<g id="edge25_Node000009_Node000020" class="edge">
<title>Node9&#45;&gt;Node20</title>
<g id="a_edge25_Node000009_Node000020"><a xlink:title=" ">
<path fill="none" stroke="#63b8ff" d="M977.87,-158.34C930.4,-148.39 859.95,-133.4 798.75,-119.5 791.53,-117.86 783.96,-116.1 776.45,-114.33"/>
<polygon fill="#63b8ff" stroke="#63b8ff" points="977.14,-161.77 987.64,-160.39 978.57,-154.92 977.14,-161.77"/>
</a>
</g>
</g>
<!-- Node24 -->
<g id="Node000024" class="node">
<title>Node24</title>
<g id="a_Node000024"><a xlink:href="_l_l_z_k_validation_passes_8h.html" target="_top" xlink:title=" ">
<polygon fill="white" stroke="#666666" points="933.5,-113.88 808,-113.88 808,-83.38 933.5,-83.38 933.5,-113.88"/>
<text text-anchor="start" x="816" y="-100.38" font-family="Helvetica,sans-Serif" font-size="10.00">include/llzk/Validators</text>
<text text-anchor="middle" x="870.75" y="-89.12" font-family="Helvetica,sans-Serif" font-size="10.00">/LLZKValidationPasses.h</text>
</a>
</g>
</g>
<!-- Node9&#45;&gt;Node24 -->
<g id="edge31_Node000009_Node000024" class="edge">
<title>Node9&#45;&gt;Node24</title>
<g id="a_edge31_Node000009_Node000024"><a xlink:title=" ">
<path fill="none" stroke="#63b8ff" d="M1001.59,-156.26C973.85,-144.26 933.37,-126.73 904.79,-114.36"/>
<polygon fill="#63b8ff" stroke="#63b8ff" points="999.95,-159.36 1010.51,-160.12 1002.73,-152.94 999.95,-159.36"/>
</a>
</g>
</g>
<!-- Node10&#45;&gt;Node5 -->
<g id="edge14_Node000010_Node000005" class="edge">
<title>Node10&#45;&gt;Node5</title>
<g id="a_edge14_Node000010_Node000005"><a xlink:title=" ">
<path fill="none" stroke="#63b8ff" d="M1588,-85.5C1644.05,-74.71 1727.49,-58.14 1799.75,-41.75 1806.92,-40.12 1814.44,-38.34 1821.87,-36.52"/>
<polygon fill="#63b8ff" stroke="#63b8ff" points="1587.47,-82.04 1578.3,-87.36 1588.78,-88.91 1587.47,-82.04"/>
</a>
</g>
</g>
<!-- Node11 -->
<g id="Node000011" class="node">
<title>Node11</title>
<g id="a_Node000011"><a xlink:href="_call_graph_passes_8cpp.html" target="_top" xlink:title="This file implements the &#45;llzk&#45;print&#45;call&#45;graph and &#45;llzk&#45;print&#45;call&#45;graph&#45;sccs passes.">
<polygon fill="white" stroke="#666666" points="1791,-30.5 1626.5,-30.5 1626.5,-11.25 1791,-11.25 1791,-30.5"/>
<text text-anchor="middle" x="1708.75" y="-17" font-family="Helvetica,sans-Serif" font-size="10.00">lib/Analysis/CallGraphPasses.cpp</text>
</a>
</g>
</g>
<!-- Node10&#45;&gt;Node11 -->
<g id="edge12_Node000010_Node000011" class="edge">
<title>Node10&#45;&gt;Node11</title>
<g id="a_edge12_Node000010_Node000011"><a xlink:title=" ">
<path fill="none" stroke="#63b8ff" d="M1570.01,-78.68C1607.22,-63.45 1657.87,-42.71 1686.55,-30.97"/>
<polygon fill="#63b8ff" stroke="#63b8ff" points="1568.75,-75.42 1560.82,-82.45 1571.4,-81.9 1568.75,-75.42"/>
</a>
</g>
</g>
<!-- Node12 -->
<g id="Node000012" class="node">
<title>Node12</title>
<g id="a_Node000012"><a xlink:href="_constraint_dependency_graph_pass_8cpp.html" target="_top" xlink:title="This file implements the &#45;llzk&#45;print&#45;constraint&#45;dependency&#45;graphs pass.">
<polygon fill="white" stroke="#666666" points="1608.25,-36.12 1439.25,-36.12 1439.25,-5.62 1608.25,-5.62 1608.25,-36.12"/>
<text text-anchor="start" x="1447.25" y="-22.62" font-family="Helvetica,sans-Serif" font-size="10.00">lib/Analysis/ConstraintDependency</text>
<text text-anchor="middle" x="1523.75" y="-11.38" font-family="Helvetica,sans-Serif" font-size="10.00">GraphPass.cpp</text>
</a>
</g>
</g>
<!-- Node10&#45;&gt;Node12 -->
<g id="edge13_Node000010_Node000012" class="edge">
<title>Node10&#45;&gt;Node12</title>
<g id="a_edge13_Node000010_Node000012"><a xlink:title=" ">
<path fill="none" stroke="#63b8ff" d="M1523.75,-71.6C1523.75,-59.84 1523.75,-46.38 1523.75,-36.44"/>
<polygon fill="#63b8ff" stroke="#63b8ff" points="1520.25,-71.51 1523.75,-81.51 1527.25,-71.51 1520.25,-71.51"/>
</a>
</g>
</g>
<!-- Node13 -->
<g id="Node000013" class="node">
<title>Node13</title>
<g id="a_Node000013"><a xlink:href="llzk-opt_8cpp.html" target="_top" xlink:title="This file implements a version of the mlir&#45;opt tool configured for use on LLZK files.">
<polygon fill="white" stroke="#666666" points="945.5,-36.12 856,-36.12 856,-5.62 945.5,-5.62 945.5,-36.12"/>
<text text-anchor="start" x="864" y="-22.62" font-family="Helvetica,sans-Serif" font-size="10.00">tools/llzk&#45;opt/llzk</text>
<text text-anchor="middle" x="900.75" y="-11.38" font-family="Helvetica,sans-Serif" font-size="10.00">&#45;opt.cpp</text>
</a>
</g>
</g>
<!-- Node10&#45;&gt;Node13 -->
<g id="edge15_Node000010_Node000013" class="edge">
<title>Node10&#45;&gt;Node13</title>
<g id="a_edge15_Node000010_Node000013"><a xlink:title=" ">
<path fill="none" stroke="#63b8ff" d="M1459.73,-91.78C1316.15,-78.61 979.07,-47.32 954.75,-41.75 948.81,-40.39 942.64,-38.55 936.67,-36.53"/>
<polygon fill="#63b8ff" stroke="#63b8ff" points="1459.17,-95.24 1469.45,-92.67 1459.81,-88.27 1459.17,-95.24"/>
</a>
</g>
</g>
<!-- Node14&#45;&gt;Node13 -->
<g id="edge18_Node000014_Node000013" class="edge">
<title>Node14&#45;&gt;Node13</title>
<g id="a_edge18_Node000014_Node000013"><a xlink:title=" ">
<path fill="none" stroke="#63b8ff" d="M987.58,-71.71C967.07,-59.93 943.55,-46.44 926.17,-36.46"/>
<polygon fill="#63b8ff" stroke="#63b8ff" points="985.65,-74.63 996.06,-76.57 989.13,-68.56 985.65,-74.63"/>
</a>
</g>
</g>
<!-- Node15 -->
<g id="Node000015" class="node">
<title>Node15</title>
<g id="a_Node000015"><a xlink:href="_array_to_scalar_pass_8cpp.html" target="_top" xlink:title="This file implements the &#45;llzk&#45;array&#45;to&#45;scalar pass.">
<polygon fill="white" stroke="#666666" points="1101.88,-36.12 963.62,-36.12 963.62,-5.62 1101.88,-5.62 1101.88,-36.12"/>
<text text-anchor="start" x="971.62" y="-22.62" font-family="Helvetica,sans-Serif" font-size="10.00">lib/Dialect/Array/Transforms</text>
<text text-anchor="middle" x="1032.75" y="-11.38" font-family="Helvetica,sans-Serif" font-size="10.00">/ArrayToScalarPass.cpp</text>
</a>
</g>
</g>
<!-- Node14&#45;&gt;Node15 -->
<g id="edge17_Node000014_Node000015" class="edge">
<title>Node14&#45;&gt;Node15</title>
<g id="a_edge17_Node000014_Node000015"><a xlink:title=" ">
<path fill="none" stroke="#63b8ff" d="M1032.75,-66.06C1032.75,-55.69 1032.75,-44.67 1032.75,-36.23"/>
<polygon fill="#63b8ff" stroke="#63b8ff" points="1029.25,-65.81 1032.75,-75.81 1036.25,-65.81 1029.25,-65.81"/>
</a>
</g>
</g>
<!-- Node16&#45;&gt;Node13 -->
<g id="edge21_Node000016_Node000013" class="edge">
<title>Node16&#45;&gt;Node13</title>
<g id="a_edge21_Node000016_Node000013"><a xlink:title=" ">
<path fill="none" stroke="#63b8ff" d="M1121.73,-77.54C1047.36,-61.64 955.81,-42.06 954.75,-41.75 949.47,-40.22 943.97,-38.43 938.58,-36.57"/>
<polygon fill="#63b8ff" stroke="#63b8ff" points="1120.57,-80.87 1131.09,-79.54 1122.04,-74.02 1120.57,-80.87"/>
</a>
</g>
</g>
<!-- Node17 -->
<g id="Node000017" class="node">
<title>Node17</title>
<g id="a_Node000017"><a xlink:href="_inline_includes_pass_8cpp.html" target="_top" xlink:title="This file implements the &#45;llzk&#45;inline&#45;includes pass.">
<polygon fill="white" stroke="#666666" points="1421.5,-41.75 1290,-41.75 1290,0 1421.5,0 1421.5,-41.75"/>
<text text-anchor="start" x="1298" y="-28.25" font-family="Helvetica,sans-Serif" font-size="10.00">lib/Dialect/Include</text>
<text text-anchor="start" x="1298" y="-17" font-family="Helvetica,sans-Serif" font-size="10.00">/Transforms/InlineIncludes</text>
<text text-anchor="middle" x="1355.75" y="-5.75" font-family="Helvetica,sans-Serif" font-size="10.00">Pass.cpp</text>
</a>
</g>
</g>
<!-- Node16&#45;&gt;Node17 -->
<g id="edge20_Node000016_Node000017" class="edge">
<title>Node16&#45;&gt;Node17</title>
<g id="a_edge20_Node000016_Node000017"><a xlink:title=" ">
<path fill="none" stroke="#63b8ff" d="M1263.23,-71.93C1281.14,-62.24 1301.25,-51.37 1318.13,-42.23"/>
<polygon fill="#63b8ff" stroke="#63b8ff" points="1261.73,-68.77 1254.6,-76.61 1265.06,-74.92 1261.73,-68.77"/>
</a>
</g>
</g>
<!-- Node18&#45;&gt;Node13 -->
<g id="edge24_Node000018_Node000013" class="edge">
<title>Node18&#45;&gt;Node13</title>
<g id="a_edge24_Node000018_Node000013"><a xlink:title=" ">
<path fill="none" stroke="#63b8ff" d="M635.04,-77.39C728.98,-57.56 756.99,-65.59 846.75,-41.75 852.25,-40.29 857.98,-38.49 863.57,-36.58"/>
<polygon fill="#63b8ff" stroke="#63b8ff" points="634.38,-73.95 625.35,-79.48 635.87,-80.79 634.38,-73.95"/>
</a>
</g>
</g>
<!-- Node19 -->
<g id="Node000019" class="node">
<title>Node19</title>
<g id="a_Node000019"><a xlink:href="_flattening_pass_8cpp.html" target="_top" xlink:title="This file implements the &#45;llzk&#45;flatten pass.">
<polygon fill="white" stroke="#666666" points="155.5,-36.12 0,-36.12 0,-5.62 155.5,-5.62 155.5,-36.12"/>
<text text-anchor="start" x="8" y="-22.62" font-family="Helvetica,sans-Serif" font-size="10.00">lib/Dialect/Polymorphic</text>
<text text-anchor="middle" x="77.75" y="-11.38" font-family="Helvetica,sans-Serif" font-size="10.00">/Transforms/FlatteningPass.cpp</text>
</a>
</g>
</g>
<!-- Node18&#45;&gt;Node19 -->
<g id="edge23_Node000018_Node000019" class="edge">
<title>Node18&#45;&gt;Node19</title>
<g id="a_edge23_Node000018_Node000019"><a xlink:title=" ">
<path fill="none" stroke="#63b8ff" d="M486.33,-89.03C406.51,-79.36 276.2,-62.3 164.75,-41.75 156.37,-40.2 147.58,-38.41 138.93,-36.53"/>
<polygon fill="#63b8ff" stroke="#63b8ff" points="485.88,-92.5 496.23,-90.22 486.72,-85.55 485.88,-92.5"/>
</a>
</g>
</g>
<!-- Node20&#45;&gt;Node8 -->
<g id="edge26_Node000020_Node000008" class="edge">
<title>Node20&#45;&gt;Node8</title>
<g id="a_edge26_Node000020_Node000008"><a xlink:title=" ">
<path fill="none" stroke="#63b8ff" d="M784.03,-80.59C789,-79.56 793.94,-78.6 798.75,-77.75 936.21,-53.45 973.23,-65.68 1110.75,-41.75 1119.26,-40.27 1128.2,-38.46 1136.94,-36.55"/>
<polygon fill="#63b8ff" stroke="#63b8ff" points="783.68,-77.08 774.64,-82.61 785.15,-83.93 783.68,-77.08"/>
</a>
</g>
</g>
<!-- Node20&#45;&gt;Node13 -->
<g id="edge30_Node000020_Node000013" class="edge">
<title>Node20&#45;&gt;Node13</title>
<g id="a_edge30_Node000020_Node000013"><a xlink:title=" ">
<path fill="none" stroke="#63b8ff" d="M761.81,-78.76C793.68,-65.71 835.48,-48.6 864.87,-36.56"/>
<polygon fill="#63b8ff" stroke="#63b8ff" points="760.75,-75.42 752.82,-82.45 763.4,-81.9 760.75,-75.42"/>
</a>
</g>
</g>
<!-- Node21 -->
<g id="Node000021" class="node">
<title>Node21</title>
<g id="a_Node000021"><a xlink:href="_l_l_z_k_redundant_read_and_write_elimination_pass_8cpp.html" target="_top" xlink:title="This file implements the &#45;llzk&#45;duplicate&#45;read&#45;write&#45;elim pass.">
<polygon fill="white" stroke="#666666" points="341.88,-36.12 173.62,-36.12 173.62,-5.62 341.88,-5.62 341.88,-36.12"/>
<text text-anchor="start" x="181.62" y="-22.62" font-family="Helvetica,sans-Serif" font-size="10.00">lib/Transforms/LLZKRedundant</text>
<text text-anchor="middle" x="257.75" y="-11.38" font-family="Helvetica,sans-Serif" font-size="10.00">ReadAndWriteEliminationPass.cpp</text>
</a>
</g>
</g>
<!-- Node20&#45;&gt;Node21 -->
<g id="edge27_Node000020_Node000021" class="edge">
<title>Node20&#45;&gt;Node21</title>
<g id="a_edge27_Node000020_Node000021"><a xlink:title=" ">
<path fill="none" stroke="#63b8ff" d="M646.8,-80.52C642.06,-79.53 637.34,-78.59 632.75,-77.75 508.9,-55.06 475.89,-62.79 351.75,-41.75 342.79,-40.23 333.38,-38.46 324.12,-36.61"/>
<polygon fill="#63b8ff" stroke="#63b8ff" points="645.88,-83.9 656.39,-82.6 647.36,-77.06 645.88,-83.9"/>
</a>
</g>
</g>
<!-- Node22 -->
<g id="Node000022" class="node">
<title>Node22</title>
<g id="a_Node000022"><a xlink:href="_l_l_z_k_unused_declaration_elimination_pass_8cpp.html" target="_top" xlink:title="This file implements the &#45;llzk&#45;unused&#45;declaration&#45;elim pass.">
<polygon fill="white" stroke="#666666" points="515.12,-36.12 360.38,-36.12 360.38,-5.62 515.12,-5.62 515.12,-36.12"/>
<text text-anchor="start" x="368.38" y="-22.62" font-family="Helvetica,sans-Serif" font-size="10.00">lib/Transforms/LLZKUnused</text>
<text text-anchor="middle" x="437.75" y="-11.38" font-family="Helvetica,sans-Serif" font-size="10.00">DeclarationEliminationPass.cpp</text>
</a>
</g>
</g>
<!-- Node20&#45;&gt;Node22 -->
<g id="edge28_Node000020_Node000022" class="edge">
<title>Node20&#45;&gt;Node22</title>
<g id="a_edge28_Node000020_Node000022"><a xlink:title=" ">
<path fill="none" stroke="#63b8ff" d="M650.83,-79.94C602.41,-66.74 537.04,-48.93 491.53,-36.53"/>
<polygon fill="#63b8ff" stroke="#63b8ff" points="649.79,-83.28 660.36,-82.53 651.63,-76.53 649.79,-83.28"/>
</a>
</g>
</g>
<!-- Node23 -->
<g id="Node000023" class="node">
<title>Node23</title>
<g id="a_Node000023"><a xlink:href="_transformation_pass_pipelines_8cpp.html" target="_top" xlink:title="This file implements logic for registering the &#45;llzk&#45;remove&#45;unnecessary&#45;ops and &#45;llzk&#45;remove&#45;unnecess...">
<polygon fill="white" stroke="#666666" points="680,-36.12 533.5,-36.12 533.5,-5.62 680,-5.62 680,-36.12"/>
<text text-anchor="start" x="541.5" y="-22.62" font-family="Helvetica,sans-Serif" font-size="10.00">lib/Transforms/Transformation</text>
<text text-anchor="middle" x="606.75" y="-11.38" font-family="Helvetica,sans-Serif" font-size="10.00">PassPipelines.cpp</text>
</a>
</g>
</g>
<!-- Node20&#45;&gt;Node23 -->
<g id="edge29_Node000020_Node000023" class="edge">
<title>Node20&#45;&gt;Node23</title>
<g id="a_edge29_Node000020_Node000023"><a xlink:title=" ">
<path fill="none" stroke="#63b8ff" d="M685.34,-76.49C666.98,-63.73 644.05,-47.79 627.7,-36.44"/>
<polygon fill="#63b8ff" stroke="#63b8ff" points="683.28,-79.32 693.49,-82.16 687.28,-73.57 683.28,-79.32"/>
</a>
</g>
</g>
<!-- Node24&#45;&gt;Node13 -->
<g id="edge33_Node000024_Node000013" class="edge">
<title>Node24&#45;&gt;Node13</title>
<g id="a_edge33_Node000024_Node000013"><a xlink:title=" ">
<path fill="none" stroke="#63b8ff" d="M880.77,-72.34C885.49,-60.4 890.96,-46.59 894.98,-36.44"/>
<polygon fill="#63b8ff" stroke="#63b8ff" points="877.52,-71.03 877.09,-81.61 884.03,-73.6 877.52,-71.03"/>
</a>
</g>
</g>
<!-- Node25 -->
<g id="Node000025" class="node">
<title>Node25</title>
<g id="a_Node000025"><a xlink:href="_l_l_z_k_validation_passes_8cpp.html" target="_top" xlink:title="This file contains the implementation for the &#45;llzk&#45;validate&#45;field&#45;writes pass.">
<polygon fill="white" stroke="#666666" points="837.62,-36.12 697.88,-36.12 697.88,-5.62 837.62,-5.62 837.62,-36.12"/>
<text text-anchor="start" x="705.88" y="-22.62" font-family="Helvetica,sans-Serif" font-size="10.00">lib/Validators/LLZKValidation</text>
<text text-anchor="middle" x="767.75" y="-11.38" font-family="Helvetica,sans-Serif" font-size="10.00">Passes.cpp</text>
</a>
</g>
</g>
<!-- Node24&#45;&gt;Node25 -->
<g id="edge32_Node000024_Node000025" class="edge">
<title>Node24&#45;&gt;Node25</title>
<g id="a_edge32_Node000024_Node000025"><a xlink:title=" ">
<path fill="none" stroke="#63b8ff" d="M841.77,-76.31C824.46,-63.58 802.92,-47.74 787.55,-36.44"/>
<polygon fill="#63b8ff" stroke="#63b8ff" points="839.54,-79.02 849.67,-82.12 843.69,-73.38 839.54,-79.02"/>
</a>
</g>
</g>
</g>
</svg>
