<?xml version="1.0" encoding="UTF-8" standalone="no"?>
<!DOCTYPE svg PUBLIC "-//W3C//DTD SVG 1.1//EN"
 "http://www.w3.org/Graphics/SVG/1.1/DTD/svg11.dtd">
<!-- Generated by graphviz version 12.2.1 (0)
 -->
<!-- Title: lib/Dialect/Bool/IR/Dialect.cpp Pages: 1 -->
<svg width="1425pt" height="305pt"
 viewBox="0.00 0.00 1424.75 304.50" xmlns="http://www.w3.org/2000/svg" xmlns:xlink="http://www.w3.org/1999/xlink">
<g id="graph0" class="graph" transform="scale(1 1) rotate(0) translate(4 300.5)">
<title>lib/Dialect/Bool/IR/Dialect.cpp</title>
<!-- Node1 -->
<g id="Node000001" class="node">
<title>Node1</title>
<g id="a_Node000001"><a xlink:title=" ">
<polygon fill="#999999" stroke="#666666" points="893.12,-296.5 797.62,-296.5 797.62,-266 893.12,-266 893.12,-296.5"/>
<text text-anchor="start" x="805.62" y="-283" font-family="Helvetica,sans-Serif" font-size="10.00">lib/Dialect/Bool/IR</text>
<text text-anchor="middle" x="845.38" y="-271.75" font-family="Helvetica,sans-Serif" font-size="10.00">/Dialect.cpp</text>
</a>
</g>
</g>
<!-- Node2 -->
<g id="Node000002" class="node">
<title>Node2</title>
<g id="a_Node000002"><a xlink:href="_bool_2_i_r_2_dialect_8h.html" target="_top" xlink:title=" ">
<polygon fill="white" stroke="#666666" points="274.75,-163.5 174,-163.5 174,-133 274.75,-133 274.75,-163.5"/>
<text text-anchor="start" x="182" y="-150" font-family="Helvetica,sans-Serif" font-size="10.00">llzk/Dialect/Bool/IR</text>
<text text-anchor="middle" x="224.38" y="-138.75" font-family="Helvetica,sans-Serif" font-size="10.00">/Dialect.h</text>
</a>
</g>
</g>
<!-- Node1&#45;&gt;Node2 -->
<g id="edge1_Node000001_Node000002" class="edge">
<title>Node1&#45;&gt;Node2</title>
<g id="a_edge1_Node000001_Node000002"><a xlink:title=" ">
<path fill="none" stroke="#63b8ff" d="M797.2,-276.94C724.22,-271.25 581.63,-257.48 463.38,-230 395.1,-214.14 318.79,-186.55 271.17,-168.1"/>
<polygon fill="#63b8ff" stroke="#63b8ff" points="272.58,-164.89 261.99,-164.51 270.03,-171.41 272.58,-164.89"/>
</a>
</g>
</g>
<!-- Node5 -->
<g id="Node000005" class="node">
<title>Node5</title>
<g id="a_Node000005"><a xlink:href="_bool_2_i_r_2_ops_8h.html" target="_top" xlink:title=" ">
<polygon fill="white" stroke="#666666" points="609.75,-230 509,-230 509,-199.5 609.75,-199.5 609.75,-230"/>
<text text-anchor="start" x="517" y="-216.5" font-family="Helvetica,sans-Serif" font-size="10.00">llzk/Dialect/Bool/IR</text>
<text text-anchor="middle" x="559.38" y="-205.25" font-family="Helvetica,sans-Serif" font-size="10.00">/Ops.h</text>
</a>
</g>
</g>
<!-- Node1&#45;&gt;Node5 -->
<g id="edge4_Node000001_Node000005" class="edge">
<title>Node1&#45;&gt;Node5</title>
<g id="a_edge4_Node000001_Node000005"><a xlink:title=" ">
<path fill="none" stroke="#63b8ff" d="M797.18,-269.38C748.73,-258.45 673.85,-241.57 621.08,-229.67"/>
<polygon fill="#63b8ff" stroke="#63b8ff" points="622.18,-226.33 611.65,-227.54 620.64,-233.15 622.18,-226.33"/>
</a>
</g>
</g>
<!-- Node15 -->
<g id="Node000015" class="node">
<title>Node15</title>
<g id="a_Node000015"><a xlink:href="_felt_2_i_r_2_types_8h.html" target="_top" xlink:title=" ">
<polygon fill="white" stroke="#666666" points="486.25,-163.5 388.5,-163.5 388.5,-133 486.25,-133 486.25,-163.5"/>
<text text-anchor="start" x="396.5" y="-150" font-family="Helvetica,sans-Serif" font-size="10.00">llzk/Dialect/Felt/IR</text>
<text text-anchor="middle" x="437.38" y="-138.75" font-family="Helvetica,sans-Serif" font-size="10.00">/Types.h</text>
</a>
</g>
</g>
<!-- Node1&#45;&gt;Node15 -->
<g id="edge28_Node000001_Node000015" class="edge">
<title>Node1&#45;&gt;Node15</title>
<g id="a_edge28_Node000001_Node000015"><a xlink:title=" ">
<path fill="none" stroke="#63b8ff" d="M797.34,-277.65C714.74,-272.47 549.89,-258.78 500.38,-230 477.78,-216.87 460.36,-192.2 449.63,-173.57"/>
<polygon fill="#63b8ff" stroke="#63b8ff" points="452.82,-172.11 444.95,-165.02 446.68,-175.47 452.82,-172.11"/>
</a>
</g>
</g>
<!-- Node26 -->
<g id="Node000026" class="node">
<title>Node26</title>
<g id="a_Node000026"><a xlink:href="_versioning_8h.html" target="_top" xlink:title=" ">
<polygon fill="white" stroke="#666666" points="750.62,-230 646.12,-230 646.12,-199.5 750.62,-199.5 750.62,-230"/>
<text text-anchor="start" x="654.12" y="-216.5" font-family="Helvetica,sans-Serif" font-size="10.00">llzk/Dialect/LLZK/IR</text>
<text text-anchor="middle" x="698.38" y="-205.25" font-family="Helvetica,sans-Serif" font-size="10.00">/Versioning.h</text>
</a>
</g>
</g>
<!-- Node1&#45;&gt;Node26 -->
<g id="edge29_Node000001_Node000026" class="edge">
<title>Node1&#45;&gt;Node26</title>
<g id="a_edge29_Node000001_Node000026"><a xlink:title=" ">
<path fill="none" stroke="#63b8ff" d="M812.02,-265.61C791.32,-256.53 764.5,-244.77 742.12,-234.94"/>
<polygon fill="#63b8ff" stroke="#63b8ff" points="743.8,-231.86 733.24,-231.05 740.99,-238.27 743.8,-231.86"/>
</a>
</g>
</g>
<!-- Node28 -->
<g id="Node000028" class="node">
<title>Node28</title>
<g id="a_Node000028"><a xlink:title=" ">
<polygon fill="#e0e0e0" stroke="#999999" points="922.38,-224.38 768.38,-224.38 768.38,-205.12 922.38,-205.12 922.38,-224.38"/>
<text text-anchor="middle" x="845.38" y="-210.88" font-family="Helvetica,sans-Serif" font-size="10.00">mlir/IR/DialectImplementation.h</text>
</a>
</g>
</g>
<!-- Node1&#45;&gt;Node28 -->
<g id="edge31_Node000001_Node000028" class="edge">
<title>Node1&#45;&gt;Node28</title>
<g id="a_edge31_Node000001_Node000028"><a xlink:title=" ">
<path fill="none" stroke="#63b8ff" d="M845.38,-265.61C845.38,-256.83 845.38,-245.52 845.38,-235.9"/>
<polygon fill="#63b8ff" stroke="#63b8ff" points="848.88,-236.09 845.38,-226.09 841.88,-236.09 848.88,-236.09"/>
</a>
</g>
</g>
<!-- Node29 -->
<g id="Node000029" class="node">
<title>Node29</title>
<g id="a_Node000029"><a xlink:title=" ">
<polygon fill="#e0e0e0" stroke="#999999" points="1060.12,-224.38 940.62,-224.38 940.62,-205.12 1060.12,-205.12 1060.12,-224.38"/>
<text text-anchor="middle" x="1000.38" y="-210.88" font-family="Helvetica,sans-Serif" font-size="10.00">llvm/ADT/TypeSwitch.h</text>
</a>
</g>
</g>
<!-- Node1&#45;&gt;Node29 -->
<g id="edge32_Node000001_Node000029" class="edge">
<title>Node1&#45;&gt;Node29</title>
<g id="a_edge32_Node000001_Node000029"><a xlink:title=" ">
<path fill="none" stroke="#63b8ff" d="M880.55,-265.61C906.85,-254.67 942.52,-239.82 968.1,-229.18"/>
<polygon fill="#63b8ff" stroke="#63b8ff" points="969.44,-232.41 977.33,-225.34 966.75,-225.95 969.44,-232.41"/>
</a>
</g>
</g>
<!-- Node30 -->
<g id="Node000030" class="node">
<title>Node30</title>
<g id="a_Node000030"><a xlink:href="_bool_2_i_r_2_dialect_8cpp_8inc.html" target="_top" xlink:title=" ">
<polygon fill="white" stroke="#666666" points="1178.75,-230 1078,-230 1078,-199.5 1178.75,-199.5 1178.75,-230"/>
<text text-anchor="start" x="1086" y="-216.5" font-family="Helvetica,sans-Serif" font-size="10.00">llzk/Dialect/Bool/IR</text>
<text text-anchor="middle" x="1128.38" y="-205.25" font-family="Helvetica,sans-Serif" font-size="10.00">/Dialect.cpp.inc</text>
</a>
</g>
</g>
<!-- Node1&#45;&gt;Node30 -->
<g id="edge33_Node000001_Node000030" class="edge">
<title>Node1&#45;&gt;Node30</title>
<g id="a_edge33_Node000001_Node000030"><a xlink:title=" ">
<path fill="none" stroke="#63b8ff" d="M893.49,-269.69C936.49,-260.21 1001.51,-245.73 1066.66,-230.61"/>
<polygon fill="#63b8ff" stroke="#63b8ff" points="1067.12,-234.1 1076.06,-228.43 1065.53,-227.28 1067.12,-234.1"/>
</a>
</g>
</g>
<!-- Node31 -->
<g id="Node000031" class="node">
<title>Node31</title>
<g id="a_Node000031"><a xlink:href="_bool_2_i_r_2_attrs_8cpp_8inc.html" target="_top" xlink:title=" ">
<polygon fill="white" stroke="#666666" points="1297.75,-230 1197,-230 1197,-199.5 1297.75,-199.5 1297.75,-230"/>
<text text-anchor="start" x="1205" y="-216.5" font-family="Helvetica,sans-Serif" font-size="10.00">llzk/Dialect/Bool/IR</text>
<text text-anchor="middle" x="1247.38" y="-205.25" font-family="Helvetica,sans-Serif" font-size="10.00">/Attrs.cpp.inc</text>
</a>
</g>
</g>
<!-- Node1&#45;&gt;Node31 -->
<g id="edge34_Node000001_Node000031" class="edge">
<title>Node1&#45;&gt;Node31</title>
<g id="a_edge34_Node000001_Node000031"><a xlink:title=" ">
<path fill="none" stroke="#63b8ff" d="M893.46,-274.53C957.71,-266.59 1075.31,-251.03 1185.7,-230.21"/>
<polygon fill="#63b8ff" stroke="#63b8ff" points="1186.05,-233.71 1195.22,-228.4 1184.74,-226.83 1186.05,-233.71"/>
</a>
</g>
</g>
<!-- Node32 -->
<g id="Node000032" class="node">
<title>Node32</title>
<g id="a_Node000032"><a xlink:href="_bool_2_i_r_2_ops_8cpp_8inc.html" target="_top" xlink:title=" ">
<polygon fill="white" stroke="#666666" points="1416.75,-230 1316,-230 1316,-199.5 1416.75,-199.5 1416.75,-230"/>
<text text-anchor="start" x="1324" y="-216.5" font-family="Helvetica,sans-Serif" font-size="10.00">llzk/Dialect/Bool/IR</text>
<text text-anchor="middle" x="1366.38" y="-205.25" font-family="Helvetica,sans-Serif" font-size="10.00">/Ops.cpp.inc</text>
</a>
</g>
</g>
<!-- Node1&#45;&gt;Node32 -->
<g id="edge35_Node000001_Node000032" class="edge">
<title>Node1&#45;&gt;Node32</title>
<g id="a_edge35_Node000001_Node000032"><a xlink:title=" ">
<path fill="none" stroke="#63b8ff" d="M893.43,-276.99C975.59,-271 1148.48,-256.51 1304.52,-230.16"/>
<polygon fill="#63b8ff" stroke="#63b8ff" points="1304.97,-233.64 1314.24,-228.5 1303.79,-226.74 1304.97,-233.64"/>
</a>
</g>
</g>
<!-- Node3 -->
<g id="Node000003" class="node">
<title>Node3</title>
<g id="a_Node000003"><a xlink:title=" ">
<polygon fill="#e0e0e0" stroke="#999999" points="179.12,-24.88 77.62,-24.88 77.62,-5.63 179.12,-5.63 179.12,-24.88"/>
<text text-anchor="middle" x="128.38" y="-11.38" font-family="Helvetica,sans-Serif" font-size="10.00">mlir/IR/BuiltinOps.h</text>
</a>
</g>
</g>
<!-- Node2&#45;&gt;Node3 -->
<g id="edge2_Node000002_Node000003" class="edge">
<title>Node2&#45;&gt;Node3</title>
<g id="a_edge2_Node000002_Node000003"><a xlink:title=" ">
<path fill="none" stroke="#63b8ff" d="M190.8,-132.63C175.4,-124.3 158.19,-112.42 147.38,-97 134.86,-79.16 130.5,-54.19 129.03,-36.76"/>
<polygon fill="#63b8ff" stroke="#63b8ff" points="132.53,-36.67 128.47,-26.88 125.54,-37.06 132.53,-36.67"/>
</a>
</g>
</g>
<!-- Node4 -->
<g id="Node000004" class="node">
<title>Node4</title>
<g id="a_Node000004"><a xlink:href="_bool_2_i_r_2_dialect_8h_8inc.html" target="_top" xlink:title=" ">
<polygon fill="white" stroke="#666666" points="100.75,-97 0,-97 0,-66.5 100.75,-66.5 100.75,-97"/>
<text text-anchor="start" x="8" y="-83.5" font-family="Helvetica,sans-Serif" font-size="10.00">llzk/Dialect/Bool/IR</text>
<text text-anchor="middle" x="50.38" y="-72.25" font-family="Helvetica,sans-Serif" font-size="10.00">/Dialect.h.inc</text>
</a>
</g>
</g>
<!-- Node2&#45;&gt;Node4 -->
<g id="edge3_Node000002_Node000004" class="edge">
<title>Node2&#45;&gt;Node4</title>
<g id="a_edge3_Node000002_Node000004"><a xlink:title=" ">
<path fill="none" stroke="#63b8ff" d="M184.89,-132.61C159.95,-123.37 127.5,-111.34 100.72,-101.41"/>
<polygon fill="#63b8ff" stroke="#63b8ff" points="102.02,-98.16 91.42,-97.97 99.58,-104.72 102.02,-98.16"/>
</a>
</g>
</g>
<!-- Node5&#45;&gt;Node2 -->
<g id="edge14_Node000005_Node000002" class="edge">
<title>Node5&#45;&gt;Node2</title>
<g id="a_edge14_Node000005_Node000002"><a xlink:title=" ">
<path fill="none" stroke="#63b8ff" d="M508.86,-204.02C449.28,-192.55 350.27,-173.49 286.18,-161.15"/>
<polygon fill="#63b8ff" stroke="#63b8ff" points="286.99,-157.74 276.51,-159.29 285.67,-164.62 286.99,-157.74"/>
</a>
</g>
</g>
<!-- Node5&#45;&gt;Node5 -->
<g id="edge15_Node000005_Node000005" class="edge">
<title>Node5&#45;&gt;Node5</title>
<g id="a_edge15_Node000005_Node000005"><a xlink:title=" ">
<path fill="none" stroke="#63b8ff" d="M610.07,-226.74C620.37,-225.44 627.75,-221.44 627.75,-214.75 627.75,-210.78 625.15,-207.76 620.88,-205.68"/>
<polygon fill="#63b8ff" stroke="#63b8ff" points="622.09,-202.38 611.53,-203.15 620.27,-209.14 622.09,-202.38"/>
</a>
</g>
</g>
<!-- Node6 -->
<g id="Node000006" class="node">
<title>Node6</title>
<g id="a_Node000006"><a xlink:href="_bool_2_i_r_2_attrs_8h.html" target="_top" xlink:title=" ">
<polygon fill="white" stroke="#666666" points="1007.75,-163.5 907,-163.5 907,-133 1007.75,-133 1007.75,-163.5"/>
<text text-anchor="start" x="915" y="-150" font-family="Helvetica,sans-Serif" font-size="10.00">llzk/Dialect/Bool/IR</text>
<text text-anchor="middle" x="957.38" y="-138.75" font-family="Helvetica,sans-Serif" font-size="10.00">/Attrs.h</text>
</a>
</g>
</g>
<!-- Node5&#45;&gt;Node6 -->
<g id="edge5_Node000005_Node000006" class="edge">
<title>Node5&#45;&gt;Node6</title>
<g id="a_edge5_Node000005_Node000006"><a xlink:title=" ">
<path fill="none" stroke="#63b8ff" d="M610.1,-204.23C619.17,-202.6 628.55,-200.96 637.38,-199.5 744.65,-181.73 772.1,-181.27 879.38,-163.5 884.62,-162.63 890.05,-161.7 895.5,-160.75"/>
<polygon fill="#63b8ff" stroke="#63b8ff" points="895.92,-164.23 905.16,-159.03 894.7,-157.33 895.92,-164.23"/>
</a>
</g>
</g>
<!-- Node5&#45;&gt;Node15 -->
<g id="edge16_Node000005_Node000015" class="edge">
<title>Node5&#45;&gt;Node15</title>
<g id="a_edge16_Node000005_Node000015"><a xlink:title=" ">
<path fill="none" stroke="#63b8ff" d="M531.69,-199.11C514.92,-190.25 493.31,-178.82 475,-169.14"/>
<polygon fill="#63b8ff" stroke="#63b8ff" points="476.76,-166.12 466.29,-164.54 473.49,-172.3 476.76,-166.12"/>
</a>
</g>
</g>
<!-- Node20 -->
<g id="Node000020" class="node">
<title>Node20</title>
<g id="a_Node000020"><a xlink:href="_op_traits_8h.html" target="_top" xlink:title=" ">
<polygon fill="white" stroke="#666666" points="612,-163.5 506.75,-163.5 506.75,-133 612,-133 612,-163.5"/>
<text text-anchor="start" x="514.75" y="-150" font-family="Helvetica,sans-Serif" font-size="10.00">llzk/Dialect/Function</text>
<text text-anchor="middle" x="559.38" y="-138.75" font-family="Helvetica,sans-Serif" font-size="10.00">/IR/OpTraits.h</text>
</a>
</g>
</g>
<!-- Node5&#45;&gt;Node20 -->
<g id="edge22_Node000005_Node000020" class="edge">
<title>Node5&#45;&gt;Node20</title>
<g id="a_edge22_Node000005_Node000020"><a xlink:title=" ">
<path fill="none" stroke="#63b8ff" d="M559.38,-199.11C559.38,-192.02 559.38,-183.29 559.38,-175.13"/>
<polygon fill="#63b8ff" stroke="#63b8ff" points="562.88,-175.34 559.38,-165.34 555.88,-175.34 562.88,-175.34"/>
</a>
</g>
</g>
<!-- Node24 -->
<g id="Node000024" class="node">
<title>Node24</title>
<g id="a_Node000024"><a xlink:title=" ">
<polygon fill="#e0e0e0" stroke="#999999" points="752.25,-163.5 630.5,-163.5 630.5,-133 752.25,-133 752.25,-163.5"/>
<text text-anchor="start" x="638.5" y="-150" font-family="Helvetica,sans-Serif" font-size="10.00">mlir/Interfaces/InferType</text>
<text text-anchor="middle" x="691.38" y="-138.75" font-family="Helvetica,sans-Serif" font-size="10.00">OpInterface.h</text>
</a>
</g>
</g>
<!-- Node5&#45;&gt;Node24 -->
<g id="edge26_Node000005_Node000024" class="edge">
<title>Node5&#45;&gt;Node24</title>
<g id="a_edge26_Node000005_Node000024"><a xlink:title=" ">
<path fill="none" stroke="#63b8ff" d="M589.33,-199.11C607.64,-190.17 631.29,-178.61 651.21,-168.87"/>
<polygon fill="#63b8ff" stroke="#63b8ff" points="652.73,-172.03 660.18,-164.49 649.66,-165.74 652.73,-172.03"/>
</a>
</g>
</g>
<!-- Node25 -->
<g id="Node000025" class="node">
<title>Node25</title>
<g id="a_Node000025"><a xlink:href="_bool_2_i_r_2_ops_8h_8inc.html" target="_top" xlink:title=" ">
<polygon fill="white" stroke="#666666" points="870.75,-163.5 770,-163.5 770,-133 870.75,-133 870.75,-163.5"/>
<text text-anchor="start" x="778" y="-150" font-family="Helvetica,sans-Serif" font-size="10.00">llzk/Dialect/Bool/IR</text>
<text text-anchor="middle" x="820.38" y="-138.75" font-family="Helvetica,sans-Serif" font-size="10.00">/Ops.h.inc</text>
</a>
</g>
</g>
<!-- Node5&#45;&gt;Node25 -->
<g id="edge27_Node000005_Node000025" class="edge">
<title>Node5&#45;&gt;Node25</title>
<g id="a_edge27_Node000005_Node000025"><a xlink:title=" ">
<path fill="none" stroke="#63b8ff" d="M610.01,-201.24C652.51,-190.73 713.38,-175.69 758.71,-164.49"/>
<polygon fill="#63b8ff" stroke="#63b8ff" points="759.55,-167.89 768.41,-162.09 757.87,-161.09 759.55,-167.89"/>
</a>
</g>
</g>
<!-- Node7 -->
<g id="Node000007" class="node">
<title>Node7</title>
<g id="a_Node000007"><a xlink:href="_enums_8h.html" target="_top" xlink:title=" ">
<polygon fill="white" stroke="#666666" points="1007.75,-97 907,-97 907,-66.5 1007.75,-66.5 1007.75,-97"/>
<text text-anchor="start" x="915" y="-83.5" font-family="Helvetica,sans-Serif" font-size="10.00">llzk/Dialect/Bool/IR</text>
<text text-anchor="middle" x="957.38" y="-72.25" font-family="Helvetica,sans-Serif" font-size="10.00">/Enums.h</text>
</a>
</g>
</g>
<!-- Node6&#45;&gt;Node7 -->
<g id="edge6_Node000006_Node000007" class="edge">
<title>Node6&#45;&gt;Node7</title>
<g id="a_edge6_Node000006_Node000007"><a xlink:title=" ">
<path fill="none" stroke="#63b8ff" d="M957.38,-132.61C957.38,-125.52 957.38,-116.79 957.38,-108.63"/>
<polygon fill="#63b8ff" stroke="#63b8ff" points="960.88,-108.84 957.38,-98.84 953.88,-108.84 960.88,-108.84"/>
</a>
</g>
</g>
<!-- Node13 -->
<g id="Node000013" class="node">
<title>Node13</title>
<g id="a_Node000013"><a xlink:title=" ">
<polygon fill="#e0e0e0" stroke="#999999" points="1124.62,-91.38 1026.12,-91.38 1026.12,-72.12 1124.62,-72.12 1124.62,-91.38"/>
<text text-anchor="middle" x="1075.38" y="-77.88" font-family="Helvetica,sans-Serif" font-size="10.00">mlir/IR/Attributes.h</text>
</a>
</g>
</g>
<!-- Node6&#45;&gt;Node13 -->
<g id="edge12_Node000006_Node000013" class="edge">
<title>Node6&#45;&gt;Node13</title>
<g id="a_edge12_Node000006_Node000013"><a xlink:title=" ">
<path fill="none" stroke="#63b8ff" d="M984.15,-132.61C1003.54,-122.01 1029.64,-107.75 1048.95,-97.2"/>
<polygon fill="#63b8ff" stroke="#63b8ff" points="1050.47,-100.35 1057.56,-92.49 1047.11,-94.21 1050.47,-100.35"/>
</a>
</g>
</g>
<!-- Node14 -->
<g id="Node000014" class="node">
<title>Node14</title>
<g id="a_Node000014"><a xlink:href="_bool_2_i_r_2_attrs_8h_8inc.html" target="_top" xlink:title=" ">
<polygon fill="white" stroke="#666666" points="1243.75,-97 1143,-97 1143,-66.5 1243.75,-66.5 1243.75,-97"/>
<text text-anchor="start" x="1151" y="-83.5" font-family="Helvetica,sans-Serif" font-size="10.00">llzk/Dialect/Bool/IR</text>
<text text-anchor="middle" x="1193.38" y="-72.25" font-family="Helvetica,sans-Serif" font-size="10.00">/Attrs.h.inc</text>
</a>
</g>
</g>
<!-- Node6&#45;&gt;Node14 -->
<g id="edge13_Node000006_Node000014" class="edge">
<title>Node6&#45;&gt;Node14</title>
<g id="a_edge13_Node000006_Node000014"><a xlink:title=" ">
<path fill="none" stroke="#63b8ff" d="M1008,-133.41C1044.24,-123.51 1093.24,-110.12 1131.75,-99.59"/>
<polygon fill="#63b8ff" stroke="#63b8ff" points="1132.65,-102.98 1141.37,-96.96 1130.8,-96.22 1132.65,-102.98"/>
</a>
</g>
</g>
<!-- Node8 -->
<g id="Node000008" class="node">
<title>Node8</title>
<g id="a_Node000008"><a xlink:title=" ">
<polygon fill="#e0e0e0" stroke="#999999" points="1272.5,-24.88 1164.25,-24.88 1164.25,-5.63 1272.5,-5.63 1272.5,-24.88"/>
<text text-anchor="middle" x="1218.38" y="-11.38" font-family="Helvetica,sans-Serif" font-size="10.00">mlir/IR/Diagnostics.h</text>
</a>
</g>
</g>
<!-- Node7&#45;&gt;Node8 -->
<g id="edge7_Node000007_Node000008" class="edge">
<title>Node7&#45;&gt;Node8</title>
<g id="a_edge7_Node000007_Node000008"><a xlink:title=" ">
<path fill="none" stroke="#63b8ff" d="M1008.01,-68.24C1055.12,-56.59 1124.79,-39.38 1170.87,-27.99"/>
<polygon fill="#63b8ff" stroke="#63b8ff" points="1171.42,-31.46 1180.29,-25.66 1169.74,-24.66 1171.42,-31.46"/>
</a>
</g>
</g>
<!-- Node9 -->
<g id="Node000009" class="node">
<title>Node9</title>
<g id="a_Node000009"><a xlink:title=" ">
<polygon fill="#e0e0e0" stroke="#999999" points="742.5,-24.88 610.25,-24.88 610.25,-5.63 742.5,-5.63 742.5,-24.88"/>
<text text-anchor="middle" x="676.38" y="-11.38" font-family="Helvetica,sans-Serif" font-size="10.00">llvm/ADT/DenseMapInfo.h</text>
</a>
</g>
</g>
<!-- Node7&#45;&gt;Node9 -->
<g id="edge8_Node000007_Node000009" class="edge">
<title>Node7&#45;&gt;Node9</title>
<g id="a_edge8_Node000007_Node000009"><a xlink:title=" ">
<path fill="none" stroke="#63b8ff" d="M906.54,-68.42C903.78,-67.77 901.04,-67.12 898.38,-66.5 840.2,-52.89 773.31,-37.83 728.29,-27.78"/>
<polygon fill="#63b8ff" stroke="#63b8ff" points="729.33,-24.43 718.81,-25.66 727.81,-31.26 729.33,-24.43"/>
</a>
</g>
</g>
<!-- Node10 -->
<g id="Node000010" class="node">
<title>Node10</title>
<g id="a_Node000010"><a xlink:title=" ">
<polygon fill="#e0e0e0" stroke="#999999" points="870.25,-24.88 760.5,-24.88 760.5,-5.63 870.25,-5.63 870.25,-24.88"/>
<text text-anchor="middle" x="815.38" y="-11.38" font-family="Helvetica,sans-Serif" font-size="10.00">llvm/ADT/StringRef.h</text>
</a>
</g>
</g>
<!-- Node7&#45;&gt;Node10 -->
<g id="edge9_Node000007_Node000010" class="edge">
<title>Node7&#45;&gt;Node10</title>
<g id="a_edge9_Node000007_Node000010"><a xlink:title=" ">
<path fill="none" stroke="#63b8ff" d="M925.15,-66.11C901.28,-55.27 868.96,-40.59 845.58,-29.97"/>
<polygon fill="#63b8ff" stroke="#63b8ff" points="847.14,-26.83 836.59,-25.89 844.25,-33.21 847.14,-26.83"/>
</a>
</g>
</g>
<!-- Node11 -->
<g id="Node000011" class="node">
<title>Node11</title>
<g id="a_Node000011"><a xlink:title=" ">
<polygon fill="#e0e0e0" stroke="#999999" points="1026.5,-24.88 888.25,-24.88 888.25,-5.63 1026.5,-5.63 1026.5,-24.88"/>
<text text-anchor="middle" x="957.38" y="-11.38" font-family="Helvetica,sans-Serif" font-size="10.00">llvm/Support/raw_ostream.h</text>
</a>
</g>
</g>
<!-- Node7&#45;&gt;Node11 -->
<g id="edge10_Node000007_Node000011" class="edge">
<title>Node7&#45;&gt;Node11</title>
<g id="a_edge10_Node000007_Node000011"><a xlink:title=" ">
<path fill="none" stroke="#63b8ff" d="M957.38,-66.11C957.38,-57.33 957.38,-46.02 957.38,-36.4"/>
<polygon fill="#63b8ff" stroke="#63b8ff" points="960.88,-36.59 957.38,-26.59 953.88,-36.59 960.88,-36.59"/>
</a>
</g>
</g>
<!-- Node12 -->
<g id="Node000012" class="node">
<title>Node12</title>
<g id="a_Node000012"><a xlink:href="_enums_8h_8inc.html" target="_top" xlink:title=" ">
<polygon fill="white" stroke="#666666" points="1145.75,-30.5 1045,-30.5 1045,0 1145.75,0 1145.75,-30.5"/>
<text text-anchor="start" x="1053" y="-17" font-family="Helvetica,sans-Serif" font-size="10.00">llzk/Dialect/Bool/IR</text>
<text text-anchor="middle" x="1095.38" y="-5.75" font-family="Helvetica,sans-Serif" font-size="10.00">/Enums.h.inc</text>
</a>
</g>
</g>
<!-- Node7&#45;&gt;Node12 -->
<g id="edge11_Node000007_Node000012" class="edge">
<title>Node7&#45;&gt;Node12</title>
<g id="a_edge11_Node000007_Node000012"><a xlink:title=" ">
<path fill="none" stroke="#63b8ff" d="M988.69,-66.11C1008.01,-57.08 1033.02,-45.4 1053.96,-35.61"/>
<polygon fill="#63b8ff" stroke="#63b8ff" points="1055.24,-38.87 1062.81,-31.47 1052.27,-32.53 1055.24,-38.87"/>
</a>
</g>
</g>
<!-- Node16 -->
<g id="Node000016" class="node">
<title>Node16</title>
<g id="a_Node000016"><a xlink:href="_felt_2_i_r_2_dialect_8h.html" target="_top" xlink:title=" ">
<polygon fill="white" stroke="#666666" points="254.25,-97 156.5,-97 156.5,-66.5 254.25,-66.5 254.25,-97"/>
<text text-anchor="start" x="164.5" y="-83.5" font-family="Helvetica,sans-Serif" font-size="10.00">llzk/Dialect/Felt/IR</text>
<text text-anchor="middle" x="205.38" y="-72.25" font-family="Helvetica,sans-Serif" font-size="10.00">/Dialect.h</text>
</a>
</g>
</g>
<!-- Node15&#45;&gt;Node16 -->
<g id="edge17_Node000015_Node000016" class="edge">
<title>Node15&#45;&gt;Node16</title>
<g id="a_edge17_Node000015_Node000016"><a xlink:title=" ">
<path fill="none" stroke="#63b8ff" d="M388.17,-133.57C352.34,-123.61 303.6,-110.06 265.47,-99.46"/>
<polygon fill="#63b8ff" stroke="#63b8ff" points="266.54,-96.12 255.96,-96.81 264.66,-102.87 266.54,-96.12"/>
</a>
</g>
</g>
<!-- Node18 -->
<g id="Node000018" class="node">
<title>Node18</title>
<g id="a_Node000018"><a xlink:href="_felt_2_i_r_2_ops_8h_8inc.html" target="_top" xlink:title=" ">
<polygon fill="white" stroke="#666666" points="370.25,-97 272.5,-97 272.5,-66.5 370.25,-66.5 370.25,-97"/>
<text text-anchor="start" x="280.5" y="-83.5" font-family="Helvetica,sans-Serif" font-size="10.00">llzk/Dialect/Felt/IR</text>
<text text-anchor="middle" x="321.38" y="-72.25" font-family="Helvetica,sans-Serif" font-size="10.00">/Ops.h.inc</text>
</a>
</g>
</g>
<!-- Node15&#45;&gt;Node18 -->
<g id="edge20_Node000015_Node000018" class="edge">
<title>Node15&#45;&gt;Node18</title>
<g id="a_edge20_Node000015_Node000018"><a xlink:title=" ">
<path fill="none" stroke="#63b8ff" d="M411.05,-132.61C395.18,-123.79 374.75,-112.43 357.4,-102.78"/>
<polygon fill="#63b8ff" stroke="#63b8ff" points="359.36,-99.86 348.92,-98.06 355.95,-105.98 359.36,-99.86"/>
</a>
</g>
</g>
<!-- Node19 -->
<g id="Node000019" class="node">
<title>Node19</title>
<g id="a_Node000019"><a xlink:href="_felt_2_i_r_2_types_8h_8inc.html" target="_top" xlink:title=" ">
<polygon fill="white" stroke="#666666" points="486.25,-97 388.5,-97 388.5,-66.5 486.25,-66.5 486.25,-97"/>
<text text-anchor="start" x="396.5" y="-83.5" font-family="Helvetica,sans-Serif" font-size="10.00">llzk/Dialect/Felt/IR</text>
<text text-anchor="middle" x="437.38" y="-72.25" font-family="Helvetica,sans-Serif" font-size="10.00">/Types.h.inc</text>
</a>
</g>
</g>
<!-- Node15&#45;&gt;Node19 -->
<g id="edge21_Node000015_Node000019" class="edge">
<title>Node15&#45;&gt;Node19</title>
<g id="a_edge21_Node000015_Node000019"><a xlink:title=" ">
<path fill="none" stroke="#63b8ff" d="M437.38,-132.61C437.38,-125.52 437.38,-116.79 437.38,-108.63"/>
<polygon fill="#63b8ff" stroke="#63b8ff" points="440.88,-108.84 437.38,-98.84 433.88,-108.84 440.88,-108.84"/>
</a>
</g>
</g>
<!-- Node16&#45;&gt;Node3 -->
<g id="edge18_Node000016_Node000003" class="edge">
<title>Node16&#45;&gt;Node3</title>
<g id="a_edge18_Node000016_Node000003"><a xlink:title=" ">
<path fill="none" stroke="#63b8ff" d="M187.9,-66.11C175.88,-56.04 159.91,-42.67 147.54,-32.31"/>
<polygon fill="#63b8ff" stroke="#63b8ff" points="149.98,-29.78 140.07,-26.04 145.49,-35.15 149.98,-29.78"/>
</a>
</g>
</g>
<!-- Node17 -->
<g id="Node000017" class="node">
<title>Node17</title>
<g id="a_Node000017"><a xlink:href="_felt_2_i_r_2_dialect_8h_8inc.html" target="_top" xlink:title=" ">
<polygon fill="white" stroke="#666666" points="295.25,-30.5 197.5,-30.5 197.5,0 295.25,0 295.25,-30.5"/>
<text text-anchor="start" x="205.5" y="-17" font-family="Helvetica,sans-Serif" font-size="10.00">llzk/Dialect/Felt/IR</text>
<text text-anchor="middle" x="246.38" y="-5.75" font-family="Helvetica,sans-Serif" font-size="10.00">/Dialect.h.inc</text>
</a>
</g>
</g>
<!-- Node16&#45;&gt;Node17 -->
<g id="edge19_Node000016_Node000017" class="edge">
<title>Node16&#45;&gt;Node17</title>
<g id="a_edge19_Node000016_Node000017"><a xlink:title=" ">
<path fill="none" stroke="#63b8ff" d="M214.68,-66.11C219.5,-58.53 225.52,-49.06 231.01,-40.43"/>
<polygon fill="#63b8ff" stroke="#63b8ff" points="233.89,-42.42 236.3,-32.11 227.98,-38.67 233.89,-42.42"/>
</a>
</g>
</g>
<!-- Node21 -->
<g id="Node000021" class="node">
<title>Node21</title>
<g id="a_Node000021"><a xlink:title=" ">
<polygon fill="#e0e0e0" stroke="#999999" points="614.62,-91.38 504.12,-91.38 504.12,-72.12 614.62,-72.12 614.62,-91.38"/>
<text text-anchor="middle" x="559.38" y="-77.88" font-family="Helvetica,sans-Serif" font-size="10.00">mlir/IR/OpDefinition.h</text>
</a>
</g>
</g>
<!-- Node20&#45;&gt;Node21 -->
<g id="edge23_Node000020_Node000021" class="edge">
<title>Node20&#45;&gt;Node21</title>
<g id="a_edge23_Node000020_Node000021"><a xlink:title=" ">
<path fill="none" stroke="#63b8ff" d="M559.38,-132.61C559.38,-123.83 559.38,-112.52 559.38,-102.9"/>
<polygon fill="#63b8ff" stroke="#63b8ff" points="562.88,-103.09 559.38,-93.09 555.88,-103.09 562.88,-103.09"/>
</a>
</g>
</g>
<!-- Node22 -->
<g id="Node000022" class="node">
<title>Node22</title>
<g id="a_Node000022"><a xlink:title=" ">
<polygon fill="#e0e0e0" stroke="#999999" points="731.62,-91.38 633.12,-91.38 633.12,-72.12 731.62,-72.12 731.62,-91.38"/>
<text text-anchor="middle" x="682.38" y="-77.88" font-family="Helvetica,sans-Serif" font-size="10.00">mlir/IR/Operation.h</text>
</a>
</g>
</g>
<!-- Node20&#45;&gt;Node22 -->
<g id="edge24_Node000020_Node000022" class="edge">
<title>Node20&#45;&gt;Node22</title>
<g id="a_edge24_Node000020_Node000022"><a xlink:title=" ">
<path fill="none" stroke="#63b8ff" d="M587.29,-132.61C607.59,-121.96 634.95,-107.62 655.11,-97.05"/>
<polygon fill="#63b8ff" stroke="#63b8ff" points="656.62,-100.21 663.85,-92.46 653.37,-94.01 656.62,-100.21"/>
</a>
</g>
</g>
<!-- Node23 -->
<g id="Node000023" class="node">
<title>Node23</title>
<g id="a_Node000023"><a xlink:title=" ">
<polygon fill="#e0e0e0" stroke="#999999" points="888.88,-91.38 749.88,-91.38 749.88,-72.12 888.88,-72.12 888.88,-91.38"/>
<text text-anchor="middle" x="819.38" y="-77.88" font-family="Helvetica,sans-Serif" font-size="10.00">mlir/Support/LogicalResult.h</text>
</a>
</g>
</g>
<!-- Node20&#45;&gt;Node23 -->
<g id="edge25_Node000020_Node000023" class="edge">
<title>Node20&#45;&gt;Node23</title>
<g id="a_edge25_Node000020_Node000023"><a xlink:title=" ">
<path fill="none" stroke="#63b8ff" d="M612.3,-134.12C659.12,-122.51 726.79,-105.72 771.89,-94.53"/>
<polygon fill="#63b8ff" stroke="#63b8ff" points="772.51,-97.98 781.37,-92.18 770.83,-91.19 772.51,-97.98"/>
</a>
</g>
</g>
<!-- Node27 -->
<g id="Node000027" class="node">
<title>Node27</title>
<g id="a_Node000027"><a xlink:title=" ">
<polygon fill="#e0e0e0" stroke="#999999" points="1221,-157.88 1025.75,-157.88 1025.75,-138.62 1221,-138.62 1221,-157.88"/>
<text text-anchor="middle" x="1123.38" y="-144.38" font-family="Helvetica,sans-Serif" font-size="10.00">mlir/Bytecode/BytecodeImplementation.h</text>
</a>
</g>
</g>
<!-- Node26&#45;&gt;Node27 -->
<g id="edge30_Node000026_Node000027" class="edge">
<title>Node26&#45;&gt;Node27</title>
<g id="a_edge30_Node000026_Node000027"><a xlink:title=" ">
<path fill="none" stroke="#63b8ff" d="M750.88,-201.16C753.75,-200.57 756.59,-200.02 759.38,-199.5 786.67,-194.44 945.09,-173.03 1043.73,-159.85"/>
<polygon fill="#63b8ff" stroke="#63b8ff" points="1043.91,-163.35 1053.36,-158.56 1042.98,-156.42 1043.91,-163.35"/>
</a>
</g>
</g>
</g>
</svg>
