<?xml version="1.0" encoding="UTF-8" standalone="no"?>
<!DOCTYPE svg PUBLIC "-//W3C//DTD SVG 1.1//EN"
 "http://www.w3.org/Graphics/SVG/1.1/DTD/svg11.dtd">
<!-- Generated by graphviz version 12.2.1 (0)
 -->
<!-- Title: include/llzk/Analysis/CallGraph.h Pages: 1 -->
<svg width="818pt" height="94pt"
 viewBox="0.00 0.00 818.12 93.75" xmlns="http://www.w3.org/2000/svg" xmlns:xlink="http://www.w3.org/1999/xlink">
<g id="graph0" class="graph" transform="scale(1 1) rotate(0) translate(4 89.75)">
<title>include/llzk/Analysis/CallGraph.h</title>
<!-- Node1 -->
<g id="Node000001" class="node">
<title>Node1</title>
<g id="a_Node000001"><a xlink:title=" ">
<polygon fill="#999999" stroke="#666666" points="461.12,-85.75 355.88,-85.75 355.88,-55.25 461.12,-55.25 461.12,-85.75"/>
<text text-anchor="start" x="363.88" y="-72.25" font-family="Helvetica,sans-Serif" font-size="10.00">include/llzk/Analysis</text>
<text text-anchor="middle" x="408.5" y="-61" font-family="Helvetica,sans-Serif" font-size="10.00">/CallGraph.h</text>
</a>
</g>
</g>
<!-- Node2 -->
<g id="Node000002" class="node">
<title>Node2</title>
<g id="a_Node000002"><a xlink:title=" ">
<polygon fill="#e0e0e0" stroke="#999999" points="127,-19.25 0,-19.25 0,0 127,0 127,-19.25"/>
<text text-anchor="middle" x="63.5" y="-5.75" font-family="Helvetica,sans-Serif" font-size="10.00">mlir/Analysis/CallGraph.h</text>
</a>
</g>
</g>
<!-- Node1&#45;&gt;Node2 -->
<g id="edge1_Node000001_Node000002" class="edge">
<title>Node1&#45;&gt;Node2</title>
<g id="a_edge1_Node000001_Node000002"><a xlink:title=" ">
<path fill="none" stroke="#63b8ff" d="M355.73,-60.49C294.52,-50.05 193.64,-32.83 127.88,-21.61"/>
<polygon fill="#63b8ff" stroke="#63b8ff" points="128.77,-18.21 118.33,-19.98 127.6,-25.11 128.77,-18.21"/>
</a>
</g>
</g>
<!-- Node3 -->
<g id="Node000003" class="node">
<title>Node3</title>
<g id="a_Node000003"><a xlink:title=" ">
<polygon fill="#e0e0e0" stroke="#999999" points="264.25,-19.25 144.75,-19.25 144.75,0 264.25,0 264.25,-19.25"/>
<text text-anchor="middle" x="204.5" y="-5.75" font-family="Helvetica,sans-Serif" font-size="10.00">llvm/ADT/GraphTraits.h</text>
</a>
</g>
</g>
<!-- Node1&#45;&gt;Node3 -->
<g id="edge2_Node000001_Node000003" class="edge">
<title>Node1&#45;&gt;Node3</title>
<g id="a_edge2_Node000001_Node000003"><a xlink:title=" ">
<path fill="none" stroke="#63b8ff" d="M357.55,-54.8C323.45,-44.95 279.1,-32.15 246.92,-22.87"/>
<polygon fill="#63b8ff" stroke="#63b8ff" points="248.12,-19.57 237.54,-20.16 246.18,-26.3 248.12,-19.57"/>
</a>
</g>
</g>
<!-- Node4 -->
<g id="Node000004" class="node">
<title>Node4</title>
<g id="a_Node000004"><a xlink:title=" ">
<polygon fill="#e0e0e0" stroke="#999999" points="397,-19.25 282,-19.25 282,0 397,0 397,-19.25"/>
<text text-anchor="middle" x="339.5" y="-5.75" font-family="Helvetica,sans-Serif" font-size="10.00">llvm/ADT/MapVector.h</text>
</a>
</g>
</g>
<!-- Node1&#45;&gt;Node4 -->
<g id="edge3_Node000001_Node000004" class="edge">
<title>Node1&#45;&gt;Node4</title>
<g id="a_edge3_Node000001_Node000004"><a xlink:title=" ">
<path fill="none" stroke="#63b8ff" d="M391.44,-54.95C381.54,-46.5 369.04,-35.83 358.79,-27.08"/>
<polygon fill="#63b8ff" stroke="#63b8ff" points="361.17,-24.51 351.29,-20.68 356.62,-29.84 361.17,-24.51"/>
</a>
</g>
</g>
<!-- Node5 -->
<g id="Node000005" class="node">
<title>Node5</title>
<g id="a_Node000005"><a xlink:title=" ">
<polygon fill="#e0e0e0" stroke="#999999" points="542,-19.25 415,-19.25 415,0 542,0 542,-19.25"/>
<text text-anchor="middle" x="478.5" y="-5.75" font-family="Helvetica,sans-Serif" font-size="10.00">llvm/ADT/PointerIntPair.h</text>
</a>
</g>
</g>
<!-- Node1&#45;&gt;Node5 -->
<g id="edge4_Node000001_Node000005" class="edge">
<title>Node1&#45;&gt;Node5</title>
<g id="a_edge4_Node000001_Node000005"><a xlink:title=" ">
<path fill="none" stroke="#63b8ff" d="M425.8,-54.95C435.85,-46.5 448.53,-35.83 458.93,-27.08"/>
<polygon fill="#63b8ff" stroke="#63b8ff" points="461.15,-29.79 466.55,-20.68 456.64,-24.43 461.15,-29.79"/>
</a>
</g>
</g>
<!-- Node6 -->
<g id="Node000006" class="node">
<title>Node6</title>
<g id="a_Node000006"><a xlink:title=" ">
<polygon fill="#e0e0e0" stroke="#999999" points="680.62,-19.25 560.38,-19.25 560.38,0 680.62,0 680.62,-19.25"/>
<text text-anchor="middle" x="620.5" y="-5.75" font-family="Helvetica,sans-Serif" font-size="10.00">llvm/ADT/SCCIterator.h</text>
</a>
</g>
</g>
<!-- Node1&#45;&gt;Node6 -->
<g id="edge5_Node000001_Node000006" class="edge">
<title>Node1&#45;&gt;Node6</title>
<g id="a_edge5_Node000001_Node000006"><a xlink:title=" ">
<path fill="none" stroke="#63b8ff" d="M461.45,-54.8C497.04,-44.91 543.38,-32.04 576.85,-22.75"/>
<polygon fill="#63b8ff" stroke="#63b8ff" points="577.52,-26.19 586.22,-20.15 575.65,-19.45 577.52,-26.19"/>
</a>
</g>
</g>
<!-- Node7 -->
<g id="Node000007" class="node">
<title>Node7</title>
<g id="a_Node000007"><a xlink:title=" ">
<polygon fill="#e0e0e0" stroke="#999999" points="810.12,-19.25 698.88,-19.25 698.88,0 810.12,0 810.12,-19.25"/>
<text text-anchor="middle" x="754.5" y="-5.75" font-family="Helvetica,sans-Serif" font-size="10.00">llvm/ADT/SetVector.h</text>
</a>
</g>
</g>
<!-- Node1&#45;&gt;Node7 -->
<g id="edge6_Node000001_Node000007" class="edge">
<title>Node1&#45;&gt;Node7</title>
<g id="a_edge6_Node000001_Node000007"><a xlink:title=" ">
<path fill="none" stroke="#63b8ff" d="M461.43,-60.49C522.81,-50.05 623.98,-32.83 689.93,-21.61"/>
<polygon fill="#63b8ff" stroke="#63b8ff" points="690.25,-25.11 699.52,-19.98 689.07,-18.21 690.25,-25.11"/>
</a>
</g>
</g>
</g>
</svg>
