<?xml version="1.0" encoding="UTF-8" standalone="no"?>
<!DOCTYPE svg PUBLIC "-//W3C//DTD SVG 1.1//EN"
 "http://www.w3.org/Graphics/SVG/1.1/DTD/svg11.dtd">
<!-- Generated by graphviz version 12.2.1 (0)
 -->
<!-- Title: include/llzk/Dialect/Cast/IR/Ops.h Pages: 1 -->
<svg width="497pt" height="238pt"
 viewBox="0.00 0.00 496.62 238.00" xmlns="http://www.w3.org/2000/svg" xmlns:xlink="http://www.w3.org/1999/xlink">
<g id="graph0" class="graph" transform="scale(1 1) rotate(0) translate(4 234)">
<title>include/llzk/Dialect/Cast/IR/Ops.h</title>
<!-- Node1 -->
<g id="Node000001" class="node">
<title>Node1</title>
<g id="a_Node000001"><a xlink:title=" ">
<polygon fill="#999999" stroke="#666666" points="315,-230 216.5,-230 216.5,-199.5 315,-199.5 315,-230"/>
<text text-anchor="start" x="224.5" y="-216.5" font-family="Helvetica,sans-Serif" font-size="10.00">include/llzk/Dialect</text>
<text text-anchor="middle" x="265.75" y="-205.25" font-family="Helvetica,sans-Serif" font-size="10.00">/Cast/IR/Ops.h</text>
</a>
</g>
</g>
<!-- Node2 -->
<g id="Node000002" class="node">
<title>Node2</title>
<g id="a_Node000002"><a xlink:href="_cast_2_i_r_2_dialect_8h.html" target="_top" xlink:title=" ">
<polygon fill="white" stroke="#666666" points="140.88,-163.5 38.62,-163.5 38.62,-133 140.88,-133 140.88,-163.5"/>
<text text-anchor="start" x="46.62" y="-150" font-family="Helvetica,sans-Serif" font-size="10.00">llzk/Dialect/Cast/IR</text>
<text text-anchor="middle" x="89.75" y="-138.75" font-family="Helvetica,sans-Serif" font-size="10.00">/Dialect.h</text>
</a>
</g>
</g>
<!-- Node1&#45;&gt;Node2 -->
<g id="edge1_Node000001_Node000002" class="edge">
<title>Node1&#45;&gt;Node2</title>
<g id="a_edge1_Node000001_Node000002"><a xlink:title=" ">
<path fill="none" stroke="#63b8ff" d="M225.81,-199.11C200.47,-189.83 167.47,-177.73 140.31,-167.78"/>
<polygon fill="#63b8ff" stroke="#63b8ff" points="141.85,-164.62 131.25,-164.46 139.44,-171.19 141.85,-164.62"/>
</a>
</g>
</g>
<!-- Node5 -->
<g id="Node000005" class="node">
<title>Node5</title>
<g id="a_Node000005"><a xlink:href="_felt_2_i_r_2_types_8h.html" target="_top" xlink:title=" ">
<polygon fill="white" stroke="#666666" points="314.62,-163.5 216.88,-163.5 216.88,-133 314.62,-133 314.62,-163.5"/>
<text text-anchor="start" x="224.88" y="-150" font-family="Helvetica,sans-Serif" font-size="10.00">llzk/Dialect/Felt/IR</text>
<text text-anchor="middle" x="265.75" y="-138.75" font-family="Helvetica,sans-Serif" font-size="10.00">/Types.h</text>
</a>
</g>
</g>
<!-- Node1&#45;&gt;Node5 -->
<g id="edge4_Node000001_Node000005" class="edge">
<title>Node1&#45;&gt;Node5</title>
<g id="a_edge4_Node000001_Node000005"><a xlink:title=" ">
<path fill="none" stroke="#63b8ff" d="M265.75,-199.11C265.75,-192.02 265.75,-183.29 265.75,-175.13"/>
<polygon fill="#63b8ff" stroke="#63b8ff" points="269.25,-175.34 265.75,-165.34 262.25,-175.34 269.25,-175.34"/>
</a>
</g>
</g>
<!-- Node10 -->
<g id="Node000010" class="node">
<title>Node10</title>
<g id="a_Node000010"><a xlink:href="_cast_2_i_r_2_ops_8h_8inc.html" target="_top" xlink:title=" ">
<polygon fill="white" stroke="#666666" points="434.88,-163.5 332.62,-163.5 332.62,-133 434.88,-133 434.88,-163.5"/>
<text text-anchor="start" x="340.62" y="-150" font-family="Helvetica,sans-Serif" font-size="10.00">llzk/Dialect/Cast/IR</text>
<text text-anchor="middle" x="383.75" y="-138.75" font-family="Helvetica,sans-Serif" font-size="10.00">/Ops.h.inc</text>
</a>
</g>
</g>
<!-- Node1&#45;&gt;Node10 -->
<g id="edge10_Node000001_Node000010" class="edge">
<title>Node1&#45;&gt;Node10</title>
<g id="a_edge10_Node000001_Node000010"><a xlink:title=" ">
<path fill="none" stroke="#63b8ff" d="M292.53,-199.11C308.67,-190.29 329.46,-178.93 347.11,-169.28"/>
<polygon fill="#63b8ff" stroke="#63b8ff" points="348.66,-172.42 355.75,-164.55 345.3,-166.28 348.66,-172.42"/>
</a>
</g>
</g>
<!-- Node3 -->
<g id="Node000003" class="node">
<title>Node3</title>
<g id="a_Node000003"><a xlink:title=" ">
<polygon fill="#e0e0e0" stroke="#999999" points="101.5,-24.88 0,-24.88 0,-5.63 101.5,-5.63 101.5,-24.88"/>
<text text-anchor="middle" x="50.75" y="-11.38" font-family="Helvetica,sans-Serif" font-size="10.00">mlir/IR/BuiltinOps.h</text>
</a>
</g>
</g>
<!-- Node2&#45;&gt;Node3 -->
<g id="edge2_Node000002_Node000003" class="edge">
<title>Node2&#45;&gt;Node3</title>
<g id="a_edge2_Node000002_Node000003"><a xlink:title=" ">
<path fill="none" stroke="#63b8ff" d="M63.41,-132.71C50.72,-124.14 36.76,-112.02 29.75,-97 20.3,-76.76 29.86,-51.6 38.95,-34.79"/>
<polygon fill="#63b8ff" stroke="#63b8ff" points="41.84,-36.79 43.89,-26.4 35.8,-33.24 41.84,-36.79"/>
</a>
</g>
</g>
<!-- Node4 -->
<g id="Node000004" class="node">
<title>Node4</title>
<g id="a_Node000004"><a xlink:href="_cast_2_i_r_2_dialect_8h_8inc.html" target="_top" xlink:title=" ">
<polygon fill="white" stroke="#666666" points="140.88,-97 38.62,-97 38.62,-66.5 140.88,-66.5 140.88,-97"/>
<text text-anchor="start" x="46.62" y="-83.5" font-family="Helvetica,sans-Serif" font-size="10.00">llzk/Dialect/Cast/IR</text>
<text text-anchor="middle" x="89.75" y="-72.25" font-family="Helvetica,sans-Serif" font-size="10.00">/Dialect.h.inc</text>
</a>
</g>
</g>
<!-- Node2&#45;&gt;Node4 -->
<g id="edge3_Node000002_Node000004" class="edge">
<title>Node2&#45;&gt;Node4</title>
<g id="a_edge3_Node000002_Node000004"><a xlink:title=" ">
<path fill="none" stroke="#63b8ff" d="M89.75,-132.61C89.75,-125.52 89.75,-116.79 89.75,-108.63"/>
<polygon fill="#63b8ff" stroke="#63b8ff" points="93.25,-108.84 89.75,-98.84 86.25,-108.84 93.25,-108.84"/>
</a>
</g>
</g>
<!-- Node6 -->
<g id="Node000006" class="node">
<title>Node6</title>
<g id="a_Node000006"><a xlink:href="_felt_2_i_r_2_dialect_8h.html" target="_top" xlink:title=" ">
<polygon fill="white" stroke="#666666" points="256.62,-97 158.88,-97 158.88,-66.5 256.62,-66.5 256.62,-97"/>
<text text-anchor="start" x="166.88" y="-83.5" font-family="Helvetica,sans-Serif" font-size="10.00">llzk/Dialect/Felt/IR</text>
<text text-anchor="middle" x="207.75" y="-72.25" font-family="Helvetica,sans-Serif" font-size="10.00">/Dialect.h</text>
</a>
</g>
</g>
<!-- Node5&#45;&gt;Node6 -->
<g id="edge5_Node000005_Node000006" class="edge">
<title>Node5&#45;&gt;Node6</title>
<g id="a_edge5_Node000005_Node000006"><a xlink:title=" ">
<path fill="none" stroke="#63b8ff" d="M252.59,-132.61C245.47,-124.7 236.51,-114.74 228.48,-105.8"/>
<polygon fill="#63b8ff" stroke="#63b8ff" points="231.16,-103.55 221.87,-98.45 225.95,-108.23 231.16,-103.55"/>
</a>
</g>
</g>
<!-- Node8 -->
<g id="Node000008" class="node">
<title>Node8</title>
<g id="a_Node000008"><a xlink:href="_felt_2_i_r_2_ops_8h_8inc.html" target="_top" xlink:title=" ">
<polygon fill="white" stroke="#666666" points="372.62,-97 274.88,-97 274.88,-66.5 372.62,-66.5 372.62,-97"/>
<text text-anchor="start" x="282.88" y="-83.5" font-family="Helvetica,sans-Serif" font-size="10.00">llzk/Dialect/Felt/IR</text>
<text text-anchor="middle" x="323.75" y="-72.25" font-family="Helvetica,sans-Serif" font-size="10.00">/Ops.h.inc</text>
</a>
</g>
</g>
<!-- Node5&#45;&gt;Node8 -->
<g id="edge8_Node000005_Node000008" class="edge">
<title>Node5&#45;&gt;Node8</title>
<g id="a_edge8_Node000005_Node000008"><a xlink:title=" ">
<path fill="none" stroke="#63b8ff" d="M278.91,-132.61C286.03,-124.7 294.99,-114.74 303.02,-105.8"/>
<polygon fill="#63b8ff" stroke="#63b8ff" points="305.55,-108.23 309.63,-98.45 300.34,-103.55 305.55,-108.23"/>
</a>
</g>
</g>
<!-- Node9 -->
<g id="Node000009" class="node">
<title>Node9</title>
<g id="a_Node000009"><a xlink:href="_felt_2_i_r_2_types_8h_8inc.html" target="_top" xlink:title=" ">
<polygon fill="white" stroke="#666666" points="488.62,-97 390.88,-97 390.88,-66.5 488.62,-66.5 488.62,-97"/>
<text text-anchor="start" x="398.88" y="-83.5" font-family="Helvetica,sans-Serif" font-size="10.00">llzk/Dialect/Felt/IR</text>
<text text-anchor="middle" x="439.75" y="-72.25" font-family="Helvetica,sans-Serif" font-size="10.00">/Types.h.inc</text>
</a>
</g>
</g>
<!-- Node5&#45;&gt;Node9 -->
<g id="edge9_Node000005_Node000009" class="edge">
<title>Node5&#45;&gt;Node9</title>
<g id="a_edge9_Node000005_Node000009"><a xlink:title=" ">
<path fill="none" stroke="#63b8ff" d="M305.23,-132.61C330.17,-123.37 362.63,-111.34 389.41,-101.41"/>
<polygon fill="#63b8ff" stroke="#63b8ff" points="390.54,-104.72 398.7,-97.97 388.11,-98.16 390.54,-104.72"/>
</a>
</g>
</g>
<!-- Node6&#45;&gt;Node3 -->
<g id="edge6_Node000006_Node000003" class="edge">
<title>Node6&#45;&gt;Node3</title>
<g id="a_edge6_Node000006_Node000003"><a xlink:title=" ">
<path fill="none" stroke="#63b8ff" d="M172.12,-66.11C145.37,-55.12 109.02,-40.19 83.1,-29.54"/>
<polygon fill="#63b8ff" stroke="#63b8ff" points="84.66,-26.4 74.08,-25.83 82,-32.87 84.66,-26.4"/>
</a>
</g>
</g>
<!-- Node7 -->
<g id="Node000007" class="node">
<title>Node7</title>
<g id="a_Node000007"><a xlink:href="_felt_2_i_r_2_dialect_8h_8inc.html" target="_top" xlink:title=" ">
<polygon fill="white" stroke="#666666" points="256.62,-30.5 158.88,-30.5 158.88,0 256.62,0 256.62,-30.5"/>
<text text-anchor="start" x="166.88" y="-17" font-family="Helvetica,sans-Serif" font-size="10.00">llzk/Dialect/Felt/IR</text>
<text text-anchor="middle" x="207.75" y="-5.75" font-family="Helvetica,sans-Serif" font-size="10.00">/Dialect.h.inc</text>
</a>
</g>
</g>
<!-- Node6&#45;&gt;Node7 -->
<g id="edge7_Node000006_Node000007" class="edge">
<title>Node6&#45;&gt;Node7</title>
<g id="a_edge7_Node000006_Node000007"><a xlink:title=" ">
<path fill="none" stroke="#63b8ff" d="M207.75,-66.11C207.75,-59.02 207.75,-50.29 207.75,-42.13"/>
<polygon fill="#63b8ff" stroke="#63b8ff" points="211.25,-42.34 207.75,-32.34 204.25,-42.34 211.25,-42.34"/>
</a>
</g>
</g>
</g>
</svg>
