<?xml version="1.0" encoding="UTF-8" standalone="no"?>
<!DOCTYPE svg PUBLIC "-//W3C//DTD SVG 1.1//EN"
 "http://www.w3.org/Graphics/SVG/1.1/DTD/svg11.dtd">
<!-- Generated by graphviz version 12.2.1 (0)
 -->
<!-- Title: lib/Dialect/Cast/IR/Dialect.cpp Pages: 1 -->
<svg width="629pt" height="305pt"
 viewBox="0.00 0.00 628.88 304.50" xmlns="http://www.w3.org/2000/svg" xmlns:xlink="http://www.w3.org/1999/xlink">
<g id="graph0" class="graph" transform="scale(1 1) rotate(0) translate(4 300.5)">
<title>lib/Dialect/Cast/IR/Dialect.cpp</title>
<!-- Node1 -->
<g id="Node000001" class="node">
<title>Node1</title>
<g id="a_Node000001"><a xlink:title=" ">
<polygon fill="#999999" stroke="#666666" points="377.25,-296.5 280.25,-296.5 280.25,-266 377.25,-266 377.25,-296.5"/>
<text text-anchor="start" x="288.25" y="-283" font-family="Helvetica,sans-Serif" font-size="10.00">lib/Dialect/Cast/IR</text>
<text text-anchor="middle" x="328.75" y="-271.75" font-family="Helvetica,sans-Serif" font-size="10.00">/Dialect.cpp</text>
</a>
</g>
</g>
<!-- Node2 -->
<g id="Node000002" class="node">
<title>Node2</title>
<g id="a_Node000002"><a xlink:href="_cast_2_i_r_2_dialect_8h.html" target="_top" xlink:title=" ">
<polygon fill="white" stroke="#666666" points="140.88,-163.5 38.62,-163.5 38.62,-133 140.88,-133 140.88,-163.5"/>
<text text-anchor="start" x="46.62" y="-150" font-family="Helvetica,sans-Serif" font-size="10.00">llzk/Dialect/Cast/IR</text>
<text text-anchor="middle" x="89.75" y="-138.75" font-family="Helvetica,sans-Serif" font-size="10.00">/Dialect.h</text>
</a>
</g>
</g>
<!-- Node1&#45;&gt;Node2 -->
<g id="edge1_Node000001_Node000002" class="edge">
<title>Node1&#45;&gt;Node2</title>
<g id="a_edge1_Node000001_Node000002"><a xlink:title=" ">
<path fill="none" stroke="#63b8ff" d="M280.03,-275.66C241.27,-270.02 187.2,-257.53 147.75,-230 127.38,-215.78 111.58,-192.02 101.65,-173.95"/>
<polygon fill="#63b8ff" stroke="#63b8ff" points="104.79,-172.41 97.07,-165.16 98.59,-175.65 104.79,-172.41"/>
</a>
</g>
</g>
<!-- Node5 -->
<g id="Node000005" class="node">
<title>Node5</title>
<g id="a_Node000005"><a xlink:href="_cast_2_i_r_2_ops_8h.html" target="_top" xlink:title=" ">
<polygon fill="white" stroke="#666666" points="258.88,-230 156.62,-230 156.62,-199.5 258.88,-199.5 258.88,-230"/>
<text text-anchor="start" x="164.62" y="-216.5" font-family="Helvetica,sans-Serif" font-size="10.00">llzk/Dialect/Cast/IR</text>
<text text-anchor="middle" x="207.75" y="-205.25" font-family="Helvetica,sans-Serif" font-size="10.00">/Ops.h</text>
</a>
</g>
</g>
<!-- Node1&#45;&gt;Node5 -->
<g id="edge4_Node000001_Node000005" class="edge">
<title>Node1&#45;&gt;Node5</title>
<g id="a_edge4_Node000001_Node000005"><a xlink:title=" ">
<path fill="none" stroke="#63b8ff" d="M301.29,-265.61C284.66,-256.75 263.23,-245.32 245.07,-235.64"/>
<polygon fill="#63b8ff" stroke="#63b8ff" points="246.9,-232.66 236.43,-231.04 243.61,-238.83 246.9,-232.66"/>
</a>
</g>
</g>
<!-- Node12 -->
<g id="Node000012" class="node">
<title>Node12</title>
<g id="a_Node000012"><a xlink:href="_versioning_8h.html" target="_top" xlink:title=" ">
<polygon fill="white" stroke="#666666" points="381,-230 276.5,-230 276.5,-199.5 381,-199.5 381,-230"/>
<text text-anchor="start" x="284.5" y="-216.5" font-family="Helvetica,sans-Serif" font-size="10.00">llzk/Dialect/LLZK/IR</text>
<text text-anchor="middle" x="328.75" y="-205.25" font-family="Helvetica,sans-Serif" font-size="10.00">/Versioning.h</text>
</a>
</g>
</g>
<!-- Node1&#45;&gt;Node12 -->
<g id="edge13_Node000001_Node000012" class="edge">
<title>Node1&#45;&gt;Node12</title>
<g id="a_edge13_Node000001_Node000012"><a xlink:title=" ">
<path fill="none" stroke="#63b8ff" d="M328.75,-265.61C328.75,-258.52 328.75,-249.79 328.75,-241.63"/>
<polygon fill="#63b8ff" stroke="#63b8ff" points="332.25,-241.84 328.75,-231.84 325.25,-241.84 332.25,-241.84"/>
</a>
</g>
</g>
<!-- Node14 -->
<g id="Node000014" class="node">
<title>Node14</title>
<g id="a_Node000014"><a xlink:href="_cast_2_i_r_2_dialect_8cpp_8inc.html" target="_top" xlink:title=" ">
<polygon fill="white" stroke="#666666" points="500.88,-230 398.62,-230 398.62,-199.5 500.88,-199.5 500.88,-230"/>
<text text-anchor="start" x="406.62" y="-216.5" font-family="Helvetica,sans-Serif" font-size="10.00">llzk/Dialect/Cast/IR</text>
<text text-anchor="middle" x="449.75" y="-205.25" font-family="Helvetica,sans-Serif" font-size="10.00">/Dialect.cpp.inc</text>
</a>
</g>
</g>
<!-- Node1&#45;&gt;Node14 -->
<g id="edge15_Node000001_Node000014" class="edge">
<title>Node1&#45;&gt;Node14</title>
<g id="a_edge15_Node000001_Node000014"><a xlink:title=" ">
<path fill="none" stroke="#63b8ff" d="M356.21,-265.61C372.84,-256.75 394.27,-245.32 412.43,-235.64"/>
<polygon fill="#63b8ff" stroke="#63b8ff" points="413.89,-238.83 421.07,-231.04 410.6,-232.66 413.89,-238.83"/>
</a>
</g>
</g>
<!-- Node15 -->
<g id="Node000015" class="node">
<title>Node15</title>
<g id="a_Node000015"><a xlink:href="_cast_2_i_r_2_ops_8cpp_8inc.html" target="_top" xlink:title=" ">
<polygon fill="white" stroke="#666666" points="620.88,-230 518.62,-230 518.62,-199.5 620.88,-199.5 620.88,-230"/>
<text text-anchor="start" x="526.62" y="-216.5" font-family="Helvetica,sans-Serif" font-size="10.00">llzk/Dialect/Cast/IR</text>
<text text-anchor="middle" x="569.75" y="-205.25" font-family="Helvetica,sans-Serif" font-size="10.00">/Ops.cpp.inc</text>
</a>
</g>
</g>
<!-- Node1&#45;&gt;Node15 -->
<g id="edge16_Node000001_Node000015" class="edge">
<title>Node1&#45;&gt;Node15</title>
<g id="a_edge16_Node000001_Node000015"><a xlink:title=" ">
<path fill="none" stroke="#63b8ff" d="M377.52,-267.2C414.86,-257.2 466.65,-243.34 507.06,-232.53"/>
<polygon fill="#63b8ff" stroke="#63b8ff" points="507.92,-235.92 516.68,-229.95 506.11,-229.16 507.92,-235.92"/>
</a>
</g>
</g>
<!-- Node3 -->
<g id="Node000003" class="node">
<title>Node3</title>
<g id="a_Node000003"><a xlink:title=" ">
<polygon fill="#e0e0e0" stroke="#999999" points="101.5,-24.88 0,-24.88 0,-5.63 101.5,-5.63 101.5,-24.88"/>
<text text-anchor="middle" x="50.75" y="-11.38" font-family="Helvetica,sans-Serif" font-size="10.00">mlir/IR/BuiltinOps.h</text>
</a>
</g>
</g>
<!-- Node2&#45;&gt;Node3 -->
<g id="edge2_Node000002_Node000003" class="edge">
<title>Node2&#45;&gt;Node3</title>
<g id="a_edge2_Node000002_Node000003"><a xlink:title=" ">
<path fill="none" stroke="#63b8ff" d="M63.41,-132.71C50.72,-124.14 36.76,-112.02 29.75,-97 20.3,-76.76 29.86,-51.6 38.95,-34.79"/>
<polygon fill="#63b8ff" stroke="#63b8ff" points="41.84,-36.79 43.89,-26.4 35.8,-33.24 41.84,-36.79"/>
</a>
</g>
</g>
<!-- Node4 -->
<g id="Node000004" class="node">
<title>Node4</title>
<g id="a_Node000004"><a xlink:href="_cast_2_i_r_2_dialect_8h_8inc.html" target="_top" xlink:title=" ">
<polygon fill="white" stroke="#666666" points="140.88,-97 38.62,-97 38.62,-66.5 140.88,-66.5 140.88,-97"/>
<text text-anchor="start" x="46.62" y="-83.5" font-family="Helvetica,sans-Serif" font-size="10.00">llzk/Dialect/Cast/IR</text>
<text text-anchor="middle" x="89.75" y="-72.25" font-family="Helvetica,sans-Serif" font-size="10.00">/Dialect.h.inc</text>
</a>
</g>
</g>
<!-- Node2&#45;&gt;Node4 -->
<g id="edge3_Node000002_Node000004" class="edge">
<title>Node2&#45;&gt;Node4</title>
<g id="a_edge3_Node000002_Node000004"><a xlink:title=" ">
<path fill="none" stroke="#63b8ff" d="M89.75,-132.61C89.75,-125.52 89.75,-116.79 89.75,-108.63"/>
<polygon fill="#63b8ff" stroke="#63b8ff" points="93.25,-108.84 89.75,-98.84 86.25,-108.84 93.25,-108.84"/>
</a>
</g>
</g>
<!-- Node5&#45;&gt;Node2 -->
<g id="edge5_Node000005_Node000002" class="edge">
<title>Node5&#45;&gt;Node2</title>
<g id="a_edge5_Node000005_Node000002"><a xlink:title=" ">
<path fill="none" stroke="#63b8ff" d="M180.97,-199.11C164.83,-190.29 144.04,-178.93 126.39,-169.28"/>
<polygon fill="#63b8ff" stroke="#63b8ff" points="128.2,-166.28 117.75,-164.55 124.84,-172.42 128.2,-166.28"/>
</a>
</g>
</g>
<!-- Node6 -->
<g id="Node000006" class="node">
<title>Node6</title>
<g id="a_Node000006"><a xlink:href="_felt_2_i_r_2_types_8h.html" target="_top" xlink:title=" ">
<polygon fill="white" stroke="#666666" points="256.62,-163.5 158.88,-163.5 158.88,-133 256.62,-133 256.62,-163.5"/>
<text text-anchor="start" x="166.88" y="-150" font-family="Helvetica,sans-Serif" font-size="10.00">llzk/Dialect/Felt/IR</text>
<text text-anchor="middle" x="207.75" y="-138.75" font-family="Helvetica,sans-Serif" font-size="10.00">/Types.h</text>
</a>
</g>
</g>
<!-- Node5&#45;&gt;Node6 -->
<g id="edge6_Node000005_Node000006" class="edge">
<title>Node5&#45;&gt;Node6</title>
<g id="a_edge6_Node000005_Node000006"><a xlink:title=" ">
<path fill="none" stroke="#63b8ff" d="M207.75,-199.11C207.75,-192.02 207.75,-183.29 207.75,-175.13"/>
<polygon fill="#63b8ff" stroke="#63b8ff" points="211.25,-175.34 207.75,-165.34 204.25,-175.34 211.25,-175.34"/>
</a>
</g>
</g>
<!-- Node11 -->
<g id="Node000011" class="node">
<title>Node11</title>
<g id="a_Node000011"><a xlink:href="_cast_2_i_r_2_ops_8h_8inc.html" target="_top" xlink:title=" ">
<polygon fill="white" stroke="#666666" points="376.88,-163.5 274.62,-163.5 274.62,-133 376.88,-133 376.88,-163.5"/>
<text text-anchor="start" x="282.62" y="-150" font-family="Helvetica,sans-Serif" font-size="10.00">llzk/Dialect/Cast/IR</text>
<text text-anchor="middle" x="325.75" y="-138.75" font-family="Helvetica,sans-Serif" font-size="10.00">/Ops.h.inc</text>
</a>
</g>
</g>
<!-- Node5&#45;&gt;Node11 -->
<g id="edge12_Node000005_Node000011" class="edge">
<title>Node5&#45;&gt;Node11</title>
<g id="a_edge12_Node000005_Node000011"><a xlink:title=" ">
<path fill="none" stroke="#63b8ff" d="M234.53,-199.11C250.67,-190.29 271.46,-178.93 289.11,-169.28"/>
<polygon fill="#63b8ff" stroke="#63b8ff" points="290.66,-172.42 297.75,-164.55 287.3,-166.28 290.66,-172.42"/>
</a>
</g>
</g>
<!-- Node7 -->
<g id="Node000007" class="node">
<title>Node7</title>
<g id="a_Node000007"><a xlink:href="_felt_2_i_r_2_dialect_8h.html" target="_top" xlink:title=" ">
<polygon fill="white" stroke="#666666" points="256.62,-97 158.88,-97 158.88,-66.5 256.62,-66.5 256.62,-97"/>
<text text-anchor="start" x="166.88" y="-83.5" font-family="Helvetica,sans-Serif" font-size="10.00">llzk/Dialect/Felt/IR</text>
<text text-anchor="middle" x="207.75" y="-72.25" font-family="Helvetica,sans-Serif" font-size="10.00">/Dialect.h</text>
</a>
</g>
</g>
<!-- Node6&#45;&gt;Node7 -->
<g id="edge7_Node000006_Node000007" class="edge">
<title>Node6&#45;&gt;Node7</title>
<g id="a_edge7_Node000006_Node000007"><a xlink:title=" ">
<path fill="none" stroke="#63b8ff" d="M207.75,-132.61C207.75,-125.52 207.75,-116.79 207.75,-108.63"/>
<polygon fill="#63b8ff" stroke="#63b8ff" points="211.25,-108.84 207.75,-98.84 204.25,-108.84 211.25,-108.84"/>
</a>
</g>
</g>
<!-- Node9 -->
<g id="Node000009" class="node">
<title>Node9</title>
<g id="a_Node000009"><a xlink:href="_felt_2_i_r_2_ops_8h_8inc.html" target="_top" xlink:title=" ">
<polygon fill="white" stroke="#666666" points="372.62,-97 274.88,-97 274.88,-66.5 372.62,-66.5 372.62,-97"/>
<text text-anchor="start" x="282.88" y="-83.5" font-family="Helvetica,sans-Serif" font-size="10.00">llzk/Dialect/Felt/IR</text>
<text text-anchor="middle" x="323.75" y="-72.25" font-family="Helvetica,sans-Serif" font-size="10.00">/Ops.h.inc</text>
</a>
</g>
</g>
<!-- Node6&#45;&gt;Node9 -->
<g id="edge10_Node000006_Node000009" class="edge">
<title>Node6&#45;&gt;Node9</title>
<g id="a_edge10_Node000006_Node000009"><a xlink:title=" ">
<path fill="none" stroke="#63b8ff" d="M234.07,-132.61C249.94,-123.79 270.38,-112.43 287.73,-102.78"/>
<polygon fill="#63b8ff" stroke="#63b8ff" points="289.17,-105.98 296.21,-98.06 285.77,-99.86 289.17,-105.98"/>
</a>
</g>
</g>
<!-- Node10 -->
<g id="Node000010" class="node">
<title>Node10</title>
<g id="a_Node000010"><a xlink:href="_felt_2_i_r_2_types_8h_8inc.html" target="_top" xlink:title=" ">
<polygon fill="white" stroke="#666666" points="488.62,-97 390.88,-97 390.88,-66.5 488.62,-66.5 488.62,-97"/>
<text text-anchor="start" x="398.88" y="-83.5" font-family="Helvetica,sans-Serif" font-size="10.00">llzk/Dialect/Felt/IR</text>
<text text-anchor="middle" x="439.75" y="-72.25" font-family="Helvetica,sans-Serif" font-size="10.00">/Types.h.inc</text>
</a>
</g>
</g>
<!-- Node6&#45;&gt;Node10 -->
<g id="edge11_Node000006_Node000010" class="edge">
<title>Node6&#45;&gt;Node10</title>
<g id="a_edge11_Node000006_Node000010"><a xlink:title=" ">
<path fill="none" stroke="#63b8ff" d="M256.95,-133.57C292.79,-123.61 341.52,-110.06 379.66,-99.46"/>
<polygon fill="#63b8ff" stroke="#63b8ff" points="380.46,-102.87 389.16,-96.81 378.59,-96.12 380.46,-102.87"/>
</a>
</g>
</g>
<!-- Node7&#45;&gt;Node3 -->
<g id="edge8_Node000007_Node000003" class="edge">
<title>Node7&#45;&gt;Node3</title>
<g id="a_edge8_Node000007_Node000003"><a xlink:title=" ">
<path fill="none" stroke="#63b8ff" d="M172.12,-66.11C145.37,-55.12 109.02,-40.19 83.1,-29.54"/>
<polygon fill="#63b8ff" stroke="#63b8ff" points="84.66,-26.4 74.08,-25.83 82,-32.87 84.66,-26.4"/>
</a>
</g>
</g>
<!-- Node8 -->
<g id="Node000008" class="node">
<title>Node8</title>
<g id="a_Node000008"><a xlink:href="_felt_2_i_r_2_dialect_8h_8inc.html" target="_top" xlink:title=" ">
<polygon fill="white" stroke="#666666" points="256.62,-30.5 158.88,-30.5 158.88,0 256.62,0 256.62,-30.5"/>
<text text-anchor="start" x="166.88" y="-17" font-family="Helvetica,sans-Serif" font-size="10.00">llzk/Dialect/Felt/IR</text>
<text text-anchor="middle" x="207.75" y="-5.75" font-family="Helvetica,sans-Serif" font-size="10.00">/Dialect.h.inc</text>
</a>
</g>
</g>
<!-- Node7&#45;&gt;Node8 -->
<g id="edge9_Node000007_Node000008" class="edge">
<title>Node7&#45;&gt;Node8</title>
<g id="a_edge9_Node000007_Node000008"><a xlink:title=" ">
<path fill="none" stroke="#63b8ff" d="M207.75,-66.11C207.75,-59.02 207.75,-50.29 207.75,-42.13"/>
<polygon fill="#63b8ff" stroke="#63b8ff" points="211.25,-42.34 207.75,-32.34 204.25,-42.34 211.25,-42.34"/>
</a>
</g>
</g>
<!-- Node13 -->
<g id="Node000013" class="node">
<title>Node13</title>
<g id="a_Node000013"><a xlink:title=" ">
<polygon fill="#e0e0e0" stroke="#999999" points="590.38,-157.88 395.12,-157.88 395.12,-138.62 590.38,-138.62 590.38,-157.88"/>
<text text-anchor="middle" x="492.75" y="-144.38" font-family="Helvetica,sans-Serif" font-size="10.00">mlir/Bytecode/BytecodeImplementation.h</text>
</a>
</g>
</g>
<!-- Node12&#45;&gt;Node13 -->
<g id="edge14_Node000012_Node000013" class="edge">
<title>Node12&#45;&gt;Node13</title>
<g id="a_edge14_Node000012_Node000013"><a xlink:title=" ">
<path fill="none" stroke="#63b8ff" d="M365.96,-199.11C394.04,-188.07 432.22,-173.06 459.32,-162.4"/>
<polygon fill="#63b8ff" stroke="#63b8ff" points="460.41,-165.73 468.43,-158.81 457.85,-159.22 460.41,-165.73"/>
</a>
</g>
</g>
</g>
</svg>
