<?xml version="1.0" encoding="UTF-8" standalone="no"?>
<!DOCTYPE svg PUBLIC "-//W3C//DTD SVG 1.1//EN"
 "http://www.w3.org/Graphics/SVG/1.1/DTD/svg11.dtd">
<!-- Generated by graphviz version 12.2.1 (0)
 -->
<!-- Title: include/llzk/Dialect/Cast/IR/Dialect.h Pages: 1 -->
<svg width="230pt" height="105pt"
 viewBox="0.00 0.00 229.88 105.00" xmlns="http://www.w3.org/2000/svg" xmlns:xlink="http://www.w3.org/1999/xlink">
<g id="graph0" class="graph" transform="scale(1 1) rotate(0) translate(4 101)">
<title>include/llzk/Dialect/Cast/IR/Dialect.h</title>
<!-- Node1 -->
<g id="Node000001" class="node">
<title>Node1</title>
<g id="a_Node000001"><a xlink:title=" ">
<polygon fill="#999999" stroke="#666666" points="160,-97 61.5,-97 61.5,-66.5 160,-66.5 160,-97"/>
<text text-anchor="start" x="69.5" y="-83.5" font-family="Helvetica,sans-Serif" font-size="10.00">include/llzk/Dialect</text>
<text text-anchor="middle" x="110.75" y="-72.25" font-family="Helvetica,sans-Serif" font-size="10.00">/Cast/IR/Dialect.h</text>
</a>
</g>
</g>
<!-- Node2 -->
<g id="Node000002" class="node">
<title>Node2</title>
<g id="a_Node000002"><a xlink:title=" ">
<polygon fill="#e0e0e0" stroke="#999999" points="101.5,-24.88 0,-24.88 0,-5.63 101.5,-5.63 101.5,-24.88"/>
<text text-anchor="middle" x="50.75" y="-11.38" font-family="Helvetica,sans-Serif" font-size="10.00">mlir/IR/BuiltinOps.h</text>
</a>
</g>
</g>
<!-- Node1&#45;&gt;Node2 -->
<g id="edge1_Node000001_Node000002" class="edge">
<title>Node1&#45;&gt;Node2</title>
<g id="a_edge1_Node000001_Node000002"><a xlink:title=" ">
<path fill="none" stroke="#63b8ff" d="M97.14,-66.11C88.04,-56.34 76.05,-43.45 66.54,-33.23"/>
<polygon fill="#63b8ff" stroke="#63b8ff" points="69.36,-31.12 59.99,-26.18 64.24,-35.89 69.36,-31.12"/>
</a>
</g>
</g>
<!-- Node3 -->
<g id="Node000003" class="node">
<title>Node3</title>
<g id="a_Node000003"><a xlink:href="_cast_2_i_r_2_dialect_8h_8inc.html" target="_top" xlink:title=" ">
<polygon fill="white" stroke="#666666" points="221.88,-30.5 119.62,-30.5 119.62,0 221.88,0 221.88,-30.5"/>
<text text-anchor="start" x="127.62" y="-17" font-family="Helvetica,sans-Serif" font-size="10.00">llzk/Dialect/Cast/IR</text>
<text text-anchor="middle" x="170.75" y="-5.75" font-family="Helvetica,sans-Serif" font-size="10.00">/Dialect.h.inc</text>
</a>
</g>
</g>
<!-- Node1&#45;&gt;Node3 -->
<g id="edge2_Node000001_Node000003" class="edge">
<title>Node1&#45;&gt;Node3</title>
<g id="a_edge2_Node000001_Node000003"><a xlink:title=" ">
<path fill="none" stroke="#63b8ff" d="M124.36,-66.11C131.81,-58.11 141.19,-48.03 149.56,-39.03"/>
<polygon fill="#63b8ff" stroke="#63b8ff" points="151.91,-41.64 156.16,-31.94 146.78,-36.87 151.91,-41.64"/>
</a>
</g>
</g>
</g>
</svg>
