<?xml version="1.0" encoding="UTF-8" standalone="no"?>
<!DOCTYPE svg PUBLIC "-//W3C//DTD SVG 1.1//EN"
 "http://www.w3.org/Graphics/SVG/1.1/DTD/svg11.dtd">
<!-- Generated by graphviz version 12.2.1 (0)
 -->
<!-- Title: include/llzk/Analysis/ConstrainRef.h Pages: 1 -->
<svg width="3163pt" height="238pt"
 viewBox="0.00 0.00 3163.35 238.00" xmlns="http://www.w3.org/2000/svg" xmlns:xlink="http://www.w3.org/1999/xlink">
<g id="graph0" class="graph" transform="scale(1 1) rotate(0) translate(4 234)">
<title>include/llzk/Analysis/ConstrainRef.h</title>
<!-- Node1 -->
<g id="Node000001" class="node">
<title>Node1</title>
<g id="a_Node000001"><a xlink:title=" ">
<polygon fill="#999999" stroke="#666666" points="2373.47,-230 2268.22,-230 2268.22,-199.5 2373.47,-199.5 2373.47,-230"/>
<text text-anchor="start" x="2276.22" y="-216.5" font-family="Helvetica,sans-Serif" font-size="10.00">include/llzk/Analysis</text>
<text text-anchor="middle" x="2320.85" y="-205.25" font-family="Helvetica,sans-Serif" font-size="10.00">/ConstrainRef.h</text>
</a>
</g>
</g>
<!-- Node2 -->
<g id="Node000002" class="node">
<title>Node2</title>
<g id="a_Node000002"><a xlink:href="_abstract_lattice_value_8h.html" target="_top" xlink:title=" ">
<polygon fill="white" stroke="#666666" points="1680.1,-163.5 1539.6,-163.5 1539.6,-133 1680.1,-133 1680.1,-163.5"/>
<text text-anchor="start" x="1547.6" y="-150" font-family="Helvetica,sans-Serif" font-size="10.00">llzk/Analysis/AbstractLattice</text>
<text text-anchor="middle" x="1609.85" y="-138.75" font-family="Helvetica,sans-Serif" font-size="10.00">Value.h</text>
</a>
</g>
</g>
<!-- Node1&#45;&gt;Node2 -->
<g id="edge1_Node000001_Node000002" class="edge">
<title>Node1&#45;&gt;Node2</title>
<g id="a_edge1_Node000001_Node000002"><a xlink:title=" ">
<path fill="none" stroke="#63b8ff" d="M2267.99,-208.95C2145.03,-197.8 1839.13,-170.05 1691.76,-156.68"/>
<polygon fill="#63b8ff" stroke="#63b8ff" points="1692.35,-153.22 1682.08,-155.8 1691.72,-160.19 1692.35,-153.22"/>
</a>
</g>
</g>
<!-- Node14 -->
<g id="Node000014" class="node">
<title>Node14</title>
<g id="a_Node000014"><a xlink:href="_error_helper_8h.html" target="_top" xlink:title=" ">
<polygon fill="white" stroke="#666666" points="1177.35,-91.38 1068.35,-91.38 1068.35,-72.12 1177.35,-72.12 1177.35,-91.38"/>
<text text-anchor="middle" x="1122.85" y="-77.88" font-family="Helvetica,sans-Serif" font-size="10.00">llzk/Util/ErrorHelper.h</text>
</a>
</g>
</g>
<!-- Node1&#45;&gt;Node14 -->
<g id="edge52_Node000001_Node000014" class="edge">
<title>Node1&#45;&gt;Node14</title>
<g id="a_edge52_Node000001_Node000014"><a xlink:title=" ">
<path fill="none" stroke="#63b8ff" d="M2267.93,-212.7C2140.54,-209.67 1806.9,-198.74 1530.85,-163.5 1399.53,-146.74 1247.04,-112.57 1171.06,-94.52"/>
<polygon fill="#63b8ff" stroke="#63b8ff" points="1171.99,-91.14 1161.45,-92.23 1170.36,-97.95 1171.99,-91.14"/>
</a>
</g>
</g>
<!-- Node24 -->
<g id="Node000024" class="node">
<title>Node24</title>
<g id="a_Node000024"><a xlink:href="_felt_2_i_r_2_ops_8h.html" target="_top" xlink:title=" ">
<polygon fill="white" stroke="#666666" points="329.72,-163.5 231.97,-163.5 231.97,-133 329.72,-133 329.72,-163.5"/>
<text text-anchor="start" x="239.97" y="-150" font-family="Helvetica,sans-Serif" font-size="10.00">llzk/Dialect/Felt/IR</text>
<text text-anchor="middle" x="280.85" y="-138.75" font-family="Helvetica,sans-Serif" font-size="10.00">/Ops.h</text>
</a>
</g>
</g>
<!-- Node1&#45;&gt;Node24 -->
<g id="edge21_Node000001_Node000024" class="edge">
<title>Node1&#45;&gt;Node24</title>
<g id="a_edge21_Node000001_Node000024"><a xlink:title=" ">
<path fill="none" stroke="#63b8ff" d="M2267.85,-212.07C1983.79,-203.09 643.1,-160.7 341.29,-151.16"/>
<polygon fill="#63b8ff" stroke="#63b8ff" points="341.78,-147.67 331.68,-150.86 341.56,-154.67 341.78,-147.67"/>
</a>
</g>
</g>
<!-- Node38 -->
<g id="Node000038" class="node">
<title>Node38</title>
<g id="a_Node000038"><a xlink:href="_attribute_helper_8h.html" target="_top" xlink:title=" ">
<polygon fill="white" stroke="#666666" points="2121.1,-163.5 2016.6,-163.5 2016.6,-133 2121.1,-133 2121.1,-163.5"/>
<text text-anchor="start" x="2024.6" y="-150" font-family="Helvetica,sans-Serif" font-size="10.00">llzk/Dialect/LLZK/IR</text>
<text text-anchor="middle" x="2068.85" y="-138.75" font-family="Helvetica,sans-Serif" font-size="10.00">/AttributeHelper.h</text>
</a>
</g>
</g>
<!-- Node1&#45;&gt;Node38 -->
<g id="edge32_Node000001_Node000038" class="edge">
<title>Node1&#45;&gt;Node38</title>
<g id="a_edge32_Node000001_Node000038"><a xlink:title=" ">
<path fill="none" stroke="#63b8ff" d="M2268.02,-200.23C2228.41,-190.09 2174.03,-176.17 2132.1,-165.44"/>
<polygon fill="#63b8ff" stroke="#63b8ff" points="2133.2,-162.11 2122.64,-163.02 2131.46,-168.89 2133.2,-162.11"/>
</a>
</g>
</g>
<!-- Node41 -->
<g id="Node000041" class="node">
<title>Node41</title>
<g id="a_Node000041"><a xlink:href="_polymorphic_2_i_r_2_ops_8h.html" target="_top" xlink:title=" ">
<polygon fill="white" stroke="#666666" points="2260.72,-163.5 2138.97,-163.5 2138.97,-133 2260.72,-133 2260.72,-163.5"/>
<text text-anchor="start" x="2146.97" y="-150" font-family="Helvetica,sans-Serif" font-size="10.00">llzk/Dialect/Polymorphic</text>
<text text-anchor="middle" x="2199.85" y="-138.75" font-family="Helvetica,sans-Serif" font-size="10.00">/IR/Ops.h</text>
</a>
</g>
</g>
<!-- Node1&#45;&gt;Node41 -->
<g id="edge35_Node000001_Node000041" class="edge">
<title>Node1&#45;&gt;Node41</title>
<g id="a_edge35_Node000001_Node000041"><a xlink:title=" ">
<path fill="none" stroke="#63b8ff" d="M2293.39,-199.11C2276.76,-190.25 2255.32,-178.82 2237.17,-169.14"/>
<polygon fill="#63b8ff" stroke="#63b8ff" points="2239,-166.16 2228.53,-164.54 2235.71,-172.33 2239,-166.16"/>
</a>
</g>
</g>
<!-- Node48 -->
<g id="Node000048" class="node">
<title>Node48</title>
<g id="a_Node000048"><a xlink:href="_struct_2_i_r_2_ops_8h.html" target="_top" xlink:title=" ">
<polygon fill="white" stroke="#666666" points="839.85,-163.5 745.85,-163.5 745.85,-133 839.85,-133 839.85,-163.5"/>
<text text-anchor="start" x="753.85" y="-150" font-family="Helvetica,sans-Serif" font-size="10.00">llzk/Dialect/Struct</text>
<text text-anchor="middle" x="792.85" y="-138.75" font-family="Helvetica,sans-Serif" font-size="10.00">/IR/Ops.h</text>
</a>
</g>
</g>
<!-- Node1&#45;&gt;Node48 -->
<g id="edge42_Node000001_Node000048" class="edge">
<title>Node1&#45;&gt;Node48</title>
<g id="a_edge42_Node000001_Node000048"><a xlink:title=" ">
<path fill="none" stroke="#63b8ff" d="M2267.81,-211.51C2034.05,-201.64 1096.61,-162.07 851.65,-151.73"/>
<polygon fill="#63b8ff" stroke="#63b8ff" points="851.83,-148.24 841.69,-151.31 851.54,-155.23 851.83,-148.24"/>
</a>
</g>
</g>
<!-- Node71 -->
<g id="Node000071" class="node">
<title>Node71</title>
<g id="a_Node000071"><a xlink:href="_hash_8h.html" target="_top" xlink:title=" ">
<polygon fill="white" stroke="#666666" points="2362.6,-157.88 2279.1,-157.88 2279.1,-138.62 2362.6,-138.62 2362.6,-157.88"/>
<text text-anchor="middle" x="2320.85" y="-144.38" font-family="Helvetica,sans-Serif" font-size="10.00">llzk/Util/Hash.h</text>
</a>
</g>
</g>
<!-- Node1&#45;&gt;Node71 -->
<g id="edge53_Node000001_Node000071" class="edge">
<title>Node1&#45;&gt;Node71</title>
<g id="a_edge53_Node000001_Node000071"><a xlink:title=" ">
<path fill="none" stroke="#63b8ff" d="M2320.85,-199.11C2320.85,-190.33 2320.85,-179.02 2320.85,-169.4"/>
<polygon fill="#63b8ff" stroke="#63b8ff" points="2324.35,-169.59 2320.85,-159.59 2317.35,-169.59 2324.35,-169.59"/>
</a>
</g>
</g>
<!-- Node73 -->
<g id="Node000073" class="node">
<title>Node73</title>
<g id="a_Node000073"><a xlink:title=" ">
<polygon fill="#e0e0e0" stroke="#999999" points="2554.97,-157.88 2380.72,-157.88 2380.72,-138.62 2554.97,-138.62 2554.97,-157.88"/>
<text text-anchor="middle" x="2467.85" y="-144.38" font-family="Helvetica,sans-Serif" font-size="10.00">mlir/Analysis/DataFlowFramework.h</text>
</a>
</g>
</g>
<!-- Node1&#45;&gt;Node73 -->
<g id="edge55_Node000001_Node000073" class="edge">
<title>Node1&#45;&gt;Node73</title>
<g id="a_edge55_Node000001_Node000073"><a xlink:title=" ">
<path fill="none" stroke="#63b8ff" d="M2354.2,-199.11C2379.03,-188.22 2412.68,-173.46 2436.91,-162.83"/>
<polygon fill="#63b8ff" stroke="#63b8ff" points="2438.18,-166.09 2445.93,-158.87 2435.36,-159.68 2438.18,-166.09"/>
</a>
</g>
</g>
<!-- Node74 -->
<g id="Node000074" class="node">
<title>Node74</title>
<g id="a_Node000074"><a xlink:title=" ">
<polygon fill="#e0e0e0" stroke="#999999" points="2662.22,-163.5 2573.47,-163.5 2573.47,-133 2662.22,-133 2662.22,-163.5"/>
<text text-anchor="start" x="2581.47" y="-150" font-family="Helvetica,sans-Serif" font-size="10.00">mlir/Dialect/Arith</text>
<text text-anchor="middle" x="2617.85" y="-138.75" font-family="Helvetica,sans-Serif" font-size="10.00">/IR/Arith.h</text>
</a>
</g>
</g>
<!-- Node1&#45;&gt;Node74 -->
<g id="edge56_Node000001_Node000074" class="edge">
<title>Node1&#45;&gt;Node74</title>
<g id="a_edge56_Node000001_Node000074"><a xlink:title=" ">
<path fill="none" stroke="#63b8ff" d="M2373.64,-203.69C2420.58,-194.55 2491.31,-180.31 2562.19,-163.81"/>
<polygon fill="#63b8ff" stroke="#63b8ff" points="2562.69,-167.29 2571.63,-161.6 2561.1,-160.48 2562.69,-167.29"/>
</a>
</g>
</g>
<!-- Node75 -->
<g id="Node000075" class="node">
<title>Node75</title>
<g id="a_Node000075"><a xlink:title=" ">
<polygon fill="#e0e0e0" stroke="#999999" points="2823.22,-157.88 2680.47,-157.88 2680.47,-138.62 2823.22,-138.62 2823.22,-157.88"/>
<text text-anchor="middle" x="2751.85" y="-144.38" font-family="Helvetica,sans-Serif" font-size="10.00">mlir/Pass/AnalysisManager.h</text>
</a>
</g>
</g>
<!-- Node1&#45;&gt;Node75 -->
<g id="edge57_Node000001_Node000075" class="edge">
<title>Node1&#45;&gt;Node75</title>
<g id="a_edge57_Node000001_Node000075"><a xlink:title=" ">
<path fill="none" stroke="#63b8ff" d="M2373.7,-206.69C2442.3,-197.41 2565.67,-180.3 2670.85,-163.5 2677.26,-162.48 2683.95,-161.37 2690.62,-160.23"/>
<polygon fill="#63b8ff" stroke="#63b8ff" points="2691.01,-163.72 2700.28,-158.57 2689.83,-156.82 2691.01,-163.72"/>
</a>
</g>
</g>
<!-- Node76 -->
<g id="Node000076" class="node">
<title>Node76</title>
<g id="a_Node000076"><a xlink:title=" ">
<polygon fill="#e0e0e0" stroke="#999999" points="2998.72,-157.88 2840.97,-157.88 2840.97,-138.62 2998.72,-138.62 2998.72,-157.88"/>
<text text-anchor="middle" x="2919.85" y="-144.38" font-family="Helvetica,sans-Serif" font-size="10.00">llvm/ADT/EquivalenceClasses.h</text>
</a>
</g>
</g>
<!-- Node1&#45;&gt;Node76 -->
<g id="edge58_Node000001_Node000076" class="edge">
<title>Node1&#45;&gt;Node76</title>
<g id="a_edge58_Node000001_Node000076"><a xlink:title=" ">
<path fill="none" stroke="#63b8ff" d="M2373.94,-209.63C2466.92,-202.17 2665.21,-185.16 2831.85,-163.5 2839.67,-162.48 2847.87,-161.31 2855.98,-160.07"/>
<polygon fill="#63b8ff" stroke="#63b8ff" points="2856.51,-163.53 2865.85,-158.54 2855.43,-156.62 2856.51,-163.53"/>
</a>
</g>
</g>
<!-- Node77 -->
<g id="Node000077" class="node">
<title>Node77</title>
<g id="a_Node000077"><a xlink:title=" ">
<polygon fill="#e0e0e0" stroke="#999999" points="3094.6,-157.88 3017.1,-157.88 3017.1,-138.62 3094.6,-138.62 3094.6,-157.88"/>
<text text-anchor="middle" x="3055.85" y="-144.38" font-family="Helvetica,sans-Serif" font-size="10.00">unordered_set</text>
</a>
</g>
</g>
<!-- Node1&#45;&gt;Node77 -->
<g id="edge59_Node000001_Node000077" class="edge">
<title>Node1&#45;&gt;Node77</title>
<g id="a_edge59_Node000001_Node000077"><a xlink:title=" ">
<path fill="none" stroke="#63b8ff" d="M2373.91,-213.74C2489.9,-212.89 2774.33,-206.19 3007.85,-163.5 3011.2,-162.89 3014.66,-162.13 3018.1,-161.28"/>
<polygon fill="#63b8ff" stroke="#63b8ff" points="3018.73,-164.73 3027.47,-158.74 3016.9,-157.98 3018.73,-164.73"/>
</a>
</g>
</g>
<!-- Node65 -->
<g id="Node000065" class="node">
<title>Node65</title>
<g id="a_Node000065"><a xlink:title=" ">
<polygon fill="#e0e0e0" stroke="#999999" points="3155.35,-157.88 3112.35,-157.88 3112.35,-138.62 3155.35,-138.62 3155.35,-157.88"/>
<text text-anchor="middle" x="3133.85" y="-144.38" font-family="Helvetica,sans-Serif" font-size="10.00">vector</text>
</a>
</g>
</g>
<!-- Node1&#45;&gt;Node65 -->
<g id="edge60_Node000001_Node000065" class="edge">
<title>Node1&#45;&gt;Node65</title>
<g id="a_edge60_Node000001_Node000065"><a xlink:title=" ">
<path fill="none" stroke="#63b8ff" d="M2373.92,-212.95C2526.68,-210.23 2965.32,-199.43 3103.85,-163.5 3105.02,-163.2 3106.2,-162.85 3107.38,-162.46"/>
<polygon fill="#63b8ff" stroke="#63b8ff" points="3108.41,-165.82 3116.36,-158.83 3105.78,-159.33 3108.41,-165.82"/>
</a>
</g>
</g>
<!-- Node3 -->
<g id="Node000003" class="node">
<title>Node3</title>
<g id="a_Node000003"><a xlink:href="_debug_8h.html" target="_top" xlink:title=" ">
<polygon fill="#fff0f0" stroke="red" points="1888.22,-91.38 1799.47,-91.38 1799.47,-72.12 1888.22,-72.12 1888.22,-91.38"/>
<text text-anchor="middle" x="1843.85" y="-77.88" font-family="Helvetica,sans-Serif" font-size="10.00">llzk/Util/Debug.h</text>
</a>
</g>
</g>
<!-- Node2&#45;&gt;Node3 -->
<g id="edge2_Node000002_Node000003" class="edge">
<title>Node2&#45;&gt;Node3</title>
<g id="a_edge2_Node000002_Node000003"><a xlink:title=" ">
<path fill="none" stroke="#63b8ff" d="M1663.24,-132.53C1704.61,-121.13 1761.23,-105.52 1799.98,-94.84"/>
<polygon fill="#63b8ff" stroke="#63b8ff" points="1800.73,-98.26 1809.44,-92.23 1798.87,-91.52 1800.73,-98.26"/>
</a>
</g>
</g>
<!-- Node2&#45;&gt;Node14 -->
<g id="edge11_Node000002_Node000014" class="edge">
<title>Node2&#45;&gt;Node14</title>
<g id="a_edge11_Node000002_Node000014"><a xlink:title=" ">
<path fill="none" stroke="#63b8ff" d="M1539.38,-141.17C1454.98,-133.37 1309.49,-118.25 1185.85,-97 1180.99,-96.17 1175.95,-95.2 1170.92,-94.17"/>
<polygon fill="#63b8ff" stroke="#63b8ff" points="1172.02,-90.82 1161.51,-92.15 1170.56,-97.67 1172.02,-90.82"/>
</a>
</g>
</g>
<!-- Node18 -->
<g id="Node000018" class="node">
<title>Node18</title>
<g id="a_Node000018"><a xlink:title=" ">
<polygon fill="#e0e0e0" stroke="#999999" points="1312.47,-97 1195.22,-97 1195.22,-66.5 1312.47,-66.5 1312.47,-97"/>
<text text-anchor="start" x="1203.22" y="-83.5" font-family="Helvetica,sans-Serif" font-size="10.00">mlir/Analysis/DataFlow</text>
<text text-anchor="middle" x="1253.85" y="-72.25" font-family="Helvetica,sans-Serif" font-size="10.00">/DeadCodeAnalysis.h</text>
</a>
</g>
</g>
<!-- Node2&#45;&gt;Node18 -->
<g id="edge15_Node000002_Node000018" class="edge">
<title>Node2&#45;&gt;Node18</title>
<g id="a_edge15_Node000002_Node000018"><a xlink:title=" ">
<path fill="none" stroke="#63b8ff" d="M1539.3,-135.63C1483.54,-126.28 1403.46,-112.51 1324,-97.38"/>
<polygon fill="#63b8ff" stroke="#63b8ff" points="1324.76,-93.96 1314.28,-95.51 1323.44,-100.83 1324.76,-93.96"/>
</a>
</g>
</g>
<!-- Node19 -->
<g id="Node000019" class="node">
<title>Node19</title>
<g id="a_Node000019"><a xlink:title=" ">
<polygon fill="#e0e0e0" stroke="#999999" points="1435.1,-91.38 1330.6,-91.38 1330.6,-72.12 1435.1,-72.12 1435.1,-91.38"/>
<text text-anchor="middle" x="1382.85" y="-77.88" font-family="Helvetica,sans-Serif" font-size="10.00">mlir/Support/LLVM.h</text>
</a>
</g>
</g>
<!-- Node2&#45;&gt;Node19 -->
<g id="edge16_Node000002_Node000019" class="edge">
<title>Node2&#45;&gt;Node19</title>
<g id="a_edge16_Node000002_Node000019"><a xlink:title=" ">
<path fill="none" stroke="#63b8ff" d="M1558.05,-132.53C1517.92,-121.13 1462.99,-105.52 1425.4,-94.84"/>
<polygon fill="#63b8ff" stroke="#63b8ff" points="1426.84,-91.61 1416.26,-92.24 1424.92,-98.34 1426.84,-91.61"/>
</a>
</g>
</g>
<!-- Node20 -->
<g id="Node000020" class="node">
<title>Node20</title>
<g id="a_Node000020"><a xlink:title=" ">
<polygon fill="#e0e0e0" stroke="#999999" points="1564.1,-91.38 1453.6,-91.38 1453.6,-72.12 1564.1,-72.12 1564.1,-91.38"/>
<text text-anchor="middle" x="1508.85" y="-77.88" font-family="Helvetica,sans-Serif" font-size="10.00">llvm/Support/Debug.h</text>
</a>
</g>
</g>
<!-- Node2&#45;&gt;Node20 -->
<g id="edge17_Node000002_Node000020" class="edge">
<title>Node2&#45;&gt;Node20</title>
<g id="a_edge17_Node000002_Node000020"><a xlink:title=" ">
<path fill="none" stroke="#63b8ff" d="M1586.93,-132.61C1570.64,-122.21 1548.82,-108.28 1532.39,-97.79"/>
<polygon fill="#63b8ff" stroke="#63b8ff" points="1534.54,-95.01 1524.23,-92.57 1530.78,-100.91 1534.54,-95.01"/>
</a>
</g>
</g>
<!-- Node21 -->
<g id="Node000021" class="node">
<title>Node21</title>
<g id="a_Node000021"><a xlink:title=" ">
<polygon fill="#e0e0e0" stroke="#999999" points="1637.72,-91.38 1581.97,-91.38 1581.97,-72.12 1637.72,-72.12 1637.72,-91.38"/>
<text text-anchor="middle" x="1609.85" y="-77.88" font-family="Helvetica,sans-Serif" font-size="10.00">concepts</text>
</a>
</g>
</g>
<!-- Node2&#45;&gt;Node21 -->
<g id="edge18_Node000002_Node000021" class="edge">
<title>Node2&#45;&gt;Node21</title>
<g id="a_edge18_Node000002_Node000021"><a xlink:title=" ">
<path fill="none" stroke="#63b8ff" d="M1609.85,-132.61C1609.85,-123.83 1609.85,-112.52 1609.85,-102.9"/>
<polygon fill="#63b8ff" stroke="#63b8ff" points="1613.35,-103.09 1609.85,-93.09 1606.35,-103.09 1613.35,-103.09"/>
</a>
</g>
</g>
<!-- Node22 -->
<g id="Node000022" class="node">
<title>Node22</title>
<g id="a_Node000022"><a xlink:title=" ">
<polygon fill="#e0e0e0" stroke="#999999" points="1717.72,-91.38 1655.97,-91.38 1655.97,-72.12 1717.72,-72.12 1717.72,-91.38"/>
<text text-anchor="middle" x="1686.85" y="-77.88" font-family="Helvetica,sans-Serif" font-size="10.00">type_traits</text>
</a>
</g>
</g>
<!-- Node2&#45;&gt;Node22 -->
<g id="edge19_Node000002_Node000022" class="edge">
<title>Node2&#45;&gt;Node22</title>
<g id="a_edge19_Node000002_Node000022"><a xlink:title=" ">
<path fill="none" stroke="#63b8ff" d="M1627.32,-132.61C1639.34,-122.54 1655.31,-109.17 1667.68,-98.81"/>
<polygon fill="#63b8ff" stroke="#63b8ff" points="1669.74,-101.65 1675.15,-92.54 1665.24,-96.28 1669.74,-101.65"/>
</a>
</g>
</g>
<!-- Node23 -->
<g id="Node000023" class="node">
<title>Node23</title>
<g id="a_Node000023"><a xlink:title=" ">
<polygon fill="#e0e0e0" stroke="#999999" points="1781.47,-91.38 1736.22,-91.38 1736.22,-72.12 1781.47,-72.12 1781.47,-91.38"/>
<text text-anchor="middle" x="1758.85" y="-77.88" font-family="Helvetica,sans-Serif" font-size="10.00">variant</text>
</a>
</g>
</g>
<!-- Node2&#45;&gt;Node23 -->
<g id="edge20_Node000002_Node000023" class="edge">
<title>Node2&#45;&gt;Node23</title>
<g id="a_edge20_Node000002_Node000023"><a xlink:title=" ">
<path fill="none" stroke="#63b8ff" d="M1644.46,-132.53C1667.77,-122.58 1699.2,-109.09 1726.85,-97 1727.32,-96.79 1727.8,-96.58 1728.28,-96.37"/>
<polygon fill="#63b8ff" stroke="#63b8ff" points="1729.43,-99.69 1737.17,-92.45 1726.61,-93.29 1729.43,-99.69"/>
</a>
</g>
</g>
<!-- Node4 -->
<g id="Node000004" class="node">
<title>Node4</title>
<g id="a_Node000004"><a xlink:title=" ">
<polygon fill="#e0e0e0" stroke="#999999" points="526.1,-24.88 427.6,-24.88 427.6,-5.63 526.1,-5.63 526.1,-24.88"/>
<text text-anchor="middle" x="476.85" y="-11.38" font-family="Helvetica,sans-Serif" font-size="10.00">mlir/IR/Attributes.h</text>
</a>
</g>
</g>
<!-- Node3&#45;&gt;Node4 -->
<g id="edge3_Node000003_Node000004" class="edge">
<title>Node3&#45;&gt;Node4</title>
<g id="a_edge3_Node000003_Node000004"><a xlink:title=" ">
<path fill="none" stroke="#63b8ff" d="M1814.94,-71.68C1807.19,-69.6 1798.77,-67.67 1790.85,-66.5 1266.5,10.83 1127.45,-69.28 598.85,-30.5 578.85,-29.03 557.08,-26.72 537.54,-24.38"/>
<polygon fill="#63b8ff" stroke="#63b8ff" points="538.17,-20.93 527.82,-23.19 537.32,-27.88 538.17,-20.93"/>
</a>
</g>
</g>
<!-- Node5 -->
<g id="Node000005" class="node">
<title>Node5</title>
<g id="a_Node000005"><a xlink:title=" ">
<polygon fill="#e0e0e0" stroke="#999999" points="1534.6,-24.88 1409.1,-24.88 1409.1,-5.63 1534.6,-5.63 1534.6,-24.88"/>
<text text-anchor="middle" x="1471.85" y="-11.38" font-family="Helvetica,sans-Serif" font-size="10.00">mlir/IR/BuiltinAttributes.h</text>
</a>
</g>
</g>
<!-- Node3&#45;&gt;Node5 -->
<g id="edge4_Node000003_Node000005" class="edge">
<title>Node3&#45;&gt;Node5</title>
<g id="a_edge4_Node000003_Node000005"><a xlink:title=" ">
<path fill="none" stroke="#63b8ff" d="M1812.61,-71.69C1805.49,-69.82 1797.94,-67.96 1790.85,-66.5 1682.2,-44.06 1653.18,-49.28 1543.85,-30.5 1538.34,-29.55 1532.6,-28.51 1526.88,-27.44"/>
<polygon fill="#63b8ff" stroke="#63b8ff" points="1527.92,-24.07 1517.44,-25.63 1526.6,-30.95 1527.92,-24.07"/>
</a>
</g>
</g>
<!-- Node6 -->
<g id="Node000006" class="node">
<title>Node6</title>
<g id="a_Node000006"><a xlink:title=" ">
<polygon fill="#e0e0e0" stroke="#999999" points="911.1,-24.88 812.6,-24.88 812.6,-5.63 911.1,-5.63 911.1,-24.88"/>
<text text-anchor="middle" x="861.85" y="-11.38" font-family="Helvetica,sans-Serif" font-size="10.00">mlir/IR/Operation.h</text>
</a>
</g>
</g>
<!-- Node3&#45;&gt;Node6 -->
<g id="edge5_Node000003_Node000006" class="edge">
<title>Node3&#45;&gt;Node6</title>
<g id="a_edge5_Node000003_Node000006"><a xlink:title=" ">
<path fill="none" stroke="#63b8ff" d="M1814.66,-71.66C1806.98,-69.62 1798.66,-67.7 1790.85,-66.5 1407.87,-7.84 1303.44,-84.99 919.85,-30.5 914.92,-29.8 909.8,-28.86 904.74,-27.8"/>
<polygon fill="#63b8ff" stroke="#63b8ff" points="905.84,-24.46 895.31,-25.65 904.29,-31.29 905.84,-24.46"/>
</a>
</g>
</g>
<!-- Node7 -->
<g id="Node000007" class="node">
<title>Node7</title>
<g id="a_Node000007"><a xlink:title=" ">
<polygon fill="#e0e0e0" stroke="#999999" points="1665.22,-24.88 1552.47,-24.88 1552.47,-5.63 1665.22,-5.63 1665.22,-24.88"/>
<text text-anchor="middle" x="1608.85" y="-11.38" font-family="Helvetica,sans-Serif" font-size="10.00">mlir/IR/SymbolTable.h</text>
</a>
</g>
</g>
<!-- Node3&#45;&gt;Node7 -->
<g id="edge6_Node000003_Node000007" class="edge">
<title>Node3&#45;&gt;Node7</title>
<g id="a_edge6_Node000003_Node000007"><a xlink:title=" ">
<path fill="none" stroke="#63b8ff" d="M1810.68,-71.65C1769.39,-60.31 1698.74,-40.92 1652.93,-28.35"/>
<polygon fill="#63b8ff" stroke="#63b8ff" points="1653.88,-24.98 1643.31,-25.71 1652.03,-31.73 1653.88,-24.98"/>
</a>
</g>
</g>
<!-- Node8 -->
<g id="Node000008" class="node">
<title>Node8</title>
<g id="a_Node000008"><a xlink:title=" ">
<polygon fill="#e0e0e0" stroke="#999999" points="1764.1,-24.88 1683.6,-24.88 1683.6,-5.63 1764.1,-5.63 1764.1,-24.88"/>
<text text-anchor="middle" x="1723.85" y="-11.38" font-family="Helvetica,sans-Serif" font-size="10.00">mlir/IR/Value.h</text>
</a>
</g>
</g>
<!-- Node3&#45;&gt;Node8 -->
<g id="edge7_Node000003_Node000008" class="edge">
<title>Node3&#45;&gt;Node8</title>
<g id="a_edge7_Node000003_Node000008"><a xlink:title=" ">
<path fill="none" stroke="#63b8ff" d="M1826.91,-71.65C1807.08,-60.99 1773.98,-43.19 1750.65,-30.66"/>
<polygon fill="#63b8ff" stroke="#63b8ff" points="1752.5,-27.68 1742.03,-26.02 1749.18,-33.84 1752.5,-27.68"/>
</a>
</g>
</g>
<!-- Node9 -->
<g id="Node000009" class="node">
<title>Node9</title>
<g id="a_Node000009"><a xlink:title=" ">
<polygon fill="#e0e0e0" stroke="#999999" points="1915.72,-30.5 1781.97,-30.5 1781.97,0 1915.72,0 1915.72,-30.5"/>
<text text-anchor="start" x="1789.97" y="-17" font-family="Helvetica,sans-Serif" font-size="10.00">mlir/Interfaces/MemorySlot</text>
<text text-anchor="middle" x="1848.85" y="-5.75" font-family="Helvetica,sans-Serif" font-size="10.00">Interfaces.h</text>
</a>
</g>
</g>
<!-- Node3&#45;&gt;Node9 -->
<g id="edge8_Node000003_Node000009" class="edge">
<title>Node3&#45;&gt;Node9</title>
<g id="a_edge8_Node000003_Node000009"><a xlink:title=" ">
<path fill="none" stroke="#63b8ff" d="M1844.54,-71.78C1845.14,-64.04 1846.04,-52.45 1846.86,-41.87"/>
<polygon fill="#63b8ff" stroke="#63b8ff" points="1850.34,-42.34 1847.62,-32.1 1843.36,-41.8 1850.34,-42.34"/>
</a>
</g>
</g>
<!-- Node10 -->
<g id="Node000010" class="node">
<title>Node10</title>
<g id="a_Node000010"><a xlink:title=" ">
<polygon fill="#e0e0e0" stroke="#999999" points="2049.72,-24.88 1933.97,-24.88 1933.97,-5.63 2049.72,-5.63 2049.72,-24.88"/>
<text text-anchor="middle" x="1991.85" y="-11.38" font-family="Helvetica,sans-Serif" font-size="10.00">llvm/ADT/DenseMap.h</text>
</a>
</g>
</g>
<!-- Node3&#45;&gt;Node10 -->
<g id="edge9_Node000003_Node000010" class="edge">
<title>Node3&#45;&gt;Node10</title>
<g id="a_edge9_Node000003_Node000010"><a xlink:title=" ">
<path fill="none" stroke="#63b8ff" d="M1864.74,-71.65C1889.75,-60.75 1931.87,-42.39 1960.72,-29.82"/>
<polygon fill="#63b8ff" stroke="#63b8ff" points="1961.91,-33.12 1969.68,-25.91 1959.11,-26.7 1961.91,-33.12"/>
</a>
</g>
</g>
<!-- Node11 -->
<g id="Node000011" class="node">
<title>Node11</title>
<g id="a_Node000011"><a xlink:title=" ">
<polygon fill="#e0e0e0" stroke="#999999" points="2182.35,-24.88 2067.35,-24.88 2067.35,-5.63 2182.35,-5.63 2182.35,-24.88"/>
<text text-anchor="middle" x="2124.85" y="-11.38" font-family="Helvetica,sans-Serif" font-size="10.00">llvm/ADT/STLExtras.h</text>
</a>
</g>
</g>
<!-- Node3&#45;&gt;Node11 -->
<g id="edge10_Node000003_Node000011" class="edge">
<title>Node3&#45;&gt;Node11</title>
<g id="a_edge10_Node000003_Node000011"><a xlink:title=" ">
<path fill="none" stroke="#63b8ff" d="M1876.58,-71.7C1883.27,-69.92 1890.28,-68.11 1896.85,-66.5 1913.71,-62.38 2010.13,-41.26 2072.06,-27.75"/>
<polygon fill="#63b8ff" stroke="#63b8ff" points="2072.7,-31.19 2081.72,-25.64 2071.2,-24.36 2072.7,-31.19"/>
</a>
</g>
</g>
<!-- Node15 -->
<g id="Node000015" class="node">
<title>Node15</title>
<g id="a_Node000015"><a xlink:title=" ">
<polygon fill="#e0e0e0" stroke="#999999" points="1088.85,-24.88 928.85,-24.88 928.85,-5.63 1088.85,-5.63 1088.85,-24.88"/>
<text text-anchor="middle" x="1008.85" y="-11.38" font-family="Helvetica,sans-Serif" font-size="10.00">llvm/ADT/STLFunctionalExtras.h</text>
</a>
</g>
</g>
<!-- Node14&#45;&gt;Node15 -->
<g id="edge12_Node000014_Node000015" class="edge">
<title>Node14&#45;&gt;Node15</title>
<g id="a_edge12_Node000014_Node000015"><a xlink:title=" ">
<path fill="none" stroke="#63b8ff" d="M1107,-71.78C1088.3,-61.2 1056.96,-43.47 1034.72,-30.89"/>
<polygon fill="#63b8ff" stroke="#63b8ff" points="1036.68,-27.97 1026.25,-26.1 1033.23,-34.07 1036.68,-27.97"/>
</a>
</g>
</g>
<!-- Node16 -->
<g id="Node000016" class="node">
<title>Node16</title>
<g id="a_Node000016"><a xlink:title=" ">
<polygon fill="#e0e0e0" stroke="#999999" points="1200.85,-24.88 1106.85,-24.88 1106.85,-5.63 1200.85,-5.63 1200.85,-24.88"/>
<text text-anchor="middle" x="1153.85" y="-11.38" font-family="Helvetica,sans-Serif" font-size="10.00">llvm/ADT/Twine.h</text>
</a>
</g>
</g>
<!-- Node14&#45;&gt;Node16 -->
<g id="edge13_Node000014_Node000016" class="edge">
<title>Node14&#45;&gt;Node16</title>
<g id="a_edge13_Node000014_Node000016"><a xlink:title=" ">
<path fill="none" stroke="#63b8ff" d="M1127.16,-71.78C1131.65,-62.44 1138.81,-47.53 1144.59,-35.51"/>
<polygon fill="#63b8ff" stroke="#63b8ff" points="1147.74,-37.04 1148.92,-26.51 1141.43,-34 1147.74,-37.04"/>
</a>
</g>
</g>
<!-- Node17 -->
<g id="Node000017" class="node">
<title>Node17</title>
<g id="a_Node000017"><a xlink:title=" ">
<polygon fill="#e0e0e0" stroke="#999999" points="1360.47,-24.88 1219.22,-24.88 1219.22,-5.63 1360.47,-5.63 1360.47,-24.88"/>
<text text-anchor="middle" x="1289.85" y="-11.38" font-family="Helvetica,sans-Serif" font-size="10.00">llvm/Support/ErrorHandling.h</text>
</a>
</g>
</g>
<!-- Node14&#45;&gt;Node17 -->
<g id="edge14_Node000014_Node000017" class="edge">
<title>Node14&#45;&gt;Node17</title>
<g id="a_edge14_Node000014_Node000017"><a xlink:title=" ">
<path fill="none" stroke="#63b8ff" d="M1146.42,-71.65C1175.02,-60.6 1223.43,-41.9 1256.01,-29.32"/>
<polygon fill="#63b8ff" stroke="#63b8ff" points="1256.92,-32.72 1264.98,-25.85 1254.39,-26.19 1256.92,-32.72"/>
</a>
</g>
</g>
<!-- Node25 -->
<g id="Node000025" class="node">
<title>Node25</title>
<g id="a_Node000025"><a xlink:href="_felt_2_i_r_2_attrs_8h.html" target="_top" xlink:title=" ">
<polygon fill="#fff0f0" stroke="red" points="406.72,-97 308.97,-97 308.97,-66.5 406.72,-66.5 406.72,-97"/>
<text text-anchor="start" x="316.97" y="-83.5" font-family="Helvetica,sans-Serif" font-size="10.00">llzk/Dialect/Felt/IR</text>
<text text-anchor="middle" x="357.85" y="-72.25" font-family="Helvetica,sans-Serif" font-size="10.00">/Attrs.h</text>
</a>
</g>
</g>
<!-- Node24&#45;&gt;Node25 -->
<g id="edge22_Node000024_Node000025" class="edge">
<title>Node24&#45;&gt;Node25</title>
<g id="a_edge22_Node000024_Node000025"><a xlink:title=" ">
<path fill="none" stroke="#63b8ff" d="M298.32,-132.61C308.16,-124.37 320.66,-113.9 331.65,-104.69"/>
<polygon fill="#63b8ff" stroke="#63b8ff" points="333.87,-107.4 339.28,-98.3 329.37,-102.04 333.87,-107.4"/>
</a>
</g>
</g>
<!-- Node28 -->
<g id="Node000028" class="node">
<title>Node28</title>
<g id="a_Node000028"><a xlink:href="_felt_2_i_r_2_dialect_8h.html" target="_top" xlink:title=" ">
<polygon fill="#fff0f0" stroke="red" points="124.72,-30.5 26.97,-30.5 26.97,0 124.72,0 124.72,-30.5"/>
<text text-anchor="start" x="34.97" y="-17" font-family="Helvetica,sans-Serif" font-size="10.00">llzk/Dialect/Felt/IR</text>
<text text-anchor="middle" x="75.85" y="-5.75" font-family="Helvetica,sans-Serif" font-size="10.00">/Dialect.h</text>
</a>
</g>
</g>
<!-- Node24&#45;&gt;Node28 -->
<g id="edge24_Node000024_Node000028" class="edge">
<title>Node24&#45;&gt;Node28</title>
<g id="a_edge24_Node000024_Node000028"><a xlink:title=" ">
<path fill="none" stroke="#63b8ff" d="M231.7,-145.55C160.5,-141.95 34.05,-130.83 5.85,-97 -11.36,-76.37 13.29,-53.25 37.95,-37.05"/>
<polygon fill="#63b8ff" stroke="#63b8ff" points="39.76,-40.05 46.39,-31.79 36.05,-34.11 39.76,-40.05"/>
</a>
</g>
</g>
<!-- Node31 -->
<g id="Node000031" class="node">
<title>Node31</title>
<g id="a_Node000031"><a xlink:href="_felt_2_i_r_2_types_8h.html" target="_top" xlink:title=" ">
<polygon fill="#fff0f0" stroke="red" points="252.72,-97 154.97,-97 154.97,-66.5 252.72,-66.5 252.72,-97"/>
<text text-anchor="start" x="162.97" y="-83.5" font-family="Helvetica,sans-Serif" font-size="10.00">llzk/Dialect/Felt/IR</text>
<text text-anchor="middle" x="203.85" y="-72.25" font-family="Helvetica,sans-Serif" font-size="10.00">/Types.h</text>
</a>
</g>
</g>
<!-- Node24&#45;&gt;Node31 -->
<g id="edge25_Node000024_Node000031" class="edge">
<title>Node24&#45;&gt;Node31</title>
<g id="a_edge25_Node000024_Node000031"><a xlink:title=" ">
<path fill="none" stroke="#63b8ff" d="M263.37,-132.61C253.53,-124.37 241.04,-113.9 230.04,-104.69"/>
<polygon fill="#63b8ff" stroke="#63b8ff" points="232.32,-102.04 222.41,-98.3 227.83,-107.4 232.32,-102.04"/>
</a>
</g>
</g>
<!-- Node32 -->
<g id="Node000032" class="node">
<title>Node32</title>
<g id="a_Node000032"><a xlink:href="_felt_2_i_r_2_ops_8h_8inc.html" target="_top" xlink:title=" ">
<polygon fill="white" stroke="#666666" points="290.72,-30.5 192.97,-30.5 192.97,0 290.72,0 290.72,-30.5"/>
<text text-anchor="start" x="200.97" y="-17" font-family="Helvetica,sans-Serif" font-size="10.00">llzk/Dialect/Felt/IR</text>
<text text-anchor="middle" x="241.85" y="-5.75" font-family="Helvetica,sans-Serif" font-size="10.00">/Ops.h.inc</text>
</a>
</g>
</g>
<!-- Node24&#45;&gt;Node32 -->
<g id="edge31_Node000024_Node000032" class="edge">
<title>Node24&#45;&gt;Node32</title>
<g id="a_edge31_Node000024_Node000032"><a xlink:title=" ">
<path fill="none" stroke="#63b8ff" d="M278.12,-132.78C274.88,-116.49 269.03,-89.3 261.85,-66.5 259.24,-58.22 255.91,-49.37 252.72,-41.44"/>
<polygon fill="#63b8ff" stroke="#63b8ff" points="256.03,-40.29 248.96,-32.39 249.56,-42.97 256.03,-40.29"/>
</a>
</g>
</g>
<!-- Node34 -->
<g id="Node000034" class="node">
<title>Node34</title>
<g id="a_Node000034"><a xlink:href="_op_traits_8h.html" target="_top" xlink:title=" ">
<polygon fill="#fff0f0" stroke="red" points="764.47,-97 659.22,-97 659.22,-66.5 764.47,-66.5 764.47,-97"/>
<text text-anchor="start" x="667.22" y="-83.5" font-family="Helvetica,sans-Serif" font-size="10.00">llzk/Dialect/Function</text>
<text text-anchor="middle" x="711.85" y="-72.25" font-family="Helvetica,sans-Serif" font-size="10.00">/IR/OpTraits.h</text>
</a>
</g>
</g>
<!-- Node24&#45;&gt;Node34 -->
<g id="edge28_Node000024_Node000034" class="edge">
<title>Node24&#45;&gt;Node34</title>
<g id="a_edge28_Node000024_Node000034"><a xlink:title=" ">
<path fill="none" stroke="#63b8ff" d="M330.02,-141.99C398.81,-134.31 527.88,-118.77 647.63,-97.3"/>
<polygon fill="#63b8ff" stroke="#63b8ff" points="648.11,-100.77 657.32,-95.54 646.86,-93.88 648.11,-100.77"/>
</a>
</g>
</g>
<!-- Node37 -->
<g id="Node000037" class="node">
<title>Node37</title>
<g id="a_Node000037"><a xlink:title=" ">
<polygon fill="#e0e0e0" stroke="#999999" points="136.72,-97 14.97,-97 14.97,-66.5 136.72,-66.5 136.72,-97"/>
<text text-anchor="start" x="22.97" y="-83.5" font-family="Helvetica,sans-Serif" font-size="10.00">mlir/Interfaces/InferType</text>
<text text-anchor="middle" x="75.85" y="-72.25" font-family="Helvetica,sans-Serif" font-size="10.00">OpInterface.h</text>
</a>
</g>
</g>
<!-- Node24&#45;&gt;Node37 -->
<g id="edge30_Node000024_Node000037" class="edge">
<title>Node24&#45;&gt;Node37</title>
<g id="a_edge30_Node000024_Node000037"><a xlink:title=" ">
<path fill="none" stroke="#63b8ff" d="M234.07,-132.53C204.16,-123.12 165.14,-110.85 133.34,-100.84"/>
<polygon fill="#63b8ff" stroke="#63b8ff" points="134.45,-97.52 123.86,-97.86 132.35,-104.2 134.45,-97.52"/>
</a>
</g>
</g>
<!-- Node25&#45;&gt;Node4 -->
<g id="edge23_Node000025_Node000004" class="edge">
<title>Node25&#45;&gt;Node4</title>
<g id="a_edge23_Node000025_Node000004"><a xlink:title=" ">
<path fill="none" stroke="#63b8ff" d="M384.85,-66.11C404.41,-55.51 430.72,-41.25 450.2,-30.7"/>
<polygon fill="#63b8ff" stroke="#63b8ff" points="451.77,-33.82 458.89,-25.98 448.43,-27.67 451.77,-33.82"/>
</a>
</g>
</g>
<!-- Node31&#45;&gt;Node28 -->
<g id="edge26_Node000031_Node000028" class="edge">
<title>Node31&#45;&gt;Node28</title>
<g id="a_edge26_Node000031_Node000028"><a xlink:title=" ">
<path fill="none" stroke="#63b8ff" d="M174.8,-66.11C157.13,-57.21 134.32,-45.72 115.06,-36.01"/>
<polygon fill="#63b8ff" stroke="#63b8ff" points="116.63,-32.88 106.13,-31.51 113.48,-39.13 116.63,-32.88"/>
</a>
</g>
</g>
<!-- Node31&#45;&gt;Node32 -->
<g id="edge27_Node000031_Node000032" class="edge">
<title>Node31&#45;&gt;Node32</title>
<g id="a_edge27_Node000031_Node000032"><a xlink:title=" ">
<path fill="none" stroke="#63b8ff" d="M212.47,-66.11C216.89,-58.61 222.39,-49.27 227.44,-40.71"/>
<polygon fill="#63b8ff" stroke="#63b8ff" points="230.43,-42.52 232.49,-32.13 224.4,-38.97 230.43,-42.52"/>
</a>
</g>
</g>
<!-- Node34&#45;&gt;Node6 -->
<g id="edge29_Node000034_Node000006" class="edge">
<title>Node34&#45;&gt;Node6</title>
<g id="a_edge29_Node000034_Node000006"><a xlink:title=" ">
<path fill="none" stroke="#63b8ff" d="M745.88,-66.11C771.33,-55.17 805.86,-40.32 830.61,-29.68"/>
<polygon fill="#63b8ff" stroke="#63b8ff" points="831.7,-33.02 839.5,-25.86 828.93,-26.59 831.7,-33.02"/>
</a>
</g>
</g>
<!-- Node39 -->
<g id="Node000039" class="node">
<title>Node39</title>
<g id="a_Node000039"><a xlink:title=" ">
<polygon fill="#e0e0e0" stroke="#999999" points="2059.85,-91.38 1905.85,-91.38 1905.85,-72.12 2059.85,-72.12 2059.85,-91.38"/>
<text text-anchor="middle" x="1982.85" y="-77.88" font-family="Helvetica,sans-Serif" font-size="10.00">mlir/IR/DialectImplementation.h</text>
</a>
</g>
</g>
<!-- Node38&#45;&gt;Node39 -->
<g id="edge33_Node000038_Node000039" class="edge">
<title>Node38&#45;&gt;Node39</title>
<g id="a_edge33_Node000038_Node000039"><a xlink:title=" ">
<path fill="none" stroke="#63b8ff" d="M2049.33,-132.61C2035.64,-122.35 2017.37,-108.64 2003.45,-98.2"/>
<polygon fill="#63b8ff" stroke="#63b8ff" points="2005.92,-95.68 1995.82,-92.48 2001.72,-101.28 2005.92,-95.68"/>
</a>
</g>
</g>
<!-- Node40 -->
<g id="Node000040" class="node">
<title>Node40</title>
<g id="a_Node000040"><a xlink:title=" ">
<polygon fill="#e0e0e0" stroke="#999999" points="2171.47,-91.38 2078.22,-91.38 2078.22,-72.12 2171.47,-72.12 2171.47,-91.38"/>
<text text-anchor="middle" x="2124.85" y="-77.88" font-family="Helvetica,sans-Serif" font-size="10.00">llvm/ADT/APInt.h</text>
</a>
</g>
</g>
<!-- Node38&#45;&gt;Node40 -->
<g id="edge34_Node000038_Node000040" class="edge">
<title>Node38&#45;&gt;Node40</title>
<g id="a_edge34_Node000038_Node000040"><a xlink:title=" ">
<path fill="none" stroke="#63b8ff" d="M2081.55,-132.61C2089.96,-122.94 2101,-110.21 2109.84,-100.04"/>
<polygon fill="#63b8ff" stroke="#63b8ff" points="2112.28,-102.56 2116.2,-92.72 2107,-97.97 2112.28,-102.56"/>
</a>
</g>
</g>
<!-- Node42 -->
<g id="Node000042" class="node">
<title>Node42</title>
<g id="a_Node000042"><a xlink:href="_polymorphic_2_i_r_2_dialect_8h.html" target="_top" xlink:title=" ">
<polygon fill="#fff0f0" stroke="red" points="2520.72,-30.5 2398.97,-30.5 2398.97,0 2520.72,0 2520.72,-30.5"/>
<text text-anchor="start" x="2406.97" y="-17" font-family="Helvetica,sans-Serif" font-size="10.00">llzk/Dialect/Polymorphic</text>
<text text-anchor="middle" x="2459.85" y="-5.75" font-family="Helvetica,sans-Serif" font-size="10.00">/IR/Dialect.h</text>
</a>
</g>
</g>
<!-- Node41&#45;&gt;Node42 -->
<g id="edge36_Node000041_Node000042" class="edge">
<title>Node41&#45;&gt;Node42</title>
<g id="a_edge36_Node000041_Node000042"><a xlink:title=" ">
<path fill="none" stroke="#63b8ff" d="M2260.91,-134.69C2263.93,-134.11 2266.92,-133.54 2269.85,-133 2317.7,-124.15 2454.39,-134.13 2485.85,-97 2499.5,-80.88 2489.69,-57.47 2478.43,-40.01"/>
<polygon fill="#63b8ff" stroke="#63b8ff" points="2481.61,-38.45 2473.02,-32.24 2475.86,-42.45 2481.61,-38.45"/>
</a>
</g>
</g>
<!-- Node44 -->
<g id="Node000044" class="node">
<title>Node44</title>
<g id="a_Node000044"><a xlink:href="_polymorphic_2_i_r_2_types_8h.html" target="_top" xlink:title=" ">
<polygon fill="#fff0f0" stroke="red" points="2476.72,-97 2354.97,-97 2354.97,-66.5 2476.72,-66.5 2476.72,-97"/>
<text text-anchor="start" x="2362.97" y="-83.5" font-family="Helvetica,sans-Serif" font-size="10.00">llzk/Dialect/Polymorphic</text>
<text text-anchor="middle" x="2415.85" y="-72.25" font-family="Helvetica,sans-Serif" font-size="10.00">/IR/Types.h</text>
</a>
</g>
</g>
<!-- Node41&#45;&gt;Node44 -->
<g id="edge37_Node000041_Node000044" class="edge">
<title>Node41&#45;&gt;Node44</title>
<g id="a_edge37_Node000041_Node000044"><a xlink:title=" ">
<path fill="none" stroke="#63b8ff" d="M2249.13,-132.53C2280.93,-123.04 2322.48,-110.63 2356.14,-100.58"/>
<polygon fill="#63b8ff" stroke="#63b8ff" points="2356.74,-104.05 2365.32,-97.84 2354.74,-97.34 2356.74,-104.05"/>
</a>
</g>
</g>
<!-- Node45 -->
<g id="Node000045" class="node">
<title>Node45</title>
<g id="a_Node000045"><a xlink:href="_polymorphic_2_i_r_2_ops_8h_8inc.html" target="_top" xlink:title=" ">
<polygon fill="white" stroke="#666666" points="2370.72,-30.5 2248.97,-30.5 2248.97,0 2370.72,0 2370.72,-30.5"/>
<text text-anchor="start" x="2256.97" y="-17" font-family="Helvetica,sans-Serif" font-size="10.00">llzk/Dialect/Polymorphic</text>
<text text-anchor="middle" x="2309.85" y="-5.75" font-family="Helvetica,sans-Serif" font-size="10.00">/IR/Ops.h.inc</text>
</a>
</g>
</g>
<!-- Node41&#45;&gt;Node45 -->
<g id="edge41_Node000041_Node000045" class="edge">
<title>Node41&#45;&gt;Node45</title>
<g id="a_edge41_Node000041_Node000045"><a xlink:title=" ">
<path fill="none" stroke="#63b8ff" d="M2200.06,-132.64C2201.02,-115.22 2204.95,-86.01 2219.85,-66.5 2229.64,-53.68 2243.69,-43.66 2257.79,-36.06"/>
<polygon fill="#63b8ff" stroke="#63b8ff" points="2259.27,-39.23 2266.65,-31.62 2256.14,-32.97 2259.27,-39.23"/>
</a>
</g>
</g>
<!-- Node47 -->
<g id="Node000047" class="node">
<title>Node47</title>
<g id="a_Node000047"><a xlink:title=" ">
<polygon fill="#e0e0e0" stroke="#999999" points="2337.35,-97 2228.35,-97 2228.35,-66.5 2337.35,-66.5 2337.35,-97"/>
<text text-anchor="start" x="2236.35" y="-83.5" font-family="Helvetica,sans-Serif" font-size="10.00">mlir/Dialect/Affine</text>
<text text-anchor="middle" x="2282.85" y="-72.25" font-family="Helvetica,sans-Serif" font-size="10.00">/IR/AffineValueMap.h</text>
</a>
</g>
</g>
<!-- Node41&#45;&gt;Node47 -->
<g id="edge40_Node000041_Node000047" class="edge">
<title>Node41&#45;&gt;Node47</title>
<g id="a_edge40_Node000041_Node000047"><a xlink:title=" ">
<path fill="none" stroke="#63b8ff" d="M2218.68,-132.61C2229.51,-124.2 2243.3,-113.48 2255.32,-104.14"/>
<polygon fill="#63b8ff" stroke="#63b8ff" points="2257.14,-107.16 2262.89,-98.26 2252.85,-101.63 2257.14,-107.16"/>
</a>
</g>
</g>
<!-- Node44&#45;&gt;Node42 -->
<g id="edge38_Node000044_Node000042" class="edge">
<title>Node44&#45;&gt;Node42</title>
<g id="a_edge38_Node000044_Node000042"><a xlink:title=" ">
<path fill="none" stroke="#63b8ff" d="M2425.83,-66.11C2431.06,-58.44 2437.6,-48.86 2443.55,-40.15"/>
<polygon fill="#63b8ff" stroke="#63b8ff" points="2446.31,-42.31 2449.05,-32.08 2440.52,-38.37 2446.31,-42.31"/>
</a>
</g>
</g>
<!-- Node44&#45;&gt;Node45 -->
<g id="edge39_Node000044_Node000045" class="edge">
<title>Node44&#45;&gt;Node45</title>
<g id="a_edge39_Node000044_Node000045"><a xlink:title=" ">
<path fill="none" stroke="#63b8ff" d="M2391.79,-66.11C2377.43,-57.37 2358.97,-46.14 2343.21,-36.55"/>
<polygon fill="#63b8ff" stroke="#63b8ff" points="2345.46,-33.82 2335.1,-31.61 2341.82,-39.8 2345.46,-33.82"/>
</a>
</g>
</g>
<!-- Node48&#45;&gt;Node34 -->
<g id="edge43_Node000048_Node000034" class="edge">
<title>Node48&#45;&gt;Node34</title>
<g id="a_edge43_Node000048_Node000034"><a xlink:title=" ">
<path fill="none" stroke="#63b8ff" d="M774.47,-132.61C764.01,-124.28 750.71,-113.69 739.06,-104.42"/>
<polygon fill="#63b8ff" stroke="#63b8ff" points="741.34,-101.76 731.34,-98.27 736.98,-107.24 741.34,-101.76"/>
</a>
</g>
</g>
<!-- Node49 -->
<g id="Node000049" class="node">
<title>Node49</title>
<g id="a_Node000049"><a xlink:href="_l_l_z_k_2_i_r_2_attrs_8h.html" target="_top" xlink:title=" ">
<polygon fill="#fff0f0" stroke="red" points="529.1,-97 424.6,-97 424.6,-66.5 529.1,-66.5 529.1,-97"/>
<text text-anchor="start" x="432.6" y="-83.5" font-family="Helvetica,sans-Serif" font-size="10.00">llzk/Dialect/LLZK/IR</text>
<text text-anchor="middle" x="476.85" y="-72.25" font-family="Helvetica,sans-Serif" font-size="10.00">/Attrs.h</text>
</a>
</g>
</g>
<!-- Node48&#45;&gt;Node49 -->
<g id="edge44_Node000048_Node000049" class="edge">
<title>Node48&#45;&gt;Node49</title>
<g id="a_edge44_Node000048_Node000049"><a xlink:title=" ">
<path fill="none" stroke="#63b8ff" d="M745.75,-138.48C696.8,-129.25 617.7,-114.02 540.3,-97.49"/>
<polygon fill="#63b8ff" stroke="#63b8ff" points="541.39,-94.14 530.87,-95.47 539.92,-100.99 541.39,-94.14"/>
</a>
</g>
</g>
<!-- Node51 -->
<g id="Node000051" class="node">
<title>Node51</title>
<g id="a_Node000051"><a xlink:href="_op_helpers_8h.html" target="_top" xlink:title=" ">
<polygon fill="#fff0f0" stroke="red" points="1050.1,-97 951.6,-97 951.6,-66.5 1050.1,-66.5 1050.1,-97"/>
<text text-anchor="start" x="959.6" y="-83.5" font-family="Helvetica,sans-Serif" font-size="10.00">llzk/Dialect/Shared</text>
<text text-anchor="middle" x="1000.85" y="-72.25" font-family="Helvetica,sans-Serif" font-size="10.00">/OpHelpers.h</text>
</a>
</g>
</g>
<!-- Node48&#45;&gt;Node51 -->
<g id="edge46_Node000048_Node000051" class="edge">
<title>Node48&#45;&gt;Node51</title>
<g id="a_edge46_Node000048_Node000051"><a xlink:title=" ">
<path fill="none" stroke="#63b8ff" d="M840.31,-132.53C870.79,-123.08 910.59,-110.74 942.93,-100.71"/>
<polygon fill="#63b8ff" stroke="#63b8ff" points="943.63,-104.16 952.15,-97.85 941.56,-97.47 943.63,-104.16"/>
</a>
</g>
</g>
<!-- Node60 -->
<g id="Node000060" class="node">
<title>Node60</title>
<g id="a_Node000060"><a xlink:href="_struct_2_i_r_2_types_8h.html" target="_top" xlink:title=" ">
<polygon fill="#fff0f0" stroke="red" points="640.85,-97 546.85,-97 546.85,-66.5 640.85,-66.5 640.85,-97"/>
<text text-anchor="start" x="554.85" y="-83.5" font-family="Helvetica,sans-Serif" font-size="10.00">llzk/Dialect/Struct</text>
<text text-anchor="middle" x="593.85" y="-72.25" font-family="Helvetica,sans-Serif" font-size="10.00">/IR/Types.h</text>
</a>
</g>
</g>
<!-- Node48&#45;&gt;Node60 -->
<g id="edge48_Node000048_Node000060" class="edge">
<title>Node48&#45;&gt;Node60</title>
<g id="a_edge48_Node000048_Node000060"><a xlink:title=" ">
<path fill="none" stroke="#63b8ff" d="M747.69,-132.61C718.66,-123.2 680.73,-110.91 649.79,-100.88"/>
<polygon fill="#63b8ff" stroke="#63b8ff" points="651.2,-97.66 640.61,-97.91 649.04,-104.32 651.2,-97.66"/>
</a>
</g>
</g>
<!-- Node68 -->
<g id="Node000068" class="node">
<title>Node68</title>
<g id="a_Node000068"><a xlink:href="_struct_2_i_r_2_ops_8h_8inc.html" target="_top" xlink:title=" ">
<polygon fill="white" stroke="#666666" points="701.85,-30.5 607.85,-30.5 607.85,0 701.85,0 701.85,-30.5"/>
<text text-anchor="start" x="615.85" y="-17" font-family="Helvetica,sans-Serif" font-size="10.00">llzk/Dialect/Struct</text>
<text text-anchor="middle" x="654.85" y="-5.75" font-family="Helvetica,sans-Serif" font-size="10.00">/IR/Ops.h.inc</text>
</a>
</g>
</g>
<!-- Node48&#45;&gt;Node68 -->
<g id="edge51_Node000048_Node000068" class="edge">
<title>Node48&#45;&gt;Node68</title>
<g id="a_edge51_Node000048_Node000068"><a xlink:title=" ">
<path fill="none" stroke="#63b8ff" d="M793.21,-132.68C792.88,-115.03 789.73,-85.32 773.85,-66.5 758.38,-48.18 735.07,-36.39 713.17,-28.88"/>
<polygon fill="#63b8ff" stroke="#63b8ff" points="714.27,-25.56 703.68,-25.89 712.16,-32.23 714.27,-25.56"/>
</a>
</g>
</g>
<!-- Node70 -->
<g id="Node000070" class="node">
<title>Node70</title>
<g id="a_Node000070"><a xlink:href="_struct_2_i_r_2_op_interfaces_8h_8inc.html" target="_top" xlink:title=" ">
<polygon fill="white" stroke="#666666" points="933.22,-97 820.47,-97 820.47,-66.5 933.22,-66.5 933.22,-97"/>
<text text-anchor="start" x="828.47" y="-83.5" font-family="Helvetica,sans-Serif" font-size="10.00">llzk/Dialect/Struct</text>
<text text-anchor="middle" x="876.85" y="-72.25" font-family="Helvetica,sans-Serif" font-size="10.00">/IR/OpInterfaces.h.inc</text>
</a>
</g>
</g>
<!-- Node48&#45;&gt;Node70 -->
<g id="edge50_Node000048_Node000070" class="edge">
<title>Node48&#45;&gt;Node70</title>
<g id="a_edge50_Node000048_Node000070"><a xlink:title=" ">
<path fill="none" stroke="#63b8ff" d="M811.91,-132.61C822.86,-124.2 836.82,-113.48 848.99,-104.14"/>
<polygon fill="#63b8ff" stroke="#63b8ff" points="850.86,-107.12 856.66,-98.25 846.6,-101.56 850.86,-107.12"/>
</a>
</g>
</g>
<!-- Node49&#45;&gt;Node4 -->
<g id="edge45_Node000049_Node000004" class="edge">
<title>Node49&#45;&gt;Node4</title>
<g id="a_edge45_Node000049_Node000004"><a xlink:title=" ">
<path fill="none" stroke="#63b8ff" d="M476.85,-66.11C476.85,-57.33 476.85,-46.02 476.85,-36.4"/>
<polygon fill="#63b8ff" stroke="#63b8ff" points="480.35,-36.59 476.85,-26.59 473.35,-36.59 480.35,-36.59"/>
</a>
</g>
</g>
<!-- Node51&#45;&gt;Node6 -->
<g id="edge47_Node000051_Node000006" class="edge">
<title>Node51&#45;&gt;Node6</title>
<g id="a_edge47_Node000051_Node000006"><a xlink:title=" ">
<path fill="none" stroke="#63b8ff" d="M969.31,-66.11C945.93,-55.27 914.3,-40.59 891.41,-29.97"/>
<polygon fill="#63b8ff" stroke="#63b8ff" points="893.18,-26.93 882.64,-25.9 890.23,-33.28 893.18,-26.93"/>
</a>
</g>
</g>
<!-- Node60&#45;&gt;Node68 -->
<g id="edge49_Node000060_Node000068" class="edge">
<title>Node60&#45;&gt;Node68</title>
<g id="a_edge49_Node000060_Node000068"><a xlink:title=" ">
<path fill="none" stroke="#63b8ff" d="M607.69,-66.11C615.25,-58.11 624.79,-48.03 633.31,-39.03"/>
<polygon fill="#63b8ff" stroke="#63b8ff" points="635.69,-41.6 640.02,-31.93 630.61,-36.79 635.69,-41.6"/>
</a>
</g>
</g>
<!-- Node72 -->
<g id="Node000072" class="node">
<title>Node72</title>
<g id="a_Node000072"><a xlink:title=" ">
<polygon fill="#e0e0e0" stroke="#999999" points="2590.85,-91.38 2532.85,-91.38 2532.85,-72.12 2590.85,-72.12 2590.85,-91.38"/>
<text text-anchor="middle" x="2561.85" y="-77.88" font-family="Helvetica,sans-Serif" font-size="10.00">functional</text>
</a>
</g>
</g>
<!-- Node71&#45;&gt;Node72 -->
<g id="edge54_Node000071_Node000072" class="edge">
<title>Node71&#45;&gt;Node72</title>
<g id="a_edge54_Node000071_Node000072"><a xlink:title=" ">
<path fill="none" stroke="#63b8ff" d="M2352.63,-138.2C2358.99,-136.44 2365.62,-134.63 2371.85,-133 2436.91,-115.95 2454.2,-115.59 2518.85,-97 2520.8,-96.44 2522.8,-95.84 2524.82,-95.23"/>
<polygon fill="#63b8ff" stroke="#63b8ff" points="2525.65,-98.64 2534.13,-92.28 2523.54,-91.96 2525.65,-98.64"/>
</a>
</g>
</g>
</g>
</svg>
