<?xml version="1.0" encoding="UTF-8" standalone="no"?>
<!DOCTYPE svg PUBLIC "-//W3C//DTD SVG 1.1//EN"
 "http://www.w3.org/Graphics/SVG/1.1/DTD/svg11.dtd">
<!-- Generated by graphviz version 12.2.1 (0)
 -->
<!-- Title: build/include/llzk/Dialect/Constrain/IR/Ops.cpp.inc Pages: 1 -->
<svg width="236pt" height="116pt"
 viewBox="0.00 0.00 235.50 116.25" xmlns="http://www.w3.org/2000/svg" xmlns:xlink="http://www.w3.org/1999/xlink">
<g id="graph0" class="graph" transform="scale(1 1) rotate(0) translate(4 112.25)">
<title>build/include/llzk/Dialect/Constrain/IR/Ops.cpp.inc</title>
<!-- Node1 -->
<g id="Node000001" class="node">
<title>Node1</title>
<g id="a_Node000001"><a xlink:title=" ">
<polygon fill="#999999" stroke="#666666" points="167.38,-108.25 59.12,-108.25 59.12,-66.5 167.38,-66.5 167.38,-108.25"/>
<text text-anchor="start" x="67.12" y="-94.75" font-family="Helvetica,sans-Serif" font-size="10.00">build/include/llzk</text>
<text text-anchor="start" x="67.12" y="-83.5" font-family="Helvetica,sans-Serif" font-size="10.00">/Dialect/Constrain/IR</text>
<text text-anchor="middle" x="113.25" y="-72.25" font-family="Helvetica,sans-Serif" font-size="10.00">/Ops.cpp.inc</text>
</a>
</g>
</g>
<!-- Node2 -->
<g id="Node000002" class="node">
<title>Node2</title>
<g id="a_Node000002"><a xlink:href="_constrain_2_i_r_2_dialect_8cpp.html" target="_top" xlink:title=" ">
<polygon fill="white" stroke="#666666" points="104.5,-30.5 0,-30.5 0,0 104.5,0 104.5,-30.5"/>
<text text-anchor="start" x="8" y="-17" font-family="Helvetica,sans-Serif" font-size="10.00">lib/Dialect/Constrain</text>
<text text-anchor="middle" x="52.25" y="-5.75" font-family="Helvetica,sans-Serif" font-size="10.00">/IR/Dialect.cpp</text>
</a>
</g>
</g>
<!-- Node1&#45;&gt;Node2 -->
<g id="edge1_Node000001_Node000002" class="edge">
<title>Node1&#45;&gt;Node2</title>
<g id="a_edge1_Node000001_Node000002"><a xlink:title=" ">
<path fill="none" stroke="#63b8ff" d="M88.14,-57.51C80.11,-48.27 71.56,-38.45 64.82,-30.7"/>
<polygon fill="#63b8ff" stroke="#63b8ff" points="85.41,-59.7 94.61,-64.95 90.69,-55.11 85.41,-59.7"/>
</a>
</g>
</g>
<!-- Node3 -->
<g id="Node000003" class="node">
<title>Node3</title>
<g id="a_Node000003"><a xlink:href="_constrain_2_i_r_2_ops_8cpp.html" target="_top" xlink:title=" ">
<polygon fill="white" stroke="#666666" points="227.5,-30.5 123,-30.5 123,0 227.5,0 227.5,-30.5"/>
<text text-anchor="start" x="131" y="-17" font-family="Helvetica,sans-Serif" font-size="10.00">lib/Dialect/Constrain</text>
<text text-anchor="middle" x="175.25" y="-5.75" font-family="Helvetica,sans-Serif" font-size="10.00">/IR/Ops.cpp</text>
</a>
</g>
</g>
<!-- Node1&#45;&gt;Node3 -->
<g id="edge2_Node000001_Node000003" class="edge">
<title>Node1&#45;&gt;Node3</title>
<g id="a_edge2_Node000001_Node000003"><a xlink:title=" ">
<path fill="none" stroke="#63b8ff" d="M138.77,-57.51C146.94,-48.27 155.63,-38.45 162.47,-30.7"/>
<polygon fill="#63b8ff" stroke="#63b8ff" points="136.19,-55.15 132.19,-64.96 141.43,-59.78 136.19,-55.15"/>
</a>
</g>
</g>
</g>
</svg>
