<?xml version="1.0" encoding="UTF-8" standalone="no"?>
<!DOCTYPE svg PUBLIC "-//W3C//DTD SVG 1.1//EN"
 "http://www.w3.org/Graphics/SVG/1.1/DTD/svg11.dtd">
<!-- Generated by graphviz version 12.2.1 (0)
 -->
<!-- Title: include/llzk/Analysis/ConstrainRefLattice.h Pages: 1 -->
<svg width="2936pt" height="293pt"
 viewBox="0.00 0.00 2935.62 293.25" xmlns="http://www.w3.org/2000/svg" xmlns:xlink="http://www.w3.org/1999/xlink">
<g id="graph0" class="graph" transform="scale(1 1) rotate(0) translate(4 289.25)">
<title>include/llzk/Analysis/ConstrainRefLattice.h</title>
<!-- Node1 -->
<g id="Node000001" class="node">
<title>Node1</title>
<g id="a_Node000001"><a xlink:title=" ">
<polygon fill="#999999" stroke="#666666" points="1407.12,-285.25 1292.88,-285.25 1292.88,-254.75 1407.12,-254.75 1407.12,-285.25"/>
<text text-anchor="start" x="1300.88" y="-271.75" font-family="Helvetica,sans-Serif" font-size="10.00">include/llzk/Analysis</text>
<text text-anchor="middle" x="1350" y="-260.5" font-family="Helvetica,sans-Serif" font-size="10.00">/ConstrainRefLattice.h</text>
</a>
</g>
</g>
<!-- Node2 -->
<g id="Node000002" class="node">
<title>Node2</title>
<g id="a_Node000002"><a xlink:href="_abstract_lattice_value_8h.html" target="_top" xlink:title=" ">
<polygon fill="white" stroke="#666666" points="1014.25,-163.5 873.75,-163.5 873.75,-133 1014.25,-133 1014.25,-163.5"/>
<text text-anchor="start" x="881.75" y="-150" font-family="Helvetica,sans-Serif" font-size="10.00">llzk/Analysis/AbstractLattice</text>
<text text-anchor="middle" x="944" y="-138.75" font-family="Helvetica,sans-Serif" font-size="10.00">Value.h</text>
</a>
</g>
</g>
<!-- Node1&#45;&gt;Node2 -->
<g id="edge1_Node000001_Node000002" class="edge">
<title>Node1&#45;&gt;Node2</title>
<g id="a_edge1_Node000001_Node000002"><a xlink:title=" ">
<path fill="none" stroke="#63b8ff" d="M1300.22,-254.32C1225.69,-232.34 1085.31,-190.93 1004.82,-167.19"/>
<polygon fill="#63b8ff" stroke="#63b8ff" points="1005.91,-163.86 995.32,-164.39 1003.93,-170.57 1005.91,-163.86"/>
</a>
</g>
</g>
<!-- Node14 -->
<g id="Node000014" class="node">
<title>Node14</title>
<g id="a_Node000014"><a xlink:href="_error_helper_8h.html" target="_top" xlink:title=" ">
<polygon fill="white" stroke="#666666" points="569.5,-91.38 460.5,-91.38 460.5,-72.12 569.5,-72.12 569.5,-91.38"/>
<text text-anchor="middle" x="515" y="-77.88" font-family="Helvetica,sans-Serif" font-size="10.00">llzk/Util/ErrorHelper.h</text>
</a>
</g>
</g>
<!-- Node1&#45;&gt;Node14 -->
<g id="edge60_Node000001_Node000014" class="edge">
<title>Node1&#45;&gt;Node14</title>
<g id="a_edge60_Node000001_Node000014"><a xlink:title=" ">
<path fill="none" stroke="#63b8ff" d="M1292.57,-264.21C1178.79,-253.7 917.43,-224.57 706,-163.5 645.56,-146.04 578.63,-114.79 542.24,-96.71"/>
<polygon fill="#63b8ff" stroke="#63b8ff" points="544.25,-93.81 533.74,-92.45 541.11,-100.06 544.25,-93.81"/>
</a>
</g>
</g>
<!-- Node24 -->
<g id="Node000024" class="node">
<title>Node24</title>
<g id="a_Node000024"><a xlink:href="_constrain_ref_8h.html" target="_top" xlink:title=" ">
<polygon fill="white" stroke="#666666" points="1599.25,-218.75 1458.75,-218.75 1458.75,-199.5 1599.25,-199.5 1599.25,-218.75"/>
<text text-anchor="middle" x="1529" y="-205.25" font-family="Helvetica,sans-Serif" font-size="10.00">llzk/Analysis/ConstrainRef.h</text>
</a>
</g>
</g>
<!-- Node1&#45;&gt;Node24 -->
<g id="edge23_Node000001_Node000024" class="edge">
<title>Node1&#45;&gt;Node24</title>
<g id="a_edge23_Node000001_Node000024"><a xlink:title=" ">
<path fill="none" stroke="#63b8ff" d="M1394.71,-254.3C1424.24,-244.58 1462.53,-231.99 1490.66,-222.73"/>
<polygon fill="#63b8ff" stroke="#63b8ff" points="1491.44,-226.16 1499.85,-219.71 1489.25,-219.51 1491.44,-226.16"/>
</a>
</g>
</g>
<!-- Node79 -->
<g id="Node000079" class="node">
<title>Node79</title>
<g id="a_Node000079"><a xlink:href="_dense_analysis_8h.html" target="_top" xlink:title="This file implements (LLZK&#45;tailored) dense data&#45;flow analysis using the data&#45;flow analysis framework.">
<polygon fill="white" stroke="#666666" points="2549.38,-218.75 2400.62,-218.75 2400.62,-199.5 2549.38,-199.5 2549.38,-218.75"/>
<text text-anchor="middle" x="2475" y="-205.25" font-family="Helvetica,sans-Serif" font-size="10.00">llzk/Analysis/DenseAnalysis.h</text>
</a>
</g>
</g>
<!-- Node1&#45;&gt;Node79 -->
<g id="edge54_Node000001_Node000079" class="edge">
<title>Node1&#45;&gt;Node79</title>
<g id="a_edge54_Node000001_Node000079"><a xlink:title=" ">
<path fill="none" stroke="#63b8ff" d="M1407.34,-266C1591.54,-256.36 2169.02,-226.14 2388.86,-214.63"/>
<polygon fill="#63b8ff" stroke="#63b8ff" points="2389,-218.13 2398.8,-214.11 2388.63,-211.14 2389,-218.13"/>
</a>
</g>
</g>
<!-- Node3 -->
<g id="Node000003" class="node">
<title>Node3</title>
<g id="a_Node000003"><a xlink:href="_debug_8h.html" target="_top" xlink:title=" ">
<polygon fill="white" stroke="#666666" points="797.38,-91.38 708.62,-91.38 708.62,-72.12 797.38,-72.12 797.38,-91.38"/>
<text text-anchor="middle" x="753" y="-77.88" font-family="Helvetica,sans-Serif" font-size="10.00">llzk/Util/Debug.h</text>
</a>
</g>
</g>
<!-- Node2&#45;&gt;Node3 -->
<g id="edge2_Node000002_Node000003" class="edge">
<title>Node2&#45;&gt;Node3</title>
<g id="a_edge2_Node000002_Node000003"><a xlink:title=" ">
<path fill="none" stroke="#63b8ff" d="M900.66,-132.61C867.48,-121.41 822.18,-106.11 790.54,-95.43"/>
<polygon fill="#63b8ff" stroke="#63b8ff" points="791.99,-92.22 781.39,-92.34 789.75,-98.85 791.99,-92.22"/>
</a>
</g>
</g>
<!-- Node2&#45;&gt;Node14 -->
<g id="edge13_Node000002_Node000014" class="edge">
<title>Node2&#45;&gt;Node14</title>
<g id="a_edge13_Node000002_Node000014"><a xlink:title=" ">
<path fill="none" stroke="#63b8ff" d="M873.64,-136.67C792.53,-124.48 660.24,-104.59 581.01,-92.68"/>
<polygon fill="#63b8ff" stroke="#63b8ff" points="581.63,-89.23 571.22,-91.2 580.59,-96.15 581.63,-89.23"/>
</a>
</g>
</g>
<!-- Node18 -->
<g id="Node000018" class="node">
<title>Node18</title>
<g id="a_Node000018"><a xlink:title=" ">
<polygon fill="#e0e0e0" stroke="#999999" points="932.62,-97 815.38,-97 815.38,-66.5 932.62,-66.5 932.62,-97"/>
<text text-anchor="start" x="823.38" y="-83.5" font-family="Helvetica,sans-Serif" font-size="10.00">mlir/Analysis/DataFlow</text>
<text text-anchor="middle" x="874" y="-72.25" font-family="Helvetica,sans-Serif" font-size="10.00">/DeadCodeAnalysis.h</text>
</a>
</g>
</g>
<!-- Node2&#45;&gt;Node18 -->
<g id="edge17_Node000002_Node000018" class="edge">
<title>Node2&#45;&gt;Node18</title>
<g id="a_edge17_Node000002_Node000018"><a xlink:title=" ">
<path fill="none" stroke="#63b8ff" d="M928.12,-132.61C919.26,-124.45 908.04,-114.11 898.12,-104.97"/>
<polygon fill="#63b8ff" stroke="#63b8ff" points="900.66,-102.56 890.93,-98.35 895.92,-107.7 900.66,-102.56"/>
</a>
</g>
</g>
<!-- Node19 -->
<g id="Node000019" class="node">
<title>Node19</title>
<g id="a_Node000019"><a xlink:title=" ">
<polygon fill="#e0e0e0" stroke="#999999" points="1055.25,-91.38 950.75,-91.38 950.75,-72.12 1055.25,-72.12 1055.25,-91.38"/>
<text text-anchor="middle" x="1003" y="-77.88" font-family="Helvetica,sans-Serif" font-size="10.00">mlir/Support/LLVM.h</text>
</a>
</g>
</g>
<!-- Node2&#45;&gt;Node19 -->
<g id="edge18_Node000002_Node000019" class="edge">
<title>Node2&#45;&gt;Node19</title>
<g id="a_edge18_Node000002_Node000019"><a xlink:title=" ">
<path fill="none" stroke="#63b8ff" d="M957.39,-132.61C966.24,-122.94 977.88,-110.21 987.19,-100.04"/>
<polygon fill="#63b8ff" stroke="#63b8ff" points="989.74,-102.43 993.91,-92.69 984.58,-97.71 989.74,-102.43"/>
</a>
</g>
</g>
<!-- Node20 -->
<g id="Node000020" class="node">
<title>Node20</title>
<g id="a_Node000020"><a xlink:title=" ">
<polygon fill="#e0e0e0" stroke="#999999" points="1184.25,-91.38 1073.75,-91.38 1073.75,-72.12 1184.25,-72.12 1184.25,-91.38"/>
<text text-anchor="middle" x="1129" y="-77.88" font-family="Helvetica,sans-Serif" font-size="10.00">llvm/Support/Debug.h</text>
</a>
</g>
</g>
<!-- Node2&#45;&gt;Node20 -->
<g id="edge19_Node000002_Node000020" class="edge">
<title>Node2&#45;&gt;Node20</title>
<g id="a_edge19_Node000002_Node000020"><a xlink:title=" ">
<path fill="none" stroke="#63b8ff" d="M985.98,-132.61C1017.98,-121.46 1061.61,-106.25 1092.24,-95.57"/>
<polygon fill="#63b8ff" stroke="#63b8ff" points="1093.17,-98.95 1101.46,-92.35 1090.86,-92.34 1093.17,-98.95"/>
</a>
</g>
</g>
<!-- Node21 -->
<g id="Node000021" class="node">
<title>Node21</title>
<g id="a_Node000021"><a xlink:title=" ">
<polygon fill="#e0e0e0" stroke="#999999" points="1257.88,-91.38 1202.12,-91.38 1202.12,-72.12 1257.88,-72.12 1257.88,-91.38"/>
<text text-anchor="middle" x="1230" y="-77.88" font-family="Helvetica,sans-Serif" font-size="10.00">concepts</text>
</a>
</g>
</g>
<!-- Node2&#45;&gt;Node21 -->
<g id="edge20_Node000002_Node000021" class="edge">
<title>Node2&#45;&gt;Node21</title>
<g id="a_edge20_Node000002_Node000021"><a xlink:title=" ">
<path fill="none" stroke="#63b8ff" d="M1014.67,-134.36C1076.1,-122.91 1160.24,-106.54 1193,-97 1194.57,-96.54 1196.17,-96.05 1197.77,-95.53"/>
<polygon fill="#63b8ff" stroke="#63b8ff" points="1198.61,-98.94 1206.87,-92.31 1196.27,-92.34 1198.61,-98.94"/>
</a>
</g>
</g>
<!-- Node22 -->
<g id="Node000022" class="node">
<title>Node22</title>
<g id="a_Node000022"><a xlink:title=" ">
<polygon fill="#e0e0e0" stroke="#999999" points="1337.88,-91.38 1276.12,-91.38 1276.12,-72.12 1337.88,-72.12 1337.88,-91.38"/>
<text text-anchor="middle" x="1307" y="-77.88" font-family="Helvetica,sans-Serif" font-size="10.00">type_traits</text>
</a>
</g>
</g>
<!-- Node2&#45;&gt;Node22 -->
<g id="edge21_Node000002_Node000022" class="edge">
<title>Node2&#45;&gt;Node22</title>
<g id="a_edge21_Node000002_Node000022"><a xlink:title=" ">
<path fill="none" stroke="#63b8ff" d="M1014.65,-134.55C1017.81,-134.02 1020.94,-133.5 1024,-133 1131.75,-115.43 1161.07,-123.45 1267,-97 1269,-96.5 1271.05,-95.94 1273.1,-95.33"/>
<polygon fill="#63b8ff" stroke="#63b8ff" points="1274.09,-98.69 1282.53,-92.28 1271.94,-92.03 1274.09,-98.69"/>
</a>
</g>
</g>
<!-- Node23 -->
<g id="Node000023" class="node">
<title>Node23</title>
<g id="a_Node000023"><a xlink:title=" ">
<polygon fill="#e0e0e0" stroke="#999999" points="1401.62,-91.38 1356.38,-91.38 1356.38,-72.12 1401.62,-72.12 1401.62,-91.38"/>
<text text-anchor="middle" x="1379" y="-77.88" font-family="Helvetica,sans-Serif" font-size="10.00">variant</text>
</a>
</g>
</g>
<!-- Node2&#45;&gt;Node23 -->
<g id="edge22_Node000002_Node000023" class="edge">
<title>Node2&#45;&gt;Node23</title>
<g id="a_edge22_Node000002_Node000023"><a xlink:title=" ">
<path fill="none" stroke="#63b8ff" d="M1014.63,-134.41C1017.79,-133.92 1020.93,-133.44 1024,-133 1166.96,-112.32 1207.6,-134.83 1347,-97 1348.35,-96.63 1349.72,-96.22 1351.09,-95.76"/>
<polygon fill="#63b8ff" stroke="#63b8ff" points="1351.96,-99.18 1360.01,-92.29 1349.42,-92.66 1351.96,-99.18"/>
</a>
</g>
</g>
<!-- Node4 -->
<g id="Node000004" class="node">
<title>Node4</title>
<g id="a_Node000004"><a xlink:title=" ">
<polygon fill="#e0e0e0" stroke="#999999" points="1640.25,-24.88 1541.75,-24.88 1541.75,-5.63 1640.25,-5.63 1640.25,-24.88"/>
<text text-anchor="middle" x="1591" y="-11.38" font-family="Helvetica,sans-Serif" font-size="10.00">mlir/IR/Attributes.h</text>
</a>
</g>
</g>
<!-- Node3&#45;&gt;Node4 -->
<g id="edge3_Node000003_Node000004" class="edge">
<title>Node3&#45;&gt;Node4</title>
<g id="a_edge3_Node000003_Node000004"><a xlink:title=" ">
<path fill="none" stroke="#63b8ff" d="M782.48,-71.65C790.07,-69.63 798.28,-67.72 806,-66.5 1109.73,-18.31 1191.05,-61.58 1497,-30.5 1507.73,-29.41 1519.1,-27.95 1530.09,-26.38"/>
<polygon fill="#63b8ff" stroke="#63b8ff" points="1530.48,-29.86 1539.86,-24.93 1529.45,-22.93 1530.48,-29.86"/>
</a>
</g>
</g>
<!-- Node5 -->
<g id="Node000005" class="node">
<title>Node5</title>
<g id="a_Node000005"><a xlink:title=" ">
<polygon fill="#e0e0e0" stroke="#999999" points="1056.75,-24.88 931.25,-24.88 931.25,-5.63 1056.75,-5.63 1056.75,-24.88"/>
<text text-anchor="middle" x="994" y="-11.38" font-family="Helvetica,sans-Serif" font-size="10.00">mlir/IR/BuiltinAttributes.h</text>
</a>
</g>
</g>
<!-- Node3&#45;&gt;Node5 -->
<g id="edge4_Node000003_Node000005" class="edge">
<title>Node3&#45;&gt;Node5</title>
<g id="a_edge4_Node000003_Node000005"><a xlink:title=" ">
<path fill="none" stroke="#63b8ff" d="M786.64,-71.7C793.07,-69.97 799.74,-68.18 806,-66.5 855.01,-53.36 911.21,-38.35 949.31,-28.18"/>
<polygon fill="#63b8ff" stroke="#63b8ff" points="949.81,-31.66 958.57,-25.7 948.01,-24.9 949.81,-31.66"/>
</a>
</g>
</g>
<!-- Node6 -->
<g id="Node000006" class="node">
<title>Node6</title>
<g id="a_Node000006"><a xlink:title=" ">
<polygon fill="#e0e0e0" stroke="#999999" points="1488.25,-24.88 1389.75,-24.88 1389.75,-5.63 1488.25,-5.63 1488.25,-24.88"/>
<text text-anchor="middle" x="1439" y="-11.38" font-family="Helvetica,sans-Serif" font-size="10.00">mlir/IR/Operation.h</text>
</a>
</g>
</g>
<!-- Node3&#45;&gt;Node6 -->
<g id="edge5_Node000003_Node000006" class="edge">
<title>Node3&#45;&gt;Node6</title>
<g id="a_edge5_Node000003_Node000006"><a xlink:title=" ">
<path fill="none" stroke="#63b8ff" d="M782.77,-71.67C790.29,-69.68 798.39,-67.78 806,-66.5 1030.09,-28.83 1089.75,-51.58 1316,-30.5 1336.22,-28.62 1358.26,-26.18 1378.03,-23.86"/>
<polygon fill="#63b8ff" stroke="#63b8ff" points="1378.36,-27.35 1387.88,-22.69 1377.53,-20.4 1378.36,-27.35"/>
</a>
</g>
</g>
<!-- Node7 -->
<g id="Node000007" class="node">
<title>Node7</title>
<g id="a_Node000007"><a xlink:title=" ">
<polygon fill="#e0e0e0" stroke="#999999" points="1778.38,-24.88 1665.62,-24.88 1665.62,-5.63 1778.38,-5.63 1778.38,-24.88"/>
<text text-anchor="middle" x="1722" y="-11.38" font-family="Helvetica,sans-Serif" font-size="10.00">mlir/IR/SymbolTable.h</text>
</a>
</g>
</g>
<!-- Node3&#45;&gt;Node7 -->
<g id="edge6_Node000003_Node000007" class="edge">
<title>Node3&#45;&gt;Node7</title>
<g id="a_edge6_Node000003_Node000007"><a xlink:title=" ">
<path fill="none" stroke="#63b8ff" d="M782.19,-71.67C789.86,-69.62 798.18,-67.7 806,-66.5 1176.65,-9.47 1276.59,-74.55 1649,-30.5 1655.82,-29.69 1662.95,-28.61 1669.98,-27.39"/>
<polygon fill="#63b8ff" stroke="#63b8ff" points="1670.55,-30.85 1679.76,-25.6 1669.29,-23.96 1670.55,-30.85"/>
</a>
</g>
</g>
<!-- Node8 -->
<g id="Node000008" class="node">
<title>Node8</title>
<g id="a_Node000008"><a xlink:title=" ">
<polygon fill="#e0e0e0" stroke="#999999" points="1155.25,-24.88 1074.75,-24.88 1074.75,-5.63 1155.25,-5.63 1155.25,-24.88"/>
<text text-anchor="middle" x="1115" y="-11.38" font-family="Helvetica,sans-Serif" font-size="10.00">mlir/IR/Value.h</text>
</a>
</g>
</g>
<!-- Node3&#45;&gt;Node8 -->
<g id="edge7_Node000003_Node000008" class="edge">
<title>Node3&#45;&gt;Node8</title>
<g id="a_edge7_Node000003_Node000008"><a xlink:title=" ">
<path fill="none" stroke="#63b8ff" d="M784.23,-71.66C791.35,-69.78 798.9,-67.94 806,-66.5 920.33,-43.31 951.91,-54.85 1066,-30.5 1069.13,-29.83 1072.35,-29.07 1075.57,-28.25"/>
<polygon fill="#63b8ff" stroke="#63b8ff" points="1076.22,-31.7 1084.96,-25.71 1074.39,-24.95 1076.22,-31.7"/>
</a>
</g>
</g>
<!-- Node9 -->
<g id="Node000009" class="node">
<title>Node9</title>
<g id="a_Node000009"><a xlink:title=" ">
<polygon fill="#e0e0e0" stroke="#999999" points="1306.88,-30.5 1173.12,-30.5 1173.12,0 1306.88,0 1306.88,-30.5"/>
<text text-anchor="start" x="1181.12" y="-17" font-family="Helvetica,sans-Serif" font-size="10.00">mlir/Interfaces/MemorySlot</text>
<text text-anchor="middle" x="1240" y="-5.75" font-family="Helvetica,sans-Serif" font-size="10.00">Interfaces.h</text>
</a>
</g>
</g>
<!-- Node3&#45;&gt;Node9 -->
<g id="edge8_Node000003_Node000009" class="edge">
<title>Node3&#45;&gt;Node9</title>
<g id="a_edge8_Node000003_Node000009"><a xlink:title=" ">
<path fill="none" stroke="#63b8ff" d="M783.36,-71.68C790.71,-69.74 798.6,-67.86 806,-66.5 959.76,-38.29 1003.75,-52.58 1161.83,-30.71"/>
<polygon fill="#63b8ff" stroke="#63b8ff" points="1162,-34.23 1171.42,-29.36 1161.02,-27.29 1162,-34.23"/>
</a>
</g>
</g>
<!-- Node10 -->
<g id="Node000010" class="node">
<title>Node10</title>
<g id="a_Node000010"><a xlink:title=" ">
<polygon fill="#e0e0e0" stroke="#999999" points="565.88,-24.88 450.12,-24.88 450.12,-5.63 565.88,-5.63 565.88,-24.88"/>
<text text-anchor="middle" x="508" y="-11.38" font-family="Helvetica,sans-Serif" font-size="10.00">llvm/ADT/DenseMap.h</text>
</a>
</g>
</g>
<!-- Node3&#45;&gt;Node10 -->
<g id="edge9_Node000003_Node000010" class="edge">
<title>Node3&#45;&gt;Node10</title>
<g id="a_edge9_Node000003_Node000010"><a xlink:title=" ">
<path fill="none" stroke="#63b8ff" d="M718.42,-71.65C675.19,-60.27 601.09,-40.76 553.35,-28.19"/>
<polygon fill="#63b8ff" stroke="#63b8ff" points="554.43,-24.85 543.87,-25.69 552.65,-31.62 554.43,-24.85"/>
</a>
</g>
</g>
<!-- Node11 -->
<g id="Node000011" class="node">
<title>Node11</title>
<g id="a_Node000011"><a xlink:title=" ">
<polygon fill="#e0e0e0" stroke="#999999" points="698.5,-24.88 583.5,-24.88 583.5,-5.63 698.5,-5.63 698.5,-24.88"/>
<text text-anchor="middle" x="641" y="-11.38" font-family="Helvetica,sans-Serif" font-size="10.00">llvm/ADT/STLExtras.h</text>
</a>
</g>
</g>
<!-- Node3&#45;&gt;Node11 -->
<g id="edge10_Node000003_Node000011" class="edge">
<title>Node3&#45;&gt;Node11</title>
<g id="a_edge10_Node000003_Node000011"><a xlink:title=" ">
<path fill="none" stroke="#63b8ff" d="M737.43,-71.78C719.14,-61.25 688.54,-43.63 666.72,-31.06"/>
<polygon fill="#63b8ff" stroke="#63b8ff" points="668.53,-28.06 658.11,-26.11 665.03,-34.13 668.53,-28.06"/>
</a>
</g>
</g>
<!-- Node12 -->
<g id="Node000012" class="node">
<title>Node12</title>
<g id="a_Node000012"><a xlink:title=" ">
<polygon fill="#e0e0e0" stroke="#999999" points="855.12,-24.88 716.88,-24.88 716.88,-5.63 855.12,-5.63 855.12,-24.88"/>
<text text-anchor="middle" x="786" y="-11.38" font-family="Helvetica,sans-Serif" font-size="10.00">llvm/Support/raw_ostream.h</text>
</a>
</g>
</g>
<!-- Node3&#45;&gt;Node12 -->
<g id="edge11_Node000003_Node000012" class="edge">
<title>Node3&#45;&gt;Node12</title>
<g id="a_edge11_Node000003_Node000012"><a xlink:title=" ">
<path fill="none" stroke="#63b8ff" d="M757.59,-71.78C762.42,-62.35 770.15,-47.22 776.34,-35.13"/>
<polygon fill="#63b8ff" stroke="#63b8ff" points="779.32,-36.99 780.76,-26.49 773.09,-33.8 779.32,-36.99"/>
</a>
</g>
</g>
<!-- Node13 -->
<g id="Node000013" class="node">
<title>Node13</title>
<g id="a_Node000013"><a xlink:title=" ">
<polygon fill="#e0e0e0" stroke="#999999" points="913,-24.88 873,-24.88 873,-5.63 913,-5.63 913,-24.88"/>
<text text-anchor="middle" x="893" y="-11.38" font-family="Helvetica,sans-Serif" font-size="10.00">string</text>
</a>
</g>
</g>
<!-- Node3&#45;&gt;Node13 -->
<g id="edge12_Node000003_Node000013" class="edge">
<title>Node3&#45;&gt;Node13</title>
<g id="a_edge12_Node000003_Node000013"><a xlink:title=" ">
<path fill="none" stroke="#63b8ff" d="M773.55,-71.68C795.9,-61.76 832.63,-45.31 864,-30.5 864.22,-30.4 864.44,-30.29 864.67,-30.18"/>
<polygon fill="#63b8ff" stroke="#63b8ff" points="866.09,-33.38 873.58,-25.89 863.05,-27.08 866.09,-33.38"/>
</a>
</g>
</g>
<!-- Node15 -->
<g id="Node000015" class="node">
<title>Node15</title>
<g id="a_Node000015"><a xlink:title=" ">
<polygon fill="#e0e0e0" stroke="#999999" points="160,-24.88 0,-24.88 0,-5.63 160,-5.63 160,-24.88"/>
<text text-anchor="middle" x="80" y="-11.38" font-family="Helvetica,sans-Serif" font-size="10.00">llvm/ADT/STLFunctionalExtras.h</text>
</a>
</g>
</g>
<!-- Node14&#45;&gt;Node15 -->
<g id="edge14_Node000014_Node000015" class="edge">
<title>Node14&#45;&gt;Node15</title>
<g id="a_edge14_Node000014_Node000015"><a xlink:title=" ">
<path fill="none" stroke="#63b8ff" d="M460.13,-73.03C391.87,-63.37 271.76,-46.19 169,-30.5 161.91,-29.42 154.51,-28.27 147.13,-27.11"/>
<polygon fill="#63b8ff" stroke="#63b8ff" points="147.92,-23.69 137.5,-25.58 146.83,-30.6 147.92,-23.69"/>
</a>
</g>
</g>
<!-- Node16 -->
<g id="Node000016" class="node">
<title>Node16</title>
<g id="a_Node000016"><a xlink:title=" ">
<polygon fill="#e0e0e0" stroke="#999999" points="272,-24.88 178,-24.88 178,-5.63 272,-5.63 272,-24.88"/>
<text text-anchor="middle" x="225" y="-11.38" font-family="Helvetica,sans-Serif" font-size="10.00">llvm/ADT/Twine.h</text>
</a>
</g>
</g>
<!-- Node14&#45;&gt;Node16 -->
<g id="edge15_Node000014_Node000016" class="edge">
<title>Node14&#45;&gt;Node16</title>
<g id="a_edge15_Node000014_Node000016"><a xlink:title=" ">
<path fill="none" stroke="#63b8ff" d="M470.46,-71.71C423.3,-62.01 346.74,-45.92 281,-30.5 277.69,-29.72 274.27,-28.9 270.84,-28.06"/>
<polygon fill="#63b8ff" stroke="#63b8ff" points="271.92,-24.73 261.37,-25.71 270.23,-31.52 271.92,-24.73"/>
</a>
</g>
</g>
<!-- Node17 -->
<g id="Node000017" class="node">
<title>Node17</title>
<g id="a_Node000017"><a xlink:title=" ">
<polygon fill="#e0e0e0" stroke="#999999" points="431.62,-24.88 290.38,-24.88 290.38,-5.63 431.62,-5.63 431.62,-24.88"/>
<text text-anchor="middle" x="361" y="-11.38" font-family="Helvetica,sans-Serif" font-size="10.00">llvm/Support/ErrorHandling.h</text>
</a>
</g>
</g>
<!-- Node14&#45;&gt;Node17 -->
<g id="edge16_Node000014_Node000017" class="edge">
<title>Node14&#45;&gt;Node17</title>
<g id="a_edge16_Node000014_Node000017"><a xlink:title=" ">
<path fill="none" stroke="#63b8ff" d="M493.26,-71.65C467.12,-60.7 423.02,-42.23 392.99,-29.65"/>
<polygon fill="#63b8ff" stroke="#63b8ff" points="394.6,-26.53 384.02,-25.89 391.89,-32.98 394.6,-26.53"/>
</a>
</g>
</g>
<!-- Node24&#45;&gt;Node2 -->
<g id="edge24_Node000024_Node000002" class="edge">
<title>Node24&#45;&gt;Node2</title>
<g id="a_edge24_Node000024_Node000002"><a xlink:title=" ">
<path fill="none" stroke="#63b8ff" d="M1458.53,-203.87C1362.92,-197.65 1186.57,-184.64 1025.68,-163.64"/>
<polygon fill="#63b8ff" stroke="#63b8ff" points="1026.49,-160.21 1016.12,-162.37 1025.57,-167.15 1026.49,-160.21"/>
</a>
</g>
</g>
<!-- Node24&#45;&gt;Node14 -->
<g id="edge46_Node000024_Node000014" class="edge">
<title>Node24&#45;&gt;Node14</title>
<g id="a_edge46_Node000024_Node000014"><a xlink:title=" ">
<path fill="none" stroke="#63b8ff" d="M1458.34,-207.07C1336.57,-204.44 1079.59,-195.26 865,-163.5 752.69,-146.88 623.09,-113.06 557.61,-94.91"/>
<polygon fill="#63b8ff" stroke="#63b8ff" points="558.56,-91.54 547.98,-92.22 556.68,-98.28 558.56,-91.54"/>
</a>
</g>
</g>
<!-- Node25 -->
<g id="Node000025" class="node">
<title>Node25</title>
<g id="a_Node000025"><a xlink:href="_felt_2_i_r_2_ops_8h.html" target="_top" xlink:title=" ">
<polygon fill="white" stroke="#666666" points="1735.88,-163.5 1638.12,-163.5 1638.12,-133 1735.88,-133 1735.88,-163.5"/>
<text text-anchor="start" x="1646.12" y="-150" font-family="Helvetica,sans-Serif" font-size="10.00">llzk/Dialect/Felt/IR</text>
<text text-anchor="middle" x="1687" y="-138.75" font-family="Helvetica,sans-Serif" font-size="10.00">/Ops.h</text>
</a>
</g>
</g>
<!-- Node24&#45;&gt;Node25 -->
<g id="edge25_Node000024_Node000025" class="edge">
<title>Node24&#45;&gt;Node25</title>
<g id="a_edge25_Node000024_Node000025"><a xlink:title=" ">
<path fill="none" stroke="#63b8ff" d="M1553.34,-199.05C1575.5,-190.8 1608.92,-178.34 1636.8,-167.96"/>
<polygon fill="#63b8ff" stroke="#63b8ff" points="1638,-171.24 1646.15,-164.47 1635.55,-164.69 1638,-171.24"/>
</a>
</g>
</g>
<!-- Node39 -->
<g id="Node000039" class="node">
<title>Node39</title>
<g id="a_Node000039"><a xlink:href="_attribute_helper_8h.html" target="_top" xlink:title=" ">
<polygon fill="white" stroke="#666666" points="2140.25,-163.5 2035.75,-163.5 2035.75,-133 2140.25,-133 2140.25,-163.5"/>
<text text-anchor="start" x="2043.75" y="-150" font-family="Helvetica,sans-Serif" font-size="10.00">llzk/Dialect/LLZK/IR</text>
<text text-anchor="middle" x="2088" y="-138.75" font-family="Helvetica,sans-Serif" font-size="10.00">/AttributeHelper.h</text>
</a>
</g>
</g>
<!-- Node24&#45;&gt;Node39 -->
<g id="edge36_Node000024_Node000039" class="edge">
<title>Node24&#45;&gt;Node39</title>
<g id="a_edge36_Node000024_Node000039"><a xlink:title=" ">
<path fill="none" stroke="#63b8ff" d="M1599.52,-200.71C1683.66,-191.86 1828.6,-176.61 1953,-163.5 1976.15,-161.06 2001.54,-158.38 2023.99,-156.01"/>
<polygon fill="#63b8ff" stroke="#63b8ff" points="2024.35,-159.49 2033.92,-154.96 2023.61,-152.53 2024.35,-159.49"/>
</a>
</g>
</g>
<!-- Node42 -->
<g id="Node000042" class="node">
<title>Node42</title>
<g id="a_Node000042"><a xlink:href="_polymorphic_2_i_r_2_ops_8h.html" target="_top" xlink:title=" ">
<polygon fill="#fff0f0" stroke="red" points="2279.88,-163.5 2158.12,-163.5 2158.12,-133 2279.88,-133 2279.88,-163.5"/>
<text text-anchor="start" x="2166.12" y="-150" font-family="Helvetica,sans-Serif" font-size="10.00">llzk/Dialect/Polymorphic</text>
<text text-anchor="middle" x="2219" y="-138.75" font-family="Helvetica,sans-Serif" font-size="10.00">/IR/Ops.h</text>
</a>
</g>
</g>
<!-- Node24&#45;&gt;Node42 -->
<g id="edge39_Node000024_Node000042" class="edge">
<title>Node24&#45;&gt;Node42</title>
<g id="a_edge39_Node000024_Node000042"><a xlink:title=" ">
<path fill="none" stroke="#63b8ff" d="M1599.51,-206.01C1712.78,-201.96 1942.45,-191.08 2146.75,-163.68"/>
<polygon fill="#63b8ff" stroke="#63b8ff" points="2147.06,-167.17 2156.5,-162.35 2146.12,-160.23 2147.06,-167.17"/>
</a>
</g>
</g>
<!-- Node49 -->
<g id="Node000049" class="node">
<title>Node49</title>
<g id="a_Node000049"><a xlink:href="_struct_2_i_r_2_ops_8h.html" target="_top" xlink:title=" ">
<polygon fill="#fff0f0" stroke="red" points="1620,-163.5 1526,-163.5 1526,-133 1620,-133 1620,-163.5"/>
<text text-anchor="start" x="1534" y="-150" font-family="Helvetica,sans-Serif" font-size="10.00">llzk/Dialect/Struct</text>
<text text-anchor="middle" x="1573" y="-138.75" font-family="Helvetica,sans-Serif" font-size="10.00">/IR/Ops.h</text>
</a>
</g>
</g>
<!-- Node24&#45;&gt;Node49 -->
<g id="edge44_Node000024_Node000049" class="edge">
<title>Node24&#45;&gt;Node49</title>
<g id="a_edge44_Node000024_Node000049"><a xlink:title=" ">
<path fill="none" stroke="#63b8ff" d="M1535.68,-199.18C1540.89,-192.21 1548.38,-182.2 1555.28,-172.96"/>
<polygon fill="#63b8ff" stroke="#63b8ff" points="1558.05,-175.1 1561.23,-164.99 1552.44,-170.91 1558.05,-175.1"/>
</a>
</g>
</g>
<!-- Node72 -->
<g id="Node000072" class="node">
<title>Node72</title>
<g id="a_Node000072"><a xlink:href="_hash_8h.html" target="_top" xlink:title=" ">
<polygon fill="#fff0f0" stroke="red" points="1837.75,-157.88 1754.25,-157.88 1754.25,-138.62 1837.75,-138.62 1837.75,-157.88"/>
<text text-anchor="middle" x="1796" y="-144.38" font-family="Helvetica,sans-Serif" font-size="10.00">llzk/Util/Hash.h</text>
</a>
</g>
</g>
<!-- Node24&#45;&gt;Node72 -->
<g id="edge47_Node000024_Node000072" class="edge">
<title>Node24&#45;&gt;Node72</title>
<g id="a_edge47_Node000024_Node000072"><a xlink:title=" ">
<path fill="none" stroke="#63b8ff" d="M1577.68,-199.06C1621.6,-190.65 1687.88,-177.36 1745,-163.5 1747.91,-162.79 1750.91,-162.03 1753.93,-161.25"/>
<polygon fill="#63b8ff" stroke="#63b8ff" points="1754.59,-164.7 1763.34,-158.73 1752.78,-157.94 1754.59,-164.7"/>
</a>
</g>
</g>
<!-- Node74 -->
<g id="Node000074" class="node">
<title>Node74</title>
<g id="a_Node000074"><a xlink:title=" ">
<polygon fill="#e0e0e0" stroke="#999999" points="2472.12,-157.88 2297.88,-157.88 2297.88,-138.62 2472.12,-138.62 2472.12,-157.88"/>
<text text-anchor="middle" x="2385" y="-144.38" font-family="Helvetica,sans-Serif" font-size="10.00">mlir/Analysis/DataFlowFramework.h</text>
</a>
</g>
</g>
<!-- Node24&#45;&gt;Node74 -->
<g id="edge48_Node000024_Node000074" class="edge">
<title>Node24&#45;&gt;Node74</title>
<g id="a_edge48_Node000024_Node000074"><a xlink:title=" ">
<path fill="none" stroke="#63b8ff" d="M1599.63,-206.07C1734.11,-201.7 2036.08,-189.64 2289,-163.5 2298.46,-162.52 2308.41,-161.28 2318.18,-159.95"/>
<polygon fill="#63b8ff" stroke="#63b8ff" points="2318.61,-163.42 2328.02,-158.55 2317.63,-156.49 2318.61,-163.42"/>
</a>
</g>
</g>
<!-- Node75 -->
<g id="Node000075" class="node">
<title>Node75</title>
<g id="a_Node000075"><a xlink:title=" ">
<polygon fill="#e0e0e0" stroke="#999999" points="1944.38,-163.5 1855.62,-163.5 1855.62,-133 1944.38,-133 1944.38,-163.5"/>
<text text-anchor="start" x="1863.62" y="-150" font-family="Helvetica,sans-Serif" font-size="10.00">mlir/Dialect/Arith</text>
<text text-anchor="middle" x="1900" y="-138.75" font-family="Helvetica,sans-Serif" font-size="10.00">/IR/Arith.h</text>
</a>
</g>
</g>
<!-- Node24&#45;&gt;Node75 -->
<g id="edge49_Node000024_Node000075" class="edge">
<title>Node24&#45;&gt;Node75</title>
<g id="a_edge49_Node000024_Node000075"><a xlink:title=" ">
<path fill="none" stroke="#63b8ff" d="M1599.53,-200.75C1661.66,-193.69 1754.78,-181.71 1844.12,-163.94"/>
<polygon fill="#63b8ff" stroke="#63b8ff" points="1844.68,-167.4 1853.79,-161.99 1843.29,-160.54 1844.68,-167.4"/>
</a>
</g>
</g>
<!-- Node76 -->
<g id="Node000076" class="node">
<title>Node76</title>
<g id="a_Node000076"><a xlink:title=" ">
<polygon fill="#e0e0e0" stroke="#999999" points="1175.38,-157.88 1032.62,-157.88 1032.62,-138.62 1175.38,-138.62 1175.38,-157.88"/>
<text text-anchor="middle" x="1104" y="-144.38" font-family="Helvetica,sans-Serif" font-size="10.00">mlir/Pass/AnalysisManager.h</text>
</a>
</g>
</g>
<!-- Node24&#45;&gt;Node76 -->
<g id="edge50_Node000024_Node000076" class="edge">
<title>Node24&#45;&gt;Node76</title>
<g id="a_edge50_Node000024_Node000076"><a xlink:title=" ">
<path fill="none" stroke="#63b8ff" d="M1458.49,-200C1388.67,-191.72 1278.76,-178.06 1184,-163.5 1177.57,-162.51 1170.86,-161.42 1164.18,-160.29"/>
<polygon fill="#63b8ff" stroke="#63b8ff" points="1164.96,-156.87 1154.51,-158.62 1163.77,-163.77 1164.96,-156.87"/>
</a>
</g>
</g>
<!-- Node77 -->
<g id="Node000077" class="node">
<title>Node77</title>
<g id="a_Node000077"><a xlink:title=" ">
<polygon fill="#e0e0e0" stroke="#999999" points="1350.88,-157.88 1193.12,-157.88 1193.12,-138.62 1350.88,-138.62 1350.88,-157.88"/>
<text text-anchor="middle" x="1272" y="-144.38" font-family="Helvetica,sans-Serif" font-size="10.00">llvm/ADT/EquivalenceClasses.h</text>
</a>
</g>
</g>
<!-- Node24&#45;&gt;Node77 -->
<g id="edge51_Node000024_Node000077" class="edge">
<title>Node24&#45;&gt;Node77</title>
<g id="a_edge51_Node000024_Node000077"><a xlink:title=" ">
<path fill="none" stroke="#63b8ff" d="M1489.41,-199.05C1444.6,-188.79 1371.51,-172.05 1322.6,-160.84"/>
<polygon fill="#63b8ff" stroke="#63b8ff" points="1323.64,-157.49 1313.11,-158.67 1322.08,-164.31 1323.64,-157.49"/>
</a>
</g>
</g>
<!-- Node78 -->
<g id="Node000078" class="node">
<title>Node78</title>
<g id="a_Node000078"><a xlink:title=" ">
<polygon fill="#e0e0e0" stroke="#999999" points="1446.75,-157.88 1369.25,-157.88 1369.25,-138.62 1446.75,-138.62 1446.75,-157.88"/>
<text text-anchor="middle" x="1408" y="-144.38" font-family="Helvetica,sans-Serif" font-size="10.00">unordered_set</text>
</a>
</g>
</g>
<!-- Node24&#45;&gt;Node78 -->
<g id="edge52_Node000024_Node000078" class="edge">
<title>Node24&#45;&gt;Node78</title>
<g id="a_edge52_Node000024_Node000078"><a xlink:title=" ">
<path fill="none" stroke="#63b8ff" d="M1510.36,-199.05C1490.67,-189.48 1459.39,-174.25 1436.58,-163.16"/>
<polygon fill="#63b8ff" stroke="#63b8ff" points="1438.35,-160.12 1427.82,-158.9 1435.29,-166.42 1438.35,-160.12"/>
</a>
</g>
</g>
<!-- Node66 -->
<g id="Node000066" class="node">
<title>Node66</title>
<g id="a_Node000066"><a xlink:title=" ">
<polygon fill="#e0e0e0" stroke="#999999" points="1507.5,-157.88 1464.5,-157.88 1464.5,-138.62 1507.5,-138.62 1507.5,-157.88"/>
<text text-anchor="middle" x="1486" y="-144.38" font-family="Helvetica,sans-Serif" font-size="10.00">vector</text>
</a>
</g>
</g>
<!-- Node24&#45;&gt;Node66 -->
<g id="edge53_Node000024_Node000066" class="edge">
<title>Node24&#45;&gt;Node66</title>
<g id="a_edge53_Node000024_Node000066"><a xlink:title=" ">
<path fill="none" stroke="#63b8ff" d="M1522.47,-199.18C1516.34,-190.8 1507,-178.01 1499.31,-167.47"/>
<polygon fill="#63b8ff" stroke="#63b8ff" points="1502.21,-165.51 1493.48,-159.5 1496.56,-169.64 1502.21,-165.51"/>
</a>
</g>
</g>
<!-- Node26 -->
<g id="Node000026" class="node">
<title>Node26</title>
<g id="a_Node000026"><a xlink:href="_felt_2_i_r_2_attrs_8h.html" target="_top" xlink:title=" ">
<polygon fill="#fff0f0" stroke="red" points="1640.88,-97 1543.12,-97 1543.12,-66.5 1640.88,-66.5 1640.88,-97"/>
<text text-anchor="start" x="1551.12" y="-83.5" font-family="Helvetica,sans-Serif" font-size="10.00">llzk/Dialect/Felt/IR</text>
<text text-anchor="middle" x="1592" y="-72.25" font-family="Helvetica,sans-Serif" font-size="10.00">/Attrs.h</text>
</a>
</g>
</g>
<!-- Node25&#45;&gt;Node26 -->
<g id="edge26_Node000025_Node000026" class="edge">
<title>Node25&#45;&gt;Node26</title>
<g id="a_edge26_Node000025_Node000026"><a xlink:title=" ">
<path fill="none" stroke="#63b8ff" d="M1665.44,-132.61C1652.81,-124.04 1636.65,-113.06 1622.7,-103.59"/>
<polygon fill="#63b8ff" stroke="#63b8ff" points="1624.96,-100.9 1614.72,-98.18 1621.03,-106.69 1624.96,-100.9"/>
</a>
</g>
</g>
<!-- Node29 -->
<g id="Node000029" class="node">
<title>Node29</title>
<g id="a_Node000029"><a xlink:href="_felt_2_i_r_2_dialect_8h.html" target="_top" xlink:title=" ">
<polygon fill="#fff0f0" stroke="red" points="1916.88,-30.5 1819.12,-30.5 1819.12,0 1916.88,0 1916.88,-30.5"/>
<text text-anchor="start" x="1827.12" y="-17" font-family="Helvetica,sans-Serif" font-size="10.00">llzk/Dialect/Felt/IR</text>
<text text-anchor="middle" x="1868" y="-5.75" font-family="Helvetica,sans-Serif" font-size="10.00">/Dialect.h</text>
</a>
</g>
</g>
<!-- Node25&#45;&gt;Node29 -->
<g id="edge28_Node000025_Node000029" class="edge">
<title>Node25&#45;&gt;Node29</title>
<g id="a_edge28_Node000025_Node000029"><a xlink:title=" ">
<path fill="none" stroke="#63b8ff" d="M1682.42,-132.74C1677.85,-115.15 1673.39,-85.51 1688,-66.5 1695.58,-56.64 1758.71,-40.55 1808.09,-29.24"/>
<polygon fill="#63b8ff" stroke="#63b8ff" points="1808.57,-32.72 1817.55,-27.1 1807.03,-25.89 1808.57,-32.72"/>
</a>
</g>
</g>
<!-- Node32 -->
<g id="Node000032" class="node">
<title>Node32</title>
<g id="a_Node000032"><a xlink:href="_felt_2_i_r_2_types_8h.html" target="_top" xlink:title=" ">
<polygon fill="#fff0f0" stroke="red" points="1972.88,-97 1875.12,-97 1875.12,-66.5 1972.88,-66.5 1972.88,-97"/>
<text text-anchor="start" x="1883.12" y="-83.5" font-family="Helvetica,sans-Serif" font-size="10.00">llzk/Dialect/Felt/IR</text>
<text text-anchor="middle" x="1924" y="-72.25" font-family="Helvetica,sans-Serif" font-size="10.00">/Types.h</text>
</a>
</g>
</g>
<!-- Node25&#45;&gt;Node32 -->
<g id="edge29_Node000025_Node000032" class="edge">
<title>Node25&#45;&gt;Node32</title>
<g id="a_edge29_Node000025_Node000032"><a xlink:title=" ">
<path fill="none" stroke="#63b8ff" d="M1736.11,-133.89C1773.21,-123.79 1824.32,-109.88 1863.87,-99.11"/>
<polygon fill="#63b8ff" stroke="#63b8ff" points="1864.77,-102.5 1873.5,-96.49 1862.93,-95.74 1864.77,-102.5"/>
</a>
</g>
</g>
<!-- Node33 -->
<g id="Node000033" class="node">
<title>Node33</title>
<g id="a_Node000033"><a xlink:href="_felt_2_i_r_2_ops_8h_8inc.html" target="_top" xlink:title=" ">
<polygon fill="white" stroke="#666666" points="2043.88,-30.5 1946.12,-30.5 1946.12,0 2043.88,0 2043.88,-30.5"/>
<text text-anchor="start" x="1954.12" y="-17" font-family="Helvetica,sans-Serif" font-size="10.00">llzk/Dialect/Felt/IR</text>
<text text-anchor="middle" x="1995" y="-5.75" font-family="Helvetica,sans-Serif" font-size="10.00">/Ops.h.inc</text>
</a>
</g>
</g>
<!-- Node25&#45;&gt;Node33 -->
<g id="edge35_Node000025_Node000033" class="edge">
<title>Node25&#45;&gt;Node33</title>
<g id="a_edge35_Node000025_Node000033"><a xlink:title=" ">
<path fill="none" stroke="#63b8ff" d="M1736.29,-134.82C1739.23,-134.18 1742.15,-133.56 1745,-133 1797.25,-122.63 1944.17,-134.5 1982,-97 1996.18,-82.95 1998.7,-59.98 1998.1,-42.13"/>
<polygon fill="#63b8ff" stroke="#63b8ff" points="2001.6,-41.99 1997.4,-32.27 1994.62,-42.49 2001.6,-41.99"/>
</a>
</g>
</g>
<!-- Node35 -->
<g id="Node000035" class="node">
<title>Node35</title>
<g id="a_Node000035"><a xlink:href="_op_traits_8h.html" target="_top" xlink:title=" ">
<polygon fill="#fff0f0" stroke="red" points="1524.62,-97 1419.38,-97 1419.38,-66.5 1524.62,-66.5 1524.62,-97"/>
<text text-anchor="start" x="1427.38" y="-83.5" font-family="Helvetica,sans-Serif" font-size="10.00">llzk/Dialect/Function</text>
<text text-anchor="middle" x="1472" y="-72.25" font-family="Helvetica,sans-Serif" font-size="10.00">/IR/OpTraits.h</text>
</a>
</g>
</g>
<!-- Node25&#45;&gt;Node35 -->
<g id="edge32_Node000025_Node000035" class="edge">
<title>Node25&#45;&gt;Node35</title>
<g id="a_edge32_Node000025_Node000035"><a xlink:title=" ">
<path fill="none" stroke="#63b8ff" d="M1637.94,-132.53C1606.43,-123.08 1565.29,-110.74 1531.86,-100.71"/>
<polygon fill="#63b8ff" stroke="#63b8ff" points="1532.88,-97.36 1522.29,-97.84 1530.87,-104.06 1532.88,-97.36"/>
</a>
</g>
</g>
<!-- Node38 -->
<g id="Node000038" class="node">
<title>Node38</title>
<g id="a_Node000038"><a xlink:title=" ">
<polygon fill="#e0e0e0" stroke="#999999" points="1818.88,-97 1697.12,-97 1697.12,-66.5 1818.88,-66.5 1818.88,-97"/>
<text text-anchor="start" x="1705.12" y="-83.5" font-family="Helvetica,sans-Serif" font-size="10.00">mlir/Interfaces/InferType</text>
<text text-anchor="middle" x="1758" y="-72.25" font-family="Helvetica,sans-Serif" font-size="10.00">OpInterface.h</text>
</a>
</g>
</g>
<!-- Node25&#45;&gt;Node38 -->
<g id="edge34_Node000025_Node000038" class="edge">
<title>Node25&#45;&gt;Node38</title>
<g id="a_edge34_Node000025_Node000038"><a xlink:title=" ">
<path fill="none" stroke="#63b8ff" d="M1703.11,-132.61C1712.1,-124.45 1723.48,-114.11 1733.54,-104.97"/>
<polygon fill="#63b8ff" stroke="#63b8ff" points="1735.78,-107.66 1740.83,-98.35 1731.08,-102.48 1735.78,-107.66"/>
</a>
</g>
</g>
<!-- Node26&#45;&gt;Node4 -->
<g id="edge27_Node000026_Node000004" class="edge">
<title>Node26&#45;&gt;Node4</title>
<g id="a_edge27_Node000026_Node000004"><a xlink:title=" ">
<path fill="none" stroke="#63b8ff" d="M1591.77,-66.11C1591.64,-57.33 1591.46,-46.02 1591.31,-36.4"/>
<polygon fill="#63b8ff" stroke="#63b8ff" points="1594.81,-36.53 1591.16,-26.59 1587.82,-36.64 1594.81,-36.53"/>
</a>
</g>
</g>
<!-- Node32&#45;&gt;Node29 -->
<g id="edge30_Node000032_Node000029" class="edge">
<title>Node32&#45;&gt;Node29</title>
<g id="a_edge30_Node000032_Node000029"><a xlink:title=" ">
<path fill="none" stroke="#63b8ff" d="M1911.29,-66.11C1904.42,-58.2 1895.77,-48.24 1888.02,-39.3"/>
<polygon fill="#63b8ff" stroke="#63b8ff" points="1890.85,-37.23 1881.65,-31.97 1885.56,-41.82 1890.85,-37.23"/>
</a>
</g>
</g>
<!-- Node32&#45;&gt;Node33 -->
<g id="edge31_Node000032_Node000033" class="edge">
<title>Node32&#45;&gt;Node33</title>
<g id="a_edge31_Node000032_Node000033"><a xlink:title=" ">
<path fill="none" stroke="#63b8ff" d="M1940.11,-66.11C1949.1,-57.95 1960.48,-47.61 1970.54,-38.47"/>
<polygon fill="#63b8ff" stroke="#63b8ff" points="1972.78,-41.16 1977.83,-31.85 1968.08,-35.98 1972.78,-41.16"/>
</a>
</g>
</g>
<!-- Node35&#45;&gt;Node6 -->
<g id="edge33_Node000035_Node000006" class="edge">
<title>Node35&#45;&gt;Node6</title>
<g id="a_edge33_Node000035_Node000006"><a xlink:title=" ">
<path fill="none" stroke="#63b8ff" d="M1464.51,-66.11C1459.81,-56.93 1453.71,-45 1448.65,-35.11"/>
<polygon fill="#63b8ff" stroke="#63b8ff" points="1451.87,-33.73 1444.2,-26.42 1445.64,-36.92 1451.87,-33.73"/>
</a>
</g>
</g>
<!-- Node40 -->
<g id="Node000040" class="node">
<title>Node40</title>
<g id="a_Node000040"><a xlink:title=" ">
<polygon fill="#e0e0e0" stroke="#999999" points="2183,-91.38 2029,-91.38 2029,-72.12 2183,-72.12 2183,-91.38"/>
<text text-anchor="middle" x="2106" y="-77.88" font-family="Helvetica,sans-Serif" font-size="10.00">mlir/IR/DialectImplementation.h</text>
</a>
</g>
</g>
<!-- Node39&#45;&gt;Node40 -->
<g id="edge37_Node000039_Node000040" class="edge">
<title>Node39&#45;&gt;Node40</title>
<g id="a_edge37_Node000039_Node000040"><a xlink:title=" ">
<path fill="none" stroke="#63b8ff" d="M2092.08,-132.61C2094.56,-123.73 2097.76,-112.27 2100.47,-102.58"/>
<polygon fill="#63b8ff" stroke="#63b8ff" points="2103.81,-103.6 2103.13,-93.03 2097.07,-101.72 2103.81,-103.6"/>
</a>
</g>
</g>
<!-- Node41 -->
<g id="Node000041" class="node">
<title>Node41</title>
<g id="a_Node000041"><a xlink:title=" ">
<polygon fill="#e0e0e0" stroke="#999999" points="2294.62,-91.38 2201.38,-91.38 2201.38,-72.12 2294.62,-72.12 2294.62,-91.38"/>
<text text-anchor="middle" x="2248" y="-77.88" font-family="Helvetica,sans-Serif" font-size="10.00">llvm/ADT/APInt.h</text>
</a>
</g>
</g>
<!-- Node39&#45;&gt;Node41 -->
<g id="edge38_Node000039_Node000041" class="edge">
<title>Node39&#45;&gt;Node41</title>
<g id="a_edge38_Node000039_Node000041"><a xlink:title=" ">
<path fill="none" stroke="#63b8ff" d="M2124.31,-132.61C2151.57,-121.62 2188.61,-106.69 2215.04,-96.04"/>
<polygon fill="#63b8ff" stroke="#63b8ff" points="2216.28,-99.31 2224.25,-92.33 2213.66,-92.82 2216.28,-99.31"/>
</a>
</g>
</g>
<!-- Node43 -->
<g id="Node000043" class="node">
<title>Node43</title>
<g id="a_Node000043"><a xlink:href="_polymorphic_2_i_r_2_dialect_8h.html" target="_top" xlink:title=" ">
<polygon fill="#fff0f0" stroke="red" points="2554.88,-30.5 2433.12,-30.5 2433.12,0 2554.88,0 2554.88,-30.5"/>
<text text-anchor="start" x="2441.12" y="-17" font-family="Helvetica,sans-Serif" font-size="10.00">llzk/Dialect/Polymorphic</text>
<text text-anchor="middle" x="2494" y="-5.75" font-family="Helvetica,sans-Serif" font-size="10.00">/IR/Dialect.h</text>
</a>
</g>
</g>
<!-- Node42&#45;&gt;Node43 -->
<g id="edge40_Node000042_Node000043" class="edge">
<title>Node42&#45;&gt;Node43</title>
<g id="a_edge40_Node000042_Node000043"><a xlink:title=" ">
<path fill="none" stroke="#63b8ff" d="M2280.32,-133.76C2340.6,-120.34 2424.52,-101.16 2431,-97 2452.64,-83.11 2469.94,-59.15 2480.89,-40.92"/>
<polygon fill="#63b8ff" stroke="#63b8ff" points="2483.9,-42.7 2485.84,-32.29 2477.83,-39.22 2483.9,-42.7"/>
</a>
</g>
</g>
<!-- Node45 -->
<g id="Node000045" class="node">
<title>Node45</title>
<g id="a_Node000045"><a xlink:href="_polymorphic_2_i_r_2_types_8h.html" target="_top" xlink:title=" ">
<polygon fill="#fff0f0" stroke="red" points="2599.88,-97 2478.12,-97 2478.12,-66.5 2599.88,-66.5 2599.88,-97"/>
<text text-anchor="start" x="2486.12" y="-83.5" font-family="Helvetica,sans-Serif" font-size="10.00">llzk/Dialect/Polymorphic</text>
<text text-anchor="middle" x="2539" y="-72.25" font-family="Helvetica,sans-Serif" font-size="10.00">/IR/Types.h</text>
</a>
</g>
</g>
<!-- Node42&#45;&gt;Node45 -->
<g id="edge41_Node000042_Node000045" class="edge">
<title>Node42&#45;&gt;Node45</title>
<g id="a_edge41_Node000042_Node000045"><a xlink:title=" ">
<path fill="none" stroke="#63b8ff" d="M2280.08,-134.81C2283.1,-134.19 2286.08,-133.59 2289,-133 2348.91,-120.88 2416.91,-107.22 2466.85,-97.2"/>
<polygon fill="#63b8ff" stroke="#63b8ff" points="2467.26,-100.69 2476.38,-95.29 2465.88,-93.83 2467.26,-100.69"/>
</a>
</g>
</g>
<!-- Node48 -->
<g id="Node000048" class="node">
<title>Node48</title>
<g id="a_Node000048"><a xlink:title=" ">
<polygon fill="#e0e0e0" stroke="#999999" points="2421.5,-97 2312.5,-97 2312.5,-66.5 2421.5,-66.5 2421.5,-97"/>
<text text-anchor="start" x="2320.5" y="-83.5" font-family="Helvetica,sans-Serif" font-size="10.00">mlir/Dialect/Affine</text>
<text text-anchor="middle" x="2367" y="-72.25" font-family="Helvetica,sans-Serif" font-size="10.00">/IR/AffineValueMap.h</text>
</a>
</g>
</g>
<!-- Node42&#45;&gt;Node48 -->
<g id="edge43_Node000042_Node000048" class="edge">
<title>Node42&#45;&gt;Node48</title>
<g id="a_edge43_Node000042_Node000048"><a xlink:title=" ">
<path fill="none" stroke="#63b8ff" d="M2252.58,-132.61C2273.42,-123.53 2300.42,-111.77 2322.96,-101.94"/>
<polygon fill="#63b8ff" stroke="#63b8ff" points="2324.14,-105.25 2331.91,-98.04 2321.34,-98.83 2324.14,-105.25"/>
</a>
</g>
</g>
<!-- Node45&#45;&gt;Node43 -->
<g id="edge42_Node000045_Node000043" class="edge">
<title>Node45&#45;&gt;Node43</title>
<g id="a_edge42_Node000045_Node000043"><a xlink:title=" ">
<path fill="none" stroke="#63b8ff" d="M2528.79,-66.11C2523.44,-58.44 2516.75,-48.86 2510.67,-40.15"/>
<polygon fill="#63b8ff" stroke="#63b8ff" points="2513.63,-38.27 2505.04,-32.07 2507.89,-42.27 2513.63,-38.27"/>
</a>
</g>
</g>
<!-- Node49&#45;&gt;Node35 -->
<g id="edge45_Node000049_Node000035" class="edge">
<title>Node49&#45;&gt;Node35</title>
<g id="a_edge45_Node000049_Node000035"><a xlink:title=" ">
<path fill="none" stroke="#63b8ff" d="M1550.08,-132.61C1536.52,-123.95 1519.14,-112.85 1504.21,-103.32"/>
<polygon fill="#63b8ff" stroke="#63b8ff" points="1506.42,-100.58 1496.1,-98.14 1502.65,-106.47 1506.42,-100.58"/>
</a>
</g>
</g>
<!-- Node79&#45;&gt;Node7 -->
<g id="edge57_Node000079_Node000007" class="edge">
<title>Node79&#45;&gt;Node7</title>
<g id="a_edge57_Node000079_Node000007"><a xlink:title=" ">
<path fill="none" stroke="#63b8ff" d="M2400.14,-207.31C2310.25,-204.82 2155.51,-195.7 2027,-163.5 2026.41,-163.35 1866.52,-97.31 1866,-97 1847.36,-85.98 1846.35,-77.99 1828,-66.5 1804.92,-52.05 1777.04,-38.99 1755.66,-29.8"/>
<polygon fill="#63b8ff" stroke="#63b8ff" points="1757.11,-26.61 1746.53,-25.96 1754.39,-33.06 1757.11,-26.61"/>
</a>
</g>
</g>
<!-- Node79&#45;&gt;Node74 -->
<g id="edge56_Node000079_Node000074" class="edge">
<title>Node79&#45;&gt;Node74</title>
<g id="a_edge56_Node000079_Node000074"><a xlink:title=" ">
<path fill="none" stroke="#63b8ff" d="M2461.33,-199.18C2447.19,-189.93 2424.86,-175.32 2407.99,-164.29"/>
<polygon fill="#63b8ff" stroke="#63b8ff" points="2410.35,-161.65 2400.06,-159.1 2406.52,-167.51 2410.35,-161.65"/>
</a>
</g>
</g>
<!-- Node80 -->
<g id="Node000080" class="node">
<title>Node80</title>
<g id="a_Node000080"><a xlink:title=" ">
<polygon fill="#e0e0e0" stroke="#999999" points="2927.62,-163.5 2810.38,-163.5 2810.38,-133 2927.62,-133 2927.62,-163.5"/>
<text text-anchor="start" x="2818.38" y="-150" font-family="Helvetica,sans-Serif" font-size="10.00">mlir/Analysis/DataFlow</text>
<text text-anchor="middle" x="2869" y="-138.75" font-family="Helvetica,sans-Serif" font-size="10.00">/DenseAnalysis.h</text>
</a>
</g>
</g>
<!-- Node79&#45;&gt;Node80 -->
<g id="edge55_Node000079_Node000080" class="edge">
<title>Node79&#45;&gt;Node80</title>
<g id="a_edge55_Node000079_Node000080"><a xlink:title=" ">
<path fill="none" stroke="#63b8ff" d="M2549.68,-199.42C2613.32,-191.66 2707.46,-179.36 2798.94,-163.78"/>
<polygon fill="#63b8ff" stroke="#63b8ff" points="2799.32,-167.26 2808.59,-162.12 2798.14,-160.37 2799.32,-167.26"/>
</a>
</g>
</g>
<!-- Node81 -->
<g id="Node000081" class="node">
<title>Node81</title>
<g id="a_Node000081"><a xlink:title=" ">
<polygon fill="#e0e0e0" stroke="#999999" points="2640.12,-157.88 2489.88,-157.88 2489.88,-138.62 2640.12,-138.62 2640.12,-157.88"/>
<text text-anchor="middle" x="2565" y="-144.38" font-family="Helvetica,sans-Serif" font-size="10.00">mlir/Interfaces/CallInterfaces.h</text>
</a>
</g>
</g>
<!-- Node79&#45;&gt;Node81 -->
<g id="edge58_Node000079_Node000081" class="edge">
<title>Node79&#45;&gt;Node81</title>
<g id="a_edge58_Node000079_Node000081"><a xlink:title=" ">
<path fill="none" stroke="#63b8ff" d="M2488.67,-199.18C2502.81,-189.93 2525.14,-175.32 2542.01,-164.29"/>
<polygon fill="#63b8ff" stroke="#63b8ff" points="2543.48,-167.51 2549.94,-159.1 2539.65,-161.65 2543.48,-167.51"/>
</a>
</g>
</g>
<!-- Node82 -->
<g id="Node000082" class="node">
<title>Node82</title>
<g id="a_Node000082"><a xlink:title=" ">
<polygon fill="#e0e0e0" stroke="#999999" points="2791.88,-163.5 2658.12,-163.5 2658.12,-133 2791.88,-133 2791.88,-163.5"/>
<text text-anchor="start" x="2666.12" y="-150" font-family="Helvetica,sans-Serif" font-size="10.00">mlir/Interfaces/ControlFlow</text>
<text text-anchor="middle" x="2725" y="-138.75" font-family="Helvetica,sans-Serif" font-size="10.00">Interfaces.h</text>
</a>
</g>
</g>
<!-- Node79&#45;&gt;Node82 -->
<g id="edge59_Node000079_Node000082" class="edge">
<title>Node79&#45;&gt;Node82</title>
<g id="a_edge59_Node000079_Node000082"><a xlink:title=" ">
<path fill="none" stroke="#63b8ff" d="M2513.51,-199.05C2550.21,-190.41 2606.41,-177.18 2651.65,-166.52"/>
<polygon fill="#63b8ff" stroke="#63b8ff" points="2652.2,-169.99 2661.13,-164.29 2650.59,-163.18 2652.2,-169.99"/>
</a>
</g>
</g>
</g>
</svg>
