<?xml version="1.0" encoding="UTF-8" standalone="no"?>
<!DOCTYPE svg PUBLIC "-//W3C//DTD SVG 1.1//EN"
 "http://www.w3.org/Graphics/SVG/1.1/DTD/svg11.dtd">
<!-- Generated by graphviz version 12.2.1 (0)
 -->
<!-- Title: include/llzk/Util/Debug.h Pages: 1 -->
<svg width="739pt" height="426pt"
 viewBox="0.00 0.00 739.38 426.25" xmlns="http://www.w3.org/2000/svg" xmlns:xlink="http://www.w3.org/1999/xlink">
<g id="graph0" class="graph" transform="scale(1 1) rotate(0) translate(4 422.25)">
<title>include/llzk/Util/Debug.h</title>
<!-- Node1 -->
<g id="Node000001" class="node">
<title>Node1</title>
<g id="a_Node000001"><a xlink:title=" ">
<polygon fill="#999999" stroke="#666666" points="443.12,-418.25 320.62,-418.25 320.62,-399 443.12,-399 443.12,-418.25"/>
<text text-anchor="middle" x="381.88" y="-404.75" font-family="Helvetica,sans-Serif" font-size="10.00">include/llzk/Util/Debug.h</text>
</a>
</g>
</g>
<!-- Node2 -->
<g id="Node000002" class="node">
<title>Node2</title>
<g id="a_Node000002"><a xlink:href="_abstract_lattice_value_8h.html" target="_top" xlink:title=" ">
<polygon fill="white" stroke="#666666" points="381.5,-363 264.25,-363 264.25,-332.5 381.5,-332.5 381.5,-363"/>
<text text-anchor="start" x="272.25" y="-349.5" font-family="Helvetica,sans-Serif" font-size="10.00">include/llzk/Analysis</text>
<text text-anchor="middle" x="322.88" y="-338.25" font-family="Helvetica,sans-Serif" font-size="10.00">/AbstractLatticeValue.h</text>
</a>
</g>
</g>
<!-- Node1&#45;&gt;Node2 -->
<g id="edge1_Node000001_Node000002" class="edge">
<title>Node1&#45;&gt;Node2</title>
<g id="a_edge1_Node000001_Node000002"><a xlink:title=" ">
<path fill="none" stroke="#63b8ff" d="M364.96,-390.75C356.27,-382.07 345.77,-371.6 337.44,-363.28"/>
<polygon fill="#63b8ff" stroke="#63b8ff" points="362.29,-393.03 371.84,-397.61 367.24,-388.07 362.29,-393.03"/>
</a>
</g>
</g>
<!-- Node7 -->
<g id="Node000007" class="node">
<title>Node7</title>
<g id="a_Node000007"><a xlink:href="_interval_analysis_8cpp.html" target="_top" xlink:title=" ">
<polygon fill="white" stroke="#666666" points="157.75,-24.88 0,-24.88 0,-5.63 157.75,-5.63 157.75,-24.88"/>
<text text-anchor="middle" x="78.88" y="-11.38" font-family="Helvetica,sans-Serif" font-size="10.00">lib/Analysis/IntervalAnalysis.cpp</text>
</a>
</g>
</g>
<!-- Node1&#45;&gt;Node7 -->
<g id="edge18_Node000001_Node000007" class="edge">
<title>Node1&#45;&gt;Node7</title>
<g id="a_edge18_Node000001_Node000007"><a xlink:title=" ">
<path fill="none" stroke="#63b8ff" d="M308.71,-407.77C219.04,-403.66 78.88,-381.37 78.88,-282.25 78.88,-282.25 78.88,-282.25 78.88,-147.25 78.88,-101.31 78.88,-46.31 78.88,-25.14"/>
<polygon fill="#63b8ff" stroke="#63b8ff" points="308.55,-411.27 318.68,-408.16 308.82,-404.28 308.55,-411.27"/>
</a>
</g>
</g>
<!-- Node12 -->
<g id="Node000012" class="node">
<title>Node12</title>
<g id="a_Node000012"><a xlink:href="_constrain_ref_8cpp.html" target="_top" xlink:title=" ">
<polygon fill="white" stroke="#666666" points="608.75,-224.38 463,-224.38 463,-205.12 608.75,-205.12 608.75,-224.38"/>
<text text-anchor="middle" x="535.88" y="-210.88" font-family="Helvetica,sans-Serif" font-size="10.00">lib/Analysis/ConstrainRef.cpp</text>
</a>
</g>
</g>
<!-- Node1&#45;&gt;Node12 -->
<g id="edge17_Node000001_Node000012" class="edge">
<title>Node1&#45;&gt;Node12</title>
<g id="a_edge17_Node000001_Node000012"><a xlink:title=" ">
<path fill="none" stroke="#63b8ff" d="M396.25,-389.71C428.42,-349.63 505.23,-253.93 528.85,-224.51"/>
<polygon fill="#63b8ff" stroke="#63b8ff" points="393.57,-387.46 390.04,-397.45 399.03,-391.84 393.57,-387.46"/>
</a>
</g>
</g>
<!-- Node13 -->
<g id="Node000013" class="node">
<title>Node13</title>
<g id="a_Node000013"><a xlink:href="_flattening_pass_8cpp.html" target="_top" xlink:title="This file implements the &#45;llzk&#45;flatten pass.">
<polygon fill="white" stroke="#666666" points="609.62,-363 454.12,-363 454.12,-332.5 609.62,-332.5 609.62,-363"/>
<text text-anchor="start" x="462.12" y="-349.5" font-family="Helvetica,sans-Serif" font-size="10.00">lib/Dialect/Polymorphic</text>
<text text-anchor="middle" x="531.88" y="-338.25" font-family="Helvetica,sans-Serif" font-size="10.00">/Transforms/FlatteningPass.cpp</text>
</a>
</g>
</g>
<!-- Node1&#45;&gt;Node13 -->
<g id="edge19_Node000001_Node000013" class="edge">
<title>Node1&#45;&gt;Node13</title>
<g id="a_edge19_Node000001_Node000013"><a xlink:title=" ">
<path fill="none" stroke="#63b8ff" d="M415.47,-394.44C438.9,-385.24 470.2,-372.96 494.44,-363.44"/>
<polygon fill="#63b8ff" stroke="#63b8ff" points="414.42,-391.09 406.39,-398 416.98,-397.61 414.42,-391.09"/>
</a>
</g>
</g>
<!-- Node3 -->
<g id="Node000003" class="node">
<title>Node3</title>
<g id="a_Node000003"><a xlink:href="_constrain_ref_8h.html" target="_top" xlink:title=" ">
<polygon fill="white" stroke="#666666" points="359.5,-296.5 254.25,-296.5 254.25,-266 359.5,-266 359.5,-296.5"/>
<text text-anchor="start" x="262.25" y="-283" font-family="Helvetica,sans-Serif" font-size="10.00">include/llzk/Analysis</text>
<text text-anchor="middle" x="306.88" y="-271.75" font-family="Helvetica,sans-Serif" font-size="10.00">/ConstrainRef.h</text>
</a>
</g>
</g>
<!-- Node2&#45;&gt;Node3 -->
<g id="edge2_Node000002_Node000003" class="edge">
<title>Node2&#45;&gt;Node3</title>
<g id="a_edge2_Node000002_Node000003"><a xlink:title=" ">
<path fill="none" stroke="#63b8ff" d="M316.51,-321.09C314.46,-312.84 312.27,-303.99 310.49,-296.83"/>
<polygon fill="#63b8ff" stroke="#63b8ff" points="313.08,-321.78 318.88,-330.64 319.87,-320.1 313.08,-321.78"/>
</a>
</g>
</g>
<!-- Node4 -->
<g id="Node000004" class="node">
<title>Node4</title>
<g id="a_Node000004"><a xlink:href="_constrain_ref_lattice_8h.html" target="_top" xlink:title=" ">
<polygon fill="white" stroke="#666666" points="445,-230 330.75,-230 330.75,-199.5 445,-199.5 445,-230"/>
<text text-anchor="start" x="338.75" y="-216.5" font-family="Helvetica,sans-Serif" font-size="10.00">include/llzk/Analysis</text>
<text text-anchor="middle" x="387.88" y="-205.25" font-family="Helvetica,sans-Serif" font-size="10.00">/ConstrainRefLattice.h</text>
</a>
</g>
</g>
<!-- Node2&#45;&gt;Node4 -->
<g id="edge15_Node000002_Node000004" class="edge">
<title>Node2&#45;&gt;Node4</title>
<g id="a_edge15_Node000002_Node000004"><a xlink:title=" ">
<path fill="none" stroke="#63b8ff" d="M348.23,-324.03C355.86,-316.01 363.6,-306.48 368.88,-296.5 380.18,-275.11 384.83,-247.02 386.69,-230.23"/>
<polygon fill="#63b8ff" stroke="#63b8ff" points="345.82,-321.5 341.19,-331.03 350.75,-326.46 345.82,-321.5"/>
</a>
</g>
</g>
<!-- Node6 -->
<g id="Node000006" class="node">
<title>Node6</title>
<g id="a_Node000006"><a xlink:href="_interval_analysis_8h.html" target="_top" xlink:title=" ">
<polygon fill="white" stroke="#666666" points="212.5,-97 107.25,-97 107.25,-66.5 212.5,-66.5 212.5,-97"/>
<text text-anchor="start" x="115.25" y="-83.5" font-family="Helvetica,sans-Serif" font-size="10.00">include/llzk/Analysis</text>
<text text-anchor="middle" x="159.88" y="-72.25" font-family="Helvetica,sans-Serif" font-size="10.00">/IntervalAnalysis.h</text>
</a>
</g>
</g>
<!-- Node2&#45;&gt;Node6 -->
<g id="edge16_Node000002_Node000006" class="edge">
<title>Node2&#45;&gt;Node6</title>
<g id="a_edge16_Node000002_Node000006"><a xlink:title=" ">
<path fill="none" stroke="#63b8ff" d="M281.24,-326.5C268.24,-318.58 254.74,-308.49 244.88,-296.5 192.86,-233.28 169.64,-134.24 162.46,-97.29"/>
<polygon fill="#63b8ff" stroke="#63b8ff" points="279.29,-329.41 289.7,-331.37 282.78,-323.35 279.29,-329.41"/>
</a>
</g>
</g>
<!-- Node3&#45;&gt;Node4 -->
<g id="edge3_Node000003_Node000004" class="edge">
<title>Node3&#45;&gt;Node4</title>
<g id="a_edge3_Node000003_Node000004"><a xlink:title=" ">
<path fill="none" stroke="#63b8ff" d="M334.17,-258.52C345.82,-249.23 359.12,-238.65 369.57,-230.33"/>
<polygon fill="#63b8ff" stroke="#63b8ff" points="332.08,-255.7 326.44,-264.67 336.44,-261.18 332.08,-255.7"/>
</a>
</g>
</g>
<!-- Node5 -->
<g id="Node000005" class="node">
<title>Node5</title>
<g id="a_Node000005"><a xlink:href="_constraint_dependency_graph_8h.html" target="_top" xlink:title=" ">
<polygon fill="white" stroke="#666666" points="406.5,-163.5 253.25,-163.5 253.25,-133 406.5,-133 406.5,-163.5"/>
<text text-anchor="start" x="261.25" y="-150" font-family="Helvetica,sans-Serif" font-size="10.00">include/llzk/Analysis</text>
<text text-anchor="middle" x="329.88" y="-138.75" font-family="Helvetica,sans-Serif" font-size="10.00">/ConstraintDependencyGraph.h</text>
</a>
</g>
</g>
<!-- Node3&#45;&gt;Node5 -->
<g id="edge13_Node000003_Node000005" class="edge">
<title>Node3&#45;&gt;Node5</title>
<g id="a_edge13_Node000003_Node000005"><a xlink:title=" ">
<path fill="none" stroke="#63b8ff" d="M311.41,-254.43C316.17,-227.34 323.47,-185.71 327.31,-163.83"/>
<polygon fill="#63b8ff" stroke="#63b8ff" points="307.97,-253.78 309.69,-264.24 314.86,-255 307.97,-253.78"/>
</a>
</g>
</g>
<!-- Node3&#45;&gt;Node12 -->
<g id="edge14_Node000003_Node000012" class="edge">
<title>Node3&#45;&gt;Node12</title>
<g id="a_edge14_Node000003_Node000012"><a xlink:title=" ">
<path fill="none" stroke="#63b8ff" d="M370.14,-262.43C413.46,-250.23 469.11,-234.55 503.64,-224.83"/>
<polygon fill="#63b8ff" stroke="#63b8ff" points="369.26,-259.04 360.58,-265.12 371.16,-265.78 369.26,-259.04"/>
</a>
</g>
</g>
<!-- Node4&#45;&gt;Node5 -->
<g id="edge4_Node000004_Node000005" class="edge">
<title>Node4&#45;&gt;Node5</title>
<g id="a_edge4_Node000004_Node000005"><a xlink:title=" ">
<path fill="none" stroke="#63b8ff" d="M367.08,-190.63C359.05,-181.69 350.09,-171.74 342.98,-163.83"/>
<polygon fill="#63b8ff" stroke="#63b8ff" points="364.41,-192.89 373.7,-197.99 369.62,-188.21 364.41,-192.89"/>
</a>
</g>
</g>
<!-- Node9 -->
<g id="Node000009" class="node">
<title>Node9</title>
<g id="a_Node000009"><a xlink:href="_constrain_ref_lattice_8cpp.html" target="_top" xlink:title=" ">
<polygon fill="white" stroke="#666666" points="544.38,-97 417.38,-97 417.38,-66.5 544.38,-66.5 544.38,-97"/>
<text text-anchor="start" x="425.38" y="-83.5" font-family="Helvetica,sans-Serif" font-size="10.00">lib/Analysis/ConstrainRef</text>
<text text-anchor="middle" x="480.88" y="-72.25" font-family="Helvetica,sans-Serif" font-size="10.00">Lattice.cpp</text>
</a>
</g>
</g>
<!-- Node4&#45;&gt;Node9 -->
<g id="edge11_Node000004_Node000009" class="edge">
<title>Node4&#45;&gt;Node9</title>
<g id="a_edge11_Node000004_Node000009"><a xlink:title=" ">
<path fill="none" stroke="#63b8ff" d="M404.67,-190.09C423.83,-163.1 454.57,-119.8 470.52,-97.33"/>
<polygon fill="#63b8ff" stroke="#63b8ff" points="401.99,-187.82 399.06,-198 407.7,-191.87 401.99,-187.82"/>
</a>
</g>
</g>
<!-- Node10 -->
<g id="Node000010" class="node">
<title>Node10</title>
<g id="a_Node000010"><a xlink:href="_constraint_dependency_graph_8cpp.html" target="_top" xlink:title=" ">
<polygon fill="white" stroke="#666666" points="731.38,-97 562.38,-97 562.38,-66.5 731.38,-66.5 731.38,-97"/>
<text text-anchor="start" x="570.38" y="-83.5" font-family="Helvetica,sans-Serif" font-size="10.00">lib/Analysis/ConstraintDependency</text>
<text text-anchor="middle" x="646.88" y="-72.25" font-family="Helvetica,sans-Serif" font-size="10.00">Graph.cpp</text>
</a>
</g>
</g>
<!-- Node4&#45;&gt;Node10 -->
<g id="edge12_Node000004_Node000010" class="edge">
<title>Node4&#45;&gt;Node10</title>
<g id="a_edge12_Node000004_Node000010"><a xlink:title=" ">
<path fill="none" stroke="#63b8ff" d="M427.1,-193.91C479.61,-167.35 571.54,-120.85 618.1,-97.3"/>
<polygon fill="#63b8ff" stroke="#63b8ff" points="425.53,-190.78 418.18,-198.42 428.69,-197.03 425.53,-190.78"/>
</a>
</g>
</g>
<!-- Node5&#45;&gt;Node6 -->
<g id="edge5_Node000005_Node000006" class="edge">
<title>Node5&#45;&gt;Node6</title>
<g id="a_edge5_Node000005_Node000006"><a xlink:title=" ">
<path fill="none" stroke="#63b8ff" d="M280.84,-128.65C254.7,-118.73 222.99,-106.7 198.59,-97.44"/>
<polygon fill="#63b8ff" stroke="#63b8ff" points="279.29,-131.8 289.88,-132.08 281.78,-125.26 279.29,-131.8"/>
</a>
</g>
</g>
<!-- Node5&#45;&gt;Node9 -->
<g id="edge8_Node000005_Node000009" class="edge">
<title>Node5&#45;&gt;Node9</title>
<g id="a_edge8_Node000005_Node000009"><a xlink:title=" ">
<path fill="none" stroke="#63b8ff" d="M374.67,-128.12C397.65,-118.3 425.2,-106.53 446.49,-97.44"/>
<polygon fill="#63b8ff" stroke="#63b8ff" points="373.35,-124.87 365.53,-132.02 376.1,-131.31 373.35,-124.87"/>
</a>
</g>
</g>
<!-- Node5&#45;&gt;Node10 -->
<g id="edge9_Node000005_Node000010" class="edge">
<title>Node5&#45;&gt;Node10</title>
<g id="a_edge9_Node000005_Node000010"><a xlink:title=" ">
<path fill="none" stroke="#63b8ff" d="M413.34,-130.27C463.46,-120.07 526.6,-107.22 574.58,-97.46"/>
<polygon fill="#63b8ff" stroke="#63b8ff" points="412.79,-126.81 403.69,-132.23 414.18,-133.67 412.79,-126.81"/>
</a>
</g>
</g>
<!-- Node11 -->
<g id="Node000011" class="node">
<title>Node11</title>
<g id="a_Node000011"><a xlink:href="_constraint_dependency_graph_pass_8cpp.html" target="_top" xlink:title="This file implements the &#45;llzk&#45;print&#45;constraint&#45;dependency&#45;graphs pass.">
<polygon fill="white" stroke="#666666" points="399.38,-97 230.38,-97 230.38,-66.5 399.38,-66.5 399.38,-97"/>
<text text-anchor="start" x="238.38" y="-83.5" font-family="Helvetica,sans-Serif" font-size="10.00">lib/Analysis/ConstraintDependency</text>
<text text-anchor="middle" x="314.88" y="-72.25" font-family="Helvetica,sans-Serif" font-size="10.00">GraphPass.cpp</text>
</a>
</g>
</g>
<!-- Node5&#45;&gt;Node11 -->
<g id="edge10_Node000005_Node000011" class="edge">
<title>Node5&#45;&gt;Node11</title>
<g id="a_edge10_Node000005_Node000011"><a xlink:title=" ">
<path fill="none" stroke="#63b8ff" d="M323.91,-121.59C321.99,-113.34 319.93,-104.49 318.27,-97.33"/>
<polygon fill="#63b8ff" stroke="#63b8ff" points="320.45,-122.19 326.13,-131.14 327.27,-120.61 320.45,-122.19"/>
</a>
</g>
</g>
<!-- Node6&#45;&gt;Node7 -->
<g id="edge6_Node000006_Node000007" class="edge">
<title>Node6&#45;&gt;Node7</title>
<g id="a_edge6_Node000006_Node000007"><a xlink:title=" ">
<path fill="none" stroke="#63b8ff" d="M132.81,-59.2C118.19,-47.56 100.94,-33.82 89.95,-25.07"/>
<polygon fill="#63b8ff" stroke="#63b8ff" points="130.31,-61.68 140.31,-65.17 134.67,-56.2 130.31,-61.68"/>
</a>
</g>
</g>
<!-- Node8 -->
<g id="Node000008" class="node">
<title>Node8</title>
<g id="a_Node000008"><a xlink:href="_interval_analysis_pass_8cpp.html" target="_top" xlink:title="This file implements the &#45;llzk&#45;print&#45;interval&#45;analysis pass.">
<polygon fill="white" stroke="#666666" points="314.38,-30.5 175.38,-30.5 175.38,0 314.38,0 314.38,-30.5"/>
<text text-anchor="start" x="183.38" y="-17" font-family="Helvetica,sans-Serif" font-size="10.00">lib/Analysis/IntervalAnalysis</text>
<text text-anchor="middle" x="244.88" y="-5.75" font-family="Helvetica,sans-Serif" font-size="10.00">Pass.cpp</text>
</a>
</g>
</g>
<!-- Node6&#45;&gt;Node8 -->
<g id="edge7_Node000006_Node000008" class="edge">
<title>Node6&#45;&gt;Node8</title>
<g id="a_edge7_Node000006_Node000008"><a xlink:title=" ">
<path fill="none" stroke="#63b8ff" d="M188.15,-59.29C200.47,-49.94 214.59,-39.23 225.66,-30.83"/>
<polygon fill="#63b8ff" stroke="#63b8ff" points="186.22,-56.37 180.37,-65.2 190.45,-61.94 186.22,-56.37"/>
</a>
</g>
</g>
</g>
</svg>
