<?xml version="1.0" encoding="UTF-8" standalone="no"?>
<!DOCTYPE svg PUBLIC "-//W3C//DTD SVG 1.1//EN"
 "http://www.w3.org/Graphics/SVG/1.1/DTD/svg11.dtd">
<!-- Generated by graphviz version 12.2.1 (0)
 -->
<!-- Title: include/llzk/Analysis/DenseAnalysis.h Pages: 1 -->
<svg width="770pt" height="105pt"
 viewBox="0.00 0.00 769.50 105.00" xmlns="http://www.w3.org/2000/svg" xmlns:xlink="http://www.w3.org/1999/xlink">
<g id="graph0" class="graph" transform="scale(1 1) rotate(0) translate(4 101)">
<title>include/llzk/Analysis/DenseAnalysis.h</title>
<!-- Node1 -->
<g id="Node000001" class="node">
<title>Node1</title>
<g id="a_Node000001"><a xlink:title="This file implements (LLZK&#45;tailored) dense data&#45;flow analysis using the data&#45;flow analysis framework.">
<polygon fill="#999999" stroke="#666666" points="437.25,-97 332,-97 332,-66.5 437.25,-66.5 437.25,-97"/>
<text text-anchor="start" x="340" y="-83.5" font-family="Helvetica,sans-Serif" font-size="10.00">include/llzk/Analysis</text>
<text text-anchor="middle" x="384.62" y="-72.25" font-family="Helvetica,sans-Serif" font-size="10.00">/DenseAnalysis.h</text>
</a>
</g>
</g>
<!-- Node2 -->
<g id="Node000002" class="node">
<title>Node2</title>
<g id="a_Node000002"><a xlink:title=" ">
<polygon fill="#e0e0e0" stroke="#999999" points="117.25,-30.5 0,-30.5 0,0 117.25,0 117.25,-30.5"/>
<text text-anchor="start" x="8" y="-17" font-family="Helvetica,sans-Serif" font-size="10.00">mlir/Analysis/DataFlow</text>
<text text-anchor="middle" x="58.62" y="-5.75" font-family="Helvetica,sans-Serif" font-size="10.00">/DenseAnalysis.h</text>
</a>
</g>
</g>
<!-- Node1&#45;&gt;Node2 -->
<g id="edge1_Node000001_Node000002" class="edge">
<title>Node1&#45;&gt;Node2</title>
<g id="a_edge1_Node000001_Node000002"><a xlink:title=" ">
<path fill="none" stroke="#63b8ff" d="M331.71,-70.67C281.97,-61.15 205.14,-46.3 128.84,-30.93"/>
<polygon fill="#63b8ff" stroke="#63b8ff" points="129.56,-27.51 119.07,-28.96 128.18,-34.37 129.56,-27.51"/>
</a>
</g>
</g>
<!-- Node3 -->
<g id="Node000003" class="node">
<title>Node3</title>
<g id="a_Node000003"><a xlink:title=" ">
<polygon fill="#e0e0e0" stroke="#999999" points="309.75,-24.88 135.5,-24.88 135.5,-5.63 309.75,-5.63 309.75,-24.88"/>
<text text-anchor="middle" x="222.62" y="-11.38" font-family="Helvetica,sans-Serif" font-size="10.00">mlir/Analysis/DataFlowFramework.h</text>
</a>
</g>
</g>
<!-- Node1&#45;&gt;Node3 -->
<g id="edge2_Node000001_Node000003" class="edge">
<title>Node1&#45;&gt;Node3</title>
<g id="a_edge2_Node000001_Node000003"><a xlink:title=" ">
<path fill="none" stroke="#63b8ff" d="M347.86,-66.11C320.13,-55.07 282.42,-40.06 255.64,-29.4"/>
<polygon fill="#63b8ff" stroke="#63b8ff" points="257.25,-26.27 246.66,-25.82 254.66,-32.77 257.25,-26.27"/>
</a>
</g>
</g>
<!-- Node4 -->
<g id="Node000004" class="node">
<title>Node4</title>
<g id="a_Node000004"><a xlink:title=" ">
<polygon fill="#e0e0e0" stroke="#999999" points="441,-24.88 328.25,-24.88 328.25,-5.63 441,-5.63 441,-24.88"/>
<text text-anchor="middle" x="384.62" y="-11.38" font-family="Helvetica,sans-Serif" font-size="10.00">mlir/IR/SymbolTable.h</text>
</a>
</g>
</g>
<!-- Node1&#45;&gt;Node4 -->
<g id="edge3_Node000001_Node000004" class="edge">
<title>Node1&#45;&gt;Node4</title>
<g id="a_edge3_Node000001_Node000004"><a xlink:title=" ">
<path fill="none" stroke="#63b8ff" d="M384.62,-66.11C384.62,-57.33 384.62,-46.02 384.62,-36.4"/>
<polygon fill="#63b8ff" stroke="#63b8ff" points="388.13,-36.59 384.63,-26.59 381.13,-36.59 388.13,-36.59"/>
</a>
</g>
</g>
<!-- Node5 -->
<g id="Node000005" class="node">
<title>Node5</title>
<g id="a_Node000005"><a xlink:title=" ">
<polygon fill="#e0e0e0" stroke="#999999" points="609.75,-24.88 459.5,-24.88 459.5,-5.63 609.75,-5.63 609.75,-24.88"/>
<text text-anchor="middle" x="534.62" y="-11.38" font-family="Helvetica,sans-Serif" font-size="10.00">mlir/Interfaces/CallInterfaces.h</text>
</a>
</g>
</g>
<!-- Node1&#45;&gt;Node5 -->
<g id="edge4_Node000001_Node000005" class="edge">
<title>Node1&#45;&gt;Node5</title>
<g id="a_edge4_Node000001_Node000005"><a xlink:title=" ">
<path fill="none" stroke="#63b8ff" d="M418.66,-66.11C444.11,-55.17 478.64,-40.32 503.39,-29.68"/>
<polygon fill="#63b8ff" stroke="#63b8ff" points="504.48,-33.02 512.28,-25.86 501.71,-26.59 504.48,-33.02"/>
</a>
</g>
</g>
<!-- Node6 -->
<g id="Node000006" class="node">
<title>Node6</title>
<g id="a_Node000006"><a xlink:title=" ">
<polygon fill="#e0e0e0" stroke="#999999" points="761.5,-30.5 627.75,-30.5 627.75,0 761.5,0 761.5,-30.5"/>
<text text-anchor="start" x="635.75" y="-17" font-family="Helvetica,sans-Serif" font-size="10.00">mlir/Interfaces/ControlFlow</text>
<text text-anchor="middle" x="694.62" y="-5.75" font-family="Helvetica,sans-Serif" font-size="10.00">Interfaces.h</text>
</a>
</g>
</g>
<!-- Node1&#45;&gt;Node6 -->
<g id="edge5_Node000001_Node000006" class="edge">
<title>Node1&#45;&gt;Node6</title>
<g id="a_edge5_Node000001_Node000006"><a xlink:title=" ">
<path fill="none" stroke="#63b8ff" d="M437.56,-69.74C486.69,-59.51 560.43,-44.17 616.35,-32.54"/>
<polygon fill="#63b8ff" stroke="#63b8ff" points="616.73,-36.03 625.8,-30.57 615.3,-29.18 616.73,-36.03"/>
</a>
</g>
</g>
</g>
</svg>
