<?xml version="1.0" encoding="UTF-8" standalone="no"?>
<!DOCTYPE svg PUBLIC "-//W3C//DTD SVG 1.1//EN"
 "http://www.w3.org/Graphics/SVG/1.1/DTD/svg11.dtd">
<!-- Generated by graphviz version 12.2.1 (0)
 -->
<!-- Title: lib/Dialect/Bool/IR/Enums.cpp Pages: 1 -->
<svg width="670pt" height="172pt"
 viewBox="0.00 0.00 669.50 171.50" xmlns="http://www.w3.org/2000/svg" xmlns:xlink="http://www.w3.org/1999/xlink">
<g id="graph0" class="graph" transform="scale(1 1) rotate(0) translate(4 167.5)">
<title>lib/Dialect/Bool/IR/Enums.cpp</title>
<!-- Node1 -->
<g id="Node000001" class="node">
<title>Node1</title>
<g id="a_Node000001"><a xlink:title=" ">
<polygon fill="#999999" stroke="#666666" points="508.88,-163.5 413.38,-163.5 413.38,-133 508.88,-133 508.88,-163.5"/>
<text text-anchor="start" x="421.38" y="-150" font-family="Helvetica,sans-Serif" font-size="10.00">lib/Dialect/Bool/IR</text>
<text text-anchor="middle" x="461.12" y="-138.75" font-family="Helvetica,sans-Serif" font-size="10.00">/Enums.cpp</text>
</a>
</g>
</g>
<!-- Node2 -->
<g id="Node000002" class="node">
<title>Node2</title>
<g id="a_Node000002"><a xlink:href="_enums_8h.html" target="_top" xlink:title=" ">
<polygon fill="white" stroke="#666666" points="381.5,-97 280.75,-97 280.75,-66.5 381.5,-66.5 381.5,-97"/>
<text text-anchor="start" x="288.75" y="-83.5" font-family="Helvetica,sans-Serif" font-size="10.00">llzk/Dialect/Bool/IR</text>
<text text-anchor="middle" x="331.12" y="-72.25" font-family="Helvetica,sans-Serif" font-size="10.00">/Enums.h</text>
</a>
</g>
</g>
<!-- Node1&#45;&gt;Node2 -->
<g id="edge1_Node000001_Node000002" class="edge">
<title>Node1&#45;&gt;Node2</title>
<g id="a_edge1_Node000001_Node000002"><a xlink:title=" ">
<path fill="none" stroke="#63b8ff" d="M431.63,-132.61C413.59,-123.67 390.3,-112.11 370.68,-102.37"/>
<polygon fill="#63b8ff" stroke="#63b8ff" points="372.38,-99.31 361.86,-98 369.27,-105.58 372.38,-99.31"/>
</a>
</g>
</g>
<!-- Node8 -->
<g id="Node000008" class="node">
<title>Node8</title>
<g id="a_Node000008"><a xlink:title=" ">
<polygon fill="#e0e0e0" stroke="#999999" points="523.12,-91.38 399.12,-91.38 399.12,-72.12 523.12,-72.12 523.12,-91.38"/>
<text text-anchor="middle" x="461.12" y="-77.88" font-family="Helvetica,sans-Serif" font-size="10.00">llvm/ADT/StringSwitch.h</text>
</a>
</g>
</g>
<!-- Node1&#45;&gt;Node8 -->
<g id="edge7_Node000001_Node000008" class="edge">
<title>Node1&#45;&gt;Node8</title>
<g id="a_edge7_Node000001_Node000008"><a xlink:title=" ">
<path fill="none" stroke="#63b8ff" d="M461.12,-132.61C461.12,-123.83 461.12,-112.52 461.12,-102.9"/>
<polygon fill="#63b8ff" stroke="#63b8ff" points="464.63,-103.09 461.13,-93.09 457.63,-103.09 464.63,-103.09"/>
</a>
</g>
</g>
<!-- Node9 -->
<g id="Node000009" class="node">
<title>Node9</title>
<g id="a_Node000009"><a xlink:href="_enums_8cpp_8inc.html" target="_top" xlink:title=" ">
<polygon fill="white" stroke="#666666" points="641.5,-97 540.75,-97 540.75,-66.5 641.5,-66.5 641.5,-97"/>
<text text-anchor="start" x="548.75" y="-83.5" font-family="Helvetica,sans-Serif" font-size="10.00">llzk/Dialect/Bool/IR</text>
<text text-anchor="middle" x="591.12" y="-72.25" font-family="Helvetica,sans-Serif" font-size="10.00">/Enums.cpp.inc</text>
</a>
</g>
</g>
<!-- Node1&#45;&gt;Node9 -->
<g id="edge8_Node000001_Node000009" class="edge">
<title>Node1&#45;&gt;Node9</title>
<g id="a_edge8_Node000001_Node000009"><a xlink:title=" ">
<path fill="none" stroke="#63b8ff" d="M490.62,-132.61C508.66,-123.67 531.95,-112.11 551.57,-102.37"/>
<polygon fill="#63b8ff" stroke="#63b8ff" points="552.98,-105.58 560.39,-98 549.87,-99.31 552.98,-105.58"/>
</a>
</g>
</g>
<!-- Node3 -->
<g id="Node000003" class="node">
<title>Node3</title>
<g id="a_Node000003"><a xlink:title=" ">
<polygon fill="#e0e0e0" stroke="#999999" points="108.25,-24.88 0,-24.88 0,-5.63 108.25,-5.63 108.25,-24.88"/>
<text text-anchor="middle" x="54.12" y="-11.38" font-family="Helvetica,sans-Serif" font-size="10.00">mlir/IR/Diagnostics.h</text>
</a>
</g>
</g>
<!-- Node2&#45;&gt;Node3 -->
<g id="edge2_Node000002_Node000003" class="edge">
<title>Node2&#45;&gt;Node3</title>
<g id="a_edge2_Node000002_Node000003"><a xlink:title=" ">
<path fill="none" stroke="#63b8ff" d="M280.32,-68.92C230.18,-57.25 154,-39.51 104.14,-27.9"/>
<polygon fill="#63b8ff" stroke="#63b8ff" points="105,-24.5 94.47,-25.64 103.42,-31.32 105,-24.5"/>
</a>
</g>
</g>
<!-- Node4 -->
<g id="Node000004" class="node">
<title>Node4</title>
<g id="a_Node000004"><a xlink:title=" ">
<polygon fill="#e0e0e0" stroke="#999999" points="258.25,-24.88 126,-24.88 126,-5.63 258.25,-5.63 258.25,-24.88"/>
<text text-anchor="middle" x="192.12" y="-11.38" font-family="Helvetica,sans-Serif" font-size="10.00">llvm/ADT/DenseMapInfo.h</text>
</a>
</g>
</g>
<!-- Node2&#45;&gt;Node4 -->
<g id="edge3_Node000002_Node000004" class="edge">
<title>Node2&#45;&gt;Node4</title>
<g id="a_edge3_Node000002_Node000004"><a xlink:title=" ">
<path fill="none" stroke="#63b8ff" d="M299.58,-66.11C276.21,-55.27 244.58,-40.59 221.69,-29.97"/>
<polygon fill="#63b8ff" stroke="#63b8ff" points="223.46,-26.93 212.91,-25.9 220.51,-33.28 223.46,-26.93"/>
</a>
</g>
</g>
<!-- Node5 -->
<g id="Node000005" class="node">
<title>Node5</title>
<g id="a_Node000005"><a xlink:title=" ">
<polygon fill="#e0e0e0" stroke="#999999" points="386,-24.88 276.25,-24.88 276.25,-5.63 386,-5.63 386,-24.88"/>
<text text-anchor="middle" x="331.12" y="-11.38" font-family="Helvetica,sans-Serif" font-size="10.00">llvm/ADT/StringRef.h</text>
</a>
</g>
</g>
<!-- Node2&#45;&gt;Node5 -->
<g id="edge4_Node000002_Node000005" class="edge">
<title>Node2&#45;&gt;Node5</title>
<g id="a_edge4_Node000002_Node000005"><a xlink:title=" ">
<path fill="none" stroke="#63b8ff" d="M331.12,-66.11C331.12,-57.33 331.12,-46.02 331.12,-36.4"/>
<polygon fill="#63b8ff" stroke="#63b8ff" points="334.63,-36.59 331.13,-26.59 327.63,-36.59 334.63,-36.59"/>
</a>
</g>
</g>
<!-- Node6 -->
<g id="Node000006" class="node">
<title>Node6</title>
<g id="a_Node000006"><a xlink:title=" ">
<polygon fill="#e0e0e0" stroke="#999999" points="542.25,-24.88 404,-24.88 404,-5.63 542.25,-5.63 542.25,-24.88"/>
<text text-anchor="middle" x="473.12" y="-11.38" font-family="Helvetica,sans-Serif" font-size="10.00">llvm/Support/raw_ostream.h</text>
</a>
</g>
</g>
<!-- Node2&#45;&gt;Node6 -->
<g id="edge5_Node000002_Node000006" class="edge">
<title>Node2&#45;&gt;Node6</title>
<g id="a_edge5_Node000002_Node000006"><a xlink:title=" ">
<path fill="none" stroke="#63b8ff" d="M363.35,-66.11C387.22,-55.27 419.54,-40.59 442.92,-29.97"/>
<polygon fill="#63b8ff" stroke="#63b8ff" points="444.25,-33.21 451.91,-25.89 441.36,-26.83 444.25,-33.21"/>
</a>
</g>
</g>
<!-- Node7 -->
<g id="Node000007" class="node">
<title>Node7</title>
<g id="a_Node000007"><a xlink:href="_enums_8h_8inc.html" target="_top" xlink:title=" ">
<polygon fill="white" stroke="#666666" points="661.5,-30.5 560.75,-30.5 560.75,0 661.5,0 661.5,-30.5"/>
<text text-anchor="start" x="568.75" y="-17" font-family="Helvetica,sans-Serif" font-size="10.00">llzk/Dialect/Bool/IR</text>
<text text-anchor="middle" x="611.12" y="-5.75" font-family="Helvetica,sans-Serif" font-size="10.00">/Enums.h.inc</text>
</a>
</g>
</g>
<!-- Node2&#45;&gt;Node7 -->
<g id="edge6_Node000002_Node000007" class="edge">
<title>Node2&#45;&gt;Node7</title>
<g id="a_edge6_Node000002_Node000007"><a xlink:title=" ">
<path fill="none" stroke="#63b8ff" d="M381.96,-68.41C384.72,-67.76 387.46,-67.12 390.12,-66.5 458.19,-50.67 477.86,-47.28 549.45,-30.87"/>
<polygon fill="#63b8ff" stroke="#63b8ff" points="549.96,-34.34 558.92,-28.69 548.39,-27.52 549.96,-34.34"/>
</a>
</g>
</g>
</g>
</svg>
