<?xml version="1.0" encoding="UTF-8" standalone="no"?>
<!DOCTYPE svg PUBLIC "-//W3C//DTD SVG 1.1//EN"
 "http://www.w3.org/Graphics/SVG/1.1/DTD/svg11.dtd">
<!-- Generated by graphviz version 12.2.1 (0)
 -->
<!-- Title: build/include/llzk/Dialect/Felt/IR/Types.h.inc Pages: 1 -->
<svg width="1613pt" height="504pt"
 viewBox="0.00 0.00 1613.00 504.00" xmlns="http://www.w3.org/2000/svg" xmlns:xlink="http://www.w3.org/1999/xlink">
<g id="graph0" class="graph" transform="scale(1 1) rotate(0) translate(4 500)">
<title>build/include/llzk/Dialect/Felt/IR/Types.h.inc</title>
<!-- Node1 -->
<g id="Node000001" class="node">
<title>Node1</title>
<g id="a_Node000001"><a xlink:title=" ">
<polygon fill="#999999" stroke="#666666" points="912.88,-496 776.88,-496 776.88,-465.5 912.88,-465.5 912.88,-496"/>
<text text-anchor="start" x="784.88" y="-482.5" font-family="Helvetica,sans-Serif" font-size="10.00">build/include/llzk</text>
<text text-anchor="middle" x="844.88" y="-471.25" font-family="Helvetica,sans-Serif" font-size="10.00">/Dialect/Felt/IR/Types.h.inc</text>
</a>
</g>
</g>
<!-- Node2 -->
<g id="Node000002" class="node">
<title>Node2</title>
<g id="a_Node000002"><a xlink:href="_felt_2_i_r_2_types_8h.html" target="_top" xlink:title=" ">
<polygon fill="white" stroke="#666666" points="894.13,-429.5 795.63,-429.5 795.63,-399 894.13,-399 894.13,-429.5"/>
<text text-anchor="start" x="803.63" y="-416" font-family="Helvetica,sans-Serif" font-size="10.00">include/llzk/Dialect</text>
<text text-anchor="middle" x="844.88" y="-404.75" font-family="Helvetica,sans-Serif" font-size="10.00">/Felt/IR/Types.h</text>
</a>
</g>
</g>
<!-- Node1&#45;&gt;Node2 -->
<g id="edge1_Node000001_Node000002" class="edge">
<title>Node1&#45;&gt;Node2</title>
<g id="a_edge1_Node000001_Node000002"><a xlink:title=" ">
<path fill="none" stroke="#63b8ff" d="M844.88,-453.81C844.88,-445.64 844.88,-436.91 844.88,-429.83"/>
<polygon fill="#63b8ff" stroke="#63b8ff" points="841.38,-453.6 844.88,-463.6 848.38,-453.6 841.38,-453.6"/>
</a>
</g>
</g>
<!-- Node3 -->
<g id="Node000003" class="node">
<title>Node3</title>
<g id="a_Node000003"><a xlink:href="_bool_2_i_r_2_ops_8h.html" target="_top" xlink:title=" ">
<polygon fill="white" stroke="#666666" points="321.13,-363 222.63,-363 222.63,-332.5 321.13,-332.5 321.13,-363"/>
<text text-anchor="start" x="230.63" y="-349.5" font-family="Helvetica,sans-Serif" font-size="10.00">include/llzk/Dialect</text>
<text text-anchor="middle" x="271.88" y="-338.25" font-family="Helvetica,sans-Serif" font-size="10.00">/Bool/IR/Ops.h</text>
</a>
</g>
</g>
<!-- Node2&#45;&gt;Node3 -->
<g id="edge2_Node000002_Node000003" class="edge">
<title>Node2&#45;&gt;Node3</title>
<g id="a_edge2_Node000002_Node000003"><a xlink:title=" ">
<path fill="none" stroke="#63b8ff" d="M784.25,-406.43C670.28,-393.6 426.1,-366.11 321.31,-354.31"/>
<polygon fill="#63b8ff" stroke="#63b8ff" points="783.69,-409.88 794.02,-407.53 784.48,-402.93 783.69,-409.88"/>
</a>
</g>
</g>
<!-- Node7 -->
<g id="Node000007" class="node">
<title>Node7</title>
<g id="a_Node000007"><a xlink:href="_bool_2_i_r_2_dialect_8cpp.html" target="_top" xlink:title=" ">
<polygon fill="white" stroke="#666666" points="447.63,-296.5 352.13,-296.5 352.13,-266 447.63,-266 447.63,-296.5"/>
<text text-anchor="start" x="360.13" y="-283" font-family="Helvetica,sans-Serif" font-size="10.00">lib/Dialect/Bool/IR</text>
<text text-anchor="middle" x="399.88" y="-271.75" font-family="Helvetica,sans-Serif" font-size="10.00">/Dialect.cpp</text>
</a>
</g>
</g>
<!-- Node2&#45;&gt;Node7 -->
<g id="edge34_Node000002_Node000007" class="edge">
<title>Node2&#45;&gt;Node7</title>
<g id="a_edge34_Node000002_Node000007"><a xlink:title=" ">
<path fill="none" stroke="#63b8ff" d="M783.92,-407.91C724.92,-401.51 633.54,-388.32 557.88,-363 507.34,-346.09 452.95,-315.16 422.99,-296.88"/>
<polygon fill="#63b8ff" stroke="#63b8ff" points="783.46,-411.38 793.77,-408.95 784.19,-404.42 783.46,-411.38"/>
</a>
</g>
</g>
<!-- Node10 -->
<g id="Node000010" class="node">
<title>Node10</title>
<g id="a_Node000010"><a xlink:href="_cast_2_i_r_2_ops_8h.html" target="_top" xlink:title=" ">
<polygon fill="white" stroke="#666666" points="665.13,-363 566.63,-363 566.63,-332.5 665.13,-332.5 665.13,-363"/>
<text text-anchor="start" x="574.63" y="-349.5" font-family="Helvetica,sans-Serif" font-size="10.00">include/llzk/Dialect</text>
<text text-anchor="middle" x="615.88" y="-338.25" font-family="Helvetica,sans-Serif" font-size="10.00">/Cast/IR/Ops.h</text>
</a>
</g>
</g>
<!-- Node2&#45;&gt;Node10 -->
<g id="edge11_Node000002_Node000010" class="edge">
<title>Node2&#45;&gt;Node10</title>
<g id="a_edge11_Node000002_Node000010"><a xlink:title=" ">
<path fill="none" stroke="#63b8ff" d="M784.5,-396.25C747.38,-385.79 700.41,-372.56 665.47,-362.72"/>
<polygon fill="#63b8ff" stroke="#63b8ff" points="783.15,-399.5 793.73,-398.84 785.05,-392.76 783.15,-399.5"/>
</a>
</g>
</g>
<!-- Node13 -->
<g id="Node000013" class="node">
<title>Node13</title>
<g id="a_Node000013"><a xlink:href="_felt_2_i_r_2_ops_8h.html" target="_top" xlink:title=" ">
<polygon fill="white" stroke="#666666" points="984.13,-363 885.63,-363 885.63,-332.5 984.13,-332.5 984.13,-363"/>
<text text-anchor="start" x="893.63" y="-349.5" font-family="Helvetica,sans-Serif" font-size="10.00">include/llzk/Dialect</text>
<text text-anchor="middle" x="934.88" y="-338.25" font-family="Helvetica,sans-Serif" font-size="10.00">/Felt/IR/Ops.h</text>
</a>
</g>
</g>
<!-- Node2&#45;&gt;Node13 -->
<g id="edge15_Node000002_Node000013" class="edge">
<title>Node2&#45;&gt;Node13</title>
<g id="a_edge15_Node000002_Node000013"><a xlink:title=" ">
<path fill="none" stroke="#63b8ff" d="M874.43,-392.07C887.57,-382.66 902.7,-371.81 914.53,-363.33"/>
<polygon fill="#63b8ff" stroke="#63b8ff" points="872.62,-389.06 866.53,-397.73 876.7,-394.75 872.62,-389.06"/>
</a>
</g>
</g>
<!-- Node21 -->
<g id="Node000021" class="node">
<title>Node21</title>
<g id="a_Node000021"><a xlink:href="_felt_2_i_r_2_dialect_8cpp.html" target="_top" xlink:title=" ">
<polygon fill="white" stroke="#666666" points="827.13,-296.5 734.63,-296.5 734.63,-266 827.13,-266 827.13,-296.5"/>
<text text-anchor="start" x="742.63" y="-283" font-family="Helvetica,sans-Serif" font-size="10.00">lib/Dialect/Felt/IR</text>
<text text-anchor="middle" x="780.88" y="-271.75" font-family="Helvetica,sans-Serif" font-size="10.00">/Dialect.cpp</text>
</a>
</g>
</g>
<!-- Node2&#45;&gt;Node21 -->
<g id="edge36_Node000002_Node000021" class="edge">
<title>Node2&#45;&gt;Node21</title>
<g id="a_edge36_Node000002_Node000021"><a xlink:title=" ">
<path fill="none" stroke="#63b8ff" d="M832.79,-388.52C819.58,-361.46 798.83,-319.01 788,-296.83"/>
<polygon fill="#63b8ff" stroke="#63b8ff" points="829.58,-389.92 837.12,-397.37 835.87,-386.85 829.58,-389.92"/>
</a>
</g>
</g>
<!-- Node26 -->
<g id="Node000026" class="node">
<title>Node26</title>
<g id="a_Node000026"><a xlink:href="_attrs_8cpp.html" target="_top" xlink:title=" ">
<polygon fill="white" stroke="#666666" points="1095.13,-363 1002.63,-363 1002.63,-332.5 1095.13,-332.5 1095.13,-363"/>
<text text-anchor="start" x="1010.63" y="-349.5" font-family="Helvetica,sans-Serif" font-size="10.00">lib/Dialect/Felt/IR</text>
<text text-anchor="middle" x="1048.88" y="-338.25" font-family="Helvetica,sans-Serif" font-size="10.00">/Attrs.cpp</text>
</a>
</g>
</g>
<!-- Node2&#45;&gt;Node26 -->
<g id="edge35_Node000002_Node000026" class="edge">
<title>Node2&#45;&gt;Node26</title>
<g id="a_edge35_Node000002_Node000026"><a xlink:title=" ">
<path fill="none" stroke="#63b8ff" d="M902.3,-395.09C933.98,-385.08 972.8,-372.8 1002.53,-363.4"/>
<polygon fill="#63b8ff" stroke="#63b8ff" points="901.34,-391.73 892.86,-398.08 903.45,-398.4 901.34,-391.73"/>
</a>
</g>
</g>
<!-- Node27 -->
<g id="Node000027" class="node">
<title>Node27</title>
<g id="a_Node000027"><a xlink:href="_l_l_z_k_2_i_r_2_dialect_8cpp.html" target="_top" xlink:title=" ">
<polygon fill="white" stroke="#666666" points="1212.5,-363 1113.25,-363 1113.25,-332.5 1212.5,-332.5 1212.5,-363"/>
<text text-anchor="start" x="1121.25" y="-349.5" font-family="Helvetica,sans-Serif" font-size="10.00">lib/Dialect/LLZK/IR</text>
<text text-anchor="middle" x="1162.88" y="-338.25" font-family="Helvetica,sans-Serif" font-size="10.00">/Dialect.cpp</text>
</a>
</g>
</g>
<!-- Node2&#45;&gt;Node27 -->
<g id="edge37_Node000002_Node000027" class="edge">
<title>Node2&#45;&gt;Node27</title>
<g id="a_edge37_Node000002_Node000027"><a xlink:title=" ">
<path fill="none" stroke="#63b8ff" d="M905.33,-402.32C957.92,-392.63 1036.12,-377.75 1103.88,-363 1106.86,-362.35 1109.93,-361.66 1113.02,-360.96"/>
<polygon fill="#63b8ff" stroke="#63b8ff" points="904.87,-398.85 895.67,-404.1 906.14,-405.73 904.87,-398.85"/>
</a>
</g>
</g>
<!-- Node28 -->
<g id="Node000028" class="node">
<title>Node28</title>
<g id="a_Node000028"><a xlink:href="_type_helper_8cpp.html" target="_top" xlink:title=" ">
<polygon fill="white" stroke="#666666" points="1345,-357.38 1230.75,-357.38 1230.75,-338.12 1345,-338.12 1345,-357.38"/>
<text text-anchor="middle" x="1287.88" y="-343.88" font-family="Helvetica,sans-Serif" font-size="10.00">lib/Util/TypeHelper.cpp</text>
</a>
</g>
</g>
<!-- Node2&#45;&gt;Node28 -->
<g id="edge38_Node000002_Node000028" class="edge">
<title>Node2&#45;&gt;Node28</title>
<g id="a_edge38_Node000002_Node000028"><a xlink:title=" ">
<path fill="none" stroke="#63b8ff" d="M905.52,-406.68C980.2,-398.25 1110.81,-382.36 1221.88,-363 1230.42,-361.51 1239.54,-359.69 1248.19,-357.86"/>
<polygon fill="#63b8ff" stroke="#63b8ff" points="905.52,-403.16 895.98,-407.75 906.3,-410.12 905.52,-403.16"/>
</a>
</g>
</g>
<!-- Node3&#45;&gt;Node3 -->
<g id="edge6_Node000003_Node000003" class="edge">
<title>Node3&#45;&gt;Node3</title>
<g id="a_edge6_Node000003_Node000003"><a xlink:title=" ">
<path fill="none" stroke="#63b8ff" d="M332.24,-356.88C336.52,-354.8 339.13,-351.76 339.13,-347.75 339.13,-341 331.73,-336.99 321.44,-335.72"/>
<polygon fill="#63b8ff" stroke="#63b8ff" points="331.65,-353.41 322.9,-359.39 333.46,-360.17 331.65,-353.41"/>
</a>
</g>
</g>
<!-- Node4 -->
<g id="Node000004" class="node">
<title>Node4</title>
<g id="a_Node000004"><a xlink:href="_interval_analysis_8h.html" target="_top" xlink:title=" ">
<polygon fill="white" stroke="#666666" points="528.5,-97 423.25,-97 423.25,-66.5 528.5,-66.5 528.5,-97"/>
<text text-anchor="start" x="431.25" y="-83.5" font-family="Helvetica,sans-Serif" font-size="10.00">include/llzk/Analysis</text>
<text text-anchor="middle" x="475.88" y="-72.25" font-family="Helvetica,sans-Serif" font-size="10.00">/IntervalAnalysis.h</text>
</a>
</g>
</g>
<!-- Node3&#45;&gt;Node4 -->
<g id="edge3_Node000003_Node000004" class="edge">
<title>Node3&#45;&gt;Node4</title>
<g id="a_edge3_Node000003_Node000004"><a xlink:title=" ">
<path fill="none" stroke="#63b8ff" d="M290.14,-323.11C331.46,-269.64 431.12,-140.67 464.65,-97.27"/>
<polygon fill="#63b8ff" stroke="#63b8ff" points="287.4,-320.93 284.06,-330.98 292.94,-325.21 287.4,-320.93"/>
</a>
</g>
</g>
<!-- Node6 -->
<g id="Node000006" class="node">
<title>Node6</title>
<g id="a_Node000006"><a xlink:href="_interval_analysis_pass_8cpp.html" target="_top" xlink:title="This file implements the &#45;llzk&#45;print&#45;interval&#45;analysis pass.">
<polygon fill="white" stroke="#666666" points="225.38,-30.5 86.38,-30.5 86.38,0 225.38,0 225.38,-30.5"/>
<text text-anchor="start" x="94.38" y="-17" font-family="Helvetica,sans-Serif" font-size="10.00">lib/Analysis/IntervalAnalysis</text>
<text text-anchor="middle" x="155.88" y="-5.75" font-family="Helvetica,sans-Serif" font-size="10.00">Pass.cpp</text>
</a>
</g>
</g>
<!-- Node3&#45;&gt;Node6 -->
<g id="edge7_Node000003_Node000006" class="edge">
<title>Node3&#45;&gt;Node6</title>
<g id="a_edge7_Node000003_Node000006"><a xlink:title=" ">
<path fill="none" stroke="#63b8ff" d="M210.77,-342.02C145.37,-335.7 47.43,-322.18 20.88,-296.5 -5.63,-270.87 1.88,-252.62 1.88,-215.75 1.88,-215.75 1.88,-215.75 1.88,-147.25 1.88,-88.11 68.59,-50.07 114.2,-30.97"/>
<polygon fill="#63b8ff" stroke="#63b8ff" points="210.38,-345.5 220.67,-342.94 211.03,-338.53 210.38,-345.5"/>
</a>
</g>
</g>
<!-- Node3&#45;&gt;Node7 -->
<g id="edge8_Node000003_Node000007" class="edge">
<title>Node3&#45;&gt;Node7</title>
<g id="a_edge8_Node000003_Node000007"><a xlink:title=" ">
<path fill="none" stroke="#63b8ff" d="M310.95,-327.06C330.28,-317.32 353.21,-305.76 370.95,-296.83"/>
<polygon fill="#63b8ff" stroke="#63b8ff" points="309.63,-323.81 302.27,-331.43 312.78,-330.06 309.63,-323.81"/>
</a>
</g>
</g>
<!-- Node8 -->
<g id="Node000008" class="node">
<title>Node8</title>
<g id="a_Node000008"><a xlink:href="_bool_2_i_r_2_ops_8cpp.html" target="_top" xlink:title=" ">
<polygon fill="white" stroke="#666666" points="125.63,-296.5 30.13,-296.5 30.13,-266 125.63,-266 125.63,-296.5"/>
<text text-anchor="start" x="38.13" y="-283" font-family="Helvetica,sans-Serif" font-size="10.00">lib/Dialect/Bool/IR</text>
<text text-anchor="middle" x="77.88" y="-271.75" font-family="Helvetica,sans-Serif" font-size="10.00">/Ops.cpp</text>
</a>
</g>
</g>
<!-- Node3&#45;&gt;Node8 -->
<g id="edge9_Node000003_Node000008" class="edge">
<title>Node3&#45;&gt;Node8</title>
<g id="a_edge9_Node000003_Node000008"><a xlink:title=" ">
<path fill="none" stroke="#63b8ff" d="M217.11,-328.54C187.05,-318.55 150.27,-306.32 122.06,-296.94"/>
<polygon fill="#63b8ff" stroke="#63b8ff" points="215.82,-331.8 226.42,-331.64 218.03,-325.16 215.82,-331.8"/>
</a>
</g>
</g>
<!-- Node9 -->
<g id="Node000009" class="node">
<title>Node9</title>
<g id="a_Node000009"><a xlink:href="_l_l_z_k_redundant_operation_elimination_pass_8cpp.html" target="_top" xlink:title="This file implements the &#45;llzk&#45;duplicate&#45;op&#45;elim pass.">
<polygon fill="white" stroke="#666666" points="295.75,-296.5 144,-296.5 144,-266 295.75,-266 295.75,-296.5"/>
<text text-anchor="start" x="152" y="-283" font-family="Helvetica,sans-Serif" font-size="10.00">lib/Transforms/LLZKRedundant</text>
<text text-anchor="middle" x="219.88" y="-271.75" font-family="Helvetica,sans-Serif" font-size="10.00">OperationEliminationPass.cpp</text>
</a>
</g>
</g>
<!-- Node3&#45;&gt;Node9 -->
<g id="edge10_Node000003_Node000009" class="edge">
<title>Node3&#45;&gt;Node9</title>
<g id="a_edge10_Node000003_Node000009"><a xlink:title=" ">
<path fill="none" stroke="#63b8ff" d="M253.01,-323.35C245.86,-314.48 237.94,-304.65 231.63,-296.83"/>
<polygon fill="#63b8ff" stroke="#63b8ff" points="250.13,-325.35 259.13,-330.94 255.57,-320.95 250.13,-325.35"/>
</a>
</g>
</g>
<!-- Node5 -->
<g id="Node000005" class="node">
<title>Node5</title>
<g id="a_Node000005"><a xlink:href="_interval_analysis_8cpp.html" target="_top" xlink:title=" ">
<polygon fill="white" stroke="#666666" points="554.75,-24.88 397,-24.88 397,-5.63 554.75,-5.63 554.75,-24.88"/>
<text text-anchor="middle" x="475.88" y="-11.38" font-family="Helvetica,sans-Serif" font-size="10.00">lib/Analysis/IntervalAnalysis.cpp</text>
</a>
</g>
</g>
<!-- Node4&#45;&gt;Node5 -->
<g id="edge4_Node000004_Node000005" class="edge">
<title>Node4&#45;&gt;Node5</title>
<g id="a_edge4_Node000004_Node000005"><a xlink:title=" ">
<path fill="none" stroke="#63b8ff" d="M475.88,-54.84C475.88,-44.26 475.88,-32.75 475.88,-25.07"/>
<polygon fill="#63b8ff" stroke="#63b8ff" points="472.38,-54.6 475.88,-64.6 479.38,-54.6 472.38,-54.6"/>
</a>
</g>
</g>
<!-- Node4&#45;&gt;Node6 -->
<g id="edge5_Node000004_Node000006" class="edge">
<title>Node4&#45;&gt;Node6</title>
<g id="a_edge5_Node000004_Node000006"><a xlink:title=" ">
<path fill="none" stroke="#63b8ff" d="M411.9,-67.86C358.01,-56.99 281.06,-41.48 225.61,-30.31"/>
<polygon fill="#63b8ff" stroke="#63b8ff" points="411.06,-71.26 421.55,-69.8 412.44,-64.39 411.06,-71.26"/>
</a>
</g>
</g>
<!-- Node10&#45;&gt;Node4 -->
<g id="edge12_Node000010_Node000004" class="edge">
<title>Node10&#45;&gt;Node4</title>
<g id="a_edge12_Node000010_Node000004"><a xlink:title=" ">
<path fill="none" stroke="#63b8ff" d="M555.51,-335.2C533.31,-327.85 510.13,-315.89 495.88,-296.5 450.63,-234.93 465.02,-134.9 472.55,-97.49"/>
<polygon fill="#63b8ff" stroke="#63b8ff" points="554.26,-338.48 564.84,-338.01 556.28,-331.77 554.26,-338.48"/>
</a>
</g>
</g>
<!-- Node11 -->
<g id="Node000011" class="node">
<title>Node11</title>
<g id="a_Node000011"><a xlink:href="_cast_2_i_r_2_dialect_8cpp.html" target="_top" xlink:title=" ">
<polygon fill="white" stroke="#666666" points="716.38,-296.5 619.38,-296.5 619.38,-266 716.38,-266 716.38,-296.5"/>
<text text-anchor="start" x="627.38" y="-283" font-family="Helvetica,sans-Serif" font-size="10.00">lib/Dialect/Cast/IR</text>
<text text-anchor="middle" x="667.88" y="-271.75" font-family="Helvetica,sans-Serif" font-size="10.00">/Dialect.cpp</text>
</a>
</g>
</g>
<!-- Node10&#45;&gt;Node11 -->
<g id="edge13_Node000010_Node000011" class="edge">
<title>Node10&#45;&gt;Node11</title>
<g id="a_edge13_Node000010_Node000011"><a xlink:title=" ">
<path fill="none" stroke="#63b8ff" d="M634.74,-323.35C641.89,-314.48 649.81,-304.65 656.12,-296.83"/>
<polygon fill="#63b8ff" stroke="#63b8ff" points="632.18,-320.95 628.63,-330.94 637.63,-325.35 632.18,-320.95"/>
</a>
</g>
</g>
<!-- Node12 -->
<g id="Node000012" class="node">
<title>Node12</title>
<g id="a_Node000012"><a xlink:href="_cast_2_i_r_2_ops_8cpp.html" target="_top" xlink:title=" ">
<polygon fill="white" stroke="#666666" points="601.38,-296.5 504.38,-296.5 504.38,-266 601.38,-266 601.38,-296.5"/>
<text text-anchor="start" x="512.38" y="-283" font-family="Helvetica,sans-Serif" font-size="10.00">lib/Dialect/Cast/IR</text>
<text text-anchor="middle" x="552.88" y="-271.75" font-family="Helvetica,sans-Serif" font-size="10.00">/Ops.cpp</text>
</a>
</g>
</g>
<!-- Node10&#45;&gt;Node12 -->
<g id="edge14_Node000010_Node000012" class="edge">
<title>Node10&#45;&gt;Node12</title>
<g id="a_edge14_Node000010_Node000012"><a xlink:title=" ">
<path fill="none" stroke="#63b8ff" d="M593.57,-323.91C584.77,-314.9 574.92,-304.82 567.11,-296.83"/>
<polygon fill="#63b8ff" stroke="#63b8ff" points="591.03,-326.32 600.52,-331.03 596.04,-321.43 591.03,-326.32"/>
</a>
</g>
</g>
<!-- Node13&#45;&gt;Node4 -->
<g id="edge27_Node000013_Node000004" class="edge">
<title>Node13&#45;&gt;Node4</title>
<g id="a_edge27_Node000013_Node000004"><a xlink:title=" ">
<path fill="none" stroke="#63b8ff" d="M908.67,-325.15C880.67,-302.09 839.75,-268.53 835.88,-266 722.92,-192.39 576.59,-125.99 510.72,-97.49"/>
<polygon fill="#63b8ff" stroke="#63b8ff" points="906.13,-327.59 916.08,-331.25 910.58,-322.19 906.13,-327.59"/>
</a>
</g>
</g>
<!-- Node14 -->
<g id="Node000014" class="node">
<title>Node14</title>
<g id="a_Node000014"><a xlink:href="_constrain_ref_8h.html" target="_top" xlink:title=" ">
<polygon fill="white" stroke="#666666" points="1348.5,-296.5 1243.25,-296.5 1243.25,-266 1348.5,-266 1348.5,-296.5"/>
<text text-anchor="start" x="1251.25" y="-283" font-family="Helvetica,sans-Serif" font-size="10.00">include/llzk/Analysis</text>
<text text-anchor="middle" x="1295.88" y="-271.75" font-family="Helvetica,sans-Serif" font-size="10.00">/ConstrainRef.h</text>
</a>
</g>
</g>
<!-- Node13&#45;&gt;Node14 -->
<g id="edge16_Node000013_Node000014" class="edge">
<title>Node13&#45;&gt;Node14</title>
<g id="a_edge16_Node000013_Node000014"><a xlink:title=" ">
<path fill="none" stroke="#63b8ff" d="M995.59,-332.29C1101.69,-312.11 1131.42,-315.93 1233.88,-296.5 1236.81,-295.94 1239.81,-295.35 1242.83,-294.72"/>
<polygon fill="#63b8ff" stroke="#63b8ff" points="995.02,-328.84 985.87,-334.17 996.35,-335.71 995.02,-328.84"/>
</a>
</g>
</g>
<!-- Node17 -->
<g id="Node000017" class="node">
<title>Node17</title>
<g id="a_Node000017"><a xlink:href="_constrain_ref_lattice_8cpp.html" target="_top" xlink:title=" ">
<polygon fill="white" stroke="#666666" points="1508.38,-97 1381.38,-97 1381.38,-66.5 1508.38,-66.5 1508.38,-97"/>
<text text-anchor="start" x="1389.38" y="-83.5" font-family="Helvetica,sans-Serif" font-size="10.00">lib/Analysis/ConstrainRef</text>
<text text-anchor="middle" x="1444.88" y="-72.25" font-family="Helvetica,sans-Serif" font-size="10.00">Lattice.cpp</text>
</a>
</g>
</g>
<!-- Node13&#45;&gt;Node17 -->
<g id="edge28_Node000013_Node000017" class="edge">
<title>Node13&#45;&gt;Node17</title>
<g id="a_edge28_Node000013_Node000017"><a xlink:title=" ">
<path fill="none" stroke="#63b8ff" d="M995.61,-332.88C1082.9,-325.23 1433.72,-333.35 1467.88,-296.5 1520.27,-239.98 1473.17,-135.56 1453,-97.29"/>
<polygon fill="#63b8ff" stroke="#63b8ff" points="995.37,-329.39 985.84,-334.02 996.17,-336.34 995.37,-329.39"/>
</a>
</g>
</g>
<!-- Node13&#45;&gt;Node21 -->
<g id="edge29_Node000013_Node000021" class="edge">
<title>Node13&#45;&gt;Node21</title>
<g id="a_edge29_Node000013_Node000021"><a xlink:title=" ">
<path fill="none" stroke="#63b8ff" d="M889.51,-327.75C866.01,-317.91 837.75,-306.07 815.95,-296.94"/>
<polygon fill="#63b8ff" stroke="#63b8ff" points="887.96,-330.89 898.53,-331.53 890.66,-324.44 887.96,-330.89"/>
</a>
</g>
</g>
<!-- Node22 -->
<g id="Node000022" class="node">
<title>Node22</title>
<g id="a_Node000022"><a xlink:href="_felt_2_i_r_2_ops_8cpp.html" target="_top" xlink:title=" ">
<polygon fill="white" stroke="#666666" points="1459.13,-296.5 1366.63,-296.5 1366.63,-266 1459.13,-266 1459.13,-296.5"/>
<text text-anchor="start" x="1374.63" y="-283" font-family="Helvetica,sans-Serif" font-size="10.00">lib/Dialect/Felt/IR</text>
<text text-anchor="middle" x="1412.88" y="-271.75" font-family="Helvetica,sans-Serif" font-size="10.00">/Ops.cpp</text>
</a>
</g>
</g>
<!-- Node13&#45;&gt;Node22 -->
<g id="edge30_Node000013_Node000022" class="edge">
<title>Node13&#45;&gt;Node22</title>
<g id="a_edge30_Node000013_Node000022"><a xlink:title=" ">
<path fill="none" stroke="#63b8ff" d="M995.6,-332.4C1156.18,-306.21 1201.42,-324.33 1357.88,-296.5 1360.6,-296.02 1363.38,-295.47 1366.18,-294.87"/>
<polygon fill="#63b8ff" stroke="#63b8ff" points="995.13,-328.93 985.84,-334.03 996.28,-335.83 995.13,-328.93"/>
</a>
</g>
</g>
<!-- Node23 -->
<g id="Node000023" class="node">
<title>Node23</title>
<g id="a_Node000023"><a xlink:href="_global_2_i_r_2_ops_8cpp.html" target="_top" xlink:title=" ">
<polygon fill="white" stroke="#666666" points="1605,-296.5 1514.75,-296.5 1514.75,-266 1605,-266 1605,-296.5"/>
<text text-anchor="start" x="1522.75" y="-283" font-family="Helvetica,sans-Serif" font-size="10.00">lib/Dialect/Global</text>
<text text-anchor="middle" x="1559.88" y="-271.75" font-family="Helvetica,sans-Serif" font-size="10.00">/IR/Ops.cpp</text>
</a>
</g>
</g>
<!-- Node13&#45;&gt;Node23 -->
<g id="edge31_Node000013_Node000023" class="edge">
<title>Node13&#45;&gt;Node23</title>
<g id="a_edge31_Node000013_Node000023"><a xlink:title=" ">
<path fill="none" stroke="#63b8ff" d="M995.45,-332.47C1219.1,-298.92 1281.24,-330.58 1500.88,-296.5 1505.25,-295.82 1509.78,-294.98 1514.29,-294.05"/>
<polygon fill="#63b8ff" stroke="#63b8ff" points="995.18,-328.97 985.83,-333.95 996.24,-335.89 995.18,-328.97"/>
</a>
</g>
</g>
<!-- Node24 -->
<g id="Node000024" class="node">
<title>Node24</title>
<g id="a_Node000024"><a xlink:href="_flattening_pass_8cpp.html" target="_top" xlink:title="This file implements the &#45;llzk&#45;flatten pass.">
<polygon fill="white" stroke="#666666" points="1038.63,-296.5 883.13,-296.5 883.13,-266 1038.63,-266 1038.63,-296.5"/>
<text text-anchor="start" x="891.13" y="-283" font-family="Helvetica,sans-Serif" font-size="10.00">lib/Dialect/Polymorphic</text>
<text text-anchor="middle" x="960.88" y="-271.75" font-family="Helvetica,sans-Serif" font-size="10.00">/Transforms/FlatteningPass.cpp</text>
</a>
</g>
</g>
<!-- Node13&#45;&gt;Node24 -->
<g id="edge32_Node000013_Node000024" class="edge">
<title>Node13&#45;&gt;Node24</title>
<g id="a_edge32_Node000013_Node000024"><a xlink:title=" ">
<path fill="none" stroke="#63b8ff" d="M944.99,-321.66C948.38,-313.25 952.04,-304.16 955,-296.83"/>
<polygon fill="#63b8ff" stroke="#63b8ff" points="941.83,-320.13 941.34,-330.71 948.33,-322.74 941.83,-320.13"/>
</a>
</g>
</g>
<!-- Node25 -->
<g id="Node000025" class="node">
<title>Node25</title>
<g id="a_Node000025"><a xlink:href="_l_l_z_k_redundant_read_and_write_elimination_pass_8cpp.html" target="_top" xlink:title="This file implements the &#45;llzk&#45;duplicate&#45;read&#45;write&#45;elim pass.">
<polygon fill="white" stroke="#666666" points="1225,-296.5 1056.75,-296.5 1056.75,-266 1225,-266 1225,-296.5"/>
<text text-anchor="start" x="1064.75" y="-283" font-family="Helvetica,sans-Serif" font-size="10.00">lib/Transforms/LLZKRedundant</text>
<text text-anchor="middle" x="1140.88" y="-271.75" font-family="Helvetica,sans-Serif" font-size="10.00">ReadAndWriteEliminationPass.cpp</text>
</a>
</g>
</g>
<!-- Node13&#45;&gt;Node25 -->
<g id="edge33_Node000013_Node000025" class="edge">
<title>Node13&#45;&gt;Node25</title>
<g id="a_edge33_Node000013_Node000025"><a xlink:title=" ">
<path fill="none" stroke="#63b8ff" d="M992.87,-328.59C1024.86,-318.58 1064.06,-306.3 1094.08,-296.9"/>
<polygon fill="#63b8ff" stroke="#63b8ff" points="991.82,-325.25 983.32,-331.58 993.91,-331.93 991.82,-325.25"/>
</a>
</g>
</g>
<!-- Node15 -->
<g id="Node000015" class="node">
<title>Node15</title>
<g id="a_Node000015"><a xlink:href="_constrain_ref_lattice_8h.html" target="_top" xlink:title=" ">
<polygon fill="white" stroke="#666666" points="1459,-230 1344.75,-230 1344.75,-199.5 1459,-199.5 1459,-230"/>
<text text-anchor="start" x="1352.75" y="-216.5" font-family="Helvetica,sans-Serif" font-size="10.00">include/llzk/Analysis</text>
<text text-anchor="middle" x="1401.88" y="-205.25" font-family="Helvetica,sans-Serif" font-size="10.00">/ConstrainRefLattice.h</text>
</a>
</g>
</g>
<!-- Node14&#45;&gt;Node15 -->
<g id="edge17_Node000014_Node000015" class="edge">
<title>Node14&#45;&gt;Node15</title>
<g id="a_edge17_Node000014_Node000015"><a xlink:title=" ">
<path fill="none" stroke="#63b8ff" d="M1329.34,-259.89C1345.11,-250.29 1363.57,-239.06 1377.92,-230.33"/>
<polygon fill="#63b8ff" stroke="#63b8ff" points="1327.95,-256.64 1321.22,-264.83 1331.58,-262.62 1327.95,-256.64"/>
</a>
</g>
</g>
<!-- Node16 -->
<g id="Node000016" class="node">
<title>Node16</title>
<g id="a_Node000016"><a xlink:href="_constraint_dependency_graph_8h.html" target="_top" xlink:title=" ">
<polygon fill="white" stroke="#666666" points="1282.5,-163.5 1129.25,-163.5 1129.25,-133 1282.5,-133 1282.5,-163.5"/>
<text text-anchor="start" x="1137.25" y="-150" font-family="Helvetica,sans-Serif" font-size="10.00">include/llzk/Analysis</text>
<text text-anchor="middle" x="1205.88" y="-138.75" font-family="Helvetica,sans-Serif" font-size="10.00">/ConstraintDependencyGraph.h</text>
</a>
</g>
</g>
<!-- Node14&#45;&gt;Node16 -->
<g id="edge25_Node000014_Node000016" class="edge">
<title>Node14&#45;&gt;Node16</title>
<g id="a_edge25_Node000014_Node000016"><a xlink:title=" ">
<path fill="none" stroke="#63b8ff" d="M1233.2,-262.06C1206.41,-252.9 1179.52,-241.35 1171.88,-230 1157.6,-208.81 1176.7,-180.65 1191.52,-163.8"/>
<polygon fill="#63b8ff" stroke="#63b8ff" points="1231.79,-265.28 1242.38,-265.1 1233.99,-258.64 1231.79,-265.28"/>
</a>
</g>
</g>
<!-- Node20 -->
<g id="Node000020" class="node">
<title>Node20</title>
<g id="a_Node000020"><a xlink:href="_constrain_ref_8cpp.html" target="_top" xlink:title=" ">
<polygon fill="white" stroke="#666666" points="1326.75,-224.38 1181,-224.38 1181,-205.12 1326.75,-205.12 1326.75,-224.38"/>
<text text-anchor="middle" x="1253.88" y="-210.88" font-family="Helvetica,sans-Serif" font-size="10.00">lib/Analysis/ConstrainRef.cpp</text>
</a>
</g>
</g>
<!-- Node14&#45;&gt;Node20 -->
<g id="edge26_Node000014_Node000020" class="edge">
<title>Node14&#45;&gt;Node20</title>
<g id="a_edge26_Node000014_Node000020"><a xlink:title=" ">
<path fill="none" stroke="#63b8ff" d="M1280.11,-256.03C1272.93,-245.01 1264.89,-232.66 1259.62,-224.57"/>
<polygon fill="#63b8ff" stroke="#63b8ff" points="1277.13,-257.88 1285.52,-264.35 1283,-254.06 1277.13,-257.88"/>
</a>
</g>
</g>
<!-- Node15&#45;&gt;Node16 -->
<g id="edge18_Node000015_Node000016" class="edge">
<title>Node15&#45;&gt;Node16</title>
<g id="a_edge18_Node000015_Node000016"><a xlink:title=" ">
<path fill="none" stroke="#63b8ff" d="M1346.55,-195.54C1316.18,-185.55 1279.01,-173.32 1250.51,-163.94"/>
<polygon fill="#63b8ff" stroke="#63b8ff" points="1345.37,-198.84 1355.96,-198.64 1347.56,-192.19 1345.37,-198.84"/>
</a>
</g>
</g>
<!-- Node15&#45;&gt;Node17 -->
<g id="edge23_Node000015_Node000017" class="edge">
<title>Node15&#45;&gt;Node17</title>
<g id="a_edge23_Node000015_Node000017"><a xlink:title=" ">
<path fill="none" stroke="#63b8ff" d="M1410.23,-188.29C1419.12,-161.21 1432.88,-119.31 1440.09,-97.33"/>
<polygon fill="#63b8ff" stroke="#63b8ff" points="1406.91,-187.2 1407.11,-197.79 1413.56,-189.38 1406.91,-187.2"/>
</a>
</g>
</g>
<!-- Node18 -->
<g id="Node000018" class="node">
<title>Node18</title>
<g id="a_Node000018"><a xlink:href="_constraint_dependency_graph_8cpp.html" target="_top" xlink:title=" ">
<polygon fill="white" stroke="#666666" points="1363.38,-97 1194.38,-97 1194.38,-66.5 1363.38,-66.5 1363.38,-97"/>
<text text-anchor="start" x="1202.38" y="-83.5" font-family="Helvetica,sans-Serif" font-size="10.00">lib/Analysis/ConstraintDependency</text>
<text text-anchor="middle" x="1278.88" y="-72.25" font-family="Helvetica,sans-Serif" font-size="10.00">Graph.cpp</text>
</a>
</g>
</g>
<!-- Node15&#45;&gt;Node18 -->
<g id="edge24_Node000015_Node000018" class="edge">
<title>Node15&#45;&gt;Node18</title>
<g id="a_edge24_Node000015_Node000018"><a xlink:title=" ">
<path fill="none" stroke="#63b8ff" d="M1380.66,-191.15C1355.39,-164.24 1313.94,-120.1 1292.57,-97.33"/>
<polygon fill="#63b8ff" stroke="#63b8ff" points="1377.81,-193.23 1387.21,-198.13 1382.91,-188.44 1377.81,-193.23"/>
</a>
</g>
</g>
<!-- Node16&#45;&gt;Node4 -->
<g id="edge19_Node000016_Node000004" class="edge">
<title>Node16&#45;&gt;Node4</title>
<g id="a_edge19_Node000016_Node000004"><a xlink:title=" ">
<path fill="none" stroke="#63b8ff" d="M1117.57,-139.45C964.1,-125.89 652.72,-98.38 528.64,-87.41"/>
<polygon fill="#63b8ff" stroke="#63b8ff" points="1117.01,-142.91 1127.28,-140.31 1117.63,-135.94 1117.01,-142.91"/>
</a>
</g>
</g>
<!-- Node16&#45;&gt;Node17 -->
<g id="edge20_Node000016_Node000017" class="edge">
<title>Node16&#45;&gt;Node17</title>
<g id="a_edge20_Node000016_Node000017"><a xlink:title=" ">
<path fill="none" stroke="#63b8ff" d="M1271.22,-129.62C1308.68,-119.51 1355.14,-106.97 1390.58,-97.4"/>
<polygon fill="#63b8ff" stroke="#63b8ff" points="1270.61,-126.15 1261.87,-132.14 1272.44,-132.91 1270.61,-126.15"/>
</a>
</g>
</g>
<!-- Node16&#45;&gt;Node18 -->
<g id="edge21_Node000016_Node000018" class="edge">
<title>Node16&#45;&gt;Node18</title>
<g id="a_edge21_Node000016_Node000018"><a xlink:title=" ">
<path fill="none" stroke="#63b8ff" d="M1230.78,-125.24C1241.22,-116.03 1253.05,-105.56 1262.38,-97.33"/>
<polygon fill="#63b8ff" stroke="#63b8ff" points="1228.75,-122.37 1223.57,-131.61 1233.39,-127.61 1228.75,-122.37"/>
</a>
</g>
</g>
<!-- Node19 -->
<g id="Node000019" class="node">
<title>Node19</title>
<g id="a_Node000019"><a xlink:href="_constraint_dependency_graph_pass_8cpp.html" target="_top" xlink:title="This file implements the &#45;llzk&#45;print&#45;constraint&#45;dependency&#45;graphs pass.">
<polygon fill="white" stroke="#666666" points="1176.38,-97 1007.38,-97 1007.38,-66.5 1176.38,-66.5 1176.38,-97"/>
<text text-anchor="start" x="1015.38" y="-83.5" font-family="Helvetica,sans-Serif" font-size="10.00">lib/Analysis/ConstraintDependency</text>
<text text-anchor="middle" x="1091.88" y="-72.25" font-family="Helvetica,sans-Serif" font-size="10.00">GraphPass.cpp</text>
</a>
</g>
</g>
<!-- Node16&#45;&gt;Node19 -->
<g id="edge22_Node000016_Node000019" class="edge">
<title>Node16&#45;&gt;Node19</title>
<g id="a_edge22_Node000016_Node000019"><a xlink:title=" ">
<path fill="none" stroke="#63b8ff" d="M1170.36,-127.16C1153.3,-117.5 1133.22,-106.14 1117.64,-97.33"/>
<polygon fill="#63b8ff" stroke="#63b8ff" points="1168.26,-129.99 1178.69,-131.87 1171.71,-123.9 1168.26,-129.99"/>
</a>
</g>
</g>
</g>
</svg>
