<?xml version="1.0" encoding="UTF-8" standalone="no"?>
<!DOCTYPE svg PUBLIC "-//W3C//DTD SVG 1.1//EN"
 "http://www.w3.org/Graphics/SVG/1.1/DTD/svg11.dtd">
<!-- Generated by graphviz version 12.2.1 (0)
 -->
<!-- Title: build/include/llzk/Dialect/Felt/IR/Ops.cpp.inc Pages: 1 -->
<svg width="212pt" height="105pt"
 viewBox="0.00 0.00 211.50 105.00" xmlns="http://www.w3.org/2000/svg" xmlns:xlink="http://www.w3.org/1999/xlink">
<g id="graph0" class="graph" transform="scale(1 1) rotate(0) translate(4 101)">
<title>build/include/llzk/Dialect/Felt/IR/Ops.cpp.inc</title>
<!-- Node1 -->
<g id="Node000001" class="node">
<title>Node1</title>
<g id="a_Node000001"><a xlink:title=" ">
<polygon fill="#999999" stroke="#666666" points="170.38,-97 32.12,-97 32.12,-66.5 170.38,-66.5 170.38,-97"/>
<text text-anchor="start" x="40.12" y="-83.5" font-family="Helvetica,sans-Serif" font-size="10.00">build/include/llzk</text>
<text text-anchor="middle" x="101.25" y="-72.25" font-family="Helvetica,sans-Serif" font-size="10.00">/Dialect/Felt/IR/Ops.cpp.inc</text>
</a>
</g>
</g>
<!-- Node2 -->
<g id="Node000002" class="node">
<title>Node2</title>
<g id="a_Node000002"><a xlink:href="_felt_2_i_r_2_dialect_8cpp.html" target="_top" xlink:title=" ">
<polygon fill="white" stroke="#666666" points="92.5,-30.5 0,-30.5 0,0 92.5,0 92.5,-30.5"/>
<text text-anchor="start" x="8" y="-17" font-family="Helvetica,sans-Serif" font-size="10.00">lib/Dialect/Felt/IR</text>
<text text-anchor="middle" x="46.25" y="-5.75" font-family="Helvetica,sans-Serif" font-size="10.00">/Dialect.cpp</text>
</a>
</g>
</g>
<!-- Node1&#45;&gt;Node2 -->
<g id="edge1_Node000001_Node000002" class="edge">
<title>Node1&#45;&gt;Node2</title>
<g id="a_edge1_Node000001_Node000002"><a xlink:title=" ">
<path fill="none" stroke="#63b8ff" d="M81.54,-57.63C73.91,-48.69 65.42,-38.74 58.68,-30.83"/>
<polygon fill="#63b8ff" stroke="#63b8ff" points="78.64,-59.62 87.79,-64.96 83.96,-55.08 78.64,-59.62"/>
</a>
</g>
</g>
<!-- Node3 -->
<g id="Node000003" class="node">
<title>Node3</title>
<g id="a_Node000003"><a xlink:href="_felt_2_i_r_2_ops_8cpp.html" target="_top" xlink:title=" ">
<polygon fill="white" stroke="#666666" points="203.5,-30.5 111,-30.5 111,0 203.5,0 203.5,-30.5"/>
<text text-anchor="start" x="119" y="-17" font-family="Helvetica,sans-Serif" font-size="10.00">lib/Dialect/Felt/IR</text>
<text text-anchor="middle" x="157.25" y="-5.75" font-family="Helvetica,sans-Serif" font-size="10.00">/Ops.cpp</text>
</a>
</g>
</g>
<!-- Node1&#45;&gt;Node3 -->
<g id="edge2_Node000001_Node000003" class="edge">
<title>Node1&#45;&gt;Node3</title>
<g id="a_edge2_Node000001_Node000003"><a xlink:title=" ">
<path fill="none" stroke="#63b8ff" d="M121.32,-57.63C129.08,-48.69 137.73,-38.74 144.59,-30.83"/>
<polygon fill="#63b8ff" stroke="#63b8ff" points="118.86,-55.13 114.95,-64.97 124.15,-59.71 118.86,-55.13"/>
</a>
</g>
</g>
</g>
</svg>
