<?xml version="1.0" encoding="UTF-8" standalone="no"?>
<!DOCTYPE svg PUBLIC "-//W3C//DTD SVG 1.1//EN"
 "http://www.w3.org/Graphics/SVG/1.1/DTD/svg11.dtd">
<!-- Generated by graphviz version 12.2.1 (0)
 -->
<!-- Title: lib/Dialect/Felt/IR/Ops.cpp Pages: 1 -->
<svg width="2279pt" height="305pt"
 viewBox="0.00 0.00 2279.12 304.50" xmlns="http://www.w3.org/2000/svg" xmlns:xlink="http://www.w3.org/1999/xlink">
<g id="graph0" class="graph" transform="scale(1 1) rotate(0) translate(4 300.5)">
<title>lib/Dialect/Felt/IR/Ops.cpp</title>
<!-- Node1 -->
<g id="Node000001" class="node">
<title>Node1</title>
<g id="a_Node000001"><a xlink:title=" ">
<polygon fill="#999999" stroke="#666666" points="1790.5,-296.5 1698,-296.5 1698,-266 1790.5,-266 1790.5,-296.5"/>
<text text-anchor="start" x="1706" y="-283" font-family="Helvetica,sans-Serif" font-size="10.00">lib/Dialect/Felt/IR</text>
<text text-anchor="middle" x="1744.25" y="-271.75" font-family="Helvetica,sans-Serif" font-size="10.00">/Ops.cpp</text>
</a>
</g>
</g>
<!-- Node2 -->
<g id="Node000002" class="node">
<title>Node2</title>
<g id="a_Node000002"><a xlink:href="_felt_2_i_r_2_ops_8h.html" target="_top" xlink:title=" ">
<polygon fill="white" stroke="#666666" points="692.12,-230 594.38,-230 594.38,-199.5 692.12,-199.5 692.12,-230"/>
<text text-anchor="start" x="602.38" y="-216.5" font-family="Helvetica,sans-Serif" font-size="10.00">llzk/Dialect/Felt/IR</text>
<text text-anchor="middle" x="643.25" y="-205.25" font-family="Helvetica,sans-Serif" font-size="10.00">/Ops.h</text>
</a>
</g>
</g>
<!-- Node1&#45;&gt;Node2 -->
<g id="edge1_Node000001_Node000002" class="edge">
<title>Node1&#45;&gt;Node2</title>
<g id="a_edge1_Node000001_Node000002"><a xlink:title=" ">
<path fill="none" stroke="#63b8ff" d="M1697.64,-277.52C1522.08,-267.23 900.6,-230.83 703.61,-219.29"/>
<polygon fill="#63b8ff" stroke="#63b8ff" points="704.05,-215.81 693.86,-218.72 703.64,-222.79 704.05,-215.81"/>
</a>
</g>
</g>
<!-- Node18 -->
<g id="Node000018" class="node">
<title>Node18</title>
<g id="a_Node000018"><a xlink:href="_polymorphic_2_i_r_2_types_8h.html" target="_top" xlink:title=" ">
<polygon fill="white" stroke="#666666" points="1363.12,-230 1241.38,-230 1241.38,-199.5 1363.12,-199.5 1363.12,-230"/>
<text text-anchor="start" x="1249.38" y="-216.5" font-family="Helvetica,sans-Serif" font-size="10.00">llzk/Dialect/Polymorphic</text>
<text text-anchor="middle" x="1302.25" y="-205.25" font-family="Helvetica,sans-Serif" font-size="10.00">/IR/Types.h</text>
</a>
</g>
</g>
<!-- Node1&#45;&gt;Node18 -->
<g id="edge19_Node000001_Node000018" class="edge">
<title>Node1&#45;&gt;Node18</title>
<g id="a_edge19_Node000001_Node000018"><a xlink:title=" ">
<path fill="none" stroke="#63b8ff" d="M1697.78,-273.47C1620.84,-262.24 1466.4,-239.7 1374.93,-226.36"/>
<polygon fill="#63b8ff" stroke="#63b8ff" points="1375.44,-222.89 1365.04,-224.91 1374.43,-229.82 1375.44,-222.89"/>
</a>
</g>
</g>
<!-- Node23 -->
<g id="Node000023" class="node">
<title>Node23</title>
<g id="a_Node000023"><a xlink:href="_type_helper_8h.html" target="_top" xlink:title=" ">
<polygon fill="white" stroke="#666666" points="1739.75,-224.38 1630.75,-224.38 1630.75,-205.12 1739.75,-205.12 1739.75,-224.38"/>
<text text-anchor="middle" x="1685.25" y="-210.88" font-family="Helvetica,sans-Serif" font-size="10.00">llzk/Util/TypeHelper.h</text>
</a>
</g>
</g>
<!-- Node1&#45;&gt;Node23 -->
<g id="edge25_Node000001_Node000023" class="edge">
<title>Node1&#45;&gt;Node23</title>
<g id="a_edge25_Node000001_Node000023"><a xlink:title=" ">
<path fill="none" stroke="#63b8ff" d="M1730.86,-265.61C1722.01,-255.94 1710.37,-243.21 1701.06,-233.04"/>
<polygon fill="#63b8ff" stroke="#63b8ff" points="1703.67,-230.71 1694.34,-225.69 1698.51,-235.43 1703.67,-230.71"/>
</a>
</g>
</g>
<!-- Node33 -->
<g id="Node000033" class="node">
<title>Node33</title>
<g id="a_Node000033"><a xlink:title=" ">
<polygon fill="#e0e0e0" stroke="#999999" points="1849.12,-224.38 1757.38,-224.38 1757.38,-205.12 1849.12,-205.12 1849.12,-224.38"/>
<text text-anchor="middle" x="1803.25" y="-210.88" font-family="Helvetica,sans-Serif" font-size="10.00">mlir/IR/Builders.h</text>
</a>
</g>
</g>
<!-- Node1&#45;&gt;Node33 -->
<g id="edge36_Node000001_Node000033" class="edge">
<title>Node1&#45;&gt;Node33</title>
<g id="a_edge36_Node000001_Node000033"><a xlink:title=" ">
<path fill="none" stroke="#63b8ff" d="M1757.64,-265.61C1766.49,-255.94 1778.13,-243.21 1787.44,-233.04"/>
<polygon fill="#63b8ff" stroke="#63b8ff" points="1789.99,-235.43 1794.16,-225.69 1784.83,-230.71 1789.99,-235.43"/>
</a>
</g>
</g>
<!-- Node34 -->
<g id="Node000034" class="node">
<title>Node34</title>
<g id="a_Node000034"><a xlink:title=" ">
<polygon fill="#e0e0e0" stroke="#999999" points="1985.62,-224.38 1866.88,-224.38 1866.88,-205.12 1985.62,-205.12 1985.62,-224.38"/>
<text text-anchor="middle" x="1926.25" y="-210.88" font-family="Helvetica,sans-Serif" font-size="10.00">llvm/ADT/SmallString.h</text>
</a>
</g>
</g>
<!-- Node1&#45;&gt;Node34 -->
<g id="edge37_Node000001_Node000034" class="edge">
<title>Node1&#45;&gt;Node34</title>
<g id="a_edge37_Node000001_Node000034"><a xlink:title=" ">
<path fill="none" stroke="#63b8ff" d="M1785.55,-265.61C1817.03,-254.46 1859.95,-239.25 1890.08,-228.57"/>
<polygon fill="#63b8ff" stroke="#63b8ff" points="1890.88,-232 1899.13,-225.36 1888.54,-225.4 1890.88,-232"/>
</a>
</g>
</g>
<!-- Node35 -->
<g id="Node000035" class="node">
<title>Node35</title>
<g id="a_Node000035"><a xlink:href="_felt_2_i_r_2_ops_8cpp_8inc.html" target="_top" xlink:title=" ">
<polygon fill="white" stroke="#666666" points="2101.12,-230 2003.38,-230 2003.38,-199.5 2101.12,-199.5 2101.12,-230"/>
<text text-anchor="start" x="2011.38" y="-216.5" font-family="Helvetica,sans-Serif" font-size="10.00">llzk/Dialect/Felt/IR</text>
<text text-anchor="middle" x="2052.25" y="-205.25" font-family="Helvetica,sans-Serif" font-size="10.00">/Ops.cpp.inc</text>
</a>
</g>
</g>
<!-- Node1&#45;&gt;Node35 -->
<g id="edge38_Node000001_Node000035" class="edge">
<title>Node1&#45;&gt;Node35</title>
<g id="a_edge38_Node000001_Node000035"><a xlink:title=" ">
<path fill="none" stroke="#63b8ff" d="M1790.91,-271.49C1838.86,-262.34 1915.95,-247.27 1991.75,-230.51"/>
<polygon fill="#63b8ff" stroke="#63b8ff" points="1992.44,-233.94 2001.45,-228.35 1990.92,-227.1 1992.44,-233.94"/>
</a>
</g>
</g>
<!-- Node3 -->
<g id="Node000003" class="node">
<title>Node3</title>
<g id="a_Node000003"><a xlink:href="_felt_2_i_r_2_attrs_8h.html" target="_top" xlink:title=" ">
<polygon fill="white" stroke="#666666" points="283.12,-163.5 185.38,-163.5 185.38,-133 283.12,-133 283.12,-163.5"/>
<text text-anchor="start" x="193.38" y="-150" font-family="Helvetica,sans-Serif" font-size="10.00">llzk/Dialect/Felt/IR</text>
<text text-anchor="middle" x="234.25" y="-138.75" font-family="Helvetica,sans-Serif" font-size="10.00">/Attrs.h</text>
</a>
</g>
</g>
<!-- Node2&#45;&gt;Node3 -->
<g id="edge2_Node000002_Node000003" class="edge">
<title>Node2&#45;&gt;Node3</title>
<g id="a_edge2_Node000002_Node000003"><a xlink:title=" ">
<path fill="none" stroke="#63b8ff" d="M593.92,-205.97C518.73,-194.11 375.68,-171.55 294.47,-158.75"/>
<polygon fill="#63b8ff" stroke="#63b8ff" points="295.36,-155.34 284.94,-157.24 294.27,-162.26 295.36,-155.34"/>
</a>
</g>
</g>
<!-- Node7 -->
<g id="Node000007" class="node">
<title>Node7</title>
<g id="a_Node000007"><a xlink:href="_felt_2_i_r_2_dialect_8h.html" target="_top" xlink:title=" ">
<polygon fill="white" stroke="#666666" points="460.12,-97 362.38,-97 362.38,-66.5 460.12,-66.5 460.12,-97"/>
<text text-anchor="start" x="370.38" y="-83.5" font-family="Helvetica,sans-Serif" font-size="10.00">llzk/Dialect/Felt/IR</text>
<text text-anchor="middle" x="411.25" y="-72.25" font-family="Helvetica,sans-Serif" font-size="10.00">/Dialect.h</text>
</a>
</g>
</g>
<!-- Node2&#45;&gt;Node7 -->
<g id="edge6_Node000002_Node000007" class="edge">
<title>Node2&#45;&gt;Node7</title>
<g id="a_edge6_Node000002_Node000007"><a xlink:title=" ">
<path fill="none" stroke="#63b8ff" d="M594.12,-204.39C562.22,-196.79 520.7,-183.9 488.25,-163.5 464.23,-148.4 442.49,-124.14 428.28,-106.15"/>
<polygon fill="#63b8ff" stroke="#63b8ff" points="431.35,-104.4 422.49,-98.6 425.8,-108.66 431.35,-104.4"/>
</a>
</g>
</g>
<!-- Node10 -->
<g id="Node000010" class="node">
<title>Node10</title>
<g id="a_Node000010"><a xlink:href="_felt_2_i_r_2_types_8h.html" target="_top" xlink:title=" ">
<polygon fill="white" stroke="#666666" points="595.12,-163.5 497.38,-163.5 497.38,-133 595.12,-133 595.12,-163.5"/>
<text text-anchor="start" x="505.38" y="-150" font-family="Helvetica,sans-Serif" font-size="10.00">llzk/Dialect/Felt/IR</text>
<text text-anchor="middle" x="546.25" y="-138.75" font-family="Helvetica,sans-Serif" font-size="10.00">/Types.h</text>
</a>
</g>
</g>
<!-- Node2&#45;&gt;Node10 -->
<g id="edge9_Node000002_Node000010" class="edge">
<title>Node2&#45;&gt;Node10</title>
<g id="a_edge9_Node000002_Node000010"><a xlink:title=" ">
<path fill="none" stroke="#63b8ff" d="M621.24,-199.11C608.34,-190.54 591.84,-179.56 577.6,-170.09"/>
<polygon fill="#63b8ff" stroke="#63b8ff" points="579.7,-167.29 569.43,-164.67 575.82,-173.12 579.7,-167.29"/>
</a>
</g>
</g>
<!-- Node11 -->
<g id="Node000011" class="node">
<title>Node11</title>
<g id="a_Node000011"><a xlink:href="_felt_2_i_r_2_ops_8h_8inc.html" target="_top" xlink:title=" ">
<polygon fill="white" stroke="#666666" points="692.12,-97 594.38,-97 594.38,-66.5 692.12,-66.5 692.12,-97"/>
<text text-anchor="start" x="602.38" y="-83.5" font-family="Helvetica,sans-Serif" font-size="10.00">llzk/Dialect/Felt/IR</text>
<text text-anchor="middle" x="643.25" y="-72.25" font-family="Helvetica,sans-Serif" font-size="10.00">/Ops.h.inc</text>
</a>
</g>
</g>
<!-- Node2&#45;&gt;Node11 -->
<g id="edge18_Node000002_Node000011" class="edge">
<title>Node2&#45;&gt;Node11</title>
<g id="a_edge18_Node000002_Node000011"><a xlink:title=" ">
<path fill="none" stroke="#63b8ff" d="M643.25,-199.23C643.25,-177.39 643.25,-135.77 643.25,-108.65"/>
<polygon fill="#63b8ff" stroke="#63b8ff" points="646.75,-108.85 643.25,-98.85 639.75,-108.85 646.75,-108.85"/>
</a>
</g>
</g>
<!-- Node13 -->
<g id="Node000013" class="node">
<title>Node13</title>
<g id="a_Node000013"><a xlink:href="_op_traits_8h.html" target="_top" xlink:title=" ">
<polygon fill="white" stroke="#666666" points="817.88,-163.5 712.62,-163.5 712.62,-133 817.88,-133 817.88,-163.5"/>
<text text-anchor="start" x="720.62" y="-150" font-family="Helvetica,sans-Serif" font-size="10.00">llzk/Dialect/Function</text>
<text text-anchor="middle" x="765.25" y="-138.75" font-family="Helvetica,sans-Serif" font-size="10.00">/IR/OpTraits.h</text>
</a>
</g>
</g>
<!-- Node2&#45;&gt;Node13 -->
<g id="edge13_Node000002_Node000013" class="edge">
<title>Node2&#45;&gt;Node13</title>
<g id="a_edge13_Node000002_Node000013"><a xlink:title=" ">
<path fill="none" stroke="#63b8ff" d="M670.93,-199.11C687.7,-190.25 709.32,-178.82 727.62,-169.14"/>
<polygon fill="#63b8ff" stroke="#63b8ff" points="729.13,-172.3 736.34,-164.54 725.86,-166.12 729.13,-172.3"/>
</a>
</g>
</g>
<!-- Node17 -->
<g id="Node000017" class="node">
<title>Node17</title>
<g id="a_Node000017"><a xlink:title=" ">
<polygon fill="#e0e0e0" stroke="#999999" points="958.12,-163.5 836.38,-163.5 836.38,-133 958.12,-133 958.12,-163.5"/>
<text text-anchor="start" x="844.38" y="-150" font-family="Helvetica,sans-Serif" font-size="10.00">mlir/Interfaces/InferType</text>
<text text-anchor="middle" x="897.25" y="-138.75" font-family="Helvetica,sans-Serif" font-size="10.00">OpInterface.h</text>
</a>
</g>
</g>
<!-- Node2&#45;&gt;Node17 -->
<g id="edge17_Node000002_Node000017" class="edge">
<title>Node2&#45;&gt;Node17</title>
<g id="a_edge17_Node000002_Node000017"><a xlink:title=" ">
<path fill="none" stroke="#63b8ff" d="M692.52,-201.24C731.14,-191.43 785.35,-177.67 828.28,-166.76"/>
<polygon fill="#63b8ff" stroke="#63b8ff" points="828.92,-170.21 837.75,-164.36 827.19,-163.43 828.92,-170.21"/>
</a>
</g>
</g>
<!-- Node4 -->
<g id="Node000004" class="node">
<title>Node4</title>
<g id="a_Node000004"><a xlink:title=" ">
<polygon fill="#e0e0e0" stroke="#999999" points="98.5,-91.38 0,-91.38 0,-72.12 98.5,-72.12 98.5,-91.38"/>
<text text-anchor="middle" x="49.25" y="-77.88" font-family="Helvetica,sans-Serif" font-size="10.00">mlir/IR/Attributes.h</text>
</a>
</g>
</g>
<!-- Node3&#45;&gt;Node4 -->
<g id="edge3_Node000003_Node000004" class="edge">
<title>Node3&#45;&gt;Node4</title>
<g id="a_edge3_Node000003_Node000004"><a xlink:title=" ">
<path fill="none" stroke="#63b8ff" d="M192.27,-132.61C160.27,-121.46 116.64,-106.25 86.01,-95.57"/>
<polygon fill="#63b8ff" stroke="#63b8ff" points="87.39,-92.34 76.79,-92.35 85.08,-98.95 87.39,-92.34"/>
</a>
</g>
</g>
<!-- Node5 -->
<g id="Node000005" class="node">
<title>Node5</title>
<g id="a_Node000005"><a xlink:title=" ">
<polygon fill="#e0e0e0" stroke="#999999" points="228.25,-97 116.25,-97 116.25,-66.5 228.25,-66.5 228.25,-97"/>
<text text-anchor="start" x="124.25" y="-83.5" font-family="Helvetica,sans-Serif" font-size="10.00">mlir/IR/BuiltinAttribute</text>
<text text-anchor="middle" x="172.25" y="-72.25" font-family="Helvetica,sans-Serif" font-size="10.00">Interfaces.h</text>
</a>
</g>
</g>
<!-- Node3&#45;&gt;Node5 -->
<g id="edge4_Node000003_Node000005" class="edge">
<title>Node3&#45;&gt;Node5</title>
<g id="a_edge4_Node000003_Node000005"><a xlink:title=" ">
<path fill="none" stroke="#63b8ff" d="M220.18,-132.61C212.49,-124.61 202.8,-114.53 194.14,-105.53"/>
<polygon fill="#63b8ff" stroke="#63b8ff" points="196.77,-103.2 187.31,-98.42 191.72,-108.05 196.77,-103.2"/>
</a>
</g>
</g>
<!-- Node6 -->
<g id="Node000006" class="node">
<title>Node6</title>
<g id="a_Node000006"><a xlink:href="_felt_2_i_r_2_attrs_8h_8inc.html" target="_top" xlink:title=" ">
<polygon fill="white" stroke="#666666" points="344.12,-97 246.38,-97 246.38,-66.5 344.12,-66.5 344.12,-97"/>
<text text-anchor="start" x="254.38" y="-83.5" font-family="Helvetica,sans-Serif" font-size="10.00">llzk/Dialect/Felt/IR</text>
<text text-anchor="middle" x="295.25" y="-72.25" font-family="Helvetica,sans-Serif" font-size="10.00">/Attrs.h.inc</text>
</a>
</g>
</g>
<!-- Node3&#45;&gt;Node6 -->
<g id="edge5_Node000003_Node000006" class="edge">
<title>Node3&#45;&gt;Node6</title>
<g id="a_edge5_Node000003_Node000006"><a xlink:title=" ">
<path fill="none" stroke="#63b8ff" d="M248.09,-132.61C255.66,-124.61 265.19,-114.53 273.71,-105.53"/>
<polygon fill="#63b8ff" stroke="#63b8ff" points="276.09,-108.1 280.42,-98.43 271.01,-103.29 276.09,-108.1"/>
</a>
</g>
</g>
<!-- Node8 -->
<g id="Node000008" class="node">
<title>Node8</title>
<g id="a_Node000008"><a xlink:title=" ">
<polygon fill="#e0e0e0" stroke="#999999" points="876,-24.88 774.5,-24.88 774.5,-5.63 876,-5.63 876,-24.88"/>
<text text-anchor="middle" x="825.25" y="-11.38" font-family="Helvetica,sans-Serif" font-size="10.00">mlir/IR/BuiltinOps.h</text>
</a>
</g>
</g>
<!-- Node7&#45;&gt;Node8 -->
<g id="edge7_Node000007_Node000008" class="edge">
<title>Node7&#45;&gt;Node8</title>
<g id="a_edge7_Node000007_Node000008"><a xlink:title=" ">
<path fill="none" stroke="#63b8ff" d="M460.54,-68.28C463.48,-67.65 466.4,-67.05 469.25,-66.5 571.64,-46.75 692,-31.38 763.28,-23.08"/>
<polygon fill="#63b8ff" stroke="#63b8ff" points="763.25,-26.61 772.78,-21.98 762.44,-19.65 763.25,-26.61"/>
</a>
</g>
</g>
<!-- Node9 -->
<g id="Node000009" class="node">
<title>Node9</title>
<g id="a_Node000009"><a xlink:href="_felt_2_i_r_2_dialect_8h_8inc.html" target="_top" xlink:title=" ">
<polygon fill="white" stroke="#666666" points="460.12,-30.5 362.38,-30.5 362.38,0 460.12,0 460.12,-30.5"/>
<text text-anchor="start" x="370.38" y="-17" font-family="Helvetica,sans-Serif" font-size="10.00">llzk/Dialect/Felt/IR</text>
<text text-anchor="middle" x="411.25" y="-5.75" font-family="Helvetica,sans-Serif" font-size="10.00">/Dialect.h.inc</text>
</a>
</g>
</g>
<!-- Node7&#45;&gt;Node9 -->
<g id="edge8_Node000007_Node000009" class="edge">
<title>Node7&#45;&gt;Node9</title>
<g id="a_edge8_Node000007_Node000009"><a xlink:title=" ">
<path fill="none" stroke="#63b8ff" d="M411.25,-66.11C411.25,-59.02 411.25,-50.29 411.25,-42.13"/>
<polygon fill="#63b8ff" stroke="#63b8ff" points="414.75,-42.34 411.25,-32.34 407.75,-42.34 414.75,-42.34"/>
</a>
</g>
</g>
<!-- Node10&#45;&gt;Node7 -->
<g id="edge10_Node000010_Node000007" class="edge">
<title>Node10&#45;&gt;Node7</title>
<g id="a_edge10_Node000010_Node000007"><a xlink:title=" ">
<path fill="none" stroke="#63b8ff" d="M515.62,-132.61C496.8,-123.63 472.48,-112 452.04,-102.24"/>
<polygon fill="#63b8ff" stroke="#63b8ff" points="453.66,-99.13 443.13,-97.98 450.64,-105.45 453.66,-99.13"/>
</a>
</g>
</g>
<!-- Node10&#45;&gt;Node11 -->
<g id="edge11_Node000010_Node000011" class="edge">
<title>Node10&#45;&gt;Node11</title>
<g id="a_edge11_Node000010_Node000011"><a xlink:title=" ">
<path fill="none" stroke="#63b8ff" d="M568.26,-132.61C581.16,-124.04 597.66,-113.06 611.9,-103.59"/>
<polygon fill="#63b8ff" stroke="#63b8ff" points="613.68,-106.62 620.07,-98.17 609.8,-100.79 613.68,-106.62"/>
</a>
</g>
</g>
<!-- Node12 -->
<g id="Node000012" class="node">
<title>Node12</title>
<g id="a_Node000012"><a xlink:href="_felt_2_i_r_2_types_8h_8inc.html" target="_top" xlink:title=" ">
<polygon fill="white" stroke="#666666" points="576.12,-97 478.38,-97 478.38,-66.5 576.12,-66.5 576.12,-97"/>
<text text-anchor="start" x="486.38" y="-83.5" font-family="Helvetica,sans-Serif" font-size="10.00">llzk/Dialect/Felt/IR</text>
<text text-anchor="middle" x="527.25" y="-72.25" font-family="Helvetica,sans-Serif" font-size="10.00">/Types.h.inc</text>
</a>
</g>
</g>
<!-- Node10&#45;&gt;Node12 -->
<g id="edge12_Node000010_Node000012" class="edge">
<title>Node10&#45;&gt;Node12</title>
<g id="a_edge12_Node000010_Node000012"><a xlink:title=" ">
<path fill="none" stroke="#63b8ff" d="M541.94,-132.61C539.83,-125.44 537.22,-116.59 534.79,-108.34"/>
<polygon fill="#63b8ff" stroke="#63b8ff" points="538.16,-107.38 531.97,-98.78 531.44,-109.36 538.16,-107.38"/>
</a>
</g>
</g>
<!-- Node14 -->
<g id="Node000014" class="node">
<title>Node14</title>
<g id="a_Node000014"><a xlink:title=" ">
<polygon fill="#e0e0e0" stroke="#999999" points="820.5,-91.38 710,-91.38 710,-72.12 820.5,-72.12 820.5,-91.38"/>
<text text-anchor="middle" x="765.25" y="-77.88" font-family="Helvetica,sans-Serif" font-size="10.00">mlir/IR/OpDefinition.h</text>
</a>
</g>
</g>
<!-- Node13&#45;&gt;Node14 -->
<g id="edge14_Node000013_Node000014" class="edge">
<title>Node13&#45;&gt;Node14</title>
<g id="a_edge14_Node000013_Node000014"><a xlink:title=" ">
<path fill="none" stroke="#63b8ff" d="M765.25,-132.61C765.25,-123.83 765.25,-112.52 765.25,-102.9"/>
<polygon fill="#63b8ff" stroke="#63b8ff" points="768.75,-103.09 765.25,-93.09 761.75,-103.09 768.75,-103.09"/>
</a>
</g>
</g>
<!-- Node15 -->
<g id="Node000015" class="node">
<title>Node15</title>
<g id="a_Node000015"><a xlink:title=" ">
<polygon fill="#e0e0e0" stroke="#999999" points="1094.5,-91.38 996,-91.38 996,-72.12 1094.5,-72.12 1094.5,-91.38"/>
<text text-anchor="middle" x="1045.25" y="-77.88" font-family="Helvetica,sans-Serif" font-size="10.00">mlir/IR/Operation.h</text>
</a>
</g>
</g>
<!-- Node13&#45;&gt;Node15 -->
<g id="edge15_Node000013_Node000015" class="edge">
<title>Node13&#45;&gt;Node15</title>
<g id="a_edge15_Node000013_Node000015"><a xlink:title=" ">
<path fill="none" stroke="#63b8ff" d="M818.35,-135.03C821.36,-134.34 824.34,-133.66 827.25,-133 898.32,-116.84 916.3,-113.7 987.25,-97 990.62,-96.21 994.1,-95.38 997.61,-94.53"/>
<polygon fill="#63b8ff" stroke="#63b8ff" points="998.4,-97.94 1007.3,-92.19 996.75,-91.14 998.4,-97.94"/>
</a>
</g>
</g>
<!-- Node16 -->
<g id="Node000016" class="node">
<title>Node16</title>
<g id="a_Node000016"><a xlink:title=" ">
<polygon fill="#e0e0e0" stroke="#999999" points="977.75,-91.38 838.75,-91.38 838.75,-72.12 977.75,-72.12 977.75,-91.38"/>
<text text-anchor="middle" x="908.25" y="-77.88" font-family="Helvetica,sans-Serif" font-size="10.00">mlir/Support/LogicalResult.h</text>
</a>
</g>
</g>
<!-- Node13&#45;&gt;Node16 -->
<g id="edge16_Node000013_Node000016" class="edge">
<title>Node13&#45;&gt;Node16</title>
<g id="a_edge16_Node000013_Node000016"><a xlink:title=" ">
<path fill="none" stroke="#63b8ff" d="M797.7,-132.61C821.74,-121.77 854.29,-107.09 877.83,-96.47"/>
<polygon fill="#63b8ff" stroke="#63b8ff" points="879.22,-99.68 886.9,-92.38 876.34,-93.3 879.22,-99.68"/>
</a>
</g>
</g>
<!-- Node19 -->
<g id="Node000019" class="node">
<title>Node19</title>
<g id="a_Node000019"><a xlink:href="_polymorphic_2_i_r_2_dialect_8h.html" target="_top" xlink:title=" ">
<polygon fill="white" stroke="#666666" points="1153.12,-163.5 1031.38,-163.5 1031.38,-133 1153.12,-133 1153.12,-163.5"/>
<text text-anchor="start" x="1039.38" y="-150" font-family="Helvetica,sans-Serif" font-size="10.00">llzk/Dialect/Polymorphic</text>
<text text-anchor="middle" x="1092.25" y="-138.75" font-family="Helvetica,sans-Serif" font-size="10.00">/IR/Dialect.h</text>
</a>
</g>
</g>
<!-- Node18&#45;&gt;Node19 -->
<g id="edge20_Node000018_Node000019" class="edge">
<title>Node18&#45;&gt;Node19</title>
<g id="a_edge20_Node000018_Node000019"><a xlink:title=" ">
<path fill="none" stroke="#63b8ff" d="M1254.33,-199.03C1223.56,-189.58 1183.38,-177.24 1150.72,-167.21"/>
<polygon fill="#63b8ff" stroke="#63b8ff" points="1151.99,-163.94 1141.41,-164.35 1149.94,-170.63 1151.99,-163.94"/>
</a>
</g>
</g>
<!-- Node21 -->
<g id="Node000021" class="node">
<title>Node21</title>
<g id="a_Node000021"><a xlink:href="_polymorphic_2_i_r_2_ops_8h_8inc.html" target="_top" xlink:title=" ">
<polygon fill="white" stroke="#666666" points="1293.12,-163.5 1171.38,-163.5 1171.38,-133 1293.12,-133 1293.12,-163.5"/>
<text text-anchor="start" x="1179.38" y="-150" font-family="Helvetica,sans-Serif" font-size="10.00">llzk/Dialect/Polymorphic</text>
<text text-anchor="middle" x="1232.25" y="-138.75" font-family="Helvetica,sans-Serif" font-size="10.00">/IR/Ops.h.inc</text>
</a>
</g>
</g>
<!-- Node18&#45;&gt;Node21 -->
<g id="edge23_Node000018_Node000021" class="edge">
<title>Node18&#45;&gt;Node21</title>
<g id="a_edge23_Node000018_Node000021"><a xlink:title=" ">
<path fill="none" stroke="#63b8ff" d="M1286.37,-199.11C1277.51,-190.95 1266.29,-180.61 1256.37,-171.47"/>
<polygon fill="#63b8ff" stroke="#63b8ff" points="1258.91,-169.06 1249.18,-164.85 1254.17,-174.2 1258.91,-169.06"/>
</a>
</g>
</g>
<!-- Node22 -->
<g id="Node000022" class="node">
<title>Node22</title>
<g id="a_Node000022"><a xlink:href="_polymorphic_2_i_r_2_types_8h_8inc.html" target="_top" xlink:title=" ">
<polygon fill="white" stroke="#666666" points="1433.12,-163.5 1311.38,-163.5 1311.38,-133 1433.12,-133 1433.12,-163.5"/>
<text text-anchor="start" x="1319.38" y="-150" font-family="Helvetica,sans-Serif" font-size="10.00">llzk/Dialect/Polymorphic</text>
<text text-anchor="middle" x="1372.25" y="-138.75" font-family="Helvetica,sans-Serif" font-size="10.00">/IR/Types.h.inc</text>
</a>
</g>
</g>
<!-- Node18&#45;&gt;Node22 -->
<g id="edge24_Node000018_Node000022" class="edge">
<title>Node18&#45;&gt;Node22</title>
<g id="a_edge24_Node000018_Node000022"><a xlink:title=" ">
<path fill="none" stroke="#63b8ff" d="M1318.13,-199.11C1326.99,-190.95 1338.21,-180.61 1348.13,-171.47"/>
<polygon fill="#63b8ff" stroke="#63b8ff" points="1350.33,-174.2 1355.32,-164.85 1345.59,-169.06 1350.33,-174.2"/>
</a>
</g>
</g>
<!-- Node19&#45;&gt;Node8 -->
<g id="edge21_Node000019_Node000008" class="edge">
<title>Node19&#45;&gt;Node8</title>
<g id="a_edge21_Node000019_Node000008"><a xlink:title=" ">
<path fill="none" stroke="#63b8ff" d="M1100.21,-132.6C1108.64,-114.86 1118.76,-85.07 1103.25,-66.5 1076.35,-34.3 961.23,-22.7 887.83,-18.54"/>
<polygon fill="#63b8ff" stroke="#63b8ff" points="888.11,-15.05 877.93,-18.02 887.73,-22.04 888.11,-15.05"/>
</a>
</g>
</g>
<!-- Node20 -->
<g id="Node000020" class="node">
<title>Node20</title>
<g id="a_Node000020"><a xlink:href="_polymorphic_2_i_r_2_dialect_8h_8inc.html" target="_top" xlink:title=" ">
<polygon fill="white" stroke="#666666" points="1272.12,-97 1150.38,-97 1150.38,-66.5 1272.12,-66.5 1272.12,-97"/>
<text text-anchor="start" x="1158.38" y="-83.5" font-family="Helvetica,sans-Serif" font-size="10.00">llzk/Dialect/Polymorphic</text>
<text text-anchor="middle" x="1211.25" y="-72.25" font-family="Helvetica,sans-Serif" font-size="10.00">/IR/Dialect.h.inc</text>
</a>
</g>
</g>
<!-- Node19&#45;&gt;Node20 -->
<g id="edge22_Node000019_Node000020" class="edge">
<title>Node19&#45;&gt;Node20</title>
<g id="a_edge22_Node000019_Node000020"><a xlink:title=" ">
<path fill="none" stroke="#63b8ff" d="M1119.25,-132.61C1135.53,-123.79 1156.49,-112.43 1174.3,-102.78"/>
<polygon fill="#63b8ff" stroke="#63b8ff" points="1175.9,-105.89 1183.02,-98.05 1172.56,-99.74 1175.9,-105.89"/>
</a>
</g>
</g>
<!-- Node23&#45;&gt;Node15 -->
<g id="edge31_Node000023_Node000015" class="edge">
<title>Node23&#45;&gt;Node15</title>
<g id="a_edge31_Node000023_Node000015"><a xlink:title=" ">
<path fill="none" stroke="#63b8ff" d="M1630.28,-206.65C1587.94,-199.68 1528.81,-186.63 1481.25,-163.5 1461.46,-153.88 1462.59,-141.39 1442.25,-133 1317.71,-81.61 1274.79,-114.89 1141.25,-97 1129.73,-95.46 1117.46,-93.71 1105.66,-91.98"/>
<polygon fill="#63b8ff" stroke="#63b8ff" points="1106.44,-88.56 1096.04,-90.56 1105.42,-95.49 1106.44,-88.56"/>
</a>
</g>
</g>
<!-- Node24 -->
<g id="Node000024" class="node">
<title>Node24</title>
<g id="a_Node000024"><a xlink:href="_error_helper_8h.html" target="_top" xlink:title=" ">
<polygon fill="white" stroke="#666666" points="1598.75,-157.88 1489.75,-157.88 1489.75,-138.62 1598.75,-138.62 1598.75,-157.88"/>
<text text-anchor="middle" x="1544.25" y="-144.38" font-family="Helvetica,sans-Serif" font-size="10.00">llzk/Util/ErrorHelper.h</text>
</a>
</g>
</g>
<!-- Node23&#45;&gt;Node24 -->
<g id="edge26_Node000023_Node000024" class="edge">
<title>Node23&#45;&gt;Node24</title>
<g id="a_edge26_Node000023_Node000024"><a xlink:title=" ">
<path fill="none" stroke="#63b8ff" d="M1665.35,-204.65C1641.62,-193.79 1601.74,-175.55 1574.27,-162.98"/>
<polygon fill="#63b8ff" stroke="#63b8ff" points="1575.98,-159.91 1565.43,-158.94 1573.07,-166.28 1575.98,-159.91"/>
</a>
</g>
</g>
<!-- Node28 -->
<g id="Node000028" class="node">
<title>Node28</title>
<g id="a_Node000028"><a xlink:title=" ">
<polygon fill="#e0e0e0" stroke="#999999" points="1753.25,-157.88 1617.25,-157.88 1617.25,-138.62 1753.25,-138.62 1753.25,-157.88"/>
<text text-anchor="middle" x="1685.25" y="-144.38" font-family="Helvetica,sans-Serif" font-size="10.00">mlir/IR/OpImplementation.h</text>
</a>
</g>
</g>
<!-- Node23&#45;&gt;Node28 -->
<g id="edge30_Node000023_Node000028" class="edge">
<title>Node23&#45;&gt;Node28</title>
<g id="a_edge30_Node000023_Node000028"><a xlink:title=" ">
<path fill="none" stroke="#63b8ff" d="M1685.25,-204.78C1685.25,-195.73 1685.25,-181.45 1685.25,-169.63"/>
<polygon fill="#63b8ff" stroke="#63b8ff" points="1688.75,-169.66 1685.25,-159.66 1681.75,-169.66 1688.75,-169.66"/>
</a>
</g>
</g>
<!-- Node29 -->
<g id="Node000029" class="node">
<title>Node29</title>
<g id="a_Node000029"><a xlink:title=" ">
<polygon fill="#e0e0e0" stroke="#999999" points="1883.62,-157.88 1770.88,-157.88 1770.88,-138.62 1883.62,-138.62 1883.62,-157.88"/>
<text text-anchor="middle" x="1827.25" y="-144.38" font-family="Helvetica,sans-Serif" font-size="10.00">mlir/IR/SymbolTable.h</text>
</a>
</g>
</g>
<!-- Node23&#45;&gt;Node29 -->
<g id="edge32_Node000023_Node000029" class="edge">
<title>Node23&#45;&gt;Node29</title>
<g id="a_edge32_Node000023_Node000029"><a xlink:title=" ">
<path fill="none" stroke="#63b8ff" d="M1705.29,-204.65C1729.19,-193.79 1769.35,-175.55 1797.02,-162.98"/>
<polygon fill="#63b8ff" stroke="#63b8ff" points="1798.27,-166.26 1805.93,-158.93 1795.38,-159.88 1798.27,-166.26"/>
</a>
</g>
</g>
<!-- Node30 -->
<g id="Node000030" class="node">
<title>Node30</title>
<g id="a_Node000030"><a xlink:title=" ">
<polygon fill="#e0e0e0" stroke="#999999" points="2009,-157.88 1901.5,-157.88 1901.5,-138.62 2009,-138.62 2009,-157.88"/>
<text text-anchor="middle" x="1955.25" y="-144.38" font-family="Helvetica,sans-Serif" font-size="10.00">llvm/ADT/ArrayRef.h</text>
</a>
</g>
</g>
<!-- Node23&#45;&gt;Node30 -->
<g id="edge33_Node000023_Node000030" class="edge">
<title>Node23&#45;&gt;Node30</title>
<g id="a_edge33_Node000023_Node000030"><a xlink:title=" ">
<path fill="none" stroke="#63b8ff" d="M1723.36,-204.65C1771.3,-193.19 1853.7,-173.51 1906.27,-160.95"/>
<polygon fill="#63b8ff" stroke="#63b8ff" points="1906.95,-164.39 1915.86,-158.66 1905.32,-157.58 1906.95,-164.39"/>
</a>
</g>
</g>
<!-- Node31 -->
<g id="Node000031" class="node">
<title>Node31</title>
<g id="a_Node000031"><a xlink:title=" ">
<polygon fill="#e0e0e0" stroke="#999999" points="2143.12,-157.88 2027.38,-157.88 2027.38,-138.62 2143.12,-138.62 2143.12,-157.88"/>
<text text-anchor="middle" x="2085.25" y="-144.38" font-family="Helvetica,sans-Serif" font-size="10.00">llvm/ADT/DenseMap.h</text>
</a>
</g>
</g>
<!-- Node23&#45;&gt;Node31 -->
<g id="edge34_Node000023_Node000031" class="edge">
<title>Node23&#45;&gt;Node31</title>
<g id="a_edge34_Node000023_Node000031"><a xlink:title=" ">
<path fill="none" stroke="#63b8ff" d="M1722.78,-204.68C1731.14,-202.82 1739.97,-200.99 1748.25,-199.5 1867.41,-178.12 1898.95,-184.11 2018.25,-163.5 2023.4,-162.61 2028.75,-161.61 2034.09,-160.55"/>
<polygon fill="#63b8ff" stroke="#63b8ff" points="2034.37,-164.07 2043.47,-158.65 2032.98,-157.21 2034.37,-164.07"/>
</a>
</g>
</g>
<!-- Node32 -->
<g id="Node000032" class="node">
<title>Node32</title>
<g id="a_Node000032"><a xlink:title=" ">
<polygon fill="#e0e0e0" stroke="#999999" points="2271.12,-157.88 2161.38,-157.88 2161.38,-138.62 2271.12,-138.62 2271.12,-157.88"/>
<text text-anchor="middle" x="2216.25" y="-144.38" font-family="Helvetica,sans-Serif" font-size="10.00">llvm/ADT/StringRef.h</text>
</a>
</g>
</g>
<!-- Node23&#45;&gt;Node32 -->
<g id="edge35_Node000023_Node000032" class="edge">
<title>Node23&#45;&gt;Node32</title>
<g id="a_edge35_Node000023_Node000032"><a xlink:title=" ">
<path fill="none" stroke="#63b8ff" d="M1721.74,-204.63C1730.39,-202.71 1739.61,-200.86 1748.25,-199.5 1926.34,-171.55 1974.12,-191.15 2152.25,-163.5 2157.46,-162.69 2162.88,-161.71 2168.26,-160.64"/>
<polygon fill="#63b8ff" stroke="#63b8ff" points="2168.62,-164.14 2177.7,-158.67 2167.19,-157.29 2168.62,-164.14"/>
</a>
</g>
</g>
<!-- Node25 -->
<g id="Node000025" class="node">
<title>Node25</title>
<g id="a_Node000025"><a xlink:title=" ">
<polygon fill="#e0e0e0" stroke="#999999" points="1479.25,-91.38 1319.25,-91.38 1319.25,-72.12 1479.25,-72.12 1479.25,-91.38"/>
<text text-anchor="middle" x="1399.25" y="-77.88" font-family="Helvetica,sans-Serif" font-size="10.00">llvm/ADT/STLFunctionalExtras.h</text>
</a>
</g>
</g>
<!-- Node24&#45;&gt;Node25 -->
<g id="edge27_Node000024_Node000025" class="edge">
<title>Node24&#45;&gt;Node25</title>
<g id="a_edge27_Node000024_Node000025"><a xlink:title=" ">
<path fill="none" stroke="#63b8ff" d="M1523.78,-138.15C1499.39,-127.29 1458.38,-109.05 1430.12,-96.48"/>
<polygon fill="#63b8ff" stroke="#63b8ff" points="1431.56,-93.29 1421,-92.42 1428.71,-99.69 1431.56,-93.29"/>
</a>
</g>
</g>
<!-- Node26 -->
<g id="Node000026" class="node">
<title>Node26</title>
<g id="a_Node000026"><a xlink:title=" ">
<polygon fill="#e0e0e0" stroke="#999999" points="1591.25,-91.38 1497.25,-91.38 1497.25,-72.12 1591.25,-72.12 1591.25,-91.38"/>
<text text-anchor="middle" x="1544.25" y="-77.88" font-family="Helvetica,sans-Serif" font-size="10.00">llvm/ADT/Twine.h</text>
</a>
</g>
</g>
<!-- Node24&#45;&gt;Node26 -->
<g id="edge28_Node000024_Node000026" class="edge">
<title>Node24&#45;&gt;Node26</title>
<g id="a_edge28_Node000024_Node000026"><a xlink:title=" ">
<path fill="none" stroke="#63b8ff" d="M1544.25,-138.28C1544.25,-129.23 1544.25,-114.95 1544.25,-103.13"/>
<polygon fill="#63b8ff" stroke="#63b8ff" points="1547.75,-103.16 1544.25,-93.16 1540.75,-103.16 1547.75,-103.16"/>
</a>
</g>
</g>
<!-- Node27 -->
<g id="Node000027" class="node">
<title>Node27</title>
<g id="a_Node000027"><a xlink:title=" ">
<polygon fill="#e0e0e0" stroke="#999999" points="1750.88,-91.38 1609.62,-91.38 1609.62,-72.12 1750.88,-72.12 1750.88,-91.38"/>
<text text-anchor="middle" x="1680.25" y="-77.88" font-family="Helvetica,sans-Serif" font-size="10.00">llvm/Support/ErrorHandling.h</text>
</a>
</g>
</g>
<!-- Node24&#45;&gt;Node27 -->
<g id="edge29_Node000024_Node000027" class="edge">
<title>Node24&#45;&gt;Node27</title>
<g id="a_edge29_Node000024_Node000027"><a xlink:title=" ">
<path fill="none" stroke="#63b8ff" d="M1563.45,-138.15C1586.23,-127.34 1624.45,-109.21 1650.94,-96.65"/>
<polygon fill="#63b8ff" stroke="#63b8ff" points="1652.25,-99.9 1659.78,-92.46 1649.25,-93.58 1652.25,-99.9"/>
</a>
</g>
</g>
</g>
</svg>
