<?xml version="1.0" encoding="UTF-8" standalone="no"?>
<!DOCTYPE svg PUBLIC "-//W3C//DTD SVG 1.1//EN"
 "http://www.w3.org/Graphics/SVG/1.1/DTD/svg11.dtd">
<!-- Generated by graphviz version 12.2.1 (0)
 -->
<!-- Title: build/include/llzk/Dialect/Function/IR/Attrs.h.inc Pages: 1 -->
<svg width="3225pt" height="316pt"
 viewBox="0.00 0.00 3225.00 315.75" xmlns="http://www.w3.org/2000/svg" xmlns:xlink="http://www.w3.org/1999/xlink">
<g id="graph0" class="graph" transform="scale(1 1) rotate(0) translate(4 311.75)">
<title>build/include/llzk/Dialect/Function/IR/Attrs.h.inc</title>
<!-- Node1 -->
<g id="Node000001" class="node">
<title>Node1</title>
<g id="a_Node000001"><a xlink:title=" ">
<polygon fill="#999999" stroke="#666666" points="1896.88,-307.75 1793.12,-307.75 1793.12,-266 1896.88,-266 1896.88,-307.75"/>
<text text-anchor="start" x="1801.12" y="-294.25" font-family="Helvetica,sans-Serif" font-size="10.00">build/include/llzk</text>
<text text-anchor="start" x="1801.12" y="-283" font-family="Helvetica,sans-Serif" font-size="10.00">/Dialect/Function/IR</text>
<text text-anchor="middle" x="1845" y="-271.75" font-family="Helvetica,sans-Serif" font-size="10.00">/Attrs.h.inc</text>
</a>
</g>
</g>
<!-- Node2 -->
<g id="Node000002" class="node">
<title>Node2</title>
<g id="a_Node000002"><a xlink:href="_function_2_i_r_2_attrs_8h.html" target="_top" xlink:title=" ">
<polygon fill="white" stroke="#666666" points="1896.12,-230 1793.88,-230 1793.88,-199.5 1896.12,-199.5 1896.12,-230"/>
<text text-anchor="start" x="1801.88" y="-216.5" font-family="Helvetica,sans-Serif" font-size="10.00">include/llzk/Dialect</text>
<text text-anchor="middle" x="1845" y="-205.25" font-family="Helvetica,sans-Serif" font-size="10.00">/Function/IR/Attrs.h</text>
</a>
</g>
</g>
<!-- Node1&#45;&gt;Node2 -->
<g id="edge1_Node000001_Node000002" class="edge">
<title>Node1&#45;&gt;Node2</title>
<g id="a_edge1_Node000001_Node000002"><a xlink:title=" ">
<path fill="none" stroke="#63b8ff" d="M1845,-254.13C1845,-245.77 1845,-237.15 1845,-230.2"/>
<polygon fill="#63b8ff" stroke="#63b8ff" points="1841.5,-254.08 1845,-264.08 1848.5,-254.08 1841.5,-254.08"/>
</a>
</g>
</g>
<!-- Node3 -->
<g id="Node000003" class="node">
<title>Node3</title>
<g id="a_Node000003"><a xlink:href="_function_2_i_r_2_ops_8h.html" target="_top" xlink:title=" ">
<polygon fill="white" stroke="#666666" points="1855.62,-163.5 1756.38,-163.5 1756.38,-133 1855.62,-133 1855.62,-163.5"/>
<text text-anchor="start" x="1764.38" y="-150" font-family="Helvetica,sans-Serif" font-size="10.00">include/llzk/Dialect</text>
<text text-anchor="middle" x="1806" y="-138.75" font-family="Helvetica,sans-Serif" font-size="10.00">/Function/IR/Ops.h</text>
</a>
</g>
</g>
<!-- Node2&#45;&gt;Node3 -->
<g id="edge2_Node000002_Node000003" class="edge">
<title>Node2&#45;&gt;Node3</title>
<g id="a_edge2_Node000002_Node000003"><a xlink:title=" ">
<path fill="none" stroke="#63b8ff" d="M1830.34,-189.51C1825.12,-180.87 1819.4,-171.41 1814.81,-163.83"/>
<polygon fill="#63b8ff" stroke="#63b8ff" points="1827.2,-191.07 1835.37,-197.82 1833.19,-187.45 1827.2,-191.07"/>
</a>
</g>
</g>
<!-- Node21 -->
<g id="Node000021" class="node">
<title>Node21</title>
<g id="a_Node000021"><a xlink:href="_function_2_i_r_2_dialect_8cpp.html" target="_top" xlink:title=" ">
<polygon fill="white" stroke="#666666" points="3217,-97 3117,-97 3117,-66.5 3217,-66.5 3217,-97"/>
<text text-anchor="start" x="3125" y="-83.5" font-family="Helvetica,sans-Serif" font-size="10.00">lib/Dialect/Function</text>
<text text-anchor="middle" x="3167" y="-72.25" font-family="Helvetica,sans-Serif" font-size="10.00">/IR/Dialect.cpp</text>
</a>
</g>
</g>
<!-- Node2&#45;&gt;Node21 -->
<g id="edge31_Node000002_Node000021" class="edge">
<title>Node2&#45;&gt;Node21</title>
<g id="a_edge31_Node000002_Node000021"><a xlink:title=" ">
<path fill="none" stroke="#63b8ff" d="M1907.86,-211.16C2092.89,-202.86 2651.29,-172.85 3108,-97 3110.81,-96.53 3113.68,-96.01 3116.57,-95.44"/>
<polygon fill="#63b8ff" stroke="#63b8ff" points="1907.82,-207.66 1897.98,-211.6 1908.13,-214.65 1907.82,-207.66"/>
</a>
</g>
</g>
<!-- Node4 -->
<g id="Node000004" class="node">
<title>Node4</title>
<g id="a_Node000004"><a xlink:href="_call_graph_analyses_8h.html" target="_top" xlink:title=" ">
<polygon fill="white" stroke="#666666" points="367.62,-97 256.38,-97 256.38,-66.5 367.62,-66.5 367.62,-97"/>
<text text-anchor="start" x="264.38" y="-83.5" font-family="Helvetica,sans-Serif" font-size="10.00">include/llzk/Analysis</text>
<text text-anchor="middle" x="312" y="-72.25" font-family="Helvetica,sans-Serif" font-size="10.00">/CallGraphAnalyses.h</text>
</a>
</g>
</g>
<!-- Node3&#45;&gt;Node4 -->
<g id="edge3_Node000003_Node000004" class="edge">
<title>Node3&#45;&gt;Node4</title>
<g id="a_edge3_Node000003_Node000004"><a xlink:title=" ">
<path fill="none" stroke="#63b8ff" d="M1744.67,-146.38C1553.31,-143.36 950.21,-131.56 452,-97 424.22,-95.07 393.41,-92.04 367.79,-89.26"/>
<polygon fill="#63b8ff" stroke="#63b8ff" points="1744.58,-149.88 1754.63,-146.53 1744.69,-142.88 1744.58,-149.88"/>
</a>
</g>
</g>
<!-- Node5 -->
<g id="Node000005" class="node">
<title>Node5</title>
<g id="a_Node000005"><a xlink:href="_call_graph_analyses_8cpp.html" target="_top" xlink:title=" ">
<polygon fill="white" stroke="#666666" points="172,-24.88 0,-24.88 0,-5.63 172,-5.63 172,-24.88"/>
<text text-anchor="middle" x="86" y="-11.38" font-family="Helvetica,sans-Serif" font-size="10.00">lib/Analysis/CallGraphAnalyses.cpp</text>
</a>
</g>
</g>
<!-- Node3&#45;&gt;Node5 -->
<g id="edge13_Node000003_Node000005" class="edge">
<title>Node3&#45;&gt;Node5</title>
<g id="a_edge13_Node000003_Node000005"><a xlink:title=" ">
<path fill="none" stroke="#63b8ff" d="M1745.13,-146.83C1475.28,-144.78 393.85,-134.27 247,-97 187.9,-82 125.42,-43 99,-25.26"/>
<polygon fill="#63b8ff" stroke="#63b8ff" points="1744.71,-150.33 1754.74,-146.91 1744.76,-143.33 1744.71,-150.33"/>
</a>
</g>
</g>
<!-- Node6 -->
<g id="Node000006" class="node">
<title>Node6</title>
<g id="a_Node000006"><a xlink:href="_call_graph_passes_8cpp.html" target="_top" xlink:title="This file implements the &#45;llzk&#45;print&#45;call&#45;graph and &#45;llzk&#45;print&#45;call&#45;graph&#45;sccs passes.">
<polygon fill="white" stroke="#666666" points="524.25,-24.88 359.75,-24.88 359.75,-5.63 524.25,-5.63 524.25,-24.88"/>
<text text-anchor="middle" x="442" y="-11.38" font-family="Helvetica,sans-Serif" font-size="10.00">lib/Analysis/CallGraphPasses.cpp</text>
</a>
</g>
</g>
<!-- Node3&#45;&gt;Node6 -->
<g id="edge14_Node000003_Node000006" class="edge">
<title>Node3&#45;&gt;Node6</title>
<g id="a_edge14_Node000003_Node000006"><a xlink:title=" ">
<path fill="none" stroke="#63b8ff" d="M1744.78,-147.22C1506.28,-146.8 646.96,-142.11 534,-97 495.51,-81.63 462.28,-42.82 448.63,-25.2"/>
<polygon fill="#63b8ff" stroke="#63b8ff" points="1744.47,-150.72 1754.48,-147.24 1744.48,-143.72 1744.47,-150.72"/>
</a>
</g>
</g>
<!-- Node8 -->
<g id="Node000008" class="node">
<title>Node8</title>
<g id="a_Node000008"><a xlink:href="_interval_analysis_8h.html" target="_top" xlink:title=" ">
<polygon fill="white" stroke="#666666" points="648.62,-97 543.38,-97 543.38,-66.5 648.62,-66.5 648.62,-97"/>
<text text-anchor="start" x="551.38" y="-83.5" font-family="Helvetica,sans-Serif" font-size="10.00">include/llzk/Analysis</text>
<text text-anchor="middle" x="596" y="-72.25" font-family="Helvetica,sans-Serif" font-size="10.00">/IntervalAnalysis.h</text>
</a>
</g>
</g>
<!-- Node3&#45;&gt;Node8 -->
<g id="edge7_Node000003_Node000008" class="edge">
<title>Node3&#45;&gt;Node8</title>
<g id="a_edge7_Node000003_Node000008"><a xlink:title=" ">
<path fill="none" stroke="#63b8ff" d="M1744.72,-146.04C1538.54,-141.74 870.95,-125.89 658,-97 655.05,-96.6 652.02,-96.12 648.98,-95.6"/>
<polygon fill="#63b8ff" stroke="#63b8ff" points="1744.62,-149.54 1754.69,-146.25 1744.76,-142.54 1744.62,-149.54"/>
</a>
</g>
</g>
<!-- Node11 -->
<g id="Node000011" class="node">
<title>Node11</title>
<g id="a_Node000011"><a xlink:href="_builders_8h.html" target="_top" xlink:title=" ">
<polygon fill="white" stroke="#666666" points="765.25,-97 666.75,-97 666.75,-66.5 765.25,-66.5 765.25,-97"/>
<text text-anchor="start" x="674.75" y="-83.5" font-family="Helvetica,sans-Serif" font-size="10.00">include/llzk/Dialect</text>
<text text-anchor="middle" x="716" y="-72.25" font-family="Helvetica,sans-Serif" font-size="10.00">/Shared/Builders.h</text>
</a>
</g>
</g>
<!-- Node3&#45;&gt;Node11 -->
<g id="edge10_Node000003_Node000011" class="edge">
<title>Node3&#45;&gt;Node11</title>
<g id="a_edge10_Node000003_Node000011"><a xlink:title=" ">
<path fill="none" stroke="#63b8ff" d="M1744.83,-145.82C1552.74,-141.07 963.17,-124.58 774,-97 771.23,-96.6 768.4,-96.12 765.55,-95.59"/>
<polygon fill="#63b8ff" stroke="#63b8ff" points="1744.5,-149.31 1754.58,-146.05 1744.67,-142.31 1744.5,-149.31"/>
</a>
</g>
</g>
<!-- Node13 -->
<g id="Node000013" class="node">
<title>Node13</title>
<g id="a_Node000013"><a xlink:href="_call_graph_8cpp.html" target="_top" xlink:title=" ">
<polygon fill="white" stroke="#666666" points="914.75,-91.38 783.25,-91.38 783.25,-72.12 914.75,-72.12 914.75,-91.38"/>
<text text-anchor="middle" x="849" y="-77.88" font-family="Helvetica,sans-Serif" font-size="10.00">lib/Analysis/CallGraph.cpp</text>
</a>
</g>
</g>
<!-- Node3&#45;&gt;Node13 -->
<g id="edge12_Node000003_Node000013" class="edge">
<title>Node3&#45;&gt;Node13</title>
<g id="a_edge12_Node000003_Node000013"><a xlink:title=" ">
<path fill="none" stroke="#63b8ff" d="M1744.89,-146.52C1601.19,-144.19 1230.8,-134.72 924,-97 913.48,-95.71 902.21,-93.83 891.68,-91.86"/>
<polygon fill="#63b8ff" stroke="#63b8ff" points="1744.5,-150.01 1754.55,-146.67 1744.61,-143.01 1744.5,-150.01"/>
</a>
</g>
</g>
<!-- Node14 -->
<g id="Node000014" class="node">
<title>Node14</title>
<g id="a_Node000014"><a xlink:href="_constrain_ref_8cpp.html" target="_top" xlink:title=" ">
<polygon fill="white" stroke="#666666" points="1078.88,-91.38 933.12,-91.38 933.12,-72.12 1078.88,-72.12 1078.88,-91.38"/>
<text text-anchor="middle" x="1006" y="-77.88" font-family="Helvetica,sans-Serif" font-size="10.00">lib/Analysis/ConstrainRef.cpp</text>
</a>
</g>
</g>
<!-- Node3&#45;&gt;Node14 -->
<g id="edge15_Node000003_Node000014" class="edge">
<title>Node3&#45;&gt;Node14</title>
<g id="a_edge15_Node000003_Node000014"><a xlink:title=" ">
<path fill="none" stroke="#63b8ff" d="M1745,-145.14C1620.79,-140.36 1329.69,-126.75 1087,-97 1075.95,-95.65 1064.11,-93.79 1052.99,-91.87"/>
<polygon fill="#63b8ff" stroke="#63b8ff" points="1744.5,-148.62 1754.63,-145.5 1744.77,-141.62 1744.5,-148.62"/>
</a>
</g>
</g>
<!-- Node15 -->
<g id="Node000015" class="node">
<title>Node15</title>
<g id="a_Node000015"><a xlink:href="_constrain_ref_lattice_8cpp.html" target="_top" xlink:title=" ">
<polygon fill="white" stroke="#666666" points="1223.5,-97 1096.5,-97 1096.5,-66.5 1223.5,-66.5 1223.5,-97"/>
<text text-anchor="start" x="1104.5" y="-83.5" font-family="Helvetica,sans-Serif" font-size="10.00">lib/Analysis/ConstrainRef</text>
<text text-anchor="middle" x="1160" y="-72.25" font-family="Helvetica,sans-Serif" font-size="10.00">Lattice.cpp</text>
</a>
</g>
</g>
<!-- Node3&#45;&gt;Node15 -->
<g id="edge16_Node000003_Node000015" class="edge">
<title>Node3&#45;&gt;Node15</title>
<g id="a_edge16_Node000003_Node000015"><a xlink:title=" ">
<path fill="none" stroke="#63b8ff" d="M1744.54,-144.06C1639.23,-138.09 1417.67,-123.42 1232,-97 1229.35,-96.62 1226.65,-96.21 1223.93,-95.78"/>
<polygon fill="#63b8ff" stroke="#63b8ff" points="1744.2,-147.54 1754.37,-144.6 1744.59,-140.55 1744.2,-147.54"/>
</a>
</g>
</g>
<!-- Node16 -->
<g id="Node000016" class="node">
<title>Node16</title>
<g id="a_Node000016"><a xlink:href="_constraint_dependency_graph_8cpp.html" target="_top" xlink:title=" ">
<polygon fill="white" stroke="#666666" points="1410.5,-97 1241.5,-97 1241.5,-66.5 1410.5,-66.5 1410.5,-97"/>
<text text-anchor="start" x="1249.5" y="-83.5" font-family="Helvetica,sans-Serif" font-size="10.00">lib/Analysis/ConstraintDependency</text>
<text text-anchor="middle" x="1326" y="-72.25" font-family="Helvetica,sans-Serif" font-size="10.00">Graph.cpp</text>
</a>
</g>
</g>
<!-- Node3&#45;&gt;Node16 -->
<g id="edge17_Node000003_Node000016" class="edge">
<title>Node3&#45;&gt;Node16</title>
<g id="a_edge17_Node000003_Node000016"><a xlink:title=" ">
<path fill="none" stroke="#63b8ff" d="M1744.72,-139.68C1668.55,-130.17 1534.57,-113.14 1420,-97 1416.98,-96.57 1413.9,-96.14 1410.79,-95.69"/>
<polygon fill="#63b8ff" stroke="#63b8ff" points="1744.13,-143.13 1754.49,-140.89 1745,-136.18 1744.13,-143.13"/>
</a>
</g>
</g>
<!-- Node17 -->
<g id="Node000017" class="node">
<title>Node17</title>
<g id="a_Node000017"><a xlink:href="_dense_analysis_8cpp.html" target="_top" xlink:title=" ">
<polygon fill="white" stroke="#666666" points="1583,-91.38 1429,-91.38 1429,-72.12 1583,-72.12 1583,-91.38"/>
<text text-anchor="middle" x="1506" y="-77.88" font-family="Helvetica,sans-Serif" font-size="10.00">lib/Analysis/DenseAnalysis.cpp</text>
</a>
</g>
</g>
<!-- Node3&#45;&gt;Node17 -->
<g id="edge18_Node000003_Node000017" class="edge">
<title>Node3&#45;&gt;Node17</title>
<g id="a_edge18_Node000003_Node000017"><a xlink:title=" ">
<path fill="none" stroke="#63b8ff" d="M1745.17,-134.17C1686.61,-121.58 1599.57,-102.87 1548.23,-91.83"/>
<polygon fill="#63b8ff" stroke="#63b8ff" points="1744.13,-137.53 1754.64,-136.21 1745.6,-130.68 1744.13,-137.53"/>
</a>
</g>
</g>
<!-- Node18 -->
<g id="Node000018" class="node">
<title>Node18</title>
<g id="a_Node000018"><a xlink:href="_array_to_scalar_pass_8cpp.html" target="_top" xlink:title="This file implements the &#45;llzk&#45;array&#45;to&#45;scalar pass.">
<polygon fill="white" stroke="#666666" points="1739.12,-97 1600.88,-97 1600.88,-66.5 1739.12,-66.5 1739.12,-97"/>
<text text-anchor="start" x="1608.88" y="-83.5" font-family="Helvetica,sans-Serif" font-size="10.00">lib/Dialect/Array/Transforms</text>
<text text-anchor="middle" x="1670" y="-72.25" font-family="Helvetica,sans-Serif" font-size="10.00">/ArrayToScalarPass.cpp</text>
</a>
</g>
</g>
<!-- Node3&#45;&gt;Node18 -->
<g id="edge19_Node000003_Node000018" class="edge">
<title>Node3&#45;&gt;Node18</title>
<g id="a_edge19_Node000003_Node000018"><a xlink:title=" ">
<path fill="none" stroke="#63b8ff" d="M1764.77,-127.7C1744.17,-117.93 1719.67,-106.31 1700.74,-97.33"/>
<polygon fill="#63b8ff" stroke="#63b8ff" points="1763.24,-130.84 1773.77,-131.97 1766.24,-124.52 1763.24,-130.84"/>
</a>
</g>
</g>
<!-- Node19 -->
<g id="Node000019" class="node">
<title>Node19</title>
<g id="a_Node000019"><a xlink:href="_cast_2_i_r_2_ops_8cpp.html" target="_top" xlink:title=" ">
<polygon fill="white" stroke="#666666" points="1854.5,-97 1757.5,-97 1757.5,-66.5 1854.5,-66.5 1854.5,-97"/>
<text text-anchor="start" x="1765.5" y="-83.5" font-family="Helvetica,sans-Serif" font-size="10.00">lib/Dialect/Cast/IR</text>
<text text-anchor="middle" x="1806" y="-72.25" font-family="Helvetica,sans-Serif" font-size="10.00">/Ops.cpp</text>
</a>
</g>
</g>
<!-- Node3&#45;&gt;Node19 -->
<g id="edge20_Node000003_Node000019" class="edge">
<title>Node3&#45;&gt;Node19</title>
<g id="a_edge20_Node000003_Node000019"><a xlink:title=" ">
<path fill="none" stroke="#63b8ff" d="M1806,-121.31C1806,-113.14 1806,-104.41 1806,-97.33"/>
<polygon fill="#63b8ff" stroke="#63b8ff" points="1802.5,-121.1 1806,-131.1 1809.5,-121.1 1802.5,-121.1"/>
</a>
</g>
</g>
<!-- Node20 -->
<g id="Node000020" class="node">
<title>Node20</title>
<g id="a_Node000020"><a xlink:href="_constrain_2_i_r_2_ops_8cpp.html" target="_top" xlink:title=" ">
<polygon fill="white" stroke="#666666" points="1977.25,-97 1872.75,-97 1872.75,-66.5 1977.25,-66.5 1977.25,-97"/>
<text text-anchor="start" x="1880.75" y="-83.5" font-family="Helvetica,sans-Serif" font-size="10.00">lib/Dialect/Constrain</text>
<text text-anchor="middle" x="1925" y="-72.25" font-family="Helvetica,sans-Serif" font-size="10.00">/IR/Ops.cpp</text>
</a>
</g>
</g>
<!-- Node3&#45;&gt;Node20 -->
<g id="edge21_Node000003_Node000020" class="edge">
<title>Node3&#45;&gt;Node20</title>
<g id="a_edge21_Node000003_Node000020"><a xlink:title=" ">
<path fill="none" stroke="#63b8ff" d="M1843.07,-127.16C1860.89,-117.5 1881.84,-106.14 1898.1,-97.33"/>
<polygon fill="#63b8ff" stroke="#63b8ff" points="1841.46,-124.05 1834.33,-131.89 1844.79,-130.2 1841.46,-124.05"/>
</a>
</g>
</g>
<!-- Node3&#45;&gt;Node21 -->
<g id="edge22_Node000003_Node000021" class="edge">
<title>Node3&#45;&gt;Node21</title>
<g id="a_edge22_Node000003_Node000021"><a xlink:title=" ">
<path fill="none" stroke="#63b8ff" d="M1867.48,-146.49C2091.52,-143.49 2863.8,-130.86 3108,-97 3110.82,-96.61 3113.7,-96.14 3116.6,-95.62"/>
<polygon fill="#63b8ff" stroke="#63b8ff" points="1867.45,-142.99 1857.5,-146.63 1867.55,-149.99 1867.45,-142.99"/>
</a>
</g>
</g>
<!-- Node22 -->
<g id="Node000022" class="node">
<title>Node22</title>
<g id="a_Node000022"><a xlink:href="_op_traits_8cpp.html" target="_top" xlink:title=" ">
<polygon fill="white" stroke="#666666" points="2095,-97 1995,-97 1995,-66.5 2095,-66.5 2095,-97"/>
<text text-anchor="start" x="2003" y="-83.5" font-family="Helvetica,sans-Serif" font-size="10.00">lib/Dialect/Function</text>
<text text-anchor="middle" x="2045" y="-72.25" font-family="Helvetica,sans-Serif" font-size="10.00">/IR/OpTraits.cpp</text>
</a>
</g>
</g>
<!-- Node3&#45;&gt;Node22 -->
<g id="edge23_Node000003_Node000022" class="edge">
<title>Node3&#45;&gt;Node22</title>
<g id="a_edge23_Node000003_Node000022"><a xlink:title=" ">
<path fill="none" stroke="#63b8ff" d="M1867.18,-130.74C1906.66,-120.08 1957.39,-106.39 1994.55,-96.36"/>
<polygon fill="#63b8ff" stroke="#63b8ff" points="1866.31,-127.35 1857.56,-133.33 1868.13,-134.11 1866.31,-127.35"/>
</a>
</g>
</g>
<!-- Node23 -->
<g id="Node000023" class="node">
<title>Node23</title>
<g id="a_Node000023"><a xlink:href="_function_2_i_r_2_ops_8cpp.html" target="_top" xlink:title=" ">
<polygon fill="white" stroke="#666666" points="2213,-97 2113,-97 2113,-66.5 2213,-66.5 2213,-97"/>
<text text-anchor="start" x="2121" y="-83.5" font-family="Helvetica,sans-Serif" font-size="10.00">lib/Dialect/Function</text>
<text text-anchor="middle" x="2163" y="-72.25" font-family="Helvetica,sans-Serif" font-size="10.00">/IR/Ops.cpp</text>
</a>
</g>
</g>
<!-- Node3&#45;&gt;Node23 -->
<g id="edge24_Node000003_Node000023" class="edge">
<title>Node3&#45;&gt;Node23</title>
<g id="a_edge24_Node000003_Node000023"><a xlink:title=" ">
<path fill="none" stroke="#63b8ff" d="M1867.26,-138.2C1927.67,-128.98 2022.51,-113.69 2104,-97 2106.79,-96.43 2109.64,-95.82 2112.52,-95.19"/>
<polygon fill="#63b8ff" stroke="#63b8ff" points="1866.88,-134.72 1857.52,-139.68 1867.93,-141.64 1866.88,-134.72"/>
</a>
</g>
</g>
<!-- Node24 -->
<g id="Node000024" class="node">
<title>Node24</title>
<g id="a_Node000024"><a xlink:href="_l_l_z_k_2_i_r_2_dialect_8cpp.html" target="_top" xlink:title=" ">
<polygon fill="white" stroke="#666666" points="2330.62,-97 2231.38,-97 2231.38,-66.5 2330.62,-66.5 2330.62,-97"/>
<text text-anchor="start" x="2239.38" y="-83.5" font-family="Helvetica,sans-Serif" font-size="10.00">lib/Dialect/LLZK/IR</text>
<text text-anchor="middle" x="2281" y="-72.25" font-family="Helvetica,sans-Serif" font-size="10.00">/Dialect.cpp</text>
</a>
</g>
</g>
<!-- Node3&#45;&gt;Node24 -->
<g id="edge25_Node000003_Node000024" class="edge">
<title>Node3&#45;&gt;Node24</title>
<g id="a_edge25_Node000003_Node000024"><a xlink:title=" ">
<path fill="none" stroke="#63b8ff" d="M1866.93,-142.14C1948.29,-134.8 2096.7,-119.62 2222,-97 2225.01,-96.46 2228.09,-95.85 2231.19,-95.21"/>
<polygon fill="#63b8ff" stroke="#63b8ff" points="1867.07,-138.61 1857.42,-142.99 1867.69,-145.58 1867.07,-138.61"/>
</a>
</g>
</g>
<!-- Node25 -->
<g id="Node000025" class="node">
<title>Node25</title>
<g id="a_Node000025"><a xlink:href="_flattening_pass_8cpp.html" target="_top" xlink:title="This file implements the &#45;llzk&#45;flatten pass.">
<polygon fill="white" stroke="#666666" points="2503.75,-97 2348.25,-97 2348.25,-66.5 2503.75,-66.5 2503.75,-97"/>
<text text-anchor="start" x="2356.25" y="-83.5" font-family="Helvetica,sans-Serif" font-size="10.00">lib/Dialect/Polymorphic</text>
<text text-anchor="middle" x="2426" y="-72.25" font-family="Helvetica,sans-Serif" font-size="10.00">/Transforms/FlatteningPass.cpp</text>
</a>
</g>
</g>
<!-- Node3&#45;&gt;Node25 -->
<g id="edge26_Node000003_Node000025" class="edge">
<title>Node3&#45;&gt;Node25</title>
<g id="a_edge26_Node000003_Node000025"><a xlink:title=" ">
<path fill="none" stroke="#63b8ff" d="M1867.14,-142.9C1966.53,-135.52 2169.23,-119.15 2340,-97 2342.55,-96.67 2345.14,-96.32 2347.76,-95.95"/>
<polygon fill="#63b8ff" stroke="#63b8ff" points="1867.05,-139.4 1857.33,-143.63 1867.56,-146.38 1867.05,-139.4"/>
</a>
</g>
</g>
<!-- Node26 -->
<g id="Node000026" class="node">
<title>Node26</title>
<g id="a_Node000026"><a xlink:href="_struct_2_i_r_2_ops_8cpp.html" target="_top" xlink:title=" ">
<polygon fill="white" stroke="#666666" points="2610.38,-97 2521.62,-97 2521.62,-66.5 2610.38,-66.5 2610.38,-97"/>
<text text-anchor="start" x="2529.62" y="-83.5" font-family="Helvetica,sans-Serif" font-size="10.00">lib/Dialect/Struct</text>
<text text-anchor="middle" x="2566" y="-72.25" font-family="Helvetica,sans-Serif" font-size="10.00">/IR/Ops.cpp</text>
</a>
</g>
</g>
<!-- Node3&#45;&gt;Node26 -->
<g id="edge27_Node000003_Node000026" class="edge">
<title>Node3&#45;&gt;Node26</title>
<g id="a_edge27_Node000003_Node000026"><a xlink:title=" ">
<path fill="none" stroke="#63b8ff" d="M1867.52,-146.83C1990.85,-145.12 2276.72,-136.78 2513,-97 2515.72,-96.54 2518.51,-96 2521.31,-95.41"/>
<polygon fill="#63b8ff" stroke="#63b8ff" points="1867.57,-143.33 1857.62,-146.96 1867.66,-150.33 1867.57,-143.33"/>
</a>
</g>
</g>
<!-- Node27 -->
<g id="Node000027" class="node">
<title>Node27</title>
<g id="a_Node000027"><a xlink:href="_l_l_z_k_redundant_read_and_write_elimination_pass_8cpp.html" target="_top" xlink:title="This file implements the &#45;llzk&#45;duplicate&#45;read&#45;write&#45;elim pass.">
<polygon fill="white" stroke="#666666" points="2797.12,-97 2628.88,-97 2628.88,-66.5 2797.12,-66.5 2797.12,-97"/>
<text text-anchor="start" x="2636.88" y="-83.5" font-family="Helvetica,sans-Serif" font-size="10.00">lib/Transforms/LLZKRedundant</text>
<text text-anchor="middle" x="2713" y="-72.25" font-family="Helvetica,sans-Serif" font-size="10.00">ReadAndWriteEliminationPass.cpp</text>
</a>
</g>
</g>
<!-- Node3&#45;&gt;Node27 -->
<g id="edge28_Node000003_Node000027" class="edge">
<title>Node3&#45;&gt;Node27</title>
<g id="a_edge28_Node000003_Node000027"><a xlink:title=" ">
<path fill="none" stroke="#63b8ff" d="M1867.45,-145.31C2003.28,-140.63 2339.23,-126.79 2619,-97 2622.12,-96.67 2625.29,-96.31 2628.49,-95.92"/>
<polygon fill="#63b8ff" stroke="#63b8ff" points="1867.47,-141.81 1857.6,-145.65 1867.71,-148.81 1867.47,-141.81"/>
</a>
</g>
</g>
<!-- Node28 -->
<g id="Node000028" class="node">
<title>Node28</title>
<g id="a_Node000028"><a xlink:href="_symbol_helper_8cpp.html" target="_top" xlink:title="This file contains the implementations for symbol helper functions.">
<polygon fill="white" stroke="#666666" points="2941.12,-91.38 2814.88,-91.38 2814.88,-72.12 2941.12,-72.12 2941.12,-91.38"/>
<text text-anchor="middle" x="2878" y="-77.88" font-family="Helvetica,sans-Serif" font-size="10.00">lib/Util/SymbolHelper.cpp</text>
</a>
</g>
</g>
<!-- Node3&#45;&gt;Node28 -->
<g id="edge29_Node000003_Node000028" class="edge">
<title>Node3&#45;&gt;Node28</title>
<g id="a_edge29_Node000003_Node000028"><a xlink:title=" ">
<path fill="none" stroke="#63b8ff" d="M1867.15,-147.26C2023.86,-146.61 2452.34,-140.65 2806,-97 2816.24,-95.74 2827.21,-93.84 2837.42,-91.85"/>
<polygon fill="#63b8ff" stroke="#63b8ff" points="1867.41,-143.76 1857.42,-147.29 1867.43,-150.76 1867.41,-143.76"/>
</a>
</g>
</g>
<!-- Node29 -->
<g id="Node000029" class="node">
<title>Node29</title>
<g id="a_Node000029"><a xlink:href="_l_l_z_k_validation_passes_8cpp.html" target="_top" xlink:title="This file contains the implementation for the &#45;llzk&#45;validate&#45;field&#45;writes pass.">
<polygon fill="white" stroke="#666666" points="3098.88,-97 2959.12,-97 2959.12,-66.5 3098.88,-66.5 3098.88,-97"/>
<text text-anchor="start" x="2967.12" y="-83.5" font-family="Helvetica,sans-Serif" font-size="10.00">lib/Validators/LLZKValidation</text>
<text text-anchor="middle" x="3029" y="-72.25" font-family="Helvetica,sans-Serif" font-size="10.00">Passes.cpp</text>
</a>
</g>
</g>
<!-- Node3&#45;&gt;Node29 -->
<g id="edge30_Node000003_Node000029" class="edge">
<title>Node3&#45;&gt;Node29</title>
<g id="a_edge30_Node000003_Node000029"><a xlink:title=" ">
<path fill="none" stroke="#63b8ff" d="M1867.39,-147.45C2039.05,-147.39 2538.38,-142.95 2950,-97 2952.91,-96.68 2955.87,-96.31 2958.86,-95.91"/>
<polygon fill="#63b8ff" stroke="#63b8ff" points="1867.6,-143.95 1857.6,-147.45 1867.6,-150.95 1867.6,-143.95"/>
</a>
</g>
</g>
<!-- Node4&#45;&gt;Node5 -->
<g id="edge4_Node000004_Node000005" class="edge">
<title>Node4&#45;&gt;Node5</title>
<g id="a_edge4_Node000004_Node000005"><a xlink:title=" ">
<path fill="none" stroke="#63b8ff" d="M249.57,-62.93C206.81,-50.73 151.89,-35.05 117.82,-25.33"/>
<polygon fill="#63b8ff" stroke="#63b8ff" points="248.4,-66.24 258.98,-65.62 250.32,-59.51 248.4,-66.24"/>
</a>
</g>
</g>
<!-- Node4&#45;&gt;Node6 -->
<g id="edge5_Node000004_Node000006" class="edge">
<title>Node4&#45;&gt;Node6</title>
<g id="a_edge5_Node000004_Node000006"><a xlink:title=" ">
<path fill="none" stroke="#63b8ff" d="M351.75,-61.03C375.78,-49.1 405.26,-34.48 423.84,-25.26"/>
<polygon fill="#63b8ff" stroke="#63b8ff" points="350.26,-57.86 342.85,-65.44 353.37,-64.13 350.26,-57.86"/>
</a>
</g>
</g>
<!-- Node7 -->
<g id="Node000007" class="node">
<title>Node7</title>
<g id="a_Node000007"><a xlink:href="_l_l_z_k_redundant_operation_elimination_pass_8cpp.html" target="_top" xlink:title="This file implements the &#45;llzk&#45;duplicate&#45;op&#45;elim pass.">
<polygon fill="white" stroke="#666666" points="341.88,-30.5 190.12,-30.5 190.12,0 341.88,0 341.88,-30.5"/>
<text text-anchor="start" x="198.12" y="-17" font-family="Helvetica,sans-Serif" font-size="10.00">lib/Transforms/LLZKRedundant</text>
<text text-anchor="middle" x="266" y="-5.75" font-family="Helvetica,sans-Serif" font-size="10.00">OperationEliminationPass.cpp</text>
</a>
</g>
</g>
<!-- Node4&#45;&gt;Node7 -->
<g id="edge6_Node000004_Node000007" class="edge">
<title>Node4&#45;&gt;Node7</title>
<g id="a_edge6_Node000004_Node000007"><a xlink:title=" ">
<path fill="none" stroke="#63b8ff" d="M294.91,-56.79C288.69,-48.07 281.86,-38.49 276.4,-30.83"/>
<polygon fill="#63b8ff" stroke="#63b8ff" points="292.03,-58.77 300.68,-64.88 297.73,-54.71 292.03,-58.77"/>
</a>
</g>
</g>
<!-- Node9 -->
<g id="Node000009" class="node">
<title>Node9</title>
<g id="a_Node000009"><a xlink:href="_interval_analysis_8cpp.html" target="_top" xlink:title=" ">
<polygon fill="white" stroke="#666666" points="699.88,-24.88 542.12,-24.88 542.12,-5.63 699.88,-5.63 699.88,-24.88"/>
<text text-anchor="middle" x="621" y="-11.38" font-family="Helvetica,sans-Serif" font-size="10.00">lib/Analysis/IntervalAnalysis.cpp</text>
</a>
</g>
</g>
<!-- Node8&#45;&gt;Node9 -->
<g id="edge8_Node000008_Node000009" class="edge">
<title>Node8&#45;&gt;Node9</title>
<g id="a_edge8_Node000008_Node000009"><a xlink:title=" ">
<path fill="none" stroke="#63b8ff" d="M605.78,-55.52C609.95,-44.76 614.54,-32.91 617.58,-25.07"/>
<polygon fill="#63b8ff" stroke="#63b8ff" points="602.57,-54.11 602.22,-64.7 609.1,-56.64 602.57,-54.11"/>
</a>
</g>
</g>
<!-- Node10 -->
<g id="Node000010" class="node">
<title>Node10</title>
<g id="a_Node000010"><a xlink:href="_interval_analysis_pass_8cpp.html" target="_top" xlink:title="This file implements the &#45;llzk&#45;print&#45;interval&#45;analysis pass.">
<polygon fill="white" stroke="#666666" points="856.5,-30.5 717.5,-30.5 717.5,0 856.5,0 856.5,-30.5"/>
<text text-anchor="start" x="725.5" y="-17" font-family="Helvetica,sans-Serif" font-size="10.00">lib/Analysis/IntervalAnalysis</text>
<text text-anchor="middle" x="787" y="-5.75" font-family="Helvetica,sans-Serif" font-size="10.00">Pass.cpp</text>
</a>
</g>
</g>
<!-- Node8&#45;&gt;Node10 -->
<g id="edge9_Node000008_Node000010" class="edge">
<title>Node8&#45;&gt;Node10</title>
<g id="a_edge9_Node000008_Node000010"><a xlink:title=" ">
<path fill="none" stroke="#63b8ff" d="M649.92,-62.54C679.51,-52.55 715.73,-40.32 743.5,-30.94"/>
<polygon fill="#63b8ff" stroke="#63b8ff" points="649.13,-59.11 640.77,-65.63 651.37,-65.75 649.13,-59.11"/>
</a>
</g>
</g>
<!-- Node12 -->
<g id="Node000012" class="node">
<title>Node12</title>
<g id="a_Node000012"><a xlink:href="_builders_8cpp.html" target="_top" xlink:title=" ">
<polygon fill="white" stroke="#666666" points="967.62,-30.5 874.38,-30.5 874.38,0 967.62,0 967.62,-30.5"/>
<text text-anchor="start" x="882.38" y="-17" font-family="Helvetica,sans-Serif" font-size="10.00">lib/Dialect/Shared</text>
<text text-anchor="middle" x="921" y="-5.75" font-family="Helvetica,sans-Serif" font-size="10.00">/Builders.cpp</text>
</a>
</g>
</g>
<!-- Node11&#45;&gt;Node12 -->
<g id="edge11_Node000011_Node000012" class="edge">
<title>Node11&#45;&gt;Node12</title>
<g id="a_edge11_Node000011_Node000012"><a xlink:title=" ">
<path fill="none" stroke="#63b8ff" d="M773.71,-62.59C805.54,-52.58 844.55,-40.3 874.43,-30.9"/>
<polygon fill="#63b8ff" stroke="#63b8ff" points="772.71,-59.24 764.22,-65.58 774.81,-65.92 772.71,-59.24"/>
</a>
</g>
</g>
</g>
</svg>
