<?xml version="1.0" encoding="UTF-8" standalone="no"?>
<!DOCTYPE svg PUBLIC "-//W3C//DTD SVG 1.1//EN"
 "http://www.w3.org/Graphics/SVG/1.1/DTD/svg11.dtd">
<!-- Generated by graphviz version 12.2.1 (0)
 -->
<!-- Title: include/llzk/Dialect/Function/IR/Ops.h Pages: 1 -->
<svg width="3225pt" height="172pt"
 viewBox="0.00 0.00 3224.88 171.50" xmlns="http://www.w3.org/2000/svg" xmlns:xlink="http://www.w3.org/1999/xlink">
<g id="graph0" class="graph" transform="scale(1 1) rotate(0) translate(4 167.5)">
<title>include/llzk/Dialect/Function/IR/Ops.h</title>
<!-- Node1 -->
<g id="Node000001" class="node">
<title>Node1</title>
<g id="a_Node000001"><a xlink:title=" ">
<polygon fill="#999999" stroke="#666666" points="1787.62,-163.5 1688.38,-163.5 1688.38,-133 1787.62,-133 1787.62,-163.5"/>
<text text-anchor="start" x="1696.38" y="-150" font-family="Helvetica,sans-Serif" font-size="10.00">include/llzk/Dialect</text>
<text text-anchor="middle" x="1738" y="-138.75" font-family="Helvetica,sans-Serif" font-size="10.00">/Function/IR/Ops.h</text>
</a>
</g>
</g>
<!-- Node2 -->
<g id="Node000002" class="node">
<title>Node2</title>
<g id="a_Node000002"><a xlink:href="_call_graph_analyses_8h.html" target="_top" xlink:title=" ">
<polygon fill="white" stroke="#666666" points="367.62,-97 256.38,-97 256.38,-66.5 367.62,-66.5 367.62,-97"/>
<text text-anchor="start" x="264.38" y="-83.5" font-family="Helvetica,sans-Serif" font-size="10.00">include/llzk/Analysis</text>
<text text-anchor="middle" x="312" y="-72.25" font-family="Helvetica,sans-Serif" font-size="10.00">/CallGraphAnalyses.h</text>
</a>
</g>
</g>
<!-- Node1&#45;&gt;Node2 -->
<g id="edge1_Node000001_Node000002" class="edge">
<title>Node1&#45;&gt;Node2</title>
<g id="a_edge1_Node000001_Node000002"><a xlink:title=" ">
<path fill="none" stroke="#63b8ff" d="M1676.61,-146.21C1491.49,-142.78 922.5,-130.11 452,-97 424.22,-95.05 393.42,-92.01 367.79,-89.23"/>
<polygon fill="#63b8ff" stroke="#63b8ff" points="1676.41,-149.71 1686.48,-146.39 1676.54,-142.71 1676.41,-149.71"/>
</a>
</g>
</g>
<!-- Node3 -->
<g id="Node000003" class="node">
<title>Node3</title>
<g id="a_Node000003"><a xlink:href="_call_graph_analyses_8cpp.html" target="_top" xlink:title=" ">
<polygon fill="white" stroke="#666666" points="172,-24.88 0,-24.88 0,-5.63 172,-5.63 172,-24.88"/>
<text text-anchor="middle" x="86" y="-11.38" font-family="Helvetica,sans-Serif" font-size="10.00">lib/Analysis/CallGraphAnalyses.cpp</text>
</a>
</g>
</g>
<!-- Node1&#45;&gt;Node3 -->
<g id="edge11_Node000001_Node000003" class="edge">
<title>Node1&#45;&gt;Node3</title>
<g id="a_edge11_Node000001_Node000003"><a xlink:title=" ">
<path fill="none" stroke="#63b8ff" d="M1676.81,-146.73C1413.86,-144.31 386.89,-132.61 247,-97 187.91,-81.96 125.42,-42.98 99,-25.26"/>
<polygon fill="#63b8ff" stroke="#63b8ff" points="1676.48,-150.23 1686.51,-146.82 1676.54,-143.23 1676.48,-150.23"/>
</a>
</g>
</g>
<!-- Node4 -->
<g id="Node000004" class="node">
<title>Node4</title>
<g id="a_Node000004"><a xlink:href="_call_graph_passes_8cpp.html" target="_top" xlink:title="This file implements the &#45;llzk&#45;print&#45;call&#45;graph and &#45;llzk&#45;print&#45;call&#45;graph&#45;sccs passes.">
<polygon fill="white" stroke="#666666" points="524.25,-24.88 359.75,-24.88 359.75,-5.63 524.25,-5.63 524.25,-24.88"/>
<text text-anchor="middle" x="442" y="-11.38" font-family="Helvetica,sans-Serif" font-size="10.00">lib/Analysis/CallGraphPasses.cpp</text>
</a>
</g>
</g>
<!-- Node1&#45;&gt;Node4 -->
<g id="edge12_Node000001_Node000004" class="edge">
<title>Node1&#45;&gt;Node4</title>
<g id="a_edge12_Node000001_Node000004"><a xlink:title=" ">
<path fill="none" stroke="#63b8ff" d="M1676.69,-147.07C1446.34,-146.09 640.36,-139.61 534,-97 495.53,-81.59 462.29,-42.8 448.63,-25.19"/>
<polygon fill="#63b8ff" stroke="#63b8ff" points="1676.65,-150.57 1686.66,-147.12 1676.68,-143.57 1676.65,-150.57"/>
</a>
</g>
</g>
<!-- Node6 -->
<g id="Node000006" class="node">
<title>Node6</title>
<g id="a_Node000006"><a xlink:href="_interval_analysis_8h.html" target="_top" xlink:title=" ">
<polygon fill="white" stroke="#666666" points="648.62,-97 543.38,-97 543.38,-66.5 648.62,-66.5 648.62,-97"/>
<text text-anchor="start" x="551.38" y="-83.5" font-family="Helvetica,sans-Serif" font-size="10.00">include/llzk/Analysis</text>
<text text-anchor="middle" x="596" y="-72.25" font-family="Helvetica,sans-Serif" font-size="10.00">/IntervalAnalysis.h</text>
</a>
</g>
</g>
<!-- Node1&#45;&gt;Node6 -->
<g id="edge5_Node000001_Node000006" class="edge">
<title>Node1&#45;&gt;Node6</title>
<g id="a_edge5_Node000001_Node000006"><a xlink:title=" ">
<path fill="none" stroke="#63b8ff" d="M1676.7,-145.85C1478.62,-141.08 857.08,-124.29 658,-97 655.05,-96.6 652.02,-96.12 648.98,-95.59"/>
<polygon fill="#63b8ff" stroke="#63b8ff" points="1676.43,-149.34 1686.52,-146.08 1676.6,-142.34 1676.43,-149.34"/>
</a>
</g>
</g>
<!-- Node9 -->
<g id="Node000009" class="node">
<title>Node9</title>
<g id="a_Node000009"><a xlink:href="_builders_8h.html" target="_top" xlink:title=" ">
<polygon fill="white" stroke="#666666" points="765.25,-97 666.75,-97 666.75,-66.5 765.25,-66.5 765.25,-97"/>
<text text-anchor="start" x="674.75" y="-83.5" font-family="Helvetica,sans-Serif" font-size="10.00">include/llzk/Dialect</text>
<text text-anchor="middle" x="716" y="-72.25" font-family="Helvetica,sans-Serif" font-size="10.00">/Shared/Builders.h</text>
</a>
</g>
</g>
<!-- Node1&#45;&gt;Node9 -->
<g id="edge8_Node000001_Node000009" class="edge">
<title>Node1&#45;&gt;Node9</title>
<g id="a_edge8_Node000001_Node000009"><a xlink:title=" ">
<path fill="none" stroke="#63b8ff" d="M1676.56,-148.05C1523.3,-149.18 1112.11,-146.89 774,-97 771.23,-96.59 768.4,-96.11 765.55,-95.58"/>
<polygon fill="#63b8ff" stroke="#63b8ff" points="1676.52,-151.55 1686.49,-147.97 1676.46,-144.55 1676.52,-151.55"/>
</a>
</g>
</g>
<!-- Node11 -->
<g id="Node000011" class="node">
<title>Node11</title>
<g id="a_Node000011"><a xlink:href="_call_graph_8cpp.html" target="_top" xlink:title=" ">
<polygon fill="white" stroke="#666666" points="914.75,-91.38 783.25,-91.38 783.25,-72.12 914.75,-72.12 914.75,-91.38"/>
<text text-anchor="middle" x="849" y="-77.88" font-family="Helvetica,sans-Serif" font-size="10.00">lib/Analysis/CallGraph.cpp</text>
</a>
</g>
</g>
<!-- Node1&#45;&gt;Node11 -->
<g id="edge10_Node000001_Node000011" class="edge">
<title>Node1&#45;&gt;Node11</title>
<g id="a_edge10_Node000001_Node000011"><a xlink:title=" ">
<path fill="none" stroke="#63b8ff" d="M1676.88,-146.11C1541.03,-142.99 1203.85,-132.08 924,-97 913.48,-95.68 902.21,-93.79 891.69,-91.82"/>
<polygon fill="#63b8ff" stroke="#63b8ff" points="1676.66,-149.6 1686.73,-146.33 1676.81,-142.6 1676.66,-149.6"/>
</a>
</g>
</g>
<!-- Node12 -->
<g id="Node000012" class="node">
<title>Node12</title>
<g id="a_Node000012"><a xlink:href="_constrain_ref_8cpp.html" target="_top" xlink:title=" ">
<polygon fill="white" stroke="#666666" points="1078.88,-91.38 933.12,-91.38 933.12,-72.12 1078.88,-72.12 1078.88,-91.38"/>
<text text-anchor="middle" x="1006" y="-77.88" font-family="Helvetica,sans-Serif" font-size="10.00">lib/Analysis/ConstrainRef.cpp</text>
</a>
</g>
</g>
<!-- Node1&#45;&gt;Node12 -->
<g id="edge13_Node000001_Node000012" class="edge">
<title>Node1&#45;&gt;Node12</title>
<g id="a_edge13_Node000001_Node000012"><a xlink:title=" ">
<path fill="none" stroke="#63b8ff" d="M1676.7,-144.45C1561.2,-138.76 1303.53,-124 1088,-97 1076.82,-95.6 1064.84,-93.73 1053.58,-91.81"/>
<polygon fill="#63b8ff" stroke="#63b8ff" points="1676.42,-147.94 1686.58,-144.94 1676.76,-140.95 1676.42,-147.94"/>
</a>
</g>
</g>
<!-- Node13 -->
<g id="Node000013" class="node">
<title>Node13</title>
<g id="a_Node000013"><a xlink:href="_constrain_ref_lattice_8cpp.html" target="_top" xlink:title=" ">
<polygon fill="white" stroke="#666666" points="1223.5,-97 1096.5,-97 1096.5,-66.5 1223.5,-66.5 1223.5,-97"/>
<text text-anchor="start" x="1104.5" y="-83.5" font-family="Helvetica,sans-Serif" font-size="10.00">lib/Analysis/ConstrainRef</text>
<text text-anchor="middle" x="1160" y="-72.25" font-family="Helvetica,sans-Serif" font-size="10.00">Lattice.cpp</text>
</a>
</g>
</g>
<!-- Node1&#45;&gt;Node13 -->
<g id="edge14_Node000001_Node000013" class="edge">
<title>Node1&#45;&gt;Node13</title>
<g id="a_edge14_Node000001_Node000013"><a xlink:title=" ">
<path fill="none" stroke="#63b8ff" d="M1676.57,-143C1581.27,-135.99 1392.2,-120.41 1233,-97 1229.93,-96.55 1226.8,-96.06 1223.64,-95.54"/>
<polygon fill="#63b8ff" stroke="#63b8ff" points="1676.26,-146.49 1686.48,-143.72 1676.76,-139.51 1676.26,-146.49"/>
</a>
</g>
</g>
<!-- Node14 -->
<g id="Node000014" class="node">
<title>Node14</title>
<g id="a_Node000014"><a xlink:href="_constraint_dependency_graph_8cpp.html" target="_top" xlink:title=" ">
<polygon fill="white" stroke="#666666" points="1410.5,-97 1241.5,-97 1241.5,-66.5 1410.5,-66.5 1410.5,-97"/>
<text text-anchor="start" x="1249.5" y="-83.5" font-family="Helvetica,sans-Serif" font-size="10.00">lib/Analysis/ConstraintDependency</text>
<text text-anchor="middle" x="1326" y="-72.25" font-family="Helvetica,sans-Serif" font-size="10.00">Graph.cpp</text>
</a>
</g>
</g>
<!-- Node1&#45;&gt;Node14 -->
<g id="edge15_Node000001_Node000014" class="edge">
<title>Node1&#45;&gt;Node14</title>
<g id="a_edge15_Node000001_Node000014"><a xlink:title=" ">
<path fill="none" stroke="#63b8ff" d="M1676.55,-137.63C1606.01,-126.59 1489.88,-108.41 1410.77,-96.02"/>
<polygon fill="#63b8ff" stroke="#63b8ff" points="1675.98,-141.08 1686.4,-139.17 1677.06,-134.17 1675.98,-141.08"/>
</a>
</g>
</g>
<!-- Node15 -->
<g id="Node000015" class="node">
<title>Node15</title>
<g id="a_Node000015"><a xlink:href="_dense_analysis_8cpp.html" target="_top" xlink:title=" ">
<polygon fill="white" stroke="#666666" points="1583,-91.38 1429,-91.38 1429,-72.12 1583,-72.12 1583,-91.38"/>
<text text-anchor="middle" x="1506" y="-77.88" font-family="Helvetica,sans-Serif" font-size="10.00">lib/Analysis/DenseAnalysis.cpp</text>
</a>
</g>
</g>
<!-- Node1&#45;&gt;Node15 -->
<g id="edge16_Node000001_Node000015" class="edge">
<title>Node1&#45;&gt;Node15</title>
<g id="a_edge16_Node000001_Node000015"><a xlink:title=" ">
<path fill="none" stroke="#63b8ff" d="M1677.02,-130.3C1632.77,-118 1574.63,-101.83 1538.81,-91.87"/>
<polygon fill="#63b8ff" stroke="#63b8ff" points="1675.91,-133.62 1686.49,-132.93 1677.79,-126.88 1675.91,-133.62"/>
</a>
</g>
</g>
<!-- Node16 -->
<g id="Node000016" class="node">
<title>Node16</title>
<g id="a_Node000016"><a xlink:href="_array_to_scalar_pass_8cpp.html" target="_top" xlink:title="This file implements the &#45;llzk&#45;array&#45;to&#45;scalar pass.">
<polygon fill="white" stroke="#666666" points="1739.12,-97 1600.88,-97 1600.88,-66.5 1739.12,-66.5 1739.12,-97"/>
<text text-anchor="start" x="1608.88" y="-83.5" font-family="Helvetica,sans-Serif" font-size="10.00">lib/Dialect/Array/Transforms</text>
<text text-anchor="middle" x="1670" y="-72.25" font-family="Helvetica,sans-Serif" font-size="10.00">/ArrayToScalarPass.cpp</text>
</a>
</g>
</g>
<!-- Node1&#45;&gt;Node16 -->
<g id="edge17_Node000001_Node000016" class="edge">
<title>Node1&#45;&gt;Node16</title>
<g id="a_edge17_Node000001_Node000016"><a xlink:title=" ">
<path fill="none" stroke="#63b8ff" d="M1714.51,-124.96C1704.86,-115.82 1693.97,-105.48 1685.37,-97.33"/>
<polygon fill="#63b8ff" stroke="#63b8ff" points="1711.81,-127.23 1721.47,-131.57 1716.62,-122.15 1711.81,-127.23"/>
</a>
</g>
</g>
<!-- Node17 -->
<g id="Node000017" class="node">
<title>Node17</title>
<g id="a_Node000017"><a xlink:href="_cast_2_i_r_2_ops_8cpp.html" target="_top" xlink:title=" ">
<polygon fill="white" stroke="#666666" points="1854.5,-97 1757.5,-97 1757.5,-66.5 1854.5,-66.5 1854.5,-97"/>
<text text-anchor="start" x="1765.5" y="-83.5" font-family="Helvetica,sans-Serif" font-size="10.00">lib/Dialect/Cast/IR</text>
<text text-anchor="middle" x="1806" y="-72.25" font-family="Helvetica,sans-Serif" font-size="10.00">/Ops.cpp</text>
</a>
</g>
</g>
<!-- Node1&#45;&gt;Node17 -->
<g id="edge18_Node000001_Node000017" class="edge">
<title>Node1&#45;&gt;Node17</title>
<g id="a_edge18_Node000001_Node000017"><a xlink:title=" ">
<path fill="none" stroke="#63b8ff" d="M1761.49,-124.96C1771.14,-115.82 1782.03,-105.48 1790.63,-97.33"/>
<polygon fill="#63b8ff" stroke="#63b8ff" points="1759.38,-122.15 1754.53,-131.57 1764.19,-127.23 1759.38,-122.15"/>
</a>
</g>
</g>
<!-- Node18 -->
<g id="Node000018" class="node">
<title>Node18</title>
<g id="a_Node000018"><a xlink:href="_constrain_2_i_r_2_ops_8cpp.html" target="_top" xlink:title=" ">
<polygon fill="white" stroke="#666666" points="1977.25,-97 1872.75,-97 1872.75,-66.5 1977.25,-66.5 1977.25,-97"/>
<text text-anchor="start" x="1880.75" y="-83.5" font-family="Helvetica,sans-Serif" font-size="10.00">lib/Dialect/Constrain</text>
<text text-anchor="middle" x="1925" y="-72.25" font-family="Helvetica,sans-Serif" font-size="10.00">/IR/Ops.cpp</text>
</a>
</g>
</g>
<!-- Node1&#45;&gt;Node18 -->
<g id="edge19_Node000001_Node000018" class="edge">
<title>Node1&#45;&gt;Node18</title>
<g id="a_edge19_Node000001_Node000018"><a xlink:title=" ">
<path fill="none" stroke="#63b8ff" d="M1791.17,-128.91C1820.07,-118.94 1855.34,-106.78 1882.41,-97.44"/>
<polygon fill="#63b8ff" stroke="#63b8ff" points="1790.18,-125.55 1781.86,-132.12 1792.46,-132.17 1790.18,-125.55"/>
</a>
</g>
</g>
<!-- Node19 -->
<g id="Node000019" class="node">
<title>Node19</title>
<g id="a_Node000019"><a xlink:href="_function_2_i_r_2_dialect_8cpp.html" target="_top" xlink:title=" ">
<polygon fill="white" stroke="#666666" points="2095,-97 1995,-97 1995,-66.5 2095,-66.5 2095,-97"/>
<text text-anchor="start" x="2003" y="-83.5" font-family="Helvetica,sans-Serif" font-size="10.00">lib/Dialect/Function</text>
<text text-anchor="middle" x="2045" y="-72.25" font-family="Helvetica,sans-Serif" font-size="10.00">/IR/Dialect.cpp</text>
</a>
</g>
</g>
<!-- Node1&#45;&gt;Node19 -->
<g id="edge20_Node000001_Node000019" class="edge">
<title>Node1&#45;&gt;Node19</title>
<g id="a_edge20_Node000001_Node000019"><a xlink:title=" ">
<path fill="none" stroke="#63b8ff" d="M1798.99,-135.55C1849.28,-125.74 1922.41,-111.12 1986,-97 1988.88,-96.36 1991.84,-95.69 1994.82,-95"/>
<polygon fill="#63b8ff" stroke="#63b8ff" points="1798.62,-132.05 1789.48,-137.4 1799.96,-138.92 1798.62,-132.05"/>
</a>
</g>
</g>
<!-- Node20 -->
<g id="Node000020" class="node">
<title>Node20</title>
<g id="a_Node000020"><a xlink:href="_op_traits_8cpp.html" target="_top" xlink:title=" ">
<polygon fill="white" stroke="#666666" points="2213,-97 2113,-97 2113,-66.5 2213,-66.5 2213,-97"/>
<text text-anchor="start" x="2121" y="-83.5" font-family="Helvetica,sans-Serif" font-size="10.00">lib/Dialect/Function</text>
<text text-anchor="middle" x="2163" y="-72.25" font-family="Helvetica,sans-Serif" font-size="10.00">/IR/OpTraits.cpp</text>
</a>
</g>
</g>
<!-- Node1&#45;&gt;Node20 -->
<g id="edge21_Node000001_Node000020" class="edge">
<title>Node1&#45;&gt;Node20</title>
<g id="a_edge21_Node000001_Node000020"><a xlink:title=" ">
<path fill="none" stroke="#63b8ff" d="M1799.23,-140.75C1872.16,-132.57 1997.52,-117.12 2104,-97 2106.8,-96.47 2109.66,-95.9 2112.54,-95.29"/>
<polygon fill="#63b8ff" stroke="#63b8ff" points="1799.04,-137.25 1789.49,-141.83 1799.81,-144.21 1799.04,-137.25"/>
</a>
</g>
</g>
<!-- Node21 -->
<g id="Node000021" class="node">
<title>Node21</title>
<g id="a_Node000021"><a xlink:href="_function_2_i_r_2_ops_8cpp.html" target="_top" xlink:title=" ">
<polygon fill="white" stroke="#666666" points="2331,-97 2231,-97 2231,-66.5 2331,-66.5 2331,-97"/>
<text text-anchor="start" x="2239" y="-83.5" font-family="Helvetica,sans-Serif" font-size="10.00">lib/Dialect/Function</text>
<text text-anchor="middle" x="2281" y="-72.25" font-family="Helvetica,sans-Serif" font-size="10.00">/IR/Ops.cpp</text>
</a>
</g>
</g>
<!-- Node1&#45;&gt;Node21 -->
<g id="edge22_Node000001_Node000021" class="edge">
<title>Node1&#45;&gt;Node21</title>
<g id="a_edge22_Node000001_Node000021"><a xlink:title=" ">
<path fill="none" stroke="#63b8ff" d="M1799.47,-143.51C1891.74,-137.3 2071.3,-122.9 2222,-97 2224.8,-96.52 2227.67,-95.98 2230.56,-95.4"/>
<polygon fill="#63b8ff" stroke="#63b8ff" points="1799.38,-140.01 1789.63,-144.16 1799.84,-146.99 1799.38,-140.01"/>
</a>
</g>
</g>
<!-- Node22 -->
<g id="Node000022" class="node">
<title>Node22</title>
<g id="a_Node000022"><a xlink:href="_l_l_z_k_2_i_r_2_dialect_8cpp.html" target="_top" xlink:title=" ">
<polygon fill="white" stroke="#666666" points="2448.62,-97 2349.38,-97 2349.38,-66.5 2448.62,-66.5 2448.62,-97"/>
<text text-anchor="start" x="2357.38" y="-83.5" font-family="Helvetica,sans-Serif" font-size="10.00">lib/Dialect/LLZK/IR</text>
<text text-anchor="middle" x="2399" y="-72.25" font-family="Helvetica,sans-Serif" font-size="10.00">/Dialect.cpp</text>
</a>
</g>
</g>
<!-- Node1&#45;&gt;Node22 -->
<g id="edge23_Node000001_Node000022" class="edge">
<title>Node1&#45;&gt;Node22</title>
<g id="a_edge23_Node000001_Node000022"><a xlink:title=" ">
<path fill="none" stroke="#63b8ff" d="M1799.3,-145.24C1908.58,-140.98 2143.95,-128.66 2340,-97 2342.91,-96.53 2345.89,-95.99 2348.89,-95.41"/>
<polygon fill="#63b8ff" stroke="#63b8ff" points="1799.24,-141.74 1789.38,-145.62 1799.51,-148.74 1799.24,-141.74"/>
</a>
</g>
</g>
<!-- Node23 -->
<g id="Node000023" class="node">
<title>Node23</title>
<g id="a_Node000023"><a xlink:href="_flattening_pass_8cpp.html" target="_top" xlink:title="This file implements the &#45;llzk&#45;flatten pass.">
<polygon fill="white" stroke="#666666" points="2621.75,-97 2466.25,-97 2466.25,-66.5 2621.75,-66.5 2621.75,-97"/>
<text text-anchor="start" x="2474.25" y="-83.5" font-family="Helvetica,sans-Serif" font-size="10.00">lib/Dialect/Polymorphic</text>
<text text-anchor="middle" x="2544" y="-72.25" font-family="Helvetica,sans-Serif" font-size="10.00">/Transforms/FlatteningPass.cpp</text>
</a>
</g>
</g>
<!-- Node1&#45;&gt;Node23 -->
<g id="edge24_Node000001_Node000023" class="edge">
<title>Node1&#45;&gt;Node23</title>
<g id="a_edge24_Node000001_Node000023"><a xlink:title=" ">
<path fill="none" stroke="#63b8ff" d="M1799.06,-144.94C1923.4,-139.8 2214.83,-125.57 2458,-97 2460.56,-96.7 2463.15,-96.38 2465.77,-96.03"/>
<polygon fill="#63b8ff" stroke="#63b8ff" points="1799.27,-141.43 1789.42,-145.33 1799.55,-148.42 1799.27,-141.43"/>
</a>
</g>
</g>
<!-- Node24 -->
<g id="Node000024" class="node">
<title>Node24</title>
<g id="a_Node000024"><a xlink:href="_struct_2_i_r_2_ops_8cpp.html" target="_top" xlink:title=" ">
<polygon fill="white" stroke="#666666" points="2728.38,-97 2639.62,-97 2639.62,-66.5 2728.38,-66.5 2728.38,-97"/>
<text text-anchor="start" x="2647.62" y="-83.5" font-family="Helvetica,sans-Serif" font-size="10.00">lib/Dialect/Struct</text>
<text text-anchor="middle" x="2684" y="-72.25" font-family="Helvetica,sans-Serif" font-size="10.00">/IR/Ops.cpp</text>
</a>
</g>
</g>
<!-- Node1&#45;&gt;Node24 -->
<g id="edge25_Node000001_Node000024" class="edge">
<title>Node1&#45;&gt;Node24</title>
<g id="a_edge25_Node000001_Node000024"><a xlink:title=" ">
<path fill="none" stroke="#63b8ff" d="M1799.38,-145.45C1973.83,-140.06 2470.28,-122.84 2631,-97 2633.73,-96.56 2636.52,-96.04 2639.32,-95.46"/>
<polygon fill="#63b8ff" stroke="#63b8ff" points="1799.52,-141.94 1789.63,-145.75 1799.73,-148.94 1799.52,-141.94"/>
</a>
</g>
</g>
<!-- Node25 -->
<g id="Node000025" class="node">
<title>Node25</title>
<g id="a_Node000025"><a xlink:href="_l_l_z_k_redundant_read_and_write_elimination_pass_8cpp.html" target="_top" xlink:title="This file implements the &#45;llzk&#45;duplicate&#45;read&#45;write&#45;elim pass.">
<polygon fill="white" stroke="#666666" points="2915.12,-97 2746.88,-97 2746.88,-66.5 2915.12,-66.5 2915.12,-97"/>
<text text-anchor="start" x="2754.88" y="-83.5" font-family="Helvetica,sans-Serif" font-size="10.00">lib/Transforms/LLZKRedundant</text>
<text text-anchor="middle" x="2831" y="-72.25" font-family="Helvetica,sans-Serif" font-size="10.00">ReadAndWriteEliminationPass.cpp</text>
</a>
</g>
</g>
<!-- Node1&#45;&gt;Node25 -->
<g id="edge26_Node000001_Node000025" class="edge">
<title>Node1&#45;&gt;Node25</title>
<g id="a_edge26_Node000001_Node000025"><a xlink:title=" ">
<path fill="none" stroke="#63b8ff" d="M1799.27,-146.3C1955.79,-143.42 2383.01,-132.64 2737,-97 2740.12,-96.69 2743.3,-96.34 2746.5,-95.97"/>
<polygon fill="#63b8ff" stroke="#63b8ff" points="1799.48,-142.8 1789.54,-146.48 1799.6,-149.8 1799.48,-142.8"/>
</a>
</g>
</g>
<!-- Node26 -->
<g id="Node000026" class="node">
<title>Node26</title>
<g id="a_Node000026"><a xlink:href="_symbol_helper_8cpp.html" target="_top" xlink:title="This file contains the implementations for symbol helper functions.">
<polygon fill="white" stroke="#666666" points="3059.12,-91.38 2932.88,-91.38 2932.88,-72.12 3059.12,-72.12 3059.12,-91.38"/>
<text text-anchor="middle" x="2996" y="-77.88" font-family="Helvetica,sans-Serif" font-size="10.00">lib/Util/SymbolHelper.cpp</text>
</a>
</g>
</g>
<!-- Node1&#45;&gt;Node26 -->
<g id="edge27_Node000001_Node000026" class="edge">
<title>Node1&#45;&gt;Node26</title>
<g id="a_edge27_Node000001_Node000026"><a xlink:title=" ">
<path fill="none" stroke="#63b8ff" d="M1799.25,-147.95C1974.99,-149.25 2495.71,-148.15 2924,-97 2934.38,-95.76 2945.49,-93.85 2955.81,-91.83"/>
<polygon fill="#63b8ff" stroke="#63b8ff" points="1799.47,-144.45 1789.45,-147.87 1799.42,-151.45 1799.47,-144.45"/>
</a>
</g>
</g>
<!-- Node27 -->
<g id="Node000027" class="node">
<title>Node27</title>
<g id="a_Node000027"><a xlink:href="_l_l_z_k_validation_passes_8cpp.html" target="_top" xlink:title="This file contains the implementation for the &#45;llzk&#45;validate&#45;field&#45;writes pass.">
<polygon fill="white" stroke="#666666" points="3216.88,-97 3077.12,-97 3077.12,-66.5 3216.88,-66.5 3216.88,-97"/>
<text text-anchor="start" x="3085.12" y="-83.5" font-family="Helvetica,sans-Serif" font-size="10.00">lib/Validators/LLZKValidation</text>
<text text-anchor="middle" x="3147" y="-72.25" font-family="Helvetica,sans-Serif" font-size="10.00">Passes.cpp</text>
</a>
</g>
</g>
<!-- Node1&#45;&gt;Node27 -->
<g id="edge28_Node000001_Node000027" class="edge">
<title>Node1&#45;&gt;Node27</title>
<g id="a_edge28_Node000001_Node000027"><a xlink:title=" ">
<path fill="none" stroke="#63b8ff" d="M1799.25,-146.08C2025.93,-141.58 2817.09,-124.23 3068,-97 3070.91,-96.68 3073.87,-96.32 3076.86,-95.93"/>
<polygon fill="#63b8ff" stroke="#63b8ff" points="1799.39,-142.58 1789.46,-146.27 1799.52,-149.58 1799.39,-142.58"/>
</a>
</g>
</g>
<!-- Node2&#45;&gt;Node3 -->
<g id="edge2_Node000002_Node000003" class="edge">
<title>Node2&#45;&gt;Node3</title>
<g id="a_edge2_Node000002_Node000003"><a xlink:title=" ">
<path fill="none" stroke="#63b8ff" d="M249.57,-62.93C206.81,-50.73 151.89,-35.05 117.82,-25.33"/>
<polygon fill="#63b8ff" stroke="#63b8ff" points="248.4,-66.24 258.98,-65.62 250.32,-59.51 248.4,-66.24"/>
</a>
</g>
</g>
<!-- Node2&#45;&gt;Node4 -->
<g id="edge3_Node000002_Node000004" class="edge">
<title>Node2&#45;&gt;Node4</title>
<g id="a_edge3_Node000002_Node000004"><a xlink:title=" ">
<path fill="none" stroke="#63b8ff" d="M351.75,-61.03C375.78,-49.1 405.26,-34.48 423.84,-25.26"/>
<polygon fill="#63b8ff" stroke="#63b8ff" points="350.26,-57.86 342.85,-65.44 353.37,-64.13 350.26,-57.86"/>
</a>
</g>
</g>
<!-- Node5 -->
<g id="Node000005" class="node">
<title>Node5</title>
<g id="a_Node000005"><a xlink:href="_l_l_z_k_redundant_operation_elimination_pass_8cpp.html" target="_top" xlink:title="This file implements the &#45;llzk&#45;duplicate&#45;op&#45;elim pass.">
<polygon fill="white" stroke="#666666" points="341.88,-30.5 190.12,-30.5 190.12,0 341.88,0 341.88,-30.5"/>
<text text-anchor="start" x="198.12" y="-17" font-family="Helvetica,sans-Serif" font-size="10.00">lib/Transforms/LLZKRedundant</text>
<text text-anchor="middle" x="266" y="-5.75" font-family="Helvetica,sans-Serif" font-size="10.00">OperationEliminationPass.cpp</text>
</a>
</g>
</g>
<!-- Node2&#45;&gt;Node5 -->
<g id="edge4_Node000002_Node000005" class="edge">
<title>Node2&#45;&gt;Node5</title>
<g id="a_edge4_Node000002_Node000005"><a xlink:title=" ">
<path fill="none" stroke="#63b8ff" d="M294.91,-56.79C288.69,-48.07 281.86,-38.49 276.4,-30.83"/>
<polygon fill="#63b8ff" stroke="#63b8ff" points="292.03,-58.77 300.68,-64.88 297.73,-54.71 292.03,-58.77"/>
</a>
</g>
</g>
<!-- Node7 -->
<g id="Node000007" class="node">
<title>Node7</title>
<g id="a_Node000007"><a xlink:href="_interval_analysis_8cpp.html" target="_top" xlink:title=" ">
<polygon fill="white" stroke="#666666" points="699.88,-24.88 542.12,-24.88 542.12,-5.63 699.88,-5.63 699.88,-24.88"/>
<text text-anchor="middle" x="621" y="-11.38" font-family="Helvetica,sans-Serif" font-size="10.00">lib/Analysis/IntervalAnalysis.cpp</text>
</a>
</g>
</g>
<!-- Node6&#45;&gt;Node7 -->
<g id="edge6_Node000006_Node000007" class="edge">
<title>Node6&#45;&gt;Node7</title>
<g id="a_edge6_Node000006_Node000007"><a xlink:title=" ">
<path fill="none" stroke="#63b8ff" d="M605.78,-55.52C609.95,-44.76 614.54,-32.91 617.58,-25.07"/>
<polygon fill="#63b8ff" stroke="#63b8ff" points="602.57,-54.11 602.22,-64.7 609.1,-56.64 602.57,-54.11"/>
</a>
</g>
</g>
<!-- Node8 -->
<g id="Node000008" class="node">
<title>Node8</title>
<g id="a_Node000008"><a xlink:href="_interval_analysis_pass_8cpp.html" target="_top" xlink:title="This file implements the &#45;llzk&#45;print&#45;interval&#45;analysis pass.">
<polygon fill="white" stroke="#666666" points="856.5,-30.5 717.5,-30.5 717.5,0 856.5,0 856.5,-30.5"/>
<text text-anchor="start" x="725.5" y="-17" font-family="Helvetica,sans-Serif" font-size="10.00">lib/Analysis/IntervalAnalysis</text>
<text text-anchor="middle" x="787" y="-5.75" font-family="Helvetica,sans-Serif" font-size="10.00">Pass.cpp</text>
</a>
</g>
</g>
<!-- Node6&#45;&gt;Node8 -->
<g id="edge7_Node000006_Node000008" class="edge">
<title>Node6&#45;&gt;Node8</title>
<g id="a_edge7_Node000006_Node000008"><a xlink:title=" ">
<path fill="none" stroke="#63b8ff" d="M649.92,-62.54C679.51,-52.55 715.73,-40.32 743.5,-30.94"/>
<polygon fill="#63b8ff" stroke="#63b8ff" points="649.13,-59.11 640.77,-65.63 651.37,-65.75 649.13,-59.11"/>
</a>
</g>
</g>
<!-- Node10 -->
<g id="Node000010" class="node">
<title>Node10</title>
<g id="a_Node000010"><a xlink:href="_builders_8cpp.html" target="_top" xlink:title=" ">
<polygon fill="white" stroke="#666666" points="967.62,-30.5 874.38,-30.5 874.38,0 967.62,0 967.62,-30.5"/>
<text text-anchor="start" x="882.38" y="-17" font-family="Helvetica,sans-Serif" font-size="10.00">lib/Dialect/Shared</text>
<text text-anchor="middle" x="921" y="-5.75" font-family="Helvetica,sans-Serif" font-size="10.00">/Builders.cpp</text>
</a>
</g>
</g>
<!-- Node9&#45;&gt;Node10 -->
<g id="edge9_Node000009_Node000010" class="edge">
<title>Node9&#45;&gt;Node10</title>
<g id="a_edge9_Node000009_Node000010"><a xlink:title=" ">
<path fill="none" stroke="#63b8ff" d="M773.71,-62.59C805.54,-52.58 844.55,-40.3 874.43,-30.9"/>
<polygon fill="#63b8ff" stroke="#63b8ff" points="772.71,-59.24 764.22,-65.58 774.81,-65.92 772.71,-59.24"/>
</a>
</g>
</g>
</g>
</svg>
