<?xml version="1.0" encoding="UTF-8" standalone="no"?>
<!DOCTYPE svg PUBLIC "-//W3C//DTD SVG 1.1//EN"
 "http://www.w3.org/Graphics/SVG/1.1/DTD/svg11.dtd">
<!-- Generated by graphviz version 12.2.1 (0)
 -->
<!-- Title: include/llzk/Dialect/Function/IR/Ops.h Pages: 1 -->
<svg width="2320pt" height="360pt"
 viewBox="0.00 0.00 2320.12 359.75" xmlns="http://www.w3.org/2000/svg" xmlns:xlink="http://www.w3.org/1999/xlink">
<g id="graph0" class="graph" transform="scale(1 1) rotate(0) translate(4 355.75)">
<title>include/llzk/Dialect/Function/IR/Ops.h</title>
<!-- Node1 -->
<g id="Node000001" class="node">
<title>Node1</title>
<g id="a_Node000001"><a xlink:title=" ">
<polygon fill="#999999" stroke="#666666" points="1778.12,-351.75 1678.88,-351.75 1678.88,-321.25 1778.12,-321.25 1778.12,-351.75"/>
<text text-anchor="start" x="1686.88" y="-338.25" font-family="Helvetica,sans-Serif" font-size="10.00">include/llzk/Dialect</text>
<text text-anchor="middle" x="1728.5" y="-327" font-family="Helvetica,sans-Serif" font-size="10.00">/Function/IR/Ops.h</text>
</a>
</g>
</g>
<!-- Node2 -->
<g id="Node000002" class="node">
<title>Node2</title>
<g id="a_Node000002"><a xlink:href="_function_2_i_r_2_attrs_8h.html" target="_top" xlink:title=" ">
<polygon fill="white" stroke="#666666" points="1822.12,-285.25 1716.88,-285.25 1716.88,-254.75 1822.12,-254.75 1822.12,-285.25"/>
<text text-anchor="start" x="1724.88" y="-271.75" font-family="Helvetica,sans-Serif" font-size="10.00">llzk/Dialect/Function</text>
<text text-anchor="middle" x="1769.5" y="-260.5" font-family="Helvetica,sans-Serif" font-size="10.00">/IR/Attrs.h</text>
</a>
</g>
</g>
<!-- Node1&#45;&gt;Node2 -->
<g id="edge1_Node000001_Node000002" class="edge">
<title>Node1&#45;&gt;Node2</title>
<g id="a_edge1_Node000001_Node000002"><a xlink:title=" ">
<path fill="none" stroke="#63b8ff" d="M1737.8,-320.86C1742.63,-313.28 1748.64,-303.81 1754.13,-295.18"/>
<polygon fill="#63b8ff" stroke="#63b8ff" points="1757.01,-297.17 1759.42,-286.86 1751.1,-293.42 1757.01,-297.17"/>
</a>
</g>
</g>
<!-- Node5 -->
<g id="Node000005" class="node">
<title>Node5</title>
<g id="a_Node000005"><a xlink:href="_op_helpers_8h.html" target="_top" xlink:title=" ">
<polygon fill="white" stroke="#666666" points="709.75,-218.75 611.25,-218.75 611.25,-188.25 709.75,-188.25 709.75,-218.75"/>
<text text-anchor="start" x="619.25" y="-205.25" font-family="Helvetica,sans-Serif" font-size="10.00">llzk/Dialect/Shared</text>
<text text-anchor="middle" x="660.5" y="-194" font-family="Helvetica,sans-Serif" font-size="10.00">/OpHelpers.h</text>
</a>
</g>
</g>
<!-- Node1&#45;&gt;Node5 -->
<g id="edge4_Node000001_Node000005" class="edge">
<title>Node1&#45;&gt;Node5</title>
<g id="a_edge4_Node000001_Node000005"><a xlink:title=" ">
<path fill="none" stroke="#63b8ff" d="M1678.58,-331.47C1585.83,-323.81 1380.71,-306.03 1208.5,-285.25 1003.86,-260.55 953.27,-249.82 749.5,-218.75 740.37,-217.36 730.72,-215.85 721.28,-214.36"/>
<polygon fill="#63b8ff" stroke="#63b8ff" points="721.83,-210.9 711.4,-212.78 720.73,-217.81 721.83,-210.9"/>
</a>
</g>
</g>
<!-- Node8 -->
<g id="Node000008" class="node">
<title>Node8</title>
<g id="a_Node000008"><a xlink:title=" ">
<polygon fill="#e0e0e0" stroke="#999999" points="511.5,-80.12 375.5,-80.12 375.5,-60.88 511.5,-60.88 511.5,-80.12"/>
<text text-anchor="middle" x="443.5" y="-66.62" font-family="Helvetica,sans-Serif" font-size="10.00">mlir/IR/OpImplementation.h</text>
</a>
</g>
</g>
<!-- Node1&#45;&gt;Node8 -->
<g id="edge56_Node000001_Node000008" class="edge">
<title>Node1&#45;&gt;Node8</title>
<g id="a_edge56_Node000001_Node000008"><a xlink:title=" ">
<path fill="none" stroke="#63b8ff" d="M1678.57,-333.96C1558.35,-329.87 1243.46,-316.78 982.5,-285.25 705.73,-251.81 537.41,-374.79 369.5,-152.25 361.34,-141.43 363.15,-133.73 369.5,-121.75 378,-105.69 394.19,-93.82 409.26,-85.66"/>
<polygon fill="#63b8ff" stroke="#63b8ff" points="410.67,-88.86 418.06,-81.27 407.55,-82.6 410.67,-88.86"/>
</a>
</g>
</g>
<!-- Node12 -->
<g id="Node000012" class="node">
<title>Node12</title>
<g id="a_Node000012"><a xlink:href="_constants_8h.html" target="_top" xlink:title=" ">
<polygon fill="white" stroke="#666666" points="1628.12,-80.12 1522.88,-80.12 1522.88,-60.88 1628.12,-60.88 1628.12,-80.12"/>
<text text-anchor="middle" x="1575.5" y="-66.62" font-family="Helvetica,sans-Serif" font-size="10.00">llzk/Util/Constants.h</text>
</a>
</g>
</g>
<!-- Node1&#45;&gt;Node12 -->
<g id="edge51_Node000001_Node000012" class="edge">
<title>Node1&#45;&gt;Node12</title>
<g id="a_edge51_Node000001_Node000012"><a xlink:title=" ">
<path fill="none" stroke="#63b8ff" d="M1778.49,-320.96C1843.27,-299.21 1944.36,-253.63 1912.5,-188.25 1855.36,-71 1765.16,-112.5 1637.5,-85.75 1633.48,-84.91 1629.32,-84.01 1625.14,-83.09"/>
<polygon fill="#63b8ff" stroke="#63b8ff" points="1626.15,-79.73 1615.62,-80.96 1624.61,-86.56 1626.15,-79.73"/>
</a>
</g>
</g>
<!-- Node16 -->
<g id="Node000016" class="node">
<title>Node16</title>
<g id="a_Node000016"><a xlink:href="_struct_2_i_r_2_ops_8h.html" target="_top" xlink:title=" ">
<polygon fill="white" stroke="#666666" points="1311.5,-285.25 1217.5,-285.25 1217.5,-254.75 1311.5,-254.75 1311.5,-285.25"/>
<text text-anchor="start" x="1225.5" y="-271.75" font-family="Helvetica,sans-Serif" font-size="10.00">llzk/Dialect/Struct</text>
<text text-anchor="middle" x="1264.5" y="-260.5" font-family="Helvetica,sans-Serif" font-size="10.00">/IR/Ops.h</text>
</a>
</g>
</g>
<!-- Node1&#45;&gt;Node16 -->
<g id="edge17_Node000001_Node000016" class="edge">
<title>Node1&#45;&gt;Node16</title>
<g id="a_edge17_Node000001_Node000016"><a xlink:title=" ">
<path fill="none" stroke="#63b8ff" d="M1678.4,-328.54C1592,-316.52 1415.37,-291.97 1323.29,-279.17"/>
<polygon fill="#63b8ff" stroke="#63b8ff" points="1323.84,-275.72 1313.45,-277.81 1322.88,-282.65 1323.84,-275.72"/>
</a>
</g>
</g>
<!-- Node39 -->
<g id="Node000039" class="node">
<title>Node39</title>
<g id="a_Node000039"><a xlink:href="_symbol_helper_8h.html" target="_top" xlink:title=" ">
<polygon fill="white" stroke="#666666" points="1636,-279.62 1515,-279.62 1515,-260.38 1636,-260.38 1636,-279.62"/>
<text text-anchor="middle" x="1575.5" y="-266.12" font-family="Helvetica,sans-Serif" font-size="10.00">llzk/Util/SymbolHelper.h</text>
</a>
</g>
</g>
<!-- Node1&#45;&gt;Node39 -->
<g id="edge52_Node000001_Node000039" class="edge">
<title>Node1&#45;&gt;Node39</title>
<g id="a_edge52_Node000001_Node000039"><a xlink:title=" ">
<path fill="none" stroke="#63b8ff" d="M1693.78,-320.86C1667.82,-309.92 1632.61,-295.07 1607.36,-284.43"/>
<polygon fill="#63b8ff" stroke="#63b8ff" points="1608.84,-281.26 1598.27,-280.6 1606.12,-287.71 1608.84,-281.26"/>
</a>
</g>
</g>
<!-- Node40 -->
<g id="Node000040" class="node">
<title>Node40</title>
<g id="a_Node000040"><a xlink:title=" ">
<polygon fill="#e0e0e0" stroke="#999999" points="1741.62,-213.12 1591.38,-213.12 1591.38,-193.88 1741.62,-193.88 1741.62,-213.12"/>
<text text-anchor="middle" x="1666.5" y="-199.62" font-family="Helvetica,sans-Serif" font-size="10.00">mlir/Interfaces/CallInterfaces.h</text>
</a>
</g>
</g>
<!-- Node1&#45;&gt;Node40 -->
<g id="edge57_Node000001_Node000040" class="edge">
<title>Node1&#45;&gt;Node40</title>
<g id="a_edge57_Node000001_Node000040"><a xlink:title=" ">
<path fill="none" stroke="#63b8ff" d="M1721.63,-320.98C1710.42,-297.3 1688.21,-250.37 1675.67,-223.88"/>
<polygon fill="#63b8ff" stroke="#63b8ff" points="1678.9,-222.51 1671.45,-214.97 1672.57,-225.51 1678.9,-222.51"/>
</a>
</g>
</g>
<!-- Node42 -->
<g id="Node000042" class="node">
<title>Node42</title>
<g id="a_Node000042"><a xlink:title=" ">
<polygon fill="#e0e0e0" stroke="#999999" points="2052.38,-285.25 1918.62,-285.25 1918.62,-254.75 2052.38,-254.75 2052.38,-285.25"/>
<text text-anchor="start" x="1926.62" y="-271.75" font-family="Helvetica,sans-Serif" font-size="10.00">mlir/Interfaces/ControlFlow</text>
<text text-anchor="middle" x="1985.5" y="-260.5" font-family="Helvetica,sans-Serif" font-size="10.00">Interfaces.h</text>
</a>
</g>
</g>
<!-- Node1&#45;&gt;Node42 -->
<g id="edge58_Node000001_Node000042" class="edge">
<title>Node1&#45;&gt;Node42</title>
<g id="a_edge58_Node000001_Node000042"><a xlink:title=" ">
<path fill="none" stroke="#63b8ff" d="M1778.36,-322.99C1817.43,-313.18 1872.27,-299.42 1915.71,-288.51"/>
<polygon fill="#63b8ff" stroke="#63b8ff" points="1916.46,-291.93 1925.31,-286.11 1914.76,-285.15 1916.46,-291.93"/>
</a>
</g>
</g>
<!-- Node43 -->
<g id="Node000043" class="node">
<title>Node43</title>
<g id="a_Node000043"><a xlink:title=" ">
<polygon fill="#e0e0e0" stroke="#999999" points="2188.88,-285.25 2070.12,-285.25 2070.12,-254.75 2188.88,-254.75 2188.88,-285.25"/>
<text text-anchor="start" x="2078.12" y="-271.75" font-family="Helvetica,sans-Serif" font-size="10.00">mlir/Interfaces/Function</text>
<text text-anchor="middle" x="2129.5" y="-260.5" font-family="Helvetica,sans-Serif" font-size="10.00">Interfaces.h</text>
</a>
</g>
</g>
<!-- Node1&#45;&gt;Node43 -->
<g id="edge59_Node000001_Node000043" class="edge">
<title>Node1&#45;&gt;Node43</title>
<g id="a_edge59_Node000001_Node000043"><a xlink:title=" ">
<path fill="none" stroke="#63b8ff" d="M1778.57,-328.85C1841.63,-320.27 1953.54,-304.39 2058.7,-285.7"/>
<polygon fill="#63b8ff" stroke="#63b8ff" points="2059.12,-289.18 2068.34,-283.97 2057.88,-282.29 2059.12,-289.18"/>
</a>
</g>
</g>
<!-- Node44 -->
<g id="Node000044" class="node">
<title>Node44</title>
<g id="a_Node000044"><a xlink:href="_function_2_i_r_2_ops_8h_8inc.html" target="_top" xlink:title=" ">
<polygon fill="white" stroke="#666666" points="2312.12,-285.25 2206.88,-285.25 2206.88,-254.75 2312.12,-254.75 2312.12,-285.25"/>
<text text-anchor="start" x="2214.88" y="-271.75" font-family="Helvetica,sans-Serif" font-size="10.00">llzk/Dialect/Function</text>
<text text-anchor="middle" x="2259.5" y="-260.5" font-family="Helvetica,sans-Serif" font-size="10.00">/IR/Ops.h.inc</text>
</a>
</g>
</g>
<!-- Node1&#45;&gt;Node44 -->
<g id="edge60_Node000001_Node000044" class="edge">
<title>Node1&#45;&gt;Node44</title>
<g id="a_edge60_Node000001_Node000044"><a xlink:title=" ">
<path fill="none" stroke="#63b8ff" d="M1778.4,-332.12C1862.37,-326 2037.42,-311.41 2195.16,-285.51"/>
<polygon fill="#63b8ff" stroke="#63b8ff" points="2195.7,-288.97 2204.99,-283.87 2194.55,-282.06 2195.7,-288.97"/>
</a>
</g>
</g>
<!-- Node3 -->
<g id="Node000003" class="node">
<title>Node3</title>
<g id="a_Node000003"><a xlink:title=" ">
<polygon fill="#e0e0e0" stroke="#999999" points="1818.75,-146.62 1720.25,-146.62 1720.25,-127.38 1818.75,-127.38 1818.75,-146.62"/>
<text text-anchor="middle" x="1769.5" y="-133.12" font-family="Helvetica,sans-Serif" font-size="10.00">mlir/IR/Attributes.h</text>
</a>
</g>
</g>
<!-- Node2&#45;&gt;Node3 -->
<g id="edge2_Node000002_Node000003" class="edge">
<title>Node2&#45;&gt;Node3</title>
<g id="a_edge2_Node000002_Node000003"><a xlink:title=" ">
<path fill="none" stroke="#63b8ff" d="M1769.5,-254.48C1769.5,-231.12 1769.5,-185.13 1769.5,-158.46"/>
<polygon fill="#63b8ff" stroke="#63b8ff" points="1773,-158.61 1769.5,-148.61 1766,-158.61 1773,-158.61"/>
</a>
</g>
</g>
<!-- Node4 -->
<g id="Node000004" class="node">
<title>Node4</title>
<g id="a_Node000004"><a xlink:href="_function_2_i_r_2_attrs_8h_8inc.html" target="_top" xlink:title=" ">
<polygon fill="white" stroke="#666666" points="1903.12,-218.75 1797.88,-218.75 1797.88,-188.25 1903.12,-188.25 1903.12,-218.75"/>
<text text-anchor="start" x="1805.88" y="-205.25" font-family="Helvetica,sans-Serif" font-size="10.00">llzk/Dialect/Function</text>
<text text-anchor="middle" x="1850.5" y="-194" font-family="Helvetica,sans-Serif" font-size="10.00">/IR/Attrs.h.inc</text>
</a>
</g>
</g>
<!-- Node2&#45;&gt;Node4 -->
<g id="edge3_Node000002_Node000004" class="edge">
<title>Node2&#45;&gt;Node4</title>
<g id="a_edge3_Node000002_Node000004"><a xlink:title=" ">
<path fill="none" stroke="#63b8ff" d="M1787.88,-254.36C1798.34,-246.03 1811.64,-235.44 1823.29,-226.17"/>
<polygon fill="#63b8ff" stroke="#63b8ff" points="1825.37,-228.99 1831.01,-220.02 1821.01,-223.51 1825.37,-228.99"/>
</a>
</g>
</g>
<!-- Node6 -->
<g id="Node000006" class="node">
<title>Node6</title>
<g id="a_Node000006"><a xlink:href="_affine_helper_8h.html" target="_top" xlink:title=" ">
<polygon fill="white" stroke="#666666" points="322.25,-146.62 208.75,-146.62 208.75,-127.38 322.25,-127.38 322.25,-146.62"/>
<text text-anchor="middle" x="265.5" y="-133.12" font-family="Helvetica,sans-Serif" font-size="10.00">llzk/Util/AffineHelper.h</text>
</a>
</g>
</g>
<!-- Node5&#45;&gt;Node6 -->
<g id="edge5_Node000005_Node000006" class="edge">
<title>Node5&#45;&gt;Node6</title>
<g id="a_edge5_Node000005_Node000006"><a xlink:title=" ">
<path fill="none" stroke="#63b8ff" d="M610.87,-194.4C540.47,-182.9 411.4,-161.82 332.54,-148.95"/>
<polygon fill="#63b8ff" stroke="#63b8ff" points="333.21,-145.51 322.77,-147.35 332.08,-152.42 333.21,-145.51"/>
</a>
</g>
</g>
<!-- Node5&#45;&gt;Node8 -->
<g id="edge12_Node000005_Node000008" class="edge">
<title>Node5&#45;&gt;Node8</title>
<g id="a_edge12_Node000005_Node000008"><a xlink:title=" ">
<path fill="none" stroke="#63b8ff" d="M632.76,-187.79C614.59,-178.01 590.43,-164.72 569.5,-152.25 532.81,-130.4 491.3,-103.32 466.28,-86.73"/>
<polygon fill="#63b8ff" stroke="#63b8ff" points="468.45,-83.98 458.19,-81.36 464.58,-89.81 468.45,-83.98"/>
</a>
</g>
</g>
<!-- Node9 -->
<g id="Node000009" class="node">
<title>Node9</title>
<g id="a_Node000009"><a xlink:title=" ">
<polygon fill="#e0e0e0" stroke="#999999" points="627.75,-80.12 529.25,-80.12 529.25,-60.88 627.75,-60.88 627.75,-80.12"/>
<text text-anchor="middle" x="578.5" y="-66.62" font-family="Helvetica,sans-Serif" font-size="10.00">mlir/IR/Operation.h</text>
</a>
</g>
</g>
<!-- Node5&#45;&gt;Node9 -->
<g id="edge13_Node000005_Node000009" class="edge">
<title>Node5&#45;&gt;Node9</title>
<g id="a_edge13_Node000005_Node000009"><a xlink:title=" ">
<path fill="none" stroke="#63b8ff" d="M622.64,-187.89C607.1,-179.84 590.64,-168.18 581.5,-152.25 570.88,-133.73 571.82,-108.7 574.34,-91.44"/>
<polygon fill="#63b8ff" stroke="#63b8ff" points="577.76,-92.17 576.08,-81.71 570.87,-90.94 577.76,-92.17"/>
</a>
</g>
</g>
<!-- Node5&#45;&gt;Node12 -->
<g id="edge11_Node000005_Node000012" class="edge">
<title>Node5&#45;&gt;Node12</title>
<g id="a_edge11_Node000005_Node000012"><a xlink:title=" ">
<path fill="none" stroke="#63b8ff" d="M709.84,-193.92C722.72,-191.87 736.61,-189.82 749.5,-188.25 940.76,-165 1001.69,-221.44 1181.5,-152.25 1202.37,-144.22 1200.8,-130.19 1221.5,-121.75 1342.59,-72.39 1384.72,-108.43 1513.5,-85.75 1518.15,-84.93 1522.98,-83.99 1527.79,-82.99"/>
<polygon fill="#63b8ff" stroke="#63b8ff" points="1528.4,-86.43 1537.43,-80.89 1526.92,-79.59 1528.4,-86.43"/>
</a>
</g>
</g>
<!-- Node13 -->
<g id="Node000013" class="node">
<title>Node13</title>
<g id="a_Node000013"><a xlink:title=" ">
<polygon fill="#e0e0e0" stroke="#999999" points="730,-146.62 591,-146.62 591,-127.38 730,-127.38 730,-146.62"/>
<text text-anchor="middle" x="660.5" y="-133.12" font-family="Helvetica,sans-Serif" font-size="10.00">mlir/Support/LogicalResult.h</text>
</a>
</g>
</g>
<!-- Node5&#45;&gt;Node13 -->
<g id="edge14_Node000005_Node000013" class="edge">
<title>Node5&#45;&gt;Node13</title>
<g id="a_edge14_Node000005_Node000013"><a xlink:title=" ">
<path fill="none" stroke="#63b8ff" d="M660.5,-187.86C660.5,-179.08 660.5,-167.77 660.5,-158.15"/>
<polygon fill="#63b8ff" stroke="#63b8ff" points="664,-158.34 660.5,-148.34 657,-158.34 664,-158.34"/>
</a>
</g>
</g>
<!-- Node14 -->
<g id="Node000014" class="node">
<title>Node14</title>
<g id="a_Node000014"><a xlink:title=" ">
<polygon fill="#e0e0e0" stroke="#999999" points="496.88,-146.62 378.12,-146.62 378.12,-127.38 496.88,-127.38 496.88,-146.62"/>
<text text-anchor="middle" x="437.5" y="-133.12" font-family="Helvetica,sans-Serif" font-size="10.00">llvm/ADT/SmallString.h</text>
</a>
</g>
</g>
<!-- Node5&#45;&gt;Node14 -->
<g id="edge15_Node000005_Node000014" class="edge">
<title>Node5&#45;&gt;Node14</title>
<g id="a_edge15_Node000005_Node000014"><a xlink:title=" ">
<path fill="none" stroke="#63b8ff" d="M611.01,-188.19C571.7,-176.82 517.33,-161.09 479.98,-150.29"/>
<polygon fill="#63b8ff" stroke="#63b8ff" points="481,-146.94 470.42,-147.52 479.06,-153.66 481,-146.94"/>
</a>
</g>
</g>
<!-- Node15 -->
<g id="Node000015" class="node">
<title>Node15</title>
<g id="a_Node000015"><a xlink:title=" ">
<polygon fill="#e0e0e0" stroke="#999999" points="1504.38,-80.12 1394.62,-80.12 1394.62,-60.88 1504.38,-60.88 1504.38,-80.12"/>
<text text-anchor="middle" x="1449.5" y="-66.62" font-family="Helvetica,sans-Serif" font-size="10.00">llvm/ADT/StringRef.h</text>
</a>
</g>
</g>
<!-- Node5&#45;&gt;Node15 -->
<g id="edge16_Node000005_Node000015" class="edge">
<title>Node5&#45;&gt;Node15</title>
<g id="a_edge16_Node000005_Node000015"><a xlink:title=" ">
<path fill="none" stroke="#63b8ff" d="M709.84,-193.99C722.73,-191.93 736.61,-189.87 749.5,-188.25 924.85,-166.27 979.72,-213.48 1145.5,-152.25 1167.48,-144.13 1166.91,-130.85 1188.5,-121.75 1270.52,-87.18 1298.27,-103.43 1385.5,-85.75 1389.83,-84.87 1394.32,-83.93 1398.82,-82.97"/>
<polygon fill="#63b8ff" stroke="#63b8ff" points="1399.44,-86.42 1408.47,-80.88 1397.95,-79.58 1399.44,-86.42"/>
</a>
</g>
</g>
<!-- Node7 -->
<g id="Node000007" class="node">
<title>Node7</title>
<g id="a_Node000007"><a xlink:title=" ">
<polygon fill="#e0e0e0" stroke="#999999" points="230.38,-80.12 138.62,-80.12 138.62,-60.88 230.38,-60.88 230.38,-80.12"/>
<text text-anchor="middle" x="184.5" y="-66.62" font-family="Helvetica,sans-Serif" font-size="10.00">mlir/IR/Builders.h</text>
</a>
</g>
</g>
<!-- Node6&#45;&gt;Node7 -->
<g id="edge6_Node000006_Node000007" class="edge">
<title>Node6&#45;&gt;Node7</title>
<g id="a_edge6_Node000006_Node000007"><a xlink:title=" ">
<path fill="none" stroke="#63b8ff" d="M254.24,-127.03C241.49,-116.88 220.48,-100.15 204.85,-87.7"/>
<polygon fill="#63b8ff" stroke="#63b8ff" points="207.12,-85.03 197.11,-81.54 202.75,-90.51 207.12,-85.03"/>
</a>
</g>
</g>
<!-- Node6&#45;&gt;Node8 -->
<g id="edge7_Node000006_Node000008" class="edge">
<title>Node6&#45;&gt;Node8</title>
<g id="a_edge7_Node000006_Node000008"><a xlink:title=" ">
<path fill="none" stroke="#63b8ff" d="M290.63,-126.9C321.24,-115.8 373.16,-96.99 407.88,-84.41"/>
<polygon fill="#63b8ff" stroke="#63b8ff" points="408.87,-87.77 417.08,-81.07 406.49,-81.19 408.87,-87.77"/>
</a>
</g>
</g>
<!-- Node6&#45;&gt;Node9 -->
<g id="edge8_Node000006_Node000009" class="edge">
<title>Node6&#45;&gt;Node9</title>
<g id="a_edge8_Node000006_Node000009"><a xlink:title=" ">
<path fill="none" stroke="#63b8ff" d="M315,-126.95C366.48,-117.37 449.35,-101.49 520.5,-85.75 524.09,-84.95 527.81,-84.11 531.54,-83.23"/>
<polygon fill="#63b8ff" stroke="#63b8ff" points="532.28,-86.65 541.2,-80.93 530.66,-79.85 532.28,-86.65"/>
</a>
</g>
</g>
<!-- Node10 -->
<g id="Node000010" class="node">
<title>Node10</title>
<g id="a_Node000010"><a xlink:title=" ">
<polygon fill="#e0e0e0" stroke="#999999" points="357,-80.12 248,-80.12 248,-60.88 357,-60.88 357,-80.12"/>
<text text-anchor="middle" x="302.5" y="-66.62" font-family="Helvetica,sans-Serif" font-size="10.00">mlir/IR/ValueRange.h</text>
</a>
</g>
</g>
<!-- Node6&#45;&gt;Node10 -->
<g id="edge9_Node000006_Node000010" class="edge">
<title>Node6&#45;&gt;Node10</title>
<g id="a_edge9_Node000006_Node000010"><a xlink:title=" ">
<path fill="none" stroke="#63b8ff" d="M270.64,-127.03C276.11,-117.5 284.91,-102.16 291.88,-90.02"/>
<polygon fill="#63b8ff" stroke="#63b8ff" points="294.71,-92.12 296.65,-81.71 288.63,-88.64 294.71,-92.12"/>
</a>
</g>
</g>
<!-- Node11 -->
<g id="Node000011" class="node">
<title>Node11</title>
<g id="a_Node000011"><a xlink:title=" ">
<polygon fill="#e0e0e0" stroke="#999999" points="121,-80.12 0,-80.12 0,-60.88 121,-60.88 121,-80.12"/>
<text text-anchor="middle" x="60.5" y="-66.62" font-family="Helvetica,sans-Serif" font-size="10.00">llvm/ADT/SmallVector.h</text>
</a>
</g>
</g>
<!-- Node6&#45;&gt;Node11 -->
<g id="edge10_Node000006_Node000011" class="edge">
<title>Node6&#45;&gt;Node11</title>
<g id="a_edge10_Node000006_Node000011"><a xlink:title=" ">
<path fill="none" stroke="#63b8ff" d="M236.56,-126.9C200.93,-115.68 140.22,-96.58 100.23,-84"/>
<polygon fill="#63b8ff" stroke="#63b8ff" points="101.32,-80.68 90.73,-81.01 99.22,-87.35 101.32,-80.68"/>
</a>
</g>
</g>
<!-- Node16&#45;&gt;Node5 -->
<g id="edge25_Node000016_Node000005" class="edge">
<title>Node16&#45;&gt;Node5</title>
<g id="a_edge25_Node000016_Node000005"><a xlink:title=" ">
<path fill="none" stroke="#63b8ff" d="M1217.17,-265.36C1126.32,-258.16 921.24,-240.86 749.5,-218.75 740.34,-217.57 730.68,-216.18 721.23,-214.73"/>
<polygon fill="#63b8ff" stroke="#63b8ff" points="721.77,-211.28 711.35,-213.19 720.69,-218.19 721.77,-211.28"/>
</a>
</g>
</g>
<!-- Node17 -->
<g id="Node000017" class="node">
<title>Node17</title>
<g id="a_Node000017"><a xlink:href="_op_traits_8h.html" target="_top" xlink:title=" ">
<polygon fill="white" stroke="#666666" points="864.12,-218.75 758.88,-218.75 758.88,-188.25 864.12,-188.25 864.12,-218.75"/>
<text text-anchor="start" x="766.88" y="-205.25" font-family="Helvetica,sans-Serif" font-size="10.00">llzk/Dialect/Function</text>
<text text-anchor="middle" x="811.5" y="-194" font-family="Helvetica,sans-Serif" font-size="10.00">/IR/OpTraits.h</text>
</a>
</g>
</g>
<!-- Node16&#45;&gt;Node17 -->
<g id="edge18_Node000016_Node000017" class="edge">
<title>Node16&#45;&gt;Node17</title>
<g id="a_edge18_Node000016_Node000017"><a xlink:title=" ">
<path fill="none" stroke="#63b8ff" d="M1217.3,-262.28C1135.62,-250.65 967.81,-226.76 875.63,-213.63"/>
<polygon fill="#63b8ff" stroke="#63b8ff" points="876.4,-210.21 866,-212.26 875.41,-217.14 876.4,-210.21"/>
</a>
</g>
</g>
<!-- Node19 -->
<g id="Node000019" class="node">
<title>Node19</title>
<g id="a_Node000019"><a xlink:href="_l_l_z_k_2_i_r_2_attrs_8h.html" target="_top" xlink:title=" ">
<polygon fill="white" stroke="#666666" points="1509.75,-218.75 1405.25,-218.75 1405.25,-188.25 1509.75,-188.25 1509.75,-218.75"/>
<text text-anchor="start" x="1413.25" y="-205.25" font-family="Helvetica,sans-Serif" font-size="10.00">llzk/Dialect/LLZK/IR</text>
<text text-anchor="middle" x="1457.5" y="-194" font-family="Helvetica,sans-Serif" font-size="10.00">/Attrs.h</text>
</a>
</g>
</g>
<!-- Node16&#45;&gt;Node19 -->
<g id="edge22_Node000016_Node000019" class="edge">
<title>Node16&#45;&gt;Node19</title>
<g id="a_edge22_Node000016_Node000019"><a xlink:title=" ">
<path fill="none" stroke="#63b8ff" d="M1308.29,-254.36C1336.33,-245 1372.92,-232.77 1402.85,-222.76"/>
<polygon fill="#63b8ff" stroke="#63b8ff" points="1403.73,-226.16 1412.11,-219.67 1401.52,-219.52 1403.73,-226.16"/>
</a>
</g>
</g>
<!-- Node21 -->
<g id="Node000021" class="node">
<title>Node21</title>
<g id="a_Node000021"><a xlink:href="_struct_2_i_r_2_types_8h.html" target="_top" xlink:title=" ">
<polygon fill="white" stroke="#666666" points="1311.5,-218.75 1217.5,-218.75 1217.5,-188.25 1311.5,-188.25 1311.5,-218.75"/>
<text text-anchor="start" x="1225.5" y="-205.25" font-family="Helvetica,sans-Serif" font-size="10.00">llzk/Dialect/Struct</text>
<text text-anchor="middle" x="1264.5" y="-194" font-family="Helvetica,sans-Serif" font-size="10.00">/IR/Types.h</text>
</a>
</g>
</g>
<!-- Node16&#45;&gt;Node21 -->
<g id="edge26_Node000016_Node000021" class="edge">
<title>Node16&#45;&gt;Node21</title>
<g id="a_edge26_Node000016_Node000021"><a xlink:title=" ">
<path fill="none" stroke="#63b8ff" d="M1264.5,-254.36C1264.5,-247.27 1264.5,-238.54 1264.5,-230.38"/>
<polygon fill="#63b8ff" stroke="#63b8ff" points="1268,-230.59 1264.5,-220.59 1261,-230.59 1268,-230.59"/>
</a>
</g>
</g>
<!-- Node36 -->
<g id="Node000036" class="node">
<title>Node36</title>
<g id="a_Node000036"><a xlink:href="_struct_2_i_r_2_ops_8h_8inc.html" target="_top" xlink:title=" ">
<polygon fill="white" stroke="#666666" points="1436.5,-152.25 1342.5,-152.25 1342.5,-121.75 1436.5,-121.75 1436.5,-152.25"/>
<text text-anchor="start" x="1350.5" y="-138.75" font-family="Helvetica,sans-Serif" font-size="10.00">llzk/Dialect/Struct</text>
<text text-anchor="middle" x="1389.5" y="-127.5" font-family="Helvetica,sans-Serif" font-size="10.00">/IR/Ops.h.inc</text>
</a>
</g>
</g>
<!-- Node16&#45;&gt;Node36 -->
<g id="edge50_Node000016_Node000036" class="edge">
<title>Node16&#45;&gt;Node36</title>
<g id="a_edge50_Node000016_Node000036"><a xlink:title=" ">
<path fill="none" stroke="#63b8ff" d="M1281.95,-254.39C1293.28,-244.65 1308.18,-231.37 1320.5,-218.75 1338.65,-200.16 1357.72,-177.57 1371.21,-161.01"/>
<polygon fill="#63b8ff" stroke="#63b8ff" points="1373.57,-163.66 1377.13,-153.68 1368.12,-159.26 1373.57,-163.66"/>
</a>
</g>
</g>
<!-- Node38 -->
<g id="Node000038" class="node">
<title>Node38</title>
<g id="a_Node000038"><a xlink:href="_struct_2_i_r_2_op_interfaces_8h_8inc.html" target="_top" xlink:title=" ">
<polygon fill="white" stroke="#666666" points="1199.88,-218.75 1087.12,-218.75 1087.12,-188.25 1199.88,-188.25 1199.88,-218.75"/>
<text text-anchor="start" x="1095.12" y="-205.25" font-family="Helvetica,sans-Serif" font-size="10.00">llzk/Dialect/Struct</text>
<text text-anchor="middle" x="1143.5" y="-194" font-family="Helvetica,sans-Serif" font-size="10.00">/IR/OpInterfaces.h.inc</text>
</a>
</g>
</g>
<!-- Node16&#45;&gt;Node38 -->
<g id="edge49_Node000016_Node000038" class="edge">
<title>Node16&#45;&gt;Node38</title>
<g id="a_edge49_Node000016_Node000038"><a xlink:title=" ">
<path fill="none" stroke="#63b8ff" d="M1237.04,-254.36C1220.41,-245.5 1198.98,-234.07 1180.82,-224.39"/>
<polygon fill="#63b8ff" stroke="#63b8ff" points="1182.65,-221.41 1172.18,-219.79 1179.36,-227.58 1182.65,-221.41"/>
</a>
</g>
</g>
<!-- Node17&#45;&gt;Node9 -->
<g id="edge20_Node000017_Node000009" class="edge">
<title>Node17&#45;&gt;Node9</title>
<g id="a_edge20_Node000017_Node000009"><a xlink:title=" ">
<path fill="none" stroke="#63b8ff" d="M802.1,-187.78C789.82,-169.69 766.65,-139.25 739.5,-121.75 720.66,-109.61 666.77,-94.01 626.49,-83.44"/>
<polygon fill="#63b8ff" stroke="#63b8ff" points="627.55,-80.1 617,-80.98 625.8,-86.88 627.55,-80.1"/>
</a>
</g>
</g>
<!-- Node17&#45;&gt;Node13 -->
<g id="edge21_Node000017_Node000013" class="edge">
<title>Node17&#45;&gt;Node13</title>
<g id="a_edge21_Node000017_Node000013"><a xlink:title=" ">
<path fill="none" stroke="#63b8ff" d="M777.24,-187.86C751.62,-176.92 716.86,-162.07 691.94,-151.43"/>
<polygon fill="#63b8ff" stroke="#63b8ff" points="693.56,-148.31 682.98,-147.6 690.81,-154.75 693.56,-148.31"/>
</a>
</g>
</g>
<!-- Node18 -->
<g id="Node000018" class="node">
<title>Node18</title>
<g id="a_Node000018"><a xlink:title=" ">
<polygon fill="#e0e0e0" stroke="#999999" points="896.75,-146.62 786.25,-146.62 786.25,-127.38 896.75,-127.38 896.75,-146.62"/>
<text text-anchor="middle" x="841.5" y="-133.12" font-family="Helvetica,sans-Serif" font-size="10.00">mlir/IR/OpDefinition.h</text>
</a>
</g>
</g>
<!-- Node17&#45;&gt;Node18 -->
<g id="edge19_Node000017_Node000018" class="edge">
<title>Node17&#45;&gt;Node18</title>
<g id="a_edge19_Node000017_Node000018"><a xlink:title=" ">
<path fill="none" stroke="#63b8ff" d="M818.31,-187.86C822.53,-178.78 828.01,-167.01 832.58,-157.18"/>
<polygon fill="#63b8ff" stroke="#63b8ff" points="835.71,-158.74 836.76,-148.2 829.37,-155.79 835.71,-158.74"/>
</a>
</g>
</g>
<!-- Node19&#45;&gt;Node3 -->
<g id="edge23_Node000019_Node000003" class="edge">
<title>Node19&#45;&gt;Node3</title>
<g id="a_edge23_Node000019_Node000003"><a xlink:title=" ">
<path fill="none" stroke="#63b8ff" d="M1510.04,-190.07C1512.9,-189.44 1515.73,-188.83 1518.5,-188.25 1603.46,-170.37 1625.61,-170.45 1710.5,-152.25 1714.27,-151.44 1718.17,-150.57 1722.09,-149.68"/>
<polygon fill="#63b8ff" stroke="#63b8ff" points="1722.64,-153.14 1731.58,-147.46 1721.05,-146.33 1722.64,-153.14"/>
</a>
</g>
</g>
<!-- Node20 -->
<g id="Node000020" class="node">
<title>Node20</title>
<g id="a_Node000020"><a xlink:href="_l_l_z_k_2_i_r_2_attrs_8h_8inc.html" target="_top" xlink:title=" ">
<polygon fill="white" stroke="#666666" points="1701.75,-152.25 1597.25,-152.25 1597.25,-121.75 1701.75,-121.75 1701.75,-152.25"/>
<text text-anchor="start" x="1605.25" y="-138.75" font-family="Helvetica,sans-Serif" font-size="10.00">llzk/Dialect/LLZK/IR</text>
<text text-anchor="middle" x="1649.5" y="-127.5" font-family="Helvetica,sans-Serif" font-size="10.00">/Attrs.h.inc</text>
</a>
</g>
</g>
<!-- Node19&#45;&gt;Node20 -->
<g id="edge24_Node000019_Node000020" class="edge">
<title>Node19&#45;&gt;Node20</title>
<g id="a_edge24_Node000019_Node000020"><a xlink:title=" ">
<path fill="none" stroke="#63b8ff" d="M1501.07,-187.86C1528.95,-178.5 1565.36,-166.27 1595.13,-156.26"/>
<polygon fill="#63b8ff" stroke="#63b8ff" points="1595.97,-159.67 1604.34,-153.17 1593.74,-153.04 1595.97,-159.67"/>
</a>
</g>
</g>
<!-- Node22 -->
<g id="Node000022" class="node">
<title>Node22</title>
<g id="a_Node000022"><a xlink:href="_struct_2_i_r_2_dialect_8h.html" target="_top" xlink:title=" ">
<polygon fill="white" stroke="#666666" points="1008.5,-152.25 914.5,-152.25 914.5,-121.75 1008.5,-121.75 1008.5,-152.25"/>
<text text-anchor="start" x="922.5" y="-138.75" font-family="Helvetica,sans-Serif" font-size="10.00">llzk/Dialect/Struct</text>
<text text-anchor="middle" x="961.5" y="-127.5" font-family="Helvetica,sans-Serif" font-size="10.00">/IR/Dialect.h</text>
</a>
</g>
</g>
<!-- Node21&#45;&gt;Node22 -->
<g id="edge27_Node000021_Node000022" class="edge">
<title>Node21&#45;&gt;Node22</title>
<g id="a_edge27_Node000021_Node000022"><a xlink:title=" ">
<path fill="none" stroke="#63b8ff" d="M1217.19,-190.24C1214.26,-189.55 1211.34,-188.88 1208.5,-188.25 1128.03,-170.41 1104.37,-170.63 1019.91,-152.46"/>
<polygon fill="#63b8ff" stroke="#63b8ff" points="1020.72,-149.06 1010.21,-150.35 1019.23,-155.9 1020.72,-149.06"/>
</a>
</g>
</g>
<!-- Node25 -->
<g id="Node000025" class="node">
<title>Node25</title>
<g id="a_Node000025"><a xlink:href="_symbol_lookup_8h.html" target="_top" xlink:title="This file defines methods symbol lookup across LLZK operations and included files.">
<polygon fill="white" stroke="#666666" points="1578.88,-146.62 1454.12,-146.62 1454.12,-127.38 1578.88,-127.38 1578.88,-146.62"/>
<text text-anchor="middle" x="1516.5" y="-133.12" font-family="Helvetica,sans-Serif" font-size="10.00">llzk/Util/SymbolLookup.h</text>
</a>
</g>
</g>
<!-- Node21&#45;&gt;Node25 -->
<g id="edge30_Node000021_Node000025" class="edge">
<title>Node21&#45;&gt;Node25</title>
<g id="a_edge30_Node000021_Node000025"><a xlink:title=" ">
<path fill="none" stroke="#63b8ff" d="M1311.9,-190.37C1357.24,-178.76 1425.2,-161.37 1470.18,-149.85"/>
<polygon fill="#63b8ff" stroke="#63b8ff" points="1470.81,-153.31 1479.63,-147.44 1469.08,-146.53 1470.81,-153.31"/>
</a>
</g>
</g>
<!-- Node28 -->
<g id="Node000028" class="node">
<title>Node28</title>
<g id="a_Node000028"><a xlink:href="_type_helper_8h.html" target="_top" xlink:title=" ">
<polygon fill="white" stroke="#666666" points="1136,-146.62 1027,-146.62 1027,-127.38 1136,-127.38 1136,-146.62"/>
<text text-anchor="middle" x="1081.5" y="-133.12" font-family="Helvetica,sans-Serif" font-size="10.00">llzk/Util/TypeHelper.h</text>
</a>
</g>
</g>
<!-- Node21&#45;&gt;Node28 -->
<g id="edge36_Node000021_Node000028" class="edge">
<title>Node21&#45;&gt;Node28</title>
<g id="a_edge36_Node000021_Node000028"><a xlink:title=" ">
<path fill="none" stroke="#63b8ff" d="M1222.97,-187.86C1191.32,-176.71 1148.16,-161.5 1117.87,-150.82"/>
<polygon fill="#63b8ff" stroke="#63b8ff" points="1119.35,-147.63 1108.76,-147.61 1117.03,-154.23 1119.35,-147.63"/>
</a>
</g>
</g>
<!-- Node21&#45;&gt;Node36 -->
<g id="edge47_Node000021_Node000036" class="edge">
<title>Node21&#45;&gt;Node36</title>
<g id="a_edge47_Node000021_Node000036"><a xlink:title=" ">
<path fill="none" stroke="#63b8ff" d="M1292.86,-187.86C1310.13,-178.96 1332.4,-167.47 1351.21,-157.76"/>
<polygon fill="#63b8ff" stroke="#63b8ff" points="1352.62,-160.97 1359.9,-153.27 1349.41,-154.75 1352.62,-160.97"/>
</a>
</g>
</g>
<!-- Node37 -->
<g id="Node000037" class="node">
<title>Node37</title>
<g id="a_Node000037"><a xlink:href="_struct_2_i_r_2_types_8h_8inc.html" target="_top" xlink:title=" ">
<polygon fill="white" stroke="#666666" points="1324.5,-152.25 1230.5,-152.25 1230.5,-121.75 1324.5,-121.75 1324.5,-152.25"/>
<text text-anchor="start" x="1238.5" y="-138.75" font-family="Helvetica,sans-Serif" font-size="10.00">llzk/Dialect/Struct</text>
<text text-anchor="middle" x="1277.5" y="-127.5" font-family="Helvetica,sans-Serif" font-size="10.00">/IR/Types.h.inc</text>
</a>
</g>
</g>
<!-- Node21&#45;&gt;Node37 -->
<g id="edge48_Node000021_Node000037" class="edge">
<title>Node21&#45;&gt;Node37</title>
<g id="a_edge48_Node000021_Node000037"><a xlink:title=" ">
<path fill="none" stroke="#63b8ff" d="M1267.45,-187.86C1268.9,-180.69 1270.68,-171.84 1272.34,-163.59"/>
<polygon fill="#63b8ff" stroke="#63b8ff" points="1275.72,-164.56 1274.26,-154.06 1268.86,-163.17 1275.72,-164.56"/>
</a>
</g>
</g>
<!-- Node23 -->
<g id="Node000023" class="node">
<title>Node23</title>
<g id="a_Node000023"><a xlink:title=" ">
<polygon fill="#e0e0e0" stroke="#999999" points="747.25,-80.12 645.75,-80.12 645.75,-60.88 747.25,-60.88 747.25,-80.12"/>
<text text-anchor="middle" x="696.5" y="-66.62" font-family="Helvetica,sans-Serif" font-size="10.00">mlir/IR/BuiltinOps.h</text>
</a>
</g>
</g>
<!-- Node22&#45;&gt;Node23 -->
<g id="edge28_Node000022_Node000023" class="edge">
<title>Node22&#45;&gt;Node23</title>
<g id="a_edge28_Node000022_Node000023"><a xlink:title=" ">
<path fill="none" stroke="#63b8ff" d="M914.15,-123.91C911.23,-123.17 908.32,-122.45 905.5,-121.75 875.55,-114.34 797.08,-95.53 745.28,-83.15"/>
<polygon fill="#63b8ff" stroke="#63b8ff" points="746.35,-79.81 735.81,-80.88 744.72,-86.61 746.35,-79.81"/>
</a>
</g>
</g>
<!-- Node24 -->
<g id="Node000024" class="node">
<title>Node24</title>
<g id="a_Node000024"><a xlink:href="_struct_2_i_r_2_dialect_8h_8inc.html" target="_top" xlink:title=" ">
<polygon fill="white" stroke="#666666" points="859.5,-85.75 765.5,-85.75 765.5,-55.25 859.5,-55.25 859.5,-85.75"/>
<text text-anchor="start" x="773.5" y="-72.25" font-family="Helvetica,sans-Serif" font-size="10.00">llzk/Dialect/Struct</text>
<text text-anchor="middle" x="812.5" y="-61" font-family="Helvetica,sans-Serif" font-size="10.00">/IR/Dialect.h.inc</text>
</a>
</g>
</g>
<!-- Node22&#45;&gt;Node24 -->
<g id="edge29_Node000022_Node000024" class="edge">
<title>Node22&#45;&gt;Node24</title>
<g id="a_edge29_Node000022_Node000024"><a xlink:title=" ">
<path fill="none" stroke="#63b8ff" d="M927.69,-121.36C906.71,-112.28 879.53,-100.52 856.84,-90.69"/>
<polygon fill="#63b8ff" stroke="#63b8ff" points="858.39,-87.55 847.82,-86.79 855.61,-93.98 858.39,-87.55"/>
</a>
</g>
</g>
<!-- Node25&#45;&gt;Node9 -->
<g id="edge32_Node000025_Node000009" class="edge">
<title>Node25&#45;&gt;Node9</title>
<g id="a_edge32_Node000025_Node000009"><a xlink:title=" ">
<path fill="none" stroke="#63b8ff" d="M1476.87,-126.93C1466.7,-124.91 1455.73,-123 1445.5,-121.75 1088.23,-78.21 992.75,-136.93 636.5,-85.75 631.77,-85.07 626.85,-84.17 621.98,-83.16"/>
<polygon fill="#63b8ff" stroke="#63b8ff" points="622.8,-79.75 612.27,-80.96 621.25,-86.58 622.8,-79.75"/>
</a>
</g>
</g>
<!-- Node25&#45;&gt;Node12 -->
<g id="edge31_Node000025_Node000012" class="edge">
<title>Node25&#45;&gt;Node12</title>
<g id="a_edge31_Node000025_Node000012"><a xlink:title=" ">
<path fill="none" stroke="#63b8ff" d="M1524.7,-127.03C1533.77,-117.12 1548.6,-100.91 1559.89,-88.56"/>
<polygon fill="#63b8ff" stroke="#63b8ff" points="1562.18,-91.25 1566.34,-81.51 1557.01,-86.53 1562.18,-91.25"/>
</a>
</g>
</g>
<!-- Node25&#45;&gt;Node15 -->
<g id="edge34_Node000025_Node000015" class="edge">
<title>Node25&#45;&gt;Node15</title>
<g id="a_edge34_Node000025_Node000015"><a xlink:title=" ">
<path fill="none" stroke="#63b8ff" d="M1507.18,-127.03C1496.78,-117.02 1479.72,-100.6 1466.85,-88.2"/>
<polygon fill="#63b8ff" stroke="#63b8ff" points="1469.46,-85.86 1459.83,-81.44 1464.6,-90.9 1469.46,-85.86"/>
</a>
</g>
</g>
<!-- Node26 -->
<g id="Node000026" class="node">
<title>Node26</title>
<g id="a_Node000026"><a xlink:title=" ">
<polygon fill="#e0e0e0" stroke="#999999" points="1764.5,-80.12 1646.5,-80.12 1646.5,-60.88 1764.5,-60.88 1764.5,-80.12"/>
<text text-anchor="middle" x="1705.5" y="-66.62" font-family="Helvetica,sans-Serif" font-size="10.00">mlir/IR/OwningOpRef.h</text>
</a>
</g>
</g>
<!-- Node25&#45;&gt;Node26 -->
<g id="edge33_Node000025_Node000026" class="edge">
<title>Node25&#45;&gt;Node26</title>
<g id="a_edge33_Node000025_Node000026"><a xlink:title=" ">
<path fill="none" stroke="#63b8ff" d="M1543.18,-126.9C1575.82,-115.76 1631.29,-96.83 1668.16,-84.24"/>
<polygon fill="#63b8ff" stroke="#63b8ff" points="1669.19,-87.59 1677.53,-81.05 1666.93,-80.96 1669.19,-87.59"/>
</a>
</g>
</g>
<!-- Node27 -->
<g id="Node000027" class="node">
<title>Node27</title>
<g id="a_Node000027"><a xlink:title=" ">
<polygon fill="#e0e0e0" stroke="#999999" points="1826,-80.12 1783,-80.12 1783,-60.88 1826,-60.88 1826,-80.12"/>
<text text-anchor="middle" x="1804.5" y="-66.62" font-family="Helvetica,sans-Serif" font-size="10.00">vector</text>
</a>
</g>
</g>
<!-- Node25&#45;&gt;Node27 -->
<g id="edge35_Node000025_Node000027" class="edge">
<title>Node25&#45;&gt;Node27</title>
<g id="a_edge35_Node000025_Node000027"><a xlink:title=" ">
<path fill="none" stroke="#63b8ff" d="M1562.2,-126.93C1570.93,-125.21 1580,-123.42 1588.5,-121.75 1670.7,-105.62 1693.77,-111.43 1773.5,-85.75 1774.46,-85.44 1775.43,-85.11 1776.41,-84.76"/>
<polygon fill="#63b8ff" stroke="#63b8ff" points="1777.42,-88.13 1785.36,-81.11 1774.78,-81.65 1777.42,-88.13"/>
</a>
</g>
</g>
<!-- Node28&#45;&gt;Node8 -->
<g id="edge41_Node000028_Node000008" class="edge">
<title>Node28&#45;&gt;Node8</title>
<g id="a_edge41_Node000028_Node000008"><a xlink:title=" ">
<path fill="none" stroke="#63b8ff" d="M1045.12,-126.93C1036.14,-124.96 1026.51,-123.07 1017.5,-121.75 798.38,-89.6 740.17,-113.94 520.5,-85.75 513.51,-84.85 506.19,-83.73 498.97,-82.52"/>
<polygon fill="#63b8ff" stroke="#63b8ff" points="499.7,-79.1 489.24,-80.82 498.49,-85.99 499.7,-79.1"/>
</a>
</g>
</g>
<!-- Node28&#45;&gt;Node9 -->
<g id="edge42_Node000028_Node000009" class="edge">
<title>Node28&#45;&gt;Node9</title>
<g id="a_edge42_Node000028_Node000009"><a xlink:title=" ">
<path fill="none" stroke="#63b8ff" d="M1044.42,-126.92C1035.64,-125 1026.27,-123.14 1017.5,-121.75 849.49,-95.22 804.21,-114.12 636.5,-85.75 632.08,-85 627.51,-84.1 622.95,-83.12"/>
<polygon fill="#63b8ff" stroke="#63b8ff" points="623.76,-79.72 613.23,-80.9 622.2,-86.54 623.76,-79.72"/>
</a>
</g>
</g>
<!-- Node28&#45;&gt;Node15 -->
<g id="edge46_Node000028_Node000015" class="edge">
<title>Node28&#45;&gt;Node15</title>
<g id="a_edge46_Node000028_Node000015"><a xlink:title=" ">
<path fill="none" stroke="#63b8ff" d="M1123.76,-126.91C1132.58,-125.12 1141.83,-123.31 1150.5,-121.75 1254.5,-103.06 1281.65,-105.24 1385.5,-85.75 1390.09,-84.89 1394.86,-83.94 1399.63,-82.94"/>
<polygon fill="#63b8ff" stroke="#63b8ff" points="1400.14,-86.41 1409.18,-80.9 1398.67,-79.57 1400.14,-86.41"/>
</a>
</g>
</g>
<!-- Node29 -->
<g id="Node000029" class="node">
<title>Node29</title>
<g id="a_Node000029"><a xlink:href="_error_helper_8h.html" target="_top" xlink:title=" ">
<polygon fill="white" stroke="#666666" points="1120,-80.12 1011,-80.12 1011,-60.88 1120,-60.88 1120,-80.12"/>
<text text-anchor="middle" x="1065.5" y="-66.62" font-family="Helvetica,sans-Serif" font-size="10.00">llzk/Util/ErrorHelper.h</text>
</a>
</g>
</g>
<!-- Node28&#45;&gt;Node29 -->
<g id="edge37_Node000028_Node000029" class="edge">
<title>Node28&#45;&gt;Node29</title>
<g id="a_edge37_Node000028_Node000029"><a xlink:title=" ">
<path fill="none" stroke="#63b8ff" d="M1079.28,-127.03C1077.01,-117.89 1073.41,-103.39 1070.46,-91.5"/>
<polygon fill="#63b8ff" stroke="#63b8ff" points="1073.88,-90.72 1068.07,-81.86 1067.08,-92.41 1073.88,-90.72"/>
</a>
</g>
</g>
<!-- Node33 -->
<g id="Node000033" class="node">
<title>Node33</title>
<g id="a_Node000033"><a xlink:title=" ">
<polygon fill="#e0e0e0" stroke="#999999" points="1250.88,-80.12 1138.12,-80.12 1138.12,-60.88 1250.88,-60.88 1250.88,-80.12"/>
<text text-anchor="middle" x="1194.5" y="-66.62" font-family="Helvetica,sans-Serif" font-size="10.00">mlir/IR/SymbolTable.h</text>
</a>
</g>
</g>
<!-- Node28&#45;&gt;Node33 -->
<g id="edge43_Node000028_Node000033" class="edge">
<title>Node28&#45;&gt;Node33</title>
<g id="a_edge43_Node000028_Node000033"><a xlink:title=" ">
<path fill="none" stroke="#63b8ff" d="M1097.21,-127.03C1115.74,-116.45 1146.81,-98.72 1168.85,-86.14"/>
<polygon fill="#63b8ff" stroke="#63b8ff" points="1170.29,-89.35 1177.24,-81.35 1166.82,-83.27 1170.29,-89.35"/>
</a>
</g>
</g>
<!-- Node34 -->
<g id="Node000034" class="node">
<title>Node34</title>
<g id="a_Node000034"><a xlink:title=" ">
<polygon fill="#e0e0e0" stroke="#999999" points="1376.25,-80.12 1268.75,-80.12 1268.75,-60.88 1376.25,-60.88 1376.25,-80.12"/>
<text text-anchor="middle" x="1322.5" y="-66.62" font-family="Helvetica,sans-Serif" font-size="10.00">llvm/ADT/ArrayRef.h</text>
</a>
</g>
</g>
<!-- Node28&#45;&gt;Node34 -->
<g id="edge44_Node000028_Node000034" class="edge">
<title>Node28&#45;&gt;Node34</title>
<g id="a_edge44_Node000028_Node000034"><a xlink:title=" ">
<path fill="none" stroke="#63b8ff" d="M1115.52,-126.9C1157.95,-115.54 1230.62,-96.09 1277.59,-83.52"/>
<polygon fill="#63b8ff" stroke="#63b8ff" points="1278.44,-86.92 1287.19,-80.95 1276.63,-80.15 1278.44,-86.92"/>
</a>
</g>
</g>
<!-- Node35 -->
<g id="Node000035" class="node">
<title>Node35</title>
<g id="a_Node000035"><a xlink:title=" ">
<polygon fill="#e0e0e0" stroke="#999999" points="993.38,-80.12 877.62,-80.12 877.62,-60.88 993.38,-60.88 993.38,-80.12"/>
<text text-anchor="middle" x="935.5" y="-66.62" font-family="Helvetica,sans-Serif" font-size="10.00">llvm/ADT/DenseMap.h</text>
</a>
</g>
</g>
<!-- Node28&#45;&gt;Node35 -->
<g id="edge45_Node000028_Node000035" class="edge">
<title>Node28&#45;&gt;Node35</title>
<g id="a_edge45_Node000028_Node000035"><a xlink:title=" ">
<path fill="none" stroke="#63b8ff" d="M1060.89,-126.9C1036.22,-116 994.67,-97.64 966.21,-85.07"/>
<polygon fill="#63b8ff" stroke="#63b8ff" points="967.95,-82.01 957.39,-81.17 965.12,-88.41 967.95,-82.01"/>
</a>
</g>
</g>
<!-- Node30 -->
<g id="Node000030" class="node">
<title>Node30</title>
<g id="a_Node000030"><a xlink:title=" ">
<polygon fill="#e0e0e0" stroke="#999999" points="1000.5,-19.25 840.5,-19.25 840.5,0 1000.5,0 1000.5,-19.25"/>
<text text-anchor="middle" x="920.5" y="-5.75" font-family="Helvetica,sans-Serif" font-size="10.00">llvm/ADT/STLFunctionalExtras.h</text>
</a>
</g>
</g>
<!-- Node29&#45;&gt;Node30 -->
<g id="edge38_Node000029_Node000030" class="edge">
<title>Node29&#45;&gt;Node30</title>
<g id="a_edge38_Node000029_Node000030"><a xlink:title=" ">
<path fill="none" stroke="#63b8ff" d="M1043.16,-60.43C1019.14,-50.68 980.72,-35.08 953.28,-23.93"/>
<polygon fill="#63b8ff" stroke="#63b8ff" points="954.61,-20.7 944.03,-20.18 951.98,-27.18 954.61,-20.7"/>
</a>
</g>
</g>
<!-- Node31 -->
<g id="Node000031" class="node">
<title>Node31</title>
<g id="a_Node000031"><a xlink:title=" ">
<polygon fill="#e0e0e0" stroke="#999999" points="1112.5,-19.25 1018.5,-19.25 1018.5,0 1112.5,0 1112.5,-19.25"/>
<text text-anchor="middle" x="1065.5" y="-5.75" font-family="Helvetica,sans-Serif" font-size="10.00">llvm/ADT/Twine.h</text>
</a>
</g>
</g>
<!-- Node29&#45;&gt;Node31 -->
<g id="edge39_Node000029_Node000031" class="edge">
<title>Node29&#45;&gt;Node31</title>
<g id="a_edge39_Node000029_Node000031"><a xlink:title=" ">
<path fill="none" stroke="#63b8ff" d="M1065.5,-60.56C1065.5,-52.78 1065.5,-41.2 1065.5,-31.16"/>
<polygon fill="#63b8ff" stroke="#63b8ff" points="1069,-31.16 1065.5,-21.16 1062,-31.16 1069,-31.16"/>
</a>
</g>
</g>
<!-- Node32 -->
<g id="Node000032" class="node">
<title>Node32</title>
<g id="a_Node000032"><a xlink:title=" ">
<polygon fill="#e0e0e0" stroke="#999999" points="1272.12,-19.25 1130.88,-19.25 1130.88,0 1272.12,0 1272.12,-19.25"/>
<text text-anchor="middle" x="1201.5" y="-5.75" font-family="Helvetica,sans-Serif" font-size="10.00">llvm/Support/ErrorHandling.h</text>
</a>
</g>
</g>
<!-- Node29&#45;&gt;Node32 -->
<g id="edge40_Node000029_Node000032" class="edge">
<title>Node29&#45;&gt;Node32</title>
<g id="a_edge40_Node000029_Node000032"><a xlink:title=" ">
<path fill="none" stroke="#63b8ff" d="M1086.45,-60.43C1108.88,-50.72 1144.7,-35.21 1170.41,-24.08"/>
<polygon fill="#63b8ff" stroke="#63b8ff" points="1171.57,-27.39 1179.36,-20.21 1168.79,-20.97 1171.57,-27.39"/>
</a>
</g>
</g>
<!-- Node39&#45;&gt;Node25 -->
<g id="edge53_Node000039_Node000025" class="edge">
<title>Node39&#45;&gt;Node25</title>
<g id="a_edge53_Node000039_Node000025"><a xlink:title=" ">
<path fill="none" stroke="#63b8ff" d="M1514.51,-259.88C1468.5,-251.61 1410.93,-237.79 1396.5,-218.75 1372.36,-186.9 1424.61,-163.44 1467.6,-150.25"/>
<polygon fill="#63b8ff" stroke="#63b8ff" points="1468.5,-153.64 1477.11,-147.47 1466.53,-146.92 1468.5,-153.64"/>
</a>
</g>
</g>
<!-- Node39&#45;&gt;Node40 -->
<g id="edge54_Node000039_Node000040" class="edge">
<title>Node39&#45;&gt;Node40</title>
<g id="a_edge54_Node000039_Node000040"><a xlink:title=" ">
<path fill="none" stroke="#63b8ff" d="M1588.15,-260.03C1602.74,-249.69 1626.97,-232.52 1644.63,-220"/>
<polygon fill="#63b8ff" stroke="#63b8ff" points="1646.29,-223.11 1652.43,-214.48 1642.24,-217.4 1646.29,-223.11"/>
</a>
</g>
</g>
<!-- Node41 -->
<g id="Node000041" class="node">
<title>Node41</title>
<g id="a_Node000041"><a xlink:title=" ">
<polygon fill="#e0e0e0" stroke="#999999" points="1573.12,-213.12 1527.88,-213.12 1527.88,-193.88 1573.12,-193.88 1573.12,-213.12"/>
<text text-anchor="middle" x="1550.5" y="-199.62" font-family="Helvetica,sans-Serif" font-size="10.00">ranges</text>
</a>
</g>
</g>
<!-- Node39&#45;&gt;Node41 -->
<g id="edge55_Node000039_Node000041" class="edge">
<title>Node39&#45;&gt;Node41</title>
<g id="a_edge55_Node000039_Node000041"><a xlink:title=" ">
<path fill="none" stroke="#63b8ff" d="M1572.02,-260.03C1568.4,-250.69 1562.62,-235.78 1557.96,-223.76"/>
<polygon fill="#63b8ff" stroke="#63b8ff" points="1561.37,-222.86 1554.49,-214.8 1554.84,-225.39 1561.37,-222.86"/>
</a>
</g>
</g>
</g>
</svg>
