<?xml version="1.0" encoding="UTF-8" standalone="no"?>
<!DOCTYPE svg PUBLIC "-//W3C//DTD SVG 1.1//EN"
 "http://www.w3.org/Graphics/SVG/1.1/DTD/svg11.dtd">
<!-- Generated by graphviz version 12.2.1 (0)
 -->
<!-- Title: include/llzk/Dialect/Global/IR/Ops.h Pages: 1 -->
<svg width="1155pt" height="172pt"
 viewBox="0.00 0.00 1154.62 171.50" xmlns="http://www.w3.org/2000/svg" xmlns:xlink="http://www.w3.org/1999/xlink">
<g id="graph0" class="graph" transform="scale(1 1) rotate(0) translate(4 167.5)">
<title>include/llzk/Dialect/Global/IR/Ops.h</title>
<!-- Node1 -->
<g id="Node000001" class="node">
<title>Node1</title>
<g id="a_Node000001"><a xlink:title=" ">
<polygon fill="#999999" stroke="#666666" points="903.5,-163.5 805,-163.5 805,-133 903.5,-133 903.5,-163.5"/>
<text text-anchor="start" x="813" y="-150" font-family="Helvetica,sans-Serif" font-size="10.00">include/llzk/Dialect</text>
<text text-anchor="middle" x="854.25" y="-138.75" font-family="Helvetica,sans-Serif" font-size="10.00">/Global/IR/Ops.h</text>
</a>
</g>
</g>
<!-- Node2 -->
<g id="Node000002" class="node">
<title>Node2</title>
<g id="a_Node000002"><a xlink:href="_op_traits_8h.html" target="_top" xlink:title=" ">
<polygon fill="white" stroke="#666666" points="319.88,-97 214.62,-97 214.62,-66.5 319.88,-66.5 319.88,-97"/>
<text text-anchor="start" x="222.62" y="-83.5" font-family="Helvetica,sans-Serif" font-size="10.00">llzk/Dialect/Function</text>
<text text-anchor="middle" x="267.25" y="-72.25" font-family="Helvetica,sans-Serif" font-size="10.00">/IR/OpTraits.h</text>
</a>
</g>
</g>
<!-- Node1&#45;&gt;Node2 -->
<g id="edge1_Node000001_Node000002" class="edge">
<title>Node1&#45;&gt;Node2</title>
<g id="a_edge1_Node000001_Node000002"><a xlink:title=" ">
<path fill="none" stroke="#63b8ff" d="M804.71,-141.81C698.65,-130.15 449.68,-102.8 331.58,-89.82"/>
<polygon fill="#63b8ff" stroke="#63b8ff" points="332.06,-86.35 321.74,-88.74 331.29,-93.31 332.06,-86.35"/>
</a>
</g>
</g>
<!-- Node6 -->
<g id="Node000006" class="node">
<title>Node6</title>
<g id="a_Node000006"><a xlink:href="_global_2_i_r_2_dialect_8h.html" target="_top" xlink:title=" ">
<polygon fill="white" stroke="#666666" points="902,-97 806.5,-97 806.5,-66.5 902,-66.5 902,-97"/>
<text text-anchor="start" x="814.5" y="-83.5" font-family="Helvetica,sans-Serif" font-size="10.00">llzk/Dialect/Global</text>
<text text-anchor="middle" x="854.25" y="-72.25" font-family="Helvetica,sans-Serif" font-size="10.00">/IR/Dialect.h</text>
</a>
</g>
</g>
<!-- Node1&#45;&gt;Node6 -->
<g id="edge5_Node000001_Node000006" class="edge">
<title>Node1&#45;&gt;Node6</title>
<g id="a_edge5_Node000001_Node000006"><a xlink:title=" ">
<path fill="none" stroke="#63b8ff" d="M854.25,-132.61C854.25,-125.52 854.25,-116.79 854.25,-108.63"/>
<polygon fill="#63b8ff" stroke="#63b8ff" points="857.75,-108.84 854.25,-98.84 850.75,-108.84 857.75,-108.84"/>
</a>
</g>
</g>
<!-- Node9 -->
<g id="Node000009" class="node">
<title>Node9</title>
<g id="a_Node000009"><a xlink:href="_symbol_lookup_8h.html" target="_top" xlink:title="This file defines methods symbol lookup across LLZK operations and included files.">
<polygon fill="white" stroke="#666666" points="694.62,-91.38 569.88,-91.38 569.88,-72.12 694.62,-72.12 694.62,-91.38"/>
<text text-anchor="middle" x="632.25" y="-77.88" font-family="Helvetica,sans-Serif" font-size="10.00">llzk/Util/SymbolLookup.h</text>
</a>
</g>
</g>
<!-- Node1&#45;&gt;Node9 -->
<g id="edge8_Node000001_Node000009" class="edge">
<title>Node1&#45;&gt;Node9</title>
<g id="a_edge8_Node000001_Node000009"><a xlink:title=" ">
<path fill="none" stroke="#63b8ff" d="M804.71,-132.86C765.56,-121.48 711.53,-105.78 674.43,-95.01"/>
<polygon fill="#63b8ff" stroke="#63b8ff" points="675.53,-91.68 664.95,-92.25 673.58,-98.4 675.53,-91.68"/>
</a>
</g>
</g>
<!-- Node14 -->
<g id="Node000014" class="node">
<title>Node14</title>
<g id="a_Node000014"><a xlink:href="_global_2_i_r_2_ops_8h_8inc.html" target="_top" xlink:title=" ">
<polygon fill="white" stroke="#666666" points="1016,-97 920.5,-97 920.5,-66.5 1016,-66.5 1016,-97"/>
<text text-anchor="start" x="928.5" y="-83.5" font-family="Helvetica,sans-Serif" font-size="10.00">llzk/Dialect/Global</text>
<text text-anchor="middle" x="968.25" y="-72.25" font-family="Helvetica,sans-Serif" font-size="10.00">/IR/Ops.h.inc</text>
</a>
</g>
</g>
<!-- Node1&#45;&gt;Node14 -->
<g id="edge14_Node000001_Node000014" class="edge">
<title>Node1&#45;&gt;Node14</title>
<g id="a_edge14_Node000001_Node000014"><a xlink:title=" ">
<path fill="none" stroke="#63b8ff" d="M880.12,-132.61C895.71,-123.79 915.8,-112.43 932.85,-102.78"/>
<polygon fill="#63b8ff" stroke="#63b8ff" points="934.19,-106.04 941.17,-98.07 930.74,-99.95 934.19,-106.04"/>
</a>
</g>
</g>
<!-- Node15 -->
<g id="Node000015" class="node">
<title>Node15</title>
<g id="a_Node000015"><a xlink:href="_global_2_i_r_2_op_interfaces_8h_8inc.html" target="_top" xlink:title=" ">
<polygon fill="white" stroke="#666666" points="1146.62,-97 1033.88,-97 1033.88,-66.5 1146.62,-66.5 1146.62,-97"/>
<text text-anchor="start" x="1041.88" y="-83.5" font-family="Helvetica,sans-Serif" font-size="10.00">llzk/Dialect/Global</text>
<text text-anchor="middle" x="1090.25" y="-72.25" font-family="Helvetica,sans-Serif" font-size="10.00">/IR/OpInterfaces.h.inc</text>
</a>
</g>
</g>
<!-- Node1&#45;&gt;Node15 -->
<g id="edge15_Node000001_Node000015" class="edge">
<title>Node1&#45;&gt;Node15</title>
<g id="a_edge15_Node000001_Node000015"><a xlink:title=" ">
<path fill="none" stroke="#63b8ff" d="M903.72,-133.73C939.03,-124.08 986.86,-111.01 1025.25,-100.52"/>
<polygon fill="#63b8ff" stroke="#63b8ff" points="1026.13,-103.9 1034.86,-97.89 1024.29,-97.15 1026.13,-103.9"/>
</a>
</g>
</g>
<!-- Node3 -->
<g id="Node000003" class="node">
<title>Node3</title>
<g id="a_Node000003"><a xlink:title=" ">
<polygon fill="#e0e0e0" stroke="#999999" points="110.5,-24.88 0,-24.88 0,-5.63 110.5,-5.63 110.5,-24.88"/>
<text text-anchor="middle" x="55.25" y="-11.38" font-family="Helvetica,sans-Serif" font-size="10.00">mlir/IR/OpDefinition.h</text>
</a>
</g>
</g>
<!-- Node2&#45;&gt;Node3 -->
<g id="edge2_Node000002_Node000003" class="edge">
<title>Node2&#45;&gt;Node3</title>
<g id="a_edge2_Node000002_Node000003"><a xlink:title=" ">
<path fill="none" stroke="#63b8ff" d="M218.88,-66.03C181.72,-54.73 130.98,-39.29 95.9,-28.62"/>
<polygon fill="#63b8ff" stroke="#63b8ff" points="97.13,-25.33 86.54,-25.77 95.09,-32.03 97.13,-25.33"/>
</a>
</g>
</g>
<!-- Node4 -->
<g id="Node000004" class="node">
<title>Node4</title>
<g id="a_Node000004"><a xlink:title=" ">
<polygon fill="#e0e0e0" stroke="#999999" points="384.5,-24.88 286,-24.88 286,-5.63 384.5,-5.63 384.5,-24.88"/>
<text text-anchor="middle" x="335.25" y="-11.38" font-family="Helvetica,sans-Serif" font-size="10.00">mlir/IR/Operation.h</text>
</a>
</g>
</g>
<!-- Node2&#45;&gt;Node4 -->
<g id="edge3_Node000002_Node000004" class="edge">
<title>Node2&#45;&gt;Node4</title>
<g id="a_edge3_Node000002_Node000004"><a xlink:title=" ">
<path fill="none" stroke="#63b8ff" d="M282.68,-66.11C293.09,-56.24 306.85,-43.19 317.68,-32.92"/>
<polygon fill="#63b8ff" stroke="#63b8ff" points="320,-35.54 324.85,-26.11 315.19,-30.46 320,-35.54"/>
</a>
</g>
</g>
<!-- Node5 -->
<g id="Node000005" class="node">
<title>Node5</title>
<g id="a_Node000005"><a xlink:title=" ">
<polygon fill="#e0e0e0" stroke="#999999" points="267.75,-24.88 128.75,-24.88 128.75,-5.63 267.75,-5.63 267.75,-24.88"/>
<text text-anchor="middle" x="198.25" y="-11.38" font-family="Helvetica,sans-Serif" font-size="10.00">mlir/Support/LogicalResult.h</text>
</a>
</g>
</g>
<!-- Node2&#45;&gt;Node5 -->
<g id="edge4_Node000002_Node000005" class="edge">
<title>Node2&#45;&gt;Node5</title>
<g id="a_edge4_Node000002_Node000005"><a xlink:title=" ">
<path fill="none" stroke="#63b8ff" d="M251.59,-66.11C241.03,-56.24 227.07,-43.19 216.08,-32.92"/>
<polygon fill="#63b8ff" stroke="#63b8ff" points="218.49,-30.38 208.79,-26.11 213.71,-35.49 218.49,-30.38"/>
</a>
</g>
</g>
<!-- Node7 -->
<g id="Node000007" class="node">
<title>Node7</title>
<g id="a_Node000007"><a xlink:title=" ">
<polygon fill="#e0e0e0" stroke="#999999" points="952,-24.88 850.5,-24.88 850.5,-5.63 952,-5.63 952,-24.88"/>
<text text-anchor="middle" x="901.25" y="-11.38" font-family="Helvetica,sans-Serif" font-size="10.00">mlir/IR/BuiltinOps.h</text>
</a>
</g>
</g>
<!-- Node6&#45;&gt;Node7 -->
<g id="edge6_Node000006_Node000007" class="edge">
<title>Node6&#45;&gt;Node7</title>
<g id="a_edge6_Node000006_Node000007"><a xlink:title=" ">
<path fill="none" stroke="#63b8ff" d="M864.92,-66.11C871.82,-56.64 880.86,-44.23 888.2,-34.16"/>
<polygon fill="#63b8ff" stroke="#63b8ff" points="890.87,-36.44 893.93,-26.3 885.21,-32.32 890.87,-36.44"/>
</a>
</g>
</g>
<!-- Node8 -->
<g id="Node000008" class="node">
<title>Node8</title>
<g id="a_Node000008"><a xlink:href="_global_2_i_r_2_dialect_8h_8inc.html" target="_top" xlink:title=" ">
<polygon fill="white" stroke="#666666" points="1066,-30.5 970.5,-30.5 970.5,0 1066,0 1066,-30.5"/>
<text text-anchor="start" x="978.5" y="-17" font-family="Helvetica,sans-Serif" font-size="10.00">llzk/Dialect/Global</text>
<text text-anchor="middle" x="1018.25" y="-5.75" font-family="Helvetica,sans-Serif" font-size="10.00">/IR/Dialect.h.inc</text>
</a>
</g>
</g>
<!-- Node6&#45;&gt;Node8 -->
<g id="edge7_Node000006_Node000008" class="edge">
<title>Node6&#45;&gt;Node8</title>
<g id="a_edge7_Node000006_Node000008"><a xlink:title=" ">
<path fill="none" stroke="#63b8ff" d="M891.46,-66.11C914.87,-56.91 945.29,-44.95 970.47,-35.04"/>
<polygon fill="#63b8ff" stroke="#63b8ff" points="971.47,-38.41 979.49,-31.49 968.9,-31.9 971.47,-38.41"/>
</a>
</g>
</g>
<!-- Node9&#45;&gt;Node4 -->
<g id="edge10_Node000009_Node000004" class="edge">
<title>Node9&#45;&gt;Node4</title>
<g id="a_edge10_Node000009_Node000004"><a xlink:title=" ">
<path fill="none" stroke="#63b8ff" d="M586.78,-71.66C538.62,-61.93 460.43,-45.81 393.25,-30.5 389.71,-29.69 386.06,-28.84 382.38,-27.97"/>
<polygon fill="#63b8ff" stroke="#63b8ff" points="383.42,-24.62 372.88,-25.69 381.78,-31.43 383.42,-24.62"/>
</a>
</g>
</g>
<!-- Node10 -->
<g id="Node000010" class="node">
<title>Node10</title>
<g id="a_Node000010"><a xlink:href="_constants_8h.html" target="_top" xlink:title=" ">
<polygon fill="white" stroke="#666666" points="507.88,-24.88 402.62,-24.88 402.62,-5.63 507.88,-5.63 507.88,-24.88"/>
<text text-anchor="middle" x="455.25" y="-11.38" font-family="Helvetica,sans-Serif" font-size="10.00">llzk/Util/Constants.h</text>
</a>
</g>
</g>
<!-- Node9&#45;&gt;Node10 -->
<g id="edge9_Node000009_Node000010" class="edge">
<title>Node9&#45;&gt;Node10</title>
<g id="a_edge9_Node000009_Node000010"><a xlink:title=" ">
<path fill="none" stroke="#63b8ff" d="M607.27,-71.65C576.83,-60.55 525.2,-41.74 490.67,-29.16"/>
<polygon fill="#63b8ff" stroke="#63b8ff" points="492.12,-25.96 481.53,-25.83 489.73,-32.54 492.12,-25.96"/>
</a>
</g>
</g>
<!-- Node11 -->
<g id="Node000011" class="node">
<title>Node11</title>
<g id="a_Node000011"><a xlink:title=" ">
<polygon fill="#e0e0e0" stroke="#999999" points="644.25,-24.88 526.25,-24.88 526.25,-5.63 644.25,-5.63 644.25,-24.88"/>
<text text-anchor="middle" x="585.25" y="-11.38" font-family="Helvetica,sans-Serif" font-size="10.00">mlir/IR/OwningOpRef.h</text>
</a>
</g>
</g>
<!-- Node9&#45;&gt;Node11 -->
<g id="edge11_Node000009_Node000011" class="edge">
<title>Node9&#45;&gt;Node11</title>
<g id="a_edge11_Node000009_Node000011"><a xlink:title=" ">
<path fill="none" stroke="#63b8ff" d="M625.71,-71.78C618.7,-62.15 607.37,-46.6 598.47,-34.4"/>
<polygon fill="#63b8ff" stroke="#63b8ff" points="601.34,-32.39 592.62,-26.37 595.68,-36.51 601.34,-32.39"/>
</a>
</g>
</g>
<!-- Node12 -->
<g id="Node000012" class="node">
<title>Node12</title>
<g id="a_Node000012"><a xlink:title=" ">
<polygon fill="#e0e0e0" stroke="#999999" points="772.12,-24.88 662.38,-24.88 662.38,-5.63 772.12,-5.63 772.12,-24.88"/>
<text text-anchor="middle" x="717.25" y="-11.38" font-family="Helvetica,sans-Serif" font-size="10.00">llvm/ADT/StringRef.h</text>
</a>
</g>
</g>
<!-- Node9&#45;&gt;Node12 -->
<g id="edge12_Node000009_Node000012" class="edge">
<title>Node9&#45;&gt;Node12</title>
<g id="a_edge12_Node000009_Node000012"><a xlink:title=" ">
<path fill="none" stroke="#63b8ff" d="M644.07,-71.78C657.57,-61.54 679.91,-44.59 696.36,-32.1"/>
<polygon fill="#63b8ff" stroke="#63b8ff" points="698.2,-35.1 704.05,-26.27 693.97,-29.52 698.2,-35.1"/>
</a>
</g>
</g>
<!-- Node13 -->
<g id="Node000013" class="node">
<title>Node13</title>
<g id="a_Node000013"><a xlink:title=" ">
<polygon fill="#e0e0e0" stroke="#999999" points="832.75,-24.88 789.75,-24.88 789.75,-5.63 832.75,-5.63 832.75,-24.88"/>
<text text-anchor="middle" x="811.25" y="-11.38" font-family="Helvetica,sans-Serif" font-size="10.00">vector</text>
</a>
</g>
</g>
<!-- Node9&#45;&gt;Node13 -->
<g id="edge13_Node000009_Node000013" class="edge">
<title>Node9&#45;&gt;Node13</title>
<g id="a_edge13_Node000009_Node000013"><a xlink:title=" ">
<path fill="none" stroke="#63b8ff" d="M662.6,-71.67C692.98,-62.32 740.88,-46.83 781.25,-30.5 781.73,-30.31 782.22,-30.11 782.7,-29.9"/>
<polygon fill="#63b8ff" stroke="#63b8ff" points="783.89,-33.21 791.62,-25.95 781.05,-26.81 783.89,-33.21"/>
</a>
</g>
</g>
</g>
</svg>
