<?xml version="1.0" encoding="UTF-8" standalone="no"?>
<!DOCTYPE svg PUBLIC "-//W3C//DTD SVG 1.1//EN"
 "http://www.w3.org/Graphics/SVG/1.1/DTD/svg11.dtd">
<!-- Generated by graphviz version 12.2.1 (0)
 -->
<!-- Title: include/llzk/Dialect/Global/IR/Dialect.h Pages: 1 -->
<svg width="2131pt" height="261pt"
 viewBox="0.00 0.00 2130.62 260.50" xmlns="http://www.w3.org/2000/svg" xmlns:xlink="http://www.w3.org/1999/xlink">
<g id="graph0" class="graph" transform="scale(1 1) rotate(0) translate(4 256.5)">
<title>include/llzk/Dialect/Global/IR/Dialect.h</title>
<!-- Node1 -->
<g id="Node000001" class="node">
<title>Node1</title>
<g id="a_Node000001"><a xlink:title=" ">
<polygon fill="#999999" stroke="#666666" points="1713.88,-252.5 1611.62,-252.5 1611.62,-222 1713.88,-222 1713.88,-252.5"/>
<text text-anchor="start" x="1619.62" y="-239" font-family="Helvetica,sans-Serif" font-size="10.00">include/llzk/Dialect</text>
<text text-anchor="middle" x="1662.75" y="-227.75" font-family="Helvetica,sans-Serif" font-size="10.00">/Global/IR/Dialect.h</text>
</a>
</g>
</g>
<!-- Node2 -->
<g id="Node000002" class="node">
<title>Node2</title>
<g id="a_Node000002"><a xlink:href="_global_2_i_r_2_ops_8h.html" target="_top" xlink:title=" ">
<polygon fill="white" stroke="#666666" points="1766,-186 1667.5,-186 1667.5,-155.5 1766,-155.5 1766,-186"/>
<text text-anchor="start" x="1675.5" y="-172.5" font-family="Helvetica,sans-Serif" font-size="10.00">include/llzk/Dialect</text>
<text text-anchor="middle" x="1716.75" y="-161.25" font-family="Helvetica,sans-Serif" font-size="10.00">/Global/IR/Ops.h</text>
</a>
</g>
</g>
<!-- Node1&#45;&gt;Node2 -->
<g id="edge1_Node000001_Node000002" class="edge">
<title>Node1&#45;&gt;Node2</title>
<g id="a_edge1_Node000001_Node000002"><a xlink:title=" ">
<path fill="none" stroke="#63b8ff" d="M1682.34,-212.85C1689.76,-203.98 1697.99,-194.15 1704.55,-186.33"/>
<polygon fill="#63b8ff" stroke="#63b8ff" points="1679.71,-210.54 1675.98,-220.45 1685.08,-215.03 1679.71,-210.54"/>
</a>
</g>
</g>
<!-- Node6 -->
<g id="Node000006" class="node">
<title>Node6</title>
<g id="a_Node000006"><a xlink:href="_global_2_i_r_2_dialect_8cpp.html" target="_top" xlink:title=" ">
<polygon fill="white" stroke="#666666" points="1661.88,-113.88 1571.62,-113.88 1571.62,-83.38 1661.88,-83.38 1661.88,-113.88"/>
<text text-anchor="start" x="1579.62" y="-100.38" font-family="Helvetica,sans-Serif" font-size="10.00">lib/Dialect/Global</text>
<text text-anchor="middle" x="1616.75" y="-89.12" font-family="Helvetica,sans-Serif" font-size="10.00">/IR/Dialect.cpp</text>
</a>
</g>
</g>
<!-- Node1&#45;&gt;Node6 -->
<g id="edge32_Node000001_Node000006" class="edge">
<title>Node1&#45;&gt;Node6</title>
<g id="a_edge32_Node000001_Node000006"><a xlink:title=" ">
<path fill="none" stroke="#63b8ff" d="M1654.22,-210.92C1644.63,-182.44 1629.4,-137.19 1621.64,-114.14"/>
<polygon fill="#63b8ff" stroke="#63b8ff" points="1650.84,-211.83 1657.34,-220.19 1657.47,-209.6 1650.84,-211.83"/>
</a>
</g>
</g>
<!-- Node9 -->
<g id="Node000009" class="node">
<title>Node9</title>
<g id="a_Node000009"><a xlink:href="_pass_base_8h.html" target="_top" xlink:title=" ">
<polygon fill="white" stroke="#666666" points="1194,-180.38 1047.5,-180.38 1047.5,-161.12 1194,-161.12 1194,-180.38"/>
<text text-anchor="middle" x="1120.75" y="-166.88" font-family="Helvetica,sans-Serif" font-size="10.00">include/llzk/Pass/PassBase.h</text>
</a>
</g>
</g>
<!-- Node1&#45;&gt;Node9 -->
<g id="edge8_Node000001_Node000009" class="edge">
<title>Node1&#45;&gt;Node9</title>
<g id="a_edge8_Node000001_Node000009"><a xlink:title=" ">
<path fill="none" stroke="#63b8ff" d="M1600.05,-228.79C1499.17,-216.78 1301.32,-193.24 1194.07,-180.48"/>
<polygon fill="#63b8ff" stroke="#63b8ff" points="1599.42,-232.24 1609.77,-229.94 1600.25,-225.29 1599.42,-232.24"/>
</a>
</g>
</g>
<!-- Node27 -->
<g id="Node000027" class="node">
<title>Node27</title>
<g id="a_Node000027"><a xlink:href="_init_dialects_8cpp.html" target="_top" xlink:title=" ">
<polygon fill="white" stroke="#666666" points="1915.12,-180.38 1784.38,-180.38 1784.38,-161.12 1915.12,-161.12 1915.12,-180.38"/>
<text text-anchor="middle" x="1849.75" y="-166.88" font-family="Helvetica,sans-Serif" font-size="10.00">lib/Dialect/InitDialects.cpp</text>
</a>
</g>
</g>
<!-- Node1&#45;&gt;Node27 -->
<g id="edge33_Node000001_Node000027" class="edge">
<title>Node1&#45;&gt;Node27</title>
<g id="a_edge33_Node000001_Node000027"><a xlink:title=" ">
<path fill="none" stroke="#63b8ff" d="M1715.76,-217.97C1750.91,-205.84 1795.52,-190.46 1823.36,-180.85"/>
<polygon fill="#63b8ff" stroke="#63b8ff" points="1714.93,-214.55 1706.61,-221.12 1717.21,-221.17 1714.93,-214.55"/>
</a>
</g>
</g>
<!-- Node3 -->
<g id="Node000003" class="node">
<title>Node3</title>
<g id="a_Node000003"><a xlink:href="_interval_analysis_8h.html" target="_top" xlink:title=" ">
<polygon fill="white" stroke="#666666" points="2037.38,-113.88 1932.12,-113.88 1932.12,-83.38 2037.38,-83.38 2037.38,-113.88"/>
<text text-anchor="start" x="1940.12" y="-100.38" font-family="Helvetica,sans-Serif" font-size="10.00">include/llzk/Analysis</text>
<text text-anchor="middle" x="1984.75" y="-89.12" font-family="Helvetica,sans-Serif" font-size="10.00">/IntervalAnalysis.h</text>
</a>
</g>
</g>
<!-- Node2&#45;&gt;Node3 -->
<g id="edge2_Node000002_Node000003" class="edge">
<title>Node2&#45;&gt;Node3</title>
<g id="a_edge2_Node000002_Node000003"><a xlink:title=" ">
<path fill="none" stroke="#63b8ff" d="M1777.22,-155.11C1835.4,-141.01 1915.59,-121.52 1922.75,-119.5 1928.41,-117.91 1934.32,-116.14 1940.16,-114.34"/>
<polygon fill="#63b8ff" stroke="#63b8ff" points="1776.64,-151.65 1767.74,-157.41 1778.29,-158.45 1776.64,-151.65"/>
</a>
</g>
</g>
<!-- Node2&#45;&gt;Node6 -->
<g id="edge5_Node000002_Node000006" class="edge">
<title>Node2&#45;&gt;Node6</title>
<g id="a_edge5_Node000002_Node000006"><a xlink:title=" ">
<path fill="none" stroke="#63b8ff" d="M1686.62,-148.62C1670.74,-137.48 1651.65,-124.1 1637.44,-114.14"/>
<polygon fill="#63b8ff" stroke="#63b8ff" points="1684.59,-151.48 1694.79,-154.35 1688.61,-145.74 1684.59,-151.48"/>
</a>
</g>
</g>
<!-- Node7 -->
<g id="Node000007" class="node">
<title>Node7</title>
<g id="a_Node000007"><a xlink:href="_global_2_i_r_2_ops_8cpp.html" target="_top" xlink:title=" ">
<polygon fill="white" stroke="#666666" points="1769.88,-113.88 1679.62,-113.88 1679.62,-83.38 1769.88,-83.38 1769.88,-113.88"/>
<text text-anchor="start" x="1687.62" y="-100.38" font-family="Helvetica,sans-Serif" font-size="10.00">lib/Dialect/Global</text>
<text text-anchor="middle" x="1724.75" y="-89.12" font-family="Helvetica,sans-Serif" font-size="10.00">/IR/Ops.cpp</text>
</a>
</g>
</g>
<!-- Node2&#45;&gt;Node7 -->
<g id="edge6_Node000002_Node000007" class="edge">
<title>Node2&#45;&gt;Node7</title>
<g id="a_edge6_Node000002_Node000007"><a xlink:title=" ">
<path fill="none" stroke="#63b8ff" d="M1719.68,-144.1C1720.83,-134.01 1722.11,-122.78 1723.09,-114.14"/>
<polygon fill="#63b8ff" stroke="#63b8ff" points="1716.24,-143.38 1718.58,-153.72 1723.19,-144.18 1716.24,-143.38"/>
</a>
</g>
</g>
<!-- Node8 -->
<g id="Node000008" class="node">
<title>Node8</title>
<g id="a_Node000008"><a xlink:href="_symbol_helper_8cpp.html" target="_top" xlink:title="This file contains the implementations for symbol helper functions.">
<polygon fill="white" stroke="#666666" points="1913.88,-108.25 1787.62,-108.25 1787.62,-89 1913.88,-89 1913.88,-108.25"/>
<text text-anchor="middle" x="1850.75" y="-94.75" font-family="Helvetica,sans-Serif" font-size="10.00">lib/Util/SymbolHelper.cpp</text>
</a>
</g>
</g>
<!-- Node2&#45;&gt;Node8 -->
<g id="edge7_Node000002_Node000008" class="edge">
<title>Node2&#45;&gt;Node8</title>
<g id="a_edge7_Node000002_Node000008"><a xlink:title=" ">
<path fill="none" stroke="#63b8ff" d="M1754.7,-149.89C1780.53,-136.37 1813.51,-119.11 1833.33,-108.74"/>
<polygon fill="#63b8ff" stroke="#63b8ff" points="1753.42,-146.61 1746.18,-154.35 1756.66,-152.81 1753.42,-146.61"/>
</a>
</g>
</g>
<!-- Node4 -->
<g id="Node000004" class="node">
<title>Node4</title>
<g id="a_Node000004"><a xlink:href="_interval_analysis_8cpp.html" target="_top" xlink:title=" ">
<polygon fill="white" stroke="#666666" points="2122.62,-30.5 1964.88,-30.5 1964.88,-11.25 2122.62,-11.25 2122.62,-30.5"/>
<text text-anchor="middle" x="2043.75" y="-17" font-family="Helvetica,sans-Serif" font-size="10.00">lib/Analysis/IntervalAnalysis.cpp</text>
</a>
</g>
</g>
<!-- Node3&#45;&gt;Node4 -->
<g id="edge3_Node000003_Node000004" class="edge">
<title>Node3&#45;&gt;Node4</title>
<g id="a_edge3_Node000003_Node000004"><a xlink:title=" ">
<path fill="none" stroke="#63b8ff" d="M2003.17,-73.97C2014.6,-59.3 2028.63,-41.29 2036.84,-30.75"/>
<polygon fill="#63b8ff" stroke="#63b8ff" points="2000.44,-71.79 1997.06,-81.83 2005.96,-76.09 2000.44,-71.79"/>
</a>
</g>
</g>
<!-- Node5 -->
<g id="Node000005" class="node">
<title>Node5</title>
<g id="a_Node000005"><a xlink:href="_interval_analysis_pass_8cpp.html" target="_top" xlink:title="This file implements the &#45;llzk&#45;print&#45;interval&#45;analysis pass.">
<polygon fill="white" stroke="#666666" points="1947.25,-36.12 1808.25,-36.12 1808.25,-5.62 1947.25,-5.62 1947.25,-36.12"/>
<text text-anchor="start" x="1816.25" y="-22.62" font-family="Helvetica,sans-Serif" font-size="10.00">lib/Analysis/IntervalAnalysis</text>
<text text-anchor="middle" x="1877.75" y="-11.38" font-family="Helvetica,sans-Serif" font-size="10.00">Pass.cpp</text>
</a>
</g>
</g>
<!-- Node3&#45;&gt;Node5 -->
<g id="edge4_Node000003_Node000005" class="edge">
<title>Node3&#45;&gt;Node5</title>
<g id="a_edge4_Node000003_Node000005"><a xlink:title=" ">
<path fill="none" stroke="#63b8ff" d="M1955.15,-76.67C1937.08,-63.88 1914.44,-47.85 1898.32,-36.44"/>
<polygon fill="#63b8ff" stroke="#63b8ff" points="1952.7,-79.22 1962.88,-82.15 1956.74,-73.51 1952.7,-79.22"/>
</a>
</g>
</g>
<!-- Node10 -->
<g id="Node000010" class="node">
<title>Node10</title>
<g id="a_Node000010"><a xlink:href="_analysis_passes_8h.html" target="_top" xlink:title=" ">
<polygon fill="white" stroke="#666666" points="1553.38,-113.88 1448.12,-113.88 1448.12,-83.38 1553.38,-83.38 1553.38,-113.88"/>
<text text-anchor="start" x="1456.12" y="-100.38" font-family="Helvetica,sans-Serif" font-size="10.00">include/llzk/Analysis</text>
<text text-anchor="middle" x="1500.75" y="-89.12" font-family="Helvetica,sans-Serif" font-size="10.00">/AnalysisPasses.h</text>
</a>
</g>
</g>
<!-- Node9&#45;&gt;Node10 -->
<g id="edge9_Node000009_Node000010" class="edge">
<title>Node9&#45;&gt;Node10</title>
<g id="a_edge9_Node000009_Node000010"><a xlink:title=" ">
<path fill="none" stroke="#63b8ff" d="M1182.3,-158.62C1238.05,-148.51 1322.43,-133.14 1395.75,-119.5 1412.71,-116.34 1431.21,-112.86 1447.88,-109.7"/>
<polygon fill="#63b8ff" stroke="#63b8ff" points="1181.91,-155.13 1172.69,-160.36 1183.15,-162.02 1181.91,-155.13"/>
</a>
</g>
</g>
<!-- Node14 -->
<g id="Node000014" class="node">
<title>Node14</title>
<g id="a_Node000014"><a xlink:href="_array_2_transforms_2_transformation_passes_8h.html" target="_top" xlink:title=" ">
<polygon fill="white" stroke="#666666" points="1202.25,-119.5 1039.25,-119.5 1039.25,-77.75 1202.25,-77.75 1202.25,-119.5"/>
<text text-anchor="start" x="1047.25" y="-106" font-family="Helvetica,sans-Serif" font-size="10.00">include/llzk/Dialect</text>
<text text-anchor="start" x="1047.25" y="-94.75" font-family="Helvetica,sans-Serif" font-size="10.00">/Array/Transforms/Transformation</text>
<text text-anchor="middle" x="1120.75" y="-83.5" font-family="Helvetica,sans-Serif" font-size="10.00">Passes.h</text>
</a>
</g>
</g>
<!-- Node9&#45;&gt;Node14 -->
<g id="edge14_Node000009_Node000014" class="edge">
<title>Node9&#45;&gt;Node14</title>
<g id="a_edge14_Node000009_Node000014"><a xlink:title=" ">
<path fill="none" stroke="#63b8ff" d="M1120.75,-149.56C1120.75,-140.24 1120.75,-129.21 1120.75,-119.89"/>
<polygon fill="#63b8ff" stroke="#63b8ff" points="1117.25,-149.36 1120.75,-159.36 1124.25,-149.36 1117.25,-149.36"/>
</a>
</g>
</g>
<!-- Node16 -->
<g id="Node000016" class="node">
<title>Node16</title>
<g id="a_Node000016"><a xlink:href="_inline_includes_pass_8h.html" target="_top" xlink:title=" ">
<polygon fill="white" stroke="#666666" points="1386.75,-119.5 1220.75,-119.5 1220.75,-77.75 1386.75,-77.75 1386.75,-119.5"/>
<text text-anchor="start" x="1228.75" y="-106" font-family="Helvetica,sans-Serif" font-size="10.00">include/llzk/Dialect</text>
<text text-anchor="start" x="1228.75" y="-94.75" font-family="Helvetica,sans-Serif" font-size="10.00">/Include/Transforms/InlineIncludes</text>
<text text-anchor="middle" x="1303.75" y="-83.5" font-family="Helvetica,sans-Serif" font-size="10.00">Pass.h</text>
</a>
</g>
</g>
<!-- Node9&#45;&gt;Node16 -->
<g id="edge17_Node000009_Node000016" class="edge">
<title>Node9&#45;&gt;Node16</title>
<g id="a_edge17_Node000009_Node000016"><a xlink:title=" ">
<path fill="none" stroke="#63b8ff" d="M1154.75,-156.72C1181.68,-146.4 1219.78,-131.8 1250.71,-119.95"/>
<polygon fill="#63b8ff" stroke="#63b8ff" points="1153.8,-153.34 1145.71,-160.18 1156.3,-159.87 1153.8,-153.34"/>
</a>
</g>
</g>
<!-- Node18 -->
<g id="Node000018" class="node">
<title>Node18</title>
<g id="a_Node000018"><a xlink:href="_polymorphic_2_transforms_2_transformation_passes_8h.html" target="_top" xlink:title=" ">
<polygon fill="white" stroke="#666666" points="672.5,-119.5 547,-119.5 547,-77.75 672.5,-77.75 672.5,-119.5"/>
<text text-anchor="start" x="555" y="-106" font-family="Helvetica,sans-Serif" font-size="10.00">include/llzk/Dialect</text>
<text text-anchor="start" x="555" y="-94.75" font-family="Helvetica,sans-Serif" font-size="10.00">/Polymorphic/Transforms</text>
<text text-anchor="middle" x="609.75" y="-83.5" font-family="Helvetica,sans-Serif" font-size="10.00">/TransformationPasses.h</text>
</a>
</g>
</g>
<!-- Node9&#45;&gt;Node18 -->
<g id="edge20_Node000009_Node000018" class="edge">
<title>Node9&#45;&gt;Node18</title>
<g id="a_edge20_Node000009_Node000018"><a xlink:title=" ">
<path fill="none" stroke="#63b8ff" d="M1035.84,-163.96C946.97,-156.99 803.68,-143.16 681.75,-119.5 678.82,-118.93 675.84,-118.31 672.83,-117.64"/>
<polygon fill="#63b8ff" stroke="#63b8ff" points="1035.45,-167.44 1045.69,-164.72 1035.99,-160.46 1035.45,-167.44"/>
</a>
</g>
</g>
<!-- Node20 -->
<g id="Node000020" class="node">
<title>Node20</title>
<g id="a_Node000020"><a xlink:href="_l_l_z_k_transformation_passes_8h.html" target="_top" xlink:title=" ">
<polygon fill="white" stroke="#666666" points="839.12,-113.88 690.38,-113.88 690.38,-83.38 839.12,-83.38 839.12,-113.88"/>
<text text-anchor="start" x="698.38" y="-100.38" font-family="Helvetica,sans-Serif" font-size="10.00">include/llzk/Transforms</text>
<text text-anchor="middle" x="764.75" y="-89.12" font-family="Helvetica,sans-Serif" font-size="10.00">/LLZKTransformationPasses.h</text>
</a>
</g>
</g>
<!-- Node9&#45;&gt;Node20 -->
<g id="edge23_Node000009_Node000020" class="edge">
<title>Node9&#45;&gt;Node20</title>
<g id="a_edge23_Node000009_Node000020"><a xlink:title=" ">
<path fill="none" stroke="#63b8ff" d="M1063.64,-158.5C1002.8,-146.52 906.22,-127.49 839.39,-114.33"/>
<polygon fill="#63b8ff" stroke="#63b8ff" points="1062.6,-161.86 1073.09,-160.36 1063.95,-154.99 1062.6,-161.86"/>
</a>
</g>
</g>
<!-- Node25 -->
<g id="Node000025" class="node">
<title>Node25</title>
<g id="a_Node000025"><a xlink:href="_l_l_z_k_validation_passes_8h.html" target="_top" xlink:title=" ">
<polygon fill="white" stroke="#666666" points="1021.5,-113.88 896,-113.88 896,-83.38 1021.5,-83.38 1021.5,-113.88"/>
<text text-anchor="start" x="904" y="-100.38" font-family="Helvetica,sans-Serif" font-size="10.00">include/llzk/Validators</text>
<text text-anchor="middle" x="958.75" y="-89.12" font-family="Helvetica,sans-Serif" font-size="10.00">/LLZKValidationPasses.h</text>
</a>
</g>
</g>
<!-- Node9&#45;&gt;Node25 -->
<g id="edge29_Node000009_Node000025" class="edge">
<title>Node9&#45;&gt;Node25</title>
<g id="a_edge29_Node000009_Node000025"><a xlink:title=" ">
<path fill="none" stroke="#63b8ff" d="M1089.59,-156.26C1061.85,-144.26 1021.37,-126.73 992.79,-114.36"/>
<polygon fill="#63b8ff" stroke="#63b8ff" points="1087.95,-159.36 1098.51,-160.12 1090.73,-152.94 1087.95,-159.36"/>
</a>
</g>
</g>
<!-- Node10&#45;&gt;Node5 -->
<g id="edge12_Node000010_Node000005" class="edge">
<title>Node10&#45;&gt;Node5</title>
<g id="a_edge12_Node000010_Node000005"><a xlink:title=" ">
<path fill="none" stroke="#63b8ff" d="M1554.39,-79.85C1557.21,-79.1 1560.01,-78.39 1562.75,-77.75 1666.04,-53.48 1694.74,-62.72 1798.75,-41.75 1806.38,-40.21 1814.37,-38.42 1822.22,-36.55"/>
<polygon fill="#63b8ff" stroke="#63b8ff" points="1553.65,-76.43 1544.98,-82.53 1555.56,-83.16 1553.65,-76.43"/>
</a>
</g>
</g>
<!-- Node11 -->
<g id="Node000011" class="node">
<title>Node11</title>
<g id="a_Node000011"><a xlink:href="_call_graph_passes_8cpp.html" target="_top" xlink:title="This file implements the &#45;llzk&#45;print&#45;call&#45;graph and &#45;llzk&#45;print&#45;call&#45;graph&#45;sccs passes.">
<polygon fill="white" stroke="#666666" points="1790,-30.5 1625.5,-30.5 1625.5,-11.25 1790,-11.25 1790,-30.5"/>
<text text-anchor="middle" x="1707.75" y="-17" font-family="Helvetica,sans-Serif" font-size="10.00">lib/Analysis/CallGraphPasses.cpp</text>
</a>
</g>
</g>
<!-- Node10&#45;&gt;Node11 -->
<g id="edge10_Node000010_Node000011" class="edge">
<title>Node10&#45;&gt;Node11</title>
<g id="a_edge10_Node000010_Node000011"><a xlink:title=" ">
<path fill="none" stroke="#63b8ff" d="M1551.44,-79.07C1593.17,-63.8 1650.55,-42.81 1682.91,-30.97"/>
<polygon fill="#63b8ff" stroke="#63b8ff" points="1550.27,-75.78 1542.08,-82.5 1552.68,-82.35 1550.27,-75.78"/>
</a>
</g>
</g>
<!-- Node12 -->
<g id="Node000012" class="node">
<title>Node12</title>
<g id="a_Node000012"><a xlink:href="_constraint_dependency_graph_pass_8cpp.html" target="_top" xlink:title="This file implements the &#45;llzk&#45;print&#45;constraint&#45;dependency&#45;graphs pass.">
<polygon fill="white" stroke="#666666" points="1607.25,-36.12 1438.25,-36.12 1438.25,-5.62 1607.25,-5.62 1607.25,-36.12"/>
<text text-anchor="start" x="1446.25" y="-22.62" font-family="Helvetica,sans-Serif" font-size="10.00">lib/Analysis/ConstraintDependency</text>
<text text-anchor="middle" x="1522.75" y="-11.38" font-family="Helvetica,sans-Serif" font-size="10.00">GraphPass.cpp</text>
</a>
</g>
</g>
<!-- Node10&#45;&gt;Node12 -->
<g id="edge11_Node000010_Node000012" class="edge">
<title>Node10&#45;&gt;Node12</title>
<g id="a_edge11_Node000010_Node000012"><a xlink:title=" ">
<path fill="none" stroke="#63b8ff" d="M1508.2,-71.97C1511.64,-60.12 1515.6,-46.49 1518.52,-36.44"/>
<polygon fill="#63b8ff" stroke="#63b8ff" points="1504.84,-70.99 1505.41,-81.57 1511.56,-72.94 1504.84,-70.99"/>
</a>
</g>
</g>
<!-- Node13 -->
<g id="Node000013" class="node">
<title>Node13</title>
<g id="a_Node000013"><a xlink:href="llzk-opt_8cpp.html" target="_top" xlink:title="This file implements a version of the mlir&#45;opt tool configured for use on LLZK files.">
<polygon fill="white" stroke="#666666" points="1114.5,-36.12 1025,-36.12 1025,-5.62 1114.5,-5.62 1114.5,-36.12"/>
<text text-anchor="start" x="1033" y="-22.62" font-family="Helvetica,sans-Serif" font-size="10.00">tools/llzk&#45;opt/llzk</text>
<text text-anchor="middle" x="1069.75" y="-11.38" font-family="Helvetica,sans-Serif" font-size="10.00">&#45;opt.cpp</text>
</a>
</g>
</g>
<!-- Node10&#45;&gt;Node13 -->
<g id="edge13_Node000010_Node000013" class="edge">
<title>Node10&#45;&gt;Node13</title>
<g id="a_edge13_Node000010_Node000013"><a xlink:title=" ">
<path fill="none" stroke="#63b8ff" d="M1436.58,-84.89C1423.12,-82.39 1408.99,-79.88 1395.75,-77.75 1275.35,-58.4 1242.14,-70.99 1123.75,-41.75 1118.03,-40.34 1112.08,-38.52 1106.3,-36.56"/>
<polygon fill="#63b8ff" stroke="#63b8ff" points="1435.74,-88.3 1446.22,-86.71 1437.04,-81.42 1435.74,-88.3"/>
</a>
</g>
</g>
<!-- Node14&#45;&gt;Node13 -->
<g id="edge16_Node000014_Node000013" class="edge">
<title>Node14&#45;&gt;Node13</title>
<g id="a_edge16_Node000014_Node000013"><a xlink:title=" ">
<path fill="none" stroke="#63b8ff" d="M1100.85,-68.06C1093.48,-57.12 1085.46,-45.21 1079.41,-36.23"/>
<polygon fill="#63b8ff" stroke="#63b8ff" points="1097.75,-69.73 1106.24,-76.07 1103.56,-65.82 1097.75,-69.73"/>
</a>
</g>
</g>
<!-- Node15 -->
<g id="Node000015" class="node">
<title>Node15</title>
<g id="a_Node000015"><a xlink:href="_array_to_scalar_pass_8cpp.html" target="_top" xlink:title="This file implements the &#45;llzk&#45;array&#45;to&#45;scalar pass.">
<polygon fill="white" stroke="#666666" points="1270.88,-36.12 1132.62,-36.12 1132.62,-5.62 1270.88,-5.62 1270.88,-36.12"/>
<text text-anchor="start" x="1140.62" y="-22.62" font-family="Helvetica,sans-Serif" font-size="10.00">lib/Dialect/Array/Transforms</text>
<text text-anchor="middle" x="1201.75" y="-11.38" font-family="Helvetica,sans-Serif" font-size="10.00">/ArrayToScalarPass.cpp</text>
</a>
</g>
</g>
<!-- Node14&#45;&gt;Node15 -->
<g id="edge15_Node000014_Node000015" class="edge">
<title>Node14&#45;&gt;Node15</title>
<g id="a_edge15_Node000014_Node000015"><a xlink:title=" ">
<path fill="none" stroke="#63b8ff" d="M1150.54,-69.76C1162.62,-58.47 1176.07,-45.89 1186.15,-36.46"/>
<polygon fill="#63b8ff" stroke="#63b8ff" points="1148.48,-66.9 1143.56,-76.29 1153.26,-72.02 1148.48,-66.9"/>
</a>
</g>
</g>
<!-- Node16&#45;&gt;Node13 -->
<g id="edge19_Node000016_Node000013" class="edge">
<title>Node16&#45;&gt;Node13</title>
<g id="a_edge19_Node000016_Node000013"><a xlink:title=" ">
<path fill="none" stroke="#63b8ff" d="M1224.61,-74.03C1193.11,-64.38 1156.6,-52.89 1123.75,-41.75 1118.92,-40.11 1113.88,-38.34 1108.89,-36.55"/>
<polygon fill="#63b8ff" stroke="#63b8ff" points="1223.5,-77.34 1234.08,-76.91 1225.54,-70.65 1223.5,-77.34"/>
</a>
</g>
</g>
<!-- Node17 -->
<g id="Node000017" class="node">
<title>Node17</title>
<g id="a_Node000017"><a xlink:href="_inline_includes_pass_8cpp.html" target="_top" xlink:title="This file implements the &#45;llzk&#45;inline&#45;includes pass.">
<polygon fill="white" stroke="#666666" points="1420.5,-41.75 1289,-41.75 1289,0 1420.5,0 1420.5,-41.75"/>
<text text-anchor="start" x="1297" y="-28.25" font-family="Helvetica,sans-Serif" font-size="10.00">lib/Dialect/Include</text>
<text text-anchor="start" x="1297" y="-17" font-family="Helvetica,sans-Serif" font-size="10.00">/Transforms/InlineIncludes</text>
<text text-anchor="middle" x="1354.75" y="-5.75" font-family="Helvetica,sans-Serif" font-size="10.00">Pass.cpp</text>
</a>
</g>
</g>
<!-- Node16&#45;&gt;Node17 -->
<g id="edge18_Node000016_Node000017" class="edge">
<title>Node16&#45;&gt;Node17</title>
<g id="a_edge18_Node000016_Node000017"><a xlink:title=" ">
<path fill="none" stroke="#63b8ff" d="M1323.73,-67.95C1329.53,-59.34 1335.72,-50.13 1341.05,-42.23"/>
<polygon fill="#63b8ff" stroke="#63b8ff" points="1320.94,-65.82 1318.26,-76.07 1326.75,-69.73 1320.94,-65.82"/>
</a>
</g>
</g>
<!-- Node18&#45;&gt;Node13 -->
<g id="edge22_Node000018_Node000013" class="edge">
<title>Node18&#45;&gt;Node13</title>
<g id="a_edge22_Node000018_Node000013"><a xlink:title=" ">
<path fill="none" stroke="#63b8ff" d="M684.03,-77.51C830.52,-51.03 873.93,-74.96 1015.75,-41.75 1021.59,-40.38 1027.65,-38.57 1033.52,-36.58"/>
<polygon fill="#63b8ff" stroke="#63b8ff" points="683.51,-74.04 674.32,-79.31 684.79,-80.92 683.51,-74.04"/>
</a>
</g>
</g>
<!-- Node19 -->
<g id="Node000019" class="node">
<title>Node19</title>
<g id="a_Node000019"><a xlink:href="_flattening_pass_8cpp.html" target="_top" xlink:title="This file implements the &#45;llzk&#45;flatten pass.">
<polygon fill="white" stroke="#666666" points="155.5,-36.12 0,-36.12 0,-5.62 155.5,-5.62 155.5,-36.12"/>
<text text-anchor="start" x="8" y="-22.62" font-family="Helvetica,sans-Serif" font-size="10.00">lib/Dialect/Polymorphic</text>
<text text-anchor="middle" x="77.75" y="-11.38" font-family="Helvetica,sans-Serif" font-size="10.00">/Transforms/FlatteningPass.cpp</text>
</a>
</g>
</g>
<!-- Node18&#45;&gt;Node19 -->
<g id="edge21_Node000018_Node000019" class="edge">
<title>Node18&#45;&gt;Node19</title>
<g id="a_edge21_Node000018_Node000019"><a xlink:title=" ">
<path fill="none" stroke="#63b8ff" d="M535.54,-90.59C446.92,-81.67 294.4,-64.64 164.75,-41.75 156.21,-40.24 147.24,-38.44 138.44,-36.55"/>
<polygon fill="#63b8ff" stroke="#63b8ff" points="535.01,-94.06 545.31,-91.57 535.7,-87.09 535.01,-94.06"/>
</a>
</g>
</g>
<!-- Node20&#45;&gt;Node13 -->
<g id="edge28_Node000020_Node000013" class="edge">
<title>Node20&#45;&gt;Node13</title>
<g id="a_edge28_Node000020_Node000013"><a xlink:title=" ">
<path fill="none" stroke="#63b8ff" d="M850.7,-81.45C899.51,-71.53 961.51,-57.69 1015.75,-41.75 1021.02,-40.2 1026.52,-38.4 1031.91,-36.53"/>
<polygon fill="#63b8ff" stroke="#63b8ff" points="850.15,-78 841.03,-83.4 851.53,-84.86 850.15,-78"/>
</a>
</g>
</g>
<!-- Node21 -->
<g id="Node000021" class="node">
<title>Node21</title>
<g id="a_Node000021"><a xlink:href="_l_l_z_k_redundant_operation_elimination_pass_8cpp.html" target="_top" xlink:title="This file implements the &#45;llzk&#45;duplicate&#45;op&#45;elim pass.">
<polygon fill="white" stroke="#666666" points="662.62,-36.12 510.88,-36.12 510.88,-5.62 662.62,-5.62 662.62,-36.12"/>
<text text-anchor="start" x="518.88" y="-22.62" font-family="Helvetica,sans-Serif" font-size="10.00">lib/Transforms/LLZKRedundant</text>
<text text-anchor="middle" x="586.75" y="-11.38" font-family="Helvetica,sans-Serif" font-size="10.00">OperationEliminationPass.cpp</text>
</a>
</g>
</g>
<!-- Node20&#45;&gt;Node21 -->
<g id="edge24_Node000020_Node000021" class="edge">
<title>Node20&#45;&gt;Node21</title>
<g id="a_edge24_Node000020_Node000021"><a xlink:title=" ">
<path fill="none" stroke="#63b8ff" d="M720.03,-78.59C689.42,-65.57 649.43,-48.55 621.27,-36.56"/>
<polygon fill="#63b8ff" stroke="#63b8ff" points="718.47,-81.73 729.04,-82.43 721.21,-75.29 718.47,-81.73"/>
</a>
</g>
</g>
<!-- Node22 -->
<g id="Node000022" class="node">
<title>Node22</title>
<g id="a_Node000022"><a xlink:href="_l_l_z_k_redundant_read_and_write_elimination_pass_8cpp.html" target="_top" xlink:title="This file implements the &#45;llzk&#45;duplicate&#45;read&#45;write&#45;elim pass.">
<polygon fill="white" stroke="#666666" points="848.88,-36.12 680.62,-36.12 680.62,-5.62 848.88,-5.62 848.88,-36.12"/>
<text text-anchor="start" x="688.62" y="-22.62" font-family="Helvetica,sans-Serif" font-size="10.00">lib/Transforms/LLZKRedundant</text>
<text text-anchor="middle" x="764.75" y="-11.38" font-family="Helvetica,sans-Serif" font-size="10.00">ReadAndWriteEliminationPass.cpp</text>
</a>
</g>
</g>
<!-- Node20&#45;&gt;Node22 -->
<g id="edge25_Node000020_Node000022" class="edge">
<title>Node20&#45;&gt;Node22</title>
<g id="a_edge25_Node000020_Node000022"><a xlink:title=" ">
<path fill="none" stroke="#63b8ff" d="M764.75,-71.6C764.75,-59.84 764.75,-46.38 764.75,-36.44"/>
<polygon fill="#63b8ff" stroke="#63b8ff" points="761.25,-71.51 764.75,-81.51 768.25,-71.51 761.25,-71.51"/>
</a>
</g>
</g>
<!-- Node23 -->
<g id="Node000023" class="node">
<title>Node23</title>
<g id="a_Node000023"><a xlink:href="_l_l_z_k_unused_declaration_elimination_pass_8cpp.html" target="_top" xlink:title="This file implements the &#45;llzk&#45;unused&#45;declaration&#45;elim pass.">
<polygon fill="white" stroke="#666666" points="328.12,-36.12 173.38,-36.12 173.38,-5.62 328.12,-5.62 328.12,-36.12"/>
<text text-anchor="start" x="181.38" y="-22.62" font-family="Helvetica,sans-Serif" font-size="10.00">lib/Transforms/LLZKUnused</text>
<text text-anchor="middle" x="250.75" y="-11.38" font-family="Helvetica,sans-Serif" font-size="10.00">DeclarationEliminationPass.cpp</text>
</a>
</g>
</g>
<!-- Node20&#45;&gt;Node23 -->
<g id="edge26_Node000020_Node000023" class="edge">
<title>Node20&#45;&gt;Node23</title>
<g id="a_edge26_Node000020_Node000023"><a xlink:title=" ">
<path fill="none" stroke="#63b8ff" d="M696.74,-80.58C691.69,-79.55 686.65,-78.59 681.75,-77.75 530.23,-51.8 489.4,-66.91 337.75,-41.75 329.04,-40.3 319.89,-38.52 310.94,-36.61"/>
<polygon fill="#63b8ff" stroke="#63b8ff" points="695.81,-83.96 706.32,-82.64 697.28,-77.12 695.81,-83.96"/>
</a>
</g>
</g>
<!-- Node24 -->
<g id="Node000024" class="node">
<title>Node24</title>
<g id="a_Node000024"><a xlink:href="_transformation_pass_pipelines_8cpp.html" target="_top" xlink:title="This file implements logic for registering the &#45;llzk&#45;remove&#45;unnecessary&#45;ops and &#45;llzk&#45;remove&#45;unnecess...">
<polygon fill="white" stroke="#666666" points="493,-36.12 346.5,-36.12 346.5,-5.62 493,-5.62 493,-36.12"/>
<text text-anchor="start" x="354.5" y="-22.62" font-family="Helvetica,sans-Serif" font-size="10.00">lib/Transforms/Transformation</text>
<text text-anchor="middle" x="419.75" y="-11.38" font-family="Helvetica,sans-Serif" font-size="10.00">PassPipelines.cpp</text>
</a>
</g>
</g>
<!-- Node20&#45;&gt;Node24 -->
<g id="edge27_Node000020_Node000024" class="edge">
<title>Node20&#45;&gt;Node24</title>
<g id="a_edge27_Node000020_Node000024"><a xlink:title=" ">
<path fill="none" stroke="#63b8ff" d="M693.39,-80.36C689.46,-79.46 685.56,-78.59 681.75,-77.75 602.07,-60.25 581.41,-59.36 501.75,-41.75 494.46,-40.14 486.81,-38.38 479.25,-36.6"/>
<polygon fill="#63b8ff" stroke="#63b8ff" points="692.51,-83.74 703.04,-82.58 694.09,-76.92 692.51,-83.74"/>
</a>
</g>
</g>
<!-- Node25&#45;&gt;Node13 -->
<g id="edge31_Node000025_Node000013" class="edge">
<title>Node25&#45;&gt;Node13</title>
<g id="a_edge31_Node000025_Node000013"><a xlink:title=" ">
<path fill="none" stroke="#63b8ff" d="M989.46,-76.67C1008.2,-63.88 1031.69,-47.85 1048.41,-36.44"/>
<polygon fill="#63b8ff" stroke="#63b8ff" points="987.69,-73.64 981.4,-82.17 991.63,-79.42 987.69,-73.64"/>
</a>
</g>
</g>
<!-- Node26 -->
<g id="Node000026" class="node">
<title>Node26</title>
<g id="a_Node000026"><a xlink:href="_l_l_z_k_validation_passes_8cpp.html" target="_top" xlink:title="This file contains the implementation for the &#45;llzk&#45;validate&#45;field&#45;writes pass.">
<polygon fill="white" stroke="#666666" points="1006.62,-36.12 866.88,-36.12 866.88,-5.62 1006.62,-5.62 1006.62,-36.12"/>
<text text-anchor="start" x="874.88" y="-22.62" font-family="Helvetica,sans-Serif" font-size="10.00">lib/Validators/LLZKValidation</text>
<text text-anchor="middle" x="936.75" y="-11.38" font-family="Helvetica,sans-Serif" font-size="10.00">Passes.cpp</text>
</a>
</g>
</g>
<!-- Node25&#45;&gt;Node26 -->
<g id="edge30_Node000025_Node000026" class="edge">
<title>Node25&#45;&gt;Node26</title>
<g id="a_edge30_Node000025_Node000026"><a xlink:title=" ">
<path fill="none" stroke="#63b8ff" d="M951.3,-71.97C947.86,-60.12 943.9,-46.49 940.98,-36.44"/>
<polygon fill="#63b8ff" stroke="#63b8ff" points="947.94,-72.94 954.09,-81.57 954.66,-70.99 947.94,-72.94"/>
</a>
</g>
</g>
</g>
</svg>
