<?xml version="1.0" encoding="UTF-8" standalone="no"?>
<!DOCTYPE svg PUBLIC "-//W3C//DTD SVG 1.1//EN"
 "http://www.w3.org/Graphics/SVG/1.1/DTD/svg11.dtd">
<!-- Generated by graphviz version 12.2.1 (0)
 -->
<!-- Title: include/llzk/Util/Hash.h Pages: 1 -->
<svg width="741pt" height="360pt"
 viewBox="0.00 0.00 741.38 359.75" xmlns="http://www.w3.org/2000/svg" xmlns:xlink="http://www.w3.org/1999/xlink">
<g id="graph0" class="graph" transform="scale(1 1) rotate(0) translate(4 355.75)">
<title>include/llzk/Util/Hash.h</title>
<!-- Node1 -->
<g id="Node000001" class="node">
<title>Node1</title>
<g id="a_Node000001"><a xlink:title=" ">
<polygon fill="#999999" stroke="#666666" points="696.5,-351.75 579.25,-351.75 579.25,-332.5 696.5,-332.5 696.5,-351.75"/>
<text text-anchor="middle" x="637.88" y="-338.25" font-family="Helvetica,sans-Serif" font-size="10.00">include/llzk/Util/Hash.h</text>
</a>
</g>
</g>
<!-- Node2 -->
<g id="Node000002" class="node">
<title>Node2</title>
<g id="a_Node000002"><a xlink:href="_constrain_ref_8h.html" target="_top" xlink:title=" ">
<polygon fill="white" stroke="#666666" points="515.5,-296.5 410.25,-296.5 410.25,-266 515.5,-266 515.5,-296.5"/>
<text text-anchor="start" x="418.25" y="-283" font-family="Helvetica,sans-Serif" font-size="10.00">include/llzk/Analysis</text>
<text text-anchor="middle" x="462.88" y="-271.75" font-family="Helvetica,sans-Serif" font-size="10.00">/ConstrainRef.h</text>
</a>
</g>
</g>
<!-- Node1&#45;&gt;Node2 -->
<g id="edge1_Node000001_Node000002" class="edge">
<title>Node1&#45;&gt;Node2</title>
<g id="a_edge1_Node000001_Node000002"><a xlink:title=" ">
<path fill="none" stroke="#63b8ff" d="M600.16,-328.44C572.66,-319.19 535.34,-306.63 506.55,-296.94"/>
<polygon fill="#63b8ff" stroke="#63b8ff" points="598.89,-331.7 609.48,-331.57 601.12,-325.07 598.89,-331.7"/>
</a>
</g>
</g>
<!-- Node8 -->
<g id="Node000008" class="node">
<title>Node8</title>
<g id="a_Node000008"><a xlink:href="_constrain_ref_lattice_8cpp.html" target="_top" xlink:title=" ">
<polygon fill="white" stroke="#666666" points="546.38,-97 419.38,-97 419.38,-66.5 546.38,-66.5 546.38,-97"/>
<text text-anchor="start" x="427.38" y="-83.5" font-family="Helvetica,sans-Serif" font-size="10.00">lib/Analysis/ConstrainRef</text>
<text text-anchor="middle" x="482.88" y="-72.25" font-family="Helvetica,sans-Serif" font-size="10.00">Lattice.cpp</text>
</a>
</g>
</g>
<!-- Node1&#45;&gt;Node8 -->
<g id="edge14_Node000001_Node000008" class="edge">
<title>Node1&#45;&gt;Node8</title>
<g id="a_edge14_Node000001_Node000008"><a xlink:title=" ">
<path fill="none" stroke="#63b8ff" d="M639.51,-320.81C640.91,-292 640.02,-238.45 618.88,-199.5 593.49,-152.74 541.33,-116.35 509.5,-97.35"/>
<polygon fill="#63b8ff" stroke="#63b8ff" points="636.03,-320.45 638.87,-330.66 643.01,-320.9 636.03,-320.45"/>
</a>
</g>
</g>
<!-- Node9 -->
<g id="Node000009" class="node">
<title>Node9</title>
<g id="a_Node000009"><a xlink:href="_constraint_dependency_graph_8cpp.html" target="_top" xlink:title=" ">
<polygon fill="white" stroke="#666666" points="733.38,-97 564.38,-97 564.38,-66.5 733.38,-66.5 733.38,-97"/>
<text text-anchor="start" x="572.38" y="-83.5" font-family="Helvetica,sans-Serif" font-size="10.00">lib/Analysis/ConstraintDependency</text>
<text text-anchor="middle" x="648.88" y="-72.25" font-family="Helvetica,sans-Serif" font-size="10.00">Graph.cpp</text>
</a>
</g>
</g>
<!-- Node1&#45;&gt;Node9 -->
<g id="edge15_Node000001_Node000009" class="edge">
<title>Node1&#45;&gt;Node9</title>
<g id="a_edge15_Node000001_Node000009"><a xlink:title=" ">
<path fill="none" stroke="#63b8ff" d="M645.49,-321.37C648.06,-313.72 650.6,-304.82 651.88,-296.5 663.23,-222.4 654.8,-132.15 650.73,-97.38"/>
<polygon fill="#63b8ff" stroke="#63b8ff" points="642.24,-320.07 642.12,-330.67 648.82,-322.46 642.24,-320.07"/>
</a>
</g>
</g>
<!-- Node3 -->
<g id="Node000003" class="node">
<title>Node3</title>
<g id="a_Node000003"><a xlink:href="_constrain_ref_lattice_8h.html" target="_top" xlink:title=" ">
<polygon fill="white" stroke="#666666" points="446,-230 331.75,-230 331.75,-199.5 446,-199.5 446,-230"/>
<text text-anchor="start" x="339.75" y="-216.5" font-family="Helvetica,sans-Serif" font-size="10.00">include/llzk/Analysis</text>
<text text-anchor="middle" x="388.88" y="-205.25" font-family="Helvetica,sans-Serif" font-size="10.00">/ConstrainRefLattice.h</text>
</a>
</g>
</g>
<!-- Node2&#45;&gt;Node3 -->
<g id="edge2_Node000002_Node000003" class="edge">
<title>Node2&#45;&gt;Node3</title>
<g id="a_edge2_Node000002_Node000003"><a xlink:title=" ">
<path fill="none" stroke="#63b8ff" d="M437.62,-258.24C427.05,-249.03 415.05,-238.56 405.6,-230.33"/>
<polygon fill="#63b8ff" stroke="#63b8ff" points="435.1,-260.69 444.94,-264.62 439.7,-255.41 435.1,-260.69"/>
</a>
</g>
</g>
<!-- Node4 -->
<g id="Node000004" class="node">
<title>Node4</title>
<g id="a_Node000004"><a xlink:href="_constraint_dependency_graph_8h.html" target="_top" xlink:title=" ">
<polygon fill="white" stroke="#666666" points="408.5,-163.5 255.25,-163.5 255.25,-133 408.5,-133 408.5,-163.5"/>
<text text-anchor="start" x="263.25" y="-150" font-family="Helvetica,sans-Serif" font-size="10.00">include/llzk/Analysis</text>
<text text-anchor="middle" x="331.88" y="-138.75" font-family="Helvetica,sans-Serif" font-size="10.00">/ConstraintDependencyGraph.h</text>
</a>
</g>
</g>
<!-- Node2&#45;&gt;Node4 -->
<g id="edge12_Node000002_Node000004" class="edge">
<title>Node2&#45;&gt;Node4</title>
<g id="a_edge12_Node000002_Node000004"><a xlink:title=" ">
<path fill="none" stroke="#63b8ff" d="M398.91,-273.67C370.75,-267.23 340.19,-254.61 322.88,-230 309.08,-210.39 317.57,-181.21 324.84,-163.83"/>
<polygon fill="#63b8ff" stroke="#63b8ff" points="397.98,-277.05 408.48,-275.62 399.38,-270.2 397.98,-277.05"/>
</a>
</g>
</g>
<!-- Node11 -->
<g id="Node000011" class="node">
<title>Node11</title>
<g id="a_Node000011"><a xlink:href="_constrain_ref_8cpp.html" target="_top" xlink:title=" ">
<polygon fill="white" stroke="#666666" points="609.75,-224.38 464,-224.38 464,-205.12 609.75,-205.12 609.75,-224.38"/>
<text text-anchor="middle" x="536.88" y="-210.88" font-family="Helvetica,sans-Serif" font-size="10.00">lib/Analysis/ConstrainRef.cpp</text>
</a>
</g>
</g>
<!-- Node2&#45;&gt;Node11 -->
<g id="edge13_Node000002_Node000011" class="edge">
<title>Node2&#45;&gt;Node11</title>
<g id="a_edge13_Node000002_Node000011"><a xlink:title=" ">
<path fill="none" stroke="#63b8ff" d="M487.98,-258.37C501.25,-246.8 516.81,-233.24 526.75,-224.57"/>
<polygon fill="#63b8ff" stroke="#63b8ff" points="486.05,-255.41 480.81,-264.62 490.65,-260.69 486.05,-255.41"/>
</a>
</g>
</g>
<!-- Node3&#45;&gt;Node4 -->
<g id="edge3_Node000003_Node000004" class="edge">
<title>Node3&#45;&gt;Node4</title>
<g id="a_edge3_Node000003_Node000004"><a xlink:title=" ">
<path fill="none" stroke="#63b8ff" d="M368.44,-190.63C360.54,-181.69 351.75,-171.74 344.76,-163.83"/>
<polygon fill="#63b8ff" stroke="#63b8ff" points="365.69,-192.8 374.94,-197.98 370.94,-188.17 365.69,-192.8"/>
</a>
</g>
</g>
<!-- Node3&#45;&gt;Node8 -->
<g id="edge10_Node000003_Node000008" class="edge">
<title>Node3&#45;&gt;Node8</title>
<g id="a_edge10_Node000003_Node000008"><a xlink:title=" ">
<path fill="none" stroke="#63b8ff" d="M405.85,-190.09C425.22,-163.1 456.29,-119.8 472.41,-97.33"/>
<polygon fill="#63b8ff" stroke="#63b8ff" points="403.16,-187.84 400.18,-198 408.85,-191.92 403.16,-187.84"/>
</a>
</g>
</g>
<!-- Node3&#45;&gt;Node9 -->
<g id="edge11_Node000003_Node000009" class="edge">
<title>Node3&#45;&gt;Node9</title>
<g id="a_edge11_Node000003_Node000009"><a xlink:title=" ">
<path fill="none" stroke="#63b8ff" d="M427.92,-194.08C480.58,-167.54 573.16,-120.9 619.99,-97.3"/>
<polygon fill="#63b8ff" stroke="#63b8ff" points="426.65,-190.8 419.3,-198.42 429.8,-197.05 426.65,-190.8"/>
</a>
</g>
</g>
<!-- Node5 -->
<g id="Node000005" class="node">
<title>Node5</title>
<g id="a_Node000005"><a xlink:href="_interval_analysis_8h.html" target="_top" xlink:title=" ">
<polygon fill="white" stroke="#666666" points="214.5,-97 109.25,-97 109.25,-66.5 214.5,-66.5 214.5,-97"/>
<text text-anchor="start" x="117.25" y="-83.5" font-family="Helvetica,sans-Serif" font-size="10.00">include/llzk/Analysis</text>
<text text-anchor="middle" x="161.88" y="-72.25" font-family="Helvetica,sans-Serif" font-size="10.00">/IntervalAnalysis.h</text>
</a>
</g>
</g>
<!-- Node4&#45;&gt;Node5 -->
<g id="edge4_Node000004_Node000005" class="edge">
<title>Node4&#45;&gt;Node5</title>
<g id="a_edge4_Node000004_Node000005"><a xlink:title=" ">
<path fill="none" stroke="#63b8ff" d="M282.84,-128.65C256.7,-118.73 224.99,-106.7 200.59,-97.44"/>
<polygon fill="#63b8ff" stroke="#63b8ff" points="281.29,-131.8 291.88,-132.08 283.78,-125.26 281.29,-131.8"/>
</a>
</g>
</g>
<!-- Node4&#45;&gt;Node8 -->
<g id="edge7_Node000004_Node000008" class="edge">
<title>Node4&#45;&gt;Node8</title>
<g id="a_edge7_Node000004_Node000008"><a xlink:title=" ">
<path fill="none" stroke="#63b8ff" d="M376.67,-128.12C399.65,-118.3 427.2,-106.53 448.49,-97.44"/>
<polygon fill="#63b8ff" stroke="#63b8ff" points="375.35,-124.87 367.53,-132.02 378.1,-131.31 375.35,-124.87"/>
</a>
</g>
</g>
<!-- Node4&#45;&gt;Node9 -->
<g id="edge8_Node000004_Node000009" class="edge">
<title>Node4&#45;&gt;Node9</title>
<g id="a_edge8_Node000004_Node000009"><a xlink:title=" ">
<path fill="none" stroke="#63b8ff" d="M415.34,-130.27C465.46,-120.07 528.6,-107.22 576.58,-97.46"/>
<polygon fill="#63b8ff" stroke="#63b8ff" points="414.79,-126.81 405.69,-132.23 416.18,-133.67 414.79,-126.81"/>
</a>
</g>
</g>
<!-- Node10 -->
<g id="Node000010" class="node">
<title>Node10</title>
<g id="a_Node000010"><a xlink:href="_constraint_dependency_graph_pass_8cpp.html" target="_top" xlink:title="This file implements the &#45;llzk&#45;print&#45;constraint&#45;dependency&#45;graphs pass.">
<polygon fill="white" stroke="#666666" points="401.38,-97 232.38,-97 232.38,-66.5 401.38,-66.5 401.38,-97"/>
<text text-anchor="start" x="240.38" y="-83.5" font-family="Helvetica,sans-Serif" font-size="10.00">lib/Analysis/ConstraintDependency</text>
<text text-anchor="middle" x="316.88" y="-72.25" font-family="Helvetica,sans-Serif" font-size="10.00">GraphPass.cpp</text>
</a>
</g>
</g>
<!-- Node4&#45;&gt;Node10 -->
<g id="edge9_Node000004_Node000010" class="edge">
<title>Node4&#45;&gt;Node10</title>
<g id="a_edge9_Node000004_Node000010"><a xlink:title=" ">
<path fill="none" stroke="#63b8ff" d="M325.91,-121.59C323.99,-113.34 321.93,-104.49 320.27,-97.33"/>
<polygon fill="#63b8ff" stroke="#63b8ff" points="322.45,-122.19 328.13,-131.14 329.27,-120.61 322.45,-122.19"/>
</a>
</g>
</g>
<!-- Node6 -->
<g id="Node000006" class="node">
<title>Node6</title>
<g id="a_Node000006"><a xlink:href="_interval_analysis_8cpp.html" target="_top" xlink:title=" ">
<polygon fill="white" stroke="#666666" points="157.75,-24.88 0,-24.88 0,-5.63 157.75,-5.63 157.75,-24.88"/>
<text text-anchor="middle" x="78.88" y="-11.38" font-family="Helvetica,sans-Serif" font-size="10.00">lib/Analysis/IntervalAnalysis.cpp</text>
</a>
</g>
</g>
<!-- Node5&#45;&gt;Node6 -->
<g id="edge5_Node000005_Node000006" class="edge">
<title>Node5&#45;&gt;Node6</title>
<g id="a_edge5_Node000005_Node000006"><a xlink:title=" ">
<path fill="none" stroke="#63b8ff" d="M134.14,-59.2C119.16,-47.56 101.48,-33.82 90.23,-25.07"/>
<polygon fill="#63b8ff" stroke="#63b8ff" points="131.8,-61.81 141.85,-65.19 136.1,-56.29 131.8,-61.81"/>
</a>
</g>
</g>
<!-- Node7 -->
<g id="Node000007" class="node">
<title>Node7</title>
<g id="a_Node000007"><a xlink:href="_interval_analysis_pass_8cpp.html" target="_top" xlink:title="This file implements the &#45;llzk&#45;print&#45;interval&#45;analysis pass.">
<polygon fill="white" stroke="#666666" points="314.38,-30.5 175.38,-30.5 175.38,0 314.38,0 314.38,-30.5"/>
<text text-anchor="start" x="183.38" y="-17" font-family="Helvetica,sans-Serif" font-size="10.00">lib/Analysis/IntervalAnalysis</text>
<text text-anchor="middle" x="244.88" y="-5.75" font-family="Helvetica,sans-Serif" font-size="10.00">Pass.cpp</text>
</a>
</g>
</g>
<!-- Node5&#45;&gt;Node7 -->
<g id="edge6_Node000005_Node000007" class="edge">
<title>Node5&#45;&gt;Node7</title>
<g id="a_edge6_Node000005_Node000007"><a xlink:title=" ">
<path fill="none" stroke="#63b8ff" d="M189.49,-59.29C201.52,-49.94 215.3,-39.23 226.12,-30.83"/>
<polygon fill="#63b8ff" stroke="#63b8ff" points="187.65,-56.29 181.9,-65.19 191.95,-61.81 187.65,-56.29"/>
</a>
</g>
</g>
</g>
</svg>
