<?xml version="1.0" encoding="UTF-8" standalone="no"?>
<!DOCTYPE svg PUBLIC "-//W3C//DTD SVG 1.1//EN"
 "http://www.w3.org/Graphics/SVG/1.1/DTD/svg11.dtd">
<!-- Generated by graphviz version 12.2.1 (0)
 -->
<!-- Title: build/include/llzk/Dialect/Include/IR/Ops.cpp.inc Pages: 1 -->
<svg width="214pt" height="116pt"
 viewBox="0.00 0.00 214.00 116.25" xmlns="http://www.w3.org/2000/svg" xmlns:xlink="http://www.w3.org/1999/xlink">
<g id="graph0" class="graph" transform="scale(1 1) rotate(0) translate(4 112.25)">
<title>build/include/llzk/Dialect/Include/IR/Ops.cpp.inc</title>
<!-- Node1 -->
<g id="Node000001" class="node">
<title>Node1</title>
<g id="a_Node000001"><a xlink:title=" ">
<polygon fill="#999999" stroke="#666666" points="151.88,-108.25 54.12,-108.25 54.12,-66.5 151.88,-66.5 151.88,-108.25"/>
<text text-anchor="start" x="62.12" y="-94.75" font-family="Helvetica,sans-Serif" font-size="10.00">build/include/llzk</text>
<text text-anchor="start" x="62.12" y="-83.5" font-family="Helvetica,sans-Serif" font-size="10.00">/Dialect/Include/IR</text>
<text text-anchor="middle" x="103" y="-72.25" font-family="Helvetica,sans-Serif" font-size="10.00">/Ops.cpp.inc</text>
</a>
</g>
</g>
<!-- Node2 -->
<g id="Node000002" class="node">
<title>Node2</title>
<g id="a_Node000002"><a xlink:href="_include_2_i_r_2_dialect_8cpp.html" target="_top" xlink:title=" ">
<polygon fill="white" stroke="#666666" points="94,-30.5 0,-30.5 0,0 94,0 94,-30.5"/>
<text text-anchor="start" x="8" y="-17" font-family="Helvetica,sans-Serif" font-size="10.00">lib/Dialect/Include</text>
<text text-anchor="middle" x="47" y="-5.75" font-family="Helvetica,sans-Serif" font-size="10.00">/IR/Dialect.cpp</text>
</a>
</g>
</g>
<!-- Node1&#45;&gt;Node2 -->
<g id="edge1_Node000001_Node000002" class="edge">
<title>Node1&#45;&gt;Node2</title>
<g id="a_edge1_Node000001_Node000002"><a xlink:title=" ">
<path fill="none" stroke="#63b8ff" d="M79.72,-57.22C72.41,-48.07 64.66,-38.37 58.54,-30.7"/>
<polygon fill="#63b8ff" stroke="#63b8ff" points="76.88,-59.28 85.86,-64.91 82.35,-54.91 76.88,-59.28"/>
</a>
</g>
</g>
<!-- Node3 -->
<g id="Node000003" class="node">
<title>Node3</title>
<g id="a_Node000003"><a xlink:href="_include_2_i_r_2_ops_8cpp.html" target="_top" xlink:title=" ">
<polygon fill="white" stroke="#666666" points="206,-30.5 112,-30.5 112,0 206,0 206,-30.5"/>
<text text-anchor="start" x="120" y="-17" font-family="Helvetica,sans-Serif" font-size="10.00">lib/Dialect/Include</text>
<text text-anchor="middle" x="159" y="-5.75" font-family="Helvetica,sans-Serif" font-size="10.00">/IR/Ops.cpp</text>
</a>
</g>
</g>
<!-- Node1&#45;&gt;Node3 -->
<g id="edge2_Node000001_Node000003" class="edge">
<title>Node1&#45;&gt;Node3</title>
<g id="a_edge2_Node000001_Node000003"><a xlink:title=" ">
<path fill="none" stroke="#63b8ff" d="M126.28,-57.22C133.59,-48.07 141.34,-38.37 147.46,-30.7"/>
<polygon fill="#63b8ff" stroke="#63b8ff" points="123.65,-54.91 120.14,-64.91 129.12,-59.28 123.65,-54.91"/>
</a>
</g>
</g>
</g>
</svg>
