<?xml version="1.0" encoding="UTF-8" standalone="no"?>
<!DOCTYPE svg PUBLIC "-//W3C//DTD SVG 1.1//EN"
 "http://www.w3.org/Graphics/SVG/1.1/DTD/svg11.dtd">
<!-- Generated by graphviz version 12.2.1 (0)
 -->
<!-- Title: include/llzk/Dialect/Include/IR/Dialect.h Pages: 1 -->
<svg width="1983pt" height="261pt"
 viewBox="0.00 0.00 1983.12 260.50" xmlns="http://www.w3.org/2000/svg" xmlns:xlink="http://www.w3.org/1999/xlink">
<g id="graph0" class="graph" transform="scale(1 1) rotate(0) translate(4 256.5)">
<title>include/llzk/Dialect/Include/IR/Dialect.h</title>
<!-- Node1 -->
<g id="Node000001" class="node">
<title>Node1</title>
<g id="a_Node000001"><a xlink:title=" ">
<polygon fill="#999999" stroke="#666666" points="1044,-252.5 938,-252.5 938,-222 1044,-222 1044,-252.5"/>
<text text-anchor="start" x="946" y="-239" font-family="Helvetica,sans-Serif" font-size="10.00">include/llzk/Dialect</text>
<text text-anchor="middle" x="991" y="-227.75" font-family="Helvetica,sans-Serif" font-size="10.00">/Include/IR/Dialect.h</text>
</a>
</g>
</g>
<!-- Node2 -->
<g id="Node000002" class="node">
<title>Node2</title>
<g id="a_Node000002"><a xlink:href="_include_2_i_r_2_ops_8h.html" target="_top" xlink:title=" ">
<polygon fill="white" stroke="#666666" points="326.25,-186 227.75,-186 227.75,-155.5 326.25,-155.5 326.25,-186"/>
<text text-anchor="start" x="235.75" y="-172.5" font-family="Helvetica,sans-Serif" font-size="10.00">include/llzk/Dialect</text>
<text text-anchor="middle" x="277" y="-161.25" font-family="Helvetica,sans-Serif" font-size="10.00">/Include/IR/Ops.h</text>
</a>
</g>
</g>
<!-- Node1&#45;&gt;Node2 -->
<g id="edge1_Node000001_Node000002" class="edge">
<title>Node1&#45;&gt;Node2</title>
<g id="a_edge1_Node000001_Node000002"><a xlink:title=" ">
<path fill="none" stroke="#63b8ff" d="M926.19,-230.39C785.06,-217.65 452.53,-187.61 326.55,-176.23"/>
<polygon fill="#63b8ff" stroke="#63b8ff" points="925.84,-233.88 936.12,-231.29 926.47,-226.91 925.84,-233.88"/>
</a>
</g>
</g>
<!-- Node3 -->
<g id="Node000003" class="node">
<title>Node3</title>
<g id="a_Node000003"><a xlink:href="_include_2_i_r_2_dialect_8cpp.html" target="_top" xlink:title=" ">
<polygon fill="white" stroke="#666666" points="94,-113.88 0,-113.88 0,-83.38 94,-83.38 94,-113.88"/>
<text text-anchor="start" x="8" y="-100.38" font-family="Helvetica,sans-Serif" font-size="10.00">lib/Dialect/Include</text>
<text text-anchor="middle" x="47" y="-89.12" font-family="Helvetica,sans-Serif" font-size="10.00">/IR/Dialect.cpp</text>
</a>
</g>
</g>
<!-- Node1&#45;&gt;Node3 -->
<g id="edge32_Node000001_Node000003" class="edge">
<title>Node1&#45;&gt;Node3</title>
<g id="a_edge32_Node000001_Node000003"><a xlink:title=" ">
<path fill="none" stroke="#63b8ff" d="M926.43,-235.35C765.81,-232.57 351.67,-222.03 219,-186 161.44,-170.37 100.53,-134.54 68.92,-114.28"/>
<polygon fill="#63b8ff" stroke="#63b8ff" points="925.98,-238.84 936.04,-235.51 926.1,-231.84 925.98,-238.84"/>
</a>
</g>
</g>
<!-- Node8 -->
<g id="Node000008" class="node">
<title>Node8</title>
<g id="a_Node000008"><a xlink:href="_pass_base_8h.html" target="_top" xlink:title=" ">
<polygon fill="white" stroke="#666666" points="1064.25,-180.38 917.75,-180.38 917.75,-161.12 1064.25,-161.12 1064.25,-180.38"/>
<text text-anchor="middle" x="991" y="-166.88" font-family="Helvetica,sans-Serif" font-size="10.00">include/llzk/Pass/PassBase.h</text>
</a>
</g>
</g>
<!-- Node1&#45;&gt;Node8 -->
<g id="edge7_Node000001_Node000008" class="edge">
<title>Node1&#45;&gt;Node8</title>
<g id="a_edge7_Node000001_Node000008"><a xlink:title=" ">
<path fill="none" stroke="#63b8ff" d="M991,-210.34C991,-199.76 991,-188.25 991,-180.57"/>
<polygon fill="#63b8ff" stroke="#63b8ff" points="987.5,-210.1 991,-220.1 994.5,-210.1 987.5,-210.1"/>
</a>
</g>
</g>
<!-- Node15 -->
<g id="Node000015" class="node">
<title>Node15</title>
<g id="a_Node000015"><a xlink:href="_array_to_scalar_pass_8cpp.html" target="_top" xlink:title="This file implements the &#45;llzk&#45;array&#45;to&#45;scalar pass.">
<polygon fill="white" stroke="#666666" points="1975.12,-36.12 1836.88,-36.12 1836.88,-5.62 1975.12,-5.62 1975.12,-36.12"/>
<text text-anchor="start" x="1844.88" y="-22.62" font-family="Helvetica,sans-Serif" font-size="10.00">lib/Dialect/Array/Transforms</text>
<text text-anchor="middle" x="1906" y="-11.38" font-family="Helvetica,sans-Serif" font-size="10.00">/ArrayToScalarPass.cpp</text>
</a>
</g>
</g>
<!-- Node1&#45;&gt;Node15 -->
<g id="edge31_Node000001_Node000015" class="edge">
<title>Node1&#45;&gt;Node15</title>
<g id="a_edge31_Node000001_Node000015"><a xlink:title=" ">
<path fill="none" stroke="#63b8ff" d="M1055.42,-221.77C1195.95,-190.07 1540.46,-111.78 1828,-41.75 1834.79,-40.1 1841.9,-38.33 1848.95,-36.56"/>
<polygon fill="#63b8ff" stroke="#63b8ff" points="1054.92,-218.29 1045.94,-223.91 1056.46,-225.12 1054.92,-218.29"/>
</a>
</g>
</g>
<!-- Node26 -->
<g id="Node000026" class="node">
<title>Node26</title>
<g id="a_Node000026"><a xlink:href="_init_dialects_8cpp.html" target="_top" xlink:title=" ">
<polygon fill="white" stroke="#666666" points="1654.38,-180.38 1523.62,-180.38 1523.62,-161.12 1654.38,-161.12 1654.38,-180.38"/>
<text text-anchor="middle" x="1589" y="-166.88" font-family="Helvetica,sans-Serif" font-size="10.00">lib/Dialect/InitDialects.cpp</text>
</a>
</g>
</g>
<!-- Node1&#45;&gt;Node26 -->
<g id="edge33_Node000001_Node000026" class="edge">
<title>Node1&#45;&gt;Node26</title>
<g id="a_edge33_Node000001_Node000026"><a xlink:title=" ">
<path fill="none" stroke="#63b8ff" d="M1055.44,-231.72C1153.75,-224.42 1346.98,-208.56 1510,-186 1520.49,-184.55 1531.72,-182.7 1542.31,-180.82"/>
<polygon fill="#63b8ff" stroke="#63b8ff" points="1055.44,-228.21 1045.72,-232.43 1055.95,-235.19 1055.44,-228.21"/>
</a>
</g>
</g>
<!-- Node2&#45;&gt;Node3 -->
<g id="edge2_Node000002_Node000003" class="edge">
<title>Node2&#45;&gt;Node3</title>
<g id="a_edge2_Node000002_Node000003"><a xlink:title=" ">
<path fill="none" stroke="#63b8ff" d="M216.24,-153.17C182.7,-143.77 140.38,-131.52 103,-119.5 97.99,-117.89 92.76,-116.13 87.58,-114.35"/>
<polygon fill="#63b8ff" stroke="#63b8ff" points="215.23,-156.52 225.8,-155.83 217.11,-149.78 215.23,-156.52"/>
</a>
</g>
</g>
<!-- Node4 -->
<g id="Node000004" class="node">
<title>Node4</title>
<g id="a_Node000004"><a xlink:href="_include_2_i_r_2_ops_8cpp.html" target="_top" xlink:title=" ">
<polygon fill="white" stroke="#666666" points="206,-113.88 112,-113.88 112,-83.38 206,-83.38 206,-113.88"/>
<text text-anchor="start" x="120" y="-100.38" font-family="Helvetica,sans-Serif" font-size="10.00">lib/Dialect/Include</text>
<text text-anchor="middle" x="159" y="-89.12" font-family="Helvetica,sans-Serif" font-size="10.00">/IR/Ops.cpp</text>
</a>
</g>
</g>
<!-- Node2&#45;&gt;Node4 -->
<g id="edge3_Node000002_Node000004" class="edge">
<title>Node2&#45;&gt;Node4</title>
<g id="a_edge3_Node000002_Node000004"><a xlink:title=" ">
<path fill="none" stroke="#63b8ff" d="M242.55,-149.28C223.69,-138.07 200.77,-124.45 183.7,-114.31"/>
<polygon fill="#63b8ff" stroke="#63b8ff" points="240.58,-152.18 250.96,-154.28 244.15,-146.16 240.58,-152.18"/>
</a>
</g>
</g>
<!-- Node5 -->
<g id="Node000005" class="node">
<title>Node5</title>
<g id="a_Node000005"><a xlink:href="_inline_includes_pass_8cpp.html" target="_top" xlink:title="This file implements the &#45;llzk&#45;inline&#45;includes pass.">
<polygon fill="white" stroke="#666666" points="158.75,-41.75 27.25,-41.75 27.25,0 158.75,0 158.75,-41.75"/>
<text text-anchor="start" x="35.25" y="-28.25" font-family="Helvetica,sans-Serif" font-size="10.00">lib/Dialect/Include</text>
<text text-anchor="start" x="35.25" y="-17" font-family="Helvetica,sans-Serif" font-size="10.00">/Transforms/InlineIncludes</text>
<text text-anchor="middle" x="93" y="-5.75" font-family="Helvetica,sans-Serif" font-size="10.00">Pass.cpp</text>
</a>
</g>
</g>
<!-- Node2&#45;&gt;Node5 -->
<g id="edge4_Node000002_Node000005" class="edge">
<title>Node2&#45;&gt;Node5</title>
<g id="a_edge4_Node000002_Node000005"><a xlink:title=" ">
<path fill="none" stroke="#63b8ff" d="M265.25,-145.12C254.54,-124.83 237.03,-96.45 215,-77.75 197.33,-62.75 174.96,-50.97 154.22,-42.17"/>
<polygon fill="#63b8ff" stroke="#63b8ff" points="262.02,-146.49 269.67,-153.83 268.26,-143.32 262.02,-146.49"/>
</a>
</g>
</g>
<!-- Node6 -->
<g id="Node000006" class="node">
<title>Node6</title>
<g id="a_Node000006"><a xlink:href="_include_helper_8cpp.html" target="_top" xlink:title="This file contains the implementation for file include helpers.">
<polygon fill="white" stroke="#666666" points="377.5,-113.88 262.5,-113.88 262.5,-83.38 377.5,-83.38 377.5,-113.88"/>
<text text-anchor="start" x="270.5" y="-100.38" font-family="Helvetica,sans-Serif" font-size="10.00">lib/Dialect/Include</text>
<text text-anchor="middle" x="320" y="-89.12" font-family="Helvetica,sans-Serif" font-size="10.00">/Util/IncludeHelper.cpp</text>
</a>
</g>
</g>
<!-- Node2&#45;&gt;Node6 -->
<g id="edge5_Node000002_Node000006" class="edge">
<title>Node2&#45;&gt;Node6</title>
<g id="a_edge5_Node000002_Node000006"><a xlink:title=" ">
<path fill="none" stroke="#63b8ff" d="M291.92,-145.42C298.32,-134.99 305.57,-123.16 311.1,-114.14"/>
<polygon fill="#63b8ff" stroke="#63b8ff" points="288.94,-143.58 286.7,-153.93 294.91,-147.23 288.94,-143.58"/>
</a>
</g>
</g>
<!-- Node7 -->
<g id="Node000007" class="node">
<title>Node7</title>
<g id="a_Node000007"><a xlink:href="_symbol_lookup_8cpp.html" target="_top" xlink:title="This file contains the implementations for symbol lookup helper functions.">
<polygon fill="white" stroke="#666666" points="526,-108.25 396,-108.25 396,-89 526,-89 526,-108.25"/>
<text text-anchor="middle" x="461" y="-94.75" font-family="Helvetica,sans-Serif" font-size="10.00">lib/Util/SymbolLookup.cpp</text>
</a>
</g>
</g>
<!-- Node2&#45;&gt;Node7 -->
<g id="edge6_Node000002_Node000007" class="edge">
<title>Node2&#45;&gt;Node7</title>
<g id="a_edge6_Node000002_Node000007"><a xlink:title=" ">
<path fill="none" stroke="#63b8ff" d="M326.31,-150.96C362.17,-137.29 409.14,-119.39 437.08,-108.74"/>
<polygon fill="#63b8ff" stroke="#63b8ff" points="325.08,-147.68 316.99,-154.51 327.58,-154.22 325.08,-147.68"/>
</a>
</g>
</g>
<!-- Node9 -->
<g id="Node000009" class="node">
<title>Node9</title>
<g id="a_Node000009"><a xlink:href="_analysis_passes_8h.html" target="_top" xlink:title=" ">
<polygon fill="white" stroke="#666666" points="833.62,-113.88 728.38,-113.88 728.38,-83.38 833.62,-83.38 833.62,-113.88"/>
<text text-anchor="start" x="736.38" y="-100.38" font-family="Helvetica,sans-Serif" font-size="10.00">include/llzk/Analysis</text>
<text text-anchor="middle" x="781" y="-89.12" font-family="Helvetica,sans-Serif" font-size="10.00">/AnalysisPasses.h</text>
</a>
</g>
</g>
<!-- Node8&#45;&gt;Node9 -->
<g id="edge8_Node000008_Node000009" class="edge">
<title>Node8&#45;&gt;Node9</title>
<g id="a_edge8_Node000008_Node000009"><a xlink:title=" ">
<path fill="none" stroke="#63b8ff" d="M953.44,-157.21C917.45,-145.19 863.15,-127.06 825.13,-114.36"/>
<polygon fill="#63b8ff" stroke="#63b8ff" points="951.95,-160.4 962.54,-160.25 954.16,-153.76 951.95,-160.4"/>
</a>
</g>
</g>
<!-- Node14 -->
<g id="Node000014" class="node">
<title>Node14</title>
<g id="a_Node000014"><a xlink:href="_array_2_transforms_2_transformation_passes_8h.html" target="_top" xlink:title=" ">
<polygon fill="white" stroke="#666666" points="1467.5,-119.5 1304.5,-119.5 1304.5,-77.75 1467.5,-77.75 1467.5,-119.5"/>
<text text-anchor="start" x="1312.5" y="-106" font-family="Helvetica,sans-Serif" font-size="10.00">include/llzk/Dialect</text>
<text text-anchor="start" x="1312.5" y="-94.75" font-family="Helvetica,sans-Serif" font-size="10.00">/Array/Transforms/Transformation</text>
<text text-anchor="middle" x="1386" y="-83.5" font-family="Helvetica,sans-Serif" font-size="10.00">Passes.h</text>
</a>
</g>
</g>
<!-- Node8&#45;&gt;Node14 -->
<g id="edge13_Node000008_Node000014" class="edge">
<title>Node8&#45;&gt;Node14</title>
<g id="a_edge13_Node000008_Node000014"><a xlink:title=" ">
<path fill="none" stroke="#63b8ff" d="M1063.43,-158.95C1125.35,-149.44 1216.75,-134.77 1296,-119.5 1298.67,-118.99 1301.38,-118.45 1304.12,-117.9"/>
<polygon fill="#63b8ff" stroke="#63b8ff" points="1063.08,-155.46 1053.72,-160.43 1064.13,-162.38 1063.08,-155.46"/>
</a>
</g>
</g>
<!-- Node16 -->
<g id="Node000016" class="node">
<title>Node16</title>
<g id="a_Node000016"><a xlink:href="_inline_includes_pass_8h.html" target="_top" xlink:title=" ">
<polygon fill="white" stroke="#666666" points="710,-119.5 544,-119.5 544,-77.75 710,-77.75 710,-119.5"/>
<text text-anchor="start" x="552" y="-106" font-family="Helvetica,sans-Serif" font-size="10.00">include/llzk/Dialect</text>
<text text-anchor="start" x="552" y="-94.75" font-family="Helvetica,sans-Serif" font-size="10.00">/Include/Transforms/InlineIncludes</text>
<text text-anchor="middle" x="627" y="-83.5" font-family="Helvetica,sans-Serif" font-size="10.00">Pass.h</text>
</a>
</g>
</g>
<!-- Node8&#45;&gt;Node16 -->
<g id="edge16_Node000008_Node000016" class="edge">
<title>Node8&#45;&gt;Node16</title>
<g id="a_edge16_Node000008_Node000016"><a xlink:title=" ">
<path fill="none" stroke="#63b8ff" d="M928.01,-158.67C872.82,-148.82 790.47,-133.82 719,-119.5 716.12,-118.92 713.18,-118.33 710.22,-117.72"/>
<polygon fill="#63b8ff" stroke="#63b8ff" points="927.07,-162.06 937.53,-160.36 928.3,-155.16 927.07,-162.06"/>
</a>
</g>
</g>
<!-- Node17 -->
<g id="Node000017" class="node">
<title>Node17</title>
<g id="a_Node000017"><a xlink:href="_polymorphic_2_transforms_2_transformation_passes_8h.html" target="_top" xlink:title=" ">
<polygon fill="white" stroke="#666666" points="976.75,-119.5 851.25,-119.5 851.25,-77.75 976.75,-77.75 976.75,-119.5"/>
<text text-anchor="start" x="859.25" y="-106" font-family="Helvetica,sans-Serif" font-size="10.00">include/llzk/Dialect</text>
<text text-anchor="start" x="859.25" y="-94.75" font-family="Helvetica,sans-Serif" font-size="10.00">/Polymorphic/Transforms</text>
<text text-anchor="middle" x="914" y="-83.5" font-family="Helvetica,sans-Serif" font-size="10.00">/TransformationPasses.h</text>
</a>
</g>
</g>
<!-- Node8&#45;&gt;Node17 -->
<g id="edge19_Node000008_Node000017" class="edge">
<title>Node8&#45;&gt;Node17</title>
<g id="a_edge19_Node000008_Node000017"><a xlink:title=" ">
<path fill="none" stroke="#63b8ff" d="M972.89,-153.26C961.94,-143.28 947.88,-130.48 936.25,-119.89"/>
<polygon fill="#63b8ff" stroke="#63b8ff" points="970.38,-155.7 980.13,-159.85 975.09,-150.53 970.38,-155.7"/>
</a>
</g>
</g>
<!-- Node19 -->
<g id="Node000019" class="node">
<title>Node19</title>
<g id="a_Node000019"><a xlink:href="_l_l_z_k_transformation_passes_8h.html" target="_top" xlink:title=" ">
<polygon fill="white" stroke="#666666" points="1143.38,-113.88 994.62,-113.88 994.62,-83.38 1143.38,-83.38 1143.38,-113.88"/>
<text text-anchor="start" x="1002.62" y="-100.38" font-family="Helvetica,sans-Serif" font-size="10.00">include/llzk/Transforms</text>
<text text-anchor="middle" x="1069" y="-89.12" font-family="Helvetica,sans-Serif" font-size="10.00">/LLZKTransformationPasses.h</text>
</a>
</g>
</g>
<!-- Node8&#45;&gt;Node19 -->
<g id="edge22_Node000008_Node000019" class="edge">
<title>Node8&#45;&gt;Node19</title>
<g id="a_edge22_Node000008_Node000019"><a xlink:title=" ">
<path fill="none" stroke="#63b8ff" d="M1009.16,-153.42C1022.32,-141.59 1039.97,-125.72 1052.69,-114.29"/>
<polygon fill="#63b8ff" stroke="#63b8ff" points="1007.1,-150.57 1002,-159.86 1011.78,-155.77 1007.1,-150.57"/>
</a>
</g>
</g>
<!-- Node24 -->
<g id="Node000024" class="node">
<title>Node24</title>
<g id="a_Node000024"><a xlink:href="_l_l_z_k_validation_passes_8h.html" target="_top" xlink:title=" ">
<polygon fill="white" stroke="#666666" points="1286.75,-113.88 1161.25,-113.88 1161.25,-83.38 1286.75,-83.38 1286.75,-113.88"/>
<text text-anchor="start" x="1169.25" y="-100.38" font-family="Helvetica,sans-Serif" font-size="10.00">include/llzk/Validators</text>
<text text-anchor="middle" x="1224" y="-89.12" font-family="Helvetica,sans-Serif" font-size="10.00">/LLZKValidationPasses.h</text>
</a>
</g>
</g>
<!-- Node8&#45;&gt;Node24 -->
<g id="edge28_Node000008_Node000024" class="edge">
<title>Node8&#45;&gt;Node24</title>
<g id="a_edge28_Node000008_Node000024"><a xlink:title=" ">
<path fill="none" stroke="#63b8ff" d="M1031.91,-157.44C1071.82,-145.42 1132.58,-127.14 1175.04,-114.36"/>
<polygon fill="#63b8ff" stroke="#63b8ff" points="1031,-154.06 1022.43,-160.29 1033.02,-160.76 1031,-154.06"/>
</a>
</g>
</g>
<!-- Node10 -->
<g id="Node000010" class="node">
<title>Node10</title>
<g id="a_Node000010"><a xlink:href="_call_graph_passes_8cpp.html" target="_top" xlink:title="This file implements the &#45;llzk&#45;print&#45;call&#45;graph and &#45;llzk&#45;print&#45;call&#45;graph&#45;sccs passes.">
<polygon fill="white" stroke="#666666" points="341.25,-30.5 176.75,-30.5 176.75,-11.25 341.25,-11.25 341.25,-30.5"/>
<text text-anchor="middle" x="259" y="-17" font-family="Helvetica,sans-Serif" font-size="10.00">lib/Analysis/CallGraphPasses.cpp</text>
</a>
</g>
</g>
<!-- Node9&#45;&gt;Node10 -->
<g id="edge9_Node000009_Node000010" class="edge">
<title>Node9&#45;&gt;Node10</title>
<g id="a_edge9_Node000009_Node000010"><a xlink:title=" ">
<path fill="none" stroke="#63b8ff" d="M728.48,-79.95C725.29,-79.14 722.11,-78.39 719,-77.75 558.07,-44.48 513.36,-67.14 351,-41.75 332.92,-38.92 313.05,-34.76 296.42,-30.98"/>
<polygon fill="#63b8ff" stroke="#63b8ff" points="727.27,-83.24 737.84,-82.53 729.13,-76.5 727.27,-83.24"/>
</a>
</g>
</g>
<!-- Node11 -->
<g id="Node000011" class="node">
<title>Node11</title>
<g id="a_Node000011"><a xlink:href="_constraint_dependency_graph_pass_8cpp.html" target="_top" xlink:title="This file implements the &#45;llzk&#45;print&#45;constraint&#45;dependency&#45;graphs pass.">
<polygon fill="white" stroke="#666666" points="528.5,-36.12 359.5,-36.12 359.5,-5.62 528.5,-5.62 528.5,-36.12"/>
<text text-anchor="start" x="367.5" y="-22.62" font-family="Helvetica,sans-Serif" font-size="10.00">lib/Analysis/ConstraintDependency</text>
<text text-anchor="middle" x="444" y="-11.38" font-family="Helvetica,sans-Serif" font-size="10.00">GraphPass.cpp</text>
</a>
</g>
</g>
<!-- Node9&#45;&gt;Node11 -->
<g id="edge10_Node000009_Node000011" class="edge">
<title>Node9&#45;&gt;Node11</title>
<g id="a_edge10_Node000009_Node000011"><a xlink:title=" ">
<path fill="none" stroke="#63b8ff" d="M726.31,-79.72C723.85,-79.03 721.4,-78.37 719,-77.75 639.6,-57.2 618.35,-58.23 538,-41.75 529.99,-40.11 521.61,-38.37 513.28,-36.62"/>
<polygon fill="#63b8ff" stroke="#63b8ff" points="725.12,-83.02 735.7,-82.46 727.08,-76.3 725.12,-83.02"/>
</a>
</g>
</g>
<!-- Node12 -->
<g id="Node000012" class="node">
<title>Node12</title>
<g id="a_Node000012"><a xlink:href="_interval_analysis_pass_8cpp.html" target="_top" xlink:title="This file implements the &#45;llzk&#45;print&#45;interval&#45;analysis pass.">
<polygon fill="white" stroke="#666666" points="685.5,-36.12 546.5,-36.12 546.5,-5.62 685.5,-5.62 685.5,-36.12"/>
<text text-anchor="start" x="554.5" y="-22.62" font-family="Helvetica,sans-Serif" font-size="10.00">lib/Analysis/IntervalAnalysis</text>
<text text-anchor="middle" x="616" y="-11.38" font-family="Helvetica,sans-Serif" font-size="10.00">Pass.cpp</text>
</a>
</g>
</g>
<!-- Node9&#45;&gt;Node12 -->
<g id="edge11_Node000009_Node000012" class="edge">
<title>Node9&#45;&gt;Node12</title>
<g id="a_edge11_Node000009_Node000012"><a xlink:title=" ">
<path fill="none" stroke="#63b8ff" d="M738.8,-78.25C710.52,-65.27 673.87,-48.44 648,-36.56"/>
<polygon fill="#63b8ff" stroke="#63b8ff" points="737.26,-81.4 747.81,-82.39 740.18,-75.04 737.26,-81.4"/>
</a>
</g>
</g>
<!-- Node13 -->
<g id="Node000013" class="node">
<title>Node13</title>
<g id="a_Node000013"><a xlink:href="llzk-opt_8cpp.html" target="_top" xlink:title="This file implements a version of the mlir&#45;opt tool configured for use on LLZK files.">
<polygon fill="white" stroke="#666666" points="966.75,-36.12 877.25,-36.12 877.25,-5.62 966.75,-5.62 966.75,-36.12"/>
<text text-anchor="start" x="885.25" y="-22.62" font-family="Helvetica,sans-Serif" font-size="10.00">tools/llzk&#45;opt/llzk</text>
<text text-anchor="middle" x="922" y="-11.38" font-family="Helvetica,sans-Serif" font-size="10.00">&#45;opt.cpp</text>
</a>
</g>
</g>
<!-- Node9&#45;&gt;Node13 -->
<g id="edge12_Node000009_Node000013" class="edge">
<title>Node9&#45;&gt;Node13</title>
<g id="a_edge12_Node000009_Node000013"><a xlink:title=" ">
<path fill="none" stroke="#63b8ff" d="M818.06,-77.72C842.17,-64.76 873.07,-48.16 894.9,-36.44"/>
<polygon fill="#63b8ff" stroke="#63b8ff" points="816.67,-74.49 809.52,-82.3 819.99,-80.65 816.67,-74.49"/>
</a>
</g>
</g>
<!-- Node14&#45;&gt;Node13 -->
<g id="edge15_Node000014_Node000013" class="edge">
<title>Node14&#45;&gt;Node13</title>
<g id="a_edge15_Node000014_Node000013"><a xlink:title=" ">
<path fill="none" stroke="#63b8ff" d="M1292.99,-77.36C1152.74,-55.29 1111.74,-73.87 976,-41.75 970.17,-40.37 964.1,-38.54 958.23,-36.56"/>
<polygon fill="#63b8ff" stroke="#63b8ff" points="1292.23,-80.78 1302.66,-78.93 1293.35,-73.87 1292.23,-80.78"/>
</a>
</g>
</g>
<!-- Node14&#45;&gt;Node15 -->
<g id="edge14_Node000014_Node000015" class="edge">
<title>Node14&#45;&gt;Node15</title>
<g id="a_edge14_Node000014_Node000015"><a xlink:title=" ">
<path fill="none" stroke="#63b8ff" d="M1478.95,-78.23C1479.97,-78.07 1480.99,-77.91 1482,-77.75 1634.78,-54.05 1675.8,-68.91 1828,-41.75 1835.98,-40.33 1844.35,-38.53 1852.52,-36.6"/>
<polygon fill="#63b8ff" stroke="#63b8ff" points="1478.63,-74.74 1469.35,-79.85 1479.8,-81.64 1478.63,-74.74"/>
</a>
</g>
</g>
<!-- Node16&#45;&gt;Node5 -->
<g id="edge17_Node000016_Node000005" class="edge">
<title>Node16&#45;&gt;Node5</title>
<g id="a_edge17_Node000016_Node000005"><a xlink:title=" ">
<path fill="none" stroke="#63b8ff" d="M532.52,-77.47C371.05,-53.21 325.67,-70.18 168,-41.75 165.08,-41.22 162.11,-40.64 159.12,-40.02"/>
<polygon fill="#63b8ff" stroke="#63b8ff" points="531.92,-80.92 542.34,-78.98 532.99,-74 531.92,-80.92"/>
</a>
</g>
</g>
<!-- Node16&#45;&gt;Node13 -->
<g id="edge18_Node000016_Node000013" class="edge">
<title>Node16&#45;&gt;Node13</title>
<g id="a_edge18_Node000016_Node000013"><a xlink:title=" ">
<path fill="none" stroke="#63b8ff" d="M721.33,-77.02C776.53,-64.71 840.61,-49.93 868,-41.75 873.17,-40.21 878.56,-38.43 883.85,-36.59"/>
<polygon fill="#63b8ff" stroke="#63b8ff" points="720.91,-73.53 711.9,-79.12 722.43,-80.36 720.91,-73.53"/>
</a>
</g>
</g>
<!-- Node17&#45;&gt;Node13 -->
<g id="edge21_Node000017_Node000013" class="edge">
<title>Node17&#45;&gt;Node13</title>
<g id="a_edge21_Node000017_Node000013"><a xlink:title=" ">
<path fill="none" stroke="#63b8ff" d="M917.33,-66.06C918.43,-55.69 919.59,-44.67 920.48,-36.23"/>
<polygon fill="#63b8ff" stroke="#63b8ff" points="913.87,-65.51 916.3,-75.82 920.83,-66.24 913.87,-65.51"/>
</a>
</g>
</g>
<!-- Node18 -->
<g id="Node000018" class="node">
<title>Node18</title>
<g id="a_Node000018"><a xlink:href="_flattening_pass_8cpp.html" target="_top" xlink:title="This file implements the &#45;llzk&#45;flatten pass.">
<polygon fill="white" stroke="#666666" points="858.75,-36.12 703.25,-36.12 703.25,-5.62 858.75,-5.62 858.75,-36.12"/>
<text text-anchor="start" x="711.25" y="-22.62" font-family="Helvetica,sans-Serif" font-size="10.00">lib/Dialect/Polymorphic</text>
<text text-anchor="middle" x="781" y="-11.38" font-family="Helvetica,sans-Serif" font-size="10.00">/Transforms/FlatteningPass.cpp</text>
</a>
</g>
</g>
<!-- Node17&#45;&gt;Node18 -->
<g id="edge20_Node000017_Node000018" class="edge">
<title>Node17&#45;&gt;Node18</title>
<g id="a_edge20_Node000017_Node000018"><a xlink:title=" ">
<path fill="none" stroke="#63b8ff" d="M868.49,-71.71C847.82,-59.93 824.13,-46.44 806.62,-36.46"/>
<polygon fill="#63b8ff" stroke="#63b8ff" points="866.62,-74.67 877.04,-76.58 870.09,-68.59 866.62,-74.67"/>
</a>
</g>
</g>
<!-- Node19&#45;&gt;Node13 -->
<g id="edge27_Node000019_Node000013" class="edge">
<title>Node19&#45;&gt;Node13</title>
<g id="a_edge27_Node000019_Node000013"><a xlink:title=" ">
<path fill="none" stroke="#63b8ff" d="M1030.74,-77.91C1005.64,-64.97 973.36,-48.34 950.51,-36.56"/>
<polygon fill="#63b8ff" stroke="#63b8ff" points="1028.82,-80.86 1039.31,-82.33 1032.03,-74.63 1028.82,-80.86"/>
</a>
</g>
</g>
<!-- Node20 -->
<g id="Node000020" class="node">
<title>Node20</title>
<g id="a_Node000020"><a xlink:href="_l_l_z_k_redundant_operation_elimination_pass_8cpp.html" target="_top" xlink:title="This file implements the &#45;llzk&#45;duplicate&#45;op&#45;elim pass.">
<polygon fill="white" stroke="#666666" points="1660.88,-36.12 1509.12,-36.12 1509.12,-5.62 1660.88,-5.62 1660.88,-36.12"/>
<text text-anchor="start" x="1517.12" y="-22.62" font-family="Helvetica,sans-Serif" font-size="10.00">lib/Transforms/LLZKRedundant</text>
<text text-anchor="middle" x="1585" y="-11.38" font-family="Helvetica,sans-Serif" font-size="10.00">OperationEliminationPass.cpp</text>
</a>
</g>
</g>
<!-- Node19&#45;&gt;Node20 -->
<g id="edge23_Node000019_Node000020" class="edge">
<title>Node19&#45;&gt;Node20</title>
<g id="a_edge23_Node000019_Node000020"><a xlink:title=" ">
<path fill="none" stroke="#63b8ff" d="M1137.01,-80.58C1142.06,-79.54 1147.1,-78.59 1152,-77.75 1305.28,-51.59 1346.66,-67.5 1500,-41.75 1508.67,-40.29 1517.77,-38.48 1526.67,-36.54"/>
<polygon fill="#63b8ff" stroke="#63b8ff" points="1136.47,-77.11 1127.43,-82.63 1137.94,-83.96 1136.47,-77.11"/>
</a>
</g>
</g>
<!-- Node21 -->
<g id="Node000021" class="node">
<title>Node21</title>
<g id="a_Node000021"><a xlink:href="_l_l_z_k_redundant_read_and_write_elimination_pass_8cpp.html" target="_top" xlink:title="This file implements the &#45;llzk&#45;duplicate&#45;read&#45;write&#45;elim pass.">
<polygon fill="white" stroke="#666666" points="1153.12,-36.12 984.88,-36.12 984.88,-5.62 1153.12,-5.62 1153.12,-36.12"/>
<text text-anchor="start" x="992.88" y="-22.62" font-family="Helvetica,sans-Serif" font-size="10.00">lib/Transforms/LLZKRedundant</text>
<text text-anchor="middle" x="1069" y="-11.38" font-family="Helvetica,sans-Serif" font-size="10.00">ReadAndWriteEliminationPass.cpp</text>
</a>
</g>
</g>
<!-- Node19&#45;&gt;Node21 -->
<g id="edge24_Node000019_Node000021" class="edge">
<title>Node19&#45;&gt;Node21</title>
<g id="a_edge24_Node000019_Node000021"><a xlink:title=" ">
<path fill="none" stroke="#63b8ff" d="M1069,-71.6C1069,-59.84 1069,-46.38 1069,-36.44"/>
<polygon fill="#63b8ff" stroke="#63b8ff" points="1065.5,-71.51 1069,-81.51 1072.5,-71.51 1065.5,-71.51"/>
</a>
</g>
</g>
<!-- Node22 -->
<g id="Node000022" class="node">
<title>Node22</title>
<g id="a_Node000022"><a xlink:href="_l_l_z_k_unused_declaration_elimination_pass_8cpp.html" target="_top" xlink:title="This file implements the &#45;llzk&#45;unused&#45;declaration&#45;elim pass.">
<polygon fill="white" stroke="#666666" points="1326.38,-36.12 1171.62,-36.12 1171.62,-5.62 1326.38,-5.62 1326.38,-36.12"/>
<text text-anchor="start" x="1179.62" y="-22.62" font-family="Helvetica,sans-Serif" font-size="10.00">lib/Transforms/LLZKUnused</text>
<text text-anchor="middle" x="1249" y="-11.38" font-family="Helvetica,sans-Serif" font-size="10.00">DeclarationEliminationPass.cpp</text>
</a>
</g>
</g>
<!-- Node19&#45;&gt;Node22 -->
<g id="edge25_Node000019_Node000022" class="edge">
<title>Node19&#45;&gt;Node22</title>
<g id="a_edge25_Node000019_Node000022"><a xlink:title=" ">
<path fill="none" stroke="#63b8ff" d="M1114.22,-78.59C1145.18,-65.57 1185.62,-48.55 1214.09,-36.56"/>
<polygon fill="#63b8ff" stroke="#63b8ff" points="1112.96,-75.33 1105.1,-82.43 1115.68,-81.78 1112.96,-75.33"/>
</a>
</g>
</g>
<!-- Node23 -->
<g id="Node000023" class="node">
<title>Node23</title>
<g id="a_Node000023"><a xlink:href="_transformation_pass_pipelines_8cpp.html" target="_top" xlink:title="This file implements logic for registering the &#45;llzk&#45;remove&#45;unnecessary&#45;ops and &#45;llzk&#45;remove&#45;unnecess...">
<polygon fill="white" stroke="#666666" points="1491.25,-36.12 1344.75,-36.12 1344.75,-5.62 1491.25,-5.62 1491.25,-36.12"/>
<text text-anchor="start" x="1352.75" y="-22.62" font-family="Helvetica,sans-Serif" font-size="10.00">lib/Transforms/Transformation</text>
<text text-anchor="middle" x="1418" y="-11.38" font-family="Helvetica,sans-Serif" font-size="10.00">PassPipelines.cpp</text>
</a>
</g>
</g>
<!-- Node19&#45;&gt;Node23 -->
<g id="edge26_Node000019_Node000023" class="edge">
<title>Node19&#45;&gt;Node23</title>
<g id="a_edge26_Node000019_Node000023"><a xlink:title=" ">
<path fill="none" stroke="#63b8ff" d="M1140.36,-80.34C1144.29,-79.45 1148.19,-78.58 1152,-77.75 1232.99,-60.09 1254.01,-59.41 1335,-41.75 1342.38,-40.14 1350.12,-38.38 1357.77,-36.6"/>
<polygon fill="#63b8ff" stroke="#63b8ff" points="1139.66,-76.91 1130.7,-82.56 1141.23,-83.73 1139.66,-76.91"/>
</a>
</g>
</g>
<!-- Node24&#45;&gt;Node13 -->
<g id="edge30_Node000024_Node000013" class="edge">
<title>Node24&#45;&gt;Node13</title>
<g id="a_edge30_Node000024_Node000013"><a xlink:title=" ">
<path fill="none" stroke="#63b8ff" d="M1161.57,-80.11C1158.34,-79.29 1155.13,-78.5 1152,-77.75 1074.36,-59.12 1052.79,-63.6 976,-41.75 970.72,-40.25 965.21,-38.47 959.82,-36.61"/>
<polygon fill="#63b8ff" stroke="#63b8ff" points="1160.56,-83.47 1171.12,-82.6 1162.32,-76.7 1160.56,-83.47"/>
</a>
</g>
</g>
<!-- Node25 -->
<g id="Node000025" class="node">
<title>Node25</title>
<g id="a_Node000025"><a xlink:href="_l_l_z_k_validation_passes_8cpp.html" target="_top" xlink:title="This file contains the implementation for the &#45;llzk&#45;validate&#45;field&#45;writes pass.">
<polygon fill="white" stroke="#666666" points="1818.88,-36.12 1679.12,-36.12 1679.12,-5.62 1818.88,-5.62 1818.88,-36.12"/>
<text text-anchor="start" x="1687.12" y="-22.62" font-family="Helvetica,sans-Serif" font-size="10.00">lib/Validators/LLZKValidation</text>
<text text-anchor="middle" x="1749" y="-11.38" font-family="Helvetica,sans-Serif" font-size="10.00">Passes.cpp</text>
</a>
</g>
</g>
<!-- Node24&#45;&gt;Node25 -->
<g id="edge29_Node000024_Node000025" class="edge">
<title>Node24&#45;&gt;Node25</title>
<g id="a_edge29_Node000024_Node000025"><a xlink:title=" ">
<path fill="none" stroke="#63b8ff" d="M1283.79,-80.28C1287.91,-79.34 1292,-78.49 1296,-77.75 1460.21,-47.42 1505.45,-70.2 1670,-41.75 1678.22,-40.33 1686.85,-38.51 1695.26,-36.54"/>
<polygon fill="#63b8ff" stroke="#63b8ff" points="1283.3,-76.8 1274.4,-82.54 1284.94,-83.6 1283.3,-76.8"/>
</a>
</g>
</g>
</g>
</svg>
