<?xml version="1.0" encoding="UTF-8" standalone="no"?>
<!DOCTYPE svg PUBLIC "-//W3C//DTD SVG 1.1//EN"
 "http://www.w3.org/Graphics/SVG/1.1/DTD/svg11.dtd">
<!-- Generated by graphviz version 12.2.1 (0)
 -->
<!-- Title: lib/Dialect/Include/IR/Ops.cpp Pages: 1 -->
<svg width="534pt" height="238pt"
 viewBox="0.00 0.00 534.38 238.00" xmlns="http://www.w3.org/2000/svg" xmlns:xlink="http://www.w3.org/1999/xlink">
<g id="graph0" class="graph" transform="scale(1 1) rotate(0) translate(4 234)">
<title>lib/Dialect/Include/IR/Ops.cpp</title>
<!-- Node1 -->
<g id="Node000001" class="node">
<title>Node1</title>
<g id="a_Node000001"><a xlink:title=" ">
<polygon fill="#999999" stroke="#666666" points="396.75,-230 302.75,-230 302.75,-199.5 396.75,-199.5 396.75,-230"/>
<text text-anchor="start" x="310.75" y="-216.5" font-family="Helvetica,sans-Serif" font-size="10.00">lib/Dialect/Include</text>
<text text-anchor="middle" x="349.75" y="-205.25" font-family="Helvetica,sans-Serif" font-size="10.00">/IR/Ops.cpp</text>
</a>
</g>
</g>
<!-- Node2 -->
<g id="Node000002" class="node">
<title>Node2</title>
<g id="a_Node000002"><a xlink:href="_include_2_i_r_2_ops_8h.html" target="_top" xlink:title=" ">
<polygon fill="white" stroke="#666666" points="272.38,-163.5 173.12,-163.5 173.12,-133 272.38,-133 272.38,-163.5"/>
<text text-anchor="start" x="181.12" y="-150" font-family="Helvetica,sans-Serif" font-size="10.00">llzk/Dialect/Include</text>
<text text-anchor="middle" x="222.75" y="-138.75" font-family="Helvetica,sans-Serif" font-size="10.00">/IR/Ops.h</text>
</a>
</g>
</g>
<!-- Node1&#45;&gt;Node2 -->
<g id="edge1_Node000001_Node000002" class="edge">
<title>Node1&#45;&gt;Node2</title>
<g id="a_edge1_Node000001_Node000002"><a xlink:title=" ">
<path fill="none" stroke="#63b8ff" d="M320.93,-199.11C303.39,-190.21 280.77,-178.72 261.66,-169.01"/>
<polygon fill="#63b8ff" stroke="#63b8ff" points="263.3,-165.92 252.8,-164.51 260.13,-172.16 263.3,-165.92"/>
</a>
</g>
</g>
<!-- Node7 -->
<g id="Node000007" class="node">
<title>Node7</title>
<g id="a_Node000007"><a xlink:href="_builder_helper_8h.html" target="_top" xlink:title=" ">
<polygon fill="white" stroke="#666666" points="408.75,-157.88 290.75,-157.88 290.75,-138.62 408.75,-138.62 408.75,-157.88"/>
<text text-anchor="middle" x="349.75" y="-144.38" font-family="Helvetica,sans-Serif" font-size="10.00">llzk/Util/BuilderHelper.h</text>
</a>
</g>
</g>
<!-- Node1&#45;&gt;Node7 -->
<g id="edge6_Node000001_Node000007" class="edge">
<title>Node1&#45;&gt;Node7</title>
<g id="a_edge6_Node000001_Node000007"><a xlink:title=" ">
<path fill="none" stroke="#63b8ff" d="M349.75,-199.11C349.75,-190.33 349.75,-179.02 349.75,-169.4"/>
<polygon fill="#63b8ff" stroke="#63b8ff" points="353.25,-169.59 349.75,-159.59 346.25,-169.59 353.25,-169.59"/>
</a>
</g>
</g>
<!-- Node10 -->
<g id="Node000010" class="node">
<title>Node10</title>
<g id="a_Node000010"><a xlink:href="_include_2_i_r_2_ops_8cpp_8inc.html" target="_top" xlink:title=" ">
<polygon fill="white" stroke="#666666" points="526.38,-163.5 427.12,-163.5 427.12,-133 526.38,-133 526.38,-163.5"/>
<text text-anchor="start" x="435.12" y="-150" font-family="Helvetica,sans-Serif" font-size="10.00">llzk/Dialect/Include</text>
<text text-anchor="middle" x="476.75" y="-138.75" font-family="Helvetica,sans-Serif" font-size="10.00">/IR/Ops.cpp.inc</text>
</a>
</g>
</g>
<!-- Node1&#45;&gt;Node10 -->
<g id="edge9_Node000001_Node000010" class="edge">
<title>Node1&#45;&gt;Node10</title>
<g id="a_edge9_Node000001_Node000010"><a xlink:title=" ">
<path fill="none" stroke="#63b8ff" d="M378.57,-199.11C396.11,-190.21 418.73,-178.72 437.84,-169.01"/>
<polygon fill="#63b8ff" stroke="#63b8ff" points="439.37,-172.16 446.7,-164.51 436.2,-165.92 439.37,-172.16"/>
</a>
</g>
</g>
<!-- Node3 -->
<g id="Node000003" class="node">
<title>Node3</title>
<g id="a_Node000003"><a xlink:href="_include_2_i_r_2_dialect_8h.html" target="_top" xlink:title=" ">
<polygon fill="white" stroke="#666666" points="159.38,-97 60.12,-97 60.12,-66.5 159.38,-66.5 159.38,-97"/>
<text text-anchor="start" x="68.12" y="-83.5" font-family="Helvetica,sans-Serif" font-size="10.00">llzk/Dialect/Include</text>
<text text-anchor="middle" x="109.75" y="-72.25" font-family="Helvetica,sans-Serif" font-size="10.00">/IR/Dialect.h</text>
</a>
</g>
</g>
<!-- Node2&#45;&gt;Node3 -->
<g id="edge2_Node000002_Node000003" class="edge">
<title>Node2&#45;&gt;Node3</title>
<g id="a_edge2_Node000002_Node000003"><a xlink:title=" ">
<path fill="none" stroke="#63b8ff" d="M197.11,-132.61C181.65,-123.79 161.74,-112.43 144.84,-102.78"/>
<polygon fill="#63b8ff" stroke="#63b8ff" points="147.02,-100 136.6,-98.08 143.55,-106.08 147.02,-100"/>
</a>
</g>
</g>
<!-- Node6 -->
<g id="Node000006" class="node">
<title>Node6</title>
<g id="a_Node000006"><a xlink:href="_include_2_i_r_2_ops_8h_8inc.html" target="_top" xlink:title=" ">
<polygon fill="white" stroke="#666666" points="276.38,-97 177.12,-97 177.12,-66.5 276.38,-66.5 276.38,-97"/>
<text text-anchor="start" x="185.12" y="-83.5" font-family="Helvetica,sans-Serif" font-size="10.00">llzk/Dialect/Include</text>
<text text-anchor="middle" x="226.75" y="-72.25" font-family="Helvetica,sans-Serif" font-size="10.00">/IR/Ops.h.inc</text>
</a>
</g>
</g>
<!-- Node2&#45;&gt;Node6 -->
<g id="edge5_Node000002_Node000006" class="edge">
<title>Node2&#45;&gt;Node6</title>
<g id="a_edge5_Node000002_Node000006"><a xlink:title=" ">
<path fill="none" stroke="#63b8ff" d="M223.66,-132.61C224.1,-125.52 224.64,-116.79 225.15,-108.63"/>
<polygon fill="#63b8ff" stroke="#63b8ff" points="228.63,-109.04 225.75,-98.84 221.64,-108.6 228.63,-109.04"/>
</a>
</g>
</g>
<!-- Node4 -->
<g id="Node000004" class="node">
<title>Node4</title>
<g id="a_Node000004"><a xlink:title=" ">
<polygon fill="#e0e0e0" stroke="#999999" points="101.5,-24.88 0,-24.88 0,-5.63 101.5,-5.63 101.5,-24.88"/>
<text text-anchor="middle" x="50.75" y="-11.38" font-family="Helvetica,sans-Serif" font-size="10.00">mlir/IR/BuiltinOps.h</text>
</a>
</g>
</g>
<!-- Node3&#45;&gt;Node4 -->
<g id="edge3_Node000003_Node000004" class="edge">
<title>Node3&#45;&gt;Node4</title>
<g id="a_edge3_Node000003_Node000004"><a xlink:title=" ">
<path fill="none" stroke="#63b8ff" d="M96.36,-66.11C87.51,-56.44 75.87,-43.71 66.56,-33.54"/>
<polygon fill="#63b8ff" stroke="#63b8ff" points="69.17,-31.21 59.84,-26.19 64.01,-35.93 69.17,-31.21"/>
</a>
</g>
</g>
<!-- Node5 -->
<g id="Node000005" class="node">
<title>Node5</title>
<g id="a_Node000005"><a xlink:href="_include_2_i_r_2_dialect_8h_8inc.html" target="_top" xlink:title=" ">
<polygon fill="white" stroke="#666666" points="218.38,-30.5 119.12,-30.5 119.12,0 218.38,0 218.38,-30.5"/>
<text text-anchor="start" x="127.12" y="-17" font-family="Helvetica,sans-Serif" font-size="10.00">llzk/Dialect/Include</text>
<text text-anchor="middle" x="168.75" y="-5.75" font-family="Helvetica,sans-Serif" font-size="10.00">/IR/Dialect.h.inc</text>
</a>
</g>
</g>
<!-- Node3&#45;&gt;Node5 -->
<g id="edge4_Node000003_Node000005" class="edge">
<title>Node3&#45;&gt;Node5</title>
<g id="a_edge4_Node000003_Node000005"><a xlink:title=" ">
<path fill="none" stroke="#63b8ff" d="M123.14,-66.11C130.38,-58.2 139.49,-48.24 147.66,-39.3"/>
<polygon fill="#63b8ff" stroke="#63b8ff" points="150.23,-41.69 154.39,-31.94 145.06,-36.96 150.23,-41.69"/>
</a>
</g>
</g>
<!-- Node8 -->
<g id="Node000008" class="node">
<title>Node8</title>
<g id="a_Node000008"><a xlink:title=" ">
<polygon fill="#e0e0e0" stroke="#999999" points="392.62,-91.38 300.88,-91.38 300.88,-72.12 392.62,-72.12 392.62,-91.38"/>
<text text-anchor="middle" x="346.75" y="-77.88" font-family="Helvetica,sans-Serif" font-size="10.00">mlir/IR/Builders.h</text>
</a>
</g>
</g>
<!-- Node7&#45;&gt;Node8 -->
<g id="edge7_Node000007_Node000008" class="edge">
<title>Node7&#45;&gt;Node8</title>
<g id="a_edge7_Node000007_Node000008"><a xlink:title=" ">
<path fill="none" stroke="#63b8ff" d="M349.33,-138.28C348.91,-129.23 348.25,-114.95 347.7,-103.13"/>
<polygon fill="#63b8ff" stroke="#63b8ff" points="351.19,-102.98 347.23,-93.15 344.2,-103.31 351.19,-102.98"/>
</a>
</g>
</g>
<!-- Node9 -->
<g id="Node000009" class="node">
<title>Node9</title>
<g id="a_Node000009"><a xlink:title=" ">
<polygon fill="#e0e0e0" stroke="#999999" points="504.38,-91.38 411.12,-91.38 411.12,-72.12 504.38,-72.12 504.38,-91.38"/>
<text text-anchor="middle" x="457.75" y="-77.88" font-family="Helvetica,sans-Serif" font-size="10.00">mlir/IR/Location.h</text>
</a>
</g>
</g>
<!-- Node7&#45;&gt;Node9 -->
<g id="edge8_Node000007_Node000009" class="edge">
<title>Node7&#45;&gt;Node9</title>
<g id="a_edge8_Node000007_Node000009"><a xlink:title=" ">
<path fill="none" stroke="#63b8ff" d="M364.77,-138.28C382.32,-127.8 411.64,-110.29 432.66,-97.73"/>
<polygon fill="#63b8ff" stroke="#63b8ff" points="434.42,-100.76 441.21,-92.63 430.83,-94.75 434.42,-100.76"/>
</a>
</g>
</g>
</g>
</svg>
