<?xml version="1.0" encoding="UTF-8" standalone="no"?>
<!DOCTYPE svg PUBLIC "-//W3C//DTD SVG 1.1//EN"
 "http://www.w3.org/Graphics/SVG/1.1/DTD/svg11.dtd">
<!-- Generated by graphviz version 12.2.1 (0)
 -->
<!-- Title: build/include/llzk/Dialect/Include/IR/Ops.h.inc Pages: 1 -->
<svg width="645pt" height="194pt"
 viewBox="0.00 0.00 645.00 194.00" xmlns="http://www.w3.org/2000/svg" xmlns:xlink="http://www.w3.org/1999/xlink">
<g id="graph0" class="graph" transform="scale(1 1) rotate(0) translate(4 190)">
<title>build/include/llzk/Dialect/Include/IR/Ops.h.inc</title>
<!-- Node1 -->
<g id="Node000001" class="node">
<title>Node1</title>
<g id="a_Node000001"><a xlink:title=" ">
<polygon fill="#999999" stroke="#666666" points="338.88,-186 241.12,-186 241.12,-144.25 338.88,-144.25 338.88,-186"/>
<text text-anchor="start" x="249.12" y="-172.5" font-family="Helvetica,sans-Serif" font-size="10.00">build/include/llzk</text>
<text text-anchor="start" x="249.12" y="-161.25" font-family="Helvetica,sans-Serif" font-size="10.00">/Dialect/Include/IR</text>
<text text-anchor="middle" x="290" y="-150" font-family="Helvetica,sans-Serif" font-size="10.00">/Ops.h.inc</text>
</a>
</g>
</g>
<!-- Node2 -->
<g id="Node000002" class="node">
<title>Node2</title>
<g id="a_Node000002"><a xlink:href="_include_2_i_r_2_ops_8h.html" target="_top" xlink:title=" ">
<polygon fill="white" stroke="#666666" points="339.25,-108.25 240.75,-108.25 240.75,-77.75 339.25,-77.75 339.25,-108.25"/>
<text text-anchor="start" x="248.75" y="-94.75" font-family="Helvetica,sans-Serif" font-size="10.00">include/llzk/Dialect</text>
<text text-anchor="middle" x="290" y="-83.5" font-family="Helvetica,sans-Serif" font-size="10.00">/Include/IR/Ops.h</text>
</a>
</g>
</g>
<!-- Node1&#45;&gt;Node2 -->
<g id="edge1_Node000001_Node000002" class="edge">
<title>Node1&#45;&gt;Node2</title>
<g id="a_edge1_Node000001_Node000002"><a xlink:title=" ">
<path fill="none" stroke="#63b8ff" d="M290,-132.38C290,-124.02 290,-115.4 290,-108.45"/>
<polygon fill="#63b8ff" stroke="#63b8ff" points="286.5,-132.33 290,-142.33 293.5,-132.33 286.5,-132.33"/>
</a>
</g>
</g>
<!-- Node3 -->
<g id="Node000003" class="node">
<title>Node3</title>
<g id="a_Node000003"><a xlink:href="_include_2_i_r_2_dialect_8cpp.html" target="_top" xlink:title=" ">
<polygon fill="white" stroke="#666666" points="94,-36.12 0,-36.12 0,-5.62 94,-5.62 94,-36.12"/>
<text text-anchor="start" x="8" y="-22.62" font-family="Helvetica,sans-Serif" font-size="10.00">lib/Dialect/Include</text>
<text text-anchor="middle" x="47" y="-11.38" font-family="Helvetica,sans-Serif" font-size="10.00">/IR/Dialect.cpp</text>
</a>
</g>
</g>
<!-- Node2&#45;&gt;Node3 -->
<g id="edge2_Node000002_Node000003" class="edge">
<title>Node2&#45;&gt;Node3</title>
<g id="a_edge2_Node000002_Node000003"><a xlink:title=" ">
<path fill="none" stroke="#63b8ff" d="M229.44,-77.01C192.66,-67.59 144.89,-54.79 103,-41.75 97.88,-40.16 92.53,-38.39 87.25,-36.59"/>
<polygon fill="#63b8ff" stroke="#63b8ff" points="228.46,-80.37 239.01,-79.45 230.19,-73.59 228.46,-80.37"/>
</a>
</g>
</g>
<!-- Node4 -->
<g id="Node000004" class="node">
<title>Node4</title>
<g id="a_Node000004"><a xlink:href="_include_2_i_r_2_ops_8cpp.html" target="_top" xlink:title=" ">
<polygon fill="white" stroke="#666666" points="206,-36.12 112,-36.12 112,-5.62 206,-5.62 206,-36.12"/>
<text text-anchor="start" x="120" y="-22.62" font-family="Helvetica,sans-Serif" font-size="10.00">lib/Dialect/Include</text>
<text text-anchor="middle" x="159" y="-11.38" font-family="Helvetica,sans-Serif" font-size="10.00">/IR/Ops.cpp</text>
</a>
</g>
</g>
<!-- Node2&#45;&gt;Node4 -->
<g id="edge3_Node000002_Node000004" class="edge">
<title>Node2&#45;&gt;Node4</title>
<g id="a_edge3_Node000002_Node000004"><a xlink:title=" ">
<path fill="none" stroke="#63b8ff" d="M252.62,-71.99C231.53,-60.7 205.63,-46.84 186.43,-36.56"/>
<polygon fill="#63b8ff" stroke="#63b8ff" points="250.74,-74.95 261.2,-76.59 254.04,-68.78 250.74,-74.95"/>
</a>
</g>
</g>
<!-- Node5 -->
<g id="Node000005" class="node">
<title>Node5</title>
<g id="a_Node000005"><a xlink:href="_inline_includes_pass_8cpp.html" target="_top" xlink:title="This file implements the &#45;llzk&#45;inline&#45;includes pass.">
<polygon fill="white" stroke="#666666" points="355.75,-41.75 224.25,-41.75 224.25,0 355.75,0 355.75,-41.75"/>
<text text-anchor="start" x="232.25" y="-28.25" font-family="Helvetica,sans-Serif" font-size="10.00">lib/Dialect/Include</text>
<text text-anchor="start" x="232.25" y="-17" font-family="Helvetica,sans-Serif" font-size="10.00">/Transforms/InlineIncludes</text>
<text text-anchor="middle" x="290" y="-5.75" font-family="Helvetica,sans-Serif" font-size="10.00">Pass.cpp</text>
</a>
</g>
</g>
<!-- Node2&#45;&gt;Node5 -->
<g id="edge4_Node000002_Node000005" class="edge">
<title>Node2&#45;&gt;Node5</title>
<g id="a_edge4_Node000002_Node000005"><a xlink:title=" ">
<path fill="none" stroke="#63b8ff" d="M290,-66.22C290,-58.31 290,-49.73 290,-42.24"/>
<polygon fill="#63b8ff" stroke="#63b8ff" points="286.5,-65.96 290,-75.96 293.5,-65.96 286.5,-65.96"/>
</a>
</g>
</g>
<!-- Node6 -->
<g id="Node000006" class="node">
<title>Node6</title>
<g id="a_Node000006"><a xlink:href="_include_helper_8cpp.html" target="_top" xlink:title="This file contains the implementation for file include helpers.">
<polygon fill="white" stroke="#666666" points="488.5,-36.12 373.5,-36.12 373.5,-5.62 488.5,-5.62 488.5,-36.12"/>
<text text-anchor="start" x="381.5" y="-22.62" font-family="Helvetica,sans-Serif" font-size="10.00">lib/Dialect/Include</text>
<text text-anchor="middle" x="431" y="-11.38" font-family="Helvetica,sans-Serif" font-size="10.00">/Util/IncludeHelper.cpp</text>
</a>
</g>
</g>
<!-- Node2&#45;&gt;Node6 -->
<g id="edge5_Node000002_Node000006" class="edge">
<title>Node2&#45;&gt;Node6</title>
<g id="a_edge5_Node000002_Node000006"><a xlink:title=" ">
<path fill="none" stroke="#63b8ff" d="M329.62,-72.3C352.43,-60.95 380.62,-46.93 401.48,-36.56"/>
<polygon fill="#63b8ff" stroke="#63b8ff" points="328.31,-69.04 320.91,-76.63 331.43,-75.31 328.31,-69.04"/>
</a>
</g>
</g>
<!-- Node7 -->
<g id="Node000007" class="node">
<title>Node7</title>
<g id="a_Node000007"><a xlink:href="_symbol_lookup_8cpp.html" target="_top" xlink:title="This file contains the implementations for symbol lookup helper functions.">
<polygon fill="white" stroke="#666666" points="637,-30.5 507,-30.5 507,-11.25 637,-11.25 637,-30.5"/>
<text text-anchor="middle" x="572" y="-17" font-family="Helvetica,sans-Serif" font-size="10.00">lib/Util/SymbolLookup.cpp</text>
</a>
</g>
</g>
<!-- Node2&#45;&gt;Node7 -->
<g id="edge6_Node000002_Node000007" class="edge">
<title>Node2&#45;&gt;Node7</title>
<g id="a_edge6_Node000002_Node000007"><a xlink:title=" ">
<path fill="none" stroke="#63b8ff" d="M350.71,-77.76C392.25,-67.91 448.54,-54.36 498,-41.75 511.41,-38.33 526.13,-34.41 538.89,-30.96"/>
<polygon fill="#63b8ff" stroke="#63b8ff" points="350.08,-74.31 341.15,-80.02 351.69,-81.13 350.08,-74.31"/>
</a>
</g>
</g>
</g>
</svg>
