<?xml version="1.0" encoding="UTF-8" standalone="no"?>
<!DOCTYPE svg PUBLIC "-//W3C//DTD SVG 1.1//EN"
 "http://www.w3.org/Graphics/SVG/1.1/DTD/svg11.dtd">
<!-- Generated by graphviz version 12.2.1 (0)
 -->
<!-- Title: lib/Dialect/InitDialects.cpp Pages: 1 -->
<svg width="2105pt" height="160pt"
 viewBox="0.00 0.00 2104.62 160.25" xmlns="http://www.w3.org/2000/svg" xmlns:xlink="http://www.w3.org/1999/xlink">
<g id="graph0" class="graph" transform="scale(1 1) rotate(0) translate(4 156.25)">
<title>lib/Dialect/InitDialects.cpp</title>
<!-- Node1 -->
<g id="Node000001" class="node">
<title>Node1</title>
<g id="a_Node000001"><a xlink:title=" ">
<polygon fill="#999999" stroke="#666666" points="1144.75,-152.25 1014,-152.25 1014,-133 1144.75,-133 1144.75,-152.25"/>
<text text-anchor="middle" x="1079.38" y="-138.75" font-family="Helvetica,sans-Serif" font-size="10.00">lib/Dialect/InitDialects.cpp</text>
</a>
</g>
</g>
<!-- Node2 -->
<g id="Node000002" class="node">
<title>Node2</title>
<g id="a_Node000002"><a xlink:href="_array_2_i_r_2_dialect_8h.html" target="_top" xlink:title=" ">
<polygon fill="white" stroke="#666666" points="1585.88,-97 1494.88,-97 1494.88,-66.5 1585.88,-66.5 1585.88,-97"/>
<text text-anchor="start" x="1502.88" y="-83.5" font-family="Helvetica,sans-Serif" font-size="10.00">llzk/Dialect/Array</text>
<text text-anchor="middle" x="1540.38" y="-72.25" font-family="Helvetica,sans-Serif" font-size="10.00">/IR/Dialect.h</text>
</a>
</g>
</g>
<!-- Node1&#45;&gt;Node2 -->
<g id="edge1_Node000001_Node000002" class="edge">
<title>Node1&#45;&gt;Node2</title>
<g id="a_edge1_Node000001_Node000002"><a xlink:title=" ">
<path fill="none" stroke="#63b8ff" d="M1145.19,-137.32C1223.49,-131.55 1358.27,-119.55 1483.28,-97.2"/>
<polygon fill="#63b8ff" stroke="#63b8ff" points="1483.87,-100.65 1493.08,-95.42 1482.62,-93.76 1483.87,-100.65"/>
</a>
</g>
</g>
<!-- Node5 -->
<g id="Node000005" class="node">
<title>Node5</title>
<g id="a_Node000005"><a xlink:href="_bool_2_i_r_2_dialect_8h.html" target="_top" xlink:title=" ">
<polygon fill="white" stroke="#666666" points="159.75,-97 59,-97 59,-66.5 159.75,-66.5 159.75,-97"/>
<text text-anchor="start" x="67" y="-83.5" font-family="Helvetica,sans-Serif" font-size="10.00">llzk/Dialect/Bool/IR</text>
<text text-anchor="middle" x="109.38" y="-72.25" font-family="Helvetica,sans-Serif" font-size="10.00">/Dialect.h</text>
</a>
</g>
</g>
<!-- Node1&#45;&gt;Node5 -->
<g id="edge4_Node000001_Node000005" class="edge">
<title>Node1&#45;&gt;Node5</title>
<g id="a_edge4_Node000001_Node000005"><a xlink:title=" ">
<path fill="none" stroke="#63b8ff" d="M1013.55,-139.97C836.78,-135.29 353.41,-120.8 171.28,-97.01"/>
<polygon fill="#63b8ff" stroke="#63b8ff" points="171.87,-93.55 161.49,-95.67 170.92,-100.49 171.87,-93.55"/>
</a>
</g>
</g>
<!-- Node7 -->
<g id="Node000007" class="node">
<title>Node7</title>
<g id="a_Node000007"><a xlink:href="_cast_2_i_r_2_dialect_8h.html" target="_top" xlink:title=" ">
<polygon fill="white" stroke="#666666" points="280.5,-97 178.25,-97 178.25,-66.5 280.5,-66.5 280.5,-97"/>
<text text-anchor="start" x="186.25" y="-83.5" font-family="Helvetica,sans-Serif" font-size="10.00">llzk/Dialect/Cast/IR</text>
<text text-anchor="middle" x="229.38" y="-72.25" font-family="Helvetica,sans-Serif" font-size="10.00">/Dialect.h</text>
</a>
</g>
</g>
<!-- Node1&#45;&gt;Node7 -->
<g id="edge7_Node000001_Node000007" class="edge">
<title>Node1&#45;&gt;Node7</title>
<g id="a_edge7_Node000001_Node000007"><a xlink:title=" ">
<path fill="none" stroke="#63b8ff" d="M1013.7,-141.82C879.62,-141.38 564.74,-136.03 292.28,-97.25"/>
<polygon fill="#63b8ff" stroke="#63b8ff" points="292.87,-93.8 282.47,-95.83 291.87,-100.73 292.87,-93.8"/>
</a>
</g>
</g>
<!-- Node9 -->
<g id="Node000009" class="node">
<title>Node9</title>
<g id="a_Node000009"><a xlink:href="_constrain_2_i_r_2_dialect_8h.html" target="_top" xlink:title=" ">
<polygon fill="white" stroke="#666666" points="408.25,-97 298.5,-97 298.5,-66.5 408.25,-66.5 408.25,-97"/>
<text text-anchor="start" x="306.5" y="-83.5" font-family="Helvetica,sans-Serif" font-size="10.00">llzk/Dialect/Constrain</text>
<text text-anchor="middle" x="353.38" y="-72.25" font-family="Helvetica,sans-Serif" font-size="10.00">/IR/Dialect.h</text>
</a>
</g>
</g>
<!-- Node1&#45;&gt;Node9 -->
<g id="edge10_Node000001_Node000009" class="edge">
<title>Node1&#45;&gt;Node9</title>
<g id="a_edge10_Node000001_Node000009"><a xlink:title=" ">
<path fill="none" stroke="#63b8ff" d="M1013.73,-140.5C896.39,-137.76 642.88,-128.59 419.71,-97.18"/>
<polygon fill="#63b8ff" stroke="#63b8ff" points="420.33,-93.73 409.93,-95.78 419.34,-100.66 420.33,-93.73"/>
</a>
</g>
</g>
<!-- Node11 -->
<g id="Node000011" class="node">
<title>Node11</title>
<g id="a_Node000011"><a xlink:href="_felt_2_i_r_2_dialect_8h.html" target="_top" xlink:title=" ">
<polygon fill="white" stroke="#666666" points="524.25,-97 426.5,-97 426.5,-66.5 524.25,-66.5 524.25,-97"/>
<text text-anchor="start" x="434.5" y="-83.5" font-family="Helvetica,sans-Serif" font-size="10.00">llzk/Dialect/Felt/IR</text>
<text text-anchor="middle" x="475.38" y="-72.25" font-family="Helvetica,sans-Serif" font-size="10.00">/Dialect.h</text>
</a>
</g>
</g>
<!-- Node1&#45;&gt;Node11 -->
<g id="edge13_Node000001_Node000011" class="edge">
<title>Node1&#45;&gt;Node11</title>
<g id="a_edge13_Node000001_Node000011"><a xlink:title=" ">
<path fill="none" stroke="#63b8ff" d="M1013.83,-139.64C913.03,-135.85 713.79,-125.42 535.78,-97.21"/>
<polygon fill="#63b8ff" stroke="#63b8ff" points="536.55,-93.79 526.12,-95.66 535.44,-100.7 536.55,-93.79"/>
</a>
</g>
</g>
<!-- Node13 -->
<g id="Node000013" class="node">
<title>Node13</title>
<g id="a_Node000013"><a xlink:href="_function_2_i_r_2_dialect_8h.html" target="_top" xlink:title=" ">
<polygon fill="white" stroke="#666666" points="648,-97 542.75,-97 542.75,-66.5 648,-66.5 648,-97"/>
<text text-anchor="start" x="550.75" y="-83.5" font-family="Helvetica,sans-Serif" font-size="10.00">llzk/Dialect/Function</text>
<text text-anchor="middle" x="595.38" y="-72.25" font-family="Helvetica,sans-Serif" font-size="10.00">/IR/Dialect.h</text>
</a>
</g>
</g>
<!-- Node1&#45;&gt;Node13 -->
<g id="edge16_Node000001_Node000013" class="edge">
<title>Node1&#45;&gt;Node13</title>
<g id="a_edge16_Node000001_Node000013"><a xlink:title=" ">
<path fill="none" stroke="#63b8ff" d="M1013.81,-137.25C932.65,-131.27 790.05,-118.91 659.2,-97.35"/>
<polygon fill="#63b8ff" stroke="#63b8ff" points="660.13,-93.96 649.69,-95.76 658.97,-100.86 660.13,-93.96"/>
</a>
</g>
</g>
<!-- Node15 -->
<g id="Node000015" class="node">
<title>Node15</title>
<g id="a_Node000015"><a xlink:href="_global_2_i_r_2_dialect_8h.html" target="_top" xlink:title=" ">
<polygon fill="white" stroke="#666666" points="761.12,-97 665.62,-97 665.62,-66.5 761.12,-66.5 761.12,-97"/>
<text text-anchor="start" x="673.62" y="-83.5" font-family="Helvetica,sans-Serif" font-size="10.00">llzk/Dialect/Global</text>
<text text-anchor="middle" x="713.38" y="-72.25" font-family="Helvetica,sans-Serif" font-size="10.00">/IR/Dialect.h</text>
</a>
</g>
</g>
<!-- Node1&#45;&gt;Node15 -->
<g id="edge19_Node000001_Node000015" class="edge">
<title>Node1&#45;&gt;Node15</title>
<g id="a_edge19_Node000001_Node000015"><a xlink:title=" ">
<path fill="none" stroke="#63b8ff" d="M1013.72,-134.23C953.31,-126.96 861.06,-114.69 772.86,-97.58"/>
<polygon fill="#63b8ff" stroke="#63b8ff" points="773.54,-94.15 763.05,-95.65 772.19,-101.02 773.54,-94.15"/>
</a>
</g>
</g>
<!-- Node17 -->
<g id="Node000017" class="node">
<title>Node17</title>
<g id="a_Node000017"><a xlink:href="_include_2_i_r_2_dialect_8h.html" target="_top" xlink:title=" ">
<polygon fill="white" stroke="#666666" points="878,-97 778.75,-97 778.75,-66.5 878,-66.5 878,-97"/>
<text text-anchor="start" x="786.75" y="-83.5" font-family="Helvetica,sans-Serif" font-size="10.00">llzk/Dialect/Include</text>
<text text-anchor="middle" x="828.38" y="-72.25" font-family="Helvetica,sans-Serif" font-size="10.00">/IR/Dialect.h</text>
</a>
</g>
</g>
<!-- Node1&#45;&gt;Node17 -->
<g id="edge22_Node000001_Node000017" class="edge">
<title>Node1&#45;&gt;Node17</title>
<g id="a_edge22_Node000001_Node000017"><a xlink:title=" ">
<path fill="none" stroke="#63b8ff" d="M1040.01,-132.58C1003.45,-124.16 947.23,-111.14 889.13,-97.4"/>
<polygon fill="#63b8ff" stroke="#63b8ff" points="890.27,-94.08 879.73,-95.18 888.66,-100.89 890.27,-94.08"/>
</a>
</g>
</g>
<!-- Node19 -->
<g id="Node000019" class="node">
<title>Node19</title>
<g id="a_Node000019"><a xlink:href="_init_dialects_8h.html" target="_top" xlink:title="This file defines llzk::registerAllDialects.">
<polygon fill="white" stroke="#666666" points="1729.12,-91.38 1603.62,-91.38 1603.62,-72.12 1729.12,-72.12 1729.12,-91.38"/>
<text text-anchor="middle" x="1666.38" y="-77.88" font-family="Helvetica,sans-Serif" font-size="10.00">llzk/Dialect/InitDialects.h</text>
</a>
</g>
</g>
<!-- Node1&#45;&gt;Node19 -->
<g id="edge25_Node000001_Node000019" class="edge">
<title>Node1&#45;&gt;Node19</title>
<g id="a_edge25_Node000001_Node000019"><a xlink:title=" ">
<path fill="none" stroke="#63b8ff" d="M1145.21,-138.29C1243.56,-132.78 1434.49,-120.03 1595.38,-97 1601.44,-96.13 1607.77,-95.08 1614.05,-93.94"/>
<polygon fill="#63b8ff" stroke="#63b8ff" points="1614.55,-97.41 1623.72,-92.1 1613.25,-90.53 1614.55,-97.41"/>
</a>
</g>
</g>
<!-- Node20 -->
<g id="Node000020" class="node">
<title>Node20</title>
<g id="a_Node000020"><a xlink:href="_l_l_z_k_2_i_r_2_dialect_8h.html" target="_top" xlink:title=" ">
<polygon fill="white" stroke="#666666" points="1000.62,-97 896.12,-97 896.12,-66.5 1000.62,-66.5 1000.62,-97"/>
<text text-anchor="start" x="904.12" y="-83.5" font-family="Helvetica,sans-Serif" font-size="10.00">llzk/Dialect/LLZK/IR</text>
<text text-anchor="middle" x="948.38" y="-72.25" font-family="Helvetica,sans-Serif" font-size="10.00">/Dialect.h</text>
</a>
</g>
</g>
<!-- Node1&#45;&gt;Node20 -->
<g id="edge26_Node000001_Node000020" class="edge">
<title>Node1&#45;&gt;Node20</title>
<g id="a_edge26_Node000001_Node000020"><a xlink:title=" ">
<path fill="none" stroke="#63b8ff" d="M1059.19,-132.55C1041.23,-124.48 1014.33,-112.39 991.54,-102.15"/>
<polygon fill="#63b8ff" stroke="#63b8ff" points="993.01,-98.97 982.45,-98.07 990.14,-105.36 993.01,-98.97"/>
</a>
</g>
</g>
<!-- Node22 -->
<g id="Node000022" class="node">
<title>Node22</title>
<g id="a_Node000022"><a xlink:href="_polymorphic_2_i_r_2_dialect_8h.html" target="_top" xlink:title=" ">
<polygon fill="white" stroke="#666666" points="1140.25,-97 1018.5,-97 1018.5,-66.5 1140.25,-66.5 1140.25,-97"/>
<text text-anchor="start" x="1026.5" y="-83.5" font-family="Helvetica,sans-Serif" font-size="10.00">llzk/Dialect/Polymorphic</text>
<text text-anchor="middle" x="1079.38" y="-72.25" font-family="Helvetica,sans-Serif" font-size="10.00">/IR/Dialect.h</text>
</a>
</g>
</g>
<!-- Node1&#45;&gt;Node22 -->
<g id="edge29_Node000001_Node000022" class="edge">
<title>Node1&#45;&gt;Node22</title>
<g id="a_edge29_Node000001_Node000022"><a xlink:title=" ">
<path fill="none" stroke="#63b8ff" d="M1079.38,-132.68C1079.38,-126.23 1079.38,-117.16 1079.38,-108.51"/>
<polygon fill="#63b8ff" stroke="#63b8ff" points="1082.88,-108.8 1079.38,-98.8 1075.88,-108.8 1082.88,-108.8"/>
</a>
</g>
</g>
<!-- Node24 -->
<g id="Node000024" class="node">
<title>Node24</title>
<g id="a_Node000024"><a xlink:href="_string_2_i_r_2_dialect_8h.html" target="_top" xlink:title=" ">
<polygon fill="white" stroke="#666666" points="1252,-97 1158.75,-97 1158.75,-66.5 1252,-66.5 1252,-97"/>
<text text-anchor="start" x="1166.75" y="-83.5" font-family="Helvetica,sans-Serif" font-size="10.00">llzk/Dialect/String</text>
<text text-anchor="middle" x="1205.38" y="-72.25" font-family="Helvetica,sans-Serif" font-size="10.00">/IR/Dialect.h</text>
</a>
</g>
</g>
<!-- Node1&#45;&gt;Node24 -->
<g id="edge32_Node000001_Node000024" class="edge">
<title>Node1&#45;&gt;Node24</title>
<g id="a_edge32_Node000001_Node000024"><a xlink:title=" ">
<path fill="none" stroke="#63b8ff" d="M1098.79,-132.55C1115.99,-124.52 1141.7,-112.5 1163.56,-102.29"/>
<polygon fill="#63b8ff" stroke="#63b8ff" points="1164.98,-105.49 1172.56,-98.09 1162.01,-99.15 1164.98,-105.49"/>
</a>
</g>
</g>
<!-- Node26 -->
<g id="Node000026" class="node">
<title>Node26</title>
<g id="a_Node000026"><a xlink:href="_struct_2_i_r_2_dialect_8h.html" target="_top" xlink:title=" ">
<polygon fill="white" stroke="#666666" points="1364.38,-97 1270.38,-97 1270.38,-66.5 1364.38,-66.5 1364.38,-97"/>
<text text-anchor="start" x="1278.38" y="-83.5" font-family="Helvetica,sans-Serif" font-size="10.00">llzk/Dialect/Struct</text>
<text text-anchor="middle" x="1317.38" y="-72.25" font-family="Helvetica,sans-Serif" font-size="10.00">/IR/Dialect.h</text>
</a>
</g>
</g>
<!-- Node1&#45;&gt;Node26 -->
<g id="edge35_Node000001_Node000026" class="edge">
<title>Node1&#45;&gt;Node26</title>
<g id="a_edge35_Node000001_Node000026"><a xlink:title=" ">
<path fill="none" stroke="#63b8ff" d="M1116.7,-132.58C1151.2,-124.19 1204.2,-111.24 1259.04,-97.57"/>
<polygon fill="#63b8ff" stroke="#63b8ff" points="1259.7,-101.01 1268.56,-95.2 1258.01,-94.22 1259.7,-101.01"/>
</a>
</g>
</g>
<!-- Node28 -->
<g id="Node000028" class="node">
<title>Node28</title>
<g id="a_Node000028"><a xlink:href="_undef_2_i_r_2_dialect_8h.html" target="_top" xlink:title=" ">
<polygon fill="white" stroke="#666666" points="1476.38,-97 1382.38,-97 1382.38,-66.5 1476.38,-66.5 1476.38,-97"/>
<text text-anchor="start" x="1390.38" y="-83.5" font-family="Helvetica,sans-Serif" font-size="10.00">llzk/Dialect/Undef</text>
<text text-anchor="middle" x="1429.38" y="-72.25" font-family="Helvetica,sans-Serif" font-size="10.00">/IR/Dialect.h</text>
</a>
</g>
</g>
<!-- Node1&#45;&gt;Node28 -->
<g id="edge38_Node000001_Node000028" class="edge">
<title>Node1&#45;&gt;Node28</title>
<g id="a_edge38_Node000001_Node000028"><a xlink:title=" ">
<path fill="none" stroke="#63b8ff" d="M1145.09,-133.54C1202.32,-126.07 1287.73,-113.89 1370.91,-97.38"/>
<polygon fill="#63b8ff" stroke="#63b8ff" points="1371.5,-100.83 1380.61,-95.43 1370.12,-93.97 1371.5,-100.83"/>
</a>
</g>
</g>
<!-- Node30 -->
<g id="Node000030" class="node">
<title>Node30</title>
<g id="a_Node000030"><a xlink:title=" ">
<polygon fill="#e0e0e0" stroke="#999999" points="1835.75,-97 1747,-97 1747,-66.5 1835.75,-66.5 1835.75,-97"/>
<text text-anchor="start" x="1755" y="-83.5" font-family="Helvetica,sans-Serif" font-size="10.00">mlir/Dialect/Arith</text>
<text text-anchor="middle" x="1791.38" y="-72.25" font-family="Helvetica,sans-Serif" font-size="10.00">/IR/Arith.h</text>
</a>
</g>
</g>
<!-- Node1&#45;&gt;Node30 -->
<g id="edge41_Node000001_Node000030" class="edge">
<title>Node1&#45;&gt;Node30</title>
<g id="a_edge41_Node000001_Node000030"><a xlink:title=" ">
<path fill="none" stroke="#63b8ff" d="M1144.87,-141.4C1261.9,-140.09 1514.61,-133.1 1735.53,-97.26"/>
<polygon fill="#63b8ff" stroke="#63b8ff" points="1735.9,-100.75 1745.2,-95.67 1734.76,-93.84 1735.9,-100.75"/>
</a>
</g>
</g>
<!-- Node31 -->
<g id="Node000031" class="node">
<title>Node31</title>
<g id="a_Node000031"><a xlink:title=" ">
<polygon fill="#e0e0e0" stroke="#999999" points="1956.5,-97 1854.25,-97 1854.25,-66.5 1956.5,-66.5 1956.5,-97"/>
<text text-anchor="start" x="1862.25" y="-83.5" font-family="Helvetica,sans-Serif" font-size="10.00">mlir/Dialect/SCF/IR</text>
<text text-anchor="middle" x="1905.38" y="-72.25" font-family="Helvetica,sans-Serif" font-size="10.00">/SCF.h</text>
</a>
</g>
</g>
<!-- Node1&#45;&gt;Node31 -->
<g id="edge42_Node000001_Node000031" class="edge">
<title>Node1&#45;&gt;Node31</title>
<g id="a_edge42_Node000001_Node000031"><a xlink:title=" ">
<path fill="none" stroke="#63b8ff" d="M1145.25,-141.57C1276.27,-140.63 1578.9,-134.38 1842.57,-97.05"/>
<polygon fill="#63b8ff" stroke="#63b8ff" points="1843.01,-100.53 1852.41,-95.64 1842.01,-93.6 1843.01,-100.53"/>
</a>
</g>
</g>
<!-- Node32 -->
<g id="Node000032" class="node">
<title>Node32</title>
<g id="a_Node000032"><a xlink:title=" ">
<polygon fill="#e0e0e0" stroke="#999999" points="2096.62,-91.38 1974.12,-91.38 1974.12,-72.12 2096.62,-72.12 2096.62,-91.38"/>
<text text-anchor="middle" x="2035.38" y="-77.88" font-family="Helvetica,sans-Serif" font-size="10.00">mlir/IR/DialectRegistry.h</text>
</a>
</g>
</g>
<!-- Node1&#45;&gt;Node32 -->
<g id="edge43_Node000001_Node000032" class="edge">
<title>Node1&#45;&gt;Node32</title>
<g id="a_edge43_Node000001_Node000032"><a xlink:title=" ">
<path fill="none" stroke="#63b8ff" d="M1144.97,-141.69C1292.29,-141.09 1660.34,-135.51 1965.38,-97 1971.76,-96.19 1978.43,-95.13 1985.01,-93.94"/>
<polygon fill="#63b8ff" stroke="#63b8ff" points="1985.28,-97.46 1994.45,-92.14 1983.97,-90.58 1985.28,-97.46"/>
</a>
</g>
</g>
<!-- Node3 -->
<g id="Node000003" class="node">
<title>Node3</title>
<g id="a_Node000003"><a xlink:title=" ">
<polygon fill="#e0e0e0" stroke="#999999" points="822.12,-24.88 720.62,-24.88 720.62,-5.63 822.12,-5.63 822.12,-24.88"/>
<text text-anchor="middle" x="771.38" y="-11.38" font-family="Helvetica,sans-Serif" font-size="10.00">mlir/IR/BuiltinOps.h</text>
</a>
</g>
</g>
<!-- Node2&#45;&gt;Node3 -->
<g id="edge2_Node000002_Node000003" class="edge">
<title>Node2&#45;&gt;Node3</title>
<g id="a_edge2_Node000002_Node000003"><a xlink:title=" ">
<path fill="none" stroke="#63b8ff" d="M1494.6,-68.16C1491.49,-67.53 1488.4,-66.97 1485.38,-66.5 1197.28,-21.72 1118.83,-72.9 830.38,-30.5 825.43,-29.77 820.3,-28.83 815.21,-27.77"/>
<polygon fill="#63b8ff" stroke="#63b8ff" points="816.24,-24.41 805.72,-25.64 814.71,-31.24 816.24,-24.41"/>
</a>
</g>
</g>
<!-- Node4 -->
<g id="Node000004" class="node">
<title>Node4</title>
<g id="a_Node000004"><a xlink:href="_array_2_i_r_2_dialect_8h_8inc.html" target="_top" xlink:title=" ">
<polygon fill="white" stroke="#666666" points="1646.88,-30.5 1555.88,-30.5 1555.88,0 1646.88,0 1646.88,-30.5"/>
<text text-anchor="start" x="1563.88" y="-17" font-family="Helvetica,sans-Serif" font-size="10.00">llzk/Dialect/Array</text>
<text text-anchor="middle" x="1601.38" y="-5.75" font-family="Helvetica,sans-Serif" font-size="10.00">/IR/Dialect.h.inc</text>
</a>
</g>
</g>
<!-- Node2&#45;&gt;Node4 -->
<g id="edge3_Node000002_Node000004" class="edge">
<title>Node2&#45;&gt;Node4</title>
<g id="a_edge3_Node000002_Node000004"><a xlink:title=" ">
<path fill="none" stroke="#63b8ff" d="M1554.22,-66.11C1561.78,-58.11 1571.32,-48.03 1579.83,-39.03"/>
<polygon fill="#63b8ff" stroke="#63b8ff" points="1582.22,-41.6 1586.55,-31.93 1577.13,-36.79 1582.22,-41.6"/>
</a>
</g>
</g>
<!-- Node5&#45;&gt;Node3 -->
<g id="edge5_Node000005_Node000003" class="edge">
<title>Node5&#45;&gt;Node3</title>
<g id="a_edge5_Node000005_Node000003"><a xlink:title=" ">
<path fill="none" stroke="#63b8ff" d="M160,-68.1C163.16,-67.5 166.3,-66.96 169.38,-66.5 408.09,-30.48 472.66,-66.52 711.38,-30.5 716.33,-29.75 721.48,-28.8 726.59,-27.75"/>
<polygon fill="#63b8ff" stroke="#63b8ff" points="727.13,-31.21 736.14,-25.64 725.62,-24.38 727.13,-31.21"/>
</a>
</g>
</g>
<!-- Node6 -->
<g id="Node000006" class="node">
<title>Node6</title>
<g id="a_Node000006"><a xlink:href="_bool_2_i_r_2_dialect_8h_8inc.html" target="_top" xlink:title=" ">
<polygon fill="white" stroke="#666666" points="100.75,-30.5 0,-30.5 0,0 100.75,0 100.75,-30.5"/>
<text text-anchor="start" x="8" y="-17" font-family="Helvetica,sans-Serif" font-size="10.00">llzk/Dialect/Bool/IR</text>
<text text-anchor="middle" x="50.38" y="-5.75" font-family="Helvetica,sans-Serif" font-size="10.00">/Dialect.h.inc</text>
</a>
</g>
</g>
<!-- Node5&#45;&gt;Node6 -->
<g id="edge6_Node000005_Node000006" class="edge">
<title>Node5&#45;&gt;Node6</title>
<g id="a_edge6_Node000005_Node000006"><a xlink:title=" ">
<path fill="none" stroke="#63b8ff" d="M95.99,-66.11C88.75,-58.2 79.63,-48.24 71.46,-39.3"/>
<polygon fill="#63b8ff" stroke="#63b8ff" points="74.06,-36.96 64.73,-31.94 68.9,-41.69 74.06,-36.96"/>
</a>
</g>
</g>
<!-- Node7&#45;&gt;Node3 -->
<g id="edge8_Node000007_Node000003" class="edge">
<title>Node7&#45;&gt;Node3</title>
<g id="a_edge8_Node000007_Node000003"><a xlink:title=" ">
<path fill="none" stroke="#63b8ff" d="M280.99,-67.98C283.82,-67.44 286.63,-66.94 289.38,-66.5 475.23,-36.67 525.52,-60.33 711.38,-30.5 716.07,-29.75 720.95,-28.82 725.8,-27.82"/>
<polygon fill="#63b8ff" stroke="#63b8ff" points="726.48,-31.25 735.49,-25.67 724.97,-24.41 726.48,-31.25"/>
</a>
</g>
</g>
<!-- Node8 -->
<g id="Node000008" class="node">
<title>Node8</title>
<g id="a_Node000008"><a xlink:href="_cast_2_i_r_2_dialect_8h_8inc.html" target="_top" xlink:title=" ">
<polygon fill="white" stroke="#666666" points="221.5,-30.5 119.25,-30.5 119.25,0 221.5,0 221.5,-30.5"/>
<text text-anchor="start" x="127.25" y="-17" font-family="Helvetica,sans-Serif" font-size="10.00">llzk/Dialect/Cast/IR</text>
<text text-anchor="middle" x="170.38" y="-5.75" font-family="Helvetica,sans-Serif" font-size="10.00">/Dialect.h.inc</text>
</a>
</g>
</g>
<!-- Node7&#45;&gt;Node8 -->
<g id="edge9_Node000007_Node000008" class="edge">
<title>Node7&#45;&gt;Node8</title>
<g id="a_edge9_Node000007_Node000008"><a xlink:title=" ">
<path fill="none" stroke="#63b8ff" d="M215.99,-66.11C208.75,-58.2 199.63,-48.24 191.46,-39.3"/>
<polygon fill="#63b8ff" stroke="#63b8ff" points="194.06,-36.96 184.73,-31.94 188.9,-41.69 194.06,-36.96"/>
</a>
</g>
</g>
<!-- Node9&#45;&gt;Node3 -->
<g id="edge11_Node000009_Node000003" class="edge">
<title>Node9&#45;&gt;Node3</title>
<g id="a_edge11_Node000009_Node000003"><a xlink:title=" ">
<path fill="none" stroke="#63b8ff" d="M408.47,-68.13C411.47,-67.55 414.46,-67 417.38,-66.5 547.11,-44.17 581.8,-53.75 711.38,-30.5 715.75,-29.71 720.29,-28.81 724.83,-27.84"/>
<polygon fill="#63b8ff" stroke="#63b8ff" points="725.51,-31.28 734.5,-25.68 723.98,-24.44 725.51,-31.28"/>
</a>
</g>
</g>
<!-- Node10 -->
<g id="Node000010" class="node">
<title>Node10</title>
<g id="a_Node000010"><a xlink:href="_constrain_2_i_r_2_dialect_8h_8inc.html" target="_top" xlink:title=" ">
<polygon fill="white" stroke="#666666" points="349.25,-30.5 239.5,-30.5 239.5,0 349.25,0 349.25,-30.5"/>
<text text-anchor="start" x="247.5" y="-17" font-family="Helvetica,sans-Serif" font-size="10.00">llzk/Dialect/Constrain</text>
<text text-anchor="middle" x="294.38" y="-5.75" font-family="Helvetica,sans-Serif" font-size="10.00">/IR/Dialect.h.inc</text>
</a>
</g>
</g>
<!-- Node9&#45;&gt;Node10 -->
<g id="edge12_Node000009_Node000010" class="edge">
<title>Node9&#45;&gt;Node10</title>
<g id="a_edge12_Node000009_Node000010"><a xlink:title=" ">
<path fill="none" stroke="#63b8ff" d="M339.99,-66.11C332.75,-58.2 323.63,-48.24 315.46,-39.3"/>
<polygon fill="#63b8ff" stroke="#63b8ff" points="318.06,-36.96 308.73,-31.94 312.9,-41.69 318.06,-36.96"/>
</a>
</g>
</g>
<!-- Node11&#45;&gt;Node3 -->
<g id="edge14_Node000011_Node000003" class="edge">
<title>Node11&#45;&gt;Node3</title>
<g id="a_edge14_Node000011_Node000003"><a xlink:title=" ">
<path fill="none" stroke="#63b8ff" d="M524.7,-68.48C527.63,-67.8 530.54,-67.13 533.38,-66.5 612.14,-48.87 632.54,-47.83 711.38,-30.5 715.15,-29.67 719.05,-28.79 722.97,-27.89"/>
<polygon fill="#63b8ff" stroke="#63b8ff" points="723.55,-31.35 732.5,-25.68 721.97,-24.53 723.55,-31.35"/>
</a>
</g>
</g>
<!-- Node12 -->
<g id="Node000012" class="node">
<title>Node12</title>
<g id="a_Node000012"><a xlink:href="_felt_2_i_r_2_dialect_8h_8inc.html" target="_top" xlink:title=" ">
<polygon fill="white" stroke="#666666" points="465.25,-30.5 367.5,-30.5 367.5,0 465.25,0 465.25,-30.5"/>
<text text-anchor="start" x="375.5" y="-17" font-family="Helvetica,sans-Serif" font-size="10.00">llzk/Dialect/Felt/IR</text>
<text text-anchor="middle" x="416.38" y="-5.75" font-family="Helvetica,sans-Serif" font-size="10.00">/Dialect.h.inc</text>
</a>
</g>
</g>
<!-- Node11&#45;&gt;Node12 -->
<g id="edge15_Node000011_Node000012" class="edge">
<title>Node11&#45;&gt;Node12</title>
<g id="a_edge15_Node000011_Node000012"><a xlink:title=" ">
<path fill="none" stroke="#63b8ff" d="M461.99,-66.11C454.75,-58.2 445.63,-48.24 437.46,-39.3"/>
<polygon fill="#63b8ff" stroke="#63b8ff" points="440.06,-36.96 430.73,-31.94 434.9,-41.69 440.06,-36.96"/>
</a>
</g>
</g>
<!-- Node13&#45;&gt;Node3 -->
<g id="edge17_Node000013_Node000003" class="edge">
<title>Node13&#45;&gt;Node3</title>
<g id="a_edge17_Node000013_Node000003"><a xlink:title=" ">
<path fill="none" stroke="#63b8ff" d="M635.31,-66.11C665.62,-55.01 706.9,-39.88 736.02,-29.21"/>
<polygon fill="#63b8ff" stroke="#63b8ff" points="736.93,-32.6 745.11,-25.87 734.52,-26.03 736.93,-32.6"/>
</a>
</g>
</g>
<!-- Node14 -->
<g id="Node000014" class="node">
<title>Node14</title>
<g id="a_Node000014"><a xlink:href="_function_2_i_r_2_dialect_8h_8inc.html" target="_top" xlink:title=" ">
<polygon fill="white" stroke="#666666" points="589,-30.5 483.75,-30.5 483.75,0 589,0 589,-30.5"/>
<text text-anchor="start" x="491.75" y="-17" font-family="Helvetica,sans-Serif" font-size="10.00">llzk/Dialect/Function</text>
<text text-anchor="middle" x="536.38" y="-5.75" font-family="Helvetica,sans-Serif" font-size="10.00">/IR/Dialect.h.inc</text>
</a>
</g>
</g>
<!-- Node13&#45;&gt;Node14 -->
<g id="edge18_Node000013_Node000014" class="edge">
<title>Node13&#45;&gt;Node14</title>
<g id="a_edge18_Node000013_Node000014"><a xlink:title=" ">
<path fill="none" stroke="#63b8ff" d="M581.99,-66.11C574.75,-58.2 565.63,-48.24 557.46,-39.3"/>
<polygon fill="#63b8ff" stroke="#63b8ff" points="560.06,-36.96 550.73,-31.94 554.9,-41.69 560.06,-36.96"/>
</a>
</g>
</g>
<!-- Node15&#45;&gt;Node3 -->
<g id="edge20_Node000015_Node000003" class="edge">
<title>Node15&#45;&gt;Node3</title>
<g id="a_edge20_Node000015_Node000003"><a xlink:title=" ">
<path fill="none" stroke="#63b8ff" d="M726.54,-66.11C735.24,-56.44 746.68,-43.71 755.83,-33.54"/>
<polygon fill="#63b8ff" stroke="#63b8ff" points="758.35,-35.97 762.43,-26.2 753.14,-31.29 758.35,-35.97"/>
</a>
</g>
</g>
<!-- Node16 -->
<g id="Node000016" class="node">
<title>Node16</title>
<g id="a_Node000016"><a xlink:href="_global_2_i_r_2_dialect_8h_8inc.html" target="_top" xlink:title=" ">
<polygon fill="white" stroke="#666666" points="702.12,-30.5 606.62,-30.5 606.62,0 702.12,0 702.12,-30.5"/>
<text text-anchor="start" x="614.62" y="-17" font-family="Helvetica,sans-Serif" font-size="10.00">llzk/Dialect/Global</text>
<text text-anchor="middle" x="654.38" y="-5.75" font-family="Helvetica,sans-Serif" font-size="10.00">/IR/Dialect.h.inc</text>
</a>
</g>
</g>
<!-- Node15&#45;&gt;Node16 -->
<g id="edge21_Node000015_Node000016" class="edge">
<title>Node15&#45;&gt;Node16</title>
<g id="a_edge21_Node000015_Node000016"><a xlink:title=" ">
<path fill="none" stroke="#63b8ff" d="M699.99,-66.11C692.75,-58.2 683.63,-48.24 675.46,-39.3"/>
<polygon fill="#63b8ff" stroke="#63b8ff" points="678.06,-36.96 668.73,-31.94 672.9,-41.69 678.06,-36.96"/>
</a>
</g>
</g>
<!-- Node17&#45;&gt;Node3 -->
<g id="edge23_Node000017_Node000003" class="edge">
<title>Node17&#45;&gt;Node3</title>
<g id="a_edge23_Node000017_Node000003"><a xlink:title=" ">
<path fill="none" stroke="#63b8ff" d="M815.44,-66.11C806.89,-56.44 795.64,-43.71 786.65,-33.54"/>
<polygon fill="#63b8ff" stroke="#63b8ff" points="789.42,-31.38 780.17,-26.21 784.17,-36.02 789.42,-31.38"/>
</a>
</g>
</g>
<!-- Node18 -->
<g id="Node000018" class="node">
<title>Node18</title>
<g id="a_Node000018"><a xlink:href="_include_2_i_r_2_dialect_8h_8inc.html" target="_top" xlink:title=" ">
<polygon fill="white" stroke="#666666" points="939,-30.5 839.75,-30.5 839.75,0 939,0 939,-30.5"/>
<text text-anchor="start" x="847.75" y="-17" font-family="Helvetica,sans-Serif" font-size="10.00">llzk/Dialect/Include</text>
<text text-anchor="middle" x="889.38" y="-5.75" font-family="Helvetica,sans-Serif" font-size="10.00">/IR/Dialect.h.inc</text>
</a>
</g>
</g>
<!-- Node17&#45;&gt;Node18 -->
<g id="edge24_Node000017_Node000018" class="edge">
<title>Node17&#45;&gt;Node18</title>
<g id="a_edge24_Node000017_Node000018"><a xlink:title=" ">
<path fill="none" stroke="#63b8ff" d="M842.22,-66.11C849.78,-58.11 859.32,-48.03 867.83,-39.03"/>
<polygon fill="#63b8ff" stroke="#63b8ff" points="870.22,-41.6 874.55,-31.93 865.13,-36.79 870.22,-41.6"/>
</a>
</g>
</g>
<!-- Node20&#45;&gt;Node3 -->
<g id="edge27_Node000020_Node000003" class="edge">
<title>Node20&#45;&gt;Node3</title>
<g id="a_edge27_Node000020_Node000003"><a xlink:title=" ">
<path fill="none" stroke="#63b8ff" d="M908.21,-66.11C877.73,-55.01 836.22,-39.88 806.93,-29.21"/>
<polygon fill="#63b8ff" stroke="#63b8ff" points="808.37,-26.01 797.78,-25.87 805.98,-32.58 808.37,-26.01"/>
</a>
</g>
</g>
<!-- Node21 -->
<g id="Node000021" class="node">
<title>Node21</title>
<g id="a_Node000021"><a xlink:href="_l_l_z_k_2_i_r_2_dialect_8h_8inc.html" target="_top" xlink:title=" ">
<polygon fill="white" stroke="#666666" points="1061.62,-30.5 957.12,-30.5 957.12,0 1061.62,0 1061.62,-30.5"/>
<text text-anchor="start" x="965.12" y="-17" font-family="Helvetica,sans-Serif" font-size="10.00">llzk/Dialect/LLZK/IR</text>
<text text-anchor="middle" x="1009.38" y="-5.75" font-family="Helvetica,sans-Serif" font-size="10.00">/Dialect.h.inc</text>
</a>
</g>
</g>
<!-- Node20&#45;&gt;Node21 -->
<g id="edge28_Node000020_Node000021" class="edge">
<title>Node20&#45;&gt;Node21</title>
<g id="a_edge28_Node000020_Node000021"><a xlink:title=" ">
<path fill="none" stroke="#63b8ff" d="M962.22,-66.11C969.78,-58.11 979.32,-48.03 987.83,-39.03"/>
<polygon fill="#63b8ff" stroke="#63b8ff" points="990.22,-41.6 994.55,-31.93 985.13,-36.79 990.22,-41.6"/>
</a>
</g>
</g>
<!-- Node22&#45;&gt;Node3 -->
<g id="edge30_Node000022_Node000003" class="edge">
<title>Node22&#45;&gt;Node3</title>
<g id="a_edge30_Node000022_Node000003"><a xlink:title=" ">
<path fill="none" stroke="#63b8ff" d="M1018.29,-68.31C1015.28,-67.7 1012.29,-67.09 1009.38,-66.5 929.84,-50.41 909.61,-48.03 830.38,-30.5 826.77,-29.7 823.05,-28.86 819.32,-27.99"/>
<polygon fill="#63b8ff" stroke="#63b8ff" points="820.16,-24.59 809.62,-25.71 818.55,-31.41 820.16,-24.59"/>
</a>
</g>
</g>
<!-- Node23 -->
<g id="Node000023" class="node">
<title>Node23</title>
<g id="a_Node000023"><a xlink:href="_polymorphic_2_i_r_2_dialect_8h_8inc.html" target="_top" xlink:title=" ">
<polygon fill="white" stroke="#666666" points="1201.25,-30.5 1079.5,-30.5 1079.5,0 1201.25,0 1201.25,-30.5"/>
<text text-anchor="start" x="1087.5" y="-17" font-family="Helvetica,sans-Serif" font-size="10.00">llzk/Dialect/Polymorphic</text>
<text text-anchor="middle" x="1140.38" y="-5.75" font-family="Helvetica,sans-Serif" font-size="10.00">/IR/Dialect.h.inc</text>
</a>
</g>
</g>
<!-- Node22&#45;&gt;Node23 -->
<g id="edge31_Node000022_Node000023" class="edge">
<title>Node22&#45;&gt;Node23</title>
<g id="a_edge31_Node000022_Node000023"><a xlink:title=" ">
<path fill="none" stroke="#63b8ff" d="M1093.22,-66.11C1100.78,-58.11 1110.32,-48.03 1118.83,-39.03"/>
<polygon fill="#63b8ff" stroke="#63b8ff" points="1121.22,-41.6 1125.55,-31.93 1116.13,-36.79 1121.22,-41.6"/>
</a>
</g>
</g>
<!-- Node24&#45;&gt;Node3 -->
<g id="edge33_Node000024_Node000003" class="edge">
<title>Node24&#45;&gt;Node3</title>
<g id="a_edge33_Node000024_Node000003"><a xlink:title=" ">
<path fill="none" stroke="#63b8ff" d="M1158.42,-68.31C1155.37,-67.65 1152.34,-67.04 1149.38,-66.5 1009.02,-40.85 970.88,-55.3 830.38,-30.5 826.01,-29.73 821.48,-28.83 816.96,-27.86"/>
<polygon fill="#63b8ff" stroke="#63b8ff" points="817.86,-24.47 807.33,-25.67 816.31,-31.3 817.86,-24.47"/>
</a>
</g>
</g>
<!-- Node25 -->
<g id="Node000025" class="node">
<title>Node25</title>
<g id="a_Node000025"><a xlink:href="_string_2_i_r_2_dialect_8h_8inc.html" target="_top" xlink:title=" ">
<polygon fill="white" stroke="#666666" points="1313,-30.5 1219.75,-30.5 1219.75,0 1313,0 1313,-30.5"/>
<text text-anchor="start" x="1227.75" y="-17" font-family="Helvetica,sans-Serif" font-size="10.00">llzk/Dialect/String</text>
<text text-anchor="middle" x="1266.38" y="-5.75" font-family="Helvetica,sans-Serif" font-size="10.00">/IR/Dialect.h.inc</text>
</a>
</g>
</g>
<!-- Node24&#45;&gt;Node25 -->
<g id="edge34_Node000024_Node000025" class="edge">
<title>Node24&#45;&gt;Node25</title>
<g id="a_edge34_Node000024_Node000025"><a xlink:title=" ">
<path fill="none" stroke="#63b8ff" d="M1219.22,-66.11C1226.78,-58.11 1236.32,-48.03 1244.83,-39.03"/>
<polygon fill="#63b8ff" stroke="#63b8ff" points="1247.22,-41.6 1251.55,-31.93 1242.13,-36.79 1247.22,-41.6"/>
</a>
</g>
</g>
<!-- Node26&#45;&gt;Node3 -->
<g id="edge36_Node000026_Node000003" class="edge">
<title>Node26&#45;&gt;Node3</title>
<g id="a_edge36_Node000026_Node000003"><a xlink:title=" ">
<path fill="none" stroke="#63b8ff" d="M1270.14,-68.14C1267.18,-67.54 1264.24,-66.98 1261.38,-66.5 1071.8,-34.69 1020.14,-61.15 830.38,-30.5 825.75,-29.75 820.96,-28.84 816.19,-27.83"/>
<polygon fill="#63b8ff" stroke="#63b8ff" points="817.2,-24.47 806.68,-25.69 815.67,-31.3 817.2,-24.47"/>
</a>
</g>
</g>
<!-- Node27 -->
<g id="Node000027" class="node">
<title>Node27</title>
<g id="a_Node000027"><a xlink:href="_struct_2_i_r_2_dialect_8h_8inc.html" target="_top" xlink:title=" ">
<polygon fill="white" stroke="#666666" points="1425.38,-30.5 1331.38,-30.5 1331.38,0 1425.38,0 1425.38,-30.5"/>
<text text-anchor="start" x="1339.38" y="-17" font-family="Helvetica,sans-Serif" font-size="10.00">llzk/Dialect/Struct</text>
<text text-anchor="middle" x="1378.38" y="-5.75" font-family="Helvetica,sans-Serif" font-size="10.00">/IR/Dialect.h.inc</text>
</a>
</g>
</g>
<!-- Node26&#45;&gt;Node27 -->
<g id="edge37_Node000026_Node000027" class="edge">
<title>Node26&#45;&gt;Node27</title>
<g id="a_edge37_Node000026_Node000027"><a xlink:title=" ">
<path fill="none" stroke="#63b8ff" d="M1331.22,-66.11C1338.78,-58.11 1348.32,-48.03 1356.83,-39.03"/>
<polygon fill="#63b8ff" stroke="#63b8ff" points="1359.22,-41.6 1363.55,-31.93 1354.13,-36.79 1359.22,-41.6"/>
</a>
</g>
</g>
<!-- Node28&#45;&gt;Node3 -->
<g id="edge39_Node000028_Node000003" class="edge">
<title>Node28&#45;&gt;Node3</title>
<g id="a_edge39_Node000028_Node000003"><a xlink:title=" ">
<path fill="none" stroke="#63b8ff" d="M1382.15,-68.08C1379.19,-67.49 1376.25,-66.96 1373.38,-66.5 1134.51,-28.52 1069.46,-67.02 830.38,-30.5 825.5,-29.75 820.43,-28.81 815.4,-27.75"/>
<polygon fill="#63b8ff" stroke="#63b8ff" points="816.56,-24.42 806.04,-25.65 815.03,-31.25 816.56,-24.42"/>
</a>
</g>
</g>
<!-- Node29 -->
<g id="Node000029" class="node">
<title>Node29</title>
<g id="a_Node000029"><a xlink:href="_undef_2_i_r_2_dialect_8h_8inc.html" target="_top" xlink:title=" ">
<polygon fill="white" stroke="#666666" points="1537.38,-30.5 1443.38,-30.5 1443.38,0 1537.38,0 1537.38,-30.5"/>
<text text-anchor="start" x="1451.38" y="-17" font-family="Helvetica,sans-Serif" font-size="10.00">llzk/Dialect/Undef</text>
<text text-anchor="middle" x="1490.38" y="-5.75" font-family="Helvetica,sans-Serif" font-size="10.00">/IR/Dialect.h.inc</text>
</a>
</g>
</g>
<!-- Node28&#45;&gt;Node29 -->
<g id="edge40_Node000028_Node000029" class="edge">
<title>Node28&#45;&gt;Node29</title>
<g id="a_edge40_Node000028_Node000029"><a xlink:title=" ">
<path fill="none" stroke="#63b8ff" d="M1443.22,-66.11C1450.78,-58.11 1460.32,-48.03 1468.83,-39.03"/>
<polygon fill="#63b8ff" stroke="#63b8ff" points="1471.22,-41.6 1475.55,-31.93 1466.13,-36.79 1471.22,-41.6"/>
</a>
</g>
</g>
</g>
</svg>
