<?xml version="1.0" encoding="UTF-8" standalone="no"?>
<!DOCTYPE svg PUBLIC "-//W3C//DTD SVG 1.1//EN"
 "http://www.w3.org/Graphics/SVG/1.1/DTD/svg11.dtd">
<!-- Generated by graphviz version 12.2.1 (0)
 -->
<!-- Title: lib/Dialect/Include/Transforms/InlineIncludesPass.cpp Pages: 1 -->
<svg width="2645pt" height="316pt"
 viewBox="0.00 0.00 2645.12 315.75" xmlns="http://www.w3.org/2000/svg" xmlns:xlink="http://www.w3.org/1999/xlink">
<g id="graph0" class="graph" transform="scale(1 1) rotate(0) translate(4 311.75)">
<title>lib/Dialect/Include/Transforms/InlineIncludesPass.cpp</title>
<!-- Node1 -->
<g id="Node000001" class="node">
<title>Node1</title>
<g id="a_Node000001"><a xlink:title="This file implements the &#45;llzk&#45;inline&#45;includes pass.">
<polygon fill="#999999" stroke="#666666" points="1036.38,-307.75 904.88,-307.75 904.88,-266 1036.38,-266 1036.38,-307.75"/>
<text text-anchor="start" x="912.88" y="-294.25" font-family="Helvetica,sans-Serif" font-size="10.00">lib/Dialect/Include</text>
<text text-anchor="start" x="912.88" y="-283" font-family="Helvetica,sans-Serif" font-size="10.00">/Transforms/InlineIncludes</text>
<text text-anchor="middle" x="970.62" y="-271.75" font-family="Helvetica,sans-Serif" font-size="10.00">Pass.cpp</text>
</a>
</g>
</g>
<!-- Node2 -->
<g id="Node000002" class="node">
<title>Node2</title>
<g id="a_Node000002"><a xlink:href="_include_2_i_r_2_ops_8h.html" target="_top" xlink:title=" ">
<polygon fill="white" stroke="#666666" points="569.25,-230 470,-230 470,-199.5 569.25,-199.5 569.25,-230"/>
<text text-anchor="start" x="478" y="-216.5" font-family="Helvetica,sans-Serif" font-size="10.00">llzk/Dialect/Include</text>
<text text-anchor="middle" x="519.62" y="-205.25" font-family="Helvetica,sans-Serif" font-size="10.00">/IR/Ops.h</text>
</a>
</g>
</g>
<!-- Node1&#45;&gt;Node2 -->
<g id="edge1_Node000001_Node000002" class="edge">
<title>Node1&#45;&gt;Node2</title>
<g id="a_edge1_Node000001_Node000002"><a xlink:title=" ">
<path fill="none" stroke="#63b8ff" d="M904.56,-275.6C817.43,-262.05 665.27,-238.4 580.7,-225.25"/>
<polygon fill="#63b8ff" stroke="#63b8ff" points="581.4,-221.81 570.98,-223.74 580.32,-228.73 581.4,-221.81"/>
</a>
</g>
</g>
<!-- Node4 -->
<g id="Node000004" class="node">
<title>Node4</title>
<g id="a_Node000004"><a xlink:title=" ">
<polygon fill="#e0e0e0" stroke="#999999" points="1259.38,-24.88 1157.88,-24.88 1157.88,-5.63 1259.38,-5.63 1259.38,-24.88"/>
<text text-anchor="middle" x="1208.62" y="-11.38" font-family="Helvetica,sans-Serif" font-size="10.00">mlir/IR/BuiltinOps.h</text>
</a>
</g>
</g>
<!-- Node1&#45;&gt;Node4 -->
<g id="edge55_Node000001_Node000004" class="edge">
<title>Node1&#45;&gt;Node4</title>
<g id="a_edge55_Node000001_Node000004"><a xlink:title=" ">
<path fill="none" stroke="#63b8ff" d="M1036.63,-280.15C1208.46,-263.73 1662.5,-210.25 1751.62,-97 1760.01,-86.35 1760.85,-76.44 1751.62,-66.5 1715.01,-27.06 1321.81,-38.74 1268.62,-30.5 1263.73,-29.74 1258.65,-28.79 1253.6,-27.75"/>
<polygon fill="#63b8ff" stroke="#63b8ff" points="1254.71,-24.4 1244.19,-25.66 1253.19,-31.24 1254.71,-24.4"/>
</a>
</g>
</g>
<!-- Node7 -->
<g id="Node000007" class="node">
<title>Node7</title>
<g id="a_Node000007"><a xlink:href="_inline_includes_pass_8h.html" target="_top" xlink:title=" ">
<polygon fill="white" stroke="#666666" points="1051.75,-230 889.5,-230 889.5,-199.5 1051.75,-199.5 1051.75,-230"/>
<text text-anchor="start" x="897.5" y="-216.5" font-family="Helvetica,sans-Serif" font-size="10.00">llzk/Dialect/Include</text>
<text text-anchor="middle" x="970.62" y="-205.25" font-family="Helvetica,sans-Serif" font-size="10.00">/Transforms/InlineIncludesPass.h</text>
</a>
</g>
</g>
<!-- Node1&#45;&gt;Node7 -->
<g id="edge6_Node000001_Node000007" class="edge">
<title>Node1&#45;&gt;Node7</title>
<g id="a_edge6_Node000001_Node000007"><a xlink:title=" ">
<path fill="none" stroke="#63b8ff" d="M970.62,-265.59C970.62,-258.07 970.62,-249.44 970.62,-241.5"/>
<polygon fill="#63b8ff" stroke="#63b8ff" points="974.13,-241.71 970.63,-231.71 967.13,-241.71 974.13,-241.71"/>
</a>
</g>
</g>
<!-- Node34 -->
<g id="Node000034" class="node">
<title>Node34</title>
<g id="a_Node000034"><a xlink:href="_inline_includes_pass_8h_8inc.html" target="_top" xlink:title=" ">
<polygon fill="white" stroke="#666666" points="896.62,-163.5 718.62,-163.5 718.62,-133 896.62,-133 896.62,-163.5"/>
<text text-anchor="start" x="726.62" y="-150" font-family="Helvetica,sans-Serif" font-size="10.00">llzk/Dialect/Include</text>
<text text-anchor="middle" x="807.62" y="-138.75" font-family="Helvetica,sans-Serif" font-size="10.00">/Transforms/InlineIncludesPass.h.inc</text>
</a>
</g>
</g>
<!-- Node1&#45;&gt;Node34 -->
<g id="edge56_Node000001_Node000034" class="edge">
<title>Node1&#45;&gt;Node34</title>
<g id="a_edge56_Node000001_Node000034"><a xlink:title=" ">
<path fill="none" stroke="#63b8ff" d="M932.68,-265.52C915.98,-255.77 896.58,-243.32 880.62,-230 859.94,-212.73 839.65,-189.64 825.73,-172.58"/>
<polygon fill="#63b8ff" stroke="#63b8ff" points="828.62,-170.59 819.64,-164.98 823.16,-174.97 828.62,-170.59"/>
</a>
</g>
</g>
<!-- Node35 -->
<g id="Node000035" class="node">
<title>Node35</title>
<g id="a_Node000035"><a xlink:href="_include_helper_8h.html" target="_top" xlink:title=" ">
<polygon fill="white" stroke="#666666" points="2142.88,-230 2038.38,-230 2038.38,-199.5 2142.88,-199.5 2142.88,-230"/>
<text text-anchor="start" x="2046.38" y="-216.5" font-family="Helvetica,sans-Serif" font-size="10.00">llzk/Dialect/Include</text>
<text text-anchor="middle" x="2090.62" y="-205.25" font-family="Helvetica,sans-Serif" font-size="10.00">/Util/IncludeHelper.h</text>
</a>
</g>
</g>
<!-- Node1&#45;&gt;Node35 -->
<g id="edge47_Node000001_Node000035" class="edge">
<title>Node1&#45;&gt;Node35</title>
<g id="a_edge47_Node000001_Node000035"><a xlink:title=" ">
<path fill="none" stroke="#63b8ff" d="M1036.5,-281.75C1235.69,-269.28 1829.96,-232.07 2026.63,-219.76"/>
<polygon fill="#63b8ff" stroke="#63b8ff" points="2026.63,-223.26 2036.39,-219.15 2026.19,-216.28 2026.63,-223.26"/>
</a>
</g>
</g>
<!-- Node3 -->
<g id="Node000003" class="node">
<title>Node3</title>
<g id="a_Node000003"><a xlink:href="_include_2_i_r_2_dialect_8h.html" target="_top" xlink:title=" ">
<polygon fill="white" stroke="#666666" points="99.25,-97 0,-97 0,-66.5 99.25,-66.5 99.25,-97"/>
<text text-anchor="start" x="8" y="-83.5" font-family="Helvetica,sans-Serif" font-size="10.00">llzk/Dialect/Include</text>
<text text-anchor="middle" x="49.62" y="-72.25" font-family="Helvetica,sans-Serif" font-size="10.00">/IR/Dialect.h</text>
</a>
</g>
</g>
<!-- Node2&#45;&gt;Node3 -->
<g id="edge2_Node000002_Node000003" class="edge">
<title>Node2&#45;&gt;Node3</title>
<g id="a_edge2_Node000002_Node000003"><a xlink:title=" ">
<path fill="none" stroke="#63b8ff" d="M469.77,-199.85C383.05,-175.68 204.72,-125.98 110.71,-99.78"/>
<polygon fill="#63b8ff" stroke="#63b8ff" points="111.71,-96.42 101.13,-97.11 109.83,-103.16 111.71,-96.42"/>
</a>
</g>
</g>
<!-- Node6 -->
<g id="Node000006" class="node">
<title>Node6</title>
<g id="a_Node000006"><a xlink:href="_include_2_i_r_2_ops_8h_8inc.html" target="_top" xlink:title=" ">
<polygon fill="white" stroke="#666666" points="569.25,-163.5 470,-163.5 470,-133 569.25,-133 569.25,-163.5"/>
<text text-anchor="start" x="478" y="-150" font-family="Helvetica,sans-Serif" font-size="10.00">llzk/Dialect/Include</text>
<text text-anchor="middle" x="519.62" y="-138.75" font-family="Helvetica,sans-Serif" font-size="10.00">/IR/Ops.h.inc</text>
</a>
</g>
</g>
<!-- Node2&#45;&gt;Node6 -->
<g id="edge5_Node000002_Node000006" class="edge">
<title>Node2&#45;&gt;Node6</title>
<g id="a_edge5_Node000002_Node000006"><a xlink:title=" ">
<path fill="none" stroke="#63b8ff" d="M519.62,-199.11C519.62,-192.02 519.62,-183.29 519.62,-175.13"/>
<polygon fill="#63b8ff" stroke="#63b8ff" points="523.13,-175.34 519.63,-165.34 516.13,-175.34 523.13,-175.34"/>
</a>
</g>
</g>
<!-- Node3&#45;&gt;Node4 -->
<g id="edge3_Node000003_Node000004" class="edge">
<title>Node3&#45;&gt;Node4</title>
<g id="a_edge3_Node000003_Node000004"><a xlink:title=" ">
<path fill="none" stroke="#63b8ff" d="M99.71,-67.92C102.71,-67.38 105.7,-66.9 108.62,-66.5 567.31,-3.84 690.94,-93.16 1149.62,-30.5 1154.63,-29.82 1159.84,-28.89 1164.99,-27.83"/>
<polygon fill="#63b8ff" stroke="#63b8ff" points="1165.61,-31.28 1174.6,-25.69 1164.08,-24.45 1165.61,-31.28"/>
</a>
</g>
</g>
<!-- Node5 -->
<g id="Node000005" class="node">
<title>Node5</title>
<g id="a_Node000005"><a xlink:href="_include_2_i_r_2_dialect_8h_8inc.html" target="_top" xlink:title=" ">
<polygon fill="white" stroke="#666666" points="99.25,-30.5 0,-30.5 0,0 99.25,0 99.25,-30.5"/>
<text text-anchor="start" x="8" y="-17" font-family="Helvetica,sans-Serif" font-size="10.00">llzk/Dialect/Include</text>
<text text-anchor="middle" x="49.62" y="-5.75" font-family="Helvetica,sans-Serif" font-size="10.00">/IR/Dialect.h.inc</text>
</a>
</g>
</g>
<!-- Node3&#45;&gt;Node5 -->
<g id="edge4_Node000003_Node000005" class="edge">
<title>Node3&#45;&gt;Node5</title>
<g id="a_edge4_Node000003_Node000005"><a xlink:title=" ">
<path fill="none" stroke="#63b8ff" d="M49.62,-66.11C49.62,-59.02 49.62,-50.29 49.62,-42.13"/>
<polygon fill="#63b8ff" stroke="#63b8ff" points="53.13,-42.34 49.63,-32.34 46.13,-42.34 53.13,-42.34"/>
</a>
</g>
</g>
<!-- Node8 -->
<g id="Node000008" class="node">
<title>Node8</title>
<g id="a_Node000008"><a xlink:href="_polymorphic_2_i_r_2_dialect_8h.html" target="_top" xlink:title=" ">
<polygon fill="white" stroke="#666666" points="1742.5,-97 1620.75,-97 1620.75,-66.5 1742.5,-66.5 1742.5,-97"/>
<text text-anchor="start" x="1628.75" y="-83.5" font-family="Helvetica,sans-Serif" font-size="10.00">llzk/Dialect/Polymorphic</text>
<text text-anchor="middle" x="1681.62" y="-72.25" font-family="Helvetica,sans-Serif" font-size="10.00">/IR/Dialect.h</text>
</a>
</g>
</g>
<!-- Node7&#45;&gt;Node8 -->
<g id="edge7_Node000007_Node000008" class="edge">
<title>Node7&#45;&gt;Node8</title>
<g id="a_edge7_Node000007_Node000008"><a xlink:title=" ">
<path fill="none" stroke="#63b8ff" d="M1052.18,-199.45C1171.91,-178.34 1402.58,-137.19 1609.47,-97.39"/>
<polygon fill="#63b8ff" stroke="#63b8ff" points="1609.91,-100.87 1619.07,-95.55 1608.59,-94 1609.91,-100.87"/>
</a>
</g>
</g>
<!-- Node10 -->
<g id="Node000010" class="node">
<title>Node10</title>
<g id="a_Node000010"><a xlink:href="_pass_base_8h.html" target="_top" xlink:title=" ">
<polygon fill="white" stroke="#666666" points="1027,-157.88 914.25,-157.88 914.25,-138.62 1027,-138.62 1027,-157.88"/>
<text text-anchor="middle" x="970.62" y="-144.38" font-family="Helvetica,sans-Serif" font-size="10.00">llzk/Pass/PassBase.h</text>
</a>
</g>
</g>
<!-- Node7&#45;&gt;Node10 -->
<g id="edge10_Node000007_Node000010" class="edge">
<title>Node7&#45;&gt;Node10</title>
<g id="a_edge10_Node000007_Node000010"><a xlink:title=" ">
<path fill="none" stroke="#63b8ff" d="M970.62,-199.11C970.62,-190.33 970.62,-179.02 970.62,-169.4"/>
<polygon fill="#63b8ff" stroke="#63b8ff" points="974.13,-169.59 970.63,-159.59 967.13,-169.59 974.13,-169.59"/>
</a>
</g>
</g>
<!-- Node7&#45;&gt;Node34 -->
<g id="edge46_Node000007_Node000034" class="edge">
<title>Node7&#45;&gt;Node34</title>
<g id="a_edge46_Node000007_Node000034"><a xlink:title=" ">
<path fill="none" stroke="#63b8ff" d="M933.64,-199.11C910.48,-189.95 880.41,-178.05 855.45,-168.18"/>
<polygon fill="#63b8ff" stroke="#63b8ff" points="856.74,-164.92 846.15,-164.5 854.17,-171.43 856.74,-164.92"/>
</a>
</g>
</g>
<!-- Node8&#45;&gt;Node4 -->
<g id="edge8_Node000008_Node000004" class="edge">
<title>Node8&#45;&gt;Node4</title>
<g id="a_edge8_Node000008_Node000004"><a xlink:title=" ">
<path fill="none" stroke="#63b8ff" d="M1620.6,-67.97C1617.57,-67.45 1614.57,-66.95 1611.62,-66.5 1460.13,-43.18 1419.73,-56.26 1268.62,-30.5 1263.99,-29.71 1259.19,-28.77 1254.4,-27.76"/>
<polygon fill="#63b8ff" stroke="#63b8ff" points="1255.37,-24.39 1244.85,-25.63 1253.85,-31.22 1255.37,-24.39"/>
</a>
</g>
</g>
<!-- Node9 -->
<g id="Node000009" class="node">
<title>Node9</title>
<g id="a_Node000009"><a xlink:href="_polymorphic_2_i_r_2_dialect_8h_8inc.html" target="_top" xlink:title=" ">
<polygon fill="white" stroke="#666666" points="1859.5,-30.5 1737.75,-30.5 1737.75,0 1859.5,0 1859.5,-30.5"/>
<text text-anchor="start" x="1745.75" y="-17" font-family="Helvetica,sans-Serif" font-size="10.00">llzk/Dialect/Polymorphic</text>
<text text-anchor="middle" x="1798.62" y="-5.75" font-family="Helvetica,sans-Serif" font-size="10.00">/IR/Dialect.h.inc</text>
</a>
</g>
</g>
<!-- Node8&#45;&gt;Node9 -->
<g id="edge9_Node000008_Node000009" class="edge">
<title>Node8&#45;&gt;Node9</title>
<g id="a_edge9_Node000008_Node000009"><a xlink:title=" ">
<path fill="none" stroke="#63b8ff" d="M1708.17,-66.11C1724.18,-57.29 1744.79,-45.93 1762.29,-36.28"/>
<polygon fill="#63b8ff" stroke="#63b8ff" points="1763.79,-39.45 1770.86,-31.56 1760.41,-33.32 1763.79,-39.45"/>
</a>
</g>
</g>
<!-- Node10&#45;&gt;Node3 -->
<g id="edge29_Node000010_Node000003" class="edge">
<title>Node10&#45;&gt;Node3</title>
<g id="a_edge29_Node000010_Node000003"><a xlink:title=" ">
<path fill="none" stroke="#63b8ff" d="M934.38,-138.16C925.06,-136.14 915.02,-134.23 905.62,-133 557.75,-87.35 461.7,-145.61 110.96,-97.12"/>
<polygon fill="#63b8ff" stroke="#63b8ff" points="111.6,-93.67 101.21,-95.75 110.63,-100.61 111.6,-93.67"/>
</a>
</g>
</g>
<!-- Node10&#45;&gt;Node8 -->
<g id="edge33_Node000010_Node000008" class="edge">
<title>Node10&#45;&gt;Node8</title>
<g id="a_edge33_Node000010_Node000008"><a xlink:title=" ">
<path fill="none" stroke="#63b8ff" d="M1027.47,-145.14C1137.78,-140.52 1388.66,-127.56 1609.46,-97.18"/>
<polygon fill="#63b8ff" stroke="#63b8ff" points="1609.7,-100.68 1619.12,-95.84 1608.73,-93.75 1609.7,-100.68"/>
</a>
</g>
</g>
<!-- Node11 -->
<g id="Node000011" class="node">
<title>Node11</title>
<g id="a_Node000011"><a xlink:href="_array_2_i_r_2_dialect_8h.html" target="_top" xlink:title=" ">
<polygon fill="white" stroke="#666666" points="545.12,-97 454.12,-97 454.12,-66.5 545.12,-66.5 545.12,-97"/>
<text text-anchor="start" x="462.12" y="-83.5" font-family="Helvetica,sans-Serif" font-size="10.00">llzk/Dialect/Array</text>
<text text-anchor="middle" x="499.62" y="-72.25" font-family="Helvetica,sans-Serif" font-size="10.00">/IR/Dialect.h</text>
</a>
</g>
</g>
<!-- Node10&#45;&gt;Node11 -->
<g id="edge11_Node000010_Node000011" class="edge">
<title>Node10&#45;&gt;Node11</title>
<g id="a_edge11_Node000010_Node000011"><a xlink:title=" ">
<path fill="none" stroke="#63b8ff" d="M932.61,-138.16C923.79,-136.26 914.41,-134.41 905.62,-133 754.41,-108.75 710.99,-123.99 556.73,-97.17"/>
<polygon fill="#63b8ff" stroke="#63b8ff" points="557.37,-93.73 546.92,-95.43 556.15,-100.63 557.37,-93.73"/>
</a>
</g>
</g>
<!-- Node13 -->
<g id="Node000013" class="node">
<title>Node13</title>
<g id="a_Node000013"><a xlink:href="_bool_2_i_r_2_dialect_8h.html" target="_top" xlink:title=" ">
<polygon fill="white" stroke="#666666" points="664,-97 563.25,-97 563.25,-66.5 664,-66.5 664,-97"/>
<text text-anchor="start" x="571.25" y="-83.5" font-family="Helvetica,sans-Serif" font-size="10.00">llzk/Dialect/Bool/IR</text>
<text text-anchor="middle" x="613.62" y="-72.25" font-family="Helvetica,sans-Serif" font-size="10.00">/Dialect.h</text>
</a>
</g>
</g>
<!-- Node10&#45;&gt;Node13 -->
<g id="edge14_Node000010_Node000013" class="edge">
<title>Node10&#45;&gt;Node13</title>
<g id="a_edge14_Node000010_Node000013"><a xlink:title=" ">
<path fill="none" stroke="#63b8ff" d="M931.18,-138.19C922.76,-136.37 913.92,-134.55 905.62,-133 806.14,-114.43 777.37,-117.1 675.51,-97.47"/>
<polygon fill="#63b8ff" stroke="#63b8ff" points="676.39,-94.08 665.9,-95.59 675.04,-100.95 676.39,-94.08"/>
</a>
</g>
</g>
<!-- Node15 -->
<g id="Node000015" class="node">
<title>Node15</title>
<g id="a_Node000015"><a xlink:href="_constrain_2_i_r_2_dialect_8h.html" target="_top" xlink:title=" ">
<polygon fill="white" stroke="#666666" points="903.5,-97 793.75,-97 793.75,-66.5 903.5,-66.5 903.5,-97"/>
<text text-anchor="start" x="801.75" y="-83.5" font-family="Helvetica,sans-Serif" font-size="10.00">llzk/Dialect/Constrain</text>
<text text-anchor="middle" x="848.62" y="-72.25" font-family="Helvetica,sans-Serif" font-size="10.00">/IR/Dialect.h</text>
</a>
</g>
</g>
<!-- Node10&#45;&gt;Node15 -->
<g id="edge17_Node000010_Node000015" class="edge">
<title>Node10&#45;&gt;Node15</title>
<g id="a_edge17_Node000010_Node000015"><a xlink:title=" ">
<path fill="none" stroke="#63b8ff" d="M953.4,-138.15C935.97,-128.93 908.47,-114.39 886.01,-102.51"/>
<polygon fill="#63b8ff" stroke="#63b8ff" points="887.91,-99.56 877.44,-97.98 884.64,-105.75 887.91,-99.56"/>
</a>
</g>
</g>
<!-- Node17 -->
<g id="Node000017" class="node">
<title>Node17</title>
<g id="a_Node000017"><a xlink:href="_felt_2_i_r_2_dialect_8h.html" target="_top" xlink:title=" ">
<polygon fill="white" stroke="#666666" points="1019.5,-97 921.75,-97 921.75,-66.5 1019.5,-66.5 1019.5,-97"/>
<text text-anchor="start" x="929.75" y="-83.5" font-family="Helvetica,sans-Serif" font-size="10.00">llzk/Dialect/Felt/IR</text>
<text text-anchor="middle" x="970.62" y="-72.25" font-family="Helvetica,sans-Serif" font-size="10.00">/Dialect.h</text>
</a>
</g>
</g>
<!-- Node10&#45;&gt;Node17 -->
<g id="edge20_Node000010_Node000017" class="edge">
<title>Node10&#45;&gt;Node17</title>
<g id="a_edge20_Node000010_Node000017"><a xlink:title=" ">
<path fill="none" stroke="#63b8ff" d="M970.62,-138.28C970.62,-130.54 970.62,-118.95 970.62,-108.37"/>
<polygon fill="#63b8ff" stroke="#63b8ff" points="974.13,-108.61 970.63,-98.61 967.13,-108.61 974.13,-108.61"/>
</a>
</g>
</g>
<!-- Node19 -->
<g id="Node000019" class="node">
<title>Node19</title>
<g id="a_Node000019"><a xlink:href="_function_2_i_r_2_dialect_8h.html" target="_top" xlink:title=" ">
<polygon fill="white" stroke="#666666" points="1143.25,-97 1038,-97 1038,-66.5 1143.25,-66.5 1143.25,-97"/>
<text text-anchor="start" x="1046" y="-83.5" font-family="Helvetica,sans-Serif" font-size="10.00">llzk/Dialect/Function</text>
<text text-anchor="middle" x="1090.62" y="-72.25" font-family="Helvetica,sans-Serif" font-size="10.00">/IR/Dialect.h</text>
</a>
</g>
</g>
<!-- Node10&#45;&gt;Node19 -->
<g id="edge23_Node000010_Node000019" class="edge">
<title>Node10&#45;&gt;Node19</title>
<g id="a_edge23_Node000010_Node000019"><a xlink:title=" ">
<path fill="none" stroke="#63b8ff" d="M987.56,-138.15C1004.63,-128.97 1031.52,-114.52 1053.55,-102.68"/>
<polygon fill="#63b8ff" stroke="#63b8ff" points="1055.12,-105.81 1062.27,-97.99 1051.8,-99.64 1055.12,-105.81"/>
</a>
</g>
</g>
<!-- Node21 -->
<g id="Node000021" class="node">
<title>Node21</title>
<g id="a_Node000021"><a xlink:href="_global_2_i_r_2_dialect_8h.html" target="_top" xlink:title=" ">
<polygon fill="white" stroke="#666666" points="1256.38,-97 1160.88,-97 1160.88,-66.5 1256.38,-66.5 1256.38,-97"/>
<text text-anchor="start" x="1168.88" y="-83.5" font-family="Helvetica,sans-Serif" font-size="10.00">llzk/Dialect/Global</text>
<text text-anchor="middle" x="1208.62" y="-72.25" font-family="Helvetica,sans-Serif" font-size="10.00">/IR/Dialect.h</text>
</a>
</g>
</g>
<!-- Node10&#45;&gt;Node21 -->
<g id="edge26_Node000010_Node000021" class="edge">
<title>Node10&#45;&gt;Node21</title>
<g id="a_edge26_Node000010_Node000021"><a xlink:title=" ">
<path fill="none" stroke="#63b8ff" d="M1004.22,-138.15C1041.98,-127.91 1103.99,-111.11 1149.83,-98.68"/>
<polygon fill="#63b8ff" stroke="#63b8ff" points="1150.61,-102.1 1159.35,-96.1 1148.78,-95.34 1150.61,-102.1"/>
</a>
</g>
</g>
<!-- Node23 -->
<g id="Node000023" class="node">
<title>Node23</title>
<g id="a_Node000023"><a xlink:href="_l_l_z_k_2_i_r_2_dialect_8h.html" target="_top" xlink:title=" ">
<polygon fill="white" stroke="#666666" points="1378.88,-97 1274.38,-97 1274.38,-66.5 1378.88,-66.5 1378.88,-97"/>
<text text-anchor="start" x="1282.38" y="-83.5" font-family="Helvetica,sans-Serif" font-size="10.00">llzk/Dialect/LLZK/IR</text>
<text text-anchor="middle" x="1326.62" y="-72.25" font-family="Helvetica,sans-Serif" font-size="10.00">/Dialect.h</text>
</a>
</g>
</g>
<!-- Node10&#45;&gt;Node23 -->
<g id="edge30_Node000010_Node000023" class="edge">
<title>Node10&#45;&gt;Node23</title>
<g id="a_edge30_Node000010_Node000023"><a xlink:title=" ">
<path fill="none" stroke="#63b8ff" d="M1027.37,-138.63C1084.46,-129.73 1175.29,-114.92 1262.88,-97.49"/>
<polygon fill="#63b8ff" stroke="#63b8ff" points="1263.5,-100.93 1272.61,-95.53 1262.12,-94.07 1263.5,-100.93"/>
</a>
</g>
</g>
<!-- Node25 -->
<g id="Node000025" class="node">
<title>Node25</title>
<g id="a_Node000025"><a xlink:href="_string_2_i_r_2_dialect_8h.html" target="_top" xlink:title=" ">
<polygon fill="white" stroke="#666666" points="775.25,-97 682,-97 682,-66.5 775.25,-66.5 775.25,-97"/>
<text text-anchor="start" x="690" y="-83.5" font-family="Helvetica,sans-Serif" font-size="10.00">llzk/Dialect/String</text>
<text text-anchor="middle" x="728.62" y="-72.25" font-family="Helvetica,sans-Serif" font-size="10.00">/IR/Dialect.h</text>
</a>
</g>
</g>
<!-- Node10&#45;&gt;Node25 -->
<g id="edge34_Node000010_Node000025" class="edge">
<title>Node10&#45;&gt;Node25</title>
<g id="a_edge34_Node000010_Node000025"><a xlink:title=" ">
<path fill="none" stroke="#63b8ff" d="M936.47,-138.15C897.51,-127.76 833.16,-110.61 786.37,-98.14"/>
<polygon fill="#63b8ff" stroke="#63b8ff" points="787.5,-94.82 776.94,-95.63 785.7,-101.58 787.5,-94.82"/>
</a>
</g>
</g>
<!-- Node27 -->
<g id="Node000027" class="node">
<title>Node27</title>
<g id="a_Node000027"><a xlink:href="_struct_2_i_r_2_dialect_8h.html" target="_top" xlink:title=" ">
<polygon fill="white" stroke="#666666" points="1490.62,-97 1396.62,-97 1396.62,-66.5 1490.62,-66.5 1490.62,-97"/>
<text text-anchor="start" x="1404.62" y="-83.5" font-family="Helvetica,sans-Serif" font-size="10.00">llzk/Dialect/Struct</text>
<text text-anchor="middle" x="1443.62" y="-72.25" font-family="Helvetica,sans-Serif" font-size="10.00">/IR/Dialect.h</text>
</a>
</g>
</g>
<!-- Node10&#45;&gt;Node27 -->
<g id="edge37_Node000010_Node000027" class="edge">
<title>Node10&#45;&gt;Node27</title>
<g id="a_edge37_Node000010_Node000027"><a xlink:title=" ">
<path fill="none" stroke="#63b8ff" d="M1027.3,-142.76C1105.64,-136.04 1251.59,-121.67 1385.13,-97.31"/>
<polygon fill="#63b8ff" stroke="#63b8ff" points="1385.68,-100.77 1394.88,-95.51 1384.41,-93.89 1385.68,-100.77"/>
</a>
</g>
</g>
<!-- Node29 -->
<g id="Node000029" class="node">
<title>Node29</title>
<g id="a_Node000029"><a xlink:href="_undef_2_i_r_2_dialect_8h.html" target="_top" xlink:title=" ">
<polygon fill="white" stroke="#666666" points="1602.62,-97 1508.62,-97 1508.62,-66.5 1602.62,-66.5 1602.62,-97"/>
<text text-anchor="start" x="1516.62" y="-83.5" font-family="Helvetica,sans-Serif" font-size="10.00">llzk/Dialect/Undef</text>
<text text-anchor="middle" x="1555.62" y="-72.25" font-family="Helvetica,sans-Serif" font-size="10.00">/IR/Dialect.h</text>
</a>
</g>
</g>
<!-- Node10&#45;&gt;Node29 -->
<g id="edge40_Node000010_Node000029" class="edge">
<title>Node10&#45;&gt;Node29</title>
<g id="a_edge40_Node000010_Node000029"><a xlink:title=" ">
<path fill="none" stroke="#63b8ff" d="M1027.38,-144.74C1122.6,-139.9 1320.66,-127.15 1497.06,-97.26"/>
<polygon fill="#63b8ff" stroke="#63b8ff" points="1497.63,-100.72 1506.89,-95.58 1496.44,-93.82 1497.63,-100.72"/>
</a>
</g>
</g>
<!-- Node31 -->
<g id="Node000031" class="node">
<title>Node31</title>
<g id="a_Node000031"><a xlink:title=" ">
<polygon fill="#e0e0e0" stroke="#999999" points="206,-97 117.25,-97 117.25,-66.5 206,-66.5 206,-97"/>
<text text-anchor="start" x="125.25" y="-83.5" font-family="Helvetica,sans-Serif" font-size="10.00">mlir/Dialect/Arith</text>
<text text-anchor="middle" x="161.62" y="-72.25" font-family="Helvetica,sans-Serif" font-size="10.00">/IR/Arith.h</text>
</a>
</g>
</g>
<!-- Node10&#45;&gt;Node31 -->
<g id="edge43_Node000010_Node000031" class="edge">
<title>Node10&#45;&gt;Node31</title>
<g id="a_edge43_Node000010_Node000031"><a xlink:title=" ">
<path fill="none" stroke="#63b8ff" d="M934.03,-138.13C924.81,-136.14 914.9,-134.25 905.62,-133 605.01,-92.48 521.07,-143.16 217.62,-97.04"/>
<polygon fill="#63b8ff" stroke="#63b8ff" points="218.18,-93.59 207.76,-95.52 217.11,-100.5 218.18,-93.59"/>
</a>
</g>
</g>
<!-- Node32 -->
<g id="Node000032" class="node">
<title>Node32</title>
<g id="a_Node000032"><a xlink:title=" ">
<polygon fill="#e0e0e0" stroke="#999999" points="326.75,-97 224.5,-97 224.5,-66.5 326.75,-66.5 326.75,-97"/>
<text text-anchor="start" x="232.5" y="-83.5" font-family="Helvetica,sans-Serif" font-size="10.00">mlir/Dialect/SCF/IR</text>
<text text-anchor="middle" x="275.62" y="-72.25" font-family="Helvetica,sans-Serif" font-size="10.00">/SCF.h</text>
</a>
</g>
</g>
<!-- Node10&#45;&gt;Node32 -->
<g id="edge44_Node000010_Node000032" class="edge">
<title>Node10&#45;&gt;Node32</title>
<g id="a_edge44_Node000010_Node000032"><a xlink:title=" ">
<path fill="none" stroke="#63b8ff" d="M933.68,-138.13C924.56,-136.16 914.78,-134.28 905.62,-133 657.93,-98.23 588.7,-133.4 338.51,-97.25"/>
<polygon fill="#63b8ff" stroke="#63b8ff" points="339.13,-93.81 328.72,-95.81 338.11,-100.73 339.13,-93.81"/>
</a>
</g>
</g>
<!-- Node33 -->
<g id="Node000033" class="node">
<title>Node33</title>
<g id="a_Node000033"><a xlink:title=" ">
<polygon fill="#e0e0e0" stroke="#999999" points="436.12,-91.38 345.12,-91.38 345.12,-72.12 436.12,-72.12 436.12,-91.38"/>
<text text-anchor="middle" x="390.62" y="-77.88" font-family="Helvetica,sans-Serif" font-size="10.00">mlir/Pass/Pass.h</text>
</a>
</g>
</g>
<!-- Node10&#45;&gt;Node33 -->
<g id="edge45_Node000010_Node000033" class="edge">
<title>Node10&#45;&gt;Node33</title>
<g id="a_edge45_Node000010_Node000033"><a xlink:title=" ">
<path fill="none" stroke="#63b8ff" d="M933.32,-138.15C924.3,-136.2 914.65,-134.34 905.62,-133 702.33,-102.92 647.25,-131.36 444.62,-97 440.56,-96.31 436.36,-95.46 432.18,-94.51"/>
<polygon fill="#63b8ff" stroke="#63b8ff" points="433.27,-91.18 422.73,-92.21 431.62,-97.98 433.27,-91.18"/>
</a>
</g>
</g>
<!-- Node11&#45;&gt;Node4 -->
<g id="edge12_Node000011_Node000004" class="edge">
<title>Node11&#45;&gt;Node4</title>
<g id="a_edge12_Node000011_Node000004"><a xlink:title=" ">
<path fill="none" stroke="#63b8ff" d="M545.4,-68.18C548.51,-67.55 551.6,-66.98 554.62,-66.5 816.3,-25.08 887.62,-69.75 1149.62,-30.5 1154.51,-29.77 1159.57,-28.83 1164.6,-27.78"/>
<polygon fill="#63b8ff" stroke="#63b8ff" points="1164.97,-31.28 1173.96,-25.68 1163.44,-24.45 1164.97,-31.28"/>
</a>
</g>
</g>
<!-- Node12 -->
<g id="Node000012" class="node">
<title>Node12</title>
<g id="a_Node000012"><a xlink:href="_array_2_i_r_2_dialect_8h_8inc.html" target="_top" xlink:title=" ">
<polygon fill="white" stroke="#666666" points="542.12,-30.5 451.12,-30.5 451.12,0 542.12,0 542.12,-30.5"/>
<text text-anchor="start" x="459.12" y="-17" font-family="Helvetica,sans-Serif" font-size="10.00">llzk/Dialect/Array</text>
<text text-anchor="middle" x="496.62" y="-5.75" font-family="Helvetica,sans-Serif" font-size="10.00">/IR/Dialect.h.inc</text>
</a>
</g>
</g>
<!-- Node11&#45;&gt;Node12 -->
<g id="edge13_Node000011_Node000012" class="edge">
<title>Node11&#45;&gt;Node12</title>
<g id="a_edge13_Node000011_Node000012"><a xlink:title=" ">
<path fill="none" stroke="#63b8ff" d="M498.94,-66.11C498.61,-59.02 498.21,-50.29 497.83,-42.13"/>
<polygon fill="#63b8ff" stroke="#63b8ff" points="501.33,-42.17 497.37,-32.34 494.34,-42.49 501.33,-42.17"/>
</a>
</g>
</g>
<!-- Node13&#45;&gt;Node4 -->
<g id="edge15_Node000013_Node000004" class="edge">
<title>Node13&#45;&gt;Node4</title>
<g id="a_edge15_Node000013_Node000004"><a xlink:title=" ">
<path fill="none" stroke="#63b8ff" d="M664.37,-67.94C667.15,-67.41 669.92,-66.93 672.62,-66.5 882.64,-33.44 939.61,-63.56 1149.62,-30.5 1154.31,-29.76 1159.17,-28.84 1164,-27.83"/>
<polygon fill="#63b8ff" stroke="#63b8ff" points="1164.65,-31.27 1173.64,-25.67 1163.12,-24.44 1164.65,-31.27"/>
</a>
</g>
</g>
<!-- Node14 -->
<g id="Node000014" class="node">
<title>Node14</title>
<g id="a_Node000014"><a xlink:href="_bool_2_i_r_2_dialect_8h_8inc.html" target="_top" xlink:title=" ">
<polygon fill="white" stroke="#666666" points="661,-30.5 560.25,-30.5 560.25,0 661,0 661,-30.5"/>
<text text-anchor="start" x="568.25" y="-17" font-family="Helvetica,sans-Serif" font-size="10.00">llzk/Dialect/Bool/IR</text>
<text text-anchor="middle" x="610.62" y="-5.75" font-family="Helvetica,sans-Serif" font-size="10.00">/Dialect.h.inc</text>
</a>
</g>
</g>
<!-- Node13&#45;&gt;Node14 -->
<g id="edge16_Node000013_Node000014" class="edge">
<title>Node13&#45;&gt;Node14</title>
<g id="a_edge16_Node000013_Node000014"><a xlink:title=" ">
<path fill="none" stroke="#63b8ff" d="M612.94,-66.11C612.61,-59.02 612.21,-50.29 611.83,-42.13"/>
<polygon fill="#63b8ff" stroke="#63b8ff" points="615.33,-42.17 611.37,-32.34 608.34,-42.49 615.33,-42.17"/>
</a>
</g>
</g>
<!-- Node15&#45;&gt;Node4 -->
<g id="edge18_Node000015_Node000004" class="edge">
<title>Node15&#45;&gt;Node4</title>
<g id="a_edge18_Node000015_Node000004"><a xlink:title=" ">
<path fill="none" stroke="#63b8ff" d="M903.73,-68.23C906.74,-67.62 909.72,-67.04 912.62,-66.5 1017.35,-46.91 1045.08,-51.03 1149.62,-30.5 1153.69,-29.7 1157.9,-28.81 1162.11,-27.88"/>
<polygon fill="#63b8ff" stroke="#63b8ff" points="1162.73,-31.33 1171.69,-25.68 1161.16,-24.51 1162.73,-31.33"/>
</a>
</g>
</g>
<!-- Node16 -->
<g id="Node000016" class="node">
<title>Node16</title>
<g id="a_Node000016"><a xlink:href="_constrain_2_i_r_2_dialect_8h_8inc.html" target="_top" xlink:title=" ">
<polygon fill="white" stroke="#666666" points="900.5,-30.5 790.75,-30.5 790.75,0 900.5,0 900.5,-30.5"/>
<text text-anchor="start" x="798.75" y="-17" font-family="Helvetica,sans-Serif" font-size="10.00">llzk/Dialect/Constrain</text>
<text text-anchor="middle" x="845.62" y="-5.75" font-family="Helvetica,sans-Serif" font-size="10.00">/IR/Dialect.h.inc</text>
</a>
</g>
</g>
<!-- Node15&#45;&gt;Node16 -->
<g id="edge19_Node000015_Node000016" class="edge">
<title>Node15&#45;&gt;Node16</title>
<g id="a_edge19_Node000015_Node000016"><a xlink:title=" ">
<path fill="none" stroke="#63b8ff" d="M847.94,-66.11C847.61,-59.02 847.21,-50.29 846.83,-42.13"/>
<polygon fill="#63b8ff" stroke="#63b8ff" points="850.33,-42.17 846.37,-32.34 843.34,-42.49 850.33,-42.17"/>
</a>
</g>
</g>
<!-- Node17&#45;&gt;Node4 -->
<g id="edge21_Node000017_Node000004" class="edge">
<title>Node17&#45;&gt;Node4</title>
<g id="a_edge21_Node000017_Node000004"><a xlink:title=" ">
<path fill="none" stroke="#63b8ff" d="M1019.94,-67.39C1062.38,-55.88 1123.07,-39.43 1164.07,-28.32"/>
<polygon fill="#63b8ff" stroke="#63b8ff" points="1164.88,-31.73 1173.62,-25.74 1163.05,-24.97 1164.88,-31.73"/>
</a>
</g>
</g>
<!-- Node18 -->
<g id="Node000018" class="node">
<title>Node18</title>
<g id="a_Node000018"><a xlink:href="_felt_2_i_r_2_dialect_8h_8inc.html" target="_top" xlink:title=" ">
<polygon fill="white" stroke="#666666" points="1016.5,-30.5 918.75,-30.5 918.75,0 1016.5,0 1016.5,-30.5"/>
<text text-anchor="start" x="926.75" y="-17" font-family="Helvetica,sans-Serif" font-size="10.00">llzk/Dialect/Felt/IR</text>
<text text-anchor="middle" x="967.62" y="-5.75" font-family="Helvetica,sans-Serif" font-size="10.00">/Dialect.h.inc</text>
</a>
</g>
</g>
<!-- Node17&#45;&gt;Node18 -->
<g id="edge22_Node000017_Node000018" class="edge">
<title>Node17&#45;&gt;Node18</title>
<g id="a_edge22_Node000017_Node000018"><a xlink:title=" ">
<path fill="none" stroke="#63b8ff" d="M969.94,-66.11C969.61,-59.02 969.21,-50.29 968.83,-42.13"/>
<polygon fill="#63b8ff" stroke="#63b8ff" points="972.33,-42.17 968.37,-32.34 965.34,-42.49 972.33,-42.17"/>
</a>
</g>
</g>
<!-- Node19&#45;&gt;Node4 -->
<g id="edge24_Node000019_Node000004" class="edge">
<title>Node19&#45;&gt;Node4</title>
<g id="a_edge24_Node000019_Node000004"><a xlink:title=" ">
<path fill="none" stroke="#63b8ff" d="M1117.4,-66.11C1136.79,-55.51 1162.89,-41.25 1182.2,-30.7"/>
<polygon fill="#63b8ff" stroke="#63b8ff" points="1183.72,-33.85 1190.81,-25.99 1180.36,-27.71 1183.72,-33.85"/>
</a>
</g>
</g>
<!-- Node20 -->
<g id="Node000020" class="node">
<title>Node20</title>
<g id="a_Node000020"><a xlink:href="_function_2_i_r_2_dialect_8h_8inc.html" target="_top" xlink:title=" ">
<polygon fill="white" stroke="#666666" points="1140.25,-30.5 1035,-30.5 1035,0 1140.25,0 1140.25,-30.5"/>
<text text-anchor="start" x="1043" y="-17" font-family="Helvetica,sans-Serif" font-size="10.00">llzk/Dialect/Function</text>
<text text-anchor="middle" x="1087.62" y="-5.75" font-family="Helvetica,sans-Serif" font-size="10.00">/IR/Dialect.h.inc</text>
</a>
</g>
</g>
<!-- Node19&#45;&gt;Node20 -->
<g id="edge25_Node000019_Node000020" class="edge">
<title>Node19&#45;&gt;Node20</title>
<g id="a_edge25_Node000019_Node000020"><a xlink:title=" ">
<path fill="none" stroke="#63b8ff" d="M1089.94,-66.11C1089.61,-59.02 1089.21,-50.29 1088.83,-42.13"/>
<polygon fill="#63b8ff" stroke="#63b8ff" points="1092.33,-42.17 1088.37,-32.34 1085.34,-42.49 1092.33,-42.17"/>
</a>
</g>
</g>
<!-- Node21&#45;&gt;Node4 -->
<g id="edge27_Node000021_Node000004" class="edge">
<title>Node21&#45;&gt;Node4</title>
<g id="a_edge27_Node000021_Node000004"><a xlink:title=" ">
<path fill="none" stroke="#63b8ff" d="M1208.62,-66.11C1208.62,-57.33 1208.62,-46.02 1208.62,-36.4"/>
<polygon fill="#63b8ff" stroke="#63b8ff" points="1212.13,-36.59 1208.63,-26.59 1205.13,-36.59 1212.13,-36.59"/>
</a>
</g>
</g>
<!-- Node22 -->
<g id="Node000022" class="node">
<title>Node22</title>
<g id="a_Node000022"><a xlink:href="_global_2_i_r_2_dialect_8h_8inc.html" target="_top" xlink:title=" ">
<polygon fill="white" stroke="#666666" points="1373.38,-30.5 1277.88,-30.5 1277.88,0 1373.38,0 1373.38,-30.5"/>
<text text-anchor="start" x="1285.88" y="-17" font-family="Helvetica,sans-Serif" font-size="10.00">llzk/Dialect/Global</text>
<text text-anchor="middle" x="1325.62" y="-5.75" font-family="Helvetica,sans-Serif" font-size="10.00">/IR/Dialect.h.inc</text>
</a>
</g>
</g>
<!-- Node21&#45;&gt;Node22 -->
<g id="edge28_Node000021_Node000022" class="edge">
<title>Node21&#45;&gt;Node22</title>
<g id="a_edge28_Node000021_Node000022"><a xlink:title=" ">
<path fill="none" stroke="#63b8ff" d="M1235.17,-66.11C1251.18,-57.29 1271.79,-45.93 1289.29,-36.28"/>
<polygon fill="#63b8ff" stroke="#63b8ff" points="1290.79,-39.45 1297.86,-31.56 1287.41,-33.32 1290.79,-39.45"/>
</a>
</g>
</g>
<!-- Node23&#45;&gt;Node4 -->
<g id="edge31_Node000023_Node000004" class="edge">
<title>Node23&#45;&gt;Node4</title>
<g id="a_edge31_Node000023_Node000004"><a xlink:title=" ">
<path fill="none" stroke="#63b8ff" d="M1299.85,-66.11C1280.46,-55.51 1254.36,-41.25 1235.05,-30.7"/>
<polygon fill="#63b8ff" stroke="#63b8ff" points="1236.89,-27.71 1226.44,-25.99 1233.53,-33.85 1236.89,-27.71"/>
</a>
</g>
</g>
<!-- Node24 -->
<g id="Node000024" class="node">
<title>Node24</title>
<g id="a_Node000024"><a xlink:href="_l_l_z_k_2_i_r_2_dialect_8h_8inc.html" target="_top" xlink:title=" ">
<polygon fill="white" stroke="#666666" points="1495.88,-30.5 1391.38,-30.5 1391.38,0 1495.88,0 1495.88,-30.5"/>
<text text-anchor="start" x="1399.38" y="-17" font-family="Helvetica,sans-Serif" font-size="10.00">llzk/Dialect/LLZK/IR</text>
<text text-anchor="middle" x="1443.62" y="-5.75" font-family="Helvetica,sans-Serif" font-size="10.00">/Dialect.h.inc</text>
</a>
</g>
</g>
<!-- Node23&#45;&gt;Node24 -->
<g id="edge32_Node000023_Node000024" class="edge">
<title>Node23&#45;&gt;Node24</title>
<g id="a_edge32_Node000023_Node000024"><a xlink:title=" ">
<path fill="none" stroke="#63b8ff" d="M1353.17,-66.11C1369.18,-57.29 1389.79,-45.93 1407.29,-36.28"/>
<polygon fill="#63b8ff" stroke="#63b8ff" points="1408.79,-39.45 1415.86,-31.56 1405.41,-33.32 1408.79,-39.45"/>
</a>
</g>
</g>
<!-- Node25&#45;&gt;Node4 -->
<g id="edge35_Node000025_Node000004" class="edge">
<title>Node25&#45;&gt;Node4</title>
<g id="a_edge35_Node000025_Node000004"><a xlink:title=" ">
<path fill="none" stroke="#63b8ff" d="M775.57,-68.26C778.62,-67.61 781.66,-67.02 784.62,-66.5 945.18,-38.32 988.9,-57.7 1149.62,-30.5 1154.18,-29.73 1158.91,-28.8 1163.62,-27.8"/>
<polygon fill="#63b8ff" stroke="#63b8ff" points="1164.01,-31.3 1173,-25.68 1162.47,-24.47 1164.01,-31.3"/>
</a>
</g>
</g>
<!-- Node26 -->
<g id="Node000026" class="node">
<title>Node26</title>
<g id="a_Node000026"><a xlink:href="_string_2_i_r_2_dialect_8h_8inc.html" target="_top" xlink:title=" ">
<polygon fill="white" stroke="#666666" points="772.25,-30.5 679,-30.5 679,0 772.25,0 772.25,-30.5"/>
<text text-anchor="start" x="687" y="-17" font-family="Helvetica,sans-Serif" font-size="10.00">llzk/Dialect/String</text>
<text text-anchor="middle" x="725.62" y="-5.75" font-family="Helvetica,sans-Serif" font-size="10.00">/IR/Dialect.h.inc</text>
</a>
</g>
</g>
<!-- Node25&#45;&gt;Node26 -->
<g id="edge36_Node000025_Node000026" class="edge">
<title>Node25&#45;&gt;Node26</title>
<g id="a_edge36_Node000025_Node000026"><a xlink:title=" ">
<path fill="none" stroke="#63b8ff" d="M727.94,-66.11C727.61,-59.02 727.21,-50.29 726.83,-42.13"/>
<polygon fill="#63b8ff" stroke="#63b8ff" points="730.33,-42.17 726.37,-32.34 723.34,-42.49 730.33,-42.17"/>
</a>
</g>
</g>
<!-- Node27&#45;&gt;Node4 -->
<g id="edge38_Node000027_Node000004" class="edge">
<title>Node27&#45;&gt;Node4</title>
<g id="a_edge38_Node000027_Node000004"><a xlink:title=" ">
<path fill="none" stroke="#63b8ff" d="M1396.35,-67.78C1354.45,-56.28 1293.74,-39.61 1252.8,-28.37"/>
<polygon fill="#63b8ff" stroke="#63b8ff" points="1253.84,-25.03 1243.27,-25.76 1251.99,-31.78 1253.84,-25.03"/>
</a>
</g>
</g>
<!-- Node28 -->
<g id="Node000028" class="node">
<title>Node28</title>
<g id="a_Node000028"><a xlink:href="_struct_2_i_r_2_dialect_8h_8inc.html" target="_top" xlink:title=" ">
<polygon fill="white" stroke="#666666" points="1607.62,-30.5 1513.62,-30.5 1513.62,0 1607.62,0 1607.62,-30.5"/>
<text text-anchor="start" x="1521.62" y="-17" font-family="Helvetica,sans-Serif" font-size="10.00">llzk/Dialect/Struct</text>
<text text-anchor="middle" x="1560.62" y="-5.75" font-family="Helvetica,sans-Serif" font-size="10.00">/IR/Dialect.h.inc</text>
</a>
</g>
</g>
<!-- Node27&#45;&gt;Node28 -->
<g id="edge39_Node000027_Node000028" class="edge">
<title>Node27&#45;&gt;Node28</title>
<g id="a_edge39_Node000027_Node000028"><a xlink:title=" ">
<path fill="none" stroke="#63b8ff" d="M1470.17,-66.11C1486.18,-57.29 1506.79,-45.93 1524.29,-36.28"/>
<polygon fill="#63b8ff" stroke="#63b8ff" points="1525.79,-39.45 1532.86,-31.56 1522.41,-33.32 1525.79,-39.45"/>
</a>
</g>
</g>
<!-- Node29&#45;&gt;Node4 -->
<g id="edge41_Node000029_Node000004" class="edge">
<title>Node29&#45;&gt;Node4</title>
<g id="a_edge41_Node000029_Node000004"><a xlink:title=" ">
<path fill="none" stroke="#63b8ff" d="M1508.34,-68.38C1505.4,-67.72 1502.48,-67.08 1499.62,-66.5 1397.83,-45.66 1370.58,-50.52 1268.62,-30.5 1264.37,-29.67 1259.97,-28.74 1255.56,-27.77"/>
<polygon fill="#63b8ff" stroke="#63b8ff" points="1256.7,-24.44 1246.17,-25.64 1255.15,-31.26 1256.7,-24.44"/>
</a>
</g>
</g>
<!-- Node30 -->
<g id="Node000030" class="node">
<title>Node30</title>
<g id="a_Node000030"><a xlink:href="_undef_2_i_r_2_dialect_8h_8inc.html" target="_top" xlink:title=" ">
<polygon fill="white" stroke="#666666" points="1719.62,-30.5 1625.62,-30.5 1625.62,0 1719.62,0 1719.62,-30.5"/>
<text text-anchor="start" x="1633.62" y="-17" font-family="Helvetica,sans-Serif" font-size="10.00">llzk/Dialect/Undef</text>
<text text-anchor="middle" x="1672.62" y="-5.75" font-family="Helvetica,sans-Serif" font-size="10.00">/IR/Dialect.h.inc</text>
</a>
</g>
</g>
<!-- Node29&#45;&gt;Node30 -->
<g id="edge42_Node000029_Node000030" class="edge">
<title>Node29&#45;&gt;Node30</title>
<g id="a_edge42_Node000029_Node000030"><a xlink:title=" ">
<path fill="none" stroke="#63b8ff" d="M1582.17,-66.11C1598.18,-57.29 1618.79,-45.93 1636.29,-36.28"/>
<polygon fill="#63b8ff" stroke="#63b8ff" points="1637.79,-39.45 1644.86,-31.56 1634.41,-33.32 1637.79,-39.45"/>
</a>
</g>
</g>
<!-- Node35&#45;&gt;Node4 -->
<g id="edge48_Node000035_Node000004" class="edge">
<title>Node35&#45;&gt;Node4</title>
<g id="a_edge48_Node000035_Node000004"><a xlink:title=" ">
<path fill="none" stroke="#63b8ff" d="M2038.15,-209.47C1971,-203.03 1859.52,-188.83 1827.62,-163.5 1790.7,-134.17 1823.23,-93.58 1784.62,-66.5 1737.57,-33.5 1325.44,-39.17 1268.62,-30.5 1263.73,-29.75 1258.65,-28.81 1253.6,-27.77"/>
<polygon fill="#63b8ff" stroke="#63b8ff" points="1254.7,-24.43 1244.18,-25.69 1253.19,-31.26 1254.7,-24.43"/>
</a>
</g>
</g>
<!-- Node36 -->
<g id="Node000036" class="node">
<title>Node36</title>
<g id="a_Node000036"><a xlink:title=" ">
<polygon fill="#e0e0e0" stroke="#999999" points="2357.62,-157.88 2239.62,-157.88 2239.62,-138.62 2357.62,-138.62 2357.62,-157.88"/>
<text text-anchor="middle" x="2298.62" y="-144.38" font-family="Helvetica,sans-Serif" font-size="10.00">mlir/IR/OwningOpRef.h</text>
</a>
</g>
</g>
<!-- Node35&#45;&gt;Node36 -->
<g id="edge49_Node000035_Node000036" class="edge">
<title>Node35&#45;&gt;Node36</title>
<g id="a_edge49_Node000035_Node000036"><a xlink:title=" ">
<path fill="none" stroke="#63b8ff" d="M2138.08,-199.03C2174.54,-187.73 2224.33,-172.29 2258.74,-161.62"/>
<polygon fill="#63b8ff" stroke="#63b8ff" points="2259.38,-165.08 2267.9,-158.78 2257.31,-158.4 2259.38,-165.08"/>
</a>
</g>
</g>
<!-- Node37 -->
<g id="Node000037" class="node">
<title>Node37</title>
<g id="a_Node000037"><a xlink:title=" ">
<polygon fill="#e0e0e0" stroke="#999999" points="2479.88,-157.88 2375.38,-157.88 2375.38,-138.62 2479.88,-138.62 2479.88,-157.88"/>
<text text-anchor="middle" x="2427.62" y="-144.38" font-family="Helvetica,sans-Serif" font-size="10.00">mlir/Support/LLVM.h</text>
</a>
</g>
</g>
<!-- Node35&#45;&gt;Node37 -->
<g id="edge50_Node000035_Node000037" class="edge">
<title>Node35&#45;&gt;Node37</title>
<g id="a_edge50_Node000035_Node000037"><a xlink:title=" ">
<path fill="none" stroke="#63b8ff" d="M2143.17,-204.98C2198.81,-195.5 2289.13,-179.6 2366.62,-163.5 2370.64,-162.67 2374.8,-161.77 2378.97,-160.84"/>
<polygon fill="#63b8ff" stroke="#63b8ff" points="2379.49,-164.31 2388.47,-158.69 2377.94,-157.49 2379.49,-164.31"/>
</a>
</g>
</g>
<!-- Node38 -->
<g id="Node000038" class="node">
<title>Node38</title>
<g id="a_Node000038"><a xlink:title=" ">
<polygon fill="#e0e0e0" stroke="#999999" points="2637.12,-157.88 2498.12,-157.88 2498.12,-138.62 2637.12,-138.62 2637.12,-157.88"/>
<text text-anchor="middle" x="2567.62" y="-144.38" font-family="Helvetica,sans-Serif" font-size="10.00">mlir/Support/LogicalResult.h</text>
</a>
</g>
</g>
<!-- Node35&#45;&gt;Node38 -->
<g id="edge51_Node000035_Node000038" class="edge">
<title>Node35&#45;&gt;Node38</title>
<g id="a_edge51_Node000035_Node000038"><a xlink:title=" ">
<path fill="none" stroke="#63b8ff" d="M2143.22,-208.01C2219.5,-199.47 2365.22,-182.41 2488.62,-163.5 2495.07,-162.51 2501.79,-161.41 2508.48,-160.27"/>
<polygon fill="#63b8ff" stroke="#63b8ff" points="2508.91,-163.75 2518.16,-158.58 2507.71,-156.85 2508.91,-163.75"/>
</a>
</g>
</g>
<!-- Node39 -->
<g id="Node000039" class="node">
<title>Node39</title>
<g id="a_Node000039"><a xlink:title=" ">
<polygon fill="#e0e0e0" stroke="#999999" points="1955,-157.88 1836.25,-157.88 1836.25,-138.62 1955,-138.62 1955,-157.88"/>
<text text-anchor="middle" x="1895.62" y="-144.38" font-family="Helvetica,sans-Serif" font-size="10.00">llvm/ADT/SmallString.h</text>
</a>
</g>
</g>
<!-- Node35&#45;&gt;Node39 -->
<g id="edge52_Node000035_Node000039" class="edge">
<title>Node35&#45;&gt;Node39</title>
<g id="a_edge52_Node000035_Node000039"><a xlink:title=" ">
<path fill="none" stroke="#63b8ff" d="M2046.38,-199.11C2012.5,-187.91 1966.26,-172.61 1933.95,-161.93"/>
<polygon fill="#63b8ff" stroke="#63b8ff" points="1935.18,-158.65 1924.59,-158.83 1932.98,-165.29 1935.18,-158.65"/>
</a>
</g>
</g>
<!-- Node40 -->
<g id="Node000040" class="node">
<title>Node40</title>
<g id="a_Node000040"><a xlink:title=" ">
<polygon fill="#e0e0e0" stroke="#999999" points="2075.75,-157.88 1973.5,-157.88 1973.5,-138.62 2075.75,-138.62 2075.75,-157.88"/>
<text text-anchor="middle" x="2024.62" y="-144.38" font-family="Helvetica,sans-Serif" font-size="10.00">llvm/Support/Path.h</text>
</a>
</g>
</g>
<!-- Node35&#45;&gt;Node40 -->
<g id="edge53_Node000035_Node000040" class="edge">
<title>Node35&#45;&gt;Node40</title>
<g id="a_edge53_Node000035_Node000040"><a xlink:title=" ">
<path fill="none" stroke="#63b8ff" d="M2075.65,-199.11C2065.55,-189.24 2052.19,-176.19 2041.68,-165.92"/>
<polygon fill="#63b8ff" stroke="#63b8ff" points="2044.33,-163.62 2034.74,-159.13 2039.44,-168.62 2044.33,-163.62"/>
</a>
</g>
</g>
<!-- Node41 -->
<g id="Node000041" class="node">
<title>Node41</title>
<g id="a_Node000041"><a xlink:title=" ">
<polygon fill="#e0e0e0" stroke="#999999" points="2221.88,-157.88 2093.38,-157.88 2093.38,-138.62 2221.88,-138.62 2221.88,-157.88"/>
<text text-anchor="middle" x="2157.62" y="-144.38" font-family="Helvetica,sans-Serif" font-size="10.00">llvm/Support/SourceMgr.h</text>
</a>
</g>
</g>
<!-- Node35&#45;&gt;Node41 -->
<g id="edge54_Node000035_Node000041" class="edge">
<title>Node35&#45;&gt;Node41</title>
<g id="a_edge54_Node000035_Node000041"><a xlink:title=" ">
<path fill="none" stroke="#63b8ff" d="M2105.83,-199.11C2116.08,-189.24 2129.64,-176.19 2140.31,-165.92"/>
<polygon fill="#63b8ff" stroke="#63b8ff" points="2142.59,-168.58 2147.37,-159.12 2137.74,-163.54 2142.59,-168.58"/>
</a>
</g>
</g>
</g>
</svg>
