<?xml version="1.0" encoding="UTF-8" standalone="no"?>
<!DOCTYPE svg PUBLIC "-//W3C//DTD SVG 1.1//EN"
 "http://www.w3.org/Graphics/SVG/1.1/DTD/svg11.dtd">
<!-- Generated by graphviz version 12.2.1 (0)
 -->
<!-- Title: include/llzk/Dialect/Shared/OpHelpers.h Pages: 1 -->
<svg width="966pt" height="149pt"
 viewBox="0.00 0.00 965.88 149.00" xmlns="http://www.w3.org/2000/svg" xmlns:xlink="http://www.w3.org/1999/xlink">
<g id="graph0" class="graph" transform="scale(1 1) rotate(0) translate(4 145)">
<title>include/llzk/Dialect/Shared/OpHelpers.h</title>
<!-- Node1 -->
<g id="Node000001" class="node">
<title>Node1</title>
<g id="a_Node000001"><a xlink:title=" ">
<polygon fill="#999999" stroke="#666666" points="537.75,-141 430.25,-141 430.25,-110.5 537.75,-110.5 537.75,-141"/>
<text text-anchor="start" x="438.25" y="-127.5" font-family="Helvetica,sans-Serif" font-size="10.00">include/llzk/Dialect</text>
<text text-anchor="middle" x="484" y="-116.25" font-family="Helvetica,sans-Serif" font-size="10.00">/Shared/OpHelpers.h</text>
</a>
</g>
</g>
<!-- Node2 -->
<g id="Node000002" class="node">
<title>Node2</title>
<g id="a_Node000002"><a xlink:href="_affine_helper_8h.html" target="_top" xlink:title=" ">
<polygon fill="white" stroke="#666666" points="374.75,-74.5 261.25,-74.5 261.25,-55.25 374.75,-55.25 374.75,-74.5"/>
<text text-anchor="middle" x="318" y="-61" font-family="Helvetica,sans-Serif" font-size="10.00">llzk/Util/AffineHelper.h</text>
</a>
</g>
</g>
<!-- Node1&#45;&gt;Node2 -->
<g id="edge1_Node000001_Node000002" class="edge">
<title>Node1&#45;&gt;Node2</title>
<g id="a_edge1_Node000001_Node000002"><a xlink:title=" ">
<path fill="none" stroke="#63b8ff" d="M442.54,-110.05C415.31,-100.39 380.06,-87.88 354.01,-78.65"/>
<polygon fill="#63b8ff" stroke="#63b8ff" points="355.48,-75.45 344.88,-75.41 353.14,-82.05 355.48,-75.45"/>
</a>
</g>
</g>
<!-- Node4 -->
<g id="Node000004" class="node">
<title>Node4</title>
<g id="a_Node000004"><a xlink:title=" ">
<polygon fill="#e0e0e0" stroke="#999999" points="136,-19.25 0,-19.25 0,0 136,0 136,-19.25"/>
<text text-anchor="middle" x="68" y="-5.75" font-family="Helvetica,sans-Serif" font-size="10.00">mlir/IR/OpImplementation.h</text>
</a>
</g>
</g>
<!-- Node1&#45;&gt;Node4 -->
<g id="edge8_Node000001_Node000004" class="edge">
<title>Node1&#45;&gt;Node4</title>
<g id="a_edge8_Node000001_Node000004"><a xlink:title=" ">
<path fill="none" stroke="#63b8ff" d="M430.1,-114.99C382.79,-105.97 312.31,-91.43 252,-74.5 198.75,-59.55 138.42,-37.62 101.81,-23.74"/>
<polygon fill="#63b8ff" stroke="#63b8ff" points="103.24,-20.55 92.65,-20.25 100.75,-27.09 103.24,-20.55"/>
</a>
</g>
</g>
<!-- Node5 -->
<g id="Node000005" class="node">
<title>Node5</title>
<g id="a_Node000005"><a xlink:title=" ">
<polygon fill="#e0e0e0" stroke="#999999" points="628.25,-19.25 529.75,-19.25 529.75,0 628.25,0 628.25,-19.25"/>
<text text-anchor="middle" x="579" y="-5.75" font-family="Helvetica,sans-Serif" font-size="10.00">mlir/IR/Operation.h</text>
</a>
</g>
</g>
<!-- Node1&#45;&gt;Node5 -->
<g id="edge9_Node000001_Node000005" class="edge">
<title>Node1&#45;&gt;Node5</title>
<g id="a_edge9_Node000001_Node000005"><a xlink:title=" ">
<path fill="none" stroke="#63b8ff" d="M455.61,-110.17C432.81,-96.51 406.89,-75.25 422,-55.25 433.89,-39.51 479.3,-27.69 518.25,-20.18"/>
<polygon fill="#63b8ff" stroke="#63b8ff" points="518.87,-23.62 528.06,-18.36 517.59,-16.74 518.87,-23.62"/>
</a>
</g>
</g>
<!-- Node8 -->
<g id="Node000008" class="node">
<title>Node8</title>
<g id="a_Node000008"><a xlink:href="_constants_8h.html" target="_top" xlink:title=" ">
<polygon fill="white" stroke="#666666" points="536.62,-74.5 431.38,-74.5 431.38,-55.25 536.62,-55.25 536.62,-74.5"/>
<text text-anchor="middle" x="484" y="-61" font-family="Helvetica,sans-Serif" font-size="10.00">llzk/Util/Constants.h</text>
</a>
</g>
</g>
<!-- Node1&#45;&gt;Node8 -->
<g id="edge7_Node000001_Node000008" class="edge">
<title>Node1&#45;&gt;Node8</title>
<g id="a_edge7_Node000001_Node000008"><a xlink:title=" ">
<path fill="none" stroke="#63b8ff" d="M484,-110.2C484,-102.96 484,-94.09 484,-86.19"/>
<polygon fill="#63b8ff" stroke="#63b8ff" points="487.5,-86.46 484,-76.46 480.5,-86.46 487.5,-86.46"/>
</a>
</g>
</g>
<!-- Node9 -->
<g id="Node000009" class="node">
<title>Node9</title>
<g id="a_Node000009"><a xlink:title=" ">
<polygon fill="#e0e0e0" stroke="#999999" points="693.5,-74.5 554.5,-74.5 554.5,-55.25 693.5,-55.25 693.5,-74.5"/>
<text text-anchor="middle" x="624" y="-61" font-family="Helvetica,sans-Serif" font-size="10.00">mlir/Support/LogicalResult.h</text>
</a>
</g>
</g>
<!-- Node1&#45;&gt;Node9 -->
<g id="edge10_Node000001_Node000009" class="edge">
<title>Node1&#45;&gt;Node9</title>
<g id="a_edge10_Node000001_Node000009"><a xlink:title=" ">
<path fill="none" stroke="#63b8ff" d="M518.97,-110.05C541.41,-100.6 570.34,-88.44 592.15,-79.27"/>
<polygon fill="#63b8ff" stroke="#63b8ff" points="593.27,-82.59 601.13,-75.49 590.56,-76.14 593.27,-82.59"/>
</a>
</g>
</g>
<!-- Node10 -->
<g id="Node000010" class="node">
<title>Node10</title>
<g id="a_Node000010"><a xlink:title=" ">
<polygon fill="#e0e0e0" stroke="#999999" points="830.38,-74.5 711.62,-74.5 711.62,-55.25 830.38,-55.25 830.38,-74.5"/>
<text text-anchor="middle" x="771" y="-61" font-family="Helvetica,sans-Serif" font-size="10.00">llvm/ADT/SmallString.h</text>
</a>
</g>
</g>
<!-- Node1&#45;&gt;Node10 -->
<g id="edge11_Node000001_Node000010" class="edge">
<title>Node1&#45;&gt;Node10</title>
<g id="a_edge11_Node000001_Node000010"><a xlink:title=" ">
<path fill="none" stroke="#63b8ff" d="M537.98,-113.68C588.7,-103.27 664.27,-87.77 715.49,-77.26"/>
<polygon fill="#63b8ff" stroke="#63b8ff" points="716.09,-80.71 725.18,-75.27 714.69,-73.85 716.09,-80.71"/>
</a>
</g>
</g>
<!-- Node11 -->
<g id="Node000011" class="node">
<title>Node11</title>
<g id="a_Node000011"><a xlink:title=" ">
<polygon fill="#e0e0e0" stroke="#999999" points="957.88,-74.5 848.12,-74.5 848.12,-55.25 957.88,-55.25 957.88,-74.5"/>
<text text-anchor="middle" x="903" y="-61" font-family="Helvetica,sans-Serif" font-size="10.00">llvm/ADT/StringRef.h</text>
</a>
</g>
</g>
<!-- Node1&#45;&gt;Node11 -->
<g id="edge12_Node000001_Node000011" class="edge">
<title>Node1&#45;&gt;Node11</title>
<g id="a_edge12_Node000001_Node000011"><a xlink:title=" ">
<path fill="none" stroke="#63b8ff" d="M537.92,-117.17C614.34,-106.44 754.02,-86.81 836.68,-75.19"/>
<polygon fill="#63b8ff" stroke="#63b8ff" points="837.04,-78.68 846.46,-73.82 836.07,-71.75 837.04,-78.68"/>
</a>
</g>
</g>
<!-- Node3 -->
<g id="Node000003" class="node">
<title>Node3</title>
<g id="a_Node000003"><a xlink:title=" ">
<polygon fill="#e0e0e0" stroke="#999999" points="245.88,-19.25 154.12,-19.25 154.12,0 245.88,0 245.88,-19.25"/>
<text text-anchor="middle" x="200" y="-5.75" font-family="Helvetica,sans-Serif" font-size="10.00">mlir/IR/Builders.h</text>
</a>
</g>
</g>
<!-- Node2&#45;&gt;Node3 -->
<g id="edge2_Node000002_Node000003" class="edge">
<title>Node2&#45;&gt;Node3</title>
<g id="a_edge2_Node000002_Node000003"><a xlink:title=" ">
<path fill="none" stroke="#63b8ff" d="M297.98,-54.84C279.51,-46.5 251.79,-34 230.55,-24.41"/>
<polygon fill="#63b8ff" stroke="#63b8ff" points="232.05,-21.25 221.49,-20.33 229.17,-27.63 232.05,-21.25"/>
</a>
</g>
</g>
<!-- Node2&#45;&gt;Node4 -->
<g id="edge3_Node000002_Node000004" class="edge">
<title>Node2&#45;&gt;Node4</title>
<g id="a_edge3_Node000002_Node000004"><a xlink:title=" ">
<path fill="none" stroke="#63b8ff" d="M275.31,-54.78C232.88,-45.74 167.68,-31.86 121.75,-22.07"/>
<polygon fill="#63b8ff" stroke="#63b8ff" points="122.51,-18.66 112,-20 121.05,-25.5 122.51,-18.66"/>
</a>
</g>
</g>
<!-- Node2&#45;&gt;Node5 -->
<g id="edge4_Node000002_Node000005" class="edge">
<title>Node2&#45;&gt;Node5</title>
<g id="a_edge4_Node000002_Node000005"><a xlink:title=" ">
<path fill="none" stroke="#63b8ff" d="M362.57,-54.78C407.05,-45.71 475.51,-31.74 523.49,-21.95"/>
<polygon fill="#63b8ff" stroke="#63b8ff" points="524.03,-25.41 533.13,-19.98 522.63,-18.55 524.03,-25.41"/>
</a>
</g>
</g>
<!-- Node6 -->
<g id="Node000006" class="node">
<title>Node6</title>
<g id="a_Node000006"><a xlink:title=" ">
<polygon fill="#e0e0e0" stroke="#999999" points="372.5,-19.25 263.5,-19.25 263.5,0 372.5,0 372.5,-19.25"/>
<text text-anchor="middle" x="318" y="-5.75" font-family="Helvetica,sans-Serif" font-size="10.00">mlir/IR/ValueRange.h</text>
</a>
</g>
</g>
<!-- Node2&#45;&gt;Node6 -->
<g id="edge5_Node000002_Node000006" class="edge">
<title>Node2&#45;&gt;Node6</title>
<g id="a_edge5_Node000002_Node000006"><a xlink:title=" ">
<path fill="none" stroke="#63b8ff" d="M318,-55.08C318,-48.57 318,-39.42 318,-31.12"/>
<polygon fill="#63b8ff" stroke="#63b8ff" points="321.5,-31.12 318,-21.12 314.5,-31.12 321.5,-31.12"/>
</a>
</g>
</g>
<!-- Node7 -->
<g id="Node000007" class="node">
<title>Node7</title>
<g id="a_Node000007"><a xlink:title=" ">
<polygon fill="#e0e0e0" stroke="#999999" points="511.5,-19.25 390.5,-19.25 390.5,0 511.5,0 511.5,-19.25"/>
<text text-anchor="middle" x="451" y="-5.75" font-family="Helvetica,sans-Serif" font-size="10.00">llvm/ADT/SmallVector.h</text>
</a>
</g>
</g>
<!-- Node2&#45;&gt;Node7 -->
<g id="edge6_Node000002_Node000007" class="edge">
<title>Node2&#45;&gt;Node7</title>
<g id="a_edge6_Node000002_Node000007"><a xlink:title=" ">
<path fill="none" stroke="#63b8ff" d="M340.56,-54.84C361.77,-46.35 393.77,-33.54 417.88,-23.89"/>
<polygon fill="#63b8ff" stroke="#63b8ff" points="418.94,-27.23 426.92,-20.27 416.34,-20.73 418.94,-27.23"/>
</a>
</g>
</g>
</g>
</svg>
