<?xml version="1.0" encoding="UTF-8" standalone="no"?>
<!DOCTYPE svg PUBLIC "-//W3C//DTD SVG 1.1//EN"
 "http://www.w3.org/Graphics/SVG/1.1/DTD/svg11.dtd">
<!-- Generated by graphviz version 12.2.1 (0)
 -->
<!-- Title: include/llzk/Dialect/Function/IR/OpTraits.h Pages: 1 -->
<svg width="393pt" height="94pt"
 viewBox="0.00 0.00 392.75 93.75" xmlns="http://www.w3.org/2000/svg" xmlns:xlink="http://www.w3.org/1999/xlink">
<g id="graph0" class="graph" transform="scale(1 1) rotate(0) translate(4 89.75)">
<title>include/llzk/Dialect/Function/IR/OpTraits.h</title>
<!-- Node1 -->
<g id="Node000001" class="node">
<title>Node1</title>
<g id="a_Node000001"><a xlink:title=" ">
<polygon fill="#999999" stroke="#666666" points="237.62,-85.75 118.88,-85.75 118.88,-55.25 237.62,-55.25 237.62,-85.75"/>
<text text-anchor="start" x="126.88" y="-72.25" font-family="Helvetica,sans-Serif" font-size="10.00">include/llzk/Dialect</text>
<text text-anchor="middle" x="178.25" y="-61" font-family="Helvetica,sans-Serif" font-size="10.00">/Function/IR/OpTraits.h</text>
</a>
</g>
</g>
<!-- Node2 -->
<g id="Node000002" class="node">
<title>Node2</title>
<g id="a_Node000002"><a xlink:title=" ">
<polygon fill="#e0e0e0" stroke="#999999" points="110.5,-19.25 0,-19.25 0,0 110.5,0 110.5,-19.25"/>
<text text-anchor="middle" x="55.25" y="-5.75" font-family="Helvetica,sans-Serif" font-size="10.00">mlir/IR/OpDefinition.h</text>
</a>
</g>
</g>
<!-- Node1&#45;&gt;Node2 -->
<g id="edge1_Node000001_Node000002" class="edge">
<title>Node1&#45;&gt;Node2</title>
<g id="a_edge1_Node000001_Node000002"><a xlink:title=" ">
<path fill="none" stroke="#63b8ff" d="M147.53,-54.8C128.17,-45.53 103.32,-33.63 84.29,-24.52"/>
<polygon fill="#63b8ff" stroke="#63b8ff" points="86.01,-21.47 75.48,-20.31 82.99,-27.78 86.01,-21.47"/>
</a>
</g>
</g>
<!-- Node3 -->
<g id="Node000003" class="node">
<title>Node3</title>
<g id="a_Node000003"><a xlink:title=" ">
<polygon fill="#e0e0e0" stroke="#999999" points="227.5,-19.25 129,-19.25 129,0 227.5,0 227.5,-19.25"/>
<text text-anchor="middle" x="178.25" y="-5.75" font-family="Helvetica,sans-Serif" font-size="10.00">mlir/IR/Operation.h</text>
</a>
</g>
</g>
<!-- Node1&#45;&gt;Node3 -->
<g id="edge2_Node000001_Node000003" class="edge">
<title>Node1&#45;&gt;Node3</title>
<g id="a_edge2_Node000001_Node000003"><a xlink:title=" ">
<path fill="none" stroke="#63b8ff" d="M178.25,-54.95C178.25,-47.71 178.25,-38.84 178.25,-30.94"/>
<polygon fill="#63b8ff" stroke="#63b8ff" points="181.75,-31.21 178.25,-21.21 174.75,-31.21 181.75,-31.21"/>
</a>
</g>
</g>
<!-- Node4 -->
<g id="Node000004" class="node">
<title>Node4</title>
<g id="a_Node000004"><a xlink:title=" ">
<polygon fill="#e0e0e0" stroke="#999999" points="384.75,-19.25 245.75,-19.25 245.75,0 384.75,0 384.75,-19.25"/>
<text text-anchor="middle" x="315.25" y="-5.75" font-family="Helvetica,sans-Serif" font-size="10.00">mlir/Support/LogicalResult.h</text>
</a>
</g>
</g>
<!-- Node1&#45;&gt;Node4 -->
<g id="edge3_Node000001_Node000004" class="edge">
<title>Node1&#45;&gt;Node4</title>
<g id="a_edge3_Node000001_Node000004"><a xlink:title=" ">
<path fill="none" stroke="#63b8ff" d="M212.47,-54.8C234.33,-45.4 262.48,-33.3 283.79,-24.14"/>
<polygon fill="#63b8ff" stroke="#63b8ff" points="285.04,-27.42 292.85,-20.25 282.28,-20.98 285.04,-27.42"/>
</a>
</g>
</g>
</g>
</svg>
