<?xml version="1.0" encoding="UTF-8" standalone="no"?>
<!DOCTYPE svg PUBLIC "-//W3C//DTD SVG 1.1//EN"
 "http://www.w3.org/Graphics/SVG/1.1/DTD/svg11.dtd">
<!-- Generated by graphviz version 12.2.1 (0)
 -->
<!-- Title: build/include/llzk/Dialect/Polymorphic/IR/Ops.h.inc Pages: 1 -->
<svg width="1182pt" height="515pt"
 viewBox="0.00 0.00 1181.61 515.25" xmlns="http://www.w3.org/2000/svg" xmlns:xlink="http://www.w3.org/1999/xlink">
<g id="graph0" class="graph" transform="scale(1 1) rotate(0) translate(4 511.25)">
<title>build/include/llzk/Dialect/Polymorphic/IR/Ops.h.inc</title>
<!-- Node1 -->
<g id="Node000001" class="node">
<title>Node1</title>
<g id="a_Node000001"><a xlink:title=" ">
<polygon fill="#999999" stroke="#666666" points="693.88,-507.25 587.12,-507.25 587.12,-465.5 693.88,-465.5 693.88,-507.25"/>
<text text-anchor="start" x="595.12" y="-493.75" font-family="Helvetica,sans-Serif" font-size="10.00">build/include/llzk</text>
<text text-anchor="start" x="595.12" y="-482.5" font-family="Helvetica,sans-Serif" font-size="10.00">/Dialect/Polymorphic</text>
<text text-anchor="middle" x="640.5" y="-471.25" font-family="Helvetica,sans-Serif" font-size="10.00">/IR/Ops.h.inc</text>
</a>
</g>
</g>
<!-- Node2 -->
<g id="Node000002" class="node">
<title>Node2</title>
<g id="a_Node000002"><a xlink:href="_polymorphic_2_i_r_2_ops_8h.html" target="_top" xlink:title=" ">
<polygon fill="white" stroke="#666666" points="523.38,-363 407.62,-363 407.62,-332.5 523.38,-332.5 523.38,-363"/>
<text text-anchor="start" x="415.62" y="-349.5" font-family="Helvetica,sans-Serif" font-size="10.00">include/llzk/Dialect</text>
<text text-anchor="middle" x="465.5" y="-338.25" font-family="Helvetica,sans-Serif" font-size="10.00">/Polymorphic/IR/Ops.h</text>
</a>
</g>
</g>
<!-- Node1&#45;&gt;Node2 -->
<g id="edge1_Node000001_Node000002" class="edge">
<title>Node1&#45;&gt;Node2</title>
<g id="a_edge1_Node000001_Node000002"><a xlink:title=" ">
<path fill="none" stroke="#63b8ff" d="M605.84,-458.32C569.31,-429.79 513.12,-385.93 484.17,-363.32"/>
<polygon fill="#63b8ff" stroke="#63b8ff" points="603.45,-460.89 613.49,-464.28 607.76,-455.37 603.45,-460.89"/>
</a>
</g>
</g>
<!-- Node16 -->
<g id="Node000016" class="node">
<title>Node16</title>
<g id="a_Node000016"><a xlink:href="_polymorphic_2_i_r_2_types_8h.html" target="_top" xlink:title=" ">
<polygon fill="white" stroke="#666666" points="877.5,-429.5 753.5,-429.5 753.5,-399 877.5,-399 877.5,-429.5"/>
<text text-anchor="start" x="761.5" y="-416" font-family="Helvetica,sans-Serif" font-size="10.00">include/llzk/Dialect</text>
<text text-anchor="middle" x="815.5" y="-404.75" font-family="Helvetica,sans-Serif" font-size="10.00">/Polymorphic/IR/Types.h</text>
</a>
</g>
</g>
<!-- Node1&#45;&gt;Node16 -->
<g id="edge19_Node000001_Node000016" class="edge">
<title>Node1&#45;&gt;Node16</title>
<g id="a_edge19_Node000001_Node000016"><a xlink:title=" ">
<path fill="none" stroke="#63b8ff" d="M701.56,-460.91C727.35,-450.57 756.52,-438.88 778.89,-429.92"/>
<polygon fill="#63b8ff" stroke="#63b8ff" points="700.5,-457.56 692.52,-464.53 703.11,-464.06 700.5,-457.56"/>
</a>
</g>
</g>
<!-- Node3 -->
<g id="Node000003" class="node">
<title>Node3</title>
<g id="a_Node000003"><a xlink:href="_constrain_ref_8h.html" target="_top" xlink:title=" ">
<polygon fill="white" stroke="#666666" points="370.12,-296.5 264.88,-296.5 264.88,-266 370.12,-266 370.12,-296.5"/>
<text text-anchor="start" x="272.88" y="-283" font-family="Helvetica,sans-Serif" font-size="10.00">include/llzk/Analysis</text>
<text text-anchor="middle" x="317.5" y="-271.75" font-family="Helvetica,sans-Serif" font-size="10.00">/ConstrainRef.h</text>
</a>
</g>
</g>
<!-- Node2&#45;&gt;Node3 -->
<g id="edge2_Node000002_Node000003" class="edge">
<title>Node2&#45;&gt;Node3</title>
<g id="a_edge2_Node000002_Node000003"><a xlink:title=" ">
<path fill="none" stroke="#63b8ff" d="M421.6,-327.62C399.07,-317.8 372.07,-306.03 351.21,-296.94"/>
<polygon fill="#63b8ff" stroke="#63b8ff" points="419.96,-330.72 430.53,-331.51 422.76,-324.31 419.96,-330.72"/>
</a>
</g>
</g>
<!-- Node6 -->
<g id="Node000006" class="node">
<title>Node6</title>
<g id="a_Node000006"><a xlink:href="_interval_analysis_8h.html" target="_top" xlink:title=" ">
<polygon fill="white" stroke="#666666" points="624.12,-97 518.88,-97 518.88,-66.5 624.12,-66.5 624.12,-97"/>
<text text-anchor="start" x="526.88" y="-83.5" font-family="Helvetica,sans-Serif" font-size="10.00">include/llzk/Analysis</text>
<text text-anchor="middle" x="571.5" y="-72.25" font-family="Helvetica,sans-Serif" font-size="10.00">/IntervalAnalysis.h</text>
</a>
</g>
</g>
<!-- Node2&#45;&gt;Node6 -->
<g id="edge15_Node000002_Node000006" class="edge">
<title>Node2&#45;&gt;Node6</title>
<g id="a_edge15_Node000002_Node000006"><a xlink:title=" ">
<path fill="none" stroke="#63b8ff" d="M518.22,-326.86C531.49,-319.34 544.28,-309.39 552.5,-296.5 593.47,-232.27 581.11,-134.26 574.48,-97.42"/>
<polygon fill="#63b8ff" stroke="#63b8ff" points="516.65,-323.73 509.39,-331.45 519.88,-329.94 516.65,-323.73"/>
</a>
</g>
</g>
<!-- Node13 -->
<g id="Node000013" class="node">
<title>Node13</title>
<g id="a_Node000013"><a xlink:href="_polymorphic_2_i_r_2_dialect_8cpp.html" target="_top" xlink:title=" ">
<polygon fill="white" stroke="#666666" points="922.75,-296.5 806.25,-296.5 806.25,-266 922.75,-266 922.75,-296.5"/>
<text text-anchor="start" x="814.25" y="-283" font-family="Helvetica,sans-Serif" font-size="10.00">lib/Dialect/Polymorphic</text>
<text text-anchor="middle" x="864.5" y="-271.75" font-family="Helvetica,sans-Serif" font-size="10.00">/IR/Dialect.cpp</text>
</a>
</g>
</g>
<!-- Node2&#45;&gt;Node13 -->
<g id="edge16_Node000002_Node000013" class="edge">
<title>Node2&#45;&gt;Node13</title>
<g id="a_edge16_Node000002_Node000013"><a xlink:title=" ">
<path fill="none" stroke="#63b8ff" d="M534.59,-332.19C635.64,-314.04 741.71,-298.83 805.85,-290.05"/>
<polygon fill="#63b8ff" stroke="#63b8ff" points="534.27,-328.69 525.05,-333.91 535.52,-335.57 534.27,-328.69"/>
</a>
</g>
</g>
<!-- Node14 -->
<g id="Node000014" class="node">
<title>Node14</title>
<g id="a_Node000014"><a xlink:href="_polymorphic_2_i_r_2_ops_8cpp.html" target="_top" xlink:title=" ">
<polygon fill="white" stroke="#666666" points="1161.75,-296.5 1045.25,-296.5 1045.25,-266 1161.75,-266 1161.75,-296.5"/>
<text text-anchor="start" x="1053.25" y="-283" font-family="Helvetica,sans-Serif" font-size="10.00">lib/Dialect/Polymorphic</text>
<text text-anchor="middle" x="1103.5" y="-271.75" font-family="Helvetica,sans-Serif" font-size="10.00">/IR/Ops.cpp</text>
</a>
</g>
</g>
<!-- Node2&#45;&gt;Node14 -->
<g id="edge17_Node000002_Node000014" class="edge">
<title>Node2&#45;&gt;Node14</title>
<g id="a_edge17_Node000002_Node000014"><a xlink:title=" ">
<path fill="none" stroke="#63b8ff" d="M534.73,-332.56C604.02,-324.78 914.04,-298.32 1044.98,-287.21"/>
<polygon fill="#63b8ff" stroke="#63b8ff" points="534.52,-329.06 525.03,-333.77 535.38,-336 534.52,-329.06"/>
</a>
</g>
</g>
<!-- Node15 -->
<g id="Node000015" class="node">
<title>Node15</title>
<g id="a_Node000015"><a xlink:href="_flattening_pass_8cpp.html" target="_top" xlink:title="This file implements the &#45;llzk&#45;flatten pass.">
<polygon fill="white" stroke="#666666" points="543.25,-296.5 387.75,-296.5 387.75,-266 543.25,-266 543.25,-296.5"/>
<text text-anchor="start" x="395.75" y="-283" font-family="Helvetica,sans-Serif" font-size="10.00">lib/Dialect/Polymorphic</text>
<text text-anchor="middle" x="465.5" y="-271.75" font-family="Helvetica,sans-Serif" font-size="10.00">/Transforms/FlatteningPass.cpp</text>
</a>
</g>
</g>
<!-- Node2&#45;&gt;Node15 -->
<g id="edge18_Node000002_Node000015" class="edge">
<title>Node2&#45;&gt;Node15</title>
<g id="a_edge18_Node000002_Node000015"><a xlink:title=" ">
<path fill="none" stroke="#63b8ff" d="M465.5,-320.81C465.5,-312.64 465.5,-303.91 465.5,-296.83"/>
<polygon fill="#63b8ff" stroke="#63b8ff" points="462,-320.6 465.5,-330.6 469,-320.6 462,-320.6"/>
</a>
</g>
</g>
<!-- Node4 -->
<g id="Node000004" class="node">
<title>Node4</title>
<g id="a_Node000004"><a xlink:href="_constrain_ref_lattice_8h.html" target="_top" xlink:title=" ">
<polygon fill="white" stroke="#666666" points="226.62,-230 112.38,-230 112.38,-199.5 226.62,-199.5 226.62,-230"/>
<text text-anchor="start" x="120.38" y="-216.5" font-family="Helvetica,sans-Serif" font-size="10.00">include/llzk/Analysis</text>
<text text-anchor="middle" x="169.5" y="-205.25" font-family="Helvetica,sans-Serif" font-size="10.00">/ConstrainRefLattice.h</text>
</a>
</g>
</g>
<!-- Node3&#45;&gt;Node4 -->
<g id="edge3_Node000003_Node000004" class="edge">
<title>Node3&#45;&gt;Node4</title>
<g id="a_edge3_Node000003_Node000004"><a xlink:title=" ">
<path fill="none" stroke="#63b8ff" d="M273.6,-261.12C251.07,-251.3 224.07,-239.53 203.21,-230.44"/>
<polygon fill="#63b8ff" stroke="#63b8ff" points="271.96,-264.22 282.53,-265.01 274.76,-257.81 271.96,-264.22"/>
</a>
</g>
</g>
<!-- Node5 -->
<g id="Node000005" class="node">
<title>Node5</title>
<g id="a_Node000005"><a xlink:href="_constraint_dependency_graph_8h.html" target="_top" xlink:title=" ">
<polygon fill="white" stroke="#666666" points="442.12,-163.5 288.88,-163.5 288.88,-133 442.12,-133 442.12,-163.5"/>
<text text-anchor="start" x="296.88" y="-150" font-family="Helvetica,sans-Serif" font-size="10.00">include/llzk/Analysis</text>
<text text-anchor="middle" x="365.5" y="-138.75" font-family="Helvetica,sans-Serif" font-size="10.00">/ConstraintDependencyGraph.h</text>
</a>
</g>
</g>
<!-- Node3&#45;&gt;Node5 -->
<g id="edge13_Node000003_Node000005" class="edge">
<title>Node3&#45;&gt;Node5</title>
<g id="a_edge13_Node000003_Node000005"><a xlink:title=" ">
<path fill="none" stroke="#63b8ff" d="M367.99,-260.19C380.5,-252.67 392.35,-242.76 399.5,-230 411.91,-207.84 393.66,-180.23 379.47,-163.71"/>
<polygon fill="#63b8ff" stroke="#63b8ff" points="366.32,-257.11 359.23,-264.99 369.68,-263.25 366.32,-257.11"/>
</a>
</g>
</g>
<!-- Node12 -->
<g id="Node000012" class="node">
<title>Node12</title>
<g id="a_Node000012"><a xlink:href="_constrain_ref_8cpp.html" target="_top" xlink:title=" ">
<polygon fill="white" stroke="#666666" points="390.38,-224.38 244.62,-224.38 244.62,-205.12 390.38,-205.12 390.38,-224.38"/>
<text text-anchor="middle" x="317.5" y="-210.88" font-family="Helvetica,sans-Serif" font-size="10.00">lib/Analysis/ConstrainRef.cpp</text>
</a>
</g>
</g>
<!-- Node3&#45;&gt;Node12 -->
<g id="edge14_Node000003_Node000012" class="edge">
<title>Node3&#45;&gt;Node12</title>
<g id="a_edge14_Node000003_Node000012"><a xlink:title=" ">
<path fill="none" stroke="#63b8ff" d="M317.5,-254.34C317.5,-243.76 317.5,-232.25 317.5,-224.57"/>
<polygon fill="#63b8ff" stroke="#63b8ff" points="314,-254.1 317.5,-264.1 321,-254.1 314,-254.1"/>
</a>
</g>
</g>
<!-- Node4&#45;&gt;Node5 -->
<g id="edge4_Node000004_Node000005" class="edge">
<title>Node4&#45;&gt;Node5</title>
<g id="a_edge4_Node000004_Node000005"><a xlink:title=" ">
<path fill="none" stroke="#63b8ff" d="M224.83,-195.54C255.2,-185.55 292.36,-173.32 320.86,-163.94"/>
<polygon fill="#63b8ff" stroke="#63b8ff" points="223.82,-192.19 215.41,-198.64 226.01,-198.84 223.82,-192.19"/>
</a>
</g>
</g>
<!-- Node9 -->
<g id="Node000009" class="node">
<title>Node9</title>
<g id="a_Node000009"><a xlink:href="_constrain_ref_lattice_8cpp.html" target="_top" xlink:title=" ">
<polygon fill="white" stroke="#666666" points="314,-97 187,-97 187,-66.5 314,-66.5 314,-97"/>
<text text-anchor="start" x="195" y="-83.5" font-family="Helvetica,sans-Serif" font-size="10.00">lib/Analysis/ConstrainRef</text>
<text text-anchor="middle" x="250.5" y="-72.25" font-family="Helvetica,sans-Serif" font-size="10.00">Lattice.cpp</text>
</a>
</g>
</g>
<!-- Node4&#45;&gt;Node9 -->
<g id="edge11_Node000004_Node000009" class="edge">
<title>Node4&#45;&gt;Node9</title>
<g id="a_edge11_Node000004_Node000009"><a xlink:title=" ">
<path fill="none" stroke="#63b8ff" d="M184.35,-189.74C201.05,-162.72 227.65,-119.7 241.48,-97.33"/>
<polygon fill="#63b8ff" stroke="#63b8ff" points="181.56,-187.6 179.27,-197.94 187.51,-191.28 181.56,-187.6"/>
</a>
</g>
</g>
<!-- Node10 -->
<g id="Node000010" class="node">
<title>Node10</title>
<g id="a_Node000010"><a xlink:href="_constraint_dependency_graph_8cpp.html" target="_top" xlink:title=" ">
<polygon fill="white" stroke="#666666" points="169,-97 0,-97 0,-66.5 169,-66.5 169,-97"/>
<text text-anchor="start" x="8" y="-83.5" font-family="Helvetica,sans-Serif" font-size="10.00">lib/Analysis/ConstraintDependency</text>
<text text-anchor="middle" x="84.5" y="-72.25" font-family="Helvetica,sans-Serif" font-size="10.00">Graph.cpp</text>
</a>
</g>
</g>
<!-- Node4&#45;&gt;Node10 -->
<g id="edge12_Node000004_Node000010" class="edge">
<title>Node4&#45;&gt;Node10</title>
<g id="a_edge12_Node000004_Node000010"><a xlink:title=" ">
<path fill="none" stroke="#63b8ff" d="M153.92,-189.74C136.39,-162.72 108.48,-119.7 93.96,-97.33"/>
<polygon fill="#63b8ff" stroke="#63b8ff" points="150.88,-191.48 159.25,-197.96 156.75,-187.67 150.88,-191.48"/>
</a>
</g>
</g>
<!-- Node5&#45;&gt;Node6 -->
<g id="edge5_Node000005_Node000006" class="edge">
<title>Node5&#45;&gt;Node6</title>
<g id="a_edge5_Node000005_Node000006"><a xlink:title=" ">
<path fill="none" stroke="#63b8ff" d="M423.49,-129.09C455.48,-119.08 494.68,-106.8 524.7,-97.4"/>
<polygon fill="#63b8ff" stroke="#63b8ff" points="422.44,-125.75 413.95,-132.08 424.54,-132.43 422.44,-125.75"/>
</a>
</g>
</g>
<!-- Node5&#45;&gt;Node9 -->
<g id="edge8_Node000005_Node000009" class="edge">
<title>Node5&#45;&gt;Node9</title>
<g id="a_edge8_Node000005_Node000009"><a xlink:title=" ">
<path fill="none" stroke="#63b8ff" d="M329.68,-127.16C312.46,-117.5 292.2,-106.14 276.49,-97.33"/>
<polygon fill="#63b8ff" stroke="#63b8ff" points="327.65,-130.03 338.08,-131.87 331.07,-123.93 327.65,-130.03"/>
</a>
</g>
</g>
<!-- Node5&#45;&gt;Node10 -->
<g id="edge9_Node000005_Node000010" class="edge">
<title>Node5&#45;&gt;Node10</title>
<g id="a_edge9_Node000005_Node000010"><a xlink:title=" ">
<path fill="none" stroke="#63b8ff" d="M290.37,-130.01C246.04,-119.83 190.54,-107.09 148.34,-97.4"/>
<polygon fill="#63b8ff" stroke="#63b8ff" points="289.38,-133.37 299.91,-132.19 290.95,-126.55 289.38,-133.37"/>
</a>
</g>
</g>
<!-- Node11 -->
<g id="Node000011" class="node">
<title>Node11</title>
<g id="a_Node000011"><a xlink:href="_constraint_dependency_graph_pass_8cpp.html" target="_top" xlink:title="This file implements the &#45;llzk&#45;print&#45;constraint&#45;dependency&#45;graphs pass.">
<polygon fill="white" stroke="#666666" points="501,-97 332,-97 332,-66.5 501,-66.5 501,-97"/>
<text text-anchor="start" x="340" y="-83.5" font-family="Helvetica,sans-Serif" font-size="10.00">lib/Analysis/ConstraintDependency</text>
<text text-anchor="middle" x="416.5" y="-72.25" font-family="Helvetica,sans-Serif" font-size="10.00">GraphPass.cpp</text>
</a>
</g>
</g>
<!-- Node5&#45;&gt;Node11 -->
<g id="edge10_Node000005_Node000011" class="edge">
<title>Node5&#45;&gt;Node11</title>
<g id="a_edge10_Node000005_Node000011"><a xlink:title=" ">
<path fill="none" stroke="#63b8ff" d="M384,-123.85C391.01,-114.98 398.79,-105.15 404.97,-97.33"/>
<polygon fill="#63b8ff" stroke="#63b8ff" points="381.47,-121.41 378.01,-131.43 386.96,-125.75 381.47,-121.41"/>
</a>
</g>
</g>
<!-- Node7 -->
<g id="Node000007" class="node">
<title>Node7</title>
<g id="a_Node000007"><a xlink:href="_interval_analysis_8cpp.html" target="_top" xlink:title=" ">
<polygon fill="white" stroke="#666666" points="567.38,-24.88 409.62,-24.88 409.62,-5.63 567.38,-5.63 567.38,-24.88"/>
<text text-anchor="middle" x="488.5" y="-11.38" font-family="Helvetica,sans-Serif" font-size="10.00">lib/Analysis/IntervalAnalysis.cpp</text>
</a>
</g>
</g>
<!-- Node6&#45;&gt;Node7 -->
<g id="edge6_Node000006_Node000007" class="edge">
<title>Node6&#45;&gt;Node7</title>
<g id="a_edge6_Node000006_Node000007"><a xlink:title=" ">
<path fill="none" stroke="#63b8ff" d="M543.77,-59.2C528.79,-47.56 511.11,-33.82 499.85,-25.07"/>
<polygon fill="#63b8ff" stroke="#63b8ff" points="541.43,-61.81 551.47,-65.19 545.72,-56.29 541.43,-61.81"/>
</a>
</g>
</g>
<!-- Node8 -->
<g id="Node000008" class="node">
<title>Node8</title>
<g id="a_Node000008"><a xlink:href="_interval_analysis_pass_8cpp.html" target="_top" xlink:title="This file implements the &#45;llzk&#45;print&#45;interval&#45;analysis pass.">
<polygon fill="white" stroke="#666666" points="724,-30.5 585,-30.5 585,0 724,0 724,-30.5"/>
<text text-anchor="start" x="593" y="-17" font-family="Helvetica,sans-Serif" font-size="10.00">lib/Analysis/IntervalAnalysis</text>
<text text-anchor="middle" x="654.5" y="-5.75" font-family="Helvetica,sans-Serif" font-size="10.00">Pass.cpp</text>
</a>
</g>
</g>
<!-- Node6&#45;&gt;Node8 -->
<g id="edge7_Node000006_Node000008" class="edge">
<title>Node6&#45;&gt;Node8</title>
<g id="a_edge7_Node000006_Node000008"><a xlink:title=" ">
<path fill="none" stroke="#63b8ff" d="M599.11,-59.29C611.14,-49.94 624.93,-39.23 635.74,-30.83"/>
<polygon fill="#63b8ff" stroke="#63b8ff" points="597.28,-56.29 591.53,-65.19 601.57,-61.81 597.28,-56.29"/>
</a>
</g>
</g>
<!-- Node16&#45;&gt;Node2 -->
<g id="edge20_Node000016_Node000002" class="edge">
<title>Node16&#45;&gt;Node2</title>
<g id="a_edge20_Node000016_Node000002"><a xlink:title=" ">
<path fill="none" stroke="#63b8ff" d="M741.89,-400.88C684.7,-391.1 603.44,-376.84 532.5,-363 529.58,-362.43 526.59,-361.84 523.58,-361.23"/>
<polygon fill="#63b8ff" stroke="#63b8ff" points="741.06,-404.29 751.51,-402.52 742.24,-397.39 741.06,-404.29"/>
</a>
</g>
</g>
<!-- Node16&#45;&gt;Node13 -->
<g id="edge24_Node000016_Node000013" class="edge">
<title>Node16&#45;&gt;Node13</title>
<g id="a_edge24_Node000016_Node000013"><a xlink:title=" ">
<path fill="none" stroke="#63b8ff" d="M889.06,-412.96C977.29,-410.86 1117.46,-401.37 1150.5,-363 1159.35,-352.73 1159.22,-342.88 1150.5,-332.5 1136.01,-315.25 1002.32,-297.59 922.95,-288.5"/>
<polygon fill="#63b8ff" stroke="#63b8ff" points="889.21,-409.45 879.29,-413.16 889.36,-416.45 889.21,-409.45"/>
</a>
</g>
</g>
<!-- Node16&#45;&gt;Node14 -->
<g id="edge25_Node000016_Node000014" class="edge">
<title>Node16&#45;&gt;Node14</title>
<g id="a_edge25_Node000016_Node000014"><a xlink:title=" ">
<path fill="none" stroke="#63b8ff" d="M889.13,-413.58C981.53,-412.25 1132.21,-403.68 1167.5,-363 1186.96,-340.57 1154.27,-313.27 1128.88,-296.86"/>
<polygon fill="#63b8ff" stroke="#63b8ff" points="889.35,-410.08 879.39,-413.7 889.43,-417.08 889.35,-410.08"/>
</a>
</g>
</g>
<!-- Node17 -->
<g id="Node000017" class="node">
<title>Node17</title>
<g id="a_Node000017"><a xlink:href="_bool_2_i_r_2_ops_8cpp.html" target="_top" xlink:title=" ">
<polygon fill="white" stroke="#666666" points="637.25,-363 541.75,-363 541.75,-332.5 637.25,-332.5 637.25,-363"/>
<text text-anchor="start" x="549.75" y="-349.5" font-family="Helvetica,sans-Serif" font-size="10.00">lib/Dialect/Bool/IR</text>
<text text-anchor="middle" x="589.5" y="-338.25" font-family="Helvetica,sans-Serif" font-size="10.00">/Ops.cpp</text>
</a>
</g>
</g>
<!-- Node16&#45;&gt;Node17 -->
<g id="edge21_Node000016_Node000017" class="edge">
<title>Node16&#45;&gt;Node17</title>
<g id="a_edge21_Node000016_Node000017"><a xlink:title=" ">
<path fill="none" stroke="#63b8ff" d="M752.91,-395.39C716.38,-384.96 671.03,-372.02 637.37,-362.41"/>
<polygon fill="#63b8ff" stroke="#63b8ff" points="751.9,-398.74 762.48,-398.12 753.82,-392.01 751.9,-398.74"/>
</a>
</g>
</g>
<!-- Node18 -->
<g id="Node000018" class="node">
<title>Node18</title>
<g id="a_Node000018"><a xlink:href="_felt_2_i_r_2_ops_8cpp.html" target="_top" xlink:title=" ">
<polygon fill="white" stroke="#666666" points="747.75,-363 655.25,-363 655.25,-332.5 747.75,-332.5 747.75,-363"/>
<text text-anchor="start" x="663.25" y="-349.5" font-family="Helvetica,sans-Serif" font-size="10.00">lib/Dialect/Felt/IR</text>
<text text-anchor="middle" x="701.5" y="-338.25" font-family="Helvetica,sans-Serif" font-size="10.00">/Ops.cpp</text>
</a>
</g>
</g>
<!-- Node16&#45;&gt;Node18 -->
<g id="edge22_Node000016_Node000018" class="edge">
<title>Node16&#45;&gt;Node18</title>
<g id="a_edge22_Node000016_Node000018"><a xlink:title=" ">
<path fill="none" stroke="#63b8ff" d="M779.99,-393.16C762.92,-383.5 742.84,-372.14 727.27,-363.33"/>
<polygon fill="#63b8ff" stroke="#63b8ff" points="777.89,-395.99 788.31,-397.87 781.33,-389.9 777.89,-395.99"/>
</a>
</g>
</g>
<!-- Node19 -->
<g id="Node000019" class="node">
<title>Node19</title>
<g id="a_Node000019"><a xlink:href="_function_2_i_r_2_ops_8cpp.html" target="_top" xlink:title=" ">
<polygon fill="white" stroke="#666666" points="865.5,-363 765.5,-363 765.5,-332.5 865.5,-332.5 865.5,-363"/>
<text text-anchor="start" x="773.5" y="-349.5" font-family="Helvetica,sans-Serif" font-size="10.00">lib/Dialect/Function</text>
<text text-anchor="middle" x="815.5" y="-338.25" font-family="Helvetica,sans-Serif" font-size="10.00">/IR/Ops.cpp</text>
</a>
</g>
</g>
<!-- Node16&#45;&gt;Node19 -->
<g id="edge23_Node000016_Node000019" class="edge">
<title>Node16&#45;&gt;Node19</title>
<g id="a_edge23_Node000016_Node000019"><a xlink:title=" ">
<path fill="none" stroke="#63b8ff" d="M815.5,-387.31C815.5,-379.14 815.5,-370.41 815.5,-363.33"/>
<polygon fill="#63b8ff" stroke="#63b8ff" points="812,-387.1 815.5,-397.1 819,-387.1 812,-387.1"/>
</a>
</g>
</g>
<!-- Node20 -->
<g id="Node000020" class="node">
<title>Node20</title>
<g id="a_Node000020"><a xlink:href="_symbol_helper_8cpp.html" target="_top" xlink:title="This file contains the implementations for symbol helper functions.">
<polygon fill="white" stroke="#666666" points="1009.62,-357.38 883.38,-357.38 883.38,-338.12 1009.62,-338.12 1009.62,-357.38"/>
<text text-anchor="middle" x="946.5" y="-343.88" font-family="Helvetica,sans-Serif" font-size="10.00">lib/Util/SymbolHelper.cpp</text>
</a>
</g>
</g>
<!-- Node16&#45;&gt;Node20 -->
<g id="edge26_Node000016_Node000020" class="edge">
<title>Node16&#45;&gt;Node20</title>
<g id="a_edge26_Node000016_Node000020"><a xlink:title=" ">
<path fill="none" stroke="#63b8ff" d="M855.24,-393.69C879.51,-381.74 909.39,-367.02 928.2,-357.76"/>
<polygon fill="#63b8ff" stroke="#63b8ff" points="854.01,-390.39 846.58,-397.95 857.1,-396.67 854.01,-390.39"/>
</a>
</g>
</g>
<!-- Node21 -->
<g id="Node000021" class="node">
<title>Node21</title>
<g id="a_Node000021"><a xlink:href="_type_helper_8cpp.html" target="_top" xlink:title=" ">
<polygon fill="white" stroke="#666666" points="1141.62,-357.38 1027.38,-357.38 1027.38,-338.12 1141.62,-338.12 1141.62,-357.38"/>
<text text-anchor="middle" x="1084.5" y="-343.88" font-family="Helvetica,sans-Serif" font-size="10.00">lib/Util/TypeHelper.cpp</text>
</a>
</g>
</g>
<!-- Node16&#45;&gt;Node21 -->
<g id="edge27_Node000016_Node000021" class="edge">
<title>Node16&#45;&gt;Node21</title>
<g id="a_edge27_Node000016_Node000021"><a xlink:title=" ">
<path fill="none" stroke="#63b8ff" d="M887.87,-395.9C939.03,-383.63 1005.56,-367.68 1046.63,-357.83"/>
<polygon fill="#63b8ff" stroke="#63b8ff" points="887.26,-392.45 878.35,-398.18 888.89,-399.25 887.26,-392.45"/>
</a>
</g>
</g>
</g>
</svg>
