<?xml version="1.0" encoding="UTF-8" standalone="no"?>
<!DOCTYPE svg PUBLIC "-//W3C//DTD SVG 1.1//EN"
 "http://www.w3.org/Graphics/SVG/1.1/DTD/svg11.dtd">
<!-- Generated by graphviz version 12.2.1 (0)
 -->
<!-- Title: include/llzk/Dialect/Polymorphic/IR/Types.h Pages: 1 -->
<svg width="465pt" height="172pt"
 viewBox="0.00 0.00 464.62 171.50" xmlns="http://www.w3.org/2000/svg" xmlns:xlink="http://www.w3.org/1999/xlink">
<g id="graph0" class="graph" transform="scale(1 1) rotate(0) translate(4 167.5)">
<title>include/llzk/Dialect/Polymorphic/IR/Types.h</title>
<!-- Node1 -->
<g id="Node000001" class="node">
<title>Node1</title>
<g id="a_Node000001"><a xlink:title=" ">
<polygon fill="#999999" stroke="#666666" points="317.75,-163.5 193.75,-163.5 193.75,-133 317.75,-133 317.75,-163.5"/>
<text text-anchor="start" x="201.75" y="-150" font-family="Helvetica,sans-Serif" font-size="10.00">include/llzk/Dialect</text>
<text text-anchor="middle" x="255.75" y="-138.75" font-family="Helvetica,sans-Serif" font-size="10.00">/Polymorphic/IR/Types.h</text>
</a>
</g>
</g>
<!-- Node2 -->
<g id="Node000002" class="node">
<title>Node2</title>
<g id="a_Node000002"><a xlink:href="_polymorphic_2_i_r_2_dialect_8h.html" target="_top" xlink:title=" ">
<polygon fill="white" stroke="#666666" points="176.62,-97 54.87,-97 54.87,-66.5 176.62,-66.5 176.62,-97"/>
<text text-anchor="start" x="62.88" y="-83.5" font-family="Helvetica,sans-Serif" font-size="10.00">llzk/Dialect/Polymorphic</text>
<text text-anchor="middle" x="115.75" y="-72.25" font-family="Helvetica,sans-Serif" font-size="10.00">/IR/Dialect.h</text>
</a>
</g>
</g>
<!-- Node1&#45;&gt;Node2 -->
<g id="edge1_Node000001_Node000002" class="edge">
<title>Node1&#45;&gt;Node2</title>
<g id="a_edge1_Node000001_Node000002"><a xlink:title=" ">
<path fill="none" stroke="#63b8ff" d="M223.98,-132.61C204.38,-123.58 179.01,-111.9 157.76,-102.11"/>
<polygon fill="#63b8ff" stroke="#63b8ff" points="159.31,-98.97 148.77,-97.96 156.38,-105.32 159.31,-98.97"/>
</a>
</g>
</g>
<!-- Node5 -->
<g id="Node000005" class="node">
<title>Node5</title>
<g id="a_Node000005"><a xlink:href="_polymorphic_2_i_r_2_ops_8h_8inc.html" target="_top" xlink:title=" ">
<polygon fill="white" stroke="#666666" points="316.62,-97 194.88,-97 194.88,-66.5 316.62,-66.5 316.62,-97"/>
<text text-anchor="start" x="202.88" y="-83.5" font-family="Helvetica,sans-Serif" font-size="10.00">llzk/Dialect/Polymorphic</text>
<text text-anchor="middle" x="255.75" y="-72.25" font-family="Helvetica,sans-Serif" font-size="10.00">/IR/Ops.h.inc</text>
</a>
</g>
</g>
<!-- Node1&#45;&gt;Node5 -->
<g id="edge4_Node000001_Node000005" class="edge">
<title>Node1&#45;&gt;Node5</title>
<g id="a_edge4_Node000001_Node000005"><a xlink:title=" ">
<path fill="none" stroke="#63b8ff" d="M255.75,-132.61C255.75,-125.52 255.75,-116.79 255.75,-108.63"/>
<polygon fill="#63b8ff" stroke="#63b8ff" points="259.25,-108.84 255.75,-98.84 252.25,-108.84 259.25,-108.84"/>
</a>
</g>
</g>
<!-- Node6 -->
<g id="Node000006" class="node">
<title>Node6</title>
<g id="a_Node000006"><a xlink:href="_polymorphic_2_i_r_2_types_8h_8inc.html" target="_top" xlink:title=" ">
<polygon fill="white" stroke="#666666" points="456.62,-97 334.88,-97 334.88,-66.5 456.62,-66.5 456.62,-97"/>
<text text-anchor="start" x="342.88" y="-83.5" font-family="Helvetica,sans-Serif" font-size="10.00">llzk/Dialect/Polymorphic</text>
<text text-anchor="middle" x="395.75" y="-72.25" font-family="Helvetica,sans-Serif" font-size="10.00">/IR/Types.h.inc</text>
</a>
</g>
</g>
<!-- Node1&#45;&gt;Node6 -->
<g id="edge5_Node000001_Node000006" class="edge">
<title>Node1&#45;&gt;Node6</title>
<g id="a_edge5_Node000001_Node000006"><a xlink:title=" ">
<path fill="none" stroke="#63b8ff" d="M287.52,-132.61C307.12,-123.58 332.49,-111.9 353.74,-102.11"/>
<polygon fill="#63b8ff" stroke="#63b8ff" points="355.12,-105.32 362.73,-97.96 352.19,-98.97 355.12,-105.32"/>
</a>
</g>
</g>
<!-- Node3 -->
<g id="Node000003" class="node">
<title>Node3</title>
<g id="a_Node000003"><a xlink:title=" ">
<polygon fill="#e0e0e0" stroke="#999999" points="101.5,-24.88 0,-24.88 0,-5.63 101.5,-5.63 101.5,-24.88"/>
<text text-anchor="middle" x="50.75" y="-11.38" font-family="Helvetica,sans-Serif" font-size="10.00">mlir/IR/BuiltinOps.h</text>
</a>
</g>
</g>
<!-- Node2&#45;&gt;Node3 -->
<g id="edge2_Node000002_Node000003" class="edge">
<title>Node2&#45;&gt;Node3</title>
<g id="a_edge2_Node000002_Node000003"><a xlink:title=" ">
<path fill="none" stroke="#63b8ff" d="M101,-66.11C91.05,-56.24 77.9,-43.19 67.55,-32.92"/>
<polygon fill="#63b8ff" stroke="#63b8ff" points="70.28,-30.7 60.72,-26.14 65.35,-35.67 70.28,-30.7"/>
</a>
</g>
</g>
<!-- Node4 -->
<g id="Node000004" class="node">
<title>Node4</title>
<g id="a_Node000004"><a xlink:href="_polymorphic_2_i_r_2_dialect_8h_8inc.html" target="_top" xlink:title=" ">
<polygon fill="white" stroke="#666666" points="241.62,-30.5 119.88,-30.5 119.88,0 241.62,0 241.62,-30.5"/>
<text text-anchor="start" x="127.88" y="-17" font-family="Helvetica,sans-Serif" font-size="10.00">llzk/Dialect/Polymorphic</text>
<text text-anchor="middle" x="180.75" y="-5.75" font-family="Helvetica,sans-Serif" font-size="10.00">/IR/Dialect.h.inc</text>
</a>
</g>
</g>
<!-- Node2&#45;&gt;Node4 -->
<g id="edge3_Node000002_Node000004" class="edge">
<title>Node2&#45;&gt;Node4</title>
<g id="a_edge3_Node000002_Node000004"><a xlink:title=" ">
<path fill="none" stroke="#63b8ff" d="M130.5,-66.11C138.64,-58.03 148.93,-47.82 158.08,-38.75"/>
<polygon fill="#63b8ff" stroke="#63b8ff" points="160.35,-41.42 164.98,-31.89 155.42,-36.45 160.35,-41.42"/>
</a>
</g>
</g>
</g>
</svg>
