<?xml version="1.0" encoding="UTF-8" standalone="no"?>
<!DOCTYPE svg PUBLIC "-//W3C//DTD SVG 1.1//EN"
 "http://www.w3.org/Graphics/SVG/1.1/DTD/svg11.dtd">
<!-- Generated by graphviz version 12.2.1 (0)
 -->
<!-- Title: include/llzk/Dialect/Struct/IR/Ops.h Pages: 1 -->
<svg width="2988pt" height="371pt"
 viewBox="0.00 0.00 2988.25 371.00" xmlns="http://www.w3.org/2000/svg" xmlns:xlink="http://www.w3.org/1999/xlink">
<g id="graph0" class="graph" transform="scale(1 1) rotate(0) translate(4 367)">
<title>include/llzk/Dialect/Struct/IR/Ops.h</title>
<!-- Node1 -->
<g id="Node000001" class="node">
<title>Node1</title>
<g id="a_Node000001"><a xlink:title=" ">
<polygon fill="#999999" stroke="#666666" points="2297.12,-363 2198.62,-363 2198.62,-332.5 2297.12,-332.5 2297.12,-363"/>
<text text-anchor="start" x="2206.62" y="-349.5" font-family="Helvetica,sans-Serif" font-size="10.00">include/llzk/Dialect</text>
<text text-anchor="middle" x="2247.88" y="-338.25" font-family="Helvetica,sans-Serif" font-size="10.00">/Struct/IR/Ops.h</text>
</a>
</g>
</g>
<!-- Node2 -->
<g id="Node000002" class="node">
<title>Node2</title>
<g id="a_Node000002"><a xlink:href="_analysis_wrappers_8h.html" target="_top" xlink:title="Convenience classes for a frequent pattern of dataflow analysis used in LLZK, where an analysis is ru...">
<polygon fill="white" stroke="#666666" points="291.88,-230 185.88,-230 185.88,-199.5 291.88,-199.5 291.88,-230"/>
<text text-anchor="start" x="193.88" y="-216.5" font-family="Helvetica,sans-Serif" font-size="10.00">include/llzk/Analysis</text>
<text text-anchor="middle" x="238.88" y="-205.25" font-family="Helvetica,sans-Serif" font-size="10.00">/AnalysisWrappers.h</text>
</a>
</g>
</g>
<!-- Node1&#45;&gt;Node2 -->
<g id="edge1_Node000001_Node000002" class="edge">
<title>Node1&#45;&gt;Node2</title>
<g id="a_edge1_Node000001_Node000002"><a xlink:title=" ">
<path fill="none" stroke="#63b8ff" d="M2187.01,-346.38C1890.81,-344.43 607.2,-333.85 432.88,-296.5 369.91,-283.01 301.55,-249.74 265.17,-230.37"/>
<polygon fill="#63b8ff" stroke="#63b8ff" points="2186.81,-349.88 2196.84,-346.45 2186.86,-342.88 2186.81,-349.88"/>
</a>
</g>
</g>
<!-- Node10 -->
<g id="Node000010" class="node">
<title>Node10</title>
<g id="a_Node000010"><a xlink:href="_constrain_ref_8h.html" target="_top" xlink:title=" ">
<polygon fill="white" stroke="#666666" points="547.5,-296.5 442.25,-296.5 442.25,-266 547.5,-266 547.5,-296.5"/>
<text text-anchor="start" x="450.25" y="-283" font-family="Helvetica,sans-Serif" font-size="10.00">include/llzk/Analysis</text>
<text text-anchor="middle" x="494.88" y="-271.75" font-family="Helvetica,sans-Serif" font-size="10.00">/ConstrainRef.h</text>
</a>
</g>
</g>
<!-- Node1&#45;&gt;Node10 -->
<g id="edge10_Node000001_Node000010" class="edge">
<title>Node1&#45;&gt;Node10</title>
<g id="a_edge10_Node000001_Node000010"><a xlink:title=" ">
<path fill="none" stroke="#63b8ff" d="M2186.99,-344.51C1913.92,-334.46 804.23,-293.63 547.89,-284.2"/>
<polygon fill="#63b8ff" stroke="#63b8ff" points="2186.6,-348 2196.72,-344.87 2186.86,-341 2186.6,-348"/>
</a>
</g>
</g>
<!-- Node13 -->
<g id="Node000013" class="node">
<title>Node13</title>
<g id="a_Node000013"><a xlink:href="_function_2_i_r_2_ops_8h.html" target="_top" xlink:title=" ">
<polygon fill="white" stroke="#666666" points="1703.5,-296.5 1604.25,-296.5 1604.25,-266 1703.5,-266 1703.5,-296.5"/>
<text text-anchor="start" x="1612.25" y="-283" font-family="Helvetica,sans-Serif" font-size="10.00">include/llzk/Dialect</text>
<text text-anchor="middle" x="1653.88" y="-271.75" font-family="Helvetica,sans-Serif" font-size="10.00">/Function/IR/Ops.h</text>
</a>
</g>
</g>
<!-- Node1&#45;&gt;Node13 -->
<g id="edge17_Node000001_Node000013" class="edge">
<title>Node1&#45;&gt;Node13</title>
<g id="a_edge17_Node000001_Node000013"><a xlink:title=" ">
<path fill="none" stroke="#63b8ff" d="M2186.96,-340.14C2069.17,-327.34 1812.23,-299.45 1703.77,-287.67"/>
<polygon fill="#63b8ff" stroke="#63b8ff" points="2186.43,-343.6 2196.75,-341.2 2187.18,-336.64 2186.43,-343.6"/>
</a>
</g>
</g>
<!-- Node27 -->
<g id="Node000027" class="node">
<title>Node27</title>
<g id="a_Node000027"><a xlink:href="_function_2_i_r_2_ops_8cpp.html" target="_top" xlink:title=" ">
<polygon fill="white" stroke="#666666" points="2699.88,-230 2599.88,-230 2599.88,-199.5 2699.88,-199.5 2699.88,-230"/>
<text text-anchor="start" x="2607.88" y="-216.5" font-family="Helvetica,sans-Serif" font-size="10.00">lib/Dialect/Function</text>
<text text-anchor="middle" x="2649.88" y="-205.25" font-family="Helvetica,sans-Serif" font-size="10.00">/IR/Ops.cpp</text>
</a>
</g>
</g>
<!-- Node1&#45;&gt;Node27 -->
<g id="edge44_Node000001_Node000027" class="edge">
<title>Node1&#45;&gt;Node27</title>
<g id="a_edge44_Node000001_Node000027"><a xlink:title=" ">
<path fill="none" stroke="#63b8ff" d="M2226.49,-323.77C2212.77,-306.21 2200.05,-282.33 2214.88,-266 2242.71,-235.33 2544.97,-236.51 2585.88,-230 2590.37,-229.28 2595.03,-228.44 2599.68,-227.54"/>
<polygon fill="#63b8ff" stroke="#63b8ff" points="2223.55,-325.71 2232.65,-331.14 2228.92,-321.22 2223.55,-325.71"/>
</a>
</g>
</g>
<!-- Node29 -->
<g id="Node000029" class="node">
<title>Node29</title>
<g id="a_Node000029"><a xlink:href="_flattening_pass_8cpp.html" target="_top" xlink:title="This file implements the &#45;llzk&#45;flatten pass.">
<polygon fill="white" stroke="#666666" points="2873.62,-230 2718.12,-230 2718.12,-199.5 2873.62,-199.5 2873.62,-230"/>
<text text-anchor="start" x="2726.12" y="-216.5" font-family="Helvetica,sans-Serif" font-size="10.00">lib/Dialect/Polymorphic</text>
<text text-anchor="middle" x="2795.88" y="-205.25" font-family="Helvetica,sans-Serif" font-size="10.00">/Transforms/FlatteningPass.cpp</text>
</a>
</g>
</g>
<!-- Node1&#45;&gt;Node29 -->
<g id="edge46_Node000001_Node000029" class="edge">
<title>Node1&#45;&gt;Node29</title>
<g id="a_edge46_Node000001_Node000029"><a xlink:title=" ">
<path fill="none" stroke="#63b8ff" d="M2241.6,-321.14C2238.88,-303.26 2238.97,-280.15 2252.88,-266 2288.51,-229.76 2658.42,-236.11 2708.88,-230 2711.76,-229.65 2714.7,-229.27 2717.66,-228.88"/>
<polygon fill="#63b8ff" stroke="#63b8ff" points="2238.13,-321.61 2243.45,-330.77 2245,-320.29 2238.13,-321.61"/>
</a>
</g>
</g>
<!-- Node30 -->
<g id="Node000030" class="node">
<title>Node30</title>
<g id="a_Node000030"><a xlink:href="_struct_2_i_r_2_ops_8cpp.html" target="_top" xlink:title=" ">
<polygon fill="white" stroke="#666666" points="2980.25,-230 2891.5,-230 2891.5,-199.5 2980.25,-199.5 2980.25,-230"/>
<text text-anchor="start" x="2899.5" y="-216.5" font-family="Helvetica,sans-Serif" font-size="10.00">lib/Dialect/Struct</text>
<text text-anchor="middle" x="2935.88" y="-205.25" font-family="Helvetica,sans-Serif" font-size="10.00">/IR/Ops.cpp</text>
</a>
</g>
</g>
<!-- Node1&#45;&gt;Node30 -->
<g id="edge48_Node000001_Node000030" class="edge">
<title>Node1&#45;&gt;Node30</title>
<g id="a_edge48_Node000001_Node000030"><a xlink:title=" ">
<path fill="none" stroke="#63b8ff" d="M2252.7,-321.19C2257.66,-302.58 2267.37,-278.54 2285.88,-266 2340.89,-228.72 2817.29,-240.68 2882.88,-230 2885.6,-229.56 2888.39,-229.03 2891.19,-228.45"/>
<polygon fill="#63b8ff" stroke="#63b8ff" points="2249.34,-320.17 2250.48,-330.71 2256.16,-321.76 2249.34,-320.17"/>
</a>
</g>
</g>
<!-- Node34 -->
<g id="Node000034" class="node">
<title>Node34</title>
<g id="a_Node000034"><a xlink:href="_polymorphic_2_i_r_2_ops_8cpp.html" target="_top" xlink:title=" ">
<polygon fill="white" stroke="#666666" points="2411.12,-296.5 2294.62,-296.5 2294.62,-266 2411.12,-266 2411.12,-296.5"/>
<text text-anchor="start" x="2302.62" y="-283" font-family="Helvetica,sans-Serif" font-size="10.00">lib/Dialect/Polymorphic</text>
<text text-anchor="middle" x="2352.88" y="-271.75" font-family="Helvetica,sans-Serif" font-size="10.00">/IR/Ops.cpp</text>
</a>
</g>
</g>
<!-- Node1&#45;&gt;Node34 -->
<g id="edge45_Node000001_Node000034" class="edge">
<title>Node1&#45;&gt;Node34</title>
<g id="a_edge45_Node000001_Node000034"><a xlink:title=" ">
<path fill="none" stroke="#63b8ff" d="M2281.47,-326.11C2296.99,-316.58 2315.06,-305.48 2329.14,-296.83"/>
<polygon fill="#63b8ff" stroke="#63b8ff" points="2279.68,-323.11 2272.99,-331.32 2283.34,-329.07 2279.68,-323.11"/>
</a>
</g>
</g>
<!-- Node35 -->
<g id="Node000035" class="node">
<title>Node35</title>
<g id="a_Node000035"><a xlink:href="_struct_2_i_r_2_dialect_8cpp.html" target="_top" xlink:title=" ">
<polygon fill="white" stroke="#666666" points="2518.25,-296.5 2429.5,-296.5 2429.5,-266 2518.25,-266 2518.25,-296.5"/>
<text text-anchor="start" x="2437.5" y="-283" font-family="Helvetica,sans-Serif" font-size="10.00">lib/Dialect/Struct</text>
<text text-anchor="middle" x="2473.88" y="-271.75" font-family="Helvetica,sans-Serif" font-size="10.00">/IR/Dialect.cpp</text>
</a>
</g>
</g>
<!-- Node1&#45;&gt;Node35 -->
<g id="edge47_Node000001_Node000035" class="edge">
<title>Node1&#45;&gt;Node35</title>
<g id="a_edge47_Node000001_Node000035"><a xlink:title=" ">
<path fill="none" stroke="#63b8ff" d="M2308.43,-329.47C2346.51,-318.6 2394.81,-304.82 2429.37,-294.95"/>
<polygon fill="#63b8ff" stroke="#63b8ff" points="2307.58,-326.07 2298.93,-332.18 2309.5,-332.8 2307.58,-326.07"/>
</a>
</g>
</g>
<!-- Node36 -->
<g id="Node000036" class="node">
<title>Node36</title>
<g id="a_Node000036"><a xlink:href="_struct_2_i_r_2_types_8cpp.html" target="_top" xlink:title=" ">
<polygon fill="white" stroke="#666666" points="2625.25,-296.5 2536.5,-296.5 2536.5,-266 2625.25,-266 2625.25,-296.5"/>
<text text-anchor="start" x="2544.5" y="-283" font-family="Helvetica,sans-Serif" font-size="10.00">lib/Dialect/Struct</text>
<text text-anchor="middle" x="2580.88" y="-271.75" font-family="Helvetica,sans-Serif" font-size="10.00">/IR/Types.cpp</text>
</a>
</g>
</g>
<!-- Node1&#45;&gt;Node36 -->
<g id="edge49_Node000001_Node000036" class="edge">
<title>Node1&#45;&gt;Node36</title>
<g id="a_edge49_Node000001_Node000036"><a xlink:title=" ">
<path fill="none" stroke="#63b8ff" d="M2308.78,-337.22C2365.49,-328 2452.25,-313.04 2526.88,-296.5 2529.9,-295.83 2533.02,-295.1 2536.15,-294.35"/>
<polygon fill="#63b8ff" stroke="#63b8ff" points="2308.31,-333.75 2299,-338.8 2309.43,-340.66 2308.31,-333.75"/>
</a>
</g>
</g>
<!-- Node37 -->
<g id="Node000037" class="node">
<title>Node37</title>
<g id="a_Node000037"><a xlink:href="_l_l_z_k_unused_declaration_elimination_pass_8cpp.html" target="_top" xlink:title="This file implements the &#45;llzk&#45;unused&#45;declaration&#45;elim pass.">
<polygon fill="white" stroke="#666666" points="2798.25,-296.5 2643.5,-296.5 2643.5,-266 2798.25,-266 2798.25,-296.5"/>
<text text-anchor="start" x="2651.5" y="-283" font-family="Helvetica,sans-Serif" font-size="10.00">lib/Transforms/LLZKUnused</text>
<text text-anchor="middle" x="2720.88" y="-271.75" font-family="Helvetica,sans-Serif" font-size="10.00">DeclarationEliminationPass.cpp</text>
</a>
</g>
</g>
<!-- Node1&#45;&gt;Node37 -->
<g id="edge50_Node000001_Node000037" class="edge">
<title>Node1&#45;&gt;Node37</title>
<g id="a_edge50_Node000001_Node000037"><a xlink:title=" ">
<path fill="none" stroke="#63b8ff" d="M2308.87,-339.44C2385.02,-330.17 2519.24,-313.34 2633.88,-296.5 2636.9,-296.05 2639.99,-295.59 2643.11,-295.12"/>
<polygon fill="#63b8ff" stroke="#63b8ff" points="2308.62,-335.94 2299.11,-340.62 2309.46,-342.89 2308.62,-335.94"/>
</a>
</g>
</g>
<!-- Node3 -->
<g id="Node000003" class="node">
<title>Node3</title>
<g id="a_Node000003"><a xlink:href="_constraint_dependency_graph_8h.html" target="_top" xlink:title=" ">
<polygon fill="white" stroke="#666666" points="396.5,-163.5 243.25,-163.5 243.25,-133 396.5,-133 396.5,-163.5"/>
<text text-anchor="start" x="251.25" y="-150" font-family="Helvetica,sans-Serif" font-size="10.00">include/llzk/Analysis</text>
<text text-anchor="middle" x="319.88" y="-138.75" font-family="Helvetica,sans-Serif" font-size="10.00">/ConstraintDependencyGraph.h</text>
</a>
</g>
</g>
<!-- Node2&#45;&gt;Node3 -->
<g id="edge2_Node000002_Node000003" class="edge">
<title>Node2&#45;&gt;Node3</title>
<g id="a_edge2_Node000002_Node000003"><a xlink:title=" ">
<path fill="none" stroke="#63b8ff" d="M266.17,-192.02C277.82,-182.73 291.12,-172.15 301.57,-163.83"/>
<polygon fill="#63b8ff" stroke="#63b8ff" points="264.08,-189.2 258.44,-198.17 268.44,-194.68 264.08,-189.2"/>
</a>
</g>
</g>
<!-- Node4 -->
<g id="Node000004" class="node">
<title>Node4</title>
<g id="a_Node000004"><a xlink:href="_interval_analysis_8h.html" target="_top" xlink:title=" ">
<polygon fill="white" stroke="#666666" points="214.5,-97 109.25,-97 109.25,-66.5 214.5,-66.5 214.5,-97"/>
<text text-anchor="start" x="117.25" y="-83.5" font-family="Helvetica,sans-Serif" font-size="10.00">include/llzk/Analysis</text>
<text text-anchor="middle" x="161.88" y="-72.25" font-family="Helvetica,sans-Serif" font-size="10.00">/IntervalAnalysis.h</text>
</a>
</g>
</g>
<!-- Node2&#45;&gt;Node4 -->
<g id="edge9_Node000002_Node000004" class="edge">
<title>Node2&#45;&gt;Node4</title>
<g id="a_edge9_Node000002_Node000004"><a xlink:title=" ">
<path fill="none" stroke="#63b8ff" d="M224.55,-189.38C208.66,-162.34 183.54,-119.6 170.45,-97.33"/>
<polygon fill="#63b8ff" stroke="#63b8ff" points="221.49,-191.08 229.57,-197.93 227.52,-187.53 221.49,-191.08"/>
</a>
</g>
</g>
<!-- Node3&#45;&gt;Node4 -->
<g id="edge3_Node000003_Node000004" class="edge">
<title>Node3&#45;&gt;Node4</title>
<g id="a_edge3_Node000003_Node000004"><a xlink:title=" ">
<path fill="none" stroke="#63b8ff" d="M273.66,-128.38C249.48,-118.51 220.33,-106.61 197.86,-97.44"/>
<polygon fill="#63b8ff" stroke="#63b8ff" points="272.04,-131.5 282.62,-132.04 274.69,-125.02 272.04,-131.5"/>
</a>
</g>
</g>
<!-- Node7 -->
<g id="Node000007" class="node">
<title>Node7</title>
<g id="a_Node000007"><a xlink:href="_constrain_ref_lattice_8cpp.html" target="_top" xlink:title=" ">
<polygon fill="white" stroke="#666666" points="546.38,-97 419.38,-97 419.38,-66.5 546.38,-66.5 546.38,-97"/>
<text text-anchor="start" x="427.38" y="-83.5" font-family="Helvetica,sans-Serif" font-size="10.00">lib/Analysis/ConstrainRef</text>
<text text-anchor="middle" x="482.88" y="-72.25" font-family="Helvetica,sans-Serif" font-size="10.00">Lattice.cpp</text>
</a>
</g>
</g>
<!-- Node3&#45;&gt;Node7 -->
<g id="edge6_Node000003_Node000007" class="edge">
<title>Node3&#45;&gt;Node7</title>
<g id="a_edge6_Node000003_Node000007"><a xlink:title=" ">
<path fill="none" stroke="#63b8ff" d="M367.56,-128.38C392.5,-118.51 422.57,-106.61 445.75,-97.44"/>
<polygon fill="#63b8ff" stroke="#63b8ff" points="366.28,-125.12 358.27,-132.06 368.86,-131.63 366.28,-125.12"/>
</a>
</g>
</g>
<!-- Node8 -->
<g id="Node000008" class="node">
<title>Node8</title>
<g id="a_Node000008"><a xlink:href="_constraint_dependency_graph_8cpp.html" target="_top" xlink:title=" ">
<polygon fill="white" stroke="#666666" points="733.38,-97 564.38,-97 564.38,-66.5 733.38,-66.5 733.38,-97"/>
<text text-anchor="start" x="572.38" y="-83.5" font-family="Helvetica,sans-Serif" font-size="10.00">lib/Analysis/ConstraintDependency</text>
<text text-anchor="middle" x="648.88" y="-72.25" font-family="Helvetica,sans-Serif" font-size="10.00">Graph.cpp</text>
</a>
</g>
</g>
<!-- Node3&#45;&gt;Node8 -->
<g id="edge7_Node000003_Node000008" class="edge">
<title>Node3&#45;&gt;Node8</title>
<g id="a_edge7_Node000003_Node000008"><a xlink:title=" ">
<path fill="none" stroke="#63b8ff" d="M406.17,-130.33C458.24,-120.12 523.94,-107.24 573.85,-97.46"/>
<polygon fill="#63b8ff" stroke="#63b8ff" points="405.57,-126.88 396.43,-132.24 406.91,-133.75 405.57,-126.88"/>
</a>
</g>
</g>
<!-- Node9 -->
<g id="Node000009" class="node">
<title>Node9</title>
<g id="a_Node000009"><a xlink:href="_constraint_dependency_graph_pass_8cpp.html" target="_top" xlink:title="This file implements the &#45;llzk&#45;print&#45;constraint&#45;dependency&#45;graphs pass.">
<polygon fill="white" stroke="#666666" points="401.38,-97 232.38,-97 232.38,-66.5 401.38,-66.5 401.38,-97"/>
<text text-anchor="start" x="240.38" y="-83.5" font-family="Helvetica,sans-Serif" font-size="10.00">lib/Analysis/ConstraintDependency</text>
<text text-anchor="middle" x="316.88" y="-72.25" font-family="Helvetica,sans-Serif" font-size="10.00">GraphPass.cpp</text>
</a>
</g>
</g>
<!-- Node3&#45;&gt;Node9 -->
<g id="edge8_Node000003_Node000009" class="edge">
<title>Node3&#45;&gt;Node9</title>
<g id="a_edge8_Node000003_Node000009"><a xlink:title=" ">
<path fill="none" stroke="#63b8ff" d="M318.67,-121.31C318.29,-113.14 317.88,-104.41 317.55,-97.33"/>
<polygon fill="#63b8ff" stroke="#63b8ff" points="315.16,-121.28 319.12,-131.1 322.16,-120.95 315.16,-121.28"/>
</a>
</g>
</g>
<!-- Node5 -->
<g id="Node000005" class="node">
<title>Node5</title>
<g id="a_Node000005"><a xlink:href="_interval_analysis_8cpp.html" target="_top" xlink:title=" ">
<polygon fill="white" stroke="#666666" points="157.75,-24.88 0,-24.88 0,-5.63 157.75,-5.63 157.75,-24.88"/>
<text text-anchor="middle" x="78.88" y="-11.38" font-family="Helvetica,sans-Serif" font-size="10.00">lib/Analysis/IntervalAnalysis.cpp</text>
</a>
</g>
</g>
<!-- Node4&#45;&gt;Node5 -->
<g id="edge4_Node000004_Node000005" class="edge">
<title>Node4&#45;&gt;Node5</title>
<g id="a_edge4_Node000004_Node000005"><a xlink:title=" ">
<path fill="none" stroke="#63b8ff" d="M134.14,-59.2C119.16,-47.56 101.48,-33.82 90.23,-25.07"/>
<polygon fill="#63b8ff" stroke="#63b8ff" points="131.8,-61.81 141.85,-65.19 136.1,-56.29 131.8,-61.81"/>
</a>
</g>
</g>
<!-- Node6 -->
<g id="Node000006" class="node">
<title>Node6</title>
<g id="a_Node000006"><a xlink:href="_interval_analysis_pass_8cpp.html" target="_top" xlink:title="This file implements the &#45;llzk&#45;print&#45;interval&#45;analysis pass.">
<polygon fill="white" stroke="#666666" points="314.38,-30.5 175.38,-30.5 175.38,0 314.38,0 314.38,-30.5"/>
<text text-anchor="start" x="183.38" y="-17" font-family="Helvetica,sans-Serif" font-size="10.00">lib/Analysis/IntervalAnalysis</text>
<text text-anchor="middle" x="244.88" y="-5.75" font-family="Helvetica,sans-Serif" font-size="10.00">Pass.cpp</text>
</a>
</g>
</g>
<!-- Node4&#45;&gt;Node6 -->
<g id="edge5_Node000004_Node000006" class="edge">
<title>Node4&#45;&gt;Node6</title>
<g id="a_edge5_Node000004_Node000006"><a xlink:title=" ">
<path fill="none" stroke="#63b8ff" d="M189.49,-59.29C201.52,-49.94 215.3,-39.23 226.12,-30.83"/>
<polygon fill="#63b8ff" stroke="#63b8ff" points="187.65,-56.29 181.9,-65.19 191.95,-61.81 187.65,-56.29"/>
</a>
</g>
</g>
<!-- Node10&#45;&gt;Node3 -->
<g id="edge15_Node000010_Node000003" class="edge">
<title>Node10&#45;&gt;Node3</title>
<g id="a_edge15_Node000010_Node000003"><a xlink:title=" ">
<path fill="none" stroke="#63b8ff" d="M430.82,-274.35C399.01,-268.14 362.43,-255.54 338.88,-230 322.08,-211.79 319.28,-181.6 319.24,-163.75"/>
<polygon fill="#63b8ff" stroke="#63b8ff" points="429.9,-277.74 440.36,-276.02 431.11,-270.84 429.9,-277.74"/>
</a>
</g>
</g>
<!-- Node11 -->
<g id="Node000011" class="node">
<title>Node11</title>
<g id="a_Node000011"><a xlink:href="_constrain_ref_lattice_8h.html" target="_top" xlink:title=" ">
<polygon fill="white" stroke="#666666" points="462,-230 347.75,-230 347.75,-199.5 462,-199.5 462,-230"/>
<text text-anchor="start" x="355.75" y="-216.5" font-family="Helvetica,sans-Serif" font-size="10.00">include/llzk/Analysis</text>
<text text-anchor="middle" x="404.88" y="-205.25" font-family="Helvetica,sans-Serif" font-size="10.00">/ConstrainRefLattice.h</text>
</a>
</g>
</g>
<!-- Node10&#45;&gt;Node11 -->
<g id="edge11_Node000010_Node000011" class="edge">
<title>Node10&#45;&gt;Node11</title>
<g id="a_edge11_Node000010_Node000011"><a xlink:title=" ">
<path fill="none" stroke="#63b8ff" d="M465.32,-259.07C452.18,-249.66 437.05,-238.81 425.22,-230.33"/>
<polygon fill="#63b8ff" stroke="#63b8ff" points="463.06,-261.75 473.22,-264.73 467.13,-256.06 463.06,-261.75"/>
</a>
</g>
</g>
<!-- Node12 -->
<g id="Node000012" class="node">
<title>Node12</title>
<g id="a_Node000012"><a xlink:href="_constrain_ref_8cpp.html" target="_top" xlink:title=" ">
<polygon fill="white" stroke="#666666" points="625.75,-224.38 480,-224.38 480,-205.12 625.75,-205.12 625.75,-224.38"/>
<text text-anchor="middle" x="552.88" y="-210.88" font-family="Helvetica,sans-Serif" font-size="10.00">lib/Analysis/ConstrainRef.cpp</text>
</a>
</g>
</g>
<!-- Node10&#45;&gt;Node12 -->
<g id="edge16_Node000010_Node000012" class="edge">
<title>Node10&#45;&gt;Node12</title>
<g id="a_edge16_Node000010_Node000012"><a xlink:title=" ">
<path fill="none" stroke="#63b8ff" d="M515.45,-257.37C525.65,-246.03 537.37,-232.99 544.94,-224.57"/>
<polygon fill="#63b8ff" stroke="#63b8ff" points="513.13,-254.71 509.05,-264.49 518.34,-259.39 513.13,-254.71"/>
</a>
</g>
</g>
<!-- Node11&#45;&gt;Node3 -->
<g id="edge12_Node000011_Node000003" class="edge">
<title>Node11&#45;&gt;Node3</title>
<g id="a_edge12_Node000011_Node000003"><a xlink:title=" ">
<path fill="none" stroke="#63b8ff" d="M376.6,-192.29C364.28,-182.94 350.16,-172.23 339.09,-163.83"/>
<polygon fill="#63b8ff" stroke="#63b8ff" points="374.3,-194.94 384.38,-198.2 378.53,-189.37 374.3,-194.94"/>
</a>
</g>
</g>
<!-- Node11&#45;&gt;Node7 -->
<g id="edge13_Node000011_Node000007" class="edge">
<title>Node11&#45;&gt;Node7</title>
<g id="a_edge13_Node000011_Node000007"><a xlink:title=" ">
<path fill="none" stroke="#63b8ff" d="M419.39,-189.38C435.48,-162.34 460.93,-119.6 474.19,-97.33"/>
<polygon fill="#63b8ff" stroke="#63b8ff" points="416.4,-187.55 414.29,-197.93 422.42,-191.13 416.4,-187.55"/>
</a>
</g>
</g>
<!-- Node11&#45;&gt;Node8 -->
<g id="edge14_Node000011_Node000008" class="edge">
<title>Node11&#45;&gt;Node8</title>
<g id="a_edge14_Node000011_Node000008"><a xlink:title=" ">
<path fill="none" stroke="#63b8ff" d="M441.88,-193.88C491.34,-167.33 577.84,-120.89 621.71,-97.33"/>
<polygon fill="#63b8ff" stroke="#63b8ff" points="440.41,-190.7 433.25,-198.51 443.72,-196.87 440.41,-190.7"/>
</a>
</g>
</g>
<!-- Node13&#45;&gt;Node4 -->
<g id="edge22_Node000013_Node000004" class="edge">
<title>Node13&#45;&gt;Node4</title>
<g id="a_edge22_Node000013_Node000004"><a xlink:title=" ">
<path fill="none" stroke="#63b8ff" d="M1592.67,-279.26C1317.03,-274.65 203.15,-254.56 176.88,-230 139.89,-195.43 150.95,-126.87 158,-97.1"/>
<polygon fill="#63b8ff" stroke="#63b8ff" points="1592.45,-282.75 1602.51,-279.42 1592.57,-275.76 1592.45,-282.75"/>
</a>
</g>
</g>
<!-- Node13&#45;&gt;Node7 -->
<g id="edge29_Node000013_Node000007" class="edge">
<title>Node13&#45;&gt;Node7</title>
<g id="a_edge29_Node000013_Node000007"><a xlink:title=" ">
<path fill="none" stroke="#63b8ff" d="M1592.63,-278.94C1395.16,-274.47 783.13,-258.43 698.88,-230 655.34,-215.31 545.52,-131.72 501.53,-97.43"/>
<polygon fill="#63b8ff" stroke="#63b8ff" points="1592.34,-282.44 1602.42,-279.16 1592.5,-275.44 1592.34,-282.44"/>
</a>
</g>
</g>
<!-- Node13&#45;&gt;Node8 -->
<g id="edge30_Node000013_Node000008" class="edge">
<title>Node13&#45;&gt;Node8</title>
<g id="a_edge30_Node000013_Node000008"><a xlink:title=" ">
<path fill="none" stroke="#63b8ff" d="M1715.22,-279.11C1913.21,-275.13 2524.1,-260.43 2552.88,-230 2562.19,-220.15 2562.01,-209.51 2552.88,-199.5 2490.72,-131.39 1095.2,-93.41 733.74,-84.7"/>
<polygon fill="#63b8ff" stroke="#63b8ff" points="1715.33,-275.61 1705.4,-279.3 1715.47,-282.6 1715.33,-275.61"/>
</a>
</g>
</g>
<!-- Node13&#45;&gt;Node12 -->
<g id="edge28_Node000013_Node000012" class="edge">
<title>Node13&#45;&gt;Node12</title>
<g id="a_edge28_Node000013_Node000012"><a xlink:title=" ">
<path fill="none" stroke="#63b8ff" d="M1592.51,-279.62C1434.27,-277.47 999.6,-268.25 639.88,-230 627.7,-228.71 614.64,-226.83 602.43,-224.86"/>
<polygon fill="#63b8ff" stroke="#63b8ff" points="1592.31,-283.12 1602.35,-279.75 1592.4,-276.12 1592.31,-283.12"/>
</a>
</g>
</g>
<!-- Node14 -->
<g id="Node000014" class="node">
<title>Node14</title>
<g id="a_Node000014"><a xlink:href="_call_graph_analyses_8h.html" target="_top" xlink:title=" ">
<polygon fill="white" stroke="#666666" points="831.5,-230 720.25,-230 720.25,-199.5 831.5,-199.5 831.5,-230"/>
<text text-anchor="start" x="728.25" y="-216.5" font-family="Helvetica,sans-Serif" font-size="10.00">include/llzk/Analysis</text>
<text text-anchor="middle" x="775.88" y="-205.25" font-family="Helvetica,sans-Serif" font-size="10.00">/CallGraphAnalyses.h</text>
</a>
</g>
</g>
<!-- Node13&#45;&gt;Node14 -->
<g id="edge18_Node000013_Node000014" class="edge">
<title>Node13&#45;&gt;Node14</title>
<g id="a_edge18_Node000013_Node000014"><a xlink:title=" ">
<path fill="none" stroke="#63b8ff" d="M1592.68,-279.34C1457.43,-276.69 1123.09,-266.66 845.88,-230 841.33,-229.4 836.63,-228.67 831.92,-227.87"/>
<polygon fill="#63b8ff" stroke="#63b8ff" points="1592.42,-282.83 1602.48,-279.52 1592.55,-275.83 1592.42,-282.83"/>
</a>
</g>
</g>
<!-- Node15 -->
<g id="Node000015" class="node">
<title>Node15</title>
<g id="a_Node000015"><a xlink:href="_call_graph_analyses_8cpp.html" target="_top" xlink:title=" ">
<polygon fill="white" stroke="#666666" points="812.88,-157.88 640.88,-157.88 640.88,-138.62 812.88,-138.62 812.88,-157.88"/>
<text text-anchor="middle" x="726.88" y="-144.38" font-family="Helvetica,sans-Serif" font-size="10.00">lib/Analysis/CallGraphAnalyses.cpp</text>
</a>
</g>
</g>
<!-- Node13&#45;&gt;Node15 -->
<g id="edge26_Node000013_Node000015" class="edge">
<title>Node13&#45;&gt;Node15</title>
<g id="a_edge26_Node000013_Node000015"><a xlink:title=" ">
<path fill="none" stroke="#63b8ff" d="M1592.66,-279.28C1388.38,-275.74 741.25,-262.04 710.88,-230 692,-210.09 710.44,-174.62 720.84,-158.13"/>
<polygon fill="#63b8ff" stroke="#63b8ff" points="1592.47,-282.78 1602.53,-279.45 1592.59,-275.78 1592.47,-282.78"/>
</a>
</g>
</g>
<!-- Node16 -->
<g id="Node000016" class="node">
<title>Node16</title>
<g id="a_Node000016"><a xlink:href="_call_graph_passes_8cpp.html" target="_top" xlink:title="This file implements the &#45;llzk&#45;print&#45;call&#45;graph and &#45;llzk&#45;print&#45;call&#45;graph&#45;sccs passes.">
<polygon fill="white" stroke="#666666" points="1165.12,-157.88 1000.62,-157.88 1000.62,-138.62 1165.12,-138.62 1165.12,-157.88"/>
<text text-anchor="middle" x="1082.88" y="-144.38" font-family="Helvetica,sans-Serif" font-size="10.00">lib/Analysis/CallGraphPasses.cpp</text>
</a>
</g>
</g>
<!-- Node13&#45;&gt;Node16 -->
<g id="edge27_Node000013_Node000016" class="edge">
<title>Node13&#45;&gt;Node16</title>
<g id="a_edge27_Node000013_Node000016"><a xlink:title=" ">
<path fill="none" stroke="#63b8ff" d="M1592.69,-278.54C1413.87,-273.26 903.19,-255.95 878.88,-230 869.61,-220.11 870.51,-210.17 878.88,-199.5 888.42,-187.32 975,-169.2 1032.26,-158.37"/>
<polygon fill="#63b8ff" stroke="#63b8ff" points="1592.37,-282.03 1602.47,-278.83 1592.57,-275.04 1592.37,-282.03"/>
</a>
</g>
</g>
<!-- Node18 -->
<g id="Node000018" class="node">
<title>Node18</title>
<g id="a_Node000018"><a xlink:href="_builders_8h.html" target="_top" xlink:title=" ">
<polygon fill="white" stroke="#666666" points="1820.12,-230 1721.62,-230 1721.62,-199.5 1820.12,-199.5 1820.12,-230"/>
<text text-anchor="start" x="1729.62" y="-216.5" font-family="Helvetica,sans-Serif" font-size="10.00">include/llzk/Dialect</text>
<text text-anchor="middle" x="1770.88" y="-205.25" font-family="Helvetica,sans-Serif" font-size="10.00">/Shared/Builders.h</text>
</a>
</g>
</g>
<!-- Node13&#45;&gt;Node18 -->
<g id="edge23_Node000013_Node000018" class="edge">
<title>Node13&#45;&gt;Node18</title>
<g id="a_edge23_Node000013_Node000018"><a xlink:title=" ">
<path fill="none" stroke="#63b8ff" d="M1690.32,-260.16C1707.84,-250.5 1728.44,-239.14 1744.43,-230.33"/>
<polygon fill="#63b8ff" stroke="#63b8ff" points="1688.82,-256.99 1681.75,-264.88 1692.2,-263.12 1688.82,-256.99"/>
</a>
</g>
</g>
<!-- Node20 -->
<g id="Node000020" class="node">
<title>Node20</title>
<g id="a_Node000020"><a xlink:href="_call_graph_8cpp.html" target="_top" xlink:title=" ">
<polygon fill="white" stroke="#666666" points="1019.62,-224.38 888.12,-224.38 888.12,-205.12 1019.62,-205.12 1019.62,-224.38"/>
<text text-anchor="middle" x="953.88" y="-210.88" font-family="Helvetica,sans-Serif" font-size="10.00">lib/Analysis/CallGraph.cpp</text>
</a>
</g>
</g>
<!-- Node13&#45;&gt;Node20 -->
<g id="edge25_Node000013_Node000020" class="edge">
<title>Node13&#45;&gt;Node20</title>
<g id="a_edge25_Node000013_Node000020"><a xlink:title=" ">
<path fill="none" stroke="#63b8ff" d="M1592.44,-277.51C1480.15,-272 1234.4,-257.7 1028.88,-230 1018.63,-228.62 1007.67,-226.76 997.37,-224.83"/>
<polygon fill="#63b8ff" stroke="#63b8ff" points="1592.19,-281 1602.34,-277.98 1592.52,-274.01 1592.19,-281"/>
</a>
</g>
</g>
<!-- Node21 -->
<g id="Node000021" class="node">
<title>Node21</title>
<g id="a_Node000021"><a xlink:href="_dense_analysis_8cpp.html" target="_top" xlink:title=" ">
<polygon fill="white" stroke="#666666" points="1191.88,-224.38 1037.88,-224.38 1037.88,-205.12 1191.88,-205.12 1191.88,-224.38"/>
<text text-anchor="middle" x="1114.88" y="-210.88" font-family="Helvetica,sans-Serif" font-size="10.00">lib/Analysis/DenseAnalysis.cpp</text>
</a>
</g>
</g>
<!-- Node13&#45;&gt;Node21 -->
<g id="edge31_Node000013_Node000021" class="edge">
<title>Node13&#45;&gt;Node21</title>
<g id="a_edge31_Node000013_Node000021"><a xlink:title=" ">
<path fill="none" stroke="#63b8ff" d="M1592.56,-274.5C1505.36,-266.09 1340.59,-249.31 1200.88,-230 1189.93,-228.49 1178.24,-226.68 1167.11,-224.87"/>
<polygon fill="#63b8ff" stroke="#63b8ff" points="1592.03,-277.97 1602.32,-275.44 1592.7,-271 1592.03,-277.97"/>
</a>
</g>
</g>
<!-- Node22 -->
<g id="Node000022" class="node">
<title>Node22</title>
<g id="a_Node000022"><a xlink:href="_array_to_scalar_pass_8cpp.html" target="_top" xlink:title="This file implements the &#45;llzk&#45;array&#45;to&#45;scalar pass.">
<polygon fill="white" stroke="#666666" points="1348,-230 1209.75,-230 1209.75,-199.5 1348,-199.5 1348,-230"/>
<text text-anchor="start" x="1217.75" y="-216.5" font-family="Helvetica,sans-Serif" font-size="10.00">lib/Dialect/Array/Transforms</text>
<text text-anchor="middle" x="1278.88" y="-205.25" font-family="Helvetica,sans-Serif" font-size="10.00">/ArrayToScalarPass.cpp</text>
</a>
</g>
</g>
<!-- Node13&#45;&gt;Node22 -->
<g id="edge32_Node000013_Node000022" class="edge">
<title>Node13&#45;&gt;Node22</title>
<g id="a_edge32_Node000013_Node000022"><a xlink:title=" ">
<path fill="none" stroke="#63b8ff" d="M1592.74,-270.15C1532.67,-260.16 1438.41,-244.34 1356.88,-230 1354.03,-229.5 1351.12,-228.98 1348.19,-228.46"/>
<polygon fill="#63b8ff" stroke="#63b8ff" points="1591.99,-273.57 1602.43,-271.75 1593.13,-266.66 1591.99,-273.57"/>
</a>
</g>
</g>
<!-- Node23 -->
<g id="Node000023" class="node">
<title>Node23</title>
<g id="a_Node000023"><a xlink:href="_cast_2_i_r_2_ops_8cpp.html" target="_top" xlink:title=" ">
<polygon fill="white" stroke="#666666" points="1463.38,-230 1366.38,-230 1366.38,-199.5 1463.38,-199.5 1463.38,-230"/>
<text text-anchor="start" x="1374.38" y="-216.5" font-family="Helvetica,sans-Serif" font-size="10.00">lib/Dialect/Cast/IR</text>
<text text-anchor="middle" x="1414.88" y="-205.25" font-family="Helvetica,sans-Serif" font-size="10.00">/Ops.cpp</text>
</a>
</g>
</g>
<!-- Node13&#45;&gt;Node23 -->
<g id="edge33_Node000013_Node000023" class="edge">
<title>Node13&#45;&gt;Node23</title>
<g id="a_edge33_Node000013_Node000023"><a xlink:title=" ">
<path fill="none" stroke="#63b8ff" d="M1592.8,-263.77C1552.72,-252.95 1501.02,-239 1463.68,-228.92"/>
<polygon fill="#63b8ff" stroke="#63b8ff" points="1591.74,-267.11 1602.31,-266.33 1593.57,-260.35 1591.74,-267.11"/>
</a>
</g>
</g>
<!-- Node24 -->
<g id="Node000024" class="node">
<title>Node24</title>
<g id="a_Node000024"><a xlink:href="_constrain_2_i_r_2_ops_8cpp.html" target="_top" xlink:title=" ">
<polygon fill="white" stroke="#666666" points="1586.12,-230 1481.62,-230 1481.62,-199.5 1586.12,-199.5 1586.12,-230"/>
<text text-anchor="start" x="1489.62" y="-216.5" font-family="Helvetica,sans-Serif" font-size="10.00">lib/Dialect/Constrain</text>
<text text-anchor="middle" x="1533.88" y="-205.25" font-family="Helvetica,sans-Serif" font-size="10.00">/IR/Ops.cpp</text>
</a>
</g>
</g>
<!-- Node13&#45;&gt;Node24 -->
<g id="edge34_Node000013_Node000024" class="edge">
<title>Node13&#45;&gt;Node24</title>
<g id="a_edge34_Node000013_Node000024"><a xlink:title=" ">
<path fill="none" stroke="#63b8ff" d="M1616.75,-260.29C1598.73,-250.61 1577.47,-239.18 1561,-230.33"/>
<polygon fill="#63b8ff" stroke="#63b8ff" points="1614.85,-263.25 1625.31,-264.9 1618.16,-257.08 1614.85,-263.25"/>
</a>
</g>
</g>
<!-- Node25 -->
<g id="Node000025" class="node">
<title>Node25</title>
<g id="a_Node000025"><a xlink:href="_function_2_i_r_2_dialect_8cpp.html" target="_top" xlink:title=" ">
<polygon fill="white" stroke="#666666" points="1703.88,-230 1603.88,-230 1603.88,-199.5 1703.88,-199.5 1703.88,-230"/>
<text text-anchor="start" x="1611.88" y="-216.5" font-family="Helvetica,sans-Serif" font-size="10.00">lib/Dialect/Function</text>
<text text-anchor="middle" x="1653.88" y="-205.25" font-family="Helvetica,sans-Serif" font-size="10.00">/IR/Dialect.cpp</text>
</a>
</g>
</g>
<!-- Node13&#45;&gt;Node25 -->
<g id="edge35_Node000013_Node000025" class="edge">
<title>Node13&#45;&gt;Node25</title>
<g id="a_edge35_Node000013_Node000025"><a xlink:title=" ">
<path fill="none" stroke="#63b8ff" d="M1653.88,-254.31C1653.88,-246.14 1653.88,-237.41 1653.88,-230.33"/>
<polygon fill="#63b8ff" stroke="#63b8ff" points="1650.38,-254.1 1653.88,-264.1 1657.38,-254.1 1650.38,-254.1"/>
</a>
</g>
</g>
<!-- Node26 -->
<g id="Node000026" class="node">
<title>Node26</title>
<g id="a_Node000026"><a xlink:href="_op_traits_8cpp.html" target="_top" xlink:title=" ">
<polygon fill="white" stroke="#666666" points="1937.88,-230 1837.88,-230 1837.88,-199.5 1937.88,-199.5 1937.88,-230"/>
<text text-anchor="start" x="1845.88" y="-216.5" font-family="Helvetica,sans-Serif" font-size="10.00">lib/Dialect/Function</text>
<text text-anchor="middle" x="1887.88" y="-205.25" font-family="Helvetica,sans-Serif" font-size="10.00">/IR/OpTraits.cpp</text>
</a>
</g>
</g>
<!-- Node13&#45;&gt;Node26 -->
<g id="edge36_Node000013_Node000026" class="edge">
<title>Node13&#45;&gt;Node26</title>
<g id="a_edge36_Node000013_Node000026"><a xlink:title=" ">
<path fill="none" stroke="#63b8ff" d="M1714.77,-263.46C1752.98,-252.93 1801.64,-239.52 1837.64,-229.6"/>
<polygon fill="#63b8ff" stroke="#63b8ff" points="1713.96,-260.06 1705.25,-266.09 1715.82,-266.81 1713.96,-260.06"/>
</a>
</g>
</g>
<!-- Node13&#45;&gt;Node27 -->
<g id="edge37_Node000013_Node000027" class="edge">
<title>Node13&#45;&gt;Node27</title>
<g id="a_edge37_Node000013_Node000027"><a xlink:title=" ">
<path fill="none" stroke="#63b8ff" d="M1715.09,-278.27C1894.44,-272.27 2416.71,-253.23 2585.88,-230 2590.39,-229.38 2595.05,-228.61 2599.71,-227.74"/>
<polygon fill="#63b8ff" stroke="#63b8ff" points="1715.17,-274.77 1705.29,-278.6 1715.4,-281.76 1715.17,-274.77"/>
</a>
</g>
</g>
<!-- Node28 -->
<g id="Node000028" class="node">
<title>Node28</title>
<g id="a_Node000028"><a xlink:href="_l_l_z_k_2_i_r_2_dialect_8cpp.html" target="_top" xlink:title=" ">
<polygon fill="white" stroke="#666666" points="2055.5,-230 1956.25,-230 1956.25,-199.5 2055.5,-199.5 2055.5,-230"/>
<text text-anchor="start" x="1964.25" y="-216.5" font-family="Helvetica,sans-Serif" font-size="10.00">lib/Dialect/LLZK/IR</text>
<text text-anchor="middle" x="2005.88" y="-205.25" font-family="Helvetica,sans-Serif" font-size="10.00">/Dialect.cpp</text>
</a>
</g>
</g>
<!-- Node13&#45;&gt;Node28 -->
<g id="edge38_Node000013_Node000028" class="edge">
<title>Node13&#45;&gt;Node28</title>
<g id="a_edge38_Node000013_Node000028"><a xlink:title=" ">
<path fill="none" stroke="#63b8ff" d="M1714.9,-271.01C1774.32,-261.72 1867.1,-246.46 1946.88,-230 1949.87,-229.38 1952.94,-228.72 1956.03,-228.04"/>
<polygon fill="#63b8ff" stroke="#63b8ff" points="1714.67,-267.5 1705.33,-272.5 1715.75,-274.42 1714.67,-267.5"/>
</a>
</g>
</g>
<!-- Node13&#45;&gt;Node29 -->
<g id="edge39_Node000013_Node000029" class="edge">
<title>Node13&#45;&gt;Node29</title>
<g id="a_edge39_Node000013_Node000029"><a xlink:title=" ">
<path fill="none" stroke="#63b8ff" d="M1714.9,-279.79C1877.14,-278.03 2332.45,-269.66 2708.88,-230 2711.77,-229.7 2714.71,-229.36 2717.68,-228.99"/>
<polygon fill="#63b8ff" stroke="#63b8ff" points="1715.21,-276.28 1705.25,-279.89 1715.28,-283.28 1715.21,-276.28"/>
</a>
</g>
</g>
<!-- Node13&#45;&gt;Node30 -->
<g id="edge40_Node000013_Node000030" class="edge">
<title>Node13&#45;&gt;Node30</title>
<g id="a_edge40_Node000013_Node000030"><a xlink:title=" ">
<path fill="none" stroke="#63b8ff" d="M1714.89,-278.55C1946.91,-271.98 2767.08,-247.71 2882.88,-230 2885.61,-229.58 2888.4,-229.08 2891.2,-228.51"/>
<polygon fill="#63b8ff" stroke="#63b8ff" points="1715.06,-275.04 1705.16,-278.82 1715.25,-282.04 1715.06,-275.04"/>
</a>
</g>
</g>
<!-- Node31 -->
<g id="Node000031" class="node">
<title>Node31</title>
<g id="a_Node000031"><a xlink:href="_l_l_z_k_redundant_read_and_write_elimination_pass_8cpp.html" target="_top" xlink:title="This file implements the &#45;llzk&#45;duplicate&#45;read&#45;write&#45;elim pass.">
<polygon fill="white" stroke="#666666" points="2242,-230 2073.75,-230 2073.75,-199.5 2242,-199.5 2242,-230"/>
<text text-anchor="start" x="2081.75" y="-216.5" font-family="Helvetica,sans-Serif" font-size="10.00">lib/Transforms/LLZKRedundant</text>
<text text-anchor="middle" x="2157.88" y="-205.25" font-family="Helvetica,sans-Serif" font-size="10.00">ReadAndWriteEliminationPass.cpp</text>
</a>
</g>
</g>
<!-- Node13&#45;&gt;Node31 -->
<g id="edge41_Node000013_Node000031" class="edge">
<title>Node13&#45;&gt;Node31</title>
<g id="a_edge41_Node000013_Node000031"><a xlink:title=" ">
<path fill="none" stroke="#63b8ff" d="M1715.3,-273.33C1795.71,-264.14 1941,-247.06 2064.88,-230 2067.79,-229.6 2070.75,-229.18 2073.74,-228.76"/>
<polygon fill="#63b8ff" stroke="#63b8ff" points="1714.96,-269.85 1705.42,-274.46 1715.76,-276.8 1714.96,-269.85"/>
</a>
</g>
</g>
<!-- Node32 -->
<g id="Node000032" class="node">
<title>Node32</title>
<g id="a_Node000032"><a xlink:href="_symbol_helper_8cpp.html" target="_top" xlink:title="This file contains the implementations for symbol helper functions.">
<polygon fill="white" stroke="#666666" points="2386,-224.38 2259.75,-224.38 2259.75,-205.12 2386,-205.12 2386,-224.38"/>
<text text-anchor="middle" x="2322.88" y="-210.88" font-family="Helvetica,sans-Serif" font-size="10.00">lib/Util/SymbolHelper.cpp</text>
</a>
</g>
</g>
<!-- Node13&#45;&gt;Node32 -->
<g id="edge42_Node000013_Node000032" class="edge">
<title>Node13&#45;&gt;Node32</title>
<g id="a_edge42_Node000013_Node000032"><a xlink:title=" ">
<path fill="none" stroke="#63b8ff" d="M1714.96,-277.36C1823.31,-271.73 2056.09,-257.39 2250.88,-230 2260.72,-228.62 2271.25,-226.75 2281.13,-224.83"/>
<polygon fill="#63b8ff" stroke="#63b8ff" points="1714.94,-273.86 1705.13,-277.86 1715.29,-280.85 1714.94,-273.86"/>
</a>
</g>
</g>
<!-- Node33 -->
<g id="Node000033" class="node">
<title>Node33</title>
<g id="a_Node000033"><a xlink:href="_l_l_z_k_validation_passes_8cpp.html" target="_top" xlink:title="This file contains the implementation for the &#45;llzk&#45;validate&#45;field&#45;writes pass.">
<polygon fill="white" stroke="#666666" points="2543.75,-230 2404,-230 2404,-199.5 2543.75,-199.5 2543.75,-230"/>
<text text-anchor="start" x="2412" y="-216.5" font-family="Helvetica,sans-Serif" font-size="10.00">lib/Validators/LLZKValidation</text>
<text text-anchor="middle" x="2473.88" y="-205.25" font-family="Helvetica,sans-Serif" font-size="10.00">Passes.cpp</text>
</a>
</g>
</g>
<!-- Node13&#45;&gt;Node33 -->
<g id="edge43_Node000013_Node000033" class="edge">
<title>Node13&#45;&gt;Node33</title>
<g id="a_edge43_Node000013_Node000033"><a xlink:title=" ">
<path fill="none" stroke="#63b8ff" d="M1715.33,-278.38C1842.55,-274.02 2143.9,-261.05 2394.88,-230 2397.78,-229.64 2400.74,-229.24 2403.73,-228.82"/>
<polygon fill="#63b8ff" stroke="#63b8ff" points="1715.32,-274.88 1705.44,-278.72 1715.55,-281.88 1715.32,-274.88"/>
</a>
</g>
</g>
<!-- Node14&#45;&gt;Node15 -->
<g id="edge19_Node000014_Node000015" class="edge">
<title>Node14&#45;&gt;Node15</title>
<g id="a_edge19_Node000014_Node000015"><a xlink:title=" ">
<path fill="none" stroke="#63b8ff" d="M757.99,-190.2C749.49,-179.02 739.85,-166.32 733.58,-158.07"/>
<polygon fill="#63b8ff" stroke="#63b8ff" points="755,-192.06 763.84,-197.91 760.58,-187.83 755,-192.06"/>
</a>
</g>
</g>
<!-- Node14&#45;&gt;Node16 -->
<g id="edge20_Node000014_Node000016" class="edge">
<title>Node14&#45;&gt;Node16</title>
<g id="a_edge20_Node000014_Node000016"><a xlink:title=" ">
<path fill="none" stroke="#63b8ff" d="M843.05,-199.64C902.86,-187.07 988.57,-169.06 1039.69,-158.32"/>
<polygon fill="#63b8ff" stroke="#63b8ff" points="842.37,-196.2 833.31,-201.68 843.81,-203.05 842.37,-196.2"/>
</a>
</g>
</g>
<!-- Node17 -->
<g id="Node000017" class="node">
<title>Node17</title>
<g id="a_Node000017"><a xlink:href="_l_l_z_k_redundant_operation_elimination_pass_8cpp.html" target="_top" xlink:title="This file implements the &#45;llzk&#45;duplicate&#45;op&#45;elim pass.">
<polygon fill="white" stroke="#666666" points="982.75,-163.5 831,-163.5 831,-133 982.75,-133 982.75,-163.5"/>
<text text-anchor="start" x="839" y="-150" font-family="Helvetica,sans-Serif" font-size="10.00">lib/Transforms/LLZKRedundant</text>
<text text-anchor="middle" x="906.88" y="-138.75" font-family="Helvetica,sans-Serif" font-size="10.00">OperationEliminationPass.cpp</text>
</a>
</g>
</g>
<!-- Node14&#45;&gt;Node17 -->
<g id="edge21_Node000014_Node000017" class="edge">
<title>Node14&#45;&gt;Node17</title>
<g id="a_edge21_Node000014_Node000017"><a xlink:title=" ">
<path fill="none" stroke="#63b8ff" d="M815.86,-194.06C835.65,-184.32 859.12,-172.76 877.27,-163.83"/>
<polygon fill="#63b8ff" stroke="#63b8ff" points="814.38,-190.89 806.96,-198.45 817.48,-197.17 814.38,-190.89"/>
</a>
</g>
</g>
<!-- Node19 -->
<g id="Node000019" class="node">
<title>Node19</title>
<g id="a_Node000019"><a xlink:href="_builders_8cpp.html" target="_top" xlink:title=" ">
<polygon fill="white" stroke="#666666" points="1817.5,-163.5 1724.25,-163.5 1724.25,-133 1817.5,-133 1817.5,-163.5"/>
<text text-anchor="start" x="1732.25" y="-150" font-family="Helvetica,sans-Serif" font-size="10.00">lib/Dialect/Shared</text>
<text text-anchor="middle" x="1770.88" y="-138.75" font-family="Helvetica,sans-Serif" font-size="10.00">/Builders.cpp</text>
</a>
</g>
</g>
<!-- Node18&#45;&gt;Node19 -->
<g id="edge24_Node000018_Node000019" class="edge">
<title>Node18&#45;&gt;Node19</title>
<g id="a_edge24_Node000018_Node000019"><a xlink:title=" ">
<path fill="none" stroke="#63b8ff" d="M1770.88,-187.81C1770.88,-179.64 1770.88,-170.91 1770.88,-163.83"/>
<polygon fill="#63b8ff" stroke="#63b8ff" points="1767.38,-187.6 1770.88,-197.6 1774.38,-187.6 1767.38,-187.6"/>
</a>
</g>
</g>
</g>
</svg>
