<?xml version="1.0" encoding="UTF-8" standalone="no"?>
<!DOCTYPE svg PUBLIC "-//W3C//DTD SVG 1.1//EN"
 "http://www.w3.org/Graphics/SVG/1.1/DTD/svg11.dtd">
<!-- Generated by graphviz version 12.2.1 (0)
 -->
<!-- Title: include/llzk/Dialect/Struct/IR/Ops.h Pages: 1 -->
<svg width="1986pt" height="293pt"
 viewBox="0.00 0.00 1985.50 293.25" xmlns="http://www.w3.org/2000/svg" xmlns:xlink="http://www.w3.org/1999/xlink">
<g id="graph0" class="graph" transform="scale(1 1) rotate(0) translate(4 289.25)">
<title>include/llzk/Dialect/Struct/IR/Ops.h</title>
<!-- Node1 -->
<g id="Node000001" class="node">
<title>Node1</title>
<g id="a_Node000001"><a xlink:title=" ">
<polygon fill="#999999" stroke="#666666" points="1351.12,-285.25 1252.62,-285.25 1252.62,-254.75 1351.12,-254.75 1351.12,-285.25"/>
<text text-anchor="start" x="1260.62" y="-271.75" font-family="Helvetica,sans-Serif" font-size="10.00">include/llzk/Dialect</text>
<text text-anchor="middle" x="1301.88" y="-260.5" font-family="Helvetica,sans-Serif" font-size="10.00">/Struct/IR/Ops.h</text>
</a>
</g>
</g>
<!-- Node2 -->
<g id="Node000002" class="node">
<title>Node2</title>
<g id="a_Node000002"><a xlink:href="_op_traits_8h.html" target="_top" xlink:title=" ">
<polygon fill="white" stroke="#666666" points="369.5,-218.75 264.25,-218.75 264.25,-188.25 369.5,-188.25 369.5,-218.75"/>
<text text-anchor="start" x="272.25" y="-205.25" font-family="Helvetica,sans-Serif" font-size="10.00">llzk/Dialect/Function</text>
<text text-anchor="middle" x="316.88" y="-194" font-family="Helvetica,sans-Serif" font-size="10.00">/IR/OpTraits.h</text>
</a>
</g>
</g>
<!-- Node1&#45;&gt;Node2 -->
<g id="edge1_Node000001_Node000002" class="edge">
<title>Node1&#45;&gt;Node2</title>
<g id="a_edge1_Node000001_Node000002"><a xlink:title=" ">
<path fill="none" stroke="#63b8ff" d="M1252.35,-265.76C1088.6,-255.03 564.6,-220.72 381.09,-208.71"/>
<polygon fill="#63b8ff" stroke="#63b8ff" points="381.48,-205.22 371.27,-208.06 381.02,-212.21 381.48,-205.22"/>
</a>
</g>
</g>
<!-- Node6 -->
<g id="Node000006" class="node">
<title>Node6</title>
<g id="a_Node000006"><a xlink:href="_l_l_z_k_2_i_r_2_attrs_8h.html" target="_top" xlink:title=" ">
<polygon fill="white" stroke="#666666" points="1606.12,-218.75 1501.62,-218.75 1501.62,-188.25 1606.12,-188.25 1606.12,-218.75"/>
<text text-anchor="start" x="1509.62" y="-205.25" font-family="Helvetica,sans-Serif" font-size="10.00">llzk/Dialect/LLZK/IR</text>
<text text-anchor="middle" x="1553.88" y="-194" font-family="Helvetica,sans-Serif" font-size="10.00">/Attrs.h</text>
</a>
</g>
</g>
<!-- Node1&#45;&gt;Node6 -->
<g id="edge5_Node000001_Node000006" class="edge">
<title>Node1&#45;&gt;Node6</title>
<g id="a_edge5_Node000001_Node000006"><a xlink:title=" ">
<path fill="none" stroke="#63b8ff" d="M1351.36,-256.33C1391.18,-246.14 1447.41,-231.75 1490.52,-220.72"/>
<polygon fill="#63b8ff" stroke="#63b8ff" points="1491.18,-224.16 1500,-218.29 1489.44,-217.38 1491.18,-224.16"/>
</a>
</g>
</g>
<!-- Node9 -->
<g id="Node000009" class="node">
<title>Node9</title>
<g id="a_Node000009"><a xlink:href="_op_helpers_8h.html" target="_top" xlink:title=" ">
<polygon fill="white" stroke="#666666" points="673.12,-218.75 574.62,-218.75 574.62,-188.25 673.12,-188.25 673.12,-218.75"/>
<text text-anchor="start" x="582.62" y="-205.25" font-family="Helvetica,sans-Serif" font-size="10.00">llzk/Dialect/Shared</text>
<text text-anchor="middle" x="623.88" y="-194" font-family="Helvetica,sans-Serif" font-size="10.00">/OpHelpers.h</text>
</a>
</g>
</g>
<!-- Node1&#45;&gt;Node9 -->
<g id="edge8_Node000001_Node000009" class="edge">
<title>Node1&#45;&gt;Node9</title>
<g id="a_edge8_Node000001_Node000009"><a xlink:title=" ">
<path fill="none" stroke="#63b8ff" d="M1252.29,-264.28C1130.53,-252.7 817.09,-222.88 684.52,-210.27"/>
<polygon fill="#63b8ff" stroke="#63b8ff" points="685.19,-206.82 674.91,-209.35 684.53,-213.79 685.19,-206.82"/>
</a>
</g>
</g>
<!-- Node18 -->
<g id="Node000018" class="node">
<title>Node18</title>
<g id="a_Node000018"><a xlink:href="_struct_2_i_r_2_types_8h.html" target="_top" xlink:title=" ">
<polygon fill="white" stroke="#666666" points="1311.88,-218.75 1217.88,-218.75 1217.88,-188.25 1311.88,-188.25 1311.88,-218.75"/>
<text text-anchor="start" x="1225.88" y="-205.25" font-family="Helvetica,sans-Serif" font-size="10.00">llzk/Dialect/Struct</text>
<text text-anchor="middle" x="1264.88" y="-194" font-family="Helvetica,sans-Serif" font-size="10.00">/IR/Types.h</text>
</a>
</g>
</g>
<!-- Node1&#45;&gt;Node18 -->
<g id="edge21_Node000001_Node000018" class="edge">
<title>Node1&#45;&gt;Node18</title>
<g id="a_edge21_Node000001_Node000018"><a xlink:title=" ">
<path fill="none" stroke="#63b8ff" d="M1293.48,-254.36C1289.17,-246.86 1283.82,-237.52 1278.91,-228.96"/>
<polygon fill="#63b8ff" stroke="#63b8ff" points="1282,-227.32 1273.99,-220.39 1275.93,-230.81 1282,-227.32"/>
</a>
</g>
</g>
<!-- Node33 -->
<g id="Node000033" class="node">
<title>Node33</title>
<g id="a_Node000033"><a xlink:href="_struct_2_i_r_2_ops_8h_8inc.html" target="_top" xlink:title=" ">
<polygon fill="white" stroke="#666666" points="1515.88,-152.25 1421.88,-152.25 1421.88,-121.75 1515.88,-121.75 1515.88,-152.25"/>
<text text-anchor="start" x="1429.88" y="-138.75" font-family="Helvetica,sans-Serif" font-size="10.00">llzk/Dialect/Struct</text>
<text text-anchor="middle" x="1468.88" y="-127.5" font-family="Helvetica,sans-Serif" font-size="10.00">/IR/Ops.h.inc</text>
</a>
</g>
</g>
<!-- Node1&#45;&gt;Node33 -->
<g id="edge45_Node000001_Node000033" class="edge">
<title>Node1&#45;&gt;Node33</title>
<g id="a_edge45_Node000001_Node000033"><a xlink:title=" ">
<path fill="none" stroke="#63b8ff" d="M1320.38,-254.48C1349.73,-231.46 1407.09,-186.47 1441.29,-159.64"/>
<polygon fill="#63b8ff" stroke="#63b8ff" points="1443.38,-162.44 1449.09,-153.52 1439.06,-156.94 1443.38,-162.44"/>
</a>
</g>
</g>
<!-- Node35 -->
<g id="Node000035" class="node">
<title>Node35</title>
<g id="a_Node000035"><a xlink:href="_struct_2_i_r_2_op_interfaces_8h_8inc.html" target="_top" xlink:title=" ">
<polygon fill="white" stroke="#666666" points="1737.25,-218.75 1624.5,-218.75 1624.5,-188.25 1737.25,-188.25 1737.25,-218.75"/>
<text text-anchor="start" x="1632.5" y="-205.25" font-family="Helvetica,sans-Serif" font-size="10.00">llzk/Dialect/Struct</text>
<text text-anchor="middle" x="1680.88" y="-194" font-family="Helvetica,sans-Serif" font-size="10.00">/IR/OpInterfaces.h.inc</text>
</a>
</g>
</g>
<!-- Node1&#45;&gt;Node35 -->
<g id="edge44_Node000001_Node000035" class="edge">
<title>Node1&#45;&gt;Node35</title>
<g id="a_edge44_Node000001_Node000035"><a xlink:title=" ">
<path fill="none" stroke="#63b8ff" d="M1351.62,-261.85C1411.25,-253.1 1514.45,-237.36 1612.97,-219.05"/>
<polygon fill="#63b8ff" stroke="#63b8ff" points="1613.36,-222.53 1622.54,-217.25 1612.07,-215.65 1613.36,-222.53"/>
</a>
</g>
</g>
<!-- Node3 -->
<g id="Node000003" class="node">
<title>Node3</title>
<g id="a_Node000003"><a xlink:title=" ">
<polygon fill="#e0e0e0" stroke="#999999" points="114.12,-146.62 3.62,-146.62 3.62,-127.38 114.12,-127.38 114.12,-146.62"/>
<text text-anchor="middle" x="58.88" y="-133.12" font-family="Helvetica,sans-Serif" font-size="10.00">mlir/IR/OpDefinition.h</text>
</a>
</g>
</g>
<!-- Node2&#45;&gt;Node3 -->
<g id="edge2_Node000002_Node000003" class="edge">
<title>Node2&#45;&gt;Node3</title>
<g id="a_edge2_Node000002_Node000003"><a xlink:title=" ">
<path fill="none" stroke="#63b8ff" d="M264.04,-189.29C217.66,-177.7 150.81,-160.98 106.16,-149.82"/>
<polygon fill="#63b8ff" stroke="#63b8ff" points="107.05,-146.44 96.5,-147.41 105.36,-153.23 107.05,-146.44"/>
</a>
</g>
</g>
<!-- Node4 -->
<g id="Node000004" class="node">
<title>Node4</title>
<g id="a_Node000004"><a xlink:title=" ">
<polygon fill="#e0e0e0" stroke="#999999" points="474.12,-80.12 375.62,-80.12 375.62,-60.88 474.12,-60.88 474.12,-80.12"/>
<text text-anchor="middle" x="424.88" y="-66.62" font-family="Helvetica,sans-Serif" font-size="10.00">mlir/IR/Operation.h</text>
</a>
</g>
</g>
<!-- Node2&#45;&gt;Node4 -->
<g id="edge3_Node000002_Node000004" class="edge">
<title>Node2&#45;&gt;Node4</title>
<g id="a_edge3_Node000002_Node000004"><a xlink:title=" ">
<path fill="none" stroke="#63b8ff" d="M363.65,-187.96C381.39,-180.13 400.13,-168.63 411.88,-152.25 424.46,-134.69 426.68,-109.48 426.41,-91.92"/>
<polygon fill="#63b8ff" stroke="#63b8ff" points="429.91,-91.8 425.93,-81.97 422.91,-92.13 429.91,-91.8"/>
</a>
</g>
</g>
<!-- Node5 -->
<g id="Node000005" class="node">
<title>Node5</title>
<g id="a_Node000005"><a xlink:title=" ">
<polygon fill="#e0e0e0" stroke="#999999" points="271.38,-146.62 132.38,-146.62 132.38,-127.38 271.38,-127.38 271.38,-146.62"/>
<text text-anchor="middle" x="201.88" y="-133.12" font-family="Helvetica,sans-Serif" font-size="10.00">mlir/Support/LogicalResult.h</text>
</a>
</g>
</g>
<!-- Node2&#45;&gt;Node5 -->
<g id="edge4_Node000002_Node000005" class="edge">
<title>Node2&#45;&gt;Node5</title>
<g id="a_edge4_Node000002_Node000005"><a xlink:title=" ">
<path fill="none" stroke="#63b8ff" d="M290.78,-187.86C271.97,-177.31 246.69,-163.13 227.89,-152.59"/>
<polygon fill="#63b8ff" stroke="#63b8ff" points="229.69,-149.59 219.26,-147.75 226.27,-155.69 229.69,-149.59"/>
</a>
</g>
</g>
<!-- Node7 -->
<g id="Node000007" class="node">
<title>Node7</title>
<g id="a_Node000007"><a xlink:title=" ">
<polygon fill="#e0e0e0" stroke="#999999" points="1632.12,-146.62 1533.62,-146.62 1533.62,-127.38 1632.12,-127.38 1632.12,-146.62"/>
<text text-anchor="middle" x="1582.88" y="-133.12" font-family="Helvetica,sans-Serif" font-size="10.00">mlir/IR/Attributes.h</text>
</a>
</g>
</g>
<!-- Node6&#45;&gt;Node7 -->
<g id="edge6_Node000006_Node000007" class="edge">
<title>Node6&#45;&gt;Node7</title>
<g id="a_edge6_Node000006_Node000007"><a xlink:title=" ">
<path fill="none" stroke="#63b8ff" d="M1560.46,-187.86C1564.54,-178.78 1569.83,-167.01 1574.25,-157.18"/>
<polygon fill="#63b8ff" stroke="#63b8ff" points="1577.38,-158.76 1578.29,-148.2 1570.99,-155.89 1577.38,-158.76"/>
</a>
</g>
</g>
<!-- Node8 -->
<g id="Node000008" class="node">
<title>Node8</title>
<g id="a_Node000008"><a xlink:href="_l_l_z_k_2_i_r_2_attrs_8h_8inc.html" target="_top" xlink:title=" ">
<polygon fill="white" stroke="#666666" points="1755.12,-152.25 1650.62,-152.25 1650.62,-121.75 1755.12,-121.75 1755.12,-152.25"/>
<text text-anchor="start" x="1658.62" y="-138.75" font-family="Helvetica,sans-Serif" font-size="10.00">llzk/Dialect/LLZK/IR</text>
<text text-anchor="middle" x="1702.88" y="-127.5" font-family="Helvetica,sans-Serif" font-size="10.00">/Attrs.h.inc</text>
</a>
</g>
</g>
<!-- Node6&#45;&gt;Node8 -->
<g id="edge7_Node000006_Node000008" class="edge">
<title>Node6&#45;&gt;Node8</title>
<g id="a_edge7_Node000006_Node000008"><a xlink:title=" ">
<path fill="none" stroke="#63b8ff" d="M1587.69,-187.86C1608.66,-178.78 1635.85,-167.02 1658.54,-157.19"/>
<polygon fill="#63b8ff" stroke="#63b8ff" points="1659.77,-160.48 1667.55,-153.29 1656.98,-154.05 1659.77,-160.48"/>
</a>
</g>
</g>
<!-- Node9&#45;&gt;Node4 -->
<g id="edge17_Node000009_Node000004" class="edge">
<title>Node9&#45;&gt;Node4</title>
<g id="a_edge17_Node000009_Node000004"><a xlink:title=" ">
<path fill="none" stroke="#63b8ff" d="M620.78,-187.78C616.21,-169.69 605.97,-139.26 585.88,-121.75 576.89,-113.93 514.29,-95.75 469.86,-83.54"/>
<polygon fill="#63b8ff" stroke="#63b8ff" points="471.02,-80.23 460.45,-80.97 469.18,-86.98 471.02,-80.23"/>
</a>
</g>
</g>
<!-- Node9&#45;&gt;Node5 -->
<g id="edge18_Node000009_Node000005" class="edge">
<title>Node9&#45;&gt;Node5</title>
<g id="a_edge18_Node000009_Node000005"><a xlink:title=" ">
<path fill="none" stroke="#63b8ff" d="M574.23,-195.81C507.28,-186.67 384.4,-169.43 279.88,-152.25 273.85,-151.26 267.57,-150.18 261.3,-149.08"/>
<polygon fill="#63b8ff" stroke="#63b8ff" points="262.04,-145.66 251.58,-147.35 260.82,-152.55 262.04,-145.66"/>
</a>
</g>
</g>
<!-- Node10 -->
<g id="Node000010" class="node">
<title>Node10</title>
<g id="a_Node000010"><a xlink:href="_affine_helper_8h.html" target="_top" xlink:title=" ">
<polygon fill="white" stroke="#666666" points="402.62,-146.62 289.12,-146.62 289.12,-127.38 402.62,-127.38 402.62,-146.62"/>
<text text-anchor="middle" x="345.88" y="-133.12" font-family="Helvetica,sans-Serif" font-size="10.00">llzk/Util/AffineHelper.h</text>
</a>
</g>
</g>
<!-- Node9&#45;&gt;Node10 -->
<g id="edge9_Node000009_Node000010" class="edge">
<title>Node9&#45;&gt;Node10</title>
<g id="a_edge9_Node000009_Node000010"><a xlink:title=" ">
<path fill="none" stroke="#63b8ff" d="M574.17,-190.97C523.79,-179.28 446.26,-161.29 395.8,-149.58"/>
<polygon fill="#63b8ff" stroke="#63b8ff" points="396.85,-146.23 386.31,-147.38 395.26,-153.05 396.85,-146.23"/>
</a>
</g>
</g>
<!-- Node12 -->
<g id="Node000012" class="node">
<title>Node12</title>
<g id="a_Node000012"><a xlink:title=" ">
<polygon fill="#e0e0e0" stroke="#999999" points="627.88,-80.12 491.88,-80.12 491.88,-60.88 627.88,-60.88 627.88,-80.12"/>
<text text-anchor="middle" x="559.88" y="-66.62" font-family="Helvetica,sans-Serif" font-size="10.00">mlir/IR/OpImplementation.h</text>
</a>
</g>
</g>
<!-- Node9&#45;&gt;Node12 -->
<g id="edge16_Node000009_Node000012" class="edge">
<title>Node9&#45;&gt;Node12</title>
<g id="a_edge16_Node000009_Node000012"><a xlink:title=" ">
<path fill="none" stroke="#63b8ff" d="M626.25,-187.92C628.28,-171.04 629.43,-142.86 618.88,-121.75 611.66,-107.32 598.25,-95.38 586.04,-86.76"/>
<polygon fill="#63b8ff" stroke="#63b8ff" points="588.19,-83.99 577.91,-81.42 584.34,-89.84 588.19,-83.99"/>
</a>
</g>
</g>
<!-- Node15 -->
<g id="Node000015" class="node">
<title>Node15</title>
<g id="a_Node000015"><a xlink:href="_constants_8h.html" target="_top" xlink:title=" ">
<polygon fill="white" stroke="#666666" points="751.5,-80.12 646.25,-80.12 646.25,-60.88 751.5,-60.88 751.5,-80.12"/>
<text text-anchor="middle" x="698.88" y="-66.62" font-family="Helvetica,sans-Serif" font-size="10.00">llzk/Util/Constants.h</text>
</a>
</g>
</g>
<!-- Node9&#45;&gt;Node15 -->
<g id="edge15_Node000009_Node000015" class="edge">
<title>Node9&#45;&gt;Node15</title>
<g id="a_edge15_Node000009_Node000015"><a xlink:title=" ">
<path fill="none" stroke="#63b8ff" d="M632.19,-187.98C645.8,-164.2 672.85,-116.95 687.98,-90.52"/>
<polygon fill="#63b8ff" stroke="#63b8ff" points="690.98,-92.33 692.91,-81.91 684.91,-88.85 690.98,-92.33"/>
</a>
</g>
</g>
<!-- Node16 -->
<g id="Node000016" class="node">
<title>Node16</title>
<g id="a_Node000016"><a xlink:title=" ">
<polygon fill="#e0e0e0" stroke="#999999" points="577.25,-146.62 458.5,-146.62 458.5,-127.38 577.25,-127.38 577.25,-146.62"/>
<text text-anchor="middle" x="517.88" y="-133.12" font-family="Helvetica,sans-Serif" font-size="10.00">llvm/ADT/SmallString.h</text>
</a>
</g>
</g>
<!-- Node9&#45;&gt;Node16 -->
<g id="edge19_Node000009_Node000016" class="edge">
<title>Node9&#45;&gt;Node16</title>
<g id="a_edge19_Node000009_Node000016"><a xlink:title=" ">
<path fill="none" stroke="#63b8ff" d="M599.82,-187.86C582.56,-177.36 559.4,-163.27 542.1,-152.74"/>
<polygon fill="#63b8ff" stroke="#63b8ff" points="544.34,-150 533.97,-147.8 540.7,-155.98 544.34,-150"/>
</a>
</g>
</g>
<!-- Node17 -->
<g id="Node000017" class="node">
<title>Node17</title>
<g id="a_Node000017"><a xlink:title=" ">
<polygon fill="#e0e0e0" stroke="#999999" points="1076.75,-80.12 967,-80.12 967,-60.88 1076.75,-60.88 1076.75,-80.12"/>
<text text-anchor="middle" x="1021.88" y="-66.62" font-family="Helvetica,sans-Serif" font-size="10.00">llvm/ADT/StringRef.h</text>
</a>
</g>
</g>
<!-- Node9&#45;&gt;Node17 -->
<g id="edge20_Node000009_Node000017" class="edge">
<title>Node9&#45;&gt;Node17</title>
<g id="a_edge20_Node000009_Node000017"><a xlink:title=" ">
<path fill="none" stroke="#63b8ff" d="M673.42,-201.96C734.83,-199.59 841.46,-189.81 923.88,-152.25 957.15,-137.09 988.44,-107.68 1006.36,-88.84"/>
<polygon fill="#63b8ff" stroke="#63b8ff" points="1008.77,-91.39 1013,-81.67 1003.64,-86.63 1008.77,-91.39"/>
</a>
</g>
</g>
<!-- Node10&#45;&gt;Node4 -->
<g id="edge12_Node000010_Node000004" class="edge">
<title>Node10&#45;&gt;Node4</title>
<g id="a_edge12_Node000010_Node000004"><a xlink:title=" ">
<path fill="none" stroke="#63b8ff" d="M356.86,-127.03C369.29,-116.88 389.78,-100.15 405.03,-87.7"/>
<polygon fill="#63b8ff" stroke="#63b8ff" points="407.02,-90.59 412.56,-81.56 402.6,-85.17 407.02,-90.59"/>
</a>
</g>
</g>
<!-- Node11 -->
<g id="Node000011" class="node">
<title>Node11</title>
<g id="a_Node000011"><a xlink:title=" ">
<polygon fill="#e0e0e0" stroke="#999999" points="91.75,-80.12 0,-80.12 0,-60.88 91.75,-60.88 91.75,-80.12"/>
<text text-anchor="middle" x="45.88" y="-66.62" font-family="Helvetica,sans-Serif" font-size="10.00">mlir/IR/Builders.h</text>
</a>
</g>
</g>
<!-- Node10&#45;&gt;Node11 -->
<g id="edge10_Node000010_Node000011" class="edge">
<title>Node10&#45;&gt;Node11</title>
<g id="a_edge10_Node000010_Node000011"><a xlink:title=" ">
<path fill="none" stroke="#63b8ff" d="M304.35,-126.93C296.24,-125.19 287.79,-123.4 279.88,-121.75 200,-105.14 179.35,-104.17 99.88,-85.75 96.58,-84.99 93.18,-84.17 89.77,-83.32"/>
<polygon fill="#63b8ff" stroke="#63b8ff" points="90.94,-80.01 80.39,-80.93 89.22,-86.79 90.94,-80.01"/>
</a>
</g>
</g>
<!-- Node10&#45;&gt;Node12 -->
<g id="edge11_Node000010_Node000012" class="edge">
<title>Node10&#45;&gt;Node12</title>
<g id="a_edge11_Node000010_Node000012"><a xlink:title=" ">
<path fill="none" stroke="#63b8ff" d="M376.08,-126.9C413.44,-115.64 477.2,-96.42 518.94,-83.84"/>
<polygon fill="#63b8ff" stroke="#63b8ff" points="519.81,-87.23 528.37,-80.99 517.79,-80.53 519.81,-87.23"/>
</a>
</g>
</g>
<!-- Node13 -->
<g id="Node000013" class="node">
<title>Node13</title>
<g id="a_Node000013"><a xlink:title=" ">
<polygon fill="#e0e0e0" stroke="#999999" points="218.38,-80.12 109.38,-80.12 109.38,-60.88 218.38,-60.88 218.38,-80.12"/>
<text text-anchor="middle" x="163.88" y="-66.62" font-family="Helvetica,sans-Serif" font-size="10.00">mlir/IR/ValueRange.h</text>
</a>
</g>
</g>
<!-- Node10&#45;&gt;Node13 -->
<g id="edge13_Node000010_Node000013" class="edge">
<title>Node10&#45;&gt;Node13</title>
<g id="a_edge13_Node000010_Node000013"><a xlink:title=" ">
<path fill="none" stroke="#63b8ff" d="M320.18,-126.9C288.75,-115.76 235.34,-96.83 199.83,-84.24"/>
<polygon fill="#63b8ff" stroke="#63b8ff" points="201.46,-81.11 190.86,-81.06 199.12,-87.7 201.46,-81.11"/>
</a>
</g>
</g>
<!-- Node14 -->
<g id="Node000014" class="node">
<title>Node14</title>
<g id="a_Node000014"><a xlink:title=" ">
<polygon fill="#e0e0e0" stroke="#999999" points="357.38,-80.12 236.38,-80.12 236.38,-60.88 357.38,-60.88 357.38,-80.12"/>
<text text-anchor="middle" x="296.88" y="-66.62" font-family="Helvetica,sans-Serif" font-size="10.00">llvm/ADT/SmallVector.h</text>
</a>
</g>
</g>
<!-- Node10&#45;&gt;Node14 -->
<g id="edge14_Node000010_Node000014" class="edge">
<title>Node10&#45;&gt;Node14</title>
<g id="a_edge14_Node000010_Node000014"><a xlink:title=" ">
<path fill="none" stroke="#63b8ff" d="M339.06,-127.03C331.67,-117.31 319.69,-101.54 310.39,-89.28"/>
<polygon fill="#63b8ff" stroke="#63b8ff" points="313.38,-87.44 304.55,-81.6 307.81,-91.68 313.38,-87.44"/>
</a>
</g>
</g>
<!-- Node19 -->
<g id="Node000019" class="node">
<title>Node19</title>
<g id="a_Node000019"><a xlink:href="_struct_2_i_r_2_dialect_8h.html" target="_top" xlink:title=" ">
<polygon fill="white" stroke="#666666" points="1163.88,-152.25 1069.88,-152.25 1069.88,-121.75 1163.88,-121.75 1163.88,-152.25"/>
<text text-anchor="start" x="1077.88" y="-138.75" font-family="Helvetica,sans-Serif" font-size="10.00">llzk/Dialect/Struct</text>
<text text-anchor="middle" x="1116.88" y="-127.5" font-family="Helvetica,sans-Serif" font-size="10.00">/IR/Dialect.h</text>
</a>
</g>
</g>
<!-- Node18&#45;&gt;Node19 -->
<g id="edge22_Node000018_Node000019" class="edge">
<title>Node18&#45;&gt;Node19</title>
<g id="a_edge22_Node000018_Node000019"><a xlink:title=" ">
<path fill="none" stroke="#63b8ff" d="M1231.29,-187.86C1210.46,-178.78 1183.45,-167.02 1160.91,-157.19"/>
<polygon fill="#63b8ff" stroke="#63b8ff" points="1162.53,-154.08 1151.97,-153.29 1159.74,-160.5 1162.53,-154.08"/>
</a>
</g>
</g>
<!-- Node22 -->
<g id="Node000022" class="node">
<title>Node22</title>
<g id="a_Node000022"><a xlink:href="_symbol_lookup_8h.html" target="_top" xlink:title="This file defines methods symbol lookup across LLZK operations and included files.">
<polygon fill="white" stroke="#666666" points="915.25,-146.62 790.5,-146.62 790.5,-127.38 915.25,-127.38 915.25,-146.62"/>
<text text-anchor="middle" x="852.88" y="-133.12" font-family="Helvetica,sans-Serif" font-size="10.00">llzk/Util/SymbolLookup.h</text>
</a>
</g>
</g>
<!-- Node18&#45;&gt;Node22 -->
<g id="edge25_Node000018_Node000022" class="edge">
<title>Node18&#45;&gt;Node22</title>
<g id="a_edge25_Node000018_Node000022"><a xlink:title=" ">
<path fill="none" stroke="#63b8ff" d="M1217.61,-195.1C1145.17,-183.76 1006.27,-162.01 922.35,-148.88"/>
<polygon fill="#63b8ff" stroke="#63b8ff" points="923.05,-145.44 912.63,-147.36 921.97,-152.36 923.05,-145.44"/>
</a>
</g>
</g>
<!-- Node25 -->
<g id="Node000025" class="node">
<title>Node25</title>
<g id="a_Node000025"><a xlink:href="_type_helper_8h.html" target="_top" xlink:title=" ">
<polygon fill="white" stroke="#666666" points="1291.38,-146.62 1182.38,-146.62 1182.38,-127.38 1291.38,-127.38 1291.38,-146.62"/>
<text text-anchor="middle" x="1236.88" y="-133.12" font-family="Helvetica,sans-Serif" font-size="10.00">llzk/Util/TypeHelper.h</text>
</a>
</g>
</g>
<!-- Node18&#45;&gt;Node25 -->
<g id="edge31_Node000018_Node000025" class="edge">
<title>Node18&#45;&gt;Node25</title>
<g id="a_edge31_Node000018_Node000025"><a xlink:title=" ">
<path fill="none" stroke="#63b8ff" d="M1258.52,-187.86C1254.58,-178.78 1249.47,-167.01 1245.2,-157.18"/>
<polygon fill="#63b8ff" stroke="#63b8ff" points="1248.5,-155.99 1241.31,-148.21 1242.08,-158.78 1248.5,-155.99"/>
</a>
</g>
</g>
<!-- Node18&#45;&gt;Node33 -->
<g id="edge42_Node000018_Node000033" class="edge">
<title>Node18&#45;&gt;Node33</title>
<g id="a_edge42_Node000018_Node000033"><a xlink:title=" ">
<path fill="none" stroke="#63b8ff" d="M1311.42,-187.78C1341.19,-178.37 1380.01,-166.1 1411.66,-156.09"/>
<polygon fill="#63b8ff" stroke="#63b8ff" points="1412.61,-159.46 1421.09,-153.11 1410.5,-152.79 1412.61,-159.46"/>
</a>
</g>
</g>
<!-- Node34 -->
<g id="Node000034" class="node">
<title>Node34</title>
<g id="a_Node000034"><a xlink:href="_struct_2_i_r_2_types_8h_8inc.html" target="_top" xlink:title=" ">
<polygon fill="white" stroke="#666666" points="1403.88,-152.25 1309.88,-152.25 1309.88,-121.75 1403.88,-121.75 1403.88,-152.25"/>
<text text-anchor="start" x="1317.88" y="-138.75" font-family="Helvetica,sans-Serif" font-size="10.00">llzk/Dialect/Struct</text>
<text text-anchor="middle" x="1356.88" y="-127.5" font-family="Helvetica,sans-Serif" font-size="10.00">/IR/Types.h.inc</text>
</a>
</g>
</g>
<!-- Node18&#45;&gt;Node34 -->
<g id="edge43_Node000018_Node000034" class="edge">
<title>Node18&#45;&gt;Node34</title>
<g id="a_edge43_Node000018_Node000034"><a xlink:title=" ">
<path fill="none" stroke="#63b8ff" d="M1285.75,-187.86C1297.87,-179.37 1313.34,-168.52 1326.75,-159.12"/>
<polygon fill="#63b8ff" stroke="#63b8ff" points="1328.66,-162.05 1334.84,-153.45 1324.64,-156.32 1328.66,-162.05"/>
</a>
</g>
</g>
<!-- Node20 -->
<g id="Node000020" class="node">
<title>Node20</title>
<g id="a_Node000020"><a xlink:title=" ">
<polygon fill="#e0e0e0" stroke="#999999" points="1308.62,-80.12 1207.12,-80.12 1207.12,-60.88 1308.62,-60.88 1308.62,-80.12"/>
<text text-anchor="middle" x="1257.88" y="-66.62" font-family="Helvetica,sans-Serif" font-size="10.00">mlir/IR/BuiltinOps.h</text>
</a>
</g>
</g>
<!-- Node19&#45;&gt;Node20 -->
<g id="edge23_Node000019_Node000020" class="edge">
<title>Node19&#45;&gt;Node20</title>
<g id="a_edge23_Node000019_Node000020"><a xlink:title=" ">
<path fill="none" stroke="#63b8ff" d="M1148.87,-121.36C1172.58,-110.52 1204.67,-95.84 1227.88,-85.22"/>
<polygon fill="#63b8ff" stroke="#63b8ff" points="1229.17,-88.48 1236.8,-81.14 1226.25,-82.12 1229.17,-88.48"/>
</a>
</g>
</g>
<!-- Node21 -->
<g id="Node000021" class="node">
<title>Node21</title>
<g id="a_Node000021"><a xlink:href="_struct_2_i_r_2_dialect_8h_8inc.html" target="_top" xlink:title=" ">
<polygon fill="white" stroke="#666666" points="1188.88,-85.75 1094.88,-85.75 1094.88,-55.25 1188.88,-55.25 1188.88,-85.75"/>
<text text-anchor="start" x="1102.88" y="-72.25" font-family="Helvetica,sans-Serif" font-size="10.00">llzk/Dialect/Struct</text>
<text text-anchor="middle" x="1141.88" y="-61" font-family="Helvetica,sans-Serif" font-size="10.00">/IR/Dialect.h.inc</text>
</a>
</g>
</g>
<!-- Node19&#45;&gt;Node21 -->
<g id="edge24_Node000019_Node000021" class="edge">
<title>Node19&#45;&gt;Node21</title>
<g id="a_edge24_Node000019_Node000021"><a xlink:title=" ">
<path fill="none" stroke="#63b8ff" d="M1122.55,-121.36C1125.36,-114.11 1128.84,-105.13 1132.07,-96.81"/>
<polygon fill="#63b8ff" stroke="#63b8ff" points="1135.33,-98.08 1135.68,-87.49 1128.8,-95.55 1135.33,-98.08"/>
</a>
</g>
</g>
<!-- Node22&#45;&gt;Node4 -->
<g id="edge27_Node000022_Node000004" class="edge">
<title>Node22&#45;&gt;Node4</title>
<g id="a_edge27_Node000022_Node000004"><a xlink:title=" ">
<path fill="none" stroke="#63b8ff" d="M790.03,-129.52C716.15,-121.43 590.02,-106.13 482.88,-85.75 478.82,-84.98 474.62,-84.1 470.42,-83.17"/>
<polygon fill="#63b8ff" stroke="#63b8ff" points="471.41,-79.81 460.87,-80.96 469.83,-86.63 471.41,-79.81"/>
</a>
</g>
</g>
<!-- Node22&#45;&gt;Node15 -->
<g id="edge26_Node000022_Node000015" class="edge">
<title>Node22&#45;&gt;Node15</title>
<g id="a_edge26_Node000022_Node000015"><a xlink:title=" ">
<path fill="none" stroke="#63b8ff" d="M831.14,-126.9C805,-115.95 760.9,-97.48 730.87,-84.9"/>
<polygon fill="#63b8ff" stroke="#63b8ff" points="732.47,-81.78 721.9,-81.14 729.77,-88.23 732.47,-81.78"/>
</a>
</g>
</g>
<!-- Node22&#45;&gt;Node17 -->
<g id="edge29_Node000022_Node000017" class="edge">
<title>Node22&#45;&gt;Node17</title>
<g id="a_edge29_Node000022_Node000017"><a xlink:title=" ">
<path fill="none" stroke="#63b8ff" d="M876.73,-126.9C905.67,-115.85 954.66,-97.15 987.63,-84.57"/>
<polygon fill="#63b8ff" stroke="#63b8ff" points="988.63,-87.93 996.73,-81.1 986.14,-81.39 988.63,-87.93"/>
</a>
</g>
</g>
<!-- Node23 -->
<g id="Node000023" class="node">
<title>Node23</title>
<g id="a_Node000023"><a xlink:title=" ">
<polygon fill="#e0e0e0" stroke="#999999" points="887.88,-80.12 769.88,-80.12 769.88,-60.88 887.88,-60.88 887.88,-80.12"/>
<text text-anchor="middle" x="828.88" y="-66.62" font-family="Helvetica,sans-Serif" font-size="10.00">mlir/IR/OwningOpRef.h</text>
</a>
</g>
</g>
<!-- Node22&#45;&gt;Node23 -->
<g id="edge28_Node000022_Node000023" class="edge">
<title>Node22&#45;&gt;Node23</title>
<g id="a_edge28_Node000022_Node000023"><a xlink:title=" ">
<path fill="none" stroke="#63b8ff" d="M849.54,-127.03C846.1,-117.79 840.63,-103.08 836.18,-91.13"/>
<polygon fill="#63b8ff" stroke="#63b8ff" points="839.48,-89.96 832.71,-81.81 832.92,-92.4 839.48,-89.96"/>
</a>
</g>
</g>
<!-- Node24 -->
<g id="Node000024" class="node">
<title>Node24</title>
<g id="a_Node000024"><a xlink:title=" ">
<polygon fill="#e0e0e0" stroke="#999999" points="949.38,-80.12 906.38,-80.12 906.38,-60.88 949.38,-60.88 949.38,-80.12"/>
<text text-anchor="middle" x="927.88" y="-66.62" font-family="Helvetica,sans-Serif" font-size="10.00">vector</text>
</a>
</g>
</g>
<!-- Node22&#45;&gt;Node24 -->
<g id="edge30_Node000022_Node000024" class="edge">
<title>Node22&#45;&gt;Node24</title>
<g id="a_edge30_Node000022_Node000024"><a xlink:title=" ">
<path fill="none" stroke="#63b8ff" d="M863.3,-127.03C875.06,-116.92 894.41,-100.28 908.87,-87.85"/>
<polygon fill="#63b8ff" stroke="#63b8ff" points="911.09,-90.55 916.39,-81.38 906.52,-85.25 911.09,-90.55"/>
</a>
</g>
</g>
<!-- Node25&#45;&gt;Node4 -->
<g id="edge37_Node000025_Node000004" class="edge">
<title>Node25&#45;&gt;Node4</title>
<g id="a_edge37_Node000025_Node000004"><a xlink:title=" ">
<path fill="none" stroke="#63b8ff" d="M1201.19,-126.95C1192.01,-124.93 1182.12,-123.01 1172.88,-121.75 868.61,-80.24 786.67,-130.58 482.88,-85.75 478.14,-85.05 473.23,-84.14 468.36,-83.12"/>
<polygon fill="#63b8ff" stroke="#63b8ff" points="469.18,-79.72 458.65,-80.92 467.63,-86.54 469.18,-79.72"/>
</a>
</g>
</g>
<!-- Node25&#45;&gt;Node12 -->
<g id="edge36_Node000025_Node000012" class="edge">
<title>Node25&#45;&gt;Node12</title>
<g id="a_edge36_Node000025_Node000012"><a xlink:title=" ">
<path fill="none" stroke="#63b8ff" d="M1200.5,-126.9C1191.52,-124.93 1181.89,-123.05 1172.88,-121.75 936.56,-87.71 873.77,-115.52 636.88,-85.75 629.88,-84.87 622.56,-83.76 615.34,-82.56"/>
<polygon fill="#63b8ff" stroke="#63b8ff" points="616.06,-79.13 605.61,-80.86 614.86,-86.03 616.06,-79.13"/>
</a>
</g>
</g>
<!-- Node25&#45;&gt;Node17 -->
<g id="edge41_Node000025_Node000017" class="edge">
<title>Node25&#45;&gt;Node17</title>
<g id="a_edge41_Node000025_Node000017"><a xlink:title=" ">
<path fill="none" stroke="#63b8ff" d="M1206.53,-126.9C1168.99,-115.64 1104.93,-96.42 1063.01,-83.84"/>
<polygon fill="#63b8ff" stroke="#63b8ff" points="1064.1,-80.51 1053.52,-80.99 1062.09,-87.22 1064.1,-80.51"/>
</a>
</g>
</g>
<!-- Node26 -->
<g id="Node000026" class="node">
<title>Node26</title>
<g id="a_Node000026"><a xlink:href="_error_helper_8h.html" target="_top" xlink:title=" ">
<polygon fill="white" stroke="#666666" points="1825.38,-80.12 1716.38,-80.12 1716.38,-60.88 1825.38,-60.88 1825.38,-80.12"/>
<text text-anchor="middle" x="1770.88" y="-66.62" font-family="Helvetica,sans-Serif" font-size="10.00">llzk/Util/ErrorHelper.h</text>
</a>
</g>
</g>
<!-- Node25&#45;&gt;Node26 -->
<g id="edge32_Node000025_Node000026" class="edge">
<title>Node25&#45;&gt;Node26</title>
<g id="a_edge32_Node000025_Node000026"><a xlink:title=" ">
<path fill="none" stroke="#63b8ff" d="M1273.95,-126.88C1282.73,-124.96 1292.1,-123.11 1300.88,-121.75 1480.33,-93.96 1528.47,-113.84 1707.88,-85.75 1712.87,-84.97 1718.06,-84.02 1723.22,-82.99"/>
<polygon fill="#63b8ff" stroke="#63b8ff" points="1723.85,-86.43 1732.91,-80.94 1722.4,-79.58 1723.85,-86.43"/>
</a>
</g>
</g>
<!-- Node30 -->
<g id="Node000030" class="node">
<title>Node30</title>
<g id="a_Node000030"><a xlink:title=" ">
<polygon fill="#e0e0e0" stroke="#999999" points="1439.25,-80.12 1326.5,-80.12 1326.5,-60.88 1439.25,-60.88 1439.25,-80.12"/>
<text text-anchor="middle" x="1382.88" y="-66.62" font-family="Helvetica,sans-Serif" font-size="10.00">mlir/IR/SymbolTable.h</text>
</a>
</g>
</g>
<!-- Node25&#45;&gt;Node30 -->
<g id="edge38_Node000025_Node000030" class="edge">
<title>Node25&#45;&gt;Node30</title>
<g id="a_edge38_Node000025_Node000030"><a xlink:title=" ">
<path fill="none" stroke="#63b8ff" d="M1257.48,-126.9C1282.16,-116 1323.71,-97.64 1352.17,-85.07"/>
<polygon fill="#63b8ff" stroke="#63b8ff" points="1353.25,-88.41 1360.99,-81.17 1350.43,-82.01 1353.25,-88.41"/>
</a>
</g>
</g>
<!-- Node31 -->
<g id="Node000031" class="node">
<title>Node31</title>
<g id="a_Node000031"><a xlink:title=" ">
<polygon fill="#e0e0e0" stroke="#999999" points="1564.62,-80.12 1457.12,-80.12 1457.12,-60.88 1564.62,-60.88 1564.62,-80.12"/>
<text text-anchor="middle" x="1510.88" y="-66.62" font-family="Helvetica,sans-Serif" font-size="10.00">llvm/ADT/ArrayRef.h</text>
</a>
</g>
</g>
<!-- Node25&#45;&gt;Node31 -->
<g id="edge39_Node000025_Node000031" class="edge">
<title>Node25&#45;&gt;Node31</title>
<g id="a_edge39_Node000025_Node000031"><a xlink:title=" ">
<path fill="none" stroke="#63b8ff" d="M1275.55,-126.9C1324.3,-115.42 1408.17,-95.68 1461.5,-83.12"/>
<polygon fill="#63b8ff" stroke="#63b8ff" points="1461.99,-86.6 1470.92,-80.9 1460.39,-79.79 1461.99,-86.6"/>
</a>
</g>
</g>
<!-- Node32 -->
<g id="Node000032" class="node">
<title>Node32</title>
<g id="a_Node000032"><a xlink:title=" ">
<polygon fill="#e0e0e0" stroke="#999999" points="1698.75,-80.12 1583,-80.12 1583,-60.88 1698.75,-60.88 1698.75,-80.12"/>
<text text-anchor="middle" x="1640.88" y="-66.62" font-family="Helvetica,sans-Serif" font-size="10.00">llvm/ADT/DenseMap.h</text>
</a>
</g>
</g>
<!-- Node25&#45;&gt;Node32 -->
<g id="edge40_Node000025_Node000032" class="edge">
<title>Node25&#45;&gt;Node32</title>
<g id="a_edge40_Node000025_Node000032"><a xlink:title=" ">
<path fill="none" stroke="#63b8ff" d="M1275.01,-126.93C1283.49,-125.08 1292.47,-123.24 1300.88,-121.75 1421.39,-100.43 1453.26,-106.5 1573.88,-85.75 1579.02,-84.86 1584.38,-83.86 1589.72,-82.81"/>
<polygon fill="#63b8ff" stroke="#63b8ff" points="1590,-86.33 1599.1,-80.91 1588.6,-79.47 1590,-86.33"/>
</a>
</g>
</g>
<!-- Node27 -->
<g id="Node000027" class="node">
<title>Node27</title>
<g id="a_Node000027"><a xlink:title=" ">
<polygon fill="#e0e0e0" stroke="#999999" points="1705.88,-19.25 1545.88,-19.25 1545.88,0 1705.88,0 1705.88,-19.25"/>
<text text-anchor="middle" x="1625.88" y="-5.75" font-family="Helvetica,sans-Serif" font-size="10.00">llvm/ADT/STLFunctionalExtras.h</text>
</a>
</g>
</g>
<!-- Node26&#45;&gt;Node27 -->
<g id="edge33_Node000026_Node000027" class="edge">
<title>Node26&#45;&gt;Node27</title>
<g id="a_edge33_Node000026_Node000027"><a xlink:title=" ">
<path fill="none" stroke="#63b8ff" d="M1748.54,-60.43C1724.52,-50.68 1686.09,-35.08 1658.65,-23.93"/>
<polygon fill="#63b8ff" stroke="#63b8ff" points="1659.99,-20.7 1649.4,-20.18 1657.35,-27.18 1659.99,-20.7"/>
</a>
</g>
</g>
<!-- Node28 -->
<g id="Node000028" class="node">
<title>Node28</title>
<g id="a_Node000028"><a xlink:title=" ">
<polygon fill="#e0e0e0" stroke="#999999" points="1817.88,-19.25 1723.88,-19.25 1723.88,0 1817.88,0 1817.88,-19.25"/>
<text text-anchor="middle" x="1770.88" y="-5.75" font-family="Helvetica,sans-Serif" font-size="10.00">llvm/ADT/Twine.h</text>
</a>
</g>
</g>
<!-- Node26&#45;&gt;Node28 -->
<g id="edge34_Node000026_Node000028" class="edge">
<title>Node26&#45;&gt;Node28</title>
<g id="a_edge34_Node000026_Node000028"><a xlink:title=" ">
<path fill="none" stroke="#63b8ff" d="M1770.88,-60.56C1770.88,-52.78 1770.88,-41.2 1770.88,-31.16"/>
<polygon fill="#63b8ff" stroke="#63b8ff" points="1774.38,-31.16 1770.88,-21.16 1767.38,-31.16 1774.38,-31.16"/>
</a>
</g>
</g>
<!-- Node29 -->
<g id="Node000029" class="node">
<title>Node29</title>
<g id="a_Node000029"><a xlink:title=" ">
<polygon fill="#e0e0e0" stroke="#999999" points="1977.5,-19.25 1836.25,-19.25 1836.25,0 1977.5,0 1977.5,-19.25"/>
<text text-anchor="middle" x="1906.88" y="-5.75" font-family="Helvetica,sans-Serif" font-size="10.00">llvm/Support/ErrorHandling.h</text>
</a>
</g>
</g>
<!-- Node26&#45;&gt;Node29 -->
<g id="edge35_Node000026_Node000029" class="edge">
<title>Node26&#45;&gt;Node29</title>
<g id="a_edge35_Node000026_Node000029"><a xlink:title=" ">
<path fill="none" stroke="#63b8ff" d="M1791.83,-60.43C1814.25,-50.72 1850.07,-35.21 1875.79,-24.08"/>
<polygon fill="#63b8ff" stroke="#63b8ff" points="1876.95,-27.39 1884.73,-20.21 1874.17,-20.97 1876.95,-27.39"/>
</a>
</g>
</g>
</g>
</svg>
