<?xml version="1.0" encoding="UTF-8" standalone="no"?>
<!DOCTYPE svg PUBLIC "-//W3C//DTD SVG 1.1//EN"
 "http://www.w3.org/Graphics/SVG/1.1/DTD/svg11.dtd">
<!-- Generated by graphviz version 12.2.1 (0)
 -->
<!-- Title: lib/Dialect/Struct/IR/Dialect.cpp Pages: 1 -->
<svg width="2024pt" height="360pt"
 viewBox="0.00 0.00 2024.00 359.75" xmlns="http://www.w3.org/2000/svg" xmlns:xlink="http://www.w3.org/1999/xlink">
<g id="graph0" class="graph" transform="scale(1 1) rotate(0) translate(4 355.75)">
<title>lib/Dialect/Struct/IR/Dialect.cpp</title>
<!-- Node1 -->
<g id="Node000001" class="node">
<title>Node1</title>
<g id="a_Node000001"><a xlink:title=" ">
<polygon fill="#999999" stroke="#666666" points="1209.12,-351.75 1120.38,-351.75 1120.38,-321.25 1209.12,-321.25 1209.12,-351.75"/>
<text text-anchor="start" x="1128.38" y="-338.25" font-family="Helvetica,sans-Serif" font-size="10.00">lib/Dialect/Struct</text>
<text text-anchor="middle" x="1164.75" y="-327" font-family="Helvetica,sans-Serif" font-size="10.00">/IR/Dialect.cpp</text>
</a>
</g>
</g>
<!-- Node2 -->
<g id="Node000002" class="node">
<title>Node2</title>
<g id="a_Node000002"><a xlink:href="_versioning_8h.html" target="_top" xlink:title=" ">
<polygon fill="white" stroke="#666666" points="796,-285.25 691.5,-285.25 691.5,-254.75 796,-254.75 796,-285.25"/>
<text text-anchor="start" x="699.5" y="-271.75" font-family="Helvetica,sans-Serif" font-size="10.00">llzk/Dialect/LLZK/IR</text>
<text text-anchor="middle" x="743.75" y="-260.5" font-family="Helvetica,sans-Serif" font-size="10.00">/Versioning.h</text>
</a>
</g>
</g>
<!-- Node1&#45;&gt;Node2 -->
<g id="edge1_Node000001_Node000002" class="edge">
<title>Node1&#45;&gt;Node2</title>
<g id="a_edge1_Node000001_Node000002"><a xlink:title=" ">
<path fill="none" stroke="#63b8ff" d="M1119.89,-328.83C1056.08,-319.32 935.42,-301.24 832.75,-285.25 824.67,-283.99 816.18,-282.65 807.79,-281.32"/>
<polygon fill="#63b8ff" stroke="#63b8ff" points="808.37,-277.87 797.94,-279.75 807.27,-284.78 808.37,-277.87"/>
</a>
</g>
</g>
<!-- Node4 -->
<g id="Node000004" class="node">
<title>Node4</title>
<g id="a_Node000004"><a xlink:href="_struct_2_i_r_2_dialect_8h.html" target="_top" xlink:title=" ">
<polygon fill="white" stroke="#666666" points="376.75,-152.25 282.75,-152.25 282.75,-121.75 376.75,-121.75 376.75,-152.25"/>
<text text-anchor="start" x="290.75" y="-138.75" font-family="Helvetica,sans-Serif" font-size="10.00">llzk/Dialect/Struct</text>
<text text-anchor="middle" x="329.75" y="-127.5" font-family="Helvetica,sans-Serif" font-size="10.00">/IR/Dialect.h</text>
</a>
</g>
</g>
<!-- Node1&#45;&gt;Node4 -->
<g id="edge3_Node000001_Node000004" class="edge">
<title>Node1&#45;&gt;Node4</title>
<g id="a_edge3_Node000001_Node000004"><a xlink:title=" ">
<path fill="none" stroke="#63b8ff" d="M1120.09,-332.14C1072.85,-327.12 997.21,-314.83 938.75,-285.25 924.14,-277.85 842.78,-194.77 827.75,-188.25 788.27,-171.12 511.66,-150.41 388.57,-141.92"/>
<polygon fill="#63b8ff" stroke="#63b8ff" points="388.88,-138.43 378.67,-141.24 388.4,-145.42 388.88,-138.43"/>
</a>
</g>
</g>
<!-- Node7 -->
<g id="Node000007" class="node">
<title>Node7</title>
<g id="a_Node000007"><a xlink:href="_struct_2_i_r_2_ops_8h.html" target="_top" xlink:title=" ">
<polygon fill="white" stroke="#666666" points="1069.75,-285.25 975.75,-285.25 975.75,-254.75 1069.75,-254.75 1069.75,-285.25"/>
<text text-anchor="start" x="983.75" y="-271.75" font-family="Helvetica,sans-Serif" font-size="10.00">llzk/Dialect/Struct</text>
<text text-anchor="middle" x="1022.75" y="-260.5" font-family="Helvetica,sans-Serif" font-size="10.00">/IR/Ops.h</text>
</a>
</g>
</g>
<!-- Node1&#45;&gt;Node7 -->
<g id="edge6_Node000001_Node000007" class="edge">
<title>Node1&#45;&gt;Node7</title>
<g id="a_edge6_Node000001_Node000007"><a xlink:title=" ">
<path fill="none" stroke="#63b8ff" d="M1132.53,-320.86C1112.56,-311.79 1086.68,-300.04 1065.07,-290.22"/>
<polygon fill="#63b8ff" stroke="#63b8ff" points="1066.77,-287.15 1056.22,-286.2 1063.88,-293.53 1066.77,-287.15"/>
</a>
</g>
</g>
<!-- Node24 -->
<g id="Node000024" class="node">
<title>Node24</title>
<g id="a_Node000024"><a xlink:href="_struct_2_i_r_2_types_8h.html" target="_top" xlink:title=" ">
<polygon fill="white" stroke="#666666" points="968.75,-218.75 874.75,-218.75 874.75,-188.25 968.75,-188.25 968.75,-218.75"/>
<text text-anchor="start" x="882.75" y="-205.25" font-family="Helvetica,sans-Serif" font-size="10.00">llzk/Dialect/Struct</text>
<text text-anchor="middle" x="921.75" y="-194" font-family="Helvetica,sans-Serif" font-size="10.00">/IR/Types.h</text>
</a>
</g>
</g>
<!-- Node1&#45;&gt;Node24 -->
<g id="edge50_Node000001_Node000024" class="edge">
<title>Node1&#45;&gt;Node24</title>
<g id="a_edge50_Node000001_Node000024"><a xlink:title=" ">
<path fill="none" stroke="#63b8ff" d="M1120.27,-334.13C1077.01,-330.68 1011.45,-319.62 966.75,-285.25 948.61,-271.3 936.72,-247.84 929.74,-229.79"/>
<polygon fill="#63b8ff" stroke="#63b8ff" points="933.1,-228.79 926.44,-220.55 926.51,-231.14 933.1,-228.79"/>
</a>
</g>
</g>
<!-- Node39 -->
<g id="Node000039" class="node">
<title>Node39</title>
<g id="a_Node000039"><a xlink:title=" ">
<polygon fill="#e0e0e0" stroke="#999999" points="1241.75,-279.62 1087.75,-279.62 1087.75,-260.38 1241.75,-260.38 1241.75,-279.62"/>
<text text-anchor="middle" x="1164.75" y="-266.12" font-family="Helvetica,sans-Serif" font-size="10.00">mlir/IR/DialectImplementation.h</text>
</a>
</g>
</g>
<!-- Node1&#45;&gt;Node39 -->
<g id="edge51_Node000001_Node000039" class="edge">
<title>Node1&#45;&gt;Node39</title>
<g id="a_edge51_Node000001_Node000039"><a xlink:title=" ">
<path fill="none" stroke="#63b8ff" d="M1164.75,-320.86C1164.75,-312.08 1164.75,-300.77 1164.75,-291.15"/>
<polygon fill="#63b8ff" stroke="#63b8ff" points="1168.25,-291.34 1164.75,-281.34 1161.25,-291.34 1168.25,-291.34"/>
</a>
</g>
</g>
<!-- Node40 -->
<g id="Node000040" class="node">
<title>Node40</title>
<g id="a_Node000040"><a xlink:title=" ">
<polygon fill="#e0e0e0" stroke="#999999" points="1379.5,-279.62 1260,-279.62 1260,-260.38 1379.5,-260.38 1379.5,-279.62"/>
<text text-anchor="middle" x="1319.75" y="-266.12" font-family="Helvetica,sans-Serif" font-size="10.00">llvm/ADT/TypeSwitch.h</text>
</a>
</g>
</g>
<!-- Node1&#45;&gt;Node40 -->
<g id="edge52_Node000001_Node000040" class="edge">
<title>Node1&#45;&gt;Node40</title>
<g id="a_edge52_Node000001_Node000040"><a xlink:title=" ">
<path fill="none" stroke="#63b8ff" d="M1199.92,-320.86C1226.22,-309.92 1261.9,-295.07 1287.47,-284.43"/>
<polygon fill="#63b8ff" stroke="#63b8ff" points="1288.81,-287.66 1296.7,-280.59 1286.12,-281.2 1288.81,-287.66"/>
</a>
</g>
</g>
<!-- Node41 -->
<g id="Node000041" class="node">
<title>Node41</title>
<g id="a_Node000041"><a xlink:href="_struct_2_i_r_2_dialect_8cpp_8inc.html" target="_top" xlink:title=" ">
<polygon fill="white" stroke="#666666" points="1495.62,-285.25 1397.88,-285.25 1397.88,-254.75 1495.62,-254.75 1495.62,-285.25"/>
<text text-anchor="start" x="1405.88" y="-271.75" font-family="Helvetica,sans-Serif" font-size="10.00">llzk/Dialect/Struct</text>
<text text-anchor="middle" x="1446.75" y="-260.5" font-family="Helvetica,sans-Serif" font-size="10.00">/IR/Dialect.cpp.inc</text>
</a>
</g>
</g>
<!-- Node1&#45;&gt;Node41 -->
<g id="edge53_Node000001_Node000041" class="edge">
<title>Node1&#45;&gt;Node41</title>
<g id="a_edge53_Node000001_Node000041"><a xlink:title=" ">
<path fill="none" stroke="#63b8ff" d="M1209.44,-325.75C1252.31,-316.34 1319.15,-301.51 1386.21,-285.82"/>
<polygon fill="#63b8ff" stroke="#63b8ff" points="1387,-289.23 1395.93,-283.54 1385.4,-282.42 1387,-289.23"/>
</a>
</g>
</g>
<!-- Node42 -->
<g id="Node000042" class="node">
<title>Node42</title>
<g id="a_Node000042"><a xlink:href="_struct_2_i_r_2_types_8cpp_8inc.html" target="_top" xlink:title=" ">
<polygon fill="white" stroke="#666666" points="1607.75,-285.25 1513.75,-285.25 1513.75,-254.75 1607.75,-254.75 1607.75,-285.25"/>
<text text-anchor="start" x="1521.75" y="-271.75" font-family="Helvetica,sans-Serif" font-size="10.00">llzk/Dialect/Struct</text>
<text text-anchor="middle" x="1560.75" y="-260.5" font-family="Helvetica,sans-Serif" font-size="10.00">/IR/Types.cpp.inc</text>
</a>
</g>
</g>
<!-- Node1&#45;&gt;Node42 -->
<g id="edge54_Node000001_Node000042" class="edge">
<title>Node1&#45;&gt;Node42</title>
<g id="a_edge54_Node000001_Node000042"><a xlink:title=" ">
<path fill="none" stroke="#63b8ff" d="M1209.56,-330.36C1272.73,-322.8 1391.75,-307.35 1502.44,-285.59"/>
<polygon fill="#63b8ff" stroke="#63b8ff" points="1502.86,-289.07 1511.99,-283.69 1501.5,-282.21 1502.86,-289.07"/>
</a>
</g>
</g>
<!-- Node43 -->
<g id="Node000043" class="node">
<title>Node43</title>
<g id="a_Node000043"><a xlink:href="_struct_2_i_r_2_ops_8cpp_8inc.html" target="_top" xlink:title=" ">
<polygon fill="white" stroke="#666666" points="1719.75,-285.25 1625.75,-285.25 1625.75,-254.75 1719.75,-254.75 1719.75,-285.25"/>
<text text-anchor="start" x="1633.75" y="-271.75" font-family="Helvetica,sans-Serif" font-size="10.00">llzk/Dialect/Struct</text>
<text text-anchor="middle" x="1672.75" y="-260.5" font-family="Helvetica,sans-Serif" font-size="10.00">/IR/Ops.cpp.inc</text>
</a>
</g>
</g>
<!-- Node1&#45;&gt;Node43 -->
<g id="edge55_Node000001_Node000043" class="edge">
<title>Node1&#45;&gt;Node43</title>
<g id="a_edge55_Node000001_Node000043"><a xlink:title=" ">
<path fill="none" stroke="#63b8ff" d="M1209.32,-332.6C1288.82,-326.99 1460.48,-312.85 1614.44,-285.51"/>
<polygon fill="#63b8ff" stroke="#63b8ff" points="1614.78,-289 1624.01,-283.78 1613.54,-282.11 1614.78,-289"/>
</a>
</g>
</g>
<!-- Node3 -->
<g id="Node000003" class="node">
<title>Node3</title>
<g id="a_Node000003"><a xlink:title=" ">
<polygon fill="#e0e0e0" stroke="#999999" points="818.38,-213.12 623.12,-213.12 623.12,-193.88 818.38,-193.88 818.38,-213.12"/>
<text text-anchor="middle" x="720.75" y="-199.62" font-family="Helvetica,sans-Serif" font-size="10.00">mlir/Bytecode/BytecodeImplementation.h</text>
</a>
</g>
</g>
<!-- Node2&#45;&gt;Node3 -->
<g id="edge2_Node000002_Node000003" class="edge">
<title>Node2&#45;&gt;Node3</title>
<g id="a_edge2_Node000002_Node000003"><a xlink:title=" ">
<path fill="none" stroke="#63b8ff" d="M738.53,-254.36C735.33,-245.38 731.19,-233.76 727.71,-224.01"/>
<polygon fill="#63b8ff" stroke="#63b8ff" points="731.06,-222.99 724.4,-214.75 724.47,-225.34 731.06,-222.99"/>
</a>
</g>
</g>
<!-- Node5 -->
<g id="Node000005" class="node">
<title>Node5</title>
<g id="a_Node000005"><a xlink:title=" ">
<polygon fill="#e0e0e0" stroke="#999999" points="101.5,-80.12 0,-80.12 0,-60.88 101.5,-60.88 101.5,-80.12"/>
<text text-anchor="middle" x="50.75" y="-66.62" font-family="Helvetica,sans-Serif" font-size="10.00">mlir/IR/BuiltinOps.h</text>
</a>
</g>
</g>
<!-- Node4&#45;&gt;Node5 -->
<g id="edge4_Node000004_Node000005" class="edge">
<title>Node4&#45;&gt;Node5</title>
<g id="a_edge4_Node000004_Node000005"><a xlink:title=" ">
<path fill="none" stroke="#63b8ff" d="M282.31,-125.22C237.93,-115.12 169.82,-99.54 110.75,-85.75 107.21,-84.92 103.54,-84.06 99.86,-83.2"/>
<polygon fill="#63b8ff" stroke="#63b8ff" points="100.84,-79.83 90.3,-80.94 99.23,-86.64 100.84,-79.83"/>
</a>
</g>
</g>
<!-- Node6 -->
<g id="Node000006" class="node">
<title>Node6</title>
<g id="a_Node000006"><a xlink:href="_struct_2_i_r_2_dialect_8h_8inc.html" target="_top" xlink:title=" ">
<polygon fill="white" stroke="#666666" points="213.75,-85.75 119.75,-85.75 119.75,-55.25 213.75,-55.25 213.75,-85.75"/>
<text text-anchor="start" x="127.75" y="-72.25" font-family="Helvetica,sans-Serif" font-size="10.00">llzk/Dialect/Struct</text>
<text text-anchor="middle" x="166.75" y="-61" font-family="Helvetica,sans-Serif" font-size="10.00">/IR/Dialect.h.inc</text>
</a>
</g>
</g>
<!-- Node4&#45;&gt;Node6 -->
<g id="edge5_Node000004_Node000006" class="edge">
<title>Node4&#45;&gt;Node6</title>
<g id="a_edge5_Node000004_Node000006"><a xlink:title=" ">
<path fill="none" stroke="#63b8ff" d="M292.76,-121.36C269.61,-112.2 239.54,-100.3 214.58,-90.43"/>
<polygon fill="#63b8ff" stroke="#63b8ff" points="215.87,-87.17 205.28,-86.75 213.29,-93.68 215.87,-87.17"/>
</a>
</g>
</g>
<!-- Node8 -->
<g id="Node000008" class="node">
<title>Node8</title>
<g id="a_Node000008"><a xlink:href="_op_traits_8h.html" target="_top" xlink:title=" ">
<polygon fill="white" stroke="#666666" points="1460.38,-218.75 1355.12,-218.75 1355.12,-188.25 1460.38,-188.25 1460.38,-218.75"/>
<text text-anchor="start" x="1363.12" y="-205.25" font-family="Helvetica,sans-Serif" font-size="10.00">llzk/Dialect/Function</text>
<text text-anchor="middle" x="1407.75" y="-194" font-family="Helvetica,sans-Serif" font-size="10.00">/IR/OpTraits.h</text>
</a>
</g>
</g>
<!-- Node7&#45;&gt;Node8 -->
<g id="edge7_Node000007_Node000008" class="edge">
<title>Node7&#45;&gt;Node8</title>
<g id="a_edge7_Node000007_Node000008"><a xlink:title=" ">
<path fill="none" stroke="#63b8ff" d="M1070.03,-256.62C1072.98,-255.96 1075.9,-255.33 1078.75,-254.75 1170.15,-236.19 1277.08,-221.06 1343.63,-212.41"/>
<polygon fill="#63b8ff" stroke="#63b8ff" points="1343.79,-215.92 1353.26,-211.17 1342.9,-208.97 1343.79,-215.92"/>
</a>
</g>
</g>
<!-- Node12 -->
<g id="Node000012" class="node">
<title>Node12</title>
<g id="a_Node000012"><a xlink:href="_l_l_z_k_2_i_r_2_attrs_8h.html" target="_top" xlink:title=" ">
<polygon fill="white" stroke="#666666" points="1899,-218.75 1794.5,-218.75 1794.5,-188.25 1899,-188.25 1899,-218.75"/>
<text text-anchor="start" x="1802.5" y="-205.25" font-family="Helvetica,sans-Serif" font-size="10.00">llzk/Dialect/LLZK/IR</text>
<text text-anchor="middle" x="1846.75" y="-194" font-family="Helvetica,sans-Serif" font-size="10.00">/Attrs.h</text>
</a>
</g>
</g>
<!-- Node7&#45;&gt;Node12 -->
<g id="edge11_Node000007_Node000012" class="edge">
<title>Node7&#45;&gt;Node12</title>
<g id="a_edge11_Node000007_Node000012"><a xlink:title=" ">
<path fill="none" stroke="#63b8ff" d="M1069.98,-256.33C1072.94,-255.74 1075.88,-255.21 1078.75,-254.75 1113.27,-249.28 1604.61,-219.17 1782.8,-208.36"/>
<polygon fill="#63b8ff" stroke="#63b8ff" points="1782.79,-211.87 1792.56,-207.77 1782.37,-204.88 1782.79,-211.87"/>
</a>
</g>
</g>
<!-- Node15 -->
<g id="Node000015" class="node">
<title>Node15</title>
<g id="a_Node000015"><a xlink:href="_op_helpers_8h.html" target="_top" xlink:title=" ">
<polygon fill="white" stroke="#666666" points="1277,-218.75 1178.5,-218.75 1178.5,-188.25 1277,-188.25 1277,-218.75"/>
<text text-anchor="start" x="1186.5" y="-205.25" font-family="Helvetica,sans-Serif" font-size="10.00">llzk/Dialect/Shared</text>
<text text-anchor="middle" x="1227.75" y="-194" font-family="Helvetica,sans-Serif" font-size="10.00">/OpHelpers.h</text>
</a>
</g>
</g>
<!-- Node7&#45;&gt;Node15 -->
<g id="edge14_Node000007_Node000015" class="edge">
<title>Node7&#45;&gt;Node15</title>
<g id="a_edge14_Node000007_Node000015"><a xlink:title=" ">
<path fill="none" stroke="#63b8ff" d="M1069.52,-254.28C1099.44,-244.87 1138.45,-232.6 1170.26,-222.59"/>
<polygon fill="#63b8ff" stroke="#63b8ff" points="1171.24,-225.95 1179.73,-219.61 1169.14,-219.27 1171.24,-225.95"/>
</a>
</g>
</g>
<!-- Node7&#45;&gt;Node24 -->
<g id="edge27_Node000007_Node000024" class="edge">
<title>Node7&#45;&gt;Node24</title>
<g id="a_edge27_Node000007_Node000024"><a xlink:title=" ">
<path fill="none" stroke="#63b8ff" d="M999.83,-254.36C986.27,-245.7 968.89,-234.6 953.96,-225.07"/>
<polygon fill="#63b8ff" stroke="#63b8ff" points="956.17,-222.33 945.85,-219.89 952.4,-228.22 956.17,-222.33"/>
</a>
</g>
</g>
<!-- Node36 -->
<g id="Node000036" class="node">
<title>Node36</title>
<g id="a_Node000036"><a xlink:href="_struct_2_i_r_2_ops_8h_8inc.html" target="_top" xlink:title=" ">
<polygon fill="white" stroke="#666666" points="1069.75,-152.25 975.75,-152.25 975.75,-121.75 1069.75,-121.75 1069.75,-152.25"/>
<text text-anchor="start" x="983.75" y="-138.75" font-family="Helvetica,sans-Serif" font-size="10.00">llzk/Dialect/Struct</text>
<text text-anchor="middle" x="1022.75" y="-127.5" font-family="Helvetica,sans-Serif" font-size="10.00">/IR/Ops.h.inc</text>
</a>
</g>
</g>
<!-- Node7&#45;&gt;Node36 -->
<g id="edge49_Node000007_Node000036" class="edge">
<title>Node7&#45;&gt;Node36</title>
<g id="a_edge49_Node000007_Node000036"><a xlink:title=" ">
<path fill="none" stroke="#63b8ff" d="M1022.75,-254.48C1022.75,-232.64 1022.75,-191.02 1022.75,-163.9"/>
<polygon fill="#63b8ff" stroke="#63b8ff" points="1026.25,-164.1 1022.75,-154.1 1019.25,-164.1 1026.25,-164.1"/>
</a>
</g>
</g>
<!-- Node38 -->
<g id="Node000038" class="node">
<title>Node38</title>
<g id="a_Node000038"><a xlink:href="_struct_2_i_r_2_op_interfaces_8h_8inc.html" target="_top" xlink:title=" ">
<polygon fill="white" stroke="#666666" points="1591.12,-218.75 1478.38,-218.75 1478.38,-188.25 1591.12,-188.25 1591.12,-218.75"/>
<text text-anchor="start" x="1486.38" y="-205.25" font-family="Helvetica,sans-Serif" font-size="10.00">llzk/Dialect/Struct</text>
<text text-anchor="middle" x="1534.75" y="-194" font-family="Helvetica,sans-Serif" font-size="10.00">/IR/OpInterfaces.h.inc</text>
</a>
</g>
</g>
<!-- Node7&#45;&gt;Node38 -->
<g id="edge48_Node000007_Node000038" class="edge">
<title>Node7&#45;&gt;Node38</title>
<g id="a_edge48_Node000007_Node000038"><a xlink:title=" ">
<path fill="none" stroke="#63b8ff" d="M1069.99,-256.42C1072.95,-255.81 1075.88,-255.24 1078.75,-254.75 1247.12,-225.76 1295.29,-244.65 1466.89,-219.06"/>
<polygon fill="#63b8ff" stroke="#63b8ff" points="1467.25,-222.55 1476.61,-217.58 1466.2,-215.63 1467.25,-222.55"/>
</a>
</g>
</g>
<!-- Node9 -->
<g id="Node000009" class="node">
<title>Node9</title>
<g id="a_Node000009"><a xlink:title=" ">
<polygon fill="#e0e0e0" stroke="#999999" points="1776,-146.62 1665.5,-146.62 1665.5,-127.38 1776,-127.38 1776,-146.62"/>
<text text-anchor="middle" x="1720.75" y="-133.12" font-family="Helvetica,sans-Serif" font-size="10.00">mlir/IR/OpDefinition.h</text>
</a>
</g>
</g>
<!-- Node8&#45;&gt;Node9 -->
<g id="edge8_Node000008_Node000009" class="edge">
<title>Node8&#45;&gt;Node9</title>
<g id="a_edge8_Node000008_Node000009"><a xlink:title=" ">
<path fill="none" stroke="#63b8ff" d="M1460.82,-190.17C1463.84,-189.51 1466.83,-188.87 1469.75,-188.25 1552.56,-170.77 1573.88,-169.45 1656.75,-152.25 1661.02,-151.36 1665.44,-150.43 1669.87,-149.47"/>
<polygon fill="#63b8ff" stroke="#63b8ff" points="1670.34,-152.95 1679.37,-147.39 1668.85,-146.11 1670.34,-152.95"/>
</a>
</g>
</g>
<!-- Node10 -->
<g id="Node000010" class="node">
<title>Node10</title>
<g id="a_Node000010"><a xlink:title=" ">
<polygon fill="#e0e0e0" stroke="#999999" points="1450,-80.12 1351.5,-80.12 1351.5,-60.88 1450,-60.88 1450,-80.12"/>
<text text-anchor="middle" x="1400.75" y="-66.62" font-family="Helvetica,sans-Serif" font-size="10.00">mlir/IR/Operation.h</text>
</a>
</g>
</g>
<!-- Node8&#45;&gt;Node10 -->
<g id="edge9_Node000008_Node000010" class="edge">
<title>Node8&#45;&gt;Node10</title>
<g id="a_edge9_Node000008_Node000010"><a xlink:title=" ">
<path fill="none" stroke="#63b8ff" d="M1446.3,-187.84C1461.77,-179.82 1477.99,-168.21 1486.75,-152.25 1493.27,-140.37 1493.5,-133.51 1486.75,-121.75 1476.91,-104.61 1458.72,-92.76 1441.59,-84.89"/>
<polygon fill="#63b8ff" stroke="#63b8ff" points="1443.12,-81.74 1432.55,-81.08 1440.4,-88.19 1443.12,-81.74"/>
</a>
</g>
</g>
<!-- Node11 -->
<g id="Node000011" class="node">
<title>Node11</title>
<g id="a_Node000011"><a xlink:title=" ">
<polygon fill="#e0e0e0" stroke="#999999" points="1477.25,-146.62 1338.25,-146.62 1338.25,-127.38 1477.25,-127.38 1477.25,-146.62"/>
<text text-anchor="middle" x="1407.75" y="-133.12" font-family="Helvetica,sans-Serif" font-size="10.00">mlir/Support/LogicalResult.h</text>
</a>
</g>
</g>
<!-- Node8&#45;&gt;Node11 -->
<g id="edge10_Node000008_Node000011" class="edge">
<title>Node8&#45;&gt;Node11</title>
<g id="a_edge10_Node000008_Node000011"><a xlink:title=" ">
<path fill="none" stroke="#63b8ff" d="M1407.75,-187.86C1407.75,-179.08 1407.75,-167.77 1407.75,-158.15"/>
<polygon fill="#63b8ff" stroke="#63b8ff" points="1411.25,-158.34 1407.75,-148.34 1404.25,-158.34 1411.25,-158.34"/>
</a>
</g>
</g>
<!-- Node13 -->
<g id="Node000013" class="node">
<title>Node13</title>
<g id="a_Node000013"><a xlink:title=" ">
<polygon fill="#e0e0e0" stroke="#999999" points="2016,-146.62 1917.5,-146.62 1917.5,-127.38 2016,-127.38 2016,-146.62"/>
<text text-anchor="middle" x="1966.75" y="-133.12" font-family="Helvetica,sans-Serif" font-size="10.00">mlir/IR/Attributes.h</text>
</a>
</g>
</g>
<!-- Node12&#45;&gt;Node13 -->
<g id="edge12_Node000012_Node000013" class="edge">
<title>Node12&#45;&gt;Node13</title>
<g id="a_edge12_Node000012_Node000013"><a xlink:title=" ">
<path fill="none" stroke="#63b8ff" d="M1873.98,-187.86C1893.7,-177.26 1920.23,-163 1939.87,-152.45"/>
<polygon fill="#63b8ff" stroke="#63b8ff" points="1941.5,-155.54 1948.65,-147.73 1938.19,-149.38 1941.5,-155.54"/>
</a>
</g>
</g>
<!-- Node14 -->
<g id="Node000014" class="node">
<title>Node14</title>
<g id="a_Node000014"><a xlink:href="_l_l_z_k_2_i_r_2_attrs_8h_8inc.html" target="_top" xlink:title=" ">
<polygon fill="white" stroke="#666666" points="1899,-152.25 1794.5,-152.25 1794.5,-121.75 1899,-121.75 1899,-152.25"/>
<text text-anchor="start" x="1802.5" y="-138.75" font-family="Helvetica,sans-Serif" font-size="10.00">llzk/Dialect/LLZK/IR</text>
<text text-anchor="middle" x="1846.75" y="-127.5" font-family="Helvetica,sans-Serif" font-size="10.00">/Attrs.h.inc</text>
</a>
</g>
</g>
<!-- Node12&#45;&gt;Node14 -->
<g id="edge13_Node000012_Node000014" class="edge">
<title>Node12&#45;&gt;Node14</title>
<g id="a_edge13_Node000012_Node000014"><a xlink:title=" ">
<path fill="none" stroke="#63b8ff" d="M1846.75,-187.86C1846.75,-180.77 1846.75,-172.04 1846.75,-163.88"/>
<polygon fill="#63b8ff" stroke="#63b8ff" points="1850.25,-164.09 1846.75,-154.09 1843.25,-164.09 1850.25,-164.09"/>
</a>
</g>
</g>
<!-- Node15&#45;&gt;Node10 -->
<g id="edge23_Node000015_Node000010" class="edge">
<title>Node15&#45;&gt;Node10</title>
<g id="a_edge23_Node000015_Node000010"><a xlink:title=" ">
<path fill="none" stroke="#63b8ff" d="M1245.58,-187.91C1265.76,-171.5 1299.74,-144.22 1329.75,-121.75 1345.7,-109.8 1364.08,-96.82 1378.13,-87.04"/>
<polygon fill="#63b8ff" stroke="#63b8ff" points="1380.04,-89.98 1386.27,-81.41 1376.05,-84.23 1380.04,-89.98"/>
</a>
</g>
</g>
<!-- Node15&#45;&gt;Node11 -->
<g id="edge24_Node000015_Node000011" class="edge">
<title>Node15&#45;&gt;Node11</title>
<g id="a_edge24_Node000015_Node000011"><a xlink:title=" ">
<path fill="none" stroke="#63b8ff" d="M1268.59,-187.86C1299.59,-176.76 1341.81,-161.63 1371.59,-150.96"/>
<polygon fill="#63b8ff" stroke="#63b8ff" points="1372.69,-154.28 1380.92,-147.61 1370.32,-147.69 1372.69,-154.28"/>
</a>
</g>
</g>
<!-- Node16 -->
<g id="Node000016" class="node">
<title>Node16</title>
<g id="a_Node000016"><a xlink:href="_affine_helper_8h.html" target="_top" xlink:title=" ">
<polygon fill="white" stroke="#666666" points="1647.5,-146.62 1534,-146.62 1534,-127.38 1647.5,-127.38 1647.5,-146.62"/>
<text text-anchor="middle" x="1590.75" y="-133.12" font-family="Helvetica,sans-Serif" font-size="10.00">llzk/Util/AffineHelper.h</text>
</a>
</g>
</g>
<!-- Node15&#45;&gt;Node16 -->
<g id="edge15_Node000015_Node000016" class="edge">
<title>Node15&#45;&gt;Node16</title>
<g id="a_edge15_Node000015_Node000016"><a xlink:title=" ">
<path fill="none" stroke="#63b8ff" d="M1277.46,-193.67C1342.8,-182.06 1457.58,-161.66 1528.59,-149.05"/>
<polygon fill="#63b8ff" stroke="#63b8ff" points="1528.87,-152.55 1538.1,-147.35 1527.64,-145.66 1528.87,-152.55"/>
</a>
</g>
</g>
<!-- Node18 -->
<g id="Node000018" class="node">
<title>Node18</title>
<g id="a_Node000018"><a xlink:title=" ">
<polygon fill="#e0e0e0" stroke="#999999" points="1333.75,-80.12 1197.75,-80.12 1197.75,-60.88 1333.75,-60.88 1333.75,-80.12"/>
<text text-anchor="middle" x="1265.75" y="-66.62" font-family="Helvetica,sans-Serif" font-size="10.00">mlir/IR/OpImplementation.h</text>
</a>
</g>
</g>
<!-- Node15&#45;&gt;Node18 -->
<g id="edge22_Node000015_Node000018" class="edge">
<title>Node15&#45;&gt;Node18</title>
<g id="a_edge22_Node000015_Node000018"><a xlink:title=" ">
<path fill="none" stroke="#63b8ff" d="M1236.41,-188.04C1241.9,-178.26 1248.7,-164.87 1252.75,-152.25 1259.25,-132 1262.6,-107.79 1264.25,-91.2"/>
<polygon fill="#63b8ff" stroke="#63b8ff" points="1267.7,-91.96 1265.08,-81.69 1260.73,-91.35 1267.7,-91.96"/>
</a>
</g>
</g>
<!-- Node21 -->
<g id="Node000021" class="node">
<title>Node21</title>
<g id="a_Node000021"><a xlink:href="_constants_8h.html" target="_top" xlink:title=" ">
<polygon fill="white" stroke="#666666" points="1179.38,-80.12 1074.12,-80.12 1074.12,-60.88 1179.38,-60.88 1179.38,-80.12"/>
<text text-anchor="middle" x="1126.75" y="-66.62" font-family="Helvetica,sans-Serif" font-size="10.00">llzk/Util/Constants.h</text>
</a>
</g>
</g>
<!-- Node15&#45;&gt;Node21 -->
<g id="edge21_Node000015_Node000021" class="edge">
<title>Node15&#45;&gt;Node21</title>
<g id="a_edge21_Node000015_Node000021"><a xlink:title=" ">
<path fill="none" stroke="#63b8ff" d="M1178.13,-192.9C1155.34,-185.75 1130.39,-173.4 1116.75,-152.25 1104.99,-134.02 1110.94,-108.61 1117.58,-91.18"/>
<polygon fill="#63b8ff" stroke="#63b8ff" points="1120.8,-92.55 1121.49,-81.98 1114.36,-89.82 1120.8,-92.55"/>
</a>
</g>
</g>
<!-- Node22 -->
<g id="Node000022" class="node">
<title>Node22</title>
<g id="a_Node000022"><a xlink:title=" ">
<polygon fill="#e0e0e0" stroke="#999999" points="1244.12,-146.62 1125.38,-146.62 1125.38,-127.38 1244.12,-127.38 1244.12,-146.62"/>
<text text-anchor="middle" x="1184.75" y="-133.12" font-family="Helvetica,sans-Serif" font-size="10.00">llvm/ADT/SmallString.h</text>
</a>
</g>
</g>
<!-- Node15&#45;&gt;Node22 -->
<g id="edge25_Node000015_Node000022" class="edge">
<title>Node15&#45;&gt;Node22</title>
<g id="a_edge25_Node000015_Node000022"><a xlink:title=" ">
<path fill="none" stroke="#63b8ff" d="M1217.99,-187.86C1211.74,-178.48 1203.58,-166.24 1196.9,-156.23"/>
<polygon fill="#63b8ff" stroke="#63b8ff" points="1199.93,-154.46 1191.47,-148.08 1194.11,-158.34 1199.93,-154.46"/>
</a>
</g>
</g>
<!-- Node23 -->
<g id="Node000023" class="node">
<title>Node23</title>
<g id="a_Node000023"><a xlink:title=" ">
<polygon fill="#e0e0e0" stroke="#999999" points="858.62,-80.12 748.88,-80.12 748.88,-60.88 858.62,-60.88 858.62,-80.12"/>
<text text-anchor="middle" x="803.75" y="-66.62" font-family="Helvetica,sans-Serif" font-size="10.00">llvm/ADT/StringRef.h</text>
</a>
</g>
</g>
<!-- Node15&#45;&gt;Node23 -->
<g id="edge26_Node000015_Node000023" class="edge">
<title>Node15&#45;&gt;Node23</title>
<g id="a_edge26_Node000015_Node000023"><a xlink:title=" ">
<path fill="none" stroke="#63b8ff" d="M1178.33,-199.42C1076.57,-192.65 850.92,-175.21 824.75,-152.25 807.68,-137.27 803.64,-110.34 803.08,-91.73"/>
<polygon fill="#63b8ff" stroke="#63b8ff" points="806.57,-91.94 803.12,-81.93 799.57,-91.91 806.57,-91.94"/>
</a>
</g>
</g>
<!-- Node16&#45;&gt;Node10 -->
<g id="edge18_Node000016_Node000010" class="edge">
<title>Node16&#45;&gt;Node10</title>
<g id="a_edge18_Node000016_Node000010"><a xlink:title=" ">
<path fill="none" stroke="#63b8ff" d="M1563.93,-126.9C1531.11,-115.76 1475.36,-96.83 1438.29,-84.24"/>
<polygon fill="#63b8ff" stroke="#63b8ff" points="1439.46,-80.95 1428.87,-81.04 1437.21,-87.57 1439.46,-80.95"/>
</a>
</g>
</g>
<!-- Node17 -->
<g id="Node000017" class="node">
<title>Node17</title>
<g id="a_Node000017"><a xlink:title=" ">
<polygon fill="#e0e0e0" stroke="#999999" points="1559.62,-80.12 1467.88,-80.12 1467.88,-60.88 1559.62,-60.88 1559.62,-80.12"/>
<text text-anchor="middle" x="1513.75" y="-66.62" font-family="Helvetica,sans-Serif" font-size="10.00">mlir/IR/Builders.h</text>
</a>
</g>
</g>
<!-- Node16&#45;&gt;Node17 -->
<g id="edge16_Node000016_Node000017" class="edge">
<title>Node16&#45;&gt;Node17</title>
<g id="a_edge16_Node000016_Node000017"><a xlink:title=" ">
<path fill="none" stroke="#63b8ff" d="M1580.04,-127.03C1567.86,-116.83 1547.73,-99.96 1532.84,-87.49"/>
<polygon fill="#63b8ff" stroke="#63b8ff" points="1535.44,-85.1 1525.53,-81.36 1530.94,-90.47 1535.44,-85.1"/>
</a>
</g>
</g>
<!-- Node16&#45;&gt;Node18 -->
<g id="edge17_Node000016_Node000018" class="edge">
<title>Node16&#45;&gt;Node18</title>
<g id="a_edge17_Node000016_Node000018"><a xlink:title=" ">
<path fill="none" stroke="#63b8ff" d="M1544.87,-126.9C1486.52,-115.32 1385.77,-95.32 1322.61,-82.78"/>
<polygon fill="#63b8ff" stroke="#63b8ff" points="1323.63,-79.42 1313.14,-80.9 1322.27,-86.28 1323.63,-79.42"/>
</a>
</g>
</g>
<!-- Node19 -->
<g id="Node000019" class="node">
<title>Node19</title>
<g id="a_Node000019"><a xlink:title=" ">
<polygon fill="#e0e0e0" stroke="#999999" points="1686.25,-80.12 1577.25,-80.12 1577.25,-60.88 1686.25,-60.88 1686.25,-80.12"/>
<text text-anchor="middle" x="1631.75" y="-66.62" font-family="Helvetica,sans-Serif" font-size="10.00">mlir/IR/ValueRange.h</text>
</a>
</g>
</g>
<!-- Node16&#45;&gt;Node19 -->
<g id="edge19_Node000016_Node000019" class="edge">
<title>Node16&#45;&gt;Node19</title>
<g id="a_edge19_Node000016_Node000019"><a xlink:title=" ">
<path fill="none" stroke="#63b8ff" d="M1596.45,-127.03C1602.51,-117.5 1612.26,-102.16 1619.98,-90.02"/>
<polygon fill="#63b8ff" stroke="#63b8ff" points="1622.87,-91.99 1625.29,-81.67 1616.97,-88.23 1622.87,-91.99"/>
</a>
</g>
</g>
<!-- Node20 -->
<g id="Node000020" class="node">
<title>Node20</title>
<g id="a_Node000020"><a xlink:title=" ">
<polygon fill="#e0e0e0" stroke="#999999" points="1825.25,-80.12 1704.25,-80.12 1704.25,-60.88 1825.25,-60.88 1825.25,-80.12"/>
<text text-anchor="middle" x="1764.75" y="-66.62" font-family="Helvetica,sans-Serif" font-size="10.00">llvm/ADT/SmallVector.h</text>
</a>
</g>
</g>
<!-- Node16&#45;&gt;Node20 -->
<g id="edge20_Node000016_Node000020" class="edge">
<title>Node16&#45;&gt;Node20</title>
<g id="a_edge20_Node000016_Node000020"><a xlink:title=" ">
<path fill="none" stroke="#63b8ff" d="M1615.31,-126.9C1645.23,-115.8 1695.99,-96.99 1729.93,-84.41"/>
<polygon fill="#63b8ff" stroke="#63b8ff" points="1730.73,-87.84 1738.89,-81.08 1728.3,-81.28 1730.73,-87.84"/>
</a>
</g>
</g>
<!-- Node24&#45;&gt;Node4 -->
<g id="edge28_Node000024_Node000004" class="edge">
<title>Node24&#45;&gt;Node4</title>
<g id="a_edge28_Node000024_Node000004"><a xlink:title=" ">
<path fill="none" stroke="#63b8ff" d="M874.25,-190.75C869.71,-189.82 865.15,-188.97 860.75,-188.25 771.09,-173.6 506.92,-151.89 388.43,-142.55"/>
<polygon fill="#63b8ff" stroke="#63b8ff" points="388.84,-139.07 378.6,-141.77 388.3,-146.05 388.84,-139.07"/>
</a>
</g>
</g>
<!-- Node25 -->
<g id="Node000025" class="node">
<title>Node25</title>
<g id="a_Node000025"><a xlink:href="_symbol_lookup_8h.html" target="_top" xlink:title="This file defines methods symbol lookup across LLZK operations and included files.">
<polygon fill="white" stroke="#666666" points="958.12,-146.62 833.38,-146.62 833.38,-127.38 958.12,-127.38 958.12,-146.62"/>
<text text-anchor="middle" x="895.75" y="-133.12" font-family="Helvetica,sans-Serif" font-size="10.00">llzk/Util/SymbolLookup.h</text>
</a>
</g>
</g>
<!-- Node24&#45;&gt;Node25 -->
<g id="edge29_Node000024_Node000025" class="edge">
<title>Node24&#45;&gt;Node25</title>
<g id="a_edge29_Node000024_Node000025"><a xlink:title=" ">
<path fill="none" stroke="#63b8ff" d="M915.85,-187.86C912.19,-178.78 907.44,-167.01 903.48,-157.18"/>
<polygon fill="#63b8ff" stroke="#63b8ff" points="906.86,-156.19 899.87,-148.23 900.36,-158.81 906.86,-156.19"/>
</a>
</g>
</g>
<!-- Node28 -->
<g id="Node000028" class="node">
<title>Node28</title>
<g id="a_Node000028"><a xlink:href="_type_helper_8h.html" target="_top" xlink:title=" ">
<polygon fill="white" stroke="#666666" points="665.25,-146.62 556.25,-146.62 556.25,-127.38 665.25,-127.38 665.25,-146.62"/>
<text text-anchor="middle" x="610.75" y="-133.12" font-family="Helvetica,sans-Serif" font-size="10.00">llzk/Util/TypeHelper.h</text>
</a>
</g>
</g>
<!-- Node24&#45;&gt;Node28 -->
<g id="edge35_Node000024_Node000028" class="edge">
<title>Node24&#45;&gt;Node28</title>
<g id="a_edge35_Node000024_Node000028"><a xlink:title=" ">
<path fill="none" stroke="#63b8ff" d="M874.5,-191.27C869.86,-190.23 865.22,-189.2 860.75,-188.25 778.4,-170.67 757.19,-169.4 674.75,-152.25 670.48,-151.36 666.06,-150.42 661.63,-149.46"/>
<polygon fill="#63b8ff" stroke="#63b8ff" points="662.65,-146.1 652.14,-147.39 661.16,-152.94 662.65,-146.1"/>
</a>
</g>
</g>
<!-- Node24&#45;&gt;Node36 -->
<g id="edge46_Node000024_Node000036" class="edge">
<title>Node24&#45;&gt;Node36</title>
<g id="a_edge46_Node000024_Node000036"><a xlink:title=" ">
<path fill="none" stroke="#63b8ff" d="M944.67,-187.86C958.23,-179.2 975.61,-168.1 990.54,-158.57"/>
<polygon fill="#63b8ff" stroke="#63b8ff" points="992.1,-161.72 998.65,-153.39 988.33,-155.83 992.1,-161.72"/>
</a>
</g>
</g>
<!-- Node37 -->
<g id="Node000037" class="node">
<title>Node37</title>
<g id="a_Node000037"><a xlink:href="_struct_2_i_r_2_types_8h_8inc.html" target="_top" xlink:title=" ">
<polygon fill="white" stroke="#666666" points="777.75,-152.25 683.75,-152.25 683.75,-121.75 777.75,-121.75 777.75,-152.25"/>
<text text-anchor="start" x="691.75" y="-138.75" font-family="Helvetica,sans-Serif" font-size="10.00">llzk/Dialect/Struct</text>
<text text-anchor="middle" x="730.75" y="-127.5" font-family="Helvetica,sans-Serif" font-size="10.00">/IR/Types.h.inc</text>
</a>
</g>
</g>
<!-- Node24&#45;&gt;Node37 -->
<g id="edge47_Node000024_Node000037" class="edge">
<title>Node24&#45;&gt;Node37</title>
<g id="a_edge47_Node000024_Node000037"><a xlink:title=" ">
<path fill="none" stroke="#63b8ff" d="M878.41,-187.86C850.67,-178.5 814.46,-166.27 784.84,-156.26"/>
<polygon fill="#63b8ff" stroke="#63b8ff" points="786.28,-153.06 775.68,-153.17 784.04,-159.69 786.28,-153.06"/>
</a>
</g>
</g>
<!-- Node25&#45;&gt;Node10 -->
<g id="edge31_Node000025_Node000010" class="edge">
<title>Node25&#45;&gt;Node10</title>
<g id="a_edge31_Node000025_Node000010"><a xlink:title=" ">
<path fill="none" stroke="#63b8ff" d="M937.3,-126.92C946.93,-125.02 957.17,-123.17 966.75,-121.75 1132.82,-97.2 1177.24,-113.85 1342.75,-85.75 1347.11,-85.01 1351.63,-84.12 1356.13,-83.15"/>
<polygon fill="#63b8ff" stroke="#63b8ff" points="1356.74,-86.6 1365.71,-80.96 1355.18,-79.78 1356.74,-86.6"/>
</a>
</g>
</g>
<!-- Node25&#45;&gt;Node21 -->
<g id="edge30_Node000025_Node000021" class="edge">
<title>Node25&#45;&gt;Node21</title>
<g id="a_edge30_Node000025_Node000021"><a xlink:title=" ">
<path fill="none" stroke="#63b8ff" d="M928.36,-126.9C968.94,-115.56 1038.39,-96.17 1083.42,-83.6"/>
<polygon fill="#63b8ff" stroke="#63b8ff" points="1084.16,-87.03 1092.85,-80.97 1082.28,-80.28 1084.16,-87.03"/>
</a>
</g>
</g>
<!-- Node25&#45;&gt;Node23 -->
<g id="edge33_Node000025_Node000023" class="edge">
<title>Node25&#45;&gt;Node23</title>
<g id="a_edge33_Node000025_Node000023"><a xlink:title=" ">
<path fill="none" stroke="#63b8ff" d="M882.96,-127.03C868.28,-116.74 843.94,-99.68 826.11,-87.18"/>
<polygon fill="#63b8ff" stroke="#63b8ff" points="828.17,-84.34 817.97,-81.47 824.15,-90.08 828.17,-84.34"/>
</a>
</g>
</g>
<!-- Node26 -->
<g id="Node000026" class="node">
<title>Node26</title>
<g id="a_Node000026"><a xlink:title=" ">
<polygon fill="#e0e0e0" stroke="#999999" points="1055.75,-80.12 937.75,-80.12 937.75,-60.88 1055.75,-60.88 1055.75,-80.12"/>
<text text-anchor="middle" x="996.75" y="-66.62" font-family="Helvetica,sans-Serif" font-size="10.00">mlir/IR/OwningOpRef.h</text>
</a>
</g>
</g>
<!-- Node25&#45;&gt;Node26 -->
<g id="edge32_Node000025_Node000026" class="edge">
<title>Node25&#45;&gt;Node26</title>
<g id="a_edge32_Node000025_Node000026"><a xlink:title=" ">
<path fill="none" stroke="#63b8ff" d="M909.79,-127.03C926.13,-116.6 953.38,-99.2 973.02,-86.65"/>
<polygon fill="#63b8ff" stroke="#63b8ff" points="974.68,-89.75 981.22,-81.41 970.91,-83.85 974.68,-89.75"/>
</a>
</g>
</g>
<!-- Node27 -->
<g id="Node000027" class="node">
<title>Node27</title>
<g id="a_Node000027"><a xlink:title=" ">
<polygon fill="#e0e0e0" stroke="#999999" points="919.25,-80.12 876.25,-80.12 876.25,-60.88 919.25,-60.88 919.25,-80.12"/>
<text text-anchor="middle" x="897.75" y="-66.62" font-family="Helvetica,sans-Serif" font-size="10.00">vector</text>
</a>
</g>
</g>
<!-- Node25&#45;&gt;Node27 -->
<g id="edge34_Node000025_Node000027" class="edge">
<title>Node25&#45;&gt;Node27</title>
<g id="a_edge34_Node000025_Node000027"><a xlink:title=" ">
<path fill="none" stroke="#63b8ff" d="M896.03,-127.03C896.31,-117.98 896.75,-103.7 897.12,-91.88"/>
<polygon fill="#63b8ff" stroke="#63b8ff" points="900.62,-92.01 897.43,-81.91 893.62,-91.79 900.62,-92.01"/>
</a>
</g>
</g>
<!-- Node28&#45;&gt;Node10 -->
<g id="edge41_Node000028_Node000010" class="edge">
<title>Node28&#45;&gt;Node10</title>
<g id="a_edge41_Node000028_Node000010"><a xlink:title=" ">
<path fill="none" stroke="#63b8ff" d="M646.78,-126.89C655.85,-124.89 665.62,-123 674.75,-121.75 969.31,-81.3 1048.65,-129.41 1342.75,-85.75 1347.48,-85.05 1352.39,-84.14 1357.26,-83.11"/>
<polygon fill="#63b8ff" stroke="#63b8ff" points="1357.99,-86.53 1366.97,-80.91 1356.44,-79.71 1357.99,-86.53"/>
</a>
</g>
</g>
<!-- Node28&#45;&gt;Node18 -->
<g id="edge40_Node000028_Node000018" class="edge">
<title>Node28&#45;&gt;Node18</title>
<g id="a_edge40_Node000028_Node000018"><a xlink:title=" ">
<path fill="none" stroke="#63b8ff" d="M647.13,-126.91C656.11,-124.94 665.74,-123.06 674.75,-121.75 901.37,-88.77 961.57,-114.63 1188.75,-85.75 1195.74,-84.86 1203.06,-83.75 1210.28,-82.54"/>
<polygon fill="#63b8ff" stroke="#63b8ff" points="1210.76,-86.01 1220.01,-80.83 1209.56,-79.11 1210.76,-86.01"/>
</a>
</g>
</g>
<!-- Node28&#45;&gt;Node23 -->
<g id="edge45_Node000028_Node000023" class="edge">
<title>Node28&#45;&gt;Node23</title>
<g id="a_edge45_Node000028_Node000023"><a xlink:title=" ">
<path fill="none" stroke="#63b8ff" d="M637.99,-126.9C671.47,-115.71 728.45,-96.66 766.1,-84.08"/>
<polygon fill="#63b8ff" stroke="#63b8ff" points="766.84,-87.53 775.21,-81.04 764.62,-80.89 766.84,-87.53"/>
</a>
</g>
</g>
<!-- Node29 -->
<g id="Node000029" class="node">
<title>Node29</title>
<g id="a_Node000029"><a xlink:href="_error_helper_8h.html" target="_top" xlink:title=" ">
<polygon fill="white" stroke="#666666" points="474.25,-80.12 365.25,-80.12 365.25,-60.88 474.25,-60.88 474.25,-80.12"/>
<text text-anchor="middle" x="419.75" y="-66.62" font-family="Helvetica,sans-Serif" font-size="10.00">llzk/Util/ErrorHelper.h</text>
</a>
</g>
</g>
<!-- Node28&#45;&gt;Node29 -->
<g id="edge36_Node000028_Node000029" class="edge">
<title>Node28&#45;&gt;Node29</title>
<g id="a_edge36_Node000028_Node000029"><a xlink:title=" ">
<path fill="none" stroke="#63b8ff" d="M583.79,-126.9C550.66,-115.71 494.26,-96.66 457.01,-84.08"/>
<polygon fill="#63b8ff" stroke="#63b8ff" points="458.6,-80.93 448.01,-81.04 456.36,-87.56 458.6,-80.93"/>
</a>
</g>
</g>
<!-- Node33 -->
<g id="Node000033" class="node">
<title>Node33</title>
<g id="a_Node000033"><a xlink:title=" ">
<polygon fill="#e0e0e0" stroke="#999999" points="605.12,-80.12 492.38,-80.12 492.38,-60.88 605.12,-60.88 605.12,-80.12"/>
<text text-anchor="middle" x="548.75" y="-66.62" font-family="Helvetica,sans-Serif" font-size="10.00">mlir/IR/SymbolTable.h</text>
</a>
</g>
</g>
<!-- Node28&#45;&gt;Node33 -->
<g id="edge42_Node000028_Node000033" class="edge">
<title>Node28&#45;&gt;Node33</title>
<g id="a_edge42_Node000028_Node000033"><a xlink:title=" ">
<path fill="none" stroke="#63b8ff" d="M602.13,-127.03C592.6,-117.12 577.02,-100.91 565.15,-88.56"/>
<polygon fill="#63b8ff" stroke="#63b8ff" points="567.8,-86.27 558.35,-81.48 562.75,-91.12 567.8,-86.27"/>
</a>
</g>
</g>
<!-- Node34 -->
<g id="Node000034" class="node">
<title>Node34</title>
<g id="a_Node000034"><a xlink:title=" ">
<polygon fill="#e0e0e0" stroke="#999999" points="730.5,-80.12 623,-80.12 623,-60.88 730.5,-60.88 730.5,-80.12"/>
<text text-anchor="middle" x="676.75" y="-66.62" font-family="Helvetica,sans-Serif" font-size="10.00">llvm/ADT/ArrayRef.h</text>
</a>
</g>
</g>
<!-- Node28&#45;&gt;Node34 -->
<g id="edge43_Node000028_Node000034" class="edge">
<title>Node28&#45;&gt;Node34</title>
<g id="a_edge43_Node000028_Node000034"><a xlink:title=" ">
<path fill="none" stroke="#63b8ff" d="M619.93,-127.03C630.17,-117.02 646.98,-100.6 659.66,-88.2"/>
<polygon fill="#63b8ff" stroke="#63b8ff" points="661.86,-90.94 666.57,-81.45 656.97,-85.94 661.86,-90.94"/>
</a>
</g>
</g>
<!-- Node35 -->
<g id="Node000035" class="node">
<title>Node35</title>
<g id="a_Node000035"><a xlink:title=" ">
<polygon fill="#e0e0e0" stroke="#999999" points="347.62,-80.12 231.88,-80.12 231.88,-60.88 347.62,-60.88 347.62,-80.12"/>
<text text-anchor="middle" x="289.75" y="-66.62" font-family="Helvetica,sans-Serif" font-size="10.00">llvm/ADT/DenseMap.h</text>
</a>
</g>
</g>
<!-- Node28&#45;&gt;Node35 -->
<g id="edge44_Node000028_Node000035" class="edge">
<title>Node28&#45;&gt;Node35</title>
<g id="a_edge44_Node000028_Node000035"><a xlink:title=" ">
<path fill="none" stroke="#63b8ff" d="M563.23,-126.9C511.98,-117.03 428,-100.67 355.75,-85.75 351.42,-84.86 346.93,-83.92 342.42,-82.96"/>
<polygon fill="#63b8ff" stroke="#63b8ff" points="343.26,-79.56 332.75,-80.9 341.8,-86.41 343.26,-79.56"/>
</a>
</g>
</g>
<!-- Node30 -->
<g id="Node000030" class="node">
<title>Node30</title>
<g id="a_Node000030"><a xlink:title=" ">
<polygon fill="#e0e0e0" stroke="#999999" points="354.75,-19.25 194.75,-19.25 194.75,0 354.75,0 354.75,-19.25"/>
<text text-anchor="middle" x="274.75" y="-5.75" font-family="Helvetica,sans-Serif" font-size="10.00">llvm/ADT/STLFunctionalExtras.h</text>
</a>
</g>
</g>
<!-- Node29&#45;&gt;Node30 -->
<g id="edge37_Node000029_Node000030" class="edge">
<title>Node29&#45;&gt;Node30</title>
<g id="a_edge37_Node000029_Node000030"><a xlink:title=" ">
<path fill="none" stroke="#63b8ff" d="M397.41,-60.43C373.39,-50.68 334.97,-35.08 307.53,-23.93"/>
<polygon fill="#63b8ff" stroke="#63b8ff" points="308.86,-20.7 298.28,-20.18 306.23,-27.18 308.86,-20.7"/>
</a>
</g>
</g>
<!-- Node31 -->
<g id="Node000031" class="node">
<title>Node31</title>
<g id="a_Node000031"><a xlink:title=" ">
<polygon fill="#e0e0e0" stroke="#999999" points="466.75,-19.25 372.75,-19.25 372.75,0 466.75,0 466.75,-19.25"/>
<text text-anchor="middle" x="419.75" y="-5.75" font-family="Helvetica,sans-Serif" font-size="10.00">llvm/ADT/Twine.h</text>
</a>
</g>
</g>
<!-- Node29&#45;&gt;Node31 -->
<g id="edge38_Node000029_Node000031" class="edge">
<title>Node29&#45;&gt;Node31</title>
<g id="a_edge38_Node000029_Node000031"><a xlink:title=" ">
<path fill="none" stroke="#63b8ff" d="M419.75,-60.56C419.75,-52.78 419.75,-41.2 419.75,-31.16"/>
<polygon fill="#63b8ff" stroke="#63b8ff" points="423.25,-31.16 419.75,-21.16 416.25,-31.16 423.25,-31.16"/>
</a>
</g>
</g>
<!-- Node32 -->
<g id="Node000032" class="node">
<title>Node32</title>
<g id="a_Node000032"><a xlink:title=" ">
<polygon fill="#e0e0e0" stroke="#999999" points="626.38,-19.25 485.12,-19.25 485.12,0 626.38,0 626.38,-19.25"/>
<text text-anchor="middle" x="555.75" y="-5.75" font-family="Helvetica,sans-Serif" font-size="10.00">llvm/Support/ErrorHandling.h</text>
</a>
</g>
</g>
<!-- Node29&#45;&gt;Node32 -->
<g id="edge39_Node000029_Node000032" class="edge">
<title>Node29&#45;&gt;Node32</title>
<g id="a_edge39_Node000029_Node000032"><a xlink:title=" ">
<path fill="none" stroke="#63b8ff" d="M440.7,-60.43C463.13,-50.72 498.95,-35.21 524.66,-24.08"/>
<polygon fill="#63b8ff" stroke="#63b8ff" points="525.82,-27.39 533.61,-20.21 523.04,-20.97 525.82,-27.39"/>
</a>
</g>
</g>
</g>
</svg>
