<?xml version="1.0" encoding="UTF-8" standalone="no"?>
<!DOCTYPE svg PUBLIC "-//W3C//DTD SVG 1.1//EN"
 "http://www.w3.org/Graphics/SVG/1.1/DTD/svg11.dtd">
<!-- Generated by graphviz version 12.2.1 (0)
 -->
<!-- Title: lib/Dialect/String/IR/Dialect.cpp Pages: 1 -->
<svg width="1040pt" height="305pt"
 viewBox="0.00 0.00 1040.25 304.50" xmlns="http://www.w3.org/2000/svg" xmlns:xlink="http://www.w3.org/1999/xlink">
<g id="graph0" class="graph" transform="scale(1 1) rotate(0) translate(4 300.5)">
<title>lib/Dialect/String/IR/Dialect.cpp</title>
<!-- Node1 -->
<g id="Node000001" class="node">
<title>Node1</title>
<g id="a_Node000001"><a xlink:title=" ">
<polygon fill="#999999" stroke="#666666" points="522.62,-296.5 434.62,-296.5 434.62,-266 522.62,-266 522.62,-296.5"/>
<text text-anchor="start" x="442.62" y="-283" font-family="Helvetica,sans-Serif" font-size="10.00">lib/Dialect/String</text>
<text text-anchor="middle" x="478.62" y="-271.75" font-family="Helvetica,sans-Serif" font-size="10.00">/IR/Dialect.cpp</text>
</a>
</g>
</g>
<!-- Node2 -->
<g id="Node000002" class="node">
<title>Node2</title>
<g id="a_Node000002"><a xlink:href="_versioning_8h.html" target="_top" xlink:title=" ">
<polygon fill="white" stroke="#666666" points="172.88,-230 68.38,-230 68.38,-199.5 172.88,-199.5 172.88,-230"/>
<text text-anchor="start" x="76.38" y="-216.5" font-family="Helvetica,sans-Serif" font-size="10.00">llzk/Dialect/LLZK/IR</text>
<text text-anchor="middle" x="120.62" y="-205.25" font-family="Helvetica,sans-Serif" font-size="10.00">/Versioning.h</text>
</a>
</g>
</g>
<!-- Node1&#45;&gt;Node2 -->
<g id="edge1_Node000001_Node000002" class="edge">
<title>Node1&#45;&gt;Node2</title>
<g id="a_edge1_Node000001_Node000002"><a xlink:title=" ">
<path fill="none" stroke="#63b8ff" d="M434.37,-272.28C371.59,-260.97 256.35,-240.2 184.36,-227.23"/>
<polygon fill="#63b8ff" stroke="#63b8ff" points="185.15,-223.82 174.69,-225.49 183.91,-230.71 185.15,-223.82"/>
</a>
</g>
</g>
<!-- Node4 -->
<g id="Node000004" class="node">
<title>Node4</title>
<g id="a_Node000004"><a xlink:href="_string_2_i_r_2_dialect_8h.html" target="_top" xlink:title=" ">
<polygon fill="white" stroke="#666666" points="271.25,-97 178,-97 178,-66.5 271.25,-66.5 271.25,-97"/>
<text text-anchor="start" x="186" y="-83.5" font-family="Helvetica,sans-Serif" font-size="10.00">llzk/Dialect/String</text>
<text text-anchor="middle" x="224.62" y="-72.25" font-family="Helvetica,sans-Serif" font-size="10.00">/IR/Dialect.h</text>
</a>
</g>
</g>
<!-- Node1&#45;&gt;Node4 -->
<g id="edge3_Node000001_Node000004" class="edge">
<title>Node1&#45;&gt;Node4</title>
<g id="a_edge3_Node000001_Node000004"><a xlink:title=" ">
<path fill="none" stroke="#63b8ff" d="M434.37,-274.64C380.84,-267 294.96,-251.74 271.62,-230 237.5,-198.21 228.05,-141.72 225.5,-108.71"/>
<polygon fill="#63b8ff" stroke="#63b8ff" points="228.99,-108.6 224.91,-98.83 222.01,-109.02 228.99,-108.6"/>
</a>
</g>
</g>
<!-- Node7 -->
<g id="Node000007" class="node">
<title>Node7</title>
<g id="a_Node000007"><a xlink:href="_string_2_i_r_2_ops_8h.html" target="_top" xlink:title=" ">
<polygon fill="white" stroke="#666666" points="383.25,-230 290,-230 290,-199.5 383.25,-199.5 383.25,-230"/>
<text text-anchor="start" x="298" y="-216.5" font-family="Helvetica,sans-Serif" font-size="10.00">llzk/Dialect/String</text>
<text text-anchor="middle" x="336.62" y="-205.25" font-family="Helvetica,sans-Serif" font-size="10.00">/IR/Ops.h</text>
</a>
</g>
</g>
<!-- Node1&#45;&gt;Node7 -->
<g id="edge6_Node000001_Node000007" class="edge">
<title>Node1&#45;&gt;Node7</title>
<g id="a_edge6_Node000001_Node000007"><a xlink:title=" ">
<path fill="none" stroke="#63b8ff" d="M446.4,-265.61C426.43,-256.54 400.56,-244.79 378.94,-234.97"/>
<polygon fill="#63b8ff" stroke="#63b8ff" points="380.65,-231.9 370.1,-230.95 377.75,-238.28 380.65,-231.9"/>
</a>
</g>
</g>
<!-- Node8 -->
<g id="Node000008" class="node">
<title>Node8</title>
<g id="a_Node000008"><a xlink:href="_string_2_i_r_2_types_8h.html" target="_top" xlink:title=" ">
<polygon fill="white" stroke="#666666" points="383.25,-163.5 290,-163.5 290,-133 383.25,-133 383.25,-163.5"/>
<text text-anchor="start" x="298" y="-150" font-family="Helvetica,sans-Serif" font-size="10.00">llzk/Dialect/String</text>
<text text-anchor="middle" x="336.62" y="-138.75" font-family="Helvetica,sans-Serif" font-size="10.00">/IR/Types.h</text>
</a>
</g>
</g>
<!-- Node1&#45;&gt;Node8 -->
<g id="edge13_Node000001_Node000008" class="edge">
<title>Node1&#45;&gt;Node8</title>
<g id="a_edge13_Node000001_Node000008"><a xlink:title=" ">
<path fill="none" stroke="#63b8ff" d="M434.25,-275.29C381.81,-268.4 299.3,-254 280.62,-230 265.48,-210.53 285.31,-187.29 305.44,-170.75"/>
<polygon fill="#63b8ff" stroke="#63b8ff" points="307.33,-173.71 313.08,-164.81 303.04,-168.18 307.33,-173.71"/>
</a>
</g>
</g>
<!-- Node11 -->
<g id="Node000011" class="node">
<title>Node11</title>
<g id="a_Node000011"><a xlink:title=" ">
<polygon fill="#e0e0e0" stroke="#999999" points="555.62,-224.38 401.62,-224.38 401.62,-205.12 555.62,-205.12 555.62,-224.38"/>
<text text-anchor="middle" x="478.62" y="-210.88" font-family="Helvetica,sans-Serif" font-size="10.00">mlir/IR/DialectImplementation.h</text>
</a>
</g>
</g>
<!-- Node1&#45;&gt;Node11 -->
<g id="edge14_Node000001_Node000011" class="edge">
<title>Node1&#45;&gt;Node11</title>
<g id="a_edge14_Node000001_Node000011"><a xlink:title=" ">
<path fill="none" stroke="#63b8ff" d="M478.62,-265.61C478.62,-256.83 478.62,-245.52 478.62,-235.9"/>
<polygon fill="#63b8ff" stroke="#63b8ff" points="482.13,-236.09 478.63,-226.09 475.13,-236.09 482.13,-236.09"/>
</a>
</g>
</g>
<!-- Node12 -->
<g id="Node000012" class="node">
<title>Node12</title>
<g id="a_Node000012"><a xlink:title=" ">
<polygon fill="#e0e0e0" stroke="#999999" points="693.38,-224.38 573.88,-224.38 573.88,-205.12 693.38,-205.12 693.38,-224.38"/>
<text text-anchor="middle" x="633.62" y="-210.88" font-family="Helvetica,sans-Serif" font-size="10.00">llvm/ADT/TypeSwitch.h</text>
</a>
</g>
</g>
<!-- Node1&#45;&gt;Node12 -->
<g id="edge15_Node000001_Node000012" class="edge">
<title>Node1&#45;&gt;Node12</title>
<g id="a_edge15_Node000001_Node000012"><a xlink:title=" ">
<path fill="none" stroke="#63b8ff" d="M513.8,-265.61C540.1,-254.67 575.77,-239.82 601.35,-229.18"/>
<polygon fill="#63b8ff" stroke="#63b8ff" points="602.69,-232.41 610.58,-225.34 600,-225.95 602.69,-232.41"/>
</a>
</g>
</g>
<!-- Node13 -->
<g id="Node000013" class="node">
<title>Node13</title>
<g id="a_Node000013"><a xlink:href="_string_2_i_r_2_dialect_8cpp_8inc.html" target="_top" xlink:title=" ">
<polygon fill="white" stroke="#666666" points="809.5,-230 711.75,-230 711.75,-199.5 809.5,-199.5 809.5,-230"/>
<text text-anchor="start" x="719.75" y="-216.5" font-family="Helvetica,sans-Serif" font-size="10.00">llzk/Dialect/String</text>
<text text-anchor="middle" x="760.62" y="-205.25" font-family="Helvetica,sans-Serif" font-size="10.00">/IR/Dialect.cpp.inc</text>
</a>
</g>
</g>
<!-- Node1&#45;&gt;Node13 -->
<g id="edge16_Node000001_Node000013" class="edge">
<title>Node1&#45;&gt;Node13</title>
<g id="a_edge16_Node000001_Node000013"><a xlink:title=" ">
<path fill="none" stroke="#63b8ff" d="M522.89,-270.6C565.82,-261.17 633.09,-246.25 700.47,-230.48"/>
<polygon fill="#63b8ff" stroke="#63b8ff" points="700.87,-233.98 709.81,-228.29 699.27,-227.17 700.87,-233.98"/>
</a>
</g>
</g>
<!-- Node14 -->
<g id="Node000014" class="node">
<title>Node14</title>
<g id="a_Node000014"><a xlink:href="_string_2_i_r_2_types_8cpp_8inc.html" target="_top" xlink:title=" ">
<polygon fill="white" stroke="#666666" points="921.25,-230 828,-230 828,-199.5 921.25,-199.5 921.25,-230"/>
<text text-anchor="start" x="836" y="-216.5" font-family="Helvetica,sans-Serif" font-size="10.00">llzk/Dialect/String</text>
<text text-anchor="middle" x="874.62" y="-205.25" font-family="Helvetica,sans-Serif" font-size="10.00">/IR/Types.cpp.inc</text>
</a>
</g>
</g>
<!-- Node1&#45;&gt;Node14 -->
<g id="edge17_Node000001_Node000014" class="edge">
<title>Node1&#45;&gt;Node14</title>
<g id="a_edge17_Node000001_Node000014"><a xlink:title=" ">
<path fill="none" stroke="#63b8ff" d="M522.89,-275.18C585.91,-267.64 705.3,-252.16 816.57,-230.28"/>
<polygon fill="#63b8ff" stroke="#63b8ff" points="817.04,-233.76 826.17,-228.37 815.68,-226.89 817.04,-233.76"/>
</a>
</g>
</g>
<!-- Node15 -->
<g id="Node000015" class="node">
<title>Node15</title>
<g id="a_Node000015"><a xlink:href="_string_2_i_r_2_ops_8cpp_8inc.html" target="_top" xlink:title=" ">
<polygon fill="white" stroke="#666666" points="1032.25,-230 939,-230 939,-199.5 1032.25,-199.5 1032.25,-230"/>
<text text-anchor="start" x="947" y="-216.5" font-family="Helvetica,sans-Serif" font-size="10.00">llzk/Dialect/String</text>
<text text-anchor="middle" x="985.62" y="-205.25" font-family="Helvetica,sans-Serif" font-size="10.00">/IR/Ops.cpp.inc</text>
</a>
</g>
</g>
<!-- Node1&#45;&gt;Node15 -->
<g id="edge18_Node000001_Node000015" class="edge">
<title>Node1&#45;&gt;Node15</title>
<g id="a_edge18_Node000001_Node000015"><a xlink:title=" ">
<path fill="none" stroke="#63b8ff" d="M522.88,-277.44C602.26,-271.94 774.2,-257.95 927.61,-230.41"/>
<polygon fill="#63b8ff" stroke="#63b8ff" points="927.92,-233.91 937.13,-228.67 926.66,-227.02 927.92,-233.91"/>
</a>
</g>
</g>
<!-- Node3 -->
<g id="Node000003" class="node">
<title>Node3</title>
<g id="a_Node000003"><a xlink:title=" ">
<polygon fill="#e0e0e0" stroke="#999999" points="195.25,-157.88 0,-157.88 0,-138.62 195.25,-138.62 195.25,-157.88"/>
<text text-anchor="middle" x="97.62" y="-144.38" font-family="Helvetica,sans-Serif" font-size="10.00">mlir/Bytecode/BytecodeImplementation.h</text>
</a>
</g>
</g>
<!-- Node2&#45;&gt;Node3 -->
<g id="edge2_Node000002_Node000003" class="edge">
<title>Node2&#45;&gt;Node3</title>
<g id="a_edge2_Node000002_Node000003"><a xlink:title=" ">
<path fill="none" stroke="#63b8ff" d="M115.41,-199.11C112.2,-190.13 108.06,-178.51 104.58,-168.76"/>
<polygon fill="#63b8ff" stroke="#63b8ff" points="107.93,-167.74 101.28,-159.5 101.34,-170.09 107.93,-167.74"/>
</a>
</g>
</g>
<!-- Node5 -->
<g id="Node000005" class="node">
<title>Node5</title>
<g id="a_Node000005"><a xlink:title=" ">
<polygon fill="#e0e0e0" stroke="#999999" points="218.38,-24.88 116.88,-24.88 116.88,-5.63 218.38,-5.63 218.38,-24.88"/>
<text text-anchor="middle" x="167.62" y="-11.38" font-family="Helvetica,sans-Serif" font-size="10.00">mlir/IR/BuiltinOps.h</text>
</a>
</g>
</g>
<!-- Node4&#45;&gt;Node5 -->
<g id="edge4_Node000004_Node000005" class="edge">
<title>Node4&#45;&gt;Node5</title>
<g id="a_edge4_Node000004_Node000005"><a xlink:title=" ">
<path fill="none" stroke="#63b8ff" d="M211.69,-66.11C203.14,-56.44 191.89,-43.71 182.9,-33.54"/>
<polygon fill="#63b8ff" stroke="#63b8ff" points="185.67,-31.38 176.42,-26.21 180.42,-36.02 185.67,-31.38"/>
</a>
</g>
</g>
<!-- Node6 -->
<g id="Node000006" class="node">
<title>Node6</title>
<g id="a_Node000006"><a xlink:href="_string_2_i_r_2_dialect_8h_8inc.html" target="_top" xlink:title=" ">
<polygon fill="white" stroke="#666666" points="329.25,-30.5 236,-30.5 236,0 329.25,0 329.25,-30.5"/>
<text text-anchor="start" x="244" y="-17" font-family="Helvetica,sans-Serif" font-size="10.00">llzk/Dialect/String</text>
<text text-anchor="middle" x="282.62" y="-5.75" font-family="Helvetica,sans-Serif" font-size="10.00">/IR/Dialect.h.inc</text>
</a>
</g>
</g>
<!-- Node4&#45;&gt;Node6 -->
<g id="edge5_Node000004_Node000006" class="edge">
<title>Node4&#45;&gt;Node6</title>
<g id="a_edge5_Node000004_Node000006"><a xlink:title=" ">
<path fill="none" stroke="#63b8ff" d="M237.79,-66.11C244.91,-58.2 253.86,-48.24 261.89,-39.3"/>
<polygon fill="#63b8ff" stroke="#63b8ff" points="264.42,-41.73 268.5,-31.95 259.21,-37.05 264.42,-41.73"/>
</a>
</g>
</g>
<!-- Node7&#45;&gt;Node4 -->
<g id="edge7_Node000007_Node000004" class="edge">
<title>Node7&#45;&gt;Node4</title>
<g id="a_edge7_Node000007_Node000004"><a xlink:title=" ">
<path fill="none" stroke="#63b8ff" d="M318.22,-199.12C306.78,-189.58 292.12,-176.53 280.62,-163.5 265.02,-145.81 249.93,-123.66 239.35,-107.04"/>
<polygon fill="#63b8ff" stroke="#63b8ff" points="242.46,-105.41 234.19,-98.78 236.52,-109.12 242.46,-105.41"/>
</a>
</g>
</g>
<!-- Node7&#45;&gt;Node8 -->
<g id="edge8_Node000007_Node000008" class="edge">
<title>Node7&#45;&gt;Node8</title>
<g id="a_edge8_Node000007_Node000008"><a xlink:title=" ">
<path fill="none" stroke="#63b8ff" d="M336.62,-199.11C336.62,-192.02 336.62,-183.29 336.62,-175.13"/>
<polygon fill="#63b8ff" stroke="#63b8ff" points="340.13,-175.34 336.63,-165.34 333.13,-175.34 340.13,-175.34"/>
</a>
</g>
</g>
<!-- Node9 -->
<g id="Node000009" class="node">
<title>Node9</title>
<g id="a_Node000009"><a xlink:href="_string_2_i_r_2_ops_8h_8inc.html" target="_top" xlink:title=" ">
<polygon fill="white" stroke="#666666" points="493.25,-97 400,-97 400,-66.5 493.25,-66.5 493.25,-97"/>
<text text-anchor="start" x="408" y="-83.5" font-family="Helvetica,sans-Serif" font-size="10.00">llzk/Dialect/String</text>
<text text-anchor="middle" x="446.62" y="-72.25" font-family="Helvetica,sans-Serif" font-size="10.00">/IR/Ops.h.inc</text>
</a>
</g>
</g>
<!-- Node7&#45;&gt;Node9 -->
<g id="edge12_Node000007_Node000009" class="edge">
<title>Node7&#45;&gt;Node9</title>
<g id="a_edge12_Node000007_Node000009"><a xlink:title=" ">
<path fill="none" stroke="#63b8ff" d="M355.1,-199.19C366.57,-189.68 381.24,-176.62 392.62,-163.5 408,-145.77 422.61,-123.47 432.75,-106.79"/>
<polygon fill="#63b8ff" stroke="#63b8ff" points="435.56,-108.91 437.67,-98.53 429.55,-105.32 435.56,-108.91"/>
</a>
</g>
</g>
<!-- Node8&#45;&gt;Node4 -->
<g id="edge9_Node000008_Node000004" class="edge">
<title>Node8&#45;&gt;Node4</title>
<g id="a_edge9_Node000008_Node000004"><a xlink:title=" ">
<path fill="none" stroke="#63b8ff" d="M311.21,-132.61C296.03,-123.87 276.53,-112.64 259.87,-103.05"/>
<polygon fill="#63b8ff" stroke="#63b8ff" points="261.66,-100.04 251.25,-98.08 258.17,-106.11 261.66,-100.04"/>
</a>
</g>
</g>
<!-- Node8&#45;&gt;Node9 -->
<g id="edge10_Node000008_Node000009" class="edge">
<title>Node8&#45;&gt;Node9</title>
<g id="a_edge10_Node000008_Node000009"><a xlink:title=" ">
<path fill="none" stroke="#63b8ff" d="M361.59,-132.61C376.49,-123.87 395.65,-112.64 412,-103.05"/>
<polygon fill="#63b8ff" stroke="#63b8ff" points="413.6,-106.17 420.46,-98.09 410.06,-100.13 413.6,-106.17"/>
</a>
</g>
</g>
<!-- Node10 -->
<g id="Node000010" class="node">
<title>Node10</title>
<g id="a_Node000010"><a xlink:href="_string_2_i_r_2_types_8h_8inc.html" target="_top" xlink:title=" ">
<polygon fill="white" stroke="#666666" points="382.25,-97 289,-97 289,-66.5 382.25,-66.5 382.25,-97"/>
<text text-anchor="start" x="297" y="-83.5" font-family="Helvetica,sans-Serif" font-size="10.00">llzk/Dialect/String</text>
<text text-anchor="middle" x="335.62" y="-72.25" font-family="Helvetica,sans-Serif" font-size="10.00">/IR/Types.h.inc</text>
</a>
</g>
</g>
<!-- Node8&#45;&gt;Node10 -->
<g id="edge11_Node000008_Node000010" class="edge">
<title>Node8&#45;&gt;Node10</title>
<g id="a_edge11_Node000008_Node000010"><a xlink:title=" ">
<path fill="none" stroke="#63b8ff" d="M336.4,-132.61C336.29,-125.52 336.15,-116.79 336.03,-108.63"/>
<polygon fill="#63b8ff" stroke="#63b8ff" points="339.53,-108.79 335.87,-98.84 332.53,-108.89 339.53,-108.79"/>
</a>
</g>
</g>
</g>
</svg>
