<?xml version="1.0" encoding="UTF-8" standalone="no"?>
<!DOCTYPE svg PUBLIC "-//W3C//DTD SVG 1.1//EN"
 "http://www.w3.org/Graphics/SVG/1.1/DTD/svg11.dtd">
<!-- Generated by graphviz version 12.2.1 (0)
 -->
<!-- Title: include/llzk/Util/SymbolLookup.h Pages: 1 -->
<svg width="554pt" height="94pt"
 viewBox="0.00 0.00 554.12 93.75" xmlns="http://www.w3.org/2000/svg" xmlns:xlink="http://www.w3.org/1999/xlink">
<g id="graph0" class="graph" transform="scale(1 1) rotate(0) translate(4 89.75)">
<title>include/llzk/Util/SymbolLookup.h</title>
<!-- Node1 -->
<g id="Node000001" class="node">
<title>Node1</title>
<g id="a_Node000001"><a xlink:title="This file defines methods symbol lookup across LLZK operations and included files.">
<polygon fill="#999999" stroke="#666666" points="358,-85.75 239.25,-85.75 239.25,-55.25 358,-55.25 358,-85.75"/>
<text text-anchor="start" x="247.25" y="-72.25" font-family="Helvetica,sans-Serif" font-size="10.00">include/llzk/Util/Symbol</text>
<text text-anchor="middle" x="298.62" y="-61" font-family="Helvetica,sans-Serif" font-size="10.00">Lookup.h</text>
</a>
</g>
</g>
<!-- Node2 -->
<g id="Node000002" class="node">
<title>Node2</title>
<g id="a_Node000002"><a xlink:href="_constants_8h.html" target="_top" xlink:title=" ">
<polygon fill="white" stroke="#666666" points="105.25,-19.25 0,-19.25 0,0 105.25,0 105.25,-19.25"/>
<text text-anchor="middle" x="52.62" y="-5.75" font-family="Helvetica,sans-Serif" font-size="10.00">llzk/Util/Constants.h</text>
</a>
</g>
</g>
<!-- Node1&#45;&gt;Node2 -->
<g id="edge1_Node000001_Node000002" class="edge">
<title>Node1&#45;&gt;Node2</title>
<g id="a_edge1_Node000001_Node000002"><a xlink:title=" ">
<path fill="none" stroke="#63b8ff" d="M238.76,-55.17C196.69,-45.1 141.1,-31.8 101.66,-22.36"/>
<polygon fill="#63b8ff" stroke="#63b8ff" points="102.49,-18.96 91.95,-20.04 100.86,-25.77 102.49,-18.96"/>
</a>
</g>
</g>
<!-- Node3 -->
<g id="Node000003" class="node">
<title>Node3</title>
<g id="a_Node000003"><a xlink:title=" ">
<polygon fill="#e0e0e0" stroke="#999999" points="221.88,-19.25 123.38,-19.25 123.38,0 221.88,0 221.88,-19.25"/>
<text text-anchor="middle" x="172.62" y="-5.75" font-family="Helvetica,sans-Serif" font-size="10.00">mlir/IR/Operation.h</text>
</a>
</g>
</g>
<!-- Node1&#45;&gt;Node3 -->
<g id="edge2_Node000001_Node000003" class="edge">
<title>Node1&#45;&gt;Node3</title>
<g id="a_edge2_Node000001_Node000003"><a xlink:title=" ">
<path fill="none" stroke="#63b8ff" d="M267.15,-54.8C247.32,-45.53 221.87,-33.63 202.37,-24.52"/>
<polygon fill="#63b8ff" stroke="#63b8ff" points="203.86,-21.36 193.32,-20.29 200.9,-27.7 203.86,-21.36"/>
</a>
</g>
</g>
<!-- Node4 -->
<g id="Node000004" class="node">
<title>Node4</title>
<g id="a_Node000004"><a xlink:title=" ">
<polygon fill="#e0e0e0" stroke="#999999" points="357.62,-19.25 239.62,-19.25 239.62,0 357.62,0 357.62,-19.25"/>
<text text-anchor="middle" x="298.62" y="-5.75" font-family="Helvetica,sans-Serif" font-size="10.00">mlir/IR/OwningOpRef.h</text>
</a>
</g>
</g>
<!-- Node1&#45;&gt;Node4 -->
<g id="edge3_Node000001_Node000004" class="edge">
<title>Node1&#45;&gt;Node4</title>
<g id="a_edge3_Node000001_Node000004"><a xlink:title=" ">
<path fill="none" stroke="#63b8ff" d="M298.62,-54.95C298.62,-47.71 298.62,-38.84 298.62,-30.94"/>
<polygon fill="#63b8ff" stroke="#63b8ff" points="302.13,-31.21 298.63,-21.21 295.13,-31.21 302.13,-31.21"/>
</a>
</g>
</g>
<!-- Node5 -->
<g id="Node000005" class="node">
<title>Node5</title>
<g id="a_Node000005"><a xlink:title=" ">
<polygon fill="#e0e0e0" stroke="#999999" points="485.5,-19.25 375.75,-19.25 375.75,0 485.5,0 485.5,-19.25"/>
<text text-anchor="middle" x="430.62" y="-5.75" font-family="Helvetica,sans-Serif" font-size="10.00">llvm/ADT/StringRef.h</text>
</a>
</g>
</g>
<!-- Node1&#45;&gt;Node5 -->
<g id="edge4_Node000001_Node000005" class="edge">
<title>Node1&#45;&gt;Node5</title>
<g id="a_edge4_Node000001_Node000005"><a xlink:title=" ">
<path fill="none" stroke="#63b8ff" d="M331.59,-54.8C352.57,-45.44 379.53,-33.41 400.03,-24.27"/>
<polygon fill="#63b8ff" stroke="#63b8ff" points="401.29,-27.54 409,-20.27 398.44,-21.15 401.29,-27.54"/>
</a>
</g>
</g>
<!-- Node6 -->
<g id="Node000006" class="node">
<title>Node6</title>
<g id="a_Node000006"><a xlink:title=" ">
<polygon fill="#e0e0e0" stroke="#999999" points="546.12,-19.25 503.12,-19.25 503.12,0 546.12,0 546.12,-19.25"/>
<text text-anchor="middle" x="524.62" y="-5.75" font-family="Helvetica,sans-Serif" font-size="10.00">vector</text>
</a>
</g>
</g>
<!-- Node1&#45;&gt;Node6 -->
<g id="edge5_Node000001_Node000006" class="edge">
<title>Node1&#45;&gt;Node6</title>
<g id="a_edge5_Node000001_Node000006"><a xlink:title=" ">
<path fill="none" stroke="#63b8ff" d="M357.92,-54.77C394.2,-45.65 441.81,-33.49 491.68,-20"/>
<polygon fill="#63b8ff" stroke="#63b8ff" points="492.5,-23.41 501.23,-17.41 490.66,-16.65 492.5,-23.41"/>
</a>
</g>
</g>
</g>
</svg>
