<?xml version="1.0" encoding="UTF-8" standalone="no"?>
<!DOCTYPE svg PUBLIC "-//W3C//DTD SVG 1.1//EN"
 "http://www.w3.org/Graphics/SVG/1.1/DTD/svg11.dtd">
<!-- Generated by graphviz version 12.2.1 (0)
 -->
<!-- Title: lib/Dialect/Undef/IR/Ops.cpp Pages: 1 -->
<svg width="1294pt" height="238pt"
 viewBox="0.00 0.00 1293.62 238.00" xmlns="http://www.w3.org/2000/svg" xmlns:xlink="http://www.w3.org/1999/xlink">
<g id="graph0" class="graph" transform="scale(1 1) rotate(0) translate(4 234)">
<title>lib/Dialect/Undef/IR/Ops.cpp</title>
<!-- Node1 -->
<g id="Node000001" class="node">
<title>Node1</title>
<g id="a_Node000001"><a xlink:title=" ">
<polygon fill="#999999" stroke="#666666" points="830.88,-230 728.62,-230 728.62,-199.5 830.88,-199.5 830.88,-230"/>
<text text-anchor="start" x="736.62" y="-216.5" font-family="Helvetica,sans-Serif" font-size="10.00">lib/Dialect/Undef/IR</text>
<text text-anchor="middle" x="779.75" y="-205.25" font-family="Helvetica,sans-Serif" font-size="10.00">/Ops.cpp</text>
</a>
</g>
</g>
<!-- Node2 -->
<g id="Node000002" class="node">
<title>Node2</title>
<g id="a_Node000002"><a xlink:href="_undef_2_i_r_2_ops_8h.html" target="_top" xlink:title=" ">
<polygon fill="white" stroke="#666666" points="354.75,-163.5 260.75,-163.5 260.75,-133 354.75,-133 354.75,-163.5"/>
<text text-anchor="start" x="268.75" y="-150" font-family="Helvetica,sans-Serif" font-size="10.00">llzk/Dialect/Undef</text>
<text text-anchor="middle" x="307.75" y="-138.75" font-family="Helvetica,sans-Serif" font-size="10.00">/IR/Ops.h</text>
</a>
</g>
</g>
<!-- Node1&#45;&gt;Node2 -->
<g id="edge1_Node000001_Node000002" class="edge">
<title>Node1&#45;&gt;Node2</title>
<g id="a_edge1_Node000001_Node000002"><a xlink:title=" ">
<path fill="none" stroke="#63b8ff" d="M728.34,-206.72C639.92,-194.64 459.59,-170 366.41,-157.27"/>
<polygon fill="#63b8ff" stroke="#63b8ff" points="367.1,-153.83 356.72,-155.94 366.15,-160.76 367.1,-153.83"/>
</a>
</g>
</g>
<!-- Node7 -->
<g id="Node000007" class="node">
<title>Node7</title>
<g id="a_Node000007"><a xlink:href="_type_helper_8h.html" target="_top" xlink:title=" ">
<polygon fill="white" stroke="#666666" points="834.25,-157.88 725.25,-157.88 725.25,-138.62 834.25,-138.62 834.25,-157.88"/>
<text text-anchor="middle" x="779.75" y="-144.38" font-family="Helvetica,sans-Serif" font-size="10.00">llzk/Util/TypeHelper.h</text>
</a>
</g>
</g>
<!-- Node1&#45;&gt;Node7 -->
<g id="edge6_Node000001_Node000007" class="edge">
<title>Node1&#45;&gt;Node7</title>
<g id="a_edge6_Node000001_Node000007"><a xlink:title=" ">
<path fill="none" stroke="#63b8ff" d="M779.75,-199.11C779.75,-190.33 779.75,-179.02 779.75,-169.4"/>
<polygon fill="#63b8ff" stroke="#63b8ff" points="783.25,-169.59 779.75,-159.59 776.25,-169.59 783.25,-169.59"/>
</a>
</g>
</g>
<!-- Node18 -->
<g id="Node000018" class="node">
<title>Node18</title>
<g id="a_Node000018"><a xlink:href="_undef_2_i_r_2_ops_8cpp_8inc.html" target="_top" xlink:title=" ">
<polygon fill="white" stroke="#666666" points="946.75,-163.5 852.75,-163.5 852.75,-133 946.75,-133 946.75,-163.5"/>
<text text-anchor="start" x="860.75" y="-150" font-family="Helvetica,sans-Serif" font-size="10.00">llzk/Dialect/Undef</text>
<text text-anchor="middle" x="899.75" y="-138.75" font-family="Helvetica,sans-Serif" font-size="10.00">/IR/Ops.cpp.inc</text>
</a>
</g>
</g>
<!-- Node1&#45;&gt;Node18 -->
<g id="edge17_Node000001_Node000018" class="edge">
<title>Node1&#45;&gt;Node18</title>
<g id="a_edge17_Node000001_Node000018"><a xlink:title=" ">
<path fill="none" stroke="#63b8ff" d="M806.98,-199.11C823.47,-190.25 844.73,-178.82 862.74,-169.14"/>
<polygon fill="#63b8ff" stroke="#63b8ff" points="864.14,-172.36 871.29,-164.54 860.83,-166.2 864.14,-172.36"/>
</a>
</g>
</g>
<!-- Node3 -->
<g id="Node000003" class="node">
<title>Node3</title>
<g id="a_Node000003"><a xlink:href="_undef_2_i_r_2_dialect_8h.html" target="_top" xlink:title=" ">
<polygon fill="white" stroke="#666666" points="213.75,-97 119.75,-97 119.75,-66.5 213.75,-66.5 213.75,-97"/>
<text text-anchor="start" x="127.75" y="-83.5" font-family="Helvetica,sans-Serif" font-size="10.00">llzk/Dialect/Undef</text>
<text text-anchor="middle" x="166.75" y="-72.25" font-family="Helvetica,sans-Serif" font-size="10.00">/IR/Dialect.h</text>
</a>
</g>
</g>
<!-- Node2&#45;&gt;Node3 -->
<g id="edge2_Node000002_Node000003" class="edge">
<title>Node2&#45;&gt;Node3</title>
<g id="a_edge2_Node000002_Node000003"><a xlink:title=" ">
<path fill="none" stroke="#63b8ff" d="M275.75,-132.61C256.01,-123.58 230.46,-111.9 209.06,-102.11"/>
<polygon fill="#63b8ff" stroke="#63b8ff" points="210.54,-98.93 199.99,-97.96 207.63,-105.3 210.54,-98.93"/>
</a>
</g>
</g>
<!-- Node6 -->
<g id="Node000006" class="node">
<title>Node6</title>
<g id="a_Node000006"><a xlink:href="_undef_2_i_r_2_ops_8h_8inc.html" target="_top" xlink:title=" ">
<polygon fill="white" stroke="#666666" points="354.75,-97 260.75,-97 260.75,-66.5 354.75,-66.5 354.75,-97"/>
<text text-anchor="start" x="268.75" y="-83.5" font-family="Helvetica,sans-Serif" font-size="10.00">llzk/Dialect/Undef</text>
<text text-anchor="middle" x="307.75" y="-72.25" font-family="Helvetica,sans-Serif" font-size="10.00">/IR/Ops.h.inc</text>
</a>
</g>
</g>
<!-- Node2&#45;&gt;Node6 -->
<g id="edge5_Node000002_Node000006" class="edge">
<title>Node2&#45;&gt;Node6</title>
<g id="a_edge5_Node000002_Node000006"><a xlink:title=" ">
<path fill="none" stroke="#63b8ff" d="M307.75,-132.61C307.75,-125.52 307.75,-116.79 307.75,-108.63"/>
<polygon fill="#63b8ff" stroke="#63b8ff" points="311.25,-108.84 307.75,-98.84 304.25,-108.84 311.25,-108.84"/>
</a>
</g>
</g>
<!-- Node4 -->
<g id="Node000004" class="node">
<title>Node4</title>
<g id="a_Node000004"><a xlink:title=" ">
<polygon fill="#e0e0e0" stroke="#999999" points="101.5,-24.88 0,-24.88 0,-5.63 101.5,-5.63 101.5,-24.88"/>
<text text-anchor="middle" x="50.75" y="-11.38" font-family="Helvetica,sans-Serif" font-size="10.00">mlir/IR/BuiltinOps.h</text>
</a>
</g>
</g>
<!-- Node3&#45;&gt;Node4 -->
<g id="edge3_Node000003_Node000004" class="edge">
<title>Node3&#45;&gt;Node4</title>
<g id="a_edge3_Node000003_Node000004"><a xlink:title=" ">
<path fill="none" stroke="#63b8ff" d="M140.43,-66.11C121.45,-55.56 95.95,-41.38 76.99,-30.84"/>
<polygon fill="#63b8ff" stroke="#63b8ff" points="78.72,-27.8 68.28,-26 75.32,-33.91 78.72,-27.8"/>
</a>
</g>
</g>
<!-- Node5 -->
<g id="Node000005" class="node">
<title>Node5</title>
<g id="a_Node000005"><a xlink:href="_undef_2_i_r_2_dialect_8h_8inc.html" target="_top" xlink:title=" ">
<polygon fill="white" stroke="#666666" points="213.75,-30.5 119.75,-30.5 119.75,0 213.75,0 213.75,-30.5"/>
<text text-anchor="start" x="127.75" y="-17" font-family="Helvetica,sans-Serif" font-size="10.00">llzk/Dialect/Undef</text>
<text text-anchor="middle" x="166.75" y="-5.75" font-family="Helvetica,sans-Serif" font-size="10.00">/IR/Dialect.h.inc</text>
</a>
</g>
</g>
<!-- Node3&#45;&gt;Node5 -->
<g id="edge4_Node000003_Node000005" class="edge">
<title>Node3&#45;&gt;Node5</title>
<g id="a_edge4_Node000003_Node000005"><a xlink:title=" ">
<path fill="none" stroke="#63b8ff" d="M166.75,-66.11C166.75,-59.02 166.75,-50.29 166.75,-42.13"/>
<polygon fill="#63b8ff" stroke="#63b8ff" points="170.25,-42.34 166.75,-32.34 163.25,-42.34 170.25,-42.34"/>
</a>
</g>
</g>
<!-- Node8 -->
<g id="Node000008" class="node">
<title>Node8</title>
<g id="a_Node000008"><a xlink:href="_error_helper_8h.html" target="_top" xlink:title=" ">
<polygon fill="white" stroke="#666666" points="496.25,-91.38 387.25,-91.38 387.25,-72.12 496.25,-72.12 496.25,-91.38"/>
<text text-anchor="middle" x="441.75" y="-77.88" font-family="Helvetica,sans-Serif" font-size="10.00">llzk/Util/ErrorHelper.h</text>
</a>
</g>
</g>
<!-- Node7&#45;&gt;Node8 -->
<g id="edge7_Node000007_Node000008" class="edge">
<title>Node7&#45;&gt;Node8</title>
<g id="a_edge7_Node000007_Node000008"><a xlink:title=" ">
<path fill="none" stroke="#63b8ff" d="M726.85,-138.16C671.59,-128.52 582.41,-112.56 505.75,-97 501.42,-96.12 496.93,-95.18 492.43,-94.22"/>
<polygon fill="#63b8ff" stroke="#63b8ff" points="493.3,-90.83 482.78,-92.12 491.81,-97.67 493.3,-90.83"/>
</a>
</g>
</g>
<!-- Node12 -->
<g id="Node000012" class="node">
<title>Node12</title>
<g id="a_Node000012"><a xlink:title=" ">
<polygon fill="#e0e0e0" stroke="#999999" points="650.75,-91.38 514.75,-91.38 514.75,-72.12 650.75,-72.12 650.75,-91.38"/>
<text text-anchor="middle" x="582.75" y="-77.88" font-family="Helvetica,sans-Serif" font-size="10.00">mlir/IR/OpImplementation.h</text>
</a>
</g>
</g>
<!-- Node7&#45;&gt;Node12 -->
<g id="edge11_Node000007_Node000012" class="edge">
<title>Node7&#45;&gt;Node12</title>
<g id="a_edge11_Node000007_Node000012"><a xlink:title=" ">
<path fill="none" stroke="#63b8ff" d="M751.94,-138.15C717.77,-126.96 659.61,-107.91 621.18,-95.33"/>
<polygon fill="#63b8ff" stroke="#63b8ff" points="622.45,-92.06 611.85,-92.28 620.27,-98.72 622.45,-92.06"/>
</a>
</g>
</g>
<!-- Node13 -->
<g id="Node000013" class="node">
<title>Node13</title>
<g id="a_Node000013"><a xlink:title=" ">
<polygon fill="#e0e0e0" stroke="#999999" points="767,-91.38 668.5,-91.38 668.5,-72.12 767,-72.12 767,-91.38"/>
<text text-anchor="middle" x="717.75" y="-77.88" font-family="Helvetica,sans-Serif" font-size="10.00">mlir/IR/Operation.h</text>
</a>
</g>
</g>
<!-- Node7&#45;&gt;Node13 -->
<g id="edge12_Node000007_Node000013" class="edge">
<title>Node7&#45;&gt;Node13</title>
<g id="a_edge12_Node000007_Node000013"><a xlink:title=" ">
<path fill="none" stroke="#63b8ff" d="M771.13,-138.28C761.6,-128.37 746.02,-112.16 734.15,-99.81"/>
<polygon fill="#63b8ff" stroke="#63b8ff" points="736.8,-97.52 727.35,-92.73 731.75,-102.37 736.8,-97.52"/>
</a>
</g>
</g>
<!-- Node14 -->
<g id="Node000014" class="node">
<title>Node14</title>
<g id="a_Node000014"><a xlink:title=" ">
<polygon fill="#e0e0e0" stroke="#999999" points="898.12,-91.38 785.38,-91.38 785.38,-72.12 898.12,-72.12 898.12,-91.38"/>
<text text-anchor="middle" x="841.75" y="-77.88" font-family="Helvetica,sans-Serif" font-size="10.00">mlir/IR/SymbolTable.h</text>
</a>
</g>
</g>
<!-- Node7&#45;&gt;Node14 -->
<g id="edge13_Node000007_Node000014" class="edge">
<title>Node7&#45;&gt;Node14</title>
<g id="a_edge13_Node000007_Node000014"><a xlink:title=" ">
<path fill="none" stroke="#63b8ff" d="M788.37,-138.28C797.9,-128.37 813.48,-112.16 825.35,-99.81"/>
<polygon fill="#63b8ff" stroke="#63b8ff" points="827.75,-102.37 832.15,-92.73 822.7,-97.52 827.75,-102.37"/>
</a>
</g>
</g>
<!-- Node15 -->
<g id="Node000015" class="node">
<title>Node15</title>
<g id="a_Node000015"><a xlink:title=" ">
<polygon fill="#e0e0e0" stroke="#999999" points="1023.5,-91.38 916,-91.38 916,-72.12 1023.5,-72.12 1023.5,-91.38"/>
<text text-anchor="middle" x="969.75" y="-77.88" font-family="Helvetica,sans-Serif" font-size="10.00">llvm/ADT/ArrayRef.h</text>
</a>
</g>
</g>
<!-- Node7&#45;&gt;Node15 -->
<g id="edge14_Node000007_Node000015" class="edge">
<title>Node7&#45;&gt;Node15</title>
<g id="a_edge14_Node000007_Node000015"><a xlink:title=" ">
<path fill="none" stroke="#63b8ff" d="M806.57,-138.15C839.39,-127.01 895.14,-108.08 932.21,-95.49"/>
<polygon fill="#63b8ff" stroke="#63b8ff" points="933.29,-98.82 941.63,-92.29 931.04,-92.2 933.29,-98.82"/>
</a>
</g>
</g>
<!-- Node16 -->
<g id="Node000016" class="node">
<title>Node16</title>
<g id="a_Node000016"><a xlink:title=" ">
<polygon fill="#e0e0e0" stroke="#999999" points="1157.62,-91.38 1041.88,-91.38 1041.88,-72.12 1157.62,-72.12 1157.62,-91.38"/>
<text text-anchor="middle" x="1099.75" y="-77.88" font-family="Helvetica,sans-Serif" font-size="10.00">llvm/ADT/DenseMap.h</text>
</a>
</g>
</g>
<!-- Node7&#45;&gt;Node16 -->
<g id="edge15_Node000007_Node000016" class="edge">
<title>Node7&#45;&gt;Node16</title>
<g id="a_edge15_Node000007_Node000016"><a xlink:title=" ">
<path fill="none" stroke="#63b8ff" d="M819.65,-138.17C827.63,-136.41 835.95,-134.61 843.75,-133 927.49,-115.71 948.93,-113.9 1032.75,-97 1037.27,-96.09 1041.97,-95.13 1046.67,-94.15"/>
<polygon fill="#63b8ff" stroke="#63b8ff" points="1047.05,-97.64 1056.12,-92.17 1045.62,-90.79 1047.05,-97.64"/>
</a>
</g>
</g>
<!-- Node17 -->
<g id="Node000017" class="node">
<title>Node17</title>
<g id="a_Node000017"><a xlink:title=" ">
<polygon fill="#e0e0e0" stroke="#999999" points="1285.62,-91.38 1175.88,-91.38 1175.88,-72.12 1285.62,-72.12 1285.62,-91.38"/>
<text text-anchor="middle" x="1230.75" y="-77.88" font-family="Helvetica,sans-Serif" font-size="10.00">llvm/ADT/StringRef.h</text>
</a>
</g>
</g>
<!-- Node7&#45;&gt;Node17 -->
<g id="edge16_Node000007_Node000017" class="edge">
<title>Node7&#45;&gt;Node17</title>
<g id="a_edge16_Node000007_Node000017"><a xlink:title=" ">
<path fill="none" stroke="#63b8ff" d="M817.52,-138.13C826.11,-136.25 835.22,-134.42 843.75,-133 986.23,-109.27 1024.27,-120.73 1166.75,-97 1171.68,-96.18 1176.81,-95.22 1181.91,-94.19"/>
<polygon fill="#63b8ff" stroke="#63b8ff" points="1182.43,-97.66 1191.5,-92.18 1180.99,-90.81 1182.43,-97.66"/>
</a>
</g>
</g>
<!-- Node9 -->
<g id="Node000009" class="node">
<title>Node9</title>
<g id="a_Node000009"><a xlink:title=" ">
<polygon fill="#e0e0e0" stroke="#999999" points="391.75,-24.88 231.75,-24.88 231.75,-5.63 391.75,-5.63 391.75,-24.88"/>
<text text-anchor="middle" x="311.75" y="-11.38" font-family="Helvetica,sans-Serif" font-size="10.00">llvm/ADT/STLFunctionalExtras.h</text>
</a>
</g>
</g>
<!-- Node8&#45;&gt;Node9 -->
<g id="edge8_Node000008_Node000009" class="edge">
<title>Node8&#45;&gt;Node9</title>
<g id="a_edge8_Node000008_Node000009"><a xlink:title=" ">
<path fill="none" stroke="#63b8ff" d="M423.4,-71.65C401.72,-60.89 365.41,-42.87 340.1,-30.32"/>
<polygon fill="#63b8ff" stroke="#63b8ff" points="341.88,-27.29 331.36,-25.98 338.76,-33.56 341.88,-27.29"/>
</a>
</g>
</g>
<!-- Node10 -->
<g id="Node000010" class="node">
<title>Node10</title>
<g id="a_Node000010"><a xlink:title=" ">
<polygon fill="#e0e0e0" stroke="#999999" points="503.75,-24.88 409.75,-24.88 409.75,-5.63 503.75,-5.63 503.75,-24.88"/>
<text text-anchor="middle" x="456.75" y="-11.38" font-family="Helvetica,sans-Serif" font-size="10.00">llvm/ADT/Twine.h</text>
</a>
</g>
</g>
<!-- Node8&#45;&gt;Node10 -->
<g id="edge9_Node000008_Node000010" class="edge">
<title>Node8&#45;&gt;Node10</title>
<g id="a_edge9_Node000008_Node000010"><a xlink:title=" ">
<path fill="none" stroke="#63b8ff" d="M443.84,-71.78C445.96,-62.64 449.33,-48.14 452.1,-36.25"/>
<polygon fill="#63b8ff" stroke="#63b8ff" points="455.48,-37.15 454.34,-26.62 448.66,-35.56 455.48,-37.15"/>
</a>
</g>
</g>
<!-- Node11 -->
<g id="Node000011" class="node">
<title>Node11</title>
<g id="a_Node000011"><a xlink:title=" ">
<polygon fill="#e0e0e0" stroke="#999999" points="663.38,-24.88 522.12,-24.88 522.12,-5.63 663.38,-5.63 663.38,-24.88"/>
<text text-anchor="middle" x="592.75" y="-11.38" font-family="Helvetica,sans-Serif" font-size="10.00">llvm/Support/ErrorHandling.h</text>
</a>
</g>
</g>
<!-- Node8&#45;&gt;Node11 -->
<g id="edge10_Node000008_Node000011" class="edge">
<title>Node8&#45;&gt;Node11</title>
<g id="a_edge10_Node000008_Node000011"><a xlink:title=" ">
<path fill="none" stroke="#63b8ff" d="M463.06,-71.65C488.58,-60.75 531.56,-42.39 560.99,-29.82"/>
<polygon fill="#63b8ff" stroke="#63b8ff" points="562.33,-33.05 570.15,-25.9 559.58,-26.61 562.33,-33.05"/>
</a>
</g>
</g>
</g>
</svg>
