<?xml version="1.0" encoding="UTF-8" standalone="no"?>
<!DOCTYPE svg PUBLIC "-//W3C//DTD SVG 1.1//EN"
 "http://www.w3.org/Graphics/SVG/1.1/DTD/svg11.dtd">
<!-- Generated by graphviz version 12.2.1 (0)
 -->
<!-- Title: lib/Dialect/LLZK/IR/Versioning.cpp Pages: 1 -->
<svg width="355pt" height="160pt"
 viewBox="0.00 0.00 355.38 160.25" xmlns="http://www.w3.org/2000/svg" xmlns:xlink="http://www.w3.org/1999/xlink">
<g id="graph0" class="graph" transform="scale(1 1) rotate(0) translate(4 156.25)">
<title>lib/Dialect/LLZK/IR/Versioning.cpp</title>
<!-- Node1 -->
<g id="Node000001" class="node">
<title>Node1</title>
<g id="a_Node000001"><a xlink:title=" ">
<polygon fill="#999999" stroke="#666666" points="221.75,-152.25 122.5,-152.25 122.5,-121.75 221.75,-121.75 221.75,-152.25"/>
<text text-anchor="start" x="130.5" y="-138.75" font-family="Helvetica,sans-Serif" font-size="10.00">lib/Dialect/LLZK/IR</text>
<text text-anchor="middle" x="172.12" y="-127.5" font-family="Helvetica,sans-Serif" font-size="10.00">/Versioning.cpp</text>
</a>
</g>
</g>
<!-- Node2 -->
<g id="Node000002" class="node">
<title>Node2</title>
<g id="a_Node000002"><a xlink:href="build_2include_2llzk_2_config_2config_8h.html" target="_top" xlink:title=" ">
<polygon fill="white" stroke="#666666" points="102.25,-80.12 0,-80.12 0,-60.88 102.25,-60.88 102.25,-80.12"/>
<text text-anchor="middle" x="51.12" y="-66.62" font-family="Helvetica,sans-Serif" font-size="10.00">llzk/Config/Config.h</text>
</a>
</g>
</g>
<!-- Node1&#45;&gt;Node2 -->
<g id="edge1_Node000001_Node000002" class="edge">
<title>Node1&#45;&gt;Node2</title>
<g id="a_edge1_Node000001_Node000002"><a xlink:title=" ">
<path fill="none" stroke="#63b8ff" d="M144.67,-121.36C124.69,-110.71 97.78,-96.37 77.95,-85.8"/>
<polygon fill="#63b8ff" stroke="#63b8ff" points="79.83,-82.84 69.36,-81.22 76.54,-89.01 79.83,-82.84"/>
</a>
</g>
</g>
<!-- Node3 -->
<g id="Node000003" class="node">
<title>Node3</title>
<g id="a_Node000003"><a xlink:href="_versioning_8h.html" target="_top" xlink:title=" ">
<polygon fill="white" stroke="#666666" points="224.38,-85.75 119.88,-85.75 119.88,-55.25 224.38,-55.25 224.38,-85.75"/>
<text text-anchor="start" x="127.88" y="-72.25" font-family="Helvetica,sans-Serif" font-size="10.00">llzk/Dialect/LLZK/IR</text>
<text text-anchor="middle" x="172.12" y="-61" font-family="Helvetica,sans-Serif" font-size="10.00">/Versioning.h</text>
</a>
</g>
</g>
<!-- Node1&#45;&gt;Node3 -->
<g id="edge2_Node000001_Node000003" class="edge">
<title>Node1&#45;&gt;Node3</title>
<g id="a_edge2_Node000001_Node000003"><a xlink:title=" ">
<path fill="none" stroke="#63b8ff" d="M172.12,-121.36C172.12,-114.27 172.12,-105.54 172.12,-97.38"/>
<polygon fill="#63b8ff" stroke="#63b8ff" points="175.63,-97.59 172.13,-87.59 168.63,-97.59 175.63,-97.59"/>
</a>
</g>
</g>
<!-- Node5 -->
<g id="Node000005" class="node">
<title>Node5</title>
<g id="a_Node000005"><a xlink:title=" ">
<polygon fill="#e0e0e0" stroke="#999999" points="347.38,-80.12 242.88,-80.12 242.88,-60.88 347.38,-60.88 347.38,-80.12"/>
<text text-anchor="middle" x="295.12" y="-66.62" font-family="Helvetica,sans-Serif" font-size="10.00">mlir/Support/LLVM.h</text>
</a>
</g>
</g>
<!-- Node1&#45;&gt;Node5 -->
<g id="edge4_Node000001_Node000005" class="edge">
<title>Node1&#45;&gt;Node5</title>
<g id="a_edge4_Node000001_Node000005"><a xlink:title=" ">
<path fill="none" stroke="#63b8ff" d="M200.04,-121.36C220.34,-110.71 247.7,-96.37 267.86,-85.8"/>
<polygon fill="#63b8ff" stroke="#63b8ff" points="269.37,-88.96 276.6,-81.21 266.12,-82.76 269.37,-88.96"/>
</a>
</g>
</g>
<!-- Node4 -->
<g id="Node000004" class="node">
<title>Node4</title>
<g id="a_Node000004"><a xlink:title=" ">
<polygon fill="#e0e0e0" stroke="#999999" points="269.75,-19.25 74.5,-19.25 74.5,0 269.75,0 269.75,-19.25"/>
<text text-anchor="middle" x="172.12" y="-5.75" font-family="Helvetica,sans-Serif" font-size="10.00">mlir/Bytecode/BytecodeImplementation.h</text>
</a>
</g>
</g>
<!-- Node3&#45;&gt;Node4 -->
<g id="edge3_Node000003_Node000004" class="edge">
<title>Node3&#45;&gt;Node4</title>
<g id="a_edge3_Node000003_Node000004"><a xlink:title=" ">
<path fill="none" stroke="#63b8ff" d="M172.12,-54.95C172.12,-47.71 172.12,-38.84 172.12,-30.94"/>
<polygon fill="#63b8ff" stroke="#63b8ff" points="175.63,-31.21 172.13,-21.21 168.63,-31.21 175.63,-31.21"/>
</a>
</g>
</g>
</g>
</svg>
