<?xml version="1.0" encoding="UTF-8" standalone="no"?>
<!DOCTYPE svg PUBLIC "-//W3C//DTD SVG 1.1//EN"
 "http://www.w3.org/Graphics/SVG/1.1/DTD/svg11.dtd">
<!-- Generated by graphviz version 12.2.1 (0)
 -->
<!-- Title: build/include/llzk/Config/Config.h Pages: 1 -->
<svg width="331pt" height="105pt"
 viewBox="0.00 0.00 331.38 105.00" xmlns="http://www.w3.org/2000/svg" xmlns:xlink="http://www.w3.org/1999/xlink">
<g id="graph0" class="graph" transform="scale(1 1) rotate(0) translate(4 101)">
<title>build/include/llzk/Config/Config.h</title>
<!-- Node1 -->
<g id="Node000001" class="node">
<title>Node1</title>
<g id="a_Node000001"><a xlink:title=" ">
<polygon fill="#999999" stroke="#666666" points="210.62,-97 122.62,-97 122.62,-66.5 210.62,-66.5 210.62,-97"/>
<text text-anchor="start" x="130.62" y="-83.5" font-family="Helvetica,sans-Serif" font-size="10.00">build/include/llzk</text>
<text text-anchor="middle" x="166.62" y="-72.25" font-family="Helvetica,sans-Serif" font-size="10.00">/Config/Config.h</text>
</a>
</g>
</g>
<!-- Node2 -->
<g id="Node000002" class="node">
<title>Node2</title>
<g id="a_Node000002"><a xlink:href="_l_l_z_k_2_i_r_2_dialect_8cpp.html" target="_top" xlink:title=" ">
<polygon fill="white" stroke="#666666" points="99.25,-30.5 0,-30.5 0,0 99.25,0 99.25,-30.5"/>
<text text-anchor="start" x="8" y="-17" font-family="Helvetica,sans-Serif" font-size="10.00">lib/Dialect/LLZK/IR</text>
<text text-anchor="middle" x="49.62" y="-5.75" font-family="Helvetica,sans-Serif" font-size="10.00">/Dialect.cpp</text>
</a>
</g>
</g>
<!-- Node1&#45;&gt;Node2 -->
<g id="edge1_Node000001_Node000002" class="edge">
<title>Node1&#45;&gt;Node2</title>
<g id="a_edge1_Node000001_Node000002"><a xlink:title=" ">
<path fill="none" stroke="#63b8ff" d="M130.18,-60.66C112.66,-51 92.06,-39.64 76.07,-30.83"/>
<polygon fill="#63b8ff" stroke="#63b8ff" points="128.3,-63.62 138.75,-65.38 131.68,-57.49 128.3,-63.62"/>
</a>
</g>
</g>
<!-- Node3 -->
<g id="Node000003" class="node">
<title>Node3</title>
<g id="a_Node000003"><a xlink:href="_versioning_8cpp.html" target="_top" xlink:title=" ">
<polygon fill="white" stroke="#666666" points="216.25,-30.5 117,-30.5 117,0 216.25,0 216.25,-30.5"/>
<text text-anchor="start" x="125" y="-17" font-family="Helvetica,sans-Serif" font-size="10.00">lib/Dialect/LLZK/IR</text>
<text text-anchor="middle" x="166.62" y="-5.75" font-family="Helvetica,sans-Serif" font-size="10.00">/Versioning.cpp</text>
</a>
</g>
</g>
<!-- Node1&#45;&gt;Node3 -->
<g id="edge2_Node000001_Node000003" class="edge">
<title>Node1&#45;&gt;Node3</title>
<g id="a_edge2_Node000001_Node000003"><a xlink:title=" ">
<path fill="none" stroke="#63b8ff" d="M166.62,-54.81C166.62,-46.64 166.62,-37.91 166.62,-30.83"/>
<polygon fill="#63b8ff" stroke="#63b8ff" points="163.13,-54.6 166.63,-64.6 170.13,-54.6 163.13,-54.6"/>
</a>
</g>
</g>
<!-- Node4 -->
<g id="Node000004" class="node">
<title>Node4</title>
<g id="a_Node000004"><a xlink:href="llzk-opt_8cpp.html" target="_top" xlink:title="This file implements a version of the mlir&#45;opt tool configured for use on LLZK files.">
<polygon fill="white" stroke="#666666" points="323.38,-30.5 233.88,-30.5 233.88,0 323.38,0 323.38,-30.5"/>
<text text-anchor="start" x="241.88" y="-17" font-family="Helvetica,sans-Serif" font-size="10.00">tools/llzk&#45;opt/llzk</text>
<text text-anchor="middle" x="278.62" y="-5.75" font-family="Helvetica,sans-Serif" font-size="10.00">&#45;opt.cpp</text>
</a>
</g>
</g>
<!-- Node1&#45;&gt;Node4 -->
<g id="edge3_Node000001_Node000004" class="edge">
<title>Node1&#45;&gt;Node4</title>
<g id="a_edge3_Node000001_Node000004"><a xlink:title=" ">
<path fill="none" stroke="#63b8ff" d="M201.99,-60.39C218.65,-50.79 238.15,-39.56 253.31,-30.83"/>
<polygon fill="#63b8ff" stroke="#63b8ff" points="200.27,-57.34 193.35,-65.36 203.76,-63.4 200.27,-57.34"/>
</a>
</g>
</g>
</g>
</svg>
