<?xml version="1.0" encoding="UTF-8" standalone="no"?>
<!DOCTYPE svg PUBLIC "-//W3C//DTD SVG 1.1//EN"
 "http://www.w3.org/Graphics/SVG/1.1/DTD/svg11.dtd">
<!-- Generated by graphviz version 12.2.1 (0)
 -->
<!-- Title: llzk::polymorphic::UnifiableCastOpAdaptor Pages: 1 -->
<svg width="164pt" height="194pt"
 viewBox="0.00 0.00 163.50 194.00" xmlns="http://www.w3.org/2000/svg" xmlns:xlink="http://www.w3.org/1999/xlink">
<g id="graph0" class="graph" transform="scale(1 1) rotate(0) translate(4 190)">
<title>llzk::polymorphic::UnifiableCastOpAdaptor</title>
<!-- Node1 -->
<g id="Node000001" class="node">
<title>Node1</title>
<g id="a_Node000001"><a xlink:title=" ">
<polygon fill="#999999" stroke="#666666" points="138.62,-30.5 16.87,-30.5 16.87,0 138.62,0 138.62,-30.5"/>
<text text-anchor="start" x="24.88" y="-17" font-family="Helvetica,sans-Serif" font-size="10.00">llzk::polymorphic::</text>
<text text-anchor="middle" x="77.75" y="-5.75" font-family="Helvetica,sans-Serif" font-size="10.00">UnifiableCastOpAdaptor</text>
</a>
</g>
</g>
<!-- Node2 -->
<g id="Node000002" class="node">
<title>Node2</title>
<g id="a_Node000002"><a xlink:href="classllzk_1_1polymorphic_1_1_unifiable_cast_op_generic_adaptor.html" target="_top" xlink:title=" ">
<polygon fill="white" stroke="#666666" points="155.5,-108.25 0,-108.25 0,-66.5 155.5,-66.5 155.5,-108.25"/>
<text text-anchor="start" x="8" y="-94.75" font-family="Helvetica,sans-Serif" font-size="10.00">llzk::polymorphic::</text>
<text text-anchor="start" x="8" y="-83.5" font-family="Helvetica,sans-Serif" font-size="10.00">UnifiableCastOpGenericAdaptor</text>
<text text-anchor="middle" x="77.75" y="-72.25" font-family="Helvetica,sans-Serif" font-size="10.00">&lt;::mlir::ValueRange &gt;</text>
</a>
</g>
</g>
<!-- Node2&#45;&gt;Node1 -->
<g id="edge1_Node000001_Node000002" class="edge">
<title>Node2&#45;&gt;Node1</title>
<g id="a_edge1_Node000001_Node000002"><a xlink:title=" ">
<path fill="none" stroke="#63b8ff" d="M77.75,-54.63C77.75,-46.27 77.75,-37.65 77.75,-30.7"/>
<polygon fill="#63b8ff" stroke="#63b8ff" points="74.25,-54.58 77.75,-64.58 81.25,-54.58 74.25,-54.58"/>
</a>
</g>
</g>
<!-- Node3 -->
<g id="Node000003" class="node">
<title>Node3</title>
<g id="a_Node000003"><a xlink:href="classllzk_1_1polymorphic_1_1detail_1_1_unifiable_cast_op_generic_adaptor_base.html" target="_top" xlink:title=" ">
<polygon fill="white" stroke="#666666" points="153.25,-186 2.25,-186 2.25,-144.25 153.25,-144.25 153.25,-186"/>
<text text-anchor="start" x="10.25" y="-172.5" font-family="Helvetica,sans-Serif" font-size="10.00">llzk::polymorphic::</text>
<text text-anchor="start" x="10.25" y="-161.25" font-family="Helvetica,sans-Serif" font-size="10.00">detail::UnifiableCastOpGeneric</text>
<text text-anchor="middle" x="77.75" y="-150" font-family="Helvetica,sans-Serif" font-size="10.00">AdaptorBase</text>
</a>
</g>
</g>
<!-- Node3&#45;&gt;Node2 -->
<g id="edge2_Node000002_Node000003" class="edge">
<title>Node3&#45;&gt;Node2</title>
<g id="a_edge2_Node000002_Node000003"><a xlink:title=" ">
<path fill="none" stroke="#63b8ff" d="M77.75,-132.5C77.75,-124.46 77.75,-116.04 77.75,-108.73"/>
<polygon fill="#63b8ff" stroke="#63b8ff" points="74.25,-132.31 77.75,-142.31 81.25,-132.31 74.25,-132.31"/>
</a>
</g>
</g>
</g>
</svg>
