<?xml version="1.0" encoding="UTF-8" standalone="no"?>
<!DOCTYPE svg PUBLIC "-//W3C//DTD SVG 1.1//EN"
 "http://www.w3.org/Graphics/SVG/1.1/DTD/svg11.dtd">
<!-- Generated by graphviz version 12.2.1 (0)
 -->
<!-- Title: llzk::component::detail::FieldRefOpInterfaceInterfaceTraits::FallbackModel&lt; ConcreteOp &gt; Pages: 1 -->
<svg width="188pt" height="274pt"
 viewBox="0.00 0.00 188.25 273.75" xmlns="http://www.w3.org/2000/svg" xmlns:xlink="http://www.w3.org/1999/xlink">
<g id="graph0" class="graph" transform="scale(1 1) rotate(0) translate(4 269.75)">
<title>llzk::component::detail::FieldRefOpInterfaceInterfaceTraits::FallbackModel&lt; ConcreteOp &gt;</title>
<!-- Node1 -->
<g id="Node000001" class="node">
<title>Node1</title>
<g id="a_Node000001"><a xlink:title=" ">
<polygon fill="#999999" stroke="#666666" points="180.25,-41.75 0,-41.75 0,0 180.25,0 180.25,-41.75"/>
<text text-anchor="start" x="8" y="-28.25" font-family="Helvetica,sans-Serif" font-size="10.00">llzk::component::detail</text>
<text text-anchor="start" x="8" y="-17" font-family="Helvetica,sans-Serif" font-size="10.00">::FieldRefOpInterfaceInterface</text>
<text text-anchor="middle" x="90.12" y="-5.75" font-family="Helvetica,sans-Serif" font-size="10.00">Traits::FallbackModel&lt; ConcreteOp &gt;</text>
</a>
</g>
</g>
<!-- Node2 -->
<g id="Node000002" class="node">
<title>Node2</title>
<g id="a_Node000002"><a xlink:href="structllzk_1_1component_1_1detail_1_1_field_ref_op_interface_interface_traits_1_1_concept.html" target="_top" xlink:title=" ">
<polygon fill="white" stroke="#666666" points="164.12,-120.5 16.12,-120.5 16.12,-78.75 164.12,-78.75 164.12,-120.5"/>
<text text-anchor="start" x="24.12" y="-107" font-family="Helvetica,sans-Serif" font-size="10.00">llzk::component::detail</text>
<text text-anchor="start" x="24.12" y="-95.75" font-family="Helvetica,sans-Serif" font-size="10.00">::FieldRefOpInterfaceInterface</text>
<text text-anchor="middle" x="90.12" y="-84.5" font-family="Helvetica,sans-Serif" font-size="10.00">Traits::Concept</text>
</a>
</g>
</g>
<!-- Node2&#45;&gt;Node1 -->
<g id="edge1_Node000001_Node000002" class="edge">
<title>Node2&#45;&gt;Node1</title>
<g id="a_edge1_Node000001_Node000002"><a xlink:title=" ">
<path fill="none" stroke="#63b8ff" d="M90.12,-67.05C90.12,-58.65 90.12,-49.79 90.12,-42.17"/>
<polygon fill="#63b8ff" stroke="#63b8ff" points="86.63,-66.95 90.13,-76.95 93.63,-66.95 86.63,-66.95"/>
</a>
</g>
</g>
<!-- Node3 -->
<g id="Node000003" class="node">
<title>Node3</title>
<g id="a_Node000003"><a xlink:href="classllzk_1_1component_1_1_struct_type.html" target="_top" xlink:title=" ">
<polygon fill="white" stroke="#666666" points="159.25,-187 21,-187 21,-167.75 159.25,-167.75 159.25,-187"/>
<text text-anchor="middle" x="90.12" y="-173.5" font-family="Helvetica,sans-Serif" font-size="10.00">llzk::component::StructType</text>
</a>
</g>
</g>
<!-- Node3&#45;&gt;Node2 -->
<g id="edge2_Node000002_Node000003" class="edge">
<title>Node3&#45;&gt;Node2</title>
<g id="a_edge2_Node000002_Node000003"><a xlink:title=" ">
<path fill="none" stroke="#9a32cd" stroke-dasharray="5,2" d="M90.12,-156.07C90.12,-145.2 90.12,-131.86 90.12,-120.99"/>
<polygon fill="#9a32cd" stroke="#9a32cd" points="86.63,-155.87 90.13,-165.87 93.63,-155.87 86.63,-155.87"/>
</a>
</g>
<text text-anchor="middle" x="122" y="-140.25" font-family="Helvetica,sans-Serif" font-size="10.00" fill="grey"> getStructType</text>
</g>
<!-- Node4 -->
<g id="Node000004" class="node">
<title>Node4</title>
<g id="a_Node000004"><a xlink:title=" ">
<polygon fill="white" stroke="#666666" points="174.25,-265.75 6,-265.75 6,-224 174.25,-224 174.25,-265.75"/>
<text text-anchor="start" x="14" y="-252.25" font-family="Helvetica,sans-Serif" font-size="10.00">mlir::Type::TypeBase</text>
<text text-anchor="start" x="14" y="-241" font-family="Helvetica,sans-Serif" font-size="10.00">&lt; StructType, ::mlir</text>
<text text-anchor="middle" x="90.12" y="-229.75" font-family="Helvetica,sans-Serif" font-size="10.00">::Type, detail::StructTypeStorage &gt;</text>
</a>
</g>
</g>
<!-- Node4&#45;&gt;Node3 -->
<g id="edge3_Node000003_Node000004" class="edge">
<title>Node4&#45;&gt;Node3</title>
<g id="a_edge3_Node000003_Node000004"><a xlink:title=" ">
<path fill="none" stroke="#63b8ff" d="M90.12,-212.18C90.12,-203.02 90.12,-193.75 90.12,-187.24"/>
<polygon fill="#63b8ff" stroke="#63b8ff" points="86.63,-212 90.13,-222 93.63,-212 86.63,-212"/>
</a>
</g>
</g>
</g>
</svg>
