<?xml version="1.0" encoding="UTF-8" standalone="no"?>
<!DOCTYPE svg PUBLIC "-//W3C//DTD SVG 1.1//EN"
 "http://www.w3.org/Graphics/SVG/1.1/DTD/svg11.dtd">
<!-- Generated by graphviz version 12.2.1 (0)
 -->
<!-- Title: llzk::felt::OrFeltOpAdaptor Pages: 1 -->
<svg width="160pt" height="160pt"
 viewBox="0.00 0.00 159.75 160.25" xmlns="http://www.w3.org/2000/svg" xmlns:xlink="http://www.w3.org/1999/xlink">
<g id="graph0" class="graph" transform="scale(1 1) rotate(0) translate(4 156.25)">
<title>llzk::felt::OrFeltOpAdaptor</title>
<!-- Node1 -->
<g id="Node000001" class="node">
<title>Node1</title>
<g id="a_Node000001"><a xlink:title=" ">
<polygon fill="#999999" stroke="#666666" points="140.88,-19.25 10.88,-19.25 10.88,0 140.88,0 140.88,-19.25"/>
<text text-anchor="middle" x="75.88" y="-5.75" font-family="Helvetica,sans-Serif" font-size="10.00">llzk::felt::OrFeltOpAdaptor</text>
</a>
</g>
</g>
<!-- Node2 -->
<g id="Node000002" class="node">
<title>Node2</title>
<g id="a_Node000002"><a xlink:href="classllzk_1_1felt_1_1_or_felt_op_generic_adaptor.html" target="_top" xlink:title=" ">
<polygon fill="white" stroke="#666666" points="148.38,-85.75 3.38,-85.75 3.38,-55.25 148.38,-55.25 148.38,-85.75"/>
<text text-anchor="start" x="11.38" y="-72.25" font-family="Helvetica,sans-Serif" font-size="10.00">llzk::felt::OrFeltOpGeneric</text>
<text text-anchor="middle" x="75.88" y="-61" font-family="Helvetica,sans-Serif" font-size="10.00">Adaptor&lt;::mlir::ValueRange &gt;</text>
</a>
</g>
</g>
<!-- Node2&#45;&gt;Node1 -->
<g id="edge1_Node000001_Node000002" class="edge">
<title>Node2&#45;&gt;Node1</title>
<g id="a_edge1_Node000001_Node000002"><a xlink:title=" ">
<path fill="none" stroke="#63b8ff" d="M75.88,-43.48C75.88,-34.98 75.88,-26.09 75.88,-19.7"/>
<polygon fill="#63b8ff" stroke="#63b8ff" points="72.38,-43.43 75.88,-53.43 79.38,-43.43 72.38,-43.43"/>
</a>
</g>
</g>
<!-- Node3 -->
<g id="Node000003" class="node">
<title>Node3</title>
<g id="a_Node000003"><a xlink:href="classllzk_1_1felt_1_1detail_1_1_or_felt_op_generic_adaptor_base.html" target="_top" xlink:title=" ">
<polygon fill="white" stroke="#666666" points="151.75,-152.25 0,-152.25 0,-121.75 151.75,-121.75 151.75,-152.25"/>
<text text-anchor="start" x="8" y="-138.75" font-family="Helvetica,sans-Serif" font-size="10.00">llzk::felt::detail</text>
<text text-anchor="middle" x="75.88" y="-127.5" font-family="Helvetica,sans-Serif" font-size="10.00">::OrFeltOpGenericAdaptorBase</text>
</a>
</g>
</g>
<!-- Node3&#45;&gt;Node2 -->
<g id="edge2_Node000002_Node000003" class="edge">
<title>Node3&#45;&gt;Node2</title>
<g id="a_edge2_Node000002_Node000003"><a xlink:title=" ">
<path fill="none" stroke="#63b8ff" d="M75.88,-110.06C75.88,-101.89 75.88,-93.16 75.88,-86.08"/>
<polygon fill="#63b8ff" stroke="#63b8ff" points="72.38,-109.85 75.88,-119.85 79.38,-109.85 72.38,-109.85"/>
</a>
</g>
</g>
</g>
</svg>
