<?xml version="1.0" encoding="UTF-8" standalone="no"?>
<!DOCTYPE svg PUBLIC "-//W3C//DTD SVG 1.1//EN"
 "http://www.w3.org/Graphics/SVG/1.1/DTD/svg11.dtd">
<!-- Generated by graphviz version 12.2.1 (0)
 -->
<!-- Title: llzk::cast::FeltToIndexOpAdaptor Pages: 1 -->
<svg width="184pt" height="183pt"
 viewBox="0.00 0.00 183.75 182.75" xmlns="http://www.w3.org/2000/svg" xmlns:xlink="http://www.w3.org/1999/xlink">
<g id="graph0" class="graph" transform="scale(1 1) rotate(0) translate(4 178.75)">
<title>llzk::cast::FeltToIndexOpAdaptor</title>
<!-- Node1 -->
<g id="Node000001" class="node">
<title>Node1</title>
<g id="a_Node000001"><a xlink:title=" ">
<polygon fill="#999999" stroke="#666666" points="150.62,-30.5 25.12,-30.5 25.12,0 150.62,0 150.62,-30.5"/>
<text text-anchor="start" x="33.12" y="-17" font-family="Helvetica,sans-Serif" font-size="10.00">llzk::cast::FeltToIndexOp</text>
<text text-anchor="middle" x="87.88" y="-5.75" font-family="Helvetica,sans-Serif" font-size="10.00">Adaptor</text>
</a>
</g>
</g>
<!-- Node2 -->
<g id="Node000002" class="node">
<title>Node2</title>
<g id="a_Node000002"><a xlink:href="classllzk_1_1cast_1_1_felt_to_index_op_generic_adaptor.html" target="_top" xlink:title=" ">
<polygon fill="white" stroke="#666666" points="150.62,-108.25 25.12,-108.25 25.12,-66.5 150.62,-66.5 150.62,-108.25"/>
<text text-anchor="start" x="33.12" y="-94.75" font-family="Helvetica,sans-Serif" font-size="10.00">llzk::cast::FeltToIndexOp</text>
<text text-anchor="start" x="33.12" y="-83.5" font-family="Helvetica,sans-Serif" font-size="10.00">GenericAdaptor&lt;::mlir::</text>
<text text-anchor="middle" x="87.88" y="-72.25" font-family="Helvetica,sans-Serif" font-size="10.00">ValueRange &gt;</text>
</a>
</g>
</g>
<!-- Node2&#45;&gt;Node1 -->
<g id="edge1_Node000001_Node000002" class="edge">
<title>Node2&#45;&gt;Node1</title>
<g id="a_edge1_Node000001_Node000002"><a xlink:title=" ">
<path fill="none" stroke="#63b8ff" d="M87.88,-54.63C87.88,-46.27 87.88,-37.65 87.88,-30.7"/>
<polygon fill="#63b8ff" stroke="#63b8ff" points="84.38,-54.58 87.88,-64.58 91.38,-54.58 84.38,-54.58"/>
</a>
</g>
</g>
<!-- Node3 -->
<g id="Node000003" class="node">
<title>Node3</title>
<g id="a_Node000003"><a xlink:href="classllzk_1_1cast_1_1detail_1_1_felt_to_index_op_generic_adaptor_base.html" target="_top" xlink:title=" ">
<polygon fill="white" stroke="#666666" points="175.75,-174.75 0,-174.75 0,-144.25 175.75,-144.25 175.75,-174.75"/>
<text text-anchor="start" x="8" y="-161.25" font-family="Helvetica,sans-Serif" font-size="10.00">llzk::cast::detail</text>
<text text-anchor="middle" x="87.88" y="-150" font-family="Helvetica,sans-Serif" font-size="10.00">::FeltToIndexOpGenericAdaptorBase</text>
</a>
</g>
</g>
<!-- Node3&#45;&gt;Node2 -->
<g id="edge2_Node000002_Node000003" class="edge">
<title>Node3&#45;&gt;Node2</title>
<g id="a_edge2_Node000002_Node000003"><a xlink:title=" ">
<path fill="none" stroke="#63b8ff" d="M87.88,-132.72C87.88,-124.81 87.88,-116.23 87.88,-108.74"/>
<polygon fill="#63b8ff" stroke="#63b8ff" points="84.38,-132.46 87.88,-142.46 91.38,-132.46 84.38,-132.46"/>
</a>
</g>
</g>
</g>
</svg>
