<?xml version="1.0" encoding="UTF-8" standalone="no"?>
<!DOCTYPE svg PUBLIC "-//W3C//DTD SVG 1.1//EN"
 "http://www.w3.org/Graphics/SVG/1.1/DTD/svg11.dtd">
<!-- Generated by graphviz version 12.2.1 (0)
 -->
<!-- Title: llzk::constrain::detail::EmitContainmentOpGenericAdaptorBase Pages: 1 -->
<svg width="631pt" height="147pt"
 viewBox="0.00 0.00 630.50 147.12" xmlns="http://www.w3.org/2000/svg" xmlns:xlink="http://www.w3.org/1999/xlink">
<g id="graph0" class="graph" transform="scale(1 1) rotate(0) translate(4 143.12)">
<title>llzk::constrain::detail::EmitContainmentOpGenericAdaptorBase</title>
<!-- Node1 -->
<g id="Node000001" class="node">
<title>Node1</title>
<g id="a_Node000001"><a xlink:title=" ">
<polygon fill="#999999" stroke="#666666" points="200.5,-79.5 0,-79.5 0,-49 200.5,-49 200.5,-79.5"/>
<text text-anchor="start" x="8" y="-66" font-family="Helvetica,sans-Serif" font-size="10.00">llzk::constrain::detail</text>
<text text-anchor="middle" x="100.25" y="-54.75" font-family="Helvetica,sans-Serif" font-size="10.00">::EmitContainmentOpGenericAdaptorBase</text>
</a>
</g>
</g>
<!-- Node2 -->
<g id="Node000002" class="node">
<title>Node2</title>
<g id="a_Node000002"><a xlink:href="classllzk_1_1constrain_1_1_emit_containment_op_generic_adaptor.html" target="_top" xlink:title=" ">
<polygon fill="white" stroke="#666666" points="417.88,-139.12 246.62,-139.12 246.62,-97.38 417.88,-97.38 417.88,-139.12"/>
<text text-anchor="start" x="254.62" y="-125.62" font-family="Helvetica,sans-Serif" font-size="10.00">llzk::constrain::EmitContainment</text>
<text text-anchor="start" x="254.62" y="-114.38" font-family="Helvetica,sans-Serif" font-size="10.00">OpGenericAdaptor&lt;::llvm::ArrayRef</text>
<text text-anchor="middle" x="332.25" y="-103.12" font-family="Helvetica,sans-Serif" font-size="10.00">&lt;::mlir::Attribute &gt; &gt;</text>
</a>
</g>
</g>
<!-- Node1&#45;&gt;Node2 -->
<g id="edge1_Node000001_Node000002" class="edge">
<title>Node1&#45;&gt;Node2</title>
<g id="a_edge1_Node000001_Node000002"><a xlink:title=" ">
<path fill="none" stroke="#63b8ff" d="M179.17,-82.54C200.74,-87.61 224.25,-93.13 246.2,-98.28"/>
<polygon fill="#63b8ff" stroke="#63b8ff" points="180.09,-79.17 169.56,-80.29 178.49,-85.98 180.09,-79.17"/>
</a>
</g>
</g>
<!-- Node3 -->
<g id="Node000003" class="node">
<title>Node3</title>
<g id="a_Node000003"><a xlink:href="classllzk_1_1constrain_1_1_emit_containment_op_generic_adaptor.html" target="_top" xlink:title=" ">
<polygon fill="white" stroke="#666666" points="428,-79.5 236.5,-79.5 236.5,-49 428,-49 428,-79.5"/>
<text text-anchor="start" x="244.5" y="-66" font-family="Helvetica,sans-Serif" font-size="10.00">llzk::constrain::EmitContainment</text>
<text text-anchor="middle" x="332.25" y="-54.75" font-family="Helvetica,sans-Serif" font-size="10.00">OpGenericAdaptor&lt;::mlir::ValueRange &gt;</text>
</a>
</g>
</g>
<!-- Node1&#45;&gt;Node3 -->
<g id="edge2_Node000001_Node000003" class="edge">
<title>Node1&#45;&gt;Node3</title>
<g id="a_edge2_Node000001_Node000003"><a xlink:title=" ">
<path fill="none" stroke="#63b8ff" d="M212.16,-64.25C220.23,-64.25 228.32,-64.25 236.28,-64.25"/>
<polygon fill="#63b8ff" stroke="#63b8ff" points="212.31,-60.75 202.31,-64.25 212.31,-67.75 212.31,-60.75"/>
</a>
</g>
</g>
<!-- Node5 -->
<g id="Node000005" class="node">
<title>Node5</title>
<g id="a_Node000005"><a xlink:href="classllzk_1_1constrain_1_1_emit_containment_op_generic_adaptor.html" target="_top" xlink:title=" ">
<polygon fill="white" stroke="#666666" points="411.5,-30.5 253,-30.5 253,0 411.5,0 411.5,-30.5"/>
<text text-anchor="start" x="261" y="-17" font-family="Helvetica,sans-Serif" font-size="10.00">llzk::constrain::EmitContainment</text>
<text text-anchor="middle" x="332.25" y="-5.75" font-family="Helvetica,sans-Serif" font-size="10.00">OpGenericAdaptor&lt; RangeT &gt;</text>
</a>
</g>
</g>
<!-- Node1&#45;&gt;Node5 -->
<g id="edge4_Node000001_Node000005" class="edge">
<title>Node1&#45;&gt;Node5</title>
<g id="a_edge4_Node000001_Node000005"><a xlink:title=" ">
<path fill="none" stroke="#63b8ff" d="M185.98,-46.2C209.46,-41.2 234.75,-35.81 257.55,-30.95"/>
<polygon fill="#63b8ff" stroke="#63b8ff" points="185.5,-42.72 176.45,-48.23 186.96,-49.57 185.5,-42.72"/>
</a>
</g>
</g>
<!-- Node4 -->
<g id="Node000004" class="node">
<title>Node4</title>
<g id="a_Node000004"><a xlink:href="classllzk_1_1constrain_1_1_emit_containment_op_adaptor.html" target="_top" xlink:title=" ">
<polygon fill="white" stroke="#666666" points="622.5,-79.5 464,-79.5 464,-49 622.5,-49 622.5,-79.5"/>
<text text-anchor="start" x="472" y="-66" font-family="Helvetica,sans-Serif" font-size="10.00">llzk::constrain::EmitContainment</text>
<text text-anchor="middle" x="543.25" y="-54.75" font-family="Helvetica,sans-Serif" font-size="10.00">OpAdaptor</text>
</a>
</g>
</g>
<!-- Node3&#45;&gt;Node4 -->
<g id="edge3_Node000003_Node000004" class="edge">
<title>Node3&#45;&gt;Node4</title>
<g id="a_edge3_Node000003_Node000004"><a xlink:title=" ">
<path fill="none" stroke="#63b8ff" d="M439.7,-64.25C447.79,-64.25 455.87,-64.25 463.73,-64.25"/>
<polygon fill="#63b8ff" stroke="#63b8ff" points="439.78,-60.75 429.78,-64.25 439.78,-67.75 439.78,-60.75"/>
</a>
</g>
</g>
</g>
</svg>
