<?xml version="1.0" encoding="UTF-8" standalone="no"?>
<!DOCTYPE svg PUBLIC "-//W3C//DTD SVG 1.1//EN"
 "http://www.w3.org/Graphics/SVG/1.1/DTD/svg11.dtd">
<!-- Generated by graphviz version 12.2.1 (0)
 -->
<!-- Title: llzk::string::LitStringOpGenericAdaptor&lt; RangeT &gt; Pages: 1 -->
<svg width="169pt" height="195pt"
 viewBox="0.00 0.00 168.75 195.00" xmlns="http://www.w3.org/2000/svg" xmlns:xlink="http://www.w3.org/1999/xlink">
<g id="graph0" class="graph" transform="scale(1 1) rotate(0) translate(4 191)">
<title>llzk::string::LitStringOpGenericAdaptor&lt; RangeT &gt;</title>
<!-- Node1 -->
<g id="Node000001" class="node">
<title>Node1</title>
<g id="a_Node000001"><a xlink:title=" ">
<polygon fill="#999999" stroke="#666666" points="148.38,-30.5 12.38,-30.5 12.38,0 148.38,0 148.38,-30.5"/>
<text text-anchor="start" x="20.38" y="-17" font-family="Helvetica,sans-Serif" font-size="10.00">llzk::string::LitStringOp</text>
<text text-anchor="middle" x="80.38" y="-5.75" font-family="Helvetica,sans-Serif" font-size="10.00">GenericAdaptor&lt; RangeT &gt;</text>
</a>
</g>
</g>
<!-- Node2 -->
<g id="Node000002" class="node">
<title>Node2</title>
<g id="a_Node000002"><a xlink:href="classllzk_1_1string_1_1detail_1_1_lit_string_op_generic_adaptor_base.html" target="_top" xlink:title=" ">
<polygon fill="white" stroke="#666666" points="160.75,-98 0,-98 0,-67.5 160.75,-67.5 160.75,-98"/>
<text text-anchor="start" x="8" y="-84.5" font-family="Helvetica,sans-Serif" font-size="10.00">llzk::string::detail</text>
<text text-anchor="middle" x="80.38" y="-73.25" font-family="Helvetica,sans-Serif" font-size="10.00">::LitStringOpGenericAdaptorBase</text>
</a>
</g>
</g>
<!-- Node2&#45;&gt;Node1 -->
<g id="edge1_Node000001_Node000002" class="edge">
<title>Node2&#45;&gt;Node1</title>
<g id="a_edge1_Node000001_Node000002"><a xlink:title=" ">
<path fill="none" stroke="#63b8ff" d="M80.38,-55.84C80.38,-47.3 80.38,-38.12 80.38,-30.75"/>
<polygon fill="#63b8ff" stroke="#63b8ff" points="76.88,-55.7 80.38,-65.7 83.88,-55.7 76.88,-55.7"/>
</a>
</g>
</g>
<!-- Node3 -->
<g id="Node000003" class="node">
<title>Node3</title>
<g id="a_Node000003"><a xlink:href="structllzk_1_1string_1_1detail_1_1_lit_string_op_generic_adaptor_base_1_1_properties.html" target="_top" xlink:title=" ">
<polygon fill="white" stroke="#666666" points="149.5,-187 11.25,-187 11.25,-145.25 149.5,-145.25 149.5,-187"/>
<text text-anchor="start" x="19.25" y="-173.5" font-family="Helvetica,sans-Serif" font-size="10.00">llzk::string::detail</text>
<text text-anchor="start" x="19.25" y="-162.25" font-family="Helvetica,sans-Serif" font-size="10.00">::LitStringOpGenericAdaptor</text>
<text text-anchor="middle" x="80.38" y="-151" font-family="Helvetica,sans-Serif" font-size="10.00">Base::Properties</text>
</a>
</g>
</g>
<!-- Node3&#45;&gt;Node2 -->
<g id="edge2_Node000002_Node000003" class="edge">
<title>Node3&#45;&gt;Node2</title>
<g id="a_edge2_Node000002_Node000003"><a xlink:title=" ">
<path fill="none" stroke="#9a32cd" stroke-dasharray="5,2" d="M80.38,-133.8C80.38,-121.57 80.38,-108.14 80.38,-98.27"/>
<polygon fill="#9a32cd" stroke="#9a32cd" points="76.88,-133.5 80.38,-143.5 83.88,-133.5 76.88,-133.5"/>
</a>
</g>
<text text-anchor="middle" x="103.25" y="-117.75" font-family="Helvetica,sans-Serif" font-size="10.00" fill="grey"> properties</text>
</g>
</g>
</svg>
