<?xml version="1.0" encoding="UTF-8" standalone="no"?>
<!DOCTYPE svg PUBLIC "-//W3C//DTD SVG 1.1//EN"
 "http://www.w3.org/Graphics/SVG/1.1/DTD/svg11.dtd">
<!-- Generated by graphviz version 12.2.1 (0)
 -->
<!-- Title: llzk::constrain::EmitContainmentOpAdaptor Pages: 1 -->
<svg width="209pt" height="172pt"
 viewBox="0.00 0.00 208.50 171.50" xmlns="http://www.w3.org/2000/svg" xmlns:xlink="http://www.w3.org/1999/xlink">
<g id="graph0" class="graph" transform="scale(1 1) rotate(0) translate(4 167.5)">
<title>llzk::constrain::EmitContainmentOpAdaptor</title>
<!-- Node1 -->
<g id="Node000001" class="node">
<title>Node1</title>
<g id="a_Node000001"><a xlink:title=" ">
<polygon fill="#999999" stroke="#666666" points="179.5,-30.5 21,-30.5 21,0 179.5,0 179.5,-30.5"/>
<text text-anchor="start" x="29" y="-17" font-family="Helvetica,sans-Serif" font-size="10.00">llzk::constrain::EmitContainment</text>
<text text-anchor="middle" x="100.25" y="-5.75" font-family="Helvetica,sans-Serif" font-size="10.00">OpAdaptor</text>
</a>
</g>
</g>
<!-- Node2 -->
<g id="Node000002" class="node">
<title>Node2</title>
<g id="a_Node000002"><a xlink:href="classllzk_1_1constrain_1_1_emit_containment_op_generic_adaptor.html" target="_top" xlink:title=" ">
<polygon fill="white" stroke="#666666" points="196,-97 4.5,-97 4.5,-66.5 196,-66.5 196,-97"/>
<text text-anchor="start" x="12.5" y="-83.5" font-family="Helvetica,sans-Serif" font-size="10.00">llzk::constrain::EmitContainment</text>
<text text-anchor="middle" x="100.25" y="-72.25" font-family="Helvetica,sans-Serif" font-size="10.00">OpGenericAdaptor&lt;::mlir::ValueRange &gt;</text>
</a>
</g>
</g>
<!-- Node2&#45;&gt;Node1 -->
<g id="edge1_Node000001_Node000002" class="edge">
<title>Node2&#45;&gt;Node1</title>
<g id="a_edge1_Node000001_Node000002"><a xlink:title=" ">
<path fill="none" stroke="#63b8ff" d="M100.25,-54.81C100.25,-46.64 100.25,-37.91 100.25,-30.83"/>
<polygon fill="#63b8ff" stroke="#63b8ff" points="96.75,-54.6 100.25,-64.6 103.75,-54.6 96.75,-54.6"/>
</a>
</g>
</g>
<!-- Node3 -->
<g id="Node000003" class="node">
<title>Node3</title>
<g id="a_Node000003"><a xlink:href="classllzk_1_1constrain_1_1detail_1_1_emit_containment_op_generic_adaptor_base.html" target="_top" xlink:title=" ">
<polygon fill="white" stroke="#666666" points="200.5,-163.5 0,-163.5 0,-133 200.5,-133 200.5,-163.5"/>
<text text-anchor="start" x="8" y="-150" font-family="Helvetica,sans-Serif" font-size="10.00">llzk::constrain::detail</text>
<text text-anchor="middle" x="100.25" y="-138.75" font-family="Helvetica,sans-Serif" font-size="10.00">::EmitContainmentOpGenericAdaptorBase</text>
</a>
</g>
</g>
<!-- Node3&#45;&gt;Node2 -->
<g id="edge2_Node000002_Node000003" class="edge">
<title>Node3&#45;&gt;Node2</title>
<g id="a_edge2_Node000002_Node000003"><a xlink:title=" ">
<path fill="none" stroke="#63b8ff" d="M100.25,-121.31C100.25,-113.14 100.25,-104.41 100.25,-97.33"/>
<polygon fill="#63b8ff" stroke="#63b8ff" points="96.75,-121.1 100.25,-131.1 103.75,-121.1 96.75,-121.1"/>
</a>
</g>
</g>
</g>
</svg>
