<?xml version="1.0" encoding="UTF-8" standalone="no"?>
<!DOCTYPE svg PUBLIC "-//W3C//DTD SVG 1.1//EN"
 "http://www.w3.org/Graphics/SVG/1.1/DTD/svg11.dtd">
<!-- Generated by graphviz version 12.2.1 (0)
 -->
<!-- Title: llzk::boolean::AndBoolOpAdaptor Pages: 1 -->
<svg width="170pt" height="183pt"
 viewBox="0.00 0.00 169.50 182.75" xmlns="http://www.w3.org/2000/svg" xmlns:xlink="http://www.w3.org/1999/xlink">
<g id="graph0" class="graph" transform="scale(1 1) rotate(0) translate(4 178.75)">
<title>llzk::boolean::AndBoolOpAdaptor</title>
<!-- Node1 -->
<g id="Node000001" class="node">
<title>Node1</title>
<g id="a_Node000001"><a xlink:title=" ">
<polygon fill="#999999" stroke="#666666" points="143.88,-30.5 17.62,-30.5 17.62,0 143.88,0 143.88,-30.5"/>
<text text-anchor="start" x="25.62" y="-17" font-family="Helvetica,sans-Serif" font-size="10.00">llzk::boolean::AndBoolOp</text>
<text text-anchor="middle" x="80.75" y="-5.75" font-family="Helvetica,sans-Serif" font-size="10.00">Adaptor</text>
</a>
</g>
</g>
<!-- Node2 -->
<g id="Node000002" class="node">
<title>Node2</title>
<g id="a_Node000002"><a xlink:href="classllzk_1_1boolean_1_1_and_bool_op_generic_adaptor.html" target="_top" xlink:title=" ">
<polygon fill="white" stroke="#666666" points="143.88,-108.25 17.62,-108.25 17.62,-66.5 143.88,-66.5 143.88,-108.25"/>
<text text-anchor="start" x="25.62" y="-94.75" font-family="Helvetica,sans-Serif" font-size="10.00">llzk::boolean::AndBoolOp</text>
<text text-anchor="start" x="25.62" y="-83.5" font-family="Helvetica,sans-Serif" font-size="10.00">GenericAdaptor&lt;::mlir</text>
<text text-anchor="middle" x="80.75" y="-72.25" font-family="Helvetica,sans-Serif" font-size="10.00">::ValueRange &gt;</text>
</a>
</g>
</g>
<!-- Node2&#45;&gt;Node1 -->
<g id="edge1_Node000001_Node000002" class="edge">
<title>Node2&#45;&gt;Node1</title>
<g id="a_edge1_Node000001_Node000002"><a xlink:title=" ">
<path fill="none" stroke="#63b8ff" d="M80.75,-54.63C80.75,-46.27 80.75,-37.65 80.75,-30.7"/>
<polygon fill="#63b8ff" stroke="#63b8ff" points="77.25,-54.58 80.75,-64.58 84.25,-54.58 77.25,-54.58"/>
</a>
</g>
</g>
<!-- Node3 -->
<g id="Node000003" class="node">
<title>Node3</title>
<g id="a_Node000003"><a xlink:href="classllzk_1_1boolean_1_1detail_1_1_and_bool_op_generic_adaptor_base.html" target="_top" xlink:title=" ">
<polygon fill="white" stroke="#666666" points="161.5,-174.75 0,-174.75 0,-144.25 161.5,-144.25 161.5,-174.75"/>
<text text-anchor="start" x="8" y="-161.25" font-family="Helvetica,sans-Serif" font-size="10.00">llzk::boolean::detail</text>
<text text-anchor="middle" x="80.75" y="-150" font-family="Helvetica,sans-Serif" font-size="10.00">::AndBoolOpGenericAdaptorBase</text>
</a>
</g>
</g>
<!-- Node3&#45;&gt;Node2 -->
<g id="edge2_Node000002_Node000003" class="edge">
<title>Node3&#45;&gt;Node2</title>
<g id="a_edge2_Node000002_Node000003"><a xlink:title=" ">
<path fill="none" stroke="#63b8ff" d="M80.75,-132.72C80.75,-124.81 80.75,-116.23 80.75,-108.74"/>
<polygon fill="#63b8ff" stroke="#63b8ff" points="77.25,-132.46 80.75,-142.46 84.25,-132.46 77.25,-132.46"/>
</a>
</g>
</g>
</g>
</svg>
