<?xml version="1.0" encoding="UTF-8" standalone="no"?>
<!DOCTYPE svg PUBLIC "-//W3C//DTD SVG 1.1//EN"
 "http://www.w3.org/Graphics/SVG/1.1/DTD/svg11.dtd">
<!-- Generated by graphviz version 12.2.1 (0)
 -->
<!-- Title: llzk::boolean::AssertOpGenericAdaptor&lt; RangeT &gt; Pages: 1 -->
<svg width="161pt" height="195pt"
 viewBox="0.00 0.00 161.25 195.00" xmlns="http://www.w3.org/2000/svg" xmlns:xlink="http://www.w3.org/1999/xlink">
<g id="graph0" class="graph" transform="scale(1 1) rotate(0) translate(4 191)">
<title>llzk::boolean::AssertOpGenericAdaptor&lt; RangeT &gt;</title>
<!-- Node1 -->
<g id="Node000001" class="node">
<title>Node1</title>
<g id="a_Node000001"><a xlink:title=" ">
<polygon fill="#999999" stroke="#666666" points="152.5,-30.5 0.75,-30.5 0.75,0 152.5,0 152.5,-30.5"/>
<text text-anchor="start" x="8.75" y="-17" font-family="Helvetica,sans-Serif" font-size="10.00">llzk::boolean::AssertOpGeneric</text>
<text text-anchor="middle" x="76.62" y="-5.75" font-family="Helvetica,sans-Serif" font-size="10.00">Adaptor&lt; RangeT &gt;</text>
</a>
</g>
</g>
<!-- Node2 -->
<g id="Node000002" class="node">
<title>Node2</title>
<g id="a_Node000002"><a xlink:href="classllzk_1_1boolean_1_1detail_1_1_assert_op_generic_adaptor_base.html" target="_top" xlink:title=" ">
<polygon fill="white" stroke="#666666" points="153.25,-98 0,-98 0,-67.5 153.25,-67.5 153.25,-98"/>
<text text-anchor="start" x="8" y="-84.5" font-family="Helvetica,sans-Serif" font-size="10.00">llzk::boolean::detail</text>
<text text-anchor="middle" x="76.62" y="-73.25" font-family="Helvetica,sans-Serif" font-size="10.00">::AssertOpGenericAdaptorBase</text>
</a>
</g>
</g>
<!-- Node2&#45;&gt;Node1 -->
<g id="edge1_Node000001_Node000002" class="edge">
<title>Node2&#45;&gt;Node1</title>
<g id="a_edge1_Node000001_Node000002"><a xlink:title=" ">
<path fill="none" stroke="#63b8ff" d="M76.62,-55.84C76.62,-47.3 76.62,-38.12 76.62,-30.75"/>
<polygon fill="#63b8ff" stroke="#63b8ff" points="73.13,-55.7 76.63,-65.7 80.13,-55.7 73.13,-55.7"/>
</a>
</g>
</g>
<!-- Node3 -->
<g id="Node000003" class="node">
<title>Node3</title>
<g id="a_Node000003"><a xlink:href="structllzk_1_1boolean_1_1detail_1_1_assert_op_generic_adaptor_base_1_1_properties.html" target="_top" xlink:title=" ">
<polygon fill="white" stroke="#666666" points="153.25,-187 0,-187 0,-145.25 153.25,-145.25 153.25,-187"/>
<text text-anchor="start" x="8" y="-173.5" font-family="Helvetica,sans-Serif" font-size="10.00">llzk::boolean::detail</text>
<text text-anchor="start" x="8" y="-162.25" font-family="Helvetica,sans-Serif" font-size="10.00">::AssertOpGenericAdaptorBase</text>
<text text-anchor="middle" x="76.62" y="-151" font-family="Helvetica,sans-Serif" font-size="10.00">::Properties</text>
</a>
</g>
</g>
<!-- Node3&#45;&gt;Node2 -->
<g id="edge2_Node000002_Node000003" class="edge">
<title>Node3&#45;&gt;Node2</title>
<g id="a_edge2_Node000002_Node000003"><a xlink:title=" ">
<path fill="none" stroke="#9a32cd" stroke-dasharray="5,2" d="M76.62,-133.8C76.62,-121.57 76.62,-108.14 76.62,-98.27"/>
<polygon fill="#9a32cd" stroke="#9a32cd" points="73.13,-133.5 76.63,-143.5 80.13,-133.5 73.13,-133.5"/>
</a>
</g>
<text text-anchor="middle" x="99.5" y="-117.75" font-family="Helvetica,sans-Serif" font-size="10.00" fill="grey"> properties</text>
</g>
</g>
</svg>
