<?xml version="1.0" encoding="UTF-8" standalone="no"?>
<!DOCTYPE svg PUBLIC "-//W3C//DTD SVG 1.1//EN"
 "http://www.w3.org/Graphics/SVG/1.1/DTD/svg11.dtd">
<!-- Generated by graphviz version 12.2.1 (0)
 -->
<!-- Title: llzk::CallGraphSCCsPrinterPass Pages: 1 -->
<svg width="177pt" height="172pt"
 viewBox="0.00 0.00 177.00 171.50" xmlns="http://www.w3.org/2000/svg" xmlns:xlink="http://www.w3.org/1999/xlink">
<g id="graph0" class="graph" transform="scale(1 1) rotate(0) translate(4 167.5)">
<title>llzk::CallGraphSCCsPrinterPass</title>
<!-- Node1 -->
<g id="Node000001" class="node">
<title>Node1</title>
<g id="a_Node000001"><a xlink:title=" ">
<polygon fill="#999999" stroke="#666666" points="163.75,-19.25 5.25,-19.25 5.25,0 163.75,0 163.75,-19.25"/>
<text text-anchor="middle" x="84.5" y="-5.75" font-family="Helvetica,sans-Serif" font-size="10.00">llzk::CallGraphSCCsPrinterPass</text>
</a>
</g>
</g>
<!-- Node2 -->
<g id="Node000002" class="node">
<title>Node2</title>
<g id="a_Node000002"><a xlink:href="classllzk_1_1impl_1_1_call_graph_s_c_cs_printer_pass_base.html" target="_top" xlink:title=" ">
<polygon fill="white" stroke="#666666" points="169,-97 0,-97 0,-55.25 169,-55.25 169,-97"/>
<text text-anchor="start" x="8" y="-83.5" font-family="Helvetica,sans-Serif" font-size="10.00">llzk::impl::CallGraphSCCs</text>
<text text-anchor="start" x="8" y="-72.25" font-family="Helvetica,sans-Serif" font-size="10.00">PrinterPassBase&lt; CallGraphSCCs</text>
<text text-anchor="middle" x="84.5" y="-61" font-family="Helvetica,sans-Serif" font-size="10.00">PrinterPass &gt;</text>
</a>
</g>
</g>
<!-- Node2&#45;&gt;Node1 -->
<g id="edge1_Node000001_Node000002" class="edge">
<title>Node2&#45;&gt;Node1</title>
<g id="a_edge1_Node000001_Node000002"><a xlink:title=" ">
<path fill="none" stroke="#63b8ff" d="M84.5,-43.76C84.5,-34.95 84.5,-26.05 84.5,-19.7"/>
<polygon fill="#63b8ff" stroke="#63b8ff" points="81,-43.56 84.5,-53.56 88,-43.56 81,-43.56"/>
</a>
</g>
</g>
<!-- Node3 -->
<g id="Node000003" class="node">
<title>Node3</title>
<g id="a_Node000003"><a xlink:title=" ">
<polygon fill="white" stroke="#666666" points="136,-163.5 33,-163.5 33,-133 136,-133 136,-163.5"/>
<text text-anchor="start" x="41" y="-150" font-family="Helvetica,sans-Serif" font-size="10.00">mlir::OperationPass</text>
<text text-anchor="middle" x="84.5" y="-138.75" font-family="Helvetica,sans-Serif" font-size="10.00">&lt;::mlir::ModuleOp &gt;</text>
</a>
</g>
</g>
<!-- Node3&#45;&gt;Node2 -->
<g id="edge2_Node000002_Node000003" class="edge">
<title>Node3&#45;&gt;Node2</title>
<g id="a_edge2_Node000002_Node000003"><a xlink:title=" ">
<path fill="none" stroke="#63b8ff" d="M84.5,-121.47C84.5,-113.56 84.5,-104.98 84.5,-97.49"/>
<polygon fill="#63b8ff" stroke="#63b8ff" points="81,-121.21 84.5,-131.21 88,-121.21 81,-121.21"/>
</a>
</g>
</g>
</g>
</svg>
