<?xml version="1.0" encoding="UTF-8" standalone="no"?>
<!DOCTYPE svg PUBLIC "-//W3C//DTD SVG 1.1//EN"
 "http://www.w3.org/Graphics/SVG/1.1/DTD/svg11.dtd">
<!-- Generated by graphviz version 12.2.1 (0)
 -->
<!-- Title: llzk::component::FieldReadOpAdaptor Pages: 1 -->
<svg width="177pt" height="274pt"
 viewBox="0.00 0.00 177.00 273.75" xmlns="http://www.w3.org/2000/svg" xmlns:xlink="http://www.w3.org/1999/xlink">
<g id="graph0" class="graph" transform="scale(1 1) rotate(0) translate(4 269.75)">
<title>llzk::component::FieldReadOpAdaptor</title>
<!-- Node1 -->
<g id="Node000001" class="node">
<title>Node1</title>
<g id="a_Node000001"><a xlink:title=" ">
<polygon fill="#999999" stroke="#666666" points="152.12,-30.5 16.88,-30.5 16.88,0 152.12,0 152.12,-30.5"/>
<text text-anchor="start" x="24.88" y="-17" font-family="Helvetica,sans-Serif" font-size="10.00">llzk::component::FieldRead</text>
<text text-anchor="middle" x="84.5" y="-5.75" font-family="Helvetica,sans-Serif" font-size="10.00">OpAdaptor</text>
</a>
</g>
</g>
<!-- Node2 -->
<g id="Node000002" class="node">
<title>Node2</title>
<g id="a_Node000002"><a xlink:href="classllzk_1_1component_1_1_field_read_op_generic_adaptor.html" target="_top" xlink:title=" ">
<polygon fill="white" stroke="#666666" points="152.12,-109.25 16.88,-109.25 16.88,-67.5 152.12,-67.5 152.12,-109.25"/>
<text text-anchor="start" x="24.88" y="-95.75" font-family="Helvetica,sans-Serif" font-size="10.00">llzk::component::FieldRead</text>
<text text-anchor="start" x="24.88" y="-84.5" font-family="Helvetica,sans-Serif" font-size="10.00">OpGenericAdaptor&lt;::mlir</text>
<text text-anchor="middle" x="84.5" y="-73.25" font-family="Helvetica,sans-Serif" font-size="10.00">::ValueRange &gt;</text>
</a>
</g>
</g>
<!-- Node2&#45;&gt;Node1 -->
<g id="edge1_Node000001_Node000002" class="edge">
<title>Node2&#45;&gt;Node1</title>
<g id="a_edge1_Node000001_Node000002"><a xlink:title=" ">
<path fill="none" stroke="#63b8ff" d="M84.5,-55.95C84.5,-47.11 84.5,-37.92 84.5,-30.62"/>
<polygon fill="#63b8ff" stroke="#63b8ff" points="81,-55.67 84.5,-65.67 88,-55.67 81,-55.67"/>
</a>
</g>
</g>
<!-- Node3 -->
<g id="Node000003" class="node">
<title>Node3</title>
<g id="a_Node000003"><a xlink:href="classllzk_1_1component_1_1detail_1_1_field_read_op_generic_adaptor_base.html" target="_top" xlink:title=" ">
<polygon fill="white" stroke="#666666" points="169,-176.75 0,-176.75 0,-146.25 169,-146.25 169,-176.75"/>
<text text-anchor="start" x="8" y="-163.25" font-family="Helvetica,sans-Serif" font-size="10.00">llzk::component::detail</text>
<text text-anchor="middle" x="84.5" y="-152" font-family="Helvetica,sans-Serif" font-size="10.00">::FieldReadOpGenericAdaptorBase</text>
</a>
</g>
</g>
<!-- Node3&#45;&gt;Node2 -->
<g id="edge2_Node000002_Node000003" class="edge">
<title>Node3&#45;&gt;Node2</title>
<g id="a_edge2_Node000002_Node000003"><a xlink:title=" ">
<path fill="none" stroke="#63b8ff" d="M84.5,-134.45C84.5,-126.21 84.5,-117.24 84.5,-109.49"/>
<polygon fill="#63b8ff" stroke="#63b8ff" points="81,-134.25 84.5,-144.25 88,-134.25 81,-134.25"/>
</a>
</g>
</g>
<!-- Node4 -->
<g id="Node000004" class="node">
<title>Node4</title>
<g id="a_Node000004"><a xlink:href="structllzk_1_1component_1_1detail_1_1_field_read_op_generic_adaptor_base_1_1_properties.html" target="_top" xlink:title=" ">
<polygon fill="white" stroke="#666666" points="169,-265.75 0,-265.75 0,-224 169,-224 169,-265.75"/>
<text text-anchor="start" x="8" y="-252.25" font-family="Helvetica,sans-Serif" font-size="10.00">llzk::component::detail</text>
<text text-anchor="start" x="8" y="-241" font-family="Helvetica,sans-Serif" font-size="10.00">::FieldReadOpGenericAdaptorBase</text>
<text text-anchor="middle" x="84.5" y="-229.75" font-family="Helvetica,sans-Serif" font-size="10.00">::Properties</text>
</a>
</g>
</g>
<!-- Node4&#45;&gt;Node3 -->
<g id="edge3_Node000003_Node000004" class="edge">
<title>Node4&#45;&gt;Node3</title>
<g id="a_edge3_Node000003_Node000004"><a xlink:title=" ">
<path fill="none" stroke="#9a32cd" stroke-dasharray="5,2" d="M84.5,-212.55C84.5,-200.32 84.5,-186.89 84.5,-177.02"/>
<polygon fill="#9a32cd" stroke="#9a32cd" points="81,-212.25 84.5,-222.25 88,-212.25 81,-212.25"/>
</a>
</g>
<text text-anchor="middle" x="107.38" y="-196.5" font-family="Helvetica,sans-Serif" font-size="10.00" fill="grey"> properties</text>
</g>
</g>
</svg>
