<?xml version="1.0" encoding="UTF-8" standalone="no"?>
<!DOCTYPE svg PUBLIC "-//W3C//DTD SVG 1.1//EN"
 "http://www.w3.org/Graphics/SVG/1.1/DTD/svg11.dtd">
<!-- Generated by graphviz version 12.2.1 (0)
 -->
<!-- Title: llzk::string::LitStringOpAdaptor Pages: 1 -->
<svg width="169pt" height="274pt"
 viewBox="0.00 0.00 168.75 273.75" xmlns="http://www.w3.org/2000/svg" xmlns:xlink="http://www.w3.org/1999/xlink">
<g id="graph0" class="graph" transform="scale(1 1) rotate(0) translate(4 269.75)">
<title>llzk::string::LitStringOpAdaptor</title>
<!-- Node1 -->
<g id="Node000001" class="node">
<title>Node1</title>
<g id="a_Node000001"><a xlink:title=" ">
<polygon fill="#999999" stroke="#666666" points="138.25,-30.5 22.5,-30.5 22.5,0 138.25,0 138.25,-30.5"/>
<text text-anchor="start" x="30.5" y="-17" font-family="Helvetica,sans-Serif" font-size="10.00">llzk::string::LitStringOp</text>
<text text-anchor="middle" x="80.38" y="-5.75" font-family="Helvetica,sans-Serif" font-size="10.00">Adaptor</text>
</a>
</g>
</g>
<!-- Node2 -->
<g id="Node000002" class="node">
<title>Node2</title>
<g id="a_Node000002"><a xlink:href="classllzk_1_1string_1_1_lit_string_op_generic_adaptor.html" target="_top" xlink:title=" ">
<polygon fill="white" stroke="#666666" points="139,-109.25 21.75,-109.25 21.75,-67.5 139,-67.5 139,-109.25"/>
<text text-anchor="start" x="29.75" y="-95.75" font-family="Helvetica,sans-Serif" font-size="10.00">llzk::string::LitStringOp</text>
<text text-anchor="start" x="29.75" y="-84.5" font-family="Helvetica,sans-Serif" font-size="10.00">GenericAdaptor&lt;::mlir::</text>
<text text-anchor="middle" x="80.38" y="-73.25" font-family="Helvetica,sans-Serif" font-size="10.00">ValueRange &gt;</text>
</a>
</g>
</g>
<!-- Node2&#45;&gt;Node1 -->
<g id="edge1_Node000001_Node000002" class="edge">
<title>Node2&#45;&gt;Node1</title>
<g id="a_edge1_Node000001_Node000002"><a xlink:title=" ">
<path fill="none" stroke="#63b8ff" d="M80.38,-55.95C80.38,-47.11 80.38,-37.92 80.38,-30.62"/>
<polygon fill="#63b8ff" stroke="#63b8ff" points="76.88,-55.67 80.38,-65.67 83.88,-55.67 76.88,-55.67"/>
</a>
</g>
</g>
<!-- Node3 -->
<g id="Node000003" class="node">
<title>Node3</title>
<g id="a_Node000003"><a xlink:href="classllzk_1_1string_1_1detail_1_1_lit_string_op_generic_adaptor_base.html" target="_top" xlink:title=" ">
<polygon fill="white" stroke="#666666" points="160.75,-176.75 0,-176.75 0,-146.25 160.75,-146.25 160.75,-176.75"/>
<text text-anchor="start" x="8" y="-163.25" font-family="Helvetica,sans-Serif" font-size="10.00">llzk::string::detail</text>
<text text-anchor="middle" x="80.38" y="-152" font-family="Helvetica,sans-Serif" font-size="10.00">::LitStringOpGenericAdaptorBase</text>
</a>
</g>
</g>
<!-- Node3&#45;&gt;Node2 -->
<g id="edge2_Node000002_Node000003" class="edge">
<title>Node3&#45;&gt;Node2</title>
<g id="a_edge2_Node000002_Node000003"><a xlink:title=" ">
<path fill="none" stroke="#63b8ff" d="M80.38,-134.45C80.38,-126.21 80.38,-117.24 80.38,-109.49"/>
<polygon fill="#63b8ff" stroke="#63b8ff" points="76.88,-134.25 80.38,-144.25 83.88,-134.25 76.88,-134.25"/>
</a>
</g>
</g>
<!-- Node4 -->
<g id="Node000004" class="node">
<title>Node4</title>
<g id="a_Node000004"><a xlink:href="structllzk_1_1string_1_1detail_1_1_lit_string_op_generic_adaptor_base_1_1_properties.html" target="_top" xlink:title=" ">
<polygon fill="white" stroke="#666666" points="149.5,-265.75 11.25,-265.75 11.25,-224 149.5,-224 149.5,-265.75"/>
<text text-anchor="start" x="19.25" y="-252.25" font-family="Helvetica,sans-Serif" font-size="10.00">llzk::string::detail</text>
<text text-anchor="start" x="19.25" y="-241" font-family="Helvetica,sans-Serif" font-size="10.00">::LitStringOpGenericAdaptor</text>
<text text-anchor="middle" x="80.38" y="-229.75" font-family="Helvetica,sans-Serif" font-size="10.00">Base::Properties</text>
</a>
</g>
</g>
<!-- Node4&#45;&gt;Node3 -->
<g id="edge3_Node000003_Node000004" class="edge">
<title>Node4&#45;&gt;Node3</title>
<g id="a_edge3_Node000003_Node000004"><a xlink:title=" ">
<path fill="none" stroke="#9a32cd" stroke-dasharray="5,2" d="M80.38,-212.55C80.38,-200.32 80.38,-186.89 80.38,-177.02"/>
<polygon fill="#9a32cd" stroke="#9a32cd" points="76.88,-212.25 80.38,-222.25 83.88,-212.25 76.88,-212.25"/>
</a>
</g>
<text text-anchor="middle" x="103.25" y="-196.5" font-family="Helvetica,sans-Serif" font-size="10.00" fill="grey"> properties</text>
</g>
</g>
</svg>
