<?xml version="1.0" encoding="UTF-8" standalone="no"?>
<!DOCTYPE svg PUBLIC "-//W3C//DTD SVG 1.1//EN"
 "http://www.w3.org/Graphics/SVG/1.1/DTD/svg11.dtd">
<!-- Generated by graphviz version 12.2.1 (0)
 -->
<!-- Title: llzk::component::FieldReadOpAdaptor Pages: 1 -->
<svg width="177pt" height="183pt"
 viewBox="0.00 0.00 177.00 182.75" xmlns="http://www.w3.org/2000/svg" xmlns:xlink="http://www.w3.org/1999/xlink">
<g id="graph0" class="graph" transform="scale(1 1) rotate(0) translate(4 178.75)">
<title>llzk::component::FieldReadOpAdaptor</title>
<!-- Node1 -->
<g id="Node000001" class="node">
<title>Node1</title>
<g id="a_Node000001"><a xlink:title=" ">
<polygon fill="#999999" stroke="#666666" points="152.12,-30.5 16.88,-30.5 16.88,0 152.12,0 152.12,-30.5"/>
<text text-anchor="start" x="24.88" y="-17" font-family="Helvetica,sans-Serif" font-size="10.00">llzk::component::FieldRead</text>
<text text-anchor="middle" x="84.5" y="-5.75" font-family="Helvetica,sans-Serif" font-size="10.00">OpAdaptor</text>
</a>
</g>
</g>
<!-- Node2 -->
<g id="Node000002" class="node">
<title>Node2</title>
<g id="a_Node000002"><a xlink:href="classllzk_1_1component_1_1_field_read_op_generic_adaptor.html" target="_top" xlink:title=" ">
<polygon fill="white" stroke="#666666" points="152.12,-108.25 16.88,-108.25 16.88,-66.5 152.12,-66.5 152.12,-108.25"/>
<text text-anchor="start" x="24.88" y="-94.75" font-family="Helvetica,sans-Serif" font-size="10.00">llzk::component::FieldRead</text>
<text text-anchor="start" x="24.88" y="-83.5" font-family="Helvetica,sans-Serif" font-size="10.00">OpGenericAdaptor&lt;::mlir</text>
<text text-anchor="middle" x="84.5" y="-72.25" font-family="Helvetica,sans-Serif" font-size="10.00">::ValueRange &gt;</text>
</a>
</g>
</g>
<!-- Node2&#45;&gt;Node1 -->
<g id="edge1_Node000001_Node000002" class="edge">
<title>Node2&#45;&gt;Node1</title>
<g id="a_edge1_Node000001_Node000002"><a xlink:title=" ">
<path fill="none" stroke="#63b8ff" d="M84.5,-54.63C84.5,-46.27 84.5,-37.65 84.5,-30.7"/>
<polygon fill="#63b8ff" stroke="#63b8ff" points="81,-54.58 84.5,-64.58 88,-54.58 81,-54.58"/>
</a>
</g>
</g>
<!-- Node3 -->
<g id="Node000003" class="node">
<title>Node3</title>
<g id="a_Node000003"><a xlink:href="classllzk_1_1component_1_1detail_1_1_field_read_op_generic_adaptor_base.html" target="_top" xlink:title=" ">
<polygon fill="white" stroke="#666666" points="169,-174.75 0,-174.75 0,-144.25 169,-144.25 169,-174.75"/>
<text text-anchor="start" x="8" y="-161.25" font-family="Helvetica,sans-Serif" font-size="10.00">llzk::component::detail</text>
<text text-anchor="middle" x="84.5" y="-150" font-family="Helvetica,sans-Serif" font-size="10.00">::FieldReadOpGenericAdaptorBase</text>
</a>
</g>
</g>
<!-- Node3&#45;&gt;Node2 -->
<g id="edge2_Node000002_Node000003" class="edge">
<title>Node3&#45;&gt;Node2</title>
<g id="a_edge2_Node000002_Node000003"><a xlink:title=" ">
<path fill="none" stroke="#63b8ff" d="M84.5,-132.72C84.5,-124.81 84.5,-116.23 84.5,-108.74"/>
<polygon fill="#63b8ff" stroke="#63b8ff" points="81,-132.46 84.5,-142.46 88,-132.46 81,-132.46"/>
</a>
</g>
</g>
</g>
</svg>
