<?xml version="1.0" encoding="UTF-8" standalone="no"?>
<!DOCTYPE svg PUBLIC "-//W3C//DTD SVG 1.1//EN"
 "http://www.w3.org/Graphics/SVG/1.1/DTD/svg11.dtd">
<!-- Generated by graphviz version 12.2.1 (0)
 -->
<!-- Title: llzk::ConstrainRefAnalysis Pages: 1 -->
<svg width="209pt" height="216pt"
 viewBox="0.00 0.00 208.50 215.50" xmlns="http://www.w3.org/2000/svg" xmlns:xlink="http://www.w3.org/1999/xlink">
<g id="graph0" class="graph" transform="scale(1 1) rotate(0) translate(4 211.5)">
<title>llzk::ConstrainRefAnalysis</title>
<!-- Node1 -->
<g id="Node000001" class="node">
<title>Node1</title>
<g id="a_Node000001"><a xlink:title="The dataflow analysis that computes the set of references that LLZK operations use and produce.">
<polygon fill="#999999" stroke="#666666" points="166.38,-19.25 34.12,-19.25 34.12,0 166.38,0 166.38,-19.25"/>
<text text-anchor="middle" x="100.25" y="-5.75" font-family="Helvetica,sans-Serif" font-size="10.00">llzk::ConstrainRefAnalysis</text>
</a>
</g>
</g>
<!-- Node2 -->
<g id="Node000002" class="node">
<title>Node2</title>
<g id="a_Node000002"><a xlink:href="classllzk_1_1dataflow_1_1_dense_forward_data_flow_analysis.html" target="_top" xlink:title=" ">
<polygon fill="white" stroke="#666666" points="200.5,-85.75 0,-85.75 0,-55.25 200.5,-55.25 200.5,-85.75"/>
<text text-anchor="start" x="8" y="-72.25" font-family="Helvetica,sans-Serif" font-size="10.00">llzk::dataflow::DenseForward</text>
<text text-anchor="middle" x="100.25" y="-61" font-family="Helvetica,sans-Serif" font-size="10.00">DataFlowAnalysis&lt; ConstrainRefLattice &gt;</text>
</a>
</g>
</g>
<!-- Node2&#45;&gt;Node1 -->
<g id="edge1_Node000001_Node000002" class="edge">
<title>Node2&#45;&gt;Node1</title>
<g id="a_edge1_Node000001_Node000002"><a xlink:title=" ">
<path fill="none" stroke="#63b8ff" d="M100.25,-43.48C100.25,-34.98 100.25,-26.09 100.25,-19.7"/>
<polygon fill="#63b8ff" stroke="#63b8ff" points="96.75,-43.43 100.25,-53.43 103.75,-43.43 96.75,-43.43"/>
</a>
</g>
</g>
<!-- Node3 -->
<g id="Node000003" class="node">
<title>Node3</title>
<g id="a_Node000003"><a xlink:href="classllzk_1_1dataflow_1_1_abstract_dense_forward_data_flow_analysis.html" target="_top" xlink:title="LLZK: This class has been ported from the MLIR DenseAnalysis utilities to allow for the use of custom...">
<polygon fill="white" stroke="#666666" points="179.88,-152.25 20.62,-152.25 20.62,-121.75 179.88,-121.75 179.88,-152.25"/>
<text text-anchor="start" x="28.62" y="-138.75" font-family="Helvetica,sans-Serif" font-size="10.00">llzk::dataflow::Abstract</text>
<text text-anchor="middle" x="100.25" y="-127.5" font-family="Helvetica,sans-Serif" font-size="10.00">DenseForwardDataFlowAnalysis</text>
</a>
</g>
</g>
<!-- Node3&#45;&gt;Node2 -->
<g id="edge2_Node000002_Node000003" class="edge">
<title>Node3&#45;&gt;Node2</title>
<g id="a_edge2_Node000002_Node000003"><a xlink:title=" ">
<path fill="none" stroke="#63b8ff" d="M100.25,-110.06C100.25,-101.89 100.25,-93.16 100.25,-86.08"/>
<polygon fill="#63b8ff" stroke="#63b8ff" points="96.75,-109.85 100.25,-119.85 103.75,-109.85 96.75,-109.85"/>
</a>
</g>
</g>
<!-- Node4 -->
<g id="Node000004" class="node">
<title>Node4</title>
<g id="a_Node000004"><a xlink:title=" ">
<polygon fill="white" stroke="#666666" points="158.88,-207.5 41.62,-207.5 41.62,-188.25 158.88,-188.25 158.88,-207.5"/>
<text text-anchor="middle" x="100.25" y="-194" font-family="Helvetica,sans-Serif" font-size="10.00">mlir::DataFlowAnalysis</text>
</a>
</g>
</g>
<!-- Node4&#45;&gt;Node3 -->
<g id="edge3_Node000003_Node000004" class="edge">
<title>Node4&#45;&gt;Node3</title>
<g id="a_edge3_Node000003_Node000004"><a xlink:title=" ">
<path fill="none" stroke="#63b8ff" d="M100.25,-176.67C100.25,-168.74 100.25,-159.81 100.25,-152.53"/>
<polygon fill="#63b8ff" stroke="#63b8ff" points="96.75,-176.42 100.25,-186.42 103.75,-176.42 96.75,-176.42"/>
</a>
</g>
</g>
</g>
</svg>
