<?xml version="1.0" encoding="UTF-8" standalone="no"?>
<!DOCTYPE svg PUBLIC "-//W3C//DTD SVG 1.1//EN"
 "http://www.w3.org/Graphics/SVG/1.1/DTD/svg11.dtd">
<!-- Generated by graphviz version 12.2.1 (0)
 -->
<!-- Title: llzk::global::detail::GlobalDefOpGenericAdaptorBase Pages: 1 -->
<svg width="517pt" height="158pt"
 viewBox="0.00 0.00 516.50 158.12" xmlns="http://www.w3.org/2000/svg" xmlns:xlink="http://www.w3.org/1999/xlink">
<g id="graph0" class="graph" transform="scale(1 1) rotate(0) translate(4 154.12)">
<title>llzk::global::detail::GlobalDefOpGenericAdaptorBase</title>
<!-- Node1 -->
<g id="Node000001" class="node">
<title>Node1</title>
<g id="a_Node000001"><a xlink:title=" ">
<polygon fill="#999999" stroke="#666666" points="168.25,-84.5 0,-84.5 0,-54 168.25,-54 168.25,-84.5"/>
<text text-anchor="start" x="8" y="-71" font-family="Helvetica,sans-Serif" font-size="10.00">llzk::global::detail</text>
<text text-anchor="middle" x="84.12" y="-59.75" font-family="Helvetica,sans-Serif" font-size="10.00">::GlobalDefOpGenericAdaptorBase</text>
</a>
</g>
</g>
<!-- Node2 -->
<g id="Node000002" class="node">
<title>Node2</title>
<g id="a_Node000002"><a xlink:href="classllzk_1_1global_1_1_global_def_op_generic_adaptor.html" target="_top" xlink:title=" ">
<polygon fill="white" stroke="#666666" points="347.75,-150.12 204.25,-150.12 204.25,-108.38 347.75,-108.38 347.75,-150.12"/>
<text text-anchor="start" x="212.25" y="-136.62" font-family="Helvetica,sans-Serif" font-size="10.00">llzk::global::GlobalDefOp</text>
<text text-anchor="start" x="212.25" y="-125.38" font-family="Helvetica,sans-Serif" font-size="10.00">GenericAdaptor&lt;::llvm::</text>
<text text-anchor="middle" x="276" y="-114.12" font-family="Helvetica,sans-Serif" font-size="10.00">ArrayRef&lt;::mlir::Attribute &gt; &gt;</text>
</a>
</g>
</g>
<!-- Node1&#45;&gt;Node2 -->
<g id="edge1_Node000001_Node000002" class="edge">
<title>Node1&#45;&gt;Node2</title>
<g id="a_edge1_Node000001_Node000002"><a xlink:title=" ">
<path fill="none" stroke="#63b8ff" d="M145.27,-88.26C165.1,-94.52 187.29,-101.53 207.63,-107.96"/>
<polygon fill="#63b8ff" stroke="#63b8ff" points="146.55,-84.99 135.96,-85.31 144.44,-91.66 146.55,-84.99"/>
</a>
</g>
</g>
<!-- Node3 -->
<g id="Node000003" class="node">
<title>Node3</title>
<g id="a_Node000003"><a xlink:href="classllzk_1_1global_1_1_global_def_op_generic_adaptor.html" target="_top" xlink:title=" ">
<polygon fill="white" stroke="#666666" points="338.38,-90.12 213.62,-90.12 213.62,-48.38 338.38,-48.38 338.38,-90.12"/>
<text text-anchor="start" x="221.62" y="-76.62" font-family="Helvetica,sans-Serif" font-size="10.00">llzk::global::GlobalDefOp</text>
<text text-anchor="start" x="221.62" y="-65.38" font-family="Helvetica,sans-Serif" font-size="10.00">GenericAdaptor&lt;::mlir::</text>
<text text-anchor="middle" x="276" y="-54.12" font-family="Helvetica,sans-Serif" font-size="10.00">ValueRange &gt;</text>
</a>
</g>
</g>
<!-- Node1&#45;&gt;Node3 -->
<g id="edge2_Node000001_Node000003" class="edge">
<title>Node1&#45;&gt;Node3</title>
<g id="a_edge2_Node000001_Node000003"><a xlink:title=" ">
<path fill="none" stroke="#63b8ff" d="M180,-69.25C191.34,-69.25 202.68,-69.25 213.38,-69.25"/>
<polygon fill="#63b8ff" stroke="#63b8ff" points="180.2,-65.75 170.2,-69.25 180.2,-72.75 180.2,-65.75"/>
</a>
</g>
</g>
<!-- Node5 -->
<g id="Node000005" class="node">
<title>Node5</title>
<g id="a_Node000005"><a xlink:href="classllzk_1_1global_1_1_global_def_op_generic_adaptor.html" target="_top" xlink:title=" ">
<polygon fill="white" stroke="#666666" points="344,-30.5 208,-30.5 208,0 344,0 344,-30.5"/>
<text text-anchor="start" x="216" y="-17" font-family="Helvetica,sans-Serif" font-size="10.00">llzk::global::GlobalDefOp</text>
<text text-anchor="middle" x="276" y="-5.75" font-family="Helvetica,sans-Serif" font-size="10.00">GenericAdaptor&lt; RangeT &gt;</text>
</a>
</g>
</g>
<!-- Node1&#45;&gt;Node5 -->
<g id="edge4_Node000001_Node000005" class="edge">
<title>Node1&#45;&gt;Node5</title>
<g id="a_edge4_Node000001_Node000005"><a xlink:title=" ">
<path fill="none" stroke="#63b8ff" d="M151.07,-50.49C173.46,-44.13 198.22,-37.09 219.69,-30.98"/>
<polygon fill="#63b8ff" stroke="#63b8ff" points="150.42,-47.04 141.76,-53.14 152.33,-53.78 150.42,-47.04"/>
</a>
</g>
</g>
<!-- Node4 -->
<g id="Node000004" class="node">
<title>Node4</title>
<g id="a_Node000004"><a xlink:href="classllzk_1_1global_1_1_global_def_op_adaptor.html" target="_top" xlink:title=" ">
<polygon fill="white" stroke="#666666" points="508.5,-84.5 383.75,-84.5 383.75,-54 508.5,-54 508.5,-84.5"/>
<text text-anchor="start" x="391.75" y="-71" font-family="Helvetica,sans-Serif" font-size="10.00">llzk::global::GlobalDefOp</text>
<text text-anchor="middle" x="446.12" y="-59.75" font-family="Helvetica,sans-Serif" font-size="10.00">Adaptor</text>
</a>
</g>
</g>
<!-- Node3&#45;&gt;Node4 -->
<g id="edge3_Node000003_Node000004" class="edge">
<title>Node3&#45;&gt;Node4</title>
<g id="a_edge3_Node000003_Node000004"><a xlink:title=" ">
<path fill="none" stroke="#63b8ff" d="M350.12,-69.25C361.25,-69.25 372.63,-69.25 383.48,-69.25"/>
<polygon fill="#63b8ff" stroke="#63b8ff" points="350.16,-65.75 340.16,-69.25 350.16,-72.75 350.16,-65.75"/>
</a>
</g>
</g>
</g>
</svg>
