<?xml version="1.0" encoding="UTF-8" standalone="no"?>
<!DOCTYPE svg PUBLIC "-//W3C//DTD SVG 1.1//EN"
 "http://www.w3.org/Graphics/SVG/1.1/DTD/svg11.dtd">
<!-- Generated by graphviz version 12.2.1 (0)
 -->
<!-- Title: llzk::ConstraintDependencyGraphPrinterPass Pages: 1 -->
<svg width="544pt" height="50pt"
 viewBox="0.00 0.00 544.25 49.75" xmlns="http://www.w3.org/2000/svg" xmlns:xlink="http://www.w3.org/1999/xlink">
<g id="graph0" class="graph" transform="scale(1 1) rotate(0) translate(4 45.75)">
<title>llzk::ConstraintDependencyGraphPrinterPass</title>
<!-- Node1 -->
<g id="Node000001" class="node">
<title>Node1</title>
<g id="a_Node000001"><a xlink:title=" ">
<polygon fill="#999999" stroke="#666666" points="536.25,-36.12 399.5,-36.12 399.5,-5.62 536.25,-5.62 536.25,-36.12"/>
<text text-anchor="start" x="407.5" y="-22.62" font-family="Helvetica,sans-Serif" font-size="10.00">llzk::ConstraintDependency</text>
<text text-anchor="middle" x="467.88" y="-11.38" font-family="Helvetica,sans-Serif" font-size="10.00">GraphPrinterPass</text>
</a>
</g>
</g>
<!-- Node2 -->
<g id="Node000002" class="node">
<title>Node2</title>
<g id="a_Node000002"><a xlink:href="classllzk_1_1impl_1_1_constraint_dependency_graph_printer_pass_base.html" target="_top" xlink:title=" ">
<polygon fill="white" stroke="#666666" points="363.5,-41.75 139,-41.75 139,0 363.5,0 363.5,-41.75"/>
<text text-anchor="start" x="147" y="-28.25" font-family="Helvetica,sans-Serif" font-size="10.00">llzk::impl::ConstraintDependency</text>
<text text-anchor="start" x="147" y="-17" font-family="Helvetica,sans-Serif" font-size="10.00">GraphPrinterPassBase&lt; ConstraintDependency</text>
<text text-anchor="middle" x="251.25" y="-5.75" font-family="Helvetica,sans-Serif" font-size="10.00">GraphPrinterPass &gt;</text>
</a>
</g>
</g>
<!-- Node2&#45;&gt;Node1 -->
<g id="edge1_Node000001_Node000002" class="edge">
<title>Node2&#45;&gt;Node1</title>
<g id="a_edge1_Node000001_Node000002"><a xlink:title=" ">
<path fill="none" stroke="#63b8ff" d="M375.47,-20.88C383.56,-20.88 391.54,-20.88 399.19,-20.88"/>
<polygon fill="#63b8ff" stroke="#63b8ff" points="375.48,-17.38 365.48,-20.88 375.48,-24.38 375.48,-17.38"/>
</a>
</g>
</g>
<!-- Node3 -->
<g id="Node000003" class="node">
<title>Node3</title>
<g id="a_Node000003"><a xlink:title=" ">
<polygon fill="white" stroke="#666666" points="103,-36.12 0,-36.12 0,-5.62 103,-5.62 103,-36.12"/>
<text text-anchor="start" x="8" y="-22.62" font-family="Helvetica,sans-Serif" font-size="10.00">mlir::OperationPass</text>
<text text-anchor="middle" x="51.5" y="-11.38" font-family="Helvetica,sans-Serif" font-size="10.00">&lt;::mlir::ModuleOp &gt;</text>
</a>
</g>
</g>
<!-- Node3&#45;&gt;Node2 -->
<g id="edge2_Node000002_Node000003" class="edge">
<title>Node3&#45;&gt;Node2</title>
<g id="a_edge2_Node000002_Node000003"><a xlink:title=" ">
<path fill="none" stroke="#63b8ff" d="M114.82,-20.88C122.52,-20.88 130.57,-20.88 138.73,-20.88"/>
<polygon fill="#63b8ff" stroke="#63b8ff" points="114.94,-17.38 104.94,-20.88 114.94,-24.38 114.94,-17.38"/>
</a>
</g>
</g>
</g>
</svg>
