<?xml version="1.0" encoding="UTF-8" standalone="no"?>
<!DOCTYPE svg PUBLIC "-//W3C//DTD SVG 1.1//EN"
 "http://www.w3.org/Graphics/SVG/1.1/DTD/svg11.dtd">
<!-- Generated by graphviz version 12.2.1 (0)
 -->
<!-- Title: llzk::array::detail::WriteArrayOpGenericAdaptorBase Pages: 1 -->
<svg width="517pt" height="158pt"
 viewBox="0.00 0.00 517.25 158.12" xmlns="http://www.w3.org/2000/svg" xmlns:xlink="http://www.w3.org/1999/xlink">
<g id="graph0" class="graph" transform="scale(1 1) rotate(0) translate(4 154.12)">
<title>llzk::array::detail::WriteArrayOpGenericAdaptorBase</title>
<!-- Node1 -->
<g id="Node000001" class="node">
<title>Node1</title>
<g id="a_Node000001"><a xlink:title=" ">
<polygon fill="#999999" stroke="#666666" points="170.5,-84.5 0,-84.5 0,-54 170.5,-54 170.5,-84.5"/>
<text text-anchor="start" x="8" y="-71" font-family="Helvetica,sans-Serif" font-size="10.00">llzk::array::detail</text>
<text text-anchor="middle" x="85.25" y="-59.75" font-family="Helvetica,sans-Serif" font-size="10.00">::WriteArrayOpGenericAdaptorBase</text>
</a>
</g>
</g>
<!-- Node2 -->
<g id="Node000002" class="node">
<title>Node2</title>
<g id="a_Node000002"><a xlink:href="classllzk_1_1array_1_1_write_array_op_generic_adaptor.html" target="_top" xlink:title=" ">
<polygon fill="white" stroke="#666666" points="350,-150.12 206.5,-150.12 206.5,-108.38 350,-108.38 350,-150.12"/>
<text text-anchor="start" x="214.5" y="-136.62" font-family="Helvetica,sans-Serif" font-size="10.00">llzk::array::WriteArrayOp</text>
<text text-anchor="start" x="214.5" y="-125.38" font-family="Helvetica,sans-Serif" font-size="10.00">GenericAdaptor&lt;::llvm::</text>
<text text-anchor="middle" x="278.25" y="-114.12" font-family="Helvetica,sans-Serif" font-size="10.00">ArrayRef&lt;::mlir::Attribute &gt; &gt;</text>
</a>
</g>
</g>
<!-- Node1&#45;&gt;Node2 -->
<g id="edge1_Node000001_Node000002" class="edge">
<title>Node1&#45;&gt;Node2</title>
<g id="a_edge1_Node000001_Node000002"><a xlink:title=" ">
<path fill="none" stroke="#63b8ff" d="M146.75,-88.26C166.7,-94.52 189.02,-101.53 209.48,-107.96"/>
<polygon fill="#63b8ff" stroke="#63b8ff" points="147.97,-84.97 137.38,-85.31 145.87,-91.65 147.97,-84.97"/>
</a>
</g>
</g>
<!-- Node3 -->
<g id="Node000003" class="node">
<title>Node3</title>
<g id="a_Node000003"><a xlink:href="classllzk_1_1array_1_1_write_array_op_generic_adaptor.html" target="_top" xlink:title=" ">
<polygon fill="white" stroke="#666666" points="339.88,-90.12 216.62,-90.12 216.62,-48.38 339.88,-48.38 339.88,-90.12"/>
<text text-anchor="start" x="224.62" y="-76.62" font-family="Helvetica,sans-Serif" font-size="10.00">llzk::array::WriteArrayOp</text>
<text text-anchor="start" x="224.62" y="-65.38" font-family="Helvetica,sans-Serif" font-size="10.00">GenericAdaptor&lt;::mlir::</text>
<text text-anchor="middle" x="278.25" y="-54.12" font-family="Helvetica,sans-Serif" font-size="10.00">ValueRange &gt;</text>
</a>
</g>
</g>
<!-- Node1&#45;&gt;Node3 -->
<g id="edge2_Node000001_Node000003" class="edge">
<title>Node1&#45;&gt;Node3</title>
<g id="a_edge2_Node000001_Node000003"><a xlink:title=" ">
<path fill="none" stroke="#63b8ff" d="M182.36,-69.25C193.87,-69.25 205.38,-69.25 216.2,-69.25"/>
<polygon fill="#63b8ff" stroke="#63b8ff" points="182.37,-65.75 172.37,-69.25 182.37,-72.75 182.37,-65.75"/>
</a>
</g>
</g>
<!-- Node5 -->
<g id="Node000005" class="node">
<title>Node5</title>
<g id="a_Node000005"><a xlink:href="classllzk_1_1array_1_1_write_array_op_generic_adaptor.html" target="_top" xlink:title=" ">
<polygon fill="white" stroke="#666666" points="346.25,-30.5 210.25,-30.5 210.25,0 346.25,0 346.25,-30.5"/>
<text text-anchor="start" x="218.25" y="-17" font-family="Helvetica,sans-Serif" font-size="10.00">llzk::array::WriteArrayOp</text>
<text text-anchor="middle" x="278.25" y="-5.75" font-family="Helvetica,sans-Serif" font-size="10.00">GenericAdaptor&lt; RangeT &gt;</text>
</a>
</g>
</g>
<!-- Node1&#45;&gt;Node5 -->
<g id="edge4_Node000001_Node000005" class="edge">
<title>Node1&#45;&gt;Node5</title>
<g id="a_edge4_Node000001_Node000005"><a xlink:title=" ">
<path fill="none" stroke="#63b8ff" d="M152.59,-50.49C175.11,-44.13 200.01,-37.09 221.61,-30.98"/>
<polygon fill="#63b8ff" stroke="#63b8ff" points="151.88,-47.06 143.21,-53.15 153.78,-53.79 151.88,-47.06"/>
</a>
</g>
</g>
<!-- Node4 -->
<g id="Node000004" class="node">
<title>Node4</title>
<g id="a_Node000004"><a xlink:href="classllzk_1_1array_1_1_write_array_op_adaptor.html" target="_top" xlink:title=" ">
<polygon fill="white" stroke="#666666" points="509.25,-84.5 386,-84.5 386,-54 509.25,-54 509.25,-84.5"/>
<text text-anchor="start" x="394" y="-71" font-family="Helvetica,sans-Serif" font-size="10.00">llzk::array::WriteArrayOp</text>
<text text-anchor="middle" x="447.62" y="-59.75" font-family="Helvetica,sans-Serif" font-size="10.00">Adaptor</text>
</a>
</g>
</g>
<!-- Node3&#45;&gt;Node4 -->
<g id="edge3_Node000003_Node000004" class="edge">
<title>Node3&#45;&gt;Node4</title>
<g id="a_edge3_Node000003_Node000004"><a xlink:title=" ">
<path fill="none" stroke="#63b8ff" d="M351.46,-69.25C362.9,-69.25 374.63,-69.25 385.77,-69.25"/>
<polygon fill="#63b8ff" stroke="#63b8ff" points="351.66,-65.75 341.66,-69.25 351.66,-72.75 351.66,-65.75"/>
</a>
</g>
</g>
</g>
</svg>
