<?xml version="1.0" encoding="UTF-8" standalone="no"?>
<!DOCTYPE svg PUBLIC "-//W3C//DTD SVG 1.1//EN"
 "http://www.w3.org/Graphics/SVG/1.1/DTD/svg11.dtd">
<!-- Generated by graphviz version 12.2.1 (0)
 -->
<!-- Title: llzk::IntervalAnalysisPrinterPass Pages: 1 -->
<svg width="176pt" height="172pt"
 viewBox="0.00 0.00 176.25 171.50" xmlns="http://www.w3.org/2000/svg" xmlns:xlink="http://www.w3.org/1999/xlink">
<g id="graph0" class="graph" transform="scale(1 1) rotate(0) translate(4 167.5)">
<title>llzk::IntervalAnalysisPrinterPass</title>
<!-- Node1 -->
<g id="Node000001" class="node">
<title>Node1</title>
<g id="a_Node000001"><a xlink:title=" ">
<polygon fill="#999999" stroke="#666666" points="163,-19.25 5.25,-19.25 5.25,0 163,0 163,-19.25"/>
<text text-anchor="middle" x="84.12" y="-5.75" font-family="Helvetica,sans-Serif" font-size="10.00">llzk::IntervalAnalysisPrinterPass</text>
</a>
</g>
</g>
<!-- Node2 -->
<g id="Node000002" class="node">
<title>Node2</title>
<g id="a_Node000002"><a xlink:href="classllzk_1_1impl_1_1_interval_analysis_printer_pass_base.html" target="_top" xlink:title=" ">
<polygon fill="white" stroke="#666666" points="168.25,-97 0,-97 0,-55.25 168.25,-55.25 168.25,-97"/>
<text text-anchor="start" x="8" y="-83.5" font-family="Helvetica,sans-Serif" font-size="10.00">llzk::impl::IntervalAnalysis</text>
<text text-anchor="start" x="8" y="-72.25" font-family="Helvetica,sans-Serif" font-size="10.00">PrinterPassBase&lt; IntervalAnalysis</text>
<text text-anchor="middle" x="84.12" y="-61" font-family="Helvetica,sans-Serif" font-size="10.00">PrinterPass &gt;</text>
</a>
</g>
</g>
<!-- Node2&#45;&gt;Node1 -->
<g id="edge1_Node000001_Node000002" class="edge">
<title>Node2&#45;&gt;Node1</title>
<g id="a_edge1_Node000001_Node000002"><a xlink:title=" ">
<path fill="none" stroke="#63b8ff" d="M84.12,-43.76C84.12,-34.95 84.12,-26.05 84.12,-19.7"/>
<polygon fill="#63b8ff" stroke="#63b8ff" points="80.63,-43.56 84.13,-53.56 87.63,-43.56 80.63,-43.56"/>
</a>
</g>
</g>
<!-- Node3 -->
<g id="Node000003" class="node">
<title>Node3</title>
<g id="a_Node000003"><a xlink:title=" ">
<polygon fill="white" stroke="#666666" points="135.62,-163.5 32.62,-163.5 32.62,-133 135.62,-133 135.62,-163.5"/>
<text text-anchor="start" x="40.62" y="-150" font-family="Helvetica,sans-Serif" font-size="10.00">mlir::OperationPass</text>
<text text-anchor="middle" x="84.12" y="-138.75" font-family="Helvetica,sans-Serif" font-size="10.00">&lt;::mlir::ModuleOp &gt;</text>
</a>
</g>
</g>
<!-- Node3&#45;&gt;Node2 -->
<g id="edge2_Node000002_Node000003" class="edge">
<title>Node3&#45;&gt;Node2</title>
<g id="a_edge2_Node000002_Node000003"><a xlink:title=" ">
<path fill="none" stroke="#63b8ff" d="M84.12,-121.47C84.12,-113.56 84.12,-104.98 84.12,-97.49"/>
<polygon fill="#63b8ff" stroke="#63b8ff" points="80.63,-121.21 84.13,-131.21 87.63,-121.21 80.63,-121.21"/>
</a>
</g>
</g>
</g>
</svg>
