<?xml version="1.0" encoding="UTF-8" standalone="no"?>
<!DOCTYPE svg PUBLIC "-//W3C//DTD SVG 1.1//EN"
 "http://www.w3.org/Graphics/SVG/1.1/DTD/svg11.dtd">
<!-- Generated by graphviz version 12.2.1 (0)
 -->
<!-- Title: llzk::global::GlobalReadOpGenericAdaptor&lt; RangeT &gt; Pages: 1 -->
<svg width="184pt" height="195pt"
 viewBox="0.00 0.00 183.75 195.00" xmlns="http://www.w3.org/2000/svg" xmlns:xlink="http://www.w3.org/1999/xlink">
<g id="graph0" class="graph" transform="scale(1 1) rotate(0) translate(4 191)">
<title>llzk::global::GlobalReadOpGenericAdaptor&lt; RangeT &gt;</title>
<!-- Node1 -->
<g id="Node000001" class="node">
<title>Node1</title>
<g id="a_Node000001"><a xlink:title=" ">
<polygon fill="#999999" stroke="#666666" points="162.25,-30.5 13.5,-30.5 13.5,0 162.25,0 162.25,-30.5"/>
<text text-anchor="start" x="21.5" y="-17" font-family="Helvetica,sans-Serif" font-size="10.00">llzk::global::GlobalRead</text>
<text text-anchor="middle" x="87.88" y="-5.75" font-family="Helvetica,sans-Serif" font-size="10.00">OpGenericAdaptor&lt; RangeT &gt;</text>
</a>
</g>
</g>
<!-- Node2 -->
<g id="Node000002" class="node">
<title>Node2</title>
<g id="a_Node000002"><a xlink:href="classllzk_1_1global_1_1detail_1_1_global_read_op_generic_adaptor_base.html" target="_top" xlink:title=" ">
<polygon fill="white" stroke="#666666" points="175.75,-98 0,-98 0,-67.5 175.75,-67.5 175.75,-98"/>
<text text-anchor="start" x="8" y="-84.5" font-family="Helvetica,sans-Serif" font-size="10.00">llzk::global::detail</text>
<text text-anchor="middle" x="87.88" y="-73.25" font-family="Helvetica,sans-Serif" font-size="10.00">::GlobalReadOpGenericAdaptorBase</text>
</a>
</g>
</g>
<!-- Node2&#45;&gt;Node1 -->
<g id="edge1_Node000001_Node000002" class="edge">
<title>Node2&#45;&gt;Node1</title>
<g id="a_edge1_Node000001_Node000002"><a xlink:title=" ">
<path fill="none" stroke="#63b8ff" d="M87.88,-55.84C87.88,-47.3 87.88,-38.12 87.88,-30.75"/>
<polygon fill="#63b8ff" stroke="#63b8ff" points="84.38,-55.7 87.88,-65.7 91.38,-55.7 84.38,-55.7"/>
</a>
</g>
</g>
<!-- Node3 -->
<g id="Node000003" class="node">
<title>Node3</title>
<g id="a_Node000003"><a xlink:href="structllzk_1_1global_1_1detail_1_1_global_read_op_generic_adaptor_base_1_1_properties.html" target="_top" xlink:title=" ">
<polygon fill="white" stroke="#666666" points="164.5,-187 11.25,-187 11.25,-145.25 164.5,-145.25 164.5,-187"/>
<text text-anchor="start" x="19.25" y="-173.5" font-family="Helvetica,sans-Serif" font-size="10.00">llzk::global::detail</text>
<text text-anchor="start" x="19.25" y="-162.25" font-family="Helvetica,sans-Serif" font-size="10.00">::GlobalReadOpGenericAdaptor</text>
<text text-anchor="middle" x="87.88" y="-151" font-family="Helvetica,sans-Serif" font-size="10.00">Base::Properties</text>
</a>
</g>
</g>
<!-- Node3&#45;&gt;Node2 -->
<g id="edge2_Node000002_Node000003" class="edge">
<title>Node3&#45;&gt;Node2</title>
<g id="a_edge2_Node000002_Node000003"><a xlink:title=" ">
<path fill="none" stroke="#9a32cd" stroke-dasharray="5,2" d="M87.88,-133.8C87.88,-121.57 87.88,-108.14 87.88,-98.27"/>
<polygon fill="#9a32cd" stroke="#9a32cd" points="84.38,-133.5 87.88,-143.5 91.38,-133.5 84.38,-133.5"/>
</a>
</g>
<text text-anchor="middle" x="110.75" y="-117.75" font-family="Helvetica,sans-Serif" font-size="10.00" fill="grey"> properties</text>
</g>
</g>
</svg>
