<?xml version="1.0" encoding="UTF-8" standalone="no"?>
<!DOCTYPE svg PUBLIC "-//W3C//DTD SVG 1.1//EN"
 "http://www.w3.org/Graphics/SVG/1.1/DTD/svg11.dtd">
<!-- Generated by graphviz version 12.2.1 (0)
 -->
<!-- Title: llzk::CallGraphPrinterPass Pages: 1 -->
<svg width="182pt" height="160pt"
 viewBox="0.00 0.00 181.50 160.25" xmlns="http://www.w3.org/2000/svg" xmlns:xlink="http://www.w3.org/1999/xlink">
<g id="graph0" class="graph" transform="scale(1 1) rotate(0) translate(4 156.25)">
<title>llzk::CallGraphPrinterPass</title>
<!-- Node1 -->
<g id="Node000001" class="node">
<title>Node1</title>
<g id="a_Node000001"><a xlink:title=" ">
<polygon fill="#999999" stroke="#666666" points="152.5,-19.25 21,-19.25 21,0 152.5,0 152.5,-19.25"/>
<text text-anchor="middle" x="86.75" y="-5.75" font-family="Helvetica,sans-Serif" font-size="10.00">llzk::CallGraphPrinterPass</text>
</a>
</g>
</g>
<!-- Node2 -->
<g id="Node000002" class="node">
<title>Node2</title>
<g id="a_Node000002"><a xlink:href="classllzk_1_1impl_1_1_call_graph_printer_pass_base.html" target="_top" xlink:title=" ">
<polygon fill="white" stroke="#666666" points="173.5,-85.75 0,-85.75 0,-55.25 173.5,-55.25 173.5,-85.75"/>
<text text-anchor="start" x="8" y="-72.25" font-family="Helvetica,sans-Serif" font-size="10.00">llzk::impl::CallGraphPrinter</text>
<text text-anchor="middle" x="86.75" y="-61" font-family="Helvetica,sans-Serif" font-size="10.00">PassBase&lt; CallGraphPrinterPass &gt;</text>
</a>
</g>
</g>
<!-- Node2&#45;&gt;Node1 -->
<g id="edge1_Node000001_Node000002" class="edge">
<title>Node2&#45;&gt;Node1</title>
<g id="a_edge1_Node000001_Node000002"><a xlink:title=" ">
<path fill="none" stroke="#63b8ff" d="M86.75,-43.48C86.75,-34.98 86.75,-26.09 86.75,-19.7"/>
<polygon fill="#63b8ff" stroke="#63b8ff" points="83.25,-43.43 86.75,-53.43 90.25,-43.43 83.25,-43.43"/>
</a>
</g>
</g>
<!-- Node3 -->
<g id="Node000003" class="node">
<title>Node3</title>
<g id="a_Node000003"><a xlink:title=" ">
<polygon fill="white" stroke="#666666" points="138.25,-152.25 35.25,-152.25 35.25,-121.75 138.25,-121.75 138.25,-152.25"/>
<text text-anchor="start" x="43.25" y="-138.75" font-family="Helvetica,sans-Serif" font-size="10.00">mlir::OperationPass</text>
<text text-anchor="middle" x="86.75" y="-127.5" font-family="Helvetica,sans-Serif" font-size="10.00">&lt;::mlir::ModuleOp &gt;</text>
</a>
</g>
</g>
<!-- Node3&#45;&gt;Node2 -->
<g id="edge2_Node000002_Node000003" class="edge">
<title>Node3&#45;&gt;Node2</title>
<g id="a_edge2_Node000002_Node000003"><a xlink:title=" ">
<path fill="none" stroke="#63b8ff" d="M86.75,-110.06C86.75,-101.89 86.75,-93.16 86.75,-86.08"/>
<polygon fill="#63b8ff" stroke="#63b8ff" points="83.25,-109.85 86.75,-119.85 90.25,-109.85 83.25,-109.85"/>
</a>
</g>
</g>
</g>
</svg>
