<?xml version="1.0" encoding="UTF-8" standalone="no"?>
<!DOCTYPE svg PUBLIC "-//W3C//DTD SVG 1.1//EN"
 "http://www.w3.org/Graphics/SVG/1.1/DTD/svg11.dtd">
<!-- Generated by graphviz version 12.2.1 (0)
 -->
<!-- Title: llzk::global::detail::GlobalReadOpGenericAdaptorBase Pages: 1 -->
<svg width="525pt" height="158pt"
 viewBox="0.00 0.00 524.75 158.12" xmlns="http://www.w3.org/2000/svg" xmlns:xlink="http://www.w3.org/1999/xlink">
<g id="graph0" class="graph" transform="scale(1 1) rotate(0) translate(4 154.12)">
<title>llzk::global::detail::GlobalReadOpGenericAdaptorBase</title>
<!-- Node1 -->
<g id="Node000001" class="node">
<title>Node1</title>
<g id="a_Node000001"><a xlink:title=" ">
<polygon fill="#999999" stroke="#666666" points="175.75,-84.5 0,-84.5 0,-54 175.75,-54 175.75,-84.5"/>
<text text-anchor="start" x="8" y="-71" font-family="Helvetica,sans-Serif" font-size="10.00">llzk::global::detail</text>
<text text-anchor="middle" x="87.88" y="-59.75" font-family="Helvetica,sans-Serif" font-size="10.00">::GlobalReadOpGenericAdaptorBase</text>
</a>
</g>
</g>
<!-- Node2 -->
<g id="Node000002" class="node">
<title>Node2</title>
<g id="a_Node000002"><a xlink:href="classllzk_1_1global_1_1_global_read_op_generic_adaptor.html" target="_top" xlink:title=" ">
<polygon fill="white" stroke="#666666" points="361.25,-150.12 211.75,-150.12 211.75,-108.38 361.25,-108.38 361.25,-150.12"/>
<text text-anchor="start" x="219.75" y="-136.62" font-family="Helvetica,sans-Serif" font-size="10.00">llzk::global::GlobalRead</text>
<text text-anchor="start" x="219.75" y="-125.38" font-family="Helvetica,sans-Serif" font-size="10.00">OpGenericAdaptor&lt;::llvm</text>
<text text-anchor="middle" x="286.5" y="-114.12" font-family="Helvetica,sans-Serif" font-size="10.00">::ArrayRef&lt;::mlir::Attribute &gt; &gt;</text>
</a>
</g>
</g>
<!-- Node1&#45;&gt;Node2 -->
<g id="edge1_Node000001_Node000002" class="edge">
<title>Node1&#45;&gt;Node2</title>
<g id="a_edge1_Node000001_Node000002"><a xlink:title=" ">
<path fill="none" stroke="#63b8ff" d="M151.07,-88.23C171.57,-94.48 194.5,-101.48 215.53,-107.9"/>
<polygon fill="#63b8ff" stroke="#63b8ff" points="152.31,-84.95 141.73,-85.38 150.27,-91.64 152.31,-84.95"/>
</a>
</g>
</g>
<!-- Node3 -->
<g id="Node000003" class="node">
<title>Node3</title>
<g id="a_Node000003"><a xlink:href="classllzk_1_1global_1_1_global_read_op_generic_adaptor.html" target="_top" xlink:title=" ">
<polygon fill="white" stroke="#666666" points="348.5,-90.12 224.5,-90.12 224.5,-48.38 348.5,-48.38 348.5,-90.12"/>
<text text-anchor="start" x="232.5" y="-76.62" font-family="Helvetica,sans-Serif" font-size="10.00">llzk::global::GlobalRead</text>
<text text-anchor="start" x="232.5" y="-65.38" font-family="Helvetica,sans-Serif" font-size="10.00">OpGenericAdaptor&lt;::mlir</text>
<text text-anchor="middle" x="286.5" y="-54.12" font-family="Helvetica,sans-Serif" font-size="10.00">::ValueRange &gt;</text>
</a>
</g>
</g>
<!-- Node1&#45;&gt;Node3 -->
<g id="edge2_Node000001_Node000003" class="edge">
<title>Node1&#45;&gt;Node3</title>
<g id="a_edge2_Node000001_Node000003"><a xlink:title=" ">
<path fill="none" stroke="#63b8ff" d="M187.43,-69.25C199.93,-69.25 212.42,-69.25 224.1,-69.25"/>
<polygon fill="#63b8ff" stroke="#63b8ff" points="187.49,-65.75 177.49,-69.25 187.49,-72.75 187.49,-65.75"/>
</a>
</g>
</g>
<!-- Node5 -->
<g id="Node000005" class="node">
<title>Node5</title>
<g id="a_Node000005"><a xlink:href="classllzk_1_1global_1_1_global_read_op_generic_adaptor.html" target="_top" xlink:title=" ">
<polygon fill="white" stroke="#666666" points="360.88,-30.5 212.12,-30.5 212.12,0 360.88,0 360.88,-30.5"/>
<text text-anchor="start" x="220.12" y="-17" font-family="Helvetica,sans-Serif" font-size="10.00">llzk::global::GlobalRead</text>
<text text-anchor="middle" x="286.5" y="-5.75" font-family="Helvetica,sans-Serif" font-size="10.00">OpGenericAdaptor&lt; RangeT &gt;</text>
</a>
</g>
</g>
<!-- Node1&#45;&gt;Node5 -->
<g id="edge4_Node000001_Node000005" class="edge">
<title>Node1&#45;&gt;Node5</title>
<g id="a_edge4_Node000001_Node000005"><a xlink:title=" ">
<path fill="none" stroke="#63b8ff" d="M156.85,-50.58C180.11,-44.19 205.89,-37.11 228.22,-30.98"/>
<polygon fill="#63b8ff" stroke="#63b8ff" points="156.19,-47.13 147.47,-53.16 158.04,-53.88 156.19,-47.13"/>
</a>
</g>
</g>
<!-- Node4 -->
<g id="Node000004" class="node">
<title>Node4</title>
<g id="a_Node000004"><a xlink:href="classllzk_1_1global_1_1_global_read_op_adaptor.html" target="_top" xlink:title=" ">
<polygon fill="white" stroke="#666666" points="516.75,-84.5 397.25,-84.5 397.25,-54 516.75,-54 516.75,-84.5"/>
<text text-anchor="start" x="405.25" y="-71" font-family="Helvetica,sans-Serif" font-size="10.00">llzk::global::GlobalRead</text>
<text text-anchor="middle" x="457" y="-59.75" font-family="Helvetica,sans-Serif" font-size="10.00">OpAdaptor</text>
</a>
</g>
</g>
<!-- Node3&#45;&gt;Node4 -->
<g id="edge3_Node000003_Node000004" class="edge">
<title>Node3&#45;&gt;Node4</title>
<g id="a_edge3_Node000003_Node000004"><a xlink:title=" ">
<path fill="none" stroke="#63b8ff" d="M360.02,-69.25C372.36,-69.25 385.05,-69.25 396.99,-69.25"/>
<polygon fill="#63b8ff" stroke="#63b8ff" points="360.32,-65.75 350.32,-69.25 360.32,-72.75 360.32,-65.75"/>
</a>
</g>
</g>
</g>
</svg>
