<?xml version="1.0" encoding="UTF-8" standalone="no"?>
<!DOCTYPE svg PUBLIC "-//W3C//DTD SVG 1.1//EN"
 "http://www.w3.org/Graphics/SVG/1.1/DTD/svg11.dtd">
<!-- Generated by graphviz version 12.2.1 (0)
 -->
<!-- Title: llzk::string::detail::LitStringOpGenericAdaptorBase Pages: 1 -->
<svg width="500pt" height="158pt"
 viewBox="0.00 0.00 500.00 158.12" xmlns="http://www.w3.org/2000/svg" xmlns:xlink="http://www.w3.org/1999/xlink">
<g id="graph0" class="graph" transform="scale(1 1) rotate(0) translate(4 154.12)">
<title>llzk::string::detail::LitStringOpGenericAdaptorBase</title>
<!-- Node1 -->
<g id="Node000001" class="node">
<title>Node1</title>
<g id="a_Node000001"><a xlink:title=" ">
<polygon fill="#999999" stroke="#666666" points="160.75,-84.5 0,-84.5 0,-54 160.75,-54 160.75,-84.5"/>
<text text-anchor="start" x="8" y="-71" font-family="Helvetica,sans-Serif" font-size="10.00">llzk::string::detail</text>
<text text-anchor="middle" x="80.38" y="-59.75" font-family="Helvetica,sans-Serif" font-size="10.00">::LitStringOpGenericAdaptorBase</text>
</a>
</g>
</g>
<!-- Node2 -->
<g id="Node000002" class="node">
<title>Node2</title>
<g id="a_Node000002"><a xlink:href="classllzk_1_1string_1_1_lit_string_op_generic_adaptor.html" target="_top" xlink:title=" ">
<polygon fill="white" stroke="#666666" points="340.25,-150.12 196.75,-150.12 196.75,-108.38 340.25,-108.38 340.25,-150.12"/>
<text text-anchor="start" x="204.75" y="-136.62" font-family="Helvetica,sans-Serif" font-size="10.00">llzk::string::LitStringOp</text>
<text text-anchor="start" x="204.75" y="-125.38" font-family="Helvetica,sans-Serif" font-size="10.00">GenericAdaptor&lt;::llvm::</text>
<text text-anchor="middle" x="268.5" y="-114.12" font-family="Helvetica,sans-Serif" font-size="10.00">ArrayRef&lt;::mlir::Attribute &gt; &gt;</text>
</a>
</g>
</g>
<!-- Node1&#45;&gt;Node2 -->
<g id="edge1_Node000001_Node000002" class="edge">
<title>Node1&#45;&gt;Node2</title>
<g id="a_edge1_Node000001_Node000002"><a xlink:title=" ">
<path fill="none" stroke="#63b8ff" d="M140.6,-88.34C159.98,-94.59 181.62,-101.56 201.46,-107.96"/>
<polygon fill="#63b8ff" stroke="#63b8ff" points="141.82,-85.06 131.23,-85.32 139.68,-91.72 141.82,-85.06"/>
</a>
</g>
</g>
<!-- Node3 -->
<g id="Node000003" class="node">
<title>Node3</title>
<g id="a_Node000003"><a xlink:href="classllzk_1_1string_1_1_lit_string_op_generic_adaptor.html" target="_top" xlink:title=" ">
<polygon fill="white" stroke="#666666" points="327.12,-90.12 209.88,-90.12 209.88,-48.38 327.12,-48.38 327.12,-90.12"/>
<text text-anchor="start" x="217.88" y="-76.62" font-family="Helvetica,sans-Serif" font-size="10.00">llzk::string::LitStringOp</text>
<text text-anchor="start" x="217.88" y="-65.38" font-family="Helvetica,sans-Serif" font-size="10.00">GenericAdaptor&lt;::mlir::</text>
<text text-anchor="middle" x="268.5" y="-54.12" font-family="Helvetica,sans-Serif" font-size="10.00">ValueRange &gt;</text>
</a>
</g>
</g>
<!-- Node1&#45;&gt;Node3 -->
<g id="edge2_Node000001_Node000003" class="edge">
<title>Node1&#45;&gt;Node3</title>
<g id="a_edge2_Node000001_Node000003"><a xlink:title=" ">
<path fill="none" stroke="#63b8ff" d="M172.63,-69.25C185.21,-69.25 197.83,-69.25 209.58,-69.25"/>
<polygon fill="#63b8ff" stroke="#63b8ff" points="172.63,-65.75 162.63,-69.25 172.63,-72.75 172.63,-65.75"/>
</a>
</g>
</g>
<!-- Node5 -->
<g id="Node000005" class="node">
<title>Node5</title>
<g id="a_Node000005"><a xlink:href="classllzk_1_1string_1_1_lit_string_op_generic_adaptor.html" target="_top" xlink:title=" ">
<polygon fill="white" stroke="#666666" points="336.5,-30.5 200.5,-30.5 200.5,0 336.5,0 336.5,-30.5"/>
<text text-anchor="start" x="208.5" y="-17" font-family="Helvetica,sans-Serif" font-size="10.00">llzk::string::LitStringOp</text>
<text text-anchor="middle" x="268.5" y="-5.75" font-family="Helvetica,sans-Serif" font-size="10.00">GenericAdaptor&lt; RangeT &gt;</text>
</a>
</g>
</g>
<!-- Node1&#45;&gt;Node5 -->
<g id="edge4_Node000001_Node000005" class="edge">
<title>Node1&#45;&gt;Node5</title>
<g id="a_edge4_Node000001_Node000005"><a xlink:title=" ">
<path fill="none" stroke="#63b8ff" d="M146.32,-50.41C168.18,-44.06 192.33,-37.06 213.28,-30.98"/>
<polygon fill="#63b8ff" stroke="#63b8ff" points="145.54,-46.99 136.91,-53.14 147.49,-53.71 145.54,-46.99"/>
</a>
</g>
</g>
<!-- Node4 -->
<g id="Node000004" class="node">
<title>Node4</title>
<g id="a_Node000004"><a xlink:href="classllzk_1_1string_1_1_lit_string_op_adaptor.html" target="_top" xlink:title=" ">
<polygon fill="white" stroke="#666666" points="492,-84.5 376.25,-84.5 376.25,-54 492,-54 492,-84.5"/>
<text text-anchor="start" x="384.25" y="-71" font-family="Helvetica,sans-Serif" font-size="10.00">llzk::string::LitStringOp</text>
<text text-anchor="middle" x="434.12" y="-59.75" font-family="Helvetica,sans-Serif" font-size="10.00">Adaptor</text>
</a>
</g>
</g>
<!-- Node3&#45;&gt;Node4 -->
<g id="edge3_Node000003_Node000004" class="edge">
<title>Node3&#45;&gt;Node4</title>
<g id="a_edge3_Node000003_Node000004"><a xlink:title=" ">
<path fill="none" stroke="#63b8ff" d="M338.5,-69.25C350.98,-69.25 363.86,-69.25 375.96,-69.25"/>
<polygon fill="#63b8ff" stroke="#63b8ff" points="338.7,-65.75 328.7,-69.25 338.7,-72.75 338.7,-65.75"/>
</a>
</g>
</g>
</g>
</svg>
