<?xml version="1.0" encoding="UTF-8" standalone="no"?>
<!DOCTYPE svg PUBLIC "-//W3C//DTD SVG 1.1//EN"
 "http://www.w3.org/Graphics/SVG/1.1/DTD/svg11.dtd">
<!-- Generated by graphviz version 12.2.1 (0)
 -->
<!-- Title: llzk::global::GlobalWriteOpAdaptor Pages: 1 -->
<svg width="183pt" height="183pt"
 viewBox="0.00 0.00 183.00 182.75" xmlns="http://www.w3.org/2000/svg" xmlns:xlink="http://www.w3.org/1999/xlink">
<g id="graph0" class="graph" transform="scale(1 1) rotate(0) translate(4 178.75)">
<title>llzk::global::GlobalWriteOpAdaptor</title>
<!-- Node1 -->
<g id="Node000001" class="node">
<title>Node1</title>
<g id="a_Node000001"><a xlink:title=" ">
<polygon fill="#999999" stroke="#666666" points="146.88,-30.5 28.12,-30.5 28.12,0 146.88,0 146.88,-30.5"/>
<text text-anchor="start" x="36.12" y="-17" font-family="Helvetica,sans-Serif" font-size="10.00">llzk::global::GlobalWrite</text>
<text text-anchor="middle" x="87.5" y="-5.75" font-family="Helvetica,sans-Serif" font-size="10.00">OpAdaptor</text>
</a>
</g>
</g>
<!-- Node2 -->
<g id="Node000002" class="node">
<title>Node2</title>
<g id="a_Node000002"><a xlink:href="classllzk_1_1global_1_1_global_write_op_generic_adaptor.html" target="_top" xlink:title=" ">
<polygon fill="white" stroke="#666666" points="149.5,-108.25 25.5,-108.25 25.5,-66.5 149.5,-66.5 149.5,-108.25"/>
<text text-anchor="start" x="33.5" y="-94.75" font-family="Helvetica,sans-Serif" font-size="10.00">llzk::global::GlobalWrite</text>
<text text-anchor="start" x="33.5" y="-83.5" font-family="Helvetica,sans-Serif" font-size="10.00">OpGenericAdaptor&lt;::mlir</text>
<text text-anchor="middle" x="87.5" y="-72.25" font-family="Helvetica,sans-Serif" font-size="10.00">::ValueRange &gt;</text>
</a>
</g>
</g>
<!-- Node2&#45;&gt;Node1 -->
<g id="edge1_Node000001_Node000002" class="edge">
<title>Node2&#45;&gt;Node1</title>
<g id="a_edge1_Node000001_Node000002"><a xlink:title=" ">
<path fill="none" stroke="#63b8ff" d="M87.5,-54.63C87.5,-46.27 87.5,-37.65 87.5,-30.7"/>
<polygon fill="#63b8ff" stroke="#63b8ff" points="84,-54.58 87.5,-64.58 91,-54.58 84,-54.58"/>
</a>
</g>
</g>
<!-- Node3 -->
<g id="Node000003" class="node">
<title>Node3</title>
<g id="a_Node000003"><a xlink:href="classllzk_1_1global_1_1detail_1_1_global_write_op_generic_adaptor_base.html" target="_top" xlink:title=" ">
<polygon fill="white" stroke="#666666" points="175,-174.75 0,-174.75 0,-144.25 175,-144.25 175,-174.75"/>
<text text-anchor="start" x="8" y="-161.25" font-family="Helvetica,sans-Serif" font-size="10.00">llzk::global::detail</text>
<text text-anchor="middle" x="87.5" y="-150" font-family="Helvetica,sans-Serif" font-size="10.00">::GlobalWriteOpGenericAdaptorBase</text>
</a>
</g>
</g>
<!-- Node3&#45;&gt;Node2 -->
<g id="edge2_Node000002_Node000003" class="edge">
<title>Node3&#45;&gt;Node2</title>
<g id="a_edge2_Node000002_Node000003"><a xlink:title=" ">
<path fill="none" stroke="#63b8ff" d="M87.5,-132.72C87.5,-124.81 87.5,-116.23 87.5,-108.74"/>
<polygon fill="#63b8ff" stroke="#63b8ff" points="84,-132.46 87.5,-142.46 91,-132.46 84,-132.46"/>
</a>
</g>
</g>
</g>
</svg>
