<?xml version="1.0" encoding="UTF-8" standalone="no"?>
<!DOCTYPE svg PUBLIC "-//W3C//DTD SVG 1.1//EN"
 "http://www.w3.org/Graphics/SVG/1.1/DTD/svg11.dtd">
<!-- Generated by graphviz version 12.2.1 (0)
 -->
<!-- Title: llzk::dataflow::DenseForwardDataFlowAnalysis&lt; LatticeT &gt; Pages: 1 -->
<svg width="167pt" height="160pt"
 viewBox="0.00 0.00 167.25 160.25" xmlns="http://www.w3.org/2000/svg" xmlns:xlink="http://www.w3.org/1999/xlink">
<g id="graph0" class="graph" transform="scale(1 1) rotate(0) translate(4 156.25)">
<title>llzk::dataflow::DenseForwardDataFlowAnalysis&lt; LatticeT &gt;</title>
<!-- Node1 -->
<g id="Node000001" class="node">
<title>Node1</title>
<g id="a_Node000001"><a xlink:title="LLZK: This class has been ported so that it can inherit from our port of the AbstractDenseForwardData...">
<polygon fill="#999999" stroke="#666666" points="154,-30.5 5.25,-30.5 5.25,0 154,0 154,-30.5"/>
<text text-anchor="start" x="13.25" y="-17" font-family="Helvetica,sans-Serif" font-size="10.00">llzk::dataflow::DenseForward</text>
<text text-anchor="middle" x="79.62" y="-5.75" font-family="Helvetica,sans-Serif" font-size="10.00">DataFlowAnalysis&lt; LatticeT &gt;</text>
</a>
</g>
</g>
<!-- Node2 -->
<g id="Node000002" class="node">
<title>Node2</title>
<g id="a_Node000002"><a xlink:href="classllzk_1_1dataflow_1_1_abstract_dense_forward_data_flow_analysis.html" target="_top" xlink:title="LLZK: This class has been ported from the MLIR DenseAnalysis utilities to allow for the use of custom...">
<polygon fill="white" stroke="#666666" points="159.25,-97 0,-97 0,-66.5 159.25,-66.5 159.25,-97"/>
<text text-anchor="start" x="8" y="-83.5" font-family="Helvetica,sans-Serif" font-size="10.00">llzk::dataflow::Abstract</text>
<text text-anchor="middle" x="79.62" y="-72.25" font-family="Helvetica,sans-Serif" font-size="10.00">DenseForwardDataFlowAnalysis</text>
</a>
</g>
</g>
<!-- Node2&#45;&gt;Node1 -->
<g id="edge1_Node000001_Node000002" class="edge">
<title>Node2&#45;&gt;Node1</title>
<g id="a_edge1_Node000001_Node000002"><a xlink:title=" ">
<path fill="none" stroke="#63b8ff" d="M79.62,-54.81C79.62,-46.64 79.62,-37.91 79.62,-30.83"/>
<polygon fill="#63b8ff" stroke="#63b8ff" points="76.13,-54.6 79.63,-64.6 83.13,-54.6 76.13,-54.6"/>
</a>
</g>
</g>
<!-- Node3 -->
<g id="Node000003" class="node">
<title>Node3</title>
<g id="a_Node000003"><a xlink:title=" ">
<polygon fill="white" stroke="#666666" points="138.25,-152.25 21,-152.25 21,-133 138.25,-133 138.25,-152.25"/>
<text text-anchor="middle" x="79.62" y="-138.75" font-family="Helvetica,sans-Serif" font-size="10.00">mlir::DataFlowAnalysis</text>
</a>
</g>
</g>
<!-- Node3&#45;&gt;Node2 -->
<g id="edge2_Node000002_Node000003" class="edge">
<title>Node3&#45;&gt;Node2</title>
<g id="a_edge2_Node000002_Node000003"><a xlink:title=" ">
<path fill="none" stroke="#63b8ff" d="M79.62,-121.42C79.62,-113.49 79.62,-104.56 79.62,-97.28"/>
<polygon fill="#63b8ff" stroke="#63b8ff" points="76.13,-121.17 79.63,-131.17 83.13,-121.17 76.13,-121.17"/>
</a>
</g>
</g>
</g>
</svg>
