<?xml version="1.0" encoding="UTF-8" standalone="no"?>
<!DOCTYPE svg PUBLIC "-//W3C//DTD SVG 1.1//EN"
 "http://www.w3.org/Graphics/SVG/1.1/DTD/svg11.dtd">
<!-- Generated by graphviz version 12.2.1 (0)
 -->
<!-- Title: llzk::cast::detail::IntToFeltOpGenericAdaptorBase Pages: 1 -->
<svg width="536pt" height="147pt"
 viewBox="0.00 0.00 536.00 147.12" xmlns="http://www.w3.org/2000/svg" xmlns:xlink="http://www.w3.org/1999/xlink">
<g id="graph0" class="graph" transform="scale(1 1) rotate(0) translate(4 143.12)">
<title>llzk::cast::detail::IntToFeltOpGenericAdaptorBase</title>
<!-- Node1 -->
<g id="Node000001" class="node">
<title>Node1</title>
<g id="a_Node000001"><a xlink:title=" ">
<polygon fill="#999999" stroke="#666666" points="163,-79.5 0,-79.5 0,-49 163,-49 163,-79.5"/>
<text text-anchor="start" x="8" y="-66" font-family="Helvetica,sans-Serif" font-size="10.00">llzk::cast::detail</text>
<text text-anchor="middle" x="81.5" y="-54.75" font-family="Helvetica,sans-Serif" font-size="10.00">::IntToFeltOpGenericAdaptorBase</text>
</a>
</g>
</g>
<!-- Node2 -->
<g id="Node000002" class="node">
<title>Node2</title>
<g id="a_Node000002"><a xlink:href="classllzk_1_1cast_1_1_int_to_felt_op_generic_adaptor.html" target="_top" xlink:title=" ">
<polygon fill="white" stroke="#666666" points="345.5,-139.12 199,-139.12 199,-97.38 345.5,-97.38 345.5,-139.12"/>
<text text-anchor="start" x="207" y="-125.62" font-family="Helvetica,sans-Serif" font-size="10.00">llzk::cast::IntToFeltOpGeneric</text>
<text text-anchor="start" x="207" y="-114.38" font-family="Helvetica,sans-Serif" font-size="10.00">Adaptor&lt;::llvm::ArrayRef</text>
<text text-anchor="middle" x="272.25" y="-103.12" font-family="Helvetica,sans-Serif" font-size="10.00">&lt;::mlir::Attribute &gt; &gt;</text>
</a>
</g>
</g>
<!-- Node1&#45;&gt;Node2 -->
<g id="edge1_Node000001_Node000002" class="edge">
<title>Node1&#45;&gt;Node2</title>
<g id="a_edge1_Node000001_Node000002"><a xlink:title=" ">
<path fill="none" stroke="#63b8ff" d="M148.38,-83.1C164.63,-87.75 182.13,-92.75 198.69,-97.49"/>
<polygon fill="#63b8ff" stroke="#63b8ff" points="149.38,-79.74 138.8,-80.36 147.45,-86.47 149.38,-79.74"/>
</a>
</g>
</g>
<!-- Node3 -->
<g id="Node000003" class="node">
<title>Node3</title>
<g id="a_Node000003"><a xlink:href="classllzk_1_1cast_1_1_int_to_felt_op_generic_adaptor.html" target="_top" xlink:title=" ">
<polygon fill="white" stroke="#666666" points="345.5,-79.5 199,-79.5 199,-49 345.5,-49 345.5,-79.5"/>
<text text-anchor="start" x="207" y="-66" font-family="Helvetica,sans-Serif" font-size="10.00">llzk::cast::IntToFeltOpGeneric</text>
<text text-anchor="middle" x="272.25" y="-54.75" font-family="Helvetica,sans-Serif" font-size="10.00">Adaptor&lt;::mlir::ValueRange &gt;</text>
</a>
</g>
</g>
<!-- Node1&#45;&gt;Node3 -->
<g id="edge2_Node000001_Node000003" class="edge">
<title>Node1&#45;&gt;Node3</title>
<g id="a_edge2_Node000001_Node000003"><a xlink:title=" ">
<path fill="none" stroke="#63b8ff" d="M174.68,-64.25C182.71,-64.25 190.76,-64.25 198.6,-64.25"/>
<polygon fill="#63b8ff" stroke="#63b8ff" points="174.88,-60.75 164.88,-64.25 174.88,-67.75 174.88,-60.75"/>
</a>
</g>
</g>
<!-- Node5 -->
<g id="Node000005" class="node">
<title>Node5</title>
<g id="a_Node000005"><a xlink:href="classllzk_1_1cast_1_1_int_to_felt_op_generic_adaptor.html" target="_top" xlink:title=" ">
<polygon fill="white" stroke="#666666" points="345.5,-30.5 199,-30.5 199,0 345.5,0 345.5,-30.5"/>
<text text-anchor="start" x="207" y="-17" font-family="Helvetica,sans-Serif" font-size="10.00">llzk::cast::IntToFeltOpGeneric</text>
<text text-anchor="middle" x="272.25" y="-5.75" font-family="Helvetica,sans-Serif" font-size="10.00">Adaptor&lt; RangeT &gt;</text>
</a>
</g>
</g>
<!-- Node1&#45;&gt;Node5 -->
<g id="edge4_Node000001_Node000005" class="edge">
<title>Node1&#45;&gt;Node5</title>
<g id="a_edge4_Node000001_Node000005"><a xlink:title=" ">
<path fill="none" stroke="#63b8ff" d="M154.13,-45.66C172.8,-40.81 192.74,-35.63 210.77,-30.95"/>
<polygon fill="#63b8ff" stroke="#63b8ff" points="153.27,-42.26 144.47,-48.16 155.02,-49.04 153.27,-42.26"/>
</a>
</g>
</g>
<!-- Node4 -->
<g id="Node000004" class="node">
<title>Node4</title>
<g id="a_Node000004"><a xlink:href="classllzk_1_1cast_1_1_int_to_felt_op_adaptor.html" target="_top" xlink:title=" ">
<polygon fill="white" stroke="#666666" points="528,-73.88 381.5,-73.88 381.5,-54.62 528,-54.62 528,-73.88"/>
<text text-anchor="middle" x="454.75" y="-60.38" font-family="Helvetica,sans-Serif" font-size="10.00">llzk::cast::IntToFeltOpAdaptor</text>
</a>
</g>
</g>
<!-- Node3&#45;&gt;Node4 -->
<g id="edge3_Node000003_Node000004" class="edge">
<title>Node3&#45;&gt;Node4</title>
<g id="a_edge3_Node000003_Node000004"><a xlink:title=" ">
<path fill="none" stroke="#63b8ff" d="M357.19,-64.25C365.23,-64.25 373.34,-64.25 381.26,-64.25"/>
<polygon fill="#63b8ff" stroke="#63b8ff" points="357.4,-60.75 347.4,-64.25 357.4,-67.75 357.4,-60.75"/>
</a>
</g>
</g>
</g>
</svg>
