<?xml version="1.0" encoding="UTF-8" standalone="no"?>
<!DOCTYPE svg PUBLIC "-//W3C//DTD SVG 1.1//EN"
 "http://www.w3.org/Graphics/SVG/1.1/DTD/svg11.dtd">
<!-- Generated by graphviz version 12.2.1 (0)
 -->
<!-- Title: llzk::include::IncludeOpGenericAdaptor&lt; RangeT &gt; Pages: 1 -->
<svg width="164pt" height="195pt"
 viewBox="0.00 0.00 164.25 195.00" xmlns="http://www.w3.org/2000/svg" xmlns:xlink="http://www.w3.org/1999/xlink">
<g id="graph0" class="graph" transform="scale(1 1) rotate(0) translate(4 191)">
<title>llzk::include::IncludeOpGenericAdaptor&lt; RangeT &gt;</title>
<!-- Node1 -->
<g id="Node000001" class="node">
<title>Node1</title>
<g id="a_Node000001"><a xlink:title=" ">
<polygon fill="#999999" stroke="#666666" points="146.12,-30.5 10.12,-30.5 10.12,0 146.12,0 146.12,-30.5"/>
<text text-anchor="start" x="18.12" y="-17" font-family="Helvetica,sans-Serif" font-size="10.00">llzk::include::IncludeOp</text>
<text text-anchor="middle" x="78.12" y="-5.75" font-family="Helvetica,sans-Serif" font-size="10.00">GenericAdaptor&lt; RangeT &gt;</text>
</a>
</g>
</g>
<!-- Node2 -->
<g id="Node000002" class="node">
<title>Node2</title>
<g id="a_Node000002"><a xlink:href="classllzk_1_1include_1_1detail_1_1_include_op_generic_adaptor_base.html" target="_top" xlink:title=" ">
<polygon fill="white" stroke="#666666" points="156.25,-98 0,-98 0,-67.5 156.25,-67.5 156.25,-98"/>
<text text-anchor="start" x="8" y="-84.5" font-family="Helvetica,sans-Serif" font-size="10.00">llzk::include::detail</text>
<text text-anchor="middle" x="78.12" y="-73.25" font-family="Helvetica,sans-Serif" font-size="10.00">::IncludeOpGenericAdaptorBase</text>
</a>
</g>
</g>
<!-- Node2&#45;&gt;Node1 -->
<g id="edge1_Node000001_Node000002" class="edge">
<title>Node2&#45;&gt;Node1</title>
<g id="a_edge1_Node000001_Node000002"><a xlink:title=" ">
<path fill="none" stroke="#63b8ff" d="M78.12,-55.84C78.12,-47.3 78.12,-38.12 78.12,-30.75"/>
<polygon fill="#63b8ff" stroke="#63b8ff" points="74.63,-55.7 78.13,-65.7 81.63,-55.7 74.63,-55.7"/>
</a>
</g>
</g>
<!-- Node3 -->
<g id="Node000003" class="node">
<title>Node3</title>
<g id="a_Node000003"><a xlink:href="structllzk_1_1include_1_1detail_1_1_include_op_generic_adaptor_base_1_1_properties.html" target="_top" xlink:title=" ">
<polygon fill="white" stroke="#666666" points="156.25,-187 0,-187 0,-145.25 156.25,-145.25 156.25,-187"/>
<text text-anchor="start" x="8" y="-173.5" font-family="Helvetica,sans-Serif" font-size="10.00">llzk::include::detail</text>
<text text-anchor="start" x="8" y="-162.25" font-family="Helvetica,sans-Serif" font-size="10.00">::IncludeOpGenericAdaptorBase</text>
<text text-anchor="middle" x="78.12" y="-151" font-family="Helvetica,sans-Serif" font-size="10.00">::Properties</text>
</a>
</g>
</g>
<!-- Node3&#45;&gt;Node2 -->
<g id="edge2_Node000002_Node000003" class="edge">
<title>Node3&#45;&gt;Node2</title>
<g id="a_edge2_Node000002_Node000003"><a xlink:title=" ">
<path fill="none" stroke="#9a32cd" stroke-dasharray="5,2" d="M78.12,-133.8C78.12,-121.57 78.12,-108.14 78.12,-98.27"/>
<polygon fill="#9a32cd" stroke="#9a32cd" points="74.63,-133.5 78.13,-143.5 81.63,-133.5 74.63,-133.5"/>
</a>
</g>
<text text-anchor="middle" x="101" y="-117.75" font-family="Helvetica,sans-Serif" font-size="10.00" fill="grey"> properties</text>
</g>
</g>
</svg>
