<?xml version="1.0" encoding="UTF-8" standalone="no"?>
<!DOCTYPE svg PUBLIC "-//W3C//DTD SVG 1.1//EN"
 "http://www.w3.org/Graphics/SVG/1.1/DTD/svg11.dtd">
<!-- Generated by graphviz version 12.2.1 (0)
 -->
<!-- Title: llzk::cast::detail::FeltToIndexOpGenericAdaptorBase Pages: 1 -->
<svg width="525pt" height="158pt"
 viewBox="0.00 0.00 524.75 158.12" xmlns="http://www.w3.org/2000/svg" xmlns:xlink="http://www.w3.org/1999/xlink">
<g id="graph0" class="graph" transform="scale(1 1) rotate(0) translate(4 154.12)">
<title>llzk::cast::detail::FeltToIndexOpGenericAdaptorBase</title>
<!-- Node1 -->
<g id="Node000001" class="node">
<title>Node1</title>
<g id="a_Node000001"><a xlink:title=" ">
<polygon fill="#999999" stroke="#666666" points="175.75,-84.5 0,-84.5 0,-54 175.75,-54 175.75,-84.5"/>
<text text-anchor="start" x="8" y="-71" font-family="Helvetica,sans-Serif" font-size="10.00">llzk::cast::detail</text>
<text text-anchor="middle" x="87.88" y="-59.75" font-family="Helvetica,sans-Serif" font-size="10.00">::FeltToIndexOpGenericAdaptorBase</text>
</a>
</g>
</g>
<!-- Node2 -->
<g id="Node000002" class="node">
<title>Node2</title>
<g id="a_Node000002"><a xlink:href="classllzk_1_1cast_1_1_felt_to_index_op_generic_adaptor.html" target="_top" xlink:title=" ">
<polygon fill="white" stroke="#666666" points="355.25,-150.12 211.75,-150.12 211.75,-108.38 355.25,-108.38 355.25,-150.12"/>
<text text-anchor="start" x="219.75" y="-136.62" font-family="Helvetica,sans-Serif" font-size="10.00">llzk::cast::FeltToIndexOp</text>
<text text-anchor="start" x="219.75" y="-125.38" font-family="Helvetica,sans-Serif" font-size="10.00">GenericAdaptor&lt;::llvm::</text>
<text text-anchor="middle" x="283.5" y="-114.12" font-family="Helvetica,sans-Serif" font-size="10.00">ArrayRef&lt;::mlir::Attribute &gt; &gt;</text>
</a>
</g>
</g>
<!-- Node1&#45;&gt;Node2 -->
<g id="edge1_Node000001_Node000002" class="edge">
<title>Node1&#45;&gt;Node2</title>
<g id="a_edge1_Node000001_Node000002"><a xlink:title=" ">
<path fill="none" stroke="#63b8ff" d="M150.4,-88.32C170.51,-94.55 192.98,-101.51 213.6,-107.9"/>
<polygon fill="#63b8ff" stroke="#63b8ff" points="151.53,-85 140.94,-85.38 149.46,-91.69 151.53,-85"/>
</a>
</g>
</g>
<!-- Node3 -->
<g id="Node000003" class="node">
<title>Node3</title>
<g id="a_Node000003"><a xlink:href="classllzk_1_1cast_1_1_felt_to_index_op_generic_adaptor.html" target="_top" xlink:title=" ">
<polygon fill="white" stroke="#666666" points="346.25,-90.12 220.75,-90.12 220.75,-48.38 346.25,-48.38 346.25,-90.12"/>
<text text-anchor="start" x="228.75" y="-76.62" font-family="Helvetica,sans-Serif" font-size="10.00">llzk::cast::FeltToIndexOp</text>
<text text-anchor="start" x="228.75" y="-65.38" font-family="Helvetica,sans-Serif" font-size="10.00">GenericAdaptor&lt;::mlir::</text>
<text text-anchor="middle" x="283.5" y="-54.12" font-family="Helvetica,sans-Serif" font-size="10.00">ValueRange &gt;</text>
</a>
</g>
</g>
<!-- Node1&#45;&gt;Node3 -->
<g id="edge2_Node000001_Node000003" class="edge">
<title>Node1&#45;&gt;Node3</title>
<g id="a_edge2_Node000001_Node000003"><a xlink:title=" ">
<path fill="none" stroke="#63b8ff" d="M187.31,-69.25C198.58,-69.25 209.81,-69.25 220.41,-69.25"/>
<polygon fill="#63b8ff" stroke="#63b8ff" points="187.57,-65.75 177.57,-69.25 187.57,-72.75 187.57,-65.75"/>
</a>
</g>
</g>
<!-- Node5 -->
<g id="Node000005" class="node">
<title>Node5</title>
<g id="a_Node000005"><a xlink:href="classllzk_1_1cast_1_1_felt_to_index_op_generic_adaptor.html" target="_top" xlink:title=" ">
<polygon fill="white" stroke="#666666" points="351.5,-30.5 215.5,-30.5 215.5,0 351.5,0 351.5,-30.5"/>
<text text-anchor="start" x="223.5" y="-17" font-family="Helvetica,sans-Serif" font-size="10.00">llzk::cast::FeltToIndexOp</text>
<text text-anchor="middle" x="283.5" y="-5.75" font-family="Helvetica,sans-Serif" font-size="10.00">GenericAdaptor&lt; RangeT &gt;</text>
</a>
</g>
</g>
<!-- Node1&#45;&gt;Node5 -->
<g id="edge4_Node000001_Node000005" class="edge">
<title>Node1&#45;&gt;Node5</title>
<g id="a_edge4_Node000001_Node000005"><a xlink:title=" ">
<path fill="none" stroke="#63b8ff" d="M156.12,-50.49C178.95,-44.13 204.2,-37.09 226.1,-30.98"/>
<polygon fill="#63b8ff" stroke="#63b8ff" points="155.29,-47.09 146.6,-53.15 157.17,-53.84 155.29,-47.09"/>
</a>
</g>
</g>
<!-- Node4 -->
<g id="Node000004" class="node">
<title>Node4</title>
<g id="a_Node000004"><a xlink:href="classllzk_1_1cast_1_1_felt_to_index_op_adaptor.html" target="_top" xlink:title=" ">
<polygon fill="white" stroke="#666666" points="516.75,-84.5 391.25,-84.5 391.25,-54 516.75,-54 516.75,-84.5"/>
<text text-anchor="start" x="399.25" y="-71" font-family="Helvetica,sans-Serif" font-size="10.00">llzk::cast::FeltToIndexOp</text>
<text text-anchor="middle" x="454" y="-59.75" font-family="Helvetica,sans-Serif" font-size="10.00">Adaptor</text>
</a>
</g>
</g>
<!-- Node3&#45;&gt;Node4 -->
<g id="edge3_Node000003_Node000004" class="edge">
<title>Node3&#45;&gt;Node4</title>
<g id="a_edge3_Node000003_Node000004"><a xlink:title=" ">
<path fill="none" stroke="#63b8ff" d="M357.71,-69.25C368.79,-69.25 380.13,-69.25 390.94,-69.25"/>
<polygon fill="#63b8ff" stroke="#63b8ff" points="357.8,-65.75 347.8,-69.25 357.8,-72.75 357.8,-65.75"/>
</a>
</g>
</g>
</g>
</svg>
