<?xml version="1.0" encoding="UTF-8" standalone="no"?>
<!DOCTYPE svg PUBLIC "-//W3C//DTD SVG 1.1//EN"
 "http://www.w3.org/Graphics/SVG/1.1/DTD/svg11.dtd">
<!-- Generated by graphviz version 12.2.1 (0)
 -->
<!-- Title: llzk::boolean::detail::AssertOpGenericAdaptorBase Pages: 1 -->
<svg width="537pt" height="147pt"
 viewBox="0.00 0.00 536.75 147.12" xmlns="http://www.w3.org/2000/svg" xmlns:xlink="http://www.w3.org/1999/xlink">
<g id="graph0" class="graph" transform="scale(1 1) rotate(0) translate(4 143.12)">
<title>llzk::boolean::detail::AssertOpGenericAdaptorBase</title>
<!-- Node1 -->
<g id="Node000001" class="node">
<title>Node1</title>
<g id="a_Node000001"><a xlink:title=" ">
<polygon fill="#999999" stroke="#666666" points="153.25,-79.5 0,-79.5 0,-49 153.25,-49 153.25,-79.5"/>
<text text-anchor="start" x="8" y="-66" font-family="Helvetica,sans-Serif" font-size="10.00">llzk::boolean::detail</text>
<text text-anchor="middle" x="76.62" y="-54.75" font-family="Helvetica,sans-Serif" font-size="10.00">::AssertOpGenericAdaptorBase</text>
</a>
</g>
</g>
<!-- Node2 -->
<g id="Node000002" class="node">
<title>Node2</title>
<g id="a_Node000002"><a xlink:href="classllzk_1_1boolean_1_1_assert_op_generic_adaptor.html" target="_top" xlink:title=" ">
<polygon fill="white" stroke="#666666" points="341,-139.12 189.25,-139.12 189.25,-97.38 341,-97.38 341,-139.12"/>
<text text-anchor="start" x="197.25" y="-125.62" font-family="Helvetica,sans-Serif" font-size="10.00">llzk::boolean::AssertOpGeneric</text>
<text text-anchor="start" x="197.25" y="-114.38" font-family="Helvetica,sans-Serif" font-size="10.00">Adaptor&lt;::llvm::ArrayRef</text>
<text text-anchor="middle" x="265.12" y="-103.12" font-family="Helvetica,sans-Serif" font-size="10.00">&lt;::mlir::Attribute &gt; &gt;</text>
</a>
</g>
</g>
<!-- Node1&#45;&gt;Node2 -->
<g id="edge1_Node000001_Node000002" class="edge">
<title>Node1&#45;&gt;Node2</title>
<g id="a_edge1_Node000001_Node000002"><a xlink:title=" ">
<path fill="none" stroke="#63b8ff" d="M142.78,-83.12C158.15,-87.57 174.65,-92.34 190.36,-96.89"/>
<polygon fill="#63b8ff" stroke="#63b8ff" points="143.85,-79.78 133.27,-80.36 141.9,-86.51 143.85,-79.78"/>
</a>
</g>
</g>
<!-- Node3 -->
<g id="Node000003" class="node">
<title>Node3</title>
<g id="a_Node000003"><a xlink:href="classllzk_1_1boolean_1_1_assert_op_generic_adaptor.html" target="_top" xlink:title=" ">
<polygon fill="white" stroke="#666666" points="341,-79.5 189.25,-79.5 189.25,-49 341,-49 341,-79.5"/>
<text text-anchor="start" x="197.25" y="-66" font-family="Helvetica,sans-Serif" font-size="10.00">llzk::boolean::AssertOpGeneric</text>
<text text-anchor="middle" x="265.12" y="-54.75" font-family="Helvetica,sans-Serif" font-size="10.00">Adaptor&lt;::mlir::ValueRange &gt;</text>
</a>
</g>
</g>
<!-- Node1&#45;&gt;Node3 -->
<g id="edge2_Node000001_Node000003" class="edge">
<title>Node1&#45;&gt;Node3</title>
<g id="a_edge2_Node000001_Node000003"><a xlink:title=" ">
<path fill="none" stroke="#63b8ff" d="M164.81,-64.25C172.88,-64.25 181,-64.25 188.94,-64.25"/>
<polygon fill="#63b8ff" stroke="#63b8ff" points="165,-60.75 155,-64.25 165,-67.75 165,-60.75"/>
</a>
</g>
</g>
<!-- Node5 -->
<g id="Node000005" class="node">
<title>Node5</title>
<g id="a_Node000005"><a xlink:href="classllzk_1_1boolean_1_1_assert_op_generic_adaptor.html" target="_top" xlink:title=" ">
<polygon fill="white" stroke="#666666" points="341,-30.5 189.25,-30.5 189.25,0 341,0 341,-30.5"/>
<text text-anchor="start" x="197.25" y="-17" font-family="Helvetica,sans-Serif" font-size="10.00">llzk::boolean::AssertOpGeneric</text>
<text text-anchor="middle" x="265.12" y="-5.75" font-family="Helvetica,sans-Serif" font-size="10.00">Adaptor&lt; RangeT &gt;</text>
</a>
</g>
</g>
<!-- Node1&#45;&gt;Node5 -->
<g id="edge4_Node000001_Node000005" class="edge">
<title>Node1&#45;&gt;Node5</title>
<g id="a_edge4_Node000001_Node000005"><a xlink:title=" ">
<path fill="none" stroke="#63b8ff" d="M148.4,-45.66C166.85,-40.81 186.55,-35.63 204.36,-30.95"/>
<polygon fill="#63b8ff" stroke="#63b8ff" points="147.65,-42.23 138.87,-48.16 149.43,-49 147.65,-42.23"/>
</a>
</g>
</g>
<!-- Node4 -->
<g id="Node000004" class="node">
<title>Node4</title>
<g id="a_Node000004"><a xlink:href="classllzk_1_1boolean_1_1_assert_op_adaptor.html" target="_top" xlink:title=" ">
<polygon fill="white" stroke="#666666" points="528.75,-73.88 377,-73.88 377,-54.62 528.75,-54.62 528.75,-73.88"/>
<text text-anchor="middle" x="452.88" y="-60.38" font-family="Helvetica,sans-Serif" font-size="10.00">llzk::boolean::AssertOpAdaptor</text>
</a>
</g>
</g>
<!-- Node3&#45;&gt;Node4 -->
<g id="edge3_Node000003_Node000004" class="edge">
<title>Node3&#45;&gt;Node4</title>
<g id="a_edge3_Node000003_Node000004"><a xlink:title=" ">
<path fill="none" stroke="#63b8ff" d="M352.71,-64.25C360.75,-64.25 368.86,-64.25 376.79,-64.25"/>
<polygon fill="#63b8ff" stroke="#63b8ff" points="352.92,-60.75 342.92,-64.25 352.92,-67.75 352.92,-60.75"/>
</a>
</g>
</g>
</g>
</svg>
