<?xml version="1.0" encoding="UTF-8" standalone="no"?>
<!DOCTYPE svg PUBLIC "-//W3C//DTD SVG 1.1//EN"
 "http://www.w3.org/Graphics/SVG/1.1/DTD/svg11.dtd">
<!-- Generated by graphviz version 12.2.1 (0)
 -->
<!-- Title: llzk::include::detail::IncludeOpGenericAdaptorBase Pages: 1 -->
<svg width="504pt" height="158pt"
 viewBox="0.00 0.00 503.75 158.12" xmlns="http://www.w3.org/2000/svg" xmlns:xlink="http://www.w3.org/1999/xlink">
<g id="graph0" class="graph" transform="scale(1 1) rotate(0) translate(4 154.12)">
<title>llzk::include::detail::IncludeOpGenericAdaptorBase</title>
<!-- Node1 -->
<g id="Node000001" class="node">
<title>Node1</title>
<g id="a_Node000001"><a xlink:title=" ">
<polygon fill="#999999" stroke="#666666" points="156.25,-84.5 0,-84.5 0,-54 156.25,-54 156.25,-84.5"/>
<text text-anchor="start" x="8" y="-71" font-family="Helvetica,sans-Serif" font-size="10.00">llzk::include::detail</text>
<text text-anchor="middle" x="78.12" y="-59.75" font-family="Helvetica,sans-Serif" font-size="10.00">::IncludeOpGenericAdaptorBase</text>
</a>
</g>
</g>
<!-- Node2 -->
<g id="Node000002" class="node">
<title>Node2</title>
<g id="a_Node000002"><a xlink:href="classllzk_1_1include_1_1_include_op_generic_adaptor.html" target="_top" xlink:title=" ">
<polygon fill="white" stroke="#666666" points="341.75,-150.12 192.25,-150.12 192.25,-108.38 341.75,-108.38 341.75,-150.12"/>
<text text-anchor="start" x="200.25" y="-136.62" font-family="Helvetica,sans-Serif" font-size="10.00">llzk::include::IncludeOp</text>
<text text-anchor="start" x="200.25" y="-125.38" font-family="Helvetica,sans-Serif" font-size="10.00">GenericAdaptor&lt;::llvm</text>
<text text-anchor="middle" x="267" y="-114.12" font-family="Helvetica,sans-Serif" font-size="10.00">::ArrayRef&lt;::mlir::Attribute &gt; &gt;</text>
</a>
</g>
</g>
<!-- Node1&#45;&gt;Node2 -->
<g id="edge1_Node000001_Node000002" class="edge">
<title>Node1&#45;&gt;Node2</title>
<g id="a_edge1_Node000001_Node000002"><a xlink:title=" ">
<path fill="none" stroke="#63b8ff" d="M138.59,-88.34C158.04,-94.59 179.77,-101.56 199.69,-107.96"/>
<polygon fill="#63b8ff" stroke="#63b8ff" points="139.77,-85.04 129.18,-85.32 137.63,-91.71 139.77,-85.04"/>
</a>
</g>
</g>
<!-- Node3 -->
<g id="Node000003" class="node">
<title>Node3</title>
<g id="a_Node000003"><a xlink:href="classllzk_1_1include_1_1_include_op_generic_adaptor.html" target="_top" xlink:title=" ">
<polygon fill="white" stroke="#666666" points="326,-90.12 208,-90.12 208,-48.38 326,-48.38 326,-90.12"/>
<text text-anchor="start" x="216" y="-76.62" font-family="Helvetica,sans-Serif" font-size="10.00">llzk::include::IncludeOp</text>
<text text-anchor="start" x="216" y="-65.38" font-family="Helvetica,sans-Serif" font-size="10.00">GenericAdaptor&lt;::mlir</text>
<text text-anchor="middle" x="267" y="-54.12" font-family="Helvetica,sans-Serif" font-size="10.00">::ValueRange &gt;</text>
</a>
</g>
</g>
<!-- Node1&#45;&gt;Node3 -->
<g id="edge2_Node000001_Node000003" class="edge">
<title>Node1&#45;&gt;Node3</title>
<g id="a_edge2_Node000001_Node000003"><a xlink:title=" ">
<path fill="none" stroke="#63b8ff" d="M167.77,-69.25C181.27,-69.25 194.9,-69.25 207.54,-69.25"/>
<polygon fill="#63b8ff" stroke="#63b8ff" points="168,-65.75 158,-69.25 168,-72.75 168,-65.75"/>
</a>
</g>
</g>
<!-- Node5 -->
<g id="Node000005" class="node">
<title>Node5</title>
<g id="a_Node000005"><a xlink:href="classllzk_1_1include_1_1_include_op_generic_adaptor.html" target="_top" xlink:title=" ">
<polygon fill="white" stroke="#666666" points="335,-30.5 199,-30.5 199,0 335,0 335,-30.5"/>
<text text-anchor="start" x="207" y="-17" font-family="Helvetica,sans-Serif" font-size="10.00">llzk::include::IncludeOp</text>
<text text-anchor="middle" x="267" y="-5.75" font-family="Helvetica,sans-Serif" font-size="10.00">GenericAdaptor&lt; RangeT &gt;</text>
</a>
</g>
</g>
<!-- Node1&#45;&gt;Node5 -->
<g id="edge4_Node000001_Node000005" class="edge">
<title>Node1&#45;&gt;Node5</title>
<g id="a_edge4_Node000001_Node000005"><a xlink:title=" ">
<path fill="none" stroke="#63b8ff" d="M144.33,-50.41C166.28,-44.06 190.53,-37.06 211.56,-30.98"/>
<polygon fill="#63b8ff" stroke="#63b8ff" points="143.52,-47 134.88,-53.14 145.46,-53.72 143.52,-47"/>
</a>
</g>
</g>
<!-- Node4 -->
<g id="Node000004" class="node">
<title>Node4</title>
<g id="a_Node000004"><a xlink:href="classllzk_1_1include_1_1_include_op_adaptor.html" target="_top" xlink:title=" ">
<polygon fill="white" stroke="#666666" points="495.75,-84.5 377.75,-84.5 377.75,-54 495.75,-54 495.75,-84.5"/>
<text text-anchor="start" x="385.75" y="-71" font-family="Helvetica,sans-Serif" font-size="10.00">llzk::include::IncludeOp</text>
<text text-anchor="middle" x="436.75" y="-59.75" font-family="Helvetica,sans-Serif" font-size="10.00">Adaptor</text>
</a>
</g>
</g>
<!-- Node3&#45;&gt;Node4 -->
<g id="edge3_Node000003_Node000004" class="edge">
<title>Node3&#45;&gt;Node4</title>
<g id="a_edge3_Node000003_Node000004"><a xlink:title=" ">
<path fill="none" stroke="#63b8ff" d="M337.65,-69.25C350.86,-69.25 364.55,-69.25 377.37,-69.25"/>
<polygon fill="#63b8ff" stroke="#63b8ff" points="337.71,-65.75 327.71,-69.25 337.71,-72.75 337.71,-65.75"/>
</a>
</g>
</g>
</g>
</svg>
