<?xml version="1.0" encoding="UTF-8" standalone="no"?>
<!DOCTYPE svg PUBLIC "-//W3C//DTD SVG 1.1//EN"
 "http://www.w3.org/Graphics/SVG/1.1/DTD/svg11.dtd">
<!-- Generated by graphviz version 12.2.1 (0)
 -->
<!-- Title: include/llzk/Dialect Pages: 1 -->
<svg width="728pt" height="371pt"
 viewBox="0.00 0.00 728.00 370.75" xmlns="http://www.w3.org/2000/svg" xmlns:xlink="http://www.w3.org/1999/xlink">
<g id="graph0" class="graph" transform="scale(1 1) rotate(0) translate(4 366.75)">
<title>include/llzk/Dialect</title>
<g id="clust1" class="cluster">
<title>clusterdir_5804947f485dbfa35f1b2a5b6cdecd1f</title>
<g id="a_clust1"><a xlink:href="dir_5804947f485dbfa35f1b2a5b6cdecd1f.html" target="_top" xlink:title="llzk">
<polygon fill="#edf0f7" stroke="#7f7f7f" stroke-dasharray="5,2" points="8,-8 8,-354.75 434,-354.75 434,-8 8,-8"/>
<text text-anchor="middle" x="221" y="-341.25" font-family="Helvetica,sans-Serif" font-size="10.00">llzk</text>
</a>
</g>
</g>
<g id="clust2" class="cluster">
<title>clusterdir_961f7ef292a3987e3723514feaf3f181</title>
<g id="a_clust2"><a xlink:href="dir_961f7ef292a3987e3723514feaf3f181.html" target="_top">
<polygon fill="#edf0f7" stroke="#404040" stroke-width="2" points="56,-16 56,-327.5 380,-327.5 380,-16 56,-16"/>
</a>
</g>
</g>
<!-- dir_7093d9bec9e6df023c20339d9b6c0d59 -->
<g id="node1" class="node">
<title>dir_7093d9bec9e6df023c20339d9b6c0d59</title>
<g id="a_node1"><a xlink:href="dir_7093d9bec9e6df023c20339d9b6c0d59.html" target="_top" xlink:title="Util">
<polygon fill="#a2b4d6" stroke="#404040" points="47.5,-43.25 16.5,-43.25 16.5,-24 47.5,-24 47.5,-43.25"/>
<text text-anchor="middle" x="32" y="-29.75" font-family="Helvetica,sans-Serif" font-size="10.00">Util</text>
</a>
</g>
</g>
<!-- dir_459833b041acece43aa610615f5ca5a8 -->
<g id="node2" class="node">
<title>dir_459833b041acece43aa610615f5ca5a8</title>
<g id="a_node2"><a xlink:href="dir_459833b041acece43aa610615f5ca5a8.html" target="_top" xlink:title="Pass">
<polygon fill="#a2b4d6" stroke="#404040" points="426.25,-209 387.75,-209 387.75,-189.75 426.25,-189.75 426.25,-209"/>
<text text-anchor="middle" x="407" y="-195.5" font-family="Helvetica,sans-Serif" font-size="10.00">Pass</text>
</a>
</g>
</g>
<!-- dir_961f7ef292a3987e3723514feaf3f181 -->
<g id="node3" class="node">
<title>dir_961f7ef292a3987e3723514feaf3f181</title>
<text text-anchor="middle" x="87" y="-306" font-family="Helvetica,sans-Serif" font-size="10.00">Dialect</text>
</g>
<!-- dir_b57964f09af826cfffee4b0782785e82 -->
<g id="node4" class="node">
<title>dir_b57964f09af826cfffee4b0782785e82</title>
<g id="a_node4"><a xlink:href="dir_b57964f09af826cfffee4b0782785e82.html" target="_top" xlink:title="Array">
<polygon fill="#a2b4d6" stroke="#404040" points="140.62,-264.25 101.38,-264.25 101.38,-245 140.62,-245 140.62,-264.25"/>
<text text-anchor="middle" x="121" y="-250.75" font-family="Helvetica,sans-Serif" font-size="10.00">Array</text>
</a>
</g>
</g>
<!-- dir_b57964f09af826cfffee4b0782785e82&#45;&gt;dir_7093d9bec9e6df023c20339d9b6c0d59 -->
<g id="edge3" class="edge">
<title>dir_b57964f09af826cfffee4b0782785e82&#45;&gt;dir_7093d9bec9e6df023c20339d9b6c0d59</title>
<g id="a_edge3"><a xlink:href="dir_000004_000117.html" target="_top">
<path fill="none" stroke="#63b8ff" d="M108.3,-244.8C96.99,-236.51 80.51,-223.25 69,-209 51.44,-187.26 48.5,-180.03 39,-153.75 27.62,-122.27 26.5,-112.69 28,-79.25 28.36,-71.29 29.07,-62.54 29.79,-54.93"/>
<polygon fill="#63b8ff" stroke="#63b8ff" points="33.27,-55.31 30.81,-45.01 26.31,-54.59 33.27,-55.31"/>
</a>
</g>
<g id="a_edge3&#45;headlabel"><a xlink:href="dir_000004_000117.html" target="_top" xlink:title="2">
<text text-anchor="middle" x="35.89" y="-53.8" font-family="Helvetica,sans-Serif" font-size="10.00" fill="#63b8ff">2</text>
</a>
</g>
</g>
<!-- dir_b57964f09af826cfffee4b0782785e82&#45;&gt;dir_459833b041acece43aa610615f5ca5a8 -->
<g id="edge4" class="edge">
<title>dir_b57964f09af826cfffee4b0782785e82&#45;&gt;dir_459833b041acece43aa610615f5ca5a8</title>
<g id="a_edge4"><a xlink:href="dir_000004_000085.html" target="_top">
<path fill="none" stroke="#63b8ff" d="M140.75,-250.77C190.12,-243.57 318.89,-224.31 376.17,-210.83"/>
<polygon fill="#63b8ff" stroke="#63b8ff" points="376.94,-214.25 385.79,-208.42 375.24,-207.46 376.94,-214.25"/>
</a>
</g>
<g id="a_edge4&#45;headlabel"><a xlink:href="dir_000004_000085.html" target="_top" xlink:title="1">
<text text-anchor="middle" x="375.61" y="-213.63" font-family="Helvetica,sans-Serif" font-size="10.00" fill="#63b8ff">1</text>
</a>
</g>
</g>
<!-- dir_ab86c770cc1b90d5a9908a326f6abfa8 -->
<g id="node12" class="node">
<title>dir_ab86c770cc1b90d5a9908a326f6abfa8</title>
<g id="a_node12"><a xlink:href="dir_ab86c770cc1b90d5a9908a326f6abfa8.html" target="_top" xlink:title="LLZK">
<polygon fill="#a2b4d6" stroke="#404040" points="189.62,-43.25 150.38,-43.25 150.38,-24 189.62,-24 189.62,-43.25"/>
<text text-anchor="middle" x="170" y="-29.75" font-family="Helvetica,sans-Serif" font-size="10.00">LLZK</text>
</a>
</g>
</g>
<!-- dir_b57964f09af826cfffee4b0782785e82&#45;&gt;dir_ab86c770cc1b90d5a9908a326f6abfa8 -->
<g id="edge5" class="edge">
<title>dir_b57964f09af826cfffee4b0782785e82&#45;&gt;dir_ab86c770cc1b90d5a9908a326f6abfa8</title>
<g id="a_edge5"><a xlink:href="dir_000004_000079.html" target="_top">
<path fill="none" stroke="#63b8ff" d="M106.77,-244.6C95.79,-236.71 81.42,-224.17 75,-209 71.67,-201.12 72.75,-198 75,-189.75 90.08,-134.39 131.6,-79.47 154.44,-52.26"/>
<polygon fill="#63b8ff" stroke="#63b8ff" points="157.09,-54.55 160.94,-44.68 151.77,-49.99 157.09,-54.55"/>
</a>
</g>
<g id="a_edge5&#45;headlabel"><a xlink:href="dir_000004_000079.html" target="_top" xlink:title="1">
<text text-anchor="middle" x="157.89" y="-54.1" font-family="Helvetica,sans-Serif" font-size="10.00" fill="#63b8ff">1</text>
</a>
</g>
</g>
<!-- dir_b9e6121c35254505209e91f4816784f6 -->
<g id="node14" class="node">
<title>dir_b9e6121c35254505209e91f4816784f6</title>
<g id="a_node14"><a xlink:href="dir_b9e6121c35254505209e91f4816784f6.html" target="_top" xlink:title="Shared">
<polygon fill="#a2b4d6" stroke="#404040" points="130.38,-209 83.62,-209 83.62,-189.75 130.38,-189.75 130.38,-209"/>
<text text-anchor="middle" x="107" y="-195.5" font-family="Helvetica,sans-Serif" font-size="10.00">Shared</text>
</a>
</g>
</g>
<!-- dir_b57964f09af826cfffee4b0782785e82&#45;&gt;dir_b9e6121c35254505209e91f4816784f6 -->
<g id="edge2" class="edge">
<title>dir_b57964f09af826cfffee4b0782785e82&#45;&gt;dir_b9e6121c35254505209e91f4816784f6</title>
<g id="a_edge2"><a xlink:href="dir_000004_000090.html" target="_top">
<path fill="none" stroke="#63b8ff" d="M118.69,-244.83C116.94,-238.17 114.46,-228.74 112.23,-220.28"/>
<polygon fill="#63b8ff" stroke="#63b8ff" points="115.67,-219.6 109.75,-210.82 108.9,-221.38 115.67,-219.6"/>
</a>
</g>
<g id="a_edge2&#45;headlabel"><a xlink:href="dir_000004_000090.html" target="_top" xlink:title="1">
<text text-anchor="middle" x="118.95" y="-217.02" font-family="Helvetica,sans-Serif" font-size="10.00" fill="#63b8ff">1</text>
</a>
</g>
</g>
<!-- dir_4fef79e7177ba769987a8da36c892c5f -->
<g id="node18" class="node">
<title>dir_4fef79e7177ba769987a8da36c892c5f</title>
<g id="a_node18"><a xlink:href="dir_4fef79e7177ba769987a8da36c892c5f.html" target="_top" xlink:title="build">
<polygon fill="#edf0f7" stroke="red" points="510.12,-43.25 473.88,-43.25 473.88,-24 510.12,-24 510.12,-43.25"/>
<text text-anchor="middle" x="492" y="-29.75" font-family="Helvetica,sans-Serif" font-size="10.00">build</text>
</a>
</g>
</g>
<!-- dir_b57964f09af826cfffee4b0782785e82&#45;&gt;dir_4fef79e7177ba769987a8da36c892c5f -->
<g id="edge1" class="edge">
<title>dir_b57964f09af826cfffee4b0782785e82&#45;&gt;dir_4fef79e7177ba769987a8da36c892c5f</title>
<g id="a_edge1"><a xlink:href="dir_000004_000010.html" target="_top">
<path fill="none" stroke="#63b8ff" d="M140.73,-250.92C209.79,-241.44 436.57,-210.22 438,-209 484.2,-169.68 491.5,-91.66 492.24,-54.8"/>
<polygon fill="#63b8ff" stroke="#63b8ff" points="495.74,-55.14 492.28,-45.13 488.74,-55.12 495.74,-55.14"/>
</a>
</g>
<g id="a_edge1&#45;headlabel"><a xlink:href="dir_000004_000010.html" target="_top" xlink:title="6">
<text text-anchor="middle" x="498.57" y="-53.36" font-family="Helvetica,sans-Serif" font-size="10.00" fill="#63b8ff">6</text>
</a>
</g>
</g>
<!-- dir_453eac0fb7f5516c1dbeff549366479a -->
<g id="node5" class="node">
<title>dir_453eac0fb7f5516c1dbeff549366479a</title>
<g id="a_node5"><a xlink:href="dir_453eac0fb7f5516c1dbeff549366479a.html" target="_top" xlink:title="Bool">
<polygon fill="#a2b4d6" stroke="#404040" points="228.75,-264.25 193.25,-264.25 193.25,-245 228.75,-245 228.75,-264.25"/>
<text text-anchor="middle" x="211" y="-250.75" font-family="Helvetica,sans-Serif" font-size="10.00">Bool</text>
</a>
</g>
</g>
<!-- dir_2148bc142ca0808e18c26f0611e99d79 -->
<g id="node8" class="node">
<title>dir_2148bc142ca0808e18c26f0611e99d79</title>
<g id="a_node8"><a xlink:href="dir_2148bc142ca0808e18c26f0611e99d79.html" target="_top" xlink:title="Felt">
<polygon fill="#a2b4d6" stroke="#404040" points="282.25,-209 249.75,-209 249.75,-189.75 282.25,-189.75 282.25,-209"/>
<text text-anchor="middle" x="266" y="-195.5" font-family="Helvetica,sans-Serif" font-size="10.00">Felt</text>
</a>
</g>
</g>
<!-- dir_453eac0fb7f5516c1dbeff549366479a&#45;&gt;dir_2148bc142ca0808e18c26f0611e99d79 -->
<g id="edge7" class="edge">
<title>dir_453eac0fb7f5516c1dbeff549366479a&#45;&gt;dir_2148bc142ca0808e18c26f0611e99d79</title>
<g id="a_edge7"><a xlink:href="dir_000008_000024.html" target="_top">
<path fill="none" stroke="#63b8ff" d="M220.08,-244.83C227.84,-237.32 239.21,-226.31 248.7,-217.13"/>
<polygon fill="#63b8ff" stroke="#63b8ff" points="250.88,-219.88 255.63,-210.41 246.01,-214.85 250.88,-219.88"/>
</a>
</g>
<g id="a_edge7&#45;headlabel"><a xlink:href="dir_000008_000024.html" target="_top" xlink:title="1">
<text text-anchor="middle" x="251.36" y="-219.49" font-family="Helvetica,sans-Serif" font-size="10.00" fill="#63b8ff">1</text>
</a>
</g>
</g>
<!-- dir_a2a2a66feccb98b434158531e2b48a1c -->
<g id="node9" class="node">
<title>dir_a2a2a66feccb98b434158531e2b48a1c</title>
<g id="a_node9"><a xlink:href="dir_a2a2a66feccb98b434158531e2b48a1c.html" target="_top" xlink:title="Function">
<polygon fill="#a2b4d6" stroke="#404040" points="196.75,-153.75 143.25,-153.75 143.25,-134.5 196.75,-134.5 196.75,-153.75"/>
<text text-anchor="middle" x="170" y="-140.25" font-family="Helvetica,sans-Serif" font-size="10.00">Function</text>
</a>
</g>
</g>
<!-- dir_453eac0fb7f5516c1dbeff549366479a&#45;&gt;dir_a2a2a66feccb98b434158531e2b48a1c -->
<g id="edge8" class="edge">
<title>dir_453eac0fb7f5516c1dbeff549366479a&#45;&gt;dir_a2a2a66feccb98b434158531e2b48a1c</title>
<g id="a_edge8"><a xlink:href="dir_000008_000027.html" target="_top">
<path fill="none" stroke="#63b8ff" d="M214.26,-244.53C218.28,-231.74 223.72,-207.98 216,-189.75 211.24,-178.49 202.09,-168.68 193.2,-161.15"/>
<polygon fill="#63b8ff" stroke="#63b8ff" points="195.46,-158.47 185.42,-155.08 191.16,-163.99 195.46,-158.47"/>
</a>
</g>
<g id="a_edge8&#45;headlabel"><a xlink:href="dir_000008_000027.html" target="_top" xlink:title="1">
<text text-anchor="middle" x="198.85" y="-153.63" font-family="Helvetica,sans-Serif" font-size="10.00" fill="#63b8ff">1</text>
</a>
</g>
</g>
<!-- dir_453eac0fb7f5516c1dbeff549366479a&#45;&gt;dir_4fef79e7177ba769987a8da36c892c5f -->
<g id="edge6" class="edge">
<title>dir_453eac0fb7f5516c1dbeff549366479a&#45;&gt;dir_4fef79e7177ba769987a8da36c892c5f</title>
<g id="a_edge6"><a xlink:href="dir_000008_000010.html" target="_top">
<path fill="none" stroke="#63b8ff" d="M229.19,-247.39C232.12,-246.51 235.13,-245.68 238,-245 288.34,-233.09 431.76,-245.92 468,-209 508.98,-167.25 502.09,-90.44 496.01,-54.34"/>
<polygon fill="#63b8ff" stroke="#63b8ff" points="499.52,-54.08 494.25,-44.89 492.64,-55.36 499.52,-54.08"/>
</a>
</g>
<g id="a_edge6&#45;headlabel"><a xlink:href="dir_000008_000010.html" target="_top" xlink:title="4">
<text text-anchor="middle" x="502.69" y="-51.73" font-family="Helvetica,sans-Serif" font-size="10.00" fill="#63b8ff">4</text>
</a>
</g>
</g>
<!-- dir_21552e93769c0cfe1662f9cbaf5bc6dc -->
<g id="node6" class="node">
<title>dir_21552e93769c0cfe1662f9cbaf5bc6dc</title>
<g id="a_node6"><a xlink:href="dir_21552e93769c0cfe1662f9cbaf5bc6dc.html" target="_top" xlink:title="Cast">
<polygon fill="#a2b4d6" stroke="#404040" points="283.5,-264.25 246.5,-264.25 246.5,-245 283.5,-245 283.5,-264.25"/>
<text text-anchor="middle" x="265" y="-250.75" font-family="Helvetica,sans-Serif" font-size="10.00">Cast</text>
</a>
</g>
</g>
<!-- dir_21552e93769c0cfe1662f9cbaf5bc6dc&#45;&gt;dir_2148bc142ca0808e18c26f0611e99d79 -->
<g id="edge10" class="edge">
<title>dir_21552e93769c0cfe1662f9cbaf5bc6dc&#45;&gt;dir_2148bc142ca0808e18c26f0611e99d79</title>
<g id="a_edge10"><a xlink:href="dir_000012_000024.html" target="_top">
<path fill="none" stroke="#63b8ff" d="M265.17,-244.83C265.29,-238.32 265.46,-229.17 265.62,-220.87"/>
<polygon fill="#63b8ff" stroke="#63b8ff" points="269.11,-220.94 265.8,-210.87 262.12,-220.8 269.11,-220.94"/>
</a>
</g>
<g id="a_edge10&#45;headlabel"><a xlink:href="dir_000012_000024.html" target="_top" xlink:title="1">
<text text-anchor="middle" x="271.91" y="-219.2" font-family="Helvetica,sans-Serif" font-size="10.00" fill="#63b8ff">1</text>
</a>
</g>
</g>
<!-- dir_21552e93769c0cfe1662f9cbaf5bc6dc&#45;&gt;dir_4fef79e7177ba769987a8da36c892c5f -->
<g id="edge9" class="edge">
<title>dir_21552e93769c0cfe1662f9cbaf5bc6dc&#45;&gt;dir_4fef79e7177ba769987a8da36c892c5f</title>
<g id="a_edge9"><a xlink:href="dir_000012_000010.html" target="_top">
<path fill="none" stroke="#63b8ff" d="M283.88,-247.44C286.92,-246.55 290.03,-245.71 293,-245 339.71,-233.91 475.01,-245.66 506,-209 543.52,-164.61 517.12,-89.15 501.4,-53.87"/>
<polygon fill="#63b8ff" stroke="#63b8ff" points="504.63,-52.5 497.23,-44.92 498.28,-55.46 504.63,-52.5"/>
</a>
</g>
<g id="a_edge9&#45;headlabel"><a xlink:href="dir_000012_000010.html" target="_top" xlink:title="2">
<text text-anchor="middle" x="508.08" y="-49.31" font-family="Helvetica,sans-Serif" font-size="10.00" fill="#63b8ff">2</text>
</a>
</g>
</g>
<!-- dir_f38c3fa6151289ed96db329754eda5d7 -->
<g id="node7" class="node">
<title>dir_f38c3fa6151289ed96db329754eda5d7</title>
<g id="a_node7"><a xlink:href="dir_f38c3fa6151289ed96db329754eda5d7.html" target="_top" xlink:title="Constrain">
<polygon fill="#a2b4d6" stroke="#404040" points="186,-319.5 128,-319.5 128,-300.25 186,-300.25 186,-319.5"/>
<text text-anchor="middle" x="157" y="-306" font-family="Helvetica,sans-Serif" font-size="10.00">Constrain</text>
</a>
</g>
</g>
<!-- dir_f38c3fa6151289ed96db329754eda5d7&#45;&gt;dir_b57964f09af826cfffee4b0782785e82 -->
<g id="edge12" class="edge">
<title>dir_f38c3fa6151289ed96db329754eda5d7&#45;&gt;dir_b57964f09af826cfffee4b0782785e82</title>
<g id="a_edge12"><a xlink:href="dir_000016_000004.html" target="_top">
<path fill="none" stroke="#63b8ff" d="M151.06,-300.08C146.29,-293.03 139.44,-282.9 133.48,-274.08"/>
<polygon fill="#63b8ff" stroke="#63b8ff" points="136.42,-272.19 127.92,-265.86 130.62,-276.11 136.42,-272.19"/>
</a>
</g>
<g id="a_edge12&#45;headlabel"><a xlink:href="dir_000016_000004.html" target="_top" xlink:title="1">
<text text-anchor="middle" x="139.94" y="-268.45" font-family="Helvetica,sans-Serif" font-size="10.00" fill="#63b8ff">1</text>
</a>
</g>
</g>
<!-- dir_f38c3fa6151289ed96db329754eda5d7&#45;&gt;dir_a2a2a66feccb98b434158531e2b48a1c -->
<g id="edge13" class="edge">
<title>dir_f38c3fa6151289ed96db329754eda5d7&#45;&gt;dir_a2a2a66feccb98b434158531e2b48a1c</title>
<g id="a_edge13"><a xlink:href="dir_000016_000027.html" target="_top">
<path fill="none" stroke="#63b8ff" d="M160.56,-300.15C165.62,-287.8 175.25,-264.56 184,-245 191.22,-228.85 197.13,-226.27 201,-209 202.87,-200.65 203.56,-197.91 201,-189.75 197.95,-180 191.93,-170.52 186,-162.82"/>
<polygon fill="#63b8ff" stroke="#63b8ff" points="188.83,-160.74 179.74,-155.29 183.45,-165.22 188.83,-160.74"/>
</a>
</g>
<g id="a_edge13&#45;headlabel"><a xlink:href="dir_000016_000027.html" target="_top" xlink:title="1">
<text text-anchor="middle" x="192.34" y="-156.65" font-family="Helvetica,sans-Serif" font-size="10.00" fill="#63b8ff">1</text>
</a>
</g>
</g>
<!-- dir_f38c3fa6151289ed96db329754eda5d7&#45;&gt;dir_4fef79e7177ba769987a8da36c892c5f -->
<g id="edge11" class="edge">
<title>dir_f38c3fa6151289ed96db329754eda5d7&#45;&gt;dir_4fef79e7177ba769987a8da36c892c5f</title>
<g id="a_edge11"><a xlink:href="dir_000016_000010.html" target="_top">
<path fill="none" stroke="#63b8ff" d="M186.44,-302.1C189.33,-301.46 192.22,-300.83 195,-300.25 286.98,-280.92 606,-294.37 606,-200.38 606,-200.38 606,-200.38 606,-143.12 606,-96.16 554.6,-63.35 520.83,-46.85"/>
<polygon fill="#63b8ff" stroke="#63b8ff" points="522.48,-43.77 511.94,-42.72 519.53,-50.11 522.48,-43.77"/>
</a>
</g>
<g id="a_edge11&#45;headlabel"><a xlink:href="dir_000016_000010.html" target="_top" xlink:title="3">
<text text-anchor="middle" x="525.57" y="-38.19" font-family="Helvetica,sans-Serif" font-size="10.00" fill="#63b8ff">3</text>
</a>
</g>
</g>
<!-- dir_2148bc142ca0808e18c26f0611e99d79&#45;&gt;dir_a2a2a66feccb98b434158531e2b48a1c -->
<g id="edge15" class="edge">
<title>dir_2148bc142ca0808e18c26f0611e99d79&#45;&gt;dir_a2a2a66feccb98b434158531e2b48a1c</title>
<g id="a_edge15"><a xlink:href="dir_000024_000027.html" target="_top">
<path fill="none" stroke="#63b8ff" d="M249.71,-189.34C235.1,-181.23 213.37,-169.18 196.29,-159.71"/>
<polygon fill="#63b8ff" stroke="#63b8ff" points="198.13,-156.73 187.69,-154.94 194.74,-162.85 198.13,-156.73"/>
</a>
</g>
<g id="a_edge15&#45;headlabel"><a xlink:href="dir_000024_000027.html" target="_top" xlink:title="1">
<text text-anchor="middle" x="201.33" y="-151.38" font-family="Helvetica,sans-Serif" font-size="10.00" fill="#63b8ff">1</text>
</a>
</g>
</g>
<!-- dir_2148bc142ca0808e18c26f0611e99d79&#45;&gt;dir_4fef79e7177ba769987a8da36c892c5f -->
<g id="edge14" class="edge">
<title>dir_2148bc142ca0808e18c26f0611e99d79&#45;&gt;dir_4fef79e7177ba769987a8da36c892c5f</title>
<g id="a_edge14"><a xlink:href="dir_000024_000010.html" target="_top">
<path fill="none" stroke="#63b8ff" d="M282.66,-190.34C299.41,-181.99 325.74,-168.16 347,-153.75 372.64,-136.37 440.17,-79.1 473.23,-50.78"/>
<polygon fill="#63b8ff" stroke="#63b8ff" points="475.12,-53.77 480.43,-44.6 470.56,-48.46 475.12,-53.77"/>
</a>
</g>
<g id="a_edge14&#45;headlabel"><a xlink:href="dir_000024_000010.html" target="_top" xlink:title="5">
<text text-anchor="middle" x="475.39" y="-53.4" font-family="Helvetica,sans-Serif" font-size="10.00" fill="#63b8ff">5</text>
</a>
</g>
</g>
<!-- dir_a2a2a66feccb98b434158531e2b48a1c&#45;&gt;dir_7093d9bec9e6df023c20339d9b6c0d59 -->
<g id="edge19" class="edge">
<title>dir_a2a2a66feccb98b434158531e2b48a1c&#45;&gt;dir_7093d9bec9e6df023c20339d9b6c0d59</title>
<g id="a_edge19"><a xlink:href="dir_000027_000117.html" target="_top">
<path fill="none" stroke="#63b8ff" d="M158.71,-134.25C135.46,-115.97 81.96,-73.9 52.46,-50.71"/>
<polygon fill="#63b8ff" stroke="#63b8ff" points="54.66,-47.99 44.64,-44.56 50.34,-53.49 54.66,-47.99"/>
</a>
</g>
<g id="a_edge19&#45;headlabel"><a xlink:href="dir_000027_000117.html" target="_top" xlink:title="2">
<text text-anchor="middle" x="58.05" y="-43.17" font-family="Helvetica,sans-Serif" font-size="10.00" fill="#63b8ff">2</text>
</a>
</g>
</g>
<!-- dir_a2a2a66feccb98b434158531e2b48a1c&#45;&gt;dir_b9e6121c35254505209e91f4816784f6 -->
<g id="edge17" class="edge">
<title>dir_a2a2a66feccb98b434158531e2b48a1c&#45;&gt;dir_b9e6121c35254505209e91f4816784f6</title>
<g id="a_edge17"><a xlink:href="dir_000027_000090.html" target="_top">
<path fill="none" stroke="#63b8ff" d="M164.66,-154.02C157.15,-161.76 144.03,-173.14 132.09,-182.44"/>
<polygon fill="#63b8ff" stroke="#63b8ff" points="130.01,-179.63 124.11,-188.43 134.21,-185.23 130.01,-179.63"/>
</a>
</g>
<g id="a_edge17&#45;headlabel"><a xlink:href="dir_000027_000090.html" target="_top" xlink:title="1">
<text text-anchor="middle" x="129.97" y="-172.23" font-family="Helvetica,sans-Serif" font-size="10.00" fill="#63b8ff">1</text>
</a>
</g>
</g>
<!-- dir_3f79f5f4c17a11caedb64e36351476ed -->
<g id="node16" class="node">
<title>dir_3f79f5f4c17a11caedb64e36351476ed</title>
<g id="a_node16"><a xlink:href="dir_3f79f5f4c17a11caedb64e36351476ed.html" target="_top" xlink:title="Struct">
<polygon fill="#a2b4d6" stroke="#404040" points="191.12,-98.5 148.88,-98.5 148.88,-79.25 191.12,-79.25 191.12,-98.5"/>
<text text-anchor="middle" x="170" y="-85" font-family="Helvetica,sans-Serif" font-size="10.00">Struct</text>
</a>
</g>
</g>
<!-- dir_a2a2a66feccb98b434158531e2b48a1c&#45;&gt;dir_3f79f5f4c17a11caedb64e36351476ed -->
<g id="edge18" class="edge">
<title>dir_a2a2a66feccb98b434158531e2b48a1c&#45;&gt;dir_3f79f5f4c17a11caedb64e36351476ed</title>
<g id="a_edge18"><a xlink:href="dir_000027_000096.html" target="_top">
<path fill="none" stroke="#63b8ff" d="M164.83,-134.33C163.42,-127.74 162.96,-118.46 163.43,-110.07"/>
<polygon fill="#63b8ff" stroke="#63b8ff" points="166.88,-110.71 164.61,-100.36 159.93,-109.87 166.88,-110.71"/>
</a>
</g>
<g id="a_edge18&#45;headlabel"><a xlink:href="dir_000027_000096.html" target="_top" xlink:title="1">
<text text-anchor="middle" x="169.44" y="-109.25" font-family="Helvetica,sans-Serif" font-size="10.00" fill="#63b8ff">1</text>
</a>
</g>
</g>
<!-- dir_a2a2a66feccb98b434158531e2b48a1c&#45;&gt;dir_4fef79e7177ba769987a8da36c892c5f -->
<g id="edge16" class="edge">
<title>dir_a2a2a66feccb98b434158531e2b48a1c&#45;&gt;dir_4fef79e7177ba769987a8da36c892c5f</title>
<g id="a_edge16"><a xlink:href="dir_000027_000010.html" target="_top">
<path fill="none" stroke="#63b8ff" d="M188.46,-134.12C216.27,-120.82 270.79,-95.7 319,-79.25 368.37,-62.41 427.53,-48.44 462.32,-40.83"/>
<polygon fill="#63b8ff" stroke="#63b8ff" points="463.03,-44.26 472.07,-38.73 461.56,-37.42 463.03,-44.26"/>
</a>
</g>
<g id="a_edge16&#45;headlabel"><a xlink:href="dir_000027_000010.html" target="_top" xlink:title="3">
<text text-anchor="middle" x="461.59" y="-43.6" font-family="Helvetica,sans-Serif" font-size="10.00" fill="#63b8ff">3</text>
</a>
</g>
</g>
<!-- dir_89f7804ef5f027346da5933205091d05 -->
<g id="node10" class="node">
<title>dir_89f7804ef5f027346da5933205091d05</title>
<g id="a_node10"><a xlink:href="dir_89f7804ef5f027346da5933205091d05.html" target="_top" xlink:title="Global">
<polygon fill="#a2b4d6" stroke="#404040" points="191.88,-209 148.12,-209 148.12,-189.75 191.88,-189.75 191.88,-209"/>
<text text-anchor="middle" x="170" y="-195.5" font-family="Helvetica,sans-Serif" font-size="10.00">Global</text>
</a>
</g>
</g>
<!-- dir_89f7804ef5f027346da5933205091d05&#45;&gt;dir_7093d9bec9e6df023c20339d9b6c0d59 -->
<g id="edge22" class="edge">
<title>dir_89f7804ef5f027346da5933205091d05&#45;&gt;dir_7093d9bec9e6df023c20339d9b6c0d59</title>
<g id="a_edge22"><a xlink:href="dir_000030_000117.html" target="_top">
<path fill="none" stroke="#63b8ff" d="M162.58,-189.57C140.68,-163.58 76.01,-86.84 46.72,-52.09"/>
<polygon fill="#63b8ff" stroke="#63b8ff" points="49.55,-50.02 40.43,-44.63 44.2,-54.53 49.55,-50.02"/>
</a>
</g>
<g id="a_edge22&#45;headlabel"><a xlink:href="dir_000030_000117.html" target="_top" xlink:title="1">
<text text-anchor="middle" x="53.06" y="-45.91" font-family="Helvetica,sans-Serif" font-size="10.00" fill="#63b8ff">1</text>
</a>
</g>
</g>
<!-- dir_89f7804ef5f027346da5933205091d05&#45;&gt;dir_a2a2a66feccb98b434158531e2b48a1c -->
<g id="edge21" class="edge">
<title>dir_89f7804ef5f027346da5933205091d05&#45;&gt;dir_a2a2a66feccb98b434158531e2b48a1c</title>
<g id="a_edge21"><a xlink:href="dir_000030_000027.html" target="_top">
<path fill="none" stroke="#63b8ff" d="M170,-189.58C170,-183.07 170,-173.92 170,-165.62"/>
<polygon fill="#63b8ff" stroke="#63b8ff" points="173.5,-165.62 170,-155.62 166.5,-165.62 173.5,-165.62"/>
</a>
</g>
<g id="a_edge21&#45;headlabel"><a xlink:href="dir_000030_000027.html" target="_top" xlink:title="1">
<text text-anchor="middle" x="176.34" y="-163.83" font-family="Helvetica,sans-Serif" font-size="10.00" fill="#63b8ff">1</text>
</a>
</g>
</g>
<!-- dir_89f7804ef5f027346da5933205091d05&#45;&gt;dir_4fef79e7177ba769987a8da36c892c5f -->
<g id="edge20" class="edge">
<title>dir_89f7804ef5f027346da5933205091d05&#45;&gt;dir_4fef79e7177ba769987a8da36c892c5f</title>
<g id="a_edge20"><a xlink:href="dir_000030_000010.html" target="_top">
<path fill="none" stroke="#63b8ff" d="M187.77,-189.34C240.99,-162.27 399.38,-81.72 464.04,-48.84"/>
<polygon fill="#63b8ff" stroke="#63b8ff" points="465.61,-51.97 472.94,-44.32 462.43,-45.73 465.61,-51.97"/>
</a>
</g>
<g id="a_edge20&#45;headlabel"><a xlink:href="dir_000030_000010.html" target="_top" xlink:title="3">
<text text-anchor="middle" x="465.04" y="-51.57" font-family="Helvetica,sans-Serif" font-size="10.00" fill="#63b8ff">3</text>
</a>
</g>
</g>
<!-- dir_320ed45e53e1983f926a8351355dbd89 -->
<g id="node11" class="node">
<title>dir_320ed45e53e1983f926a8351355dbd89</title>
<g id="a_node11"><a xlink:href="dir_320ed45e53e1983f926a8351355dbd89.html" target="_top" xlink:title="Include">
<polygon fill="#a2b4d6" stroke="#404040" points="251.75,-319.5 204.25,-319.5 204.25,-300.25 251.75,-300.25 251.75,-319.5"/>
<text text-anchor="middle" x="228" y="-306" font-family="Helvetica,sans-Serif" font-size="10.00">Include</text>
</a>
</g>
</g>
<!-- dir_320ed45e53e1983f926a8351355dbd89&#45;&gt;dir_459833b041acece43aa610615f5ca5a8 -->
<g id="edge25" class="edge">
<title>dir_320ed45e53e1983f926a8351355dbd89&#45;&gt;dir_459833b041acece43aa610615f5ca5a8</title>
<g id="a_edge25"><a xlink:href="dir_000033_000085.html" target="_top">
<path fill="none" stroke="#63b8ff" d="M251.96,-302.47C293.77,-291.22 376.11,-268.66 381,-264.25 393.65,-252.84 400.27,-234.37 403.66,-220.23"/>
<polygon fill="#63b8ff" stroke="#63b8ff" points="407.04,-221.17 405.57,-210.67 400.17,-219.79 407.04,-221.17"/>
</a>
</g>
<g id="a_edge25&#45;headlabel"><a xlink:href="dir_000033_000085.html" target="_top" xlink:title="1">
<text text-anchor="middle" x="409.41" y="-219.89" font-family="Helvetica,sans-Serif" font-size="10.00" fill="#63b8ff">1</text>
</a>
</g>
</g>
<!-- dir_c9ffcee501422a82310fdc6fcd6a1257 -->
<g id="node13" class="node">
<title>dir_c9ffcee501422a82310fdc6fcd6a1257</title>
<g id="a_node13"><a xlink:href="dir_c9ffcee501422a82310fdc6fcd6a1257.html" target="_top" xlink:title="Polymorphic">
<polygon fill="#a2b4d6" stroke="#404040" points="372,-264.25 302,-264.25 302,-245 372,-245 372,-264.25"/>
<text text-anchor="middle" x="337" y="-250.75" font-family="Helvetica,sans-Serif" font-size="10.00">Polymorphic</text>
</a>
</g>
</g>
<!-- dir_320ed45e53e1983f926a8351355dbd89&#45;&gt;dir_c9ffcee501422a82310fdc6fcd6a1257 -->
<g id="edge24" class="edge">
<title>dir_320ed45e53e1983f926a8351355dbd89&#45;&gt;dir_c9ffcee501422a82310fdc6fcd6a1257</title>
<g id="a_edge24"><a xlink:href="dir_000033_000087.html" target="_top">
<path fill="none" stroke="#63b8ff" d="M246.49,-299.84C263.4,-291.58 288.69,-279.23 308.24,-269.68"/>
<polygon fill="#63b8ff" stroke="#63b8ff" points="309.61,-272.9 317.06,-265.37 306.54,-266.61 309.61,-272.9"/>
</a>
</g>
<g id="a_edge24&#45;headlabel"><a xlink:href="dir_000033_000087.html" target="_top" xlink:title="1">
<text text-anchor="middle" x="308.99" y="-272.49" font-family="Helvetica,sans-Serif" font-size="10.00" fill="#63b8ff">1</text>
</a>
</g>
</g>
<!-- dir_320ed45e53e1983f926a8351355dbd89&#45;&gt;dir_4fef79e7177ba769987a8da36c892c5f -->
<g id="edge23" class="edge">
<title>dir_320ed45e53e1983f926a8351355dbd89&#45;&gt;dir_4fef79e7177ba769987a8da36c892c5f</title>
<g id="a_edge23"><a xlink:href="dir_000033_000010.html" target="_top">
<path fill="none" stroke="#63b8ff" d="M252.05,-302.13C255.05,-301.42 258.09,-300.77 261,-300.25 339.91,-286.07 556.45,-313.13 620,-264.25 644.04,-245.76 644,-230.7 644,-200.38 644,-200.38 644,-200.38 644,-143.12 644,-112.8 641.7,-100.44 620,-79.25 593.18,-53.07 550.2,-42.19 521.54,-37.71"/>
<polygon fill="#63b8ff" stroke="#63b8ff" points="522.1,-34.26 511.72,-36.36 521.15,-41.19 522.1,-34.26"/>
</a>
</g>
<g id="a_edge23&#45;headlabel"><a xlink:href="dir_000033_000010.html" target="_top" xlink:title="3">
<text text-anchor="middle" x="524.55" y="-27.85" font-family="Helvetica,sans-Serif" font-size="10.00" fill="#63b8ff">3</text>
</a>
</g>
</g>
<!-- dir_ab86c770cc1b90d5a9908a326f6abfa8&#45;&gt;dir_4fef79e7177ba769987a8da36c892c5f -->
<g id="edge26" class="edge">
<title>dir_ab86c770cc1b90d5a9908a326f6abfa8&#45;&gt;dir_4fef79e7177ba769987a8da36c892c5f</title>
<g id="a_edge26"><a xlink:href="dir_000079_000010.html" target="_top">
<path fill="none" stroke="#63b8ff" d="M190.12,-33.62C280.78,-33.62 371.43,-33.62 462.08,-33.62"/>
<polygon fill="#63b8ff" stroke="#63b8ff" points="461.91,-37.13 471.91,-33.63 461.91,-30.13 461.91,-37.13"/>
</a>
</g>
<g id="a_edge26&#45;headlabel"><a xlink:href="dir_000079_000010.html" target="_top" xlink:title="2">
<text text-anchor="middle" x="459.83" y="-36.09" font-family="Helvetica,sans-Serif" font-size="10.00" fill="#63b8ff">2</text>
</a>
</g>
</g>
<!-- dir_c9ffcee501422a82310fdc6fcd6a1257&#45;&gt;dir_459833b041acece43aa610615f5ca5a8 -->
<g id="edge28" class="edge">
<title>dir_c9ffcee501422a82310fdc6fcd6a1257&#45;&gt;dir_459833b041acece43aa610615f5ca5a8</title>
<g id="a_edge28"><a xlink:href="dir_000087_000085.html" target="_top">
<path fill="none" stroke="#63b8ff" d="M348.87,-244.59C359.09,-236.82 374.07,-225.42 386.26,-216.15"/>
<polygon fill="#63b8ff" stroke="#63b8ff" points="388.26,-219.03 394.1,-210.19 384.02,-213.46 388.26,-219.03"/>
</a>
</g>
<g id="a_edge28&#45;headlabel"><a xlink:href="dir_000087_000085.html" target="_top" xlink:title="1">
<text text-anchor="middle" x="388.32" y="-218.68" font-family="Helvetica,sans-Serif" font-size="10.00" fill="#63b8ff">1</text>
</a>
</g>
</g>
<!-- dir_c9ffcee501422a82310fdc6fcd6a1257&#45;&gt;dir_4fef79e7177ba769987a8da36c892c5f -->
<g id="edge27" class="edge">
<title>dir_c9ffcee501422a82310fdc6fcd6a1257&#45;&gt;dir_4fef79e7177ba769987a8da36c892c5f</title>
<g id="a_edge27"><a xlink:href="dir_000087_000010.html" target="_top">
<path fill="none" stroke="#63b8ff" d="M372.3,-251.23C425.64,-246.79 522.81,-235.24 544,-209 580.23,-164.13 568.08,-131.65 544,-79.25 538.54,-67.37 528.19,-57.47 518.15,-50.03"/>
<polygon fill="#63b8ff" stroke="#63b8ff" points="520.28,-47.25 510.04,-44.53 516.35,-53.04 520.28,-47.25"/>
</a>
</g>
<g id="a_edge27&#45;headlabel"><a xlink:href="dir_000087_000010.html" target="_top" xlink:title="5">
<text text-anchor="middle" x="523.6" y="-42.2" font-family="Helvetica,sans-Serif" font-size="10.00" fill="#63b8ff">5</text>
</a>
</g>
</g>
<!-- dir_b9e6121c35254505209e91f4816784f6&#45;&gt;dir_7093d9bec9e6df023c20339d9b6c0d59 -->
<g id="edge29" class="edge">
<title>dir_b9e6121c35254505209e91f4816784f6&#45;&gt;dir_7093d9bec9e6df023c20339d9b6c0d59</title>
<g id="a_edge29"><a xlink:href="dir_000090_000117.html" target="_top">
<path fill="none" stroke="#63b8ff" d="M90.27,-189.33C77.66,-181.59 61.04,-169.26 52,-153.75 33.92,-122.74 31.08,-79.94 31.18,-54.98"/>
<polygon fill="#63b8ff" stroke="#63b8ff" points="34.67,-55.31 31.4,-45.23 27.67,-55.15 34.67,-55.31"/>
</a>
</g>
<g id="a_edge29&#45;headlabel"><a xlink:href="dir_000090_000117.html" target="_top" xlink:title="2">
<text text-anchor="middle" x="37.46" y="-53.58" font-family="Helvetica,sans-Serif" font-size="10.00" fill="#63b8ff">2</text>
</a>
</g>
</g>
<!-- dir_b9e6121c35254505209e91f4816784f6&#45;&gt;dir_a2a2a66feccb98b434158531e2b48a1c -->
<g id="edge30" class="edge">
<title>dir_b9e6121c35254505209e91f4816784f6&#45;&gt;dir_a2a2a66feccb98b434158531e2b48a1c</title>
<g id="a_edge30"><a xlink:href="dir_000090_000027.html" target="_top">
<path fill="none" stroke="#63b8ff" d="M112.24,-189.58C119.81,-181.77 133.2,-170.16 145.29,-160.76"/>
<polygon fill="#63b8ff" stroke="#63b8ff" points="147.05,-163.82 152.95,-155.02 142.85,-158.21 147.05,-163.82"/>
</a>
</g>
<g id="a_edge30&#45;headlabel"><a xlink:href="dir_000090_000027.html" target="_top" xlink:title="1">
<text text-anchor="middle" x="147.09" y="-163.46" font-family="Helvetica,sans-Serif" font-size="10.00" fill="#63b8ff">1</text>
</a>
</g>
</g>
<!-- dir_aeb111a66559cddca48532b3374d72a2 -->
<g id="node15" class="node">
<title>dir_aeb111a66559cddca48532b3374d72a2</title>
<g id="a_node15"><a xlink:href="dir_aeb111a66559cddca48532b3374d72a2.html" target="_top" xlink:title="String">
<polygon fill="#a2b4d6" stroke="#404040" points="311.75,-319.5 270.25,-319.5 270.25,-300.25 311.75,-300.25 311.75,-319.5"/>
<text text-anchor="middle" x="291" y="-306" font-family="Helvetica,sans-Serif" font-size="10.00">String</text>
</a>
</g>
</g>
<!-- dir_aeb111a66559cddca48532b3374d72a2&#45;&gt;dir_4fef79e7177ba769987a8da36c892c5f -->
<g id="edge31" class="edge">
<title>dir_aeb111a66559cddca48532b3374d72a2&#45;&gt;dir_4fef79e7177ba769987a8da36c892c5f</title>
<g id="a_edge31"><a xlink:href="dir_000093_000010.html" target="_top">
<path fill="none" stroke="#63b8ff" d="M312.19,-302.29C315.13,-301.52 318.13,-300.81 321,-300.25 394.91,-285.79 598.45,-310.36 658,-264.25 681.98,-245.68 682,-230.7 682,-200.38 682,-200.38 682,-200.38 682,-143.12 682,-112.8 680.46,-99.63 658,-79.25 620.08,-44.83 558.41,-36.51 521.87,-34.76"/>
<polygon fill="#63b8ff" stroke="#63b8ff" points="522.13,-31.26 512.02,-34.44 521.9,-38.26 522.13,-31.26"/>
</a>
</g>
<g id="a_edge31&#45;headlabel"><a xlink:href="dir_000093_000010.html" target="_top" xlink:title="4">
<text text-anchor="middle" x="524.3" y="-24.62" font-family="Helvetica,sans-Serif" font-size="10.00" fill="#63b8ff">4</text>
</a>
</g>
</g>
<!-- dir_3f79f5f4c17a11caedb64e36351476ed&#45;&gt;dir_7093d9bec9e6df023c20339d9b6c0d59 -->
<g id="edge33" class="edge">
<title>dir_3f79f5f4c17a11caedb64e36351476ed&#45;&gt;dir_7093d9bec9e6df023c20339d9b6c0d59</title>
<g id="a_edge33"><a xlink:href="dir_000096_000117.html" target="_top">
<path fill="none" stroke="#63b8ff" d="M148.57,-80.1C127.06,-72.24 92.74,-59.49 58.35,-45.76"/>
<polygon fill="#63b8ff" stroke="#63b8ff" points="59.68,-42.52 49.1,-42.04 57.07,-49.02 59.68,-42.52"/>
</a>
</g>
<g id="a_edge33&#45;headlabel"><a xlink:href="dir_000096_000117.html" target="_top" xlink:title="2">
<text text-anchor="middle" x="62.67" y="-36.79" font-family="Helvetica,sans-Serif" font-size="10.00" fill="#63b8ff">2</text>
</a>
</g>
</g>
<!-- dir_3f79f5f4c17a11caedb64e36351476ed&#45;&gt;dir_a2a2a66feccb98b434158531e2b48a1c -->
<g id="edge34" class="edge">
<title>dir_3f79f5f4c17a11caedb64e36351476ed&#45;&gt;dir_a2a2a66feccb98b434158531e2b48a1c</title>
<g id="a_edge34"><a xlink:href="dir_000096_000027.html" target="_top">
<path fill="none" stroke="#63b8ff" d="M175.21,-98.86C176.6,-105.5 177.05,-114.8 176.56,-123.17"/>
<polygon fill="#63b8ff" stroke="#63b8ff" points="173.12,-122.47 175.35,-132.83 180.06,-123.34 173.12,-122.47"/>
</a>
</g>
<g id="a_edge34&#45;headlabel"><a xlink:href="dir_000096_000027.html" target="_top" xlink:title="1">
<text text-anchor="middle" x="170.56" y="-116.18" font-family="Helvetica,sans-Serif" font-size="10.00" fill="#63b8ff">1</text>
</a>
</g>
</g>
<!-- dir_3f79f5f4c17a11caedb64e36351476ed&#45;&gt;dir_ab86c770cc1b90d5a9908a326f6abfa8 -->
<g id="edge35" class="edge">
<title>dir_3f79f5f4c17a11caedb64e36351476ed&#45;&gt;dir_ab86c770cc1b90d5a9908a326f6abfa8</title>
<g id="a_edge35"><a xlink:href="dir_000096_000079.html" target="_top">
<path fill="none" stroke="#63b8ff" d="M170,-79.08C170,-72.57 170,-63.42 170,-55.12"/>
<polygon fill="#63b8ff" stroke="#63b8ff" points="173.5,-55.12 170,-45.12 166.5,-55.12 173.5,-55.12"/>
</a>
</g>
<g id="a_edge35&#45;headlabel"><a xlink:href="dir_000096_000079.html" target="_top" xlink:title="1">
<text text-anchor="middle" x="176.34" y="-53.33" font-family="Helvetica,sans-Serif" font-size="10.00" fill="#63b8ff">1</text>
</a>
</g>
</g>
<!-- dir_3f79f5f4c17a11caedb64e36351476ed&#45;&gt;dir_b9e6121c35254505209e91f4816784f6 -->
<g id="edge36" class="edge">
<title>dir_3f79f5f4c17a11caedb64e36351476ed&#45;&gt;dir_b9e6121c35254505209e91f4816784f6</title>
<g id="a_edge36"><a xlink:href="dir_000096_000090.html" target="_top">
<path fill="none" stroke="#63b8ff" d="M161.46,-98.88C153.6,-107.52 141.98,-121.18 134,-134.5 125.57,-148.58 118.47,-165.77 113.66,-178.77"/>
<polygon fill="#63b8ff" stroke="#63b8ff" points="110.47,-177.3 110.43,-187.89 117.07,-179.64 110.47,-177.3"/>
</a>
</g>
<g id="a_edge36&#45;headlabel"><a xlink:href="dir_000096_000090.html" target="_top" xlink:title="1">
<text text-anchor="middle" x="108.49" y="-170.51" font-family="Helvetica,sans-Serif" font-size="10.00" fill="#63b8ff">1</text>
</a>
</g>
</g>
<!-- dir_3f79f5f4c17a11caedb64e36351476ed&#45;&gt;dir_4fef79e7177ba769987a8da36c892c5f -->
<g id="edge32" class="edge">
<title>dir_3f79f5f4c17a11caedb64e36351476ed&#45;&gt;dir_4fef79e7177ba769987a8da36c892c5f</title>
<g id="a_edge32"><a xlink:href="dir_000096_000010.html" target="_top">
<path fill="none" stroke="#63b8ff" d="M191.34,-84.25C200.47,-82.7 211.26,-80.88 221,-79.25 308.77,-64.6 412.58,-47.6 462.41,-39.45"/>
<polygon fill="#63b8ff" stroke="#63b8ff" points="462.8,-42.94 472.1,-37.87 461.67,-36.03 462.8,-42.94"/>
</a>
</g>
<g id="a_edge32&#45;headlabel"><a xlink:href="dir_000096_000010.html" target="_top" xlink:title="6">
<text text-anchor="middle" x="461.2" y="-42.2" font-family="Helvetica,sans-Serif" font-size="10.00" fill="#63b8ff">6</text>
</a>
</g>
</g>
<!-- dir_176d422a371c60a944ec72c7264ca9fd -->
<g id="node17" class="node">
<title>dir_176d422a371c60a944ec72c7264ca9fd</title>
<g id="a_node17"><a xlink:href="dir_176d422a371c60a944ec72c7264ca9fd.html" target="_top" xlink:title="Undef">
<polygon fill="#a2b4d6" stroke="#404040" points="372.12,-319.5 329.88,-319.5 329.88,-300.25 372.12,-300.25 372.12,-319.5"/>
<text text-anchor="middle" x="351" y="-306" font-family="Helvetica,sans-Serif" font-size="10.00">Undef</text>
</a>
</g>
</g>
<!-- dir_176d422a371c60a944ec72c7264ca9fd&#45;&gt;dir_4fef79e7177ba769987a8da36c892c5f -->
<g id="edge37" class="edge">
<title>dir_176d422a371c60a944ec72c7264ca9fd&#45;&gt;dir_4fef79e7177ba769987a8da36c892c5f</title>
<g id="a_edge37"><a xlink:href="dir_000113_000010.html" target="_top">
<path fill="none" stroke="#63b8ff" d="M372.19,-308.9C439.26,-308.58 645.47,-304.29 696,-264.25 719.77,-245.42 720,-230.7 720,-200.38 720,-200.38 720,-200.38 720,-143.12 720,-112.8 718.93,-99.1 696,-79.25 670.17,-56.89 571.81,-43.27 521.71,-37.64"/>
<polygon fill="#63b8ff" stroke="#63b8ff" points="522.19,-34.17 511.88,-36.57 521.44,-41.13 522.19,-34.17"/>
</a>
</g>
<g id="a_edge37&#45;headlabel"><a xlink:href="dir_000113_000010.html" target="_top" xlink:title="2">
<text text-anchor="middle" x="524.57" y="-27.69" font-family="Helvetica,sans-Serif" font-size="10.00" fill="#63b8ff">2</text>
</a>
</g>
</g>
</g>
</svg>
