<?xml version="1.0" encoding="UTF-8" standalone="no"?>
<!DOCTYPE svg PUBLIC "-//W3C//DTD SVG 1.1//EN"
 "http://www.w3.org/Graphics/SVG/1.1/DTD/svg11.dtd">
<!-- Generated by graphviz version 12.2.1 (0)
 -->
<!-- Title: Graphical Class Hierarchy Pages: 1 -->
<svg width="508pt" height="147pt"
 viewBox="0.00 0.00 508.25 147.12" xmlns="http://www.w3.org/2000/svg" xmlns:xlink="http://www.w3.org/1999/xlink">
<g id="graph0" class="graph" transform="scale(1 1) rotate(0) translate(4 143.12)">
<title>Graphical Class Hierarchy</title>
<!-- Node0 -->
<g id="Node000000" class="node">
<title>Node0</title>
<g id="a_Node000000"><a xlink:href="classllzk_1_1function_1_1detail_1_1_call_op_generic_adaptor_base.html" target="_top" xlink:title=" ">
<polygon fill="white" stroke="#666666" points="142,-79.5 0,-79.5 0,-49 142,-49 142,-79.5"/>
<text text-anchor="start" x="8" y="-66" font-family="Helvetica,sans-Serif" font-size="10.00">llzk::function::detail</text>
<text text-anchor="middle" x="71" y="-54.75" font-family="Helvetica,sans-Serif" font-size="10.00">::CallOpGenericAdaptorBase</text>
</a>
</g>
</g>
<!-- Node1 -->
<g id="Node000001" class="node">
<title>Node1</title>
<g id="a_Node000001"><a xlink:href="classllzk_1_1function_1_1_call_op_generic_adaptor.html" target="_top" xlink:title=" ">
<polygon fill="white" stroke="#666666" points="321.12,-139.12 179.88,-139.12 179.88,-97.38 321.12,-97.38 321.12,-139.12"/>
<text text-anchor="start" x="187.88" y="-125.62" font-family="Helvetica,sans-Serif" font-size="10.00">llzk::function::CallOpGeneric</text>
<text text-anchor="start" x="187.88" y="-114.38" font-family="Helvetica,sans-Serif" font-size="10.00">Adaptor&lt;::llvm::ArrayRef</text>
<text text-anchor="middle" x="250.5" y="-103.12" font-family="Helvetica,sans-Serif" font-size="10.00">&lt;::mlir::Attribute &gt; &gt;</text>
</a>
</g>
</g>
<!-- Node0&#45;&gt;Node1 -->
<g id="edge167_Node000000_Node000001" class="edge">
<title>Node0&#45;&gt;Node1</title>
<g id="a_edge167_Node000000_Node000001"><a xlink:title=" ">
<path fill="none" stroke="#63b8ff" d="M134.27,-83.2C148.88,-87.64 164.54,-92.4 179.46,-96.94"/>
<polygon fill="#63b8ff" stroke="#63b8ff" points="135.37,-79.87 124.79,-80.31 133.34,-86.57 135.37,-79.87"/>
</a>
</g>
</g>
<!-- Node2 -->
<g id="Node000002" class="node">
<title>Node2</title>
<g id="a_Node000002"><a xlink:href="classllzk_1_1function_1_1_call_op_generic_adaptor.html" target="_top" xlink:title=" ">
<polygon fill="white" stroke="#666666" points="323,-79.5 178,-79.5 178,-49 323,-49 323,-79.5"/>
<text text-anchor="start" x="186" y="-66" font-family="Helvetica,sans-Serif" font-size="10.00">llzk::function::CallOpGeneric</text>
<text text-anchor="middle" x="250.5" y="-54.75" font-family="Helvetica,sans-Serif" font-size="10.00">Adaptor&lt;::mlir::ValueRange &gt;</text>
</a>
</g>
</g>
<!-- Node0&#45;&gt;Node2 -->
<g id="edge168_Node000000_Node000002" class="edge">
<title>Node0&#45;&gt;Node2</title>
<g id="a_edge168_Node000000_Node000002"><a xlink:title=" ">
<path fill="none" stroke="#63b8ff" d="M153.68,-64.25C161.7,-64.25 169.81,-64.25 177.72,-64.25"/>
<polygon fill="#63b8ff" stroke="#63b8ff" points="153.92,-60.75 143.92,-64.25 153.92,-67.75 153.92,-60.75"/>
</a>
</g>
</g>
<!-- Node4 -->
<g id="Node000004" class="node">
<title>Node4</title>
<g id="a_Node000004"><a xlink:href="classllzk_1_1function_1_1_call_op_generic_adaptor.html" target="_top" xlink:title=" ">
<polygon fill="white" stroke="#666666" points="321.12,-30.5 179.88,-30.5 179.88,0 321.12,0 321.12,-30.5"/>
<text text-anchor="start" x="187.88" y="-17" font-family="Helvetica,sans-Serif" font-size="10.00">llzk::function::CallOpGeneric</text>
<text text-anchor="middle" x="250.5" y="-5.75" font-family="Helvetica,sans-Serif" font-size="10.00">Adaptor&lt; RangeT &gt;</text>
</a>
</g>
</g>
<!-- Node0&#45;&gt;Node4 -->
<g id="edge170_Node000000_Node000004" class="edge">
<title>Node0&#45;&gt;Node4</title>
<g id="a_edge170_Node000000_Node000004"><a xlink:title=" ">
<path fill="none" stroke="#63b8ff" d="M139.37,-45.65C156.88,-40.82 175.56,-35.66 192.47,-30.99"/>
<polygon fill="#63b8ff" stroke="#63b8ff" points="138.82,-42.17 130.11,-48.21 140.68,-48.92 138.82,-42.17"/>
</a>
</g>
</g>
<!-- Node3 -->
<g id="Node000003" class="node">
<title>Node3</title>
<g id="a_Node000003"><a xlink:href="classllzk_1_1function_1_1_call_op_adaptor.html" target="_top" xlink:title=" ">
<polygon fill="white" stroke="#666666" points="500.25,-73.88 359,-73.88 359,-54.62 500.25,-54.62 500.25,-73.88"/>
<text text-anchor="middle" x="429.62" y="-60.38" font-family="Helvetica,sans-Serif" font-size="10.00">llzk::function::CallOpAdaptor</text>
</a>
</g>
</g>
<!-- Node2&#45;&gt;Node3 -->
<g id="edge169_Node000002_Node000003" class="edge">
<title>Node2&#45;&gt;Node3</title>
<g id="a_edge169_Node000002_Node000003"><a xlink:title=" ">
<path fill="none" stroke="#63b8ff" d="M334.63,-64.25C342.7,-64.25 350.82,-64.25 358.74,-64.25"/>
<polygon fill="#63b8ff" stroke="#63b8ff" points="334.8,-60.75 324.8,-64.25 334.8,-67.75 334.8,-60.75"/>
</a>
</g>
</g>
</g>
</svg>
