<?xml version="1.0" encoding="UTF-8" standalone="no"?>
<!DOCTYPE svg PUBLIC "-//W3C//DTD SVG 1.1//EN"
 "http://www.w3.org/Graphics/SVG/1.1/DTD/svg11.dtd">
<!-- Generated by graphviz version 12.2.1 (0)
 -->
<!-- Title: Graphical Class Hierarchy Pages: 1 -->
<svg width="291pt" height="187pt"
 viewBox="0.00 0.00 290.50 187.25" xmlns="http://www.w3.org/2000/svg" xmlns:xlink="http://www.w3.org/1999/xlink">
<g id="graph0" class="graph" transform="scale(1 1) rotate(0) translate(4 183.25)">
<title>Graphical Class Hierarchy</title>
<!-- Node0 -->
<g id="Node000000" class="node">
<title>Node0</title>
<g id="a_Node000000"><a xlink:title=" ">
<polygon fill="#e0e0e0" stroke="#999999" points="108.25,-105.25 0,-105.25 0,-86 108.25,-86 108.25,-105.25"/>
<text text-anchor="middle" x="54.12" y="-91.75" font-family="Helvetica,sans-Serif" font-size="10.00">mlir::Type::TypeBase</text>
</a>
</g>
</g>
<!-- Node1 -->
<g id="Node000001" class="node">
<title>Node1</title>
<g id="a_Node000001"><a xlink:href="classllzk_1_1array_1_1_array_type.html" target="_top" xlink:title=" ">
<polygon fill="white" stroke="#666666" points="267.88,-179.25 158.88,-179.25 158.88,-160 267.88,-160 267.88,-179.25"/>
<text text-anchor="middle" x="213.38" y="-165.75" font-family="Helvetica,sans-Serif" font-size="10.00">llzk::array::ArrayType</text>
</a>
</g>
</g>
<!-- Node0&#45;&gt;Node1 -->
<g id="edge331_Node000000_Node000001" class="edge">
<title>Node0&#45;&gt;Node1</title>
<g id="a_edge331_Node000000_Node000001"><a xlink:title=" ">
<path fill="none" stroke="#63b8ff" d="M77.59,-112.44C95.01,-124.79 120.15,-141.16 144.25,-151.62 151.32,-154.69 159.03,-157.34 166.65,-159.59"/>
<polygon fill="#63b8ff" stroke="#63b8ff" points="79.68,-109.63 69.53,-106.6 75.58,-115.3 79.68,-109.63"/>
</a>
</g>
</g>
<!-- Node2 -->
<g id="Node000002" class="node">
<title>Node2</title>
<g id="a_Node000002"><a xlink:href="classllzk_1_1component_1_1_struct_type.html" target="_top" xlink:title=" ">
<polygon fill="white" stroke="#666666" points="282.5,-142.25 144.25,-142.25 144.25,-123 282.5,-123 282.5,-142.25"/>
<text text-anchor="middle" x="213.38" y="-128.75" font-family="Helvetica,sans-Serif" font-size="10.00">llzk::component::StructType</text>
</a>
</g>
</g>
<!-- Node0&#45;&gt;Node2 -->
<g id="edge332_Node000000_Node000002" class="edge">
<title>Node0&#45;&gt;Node2</title>
<g id="a_edge332_Node000000_Node000002"><a xlink:title=" ">
<path fill="none" stroke="#63b8ff" d="M109.09,-108.32C128.81,-112.96 150.83,-118.14 169.46,-122.53"/>
<polygon fill="#63b8ff" stroke="#63b8ff" points="110.1,-104.97 99.57,-106.08 108.5,-111.78 110.1,-104.97"/>
</a>
</g>
</g>
<!-- Node3 -->
<g id="Node000003" class="node">
<title>Node3</title>
<g id="a_Node000003"><a xlink:href="classllzk_1_1felt_1_1_felt_type.html" target="_top" xlink:title=" ">
<polygon fill="white" stroke="#666666" points="260.38,-105.25 166.38,-105.25 166.38,-86 260.38,-86 260.38,-105.25"/>
<text text-anchor="middle" x="213.38" y="-91.75" font-family="Helvetica,sans-Serif" font-size="10.00">llzk::felt::FeltType</text>
</a>
</g>
</g>
<!-- Node0&#45;&gt;Node3 -->
<g id="edge333_Node000000_Node000003" class="edge">
<title>Node0&#45;&gt;Node3</title>
<g id="a_edge333_Node000000_Node000003"><a xlink:title=" ">
<path fill="none" stroke="#63b8ff" d="M119.54,-95.62C135.12,-95.62 151.47,-95.62 166.03,-95.62"/>
<polygon fill="#63b8ff" stroke="#63b8ff" points="119.88,-92.13 109.88,-95.63 119.88,-99.13 119.88,-92.13"/>
</a>
</g>
</g>
<!-- Node4 -->
<g id="Node000004" class="node">
<title>Node4</title>
<g id="a_Node000004"><a xlink:href="classllzk_1_1polymorphic_1_1_type_var_type.html" target="_top" xlink:title=" ">
<polygon fill="white" stroke="#666666" points="261.12,-67.88 165.62,-67.88 165.62,-37.38 261.12,-37.38 261.12,-67.88"/>
<text text-anchor="start" x="173.62" y="-54.38" font-family="Helvetica,sans-Serif" font-size="10.00">llzk::polymorphic::</text>
<text text-anchor="middle" x="213.38" y="-43.12" font-family="Helvetica,sans-Serif" font-size="10.00">TypeVarType</text>
</a>
</g>
</g>
<!-- Node0&#45;&gt;Node4 -->
<g id="edge334_Node000000_Node000004" class="edge">
<title>Node0&#45;&gt;Node4</title>
<g id="a_edge334_Node000000_Node000004"><a xlink:title=" ">
<path fill="none" stroke="#63b8ff" d="M102.93,-82.55C122.71,-77.14 145.58,-70.89 165.29,-65.5"/>
<polygon fill="#63b8ff" stroke="#63b8ff" points="102.18,-79.13 93.45,-85.14 104.02,-85.88 102.18,-79.13"/>
</a>
</g>
</g>
<!-- Node5 -->
<g id="Node000005" class="node">
<title>Node5</title>
<g id="a_Node000005"><a xlink:href="classllzk_1_1string_1_1_string_type.html" target="_top" xlink:title=" ">
<polygon fill="white" stroke="#666666" points="270.12,-19.25 156.62,-19.25 156.62,0 270.12,0 270.12,-19.25"/>
<text text-anchor="middle" x="213.38" y="-5.75" font-family="Helvetica,sans-Serif" font-size="10.00">llzk::string::StringType</text>
</a>
</g>
</g>
<!-- Node0&#45;&gt;Node5 -->
<g id="edge335_Node000000_Node000005" class="edge">
<title>Node0&#45;&gt;Node5</title>
<g id="a_edge335_Node000000_Node000005"><a xlink:title=" ">
<path fill="none" stroke="#63b8ff" d="M73.99,-78.1C91.14,-63.02 117.74,-41.7 144.25,-28.62 151.41,-25.09 159.32,-22.13 167.15,-19.68"/>
<polygon fill="#63b8ff" stroke="#63b8ff" points="71.72,-75.43 66.63,-84.72 76.4,-80.64 71.72,-75.43"/>
</a>
</g>
</g>
</g>
</svg>
