<?xml version="1.0" encoding="UTF-8" standalone="no"?>
<!DOCTYPE svg PUBLIC "-//W3C//DTD SVG 1.1//EN"
 "http://www.w3.org/Graphics/SVG/1.1/DTD/svg11.dtd">
<!-- Generated by graphviz version 12.2.1 (0)
 -->
<!-- Title: Graphical Class Hierarchy Pages: 1 -->
<svg width="628pt" height="175pt"
 viewBox="0.00 0.00 628.25 175.38" xmlns="http://www.w3.org/2000/svg" xmlns:xlink="http://www.w3.org/1999/xlink">
<g id="graph0" class="graph" transform="scale(1 1) rotate(0) translate(4 171.38)">
<title>Graphical Class Hierarchy</title>
<!-- Node0 -->
<g id="Node000000" class="node">
<title>Node0</title>
<g id="a_Node000000"><a xlink:href="structllzk_1_1array_1_1detail_1_1_array_access_op_interface_interface_traits_1_1_concept.html" target="_top" xlink:title=" ">
<polygon fill="white" stroke="#666666" points="167.5,-101.75 0,-101.75 0,-60 167.5,-60 167.5,-101.75"/>
<text text-anchor="start" x="8" y="-88.25" font-family="Helvetica,sans-Serif" font-size="10.00">llzk::array::detail</text>
<text text-anchor="start" x="8" y="-77" font-family="Helvetica,sans-Serif" font-size="10.00">::ArrayAccessOpInterfaceInterface</text>
<text text-anchor="middle" x="83.75" y="-65.75" font-family="Helvetica,sans-Serif" font-size="10.00">Traits::Concept</text>
</a>
</g>
</g>
<!-- Node1 -->
<g id="Node000001" class="node">
<title>Node1</title>
<g id="a_Node000001"><a xlink:href="classllzk_1_1array_1_1detail_1_1_array_access_op_interface_interface_traits_1_1_fallback_model.html" target="_top" xlink:title=" ">
<polygon fill="white" stroke="#666666" points="397.25,-161.75 203.5,-161.75 203.5,-120 397.25,-120 397.25,-161.75"/>
<text text-anchor="start" x="211.5" y="-148.25" font-family="Helvetica,sans-Serif" font-size="10.00">llzk::array::detail</text>
<text text-anchor="start" x="211.5" y="-137" font-family="Helvetica,sans-Serif" font-size="10.00">::ArrayAccessOpInterfaceInterface</text>
<text text-anchor="middle" x="300.38" y="-125.75" font-family="Helvetica,sans-Serif" font-size="10.00">Traits::FallbackModel&lt; ConcreteModel &gt;</text>
</a>
</g>
</g>
<!-- Node0&#45;&gt;Node1 -->
<g id="edge5_Node000000_Node000001" class="edge">
<title>Node0&#45;&gt;Node1</title>
<g id="a_edge5_Node000000_Node000001"><a xlink:title=" ">
<path fill="none" stroke="#63b8ff" d="M172.01,-105.27C188.9,-109.99 206.48,-114.9 222.99,-119.52"/>
<polygon fill="#63b8ff" stroke="#63b8ff" points="173.05,-101.93 162.48,-102.61 171.17,-108.67 173.05,-101.93"/>
</a>
</g>
</g>
<!-- Node3 -->
<g id="Node000003" class="node">
<title>Node3</title>
<g id="a_Node000003"><a xlink:href="classllzk_1_1array_1_1detail_1_1_array_access_op_interface_interface_traits_1_1_fallback_model.html" target="_top" xlink:title=" ">
<polygon fill="white" stroke="#666666" points="390.5,-101.75 210.25,-101.75 210.25,-60 390.5,-60 390.5,-101.75"/>
<text text-anchor="start" x="218.25" y="-88.25" font-family="Helvetica,sans-Serif" font-size="10.00">llzk::array::detail</text>
<text text-anchor="start" x="218.25" y="-77" font-family="Helvetica,sans-Serif" font-size="10.00">::ArrayAccessOpInterfaceInterface</text>
<text text-anchor="middle" x="300.38" y="-65.75" font-family="Helvetica,sans-Serif" font-size="10.00">Traits::FallbackModel&lt; ConcreteOp &gt;</text>
</a>
</g>
</g>
<!-- Node0&#45;&gt;Node3 -->
<g id="edge7_Node000000_Node000003" class="edge">
<title>Node0&#45;&gt;Node3</title>
<g id="a_edge7_Node000000_Node000003"><a xlink:title=" ">
<path fill="none" stroke="#63b8ff" d="M179.16,-80.88C189.36,-80.88 199.71,-80.88 209.85,-80.88"/>
<polygon fill="#63b8ff" stroke="#63b8ff" points="179.24,-77.38 169.24,-80.88 179.24,-84.38 179.24,-77.38"/>
</a>
</g>
</g>
<!-- Node4 -->
<g id="Node000004" class="node">
<title>Node4</title>
<g id="a_Node000004"><a xlink:href="classllzk_1_1array_1_1detail_1_1_array_access_op_interface_interface_traits_1_1_model.html" target="_top" xlink:title=" ">
<polygon fill="white" stroke="#666666" points="384.12,-41.75 216.62,-41.75 216.62,0 384.12,0 384.12,-41.75"/>
<text text-anchor="start" x="224.62" y="-28.25" font-family="Helvetica,sans-Serif" font-size="10.00">llzk::array::detail</text>
<text text-anchor="start" x="224.62" y="-17" font-family="Helvetica,sans-Serif" font-size="10.00">::ArrayAccessOpInterfaceInterface</text>
<text text-anchor="middle" x="300.38" y="-5.75" font-family="Helvetica,sans-Serif" font-size="10.00">Traits::Model&lt; ConcreteOp &gt;</text>
</a>
</g>
</g>
<!-- Node0&#45;&gt;Node4 -->
<g id="edge8_Node000000_Node000004" class="edge">
<title>Node0&#45;&gt;Node4</title>
<g id="a_edge8_Node000000_Node000004"><a xlink:title=" ">
<path fill="none" stroke="#63b8ff" d="M172.01,-56.48C188.9,-51.76 206.48,-46.85 222.99,-42.23"/>
<polygon fill="#63b8ff" stroke="#63b8ff" points="171.17,-53.08 162.48,-59.14 173.05,-59.82 171.17,-53.08"/>
</a>
</g>
</g>
<!-- Node2 -->
<g id="Node000002" class="node">
<title>Node2</title>
<g id="a_Node000002"><a xlink:href="classllzk_1_1array_1_1detail_1_1_array_access_op_interface_interface_traits_1_1_external_model.html" target="_top" xlink:title=" ">
<polygon fill="white" stroke="#666666" points="620.25,-167.38 433.25,-167.38 433.25,-114.38 620.25,-114.38 620.25,-167.38"/>
<text text-anchor="start" x="441.25" y="-153.88" font-family="Helvetica,sans-Serif" font-size="10.00">llzk::array::detail</text>
<text text-anchor="start" x="441.25" y="-142.62" font-family="Helvetica,sans-Serif" font-size="10.00">::ArrayAccessOpInterfaceInterface</text>
<text text-anchor="start" x="441.25" y="-131.38" font-family="Helvetica,sans-Serif" font-size="10.00">Traits::ExternalModel&lt; ConcreteModel,</text>
<text text-anchor="middle" x="526.75" y="-120.12" font-family="Helvetica,sans-Serif" font-size="10.00"> ConcreteOp &gt;</text>
</a>
</g>
</g>
<!-- Node1&#45;&gt;Node2 -->
<g id="edge6_Node000001_Node000002" class="edge">
<title>Node1&#45;&gt;Node2</title>
<g id="a_edge6_Node000001_Node000002"><a xlink:title=" ">
<path fill="none" stroke="#63b8ff" d="M408.88,-140.88C416.95,-140.88 425.05,-140.88 433.02,-140.88"/>
<polygon fill="#63b8ff" stroke="#63b8ff" points="409.02,-137.38 399.02,-140.88 409.02,-144.38 409.02,-137.38"/>
</a>
</g>
</g>
</g>
</svg>
