<?xml version="1.0" encoding="UTF-8" standalone="no"?>
<!DOCTYPE svg PUBLIC "-//W3C//DTD SVG 1.1//EN"
 "http://www.w3.org/Graphics/SVG/1.1/DTD/svg11.dtd">
<!-- Generated by graphviz version 12.2.1 (0)
 -->
<!-- Title: Graphical Class Hierarchy Pages: 1 -->
<svg width="523pt" height="158pt"
 viewBox="0.00 0.00 523.25 158.12" xmlns="http://www.w3.org/2000/svg" xmlns:xlink="http://www.w3.org/1999/xlink">
<g id="graph0" class="graph" transform="scale(1 1) rotate(0) translate(4 154.12)">
<title>Graphical Class Hierarchy</title>
<!-- Node0 -->
<g id="Node000000" class="node">
<title>Node0</title>
<g id="a_Node000000"><a xlink:href="classllzk_1_1global_1_1detail_1_1_global_write_op_generic_adaptor_base.html" target="_top" xlink:title=" ">
<polygon fill="white" stroke="#666666" points="175,-84.5 0,-84.5 0,-54 175,-54 175,-84.5"/>
<text text-anchor="start" x="8" y="-71" font-family="Helvetica,sans-Serif" font-size="10.00">llzk::global::detail</text>
<text text-anchor="middle" x="87.5" y="-59.75" font-family="Helvetica,sans-Serif" font-size="10.00">::GlobalWriteOpGenericAdaptorBase</text>
</a>
</g>
</g>
<!-- Node1 -->
<g id="Node000001" class="node">
<title>Node1</title>
<g id="a_Node000001"><a xlink:href="classllzk_1_1global_1_1_global_write_op_generic_adaptor.html" target="_top" xlink:title=" ">
<polygon fill="white" stroke="#666666" points="360.5,-150.12 211,-150.12 211,-108.38 360.5,-108.38 360.5,-150.12"/>
<text text-anchor="start" x="219" y="-136.62" font-family="Helvetica,sans-Serif" font-size="10.00">llzk::global::GlobalWrite</text>
<text text-anchor="start" x="219" y="-125.38" font-family="Helvetica,sans-Serif" font-size="10.00">OpGenericAdaptor&lt;::llvm</text>
<text text-anchor="middle" x="285.75" y="-114.12" font-family="Helvetica,sans-Serif" font-size="10.00">::ArrayRef&lt;::mlir::Attribute &gt; &gt;</text>
</a>
</g>
</g>
<!-- Node0&#45;&gt;Node1 -->
<g id="edge191_Node000000_Node000001" class="edge">
<title>Node0&#45;&gt;Node1</title>
<g id="a_edge191_Node000000_Node000001"><a xlink:title=" ">
<path fill="none" stroke="#63b8ff" d="M150.58,-88.23C171.03,-94.48 193.92,-101.48 214.92,-107.9"/>
<polygon fill="#63b8ff" stroke="#63b8ff" points="151.84,-84.96 141.25,-85.38 149.79,-91.65 151.84,-84.96"/>
</a>
</g>
</g>
<!-- Node2 -->
<g id="Node000002" class="node">
<title>Node2</title>
<g id="a_Node000002"><a xlink:href="classllzk_1_1global_1_1_global_write_op_generic_adaptor.html" target="_top" xlink:title=" ">
<polygon fill="white" stroke="#666666" points="347.75,-90.12 223.75,-90.12 223.75,-48.38 347.75,-48.38 347.75,-90.12"/>
<text text-anchor="start" x="231.75" y="-76.62" font-family="Helvetica,sans-Serif" font-size="10.00">llzk::global::GlobalWrite</text>
<text text-anchor="start" x="231.75" y="-65.38" font-family="Helvetica,sans-Serif" font-size="10.00">OpGenericAdaptor&lt;::mlir</text>
<text text-anchor="middle" x="285.75" y="-54.12" font-family="Helvetica,sans-Serif" font-size="10.00">::ValueRange &gt;</text>
</a>
</g>
</g>
<!-- Node0&#45;&gt;Node2 -->
<g id="edge192_Node000000_Node000002" class="edge">
<title>Node0&#45;&gt;Node2</title>
<g id="a_edge192_Node000000_Node000002"><a xlink:title=" ">
<path fill="none" stroke="#63b8ff" d="M186.87,-69.25C199.34,-69.25 211.81,-69.25 223.47,-69.25"/>
<polygon fill="#63b8ff" stroke="#63b8ff" points="186.95,-65.75 176.95,-69.25 186.95,-72.75 186.95,-65.75"/>
</a>
</g>
</g>
<!-- Node4 -->
<g id="Node000004" class="node">
<title>Node4</title>
<g id="a_Node000004"><a xlink:href="classllzk_1_1global_1_1_global_write_op_generic_adaptor.html" target="_top" xlink:title=" ">
<polygon fill="white" stroke="#666666" points="360.12,-30.5 211.38,-30.5 211.38,0 360.12,0 360.12,-30.5"/>
<text text-anchor="start" x="219.38" y="-17" font-family="Helvetica,sans-Serif" font-size="10.00">llzk::global::GlobalWrite</text>
<text text-anchor="middle" x="285.75" y="-5.75" font-family="Helvetica,sans-Serif" font-size="10.00">OpGenericAdaptor&lt; RangeT &gt;</text>
</a>
</g>
</g>
<!-- Node0&#45;&gt;Node4 -->
<g id="edge194_Node000000_Node000004" class="edge">
<title>Node0&#45;&gt;Node4</title>
<g id="a_edge194_Node000000_Node000004"><a xlink:title=" ">
<path fill="none" stroke="#63b8ff" d="M156.35,-50.58C179.56,-44.19 205.29,-37.11 227.58,-30.98"/>
<polygon fill="#63b8ff" stroke="#63b8ff" points="155.7,-47.13 146.99,-53.16 157.56,-53.88 155.7,-47.13"/>
</a>
</g>
</g>
<!-- Node3 -->
<g id="Node000003" class="node">
<title>Node3</title>
<g id="a_Node000003"><a xlink:href="classllzk_1_1global_1_1_global_write_op_adaptor.html" target="_top" xlink:title=" ">
<polygon fill="white" stroke="#666666" points="515.25,-84.5 396.5,-84.5 396.5,-54 515.25,-54 515.25,-84.5"/>
<text text-anchor="start" x="404.5" y="-71" font-family="Helvetica,sans-Serif" font-size="10.00">llzk::global::GlobalWrite</text>
<text text-anchor="middle" x="455.88" y="-59.75" font-family="Helvetica,sans-Serif" font-size="10.00">OpAdaptor</text>
</a>
</g>
</g>
<!-- Node2&#45;&gt;Node3 -->
<g id="edge193_Node000002_Node000003" class="edge">
<title>Node2&#45;&gt;Node3</title>
<g id="a_edge193_Node000002_Node000003"><a xlink:title=" ">
<path fill="none" stroke="#63b8ff" d="M359.17,-69.25C371.56,-69.25 384.3,-69.25 396.27,-69.25"/>
<polygon fill="#63b8ff" stroke="#63b8ff" points="359.44,-65.75 349.44,-69.25 359.44,-72.75 359.44,-65.75"/>
</a>
</g>
</g>
</g>
</svg>
