<?xml version="1.0" encoding="UTF-8" standalone="no"?>
<!DOCTYPE svg PUBLIC "-//W3C//DTD SVG 1.1//EN"
 "http://www.w3.org/Graphics/SVG/1.1/DTD/svg11.dtd">
<!-- Generated by graphviz version 12.2.1 (0)
 -->
<!-- Title: Graphical Class Hierarchy Pages: 1 -->
<svg width="261pt" height="507pt"
 viewBox="0.00 0.00 260.50 507.25" xmlns="http://www.w3.org/2000/svg" xmlns:xlink="http://www.w3.org/1999/xlink">
<g id="graph0" class="graph" transform="scale(1 1) rotate(0) translate(4 503.25)">
<title>Graphical Class Hierarchy</title>
<!-- Node0 -->
<g id="Node000000" class="node">
<title>Node0</title>
<g id="a_Node000000"><a xlink:title=" ">
<polygon fill="#e0e0e0" stroke="#999999" points="68.5,-265.25 0,-265.25 0,-246 68.5,-246 68.5,-265.25"/>
<text text-anchor="middle" x="34.25" y="-251.75" font-family="Helvetica,sans-Serif" font-size="10.00">mlir::Dialect</text>
</a>
</g>
</g>
<!-- Node1 -->
<g id="Node000001" class="node">
<title>Node1</title>
<g id="a_Node000001"><a xlink:href="classllzk_1_1_l_l_z_k_dialect.html" target="_top" xlink:title=" ">
<polygon fill="white" stroke="#666666" points="224,-499.25 133,-499.25 133,-480 224,-480 224,-499.25"/>
<text text-anchor="middle" x="178.5" y="-485.75" font-family="Helvetica,sans-Serif" font-size="10.00">llzk::LLZKDialect</text>
</a>
</g>
</g>
<!-- Node0&#45;&gt;Node1 -->
<g id="edge230_Node000000_Node000001" class="edge">
<title>Node0&#45;&gt;Node1</title>
<g id="a_edge230_Node000000_Node000001"><a xlink:title=" ">
<path fill="none" stroke="#63b8ff" d="M35.58,-276.86C37.44,-320.14 48.04,-418.9 104.5,-471.62 112.23,-478.84 122.37,-483.29 132.63,-486.01"/>
<polygon fill="#63b8ff" stroke="#63b8ff" points="39.08,-276.95 35.29,-267.06 32.08,-277.16 39.08,-276.95"/>
</a>
</g>
</g>
<!-- Node2 -->
<g id="Node000002" class="node">
<title>Node2</title>
<g id="a_Node000002"><a xlink:href="classllzk_1_1array_1_1_array_dialect.html" target="_top" xlink:title=" ">
<polygon fill="white" stroke="#666666" points="237.88,-462.25 119.12,-462.25 119.12,-443 237.88,-443 237.88,-462.25"/>
<text text-anchor="middle" x="178.5" y="-448.75" font-family="Helvetica,sans-Serif" font-size="10.00">llzk::array::ArrayDialect</text>
</a>
</g>
</g>
<!-- Node0&#45;&gt;Node2 -->
<g id="edge231_Node000000_Node000002" class="edge">
<title>Node0&#45;&gt;Node2</title>
<g id="a_edge231_Node000000_Node000002"><a xlink:title=" ">
<path fill="none" stroke="#63b8ff" d="M37.17,-276.57C41.77,-314.07 56.86,-392.7 104.5,-434.62 108.71,-438.33 113.57,-441.3 118.74,-443.68"/>
<polygon fill="#63b8ff" stroke="#63b8ff" points="40.7,-276.61 36.15,-267.04 33.74,-277.36 40.7,-276.61"/>
</a>
</g>
</g>
<!-- Node3 -->
<g id="Node000003" class="node">
<title>Node3</title>
<g id="a_Node000003"><a xlink:href="classllzk_1_1boolean_1_1_bool_dialect.html" target="_top" xlink:title=" ">
<polygon fill="white" stroke="#666666" points="242,-425.25 115,-425.25 115,-406 242,-406 242,-425.25"/>
<text text-anchor="middle" x="178.5" y="-411.75" font-family="Helvetica,sans-Serif" font-size="10.00">llzk::boolean::BoolDialect</text>
</a>
</g>
</g>
<!-- Node0&#45;&gt;Node3 -->
<g id="edge232_Node000000_Node000003" class="edge">
<title>Node0&#45;&gt;Node3</title>
<g id="a_edge232_Node000000_Node000003"><a xlink:title=" ">
<path fill="none" stroke="#63b8ff" d="M39.55,-276.57C47.08,-307.81 65.7,-366.28 104.5,-397.62 108.46,-400.82 112.91,-403.47 117.6,-405.65"/>
<polygon fill="#63b8ff" stroke="#63b8ff" points="43.04,-276.17 37.44,-267.17 36.21,-277.7 43.04,-276.17"/>
</a>
</g>
</g>
<!-- Node4 -->
<g id="Node000004" class="node">
<title>Node4</title>
<g id="a_Node000004"><a xlink:href="classllzk_1_1cast_1_1_cast_dialect.html" target="_top" xlink:title=" ">
<polygon fill="white" stroke="#666666" points="235.25,-388.25 121.75,-388.25 121.75,-369 235.25,-369 235.25,-388.25"/>
<text text-anchor="middle" x="178.5" y="-374.75" font-family="Helvetica,sans-Serif" font-size="10.00">llzk::cast::CastDialect</text>
</a>
</g>
</g>
<!-- Node0&#45;&gt;Node4 -->
<g id="edge233_Node000000_Node000004" class="edge">
<title>Node0&#45;&gt;Node4</title>
<g id="a_edge233_Node000000_Node000004"><a xlink:title=" ">
<path fill="none" stroke="#63b8ff" d="M43.15,-275.9C53.55,-299.86 74.15,-339.19 104.5,-360.62 109.62,-364.24 115.38,-367.13 121.37,-369.44"/>
<polygon fill="#63b8ff" stroke="#63b8ff" points="46.49,-274.82 39.44,-266.91 40.02,-277.49 46.49,-274.82"/>
</a>
</g>
</g>
<!-- Node5 -->
<g id="Node000005" class="node">
<title>Node5</title>
<g id="a_Node000005"><a xlink:href="classllzk_1_1component_1_1_struct_dialect.html" target="_top" xlink:title=" ">
<polygon fill="white" stroke="#666666" points="252.5,-351.25 104.5,-351.25 104.5,-332 252.5,-332 252.5,-351.25"/>
<text text-anchor="middle" x="178.5" y="-337.75" font-family="Helvetica,sans-Serif" font-size="10.00">llzk::component::StructDialect</text>
</a>
</g>
</g>
<!-- Node0&#45;&gt;Node5 -->
<g id="edge234_Node000000_Node000005" class="edge">
<title>Node0&#45;&gt;Node5</title>
<g id="a_edge234_Node000000_Node000005"><a xlink:title=" ">
<path fill="none" stroke="#63b8ff" d="M49.6,-274.03C62.42,-289.25 82.52,-310.28 104.5,-322.62 110.89,-326.22 117.98,-329.15 125.16,-331.53"/>
<polygon fill="#63b8ff" stroke="#63b8ff" points="52.59,-272.17 43.56,-266.62 47.16,-276.59 52.59,-272.17"/>
</a>
</g>
</g>
<!-- Node6 -->
<g id="Node000006" class="node">
<title>Node6</title>
<g id="a_Node000006"><a xlink:href="classllzk_1_1constrain_1_1_constrain_dialect.html" target="_top" xlink:title=" ">
<polygon fill="white" stroke="#666666" points="240.88,-313.88 116.12,-313.88 116.12,-283.38 240.88,-283.38 240.88,-313.88"/>
<text text-anchor="start" x="124.12" y="-300.38" font-family="Helvetica,sans-Serif" font-size="10.00">llzk::constrain::Constrain</text>
<text text-anchor="middle" x="178.5" y="-289.12" font-family="Helvetica,sans-Serif" font-size="10.00">Dialect</text>
</a>
</g>
</g>
<!-- Node0&#45;&gt;Node6 -->
<g id="edge235_Node000000_Node000006" class="edge">
<title>Node0&#45;&gt;Node6</title>
<g id="a_edge235_Node000000_Node000006"><a xlink:title=" ">
<path fill="none" stroke="#63b8ff" d="M79.36,-268.96C93.94,-273.37 110.31,-278.31 125.43,-282.88"/>
<polygon fill="#63b8ff" stroke="#63b8ff" points="80.64,-265.69 70.05,-266.14 78.61,-272.39 80.64,-265.69"/>
</a>
</g>
</g>
<!-- Node7 -->
<g id="Node000007" class="node">
<title>Node7</title>
<g id="a_Node000007"><a xlink:href="classllzk_1_1felt_1_1_felt_dialect.html" target="_top" xlink:title=" ">
<polygon fill="white" stroke="#666666" points="230.38,-265.25 126.62,-265.25 126.62,-246 230.38,-246 230.38,-265.25"/>
<text text-anchor="middle" x="178.5" y="-251.75" font-family="Helvetica,sans-Serif" font-size="10.00">llzk::felt::FeltDialect</text>
</a>
</g>
</g>
<!-- Node0&#45;&gt;Node7 -->
<g id="edge236_Node000000_Node000007" class="edge">
<title>Node0&#45;&gt;Node7</title>
<g id="a_edge236_Node000000_Node000007"><a xlink:title=" ">
<path fill="none" stroke="#63b8ff" d="M80.26,-255.62C94.87,-255.62 111.19,-255.62 126.22,-255.62"/>
<polygon fill="#63b8ff" stroke="#63b8ff" points="80.47,-252.13 70.47,-255.63 80.47,-259.13 80.47,-252.13"/>
</a>
</g>
</g>
<!-- Node8 -->
<g id="Node000008" class="node">
<title>Node8</title>
<g id="a_Node000008"><a xlink:href="classllzk_1_1function_1_1_function_dialect.html" target="_top" xlink:title=" ">
<polygon fill="white" stroke="#666666" points="236,-227.88 121,-227.88 121,-197.38 236,-197.38 236,-227.88"/>
<text text-anchor="start" x="129" y="-214.38" font-family="Helvetica,sans-Serif" font-size="10.00">llzk::function::Function</text>
<text text-anchor="middle" x="178.5" y="-203.12" font-family="Helvetica,sans-Serif" font-size="10.00">Dialect</text>
</a>
</g>
</g>
<!-- Node0&#45;&gt;Node8 -->
<g id="edge237_Node000000_Node000008" class="edge">
<title>Node0&#45;&gt;Node8</title>
<g id="a_edge237_Node000000_Node000008"><a xlink:title=" ">
<path fill="none" stroke="#63b8ff" d="M79.36,-242.29C93.94,-237.88 110.31,-232.94 125.43,-228.37"/>
<polygon fill="#63b8ff" stroke="#63b8ff" points="78.61,-238.86 70.05,-245.11 80.64,-245.56 78.61,-238.86"/>
</a>
</g>
</g>
<!-- Node9 -->
<g id="Node000009" class="node">
<title>Node9</title>
<g id="a_Node000009"><a xlink:href="classllzk_1_1global_1_1_global_dialect.html" target="_top" xlink:title=" ">
<polygon fill="white" stroke="#666666" points="242,-179.25 115,-179.25 115,-160 242,-160 242,-179.25"/>
<text text-anchor="middle" x="178.5" y="-165.75" font-family="Helvetica,sans-Serif" font-size="10.00">llzk::global::GlobalDialect</text>
</a>
</g>
</g>
<!-- Node0&#45;&gt;Node9 -->
<g id="edge238_Node000000_Node000009" class="edge">
<title>Node0&#45;&gt;Node9</title>
<g id="a_edge238_Node000000_Node000009"><a xlink:title=" ">
<path fill="none" stroke="#63b8ff" d="M49.6,-237.22C62.42,-222 82.52,-200.97 104.5,-188.62 110.89,-185.03 117.98,-182.1 125.16,-179.72"/>
<polygon fill="#63b8ff" stroke="#63b8ff" points="47.16,-234.66 43.56,-244.63 52.59,-239.08 47.16,-234.66"/>
</a>
</g>
</g>
<!-- Node10 -->
<g id="Node000010" class="node">
<title>Node10</title>
<g id="a_Node000010"><a xlink:href="classllzk_1_1include_1_1_include_dialect.html" target="_top" xlink:title=" ">
<polygon fill="white" stroke="#666666" points="246.5,-142.25 110.5,-142.25 110.5,-123 246.5,-123 246.5,-142.25"/>
<text text-anchor="middle" x="178.5" y="-128.75" font-family="Helvetica,sans-Serif" font-size="10.00">llzk::include::IncludeDialect</text>
</a>
</g>
</g>
<!-- Node0&#45;&gt;Node10 -->
<g id="edge239_Node000000_Node000010" class="edge">
<title>Node0&#45;&gt;Node10</title>
<g id="a_edge239_Node000000_Node000010"><a xlink:title=" ">
<path fill="none" stroke="#63b8ff" d="M43.15,-235.35C53.55,-211.39 74.15,-172.06 104.5,-150.62 108.98,-147.46 113.95,-144.85 119.14,-142.7"/>
<polygon fill="#63b8ff" stroke="#63b8ff" points="40.02,-233.76 39.44,-244.34 46.49,-236.43 40.02,-233.76"/>
</a>
</g>
</g>
<!-- Node11 -->
<g id="Node000011" class="node">
<title>Node11</title>
<g id="a_Node000011"><a xlink:href="classllzk_1_1polymorphic_1_1_polymorphic_dialect.html" target="_top" xlink:title=" ">
<polygon fill="white" stroke="#666666" points="228.88,-104.88 128.12,-104.88 128.12,-74.38 228.88,-74.38 228.88,-104.88"/>
<text text-anchor="start" x="136.12" y="-91.38" font-family="Helvetica,sans-Serif" font-size="10.00">llzk::polymorphic::</text>
<text text-anchor="middle" x="178.5" y="-80.12" font-family="Helvetica,sans-Serif" font-size="10.00">PolymorphicDialect</text>
</a>
</g>
</g>
<!-- Node0&#45;&gt;Node11 -->
<g id="edge240_Node000000_Node000011" class="edge">
<title>Node0&#45;&gt;Node11</title>
<g id="a_edge240_Node000000_Node000011"><a xlink:title=" ">
<path fill="none" stroke="#63b8ff" d="M39.96,-234.63C47.95,-203.77 67.08,-146.27 104.5,-113.62 111.24,-107.75 119.45,-103.3 127.9,-99.95"/>
<polygon fill="#63b8ff" stroke="#63b8ff" points="36.58,-233.73 37.63,-244.27 43.38,-235.37 36.58,-233.73"/>
</a>
</g>
</g>
<!-- Node12 -->
<g id="Node000012" class="node">
<title>Node12</title>
<g id="a_Node000012"><a xlink:href="classllzk_1_1string_1_1_string_dialect.html" target="_top" xlink:title=" ">
<polygon fill="white" stroke="#666666" points="240.12,-56.25 116.88,-56.25 116.88,-37 240.12,-37 240.12,-56.25"/>
<text text-anchor="middle" x="178.5" y="-42.75" font-family="Helvetica,sans-Serif" font-size="10.00">llzk::string::StringDialect</text>
</a>
</g>
</g>
<!-- Node0&#45;&gt;Node12 -->
<g id="edge241_Node000000_Node000012" class="edge">
<title>Node0&#45;&gt;Node12</title>
<g id="a_edge241_Node000000_Node000012"><a xlink:title=" ">
<path fill="none" stroke="#63b8ff" d="M36.73,-234.31C40.64,-194.99 54.68,-110.92 104.5,-65.62 108.47,-62.01 113.04,-59.07 117.92,-56.68"/>
<polygon fill="#63b8ff" stroke="#63b8ff" points="33.26,-233.83 35.9,-244.09 40.24,-234.43 33.26,-233.83"/>
</a>
</g>
</g>
<!-- Node13 -->
<g id="Node000013" class="node">
<title>Node13</title>
<g id="a_Node000013"><a xlink:href="classllzk_1_1undef_1_1_undef_dialect.html" target="_top" xlink:title=" ">
<polygon fill="white" stroke="#666666" points="240.5,-19.25 116.5,-19.25 116.5,0 240.5,0 240.5,-19.25"/>
<text text-anchor="middle" x="178.5" y="-5.75" font-family="Helvetica,sans-Serif" font-size="10.00">llzk::undef::UndefDialect</text>
</a>
</g>
</g>
<!-- Node0&#45;&gt;Node13 -->
<g id="edge242_Node000000_Node000013" class="edge">
<title>Node0&#45;&gt;Node13</title>
<g id="a_edge242_Node000000_Node000013"><a xlink:title=" ">
<path fill="none" stroke="#63b8ff" d="M35.16,-234.16C36.19,-189.03 45.21,-83.84 104.5,-27.62 108,-24.3 112.02,-21.56 116.33,-19.31"/>
<polygon fill="#63b8ff" stroke="#63b8ff" points="31.66,-234.12 35.06,-244.15 38.66,-234.18 31.66,-234.12"/>
</a>
</g>
</g>
</g>
</svg>
