<?xml version="1.0" encoding="UTF-8" standalone="no"?>
<!DOCTYPE svg PUBLIC "-//W3C//DTD SVG 1.1//EN"
 "http://www.w3.org/Graphics/SVG/1.1/DTD/svg11.dtd">
<!-- Generated by graphviz version 12.2.1 (0)
 -->
<!-- Title: Graphical Class Hierarchy Pages: 1 -->
<svg width="513pt" height="158pt"
 viewBox="0.00 0.00 512.75 158.12" xmlns="http://www.w3.org/2000/svg" xmlns:xlink="http://www.w3.org/1999/xlink">
<g id="graph0" class="graph" transform="scale(1 1) rotate(0) translate(4 154.12)">
<title>Graphical Class Hierarchy</title>
<!-- Node0 -->
<g id="Node000000" class="node">
<title>Node0</title>
<g id="a_Node000000"><a xlink:href="classllzk_1_1boolean_1_1detail_1_1_xor_bool_op_generic_adaptor_base.html" target="_top" xlink:title=" ">
<polygon fill="white" stroke="#666666" points="159.25,-84.5 0,-84.5 0,-54 159.25,-54 159.25,-84.5"/>
<text text-anchor="start" x="8" y="-71" font-family="Helvetica,sans-Serif" font-size="10.00">llzk::boolean::detail</text>
<text text-anchor="middle" x="79.62" y="-59.75" font-family="Helvetica,sans-Serif" font-size="10.00">::XorBoolOpGenericAdaptorBase</text>
</a>
</g>
</g>
<!-- Node1 -->
<g id="Node000001" class="node">
<title>Node1</title>
<g id="a_Node000001"><a xlink:href="classllzk_1_1boolean_1_1_xor_bool_op_generic_adaptor.html" target="_top" xlink:title=" ">
<polygon fill="white" stroke="#666666" points="344.75,-150.12 195.25,-150.12 195.25,-108.38 344.75,-108.38 344.75,-150.12"/>
<text text-anchor="start" x="203.25" y="-136.62" font-family="Helvetica,sans-Serif" font-size="10.00">llzk::boolean::XorBoolOp</text>
<text text-anchor="start" x="203.25" y="-125.38" font-family="Helvetica,sans-Serif" font-size="10.00">GenericAdaptor&lt;::llvm</text>
<text text-anchor="middle" x="270" y="-114.12" font-family="Helvetica,sans-Serif" font-size="10.00">::ArrayRef&lt;::mlir::Attribute &gt; &gt;</text>
</a>
</g>
</g>
<!-- Node0&#45;&gt;Node1 -->
<g id="edge57_Node000000_Node000001" class="edge">
<title>Node0&#45;&gt;Node1</title>
<g id="a_edge57_Node000000_Node000001"><a xlink:title=" ">
<path fill="none" stroke="#63b8ff" d="M140.57,-88.34C160.18,-94.59 182.08,-101.56 202.16,-107.96"/>
<polygon fill="#63b8ff" stroke="#63b8ff" points="141.66,-85.02 131.07,-85.32 139.53,-91.69 141.66,-85.02"/>
</a>
</g>
</g>
<!-- Node2 -->
<g id="Node000002" class="node">
<title>Node2</title>
<g id="a_Node000002"><a xlink:href="classllzk_1_1boolean_1_1_xor_bool_op_generic_adaptor.html" target="_top" xlink:title=" ">
<polygon fill="white" stroke="#666666" points="332,-90.12 208,-90.12 208,-48.38 332,-48.38 332,-90.12"/>
<text text-anchor="start" x="216" y="-76.62" font-family="Helvetica,sans-Serif" font-size="10.00">llzk::boolean::XorBoolOp</text>
<text text-anchor="start" x="216" y="-65.38" font-family="Helvetica,sans-Serif" font-size="10.00">GenericAdaptor&lt;::mlir</text>
<text text-anchor="middle" x="270" y="-54.12" font-family="Helvetica,sans-Serif" font-size="10.00">::ValueRange &gt;</text>
</a>
</g>
</g>
<!-- Node0&#45;&gt;Node2 -->
<g id="edge58_Node000000_Node000002" class="edge">
<title>Node0&#45;&gt;Node2</title>
<g id="a_edge58_Node000000_Node000002"><a xlink:title=" ">
<path fill="none" stroke="#63b8ff" d="M171.02,-69.25C183.42,-69.25 195.89,-69.25 207.6,-69.25"/>
<polygon fill="#63b8ff" stroke="#63b8ff" points="171.21,-65.75 161.21,-69.25 171.21,-72.75 171.21,-65.75"/>
</a>
</g>
</g>
<!-- Node4 -->
<g id="Node000004" class="node">
<title>Node4</title>
<g id="a_Node000004"><a xlink:href="classllzk_1_1boolean_1_1_xor_bool_op_generic_adaptor.html" target="_top" xlink:title=" ">
<polygon fill="white" stroke="#666666" points="338,-30.5 202,-30.5 202,0 338,0 338,-30.5"/>
<text text-anchor="start" x="210" y="-17" font-family="Helvetica,sans-Serif" font-size="10.00">llzk::boolean::XorBoolOp</text>
<text text-anchor="middle" x="270" y="-5.75" font-family="Helvetica,sans-Serif" font-size="10.00">GenericAdaptor&lt; RangeT &gt;</text>
</a>
</g>
</g>
<!-- Node0&#45;&gt;Node4 -->
<g id="edge60_Node000000_Node000004" class="edge">
<title>Node0&#45;&gt;Node4</title>
<g id="a_edge60_Node000000_Node000004"><a xlink:title=" ">
<path fill="none" stroke="#63b8ff" d="M146.35,-50.41C168.48,-44.06 192.92,-37.06 214.12,-30.98"/>
<polygon fill="#63b8ff" stroke="#63b8ff" points="145.47,-47.02 136.82,-53.14 147.4,-53.75 145.47,-47.02"/>
</a>
</g>
</g>
<!-- Node3 -->
<g id="Node000003" class="node">
<title>Node3</title>
<g id="a_Node000003"><a xlink:href="classllzk_1_1boolean_1_1_xor_bool_op_adaptor.html" target="_top" xlink:title=" ">
<polygon fill="white" stroke="#666666" points="504.75,-84.5 380.75,-84.5 380.75,-54 504.75,-54 504.75,-84.5"/>
<text text-anchor="start" x="388.75" y="-71" font-family="Helvetica,sans-Serif" font-size="10.00">llzk::boolean::XorBoolOp</text>
<text text-anchor="middle" x="442.75" y="-59.75" font-family="Helvetica,sans-Serif" font-size="10.00">Adaptor</text>
</a>
</g>
</g>
<!-- Node2&#45;&gt;Node3 -->
<g id="edge59_Node000002_Node000003" class="edge">
<title>Node2&#45;&gt;Node3</title>
<g id="a_edge59_Node000002_Node000003"><a xlink:title=" ">
<path fill="none" stroke="#63b8ff" d="M343.36,-69.25C355.71,-69.25 368.42,-69.25 380.44,-69.25"/>
<polygon fill="#63b8ff" stroke="#63b8ff" points="343.68,-65.75 333.68,-69.25 343.68,-72.75 343.68,-65.75"/>
</a>
</g>
</g>
</g>
</svg>
