<?xml version="1.0" encoding="UTF-8" standalone="no"?>
<!DOCTYPE svg PUBLIC "-//W3C//DTD SVG 1.1//EN"
 "http://www.w3.org/Graphics/SVG/1.1/DTD/svg11.dtd">
<!-- Generated by graphviz version 12.2.1 (0)
 -->
<!-- Title: Graphical Class Hierarchy Pages: 1 -->
<svg width="532pt" height="158pt"
 viewBox="0.00 0.00 532.25 158.12" xmlns="http://www.w3.org/2000/svg" xmlns:xlink="http://www.w3.org/1999/xlink">
<g id="graph0" class="graph" transform="scale(1 1) rotate(0) translate(4 154.12)">
<title>Graphical Class Hierarchy</title>
<!-- Node0 -->
<g id="Node000000" class="node">
<title>Node0</title>
<g id="a_Node000000"><a xlink:href="classllzk_1_1component_1_1detail_1_1_field_write_op_generic_adaptor_base.html" target="_top" xlink:title=" ">
<polygon fill="white" stroke="#666666" points="168.25,-84.5 0,-84.5 0,-54 168.25,-54 168.25,-84.5"/>
<text text-anchor="start" x="8" y="-71" font-family="Helvetica,sans-Serif" font-size="10.00">llzk::component::detail</text>
<text text-anchor="middle" x="84.12" y="-59.75" font-family="Helvetica,sans-Serif" font-size="10.00">::FieldWriteOpGenericAdaptorBase</text>
</a>
</g>
</g>
<!-- Node1 -->
<g id="Node000001" class="node">
<title>Node1</title>
<g id="a_Node000001"><a xlink:href="classllzk_1_1component_1_1_field_write_op_generic_adaptor.html" target="_top" xlink:title=" ">
<polygon fill="white" stroke="#666666" points="353.75,-150.12 204.25,-150.12 204.25,-108.38 353.75,-108.38 353.75,-150.12"/>
<text text-anchor="start" x="212.25" y="-136.62" font-family="Helvetica,sans-Serif" font-size="10.00">llzk::component::FieldWrite</text>
<text text-anchor="start" x="212.25" y="-125.38" font-family="Helvetica,sans-Serif" font-size="10.00">OpGenericAdaptor&lt;::llvm</text>
<text text-anchor="middle" x="279" y="-114.12" font-family="Helvetica,sans-Serif" font-size="10.00">::ArrayRef&lt;::mlir::Attribute &gt; &gt;</text>
</a>
</g>
</g>
<!-- Node0&#45;&gt;Node1 -->
<g id="edge85_Node000000_Node000001" class="edge">
<title>Node0&#45;&gt;Node1</title>
<g id="a_edge85_Node000000_Node000001"><a xlink:title=" ">
<path fill="none" stroke="#63b8ff" d="M146.41,-88.32C166.45,-94.55 188.83,-101.51 209.37,-107.9"/>
<polygon fill="#63b8ff" stroke="#63b8ff" points="147.58,-85.01 136.99,-85.39 145.5,-91.7 147.58,-85.01"/>
</a>
</g>
</g>
<!-- Node2 -->
<g id="Node000002" class="node">
<title>Node2</title>
<g id="a_Node000002"><a xlink:href="classllzk_1_1component_1_1_field_write_op_generic_adaptor.html" target="_top" xlink:title=" ">
<polygon fill="white" stroke="#666666" points="346.25,-90.12 211.75,-90.12 211.75,-48.38 346.25,-48.38 346.25,-90.12"/>
<text text-anchor="start" x="219.75" y="-76.62" font-family="Helvetica,sans-Serif" font-size="10.00">llzk::component::FieldWrite</text>
<text text-anchor="start" x="219.75" y="-65.38" font-family="Helvetica,sans-Serif" font-size="10.00">OpGenericAdaptor&lt;::mlir</text>
<text text-anchor="middle" x="279" y="-54.12" font-family="Helvetica,sans-Serif" font-size="10.00">::ValueRange &gt;</text>
</a>
</g>
</g>
<!-- Node0&#45;&gt;Node2 -->
<g id="edge86_Node000000_Node000002" class="edge">
<title>Node0&#45;&gt;Node2</title>
<g id="a_edge86_Node000000_Node000002"><a xlink:title=" ">
<path fill="none" stroke="#63b8ff" d="M180.1,-69.25C190.73,-69.25 201.38,-69.25 211.53,-69.25"/>
<polygon fill="#63b8ff" stroke="#63b8ff" points="180.11,-65.75 170.11,-69.25 180.11,-72.75 180.11,-65.75"/>
</a>
</g>
</g>
<!-- Node4 -->
<g id="Node000004" class="node">
<title>Node4</title>
<g id="a_Node000004"><a xlink:href="classllzk_1_1component_1_1_field_write_op_generic_adaptor.html" target="_top" xlink:title=" ">
<polygon fill="white" stroke="#666666" points="353.38,-30.5 204.62,-30.5 204.62,0 353.38,0 353.38,-30.5"/>
<text text-anchor="start" x="212.62" y="-17" font-family="Helvetica,sans-Serif" font-size="10.00">llzk::component::FieldWrite</text>
<text text-anchor="middle" x="279" y="-5.75" font-family="Helvetica,sans-Serif" font-size="10.00">OpGenericAdaptor&lt; RangeT &gt;</text>
</a>
</g>
</g>
<!-- Node0&#45;&gt;Node4 -->
<g id="edge88_Node000000_Node000004" class="edge">
<title>Node0&#45;&gt;Node4</title>
<g id="a_edge88_Node000000_Node000004"><a xlink:title=" ">
<path fill="none" stroke="#63b8ff" d="M152.11,-50.49C174.85,-44.13 200.01,-37.09 221.81,-30.98"/>
<polygon fill="#63b8ff" stroke="#63b8ff" points="151.32,-47.08 142.63,-53.15 153.2,-53.82 151.32,-47.08"/>
</a>
</g>
</g>
<!-- Node3 -->
<g id="Node000003" class="node">
<title>Node3</title>
<g id="a_Node000003"><a xlink:href="classllzk_1_1component_1_1_field_write_op_adaptor.html" target="_top" xlink:title=" ">
<polygon fill="white" stroke="#666666" points="524.25,-84.5 389.75,-84.5 389.75,-54 524.25,-54 524.25,-84.5"/>
<text text-anchor="start" x="397.75" y="-71" font-family="Helvetica,sans-Serif" font-size="10.00">llzk::component::FieldWrite</text>
<text text-anchor="middle" x="457" y="-59.75" font-family="Helvetica,sans-Serif" font-size="10.00">OpAdaptor</text>
</a>
</g>
</g>
<!-- Node2&#45;&gt;Node3 -->
<g id="edge87_Node000002_Node000003" class="edge">
<title>Node2&#45;&gt;Node3</title>
<g id="a_edge87_Node000002_Node000003"><a xlink:title=" ">
<path fill="none" stroke="#63b8ff" d="M357.84,-69.25C368.36,-69.25 379.07,-69.25 389.37,-69.25"/>
<polygon fill="#63b8ff" stroke="#63b8ff" points="358.05,-65.75 348.05,-69.25 358.05,-72.75 358.05,-65.75"/>
</a>
</g>
</g>
</g>
</svg>
