<?xml version="1.0" encoding="UTF-8" standalone="no"?>
<!DOCTYPE svg PUBLIC "-//W3C//DTD SVG 1.1//EN"
 "http://www.w3.org/Graphics/SVG/1.1/DTD/svg11.dtd">
<!-- Generated by graphviz version 12.2.1 (0)
 -->
<!-- Title: Graphical Class Hierarchy Pages: 1 -->
<svg width="525pt" height="158pt"
 viewBox="0.00 0.00 524.75 158.12" xmlns="http://www.w3.org/2000/svg" xmlns:xlink="http://www.w3.org/1999/xlink">
<g id="graph0" class="graph" transform="scale(1 1) rotate(0) translate(4 154.12)">
<title>Graphical Class Hierarchy</title>
<!-- Node0 -->
<g id="Node000000" class="node">
<title>Node0</title>
<g id="a_Node000000"><a xlink:href="classllzk_1_1array_1_1detail_1_1_read_array_op_generic_adaptor_base.html" target="_top" xlink:title=" ">
<polygon fill="white" stroke="#666666" points="171.25,-84.5 0,-84.5 0,-54 171.25,-54 171.25,-84.5"/>
<text text-anchor="start" x="8" y="-71" font-family="Helvetica,sans-Serif" font-size="10.00">llzk::array::detail</text>
<text text-anchor="middle" x="85.62" y="-59.75" font-family="Helvetica,sans-Serif" font-size="10.00">::ReadArrayOpGenericAdaptorBase</text>
</a>
</g>
</g>
<!-- Node1 -->
<g id="Node000001" class="node">
<title>Node1</title>
<g id="a_Node000001"><a xlink:href="classllzk_1_1array_1_1_read_array_op_generic_adaptor.html" target="_top" xlink:title=" ">
<polygon fill="white" stroke="#666666" points="356.75,-150.12 207.25,-150.12 207.25,-108.38 356.75,-108.38 356.75,-150.12"/>
<text text-anchor="start" x="215.25" y="-136.62" font-family="Helvetica,sans-Serif" font-size="10.00">llzk::array::ReadArrayOp</text>
<text text-anchor="start" x="215.25" y="-125.38" font-family="Helvetica,sans-Serif" font-size="10.00">GenericAdaptor&lt;::llvm</text>
<text text-anchor="middle" x="282" y="-114.12" font-family="Helvetica,sans-Serif" font-size="10.00">::ArrayRef&lt;::mlir::Attribute &gt; &gt;</text>
</a>
</g>
</g>
<!-- Node0&#45;&gt;Node1 -->
<g id="edge29_Node000000_Node000001" class="edge">
<title>Node0&#45;&gt;Node1</title>
<g id="a_edge29_Node000000_Node000001"><a xlink:title=" ">
<path fill="none" stroke="#63b8ff" d="M148.39,-88.32C168.58,-94.55 191.13,-101.51 211.83,-107.9"/>
<polygon fill="#63b8ff" stroke="#63b8ff" points="149.47,-84.99 138.89,-85.38 147.41,-91.68 149.47,-84.99"/>
</a>
</g>
</g>
<!-- Node2 -->
<g id="Node000002" class="node">
<title>Node2</title>
<g id="a_Node000002"><a xlink:href="classllzk_1_1array_1_1_read_array_op_generic_adaptor.html" target="_top" xlink:title=" ">
<polygon fill="white" stroke="#666666" points="344,-90.12 220,-90.12 220,-48.38 344,-48.38 344,-90.12"/>
<text text-anchor="start" x="228" y="-76.62" font-family="Helvetica,sans-Serif" font-size="10.00">llzk::array::ReadArrayOp</text>
<text text-anchor="start" x="228" y="-65.38" font-family="Helvetica,sans-Serif" font-size="10.00">GenericAdaptor&lt;::mlir</text>
<text text-anchor="middle" x="282" y="-54.12" font-family="Helvetica,sans-Serif" font-size="10.00">::ValueRange &gt;</text>
</a>
</g>
</g>
<!-- Node0&#45;&gt;Node2 -->
<g id="edge30_Node000000_Node000002" class="edge">
<title>Node0&#45;&gt;Node2</title>
<g id="a_edge30_Node000000_Node000002"><a xlink:title=" ">
<path fill="none" stroke="#63b8ff" d="M183,-69.25C195.44,-69.25 207.91,-69.25 219.57,-69.25"/>
<polygon fill="#63b8ff" stroke="#63b8ff" points="183.11,-65.75 173.11,-69.25 183.11,-72.75 183.11,-65.75"/>
</a>
</g>
</g>
<!-- Node4 -->
<g id="Node000004" class="node">
<title>Node4</title>
<g id="a_Node000004"><a xlink:href="classllzk_1_1array_1_1_read_array_op_generic_adaptor.html" target="_top" xlink:title=" ">
<polygon fill="white" stroke="#666666" points="350,-30.5 214,-30.5 214,0 350,0 350,-30.5"/>
<text text-anchor="start" x="222" y="-17" font-family="Helvetica,sans-Serif" font-size="10.00">llzk::array::ReadArrayOp</text>
<text text-anchor="middle" x="282" y="-5.75" font-family="Helvetica,sans-Serif" font-size="10.00">GenericAdaptor&lt; RangeT &gt;</text>
</a>
</g>
</g>
<!-- Node0&#45;&gt;Node4 -->
<g id="edge32_Node000000_Node000004" class="edge">
<title>Node0&#45;&gt;Node4</title>
<g id="a_edge32_Node000000_Node000004"><a xlink:title=" ">
<path fill="none" stroke="#63b8ff" d="M154.14,-50.49C177.05,-44.13 202.4,-37.09 224.38,-30.98"/>
<polygon fill="#63b8ff" stroke="#63b8ff" points="153.26,-47.1 144.57,-53.15 155.14,-53.85 153.26,-47.1"/>
</a>
</g>
</g>
<!-- Node3 -->
<g id="Node000003" class="node">
<title>Node3</title>
<g id="a_Node000003"><a xlink:href="classllzk_1_1array_1_1_read_array_op_adaptor.html" target="_top" xlink:title=" ">
<polygon fill="white" stroke="#666666" points="516.75,-84.5 392.75,-84.5 392.75,-54 516.75,-54 516.75,-84.5"/>
<text text-anchor="start" x="400.75" y="-71" font-family="Helvetica,sans-Serif" font-size="10.00">llzk::array::ReadArrayOp</text>
<text text-anchor="middle" x="454.75" y="-59.75" font-family="Helvetica,sans-Serif" font-size="10.00">Adaptor</text>
</a>
</g>
</g>
<!-- Node2&#45;&gt;Node3 -->
<g id="edge31_Node000002_Node000003" class="edge">
<title>Node2&#45;&gt;Node3</title>
<g id="a_edge31_Node000002_Node000003"><a xlink:title=" ">
<path fill="none" stroke="#63b8ff" d="M355.36,-69.25C367.71,-69.25 380.42,-69.25 392.44,-69.25"/>
<polygon fill="#63b8ff" stroke="#63b8ff" points="355.68,-65.75 345.68,-69.25 355.68,-72.75 355.68,-65.75"/>
</a>
</g>
</g>
</g>
</svg>
