<?xml version="1.0" encoding="UTF-8" standalone="no"?>
<!DOCTYPE svg PUBLIC "-//W3C//DTD SVG 1.1//EN"
 "http://www.w3.org/Graphics/SVG/1.1/DTD/svg11.dtd">
<!-- Generated by graphviz version 12.2.1 (0)
 -->
<!-- Title: Graphical Class Hierarchy Pages: 1 -->
<svg width="529pt" height="158pt"
 viewBox="0.00 0.00 528.50 158.12" xmlns="http://www.w3.org/2000/svg" xmlns:xlink="http://www.w3.org/1999/xlink">
<g id="graph0" class="graph" transform="scale(1 1) rotate(0) translate(4 154.12)">
<title>Graphical Class Hierarchy</title>
<!-- Node0 -->
<g id="Node000000" class="node">
<title>Node0</title>
<g id="a_Node000000"><a xlink:href="classllzk_1_1array_1_1detail_1_1_extract_array_op_generic_adaptor_base.html" target="_top" xlink:title=" ">
<polygon fill="white" stroke="#666666" points="179.5,-84.5 0,-84.5 0,-54 179.5,-54 179.5,-84.5"/>
<text text-anchor="start" x="8" y="-71" font-family="Helvetica,sans-Serif" font-size="10.00">llzk::array::detail</text>
<text text-anchor="middle" x="89.75" y="-59.75" font-family="Helvetica,sans-Serif" font-size="10.00">::ExtractArrayOpGenericAdaptorBase</text>
</a>
</g>
</g>
<!-- Node1 -->
<g id="Node000001" class="node">
<title>Node1</title>
<g id="a_Node000001"><a xlink:href="classllzk_1_1array_1_1_extract_array_op_generic_adaptor.html" target="_top" xlink:title=" ">
<polygon fill="white" stroke="#666666" points="365,-150.12 215.5,-150.12 215.5,-108.38 365,-108.38 365,-150.12"/>
<text text-anchor="start" x="223.5" y="-136.62" font-family="Helvetica,sans-Serif" font-size="10.00">llzk::array::ExtractArray</text>
<text text-anchor="start" x="223.5" y="-125.38" font-family="Helvetica,sans-Serif" font-size="10.00">OpGenericAdaptor&lt;::llvm</text>
<text text-anchor="middle" x="290.25" y="-114.12" font-family="Helvetica,sans-Serif" font-size="10.00">::ArrayRef&lt;::mlir::Attribute &gt; &gt;</text>
</a>
</g>
</g>
<!-- Node0&#45;&gt;Node1 -->
<g id="edge21_Node000000_Node000001" class="edge">
<title>Node0&#45;&gt;Node1</title>
<g id="a_edge21_Node000000_Node000001"><a xlink:title=" ">
<path fill="none" stroke="#63b8ff" d="M153.54,-88.23C174.23,-94.48 197.38,-101.48 218.62,-107.9"/>
<polygon fill="#63b8ff" stroke="#63b8ff" points="154.68,-84.92 144.09,-85.37 152.65,-91.62 154.68,-84.92"/>
</a>
</g>
</g>
<!-- Node2 -->
<g id="Node000002" class="node">
<title>Node2</title>
<g id="a_Node000002"><a xlink:href="classllzk_1_1array_1_1_extract_array_op_generic_adaptor.html" target="_top" xlink:title=" ">
<polygon fill="white" stroke="#666666" points="352.25,-90.12 228.25,-90.12 228.25,-48.38 352.25,-48.38 352.25,-90.12"/>
<text text-anchor="start" x="236.25" y="-76.62" font-family="Helvetica,sans-Serif" font-size="10.00">llzk::array::ExtractArray</text>
<text text-anchor="start" x="236.25" y="-65.38" font-family="Helvetica,sans-Serif" font-size="10.00">OpGenericAdaptor&lt;::mlir</text>
<text text-anchor="middle" x="290.25" y="-54.12" font-family="Helvetica,sans-Serif" font-size="10.00">::ValueRange &gt;</text>
</a>
</g>
</g>
<!-- Node0&#45;&gt;Node2 -->
<g id="edge22_Node000000_Node000002" class="edge">
<title>Node0&#45;&gt;Node2</title>
<g id="a_edge22_Node000000_Node000002"><a xlink:title=" ">
<path fill="none" stroke="#63b8ff" d="M191.33,-69.25C203.85,-69.25 216.35,-69.25 228.02,-69.25"/>
<polygon fill="#63b8ff" stroke="#63b8ff" points="191.35,-65.75 181.35,-69.25 191.35,-72.75 191.35,-65.75"/>
</a>
</g>
</g>
<!-- Node4 -->
<g id="Node000004" class="node">
<title>Node4</title>
<g id="a_Node000004"><a xlink:href="classllzk_1_1array_1_1_extract_array_op_generic_adaptor.html" target="_top" xlink:title=" ">
<polygon fill="white" stroke="#666666" points="364.62,-30.5 215.88,-30.5 215.88,0 364.62,0 364.62,-30.5"/>
<text text-anchor="start" x="223.88" y="-17" font-family="Helvetica,sans-Serif" font-size="10.00">llzk::array::ExtractArray</text>
<text text-anchor="middle" x="290.25" y="-5.75" font-family="Helvetica,sans-Serif" font-size="10.00">OpGenericAdaptor&lt; RangeT &gt;</text>
</a>
</g>
</g>
<!-- Node0&#45;&gt;Node4 -->
<g id="edge24_Node000000_Node000004" class="edge">
<title>Node0&#45;&gt;Node4</title>
<g id="a_edge24_Node000000_Node000004"><a xlink:title=" ">
<path fill="none" stroke="#63b8ff" d="M159.37,-50.58C182.86,-44.19 208.88,-37.11 231.43,-30.98"/>
<polygon fill="#63b8ff" stroke="#63b8ff" points="158.62,-47.16 149.89,-53.16 160.46,-53.91 158.62,-47.16"/>
</a>
</g>
</g>
<!-- Node3 -->
<g id="Node000003" class="node">
<title>Node3</title>
<g id="a_Node000003"><a xlink:href="classllzk_1_1array_1_1_extract_array_op_adaptor.html" target="_top" xlink:title=" ">
<polygon fill="white" stroke="#666666" points="520.5,-84.5 401,-84.5 401,-54 520.5,-54 520.5,-84.5"/>
<text text-anchor="start" x="409" y="-71" font-family="Helvetica,sans-Serif" font-size="10.00">llzk::array::ExtractArray</text>
<text text-anchor="middle" x="460.75" y="-59.75" font-family="Helvetica,sans-Serif" font-size="10.00">OpAdaptor</text>
</a>
</g>
</g>
<!-- Node2&#45;&gt;Node3 -->
<g id="edge23_Node000002_Node000003" class="edge">
<title>Node2&#45;&gt;Node3</title>
<g id="a_edge23_Node000002_Node000003"><a xlink:title=" ">
<path fill="none" stroke="#63b8ff" d="M363.77,-69.25C376.11,-69.25 388.8,-69.25 400.74,-69.25"/>
<polygon fill="#63b8ff" stroke="#63b8ff" points="364.07,-65.75 354.07,-69.25 364.07,-72.75 364.07,-65.75"/>
</a>
</g>
</g>
</g>
</svg>
