<?xml version="1.0" encoding="UTF-8" standalone="no"?>
<!DOCTYPE svg PUBLIC "-//W3C//DTD SVG 1.1//EN"
 "http://www.w3.org/Graphics/SVG/1.1/DTD/svg11.dtd">
<!-- Generated by graphviz version 12.2.1 (0)
 -->
<!-- Title: Graphical Class Hierarchy Pages: 1 -->
<svg width="517pt" height="158pt"
 viewBox="0.00 0.00 517.25 158.12" xmlns="http://www.w3.org/2000/svg" xmlns:xlink="http://www.w3.org/1999/xlink">
<g id="graph0" class="graph" transform="scale(1 1) rotate(0) translate(4 154.12)">
<title>Graphical Class Hierarchy</title>
<!-- Node0 -->
<g id="Node000000" class="node">
<title>Node0</title>
<g id="a_Node000000"><a xlink:href="classllzk_1_1boolean_1_1detail_1_1_and_bool_op_generic_adaptor_base.html" target="_top" xlink:title=" ">
<polygon fill="white" stroke="#666666" points="161.5,-84.5 0,-84.5 0,-54 161.5,-54 161.5,-84.5"/>
<text text-anchor="start" x="8" y="-71" font-family="Helvetica,sans-Serif" font-size="10.00">llzk::boolean::detail</text>
<text text-anchor="middle" x="80.75" y="-59.75" font-family="Helvetica,sans-Serif" font-size="10.00">::AndBoolOpGenericAdaptorBase</text>
</a>
</g>
</g>
<!-- Node1 -->
<g id="Node000001" class="node">
<title>Node1</title>
<g id="a_Node000001"><a xlink:href="classllzk_1_1boolean_1_1_and_bool_op_generic_adaptor.html" target="_top" xlink:title=" ">
<polygon fill="white" stroke="#666666" points="347,-150.12 197.5,-150.12 197.5,-108.38 347,-108.38 347,-150.12"/>
<text text-anchor="start" x="205.5" y="-136.62" font-family="Helvetica,sans-Serif" font-size="10.00">llzk::boolean::AndBoolOp</text>
<text text-anchor="start" x="205.5" y="-125.38" font-family="Helvetica,sans-Serif" font-size="10.00">GenericAdaptor&lt;::llvm</text>
<text text-anchor="middle" x="272.25" y="-114.12" font-family="Helvetica,sans-Serif" font-size="10.00">::ArrayRef&lt;::mlir::Attribute &gt; &gt;</text>
</a>
</g>
</g>
<!-- Node0&#45;&gt;Node1 -->
<g id="edge37_Node000000_Node000001" class="edge">
<title>Node0&#45;&gt;Node1</title>
<g id="a_edge37_Node000000_Node000001"><a xlink:title=" ">
<path fill="none" stroke="#63b8ff" d="M141.77,-88.26C161.57,-94.52 183.71,-101.53 204.01,-107.96"/>
<polygon fill="#63b8ff" stroke="#63b8ff" points="143.08,-85 132.49,-85.31 140.96,-91.67 143.08,-85"/>
</a>
</g>
</g>
<!-- Node2 -->
<g id="Node000002" class="node">
<title>Node2</title>
<g id="a_Node000002"><a xlink:href="classllzk_1_1boolean_1_1_and_bool_op_generic_adaptor.html" target="_top" xlink:title=" ">
<polygon fill="white" stroke="#666666" points="335.38,-90.12 209.12,-90.12 209.12,-48.38 335.38,-48.38 335.38,-90.12"/>
<text text-anchor="start" x="217.12" y="-76.62" font-family="Helvetica,sans-Serif" font-size="10.00">llzk::boolean::AndBoolOp</text>
<text text-anchor="start" x="217.12" y="-65.38" font-family="Helvetica,sans-Serif" font-size="10.00">GenericAdaptor&lt;::mlir</text>
<text text-anchor="middle" x="272.25" y="-54.12" font-family="Helvetica,sans-Serif" font-size="10.00">::ValueRange &gt;</text>
</a>
</g>
</g>
<!-- Node0&#45;&gt;Node2 -->
<g id="edge38_Node000000_Node000002" class="edge">
<title>Node0&#45;&gt;Node2</title>
<g id="a_edge38_Node000000_Node000002"><a xlink:title=" ">
<path fill="none" stroke="#63b8ff" d="M173.29,-69.25C185.27,-69.25 197.33,-69.25 208.69,-69.25"/>
<polygon fill="#63b8ff" stroke="#63b8ff" points="173.35,-65.75 163.35,-69.25 173.35,-72.75 173.35,-65.75"/>
</a>
</g>
</g>
<!-- Node4 -->
<g id="Node000004" class="node">
<title>Node4</title>
<g id="a_Node000004"><a xlink:href="classllzk_1_1boolean_1_1_and_bool_op_generic_adaptor.html" target="_top" xlink:title=" ">
<polygon fill="white" stroke="#666666" points="340.25,-30.5 204.25,-30.5 204.25,0 340.25,0 340.25,-30.5"/>
<text text-anchor="start" x="212.25" y="-17" font-family="Helvetica,sans-Serif" font-size="10.00">llzk::boolean::AndBoolOp</text>
<text text-anchor="middle" x="272.25" y="-5.75" font-family="Helvetica,sans-Serif" font-size="10.00">GenericAdaptor&lt; RangeT &gt;</text>
</a>
</g>
</g>
<!-- Node0&#45;&gt;Node4 -->
<g id="edge40_Node000000_Node000004" class="edge">
<title>Node0&#45;&gt;Node4</title>
<g id="a_edge40_Node000000_Node000004"><a xlink:title=" ">
<path fill="none" stroke="#63b8ff" d="M147.87,-50.41C170.13,-44.06 194.72,-37.06 216.05,-30.98"/>
<polygon fill="#63b8ff" stroke="#63b8ff" points="146.93,-47.04 138.27,-53.14 148.85,-53.77 146.93,-47.04"/>
</a>
</g>
</g>
<!-- Node3 -->
<g id="Node000003" class="node">
<title>Node3</title>
<g id="a_Node000003"><a xlink:href="classllzk_1_1boolean_1_1_and_bool_op_adaptor.html" target="_top" xlink:title=" ">
<polygon fill="white" stroke="#666666" points="509.25,-84.5 383,-84.5 383,-54 509.25,-54 509.25,-84.5"/>
<text text-anchor="start" x="391" y="-71" font-family="Helvetica,sans-Serif" font-size="10.00">llzk::boolean::AndBoolOp</text>
<text text-anchor="middle" x="446.12" y="-59.75" font-family="Helvetica,sans-Serif" font-size="10.00">Adaptor</text>
</a>
</g>
</g>
<!-- Node2&#45;&gt;Node3 -->
<g id="edge39_Node000002_Node000003" class="edge">
<title>Node2&#45;&gt;Node3</title>
<g id="a_edge39_Node000002_Node000003"><a xlink:title=" ">
<path fill="none" stroke="#63b8ff" d="M347.03,-69.25C358.89,-69.25 371.07,-69.25 382.63,-69.25"/>
<polygon fill="#63b8ff" stroke="#63b8ff" points="347.3,-65.75 337.3,-69.25 347.3,-72.75 347.3,-65.75"/>
</a>
</g>
</g>
</g>
</svg>
