<?xml version="1.0" encoding="UTF-8" standalone="no"?>
<!DOCTYPE svg PUBLIC "-//W3C//DTD SVG 1.1//EN"
 "http://www.w3.org/Graphics/SVG/1.1/DTD/svg11.dtd">
<!-- Generated by graphviz version 12.2.1 (0)
 -->
<!-- Title: Graphical Class Hierarchy Pages: 1 -->
<svg width="522pt" height="147pt"
 viewBox="0.00 0.00 521.75 147.12" xmlns="http://www.w3.org/2000/svg" xmlns:xlink="http://www.w3.org/1999/xlink">
<g id="graph0" class="graph" transform="scale(1 1) rotate(0) translate(4 143.12)">
<title>Graphical Class Hierarchy</title>
<!-- Node0 -->
<g id="Node000000" class="node">
<title>Node0</title>
<g id="a_Node000000"><a xlink:href="classllzk_1_1felt_1_1detail_1_1_neg_felt_op_generic_adaptor_base.html" target="_top" xlink:title=" ">
<polygon fill="white" stroke="#666666" points="159.25,-79.5 0,-79.5 0,-49 159.25,-49 159.25,-79.5"/>
<text text-anchor="start" x="8" y="-66" font-family="Helvetica,sans-Serif" font-size="10.00">llzk::felt::detail</text>
<text text-anchor="middle" x="79.62" y="-54.75" font-family="Helvetica,sans-Serif" font-size="10.00">::NegFeltOpGenericAdaptorBase</text>
</a>
</g>
</g>
<!-- Node1 -->
<g id="Node000001" class="node">
<title>Node1</title>
<g id="a_Node000001"><a xlink:href="classllzk_1_1felt_1_1_neg_felt_op_generic_adaptor.html" target="_top" xlink:title=" ">
<polygon fill="white" stroke="#666666" points="336.5,-139.12 199,-139.12 199,-97.38 336.5,-97.38 336.5,-139.12"/>
<text text-anchor="start" x="207" y="-125.62" font-family="Helvetica,sans-Serif" font-size="10.00">llzk::felt::NegFeltOpGeneric</text>
<text text-anchor="start" x="207" y="-114.38" font-family="Helvetica,sans-Serif" font-size="10.00">Adaptor&lt;::llvm::ArrayRef</text>
<text text-anchor="middle" x="267.75" y="-103.12" font-family="Helvetica,sans-Serif" font-size="10.00">&lt;::mlir::Attribute &gt; &gt;</text>
</a>
</g>
</g>
<!-- Node0&#45;&gt;Node1 -->
<g id="edge139_Node000000_Node000001" class="edge">
<title>Node0&#45;&gt;Node1</title>
<g id="a_edge139_Node000000_Node000001"><a xlink:title=" ">
<path fill="none" stroke="#63b8ff" d="M145.73,-83.14C162.84,-88.1 181.34,-93.47 198.61,-98.48"/>
<polygon fill="#63b8ff" stroke="#63b8ff" points="146.74,-79.79 136.16,-80.36 144.79,-86.51 146.74,-79.79"/>
</a>
</g>
</g>
<!-- Node2 -->
<g id="Node000002" class="node">
<title>Node2</title>
<g id="a_Node000002"><a xlink:href="classllzk_1_1felt_1_1_neg_felt_op_generic_adaptor.html" target="_top" xlink:title=" ">
<polygon fill="white" stroke="#666666" points="340.25,-79.5 195.25,-79.5 195.25,-49 340.25,-49 340.25,-79.5"/>
<text text-anchor="start" x="203.25" y="-66" font-family="Helvetica,sans-Serif" font-size="10.00">llzk::felt::NegFeltOpGeneric</text>
<text text-anchor="middle" x="267.75" y="-54.75" font-family="Helvetica,sans-Serif" font-size="10.00">Adaptor&lt;::mlir::ValueRange &gt;</text>
</a>
</g>
</g>
<!-- Node0&#45;&gt;Node2 -->
<g id="edge140_Node000000_Node000002" class="edge">
<title>Node0&#45;&gt;Node2</title>
<g id="a_edge140_Node000000_Node000002"><a xlink:title=" ">
<path fill="none" stroke="#63b8ff" d="M170.86,-64.25C178.89,-64.25 186.94,-64.25 194.79,-64.25"/>
<polygon fill="#63b8ff" stroke="#63b8ff" points="171.07,-60.75 161.07,-64.25 171.07,-67.75 171.07,-60.75"/>
</a>
</g>
</g>
<!-- Node4 -->
<g id="Node000004" class="node">
<title>Node4</title>
<g id="a_Node000004"><a xlink:href="classllzk_1_1felt_1_1_neg_felt_op_generic_adaptor.html" target="_top" xlink:title=" ">
<polygon fill="white" stroke="#666666" points="336.5,-30.5 199,-30.5 199,0 336.5,0 336.5,-30.5"/>
<text text-anchor="start" x="207" y="-17" font-family="Helvetica,sans-Serif" font-size="10.00">llzk::felt::NegFeltOpGeneric</text>
<text text-anchor="middle" x="267.75" y="-5.75" font-family="Helvetica,sans-Serif" font-size="10.00">Adaptor&lt; RangeT &gt;</text>
</a>
</g>
</g>
<!-- Node0&#45;&gt;Node4 -->
<g id="edge142_Node000000_Node000004" class="edge">
<title>Node0&#45;&gt;Node4</title>
<g id="a_edge142_Node000000_Node000004"><a xlink:title=" ">
<path fill="none" stroke="#63b8ff" d="M151.26,-45.66C169.67,-40.81 189.33,-35.63 207.11,-30.95"/>
<polygon fill="#63b8ff" stroke="#63b8ff" points="150.53,-42.23 141.75,-48.16 152.31,-49 150.53,-42.23"/>
</a>
</g>
</g>
<!-- Node3 -->
<g id="Node000003" class="node">
<title>Node3</title>
<g id="a_Node000003"><a xlink:href="classllzk_1_1felt_1_1_neg_felt_op_adaptor.html" target="_top" xlink:title=" ">
<polygon fill="white" stroke="#666666" points="513.75,-73.88 376.25,-73.88 376.25,-54.62 513.75,-54.62 513.75,-73.88"/>
<text text-anchor="middle" x="445" y="-60.38" font-family="Helvetica,sans-Serif" font-size="10.00">llzk::felt::NegFeltOpAdaptor</text>
</a>
</g>
</g>
<!-- Node2&#45;&gt;Node3 -->
<g id="edge141_Node000002_Node000003" class="edge">
<title>Node2&#45;&gt;Node3</title>
<g id="a_edge141_Node000002_Node000003"><a xlink:title=" ">
<path fill="none" stroke="#63b8ff" d="M351.89,-64.25C359.97,-64.25 368.09,-64.25 376,-64.25"/>
<polygon fill="#63b8ff" stroke="#63b8ff" points="352.05,-60.75 342.05,-64.25 352.05,-67.75 352.05,-60.75"/>
</a>
</g>
</g>
</g>
</svg>
