<?xml version="1.0" encoding="UTF-8" standalone="no"?>
<!DOCTYPE svg PUBLIC "-//W3C//DTD SVG 1.1//EN"
 "http://www.w3.org/Graphics/SVG/1.1/DTD/svg11.dtd">
<!-- Generated by graphviz version 12.2.1 (0)
 -->
<!-- Title: Graphical Class Hierarchy Pages: 1 -->
<svg width="330pt" height="256pt"
 viewBox="0.00 0.00 330.25 256.12" xmlns="http://www.w3.org/2000/svg" xmlns:xlink="http://www.w3.org/1999/xlink">
<g id="graph0" class="graph" transform="scale(1 1) rotate(0) translate(4 252.12)">
<title>Graphical Class Hierarchy</title>
<!-- Node0 -->
<g id="Node000000" class="node">
<title>Node0</title>
<g id="a_Node000000"><a xlink:title=" ">
<polygon fill="#e0e0e0" stroke="#999999" points="118,-122.88 0,-122.88 0,-103.62 118,-103.62 118,-122.88"/>
<text text-anchor="middle" x="59" y="-109.38" font-family="Helvetica,sans-Serif" font-size="10.00">mlir::OpTrait::TraitBase</text>
</a>
</g>
</g>
<!-- Node1 -->
<g id="Node000001" class="node">
<title>Node1</title>
<g id="a_Node000001"><a xlink:href="classllzk_1_1_verify_sizes_for_multi_affine_ops_1_1_impl.html" target="_top" xlink:title=" ">
<polygon fill="white" stroke="#666666" points="322.25,-248.12 154,-248.12 154,-206.38 322.25,-206.38 322.25,-248.12"/>
<text text-anchor="start" x="162" y="-234.62" font-family="Helvetica,sans-Serif" font-size="10.00">llzk::VerifySizesForMulti</text>
<text text-anchor="start" x="162" y="-223.38" font-family="Helvetica,sans-Serif" font-size="10.00">AffineOps&lt; OperandSegmentIndex</text>
<text text-anchor="middle" x="238.12" y="-212.12" font-family="Helvetica,sans-Serif" font-size="10.00"> &gt;::Impl&lt; TypeClass &gt;</text>
</a>
</g>
</g>
<!-- Node0&#45;&gt;Node1 -->
<g id="edge326_Node000000_Node000001" class="edge">
<title>Node0&#45;&gt;Node1</title>
<g id="a_edge326_Node000000_Node000001"><a xlink:title=" ">
<path fill="none" stroke="#63b8ff" d="M76.26,-131.42C93.84,-150.12 123.47,-179.04 154,-197.25 159.27,-200.39 164.92,-203.29 170.71,-205.93"/>
<polygon fill="#63b8ff" stroke="#63b8ff" points="79.02,-129.25 69.67,-124.26 73.87,-133.99 79.02,-129.25"/>
</a>
</g>
</g>
<!-- Node2 -->
<g id="Node000002" class="node">
<title>Node2</title>
<g id="a_Node000002"><a xlink:href="classllzk_1_1component_1_1_in_struct_function_named_1_1_impl.html" target="_top" xlink:title=" ">
<polygon fill="white" stroke="#666666" points="309.12,-188.12 167.12,-188.12 167.12,-146.38 309.12,-146.38 309.12,-188.12"/>
<text text-anchor="start" x="175.12" y="-174.62" font-family="Helvetica,sans-Serif" font-size="10.00">llzk::component::InStruct</text>
<text text-anchor="start" x="175.12" y="-163.38" font-family="Helvetica,sans-Serif" font-size="10.00">FunctionNamed&lt; FuncName</text>
<text text-anchor="middle" x="238.12" y="-152.12" font-family="Helvetica,sans-Serif" font-size="10.00"> &gt;::Impl&lt; TypeClass &gt;</text>
</a>
</g>
</g>
<!-- Node0&#45;&gt;Node2 -->
<g id="edge327_Node000000_Node000002" class="edge">
<title>Node0&#45;&gt;Node2</title>
<g id="a_edge327_Node000000_Node000002"><a xlink:title=" ">
<path fill="none" stroke="#63b8ff" d="M103.71,-126.58C122.9,-132.43 145.89,-139.44 167.35,-145.98"/>
<polygon fill="#63b8ff" stroke="#63b8ff" points="104.93,-123.29 94.35,-123.72 102.89,-129.99 104.93,-123.29"/>
</a>
</g>
</g>
<!-- Node3 -->
<g id="Node000003" class="node">
<title>Node3</title>
<g id="a_Node000003"><a xlink:href="classllzk_1_1component_1_1_set_func_allow_attrs.html" target="_top" xlink:title="Only valid/implemented for StructDefOp.">
<polygon fill="white" stroke="#666666" points="302,-128.5 174.25,-128.5 174.25,-98 302,-98 302,-128.5"/>
<text text-anchor="start" x="182.25" y="-115" font-family="Helvetica,sans-Serif" font-size="10.00">llzk::component::SetFunc</text>
<text text-anchor="middle" x="238.12" y="-103.75" font-family="Helvetica,sans-Serif" font-size="10.00">AllowAttrs&lt; TypeClass &gt;</text>
</a>
</g>
</g>
<!-- Node0&#45;&gt;Node3 -->
<g id="edge328_Node000000_Node000003" class="edge">
<title>Node0&#45;&gt;Node3</title>
<g id="a_edge328_Node000000_Node000003"><a xlink:title=" ">
<path fill="none" stroke="#63b8ff" d="M129.92,-113.25C144.41,-113.25 159.59,-113.25 173.82,-113.25"/>
<polygon fill="#63b8ff" stroke="#63b8ff" points="130,-109.75 120,-113.25 130,-116.75 130,-109.75"/>
</a>
</g>
</g>
<!-- Node4 -->
<g id="Node000004" class="node">
<title>Node4</title>
<g id="a_Node000004"><a xlink:href="classllzk_1_1function_1_1_constraint_gen.html" target="_top" xlink:title="Marker for ops that are specific to constraint generation.">
<polygon fill="white" stroke="#666666" points="299.38,-79.5 176.88,-79.5 176.88,-49 299.38,-49 299.38,-79.5"/>
<text text-anchor="start" x="184.88" y="-66" font-family="Helvetica,sans-Serif" font-size="10.00">llzk::function::Constraint</text>
<text text-anchor="middle" x="238.12" y="-54.75" font-family="Helvetica,sans-Serif" font-size="10.00">Gen&lt; TypeClass &gt;</text>
</a>
</g>
</g>
<!-- Node0&#45;&gt;Node4 -->
<g id="edge329_Node000000_Node000004" class="edge">
<title>Node0&#45;&gt;Node4</title>
<g id="a_edge329_Node000000_Node000004"><a xlink:title=" ">
<path fill="none" stroke="#63b8ff" d="M107.23,-100.18C129.7,-93.97 156.74,-86.49 180.32,-79.96"/>
<polygon fill="#63b8ff" stroke="#63b8ff" points="106.43,-96.77 97.73,-102.81 108.3,-103.52 106.43,-96.77"/>
</a>
</g>
</g>
<!-- Node5 -->
<g id="Node000005" class="node">
<title>Node5</title>
<g id="a_Node000005"><a xlink:href="classllzk_1_1function_1_1_witness_gen.html" target="_top" xlink:title="Marker for ops that are specific to witness generation.">
<polygon fill="white" stroke="#666666" points="303.88,-30.5 172.38,-30.5 172.38,0 303.88,0 303.88,-30.5"/>
<text text-anchor="start" x="180.38" y="-17" font-family="Helvetica,sans-Serif" font-size="10.00">llzk::function::WitnessGen</text>
<text text-anchor="middle" x="238.12" y="-5.75" font-family="Helvetica,sans-Serif" font-size="10.00">&lt; TypeClass &gt;</text>
</a>
</g>
</g>
<!-- Node0&#45;&gt;Node5 -->
<g id="edge330_Node000000_Node000005" class="edge">
<title>Node0&#45;&gt;Node5</title>
<g id="a_edge330_Node000000_Node000005"><a xlink:title=" ">
<path fill="none" stroke="#63b8ff" d="M78.47,-95.52C96.46,-79.11 125.23,-55.09 154,-40.25 160.83,-36.73 168.24,-33.61 175.72,-30.89"/>
<polygon fill="#63b8ff" stroke="#63b8ff" points="76.14,-92.9 71.21,-102.28 80.92,-98.02 76.14,-92.9"/>
</a>
</g>
</g>
</g>
</svg>
