<?xml version="1.0" encoding="UTF-8" standalone="no"?>
<!DOCTYPE svg PUBLIC "-//W3C//DTD SVG 1.1//EN"
 "http://www.w3.org/Graphics/SVG/1.1/DTD/svg11.dtd">
<!-- Generated by graphviz version 12.2.1 (0)
 -->
<!-- Title: Graphical Class Hierarchy Pages: 1 -->
<svg width="515pt" height="147pt"
 viewBox="0.00 0.00 515.00 147.12" xmlns="http://www.w3.org/2000/svg" xmlns:xlink="http://www.w3.org/1999/xlink">
<g id="graph0" class="graph" transform="scale(1 1) rotate(0) translate(4 143.12)">
<title>Graphical Class Hierarchy</title>
<!-- Node0 -->
<g id="Node000000" class="node">
<title>Node0</title>
<g id="a_Node000000"><a xlink:href="classllzk_1_1boolean_1_1detail_1_1_cmp_op_generic_adaptor_base.html" target="_top" xlink:title=" ">
<polygon fill="white" stroke="#666666" points="145.75,-79.5 0,-79.5 0,-49 145.75,-49 145.75,-79.5"/>
<text text-anchor="start" x="8" y="-66" font-family="Helvetica,sans-Serif" font-size="10.00">llzk::boolean::detail</text>
<text text-anchor="middle" x="72.88" y="-54.75" font-family="Helvetica,sans-Serif" font-size="10.00">::CmpOpGenericAdaptorBase</text>
</a>
</g>
</g>
<!-- Node1 -->
<g id="Node000001" class="node">
<title>Node1</title>
<g id="a_Node000001"><a xlink:href="classllzk_1_1boolean_1_1_cmp_op_generic_adaptor.html" target="_top" xlink:title=" ">
<polygon fill="white" stroke="#666666" points="326.38,-139.12 182.12,-139.12 182.12,-97.38 326.38,-97.38 326.38,-139.12"/>
<text text-anchor="start" x="190.12" y="-125.62" font-family="Helvetica,sans-Serif" font-size="10.00">llzk::boolean::CmpOpGeneric</text>
<text text-anchor="start" x="190.12" y="-114.38" font-family="Helvetica,sans-Serif" font-size="10.00">Adaptor&lt;::llvm::ArrayRef</text>
<text text-anchor="middle" x="254.25" y="-103.12" font-family="Helvetica,sans-Serif" font-size="10.00">&lt;::mlir::Attribute &gt; &gt;</text>
</a>
</g>
</g>
<!-- Node0&#45;&gt;Node1 -->
<g id="edge45_Node000000_Node000001" class="edge">
<title>Node0&#45;&gt;Node1</title>
<g id="a_edge45_Node000000_Node000001"><a xlink:title=" ">
<path fill="none" stroke="#63b8ff" d="M136.37,-83.06C151.26,-87.55 167.24,-92.36 182.47,-96.94"/>
<polygon fill="#63b8ff" stroke="#63b8ff" points="137.79,-79.84 127.21,-80.31 135.77,-86.54 137.79,-79.84"/>
</a>
</g>
</g>
<!-- Node2 -->
<g id="Node000002" class="node">
<title>Node2</title>
<g id="a_Node000002"><a xlink:href="classllzk_1_1boolean_1_1_cmp_op_generic_adaptor.html" target="_top" xlink:title=" ">
<polygon fill="white" stroke="#666666" points="326.75,-79.5 181.75,-79.5 181.75,-49 326.75,-49 326.75,-79.5"/>
<text text-anchor="start" x="189.75" y="-66" font-family="Helvetica,sans-Serif" font-size="10.00">llzk::boolean::CmpOpGeneric</text>
<text text-anchor="middle" x="254.25" y="-54.75" font-family="Helvetica,sans-Serif" font-size="10.00">Adaptor&lt;::mlir::ValueRange &gt;</text>
</a>
</g>
</g>
<!-- Node0&#45;&gt;Node2 -->
<g id="edge46_Node000000_Node000002" class="edge">
<title>Node0&#45;&gt;Node2</title>
<g id="a_edge46_Node000000_Node000002"><a xlink:title=" ">
<path fill="none" stroke="#63b8ff" d="M157.38,-64.25C165.44,-64.25 173.57,-64.25 181.51,-64.25"/>
<polygon fill="#63b8ff" stroke="#63b8ff" points="157.57,-60.75 147.57,-64.25 157.57,-67.75 157.57,-60.75"/>
</a>
</g>
</g>
<!-- Node4 -->
<g id="Node000004" class="node">
<title>Node4</title>
<g id="a_Node000004"><a xlink:href="classllzk_1_1boolean_1_1_cmp_op_generic_adaptor.html" target="_top" xlink:title=" ">
<polygon fill="white" stroke="#666666" points="326.38,-30.5 182.12,-30.5 182.12,0 326.38,0 326.38,-30.5"/>
<text text-anchor="start" x="190.12" y="-17" font-family="Helvetica,sans-Serif" font-size="10.00">llzk::boolean::CmpOpGeneric</text>
<text text-anchor="middle" x="254.25" y="-5.75" font-family="Helvetica,sans-Serif" font-size="10.00">Adaptor&lt; RangeT &gt;</text>
</a>
</g>
</g>
<!-- Node0&#45;&gt;Node4 -->
<g id="edge48_Node000000_Node000004" class="edge">
<title>Node0&#45;&gt;Node4</title>
<g id="a_edge48_Node000000_Node000004"><a xlink:title=" ">
<path fill="none" stroke="#63b8ff" d="M142.21,-45.58C159.83,-40.77 178.61,-35.64 195.62,-30.99"/>
<polygon fill="#63b8ff" stroke="#63b8ff" points="141.31,-42.2 132.58,-48.21 143.15,-48.95 141.31,-42.2"/>
</a>
</g>
</g>
<!-- Node3 -->
<g id="Node000003" class="node">
<title>Node3</title>
<g id="a_Node000003"><a xlink:href="classllzk_1_1boolean_1_1_cmp_op_adaptor.html" target="_top" xlink:title=" ">
<polygon fill="white" stroke="#666666" points="507,-73.88 362.75,-73.88 362.75,-54.62 507,-54.62 507,-73.88"/>
<text text-anchor="middle" x="434.88" y="-60.38" font-family="Helvetica,sans-Serif" font-size="10.00">llzk::boolean::CmpOpAdaptor</text>
</a>
</g>
</g>
<!-- Node2&#45;&gt;Node3 -->
<g id="edge47_Node000002_Node000003" class="edge">
<title>Node2&#45;&gt;Node3</title>
<g id="a_edge47_Node000002_Node000003"><a xlink:title=" ">
<path fill="none" stroke="#63b8ff" d="M338.41,-64.25C346.44,-64.25 354.53,-64.25 362.43,-64.25"/>
<polygon fill="#63b8ff" stroke="#63b8ff" points="338.65,-60.75 328.65,-64.25 338.65,-67.75 338.65,-60.75"/>
</a>
</g>
</g>
</g>
</svg>
