<?xml version="1.0" encoding="UTF-8" standalone="no"?>
<!DOCTYPE svg PUBLIC "-//W3C//DTD SVG 1.1//EN"
 "http://www.w3.org/Graphics/SVG/1.1/DTD/svg11.dtd">
<!-- Generated by graphviz version 12.2.1 (0)
 -->
<!-- Title: Graphical Class Hierarchy Pages: 1 -->
<svg width="503pt" height="158pt"
 viewBox="0.00 0.00 503.00 158.12" xmlns="http://www.w3.org/2000/svg" xmlns:xlink="http://www.w3.org/1999/xlink">
<g id="graph0" class="graph" transform="scale(1 1) rotate(0) translate(4 154.12)">
<title>Graphical Class Hierarchy</title>
<!-- Node0 -->
<g id="Node000000" class="node">
<title>Node0</title>
<g id="a_Node000000"><a xlink:href="classllzk_1_1function_1_1detail_1_1_return_op_generic_adaptor_base.html" target="_top" xlink:title=" ">
<polygon fill="white" stroke="#666666" points="154,-84.5 0,-84.5 0,-54 154,-54 154,-84.5"/>
<text text-anchor="start" x="8" y="-71" font-family="Helvetica,sans-Serif" font-size="10.00">llzk::function::detail</text>
<text text-anchor="middle" x="77" y="-59.75" font-family="Helvetica,sans-Serif" font-size="10.00">::ReturnOpGenericAdaptorBase</text>
</a>
</g>
</g>
<!-- Node1 -->
<g id="Node000001" class="node">
<title>Node1</title>
<g id="a_Node000001"><a xlink:href="classllzk_1_1function_1_1_return_op_generic_adaptor.html" target="_top" xlink:title=" ">
<polygon fill="white" stroke="#666666" points="339.5,-150.12 190,-150.12 190,-108.38 339.5,-108.38 339.5,-150.12"/>
<text text-anchor="start" x="198" y="-136.62" font-family="Helvetica,sans-Serif" font-size="10.00">llzk::function::ReturnOp</text>
<text text-anchor="start" x="198" y="-125.38" font-family="Helvetica,sans-Serif" font-size="10.00">GenericAdaptor&lt;::llvm</text>
<text text-anchor="middle" x="264.75" y="-114.12" font-family="Helvetica,sans-Serif" font-size="10.00">::ArrayRef&lt;::mlir::Attribute &gt; &gt;</text>
</a>
</g>
</g>
<!-- Node0&#45;&gt;Node1 -->
<g id="edge175_Node000000_Node000001" class="edge">
<title>Node0&#45;&gt;Node1</title>
<g id="a_edge175_Node000000_Node000001"><a xlink:title=" ">
<path fill="none" stroke="#63b8ff" d="M137.11,-88.34C156.44,-94.59 178.04,-101.56 197.84,-107.96"/>
<polygon fill="#63b8ff" stroke="#63b8ff" points="138.35,-85.07 127.76,-85.32 136.2,-91.73 138.35,-85.07"/>
</a>
</g>
</g>
<!-- Node2 -->
<g id="Node000002" class="node">
<title>Node2</title>
<g id="a_Node000002"><a xlink:href="classllzk_1_1function_1_1_return_op_generic_adaptor.html" target="_top" xlink:title=" ">
<polygon fill="white" stroke="#666666" points="324.5,-90.12 205,-90.12 205,-48.38 324.5,-48.38 324.5,-90.12"/>
<text text-anchor="start" x="213" y="-76.62" font-family="Helvetica,sans-Serif" font-size="10.00">llzk::function::ReturnOp</text>
<text text-anchor="start" x="213" y="-65.38" font-family="Helvetica,sans-Serif" font-size="10.00">GenericAdaptor&lt;::mlir</text>
<text text-anchor="middle" x="264.75" y="-54.12" font-family="Helvetica,sans-Serif" font-size="10.00">::ValueRange &gt;</text>
</a>
</g>
</g>
<!-- Node0&#45;&gt;Node2 -->
<g id="edge176_Node000000_Node000002" class="edge">
<title>Node0&#45;&gt;Node2</title>
<g id="a_edge176_Node000000_Node000002"><a xlink:title=" ">
<path fill="none" stroke="#63b8ff" d="M165.47,-69.25C178.77,-69.25 192.22,-69.25 204.73,-69.25"/>
<polygon fill="#63b8ff" stroke="#63b8ff" points="165.87,-65.75 155.87,-69.25 165.87,-72.75 165.87,-65.75"/>
</a>
</g>
</g>
<!-- Node4 -->
<g id="Node000004" class="node">
<title>Node4</title>
<g id="a_Node000004"><a xlink:href="classllzk_1_1function_1_1_return_op_generic_adaptor.html" target="_top" xlink:title=" ">
<polygon fill="white" stroke="#666666" points="332.75,-30.5 196.75,-30.5 196.75,0 332.75,0 332.75,-30.5"/>
<text text-anchor="start" x="204.75" y="-17" font-family="Helvetica,sans-Serif" font-size="10.00">llzk::function::ReturnOp</text>
<text text-anchor="middle" x="264.75" y="-5.75" font-family="Helvetica,sans-Serif" font-size="10.00">GenericAdaptor&lt; RangeT &gt;</text>
</a>
</g>
</g>
<!-- Node0&#45;&gt;Node4 -->
<g id="edge178_Node000000_Node000004" class="edge">
<title>Node0&#45;&gt;Node4</title>
<g id="a_edge178_Node000000_Node000004"><a xlink:title=" ">
<path fill="none" stroke="#63b8ff" d="M142.62,-50.46C164.55,-44.09 188.81,-37.04 209.82,-30.93"/>
<polygon fill="#63b8ff" stroke="#63b8ff" points="141.81,-47.06 133.18,-53.21 143.76,-53.78 141.81,-47.06"/>
</a>
</g>
</g>
<!-- Node3 -->
<g id="Node000003" class="node">
<title>Node3</title>
<g id="a_Node000003"><a xlink:href="classllzk_1_1function_1_1_return_op_adaptor.html" target="_top" xlink:title=" ">
<polygon fill="white" stroke="#666666" points="495,-84.5 375.5,-84.5 375.5,-54 495,-54 495,-84.5"/>
<text text-anchor="start" x="383.5" y="-71" font-family="Helvetica,sans-Serif" font-size="10.00">llzk::function::ReturnOp</text>
<text text-anchor="middle" x="435.25" y="-59.75" font-family="Helvetica,sans-Serif" font-size="10.00">Adaptor</text>
</a>
</g>
</g>
<!-- Node2&#45;&gt;Node3 -->
<g id="edge177_Node000002_Node000003" class="edge">
<title>Node2&#45;&gt;Node3</title>
<g id="a_edge177_Node000002_Node000003"><a xlink:title=" ">
<path fill="none" stroke="#63b8ff" d="M335.96,-69.25C348.97,-69.25 362.43,-69.25 375.07,-69.25"/>
<polygon fill="#63b8ff" stroke="#63b8ff" points="336.2,-65.75 326.2,-69.25 336.2,-72.75 336.2,-65.75"/>
</a>
</g>
</g>
</g>
</svg>
