<?xml version="1.0" encoding="UTF-8" standalone="no"?>
<!DOCTYPE svg PUBLIC "-//W3C//DTD SVG 1.1//EN"
 "http://www.w3.org/Graphics/SVG/1.1/DTD/svg11.dtd">
<!-- Generated by graphviz version 12.2.1 (0)
 -->
<!-- Title: Graphical Class Hierarchy Pages: 1 -->
<svg width="266pt" height="1802pt"
 viewBox="0.00 0.00 265.75 1802.25" xmlns="http://www.w3.org/2000/svg" xmlns:xlink="http://www.w3.org/1999/xlink">
<g id="graph0" class="graph" transform="scale(1 1) rotate(0) translate(4 1798.25)">
<title>Graphical Class Hierarchy</title>
<!-- Node0 -->
<g id="Node000000" class="node">
<title>Node0</title>
<g id="a_Node000000"><a xlink:title=" ">
<polygon fill="#e0e0e0" stroke="#999999" points="50.5,-924.25 0,-924.25 0,-905 50.5,-905 50.5,-924.25"/>
<text text-anchor="middle" x="25.25" y="-910.75" font-family="Helvetica,sans-Serif" font-size="10.00">mlir::Op</text>
</a>
</g>
</g>
<!-- Node1 -->
<g id="Node000001" class="node">
<title>Node1</title>
<g id="a_Node000001"><a xlink:href="classllzk_1_1array_1_1_array_length_op.html" target="_top" xlink:title=" ">
<polygon fill="white" stroke="#666666" points="237.12,-1794.25 107.12,-1794.25 107.12,-1775 237.12,-1775 237.12,-1794.25"/>
<text text-anchor="middle" x="172.12" y="-1780.75" font-family="Helvetica,sans-Serif" font-size="10.00">llzk::array::ArrayLengthOp</text>
</a>
</g>
</g>
<!-- Node0&#45;&gt;Node1 -->
<g id="edge244_Node000000_Node000001" class="edge">
<title>Node0&#45;&gt;Node1</title>
<g id="a_edge244_Node000000_Node000001"><a xlink:title=" ">
<path fill="none" stroke="#63b8ff" d="M26.25,-935.84C26.47,-1061.22 30.34,-1702.06 86.5,-1766.62 92.02,-1772.97 99.18,-1777.4 106.98,-1780.45"/>
<polygon fill="#63b8ff" stroke="#63b8ff" points="29.75,-936.02 26.24,-926.03 22.75,-936.03 29.75,-936.02"/>
</a>
</g>
</g>
<!-- Node2 -->
<g id="Node000002" class="node">
<title>Node2</title>
<g id="a_Node000002"><a xlink:href="classllzk_1_1array_1_1_create_array_op.html" target="_top" xlink:title=" ">
<polygon fill="white" stroke="#666666" points="237.12,-1757.25 107.12,-1757.25 107.12,-1738 237.12,-1738 237.12,-1757.25"/>
<text text-anchor="middle" x="172.12" y="-1743.75" font-family="Helvetica,sans-Serif" font-size="10.00">llzk::array::CreateArrayOp</text>
</a>
</g>
</g>
<!-- Node0&#45;&gt;Node2 -->
<g id="edge245_Node000000_Node000002" class="edge">
<title>Node0&#45;&gt;Node2</title>
<g id="a_edge245_Node000000_Node000002"><a xlink:title=" ">
<path fill="none" stroke="#63b8ff" d="M26.33,-936.05C26.97,-1058.67 32.83,-1668.13 86.5,-1729.62 92.03,-1735.96 99.19,-1740.39 107,-1743.44"/>
<polygon fill="#63b8ff" stroke="#63b8ff" points="29.83,-936.13 26.28,-926.15 22.83,-936.17 29.83,-936.13"/>
</a>
</g>
</g>
<!-- Node3 -->
<g id="Node000003" class="node">
<title>Node3</title>
<g id="a_Node000003"><a xlink:href="classllzk_1_1array_1_1_extract_array_op.html" target="_top" xlink:title=" ">
<polygon fill="white" stroke="#666666" points="238.25,-1720.25 106,-1720.25 106,-1701 238.25,-1701 238.25,-1720.25"/>
<text text-anchor="middle" x="172.12" y="-1706.75" font-family="Helvetica,sans-Serif" font-size="10.00">llzk::array::ExtractArrayOp</text>
</a>
</g>
</g>
<!-- Node0&#45;&gt;Node3 -->
<g id="edge246_Node000000_Node000003" class="edge">
<title>Node0&#45;&gt;Node3</title>
<g id="a_edge246_Node000000_Node000003"><a xlink:title=" ">
<path fill="none" stroke="#63b8ff" d="M26.41,-936.18C27.48,-1055.75 35.31,-1634.18 86.5,-1692.62 91.74,-1698.61 98.45,-1702.89 105.77,-1705.92"/>
<polygon fill="#63b8ff" stroke="#63b8ff" points="29.91,-936.21 26.33,-926.24 22.91,-936.27 29.91,-936.21"/>
</a>
</g>
</g>
<!-- Node4 -->
<g id="Node000004" class="node">
<title>Node4</title>
<g id="a_Node000004"><a xlink:href="classllzk_1_1array_1_1_insert_array_op.html" target="_top" xlink:title=" ">
<polygon fill="white" stroke="#666666" points="234.88,-1683.25 109.38,-1683.25 109.38,-1664 234.88,-1664 234.88,-1683.25"/>
<text text-anchor="middle" x="172.12" y="-1669.75" font-family="Helvetica,sans-Serif" font-size="10.00">llzk::array::InsertArrayOp</text>
</a>
</g>
</g>
<!-- Node0&#45;&gt;Node4 -->
<g id="edge247_Node000000_Node000004" class="edge">
<title>Node0&#45;&gt;Node4</title>
<g id="a_edge247_Node000000_Node000004"><a xlink:title=" ">
<path fill="none" stroke="#63b8ff" d="M26.49,-935.87C28,-1051.33 37.73,-1600.15 86.5,-1655.62 92.55,-1662.51 100.52,-1667.13 109.16,-1670.18"/>
<polygon fill="#63b8ff" stroke="#63b8ff" points="29.99,-935.98 26.37,-926.02 22.99,-936.06 29.99,-935.98"/>
</a>
</g>
</g>
<!-- Node5 -->
<g id="Node000005" class="node">
<title>Node5</title>
<g id="a_Node000005"><a xlink:href="classllzk_1_1array_1_1_read_array_op.html" target="_top" xlink:title=" ">
<polygon fill="white" stroke="#666666" points="234.12,-1646.25 110.12,-1646.25 110.12,-1627 234.12,-1627 234.12,-1646.25"/>
<text text-anchor="middle" x="172.12" y="-1632.75" font-family="Helvetica,sans-Serif" font-size="10.00">llzk::array::ReadArrayOp</text>
</a>
</g>
</g>
<!-- Node0&#45;&gt;Node5 -->
<g id="edge248_Node000000_Node000005" class="edge">
<title>Node0&#45;&gt;Node5</title>
<g id="a_edge248_Node000000_Node000005"><a xlink:title=" ">
<path fill="none" stroke="#63b8ff" d="M26.59,-935.85C28.56,-1047.77 40.18,-1566.16 86.5,-1618.62 92.76,-1625.72 101.07,-1630.41 110.03,-1633.45"/>
<polygon fill="#63b8ff" stroke="#63b8ff" points="30.09,-935.98 26.42,-926.04 23.09,-936.09 30.09,-935.98"/>
</a>
</g>
</g>
<!-- Node6 -->
<g id="Node000006" class="node">
<title>Node6</title>
<g id="a_Node000006"><a xlink:href="classllzk_1_1array_1_1_write_array_op.html" target="_top" xlink:title=" ">
<polygon fill="white" stroke="#666666" points="233.75,-1609.25 110.5,-1609.25 110.5,-1590 233.75,-1590 233.75,-1609.25"/>
<text text-anchor="middle" x="172.12" y="-1595.75" font-family="Helvetica,sans-Serif" font-size="10.00">llzk::array::WriteArrayOp</text>
</a>
</g>
</g>
<!-- Node0&#45;&gt;Node6 -->
<g id="edge249_Node000000_Node000006" class="edge">
<title>Node0&#45;&gt;Node6</title>
<g id="a_edge249_Node000000_Node000006"><a xlink:title=" ">
<path fill="none" stroke="#63b8ff" d="M26.69,-935.74C29.15,-1043.85 42.62,-1532.16 86.5,-1581.62 92.78,-1588.7 101.09,-1593.39 110.06,-1596.43"/>
<polygon fill="#63b8ff" stroke="#63b8ff" points="30.2,-935.93 26.48,-926.01 23.2,-936.09 30.2,-935.93"/>
</a>
</g>
</g>
<!-- Node7 -->
<g id="Node000007" class="node">
<title>Node7</title>
<g id="a_Node000007"><a xlink:href="classllzk_1_1boolean_1_1_and_bool_op.html" target="_top" xlink:title=" ">
<polygon fill="white" stroke="#666666" points="235.25,-1572.25 109,-1572.25 109,-1553 235.25,-1553 235.25,-1572.25"/>
<text text-anchor="middle" x="172.12" y="-1558.75" font-family="Helvetica,sans-Serif" font-size="10.00">llzk::boolean::AndBoolOp</text>
</a>
</g>
</g>
<!-- Node0&#45;&gt;Node7 -->
<g id="edge250_Node000000_Node000007" class="edge">
<title>Node0&#45;&gt;Node7</title>
<g id="a_edge250_Node000000_Node000007"><a xlink:title=" ">
<path fill="none" stroke="#63b8ff" d="M26.81,-935.87C29.79,-1040.55 45.08,-1498.18 86.5,-1544.62 92.5,-1551.35 100.33,-1555.91 108.82,-1558.96"/>
<polygon fill="#63b8ff" stroke="#63b8ff" points="30.32,-936.09 26.55,-926.19 23.32,-936.28 30.32,-936.09"/>
</a>
</g>
</g>
<!-- Node8 -->
<g id="Node000008" class="node">
<title>Node8</title>
<g id="a_Node000008"><a xlink:href="classllzk_1_1boolean_1_1_assert_op.html" target="_top" xlink:title=" ">
<polygon fill="white" stroke="#666666" points="231.12,-1535.25 113.12,-1535.25 113.12,-1516 231.12,-1516 231.12,-1535.25"/>
<text text-anchor="middle" x="172.12" y="-1521.75" font-family="Helvetica,sans-Serif" font-size="10.00">llzk::boolean::AssertOp</text>
</a>
</g>
</g>
<!-- Node0&#45;&gt;Node8 -->
<g id="edge251_Node000000_Node000008" class="edge">
<title>Node0&#45;&gt;Node8</title>
<g id="a_edge251_Node000000_Node000008"><a xlink:title=" ">
<path fill="none" stroke="#63b8ff" d="M26.95,-935.87C30.45,-1036.74 47.52,-1464.18 86.5,-1507.62 93.42,-1515.34 102.76,-1520.2 112.71,-1523.19"/>
<polygon fill="#63b8ff" stroke="#63b8ff" points="30.45,-935.94 26.62,-926.06 23.46,-936.18 30.45,-935.94"/>
</a>
</g>
</g>
<!-- Node9 -->
<g id="Node000009" class="node">
<title>Node9</title>
<g id="a_Node000009"><a xlink:href="classllzk_1_1boolean_1_1_cmp_op.html" target="_top" xlink:title=" ">
<polygon fill="white" stroke="#666666" points="227.38,-1498.25 116.88,-1498.25 116.88,-1479 227.38,-1479 227.38,-1498.25"/>
<text text-anchor="middle" x="172.12" y="-1484.75" font-family="Helvetica,sans-Serif" font-size="10.00">llzk::boolean::CmpOp</text>
</a>
</g>
</g>
<!-- Node0&#45;&gt;Node9 -->
<g id="edge252_Node000000_Node000009" class="edge">
<title>Node0&#45;&gt;Node9</title>
<g id="a_edge252_Node000000_Node000009"><a xlink:title=" ">
<path fill="none" stroke="#63b8ff" d="M27.09,-935.75C31.15,-1032.47 49.95,-1430.15 86.5,-1470.62 94.35,-1479.32 105.28,-1484.39 116.67,-1487.23"/>
<polygon fill="#63b8ff" stroke="#63b8ff" points="30.6,-935.74 26.69,-925.89 23.6,-936.03 30.6,-935.74"/>
</a>
</g>
</g>
<!-- Node10 -->
<g id="Node000010" class="node">
<title>Node10</title>
<g id="a_Node000010"><a xlink:href="classllzk_1_1boolean_1_1_not_bool_op.html" target="_top" xlink:title=" ">
<polygon fill="white" stroke="#666666" points="234.5,-1461.25 109.75,-1461.25 109.75,-1442 234.5,-1442 234.5,-1461.25"/>
<text text-anchor="middle" x="172.12" y="-1447.75" font-family="Helvetica,sans-Serif" font-size="10.00">llzk::boolean::NotBoolOp</text>
</a>
</g>
</g>
<!-- Node0&#45;&gt;Node10 -->
<g id="edge253_Node000000_Node000010" class="edge">
<title>Node0&#45;&gt;Node10</title>
<g id="a_edge253_Node000000_Node000010"><a xlink:title=" ">
<path fill="none" stroke="#63b8ff" d="M27.28,-936.08C31.96,-1029.31 52.42,-1396.18 86.5,-1433.62 92.67,-1440.4 100.7,-1444.97 109.36,-1448"/>
<polygon fill="#63b8ff" stroke="#63b8ff" points="30.78,-935.92 26.79,-926.11 23.79,-936.27 30.78,-935.92"/>
</a>
</g>
</g>
<!-- Node11 -->
<g id="Node000011" class="node">
<title>Node11</title>
<g id="a_Node000011"><a xlink:href="classllzk_1_1boolean_1_1_or_bool_op.html" target="_top" xlink:title=" ">
<polygon fill="white" stroke="#666666" points="231.88,-1424.25 112.38,-1424.25 112.38,-1405 231.88,-1405 231.88,-1424.25"/>
<text text-anchor="middle" x="172.12" y="-1410.75" font-family="Helvetica,sans-Serif" font-size="10.00">llzk::boolean::OrBoolOp</text>
</a>
</g>
</g>
<!-- Node0&#45;&gt;Node11 -->
<g id="edge254_Node000000_Node000011" class="edge">
<title>Node0&#45;&gt;Node11</title>
<g id="a_edge254_Node000000_Node000011"><a xlink:title=" ">
<path fill="none" stroke="#63b8ff" d="M25.78,-935.97C24.36,-1020.19 23.63,-1328.16 86.5,-1396.62 93.31,-1404.04 102.35,-1408.8 111.99,-1411.8"/>
<polygon fill="#63b8ff" stroke="#63b8ff" points="29.27,-936.22 25.97,-926.15 22.27,-936.08 29.27,-936.22"/>
</a>
</g>
</g>
<!-- Node12 -->
<g id="Node000012" class="node">
<title>Node12</title>
<g id="a_Node000012"><a xlink:href="classllzk_1_1boolean_1_1_xor_bool_op.html" target="_top" xlink:title=" ">
<polygon fill="white" stroke="#666666" points="234.12,-1387.25 110.12,-1387.25 110.12,-1368 234.12,-1368 234.12,-1387.25"/>
<text text-anchor="middle" x="172.12" y="-1373.75" font-family="Helvetica,sans-Serif" font-size="10.00">llzk::boolean::XorBoolOp</text>
</a>
</g>
</g>
<!-- Node0&#45;&gt;Node12 -->
<g id="edge255_Node000000_Node000012" class="edge">
<title>Node0&#45;&gt;Node12</title>
<g id="a_edge255_Node000000_Node000012"><a xlink:title=" ">
<path fill="none" stroke="#63b8ff" d="M26.02,-936.1C25.63,-1016.34 28.49,-1297.09 86.5,-1359.62 92.83,-1366.45 101.06,-1371.03 109.9,-1374.04"/>
<polygon fill="#63b8ff" stroke="#63b8ff" points="29.52,-936.18 26.1,-926.15 22.52,-936.13 29.52,-936.18"/>
</a>
</g>
</g>
<!-- Node13 -->
<g id="Node000013" class="node">
<title>Node13</title>
<g id="a_Node000013"><a xlink:href="classllzk_1_1cast_1_1_felt_to_index_op.html" target="_top" xlink:title=" ">
<polygon fill="white" stroke="#666666" points="234.88,-1350.25 109.38,-1350.25 109.38,-1331 234.88,-1331 234.88,-1350.25"/>
<text text-anchor="middle" x="172.12" y="-1336.75" font-family="Helvetica,sans-Serif" font-size="10.00">llzk::cast::FeltToIndexOp</text>
</a>
</g>
</g>
<!-- Node0&#45;&gt;Node13 -->
<g id="edge256_Node000000_Node000013" class="edge">
<title>Node0&#45;&gt;Node13</title>
<g id="a_edge256_Node000000_Node000013"><a xlink:title=" ">
<path fill="none" stroke="#63b8ff" d="M26.31,-935.76C26.98,-1011.22 33.22,-1265.88 86.5,-1322.62 92.67,-1329.2 100.59,-1333.67 109.12,-1336.68"/>
<polygon fill="#63b8ff" stroke="#63b8ff" points="29.81,-936.03 26.25,-926.05 22.81,-936.07 29.81,-936.03"/>
</a>
</g>
</g>
<!-- Node14 -->
<g id="Node000014" class="node">
<title>Node14</title>
<g id="a_Node000014"><a xlink:href="classllzk_1_1cast_1_1_int_to_felt_op.html" target="_top" xlink:title=" ">
<polygon fill="white" stroke="#666666" points="228.5,-1313.25 115.75,-1313.25 115.75,-1294 228.5,-1294 228.5,-1313.25"/>
<text text-anchor="middle" x="172.12" y="-1299.75" font-family="Helvetica,sans-Serif" font-size="10.00">llzk::cast::IntToFeltOp</text>
</a>
</g>
</g>
<!-- Node0&#45;&gt;Node14 -->
<g id="edge257_Node000000_Node000014" class="edge">
<title>Node0&#45;&gt;Node14</title>
<g id="a_edge257_Node000000_Node000014"><a xlink:title=" ">
<path fill="none" stroke="#63b8ff" d="M26.67,-936.11C28.5,-1007.44 38.09,-1234.81 86.5,-1285.62 94.27,-1293.78 104.75,-1298.7 115.69,-1301.59"/>
<polygon fill="#63b8ff" stroke="#63b8ff" points="30.17,-936.11 26.44,-926.19 23.17,-936.27 30.17,-936.11"/>
</a>
</g>
</g>
<!-- Node15 -->
<g id="Node000015" class="node">
<title>Node15</title>
<g id="a_Node000015"><a xlink:href="classllzk_1_1component_1_1_create_struct_op.html" target="_top" xlink:title=" ">
<polygon fill="white" stroke="#666666" points="251.75,-1276.25 92.5,-1276.25 92.5,-1257 251.75,-1257 251.75,-1276.25"/>
<text text-anchor="middle" x="172.12" y="-1262.75" font-family="Helvetica,sans-Serif" font-size="10.00">llzk::component::CreateStructOp</text>
</a>
</g>
</g>
<!-- Node0&#45;&gt;Node15 -->
<g id="edge258_Node000000_Node000015" class="edge">
<title>Node0&#45;&gt;Node15</title>
<g id="a_edge258_Node000000_Node000015"><a xlink:title=" ">
<path fill="none" stroke="#63b8ff" d="M27.09,-936.09C30.14,-1002.62 42.86,-1203.61 86.5,-1248.62 89.53,-1251.75 92.96,-1254.4 96.66,-1256.64"/>
<polygon fill="#63b8ff" stroke="#63b8ff" points="30.59,-936.02 26.67,-926.18 23.6,-936.32 30.59,-936.02"/>
</a>
</g>
</g>
<!-- Node16 -->
<g id="Node000016" class="node">
<title>Node16</title>
<g id="a_Node000016"><a xlink:href="classllzk_1_1component_1_1_field_def_op.html" target="_top" xlink:title=" ">
<polygon fill="white" stroke="#666666" points="242.38,-1239.25 101.88,-1239.25 101.88,-1220 242.38,-1220 242.38,-1239.25"/>
<text text-anchor="middle" x="172.12" y="-1225.75" font-family="Helvetica,sans-Serif" font-size="10.00">llzk::component::FieldDefOp</text>
</a>
</g>
</g>
<!-- Node0&#45;&gt;Node16 -->
<g id="edge259_Node000000_Node000016" class="edge">
<title>Node0&#45;&gt;Node16</title>
<g id="a_edge259_Node000000_Node000016"><a xlink:title=" ">
<path fill="none" stroke="#63b8ff" d="M27.59,-935.69C31.91,-996.79 47.52,-1172.28 86.5,-1211.62 90.83,-1216 95.95,-1219.44 101.49,-1222.12"/>
<polygon fill="#63b8ff" stroke="#63b8ff" points="31.1,-935.73 26.94,-925.98 24.11,-936.2 31.1,-935.73"/>
</a>
</g>
</g>
<!-- Node17 -->
<g id="Node000017" class="node">
<title>Node17</title>
<g id="a_Node000017"><a xlink:href="classllzk_1_1component_1_1_field_read_op.html" target="_top" xlink:title=" ">
<polygon fill="white" stroke="#666666" points="246.12,-1202.25 98.12,-1202.25 98.12,-1183 246.12,-1183 246.12,-1202.25"/>
<text text-anchor="middle" x="172.12" y="-1188.75" font-family="Helvetica,sans-Serif" font-size="10.00">llzk::component::FieldReadOp</text>
</a>
</g>
</g>
<!-- Node0&#45;&gt;Node17 -->
<g id="edge260_Node000000_Node000017" class="edge">
<title>Node0&#45;&gt;Node17</title>
<g id="a_edge260_Node000000_Node000017"><a xlink:title=" ">
<path fill="none" stroke="#63b8ff" d="M28.28,-935.96C34.03,-991.93 52.3,-1141.04 86.5,-1174.62 89.93,-1177.99 93.82,-1180.8 98.01,-1183.13"/>
<polygon fill="#63b8ff" stroke="#63b8ff" points="31.78,-935.78 27.31,-926.17 24.81,-936.47 31.78,-935.78"/>
</a>
</g>
</g>
<!-- Node18 -->
<g id="Node000018" class="node">
<title>Node18</title>
<g id="a_Node000018"><a xlink:href="classllzk_1_1component_1_1_field_write_op.html" target="_top" xlink:title=" ">
<polygon fill="white" stroke="#666666" points="245.75,-1165.25 98.5,-1165.25 98.5,-1146 245.75,-1146 245.75,-1165.25"/>
<text text-anchor="middle" x="172.12" y="-1151.75" font-family="Helvetica,sans-Serif" font-size="10.00">llzk::component::FieldWriteOp</text>
</a>
</g>
</g>
<!-- Node0&#45;&gt;Node18 -->
<g id="edge261_Node000000_Node000018" class="edge">
<title>Node0&#45;&gt;Node18</title>
<g id="a_edge261_Node000000_Node000018"><a xlink:title=" ">
<path fill="none" stroke="#63b8ff" d="M29.14,-935.86C36.41,-986 56.97,-1109.66 86.5,-1137.62 89.99,-1140.93 93.93,-1143.69 98.15,-1145.99"/>
<polygon fill="#63b8ff" stroke="#63b8ff" points="32.62,-935.46 27.76,-926.05 25.69,-936.44 32.62,-935.46"/>
</a>
</g>
</g>
<!-- Node19 -->
<g id="Node000019" class="node">
<title>Node19</title>
<g id="a_Node000019"><a xlink:href="classllzk_1_1component_1_1_struct_def_op.html" target="_top" xlink:title=" ">
<polygon fill="white" stroke="#666666" points="245,-1128.25 99.25,-1128.25 99.25,-1109 245,-1109 245,-1128.25"/>
<text text-anchor="middle" x="172.12" y="-1114.75" font-family="Helvetica,sans-Serif" font-size="10.00">llzk::component::StructDefOp</text>
</a>
</g>
</g>
<!-- Node0&#45;&gt;Node19 -->
<g id="edge262_Node000000_Node000019" class="edge">
<title>Node0&#45;&gt;Node19</title>
<g id="a_edge262_Node000000_Node000019"><a xlink:title=" ">
<path fill="none" stroke="#63b8ff" d="M26.61,-935.89C28.47,-974.73 38.25,-1057.14 86.5,-1100.62 90.29,-1104.04 94.57,-1106.87 99.14,-1109.21"/>
<polygon fill="#63b8ff" stroke="#63b8ff" points="30.11,-935.9 26.28,-926.02 23.11,-936.13 30.11,-935.9"/>
</a>
</g>
</g>
<!-- Node20 -->
<g id="Node000020" class="node">
<title>Node20</title>
<g id="a_Node000020"><a xlink:href="classllzk_1_1constrain_1_1_emit_containment_op.html" target="_top" xlink:title=" ">
<polygon fill="white" stroke="#666666" points="257.75,-1091.25 86.5,-1091.25 86.5,-1072 257.75,-1072 257.75,-1091.25"/>
<text text-anchor="middle" x="172.12" y="-1077.75" font-family="Helvetica,sans-Serif" font-size="10.00">llzk::constrain::EmitContainmentOp</text>
</a>
</g>
</g>
<!-- Node0&#45;&gt;Node20 -->
<g id="edge263_Node000000_Node000020" class="edge">
<title>Node0&#45;&gt;Node20</title>
<g id="a_edge263_Node000000_Node000020"><a xlink:title=" ">
<path fill="none" stroke="#63b8ff" d="M28.56,-935.72C33.31,-968.34 47.25,-1030.69 86.5,-1063.62 90.3,-1066.81 94.52,-1069.47 99,-1071.7"/>
<polygon fill="#63b8ff" stroke="#63b8ff" points="32.05,-935.42 27.31,-925.94 25.11,-936.31 32.05,-935.42"/>
</a>
</g>
</g>
<!-- Node21 -->
<g id="Node000021" class="node">
<title>Node21</title>
<g id="a_Node000021"><a xlink:href="classllzk_1_1constrain_1_1_emit_equality_op.html" target="_top" xlink:title=" ">
<polygon fill="white" stroke="#666666" points="247.62,-1054.25 96.62,-1054.25 96.62,-1035 247.62,-1035 247.62,-1054.25"/>
<text text-anchor="middle" x="172.12" y="-1040.75" font-family="Helvetica,sans-Serif" font-size="10.00">llzk::constrain::EmitEqualityOp</text>
</a>
</g>
</g>
<!-- Node0&#45;&gt;Node21 -->
<g id="edge264_Node000000_Node000021" class="edge">
<title>Node0&#45;&gt;Node21</title>
<g id="a_edge264_Node000000_Node000021"><a xlink:title=" ">
<path fill="none" stroke="#63b8ff" d="M31.66,-935.58C39.39,-961.18 56.14,-1003.86 86.5,-1026.62 90.71,-1029.78 95.34,-1032.41 100.22,-1034.59"/>
<polygon fill="#63b8ff" stroke="#63b8ff" points="35.04,-934.7 28.97,-926.01 28.3,-936.59 35.04,-934.7"/>
</a>
</g>
</g>
<!-- Node22 -->
<g id="Node000022" class="node">
<title>Node22</title>
<g id="a_Node000022"><a xlink:href="classllzk_1_1felt_1_1_add_felt_op.html" target="_top" xlink:title=" ">
<polygon fill="white" stroke="#666666" points="223.62,-1017.25 120.62,-1017.25 120.62,-998 223.62,-998 223.62,-1017.25"/>
<text text-anchor="middle" x="172.12" y="-1003.75" font-family="Helvetica,sans-Serif" font-size="10.00">llzk::felt::AddFeltOp</text>
</a>
</g>
</g>
<!-- Node0&#45;&gt;Node22 -->
<g id="edge265_Node000000_Node000022" class="edge">
<title>Node0&#45;&gt;Node22</title>
<g id="a_edge265_Node000000_Node000022"><a xlink:title=" ">
<path fill="none" stroke="#63b8ff" d="M36.88,-934.42C47.24,-951.73 64.59,-976.14 86.5,-989.62 96.61,-995.85 108.53,-999.94 120.19,-1002.63"/>
<polygon fill="#63b8ff" stroke="#63b8ff" points="40.1,-933 32.12,-926.04 34.02,-936.47 40.1,-933"/>
</a>
</g>
</g>
<!-- Node23 -->
<g id="Node000023" class="node">
<title>Node23</title>
<g id="a_Node000023"><a xlink:href="classllzk_1_1felt_1_1_and_felt_op.html" target="_top" xlink:title=" ">
<polygon fill="white" stroke="#666666" points="223.62,-980.25 120.62,-980.25 120.62,-961 223.62,-961 223.62,-980.25"/>
<text text-anchor="middle" x="172.12" y="-966.75" font-family="Helvetica,sans-Serif" font-size="10.00">llzk::felt::AndFeltOp</text>
</a>
</g>
</g>
<!-- Node0&#45;&gt;Node23 -->
<g id="edge266_Node000000_Node000023" class="edge">
<title>Node0&#45;&gt;Node23</title>
<g id="a_edge266_Node000000_Node000023"><a xlink:title=" ">
<path fill="none" stroke="#63b8ff" d="M48.14,-931.07C59.15,-938.64 72.99,-947.13 86.5,-952.62 97.08,-956.92 108.83,-960.26 120.13,-962.82"/>
<polygon fill="#63b8ff" stroke="#63b8ff" points="50.33,-928.33 40.15,-925.38 46.26,-934.03 50.33,-928.33"/>
</a>
</g>
</g>
<!-- Node24 -->
<g id="Node000024" class="node">
<title>Node24</title>
<g id="a_Node000024"><a xlink:href="classllzk_1_1felt_1_1_div_felt_op.html" target="_top" xlink:title=" ">
<polygon fill="white" stroke="#666666" points="222.5,-943.25 121.75,-943.25 121.75,-924 222.5,-924 222.5,-943.25"/>
<text text-anchor="middle" x="172.12" y="-929.75" font-family="Helvetica,sans-Serif" font-size="10.00">llzk::felt::DivFeltOp</text>
</a>
</g>
</g>
<!-- Node0&#45;&gt;Node24 -->
<g id="edge267_Node000000_Node000024" class="edge">
<title>Node0&#45;&gt;Node24</title>
<g id="a_edge267_Node000000_Node000024"><a xlink:title=" ">
<path fill="none" stroke="#63b8ff" d="M62.21,-919.34C80.09,-921.69 101.99,-924.56 121.45,-927.11"/>
<polygon fill="#63b8ff" stroke="#63b8ff" points="62.7,-915.88 52.33,-918.04 61.79,-922.82 62.7,-915.88"/>
</a>
</g>
</g>
<!-- Node25 -->
<g id="Node000025" class="node">
<title>Node25</title>
<g id="a_Node000025"><a xlink:href="classllzk_1_1felt_1_1_felt_constant_op.html" target="_top" xlink:title=" ">
<polygon fill="white" stroke="#666666" points="234.88,-906.25 109.38,-906.25 109.38,-887 234.88,-887 234.88,-906.25"/>
<text text-anchor="middle" x="172.12" y="-892.75" font-family="Helvetica,sans-Serif" font-size="10.00">llzk::felt::FeltConstantOp</text>
</a>
</g>
</g>
<!-- Node0&#45;&gt;Node25 -->
<g id="edge268_Node000000_Node000025" class="edge">
<title>Node0&#45;&gt;Node25</title>
<g id="a_edge268_Node000000_Node000025"><a xlink:title=" ">
<path fill="none" stroke="#63b8ff" d="M62.05,-910.18C76.21,-908.42 92.91,-906.34 108.92,-904.35"/>
<polygon fill="#63b8ff" stroke="#63b8ff" points="61.82,-906.68 52.33,-911.38 62.68,-913.63 61.82,-906.68"/>
</a>
</g>
</g>
<!-- Node26 -->
<g id="Node000026" class="node">
<title>Node26</title>
<g id="a_Node000026"><a xlink:href="classllzk_1_1felt_1_1_felt_non_det_op.html" target="_top" xlink:title=" ">
<polygon fill="white" stroke="#666666" points="231.88,-869.25 112.38,-869.25 112.38,-850 231.88,-850 231.88,-869.25"/>
<text text-anchor="middle" x="172.12" y="-855.75" font-family="Helvetica,sans-Serif" font-size="10.00">llzk::felt::FeltNonDetOp</text>
</a>
</g>
</g>
<!-- Node0&#45;&gt;Node26 -->
<g id="edge269_Node000000_Node000026" class="edge">
<title>Node0&#45;&gt;Node26</title>
<g id="a_edge269_Node000000_Node000026"><a xlink:title=" ">
<path fill="none" stroke="#63b8ff" d="M48.63,-898.34C59.58,-891.05 73.23,-882.93 86.5,-877.62 94.59,-874.39 103.36,-871.7 112.08,-869.47"/>
<polygon fill="#63b8ff" stroke="#63b8ff" points="46.91,-895.28 40.67,-903.84 50.89,-901.04 46.91,-895.28"/>
</a>
</g>
</g>
<!-- Node27 -->
<g id="Node000027" class="node">
<title>Node27</title>
<g id="a_Node000027"><a xlink:href="classllzk_1_1felt_1_1_inv_felt_op.html" target="_top" xlink:title=" ">
<polygon fill="white" stroke="#666666" points="221.75,-832.25 122.5,-832.25 122.5,-813 221.75,-813 221.75,-832.25"/>
<text text-anchor="middle" x="172.12" y="-818.75" font-family="Helvetica,sans-Serif" font-size="10.00">llzk::felt::InvFeltOp</text>
</a>
</g>
</g>
<!-- Node0&#45;&gt;Node27 -->
<g id="edge270_Node000000_Node000027" class="edge">
<title>Node0&#45;&gt;Node27</title>
<g id="a_edge270_Node000000_Node000027"><a xlink:title=" ">
<path fill="none" stroke="#63b8ff" d="M36.95,-895.09C47.34,-878.01 64.73,-853.93 86.5,-840.62 97.27,-834.05 110.08,-829.85 122.43,-827.17"/>
<polygon fill="#63b8ff" stroke="#63b8ff" points="34.15,-892.94 32.16,-903.35 40.2,-896.45 34.15,-892.94"/>
</a>
</g>
</g>
<!-- Node28 -->
<g id="Node000028" class="node">
<title>Node28</title>
<g id="a_Node000028"><a xlink:href="classllzk_1_1felt_1_1_mod_felt_op.html" target="_top" xlink:title=" ">
<polygon fill="white" stroke="#666666" points="224.38,-795.25 119.88,-795.25 119.88,-776 224.38,-776 224.38,-795.25"/>
<text text-anchor="middle" x="172.12" y="-781.75" font-family="Helvetica,sans-Serif" font-size="10.00">llzk::felt::ModFeltOp</text>
</a>
</g>
</g>
<!-- Node0&#45;&gt;Node28 -->
<g id="edge271_Node000000_Node000028" class="edge">
<title>Node0&#45;&gt;Node28</title>
<g id="a_edge271_Node000000_Node000028"><a xlink:title=" ">
<path fill="none" stroke="#63b8ff" d="M31.71,-893.85C39.5,-868.48 56.31,-826.18 86.5,-803.62 96.13,-796.43 108,-791.98 119.78,-789.25"/>
<polygon fill="#63b8ff" stroke="#63b8ff" points="28.39,-892.75 29.01,-903.33 35.12,-894.67 28.39,-892.75"/>
</a>
</g>
</g>
<!-- Node29 -->
<g id="Node000029" class="node">
<title>Node29</title>
<g id="a_Node000029"><a xlink:href="classllzk_1_1felt_1_1_mul_felt_op.html" target="_top" xlink:title=" ">
<polygon fill="white" stroke="#666666" points="222.88,-758.25 121.38,-758.25 121.38,-739 222.88,-739 222.88,-758.25"/>
<text text-anchor="middle" x="172.12" y="-744.75" font-family="Helvetica,sans-Serif" font-size="10.00">llzk::felt::MulFeltOp</text>
</a>
</g>
</g>
<!-- Node0&#45;&gt;Node29 -->
<g id="edge272_Node000000_Node000029" class="edge">
<title>Node0&#45;&gt;Node29</title>
<g id="a_edge272_Node000000_Node000029"><a xlink:title=" ">
<path fill="none" stroke="#63b8ff" d="M28.61,-893.67C33.41,-861.26 47.44,-799.32 86.5,-766.62 96.18,-758.53 108.61,-753.81 120.96,-751.12"/>
<polygon fill="#63b8ff" stroke="#63b8ff" points="25.16,-893 27.34,-903.37 32.11,-893.91 25.16,-893"/>
</a>
</g>
</g>
<!-- Node30 -->
<g id="Node000030" class="node">
<title>Node30</title>
<g id="a_Node000030"><a xlink:href="classllzk_1_1felt_1_1_neg_felt_op.html" target="_top" xlink:title=" ">
<polygon fill="white" stroke="#666666" points="224,-721.25 120.25,-721.25 120.25,-702 224,-702 224,-721.25"/>
<text text-anchor="middle" x="172.12" y="-707.75" font-family="Helvetica,sans-Serif" font-size="10.00">llzk::felt::NegFeltOp</text>
</a>
</g>
</g>
<!-- Node0&#45;&gt;Node30 -->
<g id="edge273_Node000000_Node000030" class="edge">
<title>Node0&#45;&gt;Node30</title>
<g id="a_edge273_Node000000_Node000030"><a xlink:title=" ">
<path fill="none" stroke="#63b8ff" d="M26.64,-893.47C28.57,-854.84 38.45,-772.87 86.5,-729.62 95.77,-721.29 107.92,-716.46 120.11,-713.75"/>
<polygon fill="#63b8ff" stroke="#63b8ff" points="23.15,-893.17 26.3,-903.28 30.15,-893.41 23.15,-893.17"/>
</a>
</g>
</g>
<!-- Node31 -->
<g id="Node000031" class="node">
<title>Node31</title>
<g id="a_Node000031"><a xlink:href="classllzk_1_1felt_1_1_not_felt_op.html" target="_top" xlink:title=" ">
<polygon fill="white" stroke="#666666" points="222.88,-684.25 121.38,-684.25 121.38,-665 222.88,-665 222.88,-684.25"/>
<text text-anchor="middle" x="172.12" y="-670.75" font-family="Helvetica,sans-Serif" font-size="10.00">llzk::felt::NotFeltOp</text>
</a>
</g>
</g>
<!-- Node0&#45;&gt;Node31 -->
<g id="edge274_Node000000_Node000031" class="edge">
<title>Node0&#45;&gt;Node31</title>
<g id="a_edge274_Node000000_Node000031"><a xlink:title=" ">
<path fill="none" stroke="#63b8ff" d="M29.16,-893.48C36.45,-843.56 57.08,-720.46 86.5,-692.62 95.88,-683.75 108.51,-678.8 121.15,-676.15"/>
<polygon fill="#63b8ff" stroke="#63b8ff" points="25.71,-892.86 27.77,-903.25 32.64,-893.84 25.71,-892.86"/>
</a>
</g>
</g>
<!-- Node32 -->
<g id="Node000032" class="node">
<title>Node32</title>
<g id="a_Node000032"><a xlink:href="classllzk_1_1felt_1_1_or_felt_op.html" target="_top" xlink:title=" ">
<polygon fill="white" stroke="#666666" points="220.25,-647.25 124,-647.25 124,-628 220.25,-628 220.25,-647.25"/>
<text text-anchor="middle" x="172.12" y="-633.75" font-family="Helvetica,sans-Serif" font-size="10.00">llzk::felt::OrFeltOp</text>
</a>
</g>
</g>
<!-- Node0&#45;&gt;Node32 -->
<g id="edge275_Node000000_Node000032" class="edge">
<title>Node0&#45;&gt;Node32</title>
<g id="a_edge275_Node000000_Node000032"><a xlink:title=" ">
<path fill="none" stroke="#63b8ff" d="M28.29,-893.38C34.07,-837.61 52.41,-689.07 86.5,-655.62 96.36,-645.95 110.07,-640.9 123.58,-638.41"/>
<polygon fill="#63b8ff" stroke="#63b8ff" points="24.83,-892.82 27.31,-903.11 31.79,-893.51 24.83,-892.82"/>
</a>
</g>
</g>
<!-- Node33 -->
<g id="Node000033" class="node">
<title>Node33</title>
<g id="a_Node000033"><a xlink:href="classllzk_1_1felt_1_1_shl_felt_op.html" target="_top" xlink:title=" ">
<polygon fill="white" stroke="#666666" points="222.12,-610.25 122.12,-610.25 122.12,-591 222.12,-591 222.12,-610.25"/>
<text text-anchor="middle" x="172.12" y="-596.75" font-family="Helvetica,sans-Serif" font-size="10.00">llzk::felt::ShlFeltOp</text>
</a>
</g>
</g>
<!-- Node0&#45;&gt;Node33 -->
<g id="edge276_Node000000_Node000033" class="edge">
<title>Node0&#45;&gt;Node33</title>
<g id="a_edge276_Node000000_Node000033"><a xlink:title=" ">
<path fill="none" stroke="#63b8ff" d="M27.6,-893.63C31.95,-832.73 47.64,-657.83 86.5,-618.62 95.81,-609.24 108.71,-604.18 121.65,-601.58"/>
<polygon fill="#63b8ff" stroke="#63b8ff" points="24.13,-893.09 26.94,-903.3 31.11,-893.56 24.13,-893.09"/>
</a>
</g>
</g>
<!-- Node34 -->
<g id="Node000034" class="node">
<title>Node34</title>
<g id="a_Node000034"><a xlink:href="classllzk_1_1felt_1_1_shr_felt_op.html" target="_top" xlink:title=" ">
<polygon fill="white" stroke="#666666" points="222.5,-573.25 121.75,-573.25 121.75,-554 222.5,-554 222.5,-573.25"/>
<text text-anchor="middle" x="172.12" y="-559.75" font-family="Helvetica,sans-Serif" font-size="10.00">llzk::felt::ShrFeltOp</text>
</a>
</g>
</g>
<!-- Node0&#45;&gt;Node34 -->
<g id="edge277_Node000000_Node000034" class="edge">
<title>Node0&#45;&gt;Node34</title>
<g id="a_edge277_Node000000_Node000034"><a xlink:title=" ">
<path fill="none" stroke="#63b8ff" d="M27.1,-893.22C30.18,-826.89 42.98,-626.5 86.5,-581.62 95.7,-572.14 108.58,-567.04 121.51,-564.45"/>
<polygon fill="#63b8ff" stroke="#63b8ff" points="23.61,-892.96 26.67,-903.1 30.6,-893.26 23.61,-892.96"/>
</a>
</g>
</g>
<!-- Node35 -->
<g id="Node000035" class="node">
<title>Node35</title>
<g id="a_Node000035"><a xlink:href="classllzk_1_1felt_1_1_sub_felt_op.html" target="_top" xlink:title=" ">
<polygon fill="white" stroke="#666666" points="223.62,-536.25 120.62,-536.25 120.62,-517 223.62,-517 223.62,-536.25"/>
<text text-anchor="middle" x="172.12" y="-522.75" font-family="Helvetica,sans-Serif" font-size="10.00">llzk::felt::SubFeltOp</text>
</a>
</g>
</g>
<!-- Node0&#45;&gt;Node35 -->
<g id="edge278_Node000000_Node000035" class="edge">
<title>Node0&#45;&gt;Node35</title>
<g id="a_edge278_Node000000_Node000035"><a xlink:title=" ">
<path fill="none" stroke="#63b8ff" d="M26.67,-893.2C28.53,-822.06 38.21,-595.3 86.5,-544.62 95.41,-535.27 107.89,-530.17 120.52,-527.52"/>
<polygon fill="#63b8ff" stroke="#63b8ff" points="23.18,-893.01 26.45,-903.08 30.18,-893.17 23.18,-893.01"/>
</a>
</g>
</g>
<!-- Node36 -->
<g id="Node000036" class="node">
<title>Node36</title>
<g id="a_Node000036"><a xlink:href="classllzk_1_1felt_1_1_xor_felt_op.html" target="_top" xlink:title=" ">
<polygon fill="white" stroke="#666666" points="222.5,-499.25 121.75,-499.25 121.75,-480 222.5,-480 222.5,-499.25"/>
<text text-anchor="middle" x="172.12" y="-485.75" font-family="Helvetica,sans-Serif" font-size="10.00">llzk::felt::XorFeltOp</text>
</a>
</g>
</g>
<!-- Node0&#45;&gt;Node36 -->
<g id="edge279_Node000000_Node000036" class="edge">
<title>Node0&#45;&gt;Node36</title>
<g id="a_edge279_Node000000_Node000036"><a xlink:title=" ">
<path fill="none" stroke="#63b8ff" d="M26.32,-893.54C27.02,-818.26 33.34,-564.23 86.5,-507.62 95.55,-497.99 108.38,-492.85 121.32,-490.26"/>
<polygon fill="#63b8ff" stroke="#63b8ff" points="22.82,-893.2 26.26,-903.22 29.82,-893.25 22.82,-893.2"/>
</a>
</g>
</g>
<!-- Node37 -->
<g id="Node000037" class="node">
<title>Node37</title>
<g id="a_Node000037"><a xlink:href="classllzk_1_1function_1_1_call_op.html" target="_top" xlink:title=" ">
<polygon fill="white" stroke="#666666" points="225.88,-462.25 118.38,-462.25 118.38,-443 225.88,-443 225.88,-462.25"/>
<text text-anchor="middle" x="172.12" y="-448.75" font-family="Helvetica,sans-Serif" font-size="10.00">llzk::function::CallOp</text>
</a>
</g>
</g>
<!-- Node0&#45;&gt;Node37 -->
<g id="edge280_Node000000_Node000037" class="edge">
<title>Node0&#45;&gt;Node37</title>
<g id="a_edge280_Node000000_Node000037"><a xlink:title=" ">
<path fill="none" stroke="#63b8ff" d="M26.03,-893.2C25.66,-813.14 28.61,-533.01 86.5,-470.62 94.78,-461.71 106.29,-456.63 118.16,-453.86"/>
<polygon fill="#63b8ff" stroke="#63b8ff" points="22.53,-893.15 26.1,-903.12 29.53,-893.09 22.53,-893.15"/>
</a>
</g>
</g>
<!-- Node38 -->
<g id="Node000038" class="node">
<title>Node38</title>
<g id="a_Node000038"><a xlink:href="classllzk_1_1function_1_1_func_def_op.html" target="_top" xlink:title=" ">
<polygon fill="white" stroke="#666666" points="236,-425.25 108.25,-425.25 108.25,-406 236,-406 236,-425.25"/>
<text text-anchor="middle" x="172.12" y="-411.75" font-family="Helvetica,sans-Serif" font-size="10.00">llzk::function::FuncDefOp</text>
</a>
</g>
</g>
<!-- Node0&#45;&gt;Node38 -->
<g id="edge281_Node000000_Node000038" class="edge">
<title>Node0&#45;&gt;Node38</title>
<g id="a_edge281_Node000000_Node000038"><a xlink:title=" ">
<path fill="none" stroke="#63b8ff" d="M25.78,-893.32C24.39,-809.27 23.75,-501.94 86.5,-433.62 92.39,-427.21 99.96,-422.78 108.14,-419.76"/>
<polygon fill="#63b8ff" stroke="#63b8ff" points="22.28,-893.19 25.97,-903.12 29.28,-893.05 22.28,-893.19"/>
</a>
</g>
</g>
<!-- Node39 -->
<g id="Node000039" class="node">
<title>Node39</title>
<g id="a_Node000039"><a xlink:href="classllzk_1_1function_1_1_return_op.html" target="_top" xlink:title=" ">
<polygon fill="white" stroke="#666666" points="231.88,-388.25 112.38,-388.25 112.38,-369 231.88,-369 231.88,-388.25"/>
<text text-anchor="middle" x="172.12" y="-374.75" font-family="Helvetica,sans-Serif" font-size="10.00">llzk::function::ReturnOp</text>
</a>
</g>
</g>
<!-- Node0&#45;&gt;Node39 -->
<g id="edge282_Node000000_Node000039" class="edge">
<title>Node0&#45;&gt;Node39</title>
<g id="a_edge282_Node000000_Node000039"><a xlink:title=" ">
<path fill="none" stroke="#63b8ff" d="M27.29,-893.21C31.97,-800.16 52.48,-433.99 86.5,-396.62 93.27,-389.18 102.3,-384.4 111.93,-381.4"/>
<polygon fill="#63b8ff" stroke="#63b8ff" points="23.79,-893 26.79,-903.16 30.78,-893.35 23.79,-893"/>
</a>
</g>
</g>
<!-- Node40 -->
<g id="Node000040" class="node">
<title>Node40</title>
<g id="a_Node000040"><a xlink:href="classllzk_1_1global_1_1_global_def_op.html" target="_top" xlink:title=" ">
<polygon fill="white" stroke="#666666" points="234.5,-351.25 109.75,-351.25 109.75,-332 234.5,-332 234.5,-351.25"/>
<text text-anchor="middle" x="172.12" y="-337.75" font-family="Helvetica,sans-Serif" font-size="10.00">llzk::global::GlobalDefOp</text>
</a>
</g>
</g>
<!-- Node0&#45;&gt;Node40 -->
<g id="edge283_Node000000_Node000040" class="edge">
<title>Node0&#45;&gt;Node40</title>
<g id="a_edge283_Node000000_Node000040"><a xlink:title=" ">
<path fill="none" stroke="#63b8ff" d="M27.1,-893.54C31.16,-796.99 50.01,-400.02 86.5,-359.62 92.64,-352.83 100.66,-348.25 109.32,-345.21"/>
<polygon fill="#63b8ff" stroke="#63b8ff" points="23.61,-893.24 26.69,-903.37 30.6,-893.53 23.61,-893.24"/>
</a>
</g>
</g>
<!-- Node41 -->
<g id="Node000041" class="node">
<title>Node41</title>
<g id="a_Node000041"><a xlink:href="classllzk_1_1global_1_1_global_read_op.html" target="_top" xlink:title=" ">
<polygon fill="white" stroke="#666666" points="238.25,-314.25 106,-314.25 106,-295 238.25,-295 238.25,-314.25"/>
<text text-anchor="middle" x="172.12" y="-300.75" font-family="Helvetica,sans-Serif" font-size="10.00">llzk::global::GlobalReadOp</text>
</a>
</g>
</g>
<!-- Node0&#45;&gt;Node41 -->
<g id="edge284_Node000000_Node000041" class="edge">
<title>Node0&#45;&gt;Node41</title>
<g id="a_edge284_Node000000_Node000041"><a xlink:title=" ">
<path fill="none" stroke="#63b8ff" d="M26.95,-893.41C30.47,-792.71 47.58,-365.99 86.5,-322.62 91.82,-316.7 98.56,-312.46 105.91,-309.45"/>
<polygon fill="#63b8ff" stroke="#63b8ff" points="23.46,-893.09 26.62,-903.2 30.46,-893.33 23.46,-893.09"/>
</a>
</g>
</g>
<!-- Node42 -->
<g id="Node000042" class="node">
<title>Node42</title>
<g id="a_Node000042"><a xlink:href="classllzk_1_1global_1_1_global_write_op.html" target="_top" xlink:title=" ">
<polygon fill="white" stroke="#666666" points="237.88,-277.25 106.38,-277.25 106.38,-258 237.88,-258 237.88,-277.25"/>
<text text-anchor="middle" x="172.12" y="-263.75" font-family="Helvetica,sans-Serif" font-size="10.00">llzk::global::GlobalWriteOp</text>
</a>
</g>
</g>
<!-- Node0&#45;&gt;Node42 -->
<g id="edge285_Node000000_Node000042" class="edge">
<title>Node0&#45;&gt;Node42</title>
<g id="a_edge285_Node000000_Node000042"><a xlink:title=" ">
<path fill="none" stroke="#63b8ff" d="M26.83,-893.09C29.83,-787.97 45.18,-331.95 86.5,-285.62 91.8,-279.68 98.53,-275.43 105.88,-272.42"/>
<polygon fill="#63b8ff" stroke="#63b8ff" points="23.33,-892.99 26.55,-903.08 30.32,-893.18 23.33,-892.99"/>
</a>
</g>
</g>
<!-- Node43 -->
<g id="Node000043" class="node">
<title>Node43</title>
<g id="a_Node000043"><a xlink:href="classllzk_1_1include_1_1_include_op.html" target="_top" xlink:title=" ">
<polygon fill="white" stroke="#666666" points="231.12,-240.25 113.12,-240.25 113.12,-221 231.12,-221 231.12,-240.25"/>
<text text-anchor="middle" x="172.12" y="-226.75" font-family="Helvetica,sans-Serif" font-size="10.00">llzk::include::IncludeOp</text>
</a>
</g>
</g>
<!-- Node0&#45;&gt;Node43 -->
<g id="edge286_Node000000_Node000043" class="edge">
<title>Node0&#45;&gt;Node43</title>
<g id="a_edge286_Node000000_Node000043"><a xlink:title=" ">
<path fill="none" stroke="#63b8ff" d="M26.7,-893.2C29.19,-784.57 42.72,-297.97 86.5,-248.62 93.38,-240.87 102.7,-235.99 112.64,-233"/>
<polygon fill="#63b8ff" stroke="#63b8ff" points="23.21,-892.93 26.49,-903 30.21,-893.08 23.21,-892.93"/>
</a>
</g>
</g>
<!-- Node44 -->
<g id="Node000044" class="node">
<title>Node44</title>
<g id="a_Node000044"><a xlink:href="classllzk_1_1polymorphic_1_1_apply_map_op.html" target="_top" xlink:title=" ">
<polygon fill="white" stroke="#666666" points="219.88,-202.88 124.38,-202.88 124.38,-172.38 219.88,-172.38 219.88,-202.88"/>
<text text-anchor="start" x="132.38" y="-189.38" font-family="Helvetica,sans-Serif" font-size="10.00">llzk::polymorphic::</text>
<text text-anchor="middle" x="172.12" y="-178.12" font-family="Helvetica,sans-Serif" font-size="10.00">ApplyMapOp</text>
</a>
</g>
</g>
<!-- Node0&#45;&gt;Node44 -->
<g id="edge287_Node000000_Node000044" class="edge">
<title>Node0&#45;&gt;Node44</title>
<g id="a_edge287_Node000000_Node000044"><a xlink:title=" ">
<path fill="none" stroke="#63b8ff" d="M26.66,-893.13C28.99,-780.91 42.06,-265.47 86.5,-211.62 95.83,-200.32 110.06,-194.12 124.21,-190.78"/>
<polygon fill="#63b8ff" stroke="#63b8ff" points="23.16,-892.93 26.46,-902.99 30.16,-893.07 23.16,-892.93"/>
</a>
</g>
</g>
<!-- Node45 -->
<g id="Node000045" class="node">
<title>Node45</title>
<g id="a_Node000045"><a xlink:href="classllzk_1_1polymorphic_1_1_const_read_op.html" target="_top" xlink:title=" ">
<polygon fill="white" stroke="#666666" points="219.88,-153.88 124.38,-153.88 124.38,-123.38 219.88,-123.38 219.88,-153.88"/>
<text text-anchor="start" x="132.38" y="-140.38" font-family="Helvetica,sans-Serif" font-size="10.00">llzk::polymorphic::</text>
<text text-anchor="middle" x="172.12" y="-129.12" font-family="Helvetica,sans-Serif" font-size="10.00">ConstReadOp</text>
</a>
</g>
</g>
<!-- Node0&#45;&gt;Node45 -->
<g id="edge288_Node000000_Node000045" class="edge">
<title>Node0&#45;&gt;Node45</title>
<g id="a_edge288_Node000000_Node000045"><a xlink:title=" ">
<path fill="none" stroke="#63b8ff" d="M26.55,-893.15C28.34,-776.48 39.32,-221.75 86.5,-163.62 95.77,-152.21 109.99,-145.84 124.14,-142.33"/>
<polygon fill="#63b8ff" stroke="#63b8ff" points="23.05,-893.08 26.4,-903.13 30.05,-893.18 23.05,-893.08"/>
</a>
</g>
</g>
<!-- Node46 -->
<g id="Node000046" class="node">
<title>Node46</title>
<g id="a_Node000046"><a xlink:href="classllzk_1_1polymorphic_1_1_unifiable_cast_op.html" target="_top" xlink:title=" ">
<polygon fill="white" stroke="#666666" points="219.88,-104.88 124.38,-104.88 124.38,-74.38 219.88,-74.38 219.88,-104.88"/>
<text text-anchor="start" x="132.38" y="-91.38" font-family="Helvetica,sans-Serif" font-size="10.00">llzk::polymorphic::</text>
<text text-anchor="middle" x="172.12" y="-80.12" font-family="Helvetica,sans-Serif" font-size="10.00">UnifiableCastOp</text>
</a>
</g>
</g>
<!-- Node0&#45;&gt;Node46 -->
<g id="edge289_Node000000_Node000046" class="edge">
<title>Node0&#45;&gt;Node46</title>
<g id="a_edge289_Node000000_Node000046"><a xlink:title=" ">
<path fill="none" stroke="#63b8ff" d="M26.43,-893.28C27.66,-772.38 36.21,-176.9 86.5,-114.62 95.74,-103.18 109.95,-96.81 124.1,-93.31"/>
<polygon fill="#63b8ff" stroke="#63b8ff" points="22.94,-893.01 26.34,-903.04 29.94,-893.07 22.94,-893.01"/>
</a>
</g>
</g>
<!-- Node47 -->
<g id="Node000047" class="node">
<title>Node47</title>
<g id="a_Node000047"><a xlink:href="classllzk_1_1string_1_1_lit_string_op.html" target="_top" xlink:title=" ">
<polygon fill="white" stroke="#666666" points="230,-56.25 114.25,-56.25 114.25,-37 230,-37 230,-56.25"/>
<text text-anchor="middle" x="172.12" y="-42.75" font-family="Helvetica,sans-Serif" font-size="10.00">llzk::string::LitStringOp</text>
</a>
</g>
</g>
<!-- Node0&#45;&gt;Node47 -->
<g id="edge290_Node000000_Node000047" class="edge">
<title>Node0&#45;&gt;Node47</title>
<g id="a_edge290_Node000000_Node000047"><a xlink:title=" ">
<path fill="none" stroke="#63b8ff" d="M26.27,-893.49C26.58,-768.6 30.89,-130.27 86.5,-65.62 93.57,-57.41 103.36,-52.31 113.77,-49.22"/>
<polygon fill="#63b8ff" stroke="#63b8ff" points="22.77,-893.26 26.25,-903.26 29.77,-893.27 22.77,-893.26"/>
</a>
</g>
</g>
<!-- Node48 -->
<g id="Node000048" class="node">
<title>Node48</title>
<g id="a_Node000048"><a xlink:href="classllzk_1_1undef_1_1_undef_op.html" target="_top" xlink:title=" ">
<polygon fill="white" stroke="#666666" points="225.12,-19.25 119.12,-19.25 119.12,0 225.12,0 225.12,-19.25"/>
<text text-anchor="middle" x="172.12" y="-5.75" font-family="Helvetica,sans-Serif" font-size="10.00">llzk::undef::UndefOp</text>
</a>
</g>
</g>
<!-- Node0&#45;&gt;Node48 -->
<g id="edge291_Node000000_Node000048" class="edge">
<title>Node0&#45;&gt;Node48</title>
<g id="a_edge291_Node000000_Node000048"><a xlink:title=" ">
<path fill="none" stroke="#63b8ff" d="M26.19,-893.34C26.03,-764.76 28.02,-95.05 86.5,-27.62 94.77,-18.09 106.72,-12.88 119.05,-10.18"/>
<polygon fill="#63b8ff" stroke="#63b8ff" points="22.69,-893.12 26.21,-903.11 29.69,-893.11 22.69,-893.12"/>
</a>
</g>
</g>
</g>
</svg>
