<?xml version="1.0" encoding="UTF-8" standalone="no"?>
<!DOCTYPE svg PUBLIC "-//W3C//DTD SVG 1.1//EN"
 "http://www.w3.org/Graphics/SVG/1.1/DTD/svg11.dtd">
<!-- Generated by graphviz version 12.2.1 (0)
 -->
<!-- Title: Graphical Class Hierarchy Pages: 1 -->
<svg width="611pt" height="175pt"
 viewBox="0.00 0.00 611.00 175.38" xmlns="http://www.w3.org/2000/svg" xmlns:xlink="http://www.w3.org/1999/xlink">
<g id="graph0" class="graph" transform="scale(1 1) rotate(0) translate(4 171.38)">
<title>Graphical Class Hierarchy</title>
<!-- Node0 -->
<g id="Node000000" class="node">
<title>Node0</title>
<g id="a_Node000000"><a xlink:href="structllzk_1_1array_1_1detail_1_1_array_ref_op_interface_interface_traits_1_1_concept.html" target="_top" xlink:title=" ">
<polygon fill="white" stroke="#666666" points="150.25,-101.75 0,-101.75 0,-60 150.25,-60 150.25,-101.75"/>
<text text-anchor="start" x="8" y="-88.25" font-family="Helvetica,sans-Serif" font-size="10.00">llzk::array::detail</text>
<text text-anchor="start" x="8" y="-77" font-family="Helvetica,sans-Serif" font-size="10.00">::ArrayRefOpInterfaceInterface</text>
<text text-anchor="middle" x="75.12" y="-65.75" font-family="Helvetica,sans-Serif" font-size="10.00">Traits::Concept</text>
</a>
</g>
</g>
<!-- Node1 -->
<g id="Node000001" class="node">
<title>Node1</title>
<g id="a_Node000001"><a xlink:href="classllzk_1_1array_1_1detail_1_1_array_ref_op_interface_interface_traits_1_1_fallback_model.html" target="_top" xlink:title=" ">
<polygon fill="white" stroke="#666666" points="380,-161.75 186.25,-161.75 186.25,-120 380,-120 380,-161.75"/>
<text text-anchor="start" x="194.25" y="-148.25" font-family="Helvetica,sans-Serif" font-size="10.00">llzk::array::detail</text>
<text text-anchor="start" x="194.25" y="-137" font-family="Helvetica,sans-Serif" font-size="10.00">::ArrayRefOpInterfaceInterface</text>
<text text-anchor="middle" x="283.12" y="-125.75" font-family="Helvetica,sans-Serif" font-size="10.00">Traits::FallbackModel&lt; ConcreteModel &gt;</text>
</a>
</g>
</g>
<!-- Node0&#45;&gt;Node1 -->
<g id="edge13_Node000000_Node000001" class="edge">
<title>Node0&#45;&gt;Node1</title>
<g id="a_edge13_Node000000_Node000001"><a xlink:title=" ">
<path fill="none" stroke="#63b8ff" d="M160.34,-105.4C176.41,-110.08 193.11,-114.95 208.81,-119.52"/>
<polygon fill="#63b8ff" stroke="#63b8ff" points="161.37,-102.06 150.79,-102.62 159.41,-108.78 161.37,-102.06"/>
</a>
</g>
</g>
<!-- Node3 -->
<g id="Node000003" class="node">
<title>Node3</title>
<g id="a_Node000003"><a xlink:href="classllzk_1_1array_1_1detail_1_1_array_ref_op_interface_interface_traits_1_1_fallback_model.html" target="_top" xlink:title=" ">
<polygon fill="white" stroke="#666666" points="373.25,-101.75 193,-101.75 193,-60 373.25,-60 373.25,-101.75"/>
<text text-anchor="start" x="201" y="-88.25" font-family="Helvetica,sans-Serif" font-size="10.00">llzk::array::detail</text>
<text text-anchor="start" x="201" y="-77" font-family="Helvetica,sans-Serif" font-size="10.00">::ArrayRefOpInterfaceInterface</text>
<text text-anchor="middle" x="283.12" y="-65.75" font-family="Helvetica,sans-Serif" font-size="10.00">Traits::FallbackModel&lt; ConcreteOp &gt;</text>
</a>
</g>
</g>
<!-- Node0&#45;&gt;Node3 -->
<g id="edge15_Node000000_Node000003" class="edge">
<title>Node0&#45;&gt;Node3</title>
<g id="a_edge15_Node000000_Node000003"><a xlink:title=" ">
<path fill="none" stroke="#63b8ff" d="M161.89,-80.88C172.09,-80.88 182.52,-80.88 192.76,-80.88"/>
<polygon fill="#63b8ff" stroke="#63b8ff" points="162.01,-77.38 152.01,-80.88 162.01,-84.38 162.01,-77.38"/>
</a>
</g>
</g>
<!-- Node4 -->
<g id="Node000004" class="node">
<title>Node4</title>
<g id="a_Node000004"><a xlink:href="classllzk_1_1array_1_1detail_1_1_array_ref_op_interface_interface_traits_1_1_model.html" target="_top" xlink:title=" ">
<polygon fill="white" stroke="#666666" points="358.25,-41.75 208,-41.75 208,0 358.25,0 358.25,-41.75"/>
<text text-anchor="start" x="216" y="-28.25" font-family="Helvetica,sans-Serif" font-size="10.00">llzk::array::detail</text>
<text text-anchor="start" x="216" y="-17" font-family="Helvetica,sans-Serif" font-size="10.00">::ArrayRefOpInterfaceInterface</text>
<text text-anchor="middle" x="283.12" y="-5.75" font-family="Helvetica,sans-Serif" font-size="10.00">Traits::Model&lt; ConcreteOp &gt;</text>
</a>
</g>
</g>
<!-- Node0&#45;&gt;Node4 -->
<g id="edge16_Node000000_Node000004" class="edge">
<title>Node0&#45;&gt;Node4</title>
<g id="a_edge16_Node000000_Node000004"><a xlink:title=" ">
<path fill="none" stroke="#63b8ff" d="M160.34,-56.35C176.41,-51.67 193.11,-46.8 208.81,-42.23"/>
<polygon fill="#63b8ff" stroke="#63b8ff" points="159.41,-52.97 150.79,-59.13 161.37,-59.69 159.41,-52.97"/>
</a>
</g>
</g>
<!-- Node2 -->
<g id="Node000002" class="node">
<title>Node2</title>
<g id="a_Node000002"><a xlink:href="classllzk_1_1array_1_1detail_1_1_array_ref_op_interface_interface_traits_1_1_external_model.html" target="_top" xlink:title=" ">
<polygon fill="white" stroke="#666666" points="603,-167.38 416,-167.38 416,-114.38 603,-114.38 603,-167.38"/>
<text text-anchor="start" x="424" y="-153.88" font-family="Helvetica,sans-Serif" font-size="10.00">llzk::array::detail</text>
<text text-anchor="start" x="424" y="-142.62" font-family="Helvetica,sans-Serif" font-size="10.00">::ArrayRefOpInterfaceInterface</text>
<text text-anchor="start" x="424" y="-131.38" font-family="Helvetica,sans-Serif" font-size="10.00">Traits::ExternalModel&lt; ConcreteModel,</text>
<text text-anchor="middle" x="509.5" y="-120.12" font-family="Helvetica,sans-Serif" font-size="10.00"> ConcreteOp &gt;</text>
</a>
</g>
</g>
<!-- Node1&#45;&gt;Node2 -->
<g id="edge14_Node000001_Node000002" class="edge">
<title>Node1&#45;&gt;Node2</title>
<g id="a_edge14_Node000001_Node000002"><a xlink:title=" ">
<path fill="none" stroke="#63b8ff" d="M391.63,-140.88C399.7,-140.88 407.8,-140.88 415.77,-140.88"/>
<polygon fill="#63b8ff" stroke="#63b8ff" points="391.77,-137.38 381.77,-140.88 391.77,-144.38 391.77,-137.38"/>
</a>
</g>
</g>
</g>
</svg>
