<?xml version="1.0" encoding="UTF-8" standalone="no"?>
<!DOCTYPE svg PUBLIC "-//W3C//DTD SVG 1.1//EN"
 "http://www.w3.org/Graphics/SVG/1.1/DTD/svg11.dtd">
<!-- Generated by graphviz version 12.2.1 (0)
 -->
<!-- Title: Graphical Class Hierarchy Pages: 1 -->
<svg width="514pt" height="158pt"
 viewBox="0.00 0.00 514.25 158.12" xmlns="http://www.w3.org/2000/svg" xmlns:xlink="http://www.w3.org/1999/xlink">
<g id="graph0" class="graph" transform="scale(1 1) rotate(0) translate(4 154.12)">
<title>Graphical Class Hierarchy</title>
<!-- Node0 -->
<g id="Node000000" class="node">
<title>Node0</title>
<g id="a_Node000000"><a xlink:href="classllzk_1_1boolean_1_1detail_1_1_not_bool_op_generic_adaptor_base.html" target="_top" xlink:title=" ">
<polygon fill="white" stroke="#666666" points="160,-84.5 0,-84.5 0,-54 160,-54 160,-84.5"/>
<text text-anchor="start" x="8" y="-71" font-family="Helvetica,sans-Serif" font-size="10.00">llzk::boolean::detail</text>
<text text-anchor="middle" x="80" y="-59.75" font-family="Helvetica,sans-Serif" font-size="10.00">::NotBoolOpGenericAdaptorBase</text>
</a>
</g>
</g>
<!-- Node1 -->
<g id="Node000001" class="node">
<title>Node1</title>
<g id="a_Node000001"><a xlink:href="classllzk_1_1boolean_1_1_not_bool_op_generic_adaptor.html" target="_top" xlink:title=" ">
<polygon fill="white" stroke="#666666" points="345.5,-150.12 196,-150.12 196,-108.38 345.5,-108.38 345.5,-150.12"/>
<text text-anchor="start" x="204" y="-136.62" font-family="Helvetica,sans-Serif" font-size="10.00">llzk::boolean::NotBoolOp</text>
<text text-anchor="start" x="204" y="-125.38" font-family="Helvetica,sans-Serif" font-size="10.00">GenericAdaptor&lt;::llvm</text>
<text text-anchor="middle" x="270.75" y="-114.12" font-family="Helvetica,sans-Serif" font-size="10.00">::ArrayRef&lt;::mlir::Attribute &gt; &gt;</text>
</a>
</g>
</g>
<!-- Node0&#45;&gt;Node1 -->
<g id="edge49_Node000000_Node000001" class="edge">
<title>Node0&#45;&gt;Node1</title>
<g id="a_edge49_Node000000_Node000001"><a xlink:title=" ">
<path fill="none" stroke="#63b8ff" d="M141.06,-88.34C160.71,-94.59 182.65,-101.56 202.78,-107.96"/>
<polygon fill="#63b8ff" stroke="#63b8ff" points="142.13,-85.01 131.54,-85.32 140.01,-91.68 142.13,-85.01"/>
</a>
</g>
</g>
<!-- Node2 -->
<g id="Node000002" class="node">
<title>Node2</title>
<g id="a_Node000002"><a xlink:href="classllzk_1_1boolean_1_1_not_bool_op_generic_adaptor.html" target="_top" xlink:title=" ">
<polygon fill="white" stroke="#666666" points="333.12,-90.12 208.38,-90.12 208.38,-48.38 333.12,-48.38 333.12,-90.12"/>
<text text-anchor="start" x="216.38" y="-76.62" font-family="Helvetica,sans-Serif" font-size="10.00">llzk::boolean::NotBoolOp</text>
<text text-anchor="start" x="216.38" y="-65.38" font-family="Helvetica,sans-Serif" font-size="10.00">GenericAdaptor&lt;::mlir</text>
<text text-anchor="middle" x="270.75" y="-54.12" font-family="Helvetica,sans-Serif" font-size="10.00">::ValueRange &gt;</text>
</a>
</g>
</g>
<!-- Node0&#45;&gt;Node2 -->
<g id="edge50_Node000000_Node000002" class="edge">
<title>Node0&#45;&gt;Node2</title>
<g id="a_edge50_Node000000_Node000002"><a xlink:title=" ">
<path fill="none" stroke="#63b8ff" d="M171.76,-69.25C184.08,-69.25 196.48,-69.25 208.12,-69.25"/>
<polygon fill="#63b8ff" stroke="#63b8ff" points="172.01,-65.75 162.01,-69.25 172.01,-72.75 172.01,-65.75"/>
</a>
</g>
</g>
<!-- Node4 -->
<g id="Node000004" class="node">
<title>Node4</title>
<g id="a_Node000004"><a xlink:href="classllzk_1_1boolean_1_1_not_bool_op_generic_adaptor.html" target="_top" xlink:title=" ">
<polygon fill="white" stroke="#666666" points="338.75,-30.5 202.75,-30.5 202.75,0 338.75,0 338.75,-30.5"/>
<text text-anchor="start" x="210.75" y="-17" font-family="Helvetica,sans-Serif" font-size="10.00">llzk::boolean::NotBoolOp</text>
<text text-anchor="middle" x="270.75" y="-5.75" font-family="Helvetica,sans-Serif" font-size="10.00">GenericAdaptor&lt; RangeT &gt;</text>
</a>
</g>
</g>
<!-- Node0&#45;&gt;Node4 -->
<g id="edge52_Node000000_Node000004" class="edge">
<title>Node0&#45;&gt;Node4</title>
<g id="a_edge52_Node000000_Node000004"><a xlink:title=" ">
<path fill="none" stroke="#63b8ff" d="M146.86,-50.41C169.03,-44.06 193.52,-37.06 214.77,-30.98"/>
<polygon fill="#63b8ff" stroke="#63b8ff" points="145.95,-47.03 137.3,-53.14 147.88,-53.76 145.95,-47.03"/>
</a>
</g>
</g>
<!-- Node3 -->
<g id="Node000003" class="node">
<title>Node3</title>
<g id="a_Node000003"><a xlink:href="classllzk_1_1boolean_1_1_not_bool_op_adaptor.html" target="_top" xlink:title=" ">
<polygon fill="white" stroke="#666666" points="506.25,-84.5 381.5,-84.5 381.5,-54 506.25,-54 506.25,-84.5"/>
<text text-anchor="start" x="389.5" y="-71" font-family="Helvetica,sans-Serif" font-size="10.00">llzk::boolean::NotBoolOp</text>
<text text-anchor="middle" x="443.88" y="-59.75" font-family="Helvetica,sans-Serif" font-size="10.00">Adaptor</text>
</a>
</g>
</g>
<!-- Node2&#45;&gt;Node3 -->
<g id="edge51_Node000002_Node000003" class="edge">
<title>Node2&#45;&gt;Node3</title>
<g id="a_edge51_Node000002_Node000003"><a xlink:title=" ">
<path fill="none" stroke="#63b8ff" d="M344.97,-69.25C357.03,-69.25 369.44,-69.25 381.19,-69.25"/>
<polygon fill="#63b8ff" stroke="#63b8ff" points="345.04,-65.75 335.04,-69.25 345.04,-72.75 345.04,-65.75"/>
</a>
</g>
</g>
</g>
</svg>
