<?xml version="1.0" encoding="UTF-8" standalone="no"?>
<!DOCTYPE svg PUBLIC "-//W3C//DTD SVG 1.1//EN"
 "http://www.w3.org/Graphics/SVG/1.1/DTD/svg11.dtd">
<!-- Generated by graphviz version 12.2.1 (0)
 -->
<!-- Title: tools/llzk&#45;lsp&#45;server/llzk&#45;lsp&#45;server.cpp Pages: 1 -->
<svg width="718pt" height="172pt"
 viewBox="0.00 0.00 718.00 171.50" xmlns="http://www.w3.org/2000/svg" xmlns:xlink="http://www.w3.org/1999/xlink">
<g id="graph0" class="graph" transform="scale(1 1) rotate(0) translate(4 167.5)">
<title>tools/llzk&#45;lsp&#45;server/llzk&#45;lsp&#45;server.cpp</title>
<!-- Node1 -->
<g id="Node000001" class="node">
<title>Node1</title>
<g id="a_Node000001"><a xlink:title=" ">
<polygon fill="#999999" stroke="#666666" points="482.12,-163.5 381.38,-163.5 381.38,-133 482.12,-133 482.12,-163.5"/>
<text text-anchor="start" x="389.38" y="-150" font-family="Helvetica,sans-Serif" font-size="10.00">tools/llzk&#45;lsp&#45;server</text>
<text text-anchor="middle" x="431.75" y="-138.75" font-family="Helvetica,sans-Serif" font-size="10.00">/llzk&#45;lsp&#45;server.cpp</text>
</a>
</g>
</g>
<!-- Node2 -->
<g id="Node000002" class="node">
<title>Node2</title>
<g id="a_Node000002"><a xlink:href="_init_dialects_8h.html" target="_top" xlink:title="This file defines llzk::registerAllDialects.">
<polygon fill="white" stroke="#666666" points="125.5,-91.38 0,-91.38 0,-72.12 125.5,-72.12 125.5,-91.38"/>
<text text-anchor="middle" x="62.75" y="-77.88" font-family="Helvetica,sans-Serif" font-size="10.00">llzk/Dialect/InitDialects.h</text>
</a>
</g>
</g>
<!-- Node1&#45;&gt;Node2 -->
<g id="edge1_Node000001_Node000002" class="edge">
<title>Node1&#45;&gt;Node2</title>
<g id="a_edge1_Node000001_Node000002"><a xlink:title=" ">
<path fill="none" stroke="#63b8ff" d="M380.96,-139.1C321.77,-129.49 221.03,-112.83 134.75,-97 129.54,-96.04 124.13,-95.02 118.71,-93.98"/>
<polygon fill="#63b8ff" stroke="#63b8ff" points="119.62,-90.59 109.14,-92.12 118.29,-97.47 119.62,-90.59"/>
</a>
</g>
</g>
<!-- Node3 -->
<g id="Node000003" class="node">
<title>Node3</title>
<g id="a_Node000003"><a xlink:title=" ">
<polygon fill="#e0e0e0" stroke="#999999" points="266,-91.38 143.5,-91.38 143.5,-72.12 266,-72.12 266,-91.38"/>
<text text-anchor="middle" x="204.75" y="-77.88" font-family="Helvetica,sans-Serif" font-size="10.00">mlir/IR/DialectRegistry.h</text>
</a>
</g>
</g>
<!-- Node1&#45;&gt;Node3 -->
<g id="edge2_Node000001_Node000003" class="edge">
<title>Node1&#45;&gt;Node3</title>
<g id="a_edge2_Node000001_Node000003"><a xlink:title=" ">
<path fill="none" stroke="#63b8ff" d="M381.09,-132.86C340.89,-121.43 285.34,-105.65 247.39,-94.87"/>
<polygon fill="#63b8ff" stroke="#63b8ff" points="248.73,-91.61 238.16,-92.24 246.82,-98.34 248.73,-91.61"/>
</a>
</g>
</g>
<!-- Node4 -->
<g id="Node000004" class="node">
<title>Node4</title>
<g id="a_Node000004"><a xlink:title=" ">
<polygon fill="#e0e0e0" stroke="#999999" points="423.25,-91.38 284.25,-91.38 284.25,-72.12 423.25,-72.12 423.25,-91.38"/>
<text text-anchor="middle" x="353.75" y="-77.88" font-family="Helvetica,sans-Serif" font-size="10.00">mlir/Support/LogicalResult.h</text>
</a>
</g>
</g>
<!-- Node1&#45;&gt;Node4 -->
<g id="edge3_Node000001_Node000004" class="edge">
<title>Node1&#45;&gt;Node4</title>
<g id="a_edge3_Node000001_Node000004"><a xlink:title=" ">
<path fill="none" stroke="#63b8ff" d="M414.05,-132.61C401.87,-122.54 385.7,-109.17 373.17,-98.81"/>
<polygon fill="#63b8ff" stroke="#63b8ff" points="375.52,-96.21 365.59,-92.54 371.06,-101.61 375.52,-96.21"/>
</a>
</g>
</g>
<!-- Node5 -->
<g id="Node000005" class="node">
<title>Node5</title>
<g id="a_Node000005"><a xlink:title=" ">
<polygon fill="#e0e0e0" stroke="#999999" points="579.88,-97 441.62,-97 441.62,-66.5 579.88,-66.5 579.88,-97"/>
<text text-anchor="start" x="449.62" y="-83.5" font-family="Helvetica,sans-Serif" font-size="10.00">mlir/Tools/mlir&#45;lsp</text>
<text text-anchor="middle" x="510.75" y="-72.25" font-family="Helvetica,sans-Serif" font-size="10.00">&#45;server/MlirLspServerMain.h</text>
</a>
</g>
</g>
<!-- Node1&#45;&gt;Node5 -->
<g id="edge4_Node000001_Node000005" class="edge">
<title>Node1&#45;&gt;Node5</title>
<g id="a_edge4_Node000001_Node000005"><a xlink:title=" ">
<path fill="none" stroke="#63b8ff" d="M449.68,-132.61C459.88,-124.28 472.85,-113.69 484.21,-104.42"/>
<polygon fill="#63b8ff" stroke="#63b8ff" points="486.19,-107.32 491.72,-98.29 481.76,-101.9 486.19,-107.32"/>
</a>
</g>
</g>
<!-- Node6 -->
<g id="Node000006" class="node">
<title>Node6</title>
<g id="a_Node000006"><a xlink:title=" ">
<polygon fill="#e0e0e0" stroke="#999999" points="702.5,-30.5 577,-30.5 577,0 702.5,0 702.5,-30.5"/>
<text text-anchor="start" x="585" y="-17" font-family="Helvetica,sans-Serif" font-size="10.00">llvm/Support/PrettyStack</text>
<text text-anchor="middle" x="639.75" y="-5.75" font-family="Helvetica,sans-Serif" font-size="10.00">Trace.h</text>
</a>
</g>
</g>
<!-- Node1&#45;&gt;Node6 -->
<g id="edge5_Node000001_Node000006" class="edge">
<title>Node1&#45;&gt;Node6</title>
<g id="a_edge5_Node000001_Node000006"><a xlink:title=" ">
<path fill="none" stroke="#63b8ff" d="M482.61,-140.18C515.58,-133.51 557.97,-120.82 588.75,-97 607.43,-82.55 621.11,-59.18 629.57,-41.29"/>
<polygon fill="#63b8ff" stroke="#63b8ff" points="632.67,-42.93 633.55,-32.37 626.28,-40.08 632.67,-42.93"/>
</a>
</g>
</g>
<!-- Node7 -->
<g id="Node000007" class="node">
<title>Node7</title>
<g id="a_Node000007"><a xlink:href="tools_2include_2tools_2config_8h.html" target="_top" xlink:title=" ">
<polygon fill="white" stroke="#666666" points="710,-91.38 635.5,-91.38 635.5,-72.12 710,-72.12 710,-91.38"/>
<text text-anchor="middle" x="672.75" y="-77.88" font-family="Helvetica,sans-Serif" font-size="10.00">tools/config.h</text>
</a>
</g>
</g>
<!-- Node1&#45;&gt;Node7 -->
<g id="edge6_Node000001_Node000007" class="edge">
<title>Node1&#45;&gt;Node7</title>
<g id="a_edge6_Node000001_Node000007"><a xlink:title=" ">
<path fill="none" stroke="#63b8ff" d="M482.61,-134C520.9,-123.98 574.67,-109.8 621.75,-97 624.29,-96.31 626.91,-95.59 629.55,-94.87"/>
<polygon fill="#63b8ff" stroke="#63b8ff" points="630.23,-98.31 638.93,-92.27 628.36,-91.56 630.23,-98.31"/>
</a>
</g>
</g>
<!-- Node7&#45;&gt;Node6 -->
<g id="edge7_Node000007_Node000006" class="edge">
<title>Node7&#45;&gt;Node6</title>
<g id="a_edge7_Node000007_Node000006"><a xlink:title=" ">
<path fill="none" stroke="#63b8ff" d="M668.16,-71.78C664.07,-63.79 657.89,-51.7 652.33,-40.84"/>
<polygon fill="#63b8ff" stroke="#63b8ff" points="655.45,-39.25 647.78,-31.94 649.22,-42.44 655.45,-39.25"/>
</a>
</g>
</g>
</g>
</svg>
