<?xml version="1.0" encoding="UTF-8" standalone="no"?>
<!DOCTYPE svg PUBLIC "-//W3C//DTD SVG 1.1//EN"
 "http://www.w3.org/Graphics/SVG/1.1/DTD/svg11.dtd">
<!-- Generated by graphviz version 12.2.1 (0)
 -->
<!-- Title: llzk::constrain::ConstraintOpInterface::Trait&lt; ConcreteOp &gt; Pages: 1 -->
<svg width="171pt" height="183pt"
 viewBox="0.00 0.00 171.00 182.75" xmlns="http://www.w3.org/2000/svg" xmlns:xlink="http://www.w3.org/1999/xlink">
<g id="graph0" class="graph" transform="scale(1 1) rotate(0) translate(4 178.75)">
<title>llzk::constrain::ConstraintOpInterface::Trait&lt; ConcreteOp &gt;</title>
<!-- Node1 -->
<g id="Node000001" class="node">
<title>Node1</title>
<g id="a_Node000001"><a xlink:title=" ">
<polygon fill="#999999" stroke="#666666" points="163,-30.5 0,-30.5 0,0 163,0 163,-30.5"/>
<text text-anchor="start" x="8" y="-17" font-family="Helvetica,sans-Serif" font-size="10.00">llzk::constrain::Constraint</text>
<text text-anchor="middle" x="81.5" y="-5.75" font-family="Helvetica,sans-Serif" font-size="10.00">OpInterface::Trait&lt; ConcreteOp &gt;</text>
</a>
</g>
</g>
<!-- Node2 -->
<g id="Node000002" class="node">
<title>Node2</title>
<g id="a_Node000002"><a xlink:href="structllzk_1_1constrain_1_1detail_1_1_constraint_op_interface_trait.html" target="_top" xlink:title=" ">
<polygon fill="white" stroke="#666666" points="150.25,-108.25 12.75,-108.25 12.75,-66.5 150.25,-66.5 150.25,-108.25"/>
<text text-anchor="start" x="20.75" y="-94.75" font-family="Helvetica,sans-Serif" font-size="10.00">llzk::constrain::detail</text>
<text text-anchor="start" x="20.75" y="-83.5" font-family="Helvetica,sans-Serif" font-size="10.00">::ConstraintOpInterfaceTrait</text>
<text text-anchor="middle" x="81.5" y="-72.25" font-family="Helvetica,sans-Serif" font-size="10.00">&lt; ConcreteOp &gt;</text>
</a>
</g>
</g>
<!-- Node2&#45;&gt;Node1 -->
<g id="edge1_Node000001_Node000002" class="edge">
<title>Node2&#45;&gt;Node1</title>
<g id="a_edge1_Node000001_Node000002"><a xlink:title=" ">
<path fill="none" stroke="#63b8ff" d="M81.5,-54.63C81.5,-46.27 81.5,-37.65 81.5,-30.7"/>
<polygon fill="#63b8ff" stroke="#63b8ff" points="78,-54.58 81.5,-64.58 85,-54.58 78,-54.58"/>
</a>
</g>
</g>
<!-- Node3 -->
<g id="Node000003" class="node">
<title>Node3</title>
<g id="a_Node000003"><a xlink:title=" ">
<polygon fill="white" stroke="#666666" points="134.5,-174.75 28.5,-174.75 28.5,-144.25 134.5,-144.25 134.5,-174.75"/>
<text text-anchor="start" x="36.5" y="-161.25" font-family="Helvetica,sans-Serif" font-size="10.00">mlir::OpInterface::</text>
<text text-anchor="middle" x="81.5" y="-150" font-family="Helvetica,sans-Serif" font-size="10.00">Trait&lt; ConcreteOp &gt;</text>
</a>
</g>
</g>
<!-- Node3&#45;&gt;Node2 -->
<g id="edge2_Node000002_Node000003" class="edge">
<title>Node3&#45;&gt;Node2</title>
<g id="a_edge2_Node000002_Node000003"><a xlink:title=" ">
<path fill="none" stroke="#63b8ff" d="M81.5,-132.72C81.5,-124.81 81.5,-116.23 81.5,-108.74"/>
<polygon fill="#63b8ff" stroke="#63b8ff" points="78,-132.46 81.5,-142.46 85,-132.46 78,-132.46"/>
</a>
</g>
</g>
</g>
</svg>
