<?xml version="1.0" encoding="UTF-8" standalone="no"?>
<!DOCTYPE svg PUBLIC "-//W3C//DTD SVG 1.1//EN"
 "http://www.w3.org/Graphics/SVG/1.1/DTD/svg11.dtd">
<!-- Generated by graphviz version 12.2.1 (0)
 -->
<!-- Title: llzk::IntervalAnalysisContext Pages: 1 -->
<svg width="245pt" height="296pt"
 viewBox="0.00 0.00 245.12 296.25" xmlns="http://www.w3.org/2000/svg" xmlns:xlink="http://www.w3.org/1999/xlink">
<g id="graph0" class="graph" transform="scale(1 1) rotate(0) translate(4 292.25)">
<title>llzk::IntervalAnalysisContext</title>
<!-- Node1 -->
<g id="Node000001" class="node">
<title>Node1</title>
<g id="a_Node000001"><a xlink:title="Parameters and shared objects to pass to child analyses.">
<polygon fill="#999999" stroke="#666666" points="218.75,-19.25 77.5,-19.25 77.5,0 218.75,0 218.75,-19.25"/>
<text text-anchor="middle" x="148.12" y="-5.75" font-family="Helvetica,sans-Serif" font-size="10.00">llzk::IntervalAnalysisContext</text>
</a>
</g>
</g>
<!-- Node2 -->
<g id="Node000002" class="node">
<title>Node2</title>
<g id="a_Node000002"><a xlink:href="classllzk_1_1_interval_data_flow_analysis.html" target="_top" xlink:title=" ">
<polygon fill="white" stroke="#666666" points="161.5,-85.75 12.75,-85.75 12.75,-66.5 161.5,-66.5 161.5,-85.75"/>
<text text-anchor="middle" x="87.12" y="-72.25" font-family="Helvetica,sans-Serif" font-size="10.00">llzk::IntervalDataFlowAnalysis</text>
</a>
</g>
</g>
<!-- Node2&#45;&gt;Node1 -->
<g id="edge1_Node000001_Node000002" class="edge">
<title>Node2&#45;&gt;Node1</title>
<g id="a_edge1_Node000001_Node000002"><a xlink:title=" ">
<path fill="none" stroke="#9a32cd" stroke-dasharray="5,2" d="M99.34,-56.87C104.03,-50.4 109.64,-43.23 115.38,-37.25 121.56,-30.8 129.29,-24.45 135.69,-19.57"/>
<polygon fill="#9a32cd" stroke="#9a32cd" points="96.54,-54.77 93.7,-64.98 102.29,-58.76 96.54,-54.77"/>
</a>
</g>
<text text-anchor="middle" x="142.75" y="-39" font-family="Helvetica,sans-Serif" font-size="10.00" fill="grey"> intervalDFA</text>
</g>
<!-- Node3 -->
<g id="Node000003" class="node">
<title>Node3</title>
<g id="a_Node000003"><a xlink:href="classllzk_1_1dataflow_1_1_dense_forward_data_flow_analysis.html" target="_top" xlink:title=" ">
<polygon fill="white" stroke="#666666" points="174.25,-164.5 0,-164.5 0,-122.75 174.25,-122.75 174.25,-164.5"/>
<text text-anchor="start" x="8" y="-151" font-family="Helvetica,sans-Serif" font-size="10.00">llzk::dataflow::DenseForward</text>
<text text-anchor="start" x="8" y="-139.75" font-family="Helvetica,sans-Serif" font-size="10.00">DataFlowAnalysis&lt; IntervalAnalysis</text>
<text text-anchor="middle" x="87.12" y="-128.5" font-family="Helvetica,sans-Serif" font-size="10.00">Lattice &gt;</text>
</a>
</g>
</g>
<!-- Node3&#45;&gt;Node2 -->
<g id="edge2_Node000002_Node000003" class="edge">
<title>Node3&#45;&gt;Node2</title>
<g id="a_edge2_Node000002_Node000003"><a xlink:title=" ">
<path fill="none" stroke="#63b8ff" d="M87.12,-110.93C87.12,-101.77 87.12,-92.5 87.12,-85.99"/>
<polygon fill="#63b8ff" stroke="#63b8ff" points="83.63,-110.75 87.13,-120.75 90.63,-110.75 83.63,-110.75"/>
</a>
</g>
</g>
<!-- Node4 -->
<g id="Node000004" class="node">
<title>Node4</title>
<g id="a_Node000004"><a xlink:href="classllzk_1_1dataflow_1_1_abstract_dense_forward_data_flow_analysis.html" target="_top" xlink:title="LLZK: This class has been ported from the MLIR DenseAnalysis utilities to allow for the use of custom...">
<polygon fill="white" stroke="#666666" points="166.75,-232 7.5,-232 7.5,-201.5 166.75,-201.5 166.75,-232"/>
<text text-anchor="start" x="15.5" y="-218.5" font-family="Helvetica,sans-Serif" font-size="10.00">llzk::dataflow::Abstract</text>
<text text-anchor="middle" x="87.12" y="-207.25" font-family="Helvetica,sans-Serif" font-size="10.00">DenseForwardDataFlowAnalysis</text>
</a>
</g>
</g>
<!-- Node4&#45;&gt;Node3 -->
<g id="edge3_Node000003_Node000004" class="edge">
<title>Node4&#45;&gt;Node3</title>
<g id="a_edge3_Node000003_Node000004"><a xlink:title=" ">
<path fill="none" stroke="#63b8ff" d="M87.12,-189.7C87.12,-181.46 87.12,-172.49 87.12,-164.74"/>
<polygon fill="#63b8ff" stroke="#63b8ff" points="83.63,-189.5 87.13,-199.5 90.63,-189.5 83.63,-189.5"/>
</a>
</g>
</g>
<!-- Node5 -->
<g id="Node000005" class="node">
<title>Node5</title>
<g id="a_Node000005"><a xlink:title=" ">
<polygon fill="white" stroke="#666666" points="145.75,-288.25 28.5,-288.25 28.5,-269 145.75,-269 145.75,-288.25"/>
<text text-anchor="middle" x="87.12" y="-274.75" font-family="Helvetica,sans-Serif" font-size="10.00">mlir::DataFlowAnalysis</text>
</a>
</g>
</g>
<!-- Node5&#45;&gt;Node4 -->
<g id="edge4_Node000004_Node000005" class="edge">
<title>Node5&#45;&gt;Node4</title>
<g id="a_edge4_Node000004_Node000005"><a xlink:title=" ">
<path fill="none" stroke="#63b8ff" d="M87.12,-257.19C87.12,-248.93 87.12,-239.59 87.12,-232.07"/>
<polygon fill="#63b8ff" stroke="#63b8ff" points="83.63,-257.02 87.13,-267.02 90.63,-257.02 83.63,-257.02"/>
</a>
</g>
</g>
<!-- Node6 -->
<g id="Node000006" class="node">
<title>Node6</title>
<g id="a_Node000006"><a xlink:href="classllzk_1_1_field.html" target="_top" xlink:title="Information about the prime finite field used for the interval analysis.">
<polygon fill="white" stroke="#666666" points="237.12,-85.75 179.12,-85.75 179.12,-66.5 237.12,-66.5 237.12,-85.75"/>
<text text-anchor="middle" x="208.12" y="-72.25" font-family="Helvetica,sans-Serif" font-size="10.00">llzk::Field</text>
</a>
</g>
</g>
<!-- Node6&#45;&gt;Node1 -->
<g id="edge5_Node000001_Node000006" class="edge">
<title>Node6&#45;&gt;Node1</title>
<g id="a_edge5_Node000001_Node000006"><a xlink:title=" ">
<path fill="none" stroke="#9a32cd" stroke-dasharray="5,2" d="M192.17,-57.97C180.66,-45.6 165.59,-29.4 156.4,-19.52"/>
<polygon fill="#9a32cd" stroke="#9a32cd" points="189.38,-60.11 198.75,-65.05 194.5,-55.34 189.38,-60.11"/>
</a>
</g>
<text text-anchor="middle" x="192.22" y="-39" font-family="Helvetica,sans-Serif" font-size="10.00" fill="grey"> field</text>
</g>
</g>
</svg>
