<?xml version="1.0" encoding="UTF-8" standalone="no"?>
<!DOCTYPE svg PUBLIC "-//W3C//DTD SVG 1.1//EN"
 "http://www.w3.org/Graphics/SVG/1.1/DTD/svg11.dtd">
<!-- Generated by graphviz version 12.2.1 (0)
 -->
<!-- Title: llzk::global::detail::GlobalRefOpInterfaceTrait&lt; ConcreteOp &gt; Pages: 1 -->
<svg width="158pt" height="183pt"
 viewBox="0.00 0.00 158.25 182.75" xmlns="http://www.w3.org/2000/svg" xmlns:xlink="http://www.w3.org/1999/xlink">
<g id="graph0" class="graph" transform="scale(1 1) rotate(0) translate(4 178.75)">
<title>llzk::global::detail::GlobalRefOpInterfaceTrait&lt; ConcreteOp &gt;</title>
<!-- Node1 -->
<g id="Node000001" class="node">
<title>Node1</title>
<g id="a_Node000001"><a xlink:title=" ">
<polygon fill="#999999" stroke="#666666" points="143.12,-108.25 7.12,-108.25 7.12,-66.5 143.12,-66.5 143.12,-108.25"/>
<text text-anchor="start" x="15.12" y="-94.75" font-family="Helvetica,sans-Serif" font-size="10.00">llzk::global::detail</text>
<text text-anchor="start" x="15.12" y="-83.5" font-family="Helvetica,sans-Serif" font-size="10.00">::GlobalRefOpInterfaceTrait</text>
<text text-anchor="middle" x="75.12" y="-72.25" font-family="Helvetica,sans-Serif" font-size="10.00">&lt; ConcreteOp &gt;</text>
</a>
</g>
</g>
<!-- Node3 -->
<g id="Node000003" class="node">
<title>Node3</title>
<g id="a_Node000003"><a xlink:href="structllzk_1_1global_1_1_global_ref_op_interface_1_1_trait.html" target="_top" xlink:title=" ">
<polygon fill="white" stroke="#666666" points="150.25,-30.5 0,-30.5 0,0 150.25,0 150.25,-30.5"/>
<text text-anchor="start" x="8" y="-17" font-family="Helvetica,sans-Serif" font-size="10.00">llzk::global::GlobalRefOp</text>
<text text-anchor="middle" x="75.12" y="-5.75" font-family="Helvetica,sans-Serif" font-size="10.00">Interface::Trait&lt; ConcreteOp &gt;</text>
</a>
</g>
</g>
<!-- Node1&#45;&gt;Node3 -->
<g id="edge2_Node000001_Node000003" class="edge">
<title>Node1&#45;&gt;Node3</title>
<g id="a_edge2_Node000001_Node000003"><a xlink:title=" ">
<path fill="none" stroke="#63b8ff" d="M75.12,-54.63C75.12,-46.27 75.12,-37.65 75.12,-30.7"/>
<polygon fill="#63b8ff" stroke="#63b8ff" points="71.63,-54.58 75.13,-64.58 78.63,-54.58 71.63,-54.58"/>
</a>
</g>
</g>
<!-- Node2 -->
<g id="Node000002" class="node">
<title>Node2</title>
<g id="a_Node000002"><a xlink:title=" ">
<polygon fill="white" stroke="#666666" points="128.12,-174.75 22.12,-174.75 22.12,-144.25 128.12,-144.25 128.12,-174.75"/>
<text text-anchor="start" x="30.12" y="-161.25" font-family="Helvetica,sans-Serif" font-size="10.00">mlir::OpInterface::</text>
<text text-anchor="middle" x="75.12" y="-150" font-family="Helvetica,sans-Serif" font-size="10.00">Trait&lt; ConcreteOp &gt;</text>
</a>
</g>
</g>
<!-- Node2&#45;&gt;Node1 -->
<g id="edge1_Node000001_Node000002" class="edge">
<title>Node2&#45;&gt;Node1</title>
<g id="a_edge1_Node000001_Node000002"><a xlink:title=" ">
<path fill="none" stroke="#63b8ff" d="M75.12,-132.72C75.12,-124.81 75.12,-116.23 75.12,-108.74"/>
<polygon fill="#63b8ff" stroke="#63b8ff" points="71.63,-132.46 75.13,-142.46 78.63,-132.46 71.63,-132.46"/>
</a>
</g>
</g>
</g>
</svg>
